<svg xmlns="http://www.w3.org/2000/svg" class="railroad-diagram" height="80" viewBox="0 0 1837.5 80" width="1837.5">
<g transform="translate(.5 .5)">
<style>/* <![CDATA[ */
    svg.railroad-diagram {
    }
    svg.railroad-diagram path {
        stroke-width:3;
        stroke:black;
        fill:white;
    }
    svg.railroad-diagram text {
        font:14px "Fira Mono", monospace;
        text-anchor:middle;
    }
    svg.railroad-diagram text.label{
        text-anchor:start;
    }
    svg.railroad-diagram text.comment{
        font:italic 12px "Fira Mono", monospace;
    }
    svg.railroad-diagram rect{
        stroke-width:2;
        stroke:black;
        fill:mistyrose;
    }

/* ]]> */
</style><g>
<path d="M20 30v20m10 -20v20m-10 -10h20"/></g><g>
<path d="M40 40h0.0"/><path d="M1797.5 40h0.0"/><path d="M40.0 40a10 10 0 0 0 10 -10v0a10 10 0 0 1 10 -10h1508.0"/><path d="M312.0 60h1465.5a10 10 0 0 0 10 -10v0a10 10 0 0 1 10 -10"/><path d="M40.0 40h10"/><g>
<path d="M50.0 40h0.0"/><path d="M292.0 40h0.0"/><path d="M50.0 40h20"/><g>
<path d="M70.0 40h0.0"/><path d="M272.0 40h0.0"/><g class="non-terminal">
<path d="M70.0 40h0.0"/><path d="M132.5 40h0.0"/><rect height="22" width="62.5" x="70.0" y="29"/><text x="101.25" y="44">aexpr</text></g><path d="M132.5 40h10"/><path d="M142.5 40h10"/><g class="non-terminal">
<path d="M152.5 40h0.0"/><path d="M189.5 40h0.0"/><rect height="22" width="37.0" x="152.5" y="29"/><text x="171.0" y="44">gt</text></g><path d="M189.5 40h10"/><path d="M199.5 40h10"/><g class="non-terminal">
<path d="M209.5 40h0.0"/><path d="M272.0 40h0.0"/><rect height="22" width="62.5" x="209.5" y="29"/><text x="240.75" y="44">aexpr</text></g></g><path d="M272.0 40h20"/></g><path d="M292.0 40a10 10 0 0 1 10 10v0a10 10 0 0 0 10 10"/><path d="M292.0 20a10 10 0 0 1 10 10v0a10 10 0 0 0 10 10"/><g>
<path d="M312.0 40h0.0"/><path d="M554.0 40h0.0"/><path d="M312.0 40h20"/><g>
<path d="M332.0 40h0.0"/><path d="M534.0 40h0.0"/><g class="non-terminal">
<path d="M332.0 40h0.0"/><path d="M394.5 40h0.0"/><rect height="22" width="62.5" x="332.0" y="29"/><text x="363.25" y="44">aexpr</text></g><path d="M394.5 40h10"/><path d="M404.5 40h10"/><g class="non-terminal">
<path d="M414.5 40h0.0"/><path d="M451.5 40h0.0"/><rect height="22" width="37.0" x="414.5" y="29"/><text x="433.0" y="44">lt</text></g><path d="M451.5 40h10"/><path d="M461.5 40h10"/><g class="non-terminal">
<path d="M471.5 40h0.0"/><path d="M534.0 40h0.0"/><rect height="22" width="62.5" x="471.5" y="29"/><text x="502.75" y="44">aexpr</text></g></g><path d="M534.0 40h20"/></g><path d="M554.0 40a10 10 0 0 1 10 10v0a10 10 0 0 0 10 10"/><path d="M554.0 20a10 10 0 0 1 10 10v0a10 10 0 0 0 10 10"/><g>
<path d="M574.0 40h0.0"/><path d="M807.5 40h0.0"/><path d="M574.0 40h20"/><g>
<path d="M594.0 40h0.0"/><path d="M787.5 40h0.0"/><g class="non-terminal">
<path d="M594.0 40h0.0"/><path d="M656.5 40h0.0"/><rect height="22" width="62.5" x="594.0" y="29"/><text x="625.25" y="44">aexpr</text></g><path d="M656.5 40h10"/><path d="M666.5 40h10"/><g class="terminal">
<path d="M676.5 40h0.0"/><path d="M705.0 40h0.0"/><rect height="22" rx="10" ry="10" width="28.5" x="676.5" y="29"/><text x="690.75" y="44">=</text></g><path d="M705.0 40h10"/><path d="M715.0 40h10"/><g class="non-terminal">
<path d="M725.0 40h0.0"/><path d="M787.5 40h0.0"/><rect height="22" width="62.5" x="725.0" y="29"/><text x="756.25" y="44">aexpr</text></g></g><path d="M787.5 40h20"/></g><path d="M807.5 40a10 10 0 0 1 10 10v0a10 10 0 0 0 10 10"/><path d="M807.5 20a10 10 0 0 1 10 10v0a10 10 0 0 0 10 10"/><g>
<path d="M827.5 40h0.0"/><path d="M1061.0 40h0.0"/><path d="M827.5 40h20"/><g>
<path d="M847.5 40h0.0"/><path d="M1041.0 40h0.0"/><g class="non-terminal">
<path d="M847.5 40h0.0"/><path d="M910.0 40h0.0"/><rect height="22" width="62.5" x="847.5" y="29"/><text x="878.75" y="44">bexpr</text></g><path d="M910.0 40h10"/><path d="M920.0 40h10"/><g class="terminal">
<path d="M930.0 40h0.0"/><path d="M958.5 40h0.0"/><rect height="22" rx="10" ry="10" width="28.5" x="930.0" y="29"/><text x="944.25" y="44">=</text></g><path d="M958.5 40h10"/><path d="M968.5 40h10"/><g class="non-terminal">
<path d="M978.5 40h0.0"/><path d="M1041.0 40h0.0"/><rect height="22" width="62.5" x="978.5" y="29"/><text x="1009.75" y="44">bexpr</text></g></g><path d="M1041.0 40h20"/></g><path d="M1061.0 40a10 10 0 0 1 10 10v0a10 10 0 0 0 10 10"/><path d="M1061.0 20a10 10 0 0 1 10 10v0a10 10 0 0 0 10 10"/><g>
<path d="M1081.0 40h0.0"/><path d="M1314.5 40h0.0"/><path d="M1081.0 40h20"/><g>
<path d="M1101.0 40h0.0"/><path d="M1294.5 40h0.0"/><g class="non-terminal">
<path d="M1101.0 40h0.0"/><path d="M1163.5 40h0.0"/><rect height="22" width="62.5" x="1101.0" y="29"/><text x="1132.25" y="44">bexpr</text></g><path d="M1163.5 40h10"/><path d="M1173.5 40h10"/><g class="terminal">
<path d="M1183.5 40h0.0"/><path d="M1212.0 40h0.0"/><rect height="22" rx="10" ry="10" width="28.5" x="1183.5" y="29"/><text x="1197.75" y="44">&amp;</text></g><path d="M1212.0 40h10"/><path d="M1222.0 40h10"/><g class="non-terminal">
<path d="M1232.0 40h0.0"/><path d="M1294.5 40h0.0"/><rect height="22" width="62.5" x="1232.0" y="29"/><text x="1263.25" y="44">bexpr</text></g></g><path d="M1294.5 40h20"/></g><path d="M1314.5 40a10 10 0 0 1 10 10v0a10 10 0 0 0 10 10"/><path d="M1314.5 20a10 10 0 0 1 10 10v0a10 10 0 0 0 10 10"/><g>
<path d="M1334.5 40h0.0"/><path d="M1568.0 40h0.0"/><path d="M1334.5 40h20"/><g>
<path d="M1354.5 40h0.0"/><path d="M1548.0 40h0.0"/><g class="non-terminal">
<path d="M1354.5 40h0.0"/><path d="M1417.0 40h0.0"/><rect height="22" width="62.5" x="1354.5" y="29"/><text x="1385.75" y="44">bexpr</text></g><path d="M1417.0 40h10"/><path d="M1427.0 40h10"/><g class="terminal">
<path d="M1437.0 40h0.0"/><path d="M1465.5 40h0.0"/><rect height="22" rx="10" ry="10" width="28.5" x="1437.0" y="29"/><text x="1451.25" y="44">|</text></g><path d="M1465.5 40h10"/><path d="M1475.5 40h10"/><g class="non-terminal">
<path d="M1485.5 40h0.0"/><path d="M1548.0 40h0.0"/><rect height="22" width="62.5" x="1485.5" y="29"/><text x="1516.75" y="44">bexpr</text></g></g><path d="M1548.0 40h20"/></g><path d="M1568.0 40a10 10 0 0 1 10 10v0a10 10 0 0 0 10 10"/><path d="M1568.0 20a10 10 0 0 1 10 10v0a10 10 0 0 0 10 10"/><g>
<path d="M1588.0 40h0.0"/><path d="M1787.5 40h0.0"/><path d="M1588.0 40h20"/><g>
<path d="M1608.0 40h0.0"/><path d="M1767.5 40h0.0"/><g class="terminal">
<path d="M1608.0 40h0.0"/><path d="M1636.5 40h0.0"/><rect height="22" rx="10" ry="10" width="28.5" x="1608.0" y="29"/><text x="1622.25" y="44">(</text></g><path d="M1636.5 40h10"/><path d="M1646.5 40h10"/><g class="non-terminal">
<path d="M1656.5 40h0.0"/><path d="M1719.0 40h0.0"/><rect height="22" width="62.5" x="1656.5" y="29"/><text x="1687.75" y="44">bexrp</text></g><path d="M1719.0 40h10"/><path d="M1729.0 40h10"/><g class="terminal">
<path d="M1739.0 40h0.0"/><path d="M1767.5 40h0.0"/><rect height="22" rx="10" ry="10" width="28.5" x="1739.0" y="29"/><text x="1753.25" y="44">)</text></g></g><path d="M1767.5 40h20"/></g><path d="M1787.5 40h10"/></g><path d="M 1797.5 40 h 20 m -10 -10 v 20 m 10 -20 v 20"/></g></svg>