<?xml version="1.0" encoding="UTF-8" standalone="no"?>
<!DOCTYPE svg PUBLIC "-//W3C//DTD SVG 1.1//EN"
 "http://www.w3.org/Graphics/SVG/1.1/DTD/svg11.dtd">
<!-- Generated by graphviz version 12.1.1 (20240910.0053)
 -->
<!-- Pages: 1 -->
<svg width="578pt" height="188pt"
 viewBox="0.00 0.00 578.46 188.00" xmlns="http://www.w3.org/2000/svg" xmlns:xlink="http://www.w3.org/1999/xlink">
<g id="graph0" class="graph" transform="scale(1 1) rotate(0) translate(4 184)">
<polygon fill="white" stroke="none" points="-4,4 -4,-184 574.46,-184 574.46,4 -4,4"/>
<!-- Crash Database -->
<g id="node1" class="node">
<title>Crash Database</title>
<path fill="none" stroke="black" d="M335.6,-32.73C335.6,-34.53 313.02,-36 285.23,-36 257.43,-36 234.85,-34.53 234.85,-32.73 234.85,-32.73 234.85,-3.27 234.85,-3.27 234.85,-1.47 257.43,0 285.23,0 313.02,0 335.6,-1.47 335.6,-3.27 335.6,-3.27 335.6,-32.73 335.6,-32.73"/>
<path fill="none" stroke="black" d="M335.6,-32.73C335.6,-30.92 313.02,-29.45 285.23,-29.45 257.43,-29.45 234.85,-30.92 234.85,-32.73"/>
<text text-anchor="middle" x="285.23" y="-11.82" font-family="Times,serif" font-size="14.00">Crash Database</text>
</g>
<!-- Fuzzer 1 -->
<g id="node2" class="node">
<title>Fuzzer 1</title>
<ellipse fill="none" stroke="black" cx="40.23" cy="-162" rx="40.23" ry="18"/>
<text text-anchor="middle" x="40.23" y="-155.82" font-family="Times,serif" font-size="14.00">Fuzzer 1</text>
</g>
<!-- Crash Server -->
<g id="node3" class="node">
<title>Crash Server</title>
<ellipse fill="none" stroke="black" cx="285.23" cy="-90" rx="55.02" ry="18"/>
<text text-anchor="middle" x="285.23" y="-83.83" font-family="Times,serif" font-size="14.00">Crash Server</text>
</g>
<!-- Fuzzer 1&#45;&gt;Crash Server -->
<g id="edge1" class="edge">
<title>Fuzzer 1&#45;&gt;Crash Server</title>
<path fill="none" stroke="black" d="M70.96,-149.97C76.99,-147.91 83.29,-145.83 89.23,-144 137.01,-129.27 192.01,-114.6 231.56,-104.43"/>
<polygon fill="black" stroke="black" points="232.26,-107.87 241.08,-102 230.52,-101.09 232.26,-107.87"/>
</g>
<!-- Crash Server&#45;&gt;Crash Database -->
<g id="edge7" class="edge">
<title>Crash Server&#45;&gt;Crash Database</title>
<path fill="none" stroke="black" d="M285.23,-71.7C285.23,-64.41 285.23,-55.73 285.23,-47.54"/>
<polygon fill="black" stroke="black" points="288.73,-47.62 285.23,-37.62 281.73,-47.62 288.73,-47.62"/>
</g>
<!-- Fuzzer 2 -->
<g id="node4" class="node">
<title>Fuzzer 2</title>
<ellipse fill="none" stroke="black" cx="138.23" cy="-162" rx="40.23" ry="18"/>
<text text-anchor="middle" x="138.23" y="-155.82" font-family="Times,serif" font-size="14.00">Fuzzer 2</text>
</g>
<!-- Fuzzer 2&#45;&gt;Crash Server -->
<g id="edge2" class="edge">
<title>Fuzzer 2&#45;&gt;Crash Server</title>
<path fill="none" stroke="black" d="M165.19,-148.16C187.48,-137.55 219.48,-122.31 244.83,-110.24"/>
<polygon fill="black" stroke="black" points="246,-113.56 253.52,-106.1 242.99,-107.24 246,-113.56"/>
</g>
<!-- Fuzzer 3 -->
<g id="node5" class="node">
<title>Fuzzer 3</title>
<ellipse fill="none" stroke="black" cx="236.23" cy="-162" rx="40.23" ry="18"/>
<text text-anchor="middle" x="236.23" y="-155.82" font-family="Times,serif" font-size="14.00">Fuzzer 3</text>
</g>
<!-- Fuzzer 3&#45;&gt;Crash Server -->
<g id="edge3" class="edge">
<title>Fuzzer 3&#45;&gt;Crash Server</title>
<path fill="none" stroke="black" d="M247.84,-144.41C253.49,-136.34 260.43,-126.43 266.78,-117.35"/>
<polygon fill="black" stroke="black" points="269.62,-119.4 272.49,-109.2 263.89,-115.38 269.62,-119.4"/>
</g>
<!-- Fuzzer 4 -->
<g id="node6" class="node">
<title>Fuzzer 4</title>
<ellipse fill="none" stroke="black" cx="334.23" cy="-162" rx="40.23" ry="18"/>
<text text-anchor="middle" x="334.23" y="-155.82" font-family="Times,serif" font-size="14.00">Fuzzer 4</text>
</g>
<!-- Fuzzer 4&#45;&gt;Crash Server -->
<g id="edge4" class="edge">
<title>Fuzzer 4&#45;&gt;Crash Server</title>
<path fill="none" stroke="black" d="M322.62,-144.41C316.96,-136.34 310.03,-126.43 303.68,-117.35"/>
<polygon fill="black" stroke="black" points="306.57,-115.38 297.97,-109.2 300.83,-119.4 306.57,-115.38"/>
</g>
<!-- Fuzzer 5 -->
<g id="node7" class="node">
<title>Fuzzer 5</title>
<ellipse fill="none" stroke="black" cx="432.23" cy="-162" rx="40.23" ry="18"/>
<text text-anchor="middle" x="432.23" y="-155.82" font-family="Times,serif" font-size="14.00">Fuzzer 5</text>
</g>
<!-- Fuzzer 5&#45;&gt;Crash Server -->
<g id="edge5" class="edge">
<title>Fuzzer 5&#45;&gt;Crash Server</title>
<path fill="none" stroke="black" d="M405.27,-148.16C382.97,-137.55 350.98,-122.31 325.63,-110.24"/>
<polygon fill="black" stroke="black" points="327.47,-107.24 316.94,-106.1 324.46,-113.56 327.47,-107.24"/>
</g>
<!-- Fuzzer 6 -->
<g id="node8" class="node">
<title>Fuzzer 6</title>
<ellipse fill="none" stroke="black" cx="530.23" cy="-162" rx="40.23" ry="18"/>
<text text-anchor="middle" x="530.23" y="-155.82" font-family="Times,serif" font-size="14.00">Fuzzer 6</text>
</g>
<!-- Fuzzer 6&#45;&gt;Crash Server -->
<g id="edge6" class="edge">
<title>Fuzzer 6&#45;&gt;Crash Server</title>
<path fill="none" stroke="black" d="M499.49,-149.97C493.46,-147.91 487.17,-145.83 481.23,-144 433.45,-129.27 378.45,-114.6 338.9,-104.43"/>
<polygon fill="black" stroke="black" points="339.94,-101.09 329.38,-102 338.2,-107.87 339.94,-101.09"/>
</g>
</g>
</svg>