<?xml version="1.0" encoding="UTF-8" standalone="no"?>
<!DOCTYPE svg PUBLIC "-//W3C//DTD SVG 1.1//EN"
 "http://www.w3.org/Graphics/SVG/1.1/DTD/svg11.dtd">
<!-- Generated by graphviz version 12.2.1 (20241206.2353)
 -->
<!-- Pages: 1 -->
<svg width="450pt" height="374pt"
 viewBox="0.00 0.00 449.50 374.00" xmlns="http://www.w3.org/2000/svg" xmlns:xlink="http://www.w3.org/1999/xlink">
<g id="graph0" class="graph" transform="scale(1 1) rotate(0) translate(4 370)">
<polygon fill="white" stroke="none" points="-4,4 -4,-370 445.5,-370 445.5,4 -4,4"/>
<!-- 0 -->
<g id="node1" class="node">
<title>0</title>
<text text-anchor="middle" x="201.25" y="-352.7" font-family="Times,serif" font-size="14.00">&lt;start&gt;</text>
</g>
<!-- 1 -->
<g id="node2" class="node">
<title>1</title>
<text text-anchor="middle" x="201.25" y="-302.45" font-family="Times,serif" font-size="14.00">&lt;xml&#45;tree&gt;</text>
</g>
<!-- 0&#45;&gt;1 -->
<g id="edge1" class="edge">
<title>0&#45;&gt;1</title>
<path fill="none" stroke="black" d="M201.25,-351.96C201.25,-345.74 201.25,-335.65 201.25,-326.89"/>
<polygon fill="black" stroke="black" points="204.75,-327.1 201.25,-317.1 197.75,-327.1 204.75,-327.1"/>
</g>
<!-- 2 -->
<g id="node3" class="node">
<title>2</title>
<text text-anchor="middle" x="96.25" y="-252.2" font-family="Times,serif" font-size="14.00">&lt;xml&#45;open&#45;tag&gt;</text>
</g>
<!-- 1&#45;&gt;2 -->
<g id="edge2" class="edge">
<title>1&#45;&gt;2</title>
<path fill="none" stroke="black" d="M187.95,-301.51C170.83,-293.65 140.79,-279.84 119.77,-270.18"/>
<polygon fill="black" stroke="black" points="121.36,-267.06 110.82,-266.07 118.44,-273.42 121.36,-267.06"/>
</g>
<!-- 7 -->
<g id="node8" class="node">
<title>7</title>
<text text-anchor="middle" x="201.25" y="-252.2" font-family="Times,serif" font-size="14.00">&lt;xml&#45;tree&gt;</text>
</g>
<!-- 1&#45;&gt;7 -->
<g id="edge7" class="edge">
<title>1&#45;&gt;7</title>
<path fill="none" stroke="black" d="M201.25,-301.71C201.25,-295.49 201.25,-285.4 201.25,-276.64"/>
<polygon fill="black" stroke="black" points="204.75,-276.85 201.25,-266.85 197.75,-276.85 204.75,-276.85"/>
</g>
<!-- 22 -->
<g id="node23" class="node">
<title>22</title>
<text text-anchor="middle" x="356.25" y="-252.2" font-family="Times,serif" font-size="14.00">&lt;xml&#45;close&#45;tag&gt;</text>
</g>
<!-- 1&#45;&gt;22 -->
<g id="edge22" class="edge">
<title>1&#45;&gt;22</title>
<path fill="none" stroke="black" d="M220.88,-301.51C247.43,-293.25 295.05,-278.43 326.14,-268.75"/>
<polygon fill="black" stroke="black" points="326.83,-272.2 335.33,-265.89 324.75,-265.52 326.83,-272.2"/>
</g>
<!-- 3 -->
<g id="node4" class="node">
<title>3</title>
<text text-anchor="middle" x="17.25" y="-201.95" font-family="Times,serif" font-size="14.00">&lt; (60)</text>
</g>
<!-- 2&#45;&gt;3 -->
<g id="edge3" class="edge">
<title>2&#45;&gt;3</title>
<path fill="none" stroke="black" d="M86.24,-251.26C73.9,-243.72 52.62,-230.73 36.95,-221.16"/>
<polygon fill="black" stroke="black" points="38.82,-218.2 28.47,-215.98 35.18,-224.17 38.82,-218.2"/>
</g>
<!-- 4 -->
<g id="node5" class="node">
<title>4</title>
<text text-anchor="middle" x="66.25" y="-201.95" font-family="Times,serif" font-size="14.00">&lt;id&gt;</text>
</g>
<!-- 2&#45;&gt;4 -->
<g id="edge4" class="edge">
<title>2&#45;&gt;4</title>
<path fill="none" stroke="black" d="M92.57,-251.46C88.43,-244.8 81.55,-233.73 75.85,-224.57"/>
<polygon fill="black" stroke="black" points="79.01,-223.02 70.76,-216.38 73.07,-226.72 79.01,-223.02"/>
</g>
<!-- 6 -->
<g id="node7" class="node">
<title>6</title>
<text text-anchor="middle" x="115.25" y="-201.95" font-family="Times,serif" font-size="14.00">&gt; (62)</text>
</g>
<!-- 2&#45;&gt;6 -->
<g id="edge6" class="edge">
<title>2&#45;&gt;6</title>
<path fill="none" stroke="black" d="M98.58,-251.46C101.09,-245.09 105.19,-234.68 108.69,-225.78"/>
<polygon fill="black" stroke="black" points="111.94,-227.09 112.35,-216.5 105.43,-224.52 111.94,-227.09"/>
</g>
<!-- 5 -->
<g id="node6" class="node">
<title>5</title>
<text text-anchor="middle" x="66.25" y="-151.7" font-family="Times,serif" font-size="14.00">html</text>
</g>
<!-- 4&#45;&gt;5 -->
<g id="edge5" class="edge">
<title>4&#45;&gt;5</title>
<path fill="none" stroke="black" d="M66.25,-201.21C66.25,-194.99 66.25,-184.9 66.25,-176.14"/>
<polygon fill="black" stroke="black" points="69.75,-176.35 66.25,-166.35 62.75,-176.35 69.75,-176.35"/>
</g>
<!-- 8 -->
<g id="node9" class="node">
<title>8</title>
<text text-anchor="middle" x="182.25" y="-201.95" font-family="Times,serif" font-size="14.00">&lt;xml&#45;tree&gt;</text>
</g>
<!-- 7&#45;&gt;8 -->
<g id="edge8" class="edge">
<title>7&#45;&gt;8</title>
<path fill="none" stroke="black" d="M198.92,-251.46C196.41,-245.09 192.31,-234.68 188.81,-225.78"/>
<polygon fill="black" stroke="black" points="192.07,-224.52 185.15,-216.5 185.56,-227.09 192.07,-224.52"/>
</g>
<!-- 11 -->
<g id="node12" class="node">
<title>11</title>
<text text-anchor="middle" x="263.25" y="-201.95" font-family="Times,serif" font-size="14.00">&lt;xml&#45;tree&gt;</text>
</g>
<!-- 7&#45;&gt;11 -->
<g id="edge11" class="edge">
<title>7&#45;&gt;11</title>
<path fill="none" stroke="black" d="M209.1,-251.26C218.56,-243.9 234.71,-231.34 246.92,-221.84"/>
<polygon fill="black" stroke="black" points="248.72,-224.87 254.46,-215.96 244.42,-219.34 248.72,-224.87"/>
</g>
<!-- 9 -->
<g id="node10" class="node">
<title>9</title>
<text text-anchor="middle" x="173.25" y="-151.7" font-family="Times,serif" font-size="14.00">&lt;text&gt;</text>
</g>
<!-- 8&#45;&gt;9 -->
<g id="edge9" class="edge">
<title>8&#45;&gt;9</title>
<path fill="none" stroke="black" d="M181.15,-201.21C179.99,-194.99 178.1,-184.9 176.47,-176.14"/>
<polygon fill="black" stroke="black" points="179.91,-175.52 174.64,-166.33 173.03,-176.8 179.91,-175.52"/>
</g>
<!-- 10 -->
<g id="node11" class="node">
<title>10</title>
<text text-anchor="middle" x="173.25" y="-101.45" font-family="Times,serif" font-size="14.00">T (84)</text>
</g>
<!-- 9&#45;&gt;10 -->
<g id="edge10" class="edge">
<title>9&#45;&gt;10</title>
<path fill="none" stroke="black" d="M173.25,-150.96C173.25,-144.74 173.25,-134.65 173.25,-125.89"/>
<polygon fill="black" stroke="black" points="176.75,-126.1 173.25,-116.1 169.75,-126.1 176.75,-126.1"/>
</g>
<!-- 12 -->
<g id="node13" class="node">
<title>12</title>
<text text-anchor="middle" x="241.25" y="-151.7" font-family="Times,serif" font-size="14.00">&lt;xml&#45;tree&gt;</text>
</g>
<!-- 11&#45;&gt;12 -->
<g id="edge12" class="edge">
<title>11&#45;&gt;12</title>
<path fill="none" stroke="black" d="M260.55,-201.21C257.62,-194.77 252.79,-184.19 248.7,-175.22"/>
<polygon fill="black" stroke="black" points="251.93,-173.86 244.6,-166.22 245.56,-176.77 251.93,-173.86"/>
</g>
<!-- 15 -->
<g id="node16" class="node">
<title>15</title>
<text text-anchor="middle" x="322.25" y="-151.7" font-family="Times,serif" font-size="14.00">&lt;xml&#45;tree&gt;</text>
</g>
<!-- 11&#45;&gt;15 -->
<g id="edge15" class="edge">
<title>11&#45;&gt;15</title>
<path fill="none" stroke="black" d="M270.48,-201.21C279.33,-193.97 294.56,-181.52 306.22,-171.98"/>
<polygon fill="black" stroke="black" points="308.26,-174.84 313.78,-165.8 303.83,-169.42 308.26,-174.84"/>
</g>
<!-- 13 -->
<g id="node14" class="node">
<title>13</title>
<text text-anchor="middle" x="241.25" y="-101.45" font-family="Times,serif" font-size="14.00">&lt;text&gt;</text>
</g>
<!-- 12&#45;&gt;13 -->
<g id="edge13" class="edge">
<title>12&#45;&gt;13</title>
<path fill="none" stroke="black" d="M241.25,-150.96C241.25,-144.74 241.25,-134.65 241.25,-125.89"/>
<polygon fill="black" stroke="black" points="244.75,-126.1 241.25,-116.1 237.75,-126.1 244.75,-126.1"/>
</g>
<!-- 14 -->
<g id="node15" class="node">
<title>14</title>
<text text-anchor="middle" x="241.25" y="-51.2" font-family="Times,serif" font-size="14.00">e (101)</text>
</g>
<!-- 13&#45;&gt;14 -->
<g id="edge14" class="edge">
<title>13&#45;&gt;14</title>
<path fill="none" stroke="black" d="M241.25,-100.71C241.25,-94.49 241.25,-84.4 241.25,-75.64"/>
<polygon fill="black" stroke="black" points="244.75,-75.85 241.25,-65.85 237.75,-75.85 244.75,-75.85"/>
</g>
<!-- 16 -->
<g id="node17" class="node">
<title>16</title>
<text text-anchor="middle" x="315.25" y="-101.45" font-family="Times,serif" font-size="14.00">&lt;xml&#45;tree&gt;</text>
</g>
<!-- 15&#45;&gt;16 -->
<g id="edge16" class="edge">
<title>15&#45;&gt;16</title>
<path fill="none" stroke="black" d="M321.39,-150.96C320.49,-144.74 319.03,-134.65 317.75,-125.89"/>
<polygon fill="black" stroke="black" points="321.23,-125.48 316.33,-116.09 314.3,-126.49 321.23,-125.48"/>
</g>
<!-- 19 -->
<g id="node20" class="node">
<title>19</title>
<text text-anchor="middle" x="396.25" y="-101.45" font-family="Times,serif" font-size="14.00">&lt;xml&#45;tree&gt;</text>
</g>
<!-- 15&#45;&gt;19 -->
<g id="edge19" class="edge">
<title>15&#45;&gt;19</title>
<path fill="none" stroke="black" d="M331.62,-150.76C343.14,-143.25 362.95,-130.34 377.61,-120.78"/>
<polygon fill="black" stroke="black" points="379.45,-123.76 385.92,-115.36 375.63,-117.89 379.45,-123.76"/>
</g>
<!-- 17 -->
<g id="node18" class="node">
<title>17</title>
<text text-anchor="middle" x="315.25" y="-51.2" font-family="Times,serif" font-size="14.00">&lt;text&gt;</text>
</g>
<!-- 16&#45;&gt;17 -->
<g id="edge17" class="edge">
<title>16&#45;&gt;17</title>
<path fill="none" stroke="black" d="M315.25,-100.71C315.25,-94.49 315.25,-84.4 315.25,-75.64"/>
<polygon fill="black" stroke="black" points="318.75,-75.85 315.25,-65.85 311.75,-75.85 318.75,-75.85"/>
</g>
<!-- 18 -->
<g id="node19" class="node">
<title>18</title>
<text text-anchor="middle" x="315.25" y="-0.95" font-family="Times,serif" font-size="14.00">x (120)</text>
</g>
<!-- 17&#45;&gt;18 -->
<g id="edge18" class="edge">
<title>17&#45;&gt;18</title>
<path fill="none" stroke="black" d="M315.25,-50.46C315.25,-44.24 315.25,-34.15 315.25,-25.39"/>
<polygon fill="black" stroke="black" points="318.75,-25.6 315.25,-15.6 311.75,-25.6 318.75,-25.6"/>
</g>
<!-- 20 -->
<g id="node21" class="node">
<title>20</title>
<text text-anchor="middle" x="396.25" y="-51.2" font-family="Times,serif" font-size="14.00">&lt;text&gt;</text>
</g>
<!-- 19&#45;&gt;20 -->
<g id="edge20" class="edge">
<title>19&#45;&gt;20</title>
<path fill="none" stroke="black" d="M396.25,-100.71C396.25,-94.49 396.25,-84.4 396.25,-75.64"/>
<polygon fill="black" stroke="black" points="399.75,-75.85 396.25,-65.85 392.75,-75.85 399.75,-75.85"/>
</g>
<!-- 21 -->
<g id="node22" class="node">
<title>21</title>
<text text-anchor="middle" x="396.25" y="-0.95" font-family="Times,serif" font-size="14.00">t (116)</text>
</g>
<!-- 20&#45;&gt;21 -->
<g id="edge21" class="edge">
<title>20&#45;&gt;21</title>
<path fill="none" stroke="black" d="M396.25,-50.46C396.25,-44.24 396.25,-34.15 396.25,-25.39"/>
<polygon fill="black" stroke="black" points="399.75,-25.6 396.25,-15.6 392.75,-25.6 399.75,-25.6"/>
</g>
<!-- 23 -->
<g id="node24" class="node">
<title>23</title>
<text text-anchor="middle" x="337.25" y="-201.95" font-family="Times,serif" font-size="14.00">&lt;/</text>
</g>
<!-- 22&#45;&gt;23 -->
<g id="edge23" class="edge">
<title>22&#45;&gt;23</title>
<path fill="none" stroke="black" d="M353.92,-251.46C351.41,-245.09 347.31,-234.68 343.81,-225.78"/>
<polygon fill="black" stroke="black" points="347.07,-224.52 340.15,-216.5 340.56,-227.09 347.07,-224.52"/>
</g>
<!-- 24 -->
<g id="node25" class="node">
<title>24</title>
<text text-anchor="middle" x="375.25" y="-201.95" font-family="Times,serif" font-size="14.00">&lt;id&gt;</text>
</g>
<!-- 22&#45;&gt;24 -->
<g id="edge24" class="edge">
<title>22&#45;&gt;24</title>
<path fill="none" stroke="black" d="M358.58,-251.46C361.09,-245.09 365.19,-234.68 368.69,-225.78"/>
<polygon fill="black" stroke="black" points="371.94,-227.09 372.35,-216.5 365.43,-224.52 371.94,-227.09"/>
</g>
<!-- 26 -->
<g id="node27" class="node">
<title>26</title>
<text text-anchor="middle" x="424.25" y="-201.95" font-family="Times,serif" font-size="14.00">&gt; (62)</text>
</g>
<!-- 22&#45;&gt;26 -->
<g id="edge26" class="edge">
<title>22&#45;&gt;26</title>
<path fill="none" stroke="black" d="M364.86,-251.26C375.34,-243.83 393.3,-231.09 406.73,-221.56"/>
<polygon fill="black" stroke="black" points="408.56,-224.55 414.69,-215.91 404.51,-218.84 408.56,-224.55"/>
</g>
<!-- 25 -->
<g id="node26" class="node">
<title>25</title>
<text text-anchor="middle" x="384.25" y="-151.7" font-family="Times,serif" font-size="14.00">html</text>
</g>
<!-- 24&#45;&gt;25 -->
<g id="edge25" class="edge">
<title>24&#45;&gt;25</title>
<path fill="none" stroke="black" d="M376.35,-201.21C377.51,-194.99 379.4,-184.9 381.03,-176.14"/>
<polygon fill="black" stroke="black" points="384.47,-176.8 382.86,-166.33 377.59,-175.52 384.47,-176.8"/>
</g>
</g>
</svg>