<svg xmlns="http://www.w3.org/2000/svg" class="railroad-diagram" height="92" viewBox="0 0 381.5 92" width="381.5">
<g transform="translate(.5 .5)">
<style>/* <![CDATA[ */
    svg.railroad-diagram {
    }
    svg.railroad-diagram path {
        stroke-width:3;
        stroke:black;
        fill:white;
    }
    svg.railroad-diagram text {
        font:14px "Fira Mono", monospace;
        text-anchor:middle;
    }
    svg.railroad-diagram text.label{
        text-anchor:start;
    }
    svg.railroad-diagram text.comment{
        font:italic 12px "Fira Mono", monospace;
    }
    svg.railroad-diagram rect{
        stroke-width:2;
        stroke:black;
        fill:mistyrose;
    }

/* ]]> */
</style><g>
<path d="M20 51v20m10 -20v20m-10 -10h20"/></g><g>
<path d="M40 61h0.0"/><path d="M341.5 61h0.0"/><path d="M40.0 61a10 10 0 0 0 10 -10v-10a10 10 0 0 1 10 -10"/><g>
<path d="M60.0 31h0.0"/><path d="M321.5 31h0.0"/><g class="terminal">
<path d="M60.0 31h0.0"/><path d="M97.0 31h0.0"/><rect height="22" rx="10" ry="10" width="37.0" x="60.0" y="20"/><text x="78.5" y="35">//</text></g><path d="M97.0 31h10"/><path d="M107.0 31h10"/><g class="non-terminal">
<path d="M117.0 31h0.0"/><path d="M222.0 31h0.0"/><rect height="22" width="105.0" x="117.0" y="20"/><text x="169.5" y="35">netloc@494</text></g><path d="M222.0 31h10"/><path d="M232.0 31h10"/><g class="non-terminal">
<path d="M242.0 31h0.0"/><path d="M321.5 31h0.0"/><rect height="22" width="79.5" x="242.0" y="20"/><text x="281.75" y="35">url@494</text></g></g><path d="M321.5 31a10 10 0 0 1 10 10v10a10 10 0 0 0 10 10"/><path d="M40.0 61h20"/><g>
<path d="M60.0 61h25.5"/><path d="M296.0 61h25.5"/><g class="terminal">
<path d="M85.5 61h0.0"/><path d="M122.5 61h0.0"/><rect height="22" rx="10" ry="10" width="37.0" x="85.5" y="50"/><text x="104.0" y="65">//</text></g><path d="M122.5 61h10"/><path d="M132.5 61h10"/><g class="non-terminal">
<path d="M142.5 61h0.0"/><path d="M247.5 61h0.0"/><rect height="22" width="105.0" x="142.5" y="50"/><text x="195.0" y="65">netloc@494</text></g><path d="M247.5 61h10"/><path d="M257.5 61h10"/><g class="terminal">
<path d="M267.5 61h0.0"/><path d="M296.0 61h0.0"/><rect height="22" rx="10" ry="10" width="28.5" x="267.5" y="50"/><text x="281.75" y="65">/</text></g></g><path d="M321.5 61h20"/></g><path d="M 341.5 61 h 20 m -10 -10 v 20 m 10 -20 v 20"/></g></svg>