<svg xmlns="http://www.w3.org/2000/svg" class="railroad-diagram" height="122" viewBox="0 0 199.5 122" width="199.5">
<g transform="translate(.5 .5)">
<style>/* <![CDATA[ */
    svg.railroad-diagram {
    }
    svg.railroad-diagram path {
        stroke-width:3;
        stroke:black;
        fill:white;
    }
    svg.railroad-diagram text {
        font:14px "Fira Mono", monospace;
        text-anchor:middle;
    }
    svg.railroad-diagram text.label{
        text-anchor:start;
    }
    svg.railroad-diagram text.comment{
        font:italic 12px "Fira Mono", monospace;
    }
    svg.railroad-diagram rect{
        stroke-width:2;
        stroke:black;
        fill:mistyrose;
    }

/* ]]> */
</style><g>
<path d="M20 51v20m10 -20v20m-10 -10h20"/></g><g>
<path d="M40 61h0.0"/><path d="M159.5 61h0.0"/><path d="M40.0 61a10 10 0 0 0 10 -10v-10a10 10 0 0 1 10 -10"/><g>
<path d="M60.0 31h12.75"/><path d="M126.75 31h12.75"/><g class="non-terminal">
<path d="M72.75 31h0.0"/><path d="M126.75 31h0.0"/><rect height="22" width="54.0" x="72.75" y="20"/><text x="99.75" y="35">plus</text></g></g><path d="M139.5 31a10 10 0 0 1 10 10v10a10 10 0 0 0 10 10"/><path d="M40.0 61h20"/><g>
<path d="M60.0 61h0.0"/><path d="M139.5 61h0.0"/><g class="non-terminal">
<path d="M60.0 61h0.0"/><path d="M139.5 61h0.0"/><rect height="22" width="79.5" x="60.0" y="50"/><text x="99.75" y="65">percent</text></g></g><path d="M139.5 61h20"/><path d="M40.0 61a10 10 0 0 1 10 10v10a10 10 0 0 0 10 10"/><g>
<path d="M60.0 91h8.5"/><path d="M131.0 91h8.5"/><g class="non-terminal">
<path d="M68.5 91h0.0"/><path d="M131.0 91h0.0"/><rect height="22" width="62.5" x="68.5" y="80"/><text x="99.75" y="95">other</text></g></g><path d="M139.5 91a10 10 0 0 0 10 -10v-10a10 10 0 0 1 10 -10"/></g><path d="M 159.5 61 h 20 m -10 -10 v 20 m 10 -20 v 20"/></g></svg>