<?xml version="1.0" encoding="UTF-8" standalone="no"?>
<!DOCTYPE svg PUBLIC "-//W3C//DTD SVG 1.1//EN"
 "http://www.w3.org/Graphics/SVG/1.1/DTD/svg11.dtd">
<!-- Generated by graphviz version 12.2.1 (20241206.2353)
 -->
<!-- Pages: 1 -->
<svg width="573pt" height="324pt"
 viewBox="0.00 0.00 573.00 323.75" xmlns="http://www.w3.org/2000/svg" xmlns:xlink="http://www.w3.org/1999/xlink">
<g id="graph0" class="graph" transform="scale(1 1) rotate(0) translate(4 319.75)">
<polygon fill="white" stroke="none" points="-4,4 -4,-319.75 569,-319.75 569,4 -4,4"/>
<!-- 0 -->
<g id="node1" class="node">
<title>0</title>
<text text-anchor="middle" x="214.5" y="-302.45" font-family="Times,serif" font-size="14.00">&lt;start&gt;</text>
</g>
<!-- 1 -->
<g id="node2" class="node">
<title>1</title>
<text text-anchor="middle" x="214.5" y="-252.2" font-family="Times,serif" font-size="14.00">&lt;url&gt;</text>
</g>
<!-- 0&#45;&gt;1 -->
<g id="edge1" class="edge">
<title>0&#45;&gt;1</title>
<path fill="none" stroke="black" d="M214.5,-301.71C214.5,-295.49 214.5,-285.4 214.5,-276.64"/>
<polygon fill="black" stroke="black" points="218,-276.85 214.5,-266.85 211,-276.85 218,-276.85"/>
</g>
<!-- 2 -->
<g id="node3" class="node">
<title>2</title>
<text text-anchor="middle" x="69.5" y="-201.95" font-family="Times,serif" font-size="14.00">&lt;scheme&gt;</text>
</g>
<!-- 1&#45;&gt;2 -->
<g id="edge2" class="edge">
<title>1&#45;&gt;2</title>
<path fill="none" stroke="black" d="M198.98,-252.21C175.01,-244.24 128.59,-228.79 98.34,-218.72"/>
<polygon fill="black" stroke="black" points="99.65,-215.47 89.05,-215.63 97.44,-222.11 99.65,-215.47"/>
</g>
<!-- 4 -->
<g id="node5" class="node">
<title>4</title>
<text text-anchor="middle" x="158.5" y="-201.95" font-family="Times,serif" font-size="14.00">://</text>
</g>
<!-- 1&#45;&gt;4 -->
<g id="edge4" class="edge">
<title>1&#45;&gt;4</title>
<path fill="none" stroke="black" d="M207.63,-251.46C198.96,-243.98 183.82,-230.94 172.63,-221.3"/>
<polygon fill="black" stroke="black" points="175.08,-218.79 165.22,-214.92 170.51,-224.09 175.08,-218.79"/>
</g>
<!-- 5 -->
<g id="node6" class="node">
<title>5</title>
<text text-anchor="middle" x="214.5" y="-201.95" font-family="Times,serif" font-size="14.00">&lt;authority&gt;</text>
</g>
<!-- 1&#45;&gt;5 -->
<g id="edge5" class="edge">
<title>1&#45;&gt;5</title>
<path fill="none" stroke="black" d="M214.5,-251.46C214.5,-245.24 214.5,-235.15 214.5,-226.39"/>
<polygon fill="black" stroke="black" points="218,-226.6 214.5,-216.6 211,-226.6 218,-226.6"/>
</g>
<!-- 18 -->
<g id="node19" class="node">
<title>18</title>
<text text-anchor="middle" x="345.5" y="-201.95" font-family="Times,serif" font-size="14.00">&lt;path&gt;</text>
</g>
<!-- 1&#45;&gt;18 -->
<g id="edge18" class="edge">
<title>1&#45;&gt;18</title>
<path fill="none" stroke="black" d="M230.04,-251.65C251.87,-243.61 291.91,-228.87 318.62,-219.03"/>
<polygon fill="black" stroke="black" points="319.56,-222.41 327.74,-215.67 317.14,-215.84 319.56,-222.41"/>
</g>
<!-- 22 -->
<g id="node23" class="node">
<title>22</title>
<text text-anchor="middle" x="440.5" y="-201.95" font-family="Times,serif" font-size="14.00">&lt;query&gt;</text>
</g>
<!-- 1&#45;&gt;22 -->
<g id="edge22" class="edge">
<title>1&#45;&gt;22</title>
<path fill="none" stroke="black" d="M230.03,-254.06C266.04,-246.37 355.93,-227.18 405.8,-216.53"/>
<polygon fill="black" stroke="black" points="406.44,-219.98 415.49,-214.46 404.98,-213.13 406.44,-219.98"/>
</g>
<!-- 3 -->
<g id="node4" class="node">
<title>3</title>
<text text-anchor="middle" x="7.5" y="-151.7" font-family="Times,serif" font-size="14.00">ftp</text>
</g>
<!-- 2&#45;&gt;3 -->
<g id="edge3" class="edge">
<title>2&#45;&gt;3</title>
<path fill="none" stroke="black" d="M61.65,-201.01C52.08,-193.57 35.69,-180.81 23.44,-171.28"/>
<polygon fill="black" stroke="black" points="25.95,-168.8 15.91,-165.42 21.65,-174.32 25.95,-168.8"/>
</g>
<!-- 6 -->
<g id="node7" class="node">
<title>6</title>
<text text-anchor="middle" x="63.5" y="-151.7" font-family="Times,serif" font-size="14.00">&lt;userinfo&gt;</text>
</g>
<!-- 5&#45;&gt;6 -->
<g id="edge6" class="edge">
<title>5&#45;&gt;6</title>
<path fill="none" stroke="black" d="M195.38,-201.01C169.62,-192.78 123.53,-178.06 93.23,-168.38"/>
<polygon fill="black" stroke="black" points="94.5,-165.11 83.91,-165.4 92.37,-171.77 94.5,-165.11"/>
</g>
<!-- 8 -->
<g id="node9" class="node">
<title>8</title>
<text text-anchor="middle" x="131.5" y="-151.7" font-family="Times,serif" font-size="14.00">@ (64)</text>
</g>
<!-- 5&#45;&gt;8 -->
<g id="edge8" class="edge">
<title>5&#45;&gt;8</title>
<path fill="none" stroke="black" d="M203.99,-201.01C190.89,-193.4 168.23,-180.23 151.72,-170.63"/>
<polygon fill="black" stroke="black" points="153.64,-167.7 143.24,-165.7 150.12,-173.75 153.64,-167.7"/>
</g>
<!-- 9 -->
<g id="node10" class="node">
<title>9</title>
<text text-anchor="middle" x="188.5" y="-151.7" font-family="Times,serif" font-size="14.00">&lt;host&gt;</text>
</g>
<!-- 5&#45;&gt;9 -->
<g id="edge9" class="edge">
<title>5&#45;&gt;9</title>
<path fill="none" stroke="black" d="M211.31,-201.21C207.8,-194.7 202.01,-183.96 197.15,-174.92"/>
<polygon fill="black" stroke="black" points="200.26,-173.32 192.43,-166.17 194.09,-176.64 200.26,-173.32"/>
</g>
<!-- 11 -->
<g id="node12" class="node">
<title>11</title>
<text text-anchor="middle" x="241.5" y="-151.7" font-family="Times,serif" font-size="14.00">: (58)</text>
</g>
<!-- 5&#45;&gt;11 -->
<g id="edge11" class="edge">
<title>5&#45;&gt;11</title>
<path fill="none" stroke="black" d="M217.81,-201.21C221.49,-194.62 227.6,-183.72 232.69,-174.62"/>
<polygon fill="black" stroke="black" points="235.59,-176.6 237.42,-166.16 229.49,-173.18 235.59,-176.6"/>
</g>
<!-- 12 -->
<g id="node13" class="node">
<title>12</title>
<text text-anchor="middle" x="293.5" y="-151.7" font-family="Times,serif" font-size="14.00">&lt;port&gt;</text>
</g>
<!-- 5&#45;&gt;12 -->
<g id="edge12" class="edge">
<title>5&#45;&gt;12</title>
<path fill="none" stroke="black" d="M224.51,-201.01C236.85,-193.47 258.13,-180.48 273.8,-170.91"/>
<polygon fill="black" stroke="black" points="275.57,-173.92 282.28,-165.73 271.93,-167.95 275.57,-173.92"/>
</g>
<!-- 7 -->
<g id="node8" class="node">
<title>7</title>
<text text-anchor="middle" x="63.5" y="-101.45" font-family="Times,serif" font-size="14.00">user:password</text>
</g>
<!-- 6&#45;&gt;7 -->
<g id="edge7" class="edge">
<title>6&#45;&gt;7</title>
<path fill="none" stroke="black" d="M63.5,-150.96C63.5,-144.74 63.5,-134.65 63.5,-125.89"/>
<polygon fill="black" stroke="black" points="67,-126.1 63.5,-116.1 60,-126.1 67,-126.1"/>
</g>
<!-- 10 -->
<g id="node11" class="node">
<title>10</title>
<text text-anchor="middle" x="188.5" y="-101.45" font-family="Times,serif" font-size="14.00">www.google.com</text>
</g>
<!-- 9&#45;&gt;10 -->
<g id="edge10" class="edge">
<title>9&#45;&gt;10</title>
<path fill="none" stroke="black" d="M188.5,-150.96C188.5,-144.74 188.5,-134.65 188.5,-125.89"/>
<polygon fill="black" stroke="black" points="192,-126.1 188.5,-116.1 185,-126.1 192,-126.1"/>
</g>
<!-- 13 -->
<g id="node14" class="node">
<title>13</title>
<text text-anchor="middle" x="293.5" y="-101.45" font-family="Times,serif" font-size="14.00">&lt;nat&gt;</text>
</g>
<!-- 12&#45;&gt;13 -->
<g id="edge13" class="edge">
<title>12&#45;&gt;13</title>
<path fill="none" stroke="black" d="M293.5,-150.96C293.5,-144.74 293.5,-134.65 293.5,-125.89"/>
<polygon fill="black" stroke="black" points="297,-126.1 293.5,-116.1 290,-126.1 297,-126.1"/>
</g>
<!-- 14 -->
<g id="node15" class="node">
<title>14</title>
<text text-anchor="middle" x="263.5" y="-51.2" font-family="Times,serif" font-size="14.00">&lt;digit&gt;</text>
</g>
<!-- 13&#45;&gt;14 -->
<g id="edge14" class="edge">
<title>13&#45;&gt;14</title>
<path fill="none" stroke="black" d="M289.82,-100.71C285.68,-94.05 278.8,-82.98 273.1,-73.82"/>
<polygon fill="black" stroke="black" points="276.26,-72.27 268.01,-65.63 270.32,-75.97 276.26,-72.27"/>
</g>
<!-- 16 -->
<g id="node17" class="node">
<title>16</title>
<text text-anchor="middle" x="322.5" y="-51.2" font-family="Times,serif" font-size="14.00">&lt;digit&gt;</text>
</g>
<!-- 13&#45;&gt;16 -->
<g id="edge16" class="edge">
<title>13&#45;&gt;16</title>
<path fill="none" stroke="black" d="M297.06,-100.71C301.01,-94.12 307.57,-83.22 313.04,-74.12"/>
<polygon fill="black" stroke="black" points="315.98,-76.01 318.14,-65.64 309.98,-72.41 315.98,-76.01"/>
</g>
<!-- 15 -->
<g id="node16" class="node">
<title>15</title>
<text text-anchor="middle" x="263.5" y="-0.95" font-family="Times,serif" font-size="14.00">5 (53)</text>
</g>
<!-- 14&#45;&gt;15 -->
<g id="edge15" class="edge">
<title>14&#45;&gt;15</title>
<path fill="none" stroke="black" d="M263.5,-50.46C263.5,-44.24 263.5,-34.15 263.5,-25.39"/>
<polygon fill="black" stroke="black" points="267,-25.6 263.5,-15.6 260,-25.6 267,-25.6"/>
</g>
<!-- 17 -->
<g id="node18" class="node">
<title>17</title>
<text text-anchor="middle" x="322.5" y="-0.95" font-family="Times,serif" font-size="14.00">3 (51)</text>
</g>
<!-- 16&#45;&gt;17 -->
<g id="edge17" class="edge">
<title>16&#45;&gt;17</title>
<path fill="none" stroke="black" d="M322.5,-50.46C322.5,-44.24 322.5,-34.15 322.5,-25.39"/>
<polygon fill="black" stroke="black" points="326,-25.6 322.5,-15.6 319,-25.6 326,-25.6"/>
</g>
<!-- 19 -->
<g id="node20" class="node">
<title>19</title>
<text text-anchor="middle" x="345.5" y="-151.7" font-family="Times,serif" font-size="14.00">/ (47)</text>
</g>
<!-- 18&#45;&gt;19 -->
<g id="edge19" class="edge">
<title>18&#45;&gt;19</title>
<path fill="none" stroke="black" d="M345.5,-201.21C345.5,-194.99 345.5,-184.9 345.5,-176.14"/>
<polygon fill="black" stroke="black" points="349,-176.35 345.5,-166.35 342,-176.35 349,-176.35"/>
</g>
<!-- 20 -->
<g id="node21" class="node">
<title>20</title>
<text text-anchor="middle" x="392.5" y="-151.7" font-family="Times,serif" font-size="14.00">&lt;id&gt;</text>
</g>
<!-- 18&#45;&gt;20 -->
<g id="edge20" class="edge">
<title>18&#45;&gt;20</title>
<path fill="none" stroke="black" d="M351.26,-201.21C358.1,-194.19 369.72,-182.26 378.89,-172.85"/>
<polygon fill="black" stroke="black" points="381.16,-175.53 385.63,-165.92 376.15,-170.65 381.16,-175.53"/>
</g>
<!-- 21 -->
<g id="node22" class="node">
<title>21</title>
<text text-anchor="middle" x="392.5" y="-101.45" font-family="Times,serif" font-size="14.00">def</text>
</g>
<!-- 20&#45;&gt;21 -->
<g id="edge21" class="edge">
<title>20&#45;&gt;21</title>
<path fill="none" stroke="black" d="M392.5,-150.96C392.5,-144.74 392.5,-134.65 392.5,-125.89"/>
<polygon fill="black" stroke="black" points="396,-126.1 392.5,-116.1 389,-126.1 396,-126.1"/>
</g>
<!-- 23 -->
<g id="node24" class="node">
<title>23</title>
<text text-anchor="middle" x="440.5" y="-151.7" font-family="Times,serif" font-size="14.00">? (63)</text>
</g>
<!-- 22&#45;&gt;23 -->
<g id="edge23" class="edge">
<title>22&#45;&gt;23</title>
<path fill="none" stroke="black" d="M440.5,-201.21C440.5,-194.99 440.5,-184.9 440.5,-176.14"/>
<polygon fill="black" stroke="black" points="444,-176.35 440.5,-166.35 437,-176.35 444,-176.35"/>
</g>
<!-- 24 -->
<g id="node25" class="node">
<title>24</title>
<text text-anchor="middle" x="502.5" y="-151.7" font-family="Times,serif" font-size="14.00">&lt;params&gt;</text>
</g>
<!-- 22&#45;&gt;24 -->
<g id="edge24" class="edge">
<title>22&#45;&gt;24</title>
<path fill="none" stroke="black" d="M448.35,-201.01C457.81,-193.65 473.96,-181.09 486.17,-171.59"/>
<polygon fill="black" stroke="black" points="487.97,-174.62 493.71,-165.71 483.67,-169.09 487.97,-174.62"/>
</g>
<!-- 25 -->
<g id="node26" class="node">
<title>25</title>
<text text-anchor="middle" x="502.5" y="-101.45" font-family="Times,serif" font-size="14.00">&lt;param&gt;</text>
</g>
<!-- 24&#45;&gt;25 -->
<g id="edge25" class="edge">
<title>24&#45;&gt;25</title>
<path fill="none" stroke="black" d="M502.5,-150.96C502.5,-144.74 502.5,-134.65 502.5,-125.89"/>
<polygon fill="black" stroke="black" points="506,-126.1 502.5,-116.1 499,-126.1 506,-126.1"/>
</g>
<!-- 26 -->
<g id="node27" class="node">
<title>26</title>
<text text-anchor="middle" x="453.5" y="-51.2" font-family="Times,serif" font-size="14.00">&lt;id&gt;</text>
</g>
<!-- 25&#45;&gt;26 -->
<g id="edge26" class="edge">
<title>25&#45;&gt;26</title>
<path fill="none" stroke="black" d="M496.49,-100.71C489.36,-93.69 477.25,-81.76 467.69,-72.35"/>
<polygon fill="black" stroke="black" points="470.22,-69.92 460.64,-65.4 465.31,-74.91 470.22,-69.92"/>
</g>
<!-- 28 -->
<g id="node29" class="node">
<title>28</title>
<text text-anchor="middle" x="502.5" y="-51.2" font-family="Times,serif" font-size="14.00">= (61)</text>
</g>
<!-- 25&#45;&gt;28 -->
<g id="edge28" class="edge">
<title>25&#45;&gt;28</title>
<path fill="none" stroke="black" d="M502.5,-100.71C502.5,-94.49 502.5,-84.4 502.5,-75.64"/>
<polygon fill="black" stroke="black" points="506,-75.85 502.5,-65.85 499,-75.85 506,-75.85"/>
</g>
<!-- 29 -->
<g id="node30" class="node">
<title>29</title>
<text text-anchor="middle" x="551.5" y="-51.2" font-family="Times,serif" font-size="14.00">&lt;id&gt;</text>
</g>
<!-- 25&#45;&gt;29 -->
<g id="edge29" class="edge">
<title>25&#45;&gt;29</title>
<path fill="none" stroke="black" d="M508.51,-100.71C515.64,-93.69 527.75,-81.76 537.31,-72.35"/>
<polygon fill="black" stroke="black" points="539.69,-74.91 544.36,-65.4 534.78,-69.92 539.69,-74.91"/>
</g>
<!-- 27 -->
<g id="node28" class="node">
<title>27</title>
<text text-anchor="middle" x="453.5" y="-0.95" font-family="Times,serif" font-size="14.00">abc</text>
</g>
<!-- 26&#45;&gt;27 -->
<g id="edge27" class="edge">
<title>26&#45;&gt;27</title>
<path fill="none" stroke="black" d="M453.5,-50.46C453.5,-44.24 453.5,-34.15 453.5,-25.39"/>
<polygon fill="black" stroke="black" points="457,-25.6 453.5,-15.6 450,-25.6 457,-25.6"/>
</g>
<!-- 30 -->
<g id="node31" class="node">
<title>30</title>
<text text-anchor="middle" x="551.5" y="-0.95" font-family="Times,serif" font-size="14.00">def</text>
</g>
<!-- 29&#45;&gt;30 -->
<g id="edge30" class="edge">
<title>29&#45;&gt;30</title>
<path fill="none" stroke="black" d="M551.5,-50.46C551.5,-44.24 551.5,-34.15 551.5,-25.39"/>
<polygon fill="black" stroke="black" points="555,-25.6 551.5,-15.6 548,-25.6 555,-25.6"/>
</g>
</g>
</svg>