<?xml version="1.0" encoding="UTF-8" standalone="no"?>
<!DOCTYPE svg PUBLIC "-//W3C//DTD SVG 1.1//EN"
 "http://www.w3.org/Graphics/SVG/1.1/DTD/svg11.dtd">
<!-- Generated by graphviz version 12.2.1 (20241206.2353)
 -->
<!-- Pages: 1 -->
<svg width="278pt" height="324pt"
 viewBox="0.00 0.00 278.25 323.75" xmlns="http://www.w3.org/2000/svg" xmlns:xlink="http://www.w3.org/1999/xlink">
<g id="graph0" class="graph" transform="scale(1 1) rotate(0) translate(4 319.75)">
<polygon fill="white" stroke="none" points="-4,4 -4,-319.75 274.25,-319.75 274.25,4 -4,4"/>
<!-- 0 -->
<g id="node1" class="node">
<title>0</title>
<text text-anchor="middle" x="122.62" y="-302.45" font-family="Times,serif" font-size="14.00">&lt;start&gt;</text>
</g>
<!-- 1 -->
<g id="node2" class="node">
<title>1</title>
<text text-anchor="middle" x="122.62" y="-252.2" font-family="Times,serif" font-size="14.00">&lt;expr&gt;</text>
</g>
<!-- 0&#45;&gt;1 -->
<g id="edge1" class="edge">
<title>0&#45;&gt;1</title>
<path fill="none" stroke="black" d="M122.62,-301.71C122.62,-295.49 122.62,-285.4 122.62,-276.64"/>
<polygon fill="black" stroke="black" points="126.13,-276.85 122.63,-266.85 119.13,-276.85 126.13,-276.85"/>
</g>
<!-- 2 -->
<g id="node3" class="node">
<title>2</title>
<text text-anchor="middle" x="88.62" y="-201.95" font-family="Times,serif" font-size="14.00">&lt;integer&gt;</text>
</g>
<!-- 1&#45;&gt;2 -->
<g id="edge2" class="edge">
<title>1&#45;&gt;2</title>
<path fill="none" stroke="black" d="M118.46,-251.46C113.71,-244.73 105.79,-233.48 99.3,-224.27"/>
<polygon fill="black" stroke="black" points="102.32,-222.49 93.7,-216.33 96.6,-226.52 102.32,-222.49"/>
</g>
<!-- 6 -->
<g id="node7" class="node">
<title>6</title>
<text text-anchor="middle" x="157.62" y="-201.95" font-family="Times,serif" font-size="14.00">&lt;expr_&gt;</text>
</g>
<!-- 1&#45;&gt;6 -->
<g id="edge6" class="edge">
<title>1&#45;&gt;6</title>
<path fill="none" stroke="black" d="M126.92,-251.46C131.8,-244.73 139.95,-233.48 146.64,-224.27"/>
<polygon fill="black" stroke="black" points="149.37,-226.46 152.41,-216.31 143.7,-222.35 149.37,-226.46"/>
</g>
<!-- 3 -->
<g id="node4" class="node">
<title>3</title>
<text text-anchor="middle" x="20.62" y="-151.7" font-family="Times,serif" font-size="14.00">&lt;digit&gt;</text>
</g>
<!-- 2&#45;&gt;3 -->
<g id="edge3" class="edge">
<title>2&#45;&gt;3</title>
<path fill="none" stroke="black" d="M80.01,-201.01C69.53,-193.58 51.58,-180.84 38.14,-171.31"/>
<polygon fill="black" stroke="black" points="40.37,-168.59 30.19,-165.66 36.32,-174.3 40.37,-168.59"/>
</g>
<!-- 5 -->
<g id="node6" class="node">
<title>5</title>
<text text-anchor="middle" x="89.62" y="-151.7" font-family="Times,serif" font-size="14.00">&lt;integer_&gt;</text>
</g>
<!-- 2&#45;&gt;5 -->
<g id="edge5" class="edge">
<title>2&#45;&gt;5</title>
<path fill="none" stroke="black" d="M88.75,-201.21C88.88,-194.99 89.09,-184.9 89.27,-176.14"/>
<polygon fill="black" stroke="black" points="92.76,-176.42 89.47,-166.35 85.76,-176.28 92.76,-176.42"/>
</g>
<!-- 4 -->
<g id="node5" class="node">
<title>4</title>
<text text-anchor="middle" x="20.62" y="-101.45" font-family="Times,serif" font-size="14.00">1 (49)</text>
</g>
<!-- 3&#45;&gt;4 -->
<g id="edge4" class="edge">
<title>3&#45;&gt;4</title>
<path fill="none" stroke="black" d="M20.62,-150.96C20.62,-144.74 20.62,-134.65 20.62,-125.89"/>
<polygon fill="black" stroke="black" points="24.13,-126.1 20.63,-116.1 17.13,-126.1 24.13,-126.1"/>
</g>
<!-- 7 -->
<g id="node8" class="node">
<title>7</title>
<text text-anchor="middle" x="156.62" y="-151.7" font-family="Times,serif" font-size="14.00">+ (43)</text>
</g>
<!-- 6&#45;&gt;7 -->
<g id="edge7" class="edge">
<title>6&#45;&gt;7</title>
<path fill="none" stroke="black" d="M157.5,-201.21C157.37,-194.99 157.16,-184.9 156.98,-176.14"/>
<polygon fill="black" stroke="black" points="160.49,-176.28 156.78,-166.35 153.49,-176.42 160.49,-176.28"/>
</g>
<!-- 8 -->
<g id="node9" class="node">
<title>8</title>
<text text-anchor="middle" x="212.62" y="-151.7" font-family="Times,serif" font-size="14.00">&lt;expr&gt;</text>
</g>
<!-- 6&#45;&gt;8 -->
<g id="edge8" class="edge">
<title>6&#45;&gt;8</title>
<path fill="none" stroke="black" d="M164.37,-201.21C172.53,-194.05 186.53,-181.76 197.36,-172.27"/>
<polygon fill="black" stroke="black" points="199.48,-175.06 204.69,-165.84 194.86,-169.8 199.48,-175.06"/>
</g>
<!-- 9 -->
<g id="node10" class="node">
<title>9</title>
<text text-anchor="middle" x="177.62" y="-101.45" font-family="Times,serif" font-size="14.00">&lt;integer&gt;</text>
</g>
<!-- 8&#45;&gt;9 -->
<g id="edge9" class="edge">
<title>8&#45;&gt;9</title>
<path fill="none" stroke="black" d="M208.33,-150.96C203.45,-144.23 195.3,-132.98 188.61,-123.77"/>
<polygon fill="black" stroke="black" points="191.55,-121.85 182.84,-115.81 185.88,-125.96 191.55,-121.85"/>
</g>
<!-- 13 -->
<g id="node14" class="node">
<title>13</title>
<text text-anchor="middle" x="246.62" y="-101.45" font-family="Times,serif" font-size="14.00">&lt;expr_&gt;</text>
</g>
<!-- 8&#45;&gt;13 -->
<g id="edge13" class="edge">
<title>8&#45;&gt;13</title>
<path fill="none" stroke="black" d="M216.79,-150.96C221.54,-144.23 229.46,-132.98 235.95,-123.77"/>
<polygon fill="black" stroke="black" points="238.65,-126.02 241.55,-115.83 232.93,-121.99 238.65,-126.02"/>
</g>
<!-- 10 -->
<g id="node11" class="node">
<title>10</title>
<text text-anchor="middle" x="142.62" y="-51.2" font-family="Times,serif" font-size="14.00">&lt;digit&gt;</text>
</g>
<!-- 9&#45;&gt;10 -->
<g id="edge10" class="edge">
<title>9&#45;&gt;10</title>
<path fill="none" stroke="black" d="M173.33,-100.71C168.45,-93.98 160.3,-82.73 153.61,-73.52"/>
<polygon fill="black" stroke="black" points="156.55,-71.6 147.84,-65.56 150.88,-75.71 156.55,-71.6"/>
</g>
<!-- 12 -->
<g id="node13" class="node">
<title>12</title>
<text text-anchor="middle" x="211.62" y="-51.2" font-family="Times,serif" font-size="14.00">&lt;integer_&gt;</text>
</g>
<!-- 9&#45;&gt;12 -->
<g id="edge12" class="edge">
<title>9&#45;&gt;12</title>
<path fill="none" stroke="black" d="M181.79,-100.71C186.54,-93.98 194.46,-82.73 200.95,-73.52"/>
<polygon fill="black" stroke="black" points="203.65,-75.77 206.55,-65.58 197.93,-71.74 203.65,-75.77"/>
</g>
<!-- 11 -->
<g id="node12" class="node">
<title>11</title>
<text text-anchor="middle" x="142.62" y="-0.95" font-family="Times,serif" font-size="14.00">2 (50)</text>
</g>
<!-- 10&#45;&gt;11 -->
<g id="edge11" class="edge">
<title>10&#45;&gt;11</title>
<path fill="none" stroke="black" d="M142.62,-50.46C142.62,-44.24 142.62,-34.15 142.62,-25.39"/>
<polygon fill="black" stroke="black" points="146.13,-25.6 142.63,-15.6 139.13,-25.6 146.13,-25.6"/>
</g>
</g>
</svg>