<svg xmlns="http://www.w3.org/2000/svg" class="railroad-diagram" height="122" viewBox="0 0 205.5 122" width="205.5">
<g transform="translate(.5 .5)">
<style>/* <![CDATA[ */
    svg.railroad-diagram {
    }
    svg.railroad-diagram path {
        stroke-width:3;
        stroke:black;
        fill:white;
    }
    svg.railroad-diagram text {
        font:14px "Fira Mono", monospace;
        text-anchor:middle;
    }
    svg.railroad-diagram text.label{
        text-anchor:start;
    }
    svg.railroad-diagram text.comment{
        font:italic 12px "Fira Mono", monospace;
    }
    svg.railroad-diagram rect{
        stroke-width:2;
        stroke:black;
        fill:mistyrose;
    }

/* ]]> */
</style><g>
<path d="M20 51v20m10 -20v20m-10 -10h20"/></g><g>
<path d="M40 61h0.0"/><path d="M165.5 61h0.0"/><path d="M40.0 61a10 10 0 0 0 10 -10v-10a10 10 0 0 1 10 -10"/><g>
<path d="M60.0 31h32.75"/><path d="M112.75 31h32.75"/><g class="terminal">
<path d="M92.75 31h0.0"/><path d="M112.75 31h0.0"/><rect height="22" rx="10" ry="10" width="20.0" x="92.75" y="20"/><text x="102.75" y="35"/></g></g><path d="M145.5 31a10 10 0 0 1 10 10v10a10 10 0 0 0 10 10"/><path d="M40.0 61h20"/><g>
<path d="M60.0 61h28.5"/><path d="M117.0 61h28.5"/><g class="terminal">
<path d="M88.5 61h0.0"/><path d="M117.0 61h0.0"/><rect height="22" rx="10" ry="10" width="28.5" x="88.5" y="50"/><text x="102.75" y="65">/</text></g></g><path d="M145.5 61h20"/><path d="M40.0 61a10 10 0 0 1 10 10v10a10 10 0 0 0 10 10"/><g>
<path d="M60.0 91h0.0"/><path d="M145.5 91h0.0"/><g class="terminal">
<path d="M60.0 91h0.0"/><path d="M88.5 91h0.0"/><rect height="22" rx="10" ry="10" width="28.5" x="60.0" y="80"/><text x="74.25" y="95">/</text></g><path d="M88.5 91h10"/><path d="M98.5 91h10"/><g class="non-terminal">
<path d="M108.5 91h0.0"/><path d="M145.5 91h0.0"/><rect height="22" width="37.0" x="108.5" y="80"/><text x="127.0" y="95">id</text></g></g><path d="M145.5 91a10 10 0 0 0 10 -10v-10a10 10 0 0 1 10 -10"/></g><path d="M 165.5 61 h 20 m -10 -10 v 20 m 10 -20 v 20"/></g></svg>