<?xml version="1.0" encoding="UTF-8" standalone="no"?>
<!DOCTYPE svg PUBLIC "-//W3C//DTD SVG 1.1//EN"
 "http://www.w3.org/Graphics/SVG/1.1/DTD/svg11.dtd">
<!-- Generated by graphviz version 12.2.1 (20241206.2353)
 -->
<!-- Pages: 1 -->
<svg width="209pt" height="214pt"
 viewBox="0.00 0.00 209.00 214.25" xmlns="http://www.w3.org/2000/svg" xmlns:xlink="http://www.w3.org/1999/xlink">
<g id="graph0" class="graph" transform="scale(1 1) rotate(0) translate(4 210.25)">
<polygon fill="white" stroke="none" points="-4,4 -4,-210.25 205,-210.25 205,4 -4,4"/>
<!-- 0 -->
<g id="node1" class="node">
<title>0</title>
<text text-anchor="middle" x="19.88" y="-96.95" font-family="Times,serif" font-size="14.00">&lt;start&gt;</text>
</g>
<!-- 1 -->
<g id="node2" class="node">
<title>1</title>
<text text-anchor="middle" x="98.25" y="-96.95" font-family="Times,serif" font-size="14.00">record 0</text>
</g>
<!-- 0&#45;&gt;1 -->
<g id="edge1" class="edge">
<title>0&#45;&gt;1</title>
<path fill="none" stroke="black" d="M39.36,-103.12C46.95,-103.12 55.97,-103.12 64.6,-103.12"/>
<polygon fill="black" stroke="black" points="64.45,-106.63 74.45,-103.13 64.45,-99.63 64.45,-106.63"/>
</g>
<!-- 2 -->
<g id="node3" class="node">
<title>2</title>
<text text-anchor="middle" x="178.88" y="-192.95" font-family="Times,serif" font-size="14.00">1997</text>
</g>
<!-- 1&#45;&gt;2 -->
<g id="edge2" class="edge">
<title>1&#45;&gt;2</title>
<path fill="none" stroke="black" d="M103.13,-109.85C111.64,-124.28 133.1,-158.88 156.75,-183.12 157.35,-183.74 157.98,-184.36 158.63,-184.96"/>
<polygon fill="black" stroke="black" points="156.35,-187.63 166.31,-191.25 160.79,-182.21 156.35,-187.63"/>
</g>
<!-- 3 -->
<g id="node4" class="node">
<title>3</title>
<text text-anchor="middle" x="178.88" y="-160.95" font-family="Times,serif" font-size="14.00">Ford</text>
</g>
<!-- 1&#45;&gt;3 -->
<g id="edge3" class="edge">
<title>1&#45;&gt;3</title>
<path fill="none" stroke="black" d="M107.34,-110.08C118.38,-119.53 138.84,-136.88 156.75,-151.12 157.57,-151.78 158.41,-152.44 159.26,-153.1"/>
<polygon fill="black" stroke="black" points="157.07,-155.83 167.14,-159.13 161.32,-150.27 157.07,-155.83"/>
</g>
<!-- 4 -->
<g id="node5" class="node">
<title>4</title>
<text text-anchor="middle" x="178.88" y="-128.95" font-family="Times,serif" font-size="14.00">E350</text>
</g>
<!-- 1&#45;&gt;4 -->
<g id="edge4" class="edge">
<title>1&#45;&gt;4</title>
<path fill="none" stroke="black" d="M116.7,-110.23C127.67,-114.69 141.97,-120.51 153.99,-125.4"/>
<polygon fill="black" stroke="black" points="152.64,-128.63 163.22,-129.16 155.28,-122.15 152.64,-128.63"/>
</g>
<!-- 5 -->
<g id="node6" class="node">
<title>5</title>
<text text-anchor="middle" x="178.88" y="-96.95" font-family="Times,serif" font-size="14.00" fill="red">&quot;ac</text>
</g>
<!-- 1&#45;&gt;5 -->
<g id="edge5" class="edge">
<title>1&#45;&gt;5</title>
<path fill="none" stroke="black" d="M120.73,-103.12C132.63,-103.12 147.28,-103.12 158.77,-103.12"/>
<polygon fill="black" stroke="black" points="158.57,-106.63 168.57,-103.13 158.57,-99.63 158.57,-106.63"/>
</g>
<!-- 6 -->
<g id="node7" class="node">
<title>6</title>
<text text-anchor="middle" x="178.88" y="-64.95" font-family="Times,serif" font-size="14.00" fill="red"> abs</text>
</g>
<!-- 1&#45;&gt;6 -->
<g id="edge6" class="edge">
<title>1&#45;&gt;6</title>
<path fill="none" stroke="black" d="M116.7,-96.02C128.89,-91.06 145.2,-84.42 157.91,-79.25"/>
<polygon fill="black" stroke="black" points="159.01,-82.58 166.95,-75.57 156.37,-76.1 159.01,-82.58"/>
</g>
<!-- 7 -->
<g id="node8" class="node">
<title>7</title>
<text text-anchor="middle" x="178.88" y="-32.95" font-family="Times,serif" font-size="14.00" fill="red"> moon&quot;</text>
</g>
<!-- 1&#45;&gt;7 -->
<g id="edge7" class="edge">
<title>1&#45;&gt;7</title>
<path fill="none" stroke="black" d="M107.34,-96.17C118.38,-86.72 138.84,-69.37 156.75,-55.12 157.57,-54.47 158.41,-53.81 159.26,-53.15"/>
<polygon fill="black" stroke="black" points="161.32,-55.98 167.14,-47.12 157.07,-50.42 161.32,-55.98"/>
</g>
<!-- 8 -->
<g id="node9" class="node">
<title>8</title>
<text text-anchor="middle" x="178.88" y="-0.95" font-family="Times,serif" font-size="14.00">3000.00</text>
</g>
<!-- 1&#45;&gt;8 -->
<g id="edge8" class="edge">
<title>1&#45;&gt;8</title>
<path fill="none" stroke="black" d="M103.13,-96.4C111.64,-81.97 133.1,-47.37 156.75,-23.12 157.35,-22.51 157.98,-21.89 158.63,-21.29"/>
<polygon fill="black" stroke="black" points="160.79,-24.04 166.31,-15 156.35,-18.62 160.79,-24.04"/>
</g>
</g>
</svg>