<svg xmlns="http://www.w3.org/2000/svg" class="railroad-diagram" height="122" viewBox="0 0 313.5 122" width="313.5">
<g transform="translate(.5 .5)">
<style>/* <![CDATA[ */
    svg.railroad-diagram {
    }
    svg.railroad-diagram path {
        stroke-width:3;
        stroke:black;
        fill:white;
    }
    svg.railroad-diagram text {
        font:14px "Fira Mono", monospace;
        text-anchor:middle;
    }
    svg.railroad-diagram text.label{
        text-anchor:start;
    }
    svg.railroad-diagram text.comment{
        font:italic 12px "Fira Mono", monospace;
    }
    svg.railroad-diagram rect{
        stroke-width:2;
        stroke:black;
        fill:mistyrose;
    }

/* ]]> */
</style><g>
<path d="M20 51v20m10 -20v20m-10 -10h20"/></g><g>
<path d="M40 61h0.0"/><path d="M273.5 61h0.0"/><path d="M40.0 61a10 10 0 0 0 10 -10v-10a10 10 0 0 1 10 -10"/><g>
<path d="M60.0 31h74.0"/><path d="M179.5 31h74.0"/><g class="terminal">
<path d="M134.0 31h0.0"/><path d="M179.5 31h0.0"/><rect height="22" rx="10" ry="10" width="45.5" x="134.0" y="20"/><text x="156.75" y="35">abc</text></g></g><path d="M253.5 31a10 10 0 0 1 10 10v10a10 10 0 0 0 10 10"/><path d="M40.0 61h20"/><g>
<path d="M60.0 61h74.0"/><path d="M179.5 61h74.0"/><g class="terminal">
<path d="M134.0 61h0.0"/><path d="M179.5 61h0.0"/><rect height="22" rx="10" ry="10" width="45.5" x="134.0" y="50"/><text x="156.75" y="65">def</text></g></g><path d="M253.5 61h20"/><path d="M40.0 61a10 10 0 0 1 10 10v10a10 10 0 0 0 10 10"/><g>
<path d="M60.0 91h0.0"/><path d="M253.5 91h0.0"/><g class="terminal">
<path d="M60.0 91h0.0"/><path d="M88.5 91h0.0"/><rect height="22" rx="10" ry="10" width="28.5" x="60.0" y="80"/><text x="74.25" y="95">x</text></g><path d="M88.5 91h10"/><path d="M98.5 91h10"/><g class="non-terminal">
<path d="M108.5 91h0.0"/><path d="M171.0 91h0.0"/><rect height="22" width="62.5" x="108.5" y="80"/><text x="139.75" y="95">digit</text></g><path d="M171.0 91h10"/><path d="M181.0 91h10"/><g class="non-terminal">
<path d="M191.0 91h0.0"/><path d="M253.5 91h0.0"/><rect height="22" width="62.5" x="191.0" y="80"/><text x="222.25" y="95">digit</text></g></g><path d="M253.5 91a10 10 0 0 0 10 -10v-10a10 10 0 0 1 10 -10"/></g><path d="M 273.5 61 h 20 m -10 -10 v 20 m 10 -20 v 20"/></g></svg>