<svg xmlns="http://www.w3.org/2000/svg" xmlns:xlink="http://www.w3.org/1999/xlink" width="369pt" height="332pt" viewBox="0.00 0.00 368.62 332.00">
<g id="graph0" class="graph" transform="scale(1 1) rotate(0) translate(4 328)">
<polygon fill="white" stroke="none" points="-4,4 -4,-328 364.62,-328 364.62,4 -4,4"/>
<!-- 0 -->
<g id="node1" class="node">
<title>0</title>
<text text-anchor="start" x="83.38" y="-301.95" font-family="Courier,monospace" font-weight="bold" font-size="14.00" fill="#004080">FunctionDef</text>
</g>
<!-- 1 -->
<g id="node2" class="node">
<title>1</title>
<text text-anchor="middle" x="32.75" y="-228.95" font-family="Courier,monospace" font-size="14.00" fill="#008040">&quot;main&quot;</text>
</g>
<!-- 0&#45;&#45;1 -->
<g id="edge1" class="edge">
<title>0--1</title>
<path fill="none" stroke="black" d="M128.75,-287C128.75,-287 91.95,-267.07 63.92,-251.88"/>
</g>
<!-- 2 -->
<g id="node3" class="node">
<title>2</title>
<text text-anchor="middle" x="128.75" y="-228.95" font-family="Courier,monospace" font-size="14.00" fill="#008040">arguments</text>
</g>
<!-- 0&#45;&#45;2 -->
<g id="edge2" class="edge">
<title>0--2</title>
<path fill="none" stroke="black" d="M128.75,-287C128.75,-287 128.75,-266.94 128.75,-251.74"/>
</g>
<!-- 3 -->
<g id="node4" class="node">
<title>3</title>
<text text-anchor="start" x="202.25" y="-229.95" font-family="Courier,monospace" font-weight="bold" font-size="14.00" fill="#004080">Expr</text>
</g>
<!-- 0&#45;&#45;3 -->
<g id="edge3" class="edge">
<title>0--3</title>
<path fill="none" stroke="black" d="M128.75,-287C128.75,-287 165.69,-265.66 192.23,-250.32"/>
</g>
<!-- 4 -->
<g id="node5" class="node">
<title>4</title>
<text text-anchor="start" x="202.25" y="-157.95" font-family="Courier,monospace" font-weight="bold" font-size="14.00" fill="#004080">Call</text>
</g>
<!-- 3&#45;&#45;4 -->
<g id="edge4" class="edge">
<title>3--4</title>
<path fill="none" stroke="black" d="M218.75,-216.05C218.75,-205.05 218.75,-190.76 218.75,-179.79"/>
</g>
<!-- 5 -->
<g id="node6" class="node">
<title>5</title>
<text text-anchor="start" x="159.25" y="-85.95" font-family="Courier,monospace" font-weight="bold" font-size="14.00" fill="#004080">Name</text>
</g>
<!-- 4&#45;&#45;5 -->
<g id="edge5" class="edge">
<title>4--5</title>
<path fill="none" stroke="black" d="M219.75,-143C219.75,-143 202.78,-122.94 189.91,-107.74"/>
</g>
<!-- 8 -->
<g id="node9" class="node">
<title>8</title>
<text text-anchor="start" x="242.75" y="-85.95" font-family="Courier,monospace" font-weight="bold" font-size="14.00" fill="#004080">Constant</text>
</g>
<!-- 4&#45;&#45;8 -->
<g id="edge8" class="edge">
<title>4--8</title>
<path fill="none" stroke="black" d="M219.75,-143C219.75,-143 241.35,-122.94 257.72,-107.74"/>
</g>
<!-- 6 -->
<g id="node7" class="node">
<title>6</title>
<text text-anchor="middle" x="93.75" y="-12.95" font-family="Courier,monospace" font-size="14.00" fill="#008040">&quot;print&quot;</text>
</g>
<!-- 5&#45;&#45;6 -->
<g id="edge6" class="edge">
<title>5--6</title>
<path fill="none" stroke="black" d="M167.75,-71C167.75,-71 139.2,-50.94 117.57,-35.74"/>
</g>
<!-- 7 -->
<g id="node8" class="node">
<title>7</title>
<text text-anchor="middle" x="175.75" y="-12.95" font-family="Courier,monospace" font-size="14.00" fill="#008040">Load</text>
</g>
<!-- 5&#45;&#45;7 -->
<g id="edge7" class="edge">
<title>5--7</title>
<path fill="none" stroke="black" d="M167.75,-71C167.75,-71 170.84,-50.94 173.17,-35.74"/>
</g>
<!-- 9 -->
<g id="node10" class="node">
<title>9</title>
<text text-anchor="middle" x="290.75" y="-12.95" font-family="Courier,monospace" font-size="14.00" fill="#008040">&quot;Hello, world!&quot;</text>
</g>
<!-- 8&#45;&#45;9 -->
<g id="edge9" class="edge">
<title>8--9</title>
<path fill="none" stroke="black" d="M279.38,-72.05C281.74,-61.05 284.8,-46.76 287.15,-35.79"/>
</g>
</g>
</svg>