<?xml version="1.0" encoding="UTF-8" standalone="no"?>
<!DOCTYPE svg PUBLIC "-//W3C//DTD SVG 1.1//EN"
 "http://www.w3.org/Graphics/SVG/1.1/DTD/svg11.dtd">
<!-- Generated by graphviz version 12.2.1 (20241206.2353)
 -->
<!-- Pages: 1 -->
<svg width="347pt" height="173pt"
 viewBox="0.00 0.00 346.88 173.00" xmlns="http://www.w3.org/2000/svg" xmlns:xlink="http://www.w3.org/1999/xlink">
<g id="graph0" class="graph" transform="scale(1 1) rotate(0) translate(4 169)">
<polygon fill="white" stroke="none" points="-4,4 -4,-169 342.88,-169 342.88,4 -4,4"/>
<!-- 0 -->
<g id="node1" class="node">
<title>0</title>
<text text-anchor="middle" x="155.38" y="-151.7" font-family="Times,serif" font-size="14.00">&lt;start&gt;</text>
</g>
<!-- 1 -->
<g id="node2" class="node">
<title>1</title>
<text text-anchor="middle" x="155.38" y="-101.45" font-family="Times,serif" font-size="14.00">&lt;vehicle&gt;</text>
</g>
<!-- 0&#45;&gt;1 -->
<g id="edge1" class="edge">
<title>0&#45;&gt;1</title>
<path fill="none" stroke="black" d="M155.38,-150.96C155.38,-144.74 155.38,-134.65 155.38,-125.89"/>
<polygon fill="black" stroke="black" points="158.88,-126.1 155.38,-116.1 151.88,-126.1 158.88,-126.1"/>
</g>
<!-- 2 -->
<g id="node3" class="node">
<title>2</title>
<text text-anchor="middle" x="15.38" y="-51.2" font-family="Times,serif" font-size="14.00">1997,</text>
</g>
<!-- 1&#45;&gt;2 -->
<g id="edge2" class="edge">
<title>1&#45;&gt;2</title>
<path fill="none" stroke="black" d="M137.64,-100.51C113.2,-92.09 69,-76.86 40.97,-67.2"/>
<polygon fill="black" stroke="black" points="42.43,-64 31.83,-64.05 40.15,-70.61 42.43,-64"/>
</g>
<!-- 3 -->
<g id="node4" class="node">
<title>3</title>
<text text-anchor="middle" x="69.38" y="-51.2" font-family="Times,serif" font-size="14.00">&lt;kind&gt;</text>
</g>
<!-- 1&#45;&gt;3 -->
<g id="edge3" class="edge">
<title>1&#45;&gt;3</title>
<path fill="none" stroke="black" d="M144.48,-100.51C130.78,-92.83 106.98,-79.47 89.84,-69.86"/>
<polygon fill="black" stroke="black" points="91.93,-67.02 81.5,-65.18 88.51,-73.12 91.93,-67.02"/>
</g>
<!-- 5 -->
<g id="node6" class="node">
<title>5</title>
<text text-anchor="middle" x="122.38" y="-51.2" font-family="Times,serif" font-size="14.00">, (44)</text>
</g>
<!-- 1&#45;&gt;5 -->
<g id="edge5" class="edge">
<title>1&#45;&gt;5</title>
<path fill="none" stroke="black" d="M151.33,-100.71C146.78,-94.05 139.2,-82.98 132.94,-73.82"/>
<polygon fill="black" stroke="black" points="135.84,-71.87 127.31,-65.59 130.07,-75.82 135.84,-71.87"/>
</g>
<!-- 6 -->
<g id="node7" class="node">
<title>6</title>
<text text-anchor="middle" x="188.38" y="-51.2" font-family="Times,serif" font-size="14.00">&lt;company&gt;</text>
</g>
<!-- 1&#45;&gt;6 -->
<g id="edge6" class="edge">
<title>1&#45;&gt;6</title>
<path fill="none" stroke="black" d="M159.42,-100.71C163.97,-94.05 171.55,-82.98 177.81,-73.82"/>
<polygon fill="black" stroke="black" points="180.68,-75.82 183.44,-65.59 174.91,-71.87 180.68,-75.82"/>
</g>
<!-- 8 -->
<g id="node9" class="node">
<title>8</title>
<text text-anchor="middle" x="254.38" y="-51.2" font-family="Times,serif" font-size="14.00">, (44)</text>
</g>
<!-- 1&#45;&gt;8 -->
<g id="edge8" class="edge">
<title>1&#45;&gt;8</title>
<path fill="none" stroke="black" d="M167.91,-100.51C183.91,-92.72 211.86,-79.1 231.65,-69.45"/>
<polygon fill="black" stroke="black" points="233.12,-72.63 240.58,-65.1 230.06,-66.33 233.12,-72.63"/>
</g>
<!-- 9 -->
<g id="node10" class="node">
<title>9</title>
<text text-anchor="middle" x="313.38" y="-51.2" font-family="Times,serif" font-size="14.00">&lt;model&gt;</text>
</g>
<!-- 1&#45;&gt;9 -->
<g id="edge9" class="edge">
<title>1&#45;&gt;9</title>
<path fill="none" stroke="black" d="M175.39,-100.51C202.45,-92.25 250.99,-77.43 282.68,-67.75"/>
<polygon fill="black" stroke="black" points="283.54,-71.15 292.08,-64.88 281.49,-64.45 283.54,-71.15"/>
</g>
<!-- 4 -->
<g id="node5" class="node">
<title>4</title>
<text text-anchor="middle" x="69.38" y="-0.95" font-family="Times,serif" font-size="14.00">van</text>
</g>
<!-- 3&#45;&gt;4 -->
<g id="edge4" class="edge">
<title>3&#45;&gt;4</title>
<path fill="none" stroke="black" d="M69.38,-50.46C69.38,-44.24 69.38,-34.15 69.38,-25.39"/>
<polygon fill="black" stroke="black" points="72.88,-25.6 69.38,-15.6 65.88,-25.6 72.88,-25.6"/>
</g>
<!-- 7 -->
<g id="node8" class="node">
<title>7</title>
<text text-anchor="middle" x="188.38" y="-0.95" font-family="Times,serif" font-size="14.00">Ford</text>
</g>
<!-- 6&#45;&gt;7 -->
<g id="edge7" class="edge">
<title>6&#45;&gt;7</title>
<path fill="none" stroke="black" d="M188.38,-50.46C188.38,-44.24 188.38,-34.15 188.38,-25.39"/>
<polygon fill="black" stroke="black" points="191.88,-25.6 188.38,-15.6 184.88,-25.6 191.88,-25.6"/>
</g>
<!-- 10 -->
<g id="node11" class="node">
<title>10</title>
<text text-anchor="middle" x="313.38" y="-0.95" font-family="Times,serif" font-size="14.00">E350</text>
</g>
<!-- 9&#45;&gt;10 -->
<g id="edge10" class="edge">
<title>9&#45;&gt;10</title>
<path fill="none" stroke="black" d="M313.38,-50.46C313.38,-44.24 313.38,-34.15 313.38,-25.39"/>
<polygon fill="black" stroke="black" points="316.88,-25.6 313.38,-15.6 309.88,-25.6 316.88,-25.6"/>
</g>
</g>
</svg>