<?xml version="1.0" encoding="UTF-8" standalone="no"?>
<!DOCTYPE svg PUBLIC "-//W3C//DTD SVG 1.1//EN"
 "http://www.w3.org/Graphics/SVG/1.1/DTD/svg11.dtd">
<!-- Generated by graphviz version 12.2.1 (20241206.2353)
 -->
<!-- Pages: 1 -->
<svg width="674pt" height="603pt"
 viewBox="0.00 0.00 673.75 602.75" xmlns="http://www.w3.org/2000/svg" xmlns:xlink="http://www.w3.org/1999/xlink">
<g id="graph0" class="graph" transform="scale(1 1) rotate(0) translate(4 598.75)">
<polygon fill="white" stroke="none" points="-4,4 -4,-598.75 669.75,-598.75 669.75,4 -4,4"/>
<!-- 0 -->
<g id="node1" class="node">
<title>0</title>
<text text-anchor="middle" x="563.38" y="-581.45" font-family="Times,serif" font-size="14.00">(0) Length(cgi_decode_s_str_1) &lt;= 0</text>
</g>
<!-- 1 -->
<g id="node2" class="node">
<title>1</title>
<text text-anchor="middle" x="481.38" y="-516.95" font-family="Times,serif" font-size="14.00">(1) str.substr(cgi_decode_s_str_1, 0, 1) == &quot;+&quot;</text>
</g>
<!-- 0&#45;&gt;1 -->
<g id="edge1" class="edge">
<title>0&#45;&gt;1</title>
<path fill="none" stroke="red" d="M555.51,-580.63C542.38,-570.62 515.69,-550.28 498.17,-536.93"/>
<polygon fill="red" stroke="red" points="500.37,-534.2 490.3,-530.93 496.13,-539.77 500.37,-534.2"/>
<text text-anchor="middle" x="533.09" y="-549.2" font-family="Times,serif" font-size="14.00">0</text>
</g>
<!-- 18 -->
<g id="node19" class="node">
<title>18</title>
<text text-anchor="middle" x="644.38" y="-516.95" font-family="Times,serif" font-size="14.00">? (63)</text>
</g>
<!-- 0&#45;&gt;18 -->
<g id="edge18" class="edge">
<title>0&#45;&gt;18</title>
<path fill="none" stroke="blue" d="M571.14,-580.63C584.12,-570.62 610.48,-550.28 627.78,-536.93"/>
<polygon fill="blue" stroke="blue" points="629.77,-539.81 635.55,-530.93 625.5,-534.27 629.77,-539.81"/>
<text text-anchor="middle" x="614.51" y="-549.2" font-family="Times,serif" font-size="14.00">1</text>
</g>
<!-- 2 -->
<g id="node3" class="node">
<title>2</title>
<text text-anchor="middle" x="398.38" y="-452.45" font-family="Times,serif" font-size="14.00">(2) str.substr(cgi_decode_s_str_1, 0, 1) == &quot;%&quot;</text>
</g>
<!-- 1&#45;&gt;2 -->
<g id="edge2" class="edge">
<title>1&#45;&gt;2</title>
<path fill="none" stroke="red" d="M473.42,-516.13C460.12,-506.12 433.11,-485.78 415.38,-472.43"/>
<polygon fill="red" stroke="red" points="417.49,-469.64 407.4,-466.42 413.28,-475.23 417.49,-469.64"/>
<text text-anchor="middle" x="450.68" y="-484.7" font-family="Times,serif" font-size="14.00">0</text>
</g>
<!-- 17 -->
<g id="node18" class="node">
<title>17</title>
<text text-anchor="middle" x="563.38" y="-452.45" font-family="Times,serif" font-size="14.00">? (63)</text>
</g>
<!-- 1&#45;&gt;17 -->
<g id="edge17" class="edge">
<title>1&#45;&gt;17</title>
<path fill="none" stroke="blue" d="M489.24,-516.13C502.37,-506.12 529.06,-485.78 546.58,-472.43"/>
<polygon fill="blue" stroke="blue" points="548.62,-475.27 554.45,-466.43 544.38,-469.7 548.62,-475.27"/>
<text text-anchor="middle" x="533.09" y="-484.7" font-family="Times,serif" font-size="14.00">1</text>
</g>
<!-- 3 -->
<g id="node4" class="node">
<title>3</title>
<text text-anchor="middle" x="329.38" y="-387.95" font-family="Times,serif" font-size="14.00">(3) Length(cgi_decode_s_str_1) &lt;= 1</text>
</g>
<!-- 2&#45;&gt;3 -->
<g id="edge3" class="edge">
<title>2&#45;&gt;3</title>
<path fill="none" stroke="red" d="M391.76,-451.63C380.91,-441.81 359.08,-422.03 344.34,-408.68"/>
<polygon fill="red" stroke="red" points="346.75,-406.14 336.99,-402.02 342.05,-411.33 346.75,-406.14"/>
<text text-anchor="middle" x="373.43" y="-420.2" font-family="Times,serif" font-size="14.00">0</text>
</g>
<!-- 16 -->
<g id="node17" class="node">
<title>16</title>
<text text-anchor="middle" x="466.38" y="-387.95" font-family="Times,serif" font-size="14.00">? (63)</text>
</g>
<!-- 2&#45;&gt;16 -->
<g id="edge16" class="edge">
<title>2&#45;&gt;16</title>
<path fill="none" stroke="blue" d="M404.9,-451.63C415.58,-441.81 437.1,-422.03 451.62,-408.68"/>
<polygon fill="blue" stroke="blue" points="453.87,-411.38 458.86,-402.03 449.13,-406.22 453.87,-411.38"/>
<text text-anchor="middle" x="441.84" y="-420.2" font-family="Times,serif" font-size="14.00">1</text>
</g>
<!-- 4 -->
<g id="node5" class="node">
<title>4</title>
<text text-anchor="middle" x="247.38" y="-323.45" font-family="Times,serif" font-size="14.00">(4) str.substr(cgi_decode_s_str_1, 1, 1) == &quot;+&quot;</text>
</g>
<!-- 3&#45;&gt;4 -->
<g id="edge4" class="edge">
<title>3&#45;&gt;4</title>
<path fill="none" stroke="red" d="M321.51,-387.13C308.38,-377.12 281.69,-356.78 264.17,-343.43"/>
<polygon fill="red" stroke="red" points="266.37,-340.7 256.3,-337.43 262.13,-346.27 266.37,-340.7"/>
<text text-anchor="middle" x="299.09" y="-355.7" font-family="Times,serif" font-size="14.00">0</text>
</g>
<!-- 15 -->
<g id="node16" class="node">
<title>15</title>
<text text-anchor="middle" x="410.38" y="-323.45" font-family="Times,serif" font-size="14.00">? (63)</text>
</g>
<!-- 3&#45;&gt;15 -->
<g id="edge15" class="edge">
<title>3&#45;&gt;15</title>
<path fill="none" stroke="blue" d="M337.14,-387.13C350.12,-377.12 376.48,-356.78 393.78,-343.43"/>
<polygon fill="blue" stroke="blue" points="395.77,-346.31 401.55,-337.43 391.5,-340.77 395.77,-346.31"/>
<text text-anchor="middle" x="380.51" y="-355.7" font-family="Times,serif" font-size="14.00">1</text>
</g>
<!-- 5 -->
<g id="node6" class="node">
<title>5</title>
<text text-anchor="middle" x="232.38" y="-258.95" font-family="Times,serif" font-size="14.00">? (63)</text>
</g>
<!-- 4&#45;&gt;5 -->
<g id="edge5" class="edge">
<title>4&#45;&gt;5</title>
<path fill="none" stroke="red" d="M245.99,-322.86C243.84,-313.88 239.6,-296.22 236.42,-282.98"/>
<polygon fill="red" stroke="red" points="239.89,-282.44 234.15,-273.53 233.08,-284.07 239.89,-282.44"/>
<text text-anchor="middle" x="244.59" y="-291.2" font-family="Times,serif" font-size="14.00">0</text>
</g>
<!-- 6 -->
<g id="node7" class="node">
<title>6</title>
<text text-anchor="middle" x="369.38" y="-258.95" font-family="Times,serif" font-size="14.00">(5) Length(cgi_decode_s_str_1) &lt;= 2</text>
</g>
<!-- 4&#45;&gt;6 -->
<g id="edge6" class="edge">
<title>4&#45;&gt;6</title>
<path fill="none" stroke="blue" d="M259.07,-322.63C279.42,-312.21 321.65,-290.58 347.54,-277.31"/>
<polygon fill="blue" stroke="blue" points="348.88,-280.56 356.19,-272.88 345.69,-274.33 348.88,-280.56"/>
<text text-anchor="middle" x="322.68" y="-291.2" font-family="Times,serif" font-size="14.00">1</text>
</g>
<!-- 7 -->
<g id="node8" class="node">
<title>7</title>
<text text-anchor="middle" x="254.38" y="-194.45" font-family="Times,serif" font-size="14.00">(6) str.substr(cgi_decode_s_str_1, 2, 1) == &quot;+&quot;</text>
</g>
<!-- 6&#45;&gt;7 -->
<g id="edge7" class="edge">
<title>6&#45;&gt;7</title>
<path fill="none" stroke="red" d="M358.35,-258.13C339.34,-247.8 300.07,-226.46 275.61,-213.17"/>
<polygon fill="red" stroke="red" points="277.32,-210.11 266.87,-208.41 273.98,-216.26 277.32,-210.11"/>
<text text-anchor="middle" x="325.55" y="-226.7" font-family="Times,serif" font-size="14.00">0</text>
</g>
<!-- 14 -->
<g id="node15" class="node">
<title>14</title>
<text text-anchor="middle" x="417.38" y="-194.45" font-family="Times,serif" font-size="14.00">? (63)</text>
</g>
<!-- 6&#45;&gt;14 -->
<g id="edge14" class="edge">
<title>6&#45;&gt;14</title>
<path fill="none" stroke="blue" d="M373.8,-258.36C381.05,-248.92 395.68,-229.88 405.98,-216.47"/>
<polygon fill="blue" stroke="blue" points="408.58,-218.82 411.89,-208.76 403.03,-214.56 408.58,-218.82"/>
<text text-anchor="middle" x="401.05" y="-226.7" font-family="Times,serif" font-size="14.00">1</text>
</g>
<!-- 8 -->
<g id="node9" class="node">
<title>8</title>
<text text-anchor="middle" x="171.38" y="-129.95" font-family="Times,serif" font-size="14.00">(7) str.substr(cgi_decode_s_str_1, 2, 1) == &quot;%&quot;</text>
</g>
<!-- 7&#45;&gt;8 -->
<g id="edge8" class="edge">
<title>7&#45;&gt;8</title>
<path fill="none" stroke="red" d="M246.42,-193.63C233.12,-183.62 206.11,-163.28 188.38,-149.93"/>
<polygon fill="red" stroke="red" points="190.49,-147.14 180.4,-143.92 186.28,-152.73 190.49,-147.14"/>
<text text-anchor="middle" x="223.68" y="-162.2" font-family="Times,serif" font-size="14.00">0</text>
</g>
<!-- 13 -->
<g id="node14" class="node">
<title>13</title>
<text text-anchor="middle" x="336.38" y="-129.95" font-family="Times,serif" font-size="14.00">? (63)</text>
</g>
<!-- 7&#45;&gt;13 -->
<g id="edge13" class="edge">
<title>7&#45;&gt;13</title>
<path fill="none" stroke="blue" d="M262.24,-193.63C275.37,-183.62 302.06,-163.28 319.58,-149.93"/>
<polygon fill="blue" stroke="blue" points="321.62,-152.77 327.45,-143.93 317.38,-147.2 321.62,-152.77"/>
<text text-anchor="middle" x="306.09" y="-162.2" font-family="Times,serif" font-size="14.00">1</text>
</g>
<!-- 9 -->
<g id="node10" class="node">
<title>9</title>
<text text-anchor="middle" x="102.38" y="-65.45" font-family="Times,serif" font-size="14.00">(8) Length(cgi_decode_s_str_1) &lt;= 3</text>
</g>
<!-- 8&#45;&gt;9 -->
<g id="edge9" class="edge">
<title>8&#45;&gt;9</title>
<path fill="none" stroke="red" d="M164.76,-129.13C153.91,-119.31 132.08,-99.53 117.34,-86.18"/>
<polygon fill="red" stroke="red" points="119.75,-83.64 109.99,-79.52 115.05,-88.83 119.75,-83.64"/>
<text text-anchor="middle" x="146.43" y="-97.7" font-family="Times,serif" font-size="14.00">0</text>
</g>
<!-- 12 -->
<g id="node13" class="node">
<title>12</title>
<text text-anchor="middle" x="239.38" y="-65.45" font-family="Times,serif" font-size="14.00">? (63)</text>
</g>
<!-- 8&#45;&gt;12 -->
<g id="edge12" class="edge">
<title>8&#45;&gt;12</title>
<path fill="none" stroke="blue" d="M177.9,-129.13C188.58,-119.31 210.1,-99.53 224.62,-86.18"/>
<polygon fill="blue" stroke="blue" points="226.87,-88.88 231.86,-79.53 222.13,-83.72 226.87,-88.88"/>
<text text-anchor="middle" x="214.84" y="-97.7" font-family="Times,serif" font-size="14.00">1</text>
</g>
<!-- 10 -->
<g id="node11" class="node">
<title>10</title>
<text text-anchor="middle" x="77.38" y="-0.95" font-family="Times,serif" font-size="14.00">? (63)</text>
</g>
<!-- 9&#45;&gt;10 -->
<g id="edge10" class="edge">
<title>9&#45;&gt;10</title>
<path fill="none" stroke="red" d="M100.07,-64.86C96.44,-55.79 89.27,-37.86 83.95,-24.57"/>
<polygon fill="red" stroke="red" points="87.28,-23.45 80.31,-15.47 80.78,-26.05 87.28,-23.45"/>
<text text-anchor="middle" x="95.49" y="-33.2" font-family="Times,serif" font-size="14.00">0</text>
</g>
<!-- 11 -->
<g id="node12" class="node">
<title>11</title>
<text text-anchor="middle" x="127.38" y="-0.95" font-family="Times,serif" font-size="14.00">* a+c</text>
</g>
<!-- 9&#45;&gt;11 -->
<g id="edge11" class="edge">
<title>9&#45;&gt;11</title>
<path fill="none" stroke="blue" d="M104.68,-64.86C108.31,-55.79 115.48,-37.86 120.8,-24.57"/>
<polygon fill="blue" stroke="blue" points="123.97,-26.05 124.44,-15.47 117.47,-23.45 123.97,-26.05"/>
<text text-anchor="middle" x="120.49" y="-33.2" font-family="Times,serif" font-size="14.00">1</text>
</g>
</g>
</svg>