<?xml version="1.0" encoding="UTF-8" standalone="no"?>
<!DOCTYPE svg PUBLIC "-//W3C//DTD SVG 1.1//EN"
 "http://www.w3.org/Graphics/SVG/1.1/DTD/svg11.dtd">
<!-- Generated by graphviz version 12.2.1 (20241206.2353)
 -->
<!-- Pages: 1 -->
<svg width="188pt" height="223pt"
 viewBox="0.00 0.00 188.25 223.25" xmlns="http://www.w3.org/2000/svg" xmlns:xlink="http://www.w3.org/1999/xlink">
<g id="graph0" class="graph" transform="scale(1 1) rotate(0) translate(4 219.25)">
<polygon fill="white" stroke="none" points="-4,4 -4,-219.25 184.25,-219.25 184.25,4 -4,4"/>
<!-- 0 -->
<g id="node1" class="node">
<title>0</title>
<text text-anchor="middle" x="66.25" y="-201.95" font-family="Times,serif" font-size="14.00">&lt;start&gt;</text>
</g>
<!-- 1 -->
<g id="node2" class="node">
<title>1</title>
<text text-anchor="middle" x="66.25" y="-151.7" font-family="Times,serif" font-size="14.00">&lt;expr&gt;</text>
</g>
<!-- 0&#45;&gt;1 -->
<g id="edge1" class="edge">
<title>0&#45;&gt;1</title>
<path fill="none" stroke="black" d="M66.25,-201.21C66.25,-194.99 66.25,-184.9 66.25,-176.14"/>
<polygon fill="black" stroke="black" points="69.75,-176.35 66.25,-166.35 62.75,-176.35 69.75,-176.35"/>
</g>
<!-- 2 -->
<g id="node3" class="node">
<title>2</title>
<text text-anchor="middle" x="20.25" y="-101.45" font-family="Times,serif" font-size="14.00">&lt;expr&gt;</text>
</g>
<!-- 1&#45;&gt;2 -->
<g id="edge2" class="edge">
<title>1&#45;&gt;2</title>
<path fill="none" stroke="black" d="M60.61,-150.96C53.99,-144.01 42.78,-132.25 33.85,-122.89"/>
<polygon fill="black" stroke="black" points="36.41,-120.51 26.98,-115.69 31.35,-125.34 36.41,-120.51"/>
</g>
<!-- 3 -->
<g id="node4" class="node">
<title>3</title>
<text text-anchor="middle" x="66.25" y="-101.45" font-family="Times,serif" font-size="14.00"> + </text>
</g>
<!-- 1&#45;&gt;3 -->
<g id="edge3" class="edge">
<title>1&#45;&gt;3</title>
<path fill="none" stroke="black" d="M66.25,-150.96C66.25,-144.74 66.25,-134.65 66.25,-125.89"/>
<polygon fill="black" stroke="black" points="69.75,-126.1 66.25,-116.1 62.75,-126.1 69.75,-126.1"/>
</g>
<!-- 4 -->
<g id="node5" class="node">
<title>4</title>
<text text-anchor="middle" x="113.25" y="-101.45" font-family="Times,serif" font-size="14.00">&lt;term&gt;</text>
</g>
<!-- 1&#45;&gt;4 -->
<g id="edge4" class="edge">
<title>1&#45;&gt;4</title>
<path fill="none" stroke="black" d="M72.01,-150.96C78.85,-143.94 90.47,-132.01 99.64,-122.6"/>
<polygon fill="black" stroke="black" points="101.91,-125.28 106.38,-115.67 96.9,-120.4 101.91,-125.28"/>
</g>
<!-- 5 -->
<g id="node6" class="node">
<title>5</title>
<text text-anchor="middle" x="64.25" y="-51.2" font-family="Times,serif" font-size="14.00">&lt;factor&gt;</text>
</g>
<!-- 4&#45;&gt;5 -->
<g id="edge5" class="edge">
<title>4&#45;&gt;5</title>
<path fill="none" stroke="black" d="M107.24,-100.71C100.11,-93.69 88,-81.76 78.44,-72.35"/>
<polygon fill="black" stroke="black" points="80.97,-69.92 71.39,-65.4 76.06,-74.91 80.97,-69.92"/>
</g>
<!-- 8 -->
<g id="node9" class="node">
<title>8</title>
<text text-anchor="middle" x="113.25" y="-51.2" font-family="Times,serif" font-size="14.00"> * </text>
</g>
<!-- 4&#45;&gt;8 -->
<g id="edge8" class="edge">
<title>4&#45;&gt;8</title>
<path fill="none" stroke="black" d="M113.25,-100.71C113.25,-94.49 113.25,-84.4 113.25,-75.64"/>
<polygon fill="black" stroke="black" points="116.75,-75.85 113.25,-65.85 109.75,-75.85 116.75,-75.85"/>
</g>
<!-- 9 -->
<g id="node10" class="node">
<title>9</title>
<text text-anchor="middle" x="159.25" y="-51.2" font-family="Times,serif" font-size="14.00">&lt;term&gt;</text>
</g>
<!-- 4&#45;&gt;9 -->
<g id="edge9" class="edge">
<title>4&#45;&gt;9</title>
<path fill="none" stroke="black" d="M118.89,-100.71C125.51,-93.76 136.72,-82 145.65,-72.64"/>
<polygon fill="black" stroke="black" points="148.15,-75.09 152.52,-65.44 143.09,-70.26 148.15,-75.09"/>
</g>
<!-- 6 -->
<g id="node7" class="node">
<title>6</title>
<text text-anchor="middle" x="36.25" y="-0.95" font-family="Times,serif" font-size="14.00">&#45; (45)</text>
</g>
<!-- 5&#45;&gt;6 -->
<g id="edge6" class="edge">
<title>5&#45;&gt;6</title>
<path fill="none" stroke="black" d="M60.82,-50.46C57,-43.87 50.67,-32.97 45.39,-23.87"/>
<polygon fill="black" stroke="black" points="48.52,-22.29 40.47,-15.4 42.46,-25.8 48.52,-22.29"/>
</g>
<!-- 7 -->
<g id="node8" class="node">
<title>7</title>
<text text-anchor="middle" x="93.25" y="-0.95" font-family="Times,serif" font-size="14.00">&lt;factor&gt;</text>
</g>
<!-- 5&#45;&gt;7 -->
<g id="edge7" class="edge">
<title>5&#45;&gt;7</title>
<path fill="none" stroke="black" d="M67.81,-50.46C71.76,-43.87 78.32,-32.97 83.79,-23.87"/>
<polygon fill="black" stroke="black" points="86.73,-25.76 88.89,-15.39 80.73,-22.16 86.73,-25.76"/>
</g>
</g>
</svg>