<?xml version="1.0" encoding="UTF-8" standalone="no"?>
<!DOCTYPE svg PUBLIC "-//W3C//DTD SVG 1.1//EN"
 "http://www.w3.org/Graphics/SVG/1.1/DTD/svg11.dtd">
<!-- Generated by graphviz version 12.2.1 (20241206.2353)
 -->
<!-- Pages: 1 -->
<svg width="84pt" height="324pt"
 viewBox="0.00 0.00 83.50 323.75" xmlns="http://www.w3.org/2000/svg" xmlns:xlink="http://www.w3.org/1999/xlink">
<g id="graph0" class="graph" transform="scale(1 1) rotate(0) translate(4 319.75)">
<polygon fill="white" stroke="none" points="-4,4 -4,-319.75 79.5,-319.75 79.5,4 -4,4"/>
<!-- 0 -->
<g id="node1" class="node">
<title>0</title>
<text text-anchor="middle" x="49.75" y="-302.45" font-family="Times,serif" font-size="14.00">&lt;start&gt;</text>
</g>
<!-- 1 -->
<g id="node2" class="node">
<title>1</title>
<text text-anchor="middle" x="49.75" y="-252.2" font-family="Times,serif" font-size="14.00">&lt;A&gt;</text>
</g>
<!-- 0&#45;&gt;1 -->
<g id="edge1" class="edge">
<title>0&#45;&gt;1</title>
<path fill="none" stroke="black" d="M49.75,-301.71C49.75,-295.49 49.75,-285.4 49.75,-276.64"/>
<polygon fill="black" stroke="black" points="53.25,-276.85 49.75,-266.85 46.25,-276.85 53.25,-276.85"/>
</g>
<!-- 2 -->
<g id="node3" class="node">
<title>2</title>
<text text-anchor="middle" x="49.75" y="-201.95" font-family="Times,serif" font-size="14.00">&lt;B&gt;</text>
</g>
<!-- 1&#45;&gt;2 -->
<g id="edge2" class="edge">
<title>1&#45;&gt;2</title>
<path fill="none" stroke="black" d="M49.75,-251.46C49.75,-245.24 49.75,-235.15 49.75,-226.39"/>
<polygon fill="black" stroke="black" points="53.25,-226.6 49.75,-216.6 46.25,-226.6 53.25,-226.6"/>
</g>
<!-- 3 -->
<g id="node4" class="node">
<title>3</title>
<text text-anchor="middle" x="49.75" y="-151.7" font-family="Times,serif" font-size="14.00">&lt;C&gt;</text>
</g>
<!-- 2&#45;&gt;3 -->
<g id="edge3" class="edge">
<title>2&#45;&gt;3</title>
<path fill="none" stroke="black" d="M49.75,-201.21C49.75,-194.99 49.75,-184.9 49.75,-176.14"/>
<polygon fill="black" stroke="black" points="53.25,-176.35 49.75,-166.35 46.25,-176.35 53.25,-176.35"/>
</g>
<!-- 4 -->
<g id="node5" class="node">
<title>4</title>
<text text-anchor="middle" x="30.75" y="-101.45" font-family="Times,serif" font-size="14.00">&lt;B&gt;</text>
</g>
<!-- 3&#45;&gt;4 -->
<g id="edge4" class="edge">
<title>3&#45;&gt;4</title>
<path fill="none" stroke="black" d="M47.42,-150.96C44.91,-144.59 40.81,-134.18 37.31,-125.28"/>
<polygon fill="black" stroke="black" points="40.57,-124.02 33.65,-116 34.06,-126.59 40.57,-124.02"/>
</g>
<!-- 8 -->
<g id="node9" class="node">
<title>8</title>
<text text-anchor="middle" x="68.75" y="-101.45" font-family="Times,serif" font-size="14.00">bb</text>
</g>
<!-- 3&#45;&gt;8 -->
<g id="edge8" class="edge">
<title>3&#45;&gt;8</title>
<path fill="none" stroke="black" d="M52.08,-150.96C54.59,-144.59 58.69,-134.18 62.19,-125.28"/>
<polygon fill="black" stroke="black" points="65.44,-126.59 65.85,-116 58.93,-124.02 65.44,-126.59"/>
</g>
<!-- 5 -->
<g id="node6" class="node">
<title>5</title>
<text text-anchor="middle" x="12.75" y="-51.2" font-family="Times,serif" font-size="14.00">&lt;C&gt;</text>
</g>
<!-- 4&#45;&gt;5 -->
<g id="edge5" class="edge">
<title>4&#45;&gt;5</title>
<path fill="none" stroke="black" d="M28.54,-100.71C26.17,-94.34 22.28,-83.93 18.96,-75.03"/>
<polygon fill="black" stroke="black" points="22.28,-73.9 15.5,-65.76 15.72,-76.35 22.28,-73.9"/>
</g>
<!-- 7 -->
<g id="node8" class="node">
<title>7</title>
<text text-anchor="middle" x="49.75" y="-51.2" font-family="Times,serif" font-size="14.00">cc</text>
</g>
<!-- 4&#45;&gt;7 -->
<g id="edge7" class="edge">
<title>4&#45;&gt;7</title>
<path fill="none" stroke="black" d="M33.08,-100.71C35.59,-94.34 39.69,-83.93 43.19,-75.03"/>
<polygon fill="black" stroke="black" points="46.44,-76.34 46.85,-65.75 39.93,-73.77 46.44,-76.34"/>
</g>
<!-- 6 -->
<g id="node7" class="node">
<title>6</title>
<text text-anchor="middle" x="12.75" y="-0.95" font-family="Times,serif" font-size="14.00">BB</text>
</g>
<!-- 5&#45;&gt;6 -->
<g id="edge6" class="edge">
<title>5&#45;&gt;6</title>
<path fill="none" stroke="black" d="M12.75,-50.46C12.75,-44.24 12.75,-34.15 12.75,-25.39"/>
<polygon fill="black" stroke="black" points="16.25,-25.6 12.75,-15.6 9.25,-25.6 16.25,-25.6"/>
</g>
</g>
</svg>