<svg xmlns="http://www.w3.org/2000/svg" class="railroad-diagram" height="92" viewBox="0 0 282.0 92" width="282.0">
<g transform="translate(.5 .5)">
<style>/* <![CDATA[ */
    svg.railroad-diagram {
    }
    svg.railroad-diagram path {
        stroke-width:3;
        stroke:black;
        fill:white;
    }
    svg.railroad-diagram text {
        font:14px "Fira Mono", monospace;
        text-anchor:middle;
    }
    svg.railroad-diagram text.label{
        text-anchor:start;
    }
    svg.railroad-diagram text.comment{
        font:italic 12px "Fira Mono", monospace;
    }
    svg.railroad-diagram rect{
        stroke-width:2;
        stroke:black;
        fill:mistyrose;
    }

/* ]]> */
</style><g>
<path d="M20 51v20m10 -20v20m-10 -10h20"/></g><g>
<path d="M40 61h0.0"/><path d="M242.0 61h0.0"/><path d="M40.0 61a10 10 0 0 0 10 -10v-10a10 10 0 0 1 10 -10"/><g>
<path d="M60.0 31h45.5"/><path d="M176.5 31h45.5"/><g class="non-terminal">
<path d="M105.5 31h0.0"/><path d="M176.5 31h0.0"/><rect height="22" width="71.0" x="105.5" y="20"/><text x="141.0" y="35">letter</text></g></g><path d="M222.0 31a10 10 0 0 1 10 10v10a10 10 0 0 0 10 10"/><path d="M40.0 61h20"/><g>
<path d="M60.0 61h0.0"/><path d="M222.0 61h0.0"/><g class="non-terminal">
<path d="M60.0 61h0.0"/><path d="M131.0 61h0.0"/><rect height="22" width="71.0" x="60.0" y="50"/><text x="95.5" y="65">letter</text></g><path d="M131.0 61h10"/><path d="M141.0 61h10"/><g class="non-terminal">
<path d="M151.0 61h0.0"/><path d="M222.0 61h0.0"/><rect height="22" width="71.0" x="151.0" y="50"/><text x="186.5" y="65">string</text></g></g><path d="M222.0 61h20"/></g><path d="M 242.0 61 h 20 m -10 -10 v 20 m 10 -20 v 20"/></g></svg>