<?xml version="1.0" encoding="UTF-8" standalone="no"?>
<!DOCTYPE svg PUBLIC "-//W3C//DTD SVG 1.1//EN"
 "http://www.w3.org/Graphics/SVG/1.1/DTD/svg11.dtd">
<!-- Generated by graphviz version 12.2.1 (20241206.2353)
 -->
<!-- Pages: 1 -->
<svg width="371pt" height="456pt"
 viewBox="0.00 0.00 371.22 455.50" xmlns="http://www.w3.org/2000/svg" xmlns:xlink="http://www.w3.org/1999/xlink">
<g id="graph0" class="graph" transform="scale(1 1) rotate(0) translate(4 451.5)">
<polygon fill="white" stroke="none" points="-4,4 -4,-451.5 367.22,-451.5 367.22,4 -4,4"/>
<!-- start -->
<g id="node1" class="node">
<title>start</title>
<ellipse fill="none" stroke="black" cx="182.57" cy="-429.5" rx="35.46" ry="18"/>
<text text-anchor="middle" x="182.57" y="-423.32" font-family="Times,serif" font-size="14.00">&lt;start&gt;</text>
</g>
<!-- state -->
<g id="node2" class="node">
<title>state</title>
<ellipse fill="none" stroke="black" cx="182.57" cy="-356.5" rx="36.41" ry="18"/>
<text text-anchor="middle" x="182.57" y="-350.32" font-family="Times,serif" font-size="14.00">&lt;state&gt;</text>
</g>
<!-- start&#45;&gt;state -->
<g id="edge1" class="edge">
<title>start&#45;&gt;state</title>
<path fill="none" stroke="black" d="M182.57,-411.31C182.57,-403.73 182.57,-394.6 182.57,-386.04"/>
<polygon fill="black" stroke="black" points="186.07,-386.04 182.57,-376.04 179.07,-386.04 186.07,-386.04"/>
</g>
<!-- state&#45;1 -->
<g id="node3" class="node">
<title>state&#45;1</title>
<ellipse fill="none" stroke="black" cx="43.57" cy="-199" rx="43.57" ry="18"/>
<text text-anchor="middle" x="43.57" y="-192.82" font-family="Times,serif" font-size="14.00">&lt;state&#45;1&gt;</text>
</g>
<!-- state&#45;&gt;state&#45;1 -->
<g id="edge2" class="edge">
<title>state&#45;&gt;state&#45;1</title>
<path fill="none" stroke="black" d="M146.6,-353.18C102.36,-349.48 31.1,-340.53 14.82,-320.5 -9.15,-291.01 2.01,-270.78 14.82,-235 16.06,-231.52 17.82,-228.14 19.86,-224.94"/>
<polygon fill="black" stroke="black" points="22.49,-227.26 25.69,-217.16 16.89,-223.06 22.49,-227.26"/>
<text text-anchor="start" x="14.82" y="-271.57" font-family="Times,serif" font-size="14.00">click(&#39;terms and conditions&#39;)</text>
</g>
<!-- state&#45;2 -->
<g id="node4" class="node">
<title>state&#45;2</title>
<ellipse fill="none" stroke="black" cx="241.57" cy="-145" rx="43.57" ry="18"/>
<text text-anchor="middle" x="241.57" y="-138.82" font-family="Times,serif" font-size="14.00">&lt;state&#45;2&gt;</text>
</g>
<!-- state&#45;&gt;state&#45;2 -->
<g id="edge3" class="edge">
<title>state&#45;&gt;state&#45;2</title>
<path fill="none" stroke="black" d="M189.85,-338.57C192.15,-332.89 194.61,-326.47 196.57,-320.5 213.2,-269.7 227.68,-208.98 235.47,-174.21"/>
<polygon fill="black" stroke="black" points="238.86,-175.05 237.61,-164.53 232.03,-173.54 238.86,-175.05"/>
<text text-anchor="start" x="220.72" y="-307.2" font-family="Times,serif" font-size="14.00">fill(&#39;city&#39;, &#39;&lt;text&gt;&#39;)</text>
<text text-anchor="start" x="220.72" y="-292.95" font-family="Times,serif" font-size="14.00">fill(&#39;email&#39;, &#39;&lt;email&gt;&#39;)</text>
<text text-anchor="start" x="220.72" y="-278.7" font-family="Times,serif" font-size="14.00">fill(&#39;name&#39;, &#39;&lt;text&gt;&#39;)</text>
<text text-anchor="start" x="220.72" y="-264.45" font-family="Times,serif" font-size="14.00">check(&#39;terms&#39;, &lt;boolean&gt;)</text>
<text text-anchor="start" x="220.72" y="-250.2" font-family="Times,serif" font-size="14.00">fill(&#39;zip&#39;, &#39;&lt;number&gt;&#39;)</text>
<text text-anchor="start" x="220.72" y="-235.95" font-family="Times,serif" font-size="14.00">submit(&#39;submit&#39;)</text>
</g>
<!-- end -->
<g id="node5" class="node">
<title>end</title>
<ellipse fill="none" stroke="black" cx="163.57" cy="-91" rx="33.07" ry="18"/>
<text text-anchor="middle" x="163.57" y="-84.83" font-family="Times,serif" font-size="14.00">&lt;end&gt;</text>
</g>
<!-- state&#45;&gt;end -->
<g id="edge4" class="edge">
<title>state&#45;&gt;end</title>
<path fill="none" stroke="black" d="M181.32,-338.21C178.12,-293.82 169.59,-175.49 165.63,-120.65"/>
<polygon fill="black" stroke="black" points="169.14,-120.58 164.93,-110.86 162.16,-121.09 169.14,-120.58"/>
</g>
<!-- state&#45;1&#45;&gt;end -->
<g id="edge6" class="edge">
<title>state&#45;1&#45;&gt;end</title>
<path fill="none" stroke="black" d="M84.7,-192.65C104.96,-188 128.26,-179.29 143.57,-163 154.26,-151.63 159.3,-134.99 161.65,-120.68"/>
<polygon fill="black" stroke="black" points="165.11,-121.23 162.87,-110.88 158.16,-120.37 165.11,-121.23"/>
</g>
<!-- state&#45;3 -->
<g id="node6" class="node">
<title>state&#45;3</title>
<ellipse fill="none" stroke="black" cx="59.57" cy="-91" rx="43.57" ry="18"/>
<text text-anchor="middle" x="59.57" y="-84.83" font-family="Times,serif" font-size="14.00">&lt;state&#45;3&gt;</text>
</g>
<!-- state&#45;1&#45;&gt;state&#45;3 -->
<g id="edge5" class="edge">
<title>state&#45;1&#45;&gt;state&#45;3</title>
<path fill="none" stroke="black" d="M41.94,-180.57C41.04,-166.07 40.75,-144.97 44.57,-127 45.09,-124.53 45.79,-122.02 46.61,-119.53"/>
<polygon fill="black" stroke="black" points="49.79,-121.01 50.15,-110.42 43.27,-118.47 49.79,-121.01"/>
<text text-anchor="start" x="44.57" y="-138.82" font-family="Times,serif" font-size="14.00">click(&#39;order form&#39;)</text>
</g>
<!-- unexplored -->
<g id="node7" class="node">
<title>unexplored</title>
<ellipse fill="none" stroke="black" cx="147.57" cy="-18" rx="59.31" ry="18"/>
<text text-anchor="middle" x="147.57" y="-11.82" font-family="Times,serif" font-size="14.00">&lt;unexplored&gt;</text>
</g>
<!-- state&#45;2&#45;&gt;unexplored -->
<g id="edge7" class="edge">
<title>state&#45;2&#45;&gt;unexplored</title>
<path fill="none" stroke="black" d="M234.95,-126.97C228.66,-111.96 218.28,-89.89 205.57,-73 197.31,-62.03 186.68,-51.41 176.78,-42.53"/>
<polygon fill="black" stroke="black" points="179.34,-40.12 169.49,-36.21 174.75,-45.4 179.34,-40.12"/>
</g>
<!-- state&#45;3&#45;&gt;unexplored -->
<g id="edge8" class="edge">
<title>state&#45;3&#45;&gt;unexplored</title>
<path fill="none" stroke="black" d="M78.66,-74.59C90.33,-65.18 105.47,-52.96 118.59,-42.38"/>
<polygon fill="black" stroke="black" points="120.52,-45.32 126.11,-36.31 116.13,-39.87 120.52,-45.32"/>
</g>
</g>
</svg>