<?xml version="1.0" encoding="UTF-8" standalone="no"?>
<!DOCTYPE svg PUBLIC "-//W3C//DTD SVG 1.1//EN"
 "http://www.w3.org/Graphics/SVG/1.1/DTD/svg11.dtd">
<!-- Generated by graphviz version 12.2.1 (20241206.2353)
 -->
<!-- Pages: 1 -->
<svg width="62pt" height="223pt"
 viewBox="0.00 0.00 62.00 223.25" xmlns="http://www.w3.org/2000/svg" xmlns:xlink="http://www.w3.org/1999/xlink">
<g id="graph0" class="graph" transform="scale(1 1) rotate(0) translate(4 219.25)">
<polygon fill="white" stroke="none" points="-4,4 -4,-219.25 58,-219.25 58,4 -4,4"/>
<!-- 0 -->
<g id="node1" class="node">
<title>0</title>
<text text-anchor="middle" x="27" y="-201.95" font-family="Times,serif" font-size="14.00">&lt;term&gt;</text>
</g>
<!-- 1 -->
<g id="node2" class="node">
<title>1</title>
<text text-anchor="middle" x="27" y="-151.7" font-family="Times,serif" font-size="14.00">&lt;factor&gt;</text>
</g>
<!-- 0&#45;&gt;1 -->
<g id="edge1" class="edge">
<title>0&#45;&gt;1</title>
<path fill="none" stroke="black" d="M27,-201.21C27,-194.99 27,-184.9 27,-176.14"/>
<polygon fill="black" stroke="black" points="30.5,-176.35 27,-166.35 23.5,-176.35 30.5,-176.35"/>
</g>
<!-- 2 -->
<g id="node3" class="node">
<title>2</title>
<text text-anchor="middle" x="27" y="-101.45" font-family="Times,serif" font-size="14.00">&lt;integer&gt;</text>
</g>
<!-- 1&#45;&gt;2 -->
<g id="edge2" class="edge">
<title>1&#45;&gt;2</title>
<path fill="none" stroke="black" d="M27,-150.96C27,-144.74 27,-134.65 27,-125.89"/>
<polygon fill="black" stroke="black" points="30.5,-126.1 27,-116.1 23.5,-126.1 30.5,-126.1"/>
</g>
<!-- 3 -->
<g id="node4" class="node">
<title>3</title>
<text text-anchor="middle" x="27" y="-51.2" font-family="Times,serif" font-size="14.00">&lt;digit&gt;</text>
</g>
<!-- 2&#45;&gt;3 -->
<g id="edge3" class="edge">
<title>2&#45;&gt;3</title>
<path fill="none" stroke="black" d="M27,-100.71C27,-94.49 27,-84.4 27,-75.64"/>
<polygon fill="black" stroke="black" points="30.5,-75.85 27,-65.85 23.5,-75.85 30.5,-75.85"/>
</g>
<!-- 4 -->
<g id="node5" class="node">
<title>4</title>
<text text-anchor="middle" x="27" y="-0.95" font-family="Times,serif" font-size="14.00">3 (51)</text>
</g>
<!-- 3&#45;&gt;4 -->
<g id="edge4" class="edge">
<title>3&#45;&gt;4</title>
<path fill="none" stroke="black" d="M27,-50.46C27,-44.24 27,-34.15 27,-25.39"/>
<polygon fill="black" stroke="black" points="30.5,-25.6 27,-15.6 23.5,-25.6 30.5,-25.6"/>
</g>
</g>
</svg>