<?xml version="1.0" encoding="UTF-8" standalone="no"?>
<!DOCTYPE svg PUBLIC "-//W3C//DTD SVG 1.1//EN"
 "http://www.w3.org/Graphics/SVG/1.1/DTD/svg11.dtd">
<!-- Generated by graphviz version 12.2.1 (20241206.2353)
 -->
<!-- Pages: 1 -->
<svg width="312pt" height="625pt"
 viewBox="0.00 0.00 312.00 625.25" xmlns="http://www.w3.org/2000/svg" xmlns:xlink="http://www.w3.org/1999/xlink">
<g id="graph0" class="graph" transform="scale(1 1) rotate(0) translate(4 621.25)">
<polygon fill="white" stroke="none" points="-4,4 -4,-621.25 308,-621.25 308,4 -4,4"/>
<!-- 0 -->
<g id="node1" class="node">
<title>0</title>
<text text-anchor="middle" x="81" y="-603.95" font-family="Times,serif" font-size="14.00">&lt;start&gt;</text>
</g>
<!-- 1 -->
<g id="node2" class="node">
<title>1</title>
<text text-anchor="middle" x="81" y="-553.7" font-family="Times,serif" font-size="14.00">&lt;expr&gt;</text>
</g>
<!-- 0&#45;&gt;1 -->
<g id="edge1" class="edge">
<title>0&#45;&gt;1</title>
<path fill="none" stroke="black" d="M81,-603.21C81,-596.99 81,-586.9 81,-578.14"/>
<polygon fill="black" stroke="black" points="84.5,-578.35 81,-568.35 77.5,-578.35 84.5,-578.35"/>
</g>
<!-- 2 -->
<g id="node3" class="node">
<title>2</title>
<text text-anchor="middle" x="81" y="-503.45" font-family="Times,serif" font-size="14.00">&lt;term&gt;</text>
</g>
<!-- 1&#45;&gt;2 -->
<g id="edge2" class="edge">
<title>1&#45;&gt;2</title>
<path fill="none" stroke="black" d="M81,-552.96C81,-546.74 81,-536.65 81,-527.89"/>
<polygon fill="black" stroke="black" points="84.5,-528.1 81,-518.1 77.5,-528.1 84.5,-528.1"/>
</g>
<!-- 3 -->
<g id="node4" class="node">
<title>3</title>
<text text-anchor="middle" x="30" y="-453.2" font-family="Times,serif" font-size="14.00">&lt;factor&gt;</text>
</g>
<!-- 2&#45;&gt;3 -->
<g id="edge3" class="edge">
<title>2&#45;&gt;3</title>
<path fill="none" stroke="black" d="M74.75,-502.71C67.25,-495.62 54.46,-483.51 44.46,-474.06"/>
<polygon fill="black" stroke="black" points="47.07,-471.71 37.4,-467.38 42.26,-476.79 47.07,-471.71"/>
</g>
<!-- 7 -->
<g id="node8" class="node">
<title>7</title>
<text text-anchor="middle" x="81" y="-453.2" font-family="Times,serif" font-size="14.00"> * </text>
</g>
<!-- 2&#45;&gt;7 -->
<g id="edge7" class="edge">
<title>2&#45;&gt;7</title>
<path fill="none" stroke="black" d="M81,-502.71C81,-496.49 81,-486.4 81,-477.64"/>
<polygon fill="black" stroke="black" points="84.5,-477.85 81,-467.85 77.5,-477.85 84.5,-477.85"/>
</g>
<!-- 8 -->
<g id="node9" class="node">
<title>8</title>
<text text-anchor="middle" x="128" y="-453.2" font-family="Times,serif" font-size="14.00">&lt;term&gt;</text>
</g>
<!-- 2&#45;&gt;8 -->
<g id="edge8" class="edge">
<title>2&#45;&gt;8</title>
<path fill="none" stroke="black" d="M86.76,-502.71C93.6,-495.69 105.22,-483.76 114.39,-474.35"/>
<polygon fill="black" stroke="black" points="116.66,-477.03 121.13,-467.42 111.65,-472.15 116.66,-477.03"/>
</g>
<!-- 4 -->
<g id="node5" class="node">
<title>4</title>
<text text-anchor="middle" x="27" y="-402.95" font-family="Times,serif" font-size="14.00">&lt;integer&gt;</text>
</g>
<!-- 3&#45;&gt;4 -->
<g id="edge4" class="edge">
<title>3&#45;&gt;4</title>
<path fill="none" stroke="black" d="M29.63,-452.46C29.25,-446.24 28.62,-436.15 28.07,-427.39"/>
<polygon fill="black" stroke="black" points="31.58,-427.36 27.46,-417.6 24.59,-427.8 31.58,-427.36"/>
</g>
<!-- 5 -->
<g id="node6" class="node">
<title>5</title>
<text text-anchor="middle" x="21" y="-352.7" font-family="Times,serif" font-size="14.00">&lt;digit&gt;</text>
</g>
<!-- 4&#45;&gt;5 -->
<g id="edge5" class="edge">
<title>4&#45;&gt;5</title>
<path fill="none" stroke="black" d="M26.26,-402.21C25.49,-395.99 24.24,-385.9 23.15,-377.14"/>
<polygon fill="black" stroke="black" points="26.64,-376.83 21.93,-367.34 19.69,-377.7 26.64,-376.83"/>
</g>
<!-- 6 -->
<g id="node7" class="node">
<title>6</title>
<text text-anchor="middle" x="21" y="-302.45" font-family="Times,serif" font-size="14.00">1 (49)</text>
</g>
<!-- 5&#45;&gt;6 -->
<g id="edge6" class="edge">
<title>5&#45;&gt;6</title>
<path fill="none" stroke="black" d="M21,-351.96C21,-345.74 21,-335.65 21,-326.89"/>
<polygon fill="black" stroke="black" points="24.5,-327.1 21,-317.1 17.5,-327.1 24.5,-327.1"/>
</g>
<!-- 9 -->
<g id="node10" class="node">
<title>9</title>
<text text-anchor="middle" x="128" y="-402.95" font-family="Times,serif" font-size="14.00">&lt;factor&gt;</text>
</g>
<!-- 8&#45;&gt;9 -->
<g id="edge9" class="edge">
<title>8&#45;&gt;9</title>
<path fill="none" stroke="black" d="M128,-452.46C128,-446.24 128,-436.15 128,-427.39"/>
<polygon fill="black" stroke="black" points="131.5,-427.6 128,-417.6 124.5,-427.6 131.5,-427.6"/>
</g>
<!-- 10 -->
<g id="node11" class="node">
<title>10</title>
<text text-anchor="middle" x="75" y="-352.7" font-family="Times,serif" font-size="14.00">( (40)</text>
</g>
<!-- 9&#45;&gt;10 -->
<g id="edge10" class="edge">
<title>9&#45;&gt;10</title>
<path fill="none" stroke="black" d="M121.5,-402.21C113.71,-395.12 100.41,-383.01 90.03,-373.56"/>
<polygon fill="black" stroke="black" points="92.42,-371 82.67,-366.86 87.71,-376.18 92.42,-371"/>
</g>
<!-- 11 -->
<g id="node12" class="node">
<title>11</title>
<text text-anchor="middle" x="129" y="-352.7" font-family="Times,serif" font-size="14.00">&lt;expr&gt;</text>
</g>
<!-- 9&#45;&gt;11 -->
<g id="edge11" class="edge">
<title>9&#45;&gt;11</title>
<path fill="none" stroke="black" d="M128.12,-402.21C128.25,-395.99 128.46,-385.9 128.64,-377.14"/>
<polygon fill="black" stroke="black" points="132.14,-377.42 128.85,-367.35 125.14,-377.28 132.14,-377.42"/>
</g>
<!-- 31 -->
<g id="node32" class="node">
<title>31</title>
<text text-anchor="middle" x="183" y="-352.7" font-family="Times,serif" font-size="14.00">) (41)</text>
</g>
<!-- 9&#45;&gt;31 -->
<g id="edge31" class="edge">
<title>9&#45;&gt;31</title>
<path fill="none" stroke="black" d="M134.74,-402.21C142.91,-395.05 156.91,-382.76 167.73,-373.27"/>
<polygon fill="black" stroke="black" points="169.85,-376.06 175.06,-366.84 165.24,-370.8 169.85,-376.06"/>
</g>
<!-- 12 -->
<g id="node13" class="node">
<title>12</title>
<text text-anchor="middle" x="80" y="-302.45" font-family="Times,serif" font-size="14.00">&lt;term&gt;</text>
</g>
<!-- 11&#45;&gt;12 -->
<g id="edge12" class="edge">
<title>11&#45;&gt;12</title>
<path fill="none" stroke="black" d="M122.99,-351.96C115.86,-344.94 103.75,-333.01 94.19,-323.6"/>
<polygon fill="black" stroke="black" points="96.72,-321.17 87.14,-316.65 91.81,-326.16 96.72,-321.17"/>
</g>
<!-- 17 -->
<g id="node18" class="node">
<title>17</title>
<text text-anchor="middle" x="129" y="-302.45" font-family="Times,serif" font-size="14.00"> + </text>
</g>
<!-- 11&#45;&gt;17 -->
<g id="edge17" class="edge">
<title>11&#45;&gt;17</title>
<path fill="none" stroke="black" d="M129,-351.96C129,-345.74 129,-335.65 129,-326.89"/>
<polygon fill="black" stroke="black" points="132.5,-327.1 129,-317.1 125.5,-327.1 132.5,-327.1"/>
</g>
<!-- 18 -->
<g id="node19" class="node">
<title>18</title>
<text text-anchor="middle" x="176" y="-302.45" font-family="Times,serif" font-size="14.00">&lt;expr&gt;</text>
</g>
<!-- 11&#45;&gt;18 -->
<g id="edge18" class="edge">
<title>11&#45;&gt;18</title>
<path fill="none" stroke="black" d="M134.76,-351.96C141.6,-344.94 153.22,-333.01 162.39,-323.6"/>
<polygon fill="black" stroke="black" points="164.66,-326.28 169.13,-316.67 159.65,-321.4 164.66,-326.28"/>
</g>
<!-- 13 -->
<g id="node14" class="node">
<title>13</title>
<text text-anchor="middle" x="80" y="-252.2" font-family="Times,serif" font-size="14.00">&lt;factor&gt;</text>
</g>
<!-- 12&#45;&gt;13 -->
<g id="edge13" class="edge">
<title>12&#45;&gt;13</title>
<path fill="none" stroke="black" d="M80,-301.71C80,-295.49 80,-285.4 80,-276.64"/>
<polygon fill="black" stroke="black" points="83.5,-276.85 80,-266.85 76.5,-276.85 83.5,-276.85"/>
</g>
<!-- 14 -->
<g id="node15" class="node">
<title>14</title>
<text text-anchor="middle" x="72" y="-201.95" font-family="Times,serif" font-size="14.00">&lt;integer&gt;</text>
</g>
<!-- 13&#45;&gt;14 -->
<g id="edge14" class="edge">
<title>13&#45;&gt;14</title>
<path fill="none" stroke="black" d="M79.02,-251.46C77.99,-245.24 76.32,-235.15 74.86,-226.39"/>
<polygon fill="black" stroke="black" points="78.33,-225.88 73.24,-216.58 71.42,-227.02 78.33,-225.88"/>
</g>
<!-- 15 -->
<g id="node16" class="node">
<title>15</title>
<text text-anchor="middle" x="56" y="-151.7" font-family="Times,serif" font-size="14.00">&lt;digit&gt;</text>
</g>
<!-- 14&#45;&gt;15 -->
<g id="edge15" class="edge">
<title>14&#45;&gt;15</title>
<path fill="none" stroke="black" d="M70.04,-201.21C67.93,-194.84 64.47,-184.43 61.52,-175.53"/>
<polygon fill="black" stroke="black" points="64.92,-174.67 58.45,-166.28 58.28,-176.87 64.92,-174.67"/>
</g>
<!-- 16 -->
<g id="node17" class="node">
<title>16</title>
<text text-anchor="middle" x="56" y="-101.45" font-family="Times,serif" font-size="14.00">2 (50)</text>
</g>
<!-- 15&#45;&gt;16 -->
<g id="edge16" class="edge">
<title>15&#45;&gt;16</title>
<path fill="none" stroke="black" d="M56,-150.96C56,-144.74 56,-134.65 56,-125.89"/>
<polygon fill="black" stroke="black" points="59.5,-126.1 56,-116.1 52.5,-126.1 59.5,-126.1"/>
</g>
<!-- 19 -->
<g id="node20" class="node">
<title>19</title>
<text text-anchor="middle" x="177" y="-252.2" font-family="Times,serif" font-size="14.00">&lt;term&gt;</text>
</g>
<!-- 18&#45;&gt;19 -->
<g id="edge19" class="edge">
<title>18&#45;&gt;19</title>
<path fill="none" stroke="black" d="M176.12,-301.71C176.25,-295.49 176.46,-285.4 176.64,-276.64"/>
<polygon fill="black" stroke="black" points="180.14,-276.92 176.85,-266.85 173.14,-276.78 180.14,-276.92"/>
</g>
<!-- 20 -->
<g id="node21" class="node">
<title>20</title>
<text text-anchor="middle" x="181" y="-201.95" font-family="Times,serif" font-size="14.00">&lt;factor&gt;</text>
</g>
<!-- 19&#45;&gt;20 -->
<g id="edge20" class="edge">
<title>19&#45;&gt;20</title>
<path fill="none" stroke="black" d="M177.49,-251.46C178.01,-245.24 178.84,-235.15 179.57,-226.39"/>
<polygon fill="black" stroke="black" points="183.04,-226.85 180.38,-216.6 176.07,-226.27 183.04,-226.85"/>
</g>
<!-- 21 -->
<g id="node22" class="node">
<title>21</title>
<text text-anchor="middle" x="122" y="-151.7" font-family="Times,serif" font-size="14.00">&lt;integer&gt;</text>
</g>
<!-- 20&#45;&gt;21 -->
<g id="edge21" class="edge">
<title>20&#45;&gt;21</title>
<path fill="none" stroke="black" d="M173.77,-201.21C164.92,-193.97 149.69,-181.52 138.03,-171.98"/>
<polygon fill="black" stroke="black" points="140.42,-169.42 130.47,-165.8 135.99,-174.84 140.42,-169.42"/>
</g>
<!-- 24 -->
<g id="node25" class="node">
<title>24</title>
<text text-anchor="middle" x="182" y="-151.7" font-family="Times,serif" font-size="14.00">. (46)</text>
</g>
<!-- 20&#45;&gt;24 -->
<g id="edge24" class="edge">
<title>20&#45;&gt;24</title>
<path fill="none" stroke="black" d="M181.12,-201.21C181.25,-194.99 181.46,-184.9 181.64,-176.14"/>
<polygon fill="black" stroke="black" points="185.14,-176.42 181.85,-166.35 178.14,-176.28 185.14,-176.42"/>
</g>
<!-- 25 -->
<g id="node26" class="node">
<title>25</title>
<text text-anchor="middle" x="242" y="-151.7" font-family="Times,serif" font-size="14.00">&lt;integer&gt;</text>
</g>
<!-- 20&#45;&gt;25 -->
<g id="edge25" class="edge">
<title>20&#45;&gt;25</title>
<path fill="none" stroke="black" d="M188.73,-201.01C197.94,-193.72 213.61,-181.33 225.57,-171.87"/>
<polygon fill="black" stroke="black" points="227.67,-174.67 233.34,-165.72 223.33,-169.18 227.67,-174.67"/>
</g>
<!-- 22 -->
<g id="node23" class="node">
<title>22</title>
<text text-anchor="middle" x="122" y="-101.45" font-family="Times,serif" font-size="14.00">&lt;digit&gt;</text>
</g>
<!-- 21&#45;&gt;22 -->
<g id="edge22" class="edge">
<title>21&#45;&gt;22</title>
<path fill="none" stroke="black" d="M122,-150.96C122,-144.74 122,-134.65 122,-125.89"/>
<polygon fill="black" stroke="black" points="125.5,-126.1 122,-116.1 118.5,-126.1 125.5,-126.1"/>
</g>
<!-- 23 -->
<g id="node24" class="node">
<title>23</title>
<text text-anchor="middle" x="122" y="-51.2" font-family="Times,serif" font-size="14.00">3 (51)</text>
</g>
<!-- 22&#45;&gt;23 -->
<g id="edge23" class="edge">
<title>22&#45;&gt;23</title>
<path fill="none" stroke="black" d="M122,-100.71C122,-94.49 122,-84.4 122,-75.64"/>
<polygon fill="black" stroke="black" points="125.5,-75.85 122,-65.85 118.5,-75.85 125.5,-75.85"/>
</g>
<!-- 26 -->
<g id="node27" class="node">
<title>26</title>
<text text-anchor="middle" x="211" y="-101.45" font-family="Times,serif" font-size="14.00">&lt;digit&gt;</text>
</g>
<!-- 25&#45;&gt;26 -->
<g id="edge26" class="edge">
<title>25&#45;&gt;26</title>
<path fill="none" stroke="black" d="M238.2,-150.96C233.92,-144.3 226.81,-133.23 220.92,-124.07"/>
<polygon fill="black" stroke="black" points="224,-122.38 215.65,-115.86 218.11,-126.17 224,-122.38"/>
</g>
<!-- 28 -->
<g id="node29" class="node">
<title>28</title>
<text text-anchor="middle" x="277" y="-101.45" font-family="Times,serif" font-size="14.00">&lt;integer&gt;</text>
</g>
<!-- 25&#45;&gt;28 -->
<g id="edge28" class="edge">
<title>25&#45;&gt;28</title>
<path fill="none" stroke="black" d="M246.29,-150.96C251.17,-144.23 259.33,-132.98 266.01,-123.77"/>
<polygon fill="black" stroke="black" points="268.75,-125.96 271.78,-115.81 263.08,-121.85 268.75,-125.96"/>
</g>
<!-- 27 -->
<g id="node28" class="node">
<title>27</title>
<text text-anchor="middle" x="211" y="-51.2" font-family="Times,serif" font-size="14.00">3 (51)</text>
</g>
<!-- 26&#45;&gt;27 -->
<g id="edge27" class="edge">
<title>26&#45;&gt;27</title>
<path fill="none" stroke="black" d="M211,-100.71C211,-94.49 211,-84.4 211,-75.64"/>
<polygon fill="black" stroke="black" points="214.5,-75.85 211,-65.85 207.5,-75.85 214.5,-75.85"/>
</g>
<!-- 29 -->
<g id="node30" class="node">
<title>29</title>
<text text-anchor="middle" x="277" y="-51.2" font-family="Times,serif" font-size="14.00">&lt;digit&gt;</text>
</g>
<!-- 28&#45;&gt;29 -->
<g id="edge29" class="edge">
<title>28&#45;&gt;29</title>
<path fill="none" stroke="black" d="M277,-100.71C277,-94.49 277,-84.4 277,-75.64"/>
<polygon fill="black" stroke="black" points="280.5,-75.85 277,-65.85 273.5,-75.85 280.5,-75.85"/>
</g>
<!-- 30 -->
<g id="node31" class="node">
<title>30</title>
<text text-anchor="middle" x="277" y="-0.95" font-family="Times,serif" font-size="14.00">5 (53)</text>
</g>
<!-- 29&#45;&gt;30 -->
<g id="edge30" class="edge">
<title>29&#45;&gt;30</title>
<path fill="none" stroke="black" d="M277,-50.46C277,-44.24 277,-34.15 277,-25.39"/>
<polygon fill="black" stroke="black" points="280.5,-25.6 277,-15.6 273.5,-25.6 280.5,-25.6"/>
</g>
</g>
</svg>