<svg class="railroad-diagram" height="92" viewBox="0 0 390.0 92" width="390.0" xmlns="http://www.w3.org/2000/svg">
<g transform="translate(.5 .5)">
<style>/* <![CDATA[ */
    svg.railroad-diagram {
        background-color:hsl(100,100%,100%);
    }
    svg.railroad-diagram path {
        stroke-width:3;
        stroke:black;
        fill:rgba(0,0,0,0);
    }
    svg.railroad-diagram text {
        font:bold 14px monospace;
        text-anchor:middle;
    }
    svg.railroad-diagram text.label{
        text-anchor:start;
    }
    svg.railroad-diagram text.comment{
        font:italic 12px monospace;
    }
    svg.railroad-diagram rect{
        stroke-width:3;
        stroke:black;
        fill:hsl(0,62%,82%);
    }

/* ]]> */
</style><g>
<path d="M20 51v20m10 -20v20m-10 -10h20"/></g><g>
<path d="M40 61h0.0"/><path d="M350.0 61h0.0"/><path d="M40.0 61a10 10 0 0 0 10 -10v-10a10 10 0 0 1 10 -10"/><g>
<path d="M60.0 31h0.0"/><path d="M330.0 31h0.0"/><g class="non-terminal">
<path d="M60.0 31h0.0"/><path d="M156.5 31h0.0"/><rect height="22" width="96.5" x="60.0" y="20"/><text x="108.25" y="35">statement</text></g><path d="M156.5 31h10"/><path d="M166.5 31h10"/><g class="terminal">
<path d="M176.5 31h0.0"/><path d="M205.0 31h0.0"/><rect height="22" rx="10" ry="10" width="28.5" x="176.5" y="20"/><text x="190.75" y="35">;</text></g><path d="M205.0 31h10"/><path d="M215.0 31h10"/><g class="non-terminal">
<path d="M225.0 31h0.0"/><path d="M330.0 31h0.0"/><rect height="22" width="105.0" x="225.0" y="20"/><text x="277.5" y="35">statements</text></g></g><path d="M330.0 31a10 10 0 0 1 10 10v10a10 10 0 0 0 10 10"/><path d="M40.0 61h20"/><g>
<path d="M60.0 61h86.75"/><path d="M243.25 61h86.75"/><g class="non-terminal">
<path d="M146.75 61h0.0"/><path d="M243.25 61h0.0"/><rect height="22" width="96.5" x="146.75" y="50"/><text x="195.0" y="65">statement</text></g></g><path d="M330.0 61h20"/></g><path d="M 350.0 61 h 20 m -10 -10 v 20 m 10 -20 v 20"/></g></svg>