<svg xmlns="http://www.w3.org/2000/svg" xmlns:xlink="http://www.w3.org/1999/xlink" width="1684pt" height="548pt" viewBox="0.00 0.00 1684.00 548.00">
<g id="graph0" class="graph" transform="scale(1 1) rotate(0) translate(4 544)">
<polygon fill="white" stroke="none" points="-4,4 -4,-544 1680,-544 1680,4 -4,4"/>
<!-- 0 -->
<g id="node1" class="node">
<title>0</title>
<text text-anchor="start" x="282.62" y="-517.95" font-family="Courier,monospace" font-weight="bold" font-size="14.00" fill="#004080">FunctionDef</text>
</g>
<!-- 1 -->
<g id="node2" class="node">
<title>1</title>
<text text-anchor="middle" x="82" y="-444.95" font-family="Courier,monospace" font-size="14.00" fill="#008040">&quot;my_sqrt&quot;</text>
</g>
<!-- 0&#45;&#45;1 -->
<g id="edge1" class="edge">
<title>0--1</title>
<path fill="none" stroke="black" d="M329,-503C329,-503 220.63,-488.91 136,-468 133.04,-467.27 130.01,-466.47 126.96,-465.62"/>
</g>
<!-- 2 -->
<g id="node3" class="node">
<title>2</title>
<text text-anchor="start" x="152.88" y="-445.95" font-family="Courier,monospace" font-weight="bold" font-size="14.00" fill="#004080">arguments</text>
</g>
<!-- 0&#45;&#45;2 -->
<g id="edge2" class="edge">
<title>0--2</title>
<path fill="none" stroke="black" d="M329,-503C329,-503 275.38,-482.94 234.75,-467.74"/>
</g>
<!-- 5 -->
<g id="node6" class="node">
<title>5</title>
<text text-anchor="start" x="261.25" y="-445.95" font-family="Courier,monospace" font-weight="bold" font-size="14.00" fill="#004080">Assign</text>
</g>
<!-- 0&#45;&#45;5 -->
<g id="edge5" class="edge">
<title>0--5</title>
<path fill="none" stroke="black" d="M329,-503C329,-503 312.41,-482.94 299.84,-467.74"/>
</g>
<!-- 10 -->
<g id="node11" class="node">
<title>10</title>
<text text-anchor="start" x="346.25" y="-445.95" font-family="Courier,monospace" font-weight="bold" font-size="14.00" fill="#004080">Assign</text>
</g>
<!-- 0&#45;&#45;10 -->
<g id="edge10" class="edge">
<title>0--10</title>
<path fill="none" stroke="black" d="M329,-503C329,-503 345.2,-482.94 357.48,-467.74"/>
</g>
<!-- 21 -->
<g id="node22" class="node">
<title>21</title>
<text text-anchor="start" x="909.38" y="-445.95" font-family="Courier,monospace" font-weight="bold" font-size="14.00" fill="#004080">While</text>
</g>
<!-- 0&#45;&#45;21 -->
<g id="edge21" class="edge">
<title>0--21</title>
<path fill="none" stroke="black" d="M329,-503C329,-503 781.98,-463.81 901.42,-453.47"/>
</g>
<!-- 58 -->
<g id="node59" class="node">
<title>58</title>
<text text-anchor="start" x="1316.25" y="-445.95" font-family="Courier,monospace" font-weight="bold" font-size="14.00" fill="#004080">Return</text>
</g>
<!-- 0&#45;&#45;58 -->
<g id="edge58" class="edge">
<title>0--58</title>
<path fill="none" stroke="black" d="M329,-503C329,-503 1135.26,-461.57 1308.48,-452.67"/>
</g>
<!-- 3 -->
<g id="node4" class="node">
<title>3</title>
<text text-anchor="start" x="63.62" y="-373.95" font-family="Courier,monospace" font-weight="bold" font-size="14.00" fill="#004080">arg</text>
</g>
<!-- 2&#45;&#45;3 -->
<g id="edge3" class="edge">
<title>2--3</title>
<path fill="none" stroke="black" d="M162.4,-432.05C144.35,-420.97 120.87,-406.55 102.95,-395.55"/>
</g>
<!-- 4 -->
<g id="node5" class="node">
<title>4</title>
<text text-anchor="middle" x="27" y="-300.95" font-family="Courier,monospace" font-size="14.00" fill="#008040">&quot;x&quot;</text>
</g>
<!-- 3&#45;&#45;4 -->
<g id="edge4" class="edge">
<title>3--4</title>
<path fill="none" stroke="black" d="M64.14,-360.05C56.43,-349.05 46.43,-334.76 38.75,-323.79"/>
</g>
<!-- 6 -->
<g id="node7" class="node">
<title>6</title>
<text text-anchor="start" x="182.5" y="-373.95" font-family="Courier,monospace" font-weight="bold" font-size="14.00" fill="#004080">Name</text>
</g>
<!-- 5&#45;&#45;6 -->
<g id="edge6" class="edge">
<title>5--6</title>
<path fill="none" stroke="black" d="M277,-431C277,-431 246.91,-410.94 224.11,-395.74"/>
</g>
<!-- 9 -->
<g id="node10" class="node">
<title>9</title>
<text text-anchor="middle" x="285" y="-372.95" font-family="Courier,monospace" font-size="14.00" fill="#008040">Constant</text>
</g>
<!-- 5&#45;&#45;9 -->
<g id="edge9" class="edge">
<title>5--9</title>
<path fill="none" stroke="black" d="M277,-431C277,-431 280.09,-410.94 282.42,-395.74"/>
</g>
<!-- 7 -->
<g id="node8" class="node">
<title>7</title>
<text text-anchor="middle" x="113" y="-300.95" font-family="Courier,monospace" font-size="14.00" fill="#008040">&quot;approx&quot;</text>
</g>
<!-- 6&#45;&#45;7 -->
<g id="edge7" class="edge">
<title>6--7</title>
<path fill="none" stroke="black" d="M191,-359C191,-359 160.91,-338.94 138.11,-323.74"/>
</g>
<!-- 8 -->
<g id="node9" class="node">
<title>8</title>
<text text-anchor="middle" x="201" y="-300.95" font-family="Courier,monospace" font-size="14.00" fill="#008040">Store</text>
</g>
<!-- 6&#45;&#45;8 -->
<g id="edge8" class="edge">
<title>6--8</title>
<path fill="none" stroke="black" d="M191,-359C191,-359 194.86,-338.94 197.78,-323.74"/>
</g>
<!-- 11 -->
<g id="node12" class="node">
<title>11</title>
<text text-anchor="start" x="354.5" y="-373.95" font-family="Courier,monospace" font-weight="bold" font-size="14.00" fill="#004080">Name</text>
</g>
<!-- 10&#45;&#45;11 -->
<g id="edge11" class="edge">
<title>10--11</title>
<path fill="none" stroke="black" d="M381,-431C381,-431 377.14,-410.94 374.22,-395.74"/>
</g>
<!-- 14 -->
<g id="node15" class="node">
<title>14</title>
<text text-anchor="start" x="458.38" y="-373.95" font-family="Courier,monospace" font-weight="bold" font-size="14.00" fill="#004080">BinOp</text>
</g>
<!-- 10&#45;&#45;14 -->
<g id="edge14" class="edge">
<title>10--14</title>
<path fill="none" stroke="black" d="M381,-431C381,-431 421.46,-409.53 450.39,-394.18"/>
</g>
<!-- 12 -->
<g id="node13" class="node">
<title>12</title>
<text text-anchor="middle" x="285" y="-300.95" font-family="Courier,monospace" font-size="14.00" fill="#008040">&quot;guess&quot;</text>
</g>
<!-- 11&#45;&#45;12 -->
<g id="edge12" class="edge">
<title>11--12</title>
<path fill="none" stroke="black" d="M362,-359C362,-359 332.3,-338.94 309.79,-323.74"/>
</g>
<!-- 13 -->
<g id="node14" class="node">
<title>13</title>
<text text-anchor="middle" x="369" y="-300.95" font-family="Courier,monospace" font-size="14.00" fill="#008040">Store</text>
</g>
<!-- 11&#45;&#45;13 -->
<g id="edge13" class="edge">
<title>11--13</title>
<path fill="none" stroke="black" d="M362,-359C362,-359 364.7,-338.94 366.75,-323.74"/>
</g>
<!-- 15 -->
<g id="node16" class="node">
<title>15</title>
<text text-anchor="start" x="426.5" y="-301.95" font-family="Courier,monospace" font-weight="bold" font-size="14.00" fill="#004080">Name</text>
</g>
<!-- 14&#45;&#45;15 -->
<g id="edge15" class="edge">
<title>14--15</title>
<path fill="none" stroke="black" d="M486,-359C486,-359 469.41,-338.94 456.84,-323.74"/>
</g>
<!-- 18 -->
<g id="node19" class="node">
<title>18</title>
<text text-anchor="middle" x="515" y="-300.95" font-family="Courier,monospace" font-size="14.00" fill="#008040">Div</text>
</g>
<!-- 14&#45;&#45;18 -->
<g id="edge18" class="edge">
<title>14--18</title>
<path fill="none" stroke="black" d="M486,-359C486,-359 497.19,-338.94 505.66,-323.74"/>
</g>
<!-- 19 -->
<g id="node20" class="node">
<title>19</title>
<text text-anchor="start" x="568" y="-301.95" font-family="Courier,monospace" font-weight="bold" font-size="14.00" fill="#004080">Constant</text>
</g>
<!-- 14&#45;&#45;19 -->
<g id="edge19" class="edge">
<title>14--19</title>
<path fill="none" stroke="black" d="M486,-359C486,-359 530.08,-339.07 563.66,-323.88"/>
</g>
<!-- 16 -->
<g id="node17" class="node">
<title>16</title>
<text text-anchor="middle" x="371" y="-228.95" font-family="Courier,monospace" font-size="14.00" fill="#008040">&quot;x&quot;</text>
</g>
<!-- 15&#45;&#45;16 -->
<g id="edge16" class="edge">
<title>15--16</title>
<path fill="none" stroke="black" d="M436,-287C436,-287 410.93,-266.94 391.92,-251.74"/>
</g>
<!-- 17 -->
<g id="node18" class="node">
<title>17</title>
<text text-anchor="middle" x="443" y="-228.95" font-family="Courier,monospace" font-size="14.00" fill="#008040">Load</text>
</g>
<!-- 15&#45;&#45;17 -->
<g id="edge17" class="edge">
<title>15--17</title>
<path fill="none" stroke="black" d="M436,-287C436,-287 438.7,-266.94 440.75,-251.74"/>
</g>
<!-- 20 -->
<g id="node21" class="node">
<title>20</title>
<text text-anchor="middle" x="515" y="-228.95" font-family="Courier,monospace" font-size="14.00" fill="#008040">2</text>
</g>
<!-- 19&#45;&#45;20 -->
<g id="edge20" class="edge">
<title>19--20</title>
<path fill="none" stroke="black" d="M580.18,-288.05C566.66,-277.05 549.11,-262.76 535.63,-251.79"/>
</g>
<!-- 22 -->
<g id="node23" class="node">
<title>22</title>
<text text-anchor="start" x="777.12" y="-373.95" font-family="Courier,monospace" font-weight="bold" font-size="14.00" fill="#004080">Compare</text>
</g>
<!-- 21&#45;&#45;22 -->
<g id="edge22" class="edge">
<title>21--22</title>
<path fill="none" stroke="black" d="M938,-431C938,-431 881.83,-408.87 842.77,-393.48"/>
</g>
<!-- 30 -->
<g id="node31" class="node">
<title>30</title>
<text text-anchor="start" x="956.25" y="-373.95" font-family="Courier,monospace" font-weight="bold" font-size="14.00" fill="#004080">Assign</text>
</g>
<!-- 21&#45;&#45;30 -->
<g id="edge30" class="edge">
<title>21--30</title>
<path fill="none" stroke="black" d="M938,-431C938,-431 954.59,-410.94 967.16,-395.74"/>
</g>
<!-- 37 -->
<g id="node38" class="node">
<title>37</title>
<text text-anchor="start" x="1290.25" y="-373.95" font-family="Courier,monospace" font-weight="bold" font-size="14.00" fill="#004080">Assign</text>
</g>
<!-- 21&#45;&#45;37 -->
<g id="edge37" class="edge">
<title>21--37</title>
<path fill="none" stroke="black" d="M938,-431C938,-431 1191.08,-396.09 1282.53,-383.48"/>
</g>
<!-- 23 -->
<g id="node24" class="node">
<title>23</title>
<text text-anchor="start" x="670.5" y="-301.95" font-family="Courier,monospace" font-weight="bold" font-size="14.00" fill="#004080">Name</text>
</g>
<!-- 22&#45;&#45;23 -->
<g id="edge23" class="edge">
<title>22--23</title>
<path fill="none" stroke="black" d="M799,-359C799,-359 746.96,-334.84 713.83,-319.46"/>
</g>
<!-- 26 -->
<g id="node27" class="node">
<title>26</title>
<text text-anchor="middle" x="769" y="-300.95" font-family="Courier,monospace" font-size="14.00" fill="#008040">NotEq</text>
</g>
<!-- 22&#45;&#45;26 -->
<g id="edge26" class="edge">
<title>22--26</title>
<path fill="none" stroke="black" d="M799,-359C799,-359 787.43,-338.94 778.66,-323.74"/>
</g>
<!-- 27 -->
<g id="node28" class="node">
<title>27</title>
<text text-anchor="start" x="826.5" y="-301.95" font-family="Courier,monospace" font-weight="bold" font-size="14.00" fill="#004080">Name</text>
</g>
<!-- 22&#45;&#45;27 -->
<g id="edge27" class="edge">
<title>22--27</title>
<path fill="none" stroke="black" d="M799,-359C799,-359 815.97,-338.94 828.84,-323.74"/>
</g>
<!-- 24 -->
<g id="node25" class="node">
<title>24</title>
<text text-anchor="middle" x="601" y="-228.95" font-family="Courier,monospace" font-size="14.00" fill="#008040">&quot;approx&quot;</text>
</g>
<!-- 23&#45;&#45;24 -->
<g id="edge24" class="edge">
<title>23--24</title>
<path fill="none" stroke="black" d="M679,-287C679,-287 648.91,-266.94 626.11,-251.74"/>
</g>
<!-- 25 -->
<g id="node26" class="node">
<title>25</title>
<text text-anchor="middle" x="687" y="-228.95" font-family="Courier,monospace" font-size="14.00" fill="#008040">Load</text>
</g>
<!-- 23&#45;&#45;25 -->
<g id="edge25" class="edge">
<title>23--25</title>
<path fill="none" stroke="black" d="M679,-287C679,-287 682.09,-266.94 684.42,-251.74"/>
</g>
<!-- 28 -->
<g id="node29" class="node">
<title>28</title>
<text text-anchor="middle" x="769" y="-228.95" font-family="Courier,monospace" font-size="14.00" fill="#008040">&quot;guess&quot;</text>
</g>
<!-- 27&#45;&#45;28 -->
<g id="edge28" class="edge">
<title>27--28</title>
<path fill="none" stroke="black" d="M837,-287C837,-287 810.77,-266.94 790.89,-251.74"/>
</g>
<!-- 29 -->
<g id="node30" class="node">
<title>29</title>
<text text-anchor="middle" x="851" y="-228.95" font-family="Courier,monospace" font-size="14.00" fill="#008040">Load</text>
</g>
<!-- 27&#45;&#45;29 -->
<g id="edge29" class="edge">
<title>27--29</title>
<path fill="none" stroke="black" d="M837,-287C837,-287 842.4,-266.94 846.49,-251.74"/>
</g>
<!-- 31 -->
<g id="node32" class="node">
<title>31</title>
<text text-anchor="start" x="964.5" y="-301.95" font-family="Courier,monospace" font-weight="bold" font-size="14.00" fill="#004080">Name</text>
</g>
<!-- 30&#45;&#45;31 -->
<g id="edge31" class="edge">
<title>30--31</title>
<path fill="none" stroke="black" d="M992,-359C992,-359 987.76,-338.94 984.54,-323.74"/>
</g>
<!-- 34 -->
<g id="node35" class="node">
<title>34</title>
<text text-anchor="start" x="1092.5" y="-301.95" font-family="Courier,monospace" font-weight="bold" font-size="14.00" fill="#004080">Name</text>
</g>
<!-- 30&#45;&#45;34 -->
<g id="edge34" class="edge">
<title>30--34</title>
<path fill="none" stroke="black" d="M992,-359C992,-359 1047.62,-334.28 1082.16,-318.93"/>
</g>
<!-- 32 -->
<g id="node33" class="node">
<title>32</title>
<text text-anchor="middle" x="937" y="-228.95" font-family="Courier,monospace" font-size="14.00" fill="#008040">&quot;approx&quot;</text>
</g>
<!-- 31&#45;&#45;32 -->
<g id="edge32" class="edge">
<title>31--32</title>
<path fill="none" stroke="black" d="M981,-287C981,-287 964.03,-266.94 951.16,-251.74"/>
</g>
<!-- 33 -->
<g id="node34" class="node">
<title>33</title>
<text text-anchor="middle" x="1025" y="-228.95" font-family="Courier,monospace" font-size="14.00" fill="#008040">Store</text>
</g>
<!-- 31&#45;&#45;33 -->
<g id="edge33" class="edge">
<title>31--33</title>
<path fill="none" stroke="black" d="M981,-287C981,-287 997.97,-266.94 1010.84,-251.74"/>
</g>
<!-- 35 -->
<g id="node36" class="node">
<title>35</title>
<text text-anchor="middle" x="1109" y="-228.95" font-family="Courier,monospace" font-size="14.00" fill="#008040">&quot;guess&quot;</text>
</g>
<!-- 34&#45;&#45;35 -->
<g id="edge35" class="edge">
<title>34--35</title>
<path fill="none" stroke="black" d="M1117,-287C1117,-287 1113.91,-266.94 1111.58,-251.74"/>
</g>
<!-- 36 -->
<g id="node37" class="node">
<title>36</title>
<text text-anchor="middle" x="1191" y="-228.95" font-family="Courier,monospace" font-size="14.00" fill="#008040">Load</text>
</g>
<!-- 34&#45;&#45;36 -->
<g id="edge36" class="edge">
<title>34--36</title>
<path fill="none" stroke="black" d="M1117,-287C1117,-287 1145.55,-266.94 1167.18,-251.74"/>
</g>
<!-- 38 -->
<g id="node39" class="node">
<title>38</title>
<text text-anchor="start" x="1298.5" y="-301.95" font-family="Courier,monospace" font-weight="bold" font-size="14.00" fill="#004080">Name</text>
</g>
<!-- 37&#45;&#45;38 -->
<g id="edge38" class="edge">
<title>37--38</title>
<path fill="none" stroke="black" d="M1325,-359C1325,-359 1321.14,-338.94 1318.22,-323.74"/>
</g>
<!-- 41 -->
<g id="node42" class="node">
<title>41</title>
<text text-anchor="start" x="1411.38" y="-301.95" font-family="Courier,monospace" font-weight="bold" font-size="14.00" fill="#004080">BinOp</text>
</g>
<!-- 37&#45;&#45;41 -->
<g id="edge41" class="edge">
<title>37--41</title>
<path fill="none" stroke="black" d="M1325,-359C1325,-359 1371.91,-336.2 1403.61,-320.8"/>
</g>
<!-- 39 -->
<g id="node40" class="node">
<title>39</title>
<text text-anchor="middle" x="1273" y="-228.95" font-family="Courier,monospace" font-size="14.00" fill="#008040">&quot;guess&quot;</text>
</g>
<!-- 38&#45;&#45;39 -->
<g id="edge39" class="edge">
<title>38--39</title>
<path fill="none" stroke="black" d="M1315,-287C1315,-287 1298.8,-266.94 1286.52,-251.74"/>
</g>
<!-- 40 -->
<g id="node41" class="node">
<title>40</title>
<text text-anchor="middle" x="1357" y="-228.95" font-family="Courier,monospace" font-size="14.00" fill="#008040">Store</text>
</g>
<!-- 38&#45;&#45;40 -->
<g id="edge40" class="edge">
<title>38--40</title>
<path fill="none" stroke="black" d="M1315,-287C1315,-287 1331.2,-266.94 1343.48,-251.74"/>
</g>
<!-- 42 -->
<g id="node43" class="node">
<title>42</title>
<text text-anchor="start" x="1411.38" y="-229.95" font-family="Courier,monospace" font-weight="bold" font-size="14.00" fill="#004080">BinOp</text>
</g>
<!-- 41&#45;&#45;42 -->
<g id="edge42" class="edge">
<title>41--42</title>
<path fill="none" stroke="black" d="M1446,-287C1446,-287 1440.6,-266.94 1436.51,-251.74"/>
</g>
<!-- 55 -->
<g id="node56" class="node">
<title>55</title>
<text text-anchor="middle" x="1506" y="-228.95" font-family="Courier,monospace" font-size="14.00" fill="#008040">Div</text>
</g>
<!-- 41&#45;&#45;55 -->
<g id="edge55" class="edge">
<title>41--55</title>
<path fill="none" stroke="black" d="M1446,-287C1446,-287 1469.15,-266.94 1486.69,-251.74"/>
</g>
<!-- 56 -->
<g id="node57" class="node">
<title>56</title>
<text text-anchor="start" x="1559" y="-229.95" font-family="Courier,monospace" font-weight="bold" font-size="14.00" fill="#004080">Constant</text>
</g>
<!-- 41&#45;&#45;56 -->
<g id="edge56" class="edge">
<title>41--56</title>
<path fill="none" stroke="black" d="M1446,-287C1446,-287 1508.13,-264.87 1551.33,-249.48"/>
</g>
<!-- 43 -->
<g id="node44" class="node">
<title>43</title>
<text text-anchor="start" x="1343.5" y="-157.95" font-family="Courier,monospace" font-weight="bold" font-size="14.00" fill="#004080">Name</text>
</g>
<!-- 42&#45;&#45;43 -->
<g id="edge43" class="edge">
<title>42--43</title>
<path fill="none" stroke="black" d="M1432,-215C1432,-215 1404.23,-194.94 1383.18,-179.74"/>
</g>
<!-- 46 -->
<g id="node47" class="node">
<title>46</title>
<text text-anchor="middle" x="1432" y="-156.95" font-family="Courier,monospace" font-size="14.00" fill="#008040">Add</text>
</g>
<!-- 42&#45;&#45;46 -->
<g id="edge46" class="edge">
<title>42--46</title>
<path fill="none" stroke="black" d="M1432,-215C1432,-215 1432,-194.94 1432,-179.74"/>
</g>
<!-- 47 -->
<g id="node48" class="node">
<title>47</title>
<text text-anchor="start" x="1485.38" y="-157.95" font-family="Courier,monospace" font-weight="bold" font-size="14.00" fill="#004080">BinOp</text>
</g>
<!-- 42&#45;&#45;47 -->
<g id="edge47" class="edge">
<title>42--47</title>
<path fill="none" stroke="black" d="M1432,-215C1432,-215 1460.55,-194.94 1482.18,-179.74"/>
</g>
<!-- 44 -->
<g id="node45" class="node">
<title>44</title>
<text text-anchor="middle" x="1275" y="-84.95" font-family="Courier,monospace" font-size="14.00" fill="#008040">&quot;approx&quot;</text>
</g>
<!-- 43&#45;&#45;44 -->
<g id="edge44" class="edge">
<title>43--44</title>
<path fill="none" stroke="black" d="M1352,-143C1352,-143 1322.3,-122.94 1299.79,-107.74"/>
</g>
<!-- 45 -->
<g id="node46" class="node">
<title>45</title>
<text text-anchor="middle" x="1361" y="-84.95" font-family="Courier,monospace" font-size="14.00" fill="#008040">Load</text>
</g>
<!-- 43&#45;&#45;45 -->
<g id="edge45" class="edge">
<title>43--45</title>
<path fill="none" stroke="black" d="M1352,-143C1352,-143 1355.47,-122.94 1358.1,-107.74"/>
</g>
<!-- 48 -->
<g id="node49" class="node">
<title>48</title>
<text text-anchor="start" x="1417.5" y="-85.95" font-family="Courier,monospace" font-weight="bold" font-size="14.00" fill="#004080">Name</text>
</g>
<!-- 47&#45;&#45;48 -->
<g id="edge48" class="edge">
<title>47--48</title>
<path fill="none" stroke="black" d="M1506,-143C1506,-143 1478.23,-122.94 1457.18,-107.74"/>
</g>
<!-- 51 -->
<g id="node52" class="node">
<title>51</title>
<text text-anchor="middle" x="1506" y="-84.95" font-family="Courier,monospace" font-size="14.00" fill="#008040">Div</text>
</g>
<!-- 47&#45;&#45;51 -->
<g id="edge51" class="edge">
<title>47--51</title>
<path fill="none" stroke="black" d="M1506,-143C1506,-143 1506,-122.94 1506,-107.74"/>
</g>
<!-- 52 -->
<g id="node53" class="node">
<title>52</title>
<text text-anchor="start" x="1561.5" y="-85.95" font-family="Courier,monospace" font-weight="bold" font-size="14.00" fill="#004080">Name</text>
</g>
<!-- 47&#45;&#45;52 -->
<g id="edge52" class="edge">
<title>47--52</title>
<path fill="none" stroke="black" d="M1506,-143C1506,-143 1533.77,-122.94 1554.82,-107.74"/>
</g>
<!-- 49 -->
<g id="node50" class="node">
<title>49</title>
<text text-anchor="middle" x="1376" y="-12.95" font-family="Courier,monospace" font-size="14.00" fill="#008040">&quot;x&quot;</text>
</g>
<!-- 48&#45;&#45;49 -->
<g id="edge49" class="edge">
<title>48--49</title>
<path fill="none" stroke="black" d="M1430,-71C1430,-71 1409.17,-50.94 1393.38,-35.74"/>
</g>
<!-- 50 -->
<g id="node51" class="node">
<title>50</title>
<text text-anchor="middle" x="1448" y="-12.95" font-family="Courier,monospace" font-size="14.00" fill="#008040">Load</text>
</g>
<!-- 48&#45;&#45;50 -->
<g id="edge50" class="edge">
<title>48--50</title>
<path fill="none" stroke="black" d="M1430,-71C1430,-71 1436.94,-50.94 1442.21,-35.74"/>
</g>
<!-- 53 -->
<g id="node54" class="node">
<title>53</title>
<text text-anchor="middle" x="1563" y="-12.95" font-family="Courier,monospace" font-size="14.00" fill="#008040">&quot;approx&quot;</text>
</g>
<!-- 52&#45;&#45;53 -->
<g id="edge53" class="edge">
<title>52--53</title>
<path fill="none" stroke="black" d="M1583,-71C1583,-71 1575.28,-50.94 1569.44,-35.74"/>
</g>
<!-- 54 -->
<g id="node55" class="node">
<title>54</title>
<text text-anchor="middle" x="1649" y="-12.95" font-family="Courier,monospace" font-size="14.00" fill="#008040">Load</text>
</g>
<!-- 52&#45;&#45;54 -->
<g id="edge54" class="edge">
<title>52--54</title>
<path fill="none" stroke="black" d="M1583,-71C1583,-71 1608.46,-50.94 1627.75,-35.74"/>
</g>
<!-- 57 -->
<g id="node58" class="node">
<title>57</title>
<text text-anchor="middle" x="1592" y="-156.95" font-family="Courier,monospace" font-size="14.00" fill="#008040">2</text>
</g>
<!-- 56&#45;&#45;57 -->
<g id="edge57" class="edge">
<title>56--57</title>
<path fill="none" stroke="black" d="M1592,-216.05C1592,-205.05 1592,-190.76 1592,-179.79"/>
</g>
<!-- 59 -->
<g id="node60" class="node">
<title>59</title>
<text text-anchor="start" x="1503.5" y="-373.95" font-family="Courier,monospace" font-weight="bold" font-size="14.00" fill="#004080">Name</text>
</g>
<!-- 58&#45;&#45;59 -->
<g id="edge59" class="edge">
<title>58--59</title>
<path fill="none" stroke="black" d="M1373.42,-436.32C1407.67,-422.93 1461.07,-402.04 1493.08,-389.53"/>
</g>
<!-- 60 -->
<g id="node61" class="node">
<title>60</title>
<text text-anchor="middle" x="1520" y="-300.95" font-family="Courier,monospace" font-size="14.00" fill="#008040">&quot;approx&quot;</text>
</g>
<!-- 59&#45;&#45;60 -->
<g id="edge60" class="edge">
<title>59--60</title>
<path fill="none" stroke="black" d="M1528,-359C1528,-359 1524.91,-338.94 1522.58,-323.74"/>
</g>
<!-- 61 -->
<g id="node62" class="node">
<title>61</title>
<text text-anchor="middle" x="1606" y="-300.95" font-family="Courier,monospace" font-size="14.00" fill="#008040">Load</text>
</g>
<!-- 59&#45;&#45;61 -->
<g id="edge61" class="edge">
<title>59--61</title>
<path fill="none" stroke="black" d="M1528,-359C1528,-359 1558.09,-338.94 1580.89,-323.74"/>
</g>
</g>
</svg>