<?xml version="1.0" encoding="UTF-8" standalone="no"?>
<!DOCTYPE svg PUBLIC "-//W3C//DTD SVG 1.1//EN"
 "http://www.w3.org/Graphics/SVG/1.1/DTD/svg11.dtd">
<!-- Generated by graphviz version 12.2.1 (20241206.2353)
 -->
<!-- Pages: 1 -->
<svg width="160pt" height="173pt"
 viewBox="0.00 0.00 160.12 173.00" xmlns="http://www.w3.org/2000/svg" xmlns:xlink="http://www.w3.org/1999/xlink">
<g id="graph0" class="graph" transform="scale(1 1) rotate(0) translate(4 169)">
<polygon fill="white" stroke="none" points="-4,4 -4,-169 156.12,-169 156.12,4 -4,4"/>
<!-- 0 -->
<g id="node1" class="node">
<title>0</title>
<text text-anchor="middle" x="83.62" y="-151.7" font-family="Times,serif" font-size="14.00">&lt;start&gt;</text>
</g>
<!-- 1 -->
<g id="node2" class="node">
<title>1</title>
<text text-anchor="middle" x="83.62" y="-101.45" font-family="Times,serif" font-size="14.00">&lt;vehicle&gt;</text>
</g>
<!-- 0&#45;&gt;1 -->
<g id="edge1" class="edge">
<title>0&#45;&gt;1</title>
<path fill="none" stroke="black" d="M83.62,-150.96C83.62,-144.74 83.62,-134.65 83.62,-125.89"/>
<polygon fill="black" stroke="black" points="87.13,-126.1 83.63,-116.1 80.13,-126.1 87.13,-126.1"/>
</g>
<!-- 2 -->
<g id="node3" class="node">
<title>2</title>
<text text-anchor="middle" x="41.62" y="-51.2" font-family="Times,serif" font-size="14.00">1997,van,Ford,</text>
</g>
<!-- 1&#45;&gt;2 -->
<g id="edge2" class="edge">
<title>1&#45;&gt;2</title>
<path fill="none" stroke="black" d="M78.47,-100.71C72.49,-93.84 62.41,-82.25 54.3,-72.93"/>
<polygon fill="black" stroke="black" points="57.02,-70.73 47.81,-65.48 51.74,-75.32 57.02,-70.73"/>
</g>
<!-- 3 -->
<g id="node4" class="node">
<title>3</title>
<text text-anchor="middle" x="126.62" y="-51.2" font-family="Times,serif" font-size="14.00">&lt;model&gt;</text>
</g>
<!-- 1&#45;&gt;3 -->
<g id="edge3" class="edge">
<title>1&#45;&gt;3</title>
<path fill="none" stroke="black" d="M88.9,-100.71C95.02,-93.84 105.35,-82.25 113.65,-72.93"/>
<polygon fill="black" stroke="black" points="116.26,-75.26 120.3,-65.47 111.04,-70.61 116.26,-75.26"/>
</g>
<!-- 4 -->
<g id="node5" class="node">
<title>4</title>
<text text-anchor="middle" x="126.62" y="-0.95" font-family="Times,serif" font-size="14.00">E350</text>
</g>
<!-- 3&#45;&gt;4 -->
<g id="edge4" class="edge">
<title>3&#45;&gt;4</title>
<path fill="none" stroke="black" d="M126.62,-50.46C126.62,-44.24 126.62,-34.15 126.62,-25.39"/>
<polygon fill="black" stroke="black" points="130.13,-25.6 126.63,-15.6 123.13,-25.6 130.13,-25.6"/>
</g>
</g>
</svg>