<svg xmlns="http://www.w3.org/2000/svg" class="railroad-diagram" height="152" viewBox="0 0 453.0 152" width="453.0">
<g transform="translate(.5 .5)">
<style>/* <![CDATA[ */
    svg.railroad-diagram {
    }
    svg.railroad-diagram path {
        stroke-width:3;
        stroke:black;
        fill:white;
    }
    svg.railroad-diagram text {
        font:14px "Fira Mono", monospace;
        text-anchor:middle;
    }
    svg.railroad-diagram text.label{
        text-anchor:start;
    }
    svg.railroad-diagram text.comment{
        font:italic 12px "Fira Mono", monospace;
    }
    svg.railroad-diagram rect{
        stroke-width:2;
        stroke:black;
        fill:mistyrose;
    }

/* ]]> */
</style><g>
<path d="M20 81v20m10 -20v20m-10 -10h20"/></g><g>
<path d="M40 91h0.0"/><path d="M413.0 91h0.0"/><path d="M40.0 91a10 10 0 0 0 10 -10v-10a10 10 0 0 1 10 -10"/><g>
<path d="M60.0 61h78.25"/><path d="M314.75 61h78.25"/><g class="non-terminal">
<path d="M138.25 61h0.0"/><path d="M192.25 61h0.0"/><rect height="22" width="54.0" x="138.25" y="50"/><text x="165.25" y="65">host</text></g><path d="M192.25 61h10"/><path d="M202.25 61h10"/><g class="terminal">
<path d="M212.25 61h0.0"/><path d="M240.75 61h0.0"/><rect height="22" rx="10" ry="10" width="28.5" x="212.25" y="50"/><text x="226.5" y="65">:</text></g><path d="M240.75 61h10"/><path d="M250.75 61h10"/><g class="non-terminal">
<path d="M260.75 61h0.0"/><path d="M314.75 61h0.0"/><rect height="22" width="54.0" x="260.75" y="50"/><text x="287.75" y="65">port</text></g></g><path d="M393.0 61a10 10 0 0 1 10 10v10a10 10 0 0 0 10 10"/><path d="M40.0 91a10 10 0 0 0 10 -10v-40a10 10 0 0 1 10 -10"/><g>
<path d="M60.0 31h139.5"/><path d="M253.5 31h139.5"/><g class="non-terminal">
<path d="M199.5 31h0.0"/><path d="M253.5 31h0.0"/><rect height="22" width="54.0" x="199.5" y="20"/><text x="226.5" y="35">host</text></g></g><path d="M393.0 31a10 10 0 0 1 10 10v40a10 10 0 0 0 10 10"/><path d="M40.0 91h20"/><g>
<path d="M60.0 91h61.25"/><path d="M331.75 91h61.25"/><g class="non-terminal">
<path d="M121.25 91h0.0"/><path d="M209.25 91h0.0"/><rect height="22" width="88.0" x="121.25" y="80"/><text x="165.25" y="95">userinfo</text></g><path d="M209.25 91h10"/><path d="M219.25 91h10"/><g class="terminal">
<path d="M229.25 91h0.0"/><path d="M257.75 91h0.0"/><rect height="22" rx="10" ry="10" width="28.5" x="229.25" y="80"/><text x="243.5" y="95">@</text></g><path d="M257.75 91h10"/><path d="M267.75 91h10"/><g class="non-terminal">
<path d="M277.75 91h0.0"/><path d="M331.75 91h0.0"/><rect height="22" width="54.0" x="277.75" y="80"/><text x="304.75" y="95">host</text></g></g><path d="M393.0 91h20"/><path d="M40.0 91a10 10 0 0 1 10 10v10a10 10 0 0 0 10 10"/><g>
<path d="M60.0 121h0.0"/><path d="M393.0 121h0.0"/><g class="non-terminal">
<path d="M60.0 121h0.0"/><path d="M148.0 121h0.0"/><rect height="22" width="88.0" x="60.0" y="110"/><text x="104.0" y="125">userinfo</text></g><path d="M148.0 121h10"/><path d="M158.0 121h10"/><g class="terminal">
<path d="M168.0 121h0.0"/><path d="M196.5 121h0.0"/><rect height="22" rx="10" ry="10" width="28.5" x="168.0" y="110"/><text x="182.25" y="125">@</text></g><path d="M196.5 121h10"/><path d="M206.5 121h10"/><g class="non-terminal">
<path d="M216.5 121h0.0"/><path d="M270.5 121h0.0"/><rect height="22" width="54.0" x="216.5" y="110"/><text x="243.5" y="125">host</text></g><path d="M270.5 121h10"/><path d="M280.5 121h10"/><g class="terminal">
<path d="M290.5 121h0.0"/><path d="M319.0 121h0.0"/><rect height="22" rx="10" ry="10" width="28.5" x="290.5" y="110"/><text x="304.75" y="125">:</text></g><path d="M319.0 121h10"/><path d="M329.0 121h10"/><g class="non-terminal">
<path d="M339.0 121h0.0"/><path d="M393.0 121h0.0"/><rect height="22" width="54.0" x="339.0" y="110"/><text x="366.0" y="125">port</text></g></g><path d="M393.0 121a10 10 0 0 0 10 -10v-10a10 10 0 0 1 10 -10"/></g><path d="M 413.0 91 h 20 m -10 -10 v 20 m 10 -20 v 20"/></g></svg>