<?xml version="1.0" encoding="UTF-8" standalone="no"?>
<!DOCTYPE svg PUBLIC "-//W3C//DTD SVG 1.1//EN"
 "http://www.w3.org/Graphics/SVG/1.1/DTD/svg11.dtd">
<!-- Generated by graphviz version 12.2.1 (20241206.2353)
 -->
<!-- Pages: 1 -->
<svg width="439pt" height="374pt"
 viewBox="0.00 0.00 438.50 374.00" xmlns="http://www.w3.org/2000/svg" xmlns:xlink="http://www.w3.org/1999/xlink">
<g id="graph0" class="graph" transform="scale(1 1) rotate(0) translate(4 370)">
<polygon fill="white" stroke="none" points="-4,4 -4,-370 434.5,-370 434.5,4 -4,4"/>
<!-- 0 -->
<g id="node1" class="node">
<title>0</title>
<text text-anchor="middle" x="206.25" y="-352.7" font-family="Times,serif" font-size="14.00">&lt;start&gt;</text>
</g>
<!-- 1 -->
<g id="node2" class="node">
<title>1</title>
<text text-anchor="middle" x="206.25" y="-302.45" font-family="Times,serif" font-size="14.00">&lt;xml&#45;tree&gt;</text>
</g>
<!-- 0&#45;&gt;1 -->
<g id="edge1" class="edge">
<title>0&#45;&gt;1</title>
<path fill="none" stroke="black" d="M206.25,-351.96C206.25,-345.74 206.25,-335.65 206.25,-326.89"/>
<polygon fill="black" stroke="black" points="209.75,-327.1 206.25,-317.1 202.75,-327.1 209.75,-327.1"/>
</g>
<!-- 2 -->
<g id="node3" class="node">
<title>2</title>
<text text-anchor="middle" x="97.25" y="-252.2" font-family="Times,serif" font-size="14.00">&lt;xml&#45;open&#45;tag&gt;</text>
</g>
<!-- 1&#45;&gt;2 -->
<g id="edge2" class="edge">
<title>1&#45;&gt;2</title>
<path fill="none" stroke="black" d="M192.45,-301.51C174.59,-293.61 143.2,-279.71 121.37,-270.05"/>
<polygon fill="black" stroke="black" points="122.89,-266.9 112.33,-266.05 120.05,-273.3 122.89,-266.9"/>
</g>
<!-- 7 -->
<g id="node8" class="node">
<title>7</title>
<text text-anchor="middle" x="206.25" y="-252.2" font-family="Times,serif" font-size="14.00">&lt;xml&#45;tree&gt;</text>
</g>
<!-- 1&#45;&gt;7 -->
<g id="edge7" class="edge">
<title>1&#45;&gt;7</title>
<path fill="none" stroke="black" d="M206.25,-301.71C206.25,-295.49 206.25,-285.4 206.25,-276.64"/>
<polygon fill="black" stroke="black" points="209.75,-276.85 206.25,-266.85 202.75,-276.85 209.75,-276.85"/>
</g>
<!-- 22 -->
<g id="node23" class="node">
<title>22</title>
<text text-anchor="middle" x="345.25" y="-252.2" font-family="Times,serif" font-size="14.00">&lt;xml&#45;close&#45;tag&gt;</text>
</g>
<!-- 1&#45;&gt;22 -->
<g id="edge22" class="edge">
<title>1&#45;&gt;22</title>
<path fill="none" stroke="black" d="M223.85,-301.51C247.35,-293.36 289.24,-278.82 317.14,-269.13"/>
<polygon fill="black" stroke="black" points="318.06,-272.52 326.36,-265.93 315.76,-265.91 318.06,-272.52"/>
</g>
<!-- 3 -->
<g id="node4" class="node">
<title>3</title>
<text text-anchor="middle" x="17.25" y="-201.95" font-family="Times,serif" font-size="14.00">&lt; (60)</text>
</g>
<!-- 2&#45;&gt;3 -->
<g id="edge3" class="edge">
<title>2&#45;&gt;3</title>
<path fill="none" stroke="black" d="M87.12,-251.26C74.49,-243.65 52.65,-230.48 36.74,-220.88"/>
<polygon fill="black" stroke="black" points="38.97,-218.14 28.6,-215.97 35.35,-224.13 38.97,-218.14"/>
</g>
<!-- 4 -->
<g id="node5" class="node">
<title>4</title>
<text text-anchor="middle" x="66.25" y="-201.95" font-family="Times,serif" font-size="14.00">&lt;id&gt;</text>
</g>
<!-- 2&#45;&gt;4 -->
<g id="edge4" class="edge">
<title>2&#45;&gt;4</title>
<path fill="none" stroke="black" d="M93.45,-251.46C89.17,-244.8 82.06,-233.73 76.17,-224.57"/>
<polygon fill="black" stroke="black" points="79.25,-222.88 70.9,-216.36 73.36,-226.67 79.25,-222.88"/>
</g>
<!-- 6 -->
<g id="node7" class="node">
<title>6</title>
<text text-anchor="middle" x="115.25" y="-201.95" font-family="Times,serif" font-size="14.00">&gt; (62)</text>
</g>
<!-- 2&#45;&gt;6 -->
<g id="edge6" class="edge">
<title>2&#45;&gt;6</title>
<path fill="none" stroke="black" d="M99.46,-251.46C101.83,-245.09 105.72,-234.68 109.04,-225.78"/>
<polygon fill="black" stroke="black" points="112.28,-227.1 112.5,-216.51 105.72,-224.65 112.28,-227.1"/>
</g>
<!-- 5 -->
<g id="node6" class="node">
<title>5</title>
<text text-anchor="middle" x="62.25" y="-151.7" font-family="Times,serif" font-size="14.00">html</text>
</g>
<!-- 4&#45;&gt;5 -->
<g id="edge5" class="edge">
<title>4&#45;&gt;5</title>
<path fill="none" stroke="black" d="M65.76,-201.21C65.24,-194.99 64.41,-184.9 63.68,-176.14"/>
<polygon fill="black" stroke="black" points="67.18,-176.02 62.87,-166.35 60.21,-176.6 67.18,-176.02"/>
</g>
<!-- 8 -->
<g id="node9" class="node">
<title>8</title>
<text text-anchor="middle" x="189.25" y="-201.95" font-family="Times,serif" font-size="14.00">&lt;xml&#45;tree&gt;</text>
</g>
<!-- 7&#45;&gt;8 -->
<g id="edge8" class="edge">
<title>7&#45;&gt;8</title>
<path fill="none" stroke="black" d="M204.17,-251.46C201.92,-245.09 198.25,-234.68 195.12,-225.78"/>
<polygon fill="black" stroke="black" points="198.48,-224.79 191.85,-216.52 191.88,-227.11 198.48,-224.79"/>
</g>
<!-- 19 -->
<g id="node20" class="node">
<title>19</title>
<text text-anchor="middle" x="270.25" y="-201.95" font-family="Times,serif" font-size="14.00">&lt;xml&#45;tree&gt;</text>
</g>
<!-- 7&#45;&gt;19 -->
<g id="edge19" class="edge">
<title>7&#45;&gt;19</title>
<path fill="none" stroke="black" d="M214.36,-251.26C224.12,-243.9 240.79,-231.34 253.39,-221.84"/>
<polygon fill="black" stroke="black" points="255.32,-224.76 261.2,-215.95 251.11,-219.17 255.32,-224.76"/>
</g>
<!-- 9 -->
<g id="node10" class="node">
<title>9</title>
<text text-anchor="middle" x="124.25" y="-151.7" font-family="Times,serif" font-size="14.00">&lt;xml&#45;tree&gt;</text>
</g>
<!-- 8&#45;&gt;9 -->
<g id="edge9" class="edge">
<title>8&#45;&gt;9</title>
<path fill="none" stroke="black" d="M181.02,-201.01C171.1,-193.65 154.17,-181.09 141.38,-171.59"/>
<polygon fill="black" stroke="black" points="143.54,-168.84 133.43,-165.69 139.37,-174.46 143.54,-168.84"/>
</g>
<!-- 16 -->
<g id="node17" class="node">
<title>16</title>
<text text-anchor="middle" x="205.25" y="-151.7" font-family="Times,serif" font-size="14.00">&lt;xml&#45;tree&gt;</text>
</g>
<!-- 8&#45;&gt;16 -->
<g id="edge16" class="edge">
<title>8&#45;&gt;16</title>
<path fill="none" stroke="black" d="M191.21,-201.21C193.32,-194.84 196.78,-184.43 199.73,-175.53"/>
<polygon fill="black" stroke="black" points="202.97,-176.87 202.8,-166.28 196.33,-174.67 202.97,-176.87"/>
</g>
<!-- 10 -->
<g id="node11" class="node">
<title>10</title>
<text text-anchor="middle" x="50.25" y="-101.45" font-family="Times,serif" font-size="14.00">&lt;xml&#45;tree&gt;</text>
</g>
<!-- 9&#45;&gt;10 -->
<g id="edge10" class="edge">
<title>9&#45;&gt;10</title>
<path fill="none" stroke="black" d="M114.88,-150.76C103.36,-143.25 83.55,-130.34 68.89,-120.78"/>
<polygon fill="black" stroke="black" points="70.87,-117.89 60.58,-115.36 67.05,-123.76 70.87,-117.89"/>
</g>
<!-- 13 -->
<g id="node14" class="node">
<title>13</title>
<text text-anchor="middle" x="131.25" y="-101.45" font-family="Times,serif" font-size="14.00">&lt;xml&#45;tree&gt;</text>
</g>
<!-- 9&#45;&gt;13 -->
<g id="edge13" class="edge">
<title>9&#45;&gt;13</title>
<path fill="none" stroke="black" d="M125.11,-150.96C126.01,-144.74 127.47,-134.65 128.75,-125.89"/>
<polygon fill="black" stroke="black" points="132.2,-126.49 130.17,-116.09 125.27,-125.48 132.2,-126.49"/>
</g>
<!-- 11 -->
<g id="node12" class="node">
<title>11</title>
<text text-anchor="middle" x="50.25" y="-51.2" font-family="Times,serif" font-size="14.00">&lt;text&gt;</text>
</g>
<!-- 10&#45;&gt;11 -->
<g id="edge11" class="edge">
<title>10&#45;&gt;11</title>
<path fill="none" stroke="black" d="M50.25,-100.71C50.25,-94.49 50.25,-84.4 50.25,-75.64"/>
<polygon fill="black" stroke="black" points="53.75,-75.85 50.25,-65.85 46.75,-75.85 53.75,-75.85"/>
</g>
<!-- 12 -->
<g id="node13" class="node">
<title>12</title>
<text text-anchor="middle" x="50.25" y="-0.95" font-family="Times,serif" font-size="14.00">T (84)</text>
</g>
<!-- 11&#45;&gt;12 -->
<g id="edge12" class="edge">
<title>11&#45;&gt;12</title>
<path fill="none" stroke="black" d="M50.25,-50.46C50.25,-44.24 50.25,-34.15 50.25,-25.39"/>
<polygon fill="black" stroke="black" points="53.75,-25.6 50.25,-15.6 46.75,-25.6 53.75,-25.6"/>
</g>
<!-- 14 -->
<g id="node15" class="node">
<title>14</title>
<text text-anchor="middle" x="131.25" y="-51.2" font-family="Times,serif" font-size="14.00">&lt;text&gt;</text>
</g>
<!-- 13&#45;&gt;14 -->
<g id="edge14" class="edge">
<title>13&#45;&gt;14</title>
<path fill="none" stroke="black" d="M131.25,-100.71C131.25,-94.49 131.25,-84.4 131.25,-75.64"/>
<polygon fill="black" stroke="black" points="134.75,-75.85 131.25,-65.85 127.75,-75.85 134.75,-75.85"/>
</g>
<!-- 15 -->
<g id="node16" class="node">
<title>15</title>
<text text-anchor="middle" x="131.25" y="-0.95" font-family="Times,serif" font-size="14.00">e (101)</text>
</g>
<!-- 14&#45;&gt;15 -->
<g id="edge15" class="edge">
<title>14&#45;&gt;15</title>
<path fill="none" stroke="black" d="M131.25,-50.46C131.25,-44.24 131.25,-34.15 131.25,-25.39"/>
<polygon fill="black" stroke="black" points="134.75,-25.6 131.25,-15.6 127.75,-25.6 134.75,-25.6"/>
</g>
<!-- 17 -->
<g id="node18" class="node">
<title>17</title>
<text text-anchor="middle" x="205.25" y="-101.45" font-family="Times,serif" font-size="14.00">&lt;text&gt;</text>
</g>
<!-- 16&#45;&gt;17 -->
<g id="edge17" class="edge">
<title>16&#45;&gt;17</title>
<path fill="none" stroke="black" d="M205.25,-150.96C205.25,-144.74 205.25,-134.65 205.25,-125.89"/>
<polygon fill="black" stroke="black" points="208.75,-126.1 205.25,-116.1 201.75,-126.1 208.75,-126.1"/>
</g>
<!-- 18 -->
<g id="node19" class="node">
<title>18</title>
<text text-anchor="middle" x="205.25" y="-51.2" font-family="Times,serif" font-size="14.00">x (120)</text>
</g>
<!-- 17&#45;&gt;18 -->
<g id="edge18" class="edge">
<title>17&#45;&gt;18</title>
<path fill="none" stroke="black" d="M205.25,-100.71C205.25,-94.49 205.25,-84.4 205.25,-75.64"/>
<polygon fill="black" stroke="black" points="208.75,-75.85 205.25,-65.85 201.75,-75.85 208.75,-75.85"/>
</g>
<!-- 20 -->
<g id="node21" class="node">
<title>20</title>
<text text-anchor="middle" x="273.25" y="-151.7" font-family="Times,serif" font-size="14.00">&lt;text&gt;</text>
</g>
<!-- 19&#45;&gt;20 -->
<g id="edge20" class="edge">
<title>19&#45;&gt;20</title>
<path fill="none" stroke="black" d="M270.62,-201.21C271,-194.99 271.63,-184.9 272.18,-176.14"/>
<polygon fill="black" stroke="black" points="275.66,-176.55 272.79,-166.35 268.67,-176.11 275.66,-176.55"/>
</g>
<!-- 21 -->
<g id="node22" class="node">
<title>21</title>
<text text-anchor="middle" x="273.25" y="-101.45" font-family="Times,serif" font-size="14.00">t (116)</text>
</g>
<!-- 20&#45;&gt;21 -->
<g id="edge21" class="edge">
<title>20&#45;&gt;21</title>
<path fill="none" stroke="black" d="M273.25,-150.96C273.25,-144.74 273.25,-134.65 273.25,-125.89"/>
<polygon fill="black" stroke="black" points="276.75,-126.1 273.25,-116.1 269.75,-126.1 276.75,-126.1"/>
</g>
<!-- 23 -->
<g id="node24" class="node">
<title>23</title>
<text text-anchor="middle" x="326.25" y="-201.95" font-family="Times,serif" font-size="14.00">&lt;/</text>
</g>
<!-- 22&#45;&gt;23 -->
<g id="edge23" class="edge">
<title>22&#45;&gt;23</title>
<path fill="none" stroke="black" d="M342.92,-251.46C340.41,-245.09 336.31,-234.68 332.81,-225.78"/>
<polygon fill="black" stroke="black" points="336.07,-224.52 329.15,-216.5 329.56,-227.09 336.07,-224.52"/>
</g>
<!-- 24 -->
<g id="node25" class="node">
<title>24</title>
<text text-anchor="middle" x="364.25" y="-201.95" font-family="Times,serif" font-size="14.00">&lt;id&gt;</text>
</g>
<!-- 22&#45;&gt;24 -->
<g id="edge24" class="edge">
<title>22&#45;&gt;24</title>
<path fill="none" stroke="black" d="M347.58,-251.46C350.09,-245.09 354.19,-234.68 357.69,-225.78"/>
<polygon fill="black" stroke="black" points="360.94,-227.09 361.35,-216.5 354.43,-224.52 360.94,-227.09"/>
</g>
<!-- 26 -->
<g id="node27" class="node">
<title>26</title>
<text text-anchor="middle" x="413.25" y="-201.95" font-family="Times,serif" font-size="14.00">&gt; (62)</text>
</g>
<!-- 22&#45;&gt;26 -->
<g id="edge26" class="edge">
<title>22&#45;&gt;26</title>
<path fill="none" stroke="black" d="M353.86,-251.26C364.34,-243.83 382.3,-231.09 395.73,-221.56"/>
<polygon fill="black" stroke="black" points="397.56,-224.55 403.69,-215.91 393.51,-218.84 397.56,-224.55"/>
</g>
<!-- 25 -->
<g id="node26" class="node">
<title>25</title>
<text text-anchor="middle" x="364.25" y="-151.7" font-family="Times,serif" font-size="14.00">html</text>
</g>
<!-- 24&#45;&gt;25 -->
<g id="edge25" class="edge">
<title>24&#45;&gt;25</title>
<path fill="none" stroke="black" d="M364.25,-201.21C364.25,-194.99 364.25,-184.9 364.25,-176.14"/>
<polygon fill="black" stroke="black" points="367.75,-176.35 364.25,-166.35 360.75,-176.35 367.75,-176.35"/>
</g>
</g>
</svg>