<?xml version="1.0" encoding="UTF-8" standalone="no"?>
<!DOCTYPE svg PUBLIC "-//W3C//DTD SVG 1.1//EN"
 "http://www.w3.org/Graphics/SVG/1.1/DTD/svg11.dtd">
<!-- Generated by graphviz version 12.2.1 (20241206.2353)
 -->
<!-- Pages: 1 -->
<svg width="445pt" height="374pt"
 viewBox="0.00 0.00 444.50 374.00" xmlns="http://www.w3.org/2000/svg" xmlns:xlink="http://www.w3.org/1999/xlink">
<g id="graph0" class="graph" transform="scale(1 1) rotate(0) translate(4 370)">
<polygon fill="white" stroke="none" points="-4,4 -4,-370 440.5,-370 440.5,4 -4,4"/>
<!-- 0 -->
<g id="node1" class="node">
<title>0</title>
<text text-anchor="middle" x="211.25" y="-352.7" font-family="Times,serif" font-size="14.00">&lt;start&gt;</text>
</g>
<!-- 1 -->
<g id="node2" class="node">
<title>1</title>
<text text-anchor="middle" x="211.25" y="-302.45" font-family="Times,serif" font-size="14.00">&lt;xml&#45;tree&gt;</text>
</g>
<!-- 0&#45;&gt;1 -->
<g id="edge1" class="edge">
<title>0&#45;&gt;1</title>
<path fill="none" stroke="black" d="M211.25,-351.96C211.25,-345.74 211.25,-335.65 211.25,-326.89"/>
<polygon fill="black" stroke="black" points="214.75,-327.1 211.25,-317.1 207.75,-327.1 214.75,-327.1"/>
</g>
<!-- 2 -->
<g id="node3" class="node">
<title>2</title>
<text text-anchor="middle" x="99.25" y="-252.2" font-family="Times,serif" font-size="14.00">&lt;xml&#45;open&#45;tag&gt;</text>
</g>
<!-- 1&#45;&gt;2 -->
<g id="edge2" class="edge">
<title>1&#45;&gt;2</title>
<path fill="none" stroke="black" d="M197.07,-301.51C178.64,-293.57 146.17,-279.59 123.72,-269.92"/>
<polygon fill="black" stroke="black" points="125.28,-266.78 114.71,-266.04 122.51,-273.21 125.28,-266.78"/>
</g>
<!-- 7 -->
<g id="node8" class="node">
<title>7</title>
<text text-anchor="middle" x="211.25" y="-252.2" font-family="Times,serif" font-size="14.00">&lt;xml&#45;tree&gt;</text>
</g>
<!-- 1&#45;&gt;7 -->
<g id="edge7" class="edge">
<title>1&#45;&gt;7</title>
<path fill="none" stroke="black" d="M211.25,-301.71C211.25,-295.49 211.25,-285.4 211.25,-276.64"/>
<polygon fill="black" stroke="black" points="214.75,-276.85 211.25,-266.85 207.75,-276.85 214.75,-276.85"/>
</g>
<!-- 22 -->
<g id="node23" class="node">
<title>22</title>
<text text-anchor="middle" x="351.25" y="-252.2" font-family="Times,serif" font-size="14.00">&lt;xml&#45;close&#45;tag&gt;</text>
</g>
<!-- 1&#45;&gt;22 -->
<g id="edge22" class="edge">
<title>1&#45;&gt;22</title>
<path fill="none" stroke="black" d="M228.98,-301.51C252.65,-293.36 294.84,-278.82 322.94,-269.13"/>
<polygon fill="black" stroke="black" points="323.92,-272.5 332.23,-265.93 321.64,-265.88 323.92,-272.5"/>
</g>
<!-- 3 -->
<g id="node4" class="node">
<title>3</title>
<text text-anchor="middle" x="17.25" y="-201.95" font-family="Times,serif" font-size="14.00">&lt; (60)</text>
</g>
<!-- 2&#45;&gt;3 -->
<g id="edge3" class="edge">
<title>2&#45;&gt;3</title>
<path fill="none" stroke="black" d="M88.86,-251.26C75.93,-243.65 53.54,-230.48 37.23,-220.88"/>
<polygon fill="black" stroke="black" points="39.25,-218.01 28.86,-215.95 35.7,-224.04 39.25,-218.01"/>
</g>
<!-- 4 -->
<g id="node5" class="node">
<title>4</title>
<text text-anchor="middle" x="66.25" y="-201.95" font-family="Times,serif" font-size="14.00">&lt;id&gt;</text>
</g>
<!-- 2&#45;&gt;4 -->
<g id="edge4" class="edge">
<title>2&#45;&gt;4</title>
<path fill="none" stroke="black" d="M95.2,-251.46C90.65,-244.8 83.08,-233.73 76.81,-224.57"/>
<polygon fill="black" stroke="black" points="79.72,-222.62 71.18,-216.34 73.94,-226.57 79.72,-222.62"/>
</g>
<!-- 6 -->
<g id="node7" class="node">
<title>6</title>
<text text-anchor="middle" x="115.25" y="-201.95" font-family="Times,serif" font-size="14.00">&gt; (62)</text>
</g>
<!-- 2&#45;&gt;6 -->
<g id="edge6" class="edge">
<title>2&#45;&gt;6</title>
<path fill="none" stroke="black" d="M101.21,-251.46C103.32,-245.09 106.78,-234.68 109.73,-225.78"/>
<polygon fill="black" stroke="black" points="112.97,-227.12 112.8,-216.53 106.33,-224.92 112.97,-227.12"/>
</g>
<!-- 5 -->
<g id="node6" class="node">
<title>5</title>
<text text-anchor="middle" x="58.25" y="-151.7" font-family="Times,serif" font-size="14.00">html</text>
</g>
<!-- 4&#45;&gt;5 -->
<g id="edge5" class="edge">
<title>4&#45;&gt;5</title>
<path fill="none" stroke="black" d="M65.27,-201.21C64.24,-194.99 62.57,-184.9 61.11,-176.14"/>
<polygon fill="black" stroke="black" points="64.58,-175.63 59.49,-166.33 57.67,-176.77 64.58,-175.63"/>
</g>
<!-- 8 -->
<g id="node9" class="node">
<title>8</title>
<text text-anchor="middle" x="195.25" y="-201.95" font-family="Times,serif" font-size="14.00">&lt;xml&#45;tree&gt;</text>
</g>
<!-- 7&#45;&gt;8 -->
<g id="edge8" class="edge">
<title>7&#45;&gt;8</title>
<path fill="none" stroke="black" d="M209.29,-251.46C207.18,-245.09 203.72,-234.68 200.77,-225.78"/>
<polygon fill="black" stroke="black" points="204.17,-224.92 197.7,-216.53 197.53,-227.12 204.17,-224.92"/>
</g>
<!-- 19 -->
<g id="node20" class="node">
<title>19</title>
<text text-anchor="middle" x="276.25" y="-201.95" font-family="Times,serif" font-size="14.00">&lt;xml&#45;tree&gt;</text>
</g>
<!-- 7&#45;&gt;19 -->
<g id="edge19" class="edge">
<title>7&#45;&gt;19</title>
<path fill="none" stroke="black" d="M219.48,-251.26C229.4,-243.9 246.33,-231.34 259.12,-221.84"/>
<polygon fill="black" stroke="black" points="261.13,-224.71 267.07,-215.94 256.96,-219.09 261.13,-224.71"/>
</g>
<!-- 9 -->
<g id="node10" class="node">
<title>9</title>
<text text-anchor="middle" x="120.25" y="-151.7" font-family="Times,serif" font-size="14.00">&lt;xml&#45;tree&gt;</text>
</g>
<!-- 8&#45;&gt;9 -->
<g id="edge9" class="edge">
<title>8&#45;&gt;9</title>
<path fill="none" stroke="black" d="M185.75,-201.01C173.97,-193.43 153.61,-180.33 138.71,-170.75"/>
<polygon fill="black" stroke="black" points="141.01,-168.07 130.71,-165.6 137.23,-173.96 141.01,-168.07"/>
</g>
<!-- 12 -->
<g id="node13" class="node">
<title>12</title>
<text text-anchor="middle" x="201.25" y="-151.7" font-family="Times,serif" font-size="14.00">&lt;xml&#45;tree&gt;</text>
</g>
<!-- 8&#45;&gt;12 -->
<g id="edge12" class="edge">
<title>8&#45;&gt;12</title>
<path fill="none" stroke="black" d="M195.99,-201.21C196.76,-194.99 198.01,-184.9 199.1,-176.14"/>
<polygon fill="black" stroke="black" points="202.56,-176.7 200.32,-166.34 195.61,-175.83 202.56,-176.7"/>
</g>
<!-- 10 -->
<g id="node11" class="node">
<title>10</title>
<text text-anchor="middle" x="100.25" y="-101.45" font-family="Times,serif" font-size="14.00">&lt;text&gt;</text>
</g>
<!-- 9&#45;&gt;10 -->
<g id="edge10" class="edge">
<title>9&#45;&gt;10</title>
<path fill="none" stroke="black" d="M117.8,-150.96C115.13,-144.52 110.74,-133.94 107.03,-124.97"/>
<polygon fill="black" stroke="black" points="110.36,-123.89 103.3,-115.99 103.9,-126.57 110.36,-123.89"/>
</g>
<!-- 11 -->
<g id="node12" class="node">
<title>11</title>
<text text-anchor="middle" x="100.25" y="-51.2" font-family="Times,serif" font-size="14.00">T (84)</text>
</g>
<!-- 10&#45;&gt;11 -->
<g id="edge11" class="edge">
<title>10&#45;&gt;11</title>
<path fill="none" stroke="black" d="M100.25,-100.71C100.25,-94.49 100.25,-84.4 100.25,-75.64"/>
<polygon fill="black" stroke="black" points="103.75,-75.85 100.25,-65.85 96.75,-75.85 103.75,-75.85"/>
</g>
<!-- 13 -->
<g id="node14" class="node">
<title>13</title>
<text text-anchor="middle" x="168.25" y="-101.45" font-family="Times,serif" font-size="14.00">&lt;xml&#45;tree&gt;</text>
</g>
<!-- 12&#45;&gt;13 -->
<g id="edge13" class="edge">
<title>12&#45;&gt;13</title>
<path fill="none" stroke="black" d="M197.2,-150.96C192.65,-144.3 185.08,-133.23 178.81,-124.07"/>
<polygon fill="black" stroke="black" points="181.72,-122.12 173.18,-115.84 175.94,-126.07 181.72,-122.12"/>
</g>
<!-- 16 -->
<g id="node17" class="node">
<title>16</title>
<text text-anchor="middle" x="249.25" y="-101.45" font-family="Times,serif" font-size="14.00">&lt;xml&#45;tree&gt;</text>
</g>
<!-- 12&#45;&gt;16 -->
<g id="edge16" class="edge">
<title>12&#45;&gt;16</title>
<path fill="none" stroke="black" d="M207.14,-150.96C214.12,-143.94 225.99,-132.01 235.35,-122.6"/>
<polygon fill="black" stroke="black" points="237.68,-125.22 242.25,-115.66 232.71,-120.28 237.68,-125.22"/>
</g>
<!-- 14 -->
<g id="node15" class="node">
<title>14</title>
<text text-anchor="middle" x="168.25" y="-51.2" font-family="Times,serif" font-size="14.00">&lt;text&gt;</text>
</g>
<!-- 13&#45;&gt;14 -->
<g id="edge14" class="edge">
<title>13&#45;&gt;14</title>
<path fill="none" stroke="black" d="M168.25,-100.71C168.25,-94.49 168.25,-84.4 168.25,-75.64"/>
<polygon fill="black" stroke="black" points="171.75,-75.85 168.25,-65.85 164.75,-75.85 171.75,-75.85"/>
</g>
<!-- 15 -->
<g id="node16" class="node">
<title>15</title>
<text text-anchor="middle" x="168.25" y="-0.95" font-family="Times,serif" font-size="14.00">e (101)</text>
</g>
<!-- 14&#45;&gt;15 -->
<g id="edge15" class="edge">
<title>14&#45;&gt;15</title>
<path fill="none" stroke="black" d="M168.25,-50.46C168.25,-44.24 168.25,-34.15 168.25,-25.39"/>
<polygon fill="black" stroke="black" points="171.75,-25.6 168.25,-15.6 164.75,-25.6 171.75,-25.6"/>
</g>
<!-- 17 -->
<g id="node18" class="node">
<title>17</title>
<text text-anchor="middle" x="249.25" y="-51.2" font-family="Times,serif" font-size="14.00">&lt;text&gt;</text>
</g>
<!-- 16&#45;&gt;17 -->
<g id="edge17" class="edge">
<title>16&#45;&gt;17</title>
<path fill="none" stroke="black" d="M249.25,-100.71C249.25,-94.49 249.25,-84.4 249.25,-75.64"/>
<polygon fill="black" stroke="black" points="252.75,-75.85 249.25,-65.85 245.75,-75.85 252.75,-75.85"/>
</g>
<!-- 18 -->
<g id="node19" class="node">
<title>18</title>
<text text-anchor="middle" x="249.25" y="-0.95" font-family="Times,serif" font-size="14.00">x (120)</text>
</g>
<!-- 17&#45;&gt;18 -->
<g id="edge18" class="edge">
<title>17&#45;&gt;18</title>
<path fill="none" stroke="black" d="M249.25,-50.46C249.25,-44.24 249.25,-34.15 249.25,-25.39"/>
<polygon fill="black" stroke="black" points="252.75,-25.6 249.25,-15.6 245.75,-25.6 252.75,-25.6"/>
</g>
<!-- 20 -->
<g id="node21" class="node">
<title>20</title>
<text text-anchor="middle" x="298.25" y="-151.7" font-family="Times,serif" font-size="14.00">&lt;text&gt;</text>
</g>
<!-- 19&#45;&gt;20 -->
<g id="edge20" class="edge">
<title>19&#45;&gt;20</title>
<path fill="none" stroke="black" d="M278.95,-201.21C281.88,-194.77 286.71,-184.19 290.8,-175.22"/>
<polygon fill="black" stroke="black" points="293.94,-176.77 294.9,-166.22 287.57,-173.86 293.94,-176.77"/>
</g>
<!-- 21 -->
<g id="node22" class="node">
<title>21</title>
<text text-anchor="middle" x="317.25" y="-101.45" font-family="Times,serif" font-size="14.00">t (116)</text>
</g>
<!-- 20&#45;&gt;21 -->
<g id="edge21" class="edge">
<title>20&#45;&gt;21</title>
<path fill="none" stroke="black" d="M300.58,-150.96C303.09,-144.59 307.19,-134.18 310.69,-125.28"/>
<polygon fill="black" stroke="black" points="313.94,-126.59 314.35,-116 307.43,-124.02 313.94,-126.59"/>
</g>
<!-- 23 -->
<g id="node24" class="node">
<title>23</title>
<text text-anchor="middle" x="332.25" y="-201.95" font-family="Times,serif" font-size="14.00">&lt;/</text>
</g>
<!-- 22&#45;&gt;23 -->
<g id="edge23" class="edge">
<title>22&#45;&gt;23</title>
<path fill="none" stroke="black" d="M348.92,-251.46C346.41,-245.09 342.31,-234.68 338.81,-225.78"/>
<polygon fill="black" stroke="black" points="342.07,-224.52 335.15,-216.5 335.56,-227.09 342.07,-224.52"/>
</g>
<!-- 24 -->
<g id="node25" class="node">
<title>24</title>
<text text-anchor="middle" x="370.25" y="-201.95" font-family="Times,serif" font-size="14.00">&lt;id&gt;</text>
</g>
<!-- 22&#45;&gt;24 -->
<g id="edge24" class="edge">
<title>22&#45;&gt;24</title>
<path fill="none" stroke="black" d="M353.58,-251.46C356.09,-245.09 360.19,-234.68 363.69,-225.78"/>
<polygon fill="black" stroke="black" points="366.94,-227.09 367.35,-216.5 360.43,-224.52 366.94,-227.09"/>
</g>
<!-- 26 -->
<g id="node27" class="node">
<title>26</title>
<text text-anchor="middle" x="419.25" y="-201.95" font-family="Times,serif" font-size="14.00">&gt; (62)</text>
</g>
<!-- 22&#45;&gt;26 -->
<g id="edge26" class="edge">
<title>22&#45;&gt;26</title>
<path fill="none" stroke="black" d="M359.86,-251.26C370.34,-243.83 388.3,-231.09 401.73,-221.56"/>
<polygon fill="black" stroke="black" points="403.56,-224.55 409.69,-215.91 399.51,-218.84 403.56,-224.55"/>
</g>
<!-- 25 -->
<g id="node26" class="node">
<title>25</title>
<text text-anchor="middle" x="370.25" y="-151.7" font-family="Times,serif" font-size="14.00">html</text>
</g>
<!-- 24&#45;&gt;25 -->
<g id="edge25" class="edge">
<title>24&#45;&gt;25</title>
<path fill="none" stroke="black" d="M370.25,-201.21C370.25,-194.99 370.25,-184.9 370.25,-176.14"/>
<polygon fill="black" stroke="black" points="373.75,-176.35 370.25,-166.35 366.75,-176.35 373.75,-176.35"/>
</g>
</g>
</svg>