<?xml version="1.0" encoding="UTF-8" standalone="no"?>
<!DOCTYPE svg PUBLIC "-//W3C//DTD SVG 1.1//EN"
 "http://www.w3.org/Graphics/SVG/1.1/DTD/svg11.dtd">
<!-- Generated by graphviz version 12.2.1 (20241206.2353)
 -->
<!-- Pages: 1 -->
<svg width="466pt" height="925pt"
 viewBox="0.00 0.00 465.62 924.50" xmlns="http://www.w3.org/2000/svg" xmlns:xlink="http://www.w3.org/1999/xlink">
<g id="graph0" class="graph" transform="scale(1 1) rotate(0) translate(4 920.5)">
<polygon fill="white" stroke="none" points="-4,4 -4,-920.5 461.62,-920.5 461.62,4 -4,4"/>
<!-- 1 -->
<g id="node1" class="node">
<title>1</title>
<ellipse fill="none" stroke="black" cx="219.75" cy="-894.5" rx="110.35" ry="18"/>
<ellipse fill="none" stroke="black" cx="219.75" cy="-894.5" rx="114.35" ry="22"/>
<text text-anchor="middle" x="219.75" y="-888.33" font-family="Times,serif" font-size="14.00">1: enter: quad_solver(a, b, c)</text>
</g>
<!-- 3 -->
<g id="node5" class="node">
<title>3</title>
<polygon fill="none" stroke="black" points="320.38,-835.5 119.12,-835.5 119.12,-799.5 320.38,-799.5 320.38,-835.5"/>
<text text-anchor="middle" x="219.75" y="-811.33" font-family="Times,serif" font-size="14.00">2: discriminant = b ^ 2 &#45; 4 * a * c</text>
</g>
<!-- 1&#45;&gt;3 -->
<g id="edge3" class="edge">
<title>1&#45;&gt;3</title>
<path fill="none" stroke="black" d="M219.75,-872.21C219.75,-864.32 219.75,-855.25 219.75,-846.83"/>
<polygon fill="black" stroke="black" points="223.25,-847.07 219.75,-837.07 216.25,-847.07 223.25,-847.07"/>
</g>
<!-- 2 -->
<g id="node2" class="node">
<title>2</title>
<ellipse fill="none" stroke="black" cx="203.75" cy="-22" rx="106.06" ry="18"/>
<ellipse fill="none" stroke="black" cx="203.75" cy="-22" rx="110.06" ry="22"/>
<text text-anchor="middle" x="203.75" y="-15.82" font-family="Times,serif" font-size="14.00">1: exit: quad_solver(a, b, c)</text>
</g>
<!-- 15 -->
<g id="node3" class="node">
<title>15</title>
<polygon fill="none" stroke="black" points="181.75,-117 69.75,-117 69.75,-81 181.75,-81 181.75,-117"/>
<text text-anchor="middle" x="125.75" y="-92.83" font-family="Times,serif" font-size="14.00">15: return (r1, r2)</text>
</g>
<!-- 15&#45;&gt;2 -->
<g id="edge1" class="edge">
<title>15&#45;&gt;2</title>
<path fill="none" stroke="black" d="M143.84,-80.6C152.7,-72.09 163.61,-61.6 173.67,-51.92"/>
<polygon fill="black" stroke="black" points="175.99,-54.54 180.78,-45.09 171.14,-49.5 175.99,-54.54"/>
</g>
<!-- 16 -->
<g id="node4" class="node">
<title>16</title>
<polygon fill="none" stroke="black" points="365.75,-117 199.75,-117 199.75,-81 365.75,-81 365.75,-117"/>
<text text-anchor="middle" x="282.75" y="-92.83" font-family="Times,serif" font-size="14.00">16: return ((r1, i1), (r2, i2))</text>
</g>
<!-- 16&#45;&gt;2 -->
<g id="edge2" class="edge">
<title>16&#45;&gt;2</title>
<path fill="none" stroke="black" d="M264.43,-80.6C255.45,-72.09 244.41,-61.6 234.21,-51.92"/>
<polygon fill="black" stroke="black" points="236.67,-49.43 227.01,-45.08 231.85,-54.51 236.67,-49.43"/>
</g>
<!-- 4 -->
<g id="node6" class="node">
<title>4</title>
<polygon fill="none" stroke="black" points="272.75,-762.5 166.75,-762.5 166.75,-726.5 272.75,-726.5 272.75,-762.5"/>
<text text-anchor="middle" x="219.75" y="-738.33" font-family="Times,serif" font-size="14.00">3: r1, r2 = (0, 0)</text>
</g>
<!-- 3&#45;&gt;4 -->
<g id="edge4" class="edge">
<title>3&#45;&gt;4</title>
<path fill="none" stroke="black" d="M219.75,-799.31C219.75,-791.73 219.75,-782.6 219.75,-774.04"/>
<polygon fill="black" stroke="black" points="223.25,-774.04 219.75,-764.04 216.25,-774.04 223.25,-774.04"/>
</g>
<!-- 5 -->
<g id="node7" class="node">
<title>5</title>
<polygon fill="none" stroke="black" points="272,-689.5 167.5,-689.5 167.5,-653.5 272,-653.5 272,-689.5"/>
<text text-anchor="middle" x="219.75" y="-665.33" font-family="Times,serif" font-size="14.00">4: i1, i2 = (0, 0)</text>
</g>
<!-- 4&#45;&gt;5 -->
<g id="edge5" class="edge">
<title>4&#45;&gt;5</title>
<path fill="none" stroke="black" d="M219.75,-726.31C219.75,-718.73 219.75,-709.6 219.75,-701.04"/>
<polygon fill="black" stroke="black" points="223.25,-701.04 219.75,-691.04 216.25,-701.04 223.25,-701.04"/>
</g>
<!-- 6 -->
<g id="node8" class="node">
<title>6</title>
<polygon fill="none" stroke="black" points="219.75,-616.5 89.33,-598.5 219.75,-580.5 350.17,-598.5 219.75,-616.5"/>
<text text-anchor="middle" x="219.75" y="-592.33" font-family="Times,serif" font-size="14.00">5: if: discriminant &gt;= 0</text>
</g>
<!-- 5&#45;&gt;6 -->
<g id="edge6" class="edge">
<title>5&#45;&gt;6</title>
<path fill="none" stroke="black" d="M219.75,-653.31C219.75,-645.73 219.75,-636.6 219.75,-628.04"/>
<polygon fill="black" stroke="black" points="223.25,-628.04 219.75,-618.04 216.25,-628.04 223.25,-628.04"/>
</g>
<!-- 7 -->
<g id="node9" class="node">
<title>7</title>
<polygon fill="none" stroke="black" points="203.5,-530.25 0,-530.25 0,-494.25 203.5,-494.25 203.5,-530.25"/>
<text text-anchor="middle" x="101.75" y="-506.07" font-family="Times,serif" font-size="14.00">6: droot = math.sqrt(discriminant)</text>
</g>
<!-- 6&#45;&gt;7 -->
<g id="edge7" class="edge">
<title>6&#45;&gt;7</title>
<path fill="none" stroke="blue" d="M199.47,-583.02C181.87,-570.45 156.04,-552.01 135.35,-537.24"/>
<polygon fill="blue" stroke="blue" points="137.66,-534.59 127.49,-531.63 133.6,-540.29 137.66,-534.59"/>
<text text-anchor="middle" x="171.94" y="-549.2" font-family="Times,serif" font-size="14.00">T</text>
</g>
<!-- 10 -->
<g id="node12" class="node">
<title>10</title>
<polygon fill="none" stroke="black" points="457.62,-530.25 221.88,-530.25 221.88,-494.25 457.62,-494.25 457.62,-530.25"/>
<text text-anchor="middle" x="339.75" y="-506.07" font-family="Times,serif" font-size="14.00">10: droot = math.sqrt(&#45;1 * discriminant)</text>
</g>
<!-- 6&#45;&gt;10 -->
<g id="edge10" class="edge">
<title>6&#45;&gt;10</title>
<path fill="none" stroke="red" d="M240.38,-583.02C258.28,-570.45 284.54,-552.01 305.58,-537.24"/>
<polygon fill="red" stroke="red" points="307.41,-540.23 313.59,-531.62 303.39,-534.5 307.41,-540.23"/>
<text text-anchor="middle" x="290.68" y="-549.2" font-family="Times,serif" font-size="14.00">F</text>
</g>
<!-- 8 -->
<g id="node10" class="node">
<title>8</title>
<polygon fill="none" stroke="black" points="226.25,-457.25 57.25,-457.25 57.25,-421.25 226.25,-421.25 226.25,-457.25"/>
<text text-anchor="middle" x="141.75" y="-433.07" font-family="Times,serif" font-size="14.00">7: r1 = (&#45;b + droot) / (2 * a)</text>
</g>
<!-- 7&#45;&gt;8 -->
<g id="edge8" class="edge">
<title>7&#45;&gt;8</title>
<path fill="none" stroke="black" d="M111.43,-494.06C116,-485.95 121.56,-476.09 126.66,-467.03"/>
<polygon fill="black" stroke="black" points="129.55,-469.03 131.41,-458.6 123.46,-465.59 129.55,-469.03"/>
</g>
<!-- 9 -->
<g id="node11" class="node">
<title>9</title>
<polygon fill="none" stroke="black" points="245.38,-330.25 80.12,-330.25 80.12,-294.25 245.38,-294.25 245.38,-330.25"/>
<text text-anchor="middle" x="162.75" y="-306.07" font-family="Times,serif" font-size="14.00">8: r2 = (&#45;b &#45; droot) / (2 * a)</text>
</g>
<!-- 8&#45;&gt;9 -->
<g id="edge9" class="edge">
<title>8&#45;&gt;9</title>
<path fill="none" stroke="black" d="M144.67,-420.87C148.12,-400.35 153.9,-365.92 158,-341.54"/>
<polygon fill="black" stroke="black" points="161.4,-342.42 159.6,-331.98 154.5,-341.26 161.4,-342.42"/>
</g>
<!-- 14 -->
<g id="node16" class="node">
<title>14</title>
<polygon fill="none" stroke="black" points="203.75,-203.25 57.81,-185.25 203.75,-167.25 349.69,-185.25 203.75,-203.25"/>
<text text-anchor="middle" x="203.75" y="-179.07" font-family="Times,serif" font-size="14.00">14: if: i1 == 0 and i2 == 0</text>
</g>
<!-- 9&#45;&gt;14 -->
<g id="edge14" class="edge">
<title>9&#45;&gt;14</title>
<path fill="none" stroke="black" d="M168.45,-293.87C175.29,-273.02 186.83,-237.83 194.85,-213.39"/>
<polygon fill="black" stroke="black" points="198.1,-214.72 197.89,-204.13 191.44,-212.54 198.1,-214.72"/>
</g>
<!-- 11 -->
<g id="node13" class="node">
<title>11</title>
<polygon fill="none" stroke="black" points="414.62,-457.25 250.88,-457.25 250.88,-421.25 414.62,-421.25 414.62,-457.25"/>
<text text-anchor="middle" x="332.75" y="-433.07" font-family="Times,serif" font-size="14.00">11: droot_ = droot / (2 * a)</text>
</g>
<!-- 10&#45;&gt;11 -->
<g id="edge11" class="edge">
<title>10&#45;&gt;11</title>
<path fill="none" stroke="black" d="M338.06,-494.06C337.3,-486.39 336.39,-477.14 335.53,-468.49"/>
<polygon fill="black" stroke="black" points="339.04,-468.39 334.58,-458.79 332.08,-469.08 339.04,-468.39"/>
</g>
<!-- 12 -->
<g id="node14" class="node">
<title>12</title>
<polygon fill="none" stroke="black" points="426.88,-384.25 234.62,-384.25 234.62,-348.25 426.88,-348.25 426.88,-384.25"/>
<text text-anchor="middle" x="330.75" y="-360.07" font-family="Times,serif" font-size="14.00">12: r1, i1 = (&#45;b / (2 * a), droot_)</text>
</g>
<!-- 11&#45;&gt;12 -->
<g id="edge12" class="edge">
<title>11&#45;&gt;12</title>
<path fill="none" stroke="black" d="M332.27,-421.06C332.05,-413.39 331.79,-404.14 331.55,-395.49"/>
<polygon fill="black" stroke="black" points="335.05,-395.69 331.27,-385.79 328.06,-395.89 335.05,-395.69"/>
</g>
<!-- 13 -->
<g id="node15" class="node">
<title>13</title>
<polygon fill="none" stroke="black" points="420.12,-276.25 223.38,-276.25 223.38,-240.25 420.12,-240.25 420.12,-276.25"/>
<text text-anchor="middle" x="321.75" y="-252.07" font-family="Times,serif" font-size="14.00">13: r2, i2 = (&#45;b / (2 * a), &#45;droot_)</text>
</g>
<!-- 12&#45;&gt;13 -->
<g id="edge13" class="edge">
<title>12&#45;&gt;13</title>
<path fill="none" stroke="black" d="M329.3,-348.22C327.93,-332.01 325.83,-307.31 324.19,-288.04"/>
<polygon fill="black" stroke="black" points="327.68,-287.77 323.35,-278.1 320.71,-288.36 327.68,-287.77"/>
</g>
<!-- 13&#45;&gt;14 -->
<g id="edge15" class="edge">
<title>13&#45;&gt;14</title>
<path fill="none" stroke="black" d="M292.88,-239.88C276.12,-229.79 254.91,-217.03 237.39,-206.49"/>
<polygon fill="black" stroke="black" points="239.23,-203.51 228.85,-201.35 235.62,-209.51 239.23,-203.51"/>
</g>
<!-- 14&#45;&gt;15 -->
<g id="edge16" class="edge">
<title>14&#45;&gt;15</title>
<path fill="none" stroke="blue" d="M189.44,-168.8C178.3,-156.76 162.58,-139.78 149.55,-125.71"/>
<polygon fill="blue" stroke="blue" points="152.24,-123.46 142.88,-118.5 147.1,-128.22 152.24,-123.46"/>
<text text-anchor="middle" x="173.55" y="-135.95" font-family="Times,serif" font-size="14.00">T</text>
</g>
<!-- 14&#45;&gt;16 -->
<g id="edge17" class="edge">
<title>14&#45;&gt;16</title>
<path fill="none" stroke="red" d="M218.24,-168.8C229.53,-156.76 245.44,-139.78 258.64,-125.71"/>
<polygon fill="red" stroke="red" points="261.12,-128.18 265.41,-118.49 256.02,-123.39 261.12,-128.18"/>
<text text-anchor="middle" x="251.73" y="-135.95" font-family="Times,serif" font-size="14.00">F</text>
</g>
</g>
</svg>