<?xml version="1.0" encoding="UTF-8" standalone="no"?>
<!DOCTYPE svg PUBLIC "-//W3C//DTD SVG 1.1//EN"
 "http://www.w3.org/Graphics/SVG/1.1/DTD/svg11.dtd">
<!-- Generated by graphviz version 12.2.1 (20241206.2353)
 -->
<!-- Pages: 1 -->
<svg width="282pt" height="671pt"
 viewBox="0.00 0.00 281.77 670.50" xmlns="http://www.w3.org/2000/svg" xmlns:xlink="http://www.w3.org/1999/xlink">
<g id="graph0" class="graph" transform="scale(1 1) rotate(0) translate(4 666.5)">
<polygon fill="white" stroke="none" points="-4,4 -4,-666.5 277.77,-666.5 277.77,4 -4,4"/>
<!-- 1 -->
<g id="node1" class="node">
<title>1</title>
<ellipse fill="none" stroke="black" cx="169.9" cy="-640.5" rx="72.19" ry="18"/>
<ellipse fill="none" stroke="black" cx="169.9" cy="-640.5" rx="76.19" ry="22"/>
<text text-anchor="middle" x="169.9" y="-634.33" font-family="Times,serif" font-size="14.00">1: enter: gcd(a, b)</text>
</g>
<!-- 3 -->
<g id="node4" class="node">
<title>3</title>
<polygon fill="none" stroke="black" points="169.9,-581.5 102.88,-563.5 169.9,-545.5 236.91,-563.5 169.9,-581.5"/>
<text text-anchor="middle" x="169.9" y="-557.33" font-family="Times,serif" font-size="14.00">2: if: a &lt; b</text>
</g>
<!-- 1&#45;&gt;3 -->
<g id="edge2" class="edge">
<title>1&#45;&gt;3</title>
<path fill="none" stroke="black" d="M169.9,-618.21C169.9,-610.32 169.9,-601.25 169.9,-592.83"/>
<polygon fill="black" stroke="black" points="173.4,-593.07 169.9,-583.07 166.4,-593.07 173.4,-593.07"/>
</g>
<!-- 2 -->
<g id="node2" class="node">
<title>2</title>
<ellipse fill="none" stroke="black" cx="71.9" cy="-95" rx="67.9" ry="18"/>
<ellipse fill="none" stroke="black" cx="71.9" cy="-95" rx="71.9" ry="22"/>
<text text-anchor="middle" x="71.9" y="-88.83" font-family="Times,serif" font-size="14.00">1: exit: gcd(a, b)</text>
</g>
<!-- 11 -->
<g id="node3" class="node">
<title>11</title>
<polygon fill="none" stroke="black" points="111.4,-190 32.4,-190 32.4,-154 111.4,-154 111.4,-190"/>
<text text-anchor="middle" x="71.9" y="-165.82" font-family="Times,serif" font-size="14.00">12: return a</text>
</g>
<!-- 11&#45;&gt;2 -->
<g id="edge1" class="edge">
<title>11&#45;&gt;2</title>
<path fill="none" stroke="black" d="M71.9,-153.6C71.9,-146.17 71.9,-137.23 71.9,-128.64"/>
<polygon fill="black" stroke="black" points="75.4,-128.83 71.9,-118.83 68.4,-128.83 75.4,-128.83"/>
</g>
<!-- 4 -->
<g id="node5" class="node">
<title>4</title>
<ellipse fill="none" stroke="black" cx="130.9" cy="-477.25" rx="50.72" ry="18"/>
<text text-anchor="middle" x="130.9" y="-471.07" font-family="Times,serif" font-size="14.00">3: c: int = a</text>
</g>
<!-- 3&#45;&gt;4 -->
<g id="edge3" class="edge">
<title>3&#45;&gt;4</title>
<path fill="none" stroke="blue" d="M162.74,-547.05C157.4,-535.5 149.95,-519.42 143.6,-505.7"/>
<polygon fill="blue" stroke="blue" points="146.82,-504.32 139.44,-496.72 140.47,-507.26 146.82,-504.32"/>
<text text-anchor="middle" x="156.86" y="-514.2" font-family="Times,serif" font-size="14.00">T</text>
</g>
<!-- 7 -->
<g id="node8" class="node">
<title>7</title>
<polygon fill="none" stroke="black" points="179.9,-276.25 88.6,-258.25 179.9,-240.25 271.19,-258.25 179.9,-276.25"/>
<text text-anchor="middle" x="179.9" y="-252.07" font-family="Times,serif" font-size="14.00">7: while: b != 0</text>
</g>
<!-- 3&#45;&gt;7 -->
<g id="edge7" class="edge">
<title>3&#45;&gt;7</title>
<path fill="none" stroke="red" d="M181.47,-548.26C193.28,-532.24 209.9,-504.97 209.9,-478.25 209.9,-478.25 209.9,-478.25 209.9,-330.25 209.9,-314.09 203.22,-297.39 196.17,-284.24"/>
<polygon fill="red" stroke="red" points="199.35,-282.75 191.32,-275.85 193.3,-286.26 199.35,-282.75"/>
<text text-anchor="middle" x="213.65" y="-398.07" font-family="Times,serif" font-size="14.00">F</text>
</g>
<!-- 5 -->
<g id="node6" class="node">
<title>5</title>
<polygon fill="none" stroke="black" points="171.27,-422.25 112.52,-422.25 112.52,-386.25 171.27,-386.25 171.27,-422.25"/>
<text text-anchor="middle" x="141.9" y="-398.07" font-family="Times,serif" font-size="14.00">4: a = b</text>
</g>
<!-- 4&#45;&gt;5 -->
<g id="edge4" class="edge">
<title>4&#45;&gt;5</title>
<path fill="none" stroke="black" d="M133.56,-459.06C134.75,-451.39 136.18,-442.14 137.52,-433.49"/>
<polygon fill="black" stroke="black" points="140.95,-434.19 139.03,-423.77 134.04,-433.12 140.95,-434.19"/>
</g>
<!-- 6 -->
<g id="node7" class="node">
<title>6</title>
<polygon fill="none" stroke="black" points="179.27,-349.25 120.52,-349.25 120.52,-313.25 179.27,-313.25 179.27,-349.25"/>
<text text-anchor="middle" x="149.9" y="-325.07" font-family="Times,serif" font-size="14.00">5: b = c</text>
</g>
<!-- 5&#45;&gt;6 -->
<g id="edge5" class="edge">
<title>5&#45;&gt;6</title>
<path fill="none" stroke="black" d="M143.83,-386.06C144.7,-378.39 145.74,-369.14 146.71,-360.49"/>
<polygon fill="black" stroke="black" points="150.17,-361.11 147.81,-350.78 143.21,-360.33 150.17,-361.11"/>
</g>
<!-- 6&#45;&gt;7 -->
<g id="edge6" class="edge">
<title>6&#45;&gt;7</title>
<path fill="none" stroke="black" d="M157.16,-313.06C160.61,-304.89 164.81,-294.94 168.66,-285.83"/>
<polygon fill="black" stroke="black" points="171.85,-287.27 172.52,-276.7 165.41,-284.55 171.85,-287.27"/>
</g>
<!-- 7&#45;&gt;11 -->
<g id="edge12" class="edge">
<title>7&#45;&gt;11</title>
<path fill="none" stroke="red" d="M162.06,-243.34C146.1,-230.89 122.34,-212.35 103.21,-197.43"/>
<polygon fill="red" stroke="red" points="105.48,-194.76 95.45,-191.37 101.18,-200.28 105.48,-194.76"/>
<text text-anchor="middle" x="136.11" y="-208.95" font-family="Times,serif" font-size="14.00">F</text>
</g>
<!-- 8 -->
<g id="node10" class="node">
<title>8</title>
<ellipse fill="none" stroke="black" cx="179.9" cy="-172" rx="50.72" ry="18"/>
<text text-anchor="middle" x="179.9" y="-165.82" font-family="Times,serif" font-size="14.00">8: c: int = a</text>
</g>
<!-- 7&#45;&gt;8 -->
<g id="edge9" class="edge">
<title>7&#45;&gt;8</title>
<path fill="none" stroke="blue" d="M179.9,-239.79C179.9,-228.84 179.9,-214.44 179.9,-201.82"/>
<polygon fill="blue" stroke="blue" points="183.4,-201.95 179.9,-191.95 176.4,-201.95 183.4,-201.95"/>
<text text-anchor="middle" x="184.02" y="-208.95" font-family="Times,serif" font-size="14.00">T</text>
</g>
<!-- 10 -->
<g id="node9" class="node">
<title>10</title>
<polygon fill="none" stroke="black" points="273.77,-36 182.02,-36 182.02,0 273.77,0 273.77,-36"/>
<text text-anchor="middle" x="227.9" y="-11.82" font-family="Times,serif" font-size="14.00">10: b = c % b</text>
</g>
<!-- 10&#45;&gt;7 -->
<g id="edge8" class="edge">
<title>10&#45;&gt;7</title>
<path fill="none" stroke="black" d="M233.82,-36.45C243.59,-68.2 260.09,-137.03 239.9,-190 233.1,-207.82 219.18,-223.91 206.45,-235.89"/>
<polygon fill="black" stroke="black" points="204.2,-233.21 199.07,-242.48 208.86,-238.43 204.2,-233.21"/>
</g>
<!-- 9 -->
<g id="node11" class="node">
<title>9</title>
<polygon fill="none" stroke="black" points="226.27,-113 167.52,-113 167.52,-77 226.27,-77 226.27,-113"/>
<text text-anchor="middle" x="196.9" y="-88.83" font-family="Times,serif" font-size="14.00">9: a = b</text>
</g>
<!-- 8&#45;&gt;9 -->
<g id="edge10" class="edge">
<title>8&#45;&gt;9</title>
<path fill="none" stroke="black" d="M183.84,-153.6C185.81,-144.9 188.25,-134.13 190.49,-124.28"/>
<polygon fill="black" stroke="black" points="193.84,-125.3 192.64,-114.78 187.02,-123.76 193.84,-125.3"/>
</g>
<!-- 9&#45;&gt;10 -->
<g id="edge11" class="edge">
<title>9&#45;&gt;10</title>
<path fill="none" stroke="black" d="M204.09,-76.6C207.76,-67.71 212.33,-56.66 216.47,-46.64"/>
<polygon fill="black" stroke="black" points="219.58,-48.28 220.17,-37.7 213.11,-45.6 219.58,-48.28"/>
</g>
</g>
</svg>