<?xml version="1.0" encoding="UTF-8" standalone="no"?>
<!DOCTYPE svg PUBLIC "-//W3C//DTD SVG 1.1//EN"
 "http://www.w3.org/Graphics/SVG/1.1/DTD/svg11.dtd">
<!-- Generated by graphviz version 12.2.1 (20241206.2353)
 -->
<!-- Title: root Pages: 1 -->
<svg width="138pt" height="123pt"
 viewBox="0.00 0.00 138.12 122.75" xmlns="http://www.w3.org/2000/svg" xmlns:xlink="http://www.w3.org/1999/xlink">
<g id="graph0" class="graph" transform="scale(1 1) rotate(0) translate(4 118.75)">
<title>root</title>
<polygon fill="white" stroke="none" points="-4,4 -4,-118.75 134.12,-118.75 134.12,4 -4,4"/>
<!-- \&lt;start\&gt; -->
<g id="node1" class="node">
<title>\&lt;start\&gt;</title>
<text text-anchor="middle" x="66.12" y="-101.45" font-family="Times,serif" font-size="14.00">&lt;start&gt;</text>
</g>
<!-- \&lt;expr\&gt; -->
<g id="node2" class="node">
<title>\&lt;expr\&gt;</title>
<text text-anchor="middle" x="66.12" y="-51.2" font-family="Times,serif" font-size="14.00">&lt;expr&gt;</text>
</g>
<!-- \&lt;start\&gt;&#45;&gt;\&lt;expr\&gt; -->
<g id="edge1" class="edge">
<title>\&lt;start\&gt;&#45;&gt;\&lt;expr\&gt;</title>
<path fill="none" stroke="black" d="M66.12,-100.71C66.12,-94.49 66.12,-84.4 66.12,-75.64"/>
<polygon fill="black" stroke="black" points="69.63,-75.85 66.13,-65.85 62.63,-75.85 69.63,-75.85"/>
</g>
<!-- \&lt;expr\&gt;  -->
<g id="node3" class="node">
<title>\&lt;expr\&gt; </title>
<text text-anchor="middle" x="22.12" y="-0.95" font-family="Times,serif" font-size="14.00">&lt;expr&gt; </text>
</g>
<!-- \&lt;expr\&gt;&#45;&gt;\&lt;expr\&gt;  -->
<g id="edge2" class="edge">
<title>\&lt;expr\&gt;&#45;&gt;\&lt;expr\&gt; </title>
<path fill="none" stroke="black" d="M60.73,-50.46C54.4,-43.51 43.67,-31.75 35.13,-22.39"/>
<polygon fill="black" stroke="black" points="37.91,-20.24 28.58,-15.21 32.74,-24.96 37.91,-20.24"/>
</g>
<!-- + -->
<g id="node4" class="node">
<title>+</title>
<text text-anchor="middle" x="66.12" y="-0.95" font-family="Times,serif" font-size="14.00">+</text>
</g>
<!-- \&lt;expr\&gt;&#45;&gt;+ -->
<g id="edge3" class="edge">
<title>\&lt;expr\&gt;&#45;&gt;+</title>
<path fill="none" stroke="black" d="M66.12,-50.46C66.12,-44.24 66.12,-34.15 66.12,-25.39"/>
<polygon fill="black" stroke="black" points="69.63,-25.6 66.13,-15.6 62.63,-25.6 69.63,-25.6"/>
</g>
<!-- \&lt;term\&gt; -->
<g id="node5" class="node">
<title>\&lt;term\&gt;</title>
<text text-anchor="middle" x="109.12" y="-0.95" font-family="Times,serif" font-size="14.00">&lt;term&gt;</text>
</g>
<!-- \&lt;expr\&gt;&#45;&gt;\&lt;term\&gt; -->
<g id="edge4" class="edge">
<title>\&lt;expr\&gt;&#45;&gt;\&lt;term\&gt;</title>
<path fill="none" stroke="black" d="M71.4,-50.46C77.52,-43.59 87.85,-32 96.15,-22.68"/>
<polygon fill="black" stroke="black" points="98.76,-25.01 102.8,-15.22 93.54,-20.36 98.76,-25.01"/>
</g>
</g>
</svg>