<?xml version="1.0" encoding="UTF-8" standalone="no"?>
<!DOCTYPE svg PUBLIC "-//W3C//DTD SVG 1.1//EN"
 "http://www.w3.org/Graphics/SVG/1.1/DTD/svg11.dtd">
<!-- Generated by graphviz version 12.2.1 (20241206.2353)
 -->
<!-- Pages: 1 -->
<svg width="508pt" height="598pt"
 viewBox="0.00 0.00 508.25 598.25" xmlns="http://www.w3.org/2000/svg" xmlns:xlink="http://www.w3.org/1999/xlink">
<g id="graph0" class="graph" transform="scale(1 1) rotate(0) translate(4 594.25)">
<polygon fill="white" stroke="none" points="-4,4 -4,-594.25 504.25,-594.25 504.25,4 -4,4"/>
<!-- 0 -->
<g id="node1" class="node">
<title>0</title>
<text text-anchor="middle" x="19.88" y="-256.95" font-family="Times,serif" font-size="14.00">&lt;start&gt;</text>
</g>
<!-- 1 -->
<g id="node2" class="node">
<title>1</title>
<text text-anchor="middle" x="123" y="-256.95" font-family="Times,serif" font-size="14.00">&lt;inventory@22&gt;</text>
</g>
<!-- 0&#45;&gt;1 -->
<g id="edge1" class="edge">
<title>0&#45;&gt;1</title>
<path fill="none" stroke="black" d="M39.42,-263.12C46.64,-263.12 55.33,-263.12 64.33,-263.12"/>
<polygon fill="black" stroke="black" points="64.3,-266.63 74.3,-263.13 64.3,-259.63 64.3,-266.63"/>
</g>
<!-- 2 -->
<g id="node3" class="node">
<title>2</title>
<text text-anchor="middle" x="247.12" y="-464.95" font-family="Times,serif" font-size="14.00">&lt;vehicle@24&gt;</text>
</g>
<!-- 1&#45;&gt;2 -->
<g id="edge2" class="edge">
<title>1&#45;&gt;2</title>
<path fill="none" stroke="black" d="M128.06,-270.05C145.12,-299.1 211.24,-411.71 236.36,-454.5"/>
<polygon fill="black" stroke="black" points="233.32,-456.23 241.4,-463.08 239.36,-452.69 233.32,-456.23"/>
</g>
<!-- 14 -->
<g id="node15" class="node">
<title>14</title>
<text text-anchor="middle" x="247.12" y="-288.95" font-family="Times,serif" font-size="14.00">\n (10)</text>
</g>
<!-- 1&#45;&gt;14 -->
<g id="edge14" class="edge">
<title>1&#45;&gt;14</title>
<path fill="none" stroke="black" d="M151.1,-270.23C170.96,-275.43 197.84,-282.47 217.94,-287.74"/>
<polygon fill="black" stroke="black" points="216.87,-291.08 227.43,-290.23 218.64,-284.3 216.87,-291.08"/>
</g>
<!-- 15 -->
<g id="node16" class="node">
<title>15</title>
<text text-anchor="middle" x="247.12" y="-256.95" font-family="Times,serif" font-size="14.00">&lt;vehicle@24&gt;</text>
</g>
<!-- 1&#45;&gt;15 -->
<g id="edge15" class="edge">
<title>1&#45;&gt;15</title>
<path fill="none" stroke="black" d="M170.17,-263.12C178.25,-263.12 186.7,-263.12 194.91,-263.12"/>
<polygon fill="black" stroke="black" points="194.77,-266.63 204.77,-263.13 194.77,-259.63 194.77,-266.63"/>
</g>
<!-- 27 -->
<g id="node28" class="node">
<title>27</title>
<text text-anchor="middle" x="247.12" y="-224.95" font-family="Times,serif" font-size="14.00">\n (10)</text>
</g>
<!-- 1&#45;&gt;27 -->
<g id="edge27" class="edge">
<title>1&#45;&gt;27</title>
<path fill="none" stroke="black" d="M151.1,-256.02C170.96,-250.82 197.84,-243.78 217.94,-238.51"/>
<polygon fill="black" stroke="black" points="218.64,-241.95 227.43,-236.02 216.87,-235.17 218.64,-241.95"/>
</g>
<!-- 28 -->
<g id="node29" class="node">
<title>28</title>
<text text-anchor="middle" x="247.12" y="-80.95" font-family="Times,serif" font-size="14.00">&lt;vehicle@24&gt;</text>
</g>
<!-- 1&#45;&gt;28 -->
<g id="edge28" class="edge">
<title>1&#45;&gt;28</title>
<path fill="none" stroke="black" d="M128.94,-256.01C146.89,-230.14 208.98,-140.66 234.76,-103.5"/>
<polygon fill="black" stroke="black" points="237.57,-105.59 240.4,-95.38 231.82,-101.6 237.57,-105.59"/>
</g>
<!-- 3 -->
<g id="node4" class="node">
<title>3</title>
<text text-anchor="middle" x="370.5" y="-576.95" font-family="Times,serif" font-size="14.00">&lt;year@30&gt;</text>
</g>
<!-- 2&#45;&gt;3 -->
<g id="edge3" class="edge">
<title>2&#45;&gt;3</title>
<path fill="none" stroke="black" d="M251.74,-478.02C261.22,-495.48 288.56,-541.82 324,-567.12 326.18,-568.69 328.54,-570.11 330.98,-571.4"/>
<polygon fill="black" stroke="black" points="329.39,-574.52 339.95,-575.39 332.23,-568.12 329.39,-574.52"/>
</g>
<!-- 5 -->
<g id="node6" class="node">
<title>5</title>
<text text-anchor="middle" x="370.5" y="-544.95" font-family="Times,serif" font-size="14.00">, (44)</text>
</g>
<!-- 2&#45;&gt;5 -->
<g id="edge5" class="edge">
<title>2&#45;&gt;5</title>
<path fill="none" stroke="black" d="M254.59,-478.05C266.96,-490.91 295.28,-518.7 324,-535.12 330.5,-538.84 338.02,-541.92 345.05,-544.34"/>
<polygon fill="black" stroke="black" points="343.77,-547.61 354.36,-547.26 345.87,-540.93 343.77,-547.61"/>
</g>
<!-- 6 -->
<g id="node7" class="node">
<title>6</title>
<text text-anchor="middle" x="370.5" y="-512.95" font-family="Times,serif" font-size="14.00">&lt;kind@30&gt;</text>
</g>
<!-- 2&#45;&gt;6 -->
<g id="edge6" class="edge">
<title>2&#45;&gt;6</title>
<path fill="none" stroke="black" d="M264,-478.15C279.27,-484.83 303.06,-495.04 324,-503.12 328.48,-504.86 333.24,-506.62 337.93,-508.3"/>
<polygon fill="black" stroke="black" points="336.54,-511.53 347.14,-511.56 338.87,-504.93 336.54,-511.53"/>
</g>
<!-- 8 -->
<g id="node9" class="node">
<title>8</title>
<text text-anchor="middle" x="370.5" y="-480.95" font-family="Times,serif" font-size="14.00">, (44)</text>
</g>
<!-- 2&#45;&gt;8 -->
<g id="edge8" class="edge">
<title>2&#45;&gt;8</title>
<path fill="none" stroke="black" d="M287.87,-476.36C306.49,-478.82 328.11,-481.67 344.42,-483.82"/>
<polygon fill="black" stroke="black" points="343.85,-487.27 354.22,-485.11 344.76,-480.33 343.85,-487.27"/>
</g>
<!-- 9 -->
<g id="node10" class="node">
<title>9</title>
<text text-anchor="middle" x="370.5" y="-448.95" font-family="Times,serif" font-size="14.00">&lt;company@30&gt;</text>
</g>
<!-- 2&#45;&gt;9 -->
<g id="edge9" class="edge">
<title>2&#45;&gt;9</title>
<path fill="none" stroke="black" d="M287.87,-465.89C295.85,-464.83 304.39,-463.71 312.82,-462.6"/>
<polygon fill="black" stroke="black" points="313.24,-466.07 322.7,-461.29 312.32,-459.13 313.24,-466.07"/>
</g>
<!-- 11 -->
<g id="node12" class="node">
<title>11</title>
<text text-anchor="middle" x="370.5" y="-416.95" font-family="Times,serif" font-size="14.00">, (44)</text>
</g>
<!-- 2&#45;&gt;11 -->
<g id="edge11" class="edge">
<title>2&#45;&gt;11</title>
<path fill="none" stroke="black" d="M264,-464.1C279.27,-457.42 303.06,-447.21 324,-439.12 330.81,-436.5 338.25,-433.8 345.11,-431.39"/>
<polygon fill="black" stroke="black" points="346.14,-434.74 354.45,-428.17 343.86,-428.12 346.14,-434.74"/>
</g>
<!-- 12 -->
<g id="node13" class="node">
<title>12</title>
<text text-anchor="middle" x="370.5" y="-384.95" font-family="Times,serif" font-size="14.00">&lt;model@30&gt;</text>
</g>
<!-- 2&#45;&gt;12 -->
<g id="edge12" class="edge">
<title>2&#45;&gt;12</title>
<path fill="none" stroke="black" d="M254.59,-464.2C266.96,-451.34 295.28,-423.55 324,-407.12 327.03,-405.39 330.28,-403.8 333.59,-402.35"/>
<polygon fill="black" stroke="black" points="334.78,-405.64 342.82,-398.74 332.23,-399.13 334.78,-405.64"/>
</g>
<!-- 4 -->
<g id="node5" class="node">
<title>4</title>
<text text-anchor="middle" x="476.62" y="-576.95" font-family="Times,serif" font-size="14.00">1997</text>
</g>
<!-- 3&#45;&gt;4 -->
<g id="edge4" class="edge">
<title>3&#45;&gt;4</title>
<path fill="none" stroke="black" d="M403.31,-583.12C418.94,-583.12 437.46,-583.12 451.85,-583.12"/>
<polygon fill="black" stroke="black" points="451.74,-586.63 461.74,-583.13 451.74,-579.63 451.74,-586.63"/>
</g>
<!-- 7 -->
<g id="node8" class="node">
<title>7</title>
<text text-anchor="middle" x="476.62" y="-512.95" font-family="Times,serif" font-size="14.00">van</text>
</g>
<!-- 6&#45;&gt;7 -->
<g id="edge7" class="edge">
<title>6&#45;&gt;7</title>
<path fill="none" stroke="black" d="M403.59,-519.12C420.6,-519.12 440.96,-519.12 455.69,-519.12"/>
<polygon fill="black" stroke="black" points="455.44,-522.63 465.44,-519.13 455.44,-515.63 455.44,-522.63"/>
</g>
<!-- 10 -->
<g id="node11" class="node">
<title>10</title>
<text text-anchor="middle" x="476.62" y="-448.95" font-family="Times,serif" font-size="14.00">Ford</text>
</g>
<!-- 9&#45;&gt;10 -->
<g id="edge10" class="edge">
<title>9&#45;&gt;10</title>
<path fill="none" stroke="black" d="M416.87,-455.12C429.18,-455.12 442,-455.12 452.51,-455.12"/>
<polygon fill="black" stroke="black" points="452.49,-458.63 462.49,-455.13 452.49,-451.63 452.49,-458.63"/>
</g>
<!-- 13 -->
<g id="node14" class="node">
<title>13</title>
<text text-anchor="middle" x="476.62" y="-384.95" font-family="Times,serif" font-size="14.00">E350</text>
</g>
<!-- 12&#45;&gt;13 -->
<g id="edge13" class="edge">
<title>12&#45;&gt;13</title>
<path fill="none" stroke="black" d="M409.09,-391.12C423.07,-391.12 438.57,-391.12 451.08,-391.12"/>
<polygon fill="black" stroke="black" points="450.92,-394.63 460.92,-391.13 450.92,-387.63 450.92,-394.63"/>
</g>
<!-- 16 -->
<g id="node17" class="node">
<title>16</title>
<text text-anchor="middle" x="370.5" y="-352.95" font-family="Times,serif" font-size="14.00">&lt;year@30&gt;</text>
</g>
<!-- 15&#45;&gt;16 -->
<g id="edge16" class="edge">
<title>15&#45;&gt;16</title>
<path fill="none" stroke="black" d="M273.22,-270.19C278.49,-272.46 283.74,-275.39 288,-279.12 312.54,-300.64 299,-322.14 324,-343.12 325.68,-344.54 327.5,-345.83 329.41,-347.01"/>
<polygon fill="black" stroke="black" points="327.59,-350.02 338.1,-351.35 330.72,-343.75 327.59,-350.02"/>
</g>
<!-- 18 -->
<g id="node19" class="node">
<title>18</title>
<text text-anchor="middle" x="370.5" y="-320.95" font-family="Times,serif" font-size="14.00">, (44)</text>
</g>
<!-- 15&#45;&gt;18 -->
<g id="edge18" class="edge">
<title>15&#45;&gt;18</title>
<path fill="none" stroke="black" d="M269.48,-270.13C275.67,-272.57 282.29,-275.59 288,-279.12 306.2,-290.39 305.56,-300.26 324,-311.12 330.46,-314.93 337.96,-318.03 344.99,-320.45"/>
<polygon fill="black" stroke="black" points="343.72,-323.72 354.31,-323.35 345.8,-317.04 343.72,-323.72"/>
</g>
<!-- 19 -->
<g id="node20" class="node">
<title>19</title>
<text text-anchor="middle" x="370.5" y="-288.95" font-family="Times,serif" font-size="14.00">&lt;kind@30&gt;</text>
</g>
<!-- 15&#45;&gt;19 -->
<g id="edge19" class="edge">
<title>15&#45;&gt;19</title>
<path fill="none" stroke="black" d="M275.06,-270.23C291.72,-274.62 313.35,-280.32 331.71,-285.16"/>
<polygon fill="black" stroke="black" points="330.61,-288.49 341.17,-287.66 332.4,-281.72 330.61,-288.49"/>
</g>
<!-- 21 -->
<g id="node22" class="node">
<title>21</title>
<text text-anchor="middle" x="370.5" y="-256.95" font-family="Times,serif" font-size="14.00">, (44)</text>
</g>
<!-- 15&#45;&gt;21 -->
<g id="edge21" class="edge">
<title>15&#45;&gt;21</title>
<path fill="none" stroke="black" d="M287.87,-263.12C306.49,-263.12 328.11,-263.12 344.42,-263.12"/>
<polygon fill="black" stroke="black" points="344.21,-266.63 354.21,-263.13 344.21,-259.63 344.21,-266.63"/>
</g>
<!-- 22 -->
<g id="node23" class="node">
<title>22</title>
<text text-anchor="middle" x="370.5" y="-224.95" font-family="Times,serif" font-size="14.00">&lt;company@30&gt;</text>
</g>
<!-- 15&#45;&gt;22 -->
<g id="edge22" class="edge">
<title>15&#45;&gt;22</title>
<path fill="none" stroke="black" d="M275.06,-256.02C291.72,-251.63 313.35,-245.93 331.71,-241.09"/>
<polygon fill="black" stroke="black" points="332.4,-244.53 341.17,-238.59 330.61,-237.76 332.4,-244.53"/>
</g>
<!-- 24 -->
<g id="node25" class="node">
<title>24</title>
<text text-anchor="middle" x="370.5" y="-192.95" font-family="Times,serif" font-size="14.00">, (44)</text>
</g>
<!-- 15&#45;&gt;24 -->
<g id="edge24" class="edge">
<title>15&#45;&gt;24</title>
<path fill="none" stroke="black" d="M269.48,-256.12C275.67,-253.68 282.29,-250.66 288,-247.12 306.2,-235.86 305.56,-225.99 324,-215.12 330.46,-211.32 337.96,-208.22 344.99,-205.8"/>
<polygon fill="black" stroke="black" points="345.8,-209.21 354.31,-202.9 343.72,-202.53 345.8,-209.21"/>
</g>
<!-- 25 -->
<g id="node26" class="node">
<title>25</title>
<text text-anchor="middle" x="370.5" y="-160.95" font-family="Times,serif" font-size="14.00">&lt;model@30&gt;</text>
</g>
<!-- 15&#45;&gt;25 -->
<g id="edge25" class="edge">
<title>15&#45;&gt;25</title>
<path fill="none" stroke="black" d="M273.22,-256.06C278.49,-253.79 283.74,-250.86 288,-247.12 312.54,-225.61 299,-204.11 324,-183.12 325.68,-181.71 327.5,-180.42 329.41,-179.24"/>
<polygon fill="black" stroke="black" points="330.72,-182.5 338.1,-174.9 327.59,-176.23 330.72,-182.5"/>
</g>
<!-- 17 -->
<g id="node18" class="node">
<title>17</title>
<text text-anchor="middle" x="476.62" y="-352.95" font-family="Times,serif" font-size="14.00">2000</text>
</g>
<!-- 16&#45;&gt;17 -->
<g id="edge17" class="edge">
<title>16&#45;&gt;17</title>
<path fill="none" stroke="black" d="M403.31,-359.12C418.94,-359.12 437.46,-359.12 451.85,-359.12"/>
<polygon fill="black" stroke="black" points="451.74,-362.63 461.74,-359.13 451.74,-355.63 451.74,-362.63"/>
</g>
<!-- 20 -->
<g id="node21" class="node">
<title>20</title>
<text text-anchor="middle" x="476.62" y="-288.95" font-family="Times,serif" font-size="14.00">car</text>
</g>
<!-- 19&#45;&gt;20 -->
<g id="edge20" class="edge">
<title>19&#45;&gt;20</title>
<path fill="none" stroke="black" d="M403.59,-295.12C421.34,-295.12 442.73,-295.12 457.57,-295.12"/>
<polygon fill="black" stroke="black" points="457.16,-298.63 467.16,-295.13 457.16,-291.63 457.16,-298.63"/>
</g>
<!-- 23 -->
<g id="node24" class="node">
<title>23</title>
<text text-anchor="middle" x="476.62" y="-224.95" font-family="Times,serif" font-size="14.00">Mercury</text>
</g>
<!-- 22&#45;&gt;23 -->
<g id="edge23" class="edge">
<title>22&#45;&gt;23</title>
<path fill="none" stroke="black" d="M416.87,-231.12C425.24,-231.12 433.84,-231.12 441.8,-231.12"/>
<polygon fill="black" stroke="black" points="441.74,-234.63 451.74,-231.13 441.74,-227.63 441.74,-234.63"/>
</g>
<!-- 26 -->
<g id="node27" class="node">
<title>26</title>
<text text-anchor="middle" x="476.62" y="-160.95" font-family="Times,serif" font-size="14.00">Cougar</text>
</g>
<!-- 25&#45;&gt;26 -->
<g id="edge26" class="edge">
<title>25&#45;&gt;26</title>
<path fill="none" stroke="black" d="M409.09,-167.12C420.98,-167.12 433.97,-167.12 445.29,-167.12"/>
<polygon fill="black" stroke="black" points="445.27,-170.63 455.27,-167.13 445.27,-163.63 445.27,-170.63"/>
</g>
<!-- 29 -->
<g id="node30" class="node">
<title>29</title>
<text text-anchor="middle" x="370.5" y="-128.95" font-family="Times,serif" font-size="14.00">&lt;year@30&gt;</text>
</g>
<!-- 28&#45;&gt;29 -->
<g id="edge29" class="edge">
<title>28&#45;&gt;29</title>
<path fill="none" stroke="black" d="M264,-94.15C279.27,-100.83 303.06,-111.04 324,-119.12 328.48,-120.86 333.24,-122.62 337.93,-124.3"/>
<polygon fill="black" stroke="black" points="336.54,-127.53 347.14,-127.56 338.87,-120.93 336.54,-127.53"/>
</g>
<!-- 31 -->
<g id="node32" class="node">
<title>31</title>
<text text-anchor="middle" x="370.5" y="-96.95" font-family="Times,serif" font-size="14.00">,car,</text>
</g>
<!-- 28&#45;&gt;31 -->
<g id="edge31" class="edge">
<title>28&#45;&gt;31</title>
<path fill="none" stroke="black" d="M287.87,-92.36C307.81,-94.99 331.2,-98.08 347.81,-100.27"/>
<polygon fill="black" stroke="black" points="347.16,-103.71 357.53,-101.55 348.07,-96.77 347.16,-103.71"/>
</g>
<!-- 32 -->
<g id="node33" class="node">
<title>32</title>
<text text-anchor="middle" x="370.5" y="-64.95" font-family="Times,serif" font-size="14.00">&lt;company@30&gt;</text>
</g>
<!-- 28&#45;&gt;32 -->
<g id="edge32" class="edge">
<title>28&#45;&gt;32</title>
<path fill="none" stroke="black" d="M287.87,-81.89C295.85,-80.83 304.39,-79.71 312.82,-78.6"/>
<polygon fill="black" stroke="black" points="313.24,-82.07 322.7,-77.29 312.32,-75.13 313.24,-82.07"/>
</g>
<!-- 34 -->
<g id="node35" class="node">
<title>34</title>
<text text-anchor="middle" x="370.5" y="-32.95" font-family="Times,serif" font-size="14.00">, (44)</text>
</g>
<!-- 28&#45;&gt;34 -->
<g id="edge34" class="edge">
<title>28&#45;&gt;34</title>
<path fill="none" stroke="black" d="M264,-80.1C279.27,-73.42 303.06,-63.21 324,-55.12 330.81,-52.5 338.25,-49.8 345.11,-47.39"/>
<polygon fill="black" stroke="black" points="346.14,-50.74 354.45,-44.17 343.86,-44.12 346.14,-50.74"/>
</g>
<!-- 35 -->
<g id="node36" class="node">
<title>35</title>
<text text-anchor="middle" x="370.5" y="-0.95" font-family="Times,serif" font-size="14.00">&lt;model@30&gt;</text>
</g>
<!-- 28&#45;&gt;35 -->
<g id="edge35" class="edge">
<title>28&#45;&gt;35</title>
<path fill="none" stroke="black" d="M254.59,-80.2C266.96,-67.34 295.28,-39.55 324,-23.12 327.03,-21.39 330.28,-19.8 333.59,-18.35"/>
<polygon fill="black" stroke="black" points="334.78,-21.64 342.82,-14.74 332.23,-15.13 334.78,-21.64"/>
</g>
<!-- 30 -->
<g id="node31" class="node">
<title>30</title>
<text text-anchor="middle" x="476.62" y="-128.95" font-family="Times,serif" font-size="14.00">1999</text>
</g>
<!-- 29&#45;&gt;30 -->
<g id="edge30" class="edge">
<title>29&#45;&gt;30</title>
<path fill="none" stroke="black" d="M403.31,-135.12C418.94,-135.12 437.46,-135.12 451.85,-135.12"/>
<polygon fill="black" stroke="black" points="451.74,-138.63 461.74,-135.13 451.74,-131.63 451.74,-138.63"/>
</g>
<!-- 33 -->
<g id="node34" class="node">
<title>33</title>
<text text-anchor="middle" x="476.62" y="-64.95" font-family="Times,serif" font-size="14.00">Chevy</text>
</g>
<!-- 32&#45;&gt;33 -->
<g id="edge33" class="edge">
<title>32&#45;&gt;33</title>
<path fill="none" stroke="black" d="M416.87,-71.12C427.5,-71.12 438.52,-71.12 448.1,-71.12"/>
<polygon fill="black" stroke="black" points="447.81,-74.63 457.81,-71.13 447.81,-67.63 447.81,-74.63"/>
</g>
<!-- 36 -->
<g id="node37" class="node">
<title>36</title>
<text text-anchor="middle" x="476.62" y="-0.95" font-family="Times,serif" font-size="14.00">Venture</text>
</g>
<!-- 35&#45;&gt;36 -->
<g id="edge36" class="edge">
<title>35&#45;&gt;36</title>
<path fill="none" stroke="black" d="M409.09,-7.12C420.64,-7.12 433.22,-7.12 444.31,-7.12"/>
<polygon fill="black" stroke="black" points="444.11,-10.63 454.11,-7.13 444.11,-3.63 444.11,-10.63"/>
</g>
</g>
</svg>