<?xml version="1.0" encoding="UTF-8" standalone="no"?>
<!DOCTYPE svg PUBLIC "-//W3C//DTD SVG 1.1//EN"
 "http://www.w3.org/Graphics/SVG/1.1/DTD/svg11.dtd">
<!-- Generated by graphviz version 12.2.1 (20241206.2353)
 -->
<!-- Pages: 1 -->
<svg width="210pt" height="575pt"
 viewBox="0.00 0.00 209.62 575.00" xmlns="http://www.w3.org/2000/svg" xmlns:xlink="http://www.w3.org/1999/xlink">
<g id="graph0" class="graph" transform="scale(1 1) rotate(0) translate(4 571)">
<polygon fill="white" stroke="none" points="-4,4 -4,-571 205.62,-571 205.62,4 -4,4"/>
<!-- 0 -->
<g id="node1" class="node">
<title>0</title>
<text text-anchor="middle" x="81.62" y="-553.7" font-family="Times,serif" font-size="14.00">&lt;start&gt;</text>
</g>
<!-- 1 -->
<g id="node2" class="node">
<title>1</title>
<text text-anchor="middle" x="81.62" y="-503.45" font-family="Times,serif" font-size="14.00">&lt;expr&gt;</text>
</g>
<!-- 0&#45;&gt;1 -->
<g id="edge1" class="edge">
<title>0&#45;&gt;1</title>
<path fill="none" stroke="black" d="M81.62,-552.96C81.62,-546.74 81.62,-536.65 81.62,-527.89"/>
<polygon fill="black" stroke="black" points="85.13,-528.1 81.63,-518.1 78.13,-528.1 85.13,-528.1"/>
</g>
<!-- 2 -->
<g id="node3" class="node">
<title>2</title>
<text text-anchor="middle" x="33.62" y="-453.2" font-family="Times,serif" font-size="14.00">&lt;term&gt;</text>
</g>
<!-- 1&#45;&gt;2 -->
<g id="edge2" class="edge">
<title>1&#45;&gt;2</title>
<path fill="none" stroke="black" d="M75.74,-502.71C68.76,-495.69 56.89,-483.76 47.53,-474.35"/>
<polygon fill="black" stroke="black" points="50.16,-472.03 40.63,-467.41 45.2,-476.97 50.16,-472.03"/>
</g>
<!-- 7 -->
<g id="node8" class="node">
<title>7</title>
<text text-anchor="middle" x="81.62" y="-453.2" font-family="Times,serif" font-size="14.00"> + </text>
</g>
<!-- 1&#45;&gt;7 -->
<g id="edge7" class="edge">
<title>1&#45;&gt;7</title>
<path fill="none" stroke="black" d="M81.62,-502.71C81.62,-496.49 81.62,-486.4 81.62,-477.64"/>
<polygon fill="black" stroke="black" points="85.13,-477.85 81.63,-467.85 78.13,-477.85 85.13,-477.85"/>
</g>
<!-- 8 -->
<g id="node9" class="node">
<title>8</title>
<text text-anchor="middle" x="127.62" y="-453.2" font-family="Times,serif" font-size="14.00">&lt;expr&gt;</text>
</g>
<!-- 1&#45;&gt;8 -->
<g id="edge8" class="edge">
<title>1&#45;&gt;8</title>
<path fill="none" stroke="black" d="M87.27,-502.71C93.89,-495.76 105.1,-484 114.03,-474.64"/>
<polygon fill="black" stroke="black" points="116.53,-477.09 120.89,-467.44 111.46,-472.26 116.53,-477.09"/>
</g>
<!-- 3 -->
<g id="node4" class="node">
<title>3</title>
<text text-anchor="middle" x="31.62" y="-402.95" font-family="Times,serif" font-size="14.00">&lt;factor&gt;</text>
</g>
<!-- 2&#45;&gt;3 -->
<g id="edge3" class="edge">
<title>2&#45;&gt;3</title>
<path fill="none" stroke="black" d="M33.38,-452.46C33.12,-446.24 32.7,-436.15 32.34,-427.39"/>
<polygon fill="black" stroke="black" points="35.85,-427.45 31.93,-417.6 28.85,-427.74 35.85,-427.45"/>
</g>
<!-- 4 -->
<g id="node5" class="node">
<title>4</title>
<text text-anchor="middle" x="27.62" y="-352.7" font-family="Times,serif" font-size="14.00">&lt;integer&gt;</text>
</g>
<!-- 3&#45;&gt;4 -->
<g id="edge4" class="edge">
<title>3&#45;&gt;4</title>
<path fill="none" stroke="black" d="M31.13,-402.21C30.62,-395.99 29.78,-385.9 29.06,-377.14"/>
<polygon fill="black" stroke="black" points="32.56,-377.02 28.24,-367.35 25.58,-377.6 32.56,-377.02"/>
</g>
<!-- 5 -->
<g id="node6" class="node">
<title>5</title>
<text text-anchor="middle" x="20.62" y="-302.45" font-family="Times,serif" font-size="14.00">&lt;digit&gt;</text>
</g>
<!-- 4&#45;&gt;5 -->
<g id="edge5" class="edge">
<title>4&#45;&gt;5</title>
<path fill="none" stroke="black" d="M26.77,-351.96C25.86,-345.74 24.4,-335.65 23.13,-326.89"/>
<polygon fill="black" stroke="black" points="26.61,-326.48 21.71,-317.09 19.68,-327.49 26.61,-326.48"/>
</g>
<!-- 6 -->
<g id="node7" class="node">
<title>6</title>
<text text-anchor="middle" x="20.62" y="-252.2" font-family="Times,serif" font-size="14.00">1 (49)</text>
</g>
<!-- 5&#45;&gt;6 -->
<g id="edge6" class="edge">
<title>5&#45;&gt;6</title>
<path fill="none" stroke="black" d="M20.62,-301.71C20.62,-295.49 20.62,-285.4 20.62,-276.64"/>
<polygon fill="black" stroke="black" points="24.13,-276.85 20.63,-266.85 17.13,-276.85 24.13,-276.85"/>
</g>
<!-- 9 -->
<g id="node10" class="node">
<title>9</title>
<text text-anchor="middle" x="127.62" y="-402.95" font-family="Times,serif" font-size="14.00">&lt;term&gt;</text>
</g>
<!-- 8&#45;&gt;9 -->
<g id="edge9" class="edge">
<title>8&#45;&gt;9</title>
<path fill="none" stroke="black" d="M127.62,-452.46C127.62,-446.24 127.62,-436.15 127.62,-427.39"/>
<polygon fill="black" stroke="black" points="131.13,-427.6 127.63,-417.6 124.13,-427.6 131.13,-427.6"/>
</g>
<!-- 10 -->
<g id="node11" class="node">
<title>10</title>
<text text-anchor="middle" x="127.62" y="-352.7" font-family="Times,serif" font-size="14.00">&lt;factor&gt;</text>
</g>
<!-- 9&#45;&gt;10 -->
<g id="edge10" class="edge">
<title>9&#45;&gt;10</title>
<path fill="none" stroke="black" d="M127.62,-402.21C127.62,-395.99 127.62,-385.9 127.62,-377.14"/>
<polygon fill="black" stroke="black" points="131.13,-377.35 127.63,-367.35 124.13,-377.35 131.13,-377.35"/>
</g>
<!-- 11 -->
<g id="node12" class="node">
<title>11</title>
<text text-anchor="middle" x="74.62" y="-302.45" font-family="Times,serif" font-size="14.00">( (40)</text>
</g>
<!-- 10&#45;&gt;11 -->
<g id="edge11" class="edge">
<title>10&#45;&gt;11</title>
<path fill="none" stroke="black" d="M121.13,-351.96C113.34,-344.87 100.04,-332.76 89.65,-323.31"/>
<polygon fill="black" stroke="black" points="92.05,-320.75 82.3,-316.61 87.33,-325.93 92.05,-320.75"/>
</g>
<!-- 12 -->
<g id="node13" class="node">
<title>12</title>
<text text-anchor="middle" x="128.62" y="-302.45" font-family="Times,serif" font-size="14.00">&lt;expr&gt;</text>
</g>
<!-- 10&#45;&gt;12 -->
<g id="edge12" class="edge">
<title>10&#45;&gt;12</title>
<path fill="none" stroke="black" d="M127.75,-351.96C127.88,-345.74 128.09,-335.65 128.27,-326.89"/>
<polygon fill="black" stroke="black" points="131.76,-327.17 128.47,-317.1 124.76,-327.03 131.76,-327.17"/>
</g>
<!-- 24 -->
<g id="node25" class="node">
<title>24</title>
<text text-anchor="middle" x="182.62" y="-302.45" font-family="Times,serif" font-size="14.00">) (41)</text>
</g>
<!-- 10&#45;&gt;24 -->
<g id="edge24" class="edge">
<title>10&#45;&gt;24</title>
<path fill="none" stroke="black" d="M134.37,-351.96C142.53,-344.8 156.53,-332.51 167.36,-323.02"/>
<polygon fill="black" stroke="black" points="169.48,-325.81 174.69,-316.59 164.86,-320.55 169.48,-325.81"/>
</g>
<!-- 13 -->
<g id="node14" class="node">
<title>13</title>
<text text-anchor="middle" x="128.62" y="-252.2" font-family="Times,serif" font-size="14.00">&lt;term&gt;</text>
</g>
<!-- 12&#45;&gt;13 -->
<g id="edge13" class="edge">
<title>12&#45;&gt;13</title>
<path fill="none" stroke="black" d="M128.62,-301.71C128.62,-295.49 128.62,-285.4 128.62,-276.64"/>
<polygon fill="black" stroke="black" points="132.13,-276.85 128.63,-266.85 125.13,-276.85 132.13,-276.85"/>
</g>
<!-- 14 -->
<g id="node15" class="node">
<title>14</title>
<text text-anchor="middle" x="79.62" y="-201.95" font-family="Times,serif" font-size="14.00">&lt;factor&gt;</text>
</g>
<!-- 13&#45;&gt;14 -->
<g id="edge14" class="edge">
<title>13&#45;&gt;14</title>
<path fill="none" stroke="black" d="M122.62,-251.46C115.49,-244.44 103.37,-232.51 93.81,-223.1"/>
<polygon fill="black" stroke="black" points="96.34,-220.67 86.76,-216.15 91.43,-225.66 96.34,-220.67"/>
</g>
<!-- 18 -->
<g id="node19" class="node">
<title>18</title>
<text text-anchor="middle" x="128.62" y="-201.95" font-family="Times,serif" font-size="14.00"> * </text>
</g>
<!-- 13&#45;&gt;18 -->
<g id="edge18" class="edge">
<title>13&#45;&gt;18</title>
<path fill="none" stroke="black" d="M128.62,-251.46C128.62,-245.24 128.62,-235.15 128.62,-226.39"/>
<polygon fill="black" stroke="black" points="132.13,-226.6 128.63,-216.6 125.13,-226.6 132.13,-226.6"/>
</g>
<!-- 19 -->
<g id="node20" class="node">
<title>19</title>
<text text-anchor="middle" x="174.62" y="-201.95" font-family="Times,serif" font-size="14.00">&lt;term&gt;</text>
</g>
<!-- 13&#45;&gt;19 -->
<g id="edge19" class="edge">
<title>13&#45;&gt;19</title>
<path fill="none" stroke="black" d="M134.27,-251.46C140.89,-244.51 152.1,-232.75 161.03,-223.39"/>
<polygon fill="black" stroke="black" points="163.53,-225.84 167.89,-216.19 158.46,-221.01 163.53,-225.84"/>
</g>
<!-- 15 -->
<g id="node16" class="node">
<title>15</title>
<text text-anchor="middle" x="79.62" y="-151.7" font-family="Times,serif" font-size="14.00">&lt;integer&gt;</text>
</g>
<!-- 14&#45;&gt;15 -->
<g id="edge15" class="edge">
<title>14&#45;&gt;15</title>
<path fill="none" stroke="black" d="M79.62,-201.21C79.62,-194.99 79.62,-184.9 79.62,-176.14"/>
<polygon fill="black" stroke="black" points="83.13,-176.35 79.63,-166.35 76.13,-176.35 83.13,-176.35"/>
</g>
<!-- 16 -->
<g id="node17" class="node">
<title>16</title>
<text text-anchor="middle" x="79.62" y="-101.45" font-family="Times,serif" font-size="14.00">&lt;digit&gt;</text>
</g>
<!-- 15&#45;&gt;16 -->
<g id="edge16" class="edge">
<title>15&#45;&gt;16</title>
<path fill="none" stroke="black" d="M79.62,-150.96C79.62,-144.74 79.62,-134.65 79.62,-125.89"/>
<polygon fill="black" stroke="black" points="83.13,-126.1 79.63,-116.1 76.13,-126.1 83.13,-126.1"/>
</g>
<!-- 17 -->
<g id="node18" class="node">
<title>17</title>
<text text-anchor="middle" x="79.62" y="-51.2" font-family="Times,serif" font-size="14.00">2 (50)</text>
</g>
<!-- 16&#45;&gt;17 -->
<g id="edge17" class="edge">
<title>16&#45;&gt;17</title>
<path fill="none" stroke="black" d="M79.62,-100.71C79.62,-94.49 79.62,-84.4 79.62,-75.64"/>
<polygon fill="black" stroke="black" points="83.13,-75.85 79.63,-65.85 76.13,-75.85 83.13,-75.85"/>
</g>
<!-- 20 -->
<g id="node21" class="node">
<title>20</title>
<text text-anchor="middle" x="174.62" y="-151.7" font-family="Times,serif" font-size="14.00">&lt;factor&gt;</text>
</g>
<!-- 19&#45;&gt;20 -->
<g id="edge20" class="edge">
<title>19&#45;&gt;20</title>
<path fill="none" stroke="black" d="M174.62,-201.21C174.62,-194.99 174.62,-184.9 174.62,-176.14"/>
<polygon fill="black" stroke="black" points="178.13,-176.35 174.63,-166.35 171.13,-176.35 178.13,-176.35"/>
</g>
<!-- 21 -->
<g id="node22" class="node">
<title>21</title>
<text text-anchor="middle" x="174.62" y="-101.45" font-family="Times,serif" font-size="14.00">&lt;integer&gt;</text>
</g>
<!-- 20&#45;&gt;21 -->
<g id="edge21" class="edge">
<title>20&#45;&gt;21</title>
<path fill="none" stroke="black" d="M174.62,-150.96C174.62,-144.74 174.62,-134.65 174.62,-125.89"/>
<polygon fill="black" stroke="black" points="178.13,-126.1 174.63,-116.1 171.13,-126.1 178.13,-126.1"/>
</g>
<!-- 22 -->
<g id="node23" class="node">
<title>22</title>
<text text-anchor="middle" x="174.62" y="-51.2" font-family="Times,serif" font-size="14.00">&lt;digit&gt;</text>
</g>
<!-- 21&#45;&gt;22 -->
<g id="edge22" class="edge">
<title>21&#45;&gt;22</title>
<path fill="none" stroke="black" d="M174.62,-100.71C174.62,-94.49 174.62,-84.4 174.62,-75.64"/>
<polygon fill="black" stroke="black" points="178.13,-75.85 174.63,-65.85 171.13,-75.85 178.13,-75.85"/>
</g>
<!-- 23 -->
<g id="node24" class="node">
<title>23</title>
<text text-anchor="middle" x="174.62" y="-0.95" font-family="Times,serif" font-size="14.00">3 (51)</text>
</g>
<!-- 22&#45;&gt;23 -->
<g id="edge23" class="edge">
<title>22&#45;&gt;23</title>
<path fill="none" stroke="black" d="M174.62,-50.46C174.62,-44.24 174.62,-34.15 174.62,-25.39"/>
<polygon fill="black" stroke="black" points="178.13,-25.6 174.63,-15.6 171.13,-25.6 178.13,-25.6"/>
</g>
</g>
</svg>