<?xml version="1.0" encoding="UTF-8" standalone="no"?>
<!DOCTYPE svg PUBLIC "-//W3C//DTD SVG 1.1//EN"
 "http://www.w3.org/Graphics/SVG/1.1/DTD/svg11.dtd">
<!-- Generated by graphviz version 12.2.1 (20241206.2353)
 -->
<!-- Pages: 1 -->
<svg width="360pt" height="475pt"
 viewBox="0.00 0.00 359.62 474.50" xmlns="http://www.w3.org/2000/svg" xmlns:xlink="http://www.w3.org/1999/xlink">
<g id="graph0" class="graph" transform="scale(1 1) rotate(0) translate(4 470.5)">
<polygon fill="white" stroke="none" points="-4,4 -4,-470.5 355.62,-470.5 355.62,4 -4,4"/>
<!-- 0 -->
<g id="node1" class="node">
<title>0</title>
<text text-anchor="middle" x="236" y="-453.2" font-family="Times,serif" font-size="14.00">&lt;start&gt;</text>
</g>
<!-- 1 -->
<g id="node2" class="node">
<title>1</title>
<text text-anchor="middle" x="236" y="-402.95" font-family="Times,serif" font-size="14.00">&lt;expr&gt;</text>
</g>
<!-- 0&#45;&gt;1 -->
<g id="edge1" class="edge">
<title>0&#45;&gt;1</title>
<path fill="none" stroke="black" d="M236,-452.46C236,-446.24 236,-436.15 236,-427.39"/>
<polygon fill="black" stroke="black" points="239.5,-427.6 236,-417.6 232.5,-427.6 239.5,-427.6"/>
</g>
<!-- 2 -->
<g id="node3" class="node">
<title>2</title>
<text text-anchor="middle" x="186" y="-352.7" font-family="Times,serif" font-size="14.00">&lt;expr&gt;</text>
</g>
<!-- 1&#45;&gt;2 -->
<g id="edge2" class="edge">
<title>1&#45;&gt;2</title>
<path fill="none" stroke="black" d="M229.87,-402.21C222.52,-395.12 209.98,-383.01 200.18,-373.56"/>
<polygon fill="black" stroke="black" points="202.9,-371.32 193.27,-366.89 198.04,-376.35 202.9,-371.32"/>
</g>
<!-- 27 -->
<g id="node28" class="node">
<title>27</title>
<text text-anchor="middle" x="236" y="-352.7" font-family="Times,serif" font-size="14.00"> + </text>
</g>
<!-- 1&#45;&gt;27 -->
<g id="edge27" class="edge">
<title>1&#45;&gt;27</title>
<path fill="none" stroke="black" d="M236,-402.21C236,-395.99 236,-385.9 236,-377.14"/>
<polygon fill="black" stroke="black" points="239.5,-377.35 236,-367.35 232.5,-377.35 239.5,-377.35"/>
</g>
<!-- 28 -->
<g id="node29" class="node">
<title>28</title>
<text text-anchor="middle" x="285" y="-352.7" font-family="Times,serif" font-size="14.00">&lt;term&gt;</text>
</g>
<!-- 1&#45;&gt;28 -->
<g id="edge28" class="edge">
<title>1&#45;&gt;28</title>
<path fill="none" stroke="black" d="M242.01,-402.21C249.14,-395.19 261.25,-383.26 270.81,-373.85"/>
<polygon fill="black" stroke="black" points="273.19,-376.41 277.86,-366.9 268.28,-371.42 273.19,-376.41"/>
</g>
<!-- 3 -->
<g id="node4" class="node">
<title>3</title>
<text text-anchor="middle" x="111" y="-302.45" font-family="Times,serif" font-size="14.00">&lt;term&gt;</text>
</g>
<!-- 2&#45;&gt;3 -->
<g id="edge3" class="edge">
<title>2&#45;&gt;3</title>
<path fill="none" stroke="black" d="M176.5,-351.76C164.72,-344.18 144.36,-331.08 129.46,-321.5"/>
<polygon fill="black" stroke="black" points="131.76,-318.82 121.46,-316.35 127.98,-324.71 131.76,-318.82"/>
</g>
<!-- 14 -->
<g id="node15" class="node">
<title>14</title>
<text text-anchor="middle" x="179" y="-302.45" font-family="Times,serif" font-size="14.00"> + </text>
</g>
<!-- 2&#45;&gt;14 -->
<g id="edge14" class="edge">
<title>2&#45;&gt;14</title>
<path fill="none" stroke="black" d="M185.14,-351.96C184.24,-345.74 182.78,-335.65 181.5,-326.89"/>
<polygon fill="black" stroke="black" points="184.98,-326.48 180.08,-317.09 178.05,-327.49 184.98,-326.48"/>
</g>
<!-- 15 -->
<g id="node16" class="node">
<title>15</title>
<text text-anchor="middle" x="225" y="-302.45" font-family="Times,serif" font-size="14.00">&lt;expr&gt;</text>
</g>
<!-- 2&#45;&gt;15 -->
<g id="edge15" class="edge">
<title>2&#45;&gt;15</title>
<path fill="none" stroke="black" d="M190.78,-351.96C196.28,-345.16 205.51,-333.74 212.99,-324.48"/>
<polygon fill="black" stroke="black" points="215.66,-326.74 219.23,-316.77 210.22,-322.34 215.66,-326.74"/>
</g>
<!-- 4 -->
<g id="node5" class="node">
<title>4</title>
<text text-anchor="middle" x="27" y="-252.2" font-family="Times,serif" font-size="14.00">&lt;factor&gt;</text>
</g>
<!-- 3&#45;&gt;4 -->
<g id="edge4" class="edge">
<title>3&#45;&gt;4</title>
<path fill="none" stroke="black" d="M100.36,-301.51C87.11,-293.9 64.17,-280.73 47.47,-271.13"/>
<polygon fill="black" stroke="black" points="49.28,-268.14 38.86,-266.19 45.79,-274.21 49.28,-268.14"/>
</g>
<!-- 8 -->
<g id="node9" class="node">
<title>8</title>
<text text-anchor="middle" x="75" y="-252.2" font-family="Times,serif" font-size="14.00"> / </text>
</g>
<!-- 3&#45;&gt;8 -->
<g id="edge8" class="edge">
<title>3&#45;&gt;8</title>
<path fill="none" stroke="black" d="M106.59,-301.71C101.57,-294.98 93.17,-283.73 86.3,-274.52"/>
<polygon fill="black" stroke="black" points="89.14,-272.47 80.36,-266.55 83.53,-276.66 89.14,-272.47"/>
</g>
<!-- 9 -->
<g id="node10" class="node">
<title>9</title>
<text text-anchor="middle" x="120" y="-252.2" font-family="Times,serif" font-size="14.00">&lt;term&gt;</text>
</g>
<!-- 3&#45;&gt;9 -->
<g id="edge9" class="edge">
<title>3&#45;&gt;9</title>
<path fill="none" stroke="black" d="M112.1,-301.71C113.26,-295.49 115.15,-285.4 116.78,-276.64"/>
<polygon fill="black" stroke="black" points="120.22,-277.3 118.61,-266.83 113.34,-276.02 120.22,-277.3"/>
</g>
<!-- 5 -->
<g id="node6" class="node">
<title>5</title>
<text text-anchor="middle" x="27" y="-201.95" font-family="Times,serif" font-size="14.00">&lt;integer&gt;</text>
</g>
<!-- 4&#45;&gt;5 -->
<g id="edge5" class="edge">
<title>4&#45;&gt;5</title>
<path fill="none" stroke="black" d="M27,-251.46C27,-245.24 27,-235.15 27,-226.39"/>
<polygon fill="black" stroke="black" points="30.5,-226.6 27,-216.6 23.5,-226.6 30.5,-226.6"/>
</g>
<!-- 6 -->
<g id="node7" class="node">
<title>6</title>
<text text-anchor="middle" x="27" y="-151.7" font-family="Times,serif" font-size="14.00">&lt;digit&gt;</text>
</g>
<!-- 5&#45;&gt;6 -->
<g id="edge6" class="edge">
<title>5&#45;&gt;6</title>
<path fill="none" stroke="black" d="M27,-201.21C27,-194.99 27,-184.9 27,-176.14"/>
<polygon fill="black" stroke="black" points="30.5,-176.35 27,-166.35 23.5,-176.35 30.5,-176.35"/>
</g>
<!-- 7 -->
<g id="node8" class="node">
<title>7</title>
<text text-anchor="middle" x="27" y="-101.45" font-family="Times,serif" font-size="14.00">7 (55)</text>
</g>
<!-- 6&#45;&gt;7 -->
<g id="edge7" class="edge">
<title>6&#45;&gt;7</title>
<path fill="none" stroke="black" d="M27,-150.96C27,-144.74 27,-134.65 27,-125.89"/>
<polygon fill="black" stroke="black" points="30.5,-126.1 27,-116.1 23.5,-126.1 30.5,-126.1"/>
</g>
<!-- 10 -->
<g id="node11" class="node">
<title>10</title>
<text text-anchor="middle" x="107" y="-201.95" font-family="Times,serif" font-size="14.00">&lt;factor&gt;</text>
</g>
<!-- 9&#45;&gt;10 -->
<g id="edge10" class="edge">
<title>9&#45;&gt;10</title>
<path fill="none" stroke="black" d="M118.41,-251.46C116.71,-245.16 113.95,-234.92 111.57,-226.08"/>
<polygon fill="black" stroke="black" points="114.98,-225.3 109,-216.55 108.22,-227.12 114.98,-225.3"/>
</g>
<!-- 11 -->
<g id="node12" class="node">
<title>11</title>
<text text-anchor="middle" x="106" y="-151.7" font-family="Times,serif" font-size="14.00">&lt;integer&gt;</text>
</g>
<!-- 10&#45;&gt;11 -->
<g id="edge11" class="edge">
<title>10&#45;&gt;11</title>
<path fill="none" stroke="black" d="M106.88,-201.21C106.75,-194.99 106.54,-184.9 106.36,-176.14"/>
<polygon fill="black" stroke="black" points="109.86,-176.28 106.15,-166.35 102.86,-176.42 109.86,-176.28"/>
</g>
<!-- 12 -->
<g id="node13" class="node">
<title>12</title>
<text text-anchor="middle" x="106" y="-101.45" font-family="Times,serif" font-size="14.00">&lt;digit&gt;</text>
</g>
<!-- 11&#45;&gt;12 -->
<g id="edge12" class="edge">
<title>11&#45;&gt;12</title>
<path fill="none" stroke="black" d="M106,-150.96C106,-144.74 106,-134.65 106,-125.89"/>
<polygon fill="black" stroke="black" points="109.5,-126.1 106,-116.1 102.5,-126.1 109.5,-126.1"/>
</g>
<!-- 13 -->
<g id="node14" class="node">
<title>13</title>
<text text-anchor="middle" x="106" y="-51.2" font-family="Times,serif" font-size="14.00">5 (53)</text>
</g>
<!-- 12&#45;&gt;13 -->
<g id="edge13" class="edge">
<title>12&#45;&gt;13</title>
<path fill="none" stroke="black" d="M106,-100.71C106,-94.49 106,-84.4 106,-75.64"/>
<polygon fill="black" stroke="black" points="109.5,-75.85 106,-65.85 102.5,-75.85 109.5,-75.85"/>
</g>
<!-- 16 -->
<g id="node17" class="node">
<title>16</title>
<text text-anchor="middle" x="225" y="-252.2" font-family="Times,serif" font-size="14.00">&lt;term&gt;</text>
</g>
<!-- 15&#45;&gt;16 -->
<g id="edge16" class="edge">
<title>15&#45;&gt;16</title>
<path fill="none" stroke="black" d="M225,-301.71C225,-295.49 225,-285.4 225,-276.64"/>
<polygon fill="black" stroke="black" points="228.5,-276.85 225,-266.85 221.5,-276.85 228.5,-276.85"/>
</g>
<!-- 17 -->
<g id="node18" class="node">
<title>17</title>
<text text-anchor="middle" x="176" y="-201.95" font-family="Times,serif" font-size="14.00">&lt;factor&gt;</text>
</g>
<!-- 16&#45;&gt;17 -->
<g id="edge17" class="edge">
<title>16&#45;&gt;17</title>
<path fill="none" stroke="black" d="M218.99,-251.46C211.86,-244.44 199.75,-232.51 190.19,-223.1"/>
<polygon fill="black" stroke="black" points="192.72,-220.67 183.14,-216.15 187.81,-225.66 192.72,-220.67"/>
</g>
<!-- 21 -->
<g id="node22" class="node">
<title>21</title>
<text text-anchor="middle" x="225" y="-201.95" font-family="Times,serif" font-size="14.00"> * </text>
</g>
<!-- 16&#45;&gt;21 -->
<g id="edge21" class="edge">
<title>16&#45;&gt;21</title>
<path fill="none" stroke="black" d="M225,-251.46C225,-245.24 225,-235.15 225,-226.39"/>
<polygon fill="black" stroke="black" points="228.5,-226.6 225,-216.6 221.5,-226.6 228.5,-226.6"/>
</g>
<!-- 22 -->
<g id="node23" class="node">
<title>22</title>
<text text-anchor="middle" x="271" y="-201.95" font-family="Times,serif" font-size="14.00">&lt;term&gt;</text>
</g>
<!-- 16&#45;&gt;22 -->
<g id="edge22" class="edge">
<title>16&#45;&gt;22</title>
<path fill="none" stroke="black" d="M230.64,-251.46C237.26,-244.51 248.47,-232.75 257.4,-223.39"/>
<polygon fill="black" stroke="black" points="259.9,-225.84 264.27,-216.19 254.84,-221.01 259.9,-225.84"/>
</g>
<!-- 18 -->
<g id="node19" class="node">
<title>18</title>
<text text-anchor="middle" x="178" y="-151.7" font-family="Times,serif" font-size="14.00">&lt;integer&gt;</text>
</g>
<!-- 17&#45;&gt;18 -->
<g id="edge18" class="edge">
<title>17&#45;&gt;18</title>
<path fill="none" stroke="black" d="M176.25,-201.21C176.5,-194.99 176.92,-184.9 177.28,-176.14"/>
<polygon fill="black" stroke="black" points="180.77,-176.49 177.69,-166.35 173.78,-176.2 180.77,-176.49"/>
</g>
<!-- 19 -->
<g id="node20" class="node">
<title>19</title>
<text text-anchor="middle" x="178" y="-101.45" font-family="Times,serif" font-size="14.00">&lt;digit&gt;</text>
</g>
<!-- 18&#45;&gt;19 -->
<g id="edge19" class="edge">
<title>18&#45;&gt;19</title>
<path fill="none" stroke="black" d="M178,-150.96C178,-144.74 178,-134.65 178,-125.89"/>
<polygon fill="black" stroke="black" points="181.5,-126.1 178,-116.1 174.5,-126.1 181.5,-126.1"/>
</g>
<!-- 20 -->
<g id="node21" class="node">
<title>20</title>
<text text-anchor="middle" x="178" y="-51.2" font-family="Times,serif" font-size="14.00">4 (52)</text>
</g>
<!-- 19&#45;&gt;20 -->
<g id="edge20" class="edge">
<title>19&#45;&gt;20</title>
<path fill="none" stroke="black" d="M178,-100.71C178,-94.49 178,-84.4 178,-75.64"/>
<polygon fill="black" stroke="black" points="181.5,-75.85 178,-65.85 174.5,-75.85 181.5,-75.85"/>
</g>
<!-- 23 -->
<g id="node24" class="node">
<title>23</title>
<text text-anchor="middle" x="271" y="-151.7" font-family="Times,serif" font-size="14.00">&lt;factor&gt;</text>
</g>
<!-- 22&#45;&gt;23 -->
<g id="edge23" class="edge">
<title>22&#45;&gt;23</title>
<path fill="none" stroke="black" d="M271,-201.21C271,-194.99 271,-184.9 271,-176.14"/>
<polygon fill="black" stroke="black" points="274.5,-176.35 271,-166.35 267.5,-176.35 274.5,-176.35"/>
</g>
<!-- 24 -->
<g id="node25" class="node">
<title>24</title>
<text text-anchor="middle" x="271" y="-101.45" font-family="Times,serif" font-size="14.00">&lt;integer&gt;</text>
</g>
<!-- 23&#45;&gt;24 -->
<g id="edge24" class="edge">
<title>23&#45;&gt;24</title>
<path fill="none" stroke="black" d="M271,-150.96C271,-144.74 271,-134.65 271,-125.89"/>
<polygon fill="black" stroke="black" points="274.5,-126.1 271,-116.1 267.5,-126.1 274.5,-126.1"/>
</g>
<!-- 25 -->
<g id="node26" class="node">
<title>25</title>
<text text-anchor="middle" x="271" y="-51.2" font-family="Times,serif" font-size="14.00">&lt;digit&gt;</text>
</g>
<!-- 24&#45;&gt;25 -->
<g id="edge25" class="edge">
<title>24&#45;&gt;25</title>
<path fill="none" stroke="black" d="M271,-100.71C271,-94.49 271,-84.4 271,-75.64"/>
<polygon fill="black" stroke="black" points="274.5,-75.85 271,-65.85 267.5,-75.85 274.5,-75.85"/>
</g>
<!-- 26 -->
<g id="node27" class="node">
<title>26</title>
<text text-anchor="middle" x="271" y="-0.95" font-family="Times,serif" font-size="14.00">2 (50)</text>
</g>
<!-- 25&#45;&gt;26 -->
<g id="edge26" class="edge">
<title>25&#45;&gt;26</title>
<path fill="none" stroke="black" d="M271,-50.46C271,-44.24 271,-34.15 271,-25.39"/>
<polygon fill="black" stroke="black" points="274.5,-25.6 271,-15.6 267.5,-25.6 274.5,-25.6"/>
</g>
<!-- 29 -->
<g id="node30" class="node">
<title>29</title>
<text text-anchor="middle" x="289" y="-302.45" font-family="Times,serif" font-size="14.00">&lt;factor&gt;</text>
</g>
<!-- 28&#45;&gt;29 -->
<g id="edge29" class="edge">
<title>28&#45;&gt;29</title>
<path fill="none" stroke="black" d="M285.49,-351.96C286.01,-345.74 286.84,-335.65 287.57,-326.89"/>
<polygon fill="black" stroke="black" points="291.04,-327.35 288.38,-317.1 284.07,-326.77 291.04,-327.35"/>
</g>
<!-- 30 -->
<g id="node31" class="node">
<title>30</title>
<text text-anchor="middle" x="311" y="-252.2" font-family="Times,serif" font-size="14.00">&lt;integer&gt;</text>
</g>
<!-- 29&#45;&gt;30 -->
<g id="edge30" class="edge">
<title>29&#45;&gt;30</title>
<path fill="none" stroke="black" d="M291.7,-301.71C294.63,-295.27 299.46,-284.69 303.55,-275.72"/>
<polygon fill="black" stroke="black" points="306.69,-277.27 307.65,-266.72 300.32,-274.36 306.69,-277.27"/>
</g>
<!-- 31 -->
<g id="node32" class="node">
<title>31</title>
<text text-anchor="middle" x="331" y="-201.95" font-family="Times,serif" font-size="14.00">&lt;digit&gt;</text>
</g>
<!-- 30&#45;&gt;31 -->
<g id="edge31" class="edge">
<title>30&#45;&gt;31</title>
<path fill="none" stroke="black" d="M313.45,-251.46C316.12,-245.02 320.51,-234.44 324.22,-225.47"/>
<polygon fill="black" stroke="black" points="327.35,-227.07 327.95,-216.49 320.89,-224.39 327.35,-227.07"/>
</g>
<!-- 32 -->
<g id="node33" class="node">
<title>32</title>
<text text-anchor="middle" x="331" y="-151.7" font-family="Times,serif" font-size="14.00">0 (48)</text>
</g>
<!-- 31&#45;&gt;32 -->
<g id="edge32" class="edge">
<title>31&#45;&gt;32</title>
<path fill="none" stroke="black" d="M331,-201.21C331,-194.99 331,-184.9 331,-176.14"/>
<polygon fill="black" stroke="black" points="334.5,-176.35 331,-166.35 327.5,-176.35 334.5,-176.35"/>
</g>
</g>
</svg>