<svg xmlns="http://www.w3.org/2000/svg" class="railroad-diagram" height="618" viewBox="0 0 611.0 618" width="611.0">
<g transform="translate(.5 .5)">
<style>/* <![CDATA[ */
    svg.railroad-diagram {
    }
    svg.railroad-diagram path {
        stroke-width:3;
        stroke:black;
        fill:white;
    }
    svg.railroad-diagram text {
        font:14px "Fira Mono", monospace;
        text-anchor:middle;
    }
    svg.railroad-diagram text.label{
        text-anchor:start;
    }
    svg.railroad-diagram text.comment{
        font:italic 12px "Fira Mono", monospace;
    }
    svg.railroad-diagram rect{
        stroke-width:2;
        stroke:black;
        fill:mistyrose;
    }

/* ]]> */
</style><g>
<path d="M20 299v20m10 -20v20m-10 -10h20"/></g><g>
<path d="M40 309h0.0"/><path d="M571.0 309h0.0"/><path d="M40.0 309a10 10 0 0 0 10 -10v-269a10 10 0 0 1 10 -10h412.5"/><path d="M138.5 598h412.5a10 10 0 0 0 10 -10v-269a10 10 0 0 1 10 -10"/><path d="M40.0 309h10"/><g>
<path d="M50.0 309h0.0"/><path d="M118.5 309h0.0"/><path d="M50.0 309a10 10 0 0 0 10 -10v-10a10 10 0 0 1 10 -10"/><g>
<path d="M70.0 279h0.0"/><path d="M98.5 279h0.0"/><g class="terminal">
<path d="M70.0 279h0.0"/><path d="M98.5 279h0.0"/><rect height="22" rx="10" ry="10" width="28.5" x="70.0" y="268"/><text x="84.25" y="283">i</text></g></g><path d="M98.5 279a10 10 0 0 1 10 10v10a10 10 0 0 0 10 10"/><path d="M50.0 309a10 10 0 0 0 10 -10v-40a10 10 0 0 1 10 -10"/><g>
<path d="M70.0 249h0.0"/><path d="M98.5 249h0.0"/><g class="terminal">
<path d="M70.0 249h0.0"/><path d="M98.5 249h0.0"/><rect height="22" rx="10" ry="10" width="28.5" x="70.0" y="238"/><text x="84.25" y="253">h</text></g></g><path d="M98.5 249a10 10 0 0 1 10 10v40a10 10 0 0 0 10 10"/><path d="M50.0 309a10 10 0 0 0 10 -10v-70a10 10 0 0 1 10 -10"/><g>
<path d="M70.0 219h0.0"/><path d="M98.5 219h0.0"/><g class="terminal">
<path d="M70.0 219h0.0"/><path d="M98.5 219h0.0"/><rect height="22" rx="10" ry="10" width="28.5" x="70.0" y="208"/><text x="84.25" y="223">g</text></g></g><path d="M98.5 219a10 10 0 0 1 10 10v70a10 10 0 0 0 10 10"/><path d="M50.0 309a10 10 0 0 0 10 -10v-100a10 10 0 0 1 10 -10"/><g>
<path d="M70.0 189h0.0"/><path d="M98.5 189h0.0"/><g class="terminal">
<path d="M70.0 189h0.0"/><path d="M98.5 189h0.0"/><rect height="22" rx="10" ry="10" width="28.5" x="70.0" y="178"/><text x="84.25" y="193">f</text></g></g><path d="M98.5 189a10 10 0 0 1 10 10v100a10 10 0 0 0 10 10"/><path d="M50.0 309a10 10 0 0 0 10 -10v-130a10 10 0 0 1 10 -10"/><g>
<path d="M70.0 159h0.0"/><path d="M98.5 159h0.0"/><g class="terminal">
<path d="M70.0 159h0.0"/><path d="M98.5 159h0.0"/><rect height="22" rx="10" ry="10" width="28.5" x="70.0" y="148"/><text x="84.25" y="163">e</text></g></g><path d="M98.5 159a10 10 0 0 1 10 10v130a10 10 0 0 0 10 10"/><path d="M50.0 309a10 10 0 0 0 10 -10v-160a10 10 0 0 1 10 -10"/><g>
<path d="M70.0 129h0.0"/><path d="M98.5 129h0.0"/><g class="terminal">
<path d="M70.0 129h0.0"/><path d="M98.5 129h0.0"/><rect height="22" rx="10" ry="10" width="28.5" x="70.0" y="118"/><text x="84.25" y="133">d</text></g></g><path d="M98.5 129a10 10 0 0 1 10 10v160a10 10 0 0 0 10 10"/><path d="M50.0 309a10 10 0 0 0 10 -10v-190a10 10 0 0 1 10 -10"/><g>
<path d="M70.0 99h0.0"/><path d="M98.5 99h0.0"/><g class="terminal">
<path d="M70.0 99h0.0"/><path d="M98.5 99h0.0"/><rect height="22" rx="10" ry="10" width="28.5" x="70.0" y="88"/><text x="84.25" y="103">c</text></g></g><path d="M98.5 99a10 10 0 0 1 10 10v190a10 10 0 0 0 10 10"/><path d="M50.0 309a10 10 0 0 0 10 -10v-220a10 10 0 0 1 10 -10"/><g>
<path d="M70.0 69h0.0"/><path d="M98.5 69h0.0"/><g class="terminal">
<path d="M70.0 69h0.0"/><path d="M98.5 69h0.0"/><rect height="22" rx="10" ry="10" width="28.5" x="70.0" y="58"/><text x="84.25" y="73">b</text></g></g><path d="M98.5 69a10 10 0 0 1 10 10v220a10 10 0 0 0 10 10"/><path d="M50.0 309a10 10 0 0 0 10 -10v-250a10 10 0 0 1 10 -10"/><g>
<path d="M70.0 39h0.0"/><path d="M98.5 39h0.0"/><g class="terminal">
<path d="M70.0 39h0.0"/><path d="M98.5 39h0.0"/><rect height="22" rx="10" ry="10" width="28.5" x="70.0" y="28"/><text x="84.25" y="43">a</text></g></g><path d="M98.5 39a10 10 0 0 1 10 10v250a10 10 0 0 0 10 10"/><path d="M50.0 309h20"/><g>
<path d="M70.0 309h0.0"/><path d="M98.5 309h0.0"/><g class="terminal">
<path d="M70.0 309h0.0"/><path d="M98.5 309h0.0"/><rect height="22" rx="10" ry="10" width="28.5" x="70.0" y="298"/><text x="84.25" y="313">j</text></g></g><path d="M98.5 309h20"/><path d="M50.0 309a10 10 0 0 1 10 10v10a10 10 0 0 0 10 10"/><g>
<path d="M70.0 339h0.0"/><path d="M98.5 339h0.0"/><g class="terminal">
<path d="M70.0 339h0.0"/><path d="M98.5 339h0.0"/><rect height="22" rx="10" ry="10" width="28.5" x="70.0" y="328"/><text x="84.25" y="343">k</text></g></g><path d="M98.5 339a10 10 0 0 0 10 -10v-10a10 10 0 0 1 10 -10"/><path d="M50.0 309a10 10 0 0 1 10 10v40a10 10 0 0 0 10 10"/><g>
<path d="M70.0 369h0.0"/><path d="M98.5 369h0.0"/><g class="terminal">
<path d="M70.0 369h0.0"/><path d="M98.5 369h0.0"/><rect height="22" rx="10" ry="10" width="28.5" x="70.0" y="358"/><text x="84.25" y="373">l</text></g></g><path d="M98.5 369a10 10 0 0 0 10 -10v-40a10 10 0 0 1 10 -10"/><path d="M50.0 309a10 10 0 0 1 10 10v70a10 10 0 0 0 10 10"/><g>
<path d="M70.0 399h0.0"/><path d="M98.5 399h0.0"/><g class="terminal">
<path d="M70.0 399h0.0"/><path d="M98.5 399h0.0"/><rect height="22" rx="10" ry="10" width="28.5" x="70.0" y="388"/><text x="84.25" y="403">m</text></g></g><path d="M98.5 399a10 10 0 0 0 10 -10v-70a10 10 0 0 1 10 -10"/><path d="M50.0 309a10 10 0 0 1 10 10v100a10 10 0 0 0 10 10"/><g>
<path d="M70.0 429h0.0"/><path d="M98.5 429h0.0"/><g class="terminal">
<path d="M70.0 429h0.0"/><path d="M98.5 429h0.0"/><rect height="22" rx="10" ry="10" width="28.5" x="70.0" y="418"/><text x="84.25" y="433">n</text></g></g><path d="M98.5 429a10 10 0 0 0 10 -10v-100a10 10 0 0 1 10 -10"/><path d="M50.0 309a10 10 0 0 1 10 10v130a10 10 0 0 0 10 10"/><g>
<path d="M70.0 459h0.0"/><path d="M98.5 459h0.0"/><g class="terminal">
<path d="M70.0 459h0.0"/><path d="M98.5 459h0.0"/><rect height="22" rx="10" ry="10" width="28.5" x="70.0" y="448"/><text x="84.25" y="463">o</text></g></g><path d="M98.5 459a10 10 0 0 0 10 -10v-130a10 10 0 0 1 10 -10"/><path d="M50.0 309a10 10 0 0 1 10 10v160a10 10 0 0 0 10 10"/><g>
<path d="M70.0 489h0.0"/><path d="M98.5 489h0.0"/><g class="terminal">
<path d="M70.0 489h0.0"/><path d="M98.5 489h0.0"/><rect height="22" rx="10" ry="10" width="28.5" x="70.0" y="478"/><text x="84.25" y="493">p</text></g></g><path d="M98.5 489a10 10 0 0 0 10 -10v-160a10 10 0 0 1 10 -10"/><path d="M50.0 309a10 10 0 0 1 10 10v190a10 10 0 0 0 10 10"/><g>
<path d="M70.0 519h0.0"/><path d="M98.5 519h0.0"/><g class="terminal">
<path d="M70.0 519h0.0"/><path d="M98.5 519h0.0"/><rect height="22" rx="10" ry="10" width="28.5" x="70.0" y="508"/><text x="84.25" y="523">q</text></g></g><path d="M98.5 519a10 10 0 0 0 10 -10v-190a10 10 0 0 1 10 -10"/><path d="M50.0 309a10 10 0 0 1 10 10v220a10 10 0 0 0 10 10"/><g>
<path d="M70.0 549h0.0"/><path d="M98.5 549h0.0"/><g class="terminal">
<path d="M70.0 549h0.0"/><path d="M98.5 549h0.0"/><rect height="22" rx="10" ry="10" width="28.5" x="70.0" y="538"/><text x="84.25" y="553">r</text></g></g><path d="M98.5 549a10 10 0 0 0 10 -10v-220a10 10 0 0 1 10 -10"/><path d="M50.0 309a10 10 0 0 1 10 10v250a10 10 0 0 0 10 10"/><g>
<path d="M70.0 579h0.0"/><path d="M98.5 579h0.0"/><g class="terminal">
<path d="M70.0 579h0.0"/><path d="M98.5 579h0.0"/><rect height="22" rx="10" ry="10" width="28.5" x="70.0" y="568"/><text x="84.25" y="583">s</text></g></g><path d="M98.5 579a10 10 0 0 0 10 -10v-250a10 10 0 0 1 10 -10"/></g><path d="M118.5 309a10 10 0 0 1 10 10v269a10 10 0 0 0 10 10"/><path d="M118.5 20a10 10 0 0 1 10 10v269a10 10 0 0 0 10 10"/><g>
<path d="M138.5 309h0.0"/><path d="M207.0 309h0.0"/><path d="M138.5 309a10 10 0 0 0 10 -10v-10a10 10 0 0 1 10 -10"/><g>
<path d="M158.5 279h0.0"/><path d="M187.0 279h0.0"/><g class="terminal">
<path d="M158.5 279h0.0"/><path d="M187.0 279h0.0"/><rect height="22" rx="10" ry="10" width="28.5" x="158.5" y="268"/><text x="172.75" y="283">B</text></g></g><path d="M187.0 279a10 10 0 0 1 10 10v10a10 10 0 0 0 10 10"/><path d="M138.5 309a10 10 0 0 0 10 -10v-40a10 10 0 0 1 10 -10"/><g>
<path d="M158.5 249h0.0"/><path d="M187.0 249h0.0"/><g class="terminal">
<path d="M158.5 249h0.0"/><path d="M187.0 249h0.0"/><rect height="22" rx="10" ry="10" width="28.5" x="158.5" y="238"/><text x="172.75" y="253">A</text></g></g><path d="M187.0 249a10 10 0 0 1 10 10v40a10 10 0 0 0 10 10"/><path d="M138.5 309a10 10 0 0 0 10 -10v-70a10 10 0 0 1 10 -10"/><g>
<path d="M158.5 219h0.0"/><path d="M187.0 219h0.0"/><g class="terminal">
<path d="M158.5 219h0.0"/><path d="M187.0 219h0.0"/><rect height="22" rx="10" ry="10" width="28.5" x="158.5" y="208"/><text x="172.75" y="223">z</text></g></g><path d="M187.0 219a10 10 0 0 1 10 10v70a10 10 0 0 0 10 10"/><path d="M138.5 309a10 10 0 0 0 10 -10v-100a10 10 0 0 1 10 -10"/><g>
<path d="M158.5 189h0.0"/><path d="M187.0 189h0.0"/><g class="terminal">
<path d="M158.5 189h0.0"/><path d="M187.0 189h0.0"/><rect height="22" rx="10" ry="10" width="28.5" x="158.5" y="178"/><text x="172.75" y="193">y</text></g></g><path d="M187.0 189a10 10 0 0 1 10 10v100a10 10 0 0 0 10 10"/><path d="M138.5 309a10 10 0 0 0 10 -10v-130a10 10 0 0 1 10 -10"/><g>
<path d="M158.5 159h0.0"/><path d="M187.0 159h0.0"/><g class="terminal">
<path d="M158.5 159h0.0"/><path d="M187.0 159h0.0"/><rect height="22" rx="10" ry="10" width="28.5" x="158.5" y="148"/><text x="172.75" y="163">x</text></g></g><path d="M187.0 159a10 10 0 0 1 10 10v130a10 10 0 0 0 10 10"/><path d="M138.5 309a10 10 0 0 0 10 -10v-160a10 10 0 0 1 10 -10"/><g>
<path d="M158.5 129h0.0"/><path d="M187.0 129h0.0"/><g class="terminal">
<path d="M158.5 129h0.0"/><path d="M187.0 129h0.0"/><rect height="22" rx="10" ry="10" width="28.5" x="158.5" y="118"/><text x="172.75" y="133">w</text></g></g><path d="M187.0 129a10 10 0 0 1 10 10v160a10 10 0 0 0 10 10"/><path d="M138.5 309a10 10 0 0 0 10 -10v-190a10 10 0 0 1 10 -10"/><g>
<path d="M158.5 99h0.0"/><path d="M187.0 99h0.0"/><g class="terminal">
<path d="M158.5 99h0.0"/><path d="M187.0 99h0.0"/><rect height="22" rx="10" ry="10" width="28.5" x="158.5" y="88"/><text x="172.75" y="103">v</text></g></g><path d="M187.0 99a10 10 0 0 1 10 10v190a10 10 0 0 0 10 10"/><path d="M138.5 309a10 10 0 0 0 10 -10v-220a10 10 0 0 1 10 -10"/><g>
<path d="M158.5 69h0.0"/><path d="M187.0 69h0.0"/><g class="terminal">
<path d="M158.5 69h0.0"/><path d="M187.0 69h0.0"/><rect height="22" rx="10" ry="10" width="28.5" x="158.5" y="58"/><text x="172.75" y="73">u</text></g></g><path d="M187.0 69a10 10 0 0 1 10 10v220a10 10 0 0 0 10 10"/><path d="M138.5 309a10 10 0 0 0 10 -10v-250a10 10 0 0 1 10 -10"/><g>
<path d="M158.5 39h0.0"/><path d="M187.0 39h0.0"/><g class="terminal">
<path d="M158.5 39h0.0"/><path d="M187.0 39h0.0"/><rect height="22" rx="10" ry="10" width="28.5" x="158.5" y="28"/><text x="172.75" y="43">t</text></g></g><path d="M187.0 39a10 10 0 0 1 10 10v250a10 10 0 0 0 10 10"/><path d="M138.5 309h20"/><g>
<path d="M158.5 309h0.0"/><path d="M187.0 309h0.0"/><g class="terminal">
<path d="M158.5 309h0.0"/><path d="M187.0 309h0.0"/><rect height="22" rx="10" ry="10" width="28.5" x="158.5" y="298"/><text x="172.75" y="313">C</text></g></g><path d="M187.0 309h20"/><path d="M138.5 309a10 10 0 0 1 10 10v10a10 10 0 0 0 10 10"/><g>
<path d="M158.5 339h0.0"/><path d="M187.0 339h0.0"/><g class="terminal">
<path d="M158.5 339h0.0"/><path d="M187.0 339h0.0"/><rect height="22" rx="10" ry="10" width="28.5" x="158.5" y="328"/><text x="172.75" y="343">D</text></g></g><path d="M187.0 339a10 10 0 0 0 10 -10v-10a10 10 0 0 1 10 -10"/><path d="M138.5 309a10 10 0 0 1 10 10v40a10 10 0 0 0 10 10"/><g>
<path d="M158.5 369h0.0"/><path d="M187.0 369h0.0"/><g class="terminal">
<path d="M158.5 369h0.0"/><path d="M187.0 369h0.0"/><rect height="22" rx="10" ry="10" width="28.5" x="158.5" y="358"/><text x="172.75" y="373">E</text></g></g><path d="M187.0 369a10 10 0 0 0 10 -10v-40a10 10 0 0 1 10 -10"/><path d="M138.5 309a10 10 0 0 1 10 10v70a10 10 0 0 0 10 10"/><g>
<path d="M158.5 399h0.0"/><path d="M187.0 399h0.0"/><g class="terminal">
<path d="M158.5 399h0.0"/><path d="M187.0 399h0.0"/><rect height="22" rx="10" ry="10" width="28.5" x="158.5" y="388"/><text x="172.75" y="403">F</text></g></g><path d="M187.0 399a10 10 0 0 0 10 -10v-70a10 10 0 0 1 10 -10"/><path d="M138.5 309a10 10 0 0 1 10 10v100a10 10 0 0 0 10 10"/><g>
<path d="M158.5 429h0.0"/><path d="M187.0 429h0.0"/><g class="terminal">
<path d="M158.5 429h0.0"/><path d="M187.0 429h0.0"/><rect height="22" rx="10" ry="10" width="28.5" x="158.5" y="418"/><text x="172.75" y="433">G</text></g></g><path d="M187.0 429a10 10 0 0 0 10 -10v-100a10 10 0 0 1 10 -10"/><path d="M138.5 309a10 10 0 0 1 10 10v130a10 10 0 0 0 10 10"/><g>
<path d="M158.5 459h0.0"/><path d="M187.0 459h0.0"/><g class="terminal">
<path d="M158.5 459h0.0"/><path d="M187.0 459h0.0"/><rect height="22" rx="10" ry="10" width="28.5" x="158.5" y="448"/><text x="172.75" y="463">H</text></g></g><path d="M187.0 459a10 10 0 0 0 10 -10v-130a10 10 0 0 1 10 -10"/><path d="M138.5 309a10 10 0 0 1 10 10v160a10 10 0 0 0 10 10"/><g>
<path d="M158.5 489h0.0"/><path d="M187.0 489h0.0"/><g class="terminal">
<path d="M158.5 489h0.0"/><path d="M187.0 489h0.0"/><rect height="22" rx="10" ry="10" width="28.5" x="158.5" y="478"/><text x="172.75" y="493">I</text></g></g><path d="M187.0 489a10 10 0 0 0 10 -10v-160a10 10 0 0 1 10 -10"/><path d="M138.5 309a10 10 0 0 1 10 10v190a10 10 0 0 0 10 10"/><g>
<path d="M158.5 519h0.0"/><path d="M187.0 519h0.0"/><g class="terminal">
<path d="M158.5 519h0.0"/><path d="M187.0 519h0.0"/><rect height="22" rx="10" ry="10" width="28.5" x="158.5" y="508"/><text x="172.75" y="523">J</text></g></g><path d="M187.0 519a10 10 0 0 0 10 -10v-190a10 10 0 0 1 10 -10"/><path d="M138.5 309a10 10 0 0 1 10 10v220a10 10 0 0 0 10 10"/><g>
<path d="M158.5 549h0.0"/><path d="M187.0 549h0.0"/><g class="terminal">
<path d="M158.5 549h0.0"/><path d="M187.0 549h0.0"/><rect height="22" rx="10" ry="10" width="28.5" x="158.5" y="538"/><text x="172.75" y="553">K</text></g></g><path d="M187.0 549a10 10 0 0 0 10 -10v-220a10 10 0 0 1 10 -10"/><path d="M138.5 309a10 10 0 0 1 10 10v250a10 10 0 0 0 10 10"/><g>
<path d="M158.5 579h0.0"/><path d="M187.0 579h0.0"/><g class="terminal">
<path d="M158.5 579h0.0"/><path d="M187.0 579h0.0"/><rect height="22" rx="10" ry="10" width="28.5" x="158.5" y="568"/><text x="172.75" y="583">L</text></g></g><path d="M187.0 579a10 10 0 0 0 10 -10v-250a10 10 0 0 1 10 -10"/></g><path d="M207.0 309a10 10 0 0 1 10 10v269a10 10 0 0 0 10 10"/><path d="M207.0 20a10 10 0 0 1 10 10v269a10 10 0 0 0 10 10"/><g>
<path d="M227.0 309h0.0"/><path d="M295.5 309h0.0"/><path d="M227.0 309a10 10 0 0 0 10 -10v-10a10 10 0 0 1 10 -10"/><g>
<path d="M247.0 279h0.0"/><path d="M275.5 279h0.0"/><g class="terminal">
<path d="M247.0 279h0.0"/><path d="M275.5 279h0.0"/><rect height="22" rx="10" ry="10" width="28.5" x="247.0" y="268"/><text x="261.25" y="283">U</text></g></g><path d="M275.5 279a10 10 0 0 1 10 10v10a10 10 0 0 0 10 10"/><path d="M227.0 309a10 10 0 0 0 10 -10v-40a10 10 0 0 1 10 -10"/><g>
<path d="M247.0 249h0.0"/><path d="M275.5 249h0.0"/><g class="terminal">
<path d="M247.0 249h0.0"/><path d="M275.5 249h0.0"/><rect height="22" rx="10" ry="10" width="28.5" x="247.0" y="238"/><text x="261.25" y="253">T</text></g></g><path d="M275.5 249a10 10 0 0 1 10 10v40a10 10 0 0 0 10 10"/><path d="M227.0 309a10 10 0 0 0 10 -10v-70a10 10 0 0 1 10 -10"/><g>
<path d="M247.0 219h0.0"/><path d="M275.5 219h0.0"/><g class="terminal">
<path d="M247.0 219h0.0"/><path d="M275.5 219h0.0"/><rect height="22" rx="10" ry="10" width="28.5" x="247.0" y="208"/><text x="261.25" y="223">S</text></g></g><path d="M275.5 219a10 10 0 0 1 10 10v70a10 10 0 0 0 10 10"/><path d="M227.0 309a10 10 0 0 0 10 -10v-100a10 10 0 0 1 10 -10"/><g>
<path d="M247.0 189h0.0"/><path d="M275.5 189h0.0"/><g class="terminal">
<path d="M247.0 189h0.0"/><path d="M275.5 189h0.0"/><rect height="22" rx="10" ry="10" width="28.5" x="247.0" y="178"/><text x="261.25" y="193">R</text></g></g><path d="M275.5 189a10 10 0 0 1 10 10v100a10 10 0 0 0 10 10"/><path d="M227.0 309a10 10 0 0 0 10 -10v-130a10 10 0 0 1 10 -10"/><g>
<path d="M247.0 159h0.0"/><path d="M275.5 159h0.0"/><g class="terminal">
<path d="M247.0 159h0.0"/><path d="M275.5 159h0.0"/><rect height="22" rx="10" ry="10" width="28.5" x="247.0" y="148"/><text x="261.25" y="163">Q</text></g></g><path d="M275.5 159a10 10 0 0 1 10 10v130a10 10 0 0 0 10 10"/><path d="M227.0 309a10 10 0 0 0 10 -10v-160a10 10 0 0 1 10 -10"/><g>
<path d="M247.0 129h0.0"/><path d="M275.5 129h0.0"/><g class="terminal">
<path d="M247.0 129h0.0"/><path d="M275.5 129h0.0"/><rect height="22" rx="10" ry="10" width="28.5" x="247.0" y="118"/><text x="261.25" y="133">P</text></g></g><path d="M275.5 129a10 10 0 0 1 10 10v160a10 10 0 0 0 10 10"/><path d="M227.0 309a10 10 0 0 0 10 -10v-190a10 10 0 0 1 10 -10"/><g>
<path d="M247.0 99h0.0"/><path d="M275.5 99h0.0"/><g class="terminal">
<path d="M247.0 99h0.0"/><path d="M275.5 99h0.0"/><rect height="22" rx="10" ry="10" width="28.5" x="247.0" y="88"/><text x="261.25" y="103">O</text></g></g><path d="M275.5 99a10 10 0 0 1 10 10v190a10 10 0 0 0 10 10"/><path d="M227.0 309a10 10 0 0 0 10 -10v-220a10 10 0 0 1 10 -10"/><g>
<path d="M247.0 69h0.0"/><path d="M275.5 69h0.0"/><g class="terminal">
<path d="M247.0 69h0.0"/><path d="M275.5 69h0.0"/><rect height="22" rx="10" ry="10" width="28.5" x="247.0" y="58"/><text x="261.25" y="73">N</text></g></g><path d="M275.5 69a10 10 0 0 1 10 10v220a10 10 0 0 0 10 10"/><path d="M227.0 309a10 10 0 0 0 10 -10v-250a10 10 0 0 1 10 -10"/><g>
<path d="M247.0 39h0.0"/><path d="M275.5 39h0.0"/><g class="terminal">
<path d="M247.0 39h0.0"/><path d="M275.5 39h0.0"/><rect height="22" rx="10" ry="10" width="28.5" x="247.0" y="28"/><text x="261.25" y="43">M</text></g></g><path d="M275.5 39a10 10 0 0 1 10 10v250a10 10 0 0 0 10 10"/><path d="M227.0 309h20"/><g>
<path d="M247.0 309h0.0"/><path d="M275.5 309h0.0"/><g class="terminal">
<path d="M247.0 309h0.0"/><path d="M275.5 309h0.0"/><rect height="22" rx="10" ry="10" width="28.5" x="247.0" y="298"/><text x="261.25" y="313">V</text></g></g><path d="M275.5 309h20"/><path d="M227.0 309a10 10 0 0 1 10 10v10a10 10 0 0 0 10 10"/><g>
<path d="M247.0 339h0.0"/><path d="M275.5 339h0.0"/><g class="terminal">
<path d="M247.0 339h0.0"/><path d="M275.5 339h0.0"/><rect height="22" rx="10" ry="10" width="28.5" x="247.0" y="328"/><text x="261.25" y="343">W</text></g></g><path d="M275.5 339a10 10 0 0 0 10 -10v-10a10 10 0 0 1 10 -10"/><path d="M227.0 309a10 10 0 0 1 10 10v40a10 10 0 0 0 10 10"/><g>
<path d="M247.0 369h0.0"/><path d="M275.5 369h0.0"/><g class="terminal">
<path d="M247.0 369h0.0"/><path d="M275.5 369h0.0"/><rect height="22" rx="10" ry="10" width="28.5" x="247.0" y="358"/><text x="261.25" y="373">X</text></g></g><path d="M275.5 369a10 10 0 0 0 10 -10v-40a10 10 0 0 1 10 -10"/><path d="M227.0 309a10 10 0 0 1 10 10v70a10 10 0 0 0 10 10"/><g>
<path d="M247.0 399h0.0"/><path d="M275.5 399h0.0"/><g class="terminal">
<path d="M247.0 399h0.0"/><path d="M275.5 399h0.0"/><rect height="22" rx="10" ry="10" width="28.5" x="247.0" y="388"/><text x="261.25" y="403">Y</text></g></g><path d="M275.5 399a10 10 0 0 0 10 -10v-70a10 10 0 0 1 10 -10"/><path d="M227.0 309a10 10 0 0 1 10 10v100a10 10 0 0 0 10 10"/><g>
<path d="M247.0 429h0.0"/><path d="M275.5 429h0.0"/><g class="terminal">
<path d="M247.0 429h0.0"/><path d="M275.5 429h0.0"/><rect height="22" rx="10" ry="10" width="28.5" x="247.0" y="418"/><text x="261.25" y="433">Z</text></g></g><path d="M275.5 429a10 10 0 0 0 10 -10v-100a10 10 0 0 1 10 -10"/><path d="M227.0 309a10 10 0 0 1 10 10v130a10 10 0 0 0 10 10"/><g>
<path d="M247.0 459h0.0"/><path d="M275.5 459h0.0"/><g class="terminal">
<path d="M247.0 459h0.0"/><path d="M275.5 459h0.0"/><rect height="22" rx="10" ry="10" width="28.5" x="247.0" y="448"/><text x="261.25" y="463">0</text></g></g><path d="M275.5 459a10 10 0 0 0 10 -10v-130a10 10 0 0 1 10 -10"/><path d="M227.0 309a10 10 0 0 1 10 10v160a10 10 0 0 0 10 10"/><g>
<path d="M247.0 489h0.0"/><path d="M275.5 489h0.0"/><g class="terminal">
<path d="M247.0 489h0.0"/><path d="M275.5 489h0.0"/><rect height="22" rx="10" ry="10" width="28.5" x="247.0" y="478"/><text x="261.25" y="493">1</text></g></g><path d="M275.5 489a10 10 0 0 0 10 -10v-160a10 10 0 0 1 10 -10"/><path d="M227.0 309a10 10 0 0 1 10 10v190a10 10 0 0 0 10 10"/><g>
<path d="M247.0 519h0.0"/><path d="M275.5 519h0.0"/><g class="terminal">
<path d="M247.0 519h0.0"/><path d="M275.5 519h0.0"/><rect height="22" rx="10" ry="10" width="28.5" x="247.0" y="508"/><text x="261.25" y="523">2</text></g></g><path d="M275.5 519a10 10 0 0 0 10 -10v-190a10 10 0 0 1 10 -10"/><path d="M227.0 309a10 10 0 0 1 10 10v220a10 10 0 0 0 10 10"/><g>
<path d="M247.0 549h0.0"/><path d="M275.5 549h0.0"/><g class="terminal">
<path d="M247.0 549h0.0"/><path d="M275.5 549h0.0"/><rect height="22" rx="10" ry="10" width="28.5" x="247.0" y="538"/><text x="261.25" y="553">3</text></g></g><path d="M275.5 549a10 10 0 0 0 10 -10v-220a10 10 0 0 1 10 -10"/><path d="M227.0 309a10 10 0 0 1 10 10v250a10 10 0 0 0 10 10"/><g>
<path d="M247.0 579h0.0"/><path d="M275.5 579h0.0"/><g class="terminal">
<path d="M247.0 579h0.0"/><path d="M275.5 579h0.0"/><rect height="22" rx="10" ry="10" width="28.5" x="247.0" y="568"/><text x="261.25" y="583">4</text></g></g><path d="M275.5 579a10 10 0 0 0 10 -10v-250a10 10 0 0 1 10 -10"/></g><path d="M295.5 309a10 10 0 0 1 10 10v269a10 10 0 0 0 10 10"/><path d="M295.5 20a10 10 0 0 1 10 10v269a10 10 0 0 0 10 10"/><g>
<path d="M315.5 309h0.0"/><path d="M384.0 309h0.0"/><path d="M315.5 309a10 10 0 0 0 10 -10v-10a10 10 0 0 1 10 -10"/><g>
<path d="M335.5 279h0.0"/><path d="M364.0 279h0.0"/><g class="terminal">
<path d="M335.5 279h0.0"/><path d="M364.0 279h0.0"/><rect height="22" rx="10" ry="10" width="28.5" x="335.5" y="268"/><text x="349.75" y="283">$</text></g></g><path d="M364.0 279a10 10 0 0 1 10 10v10a10 10 0 0 0 10 10"/><path d="M315.5 309a10 10 0 0 0 10 -10v-40a10 10 0 0 1 10 -10"/><g>
<path d="M335.5 249h0.0"/><path d="M364.0 249h0.0"/><g class="terminal">
<path d="M335.5 249h0.0"/><path d="M364.0 249h0.0"/><rect height="22" rx="10" ry="10" width="28.5" x="335.5" y="238"/><text x="349.75" y="253">#</text></g></g><path d="M364.0 249a10 10 0 0 1 10 10v40a10 10 0 0 0 10 10"/><path d="M315.5 309a10 10 0 0 0 10 -10v-70a10 10 0 0 1 10 -10"/><g>
<path d="M335.5 219h0.0"/><path d="M364.0 219h0.0"/><g class="terminal">
<path d="M335.5 219h0.0"/><path d="M364.0 219h0.0"/><rect height="22" rx="10" ry="10" width="28.5" x="335.5" y="208"/><text x="349.75" y="223">&quot;</text></g></g><path d="M364.0 219a10 10 0 0 1 10 10v70a10 10 0 0 0 10 10"/><path d="M315.5 309a10 10 0 0 0 10 -10v-100a10 10 0 0 1 10 -10"/><g>
<path d="M335.5 189h0.0"/><path d="M364.0 189h0.0"/><g class="terminal">
<path d="M335.5 189h0.0"/><path d="M364.0 189h0.0"/><rect height="22" rx="10" ry="10" width="28.5" x="335.5" y="178"/><text x="349.75" y="193">!</text></g></g><path d="M364.0 189a10 10 0 0 1 10 10v100a10 10 0 0 0 10 10"/><path d="M315.5 309a10 10 0 0 0 10 -10v-130a10 10 0 0 1 10 -10"/><g>
<path d="M335.5 159h0.0"/><path d="M364.0 159h0.0"/><g class="terminal">
<path d="M335.5 159h0.0"/><path d="M364.0 159h0.0"/><rect height="22" rx="10" ry="10" width="28.5" x="335.5" y="148"/><text x="349.75" y="163">9</text></g></g><path d="M364.0 159a10 10 0 0 1 10 10v130a10 10 0 0 0 10 10"/><path d="M315.5 309a10 10 0 0 0 10 -10v-160a10 10 0 0 1 10 -10"/><g>
<path d="M335.5 129h0.0"/><path d="M364.0 129h0.0"/><g class="terminal">
<path d="M335.5 129h0.0"/><path d="M364.0 129h0.0"/><rect height="22" rx="10" ry="10" width="28.5" x="335.5" y="118"/><text x="349.75" y="133">8</text></g></g><path d="M364.0 129a10 10 0 0 1 10 10v160a10 10 0 0 0 10 10"/><path d="M315.5 309a10 10 0 0 0 10 -10v-190a10 10 0 0 1 10 -10"/><g>
<path d="M335.5 99h0.0"/><path d="M364.0 99h0.0"/><g class="terminal">
<path d="M335.5 99h0.0"/><path d="M364.0 99h0.0"/><rect height="22" rx="10" ry="10" width="28.5" x="335.5" y="88"/><text x="349.75" y="103">7</text></g></g><path d="M364.0 99a10 10 0 0 1 10 10v190a10 10 0 0 0 10 10"/><path d="M315.5 309a10 10 0 0 0 10 -10v-220a10 10 0 0 1 10 -10"/><g>
<path d="M335.5 69h0.0"/><path d="M364.0 69h0.0"/><g class="terminal">
<path d="M335.5 69h0.0"/><path d="M364.0 69h0.0"/><rect height="22" rx="10" ry="10" width="28.5" x="335.5" y="58"/><text x="349.75" y="73">6</text></g></g><path d="M364.0 69a10 10 0 0 1 10 10v220a10 10 0 0 0 10 10"/><path d="M315.5 309a10 10 0 0 0 10 -10v-250a10 10 0 0 1 10 -10"/><g>
<path d="M335.5 39h0.0"/><path d="M364.0 39h0.0"/><g class="terminal">
<path d="M335.5 39h0.0"/><path d="M364.0 39h0.0"/><rect height="22" rx="10" ry="10" width="28.5" x="335.5" y="28"/><text x="349.75" y="43">5</text></g></g><path d="M364.0 39a10 10 0 0 1 10 10v250a10 10 0 0 0 10 10"/><path d="M315.5 309h20"/><g>
<path d="M335.5 309h0.0"/><path d="M364.0 309h0.0"/><g class="terminal">
<path d="M335.5 309h0.0"/><path d="M364.0 309h0.0"/><rect height="22" rx="10" ry="10" width="28.5" x="335.5" y="298"/><text x="349.75" y="313">%</text></g></g><path d="M364.0 309h20"/><path d="M315.5 309a10 10 0 0 1 10 10v10a10 10 0 0 0 10 10"/><g>
<path d="M335.5 339h0.0"/><path d="M364.0 339h0.0"/><g class="terminal">
<path d="M335.5 339h0.0"/><path d="M364.0 339h0.0"/><rect height="22" rx="10" ry="10" width="28.5" x="335.5" y="328"/><text x="349.75" y="343">&amp;</text></g></g><path d="M364.0 339a10 10 0 0 0 10 -10v-10a10 10 0 0 1 10 -10"/><path d="M315.5 309a10 10 0 0 1 10 10v40a10 10 0 0 0 10 10"/><g>
<path d="M335.5 369h0.0"/><path d="M364.0 369h0.0"/><g class="terminal">
<path d="M335.5 369h0.0"/><path d="M364.0 369h0.0"/><rect height="22" rx="10" ry="10" width="28.5" x="335.5" y="358"/><text x="349.75" y="373">'</text></g></g><path d="M364.0 369a10 10 0 0 0 10 -10v-40a10 10 0 0 1 10 -10"/><path d="M315.5 309a10 10 0 0 1 10 10v70a10 10 0 0 0 10 10"/><g>
<path d="M335.5 399h0.0"/><path d="M364.0 399h0.0"/><g class="terminal">
<path d="M335.5 399h0.0"/><path d="M364.0 399h0.0"/><rect height="22" rx="10" ry="10" width="28.5" x="335.5" y="388"/><text x="349.75" y="403">(</text></g></g><path d="M364.0 399a10 10 0 0 0 10 -10v-70a10 10 0 0 1 10 -10"/><path d="M315.5 309a10 10 0 0 1 10 10v100a10 10 0 0 0 10 10"/><g>
<path d="M335.5 429h0.0"/><path d="M364.0 429h0.0"/><g class="terminal">
<path d="M335.5 429h0.0"/><path d="M364.0 429h0.0"/><rect height="22" rx="10" ry="10" width="28.5" x="335.5" y="418"/><text x="349.75" y="433">)</text></g></g><path d="M364.0 429a10 10 0 0 0 10 -10v-100a10 10 0 0 1 10 -10"/><path d="M315.5 309a10 10 0 0 1 10 10v130a10 10 0 0 0 10 10"/><g>
<path d="M335.5 459h0.0"/><path d="M364.0 459h0.0"/><g class="terminal">
<path d="M335.5 459h0.0"/><path d="M364.0 459h0.0"/><rect height="22" rx="10" ry="10" width="28.5" x="335.5" y="448"/><text x="349.75" y="463">*</text></g></g><path d="M364.0 459a10 10 0 0 0 10 -10v-130a10 10 0 0 1 10 -10"/><path d="M315.5 309a10 10 0 0 1 10 10v160a10 10 0 0 0 10 10"/><g>
<path d="M335.5 489h0.0"/><path d="M364.0 489h0.0"/><g class="terminal">
<path d="M335.5 489h0.0"/><path d="M364.0 489h0.0"/><rect height="22" rx="10" ry="10" width="28.5" x="335.5" y="478"/><text x="349.75" y="493">+</text></g></g><path d="M364.0 489a10 10 0 0 0 10 -10v-160a10 10 0 0 1 10 -10"/><path d="M315.5 309a10 10 0 0 1 10 10v190a10 10 0 0 0 10 10"/><g>
<path d="M335.5 519h0.0"/><path d="M364.0 519h0.0"/><g class="terminal">
<path d="M335.5 519h0.0"/><path d="M364.0 519h0.0"/><rect height="22" rx="10" ry="10" width="28.5" x="335.5" y="508"/><text x="349.75" y="523">,</text></g></g><path d="M364.0 519a10 10 0 0 0 10 -10v-190a10 10 0 0 1 10 -10"/><path d="M315.5 309a10 10 0 0 1 10 10v220a10 10 0 0 0 10 10"/><g>
<path d="M335.5 549h0.0"/><path d="M364.0 549h0.0"/><g class="terminal">
<path d="M335.5 549h0.0"/><path d="M364.0 549h0.0"/><rect height="22" rx="10" ry="10" width="28.5" x="335.5" y="538"/><text x="349.75" y="553">-</text></g></g><path d="M364.0 549a10 10 0 0 0 10 -10v-220a10 10 0 0 1 10 -10"/><path d="M315.5 309a10 10 0 0 1 10 10v250a10 10 0 0 0 10 10"/><g>
<path d="M335.5 579h0.0"/><path d="M364.0 579h0.0"/><g class="terminal">
<path d="M335.5 579h0.0"/><path d="M364.0 579h0.0"/><rect height="22" rx="10" ry="10" width="28.5" x="335.5" y="568"/><text x="349.75" y="583">.</text></g></g><path d="M364.0 579a10 10 0 0 0 10 -10v-250a10 10 0 0 1 10 -10"/></g><path d="M384.0 309a10 10 0 0 1 10 10v269a10 10 0 0 0 10 10"/><path d="M384.0 20a10 10 0 0 1 10 10v269a10 10 0 0 0 10 10"/><g>
<path d="M404.0 309h0.0"/><path d="M472.5 309h0.0"/><path d="M404.0 309a10 10 0 0 0 10 -10v-10a10 10 0 0 1 10 -10"/><g>
<path d="M424.0 279h0.0"/><path d="M452.5 279h0.0"/><g class="terminal">
<path d="M424.0 279h0.0"/><path d="M452.5 279h0.0"/><rect height="22" rx="10" ry="10" width="28.5" x="424.0" y="268"/><text x="438.25" y="283">[</text></g></g><path d="M452.5 279a10 10 0 0 1 10 10v10a10 10 0 0 0 10 10"/><path d="M404.0 309a10 10 0 0 0 10 -10v-40a10 10 0 0 1 10 -10"/><g>
<path d="M424.0 249h0.0"/><path d="M452.5 249h0.0"/><g class="terminal">
<path d="M424.0 249h0.0"/><path d="M452.5 249h0.0"/><rect height="22" rx="10" ry="10" width="28.5" x="424.0" y="238"/><text x="438.25" y="253">@</text></g></g><path d="M452.5 249a10 10 0 0 1 10 10v40a10 10 0 0 0 10 10"/><path d="M404.0 309a10 10 0 0 0 10 -10v-70a10 10 0 0 1 10 -10"/><g>
<path d="M424.0 219h0.0"/><path d="M452.5 219h0.0"/><g class="terminal">
<path d="M424.0 219h0.0"/><path d="M452.5 219h0.0"/><rect height="22" rx="10" ry="10" width="28.5" x="424.0" y="208"/><text x="438.25" y="223">?</text></g></g><path d="M452.5 219a10 10 0 0 1 10 10v70a10 10 0 0 0 10 10"/><path d="M404.0 309a10 10 0 0 0 10 -10v-100a10 10 0 0 1 10 -10"/><g>
<path d="M424.0 189h0.0"/><path d="M452.5 189h0.0"/><g class="terminal">
<path d="M424.0 189h0.0"/><path d="M452.5 189h0.0"/><rect height="22" rx="10" ry="10" width="28.5" x="424.0" y="178"/><text x="438.25" y="193">&gt;</text></g></g><path d="M452.5 189a10 10 0 0 1 10 10v100a10 10 0 0 0 10 10"/><path d="M404.0 309a10 10 0 0 0 10 -10v-130a10 10 0 0 1 10 -10"/><g>
<path d="M424.0 159h0.0"/><path d="M452.5 159h0.0"/><g class="terminal">
<path d="M424.0 159h0.0"/><path d="M452.5 159h0.0"/><rect height="22" rx="10" ry="10" width="28.5" x="424.0" y="148"/><text x="438.25" y="163">=</text></g></g><path d="M452.5 159a10 10 0 0 1 10 10v130a10 10 0 0 0 10 10"/><path d="M404.0 309a10 10 0 0 0 10 -10v-160a10 10 0 0 1 10 -10"/><g>
<path d="M424.0 129h0.0"/><path d="M452.5 129h0.0"/><g class="terminal">
<path d="M424.0 129h0.0"/><path d="M452.5 129h0.0"/><rect height="22" rx="10" ry="10" width="28.5" x="424.0" y="118"/><text x="438.25" y="133">&lt;</text></g></g><path d="M452.5 129a10 10 0 0 1 10 10v160a10 10 0 0 0 10 10"/><path d="M404.0 309a10 10 0 0 0 10 -10v-190a10 10 0 0 1 10 -10"/><g>
<path d="M424.0 99h0.0"/><path d="M452.5 99h0.0"/><g class="terminal">
<path d="M424.0 99h0.0"/><path d="M452.5 99h0.0"/><rect height="22" rx="10" ry="10" width="28.5" x="424.0" y="88"/><text x="438.25" y="103">;</text></g></g><path d="M452.5 99a10 10 0 0 1 10 10v190a10 10 0 0 0 10 10"/><path d="M404.0 309a10 10 0 0 0 10 -10v-220a10 10 0 0 1 10 -10"/><g>
<path d="M424.0 69h0.0"/><path d="M452.5 69h0.0"/><g class="terminal">
<path d="M424.0 69h0.0"/><path d="M452.5 69h0.0"/><rect height="22" rx="10" ry="10" width="28.5" x="424.0" y="58"/><text x="438.25" y="73">:</text></g></g><path d="M452.5 69a10 10 0 0 1 10 10v220a10 10 0 0 0 10 10"/><path d="M404.0 309a10 10 0 0 0 10 -10v-250a10 10 0 0 1 10 -10"/><g>
<path d="M424.0 39h0.0"/><path d="M452.5 39h0.0"/><g class="terminal">
<path d="M424.0 39h0.0"/><path d="M452.5 39h0.0"/><rect height="22" rx="10" ry="10" width="28.5" x="424.0" y="28"/><text x="438.25" y="43">/</text></g></g><path d="M452.5 39a10 10 0 0 1 10 10v250a10 10 0 0 0 10 10"/><path d="M404.0 309h20"/><g>
<path d="M424.0 309h0.0"/><path d="M452.5 309h0.0"/><g class="terminal">
<path d="M424.0 309h0.0"/><path d="M452.5 309h0.0"/><rect height="22" rx="10" ry="10" width="28.5" x="424.0" y="298"/><text x="438.25" y="313">\</text></g></g><path d="M452.5 309h20"/><path d="M404.0 309a10 10 0 0 1 10 10v10a10 10 0 0 0 10 10"/><g>
<path d="M424.0 339h0.0"/><path d="M452.5 339h0.0"/><g class="terminal">
<path d="M424.0 339h0.0"/><path d="M452.5 339h0.0"/><rect height="22" rx="10" ry="10" width="28.5" x="424.0" y="328"/><text x="438.25" y="343">]</text></g></g><path d="M452.5 339a10 10 0 0 0 10 -10v-10a10 10 0 0 1 10 -10"/><path d="M404.0 309a10 10 0 0 1 10 10v40a10 10 0 0 0 10 10"/><g>
<path d="M424.0 369h0.0"/><path d="M452.5 369h0.0"/><g class="terminal">
<path d="M424.0 369h0.0"/><path d="M452.5 369h0.0"/><rect height="22" rx="10" ry="10" width="28.5" x="424.0" y="358"/><text x="438.25" y="373">^</text></g></g><path d="M452.5 369a10 10 0 0 0 10 -10v-40a10 10 0 0 1 10 -10"/><path d="M404.0 309a10 10 0 0 1 10 10v70a10 10 0 0 0 10 10"/><g>
<path d="M424.0 399h0.0"/><path d="M452.5 399h0.0"/><g class="terminal">
<path d="M424.0 399h0.0"/><path d="M452.5 399h0.0"/><rect height="22" rx="10" ry="10" width="28.5" x="424.0" y="388"/><text x="438.25" y="403">_</text></g></g><path d="M452.5 399a10 10 0 0 0 10 -10v-70a10 10 0 0 1 10 -10"/><path d="M404.0 309a10 10 0 0 1 10 10v100a10 10 0 0 0 10 10"/><g>
<path d="M424.0 429h0.0"/><path d="M452.5 429h0.0"/><g class="terminal">
<path d="M424.0 429h0.0"/><path d="M452.5 429h0.0"/><rect height="22" rx="10" ry="10" width="28.5" x="424.0" y="418"/><text x="438.25" y="433">`</text></g></g><path d="M452.5 429a10 10 0 0 0 10 -10v-100a10 10 0 0 1 10 -10"/><path d="M404.0 309a10 10 0 0 1 10 10v130a10 10 0 0 0 10 10"/><g>
<path d="M424.0 459h0.0"/><path d="M452.5 459h0.0"/><g class="terminal">
<path d="M424.0 459h0.0"/><path d="M452.5 459h0.0"/><rect height="22" rx="10" ry="10" width="28.5" x="424.0" y="448"/><text x="438.25" y="463">{</text></g></g><path d="M452.5 459a10 10 0 0 0 10 -10v-130a10 10 0 0 1 10 -10"/><path d="M404.0 309a10 10 0 0 1 10 10v160a10 10 0 0 0 10 10"/><g>
<path d="M424.0 489h0.0"/><path d="M452.5 489h0.0"/><g class="terminal">
<path d="M424.0 489h0.0"/><path d="M452.5 489h0.0"/><rect height="22" rx="10" ry="10" width="28.5" x="424.0" y="478"/><text x="438.25" y="493">|</text></g></g><path d="M452.5 489a10 10 0 0 0 10 -10v-160a10 10 0 0 1 10 -10"/><path d="M404.0 309a10 10 0 0 1 10 10v190a10 10 0 0 0 10 10"/><g>
<path d="M424.0 519h0.0"/><path d="M452.5 519h0.0"/><g class="terminal">
<path d="M424.0 519h0.0"/><path d="M452.5 519h0.0"/><rect height="22" rx="10" ry="10" width="28.5" x="424.0" y="508"/><text x="438.25" y="523">}</text></g></g><path d="M452.5 519a10 10 0 0 0 10 -10v-190a10 10 0 0 1 10 -10"/><path d="M404.0 309a10 10 0 0 1 10 10v220a10 10 0 0 0 10 10"/><g>
<path d="M424.0 549h0.0"/><path d="M452.5 549h0.0"/><g class="terminal">
<path d="M424.0 549h0.0"/><path d="M452.5 549h0.0"/><rect height="22" rx="10" ry="10" width="28.5" x="424.0" y="538"/><text x="438.25" y="553">~</text></g></g><path d="M452.5 549a10 10 0 0 0 10 -10v-220a10 10 0 0 1 10 -10"/><path d="M404.0 309a10 10 0 0 1 10 10v250a10 10 0 0 0 10 10"/><g>
<path d="M424.0 579h0.0"/><path d="M452.5 579h0.0"/><g class="terminal">
<path d="M424.0 579h0.0"/><path d="M452.5 579h0.0"/><rect height="22" rx="10" ry="10" width="28.5" x="424.0" y="568"/><text x="438.25" y="583"> </text></g></g><path d="M452.5 579a10 10 0 0 0 10 -10v-250a10 10 0 0 1 10 -10"/></g><path d="M472.5 309a10 10 0 0 1 10 10v269a10 10 0 0 0 10 10"/><path d="M472.5 20a10 10 0 0 1 10 10v269a10 10 0 0 0 10 10"/><g>
<path d="M492.5 309h0.0"/><path d="M561.0 309h0.0"/><path d="M492.5 309a10 10 0 0 0 10 -10v-10a10 10 0 0 1 10 -10"/><g>
<path d="M512.5 279h0.0"/><path d="M541.0 279h0.0"/><g class="terminal">
<path d="M512.5 279h0.0"/><path d="M541.0 279h0.0"/><rect height="22" rx="10" ry="10" width="28.5" x="512.5" y="268"/><text x="526.75" y="283">	</text></g></g><path d="M541.0 279a10 10 0 0 1 10 10v10a10 10 0 0 0 10 10"/><path d="M492.5 309h20"/><g>
<path d="M512.5 309h0.0"/><path d="M541.0 309h0.0"/><g class="terminal">
<path d="M512.5 309h0.0"/><path d="M541.0 309h0.0"/><rect height="22" rx="10" ry="10" width="28.5" x="512.5" y="298"/><text x="526.75" y="313">
</text></g></g><path d="M541.0 309h20"/></g><path d="M561.0 309h10"/></g><path d="M 571.0 309 h 20 m -10 -10 v 20 m 10 -20 v 20"/></g></svg>