<svg class="railroad-diagram" height="182" viewBox="0 0 271.0 182" width="271.0" xmlns="http://www.w3.org/2000/svg">
<g transform="translate(.5 .5)">
<style>/* <![CDATA[ */
    svg.railroad-diagram {
        background-color:hsl(100,100%,100%);
    }
    svg.railroad-diagram path {
        stroke-width:3;
        stroke:black;
        fill:rgba(0,0,0,0);
    }
    svg.railroad-diagram text {
        font:bold 14px monospace;
        text-anchor:middle;
    }
    svg.railroad-diagram text.label{
        text-anchor:start;
    }
    svg.railroad-diagram text.comment{
        font:italic 12px monospace;
    }
    svg.railroad-diagram rect{
        stroke-width:3;
        stroke:black;
        fill:hsl(0,62%,82%);
    }

/* ]]> */
</style><g>
<path d="M20 81v20m10 -20v20m-10 -10h20"/></g><g>
<path d="M40 91h0.0"/><path d="M231.0 91h0.0"/><path d="M40.0 91a10 10 0 0 0 10 -10v-10a10 10 0 0 1 10 -10"/><g>
<path d="M60.0 61h15.75"/><path d="M195.25 61h15.75"/><g class="terminal">
<path d="M75.75 61h0.0"/><path d="M104.25 61h0.0"/><rect height="22" rx="10" ry="10" width="28.5" x="75.75" y="50"/><text x="90.0" y="65">-</text></g><path d="M104.25 61h10"/><path d="M114.25 61h10"/><g class="non-terminal">
<path d="M124.25 61h0.0"/><path d="M195.25 61h0.0"/><rect height="22" width="71.0" x="124.25" y="50"/><text x="159.75" y="65">factor</text></g></g><path d="M211.0 61a10 10 0 0 1 10 10v10a10 10 0 0 0 10 10"/><path d="M40.0 91a10 10 0 0 0 10 -10v-40a10 10 0 0 1 10 -10"/><g>
<path d="M60.0 31h15.75"/><path d="M195.25 31h15.75"/><g class="terminal">
<path d="M75.75 31h0.0"/><path d="M104.25 31h0.0"/><rect height="22" rx="10" ry="10" width="28.5" x="75.75" y="20"/><text x="90.0" y="35">+</text></g><path d="M104.25 31h10"/><path d="M114.25 31h10"/><g class="non-terminal">
<path d="M124.25 31h0.0"/><path d="M195.25 31h0.0"/><rect height="22" width="71.0" x="124.25" y="20"/><text x="159.75" y="35">factor</text></g></g><path d="M211.0 31a10 10 0 0 1 10 10v40a10 10 0 0 0 10 10"/><path d="M40.0 91h20"/><g>
<path d="M60.0 91h0.0"/><path d="M211.0 91h0.0"/><g class="terminal">
<path d="M60.0 91h0.0"/><path d="M88.5 91h0.0"/><rect height="22" rx="10" ry="10" width="28.5" x="60.0" y="80"/><text x="74.25" y="95">(</text></g><path d="M88.5 91h10"/><path d="M98.5 91h10"/><g class="non-terminal">
<path d="M108.5 91h0.0"/><path d="M162.5 91h0.0"/><rect height="22" width="54.0" x="108.5" y="80"/><text x="135.5" y="95">expr</text></g><path d="M162.5 91h10"/><path d="M172.5 91h10"/><g class="terminal">
<path d="M182.5 91h0.0"/><path d="M211.0 91h0.0"/><rect height="22" rx="10" ry="10" width="28.5" x="182.5" y="80"/><text x="196.75" y="95">)</text></g></g><path d="M211.0 91h20"/><path d="M40.0 91a10 10 0 0 1 10 10v10a10 10 0 0 0 10 10"/><g>
<path d="M60.0 121h23.0"/><path d="M188.0 121h23.0"/><g class="non-terminal">
<path d="M83.0 121h0.0"/><path d="M188.0 121h0.0"/><rect height="22" width="105.0" x="83.0" y="110"/><text x="135.5" y="125">identifier</text></g></g><path d="M211.0 121a10 10 0 0 0 10 -10v-10a10 10 0 0 1 10 -10"/><path d="M40.0 91a10 10 0 0 1 10 10v40a10 10 0 0 0 10 10"/><g>
<path d="M60.0 151h40.0"/><path d="M171.0 151h40.0"/><g class="non-terminal">
<path d="M100.0 151h0.0"/><path d="M171.0 151h0.0"/><rect height="22" width="71.0" x="100.0" y="140"/><text x="135.5" y="155">number</text></g></g><path d="M211.0 151a10 10 0 0 0 10 -10v-40a10 10 0 0 1 10 -10"/></g><path d="M 231.0 91 h 20 m -10 -10 v 20 m 10 -20 v 20"/></g></svg>