<svg xmlns="http://www.w3.org/2000/svg" class="railroad-diagram" height="198" viewBox="0 0 611.0 198" width="611.0">
<g transform="translate(.5 .5)">
<style>/* <![CDATA[ */
    svg.railroad-diagram {
    }
    svg.railroad-diagram path {
        stroke-width:3;
        stroke:black;
        fill:white;
    }
    svg.railroad-diagram text {
        font:14px "Fira Mono", monospace;
        text-anchor:middle;
    }
    svg.railroad-diagram text.label{
        text-anchor:start;
    }
    svg.railroad-diagram text.comment{
        font:italic 12px "Fira Mono", monospace;
    }
    svg.railroad-diagram rect{
        stroke-width:2;
        stroke:black;
        fill:mistyrose;
    }

/* ]]> */
</style><g>
<path d="M20 89v20m10 -20v20m-10 -10h20"/></g><g>
<path d="M40 99h0.0"/><path d="M571.0 99h0.0"/><path d="M40.0 99a10 10 0 0 0 10 -10v-59a10 10 0 0 1 10 -10h412.5"/><path d="M138.5 178h412.5a10 10 0 0 0 10 -10v-59a10 10 0 0 1 10 -10"/><path d="M40.0 99h10"/><g>
<path d="M50.0 99h0.0"/><path d="M118.5 99h0.0"/><path d="M50.0 99a10 10 0 0 0 10 -10v-10a10 10 0 0 1 10 -10"/><g>
<path d="M70.0 69h0.0"/><path d="M98.5 69h0.0"/><g class="terminal">
<path d="M70.0 69h0.0"/><path d="M98.5 69h0.0"/><rect height="22" rx="10" ry="10" width="28.5" x="70.0" y="58"/><text x="84.25" y="73">b</text></g></g><path d="M98.5 69a10 10 0 0 1 10 10v10a10 10 0 0 0 10 10"/><path d="M50.0 99a10 10 0 0 0 10 -10v-40a10 10 0 0 1 10 -10"/><g>
<path d="M70.0 39h0.0"/><path d="M98.5 39h0.0"/><g class="terminal">
<path d="M70.0 39h0.0"/><path d="M98.5 39h0.0"/><rect height="22" rx="10" ry="10" width="28.5" x="70.0" y="28"/><text x="84.25" y="43">a</text></g></g><path d="M98.5 39a10 10 0 0 1 10 10v40a10 10 0 0 0 10 10"/><path d="M50.0 99h20"/><g>
<path d="M70.0 99h0.0"/><path d="M98.5 99h0.0"/><g class="terminal">
<path d="M70.0 99h0.0"/><path d="M98.5 99h0.0"/><rect height="22" rx="10" ry="10" width="28.5" x="70.0" y="88"/><text x="84.25" y="103">c</text></g></g><path d="M98.5 99h20"/><path d="M50.0 99a10 10 0 0 1 10 10v10a10 10 0 0 0 10 10"/><g>
<path d="M70.0 129h0.0"/><path d="M98.5 129h0.0"/><g class="terminal">
<path d="M70.0 129h0.0"/><path d="M98.5 129h0.0"/><rect height="22" rx="10" ry="10" width="28.5" x="70.0" y="118"/><text x="84.25" y="133">d</text></g></g><path d="M98.5 129a10 10 0 0 0 10 -10v-10a10 10 0 0 1 10 -10"/><path d="M50.0 99a10 10 0 0 1 10 10v40a10 10 0 0 0 10 10"/><g>
<path d="M70.0 159h0.0"/><path d="M98.5 159h0.0"/><g class="terminal">
<path d="M70.0 159h0.0"/><path d="M98.5 159h0.0"/><rect height="22" rx="10" ry="10" width="28.5" x="70.0" y="148"/><text x="84.25" y="163">e</text></g></g><path d="M98.5 159a10 10 0 0 0 10 -10v-40a10 10 0 0 1 10 -10"/></g><path d="M118.5 99a10 10 0 0 1 10 10v59a10 10 0 0 0 10 10"/><path d="M118.5 20a10 10 0 0 1 10 10v59a10 10 0 0 0 10 10"/><g>
<path d="M138.5 99h0.0"/><path d="M207.0 99h0.0"/><path d="M138.5 99a10 10 0 0 0 10 -10v-10a10 10 0 0 1 10 -10"/><g>
<path d="M158.5 69h0.0"/><path d="M187.0 69h0.0"/><g class="terminal">
<path d="M158.5 69h0.0"/><path d="M187.0 69h0.0"/><rect height="22" rx="10" ry="10" width="28.5" x="158.5" y="58"/><text x="172.75" y="73">g</text></g></g><path d="M187.0 69a10 10 0 0 1 10 10v10a10 10 0 0 0 10 10"/><path d="M138.5 99a10 10 0 0 0 10 -10v-40a10 10 0 0 1 10 -10"/><g>
<path d="M158.5 39h0.0"/><path d="M187.0 39h0.0"/><g class="terminal">
<path d="M158.5 39h0.0"/><path d="M187.0 39h0.0"/><rect height="22" rx="10" ry="10" width="28.5" x="158.5" y="28"/><text x="172.75" y="43">f</text></g></g><path d="M187.0 39a10 10 0 0 1 10 10v40a10 10 0 0 0 10 10"/><path d="M138.5 99h20"/><g>
<path d="M158.5 99h0.0"/><path d="M187.0 99h0.0"/><g class="terminal">
<path d="M158.5 99h0.0"/><path d="M187.0 99h0.0"/><rect height="22" rx="10" ry="10" width="28.5" x="158.5" y="88"/><text x="172.75" y="103">h</text></g></g><path d="M187.0 99h20"/><path d="M138.5 99a10 10 0 0 1 10 10v10a10 10 0 0 0 10 10"/><g>
<path d="M158.5 129h0.0"/><path d="M187.0 129h0.0"/><g class="terminal">
<path d="M158.5 129h0.0"/><path d="M187.0 129h0.0"/><rect height="22" rx="10" ry="10" width="28.5" x="158.5" y="118"/><text x="172.75" y="133">i</text></g></g><path d="M187.0 129a10 10 0 0 0 10 -10v-10a10 10 0 0 1 10 -10"/><path d="M138.5 99a10 10 0 0 1 10 10v40a10 10 0 0 0 10 10"/><g>
<path d="M158.5 159h0.0"/><path d="M187.0 159h0.0"/><g class="terminal">
<path d="M158.5 159h0.0"/><path d="M187.0 159h0.0"/><rect height="22" rx="10" ry="10" width="28.5" x="158.5" y="148"/><text x="172.75" y="163">j</text></g></g><path d="M187.0 159a10 10 0 0 0 10 -10v-40a10 10 0 0 1 10 -10"/></g><path d="M207.0 99a10 10 0 0 1 10 10v59a10 10 0 0 0 10 10"/><path d="M207.0 20a10 10 0 0 1 10 10v59a10 10 0 0 0 10 10"/><g>
<path d="M227.0 99h0.0"/><path d="M295.5 99h0.0"/><path d="M227.0 99a10 10 0 0 0 10 -10v-10a10 10 0 0 1 10 -10"/><g>
<path d="M247.0 69h0.0"/><path d="M275.5 69h0.0"/><g class="terminal">
<path d="M247.0 69h0.0"/><path d="M275.5 69h0.0"/><rect height="22" rx="10" ry="10" width="28.5" x="247.0" y="58"/><text x="261.25" y="73">l</text></g></g><path d="M275.5 69a10 10 0 0 1 10 10v10a10 10 0 0 0 10 10"/><path d="M227.0 99a10 10 0 0 0 10 -10v-40a10 10 0 0 1 10 -10"/><g>
<path d="M247.0 39h0.0"/><path d="M275.5 39h0.0"/><g class="terminal">
<path d="M247.0 39h0.0"/><path d="M275.5 39h0.0"/><rect height="22" rx="10" ry="10" width="28.5" x="247.0" y="28"/><text x="261.25" y="43">k</text></g></g><path d="M275.5 39a10 10 0 0 1 10 10v40a10 10 0 0 0 10 10"/><path d="M227.0 99h20"/><g>
<path d="M247.0 99h0.0"/><path d="M275.5 99h0.0"/><g class="terminal">
<path d="M247.0 99h0.0"/><path d="M275.5 99h0.0"/><rect height="22" rx="10" ry="10" width="28.5" x="247.0" y="88"/><text x="261.25" y="103">m</text></g></g><path d="M275.5 99h20"/><path d="M227.0 99a10 10 0 0 1 10 10v10a10 10 0 0 0 10 10"/><g>
<path d="M247.0 129h0.0"/><path d="M275.5 129h0.0"/><g class="terminal">
<path d="M247.0 129h0.0"/><path d="M275.5 129h0.0"/><rect height="22" rx="10" ry="10" width="28.5" x="247.0" y="118"/><text x="261.25" y="133">n</text></g></g><path d="M275.5 129a10 10 0 0 0 10 -10v-10a10 10 0 0 1 10 -10"/><path d="M227.0 99a10 10 0 0 1 10 10v40a10 10 0 0 0 10 10"/><g>
<path d="M247.0 159h0.0"/><path d="M275.5 159h0.0"/><g class="terminal">
<path d="M247.0 159h0.0"/><path d="M275.5 159h0.0"/><rect height="22" rx="10" ry="10" width="28.5" x="247.0" y="148"/><text x="261.25" y="163">o</text></g></g><path d="M275.5 159a10 10 0 0 0 10 -10v-40a10 10 0 0 1 10 -10"/></g><path d="M295.5 99a10 10 0 0 1 10 10v59a10 10 0 0 0 10 10"/><path d="M295.5 20a10 10 0 0 1 10 10v59a10 10 0 0 0 10 10"/><g>
<path d="M315.5 99h0.0"/><path d="M384.0 99h0.0"/><path d="M315.5 99a10 10 0 0 0 10 -10v-10a10 10 0 0 1 10 -10"/><g>
<path d="M335.5 69h0.0"/><path d="M364.0 69h0.0"/><g class="terminal">
<path d="M335.5 69h0.0"/><path d="M364.0 69h0.0"/><rect height="22" rx="10" ry="10" width="28.5" x="335.5" y="58"/><text x="349.75" y="73">q</text></g></g><path d="M364.0 69a10 10 0 0 1 10 10v10a10 10 0 0 0 10 10"/><path d="M315.5 99a10 10 0 0 0 10 -10v-40a10 10 0 0 1 10 -10"/><g>
<path d="M335.5 39h0.0"/><path d="M364.0 39h0.0"/><g class="terminal">
<path d="M335.5 39h0.0"/><path d="M364.0 39h0.0"/><rect height="22" rx="10" ry="10" width="28.5" x="335.5" y="28"/><text x="349.75" y="43">p</text></g></g><path d="M364.0 39a10 10 0 0 1 10 10v40a10 10 0 0 0 10 10"/><path d="M315.5 99h20"/><g>
<path d="M335.5 99h0.0"/><path d="M364.0 99h0.0"/><g class="terminal">
<path d="M335.5 99h0.0"/><path d="M364.0 99h0.0"/><rect height="22" rx="10" ry="10" width="28.5" x="335.5" y="88"/><text x="349.75" y="103">r</text></g></g><path d="M364.0 99h20"/><path d="M315.5 99a10 10 0 0 1 10 10v10a10 10 0 0 0 10 10"/><g>
<path d="M335.5 129h0.0"/><path d="M364.0 129h0.0"/><g class="terminal">
<path d="M335.5 129h0.0"/><path d="M364.0 129h0.0"/><rect height="22" rx="10" ry="10" width="28.5" x="335.5" y="118"/><text x="349.75" y="133">s</text></g></g><path d="M364.0 129a10 10 0 0 0 10 -10v-10a10 10 0 0 1 10 -10"/><path d="M315.5 99a10 10 0 0 1 10 10v40a10 10 0 0 0 10 10"/><g>
<path d="M335.5 159h0.0"/><path d="M364.0 159h0.0"/><g class="terminal">
<path d="M335.5 159h0.0"/><path d="M364.0 159h0.0"/><rect height="22" rx="10" ry="10" width="28.5" x="335.5" y="148"/><text x="349.75" y="163">t</text></g></g><path d="M364.0 159a10 10 0 0 0 10 -10v-40a10 10 0 0 1 10 -10"/></g><path d="M384.0 99a10 10 0 0 1 10 10v59a10 10 0 0 0 10 10"/><path d="M384.0 20a10 10 0 0 1 10 10v59a10 10 0 0 0 10 10"/><g>
<path d="M404.0 99h0.0"/><path d="M472.5 99h0.0"/><path d="M404.0 99a10 10 0 0 0 10 -10v-10a10 10 0 0 1 10 -10"/><g>
<path d="M424.0 69h0.0"/><path d="M452.5 69h0.0"/><g class="terminal">
<path d="M424.0 69h0.0"/><path d="M452.5 69h0.0"/><rect height="22" rx="10" ry="10" width="28.5" x="424.0" y="58"/><text x="438.25" y="73">v</text></g></g><path d="M452.5 69a10 10 0 0 1 10 10v10a10 10 0 0 0 10 10"/><path d="M404.0 99a10 10 0 0 0 10 -10v-40a10 10 0 0 1 10 -10"/><g>
<path d="M424.0 39h0.0"/><path d="M452.5 39h0.0"/><g class="terminal">
<path d="M424.0 39h0.0"/><path d="M452.5 39h0.0"/><rect height="22" rx="10" ry="10" width="28.5" x="424.0" y="28"/><text x="438.25" y="43">u</text></g></g><path d="M452.5 39a10 10 0 0 1 10 10v40a10 10 0 0 0 10 10"/><path d="M404.0 99h20"/><g>
<path d="M424.0 99h0.0"/><path d="M452.5 99h0.0"/><g class="terminal">
<path d="M424.0 99h0.0"/><path d="M452.5 99h0.0"/><rect height="22" rx="10" ry="10" width="28.5" x="424.0" y="88"/><text x="438.25" y="103">w</text></g></g><path d="M452.5 99h20"/><path d="M404.0 99a10 10 0 0 1 10 10v10a10 10 0 0 0 10 10"/><g>
<path d="M424.0 129h0.0"/><path d="M452.5 129h0.0"/><g class="terminal">
<path d="M424.0 129h0.0"/><path d="M452.5 129h0.0"/><rect height="22" rx="10" ry="10" width="28.5" x="424.0" y="118"/><text x="438.25" y="133">x</text></g></g><path d="M452.5 129a10 10 0 0 0 10 -10v-10a10 10 0 0 1 10 -10"/><path d="M404.0 99a10 10 0 0 1 10 10v40a10 10 0 0 0 10 10"/><g>
<path d="M424.0 159h0.0"/><path d="M452.5 159h0.0"/><g class="terminal">
<path d="M424.0 159h0.0"/><path d="M452.5 159h0.0"/><rect height="22" rx="10" ry="10" width="28.5" x="424.0" y="148"/><text x="438.25" y="163">y</text></g></g><path d="M452.5 159a10 10 0 0 0 10 -10v-40a10 10 0 0 1 10 -10"/></g><path d="M472.5 99a10 10 0 0 1 10 10v59a10 10 0 0 0 10 10"/><path d="M472.5 20a10 10 0 0 1 10 10v59a10 10 0 0 0 10 10"/><g>
<path d="M492.5 99h0.0"/><path d="M561.0 99h0.0"/><path d="M492.5 99h20"/><g>
<path d="M512.5 99h0.0"/><path d="M541.0 99h0.0"/><g class="terminal">
<path d="M512.5 99h0.0"/><path d="M541.0 99h0.0"/><rect height="22" rx="10" ry="10" width="28.5" x="512.5" y="88"/><text x="526.75" y="103">z</text></g></g><path d="M541.0 99h20"/></g><path d="M561.0 99h10"/></g><path d="M 571.0 99 h 20 m -10 -10 v 20 m 10 -20 v 20"/></g></svg>