<?xml version="1.0" encoding="UTF-8" standalone="no"?>
<!DOCTYPE svg PUBLIC "-//W3C//DTD SVG 1.1//EN"
 "http://www.w3.org/Graphics/SVG/1.1/DTD/svg11.dtd">
<!-- Generated by graphviz version 12.2.1 (20241206.2353)
 -->
<!-- Pages: 1 -->
<svg width="239pt" height="324pt"
 viewBox="0.00 0.00 239.00 323.75" xmlns="http://www.w3.org/2000/svg" xmlns:xlink="http://www.w3.org/1999/xlink">
<g id="graph0" class="graph" transform="scale(1 1) rotate(0) translate(4 319.75)">
<polygon fill="white" stroke="none" points="-4,4 -4,-319.75 235,-319.75 235,4 -4,4"/>
<!-- 0 -->
<g id="node1" class="node">
<title>0</title>
<text text-anchor="middle" x="89" y="-302.45" font-family="Times,serif" font-size="14.00">&lt;start&gt;</text>
</g>
<!-- 1 -->
<g id="node2" class="node">
<title>1</title>
<text text-anchor="middle" x="89" y="-252.2" font-family="Times,serif" font-size="14.00">&lt;expr&gt;</text>
</g>
<!-- 0&#45;&gt;1 -->
<g id="edge1" class="edge">
<title>0&#45;&gt;1</title>
<path fill="none" stroke="black" d="M89,-301.71C89,-295.49 89,-285.4 89,-276.64"/>
<polygon fill="black" stroke="black" points="92.5,-276.85 89,-266.85 85.5,-276.85 92.5,-276.85"/>
</g>
<!-- 2 -->
<g id="node3" class="node">
<title>2</title>
<text text-anchor="middle" x="31" y="-201.95" font-family="Times,serif" font-size="14.00">&lt;expr&gt;</text>
</g>
<!-- 1&#45;&gt;2 -->
<g id="edge2" class="edge">
<title>1&#45;&gt;2</title>
<path fill="none" stroke="black" d="M81.89,-251.46C73.19,-244.22 58.22,-231.77 46.76,-222.23"/>
<polygon fill="black" stroke="black" points="49.26,-219.76 39.33,-216.06 44.78,-225.14 49.26,-219.76"/>
</g>
<!-- 6 -->
<g id="node7" class="node">
<title>6</title>
<text text-anchor="middle" x="89" y="-201.95" font-family="Times,serif" font-size="14.00">+ (43)</text>
</g>
<!-- 1&#45;&gt;6 -->
<g id="edge6" class="edge">
<title>1&#45;&gt;6</title>
<path fill="none" stroke="black" d="M89,-251.46C89,-245.24 89,-235.15 89,-226.39"/>
<polygon fill="black" stroke="black" points="92.5,-226.6 89,-216.6 85.5,-226.6 92.5,-226.6"/>
</g>
<!-- 7 -->
<g id="node8" class="node">
<title>7</title>
<text text-anchor="middle" x="146" y="-201.95" font-family="Times,serif" font-size="14.00">&lt;expr&gt;</text>
</g>
<!-- 1&#45;&gt;7 -->
<g id="edge7" class="edge">
<title>1&#45;&gt;7</title>
<path fill="none" stroke="black" d="M95.99,-251.46C104.45,-244.3 118.96,-232.01 130.18,-222.52"/>
<polygon fill="black" stroke="black" points="132.43,-225.2 137.8,-216.07 127.9,-219.86 132.43,-225.2"/>
</g>
<!-- 3 -->
<g id="node4" class="node">
<title>3</title>
<text text-anchor="middle" x="27" y="-151.7" font-family="Times,serif" font-size="14.00">&lt;integer&gt;</text>
</g>
<!-- 2&#45;&gt;3 -->
<g id="edge3" class="edge">
<title>2&#45;&gt;3</title>
<path fill="none" stroke="black" d="M30.51,-201.21C29.99,-194.99 29.16,-184.9 28.43,-176.14"/>
<polygon fill="black" stroke="black" points="31.93,-176.02 27.62,-166.35 24.96,-176.6 31.93,-176.02"/>
</g>
<!-- 4 -->
<g id="node5" class="node">
<title>4</title>
<text text-anchor="middle" x="27" y="-101.45" font-family="Times,serif" font-size="14.00">&lt;digit&gt;</text>
</g>
<!-- 3&#45;&gt;4 -->
<g id="edge4" class="edge">
<title>3&#45;&gt;4</title>
<path fill="none" stroke="black" d="M27,-150.96C27,-144.74 27,-134.65 27,-125.89"/>
<polygon fill="black" stroke="black" points="30.5,-126.1 27,-116.1 23.5,-126.1 30.5,-126.1"/>
</g>
<!-- 5 -->
<g id="node6" class="node">
<title>5</title>
<text text-anchor="middle" x="27" y="-51.2" font-family="Times,serif" font-size="14.00">1 (49)</text>
</g>
<!-- 4&#45;&gt;5 -->
<g id="edge5" class="edge">
<title>4&#45;&gt;5</title>
<path fill="none" stroke="black" d="M27,-100.71C27,-94.49 27,-84.4 27,-75.64"/>
<polygon fill="black" stroke="black" points="30.5,-75.85 27,-65.85 23.5,-75.85 30.5,-75.85"/>
</g>
<!-- 8 -->
<g id="node9" class="node">
<title>8</title>
<text text-anchor="middle" x="92" y="-151.7" font-family="Times,serif" font-size="14.00">&lt;expr&gt;</text>
</g>
<!-- 7&#45;&gt;8 -->
<g id="edge8" class="edge">
<title>7&#45;&gt;8</title>
<path fill="none" stroke="black" d="M139.38,-201.21C131.36,-194.05 117.62,-181.76 106.99,-172.27"/>
<polygon fill="black" stroke="black" points="109.59,-169.9 99.8,-165.85 104.93,-175.12 109.59,-169.9"/>
</g>
<!-- 12 -->
<g id="node13" class="node">
<title>12</title>
<text text-anchor="middle" x="148" y="-151.7" font-family="Times,serif" font-size="14.00">+ (43)</text>
</g>
<!-- 7&#45;&gt;12 -->
<g id="edge12" class="edge">
<title>7&#45;&gt;12</title>
<path fill="none" stroke="black" d="M146.25,-201.21C146.5,-194.99 146.92,-184.9 147.28,-176.14"/>
<polygon fill="black" stroke="black" points="150.77,-176.49 147.69,-166.35 143.78,-176.2 150.77,-176.49"/>
</g>
<!-- 13 -->
<g id="node14" class="node">
<title>13</title>
<text text-anchor="middle" x="204" y="-151.7" font-family="Times,serif" font-size="14.00">&lt;expr&gt;</text>
</g>
<!-- 7&#45;&gt;13 -->
<g id="edge13" class="edge">
<title>7&#45;&gt;13</title>
<path fill="none" stroke="black" d="M153.11,-201.21C161.81,-193.97 176.78,-181.52 188.24,-171.98"/>
<polygon fill="black" stroke="black" points="190.22,-174.89 195.67,-165.81 185.74,-169.51 190.22,-174.89"/>
</g>
<!-- 9 -->
<g id="node10" class="node">
<title>9</title>
<text text-anchor="middle" x="93" y="-101.45" font-family="Times,serif" font-size="14.00">&lt;integer&gt;</text>
</g>
<!-- 8&#45;&gt;9 -->
<g id="edge9" class="edge">
<title>8&#45;&gt;9</title>
<path fill="none" stroke="black" d="M92.12,-150.96C92.25,-144.74 92.46,-134.65 92.64,-125.89"/>
<polygon fill="black" stroke="black" points="96.14,-126.17 92.85,-116.1 89.14,-126.03 96.14,-126.17"/>
</g>
<!-- 10 -->
<g id="node11" class="node">
<title>10</title>
<text text-anchor="middle" x="93" y="-51.2" font-family="Times,serif" font-size="14.00">&lt;digit&gt;</text>
</g>
<!-- 9&#45;&gt;10 -->
<g id="edge10" class="edge">
<title>9&#45;&gt;10</title>
<path fill="none" stroke="black" d="M93,-100.71C93,-94.49 93,-84.4 93,-75.64"/>
<polygon fill="black" stroke="black" points="96.5,-75.85 93,-65.85 89.5,-75.85 96.5,-75.85"/>
</g>
<!-- 11 -->
<g id="node12" class="node">
<title>11</title>
<text text-anchor="middle" x="93" y="-0.95" font-family="Times,serif" font-size="14.00">2 (50)</text>
</g>
<!-- 10&#45;&gt;11 -->
<g id="edge11" class="edge">
<title>10&#45;&gt;11</title>
<path fill="none" stroke="black" d="M93,-50.46C93,-44.24 93,-34.15 93,-25.39"/>
<polygon fill="black" stroke="black" points="96.5,-25.6 93,-15.6 89.5,-25.6 96.5,-25.6"/>
</g>
<!-- 14 -->
<g id="node15" class="node">
<title>14</title>
<text text-anchor="middle" x="204" y="-101.45" font-family="Times,serif" font-size="14.00">&lt;integer&gt;</text>
</g>
<!-- 13&#45;&gt;14 -->
<g id="edge14" class="edge">
<title>13&#45;&gt;14</title>
<path fill="none" stroke="black" d="M204,-150.96C204,-144.74 204,-134.65 204,-125.89"/>
<polygon fill="black" stroke="black" points="207.5,-126.1 204,-116.1 200.5,-126.1 207.5,-126.1"/>
</g>
<!-- 15 -->
<g id="node16" class="node">
<title>15</title>
<text text-anchor="middle" x="204" y="-51.2" font-family="Times,serif" font-size="14.00">&lt;digit&gt;</text>
</g>
<!-- 14&#45;&gt;15 -->
<g id="edge15" class="edge">
<title>14&#45;&gt;15</title>
<path fill="none" stroke="black" d="M204,-100.71C204,-94.49 204,-84.4 204,-75.64"/>
<polygon fill="black" stroke="black" points="207.5,-75.85 204,-65.85 200.5,-75.85 207.5,-75.85"/>
</g>
<!-- 16 -->
<g id="node17" class="node">
<title>16</title>
<text text-anchor="middle" x="204" y="-0.95" font-family="Times,serif" font-size="14.00">3 (51)</text>
</g>
<!-- 15&#45;&gt;16 -->
<g id="edge16" class="edge">
<title>15&#45;&gt;16</title>
<path fill="none" stroke="black" d="M204,-50.46C204,-44.24 204,-34.15 204,-25.39"/>
<polygon fill="black" stroke="black" points="207.5,-25.6 204,-15.6 200.5,-25.6 207.5,-25.6"/>
</g>
</g>
</svg>