<?xml version="1.0" encoding="UTF-8" standalone="no"?>
<!DOCTYPE svg PUBLIC "-//W3C//DTD SVG 1.1//EN"
 "http://www.w3.org/Graphics/SVG/1.1/DTD/svg11.dtd">
<!-- Generated by graphviz version 12.2.1 (20241206.2353)
 -->
<!-- Pages: 1 -->
<svg width="456pt" height="374pt"
 viewBox="0.00 0.00 455.50 374.00" xmlns="http://www.w3.org/2000/svg" xmlns:xlink="http://www.w3.org/1999/xlink">
<g id="graph0" class="graph" transform="scale(1 1) rotate(0) translate(4 370)">
<polygon fill="white" stroke="none" points="-4,4 -4,-370 451.5,-370 451.5,4 -4,4"/>
<!-- 0 -->
<g id="node1" class="node">
<title>0</title>
<text text-anchor="middle" x="201.25" y="-352.7" font-family="Times,serif" font-size="14.00">&lt;start&gt;</text>
</g>
<!-- 1 -->
<g id="node2" class="node">
<title>1</title>
<text text-anchor="middle" x="201.25" y="-302.45" font-family="Times,serif" font-size="14.00">&lt;xml&#45;tree&gt;</text>
</g>
<!-- 0&#45;&gt;1 -->
<g id="edge1" class="edge">
<title>0&#45;&gt;1</title>
<path fill="none" stroke="black" d="M201.25,-351.96C201.25,-345.74 201.25,-335.65 201.25,-326.89"/>
<polygon fill="black" stroke="black" points="204.75,-327.1 201.25,-317.1 197.75,-327.1 204.75,-327.1"/>
</g>
<!-- 2 -->
<g id="node3" class="node">
<title>2</title>
<text text-anchor="middle" x="96.25" y="-252.2" font-family="Times,serif" font-size="14.00">&lt;xml&#45;open&#45;tag&gt;</text>
</g>
<!-- 1&#45;&gt;2 -->
<g id="edge2" class="edge">
<title>1&#45;&gt;2</title>
<path fill="none" stroke="black" d="M187.95,-301.51C170.83,-293.65 140.79,-279.84 119.77,-270.18"/>
<polygon fill="black" stroke="black" points="121.36,-267.06 110.82,-266.07 118.44,-273.42 121.36,-267.06"/>
</g>
<!-- 7 -->
<g id="node8" class="node">
<title>7</title>
<text text-anchor="middle" x="201.25" y="-252.2" font-family="Times,serif" font-size="14.00">&lt;xml&#45;tree&gt;</text>
</g>
<!-- 1&#45;&gt;7 -->
<g id="edge7" class="edge">
<title>1&#45;&gt;7</title>
<path fill="none" stroke="black" d="M201.25,-301.71C201.25,-295.49 201.25,-285.4 201.25,-276.64"/>
<polygon fill="black" stroke="black" points="204.75,-276.85 201.25,-266.85 197.75,-276.85 204.75,-276.85"/>
</g>
<!-- 22 -->
<g id="node23" class="node">
<title>22</title>
<text text-anchor="middle" x="362.25" y="-252.2" font-family="Times,serif" font-size="14.00">&lt;xml&#45;close&#45;tag&gt;</text>
</g>
<!-- 1&#45;&gt;22 -->
<g id="edge22" class="edge">
<title>1&#45;&gt;22</title>
<path fill="none" stroke="black" d="M221.64,-301.51C249.34,-293.21 299.11,-278.3 331.4,-268.62"/>
<polygon fill="black" stroke="black" points="332,-272.09 340.57,-265.87 329.99,-265.39 332,-272.09"/>
</g>
<!-- 3 -->
<g id="node4" class="node">
<title>3</title>
<text text-anchor="middle" x="17.25" y="-201.95" font-family="Times,serif" font-size="14.00">&lt; (60)</text>
</g>
<!-- 2&#45;&gt;3 -->
<g id="edge3" class="edge">
<title>2&#45;&gt;3</title>
<path fill="none" stroke="black" d="M86.24,-251.26C73.9,-243.72 52.62,-230.73 36.95,-221.16"/>
<polygon fill="black" stroke="black" points="38.82,-218.2 28.47,-215.98 35.18,-224.17 38.82,-218.2"/>
</g>
<!-- 4 -->
<g id="node5" class="node">
<title>4</title>
<text text-anchor="middle" x="66.25" y="-201.95" font-family="Times,serif" font-size="14.00">&lt;id&gt;</text>
</g>
<!-- 2&#45;&gt;4 -->
<g id="edge4" class="edge">
<title>2&#45;&gt;4</title>
<path fill="none" stroke="black" d="M92.57,-251.46C88.43,-244.8 81.55,-233.73 75.85,-224.57"/>
<polygon fill="black" stroke="black" points="79.01,-223.02 70.76,-216.38 73.07,-226.72 79.01,-223.02"/>
</g>
<!-- 6 -->
<g id="node7" class="node">
<title>6</title>
<text text-anchor="middle" x="115.25" y="-201.95" font-family="Times,serif" font-size="14.00">&gt; (62)</text>
</g>
<!-- 2&#45;&gt;6 -->
<g id="edge6" class="edge">
<title>2&#45;&gt;6</title>
<path fill="none" stroke="black" d="M98.58,-251.46C101.09,-245.09 105.19,-234.68 108.69,-225.78"/>
<polygon fill="black" stroke="black" points="111.94,-227.09 112.35,-216.5 105.43,-224.52 111.94,-227.09"/>
</g>
<!-- 5 -->
<g id="node6" class="node">
<title>5</title>
<text text-anchor="middle" x="66.25" y="-151.7" font-family="Times,serif" font-size="14.00">html</text>
</g>
<!-- 4&#45;&gt;5 -->
<g id="edge5" class="edge">
<title>4&#45;&gt;5</title>
<path fill="none" stroke="black" d="M66.25,-201.21C66.25,-194.99 66.25,-184.9 66.25,-176.14"/>
<polygon fill="black" stroke="black" points="69.75,-176.35 66.25,-166.35 62.75,-176.35 69.75,-176.35"/>
</g>
<!-- 8 -->
<g id="node9" class="node">
<title>8</title>
<text text-anchor="middle" x="182.25" y="-201.95" font-family="Times,serif" font-size="14.00">&lt;xml&#45;tree&gt;</text>
</g>
<!-- 7&#45;&gt;8 -->
<g id="edge8" class="edge">
<title>7&#45;&gt;8</title>
<path fill="none" stroke="black" d="M198.92,-251.46C196.41,-245.09 192.31,-234.68 188.81,-225.78"/>
<polygon fill="black" stroke="black" points="192.07,-224.52 185.15,-216.5 185.56,-227.09 192.07,-224.52"/>
</g>
<!-- 11 -->
<g id="node12" class="node">
<title>11</title>
<text text-anchor="middle" x="263.25" y="-201.95" font-family="Times,serif" font-size="14.00">&lt;xml&#45;tree&gt;</text>
</g>
<!-- 7&#45;&gt;11 -->
<g id="edge11" class="edge">
<title>7&#45;&gt;11</title>
<path fill="none" stroke="black" d="M209.1,-251.26C218.56,-243.9 234.71,-231.34 246.92,-221.84"/>
<polygon fill="black" stroke="black" points="248.72,-224.87 254.46,-215.96 244.42,-219.34 248.72,-224.87"/>
</g>
<!-- 9 -->
<g id="node10" class="node">
<title>9</title>
<text text-anchor="middle" x="167.25" y="-151.7" font-family="Times,serif" font-size="14.00">&lt;text&gt;</text>
</g>
<!-- 8&#45;&gt;9 -->
<g id="edge9" class="edge">
<title>8&#45;&gt;9</title>
<path fill="none" stroke="black" d="M180.41,-201.21C178.45,-194.91 175.27,-184.67 172.52,-175.83"/>
<polygon fill="black" stroke="black" points="175.86,-174.8 169.55,-166.29 169.18,-176.87 175.86,-174.8"/>
</g>
<!-- 10 -->
<g id="node11" class="node">
<title>10</title>
<text text-anchor="middle" x="141.25" y="-101.45" font-family="Times,serif" font-size="14.00">T (84)</text>
</g>
<!-- 9&#45;&gt;10 -->
<g id="edge10" class="edge">
<title>9&#45;&gt;10</title>
<path fill="none" stroke="black" d="M164.06,-150.96C160.55,-144.45 154.76,-133.71 149.9,-124.67"/>
<polygon fill="black" stroke="black" points="153.01,-123.07 145.18,-115.92 146.84,-126.39 153.01,-123.07"/>
</g>
<!-- 12 -->
<g id="node13" class="node">
<title>12</title>
<text text-anchor="middle" x="250.25" y="-151.7" font-family="Times,serif" font-size="14.00">&lt;xml&#45;tree&gt;</text>
</g>
<!-- 11&#45;&gt;12 -->
<g id="edge12" class="edge">
<title>11&#45;&gt;12</title>
<path fill="none" stroke="black" d="M261.66,-201.21C259.96,-194.91 257.2,-184.67 254.82,-175.83"/>
<polygon fill="black" stroke="black" points="258.23,-175.05 252.25,-166.3 251.47,-176.87 258.23,-175.05"/>
</g>
<!-- 19 -->
<g id="node20" class="node">
<title>19</title>
<text text-anchor="middle" x="331.25" y="-151.7" font-family="Times,serif" font-size="14.00">&lt;xml&#45;tree&gt;</text>
</g>
<!-- 11&#45;&gt;19 -->
<g id="edge19" class="edge">
<title>11&#45;&gt;19</title>
<path fill="none" stroke="black" d="M271.86,-201.01C282.34,-193.58 300.3,-180.84 313.73,-171.31"/>
<polygon fill="black" stroke="black" points="315.56,-174.3 321.69,-165.66 311.51,-168.59 315.56,-174.3"/>
</g>
<!-- 13 -->
<g id="node14" class="node">
<title>13</title>
<text text-anchor="middle" x="208.25" y="-101.45" font-family="Times,serif" font-size="14.00">&lt;xml&#45;tree&gt;</text>
</g>
<!-- 12&#45;&gt;13 -->
<g id="edge13" class="edge">
<title>12&#45;&gt;13</title>
<path fill="none" stroke="black" d="M245.1,-150.96C239.12,-144.09 229.03,-132.5 220.92,-123.18"/>
<polygon fill="black" stroke="black" points="223.64,-120.98 214.44,-115.73 218.36,-125.57 223.64,-120.98"/>
</g>
<!-- 16 -->
<g id="node17" class="node">
<title>16</title>
<text text-anchor="middle" x="289.25" y="-101.45" font-family="Times,serif" font-size="14.00">&lt;xml&#45;tree&gt;</text>
</g>
<!-- 12&#45;&gt;16 -->
<g id="edge16" class="edge">
<title>12&#45;&gt;16</title>
<path fill="none" stroke="black" d="M255.03,-150.96C260.53,-144.16 269.76,-132.74 277.24,-123.48"/>
<polygon fill="black" stroke="black" points="279.91,-125.74 283.48,-115.77 274.47,-121.34 279.91,-125.74"/>
</g>
<!-- 14 -->
<g id="node15" class="node">
<title>14</title>
<text text-anchor="middle" x="208.25" y="-51.2" font-family="Times,serif" font-size="14.00">&lt;text&gt;</text>
</g>
<!-- 13&#45;&gt;14 -->
<g id="edge14" class="edge">
<title>13&#45;&gt;14</title>
<path fill="none" stroke="black" d="M208.25,-100.71C208.25,-94.49 208.25,-84.4 208.25,-75.64"/>
<polygon fill="black" stroke="black" points="211.75,-75.85 208.25,-65.85 204.75,-75.85 211.75,-75.85"/>
</g>
<!-- 15 -->
<g id="node16" class="node">
<title>15</title>
<text text-anchor="middle" x="208.25" y="-0.95" font-family="Times,serif" font-size="14.00">e (101)</text>
</g>
<!-- 14&#45;&gt;15 -->
<g id="edge15" class="edge">
<title>14&#45;&gt;15</title>
<path fill="none" stroke="black" d="M208.25,-50.46C208.25,-44.24 208.25,-34.15 208.25,-25.39"/>
<polygon fill="black" stroke="black" points="211.75,-25.6 208.25,-15.6 204.75,-25.6 211.75,-25.6"/>
</g>
<!-- 17 -->
<g id="node18" class="node">
<title>17</title>
<text text-anchor="middle" x="289.25" y="-51.2" font-family="Times,serif" font-size="14.00">&lt;text&gt;</text>
</g>
<!-- 16&#45;&gt;17 -->
<g id="edge17" class="edge">
<title>16&#45;&gt;17</title>
<path fill="none" stroke="black" d="M289.25,-100.71C289.25,-94.49 289.25,-84.4 289.25,-75.64"/>
<polygon fill="black" stroke="black" points="292.75,-75.85 289.25,-65.85 285.75,-75.85 292.75,-75.85"/>
</g>
<!-- 18 -->
<g id="node19" class="node">
<title>18</title>
<text text-anchor="middle" x="289.25" y="-0.95" font-family="Times,serif" font-size="14.00">x (120)</text>
</g>
<!-- 17&#45;&gt;18 -->
<g id="edge18" class="edge">
<title>17&#45;&gt;18</title>
<path fill="none" stroke="black" d="M289.25,-50.46C289.25,-44.24 289.25,-34.15 289.25,-25.39"/>
<polygon fill="black" stroke="black" points="292.75,-25.6 289.25,-15.6 285.75,-25.6 292.75,-25.6"/>
</g>
<!-- 20 -->
<g id="node21" class="node">
<title>20</title>
<text text-anchor="middle" x="357.25" y="-101.45" font-family="Times,serif" font-size="14.00">&lt;text&gt;</text>
</g>
<!-- 19&#45;&gt;20 -->
<g id="edge20" class="edge">
<title>19&#45;&gt;20</title>
<path fill="none" stroke="black" d="M334.44,-150.96C337.95,-144.45 343.74,-133.71 348.6,-124.67"/>
<polygon fill="black" stroke="black" points="351.66,-126.39 353.32,-115.92 345.49,-123.07 351.66,-126.39"/>
</g>
<!-- 21 -->
<g id="node22" class="node">
<title>21</title>
<text text-anchor="middle" x="357.25" y="-51.2" font-family="Times,serif" font-size="14.00">t (116)</text>
</g>
<!-- 20&#45;&gt;21 -->
<g id="edge21" class="edge">
<title>20&#45;&gt;21</title>
<path fill="none" stroke="black" d="M357.25,-100.71C357.25,-94.49 357.25,-84.4 357.25,-75.64"/>
<polygon fill="black" stroke="black" points="360.75,-75.85 357.25,-65.85 353.75,-75.85 360.75,-75.85"/>
</g>
<!-- 23 -->
<g id="node24" class="node">
<title>23</title>
<text text-anchor="middle" x="343.25" y="-201.95" font-family="Times,serif" font-size="14.00">&lt;/</text>
</g>
<!-- 22&#45;&gt;23 -->
<g id="edge23" class="edge">
<title>22&#45;&gt;23</title>
<path fill="none" stroke="black" d="M359.92,-251.46C357.41,-245.09 353.31,-234.68 349.81,-225.78"/>
<polygon fill="black" stroke="black" points="353.07,-224.52 346.15,-216.5 346.56,-227.09 353.07,-224.52"/>
</g>
<!-- 24 -->
<g id="node25" class="node">
<title>24</title>
<text text-anchor="middle" x="381.25" y="-201.95" font-family="Times,serif" font-size="14.00">&lt;id&gt;</text>
</g>
<!-- 22&#45;&gt;24 -->
<g id="edge24" class="edge">
<title>22&#45;&gt;24</title>
<path fill="none" stroke="black" d="M364.58,-251.46C367.09,-245.09 371.19,-234.68 374.69,-225.78"/>
<polygon fill="black" stroke="black" points="377.94,-227.09 378.35,-216.5 371.43,-224.52 377.94,-227.09"/>
</g>
<!-- 26 -->
<g id="node27" class="node">
<title>26</title>
<text text-anchor="middle" x="430.25" y="-201.95" font-family="Times,serif" font-size="14.00">&gt; (62)</text>
</g>
<!-- 22&#45;&gt;26 -->
<g id="edge26" class="edge">
<title>22&#45;&gt;26</title>
<path fill="none" stroke="black" d="M370.86,-251.26C381.34,-243.83 399.3,-231.09 412.73,-221.56"/>
<polygon fill="black" stroke="black" points="414.56,-224.55 420.69,-215.91 410.51,-218.84 414.56,-224.55"/>
</g>
<!-- 25 -->
<g id="node26" class="node">
<title>25</title>
<text text-anchor="middle" x="393.25" y="-151.7" font-family="Times,serif" font-size="14.00">html</text>
</g>
<!-- 24&#45;&gt;25 -->
<g id="edge25" class="edge">
<title>24&#45;&gt;25</title>
<path fill="none" stroke="black" d="M382.72,-201.21C384.29,-194.91 386.84,-184.67 389.03,-175.83"/>
<polygon fill="black" stroke="black" points="392.38,-176.86 391.4,-166.31 385.59,-175.17 392.38,-176.86"/>
</g>
</g>
</svg>