<?xml version="1.0" encoding="UTF-8" standalone="no"?>
<!DOCTYPE svg PUBLIC "-//W3C//DTD SVG 1.1//EN"
 "http://www.w3.org/Graphics/SVG/1.1/DTD/svg11.dtd">
<!-- Generated by graphviz version 12.2.1 (20241206.2353)
 -->
<!-- Pages: 1 -->
<svg width="143pt" height="173pt"
 viewBox="0.00 0.00 143.00 173.00" xmlns="http://www.w3.org/2000/svg" xmlns:xlink="http://www.w3.org/1999/xlink">
<g id="graph0" class="graph" transform="scale(1 1) rotate(0) translate(4 169)">
<polygon fill="white" stroke="none" points="-4,4 -4,-169 139,-169 139,4 -4,4"/>
<!-- 0 -->
<g id="node1" class="node">
<title>0</title>
<text text-anchor="middle" x="67" y="-151.7" font-family="Times,serif" font-size="14.00">&lt;start&gt;</text>
</g>
<!-- 1 -->
<g id="node2" class="node">
<title>1</title>
<text text-anchor="middle" x="67" y="-101.45" font-family="Times,serif" font-size="14.00">&lt;expr&gt;</text>
</g>
<!-- 0&#45;&gt;1 -->
<g id="edge1" class="edge">
<title>0&#45;&gt;1</title>
<path fill="none" stroke="black" d="M67,-150.96C67,-144.74 67,-134.65 67,-125.89"/>
<polygon fill="black" stroke="black" points="70.5,-126.1 67,-116.1 63.5,-126.1 70.5,-126.1"/>
</g>
<!-- 2 -->
<g id="node3" class="node">
<title>2</title>
<text text-anchor="middle" x="21" y="-51.2" font-family="Times,serif" font-size="14.00">&lt;expr&gt;</text>
</g>
<!-- 1&#45;&gt;2 -->
<g id="edge2" class="edge">
<title>1&#45;&gt;2</title>
<path fill="none" stroke="black" d="M61.36,-100.71C54.74,-93.76 43.53,-82 34.6,-72.64"/>
<polygon fill="black" stroke="black" points="37.16,-70.26 27.73,-65.44 32.1,-75.09 37.16,-70.26"/>
</g>
<!-- 4 -->
<g id="node5" class="node">
<title>4</title>
<text text-anchor="middle" x="67" y="-51.2" font-family="Times,serif" font-size="14.00"> + </text>
</g>
<!-- 1&#45;&gt;4 -->
<g id="edge4" class="edge">
<title>1&#45;&gt;4</title>
<path fill="none" stroke="black" d="M67,-100.71C67,-94.49 67,-84.4 67,-75.64"/>
<polygon fill="black" stroke="black" points="70.5,-75.85 67,-65.85 63.5,-75.85 70.5,-75.85"/>
</g>
<!-- 5 -->
<g id="node6" class="node">
<title>5</title>
<text text-anchor="middle" x="114" y="-51.2" font-family="Times,serif" font-size="14.00">&lt;term&gt;</text>
</g>
<!-- 1&#45;&gt;5 -->
<g id="edge5" class="edge">
<title>1&#45;&gt;5</title>
<path fill="none" stroke="black" d="M72.76,-100.71C79.6,-93.69 91.22,-81.76 100.39,-72.35"/>
<polygon fill="black" stroke="black" points="102.66,-75.03 107.13,-65.42 97.65,-70.15 102.66,-75.03"/>
</g>
<!-- 3 -->
<g id="node4" class="node">
<title>3</title>
<text text-anchor="middle" x="21" y="-0.95" font-family="Times,serif" font-size="14.00">&lt;term&gt;</text>
</g>
<!-- 2&#45;&gt;3 -->
<g id="edge3" class="edge">
<title>2&#45;&gt;3</title>
<path fill="none" stroke="black" d="M21,-50.46C21,-44.24 21,-34.15 21,-25.39"/>
<polygon fill="black" stroke="black" points="24.5,-25.6 21,-15.6 17.5,-25.6 24.5,-25.6"/>
</g>
</g>
</svg>