<svg class="railroad-diagram" height="62" viewBox="0 0 347.5 62" width="347.5" xmlns="http://www.w3.org/2000/svg">
<g transform="translate(.5 .5)">
<style>/* <![CDATA[ */
    svg.railroad-diagram {
        background-color:hsl(100,100%,100%);
    }
    svg.railroad-diagram path {
        stroke-width:3;
        stroke:black;
        fill:rgba(0,0,0,0);
    }
    svg.railroad-diagram text {
        font:bold 14px monospace;
        text-anchor:middle;
    }
    svg.railroad-diagram text.label{
        text-anchor:start;
    }
    svg.railroad-diagram text.comment{
        font:italic 12px monospace;
    }
    svg.railroad-diagram rect{
        stroke-width:3;
        stroke:black;
        fill:hsl(0,62%,82%);
    }

/* ]]> */
</style><g>
<path d="M20 21v20m10 -20v20m-10 -10h20"/></g><g>
<path d="M40 31h0.0"/><path d="M307.5 31h0.0"/><path d="M40.0 31h20"/><g>
<path d="M60.0 31h0.0"/><path d="M287.5 31h0.0"/><g class="non-terminal">
<path d="M60.0 31h0.0"/><path d="M165.0 31h0.0"/><rect height="22" width="105.0" x="60.0" y="20"/><text x="112.5" y="35">identifier</text></g><path d="M165.0 31h10"/><path d="M175.0 31h10"/><g class="terminal">
<path d="M185.0 31h0.0"/><path d="M213.5 31h0.0"/><rect height="22" rx="10" ry="10" width="28.5" x="185.0" y="20"/><text x="199.25" y="35">=</text></g><path d="M213.5 31h10"/><path d="M223.5 31h10"/><g class="non-terminal">
<path d="M233.5 31h0.0"/><path d="M287.5 31h0.0"/><rect height="22" width="54.0" x="233.5" y="20"/><text x="260.5" y="35">expr</text></g></g><path d="M287.5 31h20"/></g><path d="M 307.5 31 h 20 m -10 -10 v 20 m 10 -20 v 20"/></g></svg>