<?xml version="1.0" encoding="UTF-8" standalone="no"?>
<!DOCTYPE svg PUBLIC "-//W3C//DTD SVG 1.1//EN"
 "http://www.w3.org/Graphics/SVG/1.1/DTD/svg11.dtd">
<!-- Generated by graphviz version 12.2.1 (20241206.2353)
 -->
<!-- Pages: 1 -->
<svg width="673pt" height="603pt"
 viewBox="0.00 0.00 672.75 602.75" xmlns="http://www.w3.org/2000/svg" xmlns:xlink="http://www.w3.org/1999/xlink">
<g id="graph0" class="graph" transform="scale(1 1) rotate(0) translate(4 598.75)">
<polygon fill="white" stroke="none" points="-4,4 -4,-598.75 668.75,-598.75 668.75,4 -4,4"/>
<!-- 0 -->
<g id="node1" class="node">
<title>0</title>
<text text-anchor="middle" x="562.38" y="-581.45" font-family="Times,serif" font-size="14.00">(0) Length(cgi_decode_s_str_1) &lt;= 0</text>
</g>
<!-- 1 -->
<g id="node2" class="node">
<title>1</title>
<text text-anchor="middle" x="480.38" y="-516.95" font-family="Times,serif" font-size="14.00">(1) str.substr(cgi_decode_s_str_1, 0, 1) == &quot;+&quot;</text>
</g>
<!-- 0&#45;&gt;1 -->
<g id="edge1" class="edge">
<title>0&#45;&gt;1</title>
<path fill="none" stroke="red" d="M554.51,-580.63C541.38,-570.62 514.69,-550.28 497.17,-536.93"/>
<polygon fill="red" stroke="red" points="499.37,-534.2 489.3,-530.93 495.13,-539.77 499.37,-534.2"/>
<text text-anchor="middle" x="532.09" y="-549.2" font-family="Times,serif" font-size="14.00">0</text>
</g>
<!-- 18 -->
<g id="node19" class="node">
<title>18</title>
<text text-anchor="middle" x="643.38" y="-516.95" font-family="Times,serif" font-size="14.00">? (63)</text>
</g>
<!-- 0&#45;&gt;18 -->
<g id="edge18" class="edge">
<title>0&#45;&gt;18</title>
<path fill="none" stroke="blue" d="M570.14,-580.63C583.12,-570.62 609.48,-550.28 626.78,-536.93"/>
<polygon fill="blue" stroke="blue" points="628.77,-539.81 634.55,-530.93 624.5,-534.27 628.77,-539.81"/>
<text text-anchor="middle" x="613.51" y="-549.2" font-family="Times,serif" font-size="14.00">1</text>
</g>
<!-- 2 -->
<g id="node3" class="node">
<title>2</title>
<text text-anchor="middle" x="397.38" y="-452.45" font-family="Times,serif" font-size="14.00">(2) str.substr(cgi_decode_s_str_1, 0, 1) == &quot;%&quot;</text>
</g>
<!-- 1&#45;&gt;2 -->
<g id="edge2" class="edge">
<title>1&#45;&gt;2</title>
<path fill="none" stroke="red" d="M472.42,-516.13C459.12,-506.12 432.11,-485.78 414.38,-472.43"/>
<polygon fill="red" stroke="red" points="416.49,-469.64 406.4,-466.42 412.28,-475.23 416.49,-469.64"/>
<text text-anchor="middle" x="449.68" y="-484.7" font-family="Times,serif" font-size="14.00">0</text>
</g>
<!-- 17 -->
<g id="node18" class="node">
<title>17</title>
<text text-anchor="middle" x="562.38" y="-452.45" font-family="Times,serif" font-size="14.00">? (63)</text>
</g>
<!-- 1&#45;&gt;17 -->
<g id="edge17" class="edge">
<title>1&#45;&gt;17</title>
<path fill="none" stroke="blue" d="M488.24,-516.13C501.37,-506.12 528.06,-485.78 545.58,-472.43"/>
<polygon fill="blue" stroke="blue" points="547.62,-475.27 553.45,-466.43 543.38,-469.7 547.62,-475.27"/>
<text text-anchor="middle" x="532.09" y="-484.7" font-family="Times,serif" font-size="14.00">1</text>
</g>
<!-- 3 -->
<g id="node4" class="node">
<title>3</title>
<text text-anchor="middle" x="328.38" y="-387.95" font-family="Times,serif" font-size="14.00">(3) Length(cgi_decode_s_str_1) &lt;= 1</text>
</g>
<!-- 2&#45;&gt;3 -->
<g id="edge3" class="edge">
<title>2&#45;&gt;3</title>
<path fill="none" stroke="red" d="M390.76,-451.63C379.91,-441.81 358.08,-422.03 343.34,-408.68"/>
<polygon fill="red" stroke="red" points="345.75,-406.14 335.99,-402.02 341.05,-411.33 345.75,-406.14"/>
<text text-anchor="middle" x="372.43" y="-420.2" font-family="Times,serif" font-size="14.00">0</text>
</g>
<!-- 16 -->
<g id="node17" class="node">
<title>16</title>
<text text-anchor="middle" x="465.38" y="-387.95" font-family="Times,serif" font-size="14.00">? (63)</text>
</g>
<!-- 2&#45;&gt;16 -->
<g id="edge16" class="edge">
<title>2&#45;&gt;16</title>
<path fill="none" stroke="blue" d="M403.9,-451.63C414.58,-441.81 436.1,-422.03 450.62,-408.68"/>
<polygon fill="blue" stroke="blue" points="452.87,-411.38 457.86,-402.03 448.13,-406.22 452.87,-411.38"/>
<text text-anchor="middle" x="440.84" y="-420.2" font-family="Times,serif" font-size="14.00">1</text>
</g>
<!-- 4 -->
<g id="node5" class="node">
<title>4</title>
<text text-anchor="middle" x="246.38" y="-323.45" font-family="Times,serif" font-size="14.00">(4) str.substr(cgi_decode_s_str_1, 1, 1) == &quot;+&quot;</text>
</g>
<!-- 3&#45;&gt;4 -->
<g id="edge4" class="edge">
<title>3&#45;&gt;4</title>
<path fill="none" stroke="red" d="M320.51,-387.13C307.38,-377.12 280.69,-356.78 263.17,-343.43"/>
<polygon fill="red" stroke="red" points="265.37,-340.7 255.3,-337.43 261.13,-346.27 265.37,-340.7"/>
<text text-anchor="middle" x="298.09" y="-355.7" font-family="Times,serif" font-size="14.00">0</text>
</g>
<!-- 15 -->
<g id="node16" class="node">
<title>15</title>
<text text-anchor="middle" x="409.38" y="-323.45" font-family="Times,serif" font-size="14.00">? (63)</text>
</g>
<!-- 3&#45;&gt;15 -->
<g id="edge15" class="edge">
<title>3&#45;&gt;15</title>
<path fill="none" stroke="blue" d="M336.14,-387.13C349.12,-377.12 375.48,-356.78 392.78,-343.43"/>
<polygon fill="blue" stroke="blue" points="394.77,-346.31 400.55,-337.43 390.5,-340.77 394.77,-346.31"/>
<text text-anchor="middle" x="379.51" y="-355.7" font-family="Times,serif" font-size="14.00">1</text>
</g>
<!-- 5 -->
<g id="node6" class="node">
<title>5</title>
<text text-anchor="middle" x="231.38" y="-258.95" font-family="Times,serif" font-size="14.00">? (63)</text>
</g>
<!-- 4&#45;&gt;5 -->
<g id="edge5" class="edge">
<title>4&#45;&gt;5</title>
<path fill="none" stroke="red" d="M244.99,-322.86C242.84,-313.88 238.6,-296.22 235.42,-282.98"/>
<polygon fill="red" stroke="red" points="238.89,-282.44 233.15,-273.53 232.08,-284.07 238.89,-282.44"/>
<text text-anchor="middle" x="243.59" y="-291.2" font-family="Times,serif" font-size="14.00">0</text>
</g>
<!-- 6 -->
<g id="node7" class="node">
<title>6</title>
<text text-anchor="middle" x="368.38" y="-258.95" font-family="Times,serif" font-size="14.00">(5) Length(cgi_decode_s_str_1) &lt;= 2</text>
</g>
<!-- 4&#45;&gt;6 -->
<g id="edge6" class="edge">
<title>4&#45;&gt;6</title>
<path fill="none" stroke="blue" d="M258.07,-322.63C278.42,-312.21 320.65,-290.58 346.54,-277.31"/>
<polygon fill="blue" stroke="blue" points="347.88,-280.56 355.19,-272.88 344.69,-274.33 347.88,-280.56"/>
<text text-anchor="middle" x="321.68" y="-291.2" font-family="Times,serif" font-size="14.00">1</text>
</g>
<!-- 7 -->
<g id="node8" class="node">
<title>7</title>
<text text-anchor="middle" x="254.38" y="-194.45" font-family="Times,serif" font-size="14.00">(6) str.substr(cgi_decode_s_str_1, 2, 1) == &quot;+&quot;</text>
</g>
<!-- 6&#45;&gt;7 -->
<g id="edge7" class="edge">
<title>6&#45;&gt;7</title>
<path fill="none" stroke="red" d="M357.44,-258.13C338.6,-247.8 299.68,-226.46 275.43,-213.17"/>
<polygon fill="red" stroke="red" points="277.22,-210.16 266.77,-208.42 273.85,-216.3 277.22,-210.16"/>
<text text-anchor="middle" x="324.96" y="-226.7" font-family="Times,serif" font-size="14.00">0</text>
</g>
<!-- 14 -->
<g id="node15" class="node">
<title>14</title>
<text text-anchor="middle" x="415.38" y="-194.45" font-family="Times,serif" font-size="14.00">* A+</text>
</g>
<!-- 6&#45;&gt;14 -->
<g id="edge14" class="edge">
<title>6&#45;&gt;14</title>
<path fill="none" stroke="blue" d="M372.71,-258.36C379.81,-248.92 394.13,-229.88 404.21,-216.47"/>
<polygon fill="blue" stroke="blue" points="406.79,-218.87 410,-208.77 401.19,-214.66 406.79,-218.87"/>
<text text-anchor="middle" x="399.46" y="-226.7" font-family="Times,serif" font-size="14.00">1</text>
</g>
<!-- 8 -->
<g id="node9" class="node">
<title>8</title>
<text text-anchor="middle" x="171.38" y="-129.95" font-family="Times,serif" font-size="14.00">(7) str.substr(cgi_decode_s_str_1, 2, 1) == &quot;%&quot;</text>
</g>
<!-- 7&#45;&gt;8 -->
<g id="edge8" class="edge">
<title>7&#45;&gt;8</title>
<path fill="none" stroke="red" d="M246.42,-193.63C233.12,-183.62 206.11,-163.28 188.38,-149.93"/>
<polygon fill="red" stroke="red" points="190.49,-147.14 180.4,-143.92 186.28,-152.73 190.49,-147.14"/>
<text text-anchor="middle" x="223.68" y="-162.2" font-family="Times,serif" font-size="14.00">0</text>
</g>
<!-- 13 -->
<g id="node14" class="node">
<title>13</title>
<text text-anchor="middle" x="336.38" y="-129.95" font-family="Times,serif" font-size="14.00">? (63)</text>
</g>
<!-- 7&#45;&gt;13 -->
<g id="edge13" class="edge">
<title>7&#45;&gt;13</title>
<path fill="none" stroke="blue" d="M262.24,-193.63C275.37,-183.62 302.06,-163.28 319.58,-149.93"/>
<polygon fill="blue" stroke="blue" points="321.62,-152.77 327.45,-143.93 317.38,-147.2 321.62,-152.77"/>
<text text-anchor="middle" x="306.09" y="-162.2" font-family="Times,serif" font-size="14.00">1</text>
</g>
<!-- 9 -->
<g id="node10" class="node">
<title>9</title>
<text text-anchor="middle" x="102.38" y="-65.45" font-family="Times,serif" font-size="14.00">(8) Length(cgi_decode_s_str_1) &lt;= 3</text>
</g>
<!-- 8&#45;&gt;9 -->
<g id="edge9" class="edge">
<title>8&#45;&gt;9</title>
<path fill="none" stroke="red" d="M164.76,-129.13C153.91,-119.31 132.08,-99.53 117.34,-86.18"/>
<polygon fill="red" stroke="red" points="119.75,-83.64 109.99,-79.52 115.05,-88.83 119.75,-83.64"/>
<text text-anchor="middle" x="146.43" y="-97.7" font-family="Times,serif" font-size="14.00">0</text>
</g>
<!-- 12 -->
<g id="node13" class="node">
<title>12</title>
<text text-anchor="middle" x="239.38" y="-65.45" font-family="Times,serif" font-size="14.00">? (63)</text>
</g>
<!-- 8&#45;&gt;12 -->
<g id="edge12" class="edge">
<title>8&#45;&gt;12</title>
<path fill="none" stroke="blue" d="M177.9,-129.13C188.58,-119.31 210.1,-99.53 224.62,-86.18"/>
<polygon fill="blue" stroke="blue" points="226.87,-88.88 231.86,-79.53 222.13,-83.72 226.87,-88.88"/>
<text text-anchor="middle" x="214.84" y="-97.7" font-family="Times,serif" font-size="14.00">1</text>
</g>
<!-- 10 -->
<g id="node11" class="node">
<title>10</title>
<text text-anchor="middle" x="77.38" y="-0.95" font-family="Times,serif" font-size="14.00">? (63)</text>
</g>
<!-- 9&#45;&gt;10 -->
<g id="edge10" class="edge">
<title>9&#45;&gt;10</title>
<path fill="none" stroke="red" d="M100.07,-64.86C96.44,-55.79 89.27,-37.86 83.95,-24.57"/>
<polygon fill="red" stroke="red" points="87.28,-23.45 80.31,-15.47 80.78,-26.05 87.28,-23.45"/>
<text text-anchor="middle" x="95.49" y="-33.2" font-family="Times,serif" font-size="14.00">0</text>
</g>
<!-- 11 -->
<g id="node12" class="node">
<title>11</title>
<text text-anchor="middle" x="127.38" y="-0.95" font-family="Times,serif" font-size="14.00">* a+c</text>
</g>
<!-- 9&#45;&gt;11 -->
<g id="edge11" class="edge">
<title>9&#45;&gt;11</title>
<path fill="none" stroke="blue" d="M104.68,-64.86C108.31,-55.79 115.48,-37.86 120.8,-24.57"/>
<polygon fill="blue" stroke="blue" points="123.97,-26.05 124.44,-15.47 117.47,-23.45 123.97,-26.05"/>
<text text-anchor="middle" x="120.49" y="-33.2" font-family="Times,serif" font-size="14.00">1</text>
</g>
</g>
</svg>