<svg xmlns="http://www.w3.org/2000/svg" class="railroad-diagram" height="122" viewBox="0 0 418.0 122" width="418.0">
<g transform="translate(.5 .5)">
<style>/* <![CDATA[ */
    svg.railroad-diagram {
    }
    svg.railroad-diagram path {
        stroke-width:3;
        stroke:black;
        fill:white;
    }
    svg.railroad-diagram text {
        font:14px "Fira Mono", monospace;
        text-anchor:middle;
    }
    svg.railroad-diagram text.label{
        text-anchor:start;
    }
    svg.railroad-diagram text.comment{
        font:italic 12px "Fira Mono", monospace;
    }
    svg.railroad-diagram rect{
        stroke-width:2;
        stroke:black;
        fill:mistyrose;
    }

/* ]]> */
</style><g>
<path d="M20 51v20m10 -20v20m-10 -10h20"/></g><g>
<path d="M40 61h0.0"/><path d="M378.0 61h0.0"/><path d="M40.0 61a10 10 0 0 0 10 -10v-10a10 10 0 0 1 10 -10"/><g>
<path d="M60.0 31h83.75"/><path d="M274.25 31h83.75"/><g class="non-terminal">
<path d="M143.75 31h0.0"/><path d="M274.25 31h0.0"/><rect height="22" width="130.5" x="143.75" y="20"/><text x="209.0" y="35">subtopic-main</text></g></g><path d="M358.0 31a10 10 0 0 1 10 10v10a10 10 0 0 0 10 10"/><path d="M40.0 61h20"/><g>
<path d="M60.0 61h0.0"/><path d="M358.0 61h0.0"/><g class="non-terminal">
<path d="M60.0 61h0.0"/><path d="M207.5 61h0.0"/><rect height="22" width="147.5" x="60.0" y="50"/><text x="133.75" y="65">subtopic-prefix</text></g><path d="M207.5 61h10"/><path d="M217.5 61h10"/><g class="non-terminal">
<path d="M227.5 61h0.0"/><path d="M358.0 61h0.0"/><rect height="22" width="130.5" x="227.5" y="50"/><text x="292.75" y="65">subtopic-main</text></g></g><path d="M358.0 61h20"/><path d="M40.0 61a10 10 0 0 1 10 10v10a10 10 0 0 0 10 10"/><g>
<path d="M60.0 91h0.0"/><path d="M358.0 91h0.0"/><g class="non-terminal">
<path d="M60.0 91h0.0"/><path d="M190.5 91h0.0"/><rect height="22" width="130.5" x="60.0" y="80"/><text x="125.25" y="95">subtopic-main</text></g><path d="M190.5 91h10"/><path d="M200.5 91h10"/><g class="non-terminal">
<path d="M210.5 91h0.0"/><path d="M358.0 91h0.0"/><rect height="22" width="147.5" x="210.5" y="80"/><text x="284.25" y="95">subtopic-suffix</text></g></g><path d="M358.0 91a10 10 0 0 0 10 -10v-10a10 10 0 0 1 10 -10"/></g><path d="M 378.0 61 h 20 m -10 -10 v 20 m 10 -20 v 20"/></g></svg>