<svg xmlns="http://www.w3.org/2000/svg" class="railroad-diagram" height="62" viewBox="0 0 1221.5 62" width="1221.5">
<g transform="translate(.5 .5)">
<style>/* <![CDATA[ */
    svg.railroad-diagram {
    }
    svg.railroad-diagram path {
        stroke-width:3;
        stroke:black;
        fill:white;
    }
    svg.railroad-diagram text {
        font:14px "Fira Mono", monospace;
        text-anchor:middle;
    }
    svg.railroad-diagram text.label{
        text-anchor:start;
    }
    svg.railroad-diagram text.comment{
        font:italic 12px "Fira Mono", monospace;
    }
    svg.railroad-diagram rect{
        stroke-width:2;
        stroke:black;
        fill:mistyrose;
    }

/* ]]> */
</style><g>
<path d="M20 21v20m10 -20v20m-10 -10h20"/></g><g>
<path d="M40 31h0.0"/><path d="M1181.5 31h0.0"/><path d="M40.0 31h20"/><g>
<path d="M60.0 31h0.0"/><path d="M1161.5 31h0.0"/><g class="non-terminal">
<path d="M60.0 31h0.0"/><path d="M275.5 31h0.0"/><rect height="22" width="215.5" x="60.0" y="20"/><text x="167.75" y="35">process_vehicle@30:year</text></g><path d="M275.5 31h10"/><path d="M285.5 31h10"/><g class="terminal">
<path d="M295.5 31h0.0"/><path d="M324.0 31h0.0"/><rect height="22" rx="10" ry="10" width="28.5" x="295.5" y="20"/><text x="309.75" y="35">,</text></g><path d="M324.0 31h10"/><path d="M334.0 31h10"/><g class="non-terminal">
<path d="M344.0 31h0.0"/><path d="M559.5 31h0.0"/><rect height="22" width="215.5" x="344.0" y="20"/><text x="451.75" y="35">process_vehicle@30:kind</text></g><path d="M559.5 31h10"/><path d="M569.5 31h10"/><g class="terminal">
<path d="M579.5 31h0.0"/><path d="M608.0 31h0.0"/><rect height="22" rx="10" ry="10" width="28.5" x="579.5" y="20"/><text x="593.75" y="35">,</text></g><path d="M608.0 31h10"/><path d="M618.0 31h10"/><g class="non-terminal">
<path d="M628.0 31h0.0"/><path d="M869.0 31h0.0"/><rect height="22" width="241.0" x="628.0" y="20"/><text x="748.5" y="35">process_vehicle@30:company</text></g><path d="M869.0 31h10"/><path d="M879.0 31h10"/><g class="terminal">
<path d="M889.0 31h0.0"/><path d="M917.5 31h0.0"/><rect height="22" rx="10" ry="10" width="28.5" x="889.0" y="20"/><text x="903.25" y="35">,</text></g><path d="M917.5 31h10"/><path d="M927.5 31h10"/><g class="non-terminal">
<path d="M937.5 31h0.0"/><path d="M1161.5 31h0.0"/><rect height="22" width="224.0" x="937.5" y="20"/><text x="1049.5" y="35">process_vehicle@30:model</text></g></g><path d="M1161.5 31h20"/></g><path d="M 1181.5 31 h 20 m -10 -10 v 20 m 10 -20 v 20"/></g></svg>