<svg xmlns="http://www.w3.org/2000/svg" class="railroad-diagram" height="80" viewBox="0 0 876.5 80" width="876.5">
<g transform="translate(.5 .5)">
<style>/* <![CDATA[ */
    svg.railroad-diagram {
    }
    svg.railroad-diagram path {
        stroke-width:3;
        stroke:black;
        fill:white;
    }
    svg.railroad-diagram text {
        font:14px "Fira Mono", monospace;
        text-anchor:middle;
    }
    svg.railroad-diagram text.label{
        text-anchor:start;
    }
    svg.railroad-diagram text.comment{
        font:italic 12px "Fira Mono", monospace;
    }
    svg.railroad-diagram rect{
        stroke-width:2;
        stroke:black;
        fill:mistyrose;
    }

/* ]]> */
</style><g>
<path d="M20 30v20m10 -20v20m-10 -10h20"/></g><g>
<path d="M40 40h0.0"/><path d="M836.5 40h0.0"/><path d="M40.0 40a10 10 0 0 0 10 -10v0a10 10 0 0 1 10 -10h678.0"/><path d="M138.5 60h678.0a10 10 0 0 0 10 -10v0a10 10 0 0 1 10 -10"/><path d="M40.0 40h10"/><g>
<path d="M50.0 40h0.0"/><path d="M118.5 40h0.0"/><path d="M50.0 40h20"/><g>
<path d="M70.0 40h0.0"/><path d="M98.5 40h0.0"/><g class="terminal">
<path d="M70.0 40h0.0"/><path d="M98.5 40h0.0"/><rect height="22" rx="10" ry="10" width="28.5" x="70.0" y="29"/><text x="84.25" y="44">1</text></g></g><path d="M98.5 40h20"/></g><path d="M118.5 40a10 10 0 0 1 10 10v0a10 10 0 0 0 10 10"/><path d="M118.5 20a10 10 0 0 1 10 10v0a10 10 0 0 0 10 10"/><g>
<path d="M138.5 40h0.0"/><path d="M207.0 40h0.0"/><path d="M138.5 40h20"/><g>
<path d="M158.5 40h0.0"/><path d="M187.0 40h0.0"/><g class="terminal">
<path d="M158.5 40h0.0"/><path d="M187.0 40h0.0"/><rect height="22" rx="10" ry="10" width="28.5" x="158.5" y="29"/><text x="172.75" y="44">2</text></g></g><path d="M187.0 40h20"/></g><path d="M207.0 40a10 10 0 0 1 10 10v0a10 10 0 0 0 10 10"/><path d="M207.0 20a10 10 0 0 1 10 10v0a10 10 0 0 0 10 10"/><g>
<path d="M227.0 40h0.0"/><path d="M295.5 40h0.0"/><path d="M227.0 40h20"/><g>
<path d="M247.0 40h0.0"/><path d="M275.5 40h0.0"/><g class="terminal">
<path d="M247.0 40h0.0"/><path d="M275.5 40h0.0"/><rect height="22" rx="10" ry="10" width="28.5" x="247.0" y="29"/><text x="261.25" y="44">3</text></g></g><path d="M275.5 40h20"/></g><path d="M295.5 40a10 10 0 0 1 10 10v0a10 10 0 0 0 10 10"/><path d="M295.5 20a10 10 0 0 1 10 10v0a10 10 0 0 0 10 10"/><g>
<path d="M315.5 40h0.0"/><path d="M384.0 40h0.0"/><path d="M315.5 40h20"/><g>
<path d="M335.5 40h0.0"/><path d="M364.0 40h0.0"/><g class="terminal">
<path d="M335.5 40h0.0"/><path d="M364.0 40h0.0"/><rect height="22" rx="10" ry="10" width="28.5" x="335.5" y="29"/><text x="349.75" y="44">4</text></g></g><path d="M364.0 40h20"/></g><path d="M384.0 40a10 10 0 0 1 10 10v0a10 10 0 0 0 10 10"/><path d="M384.0 20a10 10 0 0 1 10 10v0a10 10 0 0 0 10 10"/><g>
<path d="M404.0 40h0.0"/><path d="M472.5 40h0.0"/><path d="M404.0 40h20"/><g>
<path d="M424.0 40h0.0"/><path d="M452.5 40h0.0"/><g class="terminal">
<path d="M424.0 40h0.0"/><path d="M452.5 40h0.0"/><rect height="22" rx="10" ry="10" width="28.5" x="424.0" y="29"/><text x="438.25" y="44">5</text></g></g><path d="M452.5 40h20"/></g><path d="M472.5 40a10 10 0 0 1 10 10v0a10 10 0 0 0 10 10"/><path d="M472.5 20a10 10 0 0 1 10 10v0a10 10 0 0 0 10 10"/><g>
<path d="M492.5 40h0.0"/><path d="M561.0 40h0.0"/><path d="M492.5 40h20"/><g>
<path d="M512.5 40h0.0"/><path d="M541.0 40h0.0"/><g class="terminal">
<path d="M512.5 40h0.0"/><path d="M541.0 40h0.0"/><rect height="22" rx="10" ry="10" width="28.5" x="512.5" y="29"/><text x="526.75" y="44">6</text></g></g><path d="M541.0 40h20"/></g><path d="M561.0 40a10 10 0 0 1 10 10v0a10 10 0 0 0 10 10"/><path d="M561.0 20a10 10 0 0 1 10 10v0a10 10 0 0 0 10 10"/><g>
<path d="M581.0 40h0.0"/><path d="M649.5 40h0.0"/><path d="M581.0 40h20"/><g>
<path d="M601.0 40h0.0"/><path d="M629.5 40h0.0"/><g class="terminal">
<path d="M601.0 40h0.0"/><path d="M629.5 40h0.0"/><rect height="22" rx="10" ry="10" width="28.5" x="601.0" y="29"/><text x="615.25" y="44">7</text></g></g><path d="M629.5 40h20"/></g><path d="M649.5 40a10 10 0 0 1 10 10v0a10 10 0 0 0 10 10"/><path d="M649.5 20a10 10 0 0 1 10 10v0a10 10 0 0 0 10 10"/><g>
<path d="M669.5 40h0.0"/><path d="M738.0 40h0.0"/><path d="M669.5 40h20"/><g>
<path d="M689.5 40h0.0"/><path d="M718.0 40h0.0"/><g class="terminal">
<path d="M689.5 40h0.0"/><path d="M718.0 40h0.0"/><rect height="22" rx="10" ry="10" width="28.5" x="689.5" y="29"/><text x="703.75" y="44">8</text></g></g><path d="M718.0 40h20"/></g><path d="M738.0 40a10 10 0 0 1 10 10v0a10 10 0 0 0 10 10"/><path d="M738.0 20a10 10 0 0 1 10 10v0a10 10 0 0 0 10 10"/><g>
<path d="M758.0 40h0.0"/><path d="M826.5 40h0.0"/><path d="M758.0 40h20"/><g>
<path d="M778.0 40h0.0"/><path d="M806.5 40h0.0"/><g class="terminal">
<path d="M778.0 40h0.0"/><path d="M806.5 40h0.0"/><rect height="22" rx="10" ry="10" width="28.5" x="778.0" y="29"/><text x="792.25" y="44">9</text></g></g><path d="M806.5 40h20"/></g><path d="M826.5 40h10"/></g><path d="M 836.5 40 h 20 m -10 -10 v 20 m 10 -20 v 20"/></g></svg>