<?xml version="1.0" encoding="UTF-8" standalone="no"?>
<!DOCTYPE svg PUBLIC "-//W3C//DTD SVG 1.1//EN"
 "http://www.w3.org/Graphics/SVG/1.1/DTD/svg11.dtd">
<!-- Generated by graphviz version 12.2.1 (20241206.2353)
 -->
<!-- Pages: 1 -->
<svg width="211pt" height="223pt"
 viewBox="0.00 0.00 211.00 223.25" xmlns="http://www.w3.org/2000/svg" xmlns:xlink="http://www.w3.org/1999/xlink">
<g id="graph0" class="graph" transform="scale(1 1) rotate(0) translate(4 219.25)">
<polygon fill="white" stroke="none" points="-4,4 -4,-219.25 207,-219.25 207,4 -4,4"/>
<!-- 0 -->
<g id="node1" class="node">
<title>0</title>
<text text-anchor="middle" x="84" y="-201.95" font-family="Times,serif" font-size="14.00">&lt;start&gt;</text>
</g>
<!-- 1 -->
<g id="node2" class="node">
<title>1</title>
<text text-anchor="middle" x="84" y="-151.7" font-family="Times,serif" font-size="14.00">&lt;expr&gt;</text>
</g>
<!-- 0&#45;&gt;1 -->
<g id="edge1" class="edge">
<title>0&#45;&gt;1</title>
<path fill="none" stroke="black" d="M84,-201.21C84,-194.99 84,-184.9 84,-176.14"/>
<polygon fill="black" stroke="black" points="87.5,-176.35 84,-166.35 80.5,-176.35 87.5,-176.35"/>
</g>
<!-- 2 -->
<g id="node3" class="node">
<title>2</title>
<text text-anchor="middle" x="33" y="-101.45" font-family="Times,serif" font-size="14.00">&lt;expr&gt;</text>
</g>
<!-- 1&#45;&gt;2 -->
<g id="edge2" class="edge">
<title>1&#45;&gt;2</title>
<path fill="none" stroke="black" d="M77.75,-150.96C70.25,-143.87 57.46,-131.76 47.46,-122.31"/>
<polygon fill="black" stroke="black" points="50.07,-119.96 40.4,-115.63 45.26,-125.04 50.07,-119.96"/>
</g>
<!-- 5 -->
<g id="node6" class="node">
<title>5</title>
<text text-anchor="middle" x="84" y="-101.45" font-family="Times,serif" font-size="14.00"> + </text>
</g>
<!-- 1&#45;&gt;5 -->
<g id="edge5" class="edge">
<title>1&#45;&gt;5</title>
<path fill="none" stroke="black" d="M84,-150.96C84,-144.74 84,-134.65 84,-125.89"/>
<polygon fill="black" stroke="black" points="87.5,-126.1 84,-116.1 80.5,-126.1 87.5,-126.1"/>
</g>
<!-- 6 -->
<g id="node7" class="node">
<title>6</title>
<text text-anchor="middle" x="133" y="-101.45" font-family="Times,serif" font-size="14.00">&lt;term&gt;</text>
</g>
<!-- 1&#45;&gt;6 -->
<g id="edge6" class="edge">
<title>1&#45;&gt;6</title>
<path fill="none" stroke="black" d="M90.01,-150.96C97.14,-143.94 109.25,-132.01 118.81,-122.6"/>
<polygon fill="black" stroke="black" points="121.19,-125.16 125.86,-115.65 116.28,-120.17 121.19,-125.16"/>
</g>
<!-- 3 -->
<g id="node4" class="node">
<title>3</title>
<text text-anchor="middle" x="24" y="-51.2" font-family="Times,serif" font-size="14.00">&lt;term&gt;</text>
</g>
<!-- 2&#45;&gt;3 -->
<g id="edge3" class="edge">
<title>2&#45;&gt;3</title>
<path fill="none" stroke="black" d="M31.9,-100.71C30.74,-94.49 28.85,-84.4 27.22,-75.64"/>
<polygon fill="black" stroke="black" points="30.66,-75.02 25.39,-65.83 23.78,-76.3 30.66,-75.02"/>
</g>
<!-- 4 -->
<g id="node5" class="node">
<title>4</title>
<text text-anchor="middle" x="24" y="-0.95" font-family="Times,serif" font-size="14.00">&lt;factor&gt;</text>
</g>
<!-- 3&#45;&gt;4 -->
<g id="edge4" class="edge">
<title>3&#45;&gt;4</title>
<path fill="none" stroke="black" d="M24,-50.46C24,-44.24 24,-34.15 24,-25.39"/>
<polygon fill="black" stroke="black" points="27.5,-25.6 24,-15.6 20.5,-25.6 27.5,-25.6"/>
</g>
<!-- 7 -->
<g id="node8" class="node">
<title>7</title>
<text text-anchor="middle" x="87" y="-51.2" font-family="Times,serif" font-size="14.00">&lt;factor&gt;</text>
</g>
<!-- 6&#45;&gt;7 -->
<g id="edge7" class="edge">
<title>6&#45;&gt;7</title>
<path fill="none" stroke="black" d="M127.36,-100.71C120.74,-93.76 109.53,-82 100.6,-72.64"/>
<polygon fill="black" stroke="black" points="103.16,-70.26 93.73,-65.44 98.1,-75.09 103.16,-70.26"/>
</g>
<!-- 8 -->
<g id="node9" class="node">
<title>8</title>
<text text-anchor="middle" x="136" y="-51.2" font-family="Times,serif" font-size="14.00"> * </text>
</g>
<!-- 6&#45;&gt;8 -->
<g id="edge8" class="edge">
<title>6&#45;&gt;8</title>
<path fill="none" stroke="black" d="M133.37,-100.71C133.75,-94.49 134.38,-84.4 134.93,-75.64"/>
<polygon fill="black" stroke="black" points="138.41,-76.05 135.54,-65.85 131.42,-75.61 138.41,-76.05"/>
</g>
<!-- 9 -->
<g id="node10" class="node">
<title>9</title>
<text text-anchor="middle" x="182" y="-51.2" font-family="Times,serif" font-size="14.00">&lt;term&gt;</text>
</g>
<!-- 6&#45;&gt;9 -->
<g id="edge9" class="edge">
<title>6&#45;&gt;9</title>
<path fill="none" stroke="black" d="M139.01,-100.71C146.14,-93.69 158.25,-81.76 167.81,-72.35"/>
<polygon fill="black" stroke="black" points="170.19,-74.91 174.86,-65.4 165.28,-69.92 170.19,-74.91"/>
</g>
</g>
</svg>