<?xml version="1.0" encoding="UTF-8" standalone="no"?>
<!DOCTYPE svg PUBLIC "-//W3C//DTD SVG 1.1//EN"
 "http://www.w3.org/Graphics/SVG/1.1/DTD/svg11.dtd">
<!-- Generated by graphviz version 12.2.1 (20241206.2353)
 -->
<!-- Pages: 1 -->
<svg width="130pt" height="223pt"
 viewBox="0.00 0.00 130.25 223.25" xmlns="http://www.w3.org/2000/svg" xmlns:xlink="http://www.w3.org/1999/xlink">
<g id="graph0" class="graph" transform="scale(1 1) rotate(0) translate(4 219.25)">
<polygon fill="white" stroke="none" points="-4,4 -4,-219.25 126.25,-219.25 126.25,4 -4,4"/>
<!-- 0 -->
<g id="node1" class="node">
<title>0</title>
<text text-anchor="middle" x="39.12" y="-201.95" font-family="Times,serif" font-size="14.00">&lt;start&gt;</text>
</g>
<!-- 1 -->
<g id="node2" class="node">
<title>1</title>
<text text-anchor="middle" x="39.12" y="-151.7" font-family="Times,serif" font-size="14.00">&lt;A&gt;</text>
</g>
<!-- 0&#45;&gt;1 -->
<g id="edge1" class="edge">
<title>0&#45;&gt;1</title>
<path fill="none" stroke="black" d="M39.12,-201.21C39.12,-194.99 39.12,-184.9 39.12,-176.14"/>
<polygon fill="black" stroke="black" points="42.63,-176.35 39.13,-166.35 35.63,-176.35 42.63,-176.35"/>
</g>
<!-- 2 -->
<g id="node3" class="node">
<title>2</title>
<text text-anchor="middle" x="16.12" y="-101.45" font-family="Times,serif" font-size="14.00">a (97)</text>
</g>
<!-- 1&#45;&gt;2 -->
<g id="edge2" class="edge">
<title>1&#45;&gt;2</title>
<path fill="none" stroke="black" d="M36.3,-150.96C33.24,-144.52 28.19,-133.94 23.92,-124.97"/>
<polygon fill="black" stroke="black" points="27.08,-123.48 19.62,-115.96 20.76,-126.49 27.08,-123.48"/>
</g>
<!-- 3 -->
<g id="node4" class="node">
<title>3</title>
<text text-anchor="middle" x="63.12" y="-101.45" font-family="Times,serif" font-size="14.00">&lt;A&gt;</text>
</g>
<!-- 1&#45;&gt;3 -->
<g id="edge3" class="edge">
<title>1&#45;&gt;3</title>
<path fill="none" stroke="black" d="M42.07,-150.96C45.31,-144.45 50.65,-133.71 55.14,-124.67"/>
<polygon fill="black" stroke="black" points="58.16,-126.46 59.48,-115.94 51.9,-123.34 58.16,-126.46"/>
</g>
<!-- 4 -->
<g id="node5" class="node">
<title>4</title>
<text text-anchor="middle" x="39.12" y="-51.2" font-family="Times,serif" font-size="14.00">a (97)</text>
</g>
<!-- 3&#45;&gt;4 -->
<g id="edge4" class="edge">
<title>3&#45;&gt;4</title>
<path fill="none" stroke="black" d="M60.18,-100.71C56.94,-94.2 51.6,-83.46 47.11,-74.42"/>
<polygon fill="black" stroke="black" points="50.35,-73.09 42.77,-65.69 44.09,-76.21 50.35,-73.09"/>
</g>
<!-- 5 -->
<g id="node6" class="node">
<title>5</title>
<text text-anchor="middle" x="86.12" y="-51.2" font-family="Times,serif" font-size="14.00">&lt;A&gt;</text>
</g>
<!-- 3&#45;&gt;5 -->
<g id="edge5" class="edge">
<title>3&#45;&gt;5</title>
<path fill="none" stroke="black" d="M65.95,-100.71C69.01,-94.27 74.06,-83.69 78.33,-74.72"/>
<polygon fill="black" stroke="black" points="81.49,-76.24 82.63,-65.71 75.17,-73.23 81.49,-76.24"/>
</g>
<!-- 6 -->
<g id="node7" class="node">
<title>6</title>
<text text-anchor="middle" x="62.12" y="-0.95" font-family="Times,serif" font-size="14.00">a (97)</text>
</g>
<!-- 5&#45;&gt;6 -->
<g id="edge6" class="edge">
<title>5&#45;&gt;6</title>
<path fill="none" stroke="black" d="M83.18,-50.46C79.94,-43.95 74.6,-33.21 70.11,-24.17"/>
<polygon fill="black" stroke="black" points="73.35,-22.84 65.77,-15.44 67.09,-25.96 73.35,-22.84"/>
</g>
<!-- 7 -->
<g id="node8" class="node">
<title>7</title>
<text text-anchor="middle" x="109.12" y="-0.95" font-family="Times,serif" font-size="14.00">&lt;A&gt;</text>
</g>
<!-- 5&#45;&gt;7 -->
<g id="edge7" class="edge">
<title>5&#45;&gt;7</title>
<path fill="none" stroke="black" d="M88.95,-50.46C92.01,-44.02 97.06,-33.44 101.33,-24.47"/>
<polygon fill="black" stroke="black" points="104.49,-25.99 105.63,-15.46 98.17,-22.98 104.49,-25.99"/>
</g>
</g>
</svg>