<?xml version="1.0" encoding="UTF-8" standalone="no"?>
<!DOCTYPE svg PUBLIC "-//W3C//DTD SVG 1.1//EN"
 "http://www.w3.org/Graphics/SVG/1.1/DTD/svg11.dtd">
<!-- Generated by graphviz version 12.2.1 (20241206.2353)
 -->
<!-- Pages: 1 -->
<svg width="898pt" height="927pt"
 viewBox="0.00 0.00 897.62 926.75" xmlns="http://www.w3.org/2000/svg" xmlns:xlink="http://www.w3.org/1999/xlink">
<g id="graph0" class="graph" transform="scale(1 1) rotate(0) translate(4 922.75)">
<polygon fill="white" stroke="none" points="-4,4 -4,-922.75 893.62,-922.75 893.62,4 -4,4"/>
<!-- 0 -->
<g id="node1" class="node">
<title>0</title>
<text text-anchor="middle" x="143.38" y="-905.45" font-family="Times,serif" font-size="14.00">&lt;start&gt;</text>
</g>
<!-- 1 -->
<g id="node2" class="node">
<title>1</title>
<text text-anchor="middle" x="143.38" y="-855.2" font-family="Times,serif" font-size="14.00">&lt;config&gt;</text>
</g>
<!-- 0&#45;&gt;1 -->
<g id="edge1" class="edge">
<title>0&#45;&gt;1</title>
<path fill="none" stroke="black" d="M143.38,-904.71C143.38,-898.49 143.38,-888.4 143.38,-879.64"/>
<polygon fill="black" stroke="black" points="146.88,-879.85 143.38,-869.85 139.88,-879.85 146.88,-879.85"/>
</g>
<!-- 2 -->
<g id="node3" class="node">
<title>2</title>
<text text-anchor="middle" x="27.38" y="-804.95" font-family="Times,serif" font-size="14.00">pagesize=</text>
</g>
<!-- 1&#45;&gt;2 -->
<g id="edge2" class="edge">
<title>1&#45;&gt;2</title>
<path fill="none" stroke="black" d="M128.68,-854.26C109.51,-846.29 75.66,-832.21 52.4,-822.54"/>
<polygon fill="black" stroke="black" points="53.92,-819.38 43.34,-818.77 51.23,-825.84 53.92,-819.38"/>
</g>
<!-- 3 -->
<g id="node4" class="node">
<title>3</title>
<text text-anchor="middle" x="104.38" y="-804.95" font-family="Times,serif" font-size="14.00">&lt;pagesize&gt;</text>
</g>
<!-- 1&#45;&gt;3 -->
<g id="edge3" class="edge">
<title>1&#45;&gt;3</title>
<path fill="none" stroke="black" d="M138.59,-854.46C133.1,-847.66 123.87,-836.24 116.38,-826.98"/>
<polygon fill="black" stroke="black" points="119.16,-824.84 110.15,-819.27 113.71,-829.24 119.16,-824.84"/>
</g>
<!-- 47 -->
<g id="node48" class="node">
<title>47</title>
<text text-anchor="middle" x="182.38" y="-804.95" font-family="Times,serif" font-size="14.00">\nbufsize=</text>
</g>
<!-- 1&#45;&gt;47 -->
<g id="edge47" class="edge">
<title>1&#45;&gt;47</title>
<path fill="none" stroke="black" d="M148.16,-854.46C153.65,-847.66 162.88,-836.24 170.37,-826.98"/>
<polygon fill="black" stroke="black" points="173.04,-829.24 176.6,-819.27 167.59,-824.84 173.04,-829.24"/>
</g>
<!-- 48 -->
<g id="node49" class="node">
<title>48</title>
<text text-anchor="middle" x="257.38" y="-804.95" font-family="Times,serif" font-size="14.00">&lt;bufsize&gt;</text>
</g>
<!-- 1&#45;&gt;48 -->
<g id="edge48" class="edge">
<title>1&#45;&gt;48</title>
<path fill="none" stroke="black" d="M157.81,-854.26C176.57,-846.32 209.62,-832.34 232.47,-822.67"/>
<polygon fill="black" stroke="black" points="233.82,-825.9 241.66,-818.78 231.09,-819.45 233.82,-825.9"/>
</g>
<!-- 4 -->
<g id="node5" class="node">
<title>4</title>
<text text-anchor="middle" x="104.38" y="-754.7" font-family="Times,serif" font-size="14.00">&lt;int&gt;</text>
</g>
<!-- 3&#45;&gt;4 -->
<g id="edge4" class="edge">
<title>3&#45;&gt;4</title>
<path fill="none" stroke="black" d="M104.38,-804.21C104.38,-797.99 104.38,-787.9 104.38,-779.14"/>
<polygon fill="black" stroke="black" points="107.88,-779.35 104.38,-769.35 100.88,-779.35 107.88,-779.35"/>
</g>
<!-- 5 -->
<g id="node6" class="node">
<title>5</title>
<text text-anchor="middle" x="42.38" y="-704.45" font-family="Times,serif" font-size="14.00">&lt;leaddigit&gt;</text>
</g>
<!-- 4&#45;&gt;5 -->
<g id="edge5" class="edge">
<title>4&#45;&gt;5</title>
<path fill="none" stroke="black" d="M96.52,-753.76C87.06,-746.4 70.92,-733.84 58.71,-724.34"/>
<polygon fill="black" stroke="black" points="61.21,-721.84 51.16,-718.46 56.91,-727.37 61.21,-721.84"/>
</g>
<!-- 7 -->
<g id="node8" class="node">
<title>7</title>
<text text-anchor="middle" x="115.38" y="-704.45" font-family="Times,serif" font-size="14.00">&lt;digits&gt;</text>
</g>
<!-- 4&#45;&gt;7 -->
<g id="edge7" class="edge">
<title>4&#45;&gt;7</title>
<path fill="none" stroke="black" d="M105.72,-753.96C107.16,-747.66 109.5,-737.42 111.51,-728.58"/>
<polygon fill="black" stroke="black" points="114.87,-729.59 113.68,-719.07 108.04,-728.04 114.87,-729.59"/>
</g>
<!-- 6 -->
<g id="node7" class="node">
<title>6</title>
<text text-anchor="middle" x="42.38" y="-654.2" font-family="Times,serif" font-size="14.00">2 (50)</text>
</g>
<!-- 5&#45;&gt;6 -->
<g id="edge6" class="edge">
<title>5&#45;&gt;6</title>
<path fill="none" stroke="black" d="M42.38,-703.71C42.38,-697.49 42.38,-687.4 42.38,-678.64"/>
<polygon fill="black" stroke="black" points="45.88,-678.85 42.38,-668.85 38.88,-678.85 45.88,-678.85"/>
</g>
<!-- 8 -->
<g id="node9" class="node">
<title>8</title>
<text text-anchor="middle" x="106.38" y="-654.2" font-family="Times,serif" font-size="14.00">&lt;digit&gt;</text>
</g>
<!-- 7&#45;&gt;8 -->
<g id="edge8" class="edge">
<title>7&#45;&gt;8</title>
<path fill="none" stroke="black" d="M114.27,-703.71C113.11,-697.49 111.23,-687.4 109.59,-678.64"/>
<polygon fill="black" stroke="black" points="113.04,-678.02 107.77,-668.83 106.16,-679.3 113.04,-678.02"/>
</g>
<!-- 10 -->
<g id="node11" class="node">
<title>10</title>
<text text-anchor="middle" x="168.38" y="-654.2" font-family="Times,serif" font-size="14.00">&lt;digits&gt;</text>
</g>
<!-- 7&#45;&gt;10 -->
<g id="edge10" class="edge">
<title>7&#45;&gt;10</title>
<path fill="none" stroke="black" d="M121.87,-703.71C129.66,-696.62 142.96,-684.51 153.35,-675.06"/>
<polygon fill="black" stroke="black" points="155.67,-677.68 160.7,-668.36 150.95,-672.5 155.67,-677.68"/>
</g>
<!-- 9 -->
<g id="node10" class="node">
<title>9</title>
<text text-anchor="middle" x="106.38" y="-603.95" font-family="Times,serif" font-size="14.00">5 (53)</text>
</g>
<!-- 8&#45;&gt;9 -->
<g id="edge9" class="edge">
<title>8&#45;&gt;9</title>
<path fill="none" stroke="black" d="M106.38,-653.46C106.38,-647.24 106.38,-637.15 106.38,-628.39"/>
<polygon fill="black" stroke="black" points="109.88,-628.6 106.38,-618.6 102.88,-628.6 109.88,-628.6"/>
</g>
<!-- 11 -->
<g id="node12" class="node">
<title>11</title>
<text text-anchor="middle" x="165.38" y="-603.95" font-family="Times,serif" font-size="14.00">&lt;digit&gt;</text>
</g>
<!-- 10&#45;&gt;11 -->
<g id="edge11" class="edge">
<title>10&#45;&gt;11</title>
<path fill="none" stroke="black" d="M168.01,-653.46C167.62,-647.24 166.99,-637.15 166.45,-628.39"/>
<polygon fill="black" stroke="black" points="169.95,-628.36 165.84,-618.6 162.97,-628.8 169.95,-628.36"/>
</g>
<!-- 13 -->
<g id="node14" class="node">
<title>13</title>
<text text-anchor="middle" x="227.38" y="-603.95" font-family="Times,serif" font-size="14.00">&lt;digits&gt;</text>
</g>
<!-- 10&#45;&gt;13 -->
<g id="edge13" class="edge">
<title>10&#45;&gt;13</title>
<path fill="none" stroke="black" d="M175.61,-653.46C184.46,-646.22 199.69,-633.77 211.35,-624.23"/>
<polygon fill="black" stroke="black" points="213.38,-627.09 218.91,-618.05 208.95,-621.67 213.38,-627.09"/>
</g>
<!-- 12 -->
<g id="node13" class="node">
<title>12</title>
<text text-anchor="middle" x="165.38" y="-553.7" font-family="Times,serif" font-size="14.00">3 (51)</text>
</g>
<!-- 11&#45;&gt;12 -->
<g id="edge12" class="edge">
<title>11&#45;&gt;12</title>
<path fill="none" stroke="black" d="M165.38,-603.21C165.38,-596.99 165.38,-586.9 165.38,-578.14"/>
<polygon fill="black" stroke="black" points="168.88,-578.35 165.38,-568.35 161.88,-578.35 168.88,-578.35"/>
</g>
<!-- 14 -->
<g id="node15" class="node">
<title>14</title>
<text text-anchor="middle" x="224.38" y="-553.7" font-family="Times,serif" font-size="14.00">&lt;digit&gt;</text>
</g>
<!-- 13&#45;&gt;14 -->
<g id="edge14" class="edge">
<title>13&#45;&gt;14</title>
<path fill="none" stroke="black" d="M227.01,-603.21C226.62,-596.99 225.99,-586.9 225.45,-578.14"/>
<polygon fill="black" stroke="black" points="228.95,-578.11 224.84,-568.35 221.97,-578.55 228.95,-578.11"/>
</g>
<!-- 16 -->
<g id="node17" class="node">
<title>16</title>
<text text-anchor="middle" x="286.38" y="-553.7" font-family="Times,serif" font-size="14.00">&lt;digits&gt;</text>
</g>
<!-- 13&#45;&gt;16 -->
<g id="edge16" class="edge">
<title>13&#45;&gt;16</title>
<path fill="none" stroke="black" d="M234.61,-603.21C243.46,-595.97 258.69,-583.52 270.35,-573.98"/>
<polygon fill="black" stroke="black" points="272.38,-576.84 277.91,-567.8 267.95,-571.42 272.38,-576.84"/>
</g>
<!-- 15 -->
<g id="node16" class="node">
<title>15</title>
<text text-anchor="middle" x="224.38" y="-503.45" font-family="Times,serif" font-size="14.00">9 (57)</text>
</g>
<!-- 14&#45;&gt;15 -->
<g id="edge15" class="edge">
<title>14&#45;&gt;15</title>
<path fill="none" stroke="black" d="M224.38,-552.96C224.38,-546.74 224.38,-536.65 224.38,-527.89"/>
<polygon fill="black" stroke="black" points="227.88,-528.1 224.38,-518.1 220.88,-528.1 227.88,-528.1"/>
</g>
<!-- 17 -->
<g id="node18" class="node">
<title>17</title>
<text text-anchor="middle" x="282.38" y="-503.45" font-family="Times,serif" font-size="14.00">&lt;digit&gt;</text>
</g>
<!-- 16&#45;&gt;17 -->
<g id="edge17" class="edge">
<title>16&#45;&gt;17</title>
<path fill="none" stroke="black" d="M285.88,-552.96C285.37,-546.74 284.53,-536.65 283.81,-527.89"/>
<polygon fill="black" stroke="black" points="287.31,-527.77 282.99,-518.1 280.33,-528.35 287.31,-527.77"/>
</g>
<!-- 19 -->
<g id="node20" class="node">
<title>19</title>
<text text-anchor="middle" x="344.38" y="-503.45" font-family="Times,serif" font-size="14.00">&lt;digits&gt;</text>
</g>
<!-- 16&#45;&gt;19 -->
<g id="edge19" class="edge">
<title>16&#45;&gt;19</title>
<path fill="none" stroke="black" d="M293.49,-552.96C302.18,-545.72 317.16,-533.27 328.62,-523.73"/>
<polygon fill="black" stroke="black" points="330.59,-526.64 336.04,-517.56 326.12,-521.26 330.59,-526.64"/>
</g>
<!-- 18 -->
<g id="node19" class="node">
<title>18</title>
<text text-anchor="middle" x="282.38" y="-453.2" font-family="Times,serif" font-size="14.00">5 (53)</text>
</g>
<!-- 17&#45;&gt;18 -->
<g id="edge18" class="edge">
<title>17&#45;&gt;18</title>
<path fill="none" stroke="black" d="M282.38,-502.71C282.38,-496.49 282.38,-486.4 282.38,-477.64"/>
<polygon fill="black" stroke="black" points="285.88,-477.85 282.38,-467.85 278.88,-477.85 285.88,-477.85"/>
</g>
<!-- 20 -->
<g id="node21" class="node">
<title>20</title>
<text text-anchor="middle" x="340.38" y="-453.2" font-family="Times,serif" font-size="14.00">&lt;digit&gt;</text>
</g>
<!-- 19&#45;&gt;20 -->
<g id="edge20" class="edge">
<title>19&#45;&gt;20</title>
<path fill="none" stroke="black" d="M343.88,-502.71C343.37,-496.49 342.53,-486.4 341.81,-477.64"/>
<polygon fill="black" stroke="black" points="345.31,-477.52 340.99,-467.85 338.33,-478.1 345.31,-477.52"/>
</g>
<!-- 22 -->
<g id="node23" class="node">
<title>22</title>
<text text-anchor="middle" x="402.38" y="-453.2" font-family="Times,serif" font-size="14.00">&lt;digits&gt;</text>
</g>
<!-- 19&#45;&gt;22 -->
<g id="edge22" class="edge">
<title>19&#45;&gt;22</title>
<path fill="none" stroke="black" d="M351.49,-502.71C360.18,-495.47 375.16,-483.02 386.62,-473.48"/>
<polygon fill="black" stroke="black" points="388.59,-476.39 394.04,-467.31 384.12,-471.01 388.59,-476.39"/>
</g>
<!-- 21 -->
<g id="node22" class="node">
<title>21</title>
<text text-anchor="middle" x="340.38" y="-402.95" font-family="Times,serif" font-size="14.00">7 (55)</text>
</g>
<!-- 20&#45;&gt;21 -->
<g id="edge21" class="edge">
<title>20&#45;&gt;21</title>
<path fill="none" stroke="black" d="M340.38,-452.46C340.38,-446.24 340.38,-436.15 340.38,-427.39"/>
<polygon fill="black" stroke="black" points="343.88,-427.6 340.38,-417.6 336.88,-427.6 343.88,-427.6"/>
</g>
<!-- 23 -->
<g id="node24" class="node">
<title>23</title>
<text text-anchor="middle" x="398.38" y="-402.95" font-family="Times,serif" font-size="14.00">&lt;digit&gt;</text>
</g>
<!-- 22&#45;&gt;23 -->
<g id="edge23" class="edge">
<title>22&#45;&gt;23</title>
<path fill="none" stroke="black" d="M401.88,-452.46C401.37,-446.24 400.53,-436.15 399.81,-427.39"/>
<polygon fill="black" stroke="black" points="403.31,-427.27 398.99,-417.6 396.33,-427.85 403.31,-427.27"/>
</g>
<!-- 25 -->
<g id="node26" class="node">
<title>25</title>
<text text-anchor="middle" x="460.38" y="-402.95" font-family="Times,serif" font-size="14.00">&lt;digits&gt;</text>
</g>
<!-- 22&#45;&gt;25 -->
<g id="edge25" class="edge">
<title>22&#45;&gt;25</title>
<path fill="none" stroke="black" d="M409.49,-452.46C418.18,-445.22 433.16,-432.77 444.62,-423.23"/>
<polygon fill="black" stroke="black" points="446.59,-426.14 452.04,-417.06 442.12,-420.76 446.59,-426.14"/>
</g>
<!-- 24 -->
<g id="node25" class="node">
<title>24</title>
<text text-anchor="middle" x="398.38" y="-352.7" font-family="Times,serif" font-size="14.00">4 (52)</text>
</g>
<!-- 23&#45;&gt;24 -->
<g id="edge24" class="edge">
<title>23&#45;&gt;24</title>
<path fill="none" stroke="black" d="M398.38,-402.21C398.38,-395.99 398.38,-385.9 398.38,-377.14"/>
<polygon fill="black" stroke="black" points="401.88,-377.35 398.38,-367.35 394.88,-377.35 401.88,-377.35"/>
</g>
<!-- 26 -->
<g id="node27" class="node">
<title>26</title>
<text text-anchor="middle" x="456.38" y="-352.7" font-family="Times,serif" font-size="14.00">&lt;digit&gt;</text>
</g>
<!-- 25&#45;&gt;26 -->
<g id="edge26" class="edge">
<title>25&#45;&gt;26</title>
<path fill="none" stroke="black" d="M459.88,-402.21C459.37,-395.99 458.53,-385.9 457.81,-377.14"/>
<polygon fill="black" stroke="black" points="461.31,-377.02 456.99,-367.35 454.33,-377.6 461.31,-377.02"/>
</g>
<!-- 28 -->
<g id="node29" class="node">
<title>28</title>
<text text-anchor="middle" x="518.38" y="-352.7" font-family="Times,serif" font-size="14.00">&lt;digits&gt;</text>
</g>
<!-- 25&#45;&gt;28 -->
<g id="edge28" class="edge">
<title>25&#45;&gt;28</title>
<path fill="none" stroke="black" d="M467.49,-402.21C476.18,-394.97 491.16,-382.52 502.62,-372.98"/>
<polygon fill="black" stroke="black" points="504.59,-375.89 510.04,-366.81 500.12,-370.51 504.59,-375.89"/>
</g>
<!-- 27 -->
<g id="node28" class="node">
<title>27</title>
<text text-anchor="middle" x="456.38" y="-302.45" font-family="Times,serif" font-size="14.00">6 (54)</text>
</g>
<!-- 26&#45;&gt;27 -->
<g id="edge27" class="edge">
<title>26&#45;&gt;27</title>
<path fill="none" stroke="black" d="M456.38,-351.96C456.38,-345.74 456.38,-335.65 456.38,-326.89"/>
<polygon fill="black" stroke="black" points="459.88,-327.1 456.38,-317.1 452.88,-327.1 459.88,-327.1"/>
</g>
<!-- 29 -->
<g id="node30" class="node">
<title>29</title>
<text text-anchor="middle" x="514.38" y="-302.45" font-family="Times,serif" font-size="14.00">&lt;digit&gt;</text>
</g>
<!-- 28&#45;&gt;29 -->
<g id="edge29" class="edge">
<title>28&#45;&gt;29</title>
<path fill="none" stroke="black" d="M517.88,-351.96C517.37,-345.74 516.53,-335.65 515.81,-326.89"/>
<polygon fill="black" stroke="black" points="519.31,-326.77 514.99,-317.1 512.33,-327.35 519.31,-326.77"/>
</g>
<!-- 31 -->
<g id="node32" class="node">
<title>31</title>
<text text-anchor="middle" x="576.38" y="-302.45" font-family="Times,serif" font-size="14.00">&lt;digits&gt;</text>
</g>
<!-- 28&#45;&gt;31 -->
<g id="edge31" class="edge">
<title>28&#45;&gt;31</title>
<path fill="none" stroke="black" d="M525.49,-351.96C534.18,-344.72 549.16,-332.27 560.62,-322.73"/>
<polygon fill="black" stroke="black" points="562.59,-325.64 568.04,-316.56 558.12,-320.26 562.59,-325.64"/>
</g>
<!-- 30 -->
<g id="node31" class="node">
<title>30</title>
<text text-anchor="middle" x="514.38" y="-252.2" font-family="Times,serif" font-size="14.00">8 (56)</text>
</g>
<!-- 29&#45;&gt;30 -->
<g id="edge30" class="edge">
<title>29&#45;&gt;30</title>
<path fill="none" stroke="black" d="M514.38,-301.71C514.38,-295.49 514.38,-285.4 514.38,-276.64"/>
<polygon fill="black" stroke="black" points="517.88,-276.85 514.38,-266.85 510.88,-276.85 517.88,-276.85"/>
</g>
<!-- 32 -->
<g id="node33" class="node">
<title>32</title>
<text text-anchor="middle" x="572.38" y="-252.2" font-family="Times,serif" font-size="14.00">&lt;digit&gt;</text>
</g>
<!-- 31&#45;&gt;32 -->
<g id="edge32" class="edge">
<title>31&#45;&gt;32</title>
<path fill="none" stroke="black" d="M575.88,-301.71C575.37,-295.49 574.53,-285.4 573.81,-276.64"/>
<polygon fill="black" stroke="black" points="577.31,-276.52 572.99,-266.85 570.33,-277.1 577.31,-276.52"/>
</g>
<!-- 34 -->
<g id="node35" class="node">
<title>34</title>
<text text-anchor="middle" x="634.38" y="-252.2" font-family="Times,serif" font-size="14.00">&lt;digits&gt;</text>
</g>
<!-- 31&#45;&gt;34 -->
<g id="edge34" class="edge">
<title>31&#45;&gt;34</title>
<path fill="none" stroke="black" d="M583.49,-301.71C592.18,-294.47 607.16,-282.02 618.62,-272.48"/>
<polygon fill="black" stroke="black" points="620.59,-275.39 626.04,-266.31 616.12,-270.01 620.59,-275.39"/>
</g>
<!-- 33 -->
<g id="node34" class="node">
<title>33</title>
<text text-anchor="middle" x="572.38" y="-201.95" font-family="Times,serif" font-size="14.00">1 (49)</text>
</g>
<!-- 32&#45;&gt;33 -->
<g id="edge33" class="edge">
<title>32&#45;&gt;33</title>
<path fill="none" stroke="black" d="M572.38,-251.46C572.38,-245.24 572.38,-235.15 572.38,-226.39"/>
<polygon fill="black" stroke="black" points="575.88,-226.6 572.38,-216.6 568.88,-226.6 575.88,-226.6"/>
</g>
<!-- 35 -->
<g id="node36" class="node">
<title>35</title>
<text text-anchor="middle" x="630.38" y="-201.95" font-family="Times,serif" font-size="14.00">&lt;digit&gt;</text>
</g>
<!-- 34&#45;&gt;35 -->
<g id="edge35" class="edge">
<title>34&#45;&gt;35</title>
<path fill="none" stroke="black" d="M633.88,-251.46C633.37,-245.24 632.53,-235.15 631.81,-226.39"/>
<polygon fill="black" stroke="black" points="635.31,-226.27 630.99,-216.6 628.33,-226.85 635.31,-226.27"/>
</g>
<!-- 37 -->
<g id="node38" class="node">
<title>37</title>
<text text-anchor="middle" x="692.38" y="-201.95" font-family="Times,serif" font-size="14.00">&lt;digits&gt;</text>
</g>
<!-- 34&#45;&gt;37 -->
<g id="edge37" class="edge">
<title>34&#45;&gt;37</title>
<path fill="none" stroke="black" d="M641.49,-251.46C650.18,-244.22 665.16,-231.77 676.62,-222.23"/>
<polygon fill="black" stroke="black" points="678.59,-225.14 684.04,-216.06 674.12,-219.76 678.59,-225.14"/>
</g>
<!-- 36 -->
<g id="node37" class="node">
<title>36</title>
<text text-anchor="middle" x="630.38" y="-151.7" font-family="Times,serif" font-size="14.00">5 (53)</text>
</g>
<!-- 35&#45;&gt;36 -->
<g id="edge36" class="edge">
<title>35&#45;&gt;36</title>
<path fill="none" stroke="black" d="M630.38,-201.21C630.38,-194.99 630.38,-184.9 630.38,-176.14"/>
<polygon fill="black" stroke="black" points="633.88,-176.35 630.38,-166.35 626.88,-176.35 633.88,-176.35"/>
</g>
<!-- 38 -->
<g id="node39" class="node">
<title>38</title>
<text text-anchor="middle" x="688.38" y="-151.7" font-family="Times,serif" font-size="14.00">&lt;digit&gt;</text>
</g>
<!-- 37&#45;&gt;38 -->
<g id="edge38" class="edge">
<title>37&#45;&gt;38</title>
<path fill="none" stroke="black" d="M691.88,-201.21C691.37,-194.99 690.53,-184.9 689.81,-176.14"/>
<polygon fill="black" stroke="black" points="693.31,-176.02 688.99,-166.35 686.33,-176.6 693.31,-176.02"/>
</g>
<!-- 40 -->
<g id="node41" class="node">
<title>40</title>
<text text-anchor="middle" x="750.38" y="-151.7" font-family="Times,serif" font-size="14.00">&lt;digits&gt;</text>
</g>
<!-- 37&#45;&gt;40 -->
<g id="edge40" class="edge">
<title>37&#45;&gt;40</title>
<path fill="none" stroke="black" d="M699.49,-201.21C708.18,-193.97 723.16,-181.52 734.62,-171.98"/>
<polygon fill="black" stroke="black" points="736.59,-174.89 742.04,-165.81 732.12,-169.51 736.59,-174.89"/>
</g>
<!-- 39 -->
<g id="node40" class="node">
<title>39</title>
<text text-anchor="middle" x="688.38" y="-101.45" font-family="Times,serif" font-size="14.00">8 (56)</text>
</g>
<!-- 38&#45;&gt;39 -->
<g id="edge39" class="edge">
<title>38&#45;&gt;39</title>
<path fill="none" stroke="black" d="M688.38,-150.96C688.38,-144.74 688.38,-134.65 688.38,-125.89"/>
<polygon fill="black" stroke="black" points="691.88,-126.1 688.38,-116.1 684.88,-126.1 691.88,-126.1"/>
</g>
<!-- 41 -->
<g id="node42" class="node">
<title>41</title>
<text text-anchor="middle" x="746.38" y="-101.45" font-family="Times,serif" font-size="14.00">&lt;digit&gt;</text>
</g>
<!-- 40&#45;&gt;41 -->
<g id="edge41" class="edge">
<title>40&#45;&gt;41</title>
<path fill="none" stroke="black" d="M749.88,-150.96C749.37,-144.74 748.53,-134.65 747.81,-125.89"/>
<polygon fill="black" stroke="black" points="751.31,-125.77 746.99,-116.1 744.33,-126.35 751.31,-125.77"/>
</g>
<!-- 43 -->
<g id="node44" class="node">
<title>43</title>
<text text-anchor="middle" x="808.38" y="-101.45" font-family="Times,serif" font-size="14.00">&lt;digits&gt;</text>
</g>
<!-- 40&#45;&gt;43 -->
<g id="edge43" class="edge">
<title>40&#45;&gt;43</title>
<path fill="none" stroke="black" d="M757.49,-150.96C766.18,-143.72 781.16,-131.27 792.62,-121.73"/>
<polygon fill="black" stroke="black" points="794.59,-124.64 800.04,-115.56 790.12,-119.26 794.59,-124.64"/>
</g>
<!-- 42 -->
<g id="node43" class="node">
<title>42</title>
<text text-anchor="middle" x="746.38" y="-51.2" font-family="Times,serif" font-size="14.00">8 (56)</text>
</g>
<!-- 41&#45;&gt;42 -->
<g id="edge42" class="edge">
<title>41&#45;&gt;42</title>
<path fill="none" stroke="black" d="M746.38,-100.71C746.38,-94.49 746.38,-84.4 746.38,-75.64"/>
<polygon fill="black" stroke="black" points="749.88,-75.85 746.38,-65.85 742.88,-75.85 749.88,-75.85"/>
</g>
<!-- 44 -->
<g id="node45" class="node">
<title>44</title>
<text text-anchor="middle" x="804.38" y="-51.2" font-family="Times,serif" font-size="14.00">&lt;digit&gt;</text>
</g>
<!-- 43&#45;&gt;44 -->
<g id="edge44" class="edge">
<title>43&#45;&gt;44</title>
<path fill="none" stroke="black" d="M807.88,-100.71C807.37,-94.49 806.53,-84.4 805.81,-75.64"/>
<polygon fill="black" stroke="black" points="809.31,-75.52 804.99,-65.85 802.33,-76.1 809.31,-75.52"/>
</g>
<!-- 46 -->
<g id="node47" class="node">
<title>46</title>
<text text-anchor="middle" x="866.38" y="-51.2" font-family="Times,serif" font-size="14.00">&lt;digits&gt;</text>
</g>
<!-- 43&#45;&gt;46 -->
<g id="edge46" class="edge">
<title>43&#45;&gt;46</title>
<path fill="none" stroke="black" d="M815.49,-100.71C824.18,-93.47 839.16,-81.02 850.62,-71.48"/>
<polygon fill="black" stroke="black" points="852.59,-74.39 858.04,-65.31 848.12,-69.01 852.59,-74.39"/>
</g>
<!-- 45 -->
<g id="node46" class="node">
<title>45</title>
<text text-anchor="middle" x="804.38" y="-0.95" font-family="Times,serif" font-size="14.00">5 (53)</text>
</g>
<!-- 44&#45;&gt;45 -->
<g id="edge45" class="edge">
<title>44&#45;&gt;45</title>
<path fill="none" stroke="black" d="M804.38,-50.46C804.38,-44.24 804.38,-34.15 804.38,-25.39"/>
<polygon fill="black" stroke="black" points="807.88,-25.6 804.38,-15.6 800.88,-25.6 807.88,-25.6"/>
</g>
<!-- 49 -->
<g id="node50" class="node">
<title>49</title>
<text text-anchor="middle" x="257.38" y="-754.7" font-family="Times,serif" font-size="14.00">&lt;int&gt;</text>
</g>
<!-- 48&#45;&gt;49 -->
<g id="edge49" class="edge">
<title>48&#45;&gt;49</title>
<path fill="none" stroke="black" d="M257.38,-804.21C257.38,-797.99 257.38,-787.9 257.38,-779.14"/>
<polygon fill="black" stroke="black" points="260.88,-779.35 257.38,-769.35 253.88,-779.35 260.88,-779.35"/>
</g>
<!-- 50 -->
<g id="node51" class="node">
<title>50</title>
<text text-anchor="middle" x="247.38" y="-704.45" font-family="Times,serif" font-size="14.00">&lt;leaddigit&gt;</text>
</g>
<!-- 49&#45;&gt;50 -->
<g id="edge50" class="edge">
<title>49&#45;&gt;50</title>
<path fill="none" stroke="black" d="M256.15,-753.96C254.84,-747.66 252.72,-737.42 250.89,-728.58"/>
<polygon fill="black" stroke="black" points="254.38,-728.15 248.92,-719.07 247.52,-729.57 254.38,-728.15"/>
</g>
<!-- 52 -->
<g id="node53" class="node">
<title>52</title>
<text text-anchor="middle" x="320.38" y="-704.45" font-family="Times,serif" font-size="14.00">&lt;digits&gt;</text>
</g>
<!-- 49&#45;&gt;52 -->
<g id="edge52" class="edge">
<title>49&#45;&gt;52</title>
<path fill="none" stroke="black" d="M265.35,-753.76C274.97,-746.4 291.37,-733.84 303.78,-724.34"/>
<polygon fill="black" stroke="black" points="305.65,-727.31 311.46,-718.46 301.39,-721.76 305.65,-727.31"/>
</g>
<!-- 51 -->
<g id="node52" class="node">
<title>51</title>
<text text-anchor="middle" x="247.38" y="-654.2" font-family="Times,serif" font-size="14.00">3 (51)</text>
</g>
<!-- 50&#45;&gt;51 -->
<g id="edge51" class="edge">
<title>50&#45;&gt;51</title>
<path fill="none" stroke="black" d="M247.38,-703.71C247.38,-697.49 247.38,-687.4 247.38,-678.64"/>
<polygon fill="black" stroke="black" points="250.88,-678.85 247.38,-668.85 243.88,-678.85 250.88,-678.85"/>
</g>
<!-- 53 -->
<g id="node54" class="node">
<title>53</title>
<text text-anchor="middle" x="311.38" y="-654.2" font-family="Times,serif" font-size="14.00">&lt;digit&gt;</text>
</g>
<!-- 52&#45;&gt;53 -->
<g id="edge53" class="edge">
<title>52&#45;&gt;53</title>
<path fill="none" stroke="black" d="M319.27,-703.71C318.11,-697.49 316.23,-687.4 314.59,-678.64"/>
<polygon fill="black" stroke="black" points="318.04,-678.02 312.77,-668.83 311.16,-679.3 318.04,-678.02"/>
</g>
<!-- 55 -->
<g id="node56" class="node">
<title>55</title>
<text text-anchor="middle" x="373.38" y="-654.2" font-family="Times,serif" font-size="14.00">&lt;digits&gt;</text>
</g>
<!-- 52&#45;&gt;55 -->
<g id="edge55" class="edge">
<title>52&#45;&gt;55</title>
<path fill="none" stroke="black" d="M326.87,-703.71C334.66,-696.62 347.96,-684.51 358.35,-675.06"/>
<polygon fill="black" stroke="black" points="360.67,-677.68 365.7,-668.36 355.95,-672.5 360.67,-677.68"/>
</g>
<!-- 54 -->
<g id="node55" class="node">
<title>54</title>
<text text-anchor="middle" x="311.38" y="-603.95" font-family="Times,serif" font-size="14.00">0 (48)</text>
</g>
<!-- 53&#45;&gt;54 -->
<g id="edge54" class="edge">
<title>53&#45;&gt;54</title>
<path fill="none" stroke="black" d="M311.38,-653.46C311.38,-647.24 311.38,-637.15 311.38,-628.39"/>
<polygon fill="black" stroke="black" points="314.88,-628.6 311.38,-618.6 307.88,-628.6 314.88,-628.6"/>
</g>
<!-- 56 -->
<g id="node57" class="node">
<title>56</title>
<text text-anchor="middle" x="369.38" y="-603.95" font-family="Times,serif" font-size="14.00">&lt;digit&gt;</text>
</g>
<!-- 55&#45;&gt;56 -->
<g id="edge56" class="edge">
<title>55&#45;&gt;56</title>
<path fill="none" stroke="black" d="M372.88,-653.46C372.37,-647.24 371.53,-637.15 370.81,-628.39"/>
<polygon fill="black" stroke="black" points="374.31,-628.27 369.99,-618.6 367.33,-628.85 374.31,-628.27"/>
</g>
<!-- 58 -->
<g id="node59" class="node">
<title>58</title>
<text text-anchor="middle" x="431.38" y="-603.95" font-family="Times,serif" font-size="14.00">&lt;digits&gt;</text>
</g>
<!-- 55&#45;&gt;58 -->
<g id="edge58" class="edge">
<title>55&#45;&gt;58</title>
<path fill="none" stroke="black" d="M380.49,-653.46C389.18,-646.22 404.16,-633.77 415.62,-624.23"/>
<polygon fill="black" stroke="black" points="417.59,-627.14 423.04,-618.06 413.12,-621.76 417.59,-627.14"/>
</g>
<!-- 57 -->
<g id="node58" class="node">
<title>57</title>
<text text-anchor="middle" x="369.38" y="-553.7" font-family="Times,serif" font-size="14.00">1 (49)</text>
</g>
<!-- 56&#45;&gt;57 -->
<g id="edge57" class="edge">
<title>56&#45;&gt;57</title>
<path fill="none" stroke="black" d="M369.38,-603.21C369.38,-596.99 369.38,-586.9 369.38,-578.14"/>
<polygon fill="black" stroke="black" points="372.88,-578.35 369.38,-568.35 365.88,-578.35 372.88,-578.35"/>
</g>
<!-- 59 -->
<g id="node60" class="node">
<title>59</title>
</g>
<!-- 58&#45;&gt;59 -->
<g id="edge59" class="edge">
<title>58&#45;&gt;59</title>
<path fill="none" stroke="black" d="M431.38,-603.21C431.38,-603.16 431.38,-603.11 431.38,-603.06"/>
<polygon fill="black" stroke="black" points="434.88,-614.41 431.38,-604.42 427.88,-614.42 434.88,-614.41"/>
</g>
</g>
</svg>