<?xml version="1.0" encoding="UTF-8" standalone="no"?>
<!DOCTYPE svg PUBLIC "-//W3C//DTD SVG 1.1//EN"
 "http://www.w3.org/Graphics/SVG/1.1/DTD/svg11.dtd">
<!-- Generated by graphviz version 12.2.1 (20241206.2353)
 -->
<!-- Pages: 1 -->
<svg width="432pt" height="274pt"
 viewBox="0.00 0.00 431.50 273.50" xmlns="http://www.w3.org/2000/svg" xmlns:xlink="http://www.w3.org/1999/xlink">
<g id="graph0" class="graph" transform="scale(1 1) rotate(0) translate(4 269.5)">
<polygon fill="white" stroke="none" points="-4,4 -4,-269.5 427.5,-269.5 427.5,4 -4,4"/>
<!-- 0 -->
<g id="node1" class="node">
<title>0</title>
<text text-anchor="middle" x="201.25" y="-252.2" font-family="Times,serif" font-size="14.00">&lt;start&gt;</text>
</g>
<!-- 1 -->
<g id="node2" class="node">
<title>1</title>
<text text-anchor="middle" x="201.25" y="-201.95" font-family="Times,serif" font-size="14.00">&lt;xml&#45;tree&gt;</text>
</g>
<!-- 0&#45;&gt;1 -->
<g id="edge1" class="edge">
<title>0&#45;&gt;1</title>
<path fill="none" stroke="black" d="M201.25,-251.46C201.25,-245.24 201.25,-235.15 201.25,-226.39"/>
<polygon fill="black" stroke="black" points="204.75,-226.6 201.25,-216.6 197.75,-226.6 204.75,-226.6"/>
</g>
<!-- 2 -->
<g id="node3" class="node">
<title>2</title>
<text text-anchor="middle" x="96.25" y="-151.7" font-family="Times,serif" font-size="14.00">&lt;xml&#45;open&#45;tag&gt;</text>
</g>
<!-- 1&#45;&gt;2 -->
<g id="edge2" class="edge">
<title>1&#45;&gt;2</title>
<path fill="none" stroke="black" d="M187.95,-201.01C170.83,-193.15 140.79,-179.34 119.77,-169.68"/>
<polygon fill="black" stroke="black" points="121.36,-166.56 110.82,-165.57 118.44,-172.92 121.36,-166.56"/>
</g>
<!-- 7 -->
<g id="node8" class="node">
<title>7</title>
<text text-anchor="middle" x="201.25" y="-151.7" font-family="Times,serif" font-size="14.00">&lt;xml&#45;tree&gt;</text>
</g>
<!-- 1&#45;&gt;7 -->
<g id="edge7" class="edge">
<title>1&#45;&gt;7</title>
<path fill="none" stroke="black" d="M201.25,-201.21C201.25,-194.99 201.25,-184.9 201.25,-176.14"/>
<polygon fill="black" stroke="black" points="204.75,-176.35 201.25,-166.35 197.75,-176.35 204.75,-176.35"/>
</g>
<!-- 14 -->
<g id="node15" class="node">
<title>14</title>
<text text-anchor="middle" x="338.25" y="-151.7" font-family="Times,serif" font-size="14.00">&lt;xml&#45;close&#45;tag&gt;</text>
</g>
<!-- 1&#45;&gt;14 -->
<g id="edge14" class="edge">
<title>1&#45;&gt;14</title>
<path fill="none" stroke="black" d="M218.6,-201.01C241.76,-192.86 283.05,-178.32 310.54,-168.63"/>
<polygon fill="black" stroke="black" points="311.34,-172.06 319.61,-165.44 309.02,-165.46 311.34,-172.06"/>
</g>
<!-- 3 -->
<g id="node4" class="node">
<title>3</title>
<text text-anchor="middle" x="17.25" y="-101.45" font-family="Times,serif" font-size="14.00">&lt; (60)</text>
</g>
<!-- 2&#45;&gt;3 -->
<g id="edge3" class="edge">
<title>2&#45;&gt;3</title>
<path fill="none" stroke="black" d="M86.24,-150.76C73.9,-143.22 52.62,-130.23 36.95,-120.66"/>
<polygon fill="black" stroke="black" points="38.82,-117.7 28.47,-115.48 35.18,-123.67 38.82,-117.7"/>
</g>
<!-- 4 -->
<g id="node5" class="node">
<title>4</title>
<text text-anchor="middle" x="66.25" y="-101.45" font-family="Times,serif" font-size="14.00">&lt;id&gt;</text>
</g>
<!-- 2&#45;&gt;4 -->
<g id="edge4" class="edge">
<title>2&#45;&gt;4</title>
<path fill="none" stroke="black" d="M92.57,-150.96C88.43,-144.3 81.55,-133.23 75.85,-124.07"/>
<polygon fill="black" stroke="black" points="79.01,-122.52 70.76,-115.88 73.07,-126.22 79.01,-122.52"/>
</g>
<!-- 6 -->
<g id="node7" class="node">
<title>6</title>
<text text-anchor="middle" x="115.25" y="-101.45" font-family="Times,serif" font-size="14.00">&gt; (62)</text>
</g>
<!-- 2&#45;&gt;6 -->
<g id="edge6" class="edge">
<title>2&#45;&gt;6</title>
<path fill="none" stroke="black" d="M98.58,-150.96C101.09,-144.59 105.19,-134.18 108.69,-125.28"/>
<polygon fill="black" stroke="black" points="111.94,-126.59 112.35,-116 105.43,-124.02 111.94,-126.59"/>
</g>
<!-- 5 -->
<g id="node6" class="node">
<title>5</title>
<text text-anchor="middle" x="66.25" y="-51.2" font-family="Times,serif" font-size="14.00">html</text>
</g>
<!-- 4&#45;&gt;5 -->
<g id="edge5" class="edge">
<title>4&#45;&gt;5</title>
<path fill="none" stroke="black" d="M66.25,-100.71C66.25,-94.49 66.25,-84.4 66.25,-75.64"/>
<polygon fill="black" stroke="black" points="69.75,-75.85 66.25,-65.85 62.75,-75.85 69.75,-75.85"/>
</g>
<!-- 8 -->
<g id="node9" class="node">
<title>8</title>
<text text-anchor="middle" x="182.25" y="-101.45" font-family="Times,serif" font-size="14.00">&lt;xml&#45;tree&gt;</text>
</g>
<!-- 7&#45;&gt;8 -->
<g id="edge8" class="edge">
<title>7&#45;&gt;8</title>
<path fill="none" stroke="black" d="M198.92,-150.96C196.41,-144.59 192.31,-134.18 188.81,-125.28"/>
<polygon fill="black" stroke="black" points="192.07,-124.02 185.15,-116 185.56,-126.59 192.07,-124.02"/>
</g>
<!-- 11 -->
<g id="node12" class="node">
<title>11</title>
<text text-anchor="middle" x="263.25" y="-101.45" font-family="Times,serif" font-size="14.00">&lt;xml&#45;tree&gt;</text>
</g>
<!-- 7&#45;&gt;11 -->
<g id="edge11" class="edge">
<title>7&#45;&gt;11</title>
<path fill="none" stroke="black" d="M209.1,-150.76C218.56,-143.4 234.71,-130.84 246.92,-121.34"/>
<polygon fill="black" stroke="black" points="248.72,-124.37 254.46,-115.46 244.42,-118.84 248.72,-124.37"/>
</g>
<!-- 9 -->
<g id="node10" class="node">
<title>9</title>
<text text-anchor="middle" x="182.25" y="-51.2" font-family="Times,serif" font-size="14.00">&lt;text&gt;</text>
</g>
<!-- 8&#45;&gt;9 -->
<g id="edge9" class="edge">
<title>8&#45;&gt;9</title>
<path fill="none" stroke="black" d="M182.25,-100.71C182.25,-94.49 182.25,-84.4 182.25,-75.64"/>
<polygon fill="black" stroke="black" points="185.75,-75.85 182.25,-65.85 178.75,-75.85 185.75,-75.85"/>
</g>
<!-- 10 -->
<g id="node11" class="node">
<title>10</title>
<text text-anchor="middle" x="182.25" y="-0.95" font-family="Times,serif" font-size="14.00">Tex</text>
</g>
<!-- 9&#45;&gt;10 -->
<g id="edge10" class="edge">
<title>9&#45;&gt;10</title>
<path fill="none" stroke="black" d="M182.25,-50.46C182.25,-44.24 182.25,-34.15 182.25,-25.39"/>
<polygon fill="black" stroke="black" points="185.75,-25.6 182.25,-15.6 178.75,-25.6 185.75,-25.6"/>
</g>
<!-- 12 -->
<g id="node13" class="node">
<title>12</title>
<text text-anchor="middle" x="263.25" y="-51.2" font-family="Times,serif" font-size="14.00">&lt;text&gt;</text>
</g>
<!-- 11&#45;&gt;12 -->
<g id="edge12" class="edge">
<title>11&#45;&gt;12</title>
<path fill="none" stroke="black" d="M263.25,-100.71C263.25,-94.49 263.25,-84.4 263.25,-75.64"/>
<polygon fill="black" stroke="black" points="266.75,-75.85 263.25,-65.85 259.75,-75.85 266.75,-75.85"/>
</g>
<!-- 13 -->
<g id="node14" class="node">
<title>13</title>
<text text-anchor="middle" x="263.25" y="-0.95" font-family="Times,serif" font-size="14.00">t (116)</text>
</g>
<!-- 12&#45;&gt;13 -->
<g id="edge13" class="edge">
<title>12&#45;&gt;13</title>
<path fill="none" stroke="black" d="M263.25,-50.46C263.25,-44.24 263.25,-34.15 263.25,-25.39"/>
<polygon fill="black" stroke="black" points="266.75,-25.6 263.25,-15.6 259.75,-25.6 266.75,-25.6"/>
</g>
<!-- 15 -->
<g id="node16" class="node">
<title>15</title>
<text text-anchor="middle" x="319.25" y="-101.45" font-family="Times,serif" font-size="14.00">&lt;/</text>
</g>
<!-- 14&#45;&gt;15 -->
<g id="edge15" class="edge">
<title>14&#45;&gt;15</title>
<path fill="none" stroke="black" d="M335.92,-150.96C333.41,-144.59 329.31,-134.18 325.81,-125.28"/>
<polygon fill="black" stroke="black" points="329.07,-124.02 322.15,-116 322.56,-126.59 329.07,-124.02"/>
</g>
<!-- 16 -->
<g id="node17" class="node">
<title>16</title>
<text text-anchor="middle" x="357.25" y="-101.45" font-family="Times,serif" font-size="14.00">&lt;id&gt;</text>
</g>
<!-- 14&#45;&gt;16 -->
<g id="edge16" class="edge">
<title>14&#45;&gt;16</title>
<path fill="none" stroke="black" d="M340.58,-150.96C343.09,-144.59 347.19,-134.18 350.69,-125.28"/>
<polygon fill="black" stroke="black" points="353.94,-126.59 354.35,-116 347.43,-124.02 353.94,-126.59"/>
</g>
<!-- 18 -->
<g id="node19" class="node">
<title>18</title>
<text text-anchor="middle" x="406.25" y="-101.45" font-family="Times,serif" font-size="14.00">&gt; (62)</text>
</g>
<!-- 14&#45;&gt;18 -->
<g id="edge18" class="edge">
<title>14&#45;&gt;18</title>
<path fill="none" stroke="black" d="M346.86,-150.76C357.34,-143.33 375.3,-130.59 388.73,-121.06"/>
<polygon fill="black" stroke="black" points="390.56,-124.05 396.69,-115.41 386.51,-118.34 390.56,-124.05"/>
</g>
<!-- 17 -->
<g id="node18" class="node">
<title>17</title>
<text text-anchor="middle" x="357.25" y="-51.2" font-family="Times,serif" font-size="14.00">html</text>
</g>
<!-- 16&#45;&gt;17 -->
<g id="edge17" class="edge">
<title>16&#45;&gt;17</title>
<path fill="none" stroke="black" d="M357.25,-100.71C357.25,-94.49 357.25,-84.4 357.25,-75.64"/>
<polygon fill="black" stroke="black" points="360.75,-75.85 357.25,-65.85 353.75,-75.85 360.75,-75.85"/>
</g>
</g>
</svg>