<svg xmlns="http://www.w3.org/2000/svg" class="railroad-diagram" height="62" viewBox="0 0 575.5 62" width="575.5">
<g transform="translate(.5 .5)">
<style>/* <![CDATA[ */
    svg.railroad-diagram {
    }
    svg.railroad-diagram path {
        stroke-width:3;
        stroke:black;
        fill:white;
    }
    svg.railroad-diagram text {
        font:14px "Fira Mono", monospace;
        text-anchor:middle;
    }
    svg.railroad-diagram text.label{
        text-anchor:start;
    }
    svg.railroad-diagram text.comment{
        font:italic 12px "Fira Mono", monospace;
    }
    svg.railroad-diagram rect{
        stroke-width:2;
        stroke:black;
        fill:mistyrose;
    }

/* ]]> */
</style><g>
<path d="M20 21v20m10 -20v20m-10 -10h20"/></g><g>
<path d="M40 31h0.0"/><path d="M535.5 31h0.0"/><path d="M40.0 31h20"/><g>
<path d="M60.0 31h0.0"/><path d="M515.5 31h0.0"/><g class="non-terminal">
<path d="M60.0 31h0.0"/><path d="M114.0 31h0.0"/><rect height="22" width="54.0" x="60.0" y="20"/><text x="87.0" y="35">year</text></g><path d="M114.0 31h10"/><path d="M124.0 31h10"/><g class="terminal">
<path d="M134.0 31h0.0"/><path d="M162.5 31h0.0"/><rect height="22" rx="10" ry="10" width="28.5" x="134.0" y="20"/><text x="148.25" y="35">,</text></g><path d="M162.5 31h10"/><path d="M172.5 31h10"/><g class="non-terminal">
<path d="M182.5 31h0.0"/><path d="M236.5 31h0.0"/><rect height="22" width="54.0" x="182.5" y="20"/><text x="209.5" y="35">kind</text></g><path d="M236.5 31h10"/><path d="M246.5 31h10"/><g class="terminal">
<path d="M256.5 31h0.0"/><path d="M285.0 31h0.0"/><rect height="22" rx="10" ry="10" width="28.5" x="256.5" y="20"/><text x="270.75" y="35">,</text></g><path d="M285.0 31h10"/><path d="M295.0 31h10"/><g class="non-terminal">
<path d="M305.0 31h0.0"/><path d="M384.5 31h0.0"/><rect height="22" width="79.5" x="305.0" y="20"/><text x="344.75" y="35">company</text></g><path d="M384.5 31h10"/><path d="M394.5 31h10"/><g class="terminal">
<path d="M404.5 31h0.0"/><path d="M433.0 31h0.0"/><rect height="22" rx="10" ry="10" width="28.5" x="404.5" y="20"/><text x="418.75" y="35">,</text></g><path d="M433.0 31h10"/><path d="M443.0 31h10"/><g class="non-terminal">
<path d="M453.0 31h0.0"/><path d="M515.5 31h0.0"/><rect height="22" width="62.5" x="453.0" y="20"/><text x="484.25" y="35">model</text></g></g><path d="M515.5 31h20"/></g><path d="M 535.5 31 h 20 m -10 -10 v 20 m 10 -20 v 20"/></g></svg>