<svg xmlns="http://www.w3.org/2000/svg" class="railroad-diagram" height="62" viewBox="0 0 540.5 62" width="540.5">
<g transform="translate(.5 .5)">
<style>/* <![CDATA[ */
    svg.railroad-diagram {
    }
    svg.railroad-diagram path {
        stroke-width:3;
        stroke:black;
        fill:white;
    }
    svg.railroad-diagram text {
        font:14px "Fira Mono", monospace;
        text-anchor:middle;
    }
    svg.railroad-diagram text.label{
        text-anchor:start;
    }
    svg.railroad-diagram text.comment{
        font:italic 12px "Fira Mono", monospace;
    }
    svg.railroad-diagram rect{
        stroke-width:2;
        stroke:black;
        fill:mistyrose;
    }

/* ]]> */
</style><g>
<path d="M20 21v20m10 -20v20m-10 -10h20"/></g><g>
<path d="M40 31h0.0"/><path d="M500.5 31h0.0"/><path d="M40.0 31h20"/><g>
<path d="M60.0 31h0.0"/><path d="M480.5 31h0.0"/><g class="terminal">
<path d="M60.0 31h0.0"/><path d="M156.5 31h0.0"/><rect height="22" rx="10" ry="10" width="96.5" x="60.0" y="20"/><text x="108.25" y="35">pagesize=</text></g><path d="M156.5 31h10"/><path d="M166.5 31h10"/><g class="non-terminal">
<path d="M176.5 31h0.0"/><path d="M264.5 31h0.0"/><rect height="22" width="88.0" x="176.5" y="20"/><text x="220.5" y="35">pagesize</text></g><path d="M264.5 31h10"/><path d="M274.5 31h10"/><g class="terminal">
<path d="M284.5 31h0.0"/><path d="M381.0 31h0.0"/><rect height="22" rx="10" ry="10" width="96.5" x="284.5" y="20"/><text x="332.75" y="35">
bufsize=</text></g><path d="M381.0 31h10"/><path d="M391.0 31h10"/><g class="non-terminal">
<path d="M401.0 31h0.0"/><path d="M480.5 31h0.0"/><rect height="22" width="79.5" x="401.0" y="20"/><text x="440.75" y="35">bufsize</text></g></g><path d="M480.5 31h20"/></g><path d="M 500.5 31 h 20 m -10 -10 v 20 m 10 -20 v 20"/></g></svg>