<?xml version="1.0" encoding="UTF-8" standalone="no"?>
<!DOCTYPE svg PUBLIC "-//W3C//DTD SVG 1.1//EN"
 "http://www.w3.org/Graphics/SVG/1.1/DTD/svg11.dtd">
<!-- Generated by graphviz version 12.2.1 (20241206.2353)
 -->
<!-- Pages: 1 -->
<svg width="506pt" height="324pt"
 viewBox="0.00 0.00 505.88 323.75" xmlns="http://www.w3.org/2000/svg" xmlns:xlink="http://www.w3.org/1999/xlink">
<g id="graph0" class="graph" transform="scale(1 1) rotate(0) translate(4 319.75)">
<polygon fill="white" stroke="none" points="-4,4 -4,-319.75 501.88,-319.75 501.88,4 -4,4"/>
<!-- 0 -->
<g id="node1" class="node">
<title>0</title>
<text text-anchor="middle" x="123.38" y="-302.45" font-family="Times,serif" font-size="14.00">&lt;start&gt;</text>
</g>
<!-- 1 -->
<g id="node2" class="node">
<title>1</title>
<text text-anchor="middle" x="123.38" y="-252.2" font-family="Times,serif" font-size="14.00">&lt;url@374&gt;</text>
</g>
<!-- 0&#45;&gt;1 -->
<g id="edge1" class="edge">
<title>0&#45;&gt;1</title>
<path fill="none" stroke="black" d="M123.38,-301.71C123.38,-295.49 123.38,-285.4 123.38,-276.64"/>
<polygon fill="black" stroke="black" points="126.88,-276.85 123.38,-266.85 119.88,-276.85 126.88,-276.85"/>
</g>
<!-- 2 -->
<g id="node3" class="node">
<title>2</title>
<text text-anchor="middle" x="45.38" y="-201.95" font-family="Times,serif" font-size="14.00">&lt;scheme@492&gt;</text>
</g>
<!-- 1&#45;&gt;2 -->
<g id="edge2" class="edge">
<title>1&#45;&gt;2</title>
<path fill="none" stroke="black" d="M113.5,-251.26C101.24,-243.68 80.07,-230.58 64.57,-221"/>
<polygon fill="black" stroke="black" points="66.56,-218.12 56.22,-215.83 62.88,-224.07 66.56,-218.12"/>
</g>
<!-- 4 -->
<g id="node5" class="node">
<title>4</title>
<text text-anchor="middle" x="123.38" y="-201.95" font-family="Times,serif" font-size="14.00">: (58)</text>
</g>
<!-- 1&#45;&gt;4 -->
<g id="edge4" class="edge">
<title>1&#45;&gt;4</title>
<path fill="none" stroke="black" d="M123.38,-251.46C123.38,-245.24 123.38,-235.15 123.38,-226.39"/>
<polygon fill="black" stroke="black" points="126.88,-226.6 123.38,-216.6 119.88,-226.6 126.88,-226.6"/>
</g>
<!-- 5 -->
<g id="node6" class="node">
<title>5</title>
<text text-anchor="middle" x="188.38" y="-201.95" font-family="Times,serif" font-size="14.00">&lt;url@492&gt;</text>
</g>
<!-- 1&#45;&gt;5 -->
<g id="edge5" class="edge">
<title>1&#45;&gt;5</title>
<path fill="none" stroke="black" d="M131.61,-251.26C141.53,-243.9 158.45,-231.34 171.25,-221.84"/>
<polygon fill="black" stroke="black" points="173.25,-224.71 179.2,-215.94 169.08,-219.09 173.25,-224.71"/>
</g>
<!-- 3 -->
<g id="node4" class="node">
<title>3</title>
<text text-anchor="middle" x="45.38" y="-151.7" font-family="Times,serif" font-size="14.00">http</text>
</g>
<!-- 2&#45;&gt;3 -->
<g id="edge3" class="edge">
<title>2&#45;&gt;3</title>
<path fill="none" stroke="black" d="M45.38,-201.21C45.38,-194.99 45.38,-184.9 45.38,-176.14"/>
<polygon fill="black" stroke="black" points="48.88,-176.35 45.38,-166.35 41.88,-176.35 48.88,-176.35"/>
</g>
<!-- 6 -->
<g id="node7" class="node">
<title>6</title>
<text text-anchor="middle" x="125.38" y="-151.7" font-family="Times,serif" font-size="14.00">//</text>
</g>
<!-- 5&#45;&gt;6 -->
<g id="edge6" class="edge">
<title>5&#45;&gt;6</title>
<path fill="none" stroke="black" d="M180.4,-201.01C169.74,-192.86 150.75,-178.31 138.11,-168.63"/>
<polygon fill="black" stroke="black" points="140.27,-165.87 130.2,-162.57 136.01,-171.43 140.27,-165.87"/>
</g>
<!-- 7 -->
<g id="node8" class="node">
<title>7</title>
<text text-anchor="middle" x="188.38" y="-151.7" font-family="Times,serif" font-size="14.00">&lt;netloc@494&gt;</text>
</g>
<!-- 5&#45;&gt;7 -->
<g id="edge7" class="edge">
<title>5&#45;&gt;7</title>
<path fill="none" stroke="black" d="M188.38,-201.21C188.38,-194.99 188.38,-184.9 188.38,-176.14"/>
<polygon fill="black" stroke="black" points="191.88,-176.35 188.38,-166.35 184.88,-176.35 191.88,-176.35"/>
</g>
<!-- 9 -->
<g id="node10" class="node">
<title>9</title>
<text text-anchor="middle" x="336.38" y="-151.7" font-family="Times,serif" font-size="14.00">&lt;url@494&gt;</text>
</g>
<!-- 5&#45;&gt;9 -->
<g id="edge9" class="edge">
<title>5&#45;&gt;9</title>
<path fill="none" stroke="black" d="M207.12,-201.01C232.25,-192.82 277.14,-178.19 306.84,-168.5"/>
<polygon fill="black" stroke="black" points="307.92,-171.83 316.34,-165.41 305.75,-165.18 307.92,-171.83"/>
</g>
<!-- 8 -->
<g id="node9" class="node">
<title>8</title>
<text text-anchor="middle" x="159.38" y="-101.45" font-family="Times,serif" font-size="14.00">user:pass@www.google.com:80</text>
</g>
<!-- 7&#45;&gt;8 -->
<g id="edge8" class="edge">
<title>7&#45;&gt;8</title>
<path fill="none" stroke="black" d="M184.82,-150.96C180.86,-144.37 174.31,-133.47 168.84,-124.37"/>
<polygon fill="black" stroke="black" points="171.89,-122.66 163.74,-115.89 165.89,-126.26 171.89,-122.66"/>
</g>
<!-- 10 -->
<g id="node11" class="node">
<title>10</title>
<text text-anchor="middle" x="297.38" y="-101.45" font-family="Times,serif" font-size="14.00">&lt;url@502&gt;</text>
</g>
<!-- 9&#45;&gt;10 -->
<g id="edge10" class="edge">
<title>9&#45;&gt;10</title>
<path fill="none" stroke="black" d="M331.59,-150.96C326.1,-144.16 316.87,-132.74 309.38,-123.48"/>
<polygon fill="black" stroke="black" points="312.16,-121.34 303.15,-115.77 306.71,-125.74 312.16,-121.34"/>
</g>
<!-- 14 -->
<g id="node15" class="node">
<title>14</title>
<text text-anchor="middle" x="364.38" y="-101.45" font-family="Times,serif" font-size="14.00"># (35)</text>
</g>
<!-- 9&#45;&gt;14 -->
<g id="edge14" class="edge">
<title>9&#45;&gt;14</title>
<path fill="none" stroke="black" d="M339.81,-150.96C343.63,-144.37 349.96,-133.47 355.24,-124.37"/>
<polygon fill="black" stroke="black" points="358.16,-126.3 360.15,-115.9 352.11,-122.79 358.16,-126.3"/>
</g>
<!-- 15 -->
<g id="node16" class="node">
<title>15</title>
<text text-anchor="middle" x="448.38" y="-101.45" font-family="Times,serif" font-size="14.00">&lt;fragment@502&gt;</text>
</g>
<!-- 9&#45;&gt;15 -->
<g id="edge15" class="edge">
<title>9&#45;&gt;15</title>
<path fill="none" stroke="black" d="M350.56,-150.76C368.99,-142.82 401.46,-128.84 423.9,-119.17"/>
<polygon fill="black" stroke="black" points="425.12,-122.46 432.92,-115.29 422.35,-116.03 425.12,-122.46"/>
</g>
<!-- 11 -->
<g id="node12" class="node">
<title>11</title>
<text text-anchor="middle" x="265.38" y="-51.2" font-family="Times,serif" font-size="14.00">/?</text>
</g>
<!-- 10&#45;&gt;11 -->
<g id="edge11" class="edge">
<title>10&#45;&gt;11</title>
<path fill="none" stroke="black" d="M293.45,-100.71C289.04,-94.05 281.69,-82.98 275.62,-73.82"/>
<polygon fill="black" stroke="black" points="278.61,-72 270.17,-65.6 272.78,-75.87 278.61,-72"/>
</g>
<!-- 12 -->
<g id="node13" class="node">
<title>12</title>
<text text-anchor="middle" x="328.38" y="-51.2" font-family="Times,serif" font-size="14.00">&lt;query@504&gt;</text>
</g>
<!-- 10&#45;&gt;12 -->
<g id="edge12" class="edge">
<title>10&#45;&gt;12</title>
<path fill="none" stroke="black" d="M301.18,-100.71C305.45,-94.05 312.57,-82.98 318.45,-73.82"/>
<polygon fill="black" stroke="black" points="321.26,-75.92 323.72,-65.61 315.37,-72.13 321.26,-75.92"/>
</g>
<!-- 13 -->
<g id="node14" class="node">
<title>13</title>
<text text-anchor="middle" x="328.38" y="-0.95" font-family="Times,serif" font-size="14.00">q=path</text>
</g>
<!-- 12&#45;&gt;13 -->
<g id="edge13" class="edge">
<title>12&#45;&gt;13</title>
<path fill="none" stroke="black" d="M328.38,-50.46C328.38,-44.24 328.38,-34.15 328.38,-25.39"/>
<polygon fill="black" stroke="black" points="331.88,-25.6 328.38,-15.6 324.88,-25.6 331.88,-25.6"/>
</g>
<!-- 16 -->
<g id="node17" class="node">
<title>16</title>
<text text-anchor="middle" x="448.38" y="-51.2" font-family="Times,serif" font-size="14.00">ref</text>
</g>
<!-- 15&#45;&gt;16 -->
<g id="edge16" class="edge">
<title>15&#45;&gt;16</title>
<path fill="none" stroke="black" d="M448.38,-100.71C448.38,-94.49 448.38,-84.4 448.38,-75.64"/>
<polygon fill="black" stroke="black" points="451.88,-75.85 448.38,-65.85 444.88,-75.85 451.88,-75.85"/>
</g>
</g>
</svg>