<?xml version="1.0" encoding="UTF-8" standalone="no"?>
<!DOCTYPE svg PUBLIC "-//W3C//DTD SVG 1.1//EN"
 "http://www.w3.org/Graphics/SVG/1.1/DTD/svg11.dtd">
<!-- Generated by graphviz version 12.2.1 (20241206.2353)
 -->
<!-- Pages: 1 -->
<svg width="264pt" height="173pt"
 viewBox="0.00 0.00 263.50 173.00" xmlns="http://www.w3.org/2000/svg" xmlns:xlink="http://www.w3.org/1999/xlink">
<g id="graph0" class="graph" transform="scale(1 1) rotate(0) translate(4 169)">
<polygon fill="white" stroke="none" points="-4,4 -4,-169 259.5,-169 259.5,4 -4,4"/>
<!-- 0 -->
<g id="node1" class="node">
<title>0</title>
<text text-anchor="middle" x="138" y="-151.7" font-family="Times,serif" font-size="14.00">&lt;start&gt;</text>
</g>
<!-- 1 -->
<g id="node2" class="node">
<title>1</title>
<text text-anchor="middle" x="138" y="-101.45" font-family="Times,serif" font-size="14.00">&lt;vehicle&gt;</text>
</g>
<!-- 0&#45;&gt;1 -->
<g id="edge1" class="edge">
<title>0&#45;&gt;1</title>
<path fill="none" stroke="black" d="M138,-150.96C138,-144.74 138,-134.65 138,-125.89"/>
<polygon fill="black" stroke="black" points="141.5,-126.1 138,-116.1 134.5,-126.1 141.5,-126.1"/>
</g>
<!-- 2 -->
<g id="node3" class="node">
<title>2</title>
<text text-anchor="middle" x="27" y="-51.2" font-family="Times,serif" font-size="14.00">1997,van,</text>
</g>
<!-- 1&#45;&gt;2 -->
<g id="edge2" class="edge">
<title>1&#45;&gt;2</title>
<path fill="none" stroke="black" d="M123.94,-100.51C105.68,-92.57 73.5,-78.59 51.25,-68.92"/>
<polygon fill="black" stroke="black" points="52.9,-65.82 42.33,-65.04 50.11,-72.24 52.9,-65.82"/>
</g>
<!-- 3 -->
<g id="node4" class="node">
<title>3</title>
<text text-anchor="middle" x="105" y="-51.2" font-family="Times,serif" font-size="14.00">&lt;company&gt;</text>
</g>
<!-- 1&#45;&gt;3 -->
<g id="edge3" class="edge">
<title>1&#45;&gt;3</title>
<path fill="none" stroke="black" d="M133.95,-100.71C129.4,-94.05 121.83,-82.98 115.56,-73.82"/>
<polygon fill="black" stroke="black" points="118.47,-71.87 109.93,-65.59 112.69,-75.82 118.47,-71.87"/>
</g>
<!-- 5 -->
<g id="node6" class="node">
<title>5</title>
<text text-anchor="middle" x="171" y="-51.2" font-family="Times,serif" font-size="14.00">, (44)</text>
</g>
<!-- 1&#45;&gt;5 -->
<g id="edge5" class="edge">
<title>1&#45;&gt;5</title>
<path fill="none" stroke="black" d="M142.05,-100.71C146.6,-94.05 154.17,-82.98 160.44,-73.82"/>
<polygon fill="black" stroke="black" points="163.31,-75.82 166.07,-65.59 157.53,-71.87 163.31,-75.82"/>
</g>
<!-- 6 -->
<g id="node7" class="node">
<title>6</title>
<text text-anchor="middle" x="230" y="-51.2" font-family="Times,serif" font-size="14.00">&lt;model&gt;</text>
</g>
<!-- 1&#45;&gt;6 -->
<g id="edge6" class="edge">
<title>1&#45;&gt;6</title>
<path fill="none" stroke="black" d="M149.65,-100.51C164.38,-92.79 190.01,-79.35 208.36,-69.72"/>
<polygon fill="black" stroke="black" points="209.87,-72.88 217.1,-65.14 206.62,-66.68 209.87,-72.88"/>
</g>
<!-- 4 -->
<g id="node5" class="node">
<title>4</title>
<text text-anchor="middle" x="105" y="-0.95" font-family="Times,serif" font-size="14.00">Ford</text>
</g>
<!-- 3&#45;&gt;4 -->
<g id="edge4" class="edge">
<title>3&#45;&gt;4</title>
<path fill="none" stroke="black" d="M105,-50.46C105,-44.24 105,-34.15 105,-25.39"/>
<polygon fill="black" stroke="black" points="108.5,-25.6 105,-15.6 101.5,-25.6 108.5,-25.6"/>
</g>
<!-- 7 -->
<g id="node8" class="node">
<title>7</title>
<text text-anchor="middle" x="230" y="-0.95" font-family="Times,serif" font-size="14.00">E350</text>
</g>
<!-- 6&#45;&gt;7 -->
<g id="edge7" class="edge">
<title>6&#45;&gt;7</title>
<path fill="none" stroke="black" d="M230,-50.46C230,-44.24 230,-34.15 230,-25.39"/>
<polygon fill="black" stroke="black" points="233.5,-25.6 230,-15.6 226.5,-25.6 233.5,-25.6"/>
</g>
</g>
</svg>