<?xml version="1.0" encoding="UTF-8" standalone="no"?>
<!DOCTYPE svg PUBLIC "-//W3C//DTD SVG 1.1//EN"
 "http://www.w3.org/Graphics/SVG/1.1/DTD/svg11.dtd">
<!-- Generated by graphviz version 12.2.1 (20241206.2353)
 -->
<!-- Pages: 1 -->
<svg width="676pt" height="487pt"
 viewBox="0.00 0.00 675.50 486.50" xmlns="http://www.w3.org/2000/svg" xmlns:xlink="http://www.w3.org/1999/xlink">
<g id="graph0" class="graph" transform="scale(1 1) rotate(0) translate(4 482.5)">
<polygon fill="white" stroke="none" points="-4,4 -4,-482.5 671.5,-482.5 671.5,4 -4,4"/>
<!-- 1 -->
<g id="node1" class="node">
<title>1</title>
<ellipse fill="none" stroke="black" cx="259.75" cy="-456.5" rx="118.94" ry="18"/>
<ellipse fill="none" stroke="black" cx="259.75" cy="-456.5" rx="122.94" ry="22"/>
<text text-anchor="middle" x="259.75" y="-450.32" font-family="Times,serif" font-size="14.00">1: enter: check_triangle(a, b, c)</text>
</g>
<!-- 3 -->
<g id="node9" class="node">
<title>3</title>
<polygon fill="none" stroke="black" points="259.75,-397.5 185.32,-379.5 259.75,-361.5 334.18,-379.5 259.75,-397.5"/>
<text text-anchor="middle" x="259.75" y="-373.32" font-family="Times,serif" font-size="14.00">2: if: a == b</text>
</g>
<!-- 1&#45;&gt;3 -->
<g id="edge7" class="edge">
<title>1&#45;&gt;3</title>
<path fill="none" stroke="black" d="M259.75,-434.21C259.75,-426.32 259.75,-417.25 259.75,-408.83"/>
<polygon fill="black" stroke="black" points="263.25,-409.07 259.75,-399.07 256.25,-409.07 263.25,-409.07"/>
</g>
<!-- 2 -->
<g id="node2" class="node">
<title>2</title>
<ellipse fill="none" stroke="black" cx="353.75" cy="-22" rx="114.64" ry="18"/>
<ellipse fill="none" stroke="black" cx="353.75" cy="-22" rx="118.64" ry="22"/>
<text text-anchor="middle" x="353.75" y="-15.82" font-family="Times,serif" font-size="14.00">1: exit: check_triangle(a, b, c)</text>
</g>
<!-- 6 -->
<g id="node3" class="node">
<title>6</title>
<polygon fill="none" stroke="black" points="209.75,-117 79.75,-117 79.75,-81 209.75,-81 209.75,-117"/>
<text text-anchor="middle" x="144.75" y="-92.83" font-family="Times,serif" font-size="14.00">5: return &#39;Equilateral&#39;</text>
</g>
<!-- 6&#45;&gt;2 -->
<g id="edge1" class="edge">
<title>6&#45;&gt;2</title>
<path fill="none" stroke="black" d="M193.49,-80.51C222.19,-70.21 258.83,-57.06 289.82,-45.94"/>
<polygon fill="black" stroke="black" points="290.88,-49.28 299.11,-42.61 288.51,-42.69 290.88,-49.28"/>
</g>
<!-- 7 -->
<g id="node4" class="node">
<title>7</title>
<polygon fill="none" stroke="black" points="347.5,-117 228,-117 228,-81 347.5,-81 347.5,-117"/>
<text text-anchor="middle" x="287.75" y="-92.83" font-family="Times,serif" font-size="14.00">7: return &#39;Isosceles&#39;</text>
</g>
<!-- 7&#45;&gt;2 -->
<g id="edge2" class="edge">
<title>7&#45;&gt;2</title>
<path fill="none" stroke="black" d="M303.06,-80.6C310.4,-72.26 319.41,-62.02 327.79,-52.5"/>
<polygon fill="black" stroke="black" points="330.25,-55 334.23,-45.18 325,-50.37 330.25,-55"/>
</g>
<!-- 8 -->
<g id="node5" class="node">
<title>8</title>
<polygon fill="none" stroke="black" points="119.5,-171 0,-171 0,-135 119.5,-135 119.5,-171"/>
<text text-anchor="middle" x="59.75" y="-146.82" font-family="Times,serif" font-size="14.00">9: return &#39;Isosceles&#39;</text>
</g>
<!-- 8&#45;&gt;2 -->
<g id="edge3" class="edge">
<title>8&#45;&gt;2</title>
<path fill="none" stroke="black" d="M57.35,-134.72C56.17,-118.67 57.24,-95.18 70.75,-81 93.77,-56.84 169.35,-42.12 236.61,-33.56"/>
<polygon fill="black" stroke="black" points="236.75,-37.07 246.25,-32.37 235.9,-30.12 236.75,-37.07"/>
</g>
<!-- 11 -->
<g id="node6" class="node">
<title>11</title>
<polygon fill="none" stroke="black" points="529.88,-117 403.62,-117 403.62,-81 529.88,-81 529.88,-117"/>
<text text-anchor="middle" x="466.75" y="-92.83" font-family="Times,serif" font-size="14.00">13: return &#39;Isosceles&#39;</text>
</g>
<!-- 11&#45;&gt;2 -->
<g id="edge4" class="edge">
<title>11&#45;&gt;2</title>
<path fill="none" stroke="black" d="M440.54,-80.6C426.72,-71.43 409.46,-59.98 393.99,-49.71"/>
<polygon fill="black" stroke="black" points="396.16,-46.94 385.89,-44.33 392.29,-52.78 396.16,-46.94"/>
</g>
<!-- 12 -->
<g id="node7" class="node">
<title>12</title>
<polygon fill="none" stroke="black" points="667.5,-117 548,-117 548,-81 667.5,-81 667.5,-117"/>
<text text-anchor="middle" x="607.75" y="-92.83" font-family="Times,serif" font-size="14.00">15: return &#39;Scalene&#39;</text>
</g>
<!-- 12&#45;&gt;2 -->
<g id="edge5" class="edge">
<title>12&#45;&gt;2</title>
<path fill="none" stroke="black" d="M548.52,-80.51C511.94,-69.71 464.75,-55.78 425.98,-44.33"/>
<polygon fill="black" stroke="black" points="427.32,-41.07 416.74,-41.6 425.34,-47.79 427.32,-41.07"/>
</g>
<!-- 13 -->
<g id="node8" class="node">
<title>13</title>
<polygon fill="none" stroke="black" points="432.88,-171 306.62,-171 306.62,-135 432.88,-135 432.88,-171"/>
<text text-anchor="middle" x="369.75" y="-146.82" font-family="Times,serif" font-size="14.00">17: return &#39;Isosceles&#39;</text>
</g>
<!-- 13&#45;&gt;2 -->
<g id="edge6" class="edge">
<title>13&#45;&gt;2</title>
<path fill="none" stroke="black" d="M367.59,-134.6C365.09,-114.42 360.91,-80.7 357.79,-55.6"/>
<polygon fill="black" stroke="black" points="361.3,-55.4 356.59,-45.91 354.35,-56.26 361.3,-55.4"/>
</g>
<!-- 4 -->
<g id="node10" class="node">
<title>4</title>
<polygon fill="none" stroke="black" points="175.75,-311.25 101.99,-293.25 175.75,-275.25 249.51,-293.25 175.75,-311.25"/>
<text text-anchor="middle" x="175.75" y="-287.07" font-family="Times,serif" font-size="14.00">3: if: a == c</text>
</g>
<!-- 3&#45;&gt;4 -->
<g id="edge8" class="edge">
<title>3&#45;&gt;4</title>
<path fill="none" stroke="blue" d="M245.88,-364.59C232.75,-351.42 212.83,-331.44 197.57,-316.13"/>
<polygon fill="blue" stroke="blue" points="200.25,-313.87 190.71,-309.25 195.29,-318.81 200.25,-313.87"/>
<text text-anchor="middle" x="226.9" y="-330.2" font-family="Times,serif" font-size="14.00">T</text>
</g>
<!-- 9 -->
<g id="node12" class="node">
<title>9</title>
<polygon fill="none" stroke="black" points="368.75,-311.25 291.62,-293.25 368.75,-275.25 445.88,-293.25 368.75,-311.25"/>
<text text-anchor="middle" x="368.75" y="-287.07" font-family="Times,serif" font-size="14.00">11: if: b != c</text>
</g>
<!-- 3&#45;&gt;9 -->
<g id="edge13" class="edge">
<title>3&#45;&gt;9</title>
<path fill="none" stroke="red" d="M276.78,-365.34C294.36,-351.75 322,-330.38 342.4,-314.62"/>
<polygon fill="red" stroke="red" points="344.51,-317.41 350.28,-308.53 340.23,-311.87 344.51,-317.41"/>
<text text-anchor="middle" x="324.53" y="-330.2" font-family="Times,serif" font-size="14.00">F</text>
</g>
<!-- 4&#45;&gt;8 -->
<g id="edge12" class="edge">
<title>4&#45;&gt;8</title>
<path fill="none" stroke="red" d="M155.8,-279.92C137.47,-267.79 110.54,-247.81 92.75,-225 82.66,-212.06 74.74,-195.54 69.2,-181.68"/>
<polygon fill="red" stroke="red" points="72.61,-180.8 65.8,-172.68 66.06,-183.28 72.61,-180.8"/>
<text text-anchor="middle" x="127.31" y="-243.95" font-family="Times,serif" font-size="14.00">F</text>
</g>
<!-- 5 -->
<g id="node11" class="node">
<title>5</title>
<polygon fill="none" stroke="black" points="175.75,-225 101.32,-207 175.75,-189 250.18,-207 175.75,-225"/>
<text text-anchor="middle" x="175.75" y="-200.82" font-family="Times,serif" font-size="14.00">4: if: b == c</text>
</g>
<!-- 4&#45;&gt;5 -->
<g id="edge9" class="edge">
<title>4&#45;&gt;5</title>
<path fill="none" stroke="blue" d="M175.75,-274.79C175.75,-263.84 175.75,-249.44 175.75,-236.82"/>
<polygon fill="blue" stroke="blue" points="179.25,-236.95 175.75,-226.95 172.25,-236.95 179.25,-236.95"/>
<text text-anchor="middle" x="179.88" y="-243.95" font-family="Times,serif" font-size="14.00">T</text>
</g>
<!-- 5&#45;&gt;6 -->
<g id="edge10" class="edge">
<title>5&#45;&gt;6</title>
<path fill="none" stroke="blue" d="M171.04,-189.9C166.26,-173.54 158.75,-147.86 152.97,-128.12"/>
<polygon fill="blue" stroke="blue" points="156.4,-127.38 150.24,-118.76 149.68,-129.34 156.4,-127.38"/>
<text text-anchor="middle" x="168.96" y="-146.82" font-family="Times,serif" font-size="14.00">T</text>
</g>
<!-- 5&#45;&gt;7 -->
<g id="edge11" class="edge">
<title>5&#45;&gt;7</title>
<path fill="none" stroke="red" d="M190.39,-192.14C208.29,-175.2 238.94,-146.2 261.07,-125.25"/>
<polygon fill="red" stroke="red" points="263.43,-127.84 268.29,-118.42 258.62,-122.75 263.43,-127.84"/>
<text text-anchor="middle" x="252.08" y="-146.82" font-family="Times,serif" font-size="14.00">F</text>
</g>
<!-- 9&#45;&gt;13 -->
<g id="edge17" class="edge">
<title>9&#45;&gt;13</title>
<path fill="none" stroke="red" d="M368.87,-275.02C369.04,-251.94 369.34,-210.68 369.54,-182.83"/>
<polygon fill="red" stroke="red" points="373.04,-182.99 369.61,-172.96 366.04,-182.93 373.04,-182.99"/>
<text text-anchor="middle" x="372.85" y="-243.95" font-family="Times,serif" font-size="14.00">F</text>
</g>
<!-- 10 -->
<g id="node13" class="node">
<title>10</title>
<polygon fill="none" stroke="black" points="476.75,-225 396.92,-207 476.75,-189 556.58,-207 476.75,-225"/>
<text text-anchor="middle" x="476.75" y="-200.82" font-family="Times,serif" font-size="14.00">12: if: a == c</text>
</g>
<!-- 9&#45;&gt;10 -->
<g id="edge14" class="edge">
<title>9&#45;&gt;10</title>
<path fill="none" stroke="blue" d="M385.62,-279.09C403.04,-265.5 430.43,-244.13 450.64,-228.37"/>
<polygon fill="blue" stroke="blue" points="452.71,-231.19 458.44,-222.28 448.41,-225.67 452.71,-231.19"/>
<text text-anchor="middle" x="433.34" y="-243.95" font-family="Times,serif" font-size="14.00">T</text>
</g>
<!-- 10&#45;&gt;11 -->
<g id="edge15" class="edge">
<title>10&#45;&gt;11</title>
<path fill="none" stroke="blue" d="M475.14,-188.97C473.61,-172.76 471.28,-148.06 469.47,-128.79"/>
<polygon fill="blue" stroke="blue" points="472.95,-128.47 468.53,-118.85 465.98,-129.13 472.95,-128.47"/>
<text text-anchor="middle" x="477.36" y="-146.82" font-family="Times,serif" font-size="14.00">T</text>
</g>
<!-- 10&#45;&gt;12 -->
<g id="edge16" class="edge">
<title>10&#45;&gt;12</title>
<path fill="none" stroke="red" d="M493.61,-192.36C514.75,-175.25 551.38,-145.61 577.44,-124.53"/>
<polygon fill="red" stroke="red" points="579.42,-127.42 585,-118.41 575.02,-121.98 579.42,-127.42"/>
<text text-anchor="middle" x="565.39" y="-146.82" font-family="Times,serif" font-size="14.00">F</text>
</g>
</g>
</svg>