<?xml version="1.0" encoding="UTF-8" standalone="no"?>
<!DOCTYPE svg PUBLIC "-//W3C//DTD SVG 1.1//EN"
 "http://www.w3.org/Graphics/SVG/1.1/DTD/svg11.dtd">
<!-- Generated by graphviz version 12.2.1 (20241206.2353)
 -->
<!-- Pages: 1 -->
<svg width="322pt" height="274pt"
 viewBox="0.00 0.00 322.12 273.50" xmlns="http://www.w3.org/2000/svg" xmlns:xlink="http://www.w3.org/1999/xlink">
<g id="graph0" class="graph" transform="scale(1 1) rotate(0) translate(4 269.5)">
<polygon fill="white" stroke="none" points="-4,4 -4,-269.5 318.12,-269.5 318.12,4 -4,4"/>
<!-- 0 -->
<g id="node1" class="node">
<title>0</title>
<text text-anchor="middle" x="123.38" y="-252.2" font-family="Times,serif" font-size="14.00">&lt;start&gt;</text>
</g>
<!-- 1 -->
<g id="node2" class="node">
<title>1</title>
<text text-anchor="middle" x="123.38" y="-201.95" font-family="Times,serif" font-size="14.00">&lt;url@374&gt;</text>
</g>
<!-- 0&#45;&gt;1 -->
<g id="edge1" class="edge">
<title>0&#45;&gt;1</title>
<path fill="none" stroke="black" d="M123.38,-251.46C123.38,-245.24 123.38,-235.15 123.38,-226.39"/>
<polygon fill="black" stroke="black" points="126.88,-226.6 123.38,-216.6 119.88,-226.6 126.88,-226.6"/>
</g>
<!-- 2 -->
<g id="node3" class="node">
<title>2</title>
<text text-anchor="middle" x="45.38" y="-151.7" font-family="Times,serif" font-size="14.00">&lt;scheme@492&gt;</text>
</g>
<!-- 1&#45;&gt;2 -->
<g id="edge2" class="edge">
<title>1&#45;&gt;2</title>
<path fill="none" stroke="black" d="M113.5,-201.01C101.24,-193.43 80.07,-180.33 64.57,-170.75"/>
<polygon fill="black" stroke="black" points="66.56,-167.87 56.22,-165.58 62.88,-173.82 66.56,-167.87"/>
</g>
<!-- 4 -->
<g id="node5" class="node">
<title>4</title>
<text text-anchor="middle" x="123.38" y="-151.7" font-family="Times,serif" font-size="14.00">: (58)</text>
</g>
<!-- 1&#45;&gt;4 -->
<g id="edge4" class="edge">
<title>1&#45;&gt;4</title>
<path fill="none" stroke="black" d="M123.38,-201.21C123.38,-194.99 123.38,-184.9 123.38,-176.14"/>
<polygon fill="black" stroke="black" points="126.88,-176.35 123.38,-166.35 119.88,-176.35 126.88,-176.35"/>
</g>
<!-- 5 -->
<g id="node6" class="node">
<title>5</title>
<text text-anchor="middle" x="188.38" y="-151.7" font-family="Times,serif" font-size="14.00">&lt;url@492&gt;</text>
</g>
<!-- 1&#45;&gt;5 -->
<g id="edge5" class="edge">
<title>1&#45;&gt;5</title>
<path fill="none" stroke="black" d="M131.61,-201.01C141.53,-193.65 158.45,-181.09 171.25,-171.59"/>
<polygon fill="black" stroke="black" points="173.25,-174.46 179.2,-165.69 169.08,-168.84 173.25,-174.46"/>
</g>
<!-- 3 -->
<g id="node4" class="node">
<title>3</title>
<text text-anchor="middle" x="45.38" y="-101.45" font-family="Times,serif" font-size="14.00">ftp</text>
</g>
<!-- 2&#45;&gt;3 -->
<g id="edge3" class="edge">
<title>2&#45;&gt;3</title>
<path fill="none" stroke="black" d="M45.38,-150.96C45.38,-144.74 45.38,-134.65 45.38,-125.89"/>
<polygon fill="black" stroke="black" points="48.88,-126.1 45.38,-116.1 41.88,-126.1 48.88,-126.1"/>
</g>
<!-- 6 -->
<g id="node7" class="node">
<title>6</title>
<text text-anchor="middle" x="125.38" y="-101.45" font-family="Times,serif" font-size="14.00">//</text>
</g>
<!-- 5&#45;&gt;6 -->
<g id="edge6" class="edge">
<title>5&#45;&gt;6</title>
<path fill="none" stroke="black" d="M180.4,-150.76C169.74,-142.61 150.75,-128.06 138.11,-118.38"/>
<polygon fill="black" stroke="black" points="140.27,-115.62 130.2,-112.32 136.01,-121.18 140.27,-115.62"/>
</g>
<!-- 7 -->
<g id="node8" class="node">
<title>7</title>
<text text-anchor="middle" x="188.38" y="-101.45" font-family="Times,serif" font-size="14.00">&lt;netloc@494&gt;</text>
</g>
<!-- 5&#45;&gt;7 -->
<g id="edge7" class="edge">
<title>5&#45;&gt;7</title>
<path fill="none" stroke="black" d="M188.38,-150.96C188.38,-144.74 188.38,-134.65 188.38,-125.89"/>
<polygon fill="black" stroke="black" points="191.88,-126.1 188.38,-116.1 184.88,-126.1 191.88,-126.1"/>
</g>
<!-- 9 -->
<g id="node10" class="node">
<title>9</title>
<text text-anchor="middle" x="280.38" y="-101.45" font-family="Times,serif" font-size="14.00">&lt;url@494&gt;</text>
</g>
<!-- 5&#45;&gt;9 -->
<g id="edge9" class="edge">
<title>5&#45;&gt;9</title>
<path fill="none" stroke="black" d="M200.03,-150.76C214.75,-143.04 240.38,-129.6 258.74,-119.97"/>
<polygon fill="black" stroke="black" points="260.25,-123.13 267.48,-115.39 257,-116.93 260.25,-123.13"/>
</g>
<!-- 8 -->
<g id="node9" class="node">
<title>8</title>
<text text-anchor="middle" x="188.38" y="-51.2" font-family="Times,serif" font-size="14.00">freebsd.org</text>
</g>
<!-- 7&#45;&gt;8 -->
<g id="edge8" class="edge">
<title>7&#45;&gt;8</title>
<path fill="none" stroke="black" d="M188.38,-100.71C188.38,-94.49 188.38,-84.4 188.38,-75.64"/>
<polygon fill="black" stroke="black" points="191.88,-75.85 188.38,-65.85 184.88,-75.85 191.88,-75.85"/>
</g>
<!-- 10 -->
<g id="node11" class="node">
<title>10</title>
<text text-anchor="middle" x="280.38" y="-51.2" font-family="Times,serif" font-size="14.00">&lt;url@396&gt;</text>
</g>
<!-- 9&#45;&gt;10 -->
<g id="edge10" class="edge">
<title>9&#45;&gt;10</title>
<path fill="none" stroke="black" d="M280.38,-100.71C280.38,-94.49 280.38,-84.4 280.38,-75.64"/>
<polygon fill="black" stroke="black" points="283.88,-75.85 280.38,-65.85 276.88,-75.85 283.88,-75.85"/>
</g>
<!-- 11 -->
<g id="node12" class="node">
<title>11</title>
<text text-anchor="middle" x="280.38" y="-0.95" font-family="Times,serif" font-size="14.00">/releases/5.8</text>
</g>
<!-- 10&#45;&gt;11 -->
<g id="edge11" class="edge">
<title>10&#45;&gt;11</title>
<path fill="none" stroke="black" d="M280.38,-50.46C280.38,-44.24 280.38,-34.15 280.38,-25.39"/>
<polygon fill="black" stroke="black" points="283.88,-25.6 280.38,-15.6 276.88,-25.6 283.88,-25.6"/>
</g>
</g>
</svg>