<svg xmlns="http://www.w3.org/2000/svg" class="railroad-diagram" height="62" viewBox="0 0 976.0 62" width="976.0">
<g transform="translate(.5 .5)">
<style>/* <![CDATA[ */
    svg.railroad-diagram {
    }
    svg.railroad-diagram path {
        stroke-width:3;
        stroke:black;
        fill:white;
    }
    svg.railroad-diagram text {
        font:14px "Fira Mono", monospace;
        text-anchor:middle;
    }
    svg.railroad-diagram text.label{
        text-anchor:start;
    }
    svg.railroad-diagram text.comment{
        font:italic 12px "Fira Mono", monospace;
    }
    svg.railroad-diagram rect{
        stroke-width:2;
        stroke:black;
        fill:mistyrose;
    }

/* ]]> */
</style><g>
<path d="M20 21v20m10 -20v20m-10 -10h20"/></g><g>
<path d="M40 31h0.0"/><path d="M936.0 31h0.0"/><path d="M40.0 31h20"/><g>
<path d="M60.0 31h0.0"/><path d="M916.0 31h0.0"/><g class="terminal">
<path d="M60.0 31h0.0"/><path d="M182.0 31h0.0"/><rect height="22" rx="10" ry="10" width="122.0" x="60.0" y="20"/><text x="121.0" y="35">/order?item=</text></g><path d="M182.0 31h10"/><path d="M192.0 31h10"/><g class="non-terminal">
<path d="M202.0 31h0.0"/><path d="M256.0 31h0.0"/><rect height="22" width="54.0" x="202.0" y="20"/><text x="229.0" y="35">item</text></g><path d="M256.0 31h10"/><path d="M266.0 31h10"/><g class="terminal">
<path d="M276.0 31h0.0"/><path d="M347.0 31h0.0"/><rect height="22" rx="10" ry="10" width="71.0" x="276.0" y="20"/><text x="311.5" y="35">&amp;name=</text></g><path d="M347.0 31h10"/><path d="M357.0 31h10"/><g class="non-terminal">
<path d="M367.0 31h0.0"/><path d="M421.0 31h0.0"/><rect height="22" width="54.0" x="367.0" y="20"/><text x="394.0" y="35">name</text></g><path d="M421.0 31h10"/><path d="M431.0 31h10"/><g class="terminal">
<path d="M441.0 31h0.0"/><path d="M520.5 31h0.0"/><rect height="22" rx="10" ry="10" width="79.5" x="441.0" y="20"/><text x="480.75" y="35">&amp;email=</text></g><path d="M520.5 31h10"/><path d="M530.5 31h10"/><g class="non-terminal">
<path d="M540.5 31h0.0"/><path d="M603.0 31h0.0"/><rect height="22" width="62.5" x="540.5" y="20"/><text x="571.75" y="35">email</text></g><path d="M603.0 31h10"/><path d="M613.0 31h10"/><g class="terminal">
<path d="M623.0 31h0.0"/><path d="M694.0 31h0.0"/><rect height="22" rx="10" ry="10" width="71.0" x="623.0" y="20"/><text x="658.5" y="35">&amp;city=</text></g><path d="M694.0 31h10"/><path d="M704.0 31h10"/><g class="non-terminal">
<path d="M714.0 31h0.0"/><path d="M768.0 31h0.0"/><rect height="22" width="54.0" x="714.0" y="20"/><text x="741.0" y="35">city</text></g><path d="M768.0 31h10"/><path d="M778.0 31h10"/><g class="terminal">
<path d="M788.0 31h0.0"/><path d="M850.5 31h0.0"/><rect height="22" rx="10" ry="10" width="62.5" x="788.0" y="20"/><text x="819.25" y="35">&amp;zip=</text></g><path d="M850.5 31h10"/><path d="M860.5 31h10"/><g class="non-terminal">
<path d="M870.5 31h0.0"/><path d="M916.0 31h0.0"/><rect height="22" width="45.5" x="870.5" y="20"/><text x="893.25" y="35">zip</text></g></g><path d="M916.0 31h20"/></g><path d="M 936.0 31 h 20 m -10 -10 v 20 m 10 -20 v 20"/></g></svg>