<svg xmlns="http://www.w3.org/2000/svg" xmlns:xlink="http://www.w3.org/1999/xlink" width="342pt" height="332pt" viewBox="0.00 0.00 342.00 332.00">
<g id="graph0" class="graph" transform="scale(1 1) rotate(0) translate(4 328)">
<polygon fill="white" stroke="none" points="-4,4 -4,-328 338,-328 338,4 -4,4"/>
<!-- 0 -->
<g id="node1" class="node">
<title>0</title>
<text text-anchor="start" x="113.5" y="-301.95" font-family="Courier,monospace" font-weight="bold" font-size="14.00" fill="#004080">Expr</text>
</g>
<!-- 1 -->
<g id="node2" class="node">
<title>1</title>
<text text-anchor="start" x="109.38" y="-229.95" font-family="Courier,monospace" font-weight="bold" font-size="14.00" fill="#004080">BinOp</text>
</g>
<!-- 0&#45;&#45;1 -->
<g id="edge1" class="edge">
<title>0--1</title>
<path fill="none" stroke="black" d="M130,-288.05C130,-277.05 130,-262.76 130,-251.79"/>
</g>
<!-- 2 -->
<g id="node3" class="node">
<title>2</title>
<text text-anchor="start" x="8" y="-157.95" font-family="Courier,monospace" font-weight="bold" font-size="14.00" fill="#004080">Constant</text>
</g>
<!-- 1&#45;&#45;2 -->
<g id="edge2" class="edge">
<title>1--2</title>
<path fill="none" stroke="black" d="M130,-215C130,-215 95.67,-194.94 69.65,-179.74"/>
</g>
<!-- 4 -->
<g id="node5" class="node">
<title>4</title>
<text text-anchor="middle" x="130" y="-156.95" font-family="Courier,monospace" font-size="14.00" fill="#008040">Add</text>
</g>
<!-- 1&#45;&#45;4 -->
<g id="edge4" class="edge">
<title>1--4</title>
<path fill="none" stroke="black" d="M130,-215C130,-215 130,-194.94 130,-179.74"/>
</g>
<!-- 5 -->
<g id="node6" class="node">
<title>5</title>
<text text-anchor="start" x="184.38" y="-157.95" font-family="Courier,monospace" font-weight="bold" font-size="14.00" fill="#004080">BinOp</text>
</g>
<!-- 1&#45;&#45;5 -->
<g id="edge5" class="edge">
<title>1--5</title>
<path fill="none" stroke="black" d="M130,-215C130,-215 158.93,-194.94 180.86,-179.74"/>
</g>
<!-- 3 -->
<g id="node4" class="node">
<title>3</title>
<text text-anchor="middle" x="35" y="-84.95" font-family="Courier,monospace" font-size="14.00" fill="#008040">1</text>
</g>
<!-- 2&#45;&#45;3 -->
<g id="edge3" class="edge">
<title>2--3</title>
<path fill="none" stroke="black" d="M39.55,-144.05C38.6,-133.05 37.38,-118.76 36.44,-107.79"/>
</g>
<!-- 6 -->
<g id="node7" class="node">
<title>6</title>
<text text-anchor="start" x="88" y="-85.95" font-family="Courier,monospace" font-weight="bold" font-size="14.00" fill="#004080">Constant</text>
</g>
<!-- 5&#45;&#45;6 -->
<g id="edge6" class="edge">
<title>5--6</title>
<path fill="none" stroke="black" d="M205,-143C205,-143 172.6,-122.94 148.04,-107.74"/>
</g>
<!-- 8 -->
<g id="node9" class="node">
<title>8</title>
<text text-anchor="middle" x="207" y="-84.95" font-family="Courier,monospace" font-size="14.00" fill="#008040">Mult</text>
</g>
<!-- 5&#45;&#45;8 -->
<g id="edge8" class="edge">
<title>5--8</title>
<path fill="none" stroke="black" d="M205,-143C205,-143 205.77,-122.94 206.36,-107.74"/>
</g>
<!-- 9 -->
<g id="node10" class="node">
<title>9</title>
<text text-anchor="start" x="260" y="-85.95" font-family="Courier,monospace" font-weight="bold" font-size="14.00" fill="#004080">Constant</text>
</g>
<!-- 5&#45;&#45;9 -->
<g id="edge9" class="edge">
<title>5--9</title>
<path fill="none" stroke="black" d="M205,-143C205,-143 238.95,-122.94 264.67,-107.74"/>
</g>
<!-- 7 -->
<g id="node8" class="node">
<title>7</title>
<text text-anchor="middle" x="121" y="-12.95" font-family="Courier,monospace" font-size="14.00" fill="#008040">2</text>
</g>
<!-- 6&#45;&#45;7 -->
<g id="edge7" class="edge">
<title>6--7</title>
<path fill="none" stroke="black" d="M121,-72.05C121,-61.05 121,-46.76 121,-35.79"/>
</g>
<!-- 10 -->
<g id="node11" class="node">
<title>10</title>
<text text-anchor="middle" x="293" y="-12.95" font-family="Courier,monospace" font-size="14.00" fill="#008040">3</text>
</g>
<!-- 9&#45;&#45;10 -->
<g id="edge10" class="edge">
<title>9--10</title>
<path fill="none" stroke="black" d="M293,-72.05C293,-61.05 293,-46.76 293,-35.79"/>
</g>
</g>
</svg>