<?xml version="1.0" encoding="UTF-8" standalone="no"?>
<!DOCTYPE svg PUBLIC "-//W3C//DTD SVG 1.1//EN"
 "http://www.w3.org/Graphics/SVG/1.1/DTD/svg11.dtd">
<!-- Generated by graphviz version 12.2.1 (20241206.2353)
 -->
<!-- Pages: 1 -->
<svg width="402pt" height="348pt"
 viewBox="0.00 0.00 401.64 347.50" xmlns="http://www.w3.org/2000/svg" xmlns:xlink="http://www.w3.org/1999/xlink">
<g id="graph0" class="graph" transform="scale(1 1) rotate(0) translate(4 343.5)">
<polygon fill="white" stroke="none" points="-4,4 -4,-343.5 397.64,-343.5 397.64,4 -4,4"/>
<!-- start -->
<g id="node1" class="node">
<title>start</title>
<ellipse fill="none" stroke="black" cx="202.57" cy="-321.5" rx="35.46" ry="18"/>
<text text-anchor="middle" x="202.57" y="-315.32" font-family="Times,serif" font-size="14.00">&lt;start&gt;</text>
</g>
<!-- state -->
<g id="node2" class="node">
<title>state</title>
<ellipse fill="none" stroke="black" cx="202.57" cy="-248.5" rx="36.41" ry="18"/>
<text text-anchor="middle" x="202.57" y="-242.32" font-family="Times,serif" font-size="14.00">&lt;state&gt;</text>
</g>
<!-- start&#45;&gt;state -->
<g id="edge1" class="edge">
<title>start&#45;&gt;state</title>
<path fill="none" stroke="black" d="M202.57,-303.31C202.57,-295.73 202.57,-286.6 202.57,-278.04"/>
<polygon fill="black" stroke="black" points="206.07,-278.04 202.57,-268.04 199.07,-278.04 206.07,-278.04"/>
</g>
<!-- state&#45;1 -->
<g id="node3" class="node">
<title>state&#45;1</title>
<ellipse fill="none" stroke="black" cx="43.57" cy="-91" rx="43.57" ry="18"/>
<text text-anchor="middle" x="43.57" y="-84.83" font-family="Times,serif" font-size="14.00">&lt;state&#45;1&gt;</text>
</g>
<!-- state&#45;&gt;state&#45;1 -->
<g id="edge2" class="edge">
<title>state&#45;&gt;state&#45;1</title>
<path fill="none" stroke="black" d="M166.09,-245.71C118.9,-242.54 40.61,-234.09 22.82,-212.5 -1.35,-183.17 12.77,-163.65 22.82,-127 23.59,-124.2 24.64,-121.39 25.88,-118.66"/>
<polygon fill="black" stroke="black" points="28.9,-120.42 30.55,-109.95 22.74,-117.11 28.9,-120.42"/>
<text text-anchor="start" x="22.82" y="-163.57" font-family="Times,serif" font-size="14.00">click(&#39;terms and conditions&#39;)</text>
</g>
<!-- state&#45;2 -->
<g id="node4" class="node">
<title>state&#45;2</title>
<ellipse fill="none" stroke="black" cx="166.57" cy="-91" rx="43.57" ry="18"/>
<text text-anchor="middle" x="166.57" y="-84.83" font-family="Times,serif" font-size="14.00">&lt;state&#45;2&gt;</text>
</g>
<!-- state&#45;&gt;state&#45;2 -->
<g id="edge3" class="edge">
<title>state&#45;&gt;state&#45;2</title>
<path fill="none" stroke="black" d="M200.5,-230.09C197.44,-206.43 190.93,-162.96 180.57,-127 179.9,-124.69 179.14,-122.32 178.32,-119.96"/>
<polygon fill="black" stroke="black" points="181.6,-118.73 174.78,-110.62 175.05,-121.21 181.6,-118.73"/>
<text text-anchor="start" x="198.05" y="-199.2" font-family="Times,serif" font-size="14.00">fill(&#39;city&#39;, &#39;&lt;text&gt;&#39;)</text>
<text text-anchor="start" x="198.05" y="-184.95" font-family="Times,serif" font-size="14.00">fill(&#39;email&#39;, &#39;&lt;email&gt;&#39;)</text>
<text text-anchor="start" x="198.05" y="-170.7" font-family="Times,serif" font-size="14.00">fill(&#39;name&#39;, &#39;&lt;text&gt;&#39;)</text>
<text text-anchor="start" x="198.05" y="-156.45" font-family="Times,serif" font-size="14.00">check(&#39;terms&#39;, &lt;boolean&gt;)</text>
<text text-anchor="start" x="198.05" y="-142.2" font-family="Times,serif" font-size="14.00">fill(&#39;zip&#39;, &#39;&lt;number&gt;&#39;)</text>
<text text-anchor="start" x="198.05" y="-127.95" font-family="Times,serif" font-size="14.00">submit(&#39;submit&#39;)</text>
</g>
<!-- end -->
<g id="node5" class="node">
<title>end</title>
<ellipse fill="none" stroke="black" cx="360.57" cy="-91" rx="33.07" ry="18"/>
<text text-anchor="middle" x="360.57" y="-84.83" font-family="Times,serif" font-size="14.00">&lt;end&gt;</text>
</g>
<!-- state&#45;&gt;end -->
<g id="edge4" class="edge">
<title>state&#45;&gt;end</title>
<path fill="none" stroke="black" d="M238,-243.34C275.31,-238.19 330.55,-228.15 344.57,-212.5 366.79,-187.69 367.7,-147.67 365.12,-120.63"/>
<polygon fill="black" stroke="black" points="368.6,-120.23 363.93,-110.72 361.65,-121.06 368.6,-120.23"/>
</g>
<!-- unexplored -->
<g id="node6" class="node">
<title>unexplored</title>
<ellipse fill="none" stroke="black" cx="95.57" cy="-18" rx="59.31" ry="18"/>
<text text-anchor="middle" x="95.57" y="-11.82" font-family="Times,serif" font-size="14.00">&lt;unexplored&gt;</text>
</g>
<!-- state&#45;1&#45;&gt;unexplored -->
<g id="edge5" class="edge">
<title>state&#45;1&#45;&gt;unexplored</title>
<path fill="none" stroke="black" d="M55.63,-73.53C61.84,-65.05 69.56,-54.52 76.55,-44.97"/>
<polygon fill="black" stroke="black" points="79.23,-47.23 82.32,-37.09 73.58,-43.09 79.23,-47.23"/>
</g>
<!-- state&#45;2&#45;&gt;unexplored -->
<g id="edge6" class="edge">
<title>state&#45;2&#45;&gt;unexplored</title>
<path fill="none" stroke="black" d="M150.46,-73.89C141.51,-64.94 130.18,-53.62 120.15,-43.58"/>
<polygon fill="black" stroke="black" points="122.72,-41.21 113.18,-36.61 117.77,-46.16 122.72,-41.21"/>
</g>
</g>
</svg>