<?xml version="1.0" encoding="UTF-8" standalone="no"?>
<!DOCTYPE svg PUBLIC "-//W3C//DTD SVG 1.1//EN"
 "http://www.w3.org/Graphics/SVG/1.1/DTD/svg11.dtd">
<!-- Generated by graphviz version 12.2.1 (20241206.2353)
 -->
<!-- Pages: 1 -->
<svg width="375pt" height="173pt"
 viewBox="0.00 0.00 374.75 173.00" xmlns="http://www.w3.org/2000/svg" xmlns:xlink="http://www.w3.org/1999/xlink">
<g id="graph0" class="graph" transform="scale(1 1) rotate(0) translate(4 169)">
<polygon fill="white" stroke="none" points="-4,4 -4,-169 370.75,-169 370.75,4 -4,4"/>
<!-- 0 -->
<g id="node1" class="node">
<title>0</title>
<text text-anchor="middle" x="183.38" y="-151.7" font-family="Times,serif" font-size="14.00">&lt;start&gt;</text>
</g>
<!-- 1 -->
<g id="node2" class="node">
<title>1</title>
<text text-anchor="middle" x="183.38" y="-101.45" font-family="Times,serif" font-size="14.00">&lt;address&gt;</text>
</g>
<!-- 0&#45;&gt;1 -->
<g id="edge1" class="edge">
<title>0&#45;&gt;1</title>
<path fill="none" stroke="black" d="M183.38,-150.96C183.38,-144.74 183.38,-134.65 183.38,-125.89"/>
<polygon fill="black" stroke="black" points="186.88,-126.1 183.38,-116.1 179.88,-126.1 186.88,-126.1"/>
</g>
<!-- 2 -->
<g id="node3" class="node">
<title>2</title>
<text text-anchor="middle" x="21.38" y="-51.2" font-family="Times,serif" font-size="14.00">&lt;octet&gt;</text>
</g>
<!-- 1&#45;&gt;2 -->
<g id="edge2" class="edge">
<title>1&#45;&gt;2</title>
<path fill="none" stroke="black" d="M162.86,-100.51C134.98,-92.21 84.91,-77.3 52.42,-67.62"/>
<polygon fill="black" stroke="black" points="53.76,-64.37 43.18,-64.87 51.76,-71.08 53.76,-64.37"/>
</g>
<!-- 4 -->
<g id="node5" class="node">
<title>4</title>
<text text-anchor="middle" x="75.38" y="-51.2" font-family="Times,serif" font-size="14.00">. (46)</text>
</g>
<!-- 1&#45;&gt;4 -->
<g id="edge4" class="edge">
<title>1&#45;&gt;4</title>
<path fill="none" stroke="black" d="M169.7,-100.51C152.01,-92.61 120.9,-78.71 99.27,-69.05"/>
<polygon fill="black" stroke="black" points="100.88,-65.94 90.32,-65.05 98.03,-72.33 100.88,-65.94"/>
</g>
<!-- 5 -->
<g id="node6" class="node">
<title>5</title>
<text text-anchor="middle" x="129.38" y="-51.2" font-family="Times,serif" font-size="14.00">&lt;octet&gt;</text>
</g>
<!-- 1&#45;&gt;5 -->
<g id="edge5" class="edge">
<title>1&#45;&gt;5</title>
<path fill="none" stroke="black" d="M176.75,-100.71C168.74,-93.55 154.99,-81.26 144.36,-71.77"/>
<polygon fill="black" stroke="black" points="146.97,-69.4 137.18,-65.35 142.3,-74.62 146.97,-69.4"/>
</g>
<!-- 7 -->
<g id="node8" class="node">
<title>7</title>
<text text-anchor="middle" x="183.38" y="-51.2" font-family="Times,serif" font-size="14.00">. (46)</text>
</g>
<!-- 1&#45;&gt;7 -->
<g id="edge7" class="edge">
<title>1&#45;&gt;7</title>
<path fill="none" stroke="black" d="M183.38,-100.71C183.38,-94.49 183.38,-84.4 183.38,-75.64"/>
<polygon fill="black" stroke="black" points="186.88,-75.85 183.38,-65.85 179.88,-75.85 186.88,-75.85"/>
</g>
<!-- 8 -->
<g id="node9" class="node">
<title>8</title>
<text text-anchor="middle" x="237.38" y="-51.2" font-family="Times,serif" font-size="14.00">&lt;octet&gt;</text>
</g>
<!-- 1&#45;&gt;8 -->
<g id="edge8" class="edge">
<title>1&#45;&gt;8</title>
<path fill="none" stroke="black" d="M190,-100.71C198.01,-93.55 211.76,-81.26 222.39,-71.77"/>
<polygon fill="black" stroke="black" points="224.45,-74.62 229.57,-65.35 219.78,-69.4 224.45,-74.62"/>
</g>
<!-- 10 -->
<g id="node11" class="node">
<title>10</title>
<text text-anchor="middle" x="291.38" y="-51.2" font-family="Times,serif" font-size="14.00">. (46)</text>
</g>
<!-- 1&#45;&gt;10 -->
<g id="edge10" class="edge">
<title>1&#45;&gt;10</title>
<path fill="none" stroke="black" d="M197.05,-100.51C214.74,-92.61 245.85,-78.71 267.48,-69.05"/>
<polygon fill="black" stroke="black" points="268.72,-72.33 276.43,-65.05 265.87,-65.94 268.72,-72.33"/>
</g>
<!-- 11 -->
<g id="node12" class="node">
<title>11</title>
<text text-anchor="middle" x="345.38" y="-51.2" font-family="Times,serif" font-size="14.00">&lt;octet&gt;</text>
</g>
<!-- 1&#45;&gt;11 -->
<g id="edge11" class="edge">
<title>1&#45;&gt;11</title>
<path fill="none" stroke="black" d="M203.89,-100.51C231.77,-92.21 281.84,-77.3 314.33,-67.62"/>
<polygon fill="black" stroke="black" points="314.99,-71.08 323.57,-64.87 312.99,-64.37 314.99,-71.08"/>
</g>
<!-- 3 -->
<g id="node4" class="node">
<title>3</title>
<text text-anchor="middle" x="21.38" y="-0.95" font-family="Times,serif" font-size="14.00">127</text>
</g>
<!-- 2&#45;&gt;3 -->
<g id="edge3" class="edge">
<title>2&#45;&gt;3</title>
<path fill="none" stroke="black" d="M21.38,-50.46C21.38,-44.24 21.38,-34.15 21.38,-25.39"/>
<polygon fill="black" stroke="black" points="24.88,-25.6 21.38,-15.6 17.88,-25.6 24.88,-25.6"/>
</g>
<!-- 6 -->
<g id="node7" class="node">
<title>6</title>
<text text-anchor="middle" x="129.38" y="-0.95" font-family="Times,serif" font-size="14.00">0 (48)</text>
</g>
<!-- 5&#45;&gt;6 -->
<g id="edge6" class="edge">
<title>5&#45;&gt;6</title>
<path fill="none" stroke="black" d="M129.38,-50.46C129.38,-44.24 129.38,-34.15 129.38,-25.39"/>
<polygon fill="black" stroke="black" points="132.88,-25.6 129.38,-15.6 125.88,-25.6 132.88,-25.6"/>
</g>
<!-- 9 -->
<g id="node10" class="node">
<title>9</title>
<text text-anchor="middle" x="237.38" y="-0.95" font-family="Times,serif" font-size="14.00">0 (48)</text>
</g>
<!-- 8&#45;&gt;9 -->
<g id="edge9" class="edge">
<title>8&#45;&gt;9</title>
<path fill="none" stroke="black" d="M237.38,-50.46C237.38,-44.24 237.38,-34.15 237.38,-25.39"/>
<polygon fill="black" stroke="black" points="240.88,-25.6 237.38,-15.6 233.88,-25.6 240.88,-25.6"/>
</g>
<!-- 12 -->
<g id="node13" class="node">
<title>12</title>
<text text-anchor="middle" x="345.38" y="-0.95" font-family="Times,serif" font-size="14.00">1 (49)</text>
</g>
<!-- 11&#45;&gt;12 -->
<g id="edge12" class="edge">
<title>11&#45;&gt;12</title>
<path fill="none" stroke="black" d="M345.38,-50.46C345.38,-44.24 345.38,-34.15 345.38,-25.39"/>
<polygon fill="black" stroke="black" points="348.88,-25.6 345.38,-15.6 341.88,-25.6 348.88,-25.6"/>
</g>
</g>
</svg>