<svg xmlns="http://www.w3.org/2000/svg" class="railroad-diagram" height="122" viewBox="0 0 412.0 122" width="412.0">
<g transform="translate(.5 .5)">
<style>/* <![CDATA[ */
    svg.railroad-diagram {
    }
    svg.railroad-diagram path {
        stroke-width:3;
        stroke:black;
        fill:white;
    }
    svg.railroad-diagram text {
        font:14px "Fira Mono", monospace;
        text-anchor:middle;
    }
    svg.railroad-diagram text.label{
        text-anchor:start;
    }
    svg.railroad-diagram text.comment{
        font:italic 12px "Fira Mono", monospace;
    }
    svg.railroad-diagram rect{
        stroke-width:2;
        stroke:black;
        fill:mistyrose;
    }

/* ]]> */
</style><g>
<path d="M20 51v20m10 -20v20m-10 -10h20"/></g><g>
<path d="M40 61h0.0"/><path d="M372.0 61h0.0"/><path d="M40.0 61a10 10 0 0 0 10 -10v-10a10 10 0 0 1 10 -10"/><g>
<path d="M60.0 31h63.75"/><path d="M288.25 31h63.75"/><g class="terminal">
<path d="M123.75 31h0.0"/><path d="M288.25 31h0.0"/><rect height="22" rx="10" ry="10" width="164.5" x="123.75" y="20"/><text x="206.0" y="35">Breaking Software</text></g></g><path d="M352.0 31a10 10 0 0 1 10 10v10a10 10 0 0 0 10 10"/><path d="M40.0 61h20"/><g>
<path d="M60.0 61h29.75"/><path d="M322.25 61h29.75"/><g class="terminal">
<path d="M89.75 61h0.0"/><path d="M322.25 61h0.0"/><rect height="22" rx="10" ry="10" width="232.5" x="89.75" y="50"/><text x="206.0" y="65">Generating Software Tests</text></g></g><path d="M352.0 61h20"/><path d="M40.0 61a10 10 0 0 1 10 10v10a10 10 0 0 0 10 10"/><g>
<path d="M60.0 91h0.0"/><path d="M352.0 91h0.0"/><g class="terminal">
<path d="M60.0 91h0.0"/><path d="M352.0 91h0.0"/><rect height="22" rx="10" ry="10" width="292.0" x="60.0" y="80"/><text x="206.0" y="95">Principles, Techniques and Tools</text></g></g><path d="M352.0 91a10 10 0 0 0 10 -10v-10a10 10 0 0 1 10 -10"/></g><path d="M 372.0 61 h 20 m -10 -10 v 20 m 10 -20 v 20"/></g></svg>