<?xml version="1.0" encoding="UTF-8" standalone="no"?>
<!DOCTYPE svg PUBLIC "-//W3C//DTD SVG 1.1//EN"
 "http://www.w3.org/Graphics/SVG/1.1/DTD/svg11.dtd">
<!-- Generated by graphviz version 12.2.1 (20241206.2353)
 -->
<!-- Pages: 1 -->
<svg width="683pt" height="420pt"
 viewBox="0.00 0.00 682.50 420.00" xmlns="http://www.w3.org/2000/svg" xmlns:xlink="http://www.w3.org/1999/xlink">
<g id="graph0" class="graph" transform="scale(1 1) rotate(0) translate(4 416)">
<polygon fill="white" stroke="none" points="-4,4 -4,-416 678.5,-416 678.5,4 -4,4"/>
<!-- 1 -->
<g id="node1" class="node">
<title>1</title>
<ellipse fill="none" stroke="black" cx="295.75" cy="-390" rx="118.94" ry="18"/>
<ellipse fill="none" stroke="black" cx="295.75" cy="-390" rx="122.94" ry="22"/>
<text text-anchor="middle" x="295.75" y="-383.82" font-family="Times,serif" font-size="14.00">1: enter: check_triangle(a, b, c)</text>
</g>
<!-- 3 -->
<g id="node9" class="node">
<title>3</title>
<polygon fill="none" stroke="black" points="295.75,-332 221.32,-314 295.75,-296 370.18,-314 295.75,-332"/>
<text text-anchor="middle" x="295.75" y="-307.82" font-family="Times,serif" font-size="14.00">2: if: a == b</text>
</g>
<!-- 1&#45;&gt;3 -->
<g id="edge7" class="edge">
<title>1&#45;&gt;3</title>
<path fill="none" stroke="green" d="M295.75,-367.6C295.75,-360.11 295.75,-351.59 295.75,-343.61"/>
<polygon fill="green" stroke="green" points="299.25,-343.65 295.75,-333.65 292.25,-343.65 299.25,-343.65"/>
</g>
<!-- 2 -->
<g id="node2" class="node">
<title>2</title>
<ellipse fill="none" stroke="black" cx="338.75" cy="-22" rx="114.64" ry="18"/>
<ellipse fill="none" stroke="black" cx="338.75" cy="-22" rx="118.64" ry="22"/>
<text text-anchor="middle" x="338.75" y="-15.82" font-family="Times,serif" font-size="14.00">1: exit: check_triangle(a, b, c)</text>
</g>
<!-- 6 -->
<g id="node3" class="node">
<title>6</title>
<polygon fill="none" stroke="black" points="216.75,-116 86.75,-116 86.75,-80 216.75,-80 216.75,-116"/>
<text text-anchor="middle" x="151.75" y="-91.83" font-family="Times,serif" font-size="14.00">5: return &#39;Equilateral&#39;</text>
</g>
<!-- 6&#45;&gt;2 -->
<g id="edge1" class="edge">
<title>6&#45;&gt;2</title>
<path fill="none" stroke="green" d="M195.59,-79.65C220.47,-69.81 251.95,-57.35 279.05,-46.63"/>
<polygon fill="green" stroke="green" points="280.16,-49.95 288.18,-43.01 277.59,-43.44 280.16,-49.95"/>
</g>
<!-- 7 -->
<g id="node4" class="node">
<title>7</title>
<polygon fill="none" stroke="black" points="354.5,-116 235,-116 235,-80 354.5,-80 354.5,-116"/>
<text text-anchor="middle" x="294.75" y="-91.83" font-family="Times,serif" font-size="14.00">7: return &#39;Isosceles&#39;</text>
</g>
<!-- 7&#45;&gt;2 -->
<g id="edge2" class="edge">
<title>7&#45;&gt;2</title>
<path fill="none" stroke="red" d="M304.96,-79.84C309.53,-72.14 315.07,-62.83 320.33,-53.98"/>
<polygon fill="red" stroke="red" points="323.21,-55.99 325.31,-45.61 317.19,-52.41 323.21,-55.99"/>
</g>
<!-- 8 -->
<g id="node5" class="node">
<title>8</title>
<polygon fill="none" stroke="black" points="119.5,-188 0,-188 0,-152 119.5,-152 119.5,-188"/>
<text text-anchor="middle" x="59.75" y="-163.82" font-family="Times,serif" font-size="14.00">9: return &#39;Isosceles&#39;</text>
</g>
<!-- 8&#45;&gt;2 -->
<g id="edge3" class="edge">
<title>8&#45;&gt;2</title>
<path fill="none" stroke="red" d="M58.1,-151.73C57.2,-131.69 59.06,-98.98 77.75,-80 98.81,-58.61 165.3,-44.28 225.9,-35.34"/>
<polygon fill="red" stroke="red" points="226.23,-38.82 235.63,-33.94 225.24,-31.89 226.23,-38.82"/>
</g>
<!-- 11 -->
<g id="node6" class="node">
<title>11</title>
<polygon fill="none" stroke="black" points="536.88,-116 410.62,-116 410.62,-80 536.88,-80 536.88,-116"/>
<text text-anchor="middle" x="473.75" y="-91.83" font-family="Times,serif" font-size="14.00">13: return &#39;Isosceles&#39;</text>
</g>
<!-- 11&#45;&gt;2 -->
<g id="edge4" class="edge">
<title>11&#45;&gt;2</title>
<path fill="none" stroke="red" d="M442.1,-79.65C425.19,-70.38 404.05,-58.79 385.3,-48.52"/>
<polygon fill="red" stroke="red" points="387.24,-45.59 376.79,-43.85 383.87,-51.73 387.24,-45.59"/>
</g>
<!-- 12 -->
<g id="node7" class="node">
<title>12</title>
<polygon fill="none" stroke="black" points="674.5,-116 555,-116 555,-80 674.5,-80 674.5,-116"/>
<text text-anchor="middle" x="614.75" y="-91.83" font-family="Times,serif" font-size="14.00">15: return &#39;Scalene&#39;</text>
</g>
<!-- 12&#45;&gt;2 -->
<g id="edge5" class="edge">
<title>12&#45;&gt;2</title>
<path fill="none" stroke="red" d="M554.52,-80.85C513.73,-69.91 459.47,-55.37 415.57,-43.6"/>
<polygon fill="red" stroke="red" points="416.67,-40.27 406.1,-41.06 414.86,-47.03 416.67,-40.27"/>
</g>
<!-- 13 -->
<g id="node8" class="node">
<title>13</title>
<polygon fill="none" stroke="black" points="444.88,-188 318.62,-188 318.62,-152 444.88,-152 444.88,-188"/>
<text text-anchor="middle" x="381.75" y="-163.82" font-family="Times,serif" font-size="14.00">17: return &#39;Isosceles&#39;</text>
</g>
<!-- 13&#45;&gt;2 -->
<g id="edge6" class="edge">
<title>13&#45;&gt;2</title>
<path fill="none" stroke="red" d="M379.37,-151.66C376.62,-133.52 371.45,-104.35 363.75,-80 361.08,-71.55 357.55,-62.66 353.99,-54.48"/>
<polygon fill="red" stroke="red" points="357.29,-53.29 349.98,-45.61 350.91,-56.17 357.29,-53.29"/>
</g>
<!-- 4 -->
<g id="node10" class="node">
<title>4</title>
<polygon fill="none" stroke="black" points="211.75,-260 137.99,-242 211.75,-224 285.51,-242 211.75,-260"/>
<text text-anchor="middle" x="211.75" y="-235.82" font-family="Times,serif" font-size="14.00">3: if: a == c</text>
</g>
<!-- 3&#45;&gt;4 -->
<g id="edge8" class="edge">
<title>3&#45;&gt;4</title>
<path fill="none" stroke="green" d="M279.55,-299.5C267.35,-289.34 250.41,-275.21 236.51,-263.63"/>
<polygon fill="green" stroke="green" points="238.98,-261.14 229.06,-257.42 234.5,-266.51 238.98,-261.14"/>
</g>
<!-- 9 -->
<g id="node12" class="node">
<title>9</title>
<polygon fill="none" stroke="black" points="381.75,-260 304.62,-242 381.75,-224 458.88,-242 381.75,-260"/>
<text text-anchor="middle" x="381.75" y="-235.82" font-family="Times,serif" font-size="14.00">11: if: b != c</text>
</g>
<!-- 3&#45;&gt;9 -->
<g id="edge13" class="edge">
<title>3&#45;&gt;9</title>
<path fill="none" stroke="red" d="M312.33,-299.5C324.82,-289.34 342.17,-275.21 356.4,-263.63"/>
<polygon fill="red" stroke="red" points="358.5,-266.44 364.05,-257.41 354.08,-261.01 358.5,-266.44"/>
</g>
<!-- 4&#45;&gt;8 -->
<g id="edge12" class="edge">
<title>4&#45;&gt;8</title>
<path fill="none" stroke="red" d="M186.99,-229.6C165.6,-219.75 134.08,-205.23 107.76,-193.11"/>
<polygon fill="red" stroke="red" points="109.51,-190.06 98.97,-189.06 106.59,-196.42 109.51,-190.06"/>
</g>
<!-- 5 -->
<g id="node11" class="node">
<title>5</title>
<polygon fill="none" stroke="black" points="211.75,-188 137.32,-170 211.75,-152 286.18,-170 211.75,-188"/>
<text text-anchor="middle" x="211.75" y="-163.82" font-family="Times,serif" font-size="14.00">4: if: b == c</text>
</g>
<!-- 4&#45;&gt;5 -->
<g id="edge9" class="edge">
<title>4&#45;&gt;5</title>
<path fill="none" stroke="green" d="M211.75,-223.7C211.75,-216.41 211.75,-207.73 211.75,-199.54"/>
<polygon fill="green" stroke="green" points="215.25,-199.62 211.75,-189.62 208.25,-199.62 215.25,-199.62"/>
</g>
<!-- 5&#45;&gt;6 -->
<g id="edge10" class="edge">
<title>5&#45;&gt;6</title>
<path fill="none" stroke="green" d="M199.32,-154.5C192.06,-146.03 182.7,-135.1 174.19,-125.18"/>
<polygon fill="green" stroke="green" points="176.86,-122.92 167.7,-117.61 171.55,-127.48 176.86,-122.92"/>
</g>
<!-- 5&#45;&gt;7 -->
<g id="edge11" class="edge">
<title>5&#45;&gt;7</title>
<path fill="none" stroke="red" d="M227.75,-155.5C238.47,-146.46 252.89,-134.3 265.61,-123.58"/>
<polygon fill="red" stroke="red" points="267.53,-126.54 272.92,-117.41 263.02,-121.19 267.53,-126.54"/>
</g>
<!-- 9&#45;&gt;13 -->
<g id="edge17" class="edge">
<title>9&#45;&gt;13</title>
<path fill="none" stroke="red" d="M381.75,-223.7C381.75,-216.41 381.75,-207.73 381.75,-199.54"/>
<polygon fill="red" stroke="red" points="385.25,-199.62 381.75,-189.62 378.25,-199.62 385.25,-199.62"/>
</g>
<!-- 10 -->
<g id="node13" class="node">
<title>10</title>
<polygon fill="none" stroke="black" points="542.75,-188 462.92,-170 542.75,-152 622.58,-170 542.75,-188"/>
<text text-anchor="middle" x="542.75" y="-163.82" font-family="Times,serif" font-size="14.00">12: if: a == c</text>
</g>
<!-- 9&#45;&gt;10 -->
<g id="edge14" class="edge">
<title>9&#45;&gt;10</title>
<path fill="none" stroke="red" d="M407.62,-229.75C434.22,-218.19 475.89,-200.07 505.92,-187.01"/>
<polygon fill="red" stroke="red" points="507.25,-190.25 515.02,-183.05 504.46,-183.83 507.25,-190.25"/>
</g>
<!-- 10&#45;&gt;11 -->
<g id="edge15" class="edge">
<title>10&#45;&gt;11</title>
<path fill="none" stroke="red" d="M528.79,-154.83C520.15,-146.07 508.81,-134.57 498.67,-124.28"/>
<polygon fill="red" stroke="red" points="501.45,-122.11 491.93,-117.45 496.46,-127.02 501.45,-122.11"/>
</g>
<!-- 10&#45;&gt;12 -->
<g id="edge16" class="edge">
<title>10&#45;&gt;12</title>
<path fill="none" stroke="red" d="M557.32,-154.83C566.33,-146.07 578.17,-134.57 588.75,-124.28"/>
<polygon fill="red" stroke="red" points="591.07,-126.9 595.8,-117.42 586.19,-121.88 591.07,-126.9"/>
</g>
</g>
</svg>