<svg class="railroad-diagram" height="92" viewBox="0 0 347.5 92" width="347.5" xmlns="http://www.w3.org/2000/svg">
<g transform="translate(.5 .5)">
<style>/* <![CDATA[ */
    svg.railroad-diagram {
        background-color:hsl(100,100%,100%);
    }
    svg.railroad-diagram path {
        stroke-width:3;
        stroke:black;
        fill:rgba(0,0,0,0);
    }
    svg.railroad-diagram text {
        font:bold 14px monospace;
        text-anchor:middle;
    }
    svg.railroad-diagram text.label{
        text-anchor:start;
    }
    svg.railroad-diagram text.comment{
        font:italic 12px monospace;
    }
    svg.railroad-diagram rect{
        stroke-width:3;
        stroke:black;
        fill:hsl(0,62%,82%);
    }

/* ]]> */
</style><g>
<path d="M20 51v20m10 -20v20m-10 -10h20"/></g><g>
<path d="M40 61h0.0"/><path d="M307.5 61h0.0"/><path d="M40.0 61a10 10 0 0 0 10 -10v-10a10 10 0 0 1 10 -10"/><g>
<path d="M60.0 31h0.0"/><path d="M287.5 31h0.0"/><g class="non-terminal">
<path d="M60.0 31h0.0"/><path d="M139.5 31h0.0"/><rect height="22" width="79.5" x="60.0" y="20"/><text x="99.75" y="35">integer</text></g><path d="M139.5 31h10"/><path d="M149.5 31h10"/><g class="terminal">
<path d="M159.5 31h0.0"/><path d="M188.0 31h0.0"/><rect height="22" rx="10" ry="10" width="28.5" x="159.5" y="20"/><text x="173.75" y="35">.</text></g><path d="M188.0 31h10"/><path d="M198.0 31h10"/><g class="non-terminal">
<path d="M208.0 31h0.0"/><path d="M287.5 31h0.0"/><rect height="22" width="79.5" x="208.0" y="20"/><text x="247.75" y="35">integer</text></g></g><path d="M287.5 31a10 10 0 0 1 10 10v10a10 10 0 0 0 10 10"/><path d="M40.0 61h20"/><g>
<path d="M60.0 61h74.0"/><path d="M213.5 61h74.0"/><g class="non-terminal">
<path d="M134.0 61h0.0"/><path d="M213.5 61h0.0"/><rect height="22" width="79.5" x="134.0" y="50"/><text x="173.75" y="65">integer</text></g></g><path d="M287.5 61h20"/></g><path d="M 307.5 61 h 20 m -10 -10 v 20 m 10 -20 v 20"/></g></svg>