<svg xmlns="http://www.w3.org/2000/svg" class="railroad-diagram" height="122" viewBox="0 0 390.0 122" width="390.0">
<g transform="translate(.5 .5)">
<style>/* <![CDATA[ */
    svg.railroad-diagram {
    }
    svg.railroad-diagram path {
        stroke-width:3;
        stroke:black;
        fill:white;
    }
    svg.railroad-diagram text {
        font:14px "Fira Mono", monospace;
        text-anchor:middle;
    }
    svg.railroad-diagram text.label{
        text-anchor:start;
    }
    svg.railroad-diagram text.comment{
        font:italic 12px "Fira Mono", monospace;
    }
    svg.railroad-diagram rect{
        stroke-width:2;
        stroke:black;
        fill:mistyrose;
    }

/* ]]> */
</style><g>
<path d="M20 51v20m10 -20v20m-10 -10h20"/></g><g>
<path d="M40 61h0.0"/><path d="M350.0 61h0.0"/><path d="M40.0 61a10 10 0 0 0 10 -10v-10a10 10 0 0 1 10 -10"/><g>
<path d="M60.0 31h95.25"/><path d="M234.75 31h95.25"/><g class="non-terminal">
<path d="M155.25 31h0.0"/><path d="M234.75 31h0.0"/><rect height="22" width="79.5" x="155.25" y="20"/><text x="195.0" y="35">url@396</text></g></g><path d="M330.0 31a10 10 0 0 1 10 10v10a10 10 0 0 0 10 10"/><path d="M40.0 61h20"/><g>
<path d="M60.0 61h45.5"/><path d="M284.5 61h45.5"/><g class="terminal">
<path d="M105.5 61h0.0"/><path d="M142.5 61h0.0"/><rect height="22" rx="10" ry="10" width="37.0" x="105.5" y="50"/><text x="124.0" y="65">/#</text></g><path d="M142.5 61h10"/><path d="M152.5 61h10"/><g class="non-terminal">
<path d="M162.5 61h0.0"/><path d="M284.5 61h0.0"/><rect height="22" width="122.0" x="162.5" y="50"/><text x="223.5" y="65">fragment@502</text></g></g><path d="M330.0 61h20"/><path d="M40.0 61a10 10 0 0 1 10 10v10a10 10 0 0 0 10 10"/><g>
<path d="M60.0 91h0.0"/><path d="M330.0 91h0.0"/><g class="non-terminal">
<path d="M60.0 91h0.0"/><path d="M139.5 91h0.0"/><rect height="22" width="79.5" x="60.0" y="80"/><text x="99.75" y="95">url@502</text></g><path d="M139.5 91h10"/><path d="M149.5 91h10"/><g class="terminal">
<path d="M159.5 91h0.0"/><path d="M188.0 91h0.0"/><rect height="22" rx="10" ry="10" width="28.5" x="159.5" y="80"/><text x="173.75" y="95">#</text></g><path d="M188.0 91h10"/><path d="M198.0 91h10"/><g class="non-terminal">
<path d="M208.0 91h0.0"/><path d="M330.0 91h0.0"/><rect height="22" width="122.0" x="208.0" y="80"/><text x="269.0" y="95">fragment@502</text></g></g><path d="M330.0 91a10 10 0 0 0 10 -10v-10a10 10 0 0 1 10 -10"/></g><path d="M 350.0 61 h 20 m -10 -10 v 20 m 10 -20 v 20"/></g></svg>