<?xml version="1.0" encoding="UTF-8" standalone="no"?>
<!DOCTYPE svg PUBLIC "-//W3C//DTD SVG 1.1//EN"
 "http://www.w3.org/Graphics/SVG/1.1/DTD/svg11.dtd">
<!-- Generated by graphviz version 12.2.1 (20241206.2353)
 -->
<!-- Pages: 1 -->
<svg width="228pt" height="173pt"
 viewBox="0.00 0.00 228.00 173.00" xmlns="http://www.w3.org/2000/svg" xmlns:xlink="http://www.w3.org/1999/xlink">
<g id="graph0" class="graph" transform="scale(1 1) rotate(0) translate(4 169)">
<polygon fill="white" stroke="none" points="-4,4 -4,-169 224,-169 224,4 -4,4"/>
<!-- 0 -->
<g id="node1" class="node">
<title>0</title>
<text text-anchor="middle" x="102.88" y="-151.7" font-family="Times,serif" font-size="14.00">&lt;start&gt;</text>
</g>
<!-- 1 -->
<g id="node2" class="node">
<title>1</title>
<text text-anchor="middle" x="102.88" y="-101.45" font-family="Times,serif" font-size="14.00">&lt;vehicle&gt;</text>
</g>
<!-- 0&#45;&gt;1 -->
<g id="edge1" class="edge">
<title>0&#45;&gt;1</title>
<path fill="none" stroke="black" d="M102.88,-150.96C102.88,-144.74 102.88,-134.65 102.88,-125.89"/>
<polygon fill="black" stroke="black" points="106.38,-126.1 102.88,-116.1 99.38,-126.1 106.38,-126.1"/>
</g>
<!-- 2 -->
<g id="node3" class="node">
<title>2</title>
<text text-anchor="middle" x="19.88" y="-51.2" font-family="Times,serif" font-size="14.00">&lt;year&gt;</text>
</g>
<!-- 1&#45;&gt;2 -->
<g id="edge2" class="edge">
<title>1&#45;&gt;2</title>
<path fill="none" stroke="black" d="M92.36,-100.51C79.27,-92.9 56.6,-79.73 40.1,-70.13"/>
<polygon fill="black" stroke="black" points="42.01,-67.2 31.61,-65.2 38.5,-73.25 42.01,-67.2"/>
</g>
<!-- 4 -->
<g id="node5" class="node">
<title>4</title>
<text text-anchor="middle" x="70.88" y="-51.2" font-family="Times,serif" font-size="14.00">,van,</text>
</g>
<!-- 1&#45;&gt;4 -->
<g id="edge4" class="edge">
<title>1&#45;&gt;4</title>
<path fill="none" stroke="black" d="M98.95,-100.71C94.54,-94.05 87.19,-82.98 81.12,-73.82"/>
<polygon fill="black" stroke="black" points="84.11,-72 75.67,-65.6 78.28,-75.87 84.11,-72"/>
</g>
<!-- 5 -->
<g id="node6" class="node">
<title>5</title>
<text text-anchor="middle" x="135.88" y="-51.2" font-family="Times,serif" font-size="14.00">&lt;company&gt;</text>
</g>
<!-- 1&#45;&gt;5 -->
<g id="edge5" class="edge">
<title>1&#45;&gt;5</title>
<path fill="none" stroke="black" d="M106.92,-100.71C111.47,-94.05 119.05,-82.98 125.31,-73.82"/>
<polygon fill="black" stroke="black" points="128.18,-75.82 130.94,-65.59 122.41,-71.87 128.18,-75.82"/>
</g>
<!-- 7 -->
<g id="node8" class="node">
<title>7</title>
<text text-anchor="middle" x="203.88" y="-51.2" font-family="Times,serif" font-size="14.00">,E350</text>
</g>
<!-- 1&#45;&gt;7 -->
<g id="edge7" class="edge">
<title>1&#45;&gt;7</title>
<path fill="none" stroke="black" d="M115.67,-100.51C132.06,-92.68 160.77,-78.97 180.97,-69.32"/>
<polygon fill="black" stroke="black" points="182.31,-72.56 189.82,-65.09 179.29,-66.24 182.31,-72.56"/>
</g>
<!-- 3 -->
<g id="node4" class="node">
<title>3</title>
<text text-anchor="middle" x="19.88" y="-0.95" font-family="Times,serif" font-size="14.00">1997</text>
</g>
<!-- 2&#45;&gt;3 -->
<g id="edge3" class="edge">
<title>2&#45;&gt;3</title>
<path fill="none" stroke="black" d="M19.88,-50.46C19.88,-44.24 19.88,-34.15 19.88,-25.39"/>
<polygon fill="black" stroke="black" points="23.38,-25.6 19.88,-15.6 16.38,-25.6 23.38,-25.6"/>
</g>
<!-- 6 -->
<g id="node7" class="node">
<title>6</title>
<text text-anchor="middle" x="135.88" y="-0.95" font-family="Times,serif" font-size="14.00">Ford</text>
</g>
<!-- 5&#45;&gt;6 -->
<g id="edge6" class="edge">
<title>5&#45;&gt;6</title>
<path fill="none" stroke="black" d="M135.88,-50.46C135.88,-44.24 135.88,-34.15 135.88,-25.39"/>
<polygon fill="black" stroke="black" points="139.38,-25.6 135.88,-15.6 132.38,-25.6 139.38,-25.6"/>
</g>
</g>
</svg>