<?xml version="1.0" encoding="UTF-8" standalone="no"?>
<!DOCTYPE svg PUBLIC "-//W3C//DTD SVG 1.1//EN"
 "http://www.w3.org/Graphics/SVG/1.1/DTD/svg11.dtd">
<!-- Generated by graphviz version 2.40.1 (20161225.0304)
 -->
<!-- Title: %3 Pages: 1 -->
<svg width="469pt" height="788pt"
 viewBox="0.00 0.00 469.00 788.00" xmlns="http://www.w3.org/2000/svg" xmlns:xlink="http://www.w3.org/1999/xlink">
<g id="graph0" class="graph" transform="scale(1 1) rotate(0) translate(4 784)">
<title>%3</title>
<polygon fill="#ffffff" stroke="transparent" points="-4,4 -4,-784 465,-784 465,4 -4,4"/>
<!-- 0 -->
<g id="node1" class="node">
<title>0</title>
<text text-anchor="middle" x="150.5" y="-768.8" font-family="Times,serif" font-size="14.00" fill="#000000">&lt;start&gt;</text>
</g>
<!-- 1 -->
<g id="node2" class="node">
<title>1</title>
<text text-anchor="middle" x="150.5" y="-717.8" font-family="Times,serif" font-size="14.00" fill="#000000">&lt;statements&gt;</text>
</g>
<!-- 0&#45;&gt;1 -->
<g id="edge1" class="edge">
<title>0&#45;&gt;1</title>
<path fill="none" stroke="#000000" d="M150.5,-764.9748C150.5,-758.195 150.5,-747.966 150.5,-739.1331"/>
<polygon fill="#000000" stroke="#000000" points="154.0001,-739.0561 150.5,-729.0561 147.0001,-739.0561 154.0001,-739.0561"/>
</g>
<!-- 2 -->
<g id="node3" class="node">
<title>2</title>
<text text-anchor="middle" x="93.5" y="-666.8" font-family="Times,serif" font-size="14.00" fill="#000000">&lt;statement&gt;</text>
</g>
<!-- 1&#45;&gt;2 -->
<g id="edge2" class="edge">
<title>1&#45;&gt;2</title>
<path fill="none" stroke="#000000" d="M142.0895,-713.9748C133.5859,-706.3663 120.2275,-694.4141 109.6677,-684.9658"/>
<polygon fill="#000000" stroke="#000000" points="111.7313,-682.1157 101.9451,-678.0561 107.0637,-687.3324 111.7313,-682.1157"/>
</g>
<!-- 12 -->
<g id="node13" class="node">
<title>12</title>
<text text-anchor="middle" x="150.5" y="-666.8" font-family="Times,serif" font-size="14.00" fill="#000000">;</text>
</g>
<!-- 1&#45;&gt;12 -->
<g id="edge12" class="edge">
<title>1&#45;&gt;12</title>
<path fill="none" stroke="#000000" d="M150.5,-713.9748C150.5,-707.195 150.5,-696.966 150.5,-688.1331"/>
<polygon fill="#000000" stroke="#000000" points="154.0001,-688.0561 150.5,-678.0561 147.0001,-688.0561 154.0001,-688.0561"/>
</g>
<!-- 13 -->
<g id="node14" class="node">
<title>13</title>
<text text-anchor="middle" x="209.5" y="-666.8" font-family="Times,serif" font-size="14.00" fill="#000000">&lt;statements&gt;</text>
</g>
<!-- 1&#45;&gt;13 -->
<g id="edge13" class="edge">
<title>1&#45;&gt;13</title>
<path fill="none" stroke="#000000" d="M159.2057,-713.9748C168.0947,-706.291 182.109,-694.177 193.0889,-684.6859"/>
<polygon fill="#000000" stroke="#000000" points="195.4821,-687.2435 200.7586,-678.0561 190.9044,-681.9478 195.4821,-687.2435"/>
</g>
<!-- 3 -->
<g id="node4" class="node">
<title>3</title>
<text text-anchor="middle" x="89.5" y="-615.8" font-family="Times,serif" font-size="14.00" fill="#000000">&lt;assignment&gt;</text>
</g>
<!-- 2&#45;&gt;3 -->
<g id="edge3" class="edge">
<title>2&#45;&gt;3</title>
<path fill="none" stroke="#000000" d="M92.9098,-662.9748C92.378,-656.195 91.5758,-645.966 90.883,-637.1331"/>
<polygon fill="#000000" stroke="#000000" points="94.3639,-636.7518 90.0926,-627.0561 87.3854,-637.2992 94.3639,-636.7518"/>
</g>
<!-- 4 -->
<g id="node5" class="node">
<title>4</title>
<text text-anchor="middle" x="33.5" y="-564.8" font-family="Times,serif" font-size="14.00" fill="#ff0000">&lt;identifier&gt;</text>
</g>
<!-- 3&#45;&gt;4 -->
<g id="edge4" class="edge">
<title>3&#45;&gt;4</title>
<path fill="none" stroke="#000000" d="M81.237,-611.9748C72.8826,-604.3663 59.7586,-592.4141 49.384,-582.9658"/>
<polygon fill="#000000" stroke="#000000" points="51.547,-580.2017 41.7969,-576.0561 46.8337,-585.3771 51.547,-580.2017"/>
</g>
<!-- 6 -->
<g id="node7" class="node">
<title>6</title>
<text text-anchor="middle" x="89.5" y="-564.8" font-family="Times,serif" font-size="14.00" fill="#000000">=</text>
</g>
<!-- 3&#45;&gt;6 -->
<g id="edge6" class="edge">
<title>3&#45;&gt;6</title>
<path fill="none" stroke="#000000" d="M89.5,-611.9748C89.5,-605.195 89.5,-594.966 89.5,-586.1331"/>
<polygon fill="#000000" stroke="#000000" points="93.0001,-586.0561 89.5,-576.0561 86.0001,-586.0561 93.0001,-586.0561"/>
</g>
<!-- 7 -->
<g id="node8" class="node">
<title>7</title>
<text text-anchor="middle" x="132.5" y="-564.8" font-family="Times,serif" font-size="14.00" fill="#000000">&lt;expr&gt;</text>
</g>
<!-- 3&#45;&gt;7 -->
<g id="edge7" class="edge">
<title>3&#45;&gt;7</title>
<path fill="none" stroke="#000000" d="M95.8448,-611.9748C102.0692,-604.5923 111.7417,-593.1203 119.5881,-583.8142"/>
<polygon fill="#000000" stroke="#000000" points="122.359,-585.9574 126.1292,-576.0561 117.0073,-581.4452 122.359,-585.9574"/>
</g>
<!-- 5 -->
<g id="node6" class="node">
<title>5</title>
<text text-anchor="middle" x="33.5" y="-513.8" font-family="Times,serif" font-size="14.00" fill="#000000">avar</text>
</g>
<!-- 4&#45;&gt;5 -->
<g id="edge5" class="edge">
<title>4&#45;&gt;5</title>
<path fill="none" stroke="#000000" d="M33.5,-560.9748C33.5,-554.195 33.5,-543.966 33.5,-535.1331"/>
<polygon fill="#000000" stroke="#000000" points="37.0001,-535.0561 33.5,-525.0561 30.0001,-535.0561 37.0001,-535.0561"/>
</g>
<!-- 8 -->
<g id="node9" class="node">
<title>8</title>
<text text-anchor="middle" x="108.5" y="-513.8" font-family="Times,serif" font-size="14.00" fill="#000000">&lt;term&gt;</text>
</g>
<!-- 7&#45;&gt;8 -->
<g id="edge8" class="edge">
<title>7&#45;&gt;8</title>
<path fill="none" stroke="#000000" d="M128.9587,-560.9748C125.6619,-553.969 120.6319,-543.2803 116.3845,-534.2547"/>
<polygon fill="#000000" stroke="#000000" points="119.4807,-532.614 112.0558,-525.0561 113.147,-535.5946 119.4807,-532.614"/>
</g>
<!-- 9 -->
<g id="node10" class="node">
<title>9</title>
<text text-anchor="middle" x="108.5" y="-462.8" font-family="Times,serif" font-size="14.00" fill="#000000">&lt;factor&gt;</text>
</g>
<!-- 8&#45;&gt;9 -->
<g id="edge9" class="edge">
<title>8&#45;&gt;9</title>
<path fill="none" stroke="#000000" d="M108.5,-509.9748C108.5,-503.195 108.5,-492.966 108.5,-484.1331"/>
<polygon fill="#000000" stroke="#000000" points="112.0001,-484.0561 108.5,-474.0561 105.0001,-484.0561 112.0001,-484.0561"/>
</g>
<!-- 10 -->
<g id="node11" class="node">
<title>10</title>
<text text-anchor="middle" x="108.5" y="-411.8" font-family="Times,serif" font-size="14.00" fill="#ff0000">&lt;number&gt;</text>
</g>
<!-- 9&#45;&gt;10 -->
<g id="edge10" class="edge">
<title>9&#45;&gt;10</title>
<path fill="none" stroke="#000000" d="M108.5,-458.9748C108.5,-452.195 108.5,-441.966 108.5,-433.1331"/>
<polygon fill="#000000" stroke="#000000" points="112.0001,-433.0561 108.5,-423.0561 105.0001,-433.0561 112.0001,-433.0561"/>
</g>
<!-- 11 -->
<g id="node12" class="node">
<title>11</title>
<text text-anchor="middle" x="108.5" y="-360.8" font-family="Times,serif" font-size="14.00" fill="#000000">1.3</text>
</g>
<!-- 10&#45;&gt;11 -->
<g id="edge11" class="edge">
<title>10&#45;&gt;11</title>
<path fill="none" stroke="#000000" d="M108.5,-407.9748C108.5,-401.195 108.5,-390.966 108.5,-382.1331"/>
<polygon fill="#000000" stroke="#000000" points="112.0001,-382.0561 108.5,-372.0561 105.0001,-382.0561 112.0001,-382.0561"/>
</g>
<!-- 14 -->
<g id="node15" class="node">
<title>14</title>
<text text-anchor="middle" x="210.5" y="-615.8" font-family="Times,serif" font-size="14.00" fill="#000000">&lt;statement&gt;</text>
</g>
<!-- 13&#45;&gt;14 -->
<g id="edge14" class="edge">
<title>13&#45;&gt;14</title>
<path fill="none" stroke="#000000" d="M209.6476,-662.9748C209.7805,-656.195 209.9811,-645.966 210.1543,-637.1331"/>
<polygon fill="#000000" stroke="#000000" points="213.655,-637.1228 210.3518,-627.0561 206.6564,-636.9855 213.655,-637.1228"/>
</g>
<!-- 15 -->
<g id="node16" class="node">
<title>15</title>
<text text-anchor="middle" x="212.5" y="-564.8" font-family="Times,serif" font-size="14.00" fill="#000000">&lt;assignment&gt;</text>
</g>
<!-- 14&#45;&gt;15 -->
<g id="edge15" class="edge">
<title>14&#45;&gt;15</title>
<path fill="none" stroke="#000000" d="M210.7951,-611.9748C211.061,-605.195 211.4621,-594.966 211.8085,-586.1331"/>
<polygon fill="#000000" stroke="#000000" points="215.309,-586.1856 212.2037,-576.0561 208.3144,-585.9112 215.309,-586.1856"/>
</g>
<!-- 16 -->
<g id="node17" class="node">
<title>16</title>
<text text-anchor="middle" x="181.5" y="-513.8" font-family="Times,serif" font-size="14.00" fill="#ff0000">&lt;identifier&gt;</text>
</g>
<!-- 15&#45;&gt;16 -->
<g id="edge16" class="edge">
<title>15&#45;&gt;16</title>
<path fill="none" stroke="#000000" d="M207.9258,-560.9748C203.5758,-553.8183 196.8899,-542.8188 191.3317,-533.6747"/>
<polygon fill="#000000" stroke="#000000" points="194.278,-531.7834 186.0929,-525.0561 188.2963,-535.4193 194.278,-531.7834"/>
</g>
<!-- 18 -->
<g id="node19" class="node">
<title>18</title>
<text text-anchor="middle" x="237.5" y="-513.8" font-family="Times,serif" font-size="14.00" fill="#000000">=</text>
</g>
<!-- 15&#45;&gt;18 -->
<g id="edge18" class="edge">
<title>15&#45;&gt;18</title>
<path fill="none" stroke="#000000" d="M216.1888,-560.9748C219.6231,-553.969 224.8626,-543.2803 229.2869,-534.2547"/>
<polygon fill="#000000" stroke="#000000" points="232.5371,-535.5759 233.796,-525.0561 226.2517,-532.4947 232.5371,-535.5759"/>
</g>
<!-- 19 -->
<g id="node20" class="node">
<title>19</title>
<text text-anchor="middle" x="280.5" y="-513.8" font-family="Times,serif" font-size="14.00" fill="#000000">&lt;expr&gt;</text>
</g>
<!-- 15&#45;&gt;19 -->
<g id="edge19" class="edge">
<title>15&#45;&gt;19</title>
<path fill="none" stroke="#000000" d="M222.5336,-560.9748C232.9796,-553.1403 249.5664,-540.7002 262.3258,-531.1307"/>
<polygon fill="#000000" stroke="#000000" points="264.5252,-533.8561 270.4252,-525.0561 260.3252,-528.2561 264.5252,-533.8561"/>
</g>
<!-- 17 -->
<g id="node18" class="node">
<title>17</title>
<text text-anchor="middle" x="181.5" y="-462.8" font-family="Times,serif" font-size="14.00" fill="#000000">bvar</text>
</g>
<!-- 16&#45;&gt;17 -->
<g id="edge17" class="edge">
<title>16&#45;&gt;17</title>
<path fill="none" stroke="#000000" d="M181.5,-509.9748C181.5,-503.195 181.5,-492.966 181.5,-484.1331"/>
<polygon fill="#000000" stroke="#000000" points="185.0001,-484.0561 181.5,-474.0561 178.0001,-484.0561 185.0001,-484.0561"/>
</g>
<!-- 20 -->
<g id="node21" class="node">
<title>20</title>
<text text-anchor="middle" x="236.5" y="-462.8" font-family="Times,serif" font-size="14.00" fill="#000000">&lt;term&gt;</text>
</g>
<!-- 19&#45;&gt;20 -->
<g id="edge20" class="edge">
<title>19&#45;&gt;20</title>
<path fill="none" stroke="#000000" d="M274.0076,-509.9748C267.6385,-502.5923 257.741,-491.1203 249.7122,-481.8142"/>
<polygon fill="#000000" stroke="#000000" points="252.2014,-479.3414 243.019,-474.0561 246.9013,-483.914 252.2014,-479.3414"/>
</g>
<!-- 24 -->
<g id="node25" class="node">
<title>24</title>
<text text-anchor="middle" x="280.5" y="-462.8" font-family="Times,serif" font-size="14.00" fill="#000000">&#45;</text>
</g>
<!-- 19&#45;&gt;24 -->
<g id="edge24" class="edge">
<title>19&#45;&gt;24</title>
<path fill="none" stroke="#000000" d="M280.5,-509.9748C280.5,-503.195 280.5,-492.966 280.5,-484.1331"/>
<polygon fill="#000000" stroke="#000000" points="284.0001,-484.0561 280.5,-474.0561 277.0001,-484.0561 284.0001,-484.0561"/>
</g>
<!-- 25 -->
<g id="node26" class="node">
<title>25</title>
<text text-anchor="middle" x="340.5" y="-462.8" font-family="Times,serif" font-size="14.00" fill="#000000">&lt;expr&gt;</text>
</g>
<!-- 19&#45;&gt;25 -->
<g id="edge25" class="edge">
<title>19&#45;&gt;25</title>
<path fill="none" stroke="#000000" d="M289.3532,-509.9748C298.3929,-502.291 312.6447,-490.177 323.8107,-480.6859"/>
<polygon fill="#000000" stroke="#000000" points="326.2578,-483.1994 331.6105,-474.0561 321.7243,-477.8658 326.2578,-483.1994"/>
</g>
<!-- 21 -->
<g id="node22" class="node">
<title>21</title>
<text text-anchor="middle" x="231.5" y="-411.8" font-family="Times,serif" font-size="14.00" fill="#000000">&lt;factor&gt;</text>
</g>
<!-- 20&#45;&gt;21 -->
<g id="edge21" class="edge">
<title>20&#45;&gt;21</title>
<path fill="none" stroke="#000000" d="M235.7622,-458.9748C235.0975,-452.195 234.0947,-441.966 233.2287,-433.1331"/>
<polygon fill="#000000" stroke="#000000" points="236.6999,-432.6669 232.2408,-423.0561 229.7333,-433.3499 236.6999,-432.6669"/>
</g>
<!-- 22 -->
<g id="node23" class="node">
<title>22</title>
<text text-anchor="middle" x="222.5" y="-360.8" font-family="Times,serif" font-size="14.00" fill="#ff0000">&lt;identifier&gt;</text>
</g>
<!-- 21&#45;&gt;22 -->
<g id="edge22" class="edge">
<title>21&#45;&gt;22</title>
<path fill="none" stroke="#000000" d="M230.172,-407.9748C228.9756,-401.195 227.1705,-390.966 225.6117,-382.1331"/>
<polygon fill="#000000" stroke="#000000" points="229.0181,-381.2957 223.8334,-372.0561 222.1246,-382.5122 229.0181,-381.2957"/>
</g>
<!-- 23 -->
<g id="node24" class="node">
<title>23</title>
<text text-anchor="middle" x="222.5" y="-309.8" font-family="Times,serif" font-size="14.00" fill="#000000">avar</text>
</g>
<!-- 22&#45;&gt;23 -->
<g id="edge23" class="edge">
<title>22&#45;&gt;23</title>
<path fill="none" stroke="#000000" d="M222.5,-356.9748C222.5,-350.195 222.5,-339.966 222.5,-331.1331"/>
<polygon fill="#000000" stroke="#000000" points="226.0001,-331.0561 222.5,-321.0561 219.0001,-331.0561 226.0001,-331.0561"/>
</g>
<!-- 26 -->
<g id="node27" class="node">
<title>26</title>
<text text-anchor="middle" x="342.5" y="-411.8" font-family="Times,serif" font-size="14.00" fill="#000000">&lt;term&gt;</text>
</g>
<!-- 25&#45;&gt;26 -->
<g id="edge26" class="edge">
<title>25&#45;&gt;26</title>
<path fill="none" stroke="#000000" d="M340.7951,-458.9748C341.061,-452.195 341.4621,-441.966 341.8085,-433.1331"/>
<polygon fill="#000000" stroke="#000000" points="345.309,-433.1856 342.2037,-423.0561 338.3144,-432.9112 345.309,-433.1856"/>
</g>
<!-- 27 -->
<g id="node28" class="node">
<title>27</title>
<text text-anchor="middle" x="298.5" y="-360.8" font-family="Times,serif" font-size="14.00" fill="#000000">&lt;factor&gt;</text>
</g>
<!-- 26&#45;&gt;27 -->
<g id="edge27" class="edge">
<title>26&#45;&gt;27</title>
<path fill="none" stroke="#000000" d="M336.0076,-407.9748C329.6385,-400.5923 319.741,-389.1203 311.7122,-379.8142"/>
<polygon fill="#000000" stroke="#000000" points="314.2014,-377.3414 305.019,-372.0561 308.9013,-381.914 314.2014,-377.3414"/>
</g>
<!-- 30 -->
<g id="node31" class="node">
<title>30</title>
<text text-anchor="middle" x="345.5" y="-360.8" font-family="Times,serif" font-size="14.00" fill="#000000">*</text>
</g>
<!-- 26&#45;&gt;30 -->
<g id="edge30" class="edge">
<title>26&#45;&gt;30</title>
<path fill="none" stroke="#000000" d="M342.9427,-407.9748C343.3415,-401.195 343.9432,-390.966 344.4628,-382.1331"/>
<polygon fill="#000000" stroke="#000000" points="347.9622,-382.2444 345.0555,-372.0561 340.9742,-381.8333 347.9622,-382.2444"/>
</g>
<!-- 31 -->
<g id="node32" class="node">
<title>31</title>
<text text-anchor="middle" x="388.5" y="-360.8" font-family="Times,serif" font-size="14.00" fill="#000000">&lt;term&gt;</text>
</g>
<!-- 26&#45;&gt;31 -->
<g id="edge31" class="edge">
<title>26&#45;&gt;31</title>
<path fill="none" stroke="#000000" d="M349.2875,-407.9748C356.0141,-400.517 366.505,-388.8857 374.9436,-379.53"/>
<polygon fill="#000000" stroke="#000000" points="377.586,-381.826 381.6847,-372.0561 372.388,-377.1376 377.586,-381.826"/>
</g>
<!-- 28 -->
<g id="node29" class="node">
<title>28</title>
<text text-anchor="middle" x="298.5" y="-309.8" font-family="Times,serif" font-size="14.00" fill="#ff0000">&lt;number&gt;</text>
</g>
<!-- 27&#45;&gt;28 -->
<g id="edge28" class="edge">
<title>27&#45;&gt;28</title>
<path fill="none" stroke="#000000" d="M298.5,-356.9748C298.5,-350.195 298.5,-339.966 298.5,-331.1331"/>
<polygon fill="#000000" stroke="#000000" points="302.0001,-331.0561 298.5,-321.0561 295.0001,-331.0561 302.0001,-331.0561"/>
</g>
<!-- 29 -->
<g id="node30" class="node">
<title>29</title>
<text text-anchor="middle" x="298.5" y="-258.8" font-family="Times,serif" font-size="14.00" fill="#000000">3</text>
</g>
<!-- 28&#45;&gt;29 -->
<g id="edge29" class="edge">
<title>28&#45;&gt;29</title>
<path fill="none" stroke="#000000" d="M298.5,-305.9748C298.5,-299.195 298.5,-288.966 298.5,-280.1331"/>
<polygon fill="#000000" stroke="#000000" points="302.0001,-280.0561 298.5,-270.0561 295.0001,-280.0561 302.0001,-280.0561"/>
</g>
<!-- 32 -->
<g id="node33" class="node">
<title>32</title>
<text text-anchor="middle" x="388.5" y="-309.8" font-family="Times,serif" font-size="14.00" fill="#000000">&lt;factor&gt;</text>
</g>
<!-- 31&#45;&gt;32 -->
<g id="edge32" class="edge">
<title>31&#45;&gt;32</title>
<path fill="none" stroke="#000000" d="M388.5,-356.9748C388.5,-350.195 388.5,-339.966 388.5,-331.1331"/>
<polygon fill="#000000" stroke="#000000" points="392.0001,-331.0561 388.5,-321.0561 385.0001,-331.0561 392.0001,-331.0561"/>
</g>
<!-- 33 -->
<g id="node34" class="node">
<title>33</title>
<text text-anchor="middle" x="347.5" y="-258.8" font-family="Times,serif" font-size="14.00" fill="#000000">(</text>
</g>
<!-- 32&#45;&gt;33 -->
<g id="edge33" class="edge">
<title>32&#45;&gt;33</title>
<path fill="none" stroke="#000000" d="M382.4503,-305.9748C375.6341,-297.4961 364.4814,-283.6232 356.6104,-273.8324"/>
<polygon fill="#000000" stroke="#000000" points="359.1088,-271.3541 350.1154,-265.7533 353.6531,-275.74 359.1088,-271.3541"/>
</g>
<!-- 34 -->
<g id="node35" class="node">
<title>34</title>
<text text-anchor="middle" x="388.5" y="-258.8" font-family="Times,serif" font-size="14.00" fill="#000000">&lt;expr&gt;</text>
</g>
<!-- 32&#45;&gt;34 -->
<g id="edge34" class="edge">
<title>32&#45;&gt;34</title>
<path fill="none" stroke="#000000" d="M388.5,-305.9748C388.5,-299.195 388.5,-288.966 388.5,-280.1331"/>
<polygon fill="#000000" stroke="#000000" points="392.0001,-280.0561 388.5,-270.0561 385.0001,-280.0561 392.0001,-280.0561"/>
</g>
<!-- 45 -->
<g id="node46" class="node">
<title>45</title>
<text text-anchor="middle" x="429.5" y="-258.8" font-family="Times,serif" font-size="14.00" fill="#000000">)</text>
</g>
<!-- 32&#45;&gt;45 -->
<g id="edge45" class="edge">
<title>32&#45;&gt;45</title>
<path fill="none" stroke="#000000" d="M394.5497,-305.9748C401.3659,-297.4961 412.5186,-283.6232 420.3896,-273.8324"/>
<polygon fill="#000000" stroke="#000000" points="423.3469,-275.74 426.8846,-265.7533 417.8912,-271.3541 423.3469,-275.74"/>
</g>
<!-- 35 -->
<g id="node36" class="node">
<title>35</title>
<text text-anchor="middle" x="345.5" y="-207.8" font-family="Times,serif" font-size="14.00" fill="#000000">&lt;term&gt;</text>
</g>
<!-- 34&#45;&gt;35 -->
<g id="edge35" class="edge">
<title>34&#45;&gt;35</title>
<path fill="none" stroke="#000000" d="M382.1552,-254.9748C375.9308,-247.5923 366.2583,-236.1203 358.4119,-226.8142"/>
<polygon fill="#000000" stroke="#000000" points="360.9927,-224.4452 351.8708,-219.0561 355.641,-228.9574 360.9927,-224.4452"/>
</g>
<!-- 39 -->
<g id="node40" class="node">
<title>39</title>
<text text-anchor="middle" x="388.5" y="-207.8" font-family="Times,serif" font-size="14.00" fill="#000000">+</text>
</g>
<!-- 34&#45;&gt;39 -->
<g id="edge39" class="edge">
<title>34&#45;&gt;39</title>
<path fill="none" stroke="#000000" d="M388.5,-254.9748C388.5,-248.195 388.5,-237.966 388.5,-229.1331"/>
<polygon fill="#000000" stroke="#000000" points="392.0001,-229.0561 388.5,-219.0561 385.0001,-229.0561 392.0001,-229.0561"/>
</g>
<!-- 40 -->
<g id="node41" class="node">
<title>40</title>
<text text-anchor="middle" x="431.5" y="-207.8" font-family="Times,serif" font-size="14.00" fill="#000000">&lt;expr&gt;</text>
</g>
<!-- 34&#45;&gt;40 -->
<g id="edge40" class="edge">
<title>34&#45;&gt;40</title>
<path fill="none" stroke="#000000" d="M394.8448,-254.9748C401.0692,-247.5923 410.7417,-236.1203 418.5881,-226.8142"/>
<polygon fill="#000000" stroke="#000000" points="421.359,-228.9574 425.1292,-219.0561 416.0073,-224.4452 421.359,-228.9574"/>
</g>
<!-- 36 -->
<g id="node37" class="node">
<title>36</title>
<text text-anchor="middle" x="345.5" y="-156.8" font-family="Times,serif" font-size="14.00" fill="#000000">&lt;factor&gt;</text>
</g>
<!-- 35&#45;&gt;36 -->
<g id="edge36" class="edge">
<title>35&#45;&gt;36</title>
<path fill="none" stroke="#000000" d="M345.5,-203.9748C345.5,-197.195 345.5,-186.966 345.5,-178.1331"/>
<polygon fill="#000000" stroke="#000000" points="349.0001,-178.0561 345.5,-168.0561 342.0001,-178.0561 349.0001,-178.0561"/>
</g>
<!-- 37 -->
<g id="node38" class="node">
<title>37</title>
<text text-anchor="middle" x="345.5" y="-105.8" font-family="Times,serif" font-size="14.00" fill="#ff0000">&lt;number&gt;</text>
</g>
<!-- 36&#45;&gt;37 -->
<g id="edge37" class="edge">
<title>36&#45;&gt;37</title>
<path fill="none" stroke="#000000" d="M345.5,-152.9748C345.5,-146.195 345.5,-135.966 345.5,-127.1331"/>
<polygon fill="#000000" stroke="#000000" points="349.0001,-127.0561 345.5,-117.0561 342.0001,-127.0561 349.0001,-127.0561"/>
</g>
<!-- 38 -->
<g id="node39" class="node">
<title>38</title>
<text text-anchor="middle" x="345.5" y="-54.8" font-family="Times,serif" font-size="14.00" fill="#000000">4</text>
</g>
<!-- 37&#45;&gt;38 -->
<g id="edge38" class="edge">
<title>37&#45;&gt;38</title>
<path fill="none" stroke="#000000" d="M345.5,-101.9748C345.5,-95.195 345.5,-84.966 345.5,-76.1331"/>
<polygon fill="#000000" stroke="#000000" points="349.0001,-76.0561 345.5,-66.0561 342.0001,-76.0561 349.0001,-76.0561"/>
</g>
<!-- 41 -->
<g id="node42" class="node">
<title>41</title>
<text text-anchor="middle" x="431.5" y="-156.8" font-family="Times,serif" font-size="14.00" fill="#000000">&lt;term&gt;</text>
</g>
<!-- 40&#45;&gt;41 -->
<g id="edge41" class="edge">
<title>40&#45;&gt;41</title>
<path fill="none" stroke="#000000" d="M431.5,-203.9748C431.5,-197.195 431.5,-186.966 431.5,-178.1331"/>
<polygon fill="#000000" stroke="#000000" points="435.0001,-178.0561 431.5,-168.0561 428.0001,-178.0561 435.0001,-178.0561"/>
</g>
<!-- 42 -->
<g id="node43" class="node">
<title>42</title>
<text text-anchor="middle" x="431.5" y="-105.8" font-family="Times,serif" font-size="14.00" fill="#000000">&lt;factor&gt;</text>
</g>
<!-- 41&#45;&gt;42 -->
<g id="edge42" class="edge">
<title>41&#45;&gt;42</title>
<path fill="none" stroke="#000000" d="M431.5,-152.9748C431.5,-146.195 431.5,-135.966 431.5,-127.1331"/>
<polygon fill="#000000" stroke="#000000" points="435.0001,-127.0561 431.5,-117.0561 428.0001,-127.0561 435.0001,-127.0561"/>
</g>
<!-- 43 -->
<g id="node44" class="node">
<title>43</title>
<text text-anchor="middle" x="431.5" y="-54.8" font-family="Times,serif" font-size="14.00" fill="#ff0000">&lt;number&gt;</text>
</g>
<!-- 42&#45;&gt;43 -->
<g id="edge43" class="edge">
<title>42&#45;&gt;43</title>
<path fill="none" stroke="#000000" d="M431.5,-101.9748C431.5,-95.195 431.5,-84.966 431.5,-76.1331"/>
<polygon fill="#000000" stroke="#000000" points="435.0001,-76.0561 431.5,-66.0561 428.0001,-76.0561 435.0001,-76.0561"/>
</g>
<!-- 44 -->
<g id="node45" class="node">
<title>44</title>
<text text-anchor="middle" x="431.5" y="-3.8" font-family="Times,serif" font-size="14.00" fill="#000000">300</text>
</g>
<!-- 43&#45;&gt;44 -->
<g id="edge44" class="edge">
<title>43&#45;&gt;44</title>
<path fill="none" stroke="#000000" d="M431.5,-50.9748C431.5,-44.195 431.5,-33.966 431.5,-25.1331"/>
<polygon fill="#000000" stroke="#000000" points="435.0001,-25.0561 431.5,-15.0561 428.0001,-25.0561 435.0001,-25.0561"/>
</g>
</g>
</svg>