<?xml version="1.0" encoding="UTF-8" standalone="no"?>
<!DOCTYPE svg PUBLIC "-//W3C//DTD SVG 1.1//EN"
 "http://www.w3.org/Graphics/SVG/1.1/DTD/svg11.dtd">
<!-- Generated by graphviz version 12.2.1 (20241206.2353)
 -->
<!-- Pages: 1 -->
<svg width="215pt" height="223pt"
 viewBox="0.00 0.00 215.00 223.25" xmlns="http://www.w3.org/2000/svg" xmlns:xlink="http://www.w3.org/1999/xlink">
<g id="graph0" class="graph" transform="scale(1 1) rotate(0) translate(4 219.25)">
<polygon fill="white" stroke="none" points="-4,4 -4,-219.25 211,-219.25 211,4 -4,4"/>
<!-- 0 -->
<g id="node1" class="node">
<title>0</title>
<text text-anchor="middle" x="87" y="-201.95" font-family="Times,serif" font-size="14.00">&lt;start&gt;</text>
</g>
<!-- 1 -->
<g id="node2" class="node">
<title>1</title>
<text text-anchor="middle" x="87" y="-151.7" font-family="Times,serif" font-size="14.00">&lt;expr&gt;</text>
</g>
<!-- 0&#45;&gt;1 -->
<g id="edge1" class="edge">
<title>0&#45;&gt;1</title>
<path fill="none" stroke="black" d="M87,-201.21C87,-194.99 87,-184.9 87,-176.14"/>
<polygon fill="black" stroke="black" points="90.5,-176.35 87,-166.35 83.5,-176.35 90.5,-176.35"/>
</g>
<!-- 2 -->
<g id="node3" class="node">
<title>2</title>
<text text-anchor="middle" x="36" y="-101.45" font-family="Times,serif" font-size="14.00">&lt;expr&gt;</text>
</g>
<!-- 1&#45;&gt;2 -->
<g id="edge2" class="edge">
<title>1&#45;&gt;2</title>
<path fill="none" stroke="black" d="M80.75,-150.96C73.25,-143.87 60.46,-131.76 50.46,-122.31"/>
<polygon fill="black" stroke="black" points="53.07,-119.96 43.4,-115.63 48.26,-125.04 53.07,-119.96"/>
</g>
<!-- 5 -->
<g id="node6" class="node">
<title>5</title>
<text text-anchor="middle" x="87" y="-101.45" font-family="Times,serif" font-size="14.00"> + </text>
</g>
<!-- 1&#45;&gt;5 -->
<g id="edge5" class="edge">
<title>1&#45;&gt;5</title>
<path fill="none" stroke="black" d="M87,-150.96C87,-144.74 87,-134.65 87,-125.89"/>
<polygon fill="black" stroke="black" points="90.5,-126.1 87,-116.1 83.5,-126.1 90.5,-126.1"/>
</g>
<!-- 6 -->
<g id="node7" class="node">
<title>6</title>
<text text-anchor="middle" x="136" y="-101.45" font-family="Times,serif" font-size="14.00">&lt;term&gt;</text>
</g>
<!-- 1&#45;&gt;6 -->
<g id="edge6" class="edge">
<title>1&#45;&gt;6</title>
<path fill="none" stroke="black" d="M93.01,-150.96C100.14,-143.94 112.25,-132.01 121.81,-122.6"/>
<polygon fill="black" stroke="black" points="124.19,-125.16 128.86,-115.65 119.28,-120.17 124.19,-125.16"/>
</g>
<!-- 3 -->
<g id="node4" class="node">
<title>3</title>
<text text-anchor="middle" x="27" y="-51.2" font-family="Times,serif" font-size="14.00">&lt;term&gt;</text>
</g>
<!-- 2&#45;&gt;3 -->
<g id="edge3" class="edge">
<title>2&#45;&gt;3</title>
<path fill="none" stroke="black" d="M34.9,-100.71C33.74,-94.49 31.85,-84.4 30.22,-75.64"/>
<polygon fill="black" stroke="black" points="33.66,-75.02 28.39,-65.83 26.78,-76.3 33.66,-75.02"/>
</g>
<!-- 4 -->
<g id="node5" class="node">
<title>4</title>
<text text-anchor="middle" x="24" y="-0.95" font-family="Times,serif" font-size="14.00">&lt;factor&gt;</text>
</g>
<!-- 3&#45;&gt;4 -->
<g id="edge4" class="edge">
<title>3&#45;&gt;4</title>
<path fill="none" stroke="black" d="M26.63,-50.46C26.25,-44.24 25.62,-34.15 25.07,-25.39"/>
<polygon fill="black" stroke="black" points="28.58,-25.36 24.46,-15.6 21.59,-25.8 28.58,-25.36"/>
</g>
<!-- 7 -->
<g id="node8" class="node">
<title>7</title>
<text text-anchor="middle" x="91" y="-51.2" font-family="Times,serif" font-size="14.00">&lt;factor&gt;</text>
</g>
<!-- 6&#45;&gt;7 -->
<g id="edge7" class="edge">
<title>6&#45;&gt;7</title>
<path fill="none" stroke="black" d="M130.48,-100.71C124,-93.76 113.04,-82 104.3,-72.64"/>
<polygon fill="black" stroke="black" points="106.98,-70.37 97.6,-65.45 101.86,-75.15 106.98,-70.37"/>
</g>
<!-- 9 -->
<g id="node10" class="node">
<title>9</title>
<text text-anchor="middle" x="140" y="-51.2" font-family="Times,serif" font-size="14.00"> * </text>
</g>
<!-- 6&#45;&gt;9 -->
<g id="edge9" class="edge">
<title>6&#45;&gt;9</title>
<path fill="none" stroke="black" d="M136.49,-100.71C137.01,-94.49 137.84,-84.4 138.57,-75.64"/>
<polygon fill="black" stroke="black" points="142.04,-76.1 139.38,-65.85 135.07,-75.52 142.04,-76.1"/>
</g>
<!-- 10 -->
<g id="node11" class="node">
<title>10</title>
<text text-anchor="middle" x="186" y="-51.2" font-family="Times,serif" font-size="14.00">&lt;term&gt;</text>
</g>
<!-- 6&#45;&gt;10 -->
<g id="edge10" class="edge">
<title>6&#45;&gt;10</title>
<path fill="none" stroke="black" d="M142.13,-100.71C149.48,-93.62 162.02,-81.51 171.82,-72.06"/>
<polygon fill="black" stroke="black" points="173.96,-74.85 178.73,-65.39 169.1,-69.82 173.96,-74.85"/>
</g>
<!-- 8 -->
<g id="node9" class="node">
<title>8</title>
<text text-anchor="middle" x="93" y="-0.95" font-family="Times,serif" font-size="14.00">&lt;integer&gt;</text>
</g>
<!-- 7&#45;&gt;8 -->
<g id="edge8" class="edge">
<title>7&#45;&gt;8</title>
<path fill="none" stroke="black" d="M91.25,-50.46C91.5,-44.24 91.92,-34.15 92.28,-25.39"/>
<polygon fill="black" stroke="black" points="95.77,-25.74 92.69,-15.6 88.78,-25.45 95.77,-25.74"/>
</g>
</g>
</svg>