<?xml version="1.0" encoding="UTF-8" standalone="no"?>
<!DOCTYPE svg PUBLIC "-//W3C//DTD SVG 1.1//EN"
 "http://www.w3.org/Graphics/SVG/1.1/DTD/svg11.dtd">
<!-- Generated by graphviz version 12.2.1 (20241206.2353)
 -->
<!-- Pages: 1 -->
<svg width="259pt" height="214pt"
 viewBox="0.00 0.00 258.50 214.25" xmlns="http://www.w3.org/2000/svg" xmlns:xlink="http://www.w3.org/1999/xlink">
<g id="graph0" class="graph" transform="scale(1 1) rotate(0) translate(4 210.25)">
<polygon fill="white" stroke="none" points="-4,4 -4,-210.25 254.5,-210.25 254.5,4 -4,4"/>
<!-- 0 -->
<g id="node1" class="node">
<title>0</title>
<text text-anchor="middle" x="19.88" y="-48.95" font-family="Times,serif" font-size="14.00">&lt;start&gt;</text>
</g>
<!-- 1 -->
<g id="node2" class="node">
<title>1</title>
<text text-anchor="middle" x="98.25" y="-128.95" font-family="Times,serif" font-size="14.00">record 0</text>
</g>
<!-- 0&#45;&gt;1 -->
<g id="edge1" class="edge">
<title>0&#45;&gt;1</title>
<path fill="none" stroke="black" d="M27.65,-62.22C40.09,-75.25 66.78,-103.21 83.26,-120.47"/>
<polygon fill="black" stroke="black" points="80.33,-122.47 89.77,-127.29 85.39,-117.64 80.33,-122.47"/>
</g>
<!-- 6 -->
<g id="node7" class="node">
<title>6</title>
<text text-anchor="middle" x="98.25" y="-48.95" font-family="Times,serif" font-size="14.00" fill="red">record 1</text>
</g>
<!-- 0&#45;&gt;6 -->
<g id="edge6" class="edge">
<title>0&#45;&gt;6</title>
<path fill="none" stroke="black" d="M39.36,-55.12C46.95,-55.12 55.97,-55.12 64.6,-55.12"/>
<polygon fill="black" stroke="black" points="64.45,-58.63 74.45,-55.13 64.45,-51.63 64.45,-58.63"/>
</g>
<!-- 10 -->
<g id="node11" class="node">
<title>10</title>
<text text-anchor="middle" x="98.25" y="-16.95" font-family="Times,serif" font-size="14.00" fill="red">record 2</text>
</g>
<!-- 0&#45;&gt;10 -->
<g id="edge10" class="edge">
<title>0&#45;&gt;10</title>
<path fill="none" stroke="black" d="M37.83,-48.02C47.22,-44.09 59.13,-39.1 69.81,-34.62"/>
<polygon fill="black" stroke="black" points="71.08,-37.88 78.95,-30.79 68.38,-31.43 71.08,-37.88"/>
</g>
<!-- 2 -->
<g id="node3" class="node">
<title>2</title>
<text text-anchor="middle" x="203.62" y="-192.95" font-family="Times,serif" font-size="14.00">1996</text>
</g>
<!-- 1&#45;&gt;2 -->
<g id="edge2" class="edge">
<title>1&#45;&gt;2</title>
<path fill="none" stroke="black" d="M105.72,-141.91C115.78,-152.12 136.16,-171.46 156.75,-183.12 163.78,-187.11 171.98,-190.35 179.48,-192.85"/>
<polygon fill="black" stroke="black" points="178.39,-196.18 188.98,-195.73 180.42,-189.48 178.39,-196.18"/>
</g>
<!-- 3 -->
<g id="node4" class="node">
<title>3</title>
<text text-anchor="middle" x="203.62" y="-160.95" font-family="Times,serif" font-size="14.00">Jeep</text>
</g>
<!-- 1&#45;&gt;3 -->
<g id="edge3" class="edge">
<title>1&#45;&gt;3</title>
<path fill="none" stroke="black" d="M120.67,-141.76C138.26,-147.2 163.06,-154.88 180.77,-160.36"/>
<polygon fill="black" stroke="black" points="179.68,-163.69 190.27,-163.3 181.75,-157 179.68,-163.69"/>
</g>
<!-- 4 -->
<g id="node5" class="node">
<title>4</title>
<text text-anchor="middle" x="203.62" y="-128.95" font-family="Times,serif" font-size="14.00">Grand Cherokee</text>
</g>
<!-- 1&#45;&gt;4 -->
<g id="edge4" class="edge">
<title>1&#45;&gt;4</title>
<path fill="none" stroke="black" d="M120.67,-135.12C128.66,-135.12 138.14,-135.12 147.77,-135.12"/>
<polygon fill="black" stroke="black" points="147.55,-138.63 157.55,-135.13 147.55,-131.63 147.55,-138.63"/>
</g>
<!-- 5 -->
<g id="node6" class="node">
<title>5</title>
<text text-anchor="middle" x="203.62" y="-96.95" font-family="Times,serif" font-size="14.00" fill="red">&quot;MUST SELL!</text>
</g>
<!-- 1&#45;&gt;5 -->
<g id="edge5" class="edge">
<title>1&#45;&gt;5</title>
<path fill="none" stroke="black" d="M120.67,-128.49C134.57,-124.19 152.97,-118.5 168.81,-113.59"/>
<polygon fill="black" stroke="black" points="169.84,-116.94 178.35,-110.64 167.77,-110.25 169.84,-116.94"/>
</g>
<!-- 7 -->
<g id="node8" class="node">
<title>7</title>
<text text-anchor="middle" x="203.62" y="-64.95" font-family="Times,serif" font-size="14.00" fill="red">air</text>
</g>
<!-- 6&#45;&gt;7 -->
<g id="edge7" class="edge">
<title>6&#45;&gt;7</title>
<path fill="none" stroke="black" d="M120.67,-58.44C139.9,-61.42 167.75,-65.73 185.53,-68.48"/>
<polygon fill="black" stroke="black" points="184.93,-71.93 195.35,-70 186,-65.01 184.93,-71.93"/>
</g>
<!-- 8 -->
<g id="node9" class="node">
<title>8</title>
<text text-anchor="middle" x="203.62" y="-32.95" font-family="Times,serif" font-size="14.00" fill="red"> moon roof</text>
</g>
<!-- 6&#45;&gt;8 -->
<g id="edge8" class="edge">
<title>6&#45;&gt;8</title>
<path fill="none" stroke="black" d="M120.67,-51.81C132.62,-49.96 147.89,-47.6 162.01,-45.41"/>
<polygon fill="black" stroke="black" points="162.16,-48.93 171.51,-43.94 161.09,-42.01 162.16,-48.93"/>
</g>
<!-- 9 -->
<g id="node10" class="node">
<title>9</title>
<text text-anchor="middle" x="203.62" y="-0.95" font-family="Times,serif" font-size="14.00" fill="red"> loaded&quot;,4799.00</text>
</g>
<!-- 6&#45;&gt;9 -->
<g id="edge9" class="edge">
<title>6&#45;&gt;9</title>
<path fill="none" stroke="black" d="M110.41,-48.16C121.78,-41.24 140.07,-30.61 156.75,-23.12 160.79,-21.31 165.1,-19.57 169.41,-17.95"/>
<polygon fill="black" stroke="black" points="170.26,-21.36 178.5,-14.69 167.9,-14.77 170.26,-21.36"/>
</g>
</g>
</svg>