<svg class="railroad-diagram" height="92" viewBox="0 0 282.0 92" width="282.0" xmlns="http://www.w3.org/2000/svg">
<g transform="translate(.5 .5)">
<style>/* <![CDATA[ */
    svg.railroad-diagram {
        background-color:hsl(100,100%,100%);
    }
    svg.railroad-diagram path {
        stroke-width:3;
        stroke:black;
        fill:rgba(0,0,0,0);
    }
    svg.railroad-diagram text {
        font:bold 14px monospace;
        text-anchor:middle;
    }
    svg.railroad-diagram text.label{
        text-anchor:start;
    }
    svg.railroad-diagram text.comment{
        font:italic 12px monospace;
    }
    svg.railroad-diagram rect{
        stroke-width:3;
        stroke:black;
        fill:hsl(0,62%,82%);
    }

/* ]]> */
</style><g>
<path d="M20 51v20m10 -20v20m-10 -10h20"/></g><g>
<path d="M40 61h0.0"/><path d="M242.0 61h0.0"/><path d="M40.0 61a10 10 0 0 0 10 -10v-10a10 10 0 0 1 10 -10"/><g>
<path d="M60.0 31h0.0"/><path d="M222.0 31h0.0"/><g class="non-terminal">
<path d="M60.0 31h0.0"/><path d="M122.5 31h0.0"/><rect height="22" width="62.5" x="60.0" y="20"/><text x="91.25" y="35">digit</text></g><path d="M122.5 31h10"/><path d="M132.5 31h10"/><g class="non-terminal">
<path d="M142.5 31h0.0"/><path d="M222.0 31h0.0"/><rect height="22" width="79.5" x="142.5" y="20"/><text x="182.25" y="35">integer</text></g></g><path d="M222.0 31a10 10 0 0 1 10 10v10a10 10 0 0 0 10 10"/><path d="M40.0 61h20"/><g>
<path d="M60.0 61h49.75"/><path d="M172.25 61h49.75"/><g class="non-terminal">
<path d="M109.75 61h0.0"/><path d="M172.25 61h0.0"/><rect height="22" width="62.5" x="109.75" y="50"/><text x="141.0" y="65">digit</text></g></g><path d="M222.0 61h20"/></g><path d="M 242.0 61 h 20 m -10 -10 v 20 m 10 -20 v 20"/></g></svg>