<?xml version="1.0" encoding="UTF-8" standalone="no"?>
<!DOCTYPE svg PUBLIC "-//W3C//DTD SVG 1.1//EN"
 "http://www.w3.org/Graphics/SVG/1.1/DTD/svg11.dtd">
<!-- Generated by graphviz version 12.2.1 (20241206.2353)
 -->
<!-- Pages: 1 -->
<svg width="405pt" height="324pt"
 viewBox="0.00 0.00 404.62 323.75" xmlns="http://www.w3.org/2000/svg" xmlns:xlink="http://www.w3.org/1999/xlink">
<g id="graph0" class="graph" transform="scale(1 1) rotate(0) translate(4 319.75)">
<polygon fill="white" stroke="none" points="-4,4 -4,-319.75 400.62,-319.75 400.62,4 -4,4"/>
<!-- 0 -->
<g id="node1" class="node">
<title>0</title>
<text text-anchor="middle" x="143.38" y="-302.45" font-family="Times,serif" font-size="14.00">&lt;start&gt;</text>
</g>
<!-- 1 -->
<g id="node2" class="node">
<title>1</title>
<text text-anchor="middle" x="143.38" y="-252.2" font-family="Times,serif" font-size="14.00">&lt;config&gt;</text>
</g>
<!-- 0&#45;&gt;1 -->
<g id="edge1" class="edge">
<title>0&#45;&gt;1</title>
<path fill="none" stroke="black" d="M143.38,-301.71C143.38,-295.49 143.38,-285.4 143.38,-276.64"/>
<polygon fill="black" stroke="black" points="146.88,-276.85 143.38,-266.85 139.88,-276.85 146.88,-276.85"/>
</g>
<!-- 2 -->
<g id="node3" class="node">
<title>2</title>
<text text-anchor="middle" x="27.38" y="-201.95" font-family="Times,serif" font-size="14.00">pagesize=</text>
</g>
<!-- 1&#45;&gt;2 -->
<g id="edge2" class="edge">
<title>1&#45;&gt;2</title>
<path fill="none" stroke="black" d="M128.68,-251.26C109.51,-243.29 75.66,-229.21 52.4,-219.54"/>
<polygon fill="black" stroke="black" points="53.92,-216.38 43.34,-215.77 51.23,-222.84 53.92,-216.38"/>
</g>
<!-- 3 -->
<g id="node4" class="node">
<title>3</title>
<text text-anchor="middle" x="104.38" y="-201.95" font-family="Times,serif" font-size="14.00">&lt;pagesize&gt;</text>
</g>
<!-- 1&#45;&gt;3 -->
<g id="edge3" class="edge">
<title>1&#45;&gt;3</title>
<path fill="none" stroke="black" d="M138.59,-251.46C133.1,-244.66 123.87,-233.24 116.38,-223.98"/>
<polygon fill="black" stroke="black" points="119.16,-221.84 110.15,-216.27 113.71,-226.24 119.16,-221.84"/>
</g>
<!-- 11 -->
<g id="node12" class="node">
<title>11</title>
<text text-anchor="middle" x="182.38" y="-201.95" font-family="Times,serif" font-size="14.00">\nbufsize=</text>
</g>
<!-- 1&#45;&gt;11 -->
<g id="edge11" class="edge">
<title>1&#45;&gt;11</title>
<path fill="none" stroke="black" d="M148.16,-251.46C153.65,-244.66 162.88,-233.24 170.37,-223.98"/>
<polygon fill="black" stroke="black" points="173.04,-226.24 176.6,-216.27 167.59,-221.84 173.04,-226.24"/>
</g>
<!-- 12 -->
<g id="node13" class="node">
<title>12</title>
<text text-anchor="middle" x="257.38" y="-201.95" font-family="Times,serif" font-size="14.00">&lt;bufsize&gt;</text>
</g>
<!-- 1&#45;&gt;12 -->
<g id="edge12" class="edge">
<title>1&#45;&gt;12</title>
<path fill="none" stroke="black" d="M157.81,-251.26C176.57,-243.32 209.62,-229.34 232.47,-219.67"/>
<polygon fill="black" stroke="black" points="233.82,-222.9 241.66,-215.78 231.09,-216.45 233.82,-222.9"/>
</g>
<!-- 4 -->
<g id="node5" class="node">
<title>4</title>
<text text-anchor="middle" x="104.38" y="-151.7" font-family="Times,serif" font-size="14.00">&lt;int&gt;</text>
</g>
<!-- 3&#45;&gt;4 -->
<g id="edge4" class="edge">
<title>3&#45;&gt;4</title>
<path fill="none" stroke="black" d="M104.38,-201.21C104.38,-194.99 104.38,-184.9 104.38,-176.14"/>
<polygon fill="black" stroke="black" points="107.88,-176.35 104.38,-166.35 100.88,-176.35 107.88,-176.35"/>
</g>
<!-- 5 -->
<g id="node6" class="node">
<title>5</title>
<text text-anchor="middle" x="42.38" y="-101.45" font-family="Times,serif" font-size="14.00">&lt;leaddigit&gt;</text>
</g>
<!-- 4&#45;&gt;5 -->
<g id="edge5" class="edge">
<title>4&#45;&gt;5</title>
<path fill="none" stroke="black" d="M96.52,-150.76C87.06,-143.4 70.92,-130.84 58.71,-121.34"/>
<polygon fill="black" stroke="black" points="61.21,-118.84 51.16,-115.46 56.91,-124.37 61.21,-118.84"/>
</g>
<!-- 7 -->
<g id="node8" class="node">
<title>7</title>
<text text-anchor="middle" x="115.38" y="-101.45" font-family="Times,serif" font-size="14.00">&lt;digits&gt;</text>
</g>
<!-- 4&#45;&gt;7 -->
<g id="edge7" class="edge">
<title>4&#45;&gt;7</title>
<path fill="none" stroke="black" d="M105.72,-150.96C107.16,-144.66 109.5,-134.42 111.51,-125.58"/>
<polygon fill="black" stroke="black" points="114.87,-126.59 113.68,-116.07 108.04,-125.04 114.87,-126.59"/>
</g>
<!-- 6 -->
<g id="node7" class="node">
<title>6</title>
<text text-anchor="middle" x="42.38" y="-51.2" font-family="Times,serif" font-size="14.00">1 (49)</text>
</g>
<!-- 5&#45;&gt;6 -->
<g id="edge6" class="edge">
<title>5&#45;&gt;6</title>
<path fill="none" stroke="black" d="M42.38,-100.71C42.38,-94.49 42.38,-84.4 42.38,-75.64"/>
<polygon fill="black" stroke="black" points="45.88,-75.85 42.38,-65.85 38.88,-75.85 45.88,-75.85"/>
</g>
<!-- 8 -->
<g id="node9" class="node">
<title>8</title>
<text text-anchor="middle" x="106.38" y="-51.2" font-family="Times,serif" font-size="14.00">&lt;digit&gt;</text>
</g>
<!-- 7&#45;&gt;8 -->
<g id="edge8" class="edge">
<title>7&#45;&gt;8</title>
<path fill="none" stroke="black" d="M114.27,-100.71C113.11,-94.49 111.23,-84.4 109.59,-75.64"/>
<polygon fill="black" stroke="black" points="113.04,-75.02 107.77,-65.83 106.16,-76.3 113.04,-75.02"/>
</g>
<!-- 10 -->
<g id="node11" class="node">
<title>10</title>
<text text-anchor="middle" x="168.38" y="-51.2" font-family="Times,serif" font-size="14.00">&lt;digits&gt;</text>
</g>
<!-- 7&#45;&gt;10 -->
<g id="edge10" class="edge">
<title>7&#45;&gt;10</title>
<path fill="none" stroke="black" d="M121.87,-100.71C129.66,-93.62 142.96,-81.51 153.35,-72.06"/>
<polygon fill="black" stroke="black" points="155.67,-74.68 160.7,-65.36 150.95,-69.5 155.67,-74.68"/>
</g>
<!-- 9 -->
<g id="node10" class="node">
<title>9</title>
<text text-anchor="middle" x="106.38" y="-0.95" font-family="Times,serif" font-size="14.00">2 (50)</text>
</g>
<!-- 8&#45;&gt;9 -->
<g id="edge9" class="edge">
<title>8&#45;&gt;9</title>
<path fill="none" stroke="black" d="M106.38,-50.46C106.38,-44.24 106.38,-34.15 106.38,-25.39"/>
<polygon fill="black" stroke="black" points="109.88,-25.6 106.38,-15.6 102.88,-25.6 109.88,-25.6"/>
</g>
<!-- 13 -->
<g id="node14" class="node">
<title>13</title>
<text text-anchor="middle" x="257.38" y="-151.7" font-family="Times,serif" font-size="14.00">&lt;int&gt;</text>
</g>
<!-- 12&#45;&gt;13 -->
<g id="edge13" class="edge">
<title>12&#45;&gt;13</title>
<path fill="none" stroke="black" d="M257.38,-201.21C257.38,-194.99 257.38,-184.9 257.38,-176.14"/>
<polygon fill="black" stroke="black" points="260.88,-176.35 257.38,-166.35 253.88,-176.35 260.88,-176.35"/>
</g>
<!-- 14 -->
<g id="node15" class="node">
<title>14</title>
<text text-anchor="middle" x="247.38" y="-101.45" font-family="Times,serif" font-size="14.00">&lt;leaddigit&gt;</text>
</g>
<!-- 13&#45;&gt;14 -->
<g id="edge14" class="edge">
<title>13&#45;&gt;14</title>
<path fill="none" stroke="black" d="M256.15,-150.96C254.84,-144.66 252.72,-134.42 250.89,-125.58"/>
<polygon fill="black" stroke="black" points="254.38,-125.15 248.92,-116.07 247.52,-126.57 254.38,-125.15"/>
</g>
<!-- 16 -->
<g id="node17" class="node">
<title>16</title>
<text text-anchor="middle" x="320.38" y="-101.45" font-family="Times,serif" font-size="14.00">&lt;digits&gt;</text>
</g>
<!-- 13&#45;&gt;16 -->
<g id="edge16" class="edge">
<title>13&#45;&gt;16</title>
<path fill="none" stroke="black" d="M265.35,-150.76C274.97,-143.4 291.37,-130.84 303.78,-121.34"/>
<polygon fill="black" stroke="black" points="305.65,-124.31 311.46,-115.46 301.39,-118.76 305.65,-124.31"/>
</g>
<!-- 15 -->
<g id="node16" class="node">
<title>15</title>
<text text-anchor="middle" x="247.38" y="-51.2" font-family="Times,serif" font-size="14.00">3 (51)</text>
</g>
<!-- 14&#45;&gt;15 -->
<g id="edge15" class="edge">
<title>14&#45;&gt;15</title>
<path fill="none" stroke="black" d="M247.38,-100.71C247.38,-94.49 247.38,-84.4 247.38,-75.64"/>
<polygon fill="black" stroke="black" points="250.88,-75.85 247.38,-65.85 243.88,-75.85 250.88,-75.85"/>
</g>
<!-- 17 -->
<g id="node18" class="node">
<title>17</title>
<text text-anchor="middle" x="311.38" y="-51.2" font-family="Times,serif" font-size="14.00">&lt;digit&gt;</text>
</g>
<!-- 16&#45;&gt;17 -->
<g id="edge17" class="edge">
<title>16&#45;&gt;17</title>
<path fill="none" stroke="black" d="M319.27,-100.71C318.11,-94.49 316.23,-84.4 314.59,-75.64"/>
<polygon fill="black" stroke="black" points="318.04,-75.02 312.77,-65.83 311.16,-76.3 318.04,-75.02"/>
</g>
<!-- 19 -->
<g id="node20" class="node">
<title>19</title>
<text text-anchor="middle" x="373.38" y="-51.2" font-family="Times,serif" font-size="14.00">&lt;digits&gt;</text>
</g>
<!-- 16&#45;&gt;19 -->
<g id="edge19" class="edge">
<title>16&#45;&gt;19</title>
<path fill="none" stroke="black" d="M326.87,-100.71C334.66,-93.62 347.96,-81.51 358.35,-72.06"/>
<polygon fill="black" stroke="black" points="360.67,-74.68 365.7,-65.36 355.95,-69.5 360.67,-74.68"/>
</g>
<!-- 18 -->
<g id="node19" class="node">
<title>18</title>
<text text-anchor="middle" x="311.38" y="-0.95" font-family="Times,serif" font-size="14.00">4 (52)</text>
</g>
<!-- 17&#45;&gt;18 -->
<g id="edge18" class="edge">
<title>17&#45;&gt;18</title>
<path fill="none" stroke="black" d="M311.38,-50.46C311.38,-44.24 311.38,-34.15 311.38,-25.39"/>
<polygon fill="black" stroke="black" points="314.88,-25.6 311.38,-15.6 307.88,-25.6 314.88,-25.6"/>
</g>
</g>
</svg>