<svg xmlns="http://www.w3.org/2000/svg" xmlns:xlink="http://www.w3.org/1999/xlink" width="296pt" height="260pt" viewBox="0.00 0.00 296.00 260.00">
<g id="graph0" class="graph" transform="scale(1 1) rotate(0) translate(4 256)">
<polygon fill="white" stroke="none" points="-4,4 -4,-256 292,-256 292,4 -4,4"/>
<!-- 0 -->
<g id="node1" class="node">
<title>0</title>
<text text-anchor="start" x="118.5" y="-229.95" font-family="Courier,monospace" font-weight="bold" font-size="14.00" fill="#004080">Expr</text>
</g>
<!-- 1 -->
<g id="node2" class="node">
<title>1</title>
<text text-anchor="start" x="114.38" y="-157.95" font-family="Courier,monospace" font-weight="bold" font-size="14.00" fill="#004080">BinOp</text>
</g>
<!-- 0&#45;&#45;1 -->
<g id="edge1" class="edge">
<title>0--1</title>
<path fill="none" stroke="black" d="M135,-216.05C135,-205.05 135,-190.76 135,-179.79"/>
</g>
<!-- 2 -->
<g id="node3" class="node">
<title>2</title>
<text text-anchor="start" x="46.5" y="-85.95" font-family="Courier,monospace" font-weight="bold" font-size="14.00" fill="#004080">Name</text>
</g>
<!-- 1&#45;&#45;2 -->
<g id="edge2" class="edge">
<title>1--2</title>
<path fill="none" stroke="black" d="M135,-143C135,-143 107.23,-122.94 86.18,-107.74"/>
</g>
<!-- 5 -->
<g id="node6" class="node">
<title>5</title>
<text text-anchor="middle" x="135" y="-84.95" font-family="Courier,monospace" font-size="14.00" fill="#008040">Add</text>
</g>
<!-- 1&#45;&#45;5 -->
<g id="edge5" class="edge">
<title>1--5</title>
<path fill="none" stroke="black" d="M135,-143C135,-143 135,-122.94 135,-107.74"/>
</g>
<!-- 6 -->
<g id="node7" class="node">
<title>6</title>
<text text-anchor="start" x="190.5" y="-85.95" font-family="Courier,monospace" font-weight="bold" font-size="14.00" fill="#004080">Name</text>
</g>
<!-- 1&#45;&#45;6 -->
<g id="edge6" class="edge">
<title>1--6</title>
<path fill="none" stroke="black" d="M135,-143C135,-143 162.77,-122.94 183.82,-107.74"/>
</g>
<!-- 3 -->
<g id="node4" class="node">
<title>3</title>
<text text-anchor="middle" x="27" y="-12.95" font-family="Courier,monospace" font-size="14.00" fill="#008040">&quot;x&quot;</text>
</g>
<!-- 2&#45;&#45;3 -->
<g id="edge3" class="edge">
<title>2--3</title>
<path fill="none" stroke="black" d="M63,-71C63,-71 49.11,-50.94 38.59,-35.74"/>
</g>
<!-- 4 -->
<g id="node5" class="node">
<title>4</title>
<text text-anchor="middle" x="99" y="-12.95" font-family="Courier,monospace" font-size="14.00" fill="#008040">Load</text>
</g>
<!-- 2&#45;&#45;4 -->
<g id="edge4" class="edge">
<title>2--4</title>
<path fill="none" stroke="black" d="M63,-71C63,-71 76.89,-50.94 87.41,-35.74"/>
</g>
<!-- 7 -->
<g id="node8" class="node">
<title>7</title>
<text text-anchor="middle" x="189" y="-12.95" font-family="Courier,monospace" font-size="14.00" fill="#008040">&quot;y&quot;</text>
</g>
<!-- 6&#45;&#45;7 -->
<g id="edge7" class="edge">
<title>6--7</title>
<path fill="none" stroke="black" d="M211,-71C211,-71 202.51,-50.94 196.08,-35.74"/>
</g>
<!-- 8 -->
<g id="node9" class="node">
<title>8</title>
<text text-anchor="middle" x="261" y="-12.95" font-family="Courier,monospace" font-size="14.00" fill="#008040">Load</text>
</g>
<!-- 6&#45;&#45;8 -->
<g id="edge8" class="edge">
<title>6--8</title>
<path fill="none" stroke="black" d="M211,-71C211,-71 230.29,-50.94 244.9,-35.74"/>
</g>
</g>
</svg>