<?xml version="1.0" encoding="UTF-8" standalone="no"?>
<!DOCTYPE svg PUBLIC "-//W3C//DTD SVG 1.1//EN"
 "http://www.w3.org/Graphics/SVG/1.1/DTD/svg11.dtd">
<!-- Generated by graphviz version 12.2.1 (20241206.2353)
 -->
<!-- Title: root Pages: 1 -->
<svg width="151pt" height="374pt"
 viewBox="0.00 0.00 150.88 374.00" xmlns="http://www.w3.org/2000/svg" xmlns:xlink="http://www.w3.org/1999/xlink">
<g id="graph0" class="graph" transform="scale(1 1) rotate(0) translate(4 370)">
<title>root</title>
<polygon fill="white" stroke="none" points="-4,4 -4,-370 146.88,-370 146.88,4 -4,4"/>
<!-- \&lt;start\&gt; -->
<g id="node1" class="node">
<title>\&lt;start\&gt;</title>
<text text-anchor="middle" x="72.88" y="-352.7" font-family="Times,serif" font-size="14.00">&lt;start&gt;</text>
</g>
<!-- \&lt;expr\&gt; -->
<g id="node2" class="node">
<title>\&lt;expr\&gt;</title>
<text text-anchor="middle" x="72.88" y="-302.45" font-family="Times,serif" font-size="14.00">&lt;expr&gt;</text>
</g>
<!-- \&lt;start\&gt;&#45;&gt;\&lt;expr\&gt; -->
<g id="edge1" class="edge">
<title>\&lt;start\&gt;&#45;&gt;\&lt;expr\&gt;</title>
<path fill="none" stroke="black" d="M72.88,-351.96C72.88,-345.74 72.88,-335.65 72.88,-326.89"/>
<polygon fill="black" stroke="black" points="76.38,-327.1 72.88,-317.1 69.38,-327.1 76.38,-327.1"/>
</g>
<!-- \&lt;expr\&gt;  -->
<g id="node3" class="node">
<title>\&lt;expr\&gt; </title>
<text text-anchor="middle" x="28.88" y="-252.2" font-family="Times,serif" font-size="14.00">&lt;expr&gt; </text>
</g>
<!-- \&lt;expr\&gt;&#45;&gt;\&lt;expr\&gt;  -->
<g id="edge2" class="edge">
<title>\&lt;expr\&gt;&#45;&gt;\&lt;expr\&gt; </title>
<path fill="none" stroke="black" d="M67.48,-301.71C61.15,-294.76 50.42,-283 41.88,-273.64"/>
<polygon fill="black" stroke="black" points="44.66,-271.49 35.33,-266.46 39.49,-276.21 44.66,-271.49"/>
</g>
<!-- + -->
<g id="node4" class="node">
<title>+</title>
<text text-anchor="middle" x="72.88" y="-252.2" font-family="Times,serif" font-size="14.00">+</text>
</g>
<!-- \&lt;expr\&gt;&#45;&gt;+ -->
<g id="edge3" class="edge">
<title>\&lt;expr\&gt;&#45;&gt;+</title>
<path fill="none" stroke="black" d="M72.88,-301.71C72.88,-295.49 72.88,-285.4 72.88,-276.64"/>
<polygon fill="black" stroke="black" points="76.38,-276.85 72.88,-266.85 69.38,-276.85 76.38,-276.85"/>
</g>
<!-- \&lt;term\&gt; -->
<g id="node5" class="node">
<title>\&lt;term\&gt;</title>
<text text-anchor="middle" x="115.88" y="-252.2" font-family="Times,serif" font-size="14.00">&lt;term&gt;</text>
</g>
<!-- \&lt;expr\&gt;&#45;&gt;\&lt;term\&gt; -->
<g id="edge4" class="edge">
<title>\&lt;expr\&gt;&#45;&gt;\&lt;term\&gt;</title>
<path fill="none" stroke="black" d="M78.15,-301.71C84.27,-294.84 94.6,-283.25 102.9,-273.93"/>
<polygon fill="black" stroke="black" points="105.51,-276.26 109.55,-266.47 100.29,-271.61 105.51,-276.26"/>
</g>
<!-- \&lt;term\&gt;  -->
<g id="node6" class="node">
<title>\&lt;term\&gt; </title>
<text text-anchor="middle" x="28.88" y="-201.95" font-family="Times,serif" font-size="14.00">&lt;term&gt; </text>
</g>
<!-- \&lt;expr\&gt; &#45;&gt;\&lt;term\&gt;  -->
<g id="edge5" class="edge">
<title>\&lt;expr\&gt; &#45;&gt;\&lt;term\&gt; </title>
<path fill="none" stroke="black" d="M28.88,-251.46C28.88,-245.24 28.88,-235.15 28.88,-226.39"/>
<polygon fill="black" stroke="black" points="32.38,-226.6 28.88,-216.6 25.38,-226.6 32.38,-226.6"/>
</g>
<!-- \&lt;factor\&gt; -->
<g id="node11" class="node">
<title>\&lt;factor\&gt;</title>
<text text-anchor="middle" x="115.88" y="-201.95" font-family="Times,serif" font-size="14.00">&lt;factor&gt;</text>
</g>
<!-- \&lt;term\&gt;&#45;&gt;\&lt;factor\&gt; -->
<g id="edge10" class="edge">
<title>\&lt;term\&gt;&#45;&gt;\&lt;factor\&gt;</title>
<path fill="none" stroke="black" d="M115.88,-251.46C115.88,-245.24 115.88,-235.15 115.88,-226.39"/>
<polygon fill="black" stroke="black" points="119.38,-226.6 115.88,-216.6 112.38,-226.6 119.38,-226.6"/>
</g>
<!-- \&lt;factor\&gt;  -->
<g id="node7" class="node">
<title>\&lt;factor\&gt; </title>
<text text-anchor="middle" x="28.88" y="-151.7" font-family="Times,serif" font-size="14.00">&lt;factor&gt; </text>
</g>
<!-- \&lt;term\&gt; &#45;&gt;\&lt;factor\&gt;  -->
<g id="edge6" class="edge">
<title>\&lt;term\&gt; &#45;&gt;\&lt;factor\&gt; </title>
<path fill="none" stroke="black" d="M28.88,-201.21C28.88,-194.99 28.88,-184.9 28.88,-176.14"/>
<polygon fill="black" stroke="black" points="32.38,-176.35 28.88,-166.35 25.38,-176.35 32.38,-176.35"/>
</g>
<!-- \&lt;integer\&gt;  -->
<g id="node8" class="node">
<title>\&lt;integer\&gt; </title>
<text text-anchor="middle" x="28.88" y="-101.45" font-family="Times,serif" font-size="14.00">&lt;integer&gt; </text>
</g>
<!-- \&lt;factor\&gt; &#45;&gt;\&lt;integer\&gt;  -->
<g id="edge7" class="edge">
<title>\&lt;factor\&gt; &#45;&gt;\&lt;integer\&gt; </title>
<path fill="none" stroke="black" d="M28.88,-150.96C28.88,-144.74 28.88,-134.65 28.88,-125.89"/>
<polygon fill="black" stroke="black" points="32.38,-126.1 28.88,-116.1 25.38,-126.1 32.38,-126.1"/>
</g>
<!-- \&lt;digit\&gt;  -->
<g id="node9" class="node">
<title>\&lt;digit\&gt; </title>
<text text-anchor="middle" x="28.88" y="-51.2" font-family="Times,serif" font-size="14.00">&lt;digit&gt; </text>
</g>
<!-- \&lt;integer\&gt; &#45;&gt;\&lt;digit\&gt;  -->
<g id="edge8" class="edge">
<title>\&lt;integer\&gt; &#45;&gt;\&lt;digit\&gt; </title>
<path fill="none" stroke="black" d="M28.88,-100.71C28.88,-94.49 28.88,-84.4 28.88,-75.64"/>
<polygon fill="black" stroke="black" points="32.38,-75.85 28.88,-65.85 25.38,-75.85 32.38,-75.85"/>
</g>
<!-- 2  -->
<g id="node10" class="node">
<title>2 </title>
<text text-anchor="middle" x="28.88" y="-0.95" font-family="Times,serif" font-size="14.00">2 </text>
</g>
<!-- \&lt;digit\&gt; &#45;&gt;2  -->
<g id="edge9" class="edge">
<title>\&lt;digit\&gt; &#45;&gt;2 </title>
<path fill="none" stroke="black" d="M28.88,-50.46C28.88,-44.24 28.88,-34.15 28.88,-25.39"/>
<polygon fill="black" stroke="black" points="32.38,-25.6 28.88,-15.6 25.38,-25.6 32.38,-25.6"/>
</g>
<!-- \&lt;integer\&gt; -->
<g id="node12" class="node">
<title>\&lt;integer\&gt;</title>
<text text-anchor="middle" x="115.88" y="-151.7" font-family="Times,serif" font-size="14.00">&lt;integer&gt;</text>
</g>
<!-- \&lt;factor\&gt;&#45;&gt;\&lt;integer\&gt; -->
<g id="edge11" class="edge">
<title>\&lt;factor\&gt;&#45;&gt;\&lt;integer\&gt;</title>
<path fill="none" stroke="black" d="M115.88,-201.21C115.88,-194.99 115.88,-184.9 115.88,-176.14"/>
<polygon fill="black" stroke="black" points="119.38,-176.35 115.88,-166.35 112.38,-176.35 119.38,-176.35"/>
</g>
<!-- \&lt;digit\&gt; -->
<g id="node13" class="node">
<title>\&lt;digit\&gt;</title>
<text text-anchor="middle" x="115.88" y="-101.45" font-family="Times,serif" font-size="14.00">&lt;digit&gt;</text>
</g>
<!-- \&lt;integer\&gt;&#45;&gt;\&lt;digit\&gt; -->
<g id="edge12" class="edge">
<title>\&lt;integer\&gt;&#45;&gt;\&lt;digit\&gt;</title>
<path fill="none" stroke="black" d="M115.88,-150.96C115.88,-144.74 115.88,-134.65 115.88,-125.89"/>
<polygon fill="black" stroke="black" points="119.38,-126.1 115.88,-116.1 112.38,-126.1 119.38,-126.1"/>
</g>
<!-- 2 -->
<g id="node14" class="node">
<title>2</title>
<text text-anchor="middle" x="115.88" y="-51.2" font-family="Times,serif" font-size="14.00">2</text>
</g>
<!-- \&lt;digit\&gt;&#45;&gt;2 -->
<g id="edge13" class="edge">
<title>\&lt;digit\&gt;&#45;&gt;2</title>
<path fill="none" stroke="black" d="M115.88,-100.71C115.88,-94.49 115.88,-84.4 115.88,-75.64"/>
<polygon fill="black" stroke="black" points="119.38,-75.85 115.88,-65.85 112.38,-75.85 119.38,-75.85"/>
</g>
</g>
</svg>