<?xml version="1.0" encoding="UTF-8" standalone="no"?>
<!DOCTYPE svg PUBLIC "-//W3C//DTD SVG 1.1//EN"
 "http://www.w3.org/Graphics/SVG/1.1/DTD/svg11.dtd">
<!-- Generated by graphviz version 12.2.1 (20241206.2353)
 -->
<!-- Pages: 1 -->
<svg width="510pt" height="218pt"
 viewBox="0.00 0.00 510.11 217.50" xmlns="http://www.w3.org/2000/svg" xmlns:xlink="http://www.w3.org/1999/xlink">
<g id="graph0" class="graph" transform="scale(1 1) rotate(0) translate(4 213.5)">
<polygon fill="white" stroke="none" points="-4,4 -4,-213.5 506.11,-213.5 506.11,4 -4,4"/>
<!-- \&lt;start\&gt; -->
<g id="node1" class="node">
<title>\&lt;start\&gt;</title>
<ellipse fill="none" stroke="black" cx="247.3" cy="-191.5" rx="35.46" ry="18"/>
<text text-anchor="middle" x="247.3" y="-185.32" font-family="Times,serif" font-size="14.00">&lt;start&gt;</text>
</g>
<!-- \&lt;Order Form\&gt; -->
<g id="node2" class="node">
<title>\&lt;Order Form\&gt;</title>
<ellipse fill="none" stroke="black" cx="247.3" cy="-118.5" rx="62.17" ry="18"/>
<text text-anchor="middle" x="247.3" y="-112.33" font-family="Times,serif" font-size="14.00">&lt;Order Form&gt;</text>
</g>
<!-- \&lt;start\&gt;&#45;&gt;\&lt;Order Form\&gt; -->
<g id="edge1" class="edge">
<title>\&lt;start\&gt;&#45;&gt;\&lt;Order Form\&gt;</title>
<path fill="none" stroke="black" d="M247.3,-173.31C247.3,-165.73 247.3,-156.6 247.3,-148.04"/>
<polygon fill="black" stroke="black" points="250.8,-148.04 247.3,-138.04 243.8,-148.04 250.8,-148.04"/>
</g>
<!-- \&lt;Terms and Conditions\&gt; -->
<g id="node3" class="node">
<title>\&lt;Terms and Conditions\&gt;</title>
<ellipse fill="none" stroke="black" cx="126.3" cy="-18" rx="97.95" ry="18"/>
<text text-anchor="middle" x="126.3" y="-11.82" font-family="Times,serif" font-size="14.00">&lt;Terms and Conditions&gt;</text>
</g>
<!-- \&lt;Order Form\&gt;&#45;&gt;\&lt;Terms and Conditions\&gt; -->
<g id="edge2" class="edge">
<title>\&lt;Order Form\&gt;&#45;&gt;\&lt;Terms and Conditions\&gt;</title>
<path fill="none" stroke="black" d="M185.02,-117.36C121.38,-115.73 28.75,-108.74 6.05,-82.5 -2.24,-72.92 -1.56,-64.13 6.05,-54 13.12,-44.58 22.58,-37.57 33.11,-32.39"/>
<polygon fill="black" stroke="black" points="34.27,-35.7 42.09,-28.55 31.52,-29.26 34.27,-35.7"/>
<text text-anchor="middle" x="85.17" y="-62.08" font-family="Times,serif" font-size="14.00">click(&#39;Terms and conditions&#39;)</text>
</g>
<!-- \&lt;Thank You\&gt; -->
<g id="node4" class="node">
<title>\&lt;Thank You\&gt;</title>
<ellipse fill="none" stroke="black" cx="364.3" cy="-18" rx="58.36" ry="18"/>
<text text-anchor="middle" x="364.3" y="-11.82" font-family="Times,serif" font-size="14.00">&lt;Thank You&gt;</text>
</g>
<!-- \&lt;Order Form\&gt;&#45;&gt;\&lt;Thank You\&gt; -->
<g id="edge3" class="edge">
<title>\&lt;Order Form\&gt;&#45;&gt;\&lt;Thank You\&gt;</title>
<path fill="none" stroke="black" d="M266.87,-100.96C273.25,-95.3 280.25,-88.8 286.3,-82.5 297.66,-70.65 297.52,-64.9 309.8,-54 315.15,-49.25 321.21,-44.69 327.29,-40.54"/>
<polygon fill="black" stroke="black" points="329.04,-43.57 335.51,-35.18 325.22,-37.71 329.04,-43.57"/>
<text text-anchor="start" x="309.8" y="-69.2" font-family="Times,serif" font-size="14.00">fill(...)</text>
<text text-anchor="middle" x="354.05" y="-54.95" font-family="Times,serif" font-size="14.00">submit(&#39;submit&#39;)</text>
</g>
<!-- \&lt;Terms and Conditions\&gt;&#45;&gt;\&lt;Order Form\&gt; -->
<g id="edge4" class="edge">
<title>\&lt;Terms and Conditions\&gt;&#45;&gt;\&lt;Order Form\&gt;</title>
<path fill="none" stroke="black" d="M146.5,-35.97C152.52,-41.44 158.93,-47.73 164.3,-54 174.19,-65.57 172.07,-72.22 183.3,-82.5 189.39,-88.09 196.55,-93.1 203.82,-97.47"/>
<polygon fill="black" stroke="black" points="201.97,-100.45 212.4,-102.28 205.39,-94.34 201.97,-100.45"/>
<text text-anchor="middle" x="232.8" y="-62.08" font-family="Times,serif" font-size="14.00">click(&#39;order form&#39;)</text>
</g>
<!-- \&lt;Thank You\&gt;&#45;&gt;\&lt;Order Form\&gt; -->
<g id="edge5" class="edge">
<title>\&lt;Thank You\&gt;&#45;&gt;\&lt;Order Form\&gt;</title>
<path fill="none" stroke="black" d="M385.03,-35.15C390.38,-40.51 395.43,-46.94 398.3,-54 403.06,-65.74 406.18,-72.58 398.3,-82.5 387.72,-95.81 350.81,-104.5 316.13,-109.9"/>
<polygon fill="black" stroke="black" points="315.87,-106.4 306.49,-111.32 316.89,-113.33 315.87,-106.4"/>
<text text-anchor="middle" x="452.61" y="-62.08" font-family="Times,serif" font-size="14.00">click(&#39;order form&#39;)</text>
</g>
</g>
</svg>