<svg xmlns="http://www.w3.org/2000/svg" class="railroad-diagram" height="62" viewBox="0 0 296.5 62" width="296.5">
<g transform="translate(.5 .5)">
<style>/* <![CDATA[ */
    svg.railroad-diagram {
    }
    svg.railroad-diagram path {
        stroke-width:3;
        stroke:black;
        fill:white;
    }
    svg.railroad-diagram text {
        font:14px "Fira Mono", monospace;
        text-anchor:middle;
    }
    svg.railroad-diagram text.label{
        text-anchor:start;
    }
    svg.railroad-diagram text.comment{
        font:italic 12px "Fira Mono", monospace;
    }
    svg.railroad-diagram rect{
        stroke-width:2;
        stroke:black;
        fill:mistyrose;
    }

/* ]]> */
</style><g>
<path d="M20 21v20m10 -20v20m-10 -10h20"/></g><g>
<path d="M40 31h0.0"/><path d="M256.5 31h0.0"/><path d="M40.0 31h20"/><g>
<path d="M60.0 31h0.0"/><path d="M236.5 31h0.0"/><g class="non-terminal">
<path d="M60.0 31h0.0"/><path d="M97.0 31h0.0"/><rect height="22" width="37.0" x="60.0" y="20"/><text x="78.5" y="35">lt</text></g><path d="M97.0 31h10"/><path d="M107.0 31h10"/><g class="non-terminal">
<path d="M117.0 31h0.0"/><path d="M179.5 31h0.0"/><rect height="22" width="62.5" x="117.0" y="20"/><text x="148.25" y="35">alpha</text></g><path d="M179.5 31h10"/><path d="M189.5 31h10"/><g class="non-terminal">
<path d="M199.5 31h0.0"/><path d="M236.5 31h0.0"/><rect height="22" width="37.0" x="199.5" y="20"/><text x="218.0" y="35">gt</text></g></g><path d="M236.5 31h20"/></g><path d="M 256.5 31 h 20 m -10 -10 v 20 m 10 -20 v 20"/></g></svg>