<?xml version="1.0" encoding="UTF-8" standalone="no"?>
<!DOCTYPE svg PUBLIC "-//W3C//DTD SVG 1.1//EN"
 "http://www.w3.org/Graphics/SVG/1.1/DTD/svg11.dtd">
<!-- Generated by graphviz version 12.2.1 (20241206.2353)
 -->
<!-- Pages: 1 -->
<svg width="253pt" height="150pt"
 viewBox="0.00 0.00 253.25 150.25" xmlns="http://www.w3.org/2000/svg" xmlns:xlink="http://www.w3.org/1999/xlink">
<g id="graph0" class="graph" transform="scale(1 1) rotate(0) translate(4 146.25)">
<polygon fill="white" stroke="none" points="-4,4 -4,-146.25 249.25,-146.25 249.25,4 -4,4"/>
<!-- 0 -->
<g id="node1" class="node">
<title>0</title>
<text text-anchor="middle" x="19.88" y="-64.95" font-family="Times,serif" font-size="14.00">&lt;start&gt;</text>
</g>
<!-- 1 -->
<g id="node2" class="node">
<title>1</title>
<text text-anchor="middle" x="98.25" y="-64.95" font-family="Times,serif" font-size="14.00">record 0</text>
</g>
<!-- 0&#45;&gt;1 -->
<g id="edge1" class="edge">
<title>0&#45;&gt;1</title>
<path fill="none" stroke="black" d="M39.36,-71.12C46.95,-71.12 55.97,-71.12 64.6,-71.12"/>
<polygon fill="black" stroke="black" points="64.45,-74.63 74.45,-71.13 64.45,-67.63 64.45,-74.63"/>
</g>
<!-- 2 -->
<g id="node3" class="node">
<title>2</title>
<text text-anchor="middle" x="201" y="-128.95" font-family="Times,serif" font-size="14.00">1997</text>
</g>
<!-- 1&#45;&gt;2 -->
<g id="edge2" class="edge">
<title>1&#45;&gt;2</title>
<path fill="none" stroke="black" d="M106.09,-78.2C116.3,-88.43 136.5,-107.39 156.75,-119.12 163.05,-122.78 170.34,-125.85 177.11,-128.3"/>
<polygon fill="black" stroke="black" points="175.73,-131.53 186.32,-131.35 177.93,-124.89 175.73,-131.53"/>
</g>
<!-- 3 -->
<g id="node4" class="node">
<title>3</title>
<text text-anchor="middle" x="201" y="-96.95" font-family="Times,serif" font-size="14.00">Ford</text>
</g>
<!-- 1&#45;&gt;3 -->
<g id="edge3" class="edge">
<title>1&#45;&gt;3</title>
<path fill="none" stroke="black" d="M120.62,-77.91C137.42,-83.25 160.75,-90.66 177.77,-96.06"/>
<polygon fill="black" stroke="black" points="176.35,-99.29 186.94,-98.98 178.47,-92.62 176.35,-99.29"/>
</g>
<!-- 4 -->
<g id="node5" class="node">
<title>4</title>
<text text-anchor="middle" x="201" y="-64.95" font-family="Times,serif" font-size="14.00">E350</text>
</g>
<!-- 1&#45;&gt;4 -->
<g id="edge4" class="edge">
<title>1&#45;&gt;4</title>
<path fill="none" stroke="black" d="M120.62,-71.12C136.79,-71.12 159.02,-71.12 175.84,-71.12"/>
<polygon fill="black" stroke="black" points="175.46,-74.63 185.46,-71.13 175.46,-67.63 175.46,-74.63"/>
</g>
<!-- 5 -->
<g id="node6" class="node">
<title>5</title>
<text text-anchor="middle" x="201" y="-32.95" font-family="Times,serif" font-size="14.00">&quot;ac, abs, moon&quot;</text>
</g>
<!-- 1&#45;&gt;5 -->
<g id="edge5" class="edge">
<title>1&#45;&gt;5</title>
<path fill="none" stroke="black" d="M120.62,-64.34C134.1,-60.06 151.78,-54.44 167.03,-49.6"/>
<polygon fill="black" stroke="black" points="167.7,-53.06 176.17,-46.69 165.58,-46.38 167.7,-53.06"/>
</g>
<!-- 6 -->
<g id="node7" class="node">
<title>6</title>
<text text-anchor="middle" x="201" y="-0.95" font-family="Times,serif" font-size="14.00">3000.00</text>
</g>
<!-- 1&#45;&gt;6 -->
<g id="edge6" class="edge">
<title>1&#45;&gt;6</title>
<path fill="none" stroke="black" d="M106.09,-64.05C116.3,-53.82 136.5,-34.86 156.75,-23.12 160.43,-20.99 164.45,-19.06 168.5,-17.33"/>
<polygon fill="black" stroke="black" points="169.63,-20.64 177.7,-13.78 167.11,-14.11 169.63,-20.64"/>
</g>
</g>
</svg>