<?xml version="1.0" encoding="UTF-8" standalone="no"?>
<!DOCTYPE svg PUBLIC "-//W3C//DTD SVG 1.1//EN"
 "http://www.w3.org/Graphics/SVG/1.1/DTD/svg11.dtd">
<!-- Generated by graphviz version 12.2.1 (20241206.2353)
 -->
<!-- Pages: 1 -->
<svg width="150pt" height="173pt"
 viewBox="0.00 0.00 150.25 173.00" xmlns="http://www.w3.org/2000/svg" xmlns:xlink="http://www.w3.org/1999/xlink">
<g id="graph0" class="graph" transform="scale(1 1) rotate(0) translate(4 169)">
<polygon fill="white" stroke="none" points="-4,4 -4,-169 146.25,-169 146.25,4 -4,4"/>
<!-- 0 -->
<g id="node1" class="node">
<title>0</title>
<text text-anchor="middle" x="59.88" y="-151.7" font-family="Times,serif" font-size="14.00">&lt;start&gt;</text>
</g>
<!-- 1 -->
<g id="node2" class="node">
<title>1</title>
<text text-anchor="middle" x="59.88" y="-101.45" font-family="Times,serif" font-size="14.00">&lt;vehicle&gt;</text>
</g>
<!-- 0&#45;&gt;1 -->
<g id="edge1" class="edge">
<title>0&#45;&gt;1</title>
<path fill="none" stroke="black" d="M59.88,-150.96C59.88,-144.74 59.88,-134.65 59.88,-125.89"/>
<polygon fill="black" stroke="black" points="63.38,-126.1 59.88,-116.1 56.38,-126.1 63.38,-126.1"/>
</g>
<!-- 2 -->
<g id="node3" class="node">
<title>2</title>
<text text-anchor="middle" x="19.88" y="-51.2" font-family="Times,serif" font-size="14.00">&lt;year&gt;</text>
</g>
<!-- 1&#45;&gt;2 -->
<g id="edge2" class="edge">
<title>1&#45;&gt;2</title>
<path fill="none" stroke="black" d="M54.97,-100.71C49.27,-93.84 39.67,-82.25 31.94,-72.93"/>
<polygon fill="black" stroke="black" points="34.86,-70.97 25.79,-65.5 29.47,-75.44 34.86,-70.97"/>
</g>
<!-- 4 -->
<g id="node5" class="node">
<title>4</title>
<text text-anchor="middle" x="99.88" y="-51.2" font-family="Times,serif" font-size="14.00">,van,Ford,E350</text>
</g>
<!-- 1&#45;&gt;4 -->
<g id="edge4" class="edge">
<title>1&#45;&gt;4</title>
<path fill="none" stroke="black" d="M64.78,-100.71C70.48,-93.84 80.08,-82.25 87.81,-72.93"/>
<polygon fill="black" stroke="black" points="90.28,-75.44 93.96,-65.5 84.89,-70.97 90.28,-75.44"/>
</g>
<!-- 3 -->
<g id="node4" class="node">
<title>3</title>
<text text-anchor="middle" x="19.88" y="-0.95" font-family="Times,serif" font-size="14.00">1997</text>
</g>
<!-- 2&#45;&gt;3 -->
<g id="edge3" class="edge">
<title>2&#45;&gt;3</title>
<path fill="none" stroke="black" d="M19.88,-50.46C19.88,-44.24 19.88,-34.15 19.88,-25.39"/>
<polygon fill="black" stroke="black" points="23.38,-25.6 19.88,-15.6 16.38,-25.6 23.38,-25.6"/>
</g>
</g>
</svg>