<?xml version="1.0" encoding="UTF-8" standalone="no"?>
<!DOCTYPE svg PUBLIC "-//W3C//DTD SVG 1.1//EN"
 "http://www.w3.org/Graphics/SVG/1.1/DTD/svg11.dtd">
<!-- Generated by graphviz version 2.40.1 (20161225.0304)
 -->
<!-- Title: %3 Pages: 1 -->
<svg width="511pt" height="584pt"
 viewBox="0.00 0.00 511.00 584.00" xmlns="http://www.w3.org/2000/svg" xmlns:xlink="http://www.w3.org/1999/xlink">
<g id="graph0" class="graph" transform="scale(1 1) rotate(0) translate(4 580)">
<title>%3</title>
<polygon fill="#ffffff" stroke="transparent" points="-4,4 -4,-580 507,-580 507,4 -4,4"/>
<!-- 0 -->
<g id="node1" class="node">
<title>0</title>
<text text-anchor="middle" x="198.5" y="-564.8" font-family="Times,serif" font-size="14.00" fill="#000000">&lt;start&gt;</text>
</g>
<!-- 1 -->
<g id="node2" class="node">
<title>1</title>
<text text-anchor="middle" x="198.5" y="-513.8" font-family="Times,serif" font-size="14.00" fill="#000000">&lt;statements&gt;</text>
</g>
<!-- 0&#45;&gt;1 -->
<g id="edge1" class="edge">
<title>0&#45;&gt;1</title>
<path fill="none" stroke="#000000" d="M198.5,-560.9748C198.5,-554.195 198.5,-543.966 198.5,-535.1331"/>
<polygon fill="#000000" stroke="#000000" points="202.0001,-535.0561 198.5,-525.0561 195.0001,-535.0561 202.0001,-535.0561"/>
</g>
<!-- 2 -->
<g id="node3" class="node">
<title>2</title>
<text text-anchor="middle" x="134.5" y="-462.8" font-family="Times,serif" font-size="14.00" fill="#000000">&lt;statement&gt;</text>
</g>
<!-- 1&#45;&gt;2 -->
<g id="edge2" class="edge">
<title>1&#45;&gt;2</title>
<path fill="none" stroke="#000000" d="M189.0566,-509.9748C179.3197,-502.2157 163.9137,-489.939 151.9526,-480.4075"/>
<polygon fill="#000000" stroke="#000000" points="153.984,-477.551 143.9822,-474.0561 149.6216,-483.0254 153.984,-477.551"/>
</g>
<!-- 12 -->
<g id="node13" class="node">
<title>12</title>
<text text-anchor="middle" x="198.5" y="-462.8" font-family="Times,serif" font-size="14.00" fill="#000000">;</text>
</g>
<!-- 1&#45;&gt;12 -->
<g id="edge12" class="edge">
<title>1&#45;&gt;12</title>
<path fill="none" stroke="#000000" d="M198.5,-509.9748C198.5,-503.195 198.5,-492.966 198.5,-484.1331"/>
<polygon fill="#000000" stroke="#000000" points="202.0001,-484.0561 198.5,-474.0561 195.0001,-484.0561 202.0001,-484.0561"/>
</g>
<!-- 13 -->
<g id="node14" class="node">
<title>13</title>
<text text-anchor="middle" x="260.5" y="-462.8" font-family="Times,serif" font-size="14.00" fill="#000000">&lt;statements&gt;</text>
</g>
<!-- 1&#45;&gt;13 -->
<g id="edge13" class="edge">
<title>1&#45;&gt;13</title>
<path fill="none" stroke="#000000" d="M207.6483,-509.9748C216.9894,-502.291 231.7162,-490.177 243.2544,-480.6859"/>
<polygon fill="#000000" stroke="#000000" points="245.8147,-483.1119 251.3142,-474.0561 241.3678,-477.7058 245.8147,-483.1119"/>
</g>
<!-- 3 -->
<g id="node4" class="node">
<title>3</title>
<text text-anchor="middle" x="117.5" y="-411.8" font-family="Times,serif" font-size="14.00" fill="#000000">&lt;assignment&gt;</text>
</g>
<!-- 2&#45;&gt;3 -->
<g id="edge3" class="edge">
<title>2&#45;&gt;3</title>
<path fill="none" stroke="#000000" d="M131.9916,-458.9748C129.6814,-452.0443 126.1699,-441.5097 123.1821,-432.5464"/>
<polygon fill="#000000" stroke="#000000" points="126.5014,-431.4361 120.0187,-423.0561 119.8607,-433.6498 126.5014,-431.4361"/>
</g>
<!-- 4 -->
<g id="node5" class="node">
<title>4</title>
<text text-anchor="middle" x="33.5" y="-360.8" font-family="Times,serif" font-size="14.00" fill="#000000">&lt;identifier&gt;</text>
</g>
<!-- 3&#45;&gt;4 -->
<g id="edge4" class="edge">
<title>3&#45;&gt;4</title>
<path fill="none" stroke="#000000" d="M105.1055,-407.9748C91.8295,-399.9143 70.5237,-386.9787 54.5986,-377.3099"/>
<polygon fill="#000000" stroke="#000000" points="56.3097,-374.2542 45.9453,-372.0561 52.6768,-380.2377 56.3097,-374.2542"/>
</g>
<!-- 6 -->
<g id="node7" class="node">
<title>6</title>
<text text-anchor="middle" x="89.5" y="-360.8" font-family="Times,serif" font-size="14.00" fill="#000000">=</text>
</g>
<!-- 3&#45;&gt;6 -->
<g id="edge6" class="edge">
<title>3&#45;&gt;6</title>
<path fill="none" stroke="#000000" d="M113.3685,-407.9748C109.4808,-400.8936 103.5274,-390.05 98.5391,-380.9641"/>
<polygon fill="#000000" stroke="#000000" points="101.5291,-379.1375 93.6484,-372.0561 95.3931,-382.5063 101.5291,-379.1375"/>
</g>
<!-- 7 -->
<g id="node8" class="node">
<title>7</title>
<text text-anchor="middle" x="132.5" y="-360.8" font-family="Times,serif" font-size="14.00" fill="#000000">&lt;expr&gt;</text>
</g>
<!-- 3&#45;&gt;7 -->
<g id="edge7" class="edge">
<title>3&#45;&gt;7</title>
<path fill="none" stroke="#000000" d="M119.7133,-407.9748C121.7295,-401.1196 124.7829,-390.7383 127.4002,-381.8392"/>
<polygon fill="#000000" stroke="#000000" points="130.8137,-382.6374 130.2776,-372.0561 124.0981,-380.6622 130.8137,-382.6374"/>
</g>
<!-- 5 -->
<g id="node6" class="node">
<title>5</title>
<text text-anchor="middle" x="33.5" y="-309.8" font-family="Times,serif" font-size="14.00" fill="#000000">a</text>
</g>
<!-- 4&#45;&gt;5 -->
<g id="edge5" class="edge">
<title>4&#45;&gt;5</title>
<path fill="none" stroke="#000000" d="M33.5,-356.9748C33.5,-350.195 33.5,-339.966 33.5,-331.1331"/>
<polygon fill="#000000" stroke="#000000" points="37.0001,-331.0561 33.5,-321.0561 30.0001,-331.0561 37.0001,-331.0561"/>
</g>
<!-- 8 -->
<g id="node9" class="node">
<title>8</title>
<text text-anchor="middle" x="95.5" y="-309.8" font-family="Times,serif" font-size="14.00" fill="#000000">&lt;term&gt;</text>
</g>
<!-- 7&#45;&gt;8 -->
<g id="edge8" class="edge">
<title>7&#45;&gt;8</title>
<path fill="none" stroke="#000000" d="M127.0405,-356.9748C121.7939,-349.743 113.7002,-338.5868 107.0256,-329.3866"/>
<polygon fill="#000000" stroke="#000000" points="109.6872,-327.095 100.9819,-321.0561 104.0212,-331.2056 109.6872,-327.095"/>
</g>
<!-- 9 -->
<g id="node10" class="node">
<title>9</title>
<text text-anchor="middle" x="95.5" y="-258.8" font-family="Times,serif" font-size="14.00" fill="#000000">&lt;factor&gt;</text>
</g>
<!-- 8&#45;&gt;9 -->
<g id="edge9" class="edge">
<title>8&#45;&gt;9</title>
<path fill="none" stroke="#000000" d="M95.5,-305.9748C95.5,-299.195 95.5,-288.966 95.5,-280.1331"/>
<polygon fill="#000000" stroke="#000000" points="99.0001,-280.0561 95.5,-270.0561 92.0001,-280.0561 99.0001,-280.0561"/>
</g>
<!-- 10 -->
<g id="node11" class="node">
<title>10</title>
<text text-anchor="middle" x="95.5" y="-207.8" font-family="Times,serif" font-size="14.00" fill="#000000">&lt;number&gt;</text>
</g>
<!-- 9&#45;&gt;10 -->
<g id="edge10" class="edge">
<title>9&#45;&gt;10</title>
<path fill="none" stroke="#000000" d="M95.5,-254.9748C95.5,-248.195 95.5,-237.966 95.5,-229.1331"/>
<polygon fill="#000000" stroke="#000000" points="99.0001,-229.0561 95.5,-219.0561 92.0001,-229.0561 99.0001,-229.0561"/>
</g>
<!-- 11 -->
<g id="node12" class="node">
<title>11</title>
<text text-anchor="middle" x="95.5" y="-156.8" font-family="Times,serif" font-size="14.00" fill="#000000">1</text>
</g>
<!-- 10&#45;&gt;11 -->
<g id="edge11" class="edge">
<title>10&#45;&gt;11</title>
<path fill="none" stroke="#000000" d="M95.5,-203.9748C95.5,-197.195 95.5,-186.966 95.5,-178.1331"/>
<polygon fill="#000000" stroke="#000000" points="99.0001,-178.0561 95.5,-168.0561 92.0001,-178.0561 99.0001,-178.0561"/>
</g>
<!-- 14 -->
<g id="node15" class="node">
<title>14</title>
<text text-anchor="middle" x="224.5" y="-411.8" font-family="Times,serif" font-size="14.00" fill="#000000">&lt;statement&gt;</text>
</g>
<!-- 13&#45;&gt;14 -->
<g id="edge14" class="edge">
<title>13&#45;&gt;14</title>
<path fill="none" stroke="#000000" d="M255.1881,-458.9748C250.0833,-451.743 242.2084,-440.5868 235.7141,-431.3866"/>
<polygon fill="#000000" stroke="#000000" points="238.46,-429.2074 229.8337,-423.0561 232.7412,-433.2442 238.46,-429.2074"/>
</g>
<!-- 24 -->
<g id="node25" class="node">
<title>24</title>
<text text-anchor="middle" x="279.5" y="-411.8" font-family="Times,serif" font-size="14.00" fill="#000000">;</text>
</g>
<!-- 13&#45;&gt;24 -->
<g id="edge24" class="edge">
<title>13&#45;&gt;24</title>
<path fill="none" stroke="#000000" d="M263.3035,-458.9748C266.0635,-451.5663 270.3578,-440.0395 273.8313,-430.716"/>
<polygon fill="#000000" stroke="#000000" points="277.1793,-431.7547 277.3906,-421.162 270.6197,-429.3109 277.1793,-431.7547"/>
</g>
<!-- 25 -->
<g id="node26" class="node">
<title>25</title>
<text text-anchor="middle" x="339.5" y="-411.8" font-family="Times,serif" font-size="14.00" fill="#000000">&lt;statements&gt;</text>
</g>
<!-- 13&#45;&gt;25 -->
<g id="edge25" class="edge">
<title>13&#45;&gt;25</title>
<path fill="none" stroke="#000000" d="M272.1567,-458.9748C284.5258,-450.9897 304.3062,-438.22 319.236,-428.5818"/>
<polygon fill="#000000" stroke="#000000" points="321.2923,-431.4203 327.7955,-423.0561 317.4957,-425.5393 321.2923,-431.4203"/>
</g>
<!-- 15 -->
<g id="node16" class="node">
<title>15</title>
<text text-anchor="middle" x="224.5" y="-360.8" font-family="Times,serif" font-size="14.00" fill="#000000">&lt;assignment&gt;</text>
</g>
<!-- 14&#45;&gt;15 -->
<g id="edge15" class="edge">
<title>14&#45;&gt;15</title>
<path fill="none" stroke="#000000" d="M224.5,-407.9748C224.5,-401.195 224.5,-390.966 224.5,-382.1331"/>
<polygon fill="#000000" stroke="#000000" points="228.0001,-382.0561 224.5,-372.0561 221.0001,-382.0561 228.0001,-382.0561"/>
</g>
<!-- 16 -->
<g id="node17" class="node">
<title>16</title>
<text text-anchor="middle" x="168.5" y="-309.8" font-family="Times,serif" font-size="14.00" fill="#000000">&lt;identifier&gt;</text>
</g>
<!-- 15&#45;&gt;16 -->
<g id="edge16" class="edge">
<title>15&#45;&gt;16</title>
<path fill="none" stroke="#000000" d="M216.237,-356.9748C207.8826,-349.3663 194.7586,-337.4141 184.384,-327.9658"/>
<polygon fill="#000000" stroke="#000000" points="186.547,-325.2017 176.7969,-321.0561 181.8337,-330.3771 186.547,-325.2017"/>
</g>
<!-- 18 -->
<g id="node19" class="node">
<title>18</title>
<text text-anchor="middle" x="224.5" y="-309.8" font-family="Times,serif" font-size="14.00" fill="#000000">=</text>
</g>
<!-- 15&#45;&gt;18 -->
<g id="edge18" class="edge">
<title>15&#45;&gt;18</title>
<path fill="none" stroke="#000000" d="M224.5,-356.9748C224.5,-350.195 224.5,-339.966 224.5,-331.1331"/>
<polygon fill="#000000" stroke="#000000" points="228.0001,-331.0561 224.5,-321.0561 221.0001,-331.0561 228.0001,-331.0561"/>
</g>
<!-- 19 -->
<g id="node20" class="node">
<title>19</title>
<text text-anchor="middle" x="267.5" y="-309.8" font-family="Times,serif" font-size="14.00" fill="#000000">&lt;expr&gt;</text>
</g>
<!-- 15&#45;&gt;19 -->
<g id="edge19" class="edge">
<title>15&#45;&gt;19</title>
<path fill="none" stroke="#000000" d="M230.8448,-356.9748C237.0692,-349.5923 246.7417,-338.1203 254.5881,-328.8142"/>
<polygon fill="#000000" stroke="#000000" points="257.359,-330.9574 261.1292,-321.0561 252.0073,-326.4452 257.359,-330.9574"/>
</g>
<!-- 17 -->
<g id="node18" class="node">
<title>17</title>
<text text-anchor="middle" x="168.5" y="-258.8" font-family="Times,serif" font-size="14.00" fill="#000000">b</text>
</g>
<!-- 16&#45;&gt;17 -->
<g id="edge17" class="edge">
<title>16&#45;&gt;17</title>
<path fill="none" stroke="#000000" d="M168.5,-305.9748C168.5,-299.195 168.5,-288.966 168.5,-280.1331"/>
<polygon fill="#000000" stroke="#000000" points="172.0001,-280.0561 168.5,-270.0561 165.0001,-280.0561 172.0001,-280.0561"/>
</g>
<!-- 20 -->
<g id="node21" class="node">
<title>20</title>
<text text-anchor="middle" x="254.5" y="-258.8" font-family="Times,serif" font-size="14.00" fill="#000000">&lt;term&gt;</text>
</g>
<!-- 19&#45;&gt;20 -->
<g id="edge20" class="edge">
<title>19&#45;&gt;20</title>
<path fill="none" stroke="#000000" d="M265.5818,-305.9748C263.8344,-299.1196 261.1882,-288.7383 258.9198,-279.8392"/>
<polygon fill="#000000" stroke="#000000" points="262.2877,-278.8817 256.4261,-270.0561 255.5046,-280.6108 262.2877,-278.8817"/>
</g>
<!-- 21 -->
<g id="node22" class="node">
<title>21</title>
<text text-anchor="middle" x="254.5" y="-207.8" font-family="Times,serif" font-size="14.00" fill="#000000">&lt;factor&gt;</text>
</g>
<!-- 20&#45;&gt;21 -->
<g id="edge21" class="edge">
<title>20&#45;&gt;21</title>
<path fill="none" stroke="#000000" d="M254.5,-254.9748C254.5,-248.195 254.5,-237.966 254.5,-229.1331"/>
<polygon fill="#000000" stroke="#000000" points="258.0001,-229.0561 254.5,-219.0561 251.0001,-229.0561 258.0001,-229.0561"/>
</g>
<!-- 22 -->
<g id="node23" class="node">
<title>22</title>
<text text-anchor="middle" x="254.5" y="-156.8" font-family="Times,serif" font-size="14.00" fill="#000000">&lt;number&gt;</text>
</g>
<!-- 21&#45;&gt;22 -->
<g id="edge22" class="edge">
<title>21&#45;&gt;22</title>
<path fill="none" stroke="#000000" d="M254.5,-203.9748C254.5,-197.195 254.5,-186.966 254.5,-178.1331"/>
<polygon fill="#000000" stroke="#000000" points="258.0001,-178.0561 254.5,-168.0561 251.0001,-178.0561 258.0001,-178.0561"/>
</g>
<!-- 23 -->
<g id="node24" class="node">
<title>23</title>
<text text-anchor="middle" x="254.5" y="-105.8" font-family="Times,serif" font-size="14.00" fill="#000000">2</text>
</g>
<!-- 22&#45;&gt;23 -->
<g id="edge23" class="edge">
<title>22&#45;&gt;23</title>
<path fill="none" stroke="#000000" d="M254.5,-152.9748C254.5,-146.195 254.5,-135.966 254.5,-127.1331"/>
<polygon fill="#000000" stroke="#000000" points="258.0001,-127.0561 254.5,-117.0561 251.0001,-127.0561 258.0001,-127.0561"/>
</g>
<!-- 26 -->
<g id="node27" class="node">
<title>26</title>
<text text-anchor="middle" x="343.5" y="-360.8" font-family="Times,serif" font-size="14.00" fill="#000000">&lt;statement&gt;</text>
</g>
<!-- 25&#45;&gt;26 -->
<g id="edge26" class="edge">
<title>25&#45;&gt;26</title>
<path fill="none" stroke="#000000" d="M340.0902,-407.9748C340.622,-401.195 341.4242,-390.966 342.117,-382.1331"/>
<polygon fill="#000000" stroke="#000000" points="345.6146,-382.2992 342.9074,-372.0561 338.6361,-381.7518 345.6146,-382.2992"/>
</g>
<!-- 27 -->
<g id="node28" class="node">
<title>27</title>
<text text-anchor="middle" x="370.5" y="-309.8" font-family="Times,serif" font-size="14.00" fill="#ff0000">&lt;assignment&gt;</text>
</g>
<!-- 26&#45;&gt;27 -->
<g id="edge27" class="edge">
<title>26&#45;&gt;27</title>
<path fill="none" stroke="#000000" d="M347.4839,-356.9748C351.2328,-349.8936 356.9735,-339.05 361.7837,-329.9641"/>
<polygon fill="#000000" stroke="#000000" points="364.914,-331.5316 366.4997,-321.0561 358.7275,-328.2564 364.914,-331.5316"/>
</g>
<!-- 28 -->
<g id="node29" class="node">
<title>28</title>
<text text-anchor="middle" x="327.5" y="-258.8" font-family="Times,serif" font-size="14.00" fill="#000000">&lt;identifier&gt;</text>
</g>
<!-- 27&#45;&gt;28 -->
<g id="edge28" class="edge">
<title>27&#45;&gt;28</title>
<path fill="none" stroke="#000000" d="M364.1552,-305.9748C357.9308,-298.5923 348.2583,-287.1203 340.4119,-277.8142"/>
<polygon fill="#000000" stroke="#000000" points="342.9927,-275.4452 333.8708,-270.0561 337.641,-279.9574 342.9927,-275.4452"/>
</g>
<!-- 30 -->
<g id="node31" class="node">
<title>30</title>
<text text-anchor="middle" x="383.5" y="-258.8" font-family="Times,serif" font-size="14.00" fill="#000000">=</text>
</g>
<!-- 27&#45;&gt;30 -->
<g id="edge30" class="edge">
<title>27&#45;&gt;30</title>
<path fill="none" stroke="#000000" d="M372.4182,-305.9748C374.1656,-299.1196 376.8118,-288.7383 379.0802,-279.8392"/>
<polygon fill="#000000" stroke="#000000" points="382.4954,-280.6108 381.5739,-270.0561 375.7123,-278.8817 382.4954,-280.6108"/>
</g>
<!-- 31 -->
<g id="node32" class="node">
<title>31</title>
<text text-anchor="middle" x="426.5" y="-258.8" font-family="Times,serif" font-size="14.00" fill="#000000">&lt;expr&gt;</text>
</g>
<!-- 27&#45;&gt;31 -->
<g id="edge31" class="edge">
<title>27&#45;&gt;31</title>
<path fill="none" stroke="#000000" d="M378.763,-305.9748C387.1174,-298.3663 400.2414,-286.4141 410.616,-276.9658"/>
<polygon fill="#000000" stroke="#000000" points="413.1663,-279.3771 418.2031,-270.0561 408.453,-274.2017 413.1663,-279.3771"/>
</g>
<!-- 29 -->
<g id="node30" class="node">
<title>29</title>
<text text-anchor="middle" x="327.5" y="-207.8" font-family="Times,serif" font-size="14.00" fill="#000000">c</text>
</g>
<!-- 28&#45;&gt;29 -->
<g id="edge29" class="edge">
<title>28&#45;&gt;29</title>
<path fill="none" stroke="#000000" d="M327.5,-254.9748C327.5,-248.195 327.5,-237.966 327.5,-229.1331"/>
<polygon fill="#000000" stroke="#000000" points="331.0001,-229.0561 327.5,-219.0561 324.0001,-229.0561 331.0001,-229.0561"/>
</g>
<!-- 32 -->
<g id="node33" class="node">
<title>32</title>
<text text-anchor="middle" x="383.5" y="-207.8" font-family="Times,serif" font-size="14.00" fill="#000000">&lt;term&gt;</text>
</g>
<!-- 31&#45;&gt;32 -->
<g id="edge32" class="edge">
<title>31&#45;&gt;32</title>
<path fill="none" stroke="#000000" d="M420.1552,-254.9748C413.9308,-247.5923 404.2583,-236.1203 396.4119,-226.8142"/>
<polygon fill="#000000" stroke="#000000" points="398.9927,-224.4452 389.8708,-219.0561 393.641,-228.9574 398.9927,-224.4452"/>
</g>
<!-- 36 -->
<g id="node37" class="node">
<title>36</title>
<text text-anchor="middle" x="426.5" y="-207.8" font-family="Times,serif" font-size="14.00" fill="#000000">+</text>
</g>
<!-- 31&#45;&gt;36 -->
<g id="edge36" class="edge">
<title>31&#45;&gt;36</title>
<path fill="none" stroke="#000000" d="M426.5,-254.9748C426.5,-248.195 426.5,-237.966 426.5,-229.1331"/>
<polygon fill="#000000" stroke="#000000" points="430.0001,-229.0561 426.5,-219.0561 423.0001,-229.0561 430.0001,-229.0561"/>
</g>
<!-- 37 -->
<g id="node38" class="node">
<title>37</title>
<text text-anchor="middle" x="469.5" y="-207.8" font-family="Times,serif" font-size="14.00" fill="#000000">&lt;expr&gt;</text>
</g>
<!-- 31&#45;&gt;37 -->
<g id="edge37" class="edge">
<title>31&#45;&gt;37</title>
<path fill="none" stroke="#000000" d="M432.8448,-254.9748C439.0692,-247.5923 448.7417,-236.1203 456.5881,-226.8142"/>
<polygon fill="#000000" stroke="#000000" points="459.359,-228.9574 463.1292,-219.0561 454.0073,-224.4452 459.359,-228.9574"/>
</g>
<!-- 33 -->
<g id="node34" class="node">
<title>33</title>
<text text-anchor="middle" x="383.5" y="-156.8" font-family="Times,serif" font-size="14.00" fill="#000000">&lt;factor&gt;</text>
</g>
<!-- 32&#45;&gt;33 -->
<g id="edge33" class="edge">
<title>32&#45;&gt;33</title>
<path fill="none" stroke="#000000" d="M383.5,-203.9748C383.5,-197.195 383.5,-186.966 383.5,-178.1331"/>
<polygon fill="#000000" stroke="#000000" points="387.0001,-178.0561 383.5,-168.0561 380.0001,-178.0561 387.0001,-178.0561"/>
</g>
<!-- 34 -->
<g id="node35" class="node">
<title>34</title>
<text text-anchor="middle" x="383.5" y="-105.8" font-family="Times,serif" font-size="14.00" fill="#000000">&lt;identifier&gt;</text>
</g>
<!-- 33&#45;&gt;34 -->
<g id="edge34" class="edge">
<title>33&#45;&gt;34</title>
<path fill="none" stroke="#000000" d="M383.5,-152.9748C383.5,-146.195 383.5,-135.966 383.5,-127.1331"/>
<polygon fill="#000000" stroke="#000000" points="387.0001,-127.0561 383.5,-117.0561 380.0001,-127.0561 387.0001,-127.0561"/>
</g>
<!-- 35 -->
<g id="node36" class="node">
<title>35</title>
<text text-anchor="middle" x="383.5" y="-54.8" font-family="Times,serif" font-size="14.00" fill="#000000">a</text>
</g>
<!-- 34&#45;&gt;35 -->
<g id="edge35" class="edge">
<title>34&#45;&gt;35</title>
<path fill="none" stroke="#000000" d="M383.5,-101.9748C383.5,-95.195 383.5,-84.966 383.5,-76.1331"/>
<polygon fill="#000000" stroke="#000000" points="387.0001,-76.0561 383.5,-66.0561 380.0001,-76.0561 387.0001,-76.0561"/>
</g>
<!-- 38 -->
<g id="node39" class="node">
<title>38</title>
<text text-anchor="middle" x="469.5" y="-156.8" font-family="Times,serif" font-size="14.00" fill="#000000">&lt;term&gt;</text>
</g>
<!-- 37&#45;&gt;38 -->
<g id="edge38" class="edge">
<title>37&#45;&gt;38</title>
<path fill="none" stroke="#000000" d="M469.5,-203.9748C469.5,-197.195 469.5,-186.966 469.5,-178.1331"/>
<polygon fill="#000000" stroke="#000000" points="473.0001,-178.0561 469.5,-168.0561 466.0001,-178.0561 473.0001,-178.0561"/>
</g>
<!-- 39 -->
<g id="node40" class="node">
<title>39</title>
<text text-anchor="middle" x="469.5" y="-105.8" font-family="Times,serif" font-size="14.00" fill="#000000">&lt;factor&gt;</text>
</g>
<!-- 38&#45;&gt;39 -->
<g id="edge39" class="edge">
<title>38&#45;&gt;39</title>
<path fill="none" stroke="#000000" d="M469.5,-152.9748C469.5,-146.195 469.5,-135.966 469.5,-127.1331"/>
<polygon fill="#000000" stroke="#000000" points="473.0001,-127.0561 469.5,-117.0561 466.0001,-127.0561 473.0001,-127.0561"/>
</g>
<!-- 40 -->
<g id="node41" class="node">
<title>40</title>
<text text-anchor="middle" x="469.5" y="-54.8" font-family="Times,serif" font-size="14.00" fill="#000000">&lt;identifier&gt;</text>
</g>
<!-- 39&#45;&gt;40 -->
<g id="edge40" class="edge">
<title>39&#45;&gt;40</title>
<path fill="none" stroke="#000000" d="M469.5,-101.9748C469.5,-95.195 469.5,-84.966 469.5,-76.1331"/>
<polygon fill="#000000" stroke="#000000" points="473.0001,-76.0561 469.5,-66.0561 466.0001,-76.0561 473.0001,-76.0561"/>
</g>
<!-- 41 -->
<g id="node42" class="node">
<title>41</title>
<text text-anchor="middle" x="469.5" y="-3.8" font-family="Times,serif" font-size="14.00" fill="#000000">b</text>
</g>
<!-- 40&#45;&gt;41 -->
<g id="edge41" class="edge">
<title>40&#45;&gt;41</title>
<path fill="none" stroke="#000000" d="M469.5,-50.9748C469.5,-44.195 469.5,-33.966 469.5,-25.1331"/>
<polygon fill="#000000" stroke="#000000" points="473.0001,-25.0561 469.5,-15.0561 466.0001,-25.0561 473.0001,-25.0561"/>
</g>
</g>
</svg>