<?xml version="1.0" encoding="UTF-8" standalone="no"?>
<!DOCTYPE svg PUBLIC "-//W3C//DTD SVG 1.1//EN"
 "http://www.w3.org/Graphics/SVG/1.1/DTD/svg11.dtd">
<!-- Generated by graphviz version 12.2.1 (20241206.2353)
 -->
<!-- Pages: 1 -->
<svg width="130pt" height="173pt"
 viewBox="0.00 0.00 130.25 173.00" xmlns="http://www.w3.org/2000/svg" xmlns:xlink="http://www.w3.org/1999/xlink">
<g id="graph0" class="graph" transform="scale(1 1) rotate(0) translate(4 169)">
<polygon fill="white" stroke="none" points="-4,4 -4,-169 126.25,-169 126.25,4 -4,4"/>
<!-- 0 -->
<g id="node1" class="node">
<title>0</title>
<text text-anchor="middle" x="82.12" y="-151.7" font-family="Times,serif" font-size="14.00">&lt;start&gt;</text>
</g>
<!-- 1 -->
<g id="node2" class="node">
<title>1</title>
<text text-anchor="middle" x="59.12" y="-101.45" font-family="Times,serif" font-size="14.00">&lt;A&gt;</text>
</g>
<!-- 0&#45;&gt;1 -->
<g id="edge1" class="edge">
<title>0&#45;&gt;1</title>
<path fill="none" stroke="black" d="M79.3,-150.96C76.24,-144.52 71.19,-133.94 66.92,-124.97"/>
<polygon fill="black" stroke="black" points="70.08,-123.48 62.62,-115.96 63.76,-126.49 70.08,-123.48"/>
</g>
<!-- 6 -->
<g id="node7" class="node">
<title>6</title>
<text text-anchor="middle" x="106.12" y="-101.45" font-family="Times,serif" font-size="14.00">a (97)</text>
</g>
<!-- 0&#45;&gt;6 -->
<g id="edge6" class="edge">
<title>0&#45;&gt;6</title>
<path fill="none" stroke="black" d="M85.07,-150.96C88.31,-144.45 93.65,-133.71 98.14,-124.67"/>
<polygon fill="black" stroke="black" points="101.16,-126.46 102.48,-115.94 94.9,-123.34 101.16,-126.46"/>
</g>
<!-- 2 -->
<g id="node3" class="node">
<title>2</title>
<text text-anchor="middle" x="36.12" y="-51.2" font-family="Times,serif" font-size="14.00">&lt;A&gt;</text>
</g>
<!-- 1&#45;&gt;2 -->
<g id="edge2" class="edge">
<title>1&#45;&gt;2</title>
<path fill="none" stroke="black" d="M56.3,-100.71C53.24,-94.27 48.19,-83.69 43.92,-74.72"/>
<polygon fill="black" stroke="black" points="47.08,-73.23 39.62,-65.71 40.76,-76.24 47.08,-73.23"/>
</g>
<!-- 5 -->
<g id="node6" class="node">
<title>5</title>
<text text-anchor="middle" x="83.12" y="-51.2" font-family="Times,serif" font-size="14.00">a (97)</text>
</g>
<!-- 1&#45;&gt;5 -->
<g id="edge5" class="edge">
<title>1&#45;&gt;5</title>
<path fill="none" stroke="black" d="M62.07,-100.71C65.31,-94.2 70.65,-83.46 75.14,-74.42"/>
<polygon fill="black" stroke="black" points="78.16,-76.21 79.48,-65.69 71.9,-73.09 78.16,-76.21"/>
</g>
<!-- 3 -->
<g id="node4" class="node">
<title>3</title>
<text text-anchor="middle" x="13.12" y="-0.95" font-family="Times,serif" font-size="14.00">&lt;A&gt;</text>
</g>
<!-- 2&#45;&gt;3 -->
<g id="edge3" class="edge">
<title>2&#45;&gt;3</title>
<path fill="none" stroke="black" d="M33.3,-50.46C30.24,-44.02 25.19,-33.44 20.92,-24.47"/>
<polygon fill="black" stroke="black" points="24.08,-22.98 16.62,-15.46 17.76,-25.99 24.08,-22.98"/>
</g>
<!-- 4 -->
<g id="node5" class="node">
<title>4</title>
<text text-anchor="middle" x="60.12" y="-0.95" font-family="Times,serif" font-size="14.00">a (97)</text>
</g>
<!-- 2&#45;&gt;4 -->
<g id="edge4" class="edge">
<title>2&#45;&gt;4</title>
<path fill="none" stroke="black" d="M39.07,-50.46C42.31,-43.95 47.65,-33.21 52.14,-24.17"/>
<polygon fill="black" stroke="black" points="55.16,-25.96 56.48,-15.44 48.9,-22.84 55.16,-25.96"/>
</g>
</g>
</svg>