<?xml version="1.0" encoding="UTF-8" standalone="no"?>
<!DOCTYPE svg PUBLIC "-//W3C//DTD SVG 1.1//EN"
 "http://www.w3.org/Graphics/SVG/1.1/DTD/svg11.dtd">
<!-- Generated by graphviz version 12.2.1 (20241206.2353)
 -->
<!-- Pages: 1 -->
<svg width="469pt" height="324pt"
 viewBox="0.00 0.00 468.50 323.75" xmlns="http://www.w3.org/2000/svg" xmlns:xlink="http://www.w3.org/1999/xlink">
<g id="graph0" class="graph" transform="scale(1 1) rotate(0) translate(4 319.75)">
<polygon fill="white" stroke="none" points="-4,4 -4,-319.75 464.5,-319.75 464.5,4 -4,4"/>
<!-- 0 -->
<g id="node1" class="node">
<title>0</title>
<text text-anchor="middle" x="211.25" y="-302.45" font-family="Times,serif" font-size="14.00">&lt;start&gt;</text>
</g>
<!-- 1 -->
<g id="node2" class="node">
<title>1</title>
<text text-anchor="middle" x="211.25" y="-252.2" font-family="Times,serif" font-size="14.00">&lt;xml&#45;tree&gt;</text>
</g>
<!-- 0&#45;&gt;1 -->
<g id="edge1" class="edge">
<title>0&#45;&gt;1</title>
<path fill="none" stroke="black" d="M211.25,-301.71C211.25,-295.49 211.25,-285.4 211.25,-276.64"/>
<polygon fill="black" stroke="black" points="214.75,-276.85 211.25,-266.85 207.75,-276.85 214.75,-276.85"/>
</g>
<!-- 2 -->
<g id="node3" class="node">
<title>2</title>
<text text-anchor="middle" x="99.25" y="-201.95" font-family="Times,serif" font-size="14.00">&lt;xml&#45;open&#45;tag&gt;</text>
</g>
<!-- 1&#45;&gt;2 -->
<g id="edge2" class="edge">
<title>1&#45;&gt;2</title>
<path fill="none" stroke="black" d="M197.07,-251.26C178.64,-243.32 146.17,-229.34 123.72,-219.67"/>
<polygon fill="black" stroke="black" points="125.28,-216.53 114.71,-215.79 122.51,-222.96 125.28,-216.53"/>
</g>
<!-- 7 -->
<g id="node8" class="node">
<title>7</title>
<text text-anchor="middle" x="211.25" y="-201.95" font-family="Times,serif" font-size="14.00">&lt;xml&#45;tree&gt;</text>
</g>
<!-- 1&#45;&gt;7 -->
<g id="edge7" class="edge">
<title>1&#45;&gt;7</title>
<path fill="none" stroke="black" d="M211.25,-251.46C211.25,-245.24 211.25,-235.15 211.25,-226.39"/>
<polygon fill="black" stroke="black" points="214.75,-226.6 211.25,-216.6 207.75,-226.6 214.75,-226.6"/>
</g>
<!-- 22 -->
<g id="node23" class="node">
<title>22</title>
<text text-anchor="middle" x="375.25" y="-201.95" font-family="Times,serif" font-size="14.00">&lt;xml&#45;close&#45;tag&gt;</text>
</g>
<!-- 1&#45;&gt;22 -->
<g id="edge22" class="edge">
<title>1&#45;&gt;22</title>
<path fill="none" stroke="black" d="M232.02,-251.26C260.24,-242.96 310.94,-228.05 343.82,-218.37"/>
<polygon fill="black" stroke="black" points="344.59,-221.79 353.2,-215.61 342.61,-215.08 344.59,-221.79"/>
</g>
<!-- 3 -->
<g id="node4" class="node">
<title>3</title>
<text text-anchor="middle" x="17.25" y="-151.7" font-family="Times,serif" font-size="14.00">&lt; (60)</text>
</g>
<!-- 2&#45;&gt;3 -->
<g id="edge3" class="edge">
<title>2&#45;&gt;3</title>
<path fill="none" stroke="black" d="M88.86,-201.01C75.93,-193.4 53.54,-180.23 37.23,-170.63"/>
<polygon fill="black" stroke="black" points="39.25,-167.76 28.86,-165.7 35.7,-173.79 39.25,-167.76"/>
</g>
<!-- 4 -->
<g id="node5" class="node">
<title>4</title>
<text text-anchor="middle" x="66.25" y="-151.7" font-family="Times,serif" font-size="14.00">&lt;id&gt;</text>
</g>
<!-- 2&#45;&gt;4 -->
<g id="edge4" class="edge">
<title>2&#45;&gt;4</title>
<path fill="none" stroke="black" d="M95.2,-201.21C90.65,-194.55 83.08,-183.48 76.81,-174.32"/>
<polygon fill="black" stroke="black" points="79.72,-172.37 71.18,-166.09 73.94,-176.32 79.72,-172.37"/>
</g>
<!-- 6 -->
<g id="node7" class="node">
<title>6</title>
<text text-anchor="middle" x="115.25" y="-151.7" font-family="Times,serif" font-size="14.00">&gt; (62)</text>
</g>
<!-- 2&#45;&gt;6 -->
<g id="edge6" class="edge">
<title>2&#45;&gt;6</title>
<path fill="none" stroke="black" d="M101.21,-201.21C103.32,-194.84 106.78,-184.43 109.73,-175.53"/>
<polygon fill="black" stroke="black" points="112.97,-176.87 112.8,-166.28 106.33,-174.67 112.97,-176.87"/>
</g>
<!-- 5 -->
<g id="node6" class="node">
<title>5</title>
<text text-anchor="middle" x="52.25" y="-101.45" font-family="Times,serif" font-size="14.00">html</text>
</g>
<!-- 4&#45;&gt;5 -->
<g id="edge5" class="edge">
<title>4&#45;&gt;5</title>
<path fill="none" stroke="black" d="M64.53,-150.96C62.71,-144.66 59.73,-134.42 57.17,-125.58"/>
<polygon fill="black" stroke="black" points="60.55,-124.67 54.4,-116.04 53.83,-126.62 60.55,-124.67"/>
</g>
<!-- 8 -->
<g id="node9" class="node">
<title>8</title>
<text text-anchor="middle" x="195.25" y="-151.7" font-family="Times,serif" font-size="14.00">&lt;xml&#45;tree&gt;</text>
</g>
<!-- 7&#45;&gt;8 -->
<g id="edge8" class="edge">
<title>7&#45;&gt;8</title>
<path fill="none" stroke="black" d="M209.29,-201.21C207.18,-194.84 203.72,-184.43 200.77,-175.53"/>
<polygon fill="black" stroke="black" points="204.17,-174.67 197.7,-166.28 197.53,-176.87 204.17,-174.67"/>
</g>
<!-- 15 -->
<g id="node16" class="node">
<title>15</title>
<text text-anchor="middle" x="276.25" y="-151.7" font-family="Times,serif" font-size="14.00">&lt;xml&#45;tree&gt;</text>
</g>
<!-- 7&#45;&gt;15 -->
<g id="edge15" class="edge">
<title>7&#45;&gt;15</title>
<path fill="none" stroke="black" d="M219.48,-201.01C229.4,-193.65 246.33,-181.09 259.12,-171.59"/>
<polygon fill="black" stroke="black" points="261.13,-174.46 267.07,-165.69 256.96,-168.84 261.13,-174.46"/>
</g>
<!-- 9 -->
<g id="node10" class="node">
<title>9</title>
<text text-anchor="middle" x="114.25" y="-101.45" font-family="Times,serif" font-size="14.00">&lt;xml&#45;tree&gt;</text>
</g>
<!-- 8&#45;&gt;9 -->
<g id="edge9" class="edge">
<title>8&#45;&gt;9</title>
<path fill="none" stroke="black" d="M184.99,-150.76C172.21,-143.15 150.09,-129.98 133.98,-120.38"/>
<polygon fill="black" stroke="black" points="136.11,-117.57 125.73,-115.46 132.53,-123.59 136.11,-117.57"/>
</g>
<!-- 12 -->
<g id="node13" class="node">
<title>12</title>
<text text-anchor="middle" x="195.25" y="-101.45" font-family="Times,serif" font-size="14.00">&lt;xml&#45;tree&gt;</text>
</g>
<!-- 8&#45;&gt;12 -->
<g id="edge12" class="edge">
<title>8&#45;&gt;12</title>
<path fill="none" stroke="black" d="M195.25,-150.96C195.25,-144.74 195.25,-134.65 195.25,-125.89"/>
<polygon fill="black" stroke="black" points="198.75,-126.1 195.25,-116.1 191.75,-126.1 198.75,-126.1"/>
</g>
<!-- 10 -->
<g id="node11" class="node">
<title>10</title>
<text text-anchor="middle" x="114.25" y="-51.2" font-family="Times,serif" font-size="14.00">&lt;text&gt;</text>
</g>
<!-- 9&#45;&gt;10 -->
<g id="edge10" class="edge">
<title>9&#45;&gt;10</title>
<path fill="none" stroke="black" d="M114.25,-100.71C114.25,-94.49 114.25,-84.4 114.25,-75.64"/>
<polygon fill="black" stroke="black" points="117.75,-75.85 114.25,-65.85 110.75,-75.85 117.75,-75.85"/>
</g>
<!-- 11 -->
<g id="node12" class="node">
<title>11</title>
<text text-anchor="middle" x="114.25" y="-0.95" font-family="Times,serif" font-size="14.00">T (84)</text>
</g>
<!-- 10&#45;&gt;11 -->
<g id="edge11" class="edge">
<title>10&#45;&gt;11</title>
<path fill="none" stroke="black" d="M114.25,-50.46C114.25,-44.24 114.25,-34.15 114.25,-25.39"/>
<polygon fill="black" stroke="black" points="117.75,-25.6 114.25,-15.6 110.75,-25.6 117.75,-25.6"/>
</g>
<!-- 13 -->
<g id="node14" class="node">
<title>13</title>
<text text-anchor="middle" x="195.25" y="-51.2" font-family="Times,serif" font-size="14.00">&lt;text&gt;</text>
</g>
<!-- 12&#45;&gt;13 -->
<g id="edge13" class="edge">
<title>12&#45;&gt;13</title>
<path fill="none" stroke="black" d="M195.25,-100.71C195.25,-94.49 195.25,-84.4 195.25,-75.64"/>
<polygon fill="black" stroke="black" points="198.75,-75.85 195.25,-65.85 191.75,-75.85 198.75,-75.85"/>
</g>
<!-- 14 -->
<g id="node15" class="node">
<title>14</title>
<text text-anchor="middle" x="195.25" y="-0.95" font-family="Times,serif" font-size="14.00">e (101)</text>
</g>
<!-- 13&#45;&gt;14 -->
<g id="edge14" class="edge">
<title>13&#45;&gt;14</title>
<path fill="none" stroke="black" d="M195.25,-50.46C195.25,-44.24 195.25,-34.15 195.25,-25.39"/>
<polygon fill="black" stroke="black" points="198.75,-25.6 195.25,-15.6 191.75,-25.6 198.75,-25.6"/>
</g>
<!-- 16 -->
<g id="node17" class="node">
<title>16</title>
<text text-anchor="middle" x="276.25" y="-101.45" font-family="Times,serif" font-size="14.00">&lt;xml&#45;tree&gt;</text>
</g>
<!-- 15&#45;&gt;16 -->
<g id="edge16" class="edge">
<title>15&#45;&gt;16</title>
<path fill="none" stroke="black" d="M276.25,-150.96C276.25,-144.74 276.25,-134.65 276.25,-125.89"/>
<polygon fill="black" stroke="black" points="279.75,-126.1 276.25,-116.1 272.75,-126.1 279.75,-126.1"/>
</g>
<!-- 19 -->
<g id="node20" class="node">
<title>19</title>
<text text-anchor="middle" x="357.25" y="-101.45" font-family="Times,serif" font-size="14.00">&lt;xml&#45;tree&gt;</text>
</g>
<!-- 15&#45;&gt;19 -->
<g id="edge19" class="edge">
<title>15&#45;&gt;19</title>
<path fill="none" stroke="black" d="M286.51,-150.76C299.29,-143.15 321.41,-129.98 337.52,-120.38"/>
<polygon fill="black" stroke="black" points="338.97,-123.59 345.77,-115.46 335.39,-117.57 338.97,-123.59"/>
</g>
<!-- 17 -->
<g id="node18" class="node">
<title>17</title>
<text text-anchor="middle" x="276.25" y="-51.2" font-family="Times,serif" font-size="14.00">&lt;text&gt;</text>
</g>
<!-- 16&#45;&gt;17 -->
<g id="edge17" class="edge">
<title>16&#45;&gt;17</title>
<path fill="none" stroke="black" d="M276.25,-100.71C276.25,-94.49 276.25,-84.4 276.25,-75.64"/>
<polygon fill="black" stroke="black" points="279.75,-75.85 276.25,-65.85 272.75,-75.85 279.75,-75.85"/>
</g>
<!-- 18 -->
<g id="node19" class="node">
<title>18</title>
<text text-anchor="middle" x="276.25" y="-0.95" font-family="Times,serif" font-size="14.00">x (120)</text>
</g>
<!-- 17&#45;&gt;18 -->
<g id="edge18" class="edge">
<title>17&#45;&gt;18</title>
<path fill="none" stroke="black" d="M276.25,-50.46C276.25,-44.24 276.25,-34.15 276.25,-25.39"/>
<polygon fill="black" stroke="black" points="279.75,-25.6 276.25,-15.6 272.75,-25.6 279.75,-25.6"/>
</g>
<!-- 20 -->
<g id="node21" class="node">
<title>20</title>
<text text-anchor="middle" x="357.25" y="-51.2" font-family="Times,serif" font-size="14.00">&lt;text&gt;</text>
</g>
<!-- 19&#45;&gt;20 -->
<g id="edge20" class="edge">
<title>19&#45;&gt;20</title>
<path fill="none" stroke="black" d="M357.25,-100.71C357.25,-94.49 357.25,-84.4 357.25,-75.64"/>
<polygon fill="black" stroke="black" points="360.75,-75.85 357.25,-65.85 353.75,-75.85 360.75,-75.85"/>
</g>
<!-- 21 -->
<g id="node22" class="node">
<title>21</title>
<text text-anchor="middle" x="357.25" y="-0.95" font-family="Times,serif" font-size="14.00">t (116)</text>
</g>
<!-- 20&#45;&gt;21 -->
<g id="edge21" class="edge">
<title>20&#45;&gt;21</title>
<path fill="none" stroke="black" d="M357.25,-50.46C357.25,-44.24 357.25,-34.15 357.25,-25.39"/>
<polygon fill="black" stroke="black" points="360.75,-25.6 357.25,-15.6 353.75,-25.6 360.75,-25.6"/>
</g>
<!-- 23 -->
<g id="node24" class="node">
<title>23</title>
<text text-anchor="middle" x="356.25" y="-151.7" font-family="Times,serif" font-size="14.00">&lt;/</text>
</g>
<!-- 22&#45;&gt;23 -->
<g id="edge23" class="edge">
<title>22&#45;&gt;23</title>
<path fill="none" stroke="black" d="M372.92,-201.21C370.41,-194.84 366.31,-184.43 362.81,-175.53"/>
<polygon fill="black" stroke="black" points="366.07,-174.27 359.15,-166.25 359.56,-176.84 366.07,-174.27"/>
</g>
<!-- 24 -->
<g id="node25" class="node">
<title>24</title>
<text text-anchor="middle" x="394.25" y="-151.7" font-family="Times,serif" font-size="14.00">&lt;id&gt;</text>
</g>
<!-- 22&#45;&gt;24 -->
<g id="edge24" class="edge">
<title>22&#45;&gt;24</title>
<path fill="none" stroke="black" d="M377.58,-201.21C380.09,-194.84 384.19,-184.43 387.69,-175.53"/>
<polygon fill="black" stroke="black" points="390.94,-176.84 391.35,-166.25 384.43,-174.27 390.94,-176.84"/>
</g>
<!-- 26 -->
<g id="node27" class="node">
<title>26</title>
<text text-anchor="middle" x="443.25" y="-151.7" font-family="Times,serif" font-size="14.00">&gt; (62)</text>
</g>
<!-- 22&#45;&gt;26 -->
<g id="edge26" class="edge">
<title>22&#45;&gt;26</title>
<path fill="none" stroke="black" d="M383.86,-201.01C394.34,-193.58 412.3,-180.84 425.73,-171.31"/>
<polygon fill="black" stroke="black" points="427.56,-174.3 433.69,-165.66 423.51,-168.59 427.56,-174.3"/>
</g>
<!-- 25 -->
<g id="node26" class="node">
<title>25</title>
<text text-anchor="middle" x="419.25" y="-101.45" font-family="Times,serif" font-size="14.00">html</text>
</g>
<!-- 24&#45;&gt;25 -->
<g id="edge25" class="edge">
<title>24&#45;&gt;25</title>
<path fill="none" stroke="black" d="M397.32,-150.96C400.69,-144.45 406.26,-133.71 410.94,-124.67"/>
<polygon fill="black" stroke="black" points="413.97,-126.42 415.46,-115.93 407.75,-123.2 413.97,-126.42"/>
</g>
</g>
</svg>