<?xml version="1.0" encoding="UTF-8" standalone="no"?>
<!DOCTYPE svg PUBLIC "-//W3C//DTD SVG 1.1//EN"
 "http://www.w3.org/Graphics/SVG/1.1/DTD/svg11.dtd">
<!-- Generated by graphviz version 12.2.1 (20241206.2353)
 -->
<!-- Pages: 1 -->
<svg width="226pt" height="87pt"
 viewBox="0.00 0.00 225.75 87.25" xmlns="http://www.w3.org/2000/svg" xmlns:xlink="http://www.w3.org/1999/xlink">
<g id="graph0" class="graph" transform="scale(1 1) rotate(0) translate(4 83.25)">
<polygon fill="white" stroke="none" points="-4,4 -4,-83.25 221.75,-83.25 221.75,4 -4,4"/>
<!-- 0 -->
<g id="node1" class="node">
<title>0</title>
<text text-anchor="middle" x="19.88" y="-33.95" font-family="Times,serif" font-size="14.00">&lt;start&gt;</text>
</g>
<!-- 1 -->
<g id="node2" class="node">
<title>1</title>
<text text-anchor="middle" x="97" y="-33.95" font-family="Times,serif" font-size="14.00">&lt;expr&gt;</text>
</g>
<!-- 0&#45;&gt;1 -->
<g id="edge1" class="edge">
<title>0&#45;&gt;1</title>
<path fill="none" stroke="black" d="M39.45,-40.12C47.27,-40.12 56.59,-40.12 65.38,-40.12"/>
<polygon fill="black" stroke="black" points="65.35,-43.63 75.35,-40.13 65.35,-36.63 65.35,-43.63"/>
</g>
<!-- 2 -->
<g id="node3" class="node">
<title>2</title>
<text text-anchor="middle" x="192.25" y="-65.95" font-family="Times,serif" font-size="14.00">&lt;expr&gt;</text>
</g>
<!-- 1&#45;&gt;2 -->
<g id="edge2" class="edge">
<title>1&#45;&gt;2</title>
<path fill="none" stroke="black" d="M110.82,-47.13C117.88,-50.77 126.88,-55.09 135.25,-58.12 143.48,-61.11 152.61,-63.68 161.07,-65.78"/>
<polygon fill="black" stroke="black" points="160.03,-69.13 170.56,-68 161.62,-62.32 160.03,-69.13"/>
</g>
<!-- 3 -->
<g id="node4" class="node">
<title>3</title>
<text text-anchor="middle" x="192.25" y="-33.95" font-family="Times,serif" font-size="14.00"> + &#160;(plus)</text>
</g>
<!-- 1&#45;&gt;3 -->
<g id="edge3" class="edge">
<title>1&#45;&gt;3</title>
<path fill="none" stroke="black" d="M116.87,-40.12C128.07,-40.12 142.62,-40.12 155.88,-40.12"/>
<polygon fill="black" stroke="black" points="155.57,-43.63 165.57,-40.13 155.57,-36.63 155.57,-43.63"/>
<text text-anchor="middle" x="142" y="-41.08" font-family="Times,serif" font-size="14.00">op</text>
</g>
<!-- 4 -->
<g id="node5" class="node">
<title>4</title>
<text text-anchor="middle" x="192.25" y="-0.95" font-family="Times,serif" font-size="14.00">&lt;term&gt;</text>
</g>
<!-- 1&#45;&gt;4 -->
<g id="edge4" class="edge">
<title>1&#45;&gt;4</title>
<path fill="none" stroke="black" d="M116.87,-33.45C129.51,-28.97 146.42,-22.99 160.93,-17.86"/>
<polygon fill="black" stroke="black" points="161.76,-21.28 170.02,-14.64 159.42,-14.68 161.76,-21.28"/>
</g>
</g>
</svg>