<?xml version="1.0" encoding="UTF-8" standalone="no"?>
<!DOCTYPE svg PUBLIC "-//W3C//DTD SVG 1.1//EN"
 "http://www.w3.org/Graphics/SVG/1.1/DTD/svg11.dtd">
<!-- Generated by graphviz version 12.2.1 (20241206.2353)
 -->
<!-- Pages: 1 -->
<svg width="1022pt" height="1132pt"
 viewBox="0.00 0.00 1022.00 1132.00" xmlns="http://www.w3.org/2000/svg" xmlns:xlink="http://www.w3.org/1999/xlink">
<g id="graph0" class="graph" transform="scale(1 1) rotate(0) translate(4 1128)">
<polygon fill="white" stroke="none" points="-4,4 -4,-1128 1018,-1128 1018,4 -4,4"/>
<!-- 1 -->
<g id="node1" class="node">
<title>1</title>
<ellipse fill="none" stroke="black" cx="550" cy="-1102" rx="89.36" ry="18"/>
<ellipse fill="none" stroke="black" cx="550" cy="-1102" rx="93.36" ry="22"/>
<text text-anchor="middle" x="550" y="-1095.83" font-family="Times,serif" font-size="14.00">1: enter: cgi_decode(s)</text>
</g>
<!-- 3 -->
<g id="node4" class="node">
<title>3</title>
<polygon fill="none" stroke="black" points="1014,-1043 86,-1043 86,-1007 1014,-1007 1014,-1043"/>
<text text-anchor="middle" x="550" y="-1018.83" font-family="Times,serif" font-size="14.00">2: hex_values = {&#39;0&#39;: 0, &#39;1&#39;: 1, &#39;2&#39;: 2, &#39;3&#39;: 3, &#39;4&#39;: 4, &#39;5&#39;: 5, &#39;6&#39;: 6, &#39;7&#39;: 7, &#39;8&#39;: 8, &#39;9&#39;: 9, &#39;a&#39;: 10, &#39;b&#39;: 11, &#39;c&#39;: 12, &#39;d&#39;: 13, &#39;e&#39;: 14, &#39;f&#39;: 15, &#39;A&#39;: 10, &#39;B&#39;: 11, &#39;C&#39;: 12, &#39;D&#39;: 13, &#39;E&#39;: 14, &#39;F&#39;: 15}</text>
</g>
<!-- 1&#45;&gt;3 -->
<g id="edge2" class="edge">
<title>1&#45;&gt;3</title>
<path fill="none" stroke="black" d="M550,-1079.71C550,-1071.82 550,-1062.75 550,-1054.33"/>
<polygon fill="black" stroke="black" points="553.5,-1054.57 550,-1044.57 546.5,-1054.57 553.5,-1054.57"/>
</g>
<!-- 2 -->
<g id="node2" class="node">
<title>2</title>
<ellipse fill="none" stroke="black" cx="357" cy="-642.75" rx="85.07" ry="18"/>
<ellipse fill="none" stroke="black" cx="357" cy="-642.75" rx="89.07" ry="22"/>
<text text-anchor="middle" x="357" y="-636.58" font-family="Times,serif" font-size="14.00">1: exit: cgi_decode(s)</text>
</g>
<!-- 18 -->
<g id="node3" class="node">
<title>18</title>
<polygon fill="none" stroke="black" points="444.38,-737.75 367.62,-737.75 367.62,-701.75 444.38,-701.75 444.38,-737.75"/>
<text text-anchor="middle" x="406" y="-713.58" font-family="Times,serif" font-size="14.00">26: return t</text>
</g>
<!-- 18&#45;&gt;2 -->
<g id="edge1" class="edge">
<title>18&#45;&gt;2</title>
<path fill="none" stroke="black" d="M394.64,-701.35C389.4,-693.35 383.04,-683.6 377.04,-674.42"/>
<polygon fill="black" stroke="black" points="379.97,-672.52 371.57,-666.06 374.11,-676.34 379.97,-672.52"/>
</g>
<!-- 4 -->
<g id="node5" class="node">
<title>4</title>
<polygon fill="none" stroke="black" points="577.12,-970 522.88,-970 522.88,-934 577.12,-934 577.12,-970"/>
<text text-anchor="middle" x="550" y="-945.83" font-family="Times,serif" font-size="14.00">9: t = &#39;&#39;</text>
</g>
<!-- 3&#45;&gt;4 -->
<g id="edge3" class="edge">
<title>3&#45;&gt;4</title>
<path fill="none" stroke="black" d="M550,-1006.81C550,-999.23 550,-990.1 550,-981.54"/>
<polygon fill="black" stroke="black" points="553.5,-981.54 550,-971.54 546.5,-981.54 553.5,-981.54"/>
</g>
<!-- 5 -->
<g id="node6" class="node">
<title>5</title>
<polygon fill="none" stroke="black" points="581.62,-897 518.38,-897 518.38,-861 581.62,-861 581.62,-897"/>
<text text-anchor="middle" x="550" y="-872.83" font-family="Times,serif" font-size="14.00">10: i = 0</text>
</g>
<!-- 4&#45;&gt;5 -->
<g id="edge4" class="edge">
<title>4&#45;&gt;5</title>
<path fill="none" stroke="black" d="M550,-933.81C550,-926.23 550,-917.1 550,-908.54"/>
<polygon fill="black" stroke="black" points="553.5,-908.54 550,-898.54 546.5,-908.54 553.5,-908.54"/>
</g>
<!-- 6 -->
<g id="node7" class="node">
<title>6</title>
<polygon fill="none" stroke="black" points="550,-824 437.79,-806 550,-788 662.21,-806 550,-824"/>
<text text-anchor="middle" x="550" y="-799.83" font-family="Times,serif" font-size="14.00">11: while: i &lt; len(s)</text>
</g>
<!-- 5&#45;&gt;6 -->
<g id="edge5" class="edge">
<title>5&#45;&gt;6</title>
<path fill="none" stroke="black" d="M550,-860.81C550,-853.23 550,-844.1 550,-835.54"/>
<polygon fill="black" stroke="black" points="553.5,-835.54 550,-825.54 546.5,-835.54 553.5,-835.54"/>
</g>
<!-- 6&#45;&gt;18 -->
<g id="edge21" class="edge">
<title>6&#45;&gt;18</title>
<path fill="none" stroke="red" d="M526.54,-791.28C504.66,-778.47 471.59,-759.12 445.61,-743.93"/>
<polygon fill="red" stroke="red" points="447.39,-740.91 436.99,-738.88 443.86,-746.95 447.39,-740.91"/>
<text text-anchor="middle" x="490.37" y="-756.7" font-family="Times,serif" font-size="14.00">F</text>
</g>
<!-- 7 -->
<g id="node9" class="node">
<title>7</title>
<polygon fill="none" stroke="black" points="588.38,-737.75 511.62,-737.75 511.62,-701.75 588.38,-701.75 588.38,-737.75"/>
<text text-anchor="middle" x="550" y="-713.58" font-family="Times,serif" font-size="14.00">12: c = s[i]</text>
</g>
<!-- 6&#45;&gt;7 -->
<g id="edge7" class="edge">
<title>6&#45;&gt;7</title>
<path fill="none" stroke="blue" d="M550,-787.54C550,-776.59 550,-762.19 550,-749.57"/>
<polygon fill="blue" stroke="blue" points="553.5,-749.7 550,-739.7 546.5,-749.7 553.5,-749.7"/>
<text text-anchor="middle" x="554.12" y="-756.7" font-family="Times,serif" font-size="14.00">T</text>
</g>
<!-- 17 -->
<g id="node8" class="node">
<title>17</title>
<polygon fill="none" stroke="black" points="508.75,-36 437.25,-36 437.25,0 508.75,0 508.75,-36"/>
<text text-anchor="middle" x="473" y="-11.82" font-family="Times,serif" font-size="14.00">25: i += 1</text>
</g>
<!-- 17&#45;&gt;6 -->
<g id="edge6" class="edge">
<title>17&#45;&gt;6</title>
<path fill="none" stroke="black" d="M509.08,-22.08C576.31,-28.83 714,-47.8 714,-90 714,-720.75 714,-720.75 714,-720.75 714,-764.04 668.24,-785.1 625.06,-795.34"/>
<polygon fill="black" stroke="black" points="624.38,-791.91 615.36,-797.45 625.87,-798.75 624.38,-791.91"/>
</g>
<!-- 8 -->
<g id="node10" class="node">
<title>8</title>
<polygon fill="none" stroke="black" points="550,-660.75 464.1,-642.75 550,-624.75 635.9,-642.75 550,-660.75"/>
<text text-anchor="middle" x="550" y="-636.58" font-family="Times,serif" font-size="14.00">13: if: c == &#39;+&#39;</text>
</g>
<!-- 7&#45;&gt;8 -->
<g id="edge8" class="edge">
<title>7&#45;&gt;8</title>
<path fill="none" stroke="black" d="M550,-701.35C550,-692.74 550,-682.12 550,-672.35"/>
<polygon fill="black" stroke="black" points="553.5,-672.56 550,-662.56 546.5,-672.56 553.5,-672.56"/>
</g>
<!-- 9 -->
<g id="node11" class="node">
<title>9</title>
<polygon fill="none" stroke="black" points="109.5,-516.5 36.5,-516.5 36.5,-480.5 109.5,-480.5 109.5,-516.5"/>
<text text-anchor="middle" x="73" y="-492.32" font-family="Times,serif" font-size="14.00">14: t += &#39; &#39;</text>
</g>
<!-- 8&#45;&gt;9 -->
<g id="edge9" class="edge">
<title>8&#45;&gt;9</title>
<path fill="none" stroke="blue" d="M515.7,-631.52C431.96,-606.55 216.97,-542.43 120.77,-513.75"/>
<polygon fill="blue" stroke="blue" points="121.95,-510.45 111.37,-510.94 119.95,-517.15 121.95,-510.45"/>
<text text-anchor="middle" x="415.06" y="-589.45" font-family="Times,serif" font-size="14.00">T</text>
</g>
<!-- 10 -->
<g id="node12" class="node">
<title>10</title>
<polygon fill="none" stroke="black" points="550,-570.5 460.73,-552.5 550,-534.5 639.27,-552.5 550,-570.5"/>
<text text-anchor="middle" x="550" y="-546.33" font-family="Times,serif" font-size="14.00">15: if: c == &#39;%&#39;</text>
</g>
<!-- 8&#45;&gt;10 -->
<g id="edge10" class="edge">
<title>8&#45;&gt;10</title>
<path fill="none" stroke="red" d="M550,-624.31C550,-612.35 550,-596.19 550,-582.33"/>
<polygon fill="red" stroke="red" points="553.5,-582.41 550,-572.41 546.5,-582.41 553.5,-582.41"/>
<text text-anchor="middle" x="553.75" y="-589.45" font-family="Times,serif" font-size="14.00">F</text>
</g>
<!-- 9&#45;&gt;17 -->
<g id="edge17" class="edge">
<title>9&#45;&gt;17</title>
<path fill="none" stroke="black" d="M51.1,-480.12C29.59,-460.94 0,-427.92 0,-391.5 0,-391.5 0,-391.5 0,-90 0,-47.26 305.96,-27.34 425.73,-21.18"/>
<polygon fill="black" stroke="black" points="425.74,-24.69 435.55,-20.69 425.39,-17.7 425.74,-24.69"/>
</g>
<!-- 11 -->
<g id="node13" class="node">
<title>11</title>
<polygon fill="none" stroke="black" points="507.5,-462.5 242.5,-462.5 242.5,-426.5 507.5,-426.5 507.5,-462.5"/>
<text text-anchor="middle" x="375" y="-438.32" font-family="Times,serif" font-size="14.00">16: digit_high, digit_low = (s[i + 1], s[i + 2])</text>
</g>
<!-- 10&#45;&gt;11 -->
<g id="edge11" class="edge">
<title>10&#45;&gt;11</title>
<path fill="none" stroke="blue" d="M528.54,-538.5C499.84,-521.12 448.48,-490.01 413.12,-468.59"/>
<polygon fill="blue" stroke="blue" points="415.27,-465.8 404.9,-463.61 411.64,-471.78 415.27,-465.8"/>
<text text-anchor="middle" x="492.52" y="-492.32" font-family="Times,serif" font-size="14.00">T</text>
</g>
<!-- 16 -->
<g id="node18" class="node">
<title>16</title>
<polygon fill="none" stroke="black" points="658.38,-408.5 587.62,-408.5 587.62,-372.5 658.38,-372.5 658.38,-408.5"/>
<text text-anchor="middle" x="623" y="-384.32" font-family="Times,serif" font-size="14.00">24: t += c</text>
</g>
<!-- 10&#45;&gt;16 -->
<g id="edge16" class="edge">
<title>10&#45;&gt;16</title>
<path fill="none" stroke="red" d="M557.27,-535.57C569.7,-508.33 595.18,-452.47 610.51,-418.87"/>
<polygon fill="red" stroke="red" points="613.51,-420.74 614.47,-410.19 607.14,-417.83 613.51,-420.74"/>
<text text-anchor="middle" x="585.57" y="-492.32" font-family="Times,serif" font-size="14.00">F</text>
</g>
<!-- 12 -->
<g id="node14" class="node">
<title>12</title>
<polygon fill="none" stroke="black" points="386.75,-354.5 315.25,-354.5 315.25,-318.5 386.75,-318.5 386.75,-354.5"/>
<text text-anchor="middle" x="351" y="-330.32" font-family="Times,serif" font-size="14.00">17: i += 2</text>
</g>
<!-- 11&#45;&gt;12 -->
<g id="edge12" class="edge">
<title>11&#45;&gt;12</title>
<path fill="none" stroke="black" d="M371.14,-426.47C367.46,-410.19 361.83,-385.32 357.46,-366.02"/>
<polygon fill="black" stroke="black" points="360.88,-365.3 355.26,-356.32 354.06,-366.84 360.88,-365.3"/>
</g>
<!-- 13 -->
<g id="node15" class="node">
<title>13</title>
<polygon fill="none" stroke="black" points="338,-281.5 28.13,-263.5 338,-245.5 647.87,-263.5 338,-281.5"/>
<text text-anchor="middle" x="338" y="-257.32" font-family="Times,serif" font-size="14.00">18: if: digit_high in hex_values and digit_low in hex_values</text>
</g>
<!-- 12&#45;&gt;13 -->
<g id="edge13" class="edge">
<title>12&#45;&gt;13</title>
<path fill="none" stroke="black" d="M347.85,-318.31C346.45,-310.64 344.75,-301.39 343.17,-292.74"/>
<polygon fill="black" stroke="black" points="346.63,-292.22 341.39,-283.02 339.75,-293.48 346.63,-292.22"/>
</g>
<!-- 13&#45;&gt;17 -->
<g id="edge19" class="edge">
<title>13&#45;&gt;17</title>
<path fill="none" stroke="red" d="M320.74,-246.32C301.18,-225.93 273.86,-189.83 289,-159.25 317.46,-101.77 382.02,-61.42 426.56,-39.21"/>
<polygon fill="red" stroke="red" points="428.02,-42.38 435.49,-34.87 424.97,-36.09 428.02,-42.38"/>
<text text-anchor="middle" x="313.38" y="-127.95" font-family="Times,serif" font-size="14.00">F</text>
</g>
<!-- 14 -->
<g id="node16" class="node">
<title>14</title>
<polygon fill="none" stroke="black" points="647.88,-195.25 298.12,-195.25 298.12,-159.25 647.88,-159.25 647.88,-195.25"/>
<text text-anchor="middle" x="473" y="-171.07" font-family="Times,serif" font-size="14.00">19: v = hex_values[digit_high] * 16 + hex_values[digit_low]</text>
</g>
<!-- 13&#45;&gt;14 -->
<g id="edge14" class="edge">
<title>13&#45;&gt;14</title>
<path fill="none" stroke="blue" d="M363.39,-246.65C383.84,-233.89 412.88,-215.77 435.93,-201.39"/>
<polygon fill="blue" stroke="blue" points="437.48,-204.54 444.11,-196.28 433.78,-198.6 437.48,-204.54"/>
<text text-anchor="middle" x="417.71" y="-214.2" font-family="Times,serif" font-size="14.00">T</text>
</g>
<!-- 15 -->
<g id="node17" class="node">
<title>15</title>
<polygon fill="none" stroke="black" points="521.88,-109 424.12,-109 424.12,-73 521.88,-73 521.88,-109"/>
<text text-anchor="middle" x="473" y="-84.83" font-family="Times,serif" font-size="14.00">20: t += chr(v)</text>
</g>
<!-- 14&#45;&gt;15 -->
<g id="edge15" class="edge">
<title>14&#45;&gt;15</title>
<path fill="none" stroke="black" d="M473,-158.79C473,-147.84 473,-133.44 473,-120.82"/>
<polygon fill="black" stroke="black" points="476.5,-120.95 473,-110.95 469.5,-120.95 476.5,-120.95"/>
</g>
<!-- 15&#45;&gt;17 -->
<g id="edge18" class="edge">
<title>15&#45;&gt;17</title>
<path fill="none" stroke="black" d="M473,-72.81C473,-65.23 473,-56.1 473,-47.54"/>
<polygon fill="black" stroke="black" points="476.5,-47.54 473,-37.54 469.5,-47.54 476.5,-47.54"/>
</g>
<!-- 16&#45;&gt;17 -->
<g id="edge20" class="edge">
<title>16&#45;&gt;17</title>
<path fill="none" stroke="black" d="M640.94,-372.21C656.32,-355.47 676,-328.55 676,-300.5 676,-300.5 676,-300.5 676,-90 676,-57.12 579.89,-35.87 519.93,-25.82"/>
<polygon fill="black" stroke="black" points="520.75,-22.4 510.32,-24.25 519.63,-29.31 520.75,-22.4"/>
</g>
</g>
</svg>