<?xml version="1.0" encoding="UTF-8" standalone="no"?>
<!DOCTYPE svg PUBLIC "-//W3C//DTD SVG 1.1//EN"
 "http://www.w3.org/Graphics/SVG/1.1/DTD/svg11.dtd">
<!-- Generated by graphviz version 12.2.1 (20241206.2353)
 -->
<!-- Pages: 1 -->
<svg width="700pt" height="409pt"
 viewBox="0.00 0.00 699.50 409.25" xmlns="http://www.w3.org/2000/svg" xmlns:xlink="http://www.w3.org/1999/xlink">
<g id="graph0" class="graph" transform="scale(1 1) rotate(0) translate(4 405.25)">
<polygon fill="white" stroke="none" points="-4,4 -4,-405.25 695.5,-405.25 695.5,4 -4,4"/>
<!-- 0 -->
<g id="node1" class="node">
<title>0</title>
<text text-anchor="middle" x="570.75" y="-387.95" font-family="Times,serif" font-size="14.00">(0) Length(hang_if_no_space_s_str_1) &lt;= 0</text>
</g>
<!-- 1 -->
<g id="node2" class="node">
<title>1</title>
<text text-anchor="middle" x="480.75" y="-323.45" font-family="Times,serif" font-size="14.00">(1) str.substr(hang_if_no_space_s_str_1, 0, 1) == &quot; &quot;</text>
</g>
<!-- 0&#45;&gt;1 -->
<g id="edge1" class="edge">
<title>0&#45;&gt;1</title>
<path fill="none" stroke="red" d="M562.12,-387.13C547.58,-377.03 517.89,-356.42 498.68,-343.08"/>
<polygon fill="red" stroke="red" points="500.94,-340.38 490.73,-337.55 496.95,-346.13 500.94,-340.38"/>
<text text-anchor="middle" x="537.19" y="-355.7" font-family="Times,serif" font-size="14.00">0</text>
</g>
<!-- 12 -->
<g id="node13" class="node">
<title>12</title>
<text text-anchor="middle" x="659.75" y="-323.45" font-family="Times,serif" font-size="14.00">? (63)</text>
</g>
<!-- 0&#45;&gt;12 -->
<g id="edge12" class="edge">
<title>0&#45;&gt;12</title>
<path fill="none" stroke="blue" d="M579.28,-387.13C593.6,-377.08 622.75,-356.61 641.76,-343.26"/>
<polygon fill="blue" stroke="blue" points="643.7,-346.17 649.87,-337.56 639.68,-340.44 643.7,-346.17"/>
<text text-anchor="middle" x="626.6" y="-355.7" font-family="Times,serif" font-size="14.00">1</text>
</g>
<!-- 2 -->
<g id="node3" class="node">
<title>2</title>
<text text-anchor="middle" x="402.75" y="-258.95" font-family="Times,serif" font-size="14.00">(2) Length(hang_if_no_space_s_str_1) &lt;= 1</text>
</g>
<!-- 1&#45;&gt;2 -->
<g id="edge2" class="edge">
<title>1&#45;&gt;2</title>
<path fill="none" stroke="red" d="M473.27,-322.63C460.78,-312.62 435.39,-292.28 418.73,-278.93"/>
<polygon fill="red" stroke="red" points="421.27,-276.48 411.27,-272.95 416.89,-281.94 421.27,-276.48"/>
<text text-anchor="middle" x="452.11" y="-291.2" font-family="Times,serif" font-size="14.00">0</text>
</g>
<!-- 11 -->
<g id="node12" class="node">
<title>11</title>
<text text-anchor="middle" x="557.75" y="-258.95" font-family="Times,serif" font-size="14.00">? (63)</text>
</g>
<!-- 1&#45;&gt;11 -->
<g id="edge11" class="edge">
<title>1&#45;&gt;11</title>
<path fill="none" stroke="blue" d="M488.13,-322.63C500.47,-312.62 525.53,-292.28 541.98,-278.93"/>
<polygon fill="blue" stroke="blue" points="543.77,-281.98 549.33,-272.96 539.36,-276.55 543.77,-281.98"/>
<text text-anchor="middle" x="529.52" y="-291.2" font-family="Times,serif" font-size="14.00">1</text>
</g>
<!-- 3 -->
<g id="node4" class="node">
<title>3</title>
<text text-anchor="middle" x="312.75" y="-194.45" font-family="Times,serif" font-size="14.00">(3) str.substr(hang_if_no_space_s_str_1, 1, 1) == &quot; &quot;</text>
</g>
<!-- 2&#45;&gt;3 -->
<g id="edge3" class="edge">
<title>2&#45;&gt;3</title>
<path fill="none" stroke="red" d="M394.12,-258.13C379.58,-248.03 349.89,-227.42 330.68,-214.08"/>
<polygon fill="red" stroke="red" points="332.94,-211.38 322.73,-208.55 328.95,-217.13 332.94,-211.38"/>
<text text-anchor="middle" x="369.19" y="-226.7" font-family="Times,serif" font-size="14.00">0</text>
</g>
<!-- 10 -->
<g id="node11" class="node">
<title>10</title>
<text text-anchor="middle" x="491.75" y="-194.45" font-family="Times,serif" font-size="14.00">? (63)</text>
</g>
<!-- 2&#45;&gt;10 -->
<g id="edge10" class="edge">
<title>2&#45;&gt;10</title>
<path fill="none" stroke="blue" d="M411.28,-258.13C425.6,-248.08 454.75,-227.61 473.76,-214.26"/>
<polygon fill="blue" stroke="blue" points="475.7,-217.17 481.87,-208.56 471.68,-211.44 475.7,-217.17"/>
<text text-anchor="middle" x="458.6" y="-226.7" font-family="Times,serif" font-size="14.00">1</text>
</g>
<!-- 4 -->
<g id="node5" class="node">
<title>4</title>
<text text-anchor="middle" x="234.75" y="-129.95" font-family="Times,serif" font-size="14.00">(4) Length(hang_if_no_space_s_str_1) &lt;= 2</text>
</g>
<!-- 3&#45;&gt;4 -->
<g id="edge4" class="edge">
<title>3&#45;&gt;4</title>
<path fill="none" stroke="red" d="M305.27,-193.63C292.78,-183.62 267.39,-163.28 250.73,-149.93"/>
<polygon fill="red" stroke="red" points="253.27,-147.48 243.27,-143.95 248.89,-152.94 253.27,-147.48"/>
<text text-anchor="middle" x="284.11" y="-162.2" font-family="Times,serif" font-size="14.00">0</text>
</g>
<!-- 9 -->
<g id="node10" class="node">
<title>9</title>
<text text-anchor="middle" x="389.75" y="-129.95" font-family="Times,serif" font-size="14.00">? (63)</text>
</g>
<!-- 3&#45;&gt;9 -->
<g id="edge9" class="edge">
<title>3&#45;&gt;9</title>
<path fill="none" stroke="blue" d="M320.13,-193.63C332.47,-183.62 357.53,-163.28 373.98,-149.93"/>
<polygon fill="blue" stroke="blue" points="375.77,-152.98 381.33,-143.96 371.36,-147.55 375.77,-152.98"/>
<text text-anchor="middle" x="361.52" y="-162.2" font-family="Times,serif" font-size="14.00">1</text>
</g>
<!-- 5 -->
<g id="node6" class="node">
<title>5</title>
<text text-anchor="middle" x="144.75" y="-65.45" font-family="Times,serif" font-size="14.00">(5) str.substr(hang_if_no_space_s_str_1, 2, 1) == &quot; &quot;</text>
</g>
<!-- 4&#45;&gt;5 -->
<g id="edge5" class="edge">
<title>4&#45;&gt;5</title>
<path fill="none" stroke="red" d="M226.12,-129.13C211.58,-119.03 181.89,-98.42 162.68,-85.08"/>
<polygon fill="red" stroke="red" points="164.94,-82.38 154.73,-79.55 160.95,-88.13 164.94,-82.38"/>
<text text-anchor="middle" x="201.19" y="-97.7" font-family="Times,serif" font-size="14.00">0</text>
</g>
<!-- 8 -->
<g id="node9" class="node">
<title>8</title>
<text text-anchor="middle" x="323.75" y="-65.45" font-family="Times,serif" font-size="14.00">? (63)</text>
</g>
<!-- 4&#45;&gt;8 -->
<g id="edge8" class="edge">
<title>4&#45;&gt;8</title>
<path fill="none" stroke="blue" d="M243.28,-129.13C257.6,-119.08 286.75,-98.61 305.76,-85.26"/>
<polygon fill="blue" stroke="blue" points="307.7,-88.17 313.87,-79.56 303.68,-82.44 307.7,-88.17"/>
<text text-anchor="middle" x="290.6" y="-97.7" font-family="Times,serif" font-size="14.00">1</text>
</g>
<!-- 6 -->
<g id="node7" class="node">
<title>6</title>
<text text-anchor="middle" x="119.75" y="-0.95" font-family="Times,serif" font-size="14.00">? (63)</text>
</g>
<!-- 5&#45;&gt;6 -->
<g id="edge6" class="edge">
<title>5&#45;&gt;6</title>
<path fill="none" stroke="red" d="M142.44,-64.86C138.82,-55.79 131.64,-37.86 126.33,-24.57"/>
<polygon fill="red" stroke="red" points="129.65,-23.45 122.69,-15.47 123.15,-26.05 129.65,-23.45"/>
<text text-anchor="middle" x="137.86" y="-33.2" font-family="Times,serif" font-size="14.00">0</text>
</g>
<!-- 7 -->
<g id="node8" class="node">
<title>7</title>
<text text-anchor="middle" x="170.75" y="-0.95" font-family="Times,serif" font-size="14.00">* ab d</text>
</g>
<!-- 5&#45;&gt;7 -->
<g id="edge7" class="edge">
<title>5&#45;&gt;7</title>
<path fill="none" stroke="blue" d="M147.15,-64.86C150.92,-55.79 158.38,-37.86 163.91,-24.57"/>
<polygon fill="blue" stroke="blue" points="167.09,-26.04 167.7,-15.46 160.63,-23.35 167.09,-26.04"/>
<text text-anchor="middle" x="163.45" y="-33.2" font-family="Times,serif" font-size="14.00">1</text>
</g>
</g>
</svg>