<?xml version="1.0" encoding="UTF-8" standalone="no"?>
<!DOCTYPE svg PUBLIC "-//W3C//DTD SVG 1.1//EN"
 "http://www.w3.org/Graphics/SVG/1.1/DTD/svg11.dtd">
<!-- Generated by graphviz version 12.2.1 (20241206.2353)
 -->
<!-- Pages: 1 -->
<svg width="536pt" height="374pt"
 viewBox="0.00 0.00 536.38 374.00" xmlns="http://www.w3.org/2000/svg" xmlns:xlink="http://www.w3.org/1999/xlink">
<g id="graph0" class="graph" transform="scale(1 1) rotate(0) translate(4 370)">
<polygon fill="white" stroke="none" points="-4,4 -4,-370 532.38,-370 532.38,4 -4,4"/>
<!-- 0 -->
<g id="node1" class="node">
<title>0</title>
<text text-anchor="middle" x="151.88" y="-352.7" font-family="Times,serif" font-size="14.00">&lt;start&gt;</text>
</g>
<!-- 1 -->
<g id="node2" class="node">
<title>1</title>
<text text-anchor="middle" x="151.88" y="-302.45" font-family="Times,serif" font-size="14.00">&lt;url&gt;</text>
</g>
<!-- 0&#45;&gt;1 -->
<g id="edge1" class="edge">
<title>0&#45;&gt;1</title>
<path fill="none" stroke="black" d="M151.88,-351.96C151.88,-345.74 151.88,-335.65 151.88,-326.89"/>
<polygon fill="black" stroke="black" points="155.38,-327.1 151.88,-317.1 148.38,-327.1 155.38,-327.1"/>
</g>
<!-- 2 -->
<g id="node3" class="node">
<title>2</title>
<text text-anchor="middle" x="28.88" y="-252.2" font-family="Times,serif" font-size="14.00">&lt;scheme&gt;</text>
</g>
<!-- 1&#45;&gt;2 -->
<g id="edge2" class="edge">
<title>1&#45;&gt;2</title>
<path fill="none" stroke="black" d="M136.3,-301.51C115.78,-293.47 79.42,-279.2 54.74,-269.52"/>
<polygon fill="black" stroke="black" points="56.32,-266.38 45.74,-265.99 53.77,-272.9 56.32,-266.38"/>
</g>
<!-- 4 -->
<g id="node5" class="node">
<title>4</title>
<text text-anchor="middle" x="95.88" y="-252.2" font-family="Times,serif" font-size="14.00">://</text>
</g>
<!-- 1&#45;&gt;4 -->
<g id="edge4" class="edge">
<title>1&#45;&gt;4</title>
<path fill="none" stroke="black" d="M145.01,-301.71C136.33,-294.23 121.19,-281.19 110,-271.55"/>
<polygon fill="black" stroke="black" points="112.46,-269.04 102.6,-265.17 107.89,-274.34 112.46,-269.04"/>
</g>
<!-- 5 -->
<g id="node6" class="node">
<title>5</title>
<text text-anchor="middle" x="151.88" y="-252.2" font-family="Times,serif" font-size="14.00">&lt;authority&gt;</text>
</g>
<!-- 1&#45;&gt;5 -->
<g id="edge5" class="edge">
<title>1&#45;&gt;5</title>
<path fill="none" stroke="black" d="M151.88,-301.71C151.88,-295.49 151.88,-285.4 151.88,-276.64"/>
<polygon fill="black" stroke="black" points="155.38,-276.85 151.88,-266.85 148.38,-276.85 155.38,-276.85"/>
</g>
<!-- 11 -->
<g id="node12" class="node">
<title>11</title>
<text text-anchor="middle" x="229.88" y="-252.2" font-family="Times,serif" font-size="14.00">&lt;path&gt;</text>
</g>
<!-- 1&#45;&gt;11 -->
<g id="edge11" class="edge">
<title>1&#45;&gt;11</title>
<path fill="none" stroke="black" d="M161.75,-301.51C174.01,-293.93 195.18,-280.83 210.68,-271.25"/>
<polygon fill="black" stroke="black" points="212.37,-274.32 219.03,-266.08 208.69,-268.37 212.37,-274.32"/>
</g>
<!-- 15 -->
<g id="node16" class="node">
<title>15</title>
<text text-anchor="middle" x="326.88" y="-252.2" font-family="Times,serif" font-size="14.00">&lt;query&gt;</text>
</g>
<!-- 1&#45;&gt;15 -->
<g id="edge15" class="edge">
<title>1&#45;&gt;15</title>
<path fill="none" stroke="black" d="M167.41,-303.34C195.68,-295.55 256.13,-278.88 293.95,-268.45"/>
<polygon fill="black" stroke="black" points="294.73,-271.87 303.44,-265.84 292.87,-265.12 294.73,-271.87"/>
</g>
<!-- 3 -->
<g id="node4" class="node">
<title>3</title>
<text text-anchor="middle" x="21.88" y="-201.95" font-family="Times,serif" font-size="14.00">https</text>
</g>
<!-- 2&#45;&gt;3 -->
<g id="edge3" class="edge">
<title>2&#45;&gt;3</title>
<path fill="none" stroke="black" d="M28.02,-251.46C27.11,-245.24 25.65,-235.15 24.38,-226.39"/>
<polygon fill="black" stroke="black" points="27.86,-225.98 22.96,-216.59 20.93,-226.99 27.86,-225.98"/>
</g>
<!-- 6 -->
<g id="node7" class="node">
<title>6</title>
<text text-anchor="middle" x="72.88" y="-201.95" font-family="Times,serif" font-size="14.00">&lt;host&gt;</text>
</g>
<!-- 5&#45;&gt;6 -->
<g id="edge6" class="edge">
<title>5&#45;&gt;6</title>
<path fill="none" stroke="black" d="M141.87,-251.26C129.52,-243.72 108.24,-230.73 92.57,-221.16"/>
<polygon fill="black" stroke="black" points="94.45,-218.2 84.09,-215.98 90.8,-224.17 94.45,-218.2"/>
</g>
<!-- 8 -->
<g id="node9" class="node">
<title>8</title>
<text text-anchor="middle" x="125.88" y="-201.95" font-family="Times,serif" font-size="14.00">: (58)</text>
</g>
<!-- 5&#45;&gt;8 -->
<g id="edge8" class="edge">
<title>5&#45;&gt;8</title>
<path fill="none" stroke="black" d="M148.69,-251.46C145.18,-244.95 139.39,-234.21 134.52,-225.17"/>
<polygon fill="black" stroke="black" points="137.63,-223.57 129.81,-216.42 131.47,-226.89 137.63,-223.57"/>
</g>
<!-- 9 -->
<g id="node10" class="node">
<title>9</title>
<text text-anchor="middle" x="177.88" y="-201.95" font-family="Times,serif" font-size="14.00">&lt;port&gt;</text>
</g>
<!-- 5&#45;&gt;9 -->
<g id="edge9" class="edge">
<title>5&#45;&gt;9</title>
<path fill="none" stroke="black" d="M155.06,-251.46C158.57,-244.95 164.36,-234.21 169.23,-225.17"/>
<polygon fill="black" stroke="black" points="172.28,-226.89 173.94,-216.42 166.12,-223.57 172.28,-226.89"/>
</g>
<!-- 7 -->
<g id="node8" class="node">
<title>7</title>
<text text-anchor="middle" x="72.88" y="-151.7" font-family="Times,serif" font-size="14.00">cispa.saarland</text>
</g>
<!-- 6&#45;&gt;7 -->
<g id="edge7" class="edge">
<title>6&#45;&gt;7</title>
<path fill="none" stroke="black" d="M72.88,-201.21C72.88,-194.99 72.88,-184.9 72.88,-176.14"/>
<polygon fill="black" stroke="black" points="76.38,-176.35 72.88,-166.35 69.38,-176.35 76.38,-176.35"/>
</g>
<!-- 10 -->
<g id="node11" class="node">
<title>10</title>
<text text-anchor="middle" x="177.88" y="-151.7" font-family="Times,serif" font-size="14.00">80</text>
</g>
<!-- 9&#45;&gt;10 -->
<g id="edge10" class="edge">
<title>9&#45;&gt;10</title>
<path fill="none" stroke="black" d="M177.88,-201.21C177.88,-194.99 177.88,-184.9 177.88,-176.14"/>
<polygon fill="black" stroke="black" points="181.38,-176.35 177.88,-166.35 174.38,-176.35 181.38,-176.35"/>
</g>
<!-- 12 -->
<g id="node13" class="node">
<title>12</title>
<text text-anchor="middle" x="229.88" y="-201.95" font-family="Times,serif" font-size="14.00">/ (47)</text>
</g>
<!-- 11&#45;&gt;12 -->
<g id="edge12" class="edge">
<title>11&#45;&gt;12</title>
<path fill="none" stroke="black" d="M229.88,-251.46C229.88,-245.24 229.88,-235.15 229.88,-226.39"/>
<polygon fill="black" stroke="black" points="233.38,-226.6 229.88,-216.6 226.38,-226.6 233.38,-226.6"/>
</g>
<!-- 13 -->
<g id="node14" class="node">
<title>13</title>
<text text-anchor="middle" x="276.88" y="-201.95" font-family="Times,serif" font-size="14.00">&lt;id&gt;</text>
</g>
<!-- 11&#45;&gt;13 -->
<g id="edge13" class="edge">
<title>11&#45;&gt;13</title>
<path fill="none" stroke="black" d="M235.64,-251.46C242.47,-244.44 254.1,-232.51 263.26,-223.1"/>
<polygon fill="black" stroke="black" points="265.54,-225.78 270.01,-216.17 260.52,-220.9 265.54,-225.78"/>
</g>
<!-- 14 -->
<g id="node15" class="node">
<title>14</title>
<text text-anchor="middle" x="275.88" y="-151.7" font-family="Times,serif" font-size="14.00">def</text>
</g>
<!-- 13&#45;&gt;14 -->
<g id="edge14" class="edge">
<title>13&#45;&gt;14</title>
<path fill="none" stroke="black" d="M276.75,-201.21C276.62,-194.99 276.41,-184.9 276.23,-176.14"/>
<polygon fill="black" stroke="black" points="279.74,-176.28 276.03,-166.35 272.74,-176.42 279.74,-176.28"/>
</g>
<!-- 16 -->
<g id="node17" class="node">
<title>16</title>
<text text-anchor="middle" x="326.88" y="-201.95" font-family="Times,serif" font-size="14.00">? (63)</text>
</g>
<!-- 15&#45;&gt;16 -->
<g id="edge16" class="edge">
<title>15&#45;&gt;16</title>
<path fill="none" stroke="black" d="M326.88,-251.46C326.88,-245.24 326.88,-235.15 326.88,-226.39"/>
<polygon fill="black" stroke="black" points="330.38,-226.6 326.88,-216.6 323.38,-226.6 330.38,-226.6"/>
</g>
<!-- 17 -->
<g id="node18" class="node">
<title>17</title>
<text text-anchor="middle" x="389.88" y="-201.95" font-family="Times,serif" font-size="14.00">&lt;params&gt;</text>
</g>
<!-- 15&#45;&gt;17 -->
<g id="edge17" class="edge">
<title>15&#45;&gt;17</title>
<path fill="none" stroke="black" d="M334.85,-251.26C344.47,-243.9 360.87,-231.34 373.28,-221.84"/>
<polygon fill="black" stroke="black" points="375.15,-224.81 380.96,-215.96 370.89,-219.26 375.15,-224.81"/>
</g>
<!-- 18 -->
<g id="node19" class="node">
<title>18</title>
<text text-anchor="middle" x="327.88" y="-151.7" font-family="Times,serif" font-size="14.00">&lt;param&gt;</text>
</g>
<!-- 17&#45;&gt;18 -->
<g id="edge18" class="edge">
<title>17&#45;&gt;18</title>
<path fill="none" stroke="black" d="M382.02,-201.01C372.56,-193.65 356.42,-181.09 344.21,-171.59"/>
<polygon fill="black" stroke="black" points="346.71,-169.09 336.66,-165.71 342.41,-174.62 346.71,-169.09"/>
</g>
<!-- 25 -->
<g id="node26" class="node">
<title>25</title>
<text text-anchor="middle" x="389.88" y="-151.7" font-family="Times,serif" font-size="14.00">&amp; (38)</text>
</g>
<!-- 17&#45;&gt;25 -->
<g id="edge25" class="edge">
<title>17&#45;&gt;25</title>
<path fill="none" stroke="black" d="M389.88,-201.21C389.88,-194.99 389.88,-184.9 389.88,-176.14"/>
<polygon fill="black" stroke="black" points="393.38,-176.35 389.88,-166.35 386.38,-176.35 393.38,-176.35"/>
</g>
<!-- 26 -->
<g id="node27" class="node">
<title>26</title>
<text text-anchor="middle" x="460.88" y="-151.7" font-family="Times,serif" font-size="14.00">&lt;params&gt;</text>
</g>
<!-- 17&#45;&gt;26 -->
<g id="edge26" class="edge">
<title>17&#45;&gt;26</title>
<path fill="none" stroke="black" d="M398.87,-201.01C409.92,-193.5 428.93,-180.59 442.99,-171.03"/>
<polygon fill="black" stroke="black" points="444.62,-174.15 450.93,-165.64 440.69,-168.36 444.62,-174.15"/>
</g>
<!-- 19 -->
<g id="node20" class="node">
<title>19</title>
<text text-anchor="middle" x="276.88" y="-101.45" font-family="Times,serif" font-size="14.00">&lt;id&gt;</text>
</g>
<!-- 18&#45;&gt;19 -->
<g id="edge19" class="edge">
<title>18&#45;&gt;19</title>
<path fill="none" stroke="black" d="M321.62,-150.96C314.13,-143.87 301.33,-131.76 291.34,-122.31"/>
<polygon fill="black" stroke="black" points="293.95,-119.96 284.28,-115.63 289.14,-125.04 293.95,-119.96"/>
</g>
<!-- 21 -->
<g id="node22" class="node">
<title>21</title>
<text text-anchor="middle" x="325.88" y="-101.45" font-family="Times,serif" font-size="14.00">= (61)</text>
</g>
<!-- 18&#45;&gt;21 -->
<g id="edge21" class="edge">
<title>18&#45;&gt;21</title>
<path fill="none" stroke="black" d="M327.63,-150.96C327.37,-144.74 326.95,-134.65 326.59,-125.89"/>
<polygon fill="black" stroke="black" points="330.1,-125.95 326.18,-116.1 323.1,-126.24 330.1,-125.95"/>
</g>
<!-- 22 -->
<g id="node23" class="node">
<title>22</title>
<text text-anchor="middle" x="377.88" y="-101.45" font-family="Times,serif" font-size="14.00">&lt;nat&gt;</text>
</g>
<!-- 18&#45;&gt;22 -->
<g id="edge22" class="edge">
<title>18&#45;&gt;22</title>
<path fill="none" stroke="black" d="M334.01,-150.96C341.35,-143.87 353.9,-131.76 363.7,-122.31"/>
<polygon fill="black" stroke="black" points="365.84,-125.1 370.6,-115.64 360.98,-120.07 365.84,-125.1"/>
</g>
<!-- 20 -->
<g id="node21" class="node">
<title>20</title>
<text text-anchor="middle" x="276.88" y="-51.2" font-family="Times,serif" font-size="14.00">def</text>
</g>
<!-- 19&#45;&gt;20 -->
<g id="edge20" class="edge">
<title>19&#45;&gt;20</title>
<path fill="none" stroke="black" d="M276.88,-100.71C276.88,-94.49 276.88,-84.4 276.88,-75.64"/>
<polygon fill="black" stroke="black" points="280.38,-75.85 276.88,-65.85 273.38,-75.85 280.38,-75.85"/>
</g>
<!-- 23 -->
<g id="node24" class="node">
<title>23</title>
<text text-anchor="middle" x="364.88" y="-51.2" font-family="Times,serif" font-size="14.00">&lt;digit&gt;</text>
</g>
<!-- 22&#45;&gt;23 -->
<g id="edge23" class="edge">
<title>22&#45;&gt;23</title>
<path fill="none" stroke="black" d="M376.28,-100.71C374.59,-94.41 371.82,-84.17 369.44,-75.33"/>
<polygon fill="black" stroke="black" points="372.86,-74.55 366.88,-65.8 366.1,-76.37 372.86,-74.55"/>
</g>
<!-- 24 -->
<g id="node25" class="node">
<title>24</title>
<text text-anchor="middle" x="364.88" y="-0.95" font-family="Times,serif" font-size="14.00">7 (55)</text>
</g>
<!-- 23&#45;&gt;24 -->
<g id="edge24" class="edge">
<title>23&#45;&gt;24</title>
<path fill="none" stroke="black" d="M364.88,-50.46C364.88,-44.24 364.88,-34.15 364.88,-25.39"/>
<polygon fill="black" stroke="black" points="368.38,-25.6 364.88,-15.6 361.38,-25.6 368.38,-25.6"/>
</g>
<!-- 27 -->
<g id="node28" class="node">
<title>27</title>
<text text-anchor="middle" x="462.88" y="-101.45" font-family="Times,serif" font-size="14.00">&lt;param&gt;</text>
</g>
<!-- 26&#45;&gt;27 -->
<g id="edge27" class="edge">
<title>26&#45;&gt;27</title>
<path fill="none" stroke="black" d="M461.12,-150.96C461.38,-144.74 461.8,-134.65 462.16,-125.89"/>
<polygon fill="black" stroke="black" points="465.65,-126.24 462.57,-116.1 458.65,-125.95 465.65,-126.24"/>
</g>
<!-- 28 -->
<g id="node29" class="node">
<title>28</title>
<text text-anchor="middle" x="416.88" y="-51.2" font-family="Times,serif" font-size="14.00">&lt;id&gt;</text>
</g>
<!-- 27&#45;&gt;28 -->
<g id="edge28" class="edge">
<title>27&#45;&gt;28</title>
<path fill="none" stroke="black" d="M457.23,-100.71C450.61,-93.76 439.4,-82 430.47,-72.64"/>
<polygon fill="black" stroke="black" points="433.04,-70.26 423.61,-65.44 427.97,-75.09 433.04,-70.26"/>
</g>
<!-- 30 -->
<g id="node31" class="node">
<title>30</title>
<text text-anchor="middle" x="465.88" y="-51.2" font-family="Times,serif" font-size="14.00">= (61)</text>
</g>
<!-- 27&#45;&gt;30 -->
<g id="edge30" class="edge">
<title>27&#45;&gt;30</title>
<path fill="none" stroke="black" d="M463.24,-100.71C463.63,-94.49 464.26,-84.4 464.8,-75.64"/>
<polygon fill="black" stroke="black" points="468.28,-76.05 465.41,-65.85 461.3,-75.61 468.28,-76.05"/>
</g>
<!-- 31 -->
<g id="node32" class="node">
<title>31</title>
<text text-anchor="middle" x="514.88" y="-51.2" font-family="Times,serif" font-size="14.00">&lt;id&gt;</text>
</g>
<!-- 27&#45;&gt;31 -->
<g id="edge31" class="edge">
<title>27&#45;&gt;31</title>
<path fill="none" stroke="black" d="M469.25,-100.71C476.89,-93.62 489.94,-81.51 500.13,-72.06"/>
<polygon fill="black" stroke="black" points="502.39,-74.74 507.34,-65.37 497.63,-69.61 502.39,-74.74"/>
</g>
<!-- 29 -->
<g id="node30" class="node">
<title>29</title>
<text text-anchor="middle" x="416.88" y="-0.95" font-family="Times,serif" font-size="14.00">x23</text>
</g>
<!-- 28&#45;&gt;29 -->
<g id="edge29" class="edge">
<title>28&#45;&gt;29</title>
<path fill="none" stroke="black" d="M416.88,-50.46C416.88,-44.24 416.88,-34.15 416.88,-25.39"/>
<polygon fill="black" stroke="black" points="420.38,-25.6 416.88,-15.6 413.38,-25.6 420.38,-25.6"/>
</g>
<!-- 32 -->
<g id="node33" class="node">
<title>32</title>
<text text-anchor="middle" x="514.88" y="-0.95" font-family="Times,serif" font-size="14.00">abc</text>
</g>
<!-- 31&#45;&gt;32 -->
<g id="edge32" class="edge">
<title>31&#45;&gt;32</title>
<path fill="none" stroke="black" d="M514.88,-50.46C514.88,-44.24 514.88,-34.15 514.88,-25.39"/>
<polygon fill="black" stroke="black" points="518.38,-25.6 514.88,-15.6 511.38,-25.6 518.38,-25.6"/>
</g>
</g>
</svg>