<svg xmlns="http://www.w3.org/2000/svg" class="railroad-diagram" height="62" viewBox="0 0 310.5 62" width="310.5">
<g transform="translate(.5 .5)">
<style>/* <![CDATA[ */
    svg.railroad-diagram {
    }
    svg.railroad-diagram path {
        stroke-width:3;
        stroke:black;
        fill:white;
    }
    svg.railroad-diagram text {
        font:14px "Fira Mono", monospace;
        text-anchor:middle;
    }
    svg.railroad-diagram text.label{
        text-anchor:start;
    }
    svg.railroad-diagram text.comment{
        font:italic 12px "Fira Mono", monospace;
    }
    svg.railroad-diagram rect{
        stroke-width:2;
        stroke:black;
        fill:mistyrose;
    }

/* ]]> */
</style><g>
<path d="M20 21v20m10 -20v20m-10 -10h20"/></g><path d="M40 31h10"/><g>
<path d="M50 31h0.0"/><path d="M260.5 31h0.0"/><g class="non-terminal">
<path d="M50.0 31h0.0"/><path d="M121.0 31h0.0"/><rect height="22" width="71.0" x="50.0" y="20"/><text x="85.5" y="35">factor</text></g><path d="M121.0 31h10"/><path d="M131.0 31h10"/><g class="terminal">
<path d="M141.0 31h0.0"/><path d="M186.5 31h0.0"/><rect height="22" rx="10" ry="10" width="45.5" x="141.0" y="20"/><text x="163.75" y="35"> * </text></g><path d="M186.5 31h10"/><path d="M196.5 31h10"/><g class="non-terminal">
<path d="M206.5 31h0.0"/><path d="M260.5 31h0.0"/><rect height="22" width="54.0" x="206.5" y="20"/><text x="233.5" y="35">term</text></g></g><path d="M260.5 31h10"/><path d="M 270.5 31 h 20 m -10 -10 v 20 m 10 -20 v 20"/></g></svg>