<svg xmlns="http://www.w3.org/2000/svg" class="railroad-diagram" height="152" viewBox="0 0 313.5 152" width="313.5">
<g transform="translate(.5 .5)">
<style>/* <![CDATA[ */
    svg.railroad-diagram {
    }
    svg.railroad-diagram path {
        stroke-width:3;
        stroke:black;
        fill:white;
    }
    svg.railroad-diagram text {
        font:14px "Fira Mono", monospace;
        text-anchor:middle;
    }
    svg.railroad-diagram text.label{
        text-anchor:start;
    }
    svg.railroad-diagram text.comment{
        font:italic 12px "Fira Mono", monospace;
    }
    svg.railroad-diagram rect{
        stroke-width:2;
        stroke:black;
        fill:mistyrose;
    }

/* ]]> */
</style><g>
<path d="M20 81v20m10 -20v20m-10 -10h20"/></g><g>
<path d="M40 91h0.0"/><path d="M273.5 91h0.0"/><path d="M40.0 91a10 10 0 0 0 10 -10v-10a10 10 0 0 1 10 -10"/><g>
<path d="M60.0 61h0.0"/><path d="M253.5 61h0.0"/><g class="non-terminal">
<path d="M60.0 61h0.0"/><path d="M122.5 61h0.0"/><rect height="22" width="62.5" x="60.0" y="50"/><text x="91.25" y="65">aexpr</text></g><path d="M122.5 61h10"/><path d="M132.5 61h10"/><g class="terminal">
<path d="M142.5 61h0.0"/><path d="M171.0 61h0.0"/><rect height="22" rx="10" ry="10" width="28.5" x="142.5" y="50"/><text x="156.75" y="65">-</text></g><path d="M171.0 61h10"/><path d="M181.0 61h10"/><g class="non-terminal">
<path d="M191.0 61h0.0"/><path d="M253.5 61h0.0"/><rect height="22" width="62.5" x="191.0" y="50"/><text x="222.25" y="65">aexpr</text></g></g><path d="M253.5 61a10 10 0 0 1 10 10v10a10 10 0 0 0 10 10"/><path d="M40.0 91a10 10 0 0 0 10 -10v-40a10 10 0 0 1 10 -10"/><g>
<path d="M60.0 31h0.0"/><path d="M253.5 31h0.0"/><g class="non-terminal">
<path d="M60.0 31h0.0"/><path d="M122.5 31h0.0"/><rect height="22" width="62.5" x="60.0" y="20"/><text x="91.25" y="35">aexpr</text></g><path d="M122.5 31h10"/><path d="M132.5 31h10"/><g class="terminal">
<path d="M142.5 31h0.0"/><path d="M171.0 31h0.0"/><rect height="22" rx="10" ry="10" width="28.5" x="142.5" y="20"/><text x="156.75" y="35">+</text></g><path d="M171.0 31h10"/><path d="M181.0 31h10"/><g class="non-terminal">
<path d="M191.0 31h0.0"/><path d="M253.5 31h0.0"/><rect height="22" width="62.5" x="191.0" y="20"/><text x="222.25" y="35">aexpr</text></g></g><path d="M253.5 31a10 10 0 0 1 10 10v40a10 10 0 0 0 10 10"/><path d="M40.0 91h20"/><g>
<path d="M60.0 91h17.0"/><path d="M236.5 91h17.0"/><g class="terminal">
<path d="M77.0 91h0.0"/><path d="M105.5 91h0.0"/><rect height="22" rx="10" ry="10" width="28.5" x="77.0" y="80"/><text x="91.25" y="95">(</text></g><path d="M105.5 91h10"/><path d="M115.5 91h10"/><g class="non-terminal">
<path d="M125.5 91h0.0"/><path d="M188.0 91h0.0"/><rect height="22" width="62.5" x="125.5" y="80"/><text x="156.75" y="95">aexpr</text></g><path d="M188.0 91h10"/><path d="M198.0 91h10"/><g class="terminal">
<path d="M208.0 91h0.0"/><path d="M236.5 91h0.0"/><rect height="22" rx="10" ry="10" width="28.5" x="208.0" y="80"/><text x="222.25" y="95">)</text></g></g><path d="M253.5 91h20"/><path d="M40.0 91a10 10 0 0 1 10 10v10a10 10 0 0 0 10 10"/><g>
<path d="M60.0 121h57.0"/><path d="M196.5 121h57.0"/><g class="non-terminal">
<path d="M117.0 121h0.0"/><path d="M196.5 121h0.0"/><rect height="22" width="79.5" x="117.0" y="110"/><text x="156.75" y="125">integer</text></g></g><path d="M253.5 121a10 10 0 0 0 10 -10v-10a10 10 0 0 1 10 -10"/></g><path d="M 273.5 91 h 20 m -10 -10 v 20 m 10 -20 v 20"/></g></svg>