<?xml version="1.0" encoding="UTF-8" standalone="no"?>
<!DOCTYPE svg PUBLIC "-//W3C//DTD SVG 1.1//EN"
 "http://www.w3.org/Graphics/SVG/1.1/DTD/svg11.dtd">
<!-- Generated by graphviz version 2.40.1 (20161225.0304)
 -->
<!-- Title: %3 Pages: 1 -->
<svg width="464pt" height="533pt"
 viewBox="0.00 0.00 464.00 533.00" xmlns="http://www.w3.org/2000/svg" xmlns:xlink="http://www.w3.org/1999/xlink">
<g id="graph0" class="graph" transform="scale(1 1) rotate(0) translate(4 529)">
<title>%3</title>
<polygon fill="#ffffff" stroke="transparent" points="-4,4 -4,-529 460,-529 460,4 -4,4"/>
<!-- 0 -->
<g id="node1" class="node">
<title>0</title>
<text text-anchor="middle" x="198.5" y="-513.8" font-family="Times,serif" font-size="14.00" fill="#000000">&lt;start&gt;</text>
</g>
<!-- 1 -->
<g id="node2" class="node">
<title>1</title>
<text text-anchor="middle" x="198.5" y="-462.8" font-family="Times,serif" font-size="14.00" fill="#000000">&lt;statements&gt;</text>
</g>
<!-- 0&#45;&gt;1 -->
<g id="edge1" class="edge">
<title>0&#45;&gt;1</title>
<path fill="none" stroke="#000000" d="M198.5,-509.9748C198.5,-503.195 198.5,-492.966 198.5,-484.1331"/>
<polygon fill="#000000" stroke="#000000" points="202.0001,-484.0561 198.5,-474.0561 195.0001,-484.0561 202.0001,-484.0561"/>
</g>
<!-- 2 -->
<g id="node3" class="node">
<title>2</title>
<text text-anchor="middle" x="134.5" y="-411.8" font-family="Times,serif" font-size="14.00" fill="#000000">&lt;statement&gt;</text>
</g>
<!-- 1&#45;&gt;2 -->
<g id="edge2" class="edge">
<title>1&#45;&gt;2</title>
<path fill="none" stroke="#000000" d="M189.0566,-458.9748C179.3197,-451.2157 163.9137,-438.939 151.9526,-429.4075"/>
<polygon fill="#000000" stroke="#000000" points="153.984,-426.551 143.9822,-423.0561 149.6216,-432.0254 153.984,-426.551"/>
</g>
<!-- 12 -->
<g id="node13" class="node">
<title>12</title>
<text text-anchor="middle" x="198.5" y="-411.8" font-family="Times,serif" font-size="14.00" fill="#000000">;</text>
</g>
<!-- 1&#45;&gt;12 -->
<g id="edge12" class="edge">
<title>1&#45;&gt;12</title>
<path fill="none" stroke="#000000" d="M198.5,-458.9748C198.5,-452.195 198.5,-441.966 198.5,-433.1331"/>
<polygon fill="#000000" stroke="#000000" points="202.0001,-433.0561 198.5,-423.0561 195.0001,-433.0561 202.0001,-433.0561"/>
</g>
<!-- 13 -->
<g id="node14" class="node">
<title>13</title>
<text text-anchor="middle" x="260.5" y="-411.8" font-family="Times,serif" font-size="14.00" fill="#000000">&lt;statements&gt;</text>
</g>
<!-- 1&#45;&gt;13 -->
<g id="edge13" class="edge">
<title>1&#45;&gt;13</title>
<path fill="none" stroke="#000000" d="M207.6483,-458.9748C216.9894,-451.291 231.7162,-439.177 243.2544,-429.6859"/>
<polygon fill="#000000" stroke="#000000" points="245.8147,-432.1119 251.3142,-423.0561 241.3678,-426.7058 245.8147,-432.1119"/>
</g>
<!-- 3 -->
<g id="node4" class="node">
<title>3</title>
<text text-anchor="middle" x="117.5" y="-360.8" font-family="Times,serif" font-size="14.00" fill="#000000">&lt;assignment&gt;</text>
</g>
<!-- 2&#45;&gt;3 -->
<g id="edge3" class="edge">
<title>2&#45;&gt;3</title>
<path fill="none" stroke="#000000" d="M131.9916,-407.9748C129.6814,-401.0443 126.1699,-390.5097 123.1821,-381.5464"/>
<polygon fill="#000000" stroke="#000000" points="126.5014,-380.4361 120.0187,-372.0561 119.8607,-382.6498 126.5014,-380.4361"/>
</g>
<!-- 4 -->
<g id="node5" class="node">
<title>4</title>
<text text-anchor="middle" x="33.5" y="-309.8" font-family="Times,serif" font-size="14.00" fill="#000000">&lt;identifier&gt;</text>
</g>
<!-- 3&#45;&gt;4 -->
<g id="edge4" class="edge">
<title>3&#45;&gt;4</title>
<path fill="none" stroke="#000000" d="M105.1055,-356.9748C91.8295,-348.9143 70.5237,-335.9787 54.5986,-326.3099"/>
<polygon fill="#000000" stroke="#000000" points="56.3097,-323.2542 45.9453,-321.0561 52.6768,-329.2377 56.3097,-323.2542"/>
</g>
<!-- 6 -->
<g id="node7" class="node">
<title>6</title>
<text text-anchor="middle" x="89.5" y="-309.8" font-family="Times,serif" font-size="14.00" fill="#000000">=</text>
</g>
<!-- 3&#45;&gt;6 -->
<g id="edge6" class="edge">
<title>3&#45;&gt;6</title>
<path fill="none" stroke="#000000" d="M113.3685,-356.9748C109.4808,-349.8936 103.5274,-339.05 98.5391,-329.9641"/>
<polygon fill="#000000" stroke="#000000" points="101.5291,-328.1375 93.6484,-321.0561 95.3931,-331.5063 101.5291,-328.1375"/>
</g>
<!-- 7 -->
<g id="node8" class="node">
<title>7</title>
<text text-anchor="middle" x="132.5" y="-309.8" font-family="Times,serif" font-size="14.00" fill="#000000">&lt;expr&gt;</text>
</g>
<!-- 3&#45;&gt;7 -->
<g id="edge7" class="edge">
<title>3&#45;&gt;7</title>
<path fill="none" stroke="#000000" d="M119.7133,-356.9748C121.7295,-350.1196 124.7829,-339.7383 127.4002,-330.8392"/>
<polygon fill="#000000" stroke="#000000" points="130.8137,-331.6374 130.2776,-321.0561 124.0981,-329.6622 130.8137,-331.6374"/>
</g>
<!-- 5 -->
<g id="node6" class="node">
<title>5</title>
<text text-anchor="middle" x="33.5" y="-258.8" font-family="Times,serif" font-size="14.00" fill="#000000">a</text>
</g>
<!-- 4&#45;&gt;5 -->
<g id="edge5" class="edge">
<title>4&#45;&gt;5</title>
<path fill="none" stroke="#000000" d="M33.5,-305.9748C33.5,-299.195 33.5,-288.966 33.5,-280.1331"/>
<polygon fill="#000000" stroke="#000000" points="37.0001,-280.0561 33.5,-270.0561 30.0001,-280.0561 37.0001,-280.0561"/>
</g>
<!-- 8 -->
<g id="node9" class="node">
<title>8</title>
<text text-anchor="middle" x="95.5" y="-258.8" font-family="Times,serif" font-size="14.00" fill="#000000">&lt;term&gt;</text>
</g>
<!-- 7&#45;&gt;8 -->
<g id="edge8" class="edge">
<title>7&#45;&gt;8</title>
<path fill="none" stroke="#000000" d="M127.0405,-305.9748C121.7939,-298.743 113.7002,-287.5868 107.0256,-278.3866"/>
<polygon fill="#000000" stroke="#000000" points="109.6872,-276.095 100.9819,-270.0561 104.0212,-280.2056 109.6872,-276.095"/>
</g>
<!-- 9 -->
<g id="node10" class="node">
<title>9</title>
<text text-anchor="middle" x="95.5" y="-207.8" font-family="Times,serif" font-size="14.00" fill="#000000">&lt;factor&gt;</text>
</g>
<!-- 8&#45;&gt;9 -->
<g id="edge9" class="edge">
<title>8&#45;&gt;9</title>
<path fill="none" stroke="#000000" d="M95.5,-254.9748C95.5,-248.195 95.5,-237.966 95.5,-229.1331"/>
<polygon fill="#000000" stroke="#000000" points="99.0001,-229.0561 95.5,-219.0561 92.0001,-229.0561 99.0001,-229.0561"/>
</g>
<!-- 10 -->
<g id="node11" class="node">
<title>10</title>
<text text-anchor="middle" x="95.5" y="-156.8" font-family="Times,serif" font-size="14.00" fill="#000000">&lt;number&gt;</text>
</g>
<!-- 9&#45;&gt;10 -->
<g id="edge10" class="edge">
<title>9&#45;&gt;10</title>
<path fill="none" stroke="#000000" d="M95.5,-203.9748C95.5,-197.195 95.5,-186.966 95.5,-178.1331"/>
<polygon fill="#000000" stroke="#000000" points="99.0001,-178.0561 95.5,-168.0561 92.0001,-178.0561 99.0001,-178.0561"/>
</g>
<!-- 11 -->
<g id="node12" class="node">
<title>11</title>
<text text-anchor="middle" x="95.5" y="-105.8" font-family="Times,serif" font-size="14.00" fill="#000000">1</text>
</g>
<!-- 10&#45;&gt;11 -->
<g id="edge11" class="edge">
<title>10&#45;&gt;11</title>
<path fill="none" stroke="#000000" d="M95.5,-152.9748C95.5,-146.195 95.5,-135.966 95.5,-127.1331"/>
<polygon fill="#000000" stroke="#000000" points="99.0001,-127.0561 95.5,-117.0561 92.0001,-127.0561 99.0001,-127.0561"/>
</g>
<!-- 14 -->
<g id="node15" class="node">
<title>14</title>
<text text-anchor="middle" x="224.5" y="-360.8" font-family="Times,serif" font-size="14.00" fill="#000000">&lt;statement&gt;</text>
</g>
<!-- 13&#45;&gt;14 -->
<g id="edge14" class="edge">
<title>13&#45;&gt;14</title>
<path fill="none" stroke="#000000" d="M255.1881,-407.9748C250.0833,-400.743 242.2084,-389.5868 235.7141,-380.3866"/>
<polygon fill="#000000" stroke="#000000" points="238.46,-378.2074 229.8337,-372.0561 232.7412,-382.2442 238.46,-378.2074"/>
</g>
<!-- 24 -->
<g id="node25" class="node">
<title>24</title>
<text text-anchor="middle" x="279.5" y="-360.8" font-family="Times,serif" font-size="14.00" fill="#000000">;</text>
</g>
<!-- 13&#45;&gt;24 -->
<g id="edge24" class="edge">
<title>13&#45;&gt;24</title>
<path fill="none" stroke="#000000" d="M263.3035,-407.9748C266.0635,-400.5663 270.3578,-389.0395 273.8313,-379.716"/>
<polygon fill="#000000" stroke="#000000" points="277.1793,-380.7547 277.3906,-370.162 270.6197,-378.3109 277.1793,-380.7547"/>
</g>
<!-- 25 -->
<g id="node26" class="node">
<title>25</title>
<text text-anchor="middle" x="339.5" y="-360.8" font-family="Times,serif" font-size="14.00" fill="#000000">&lt;statements&gt;</text>
</g>
<!-- 13&#45;&gt;25 -->
<g id="edge25" class="edge">
<title>13&#45;&gt;25</title>
<path fill="none" stroke="#000000" d="M272.1567,-407.9748C284.5258,-399.9897 304.3062,-387.22 319.236,-377.5818"/>
<polygon fill="#000000" stroke="#000000" points="321.2923,-380.4203 327.7955,-372.0561 317.4957,-374.5393 321.2923,-380.4203"/>
</g>
<!-- 15 -->
<g id="node16" class="node">
<title>15</title>
<text text-anchor="middle" x="224.5" y="-309.8" font-family="Times,serif" font-size="14.00" fill="#000000">&lt;assignment&gt;</text>
</g>
<!-- 14&#45;&gt;15 -->
<g id="edge15" class="edge">
<title>14&#45;&gt;15</title>
<path fill="none" stroke="#000000" d="M224.5,-356.9748C224.5,-350.195 224.5,-339.966 224.5,-331.1331"/>
<polygon fill="#000000" stroke="#000000" points="228.0001,-331.0561 224.5,-321.0561 221.0001,-331.0561 228.0001,-331.0561"/>
</g>
<!-- 16 -->
<g id="node17" class="node">
<title>16</title>
<text text-anchor="middle" x="168.5" y="-258.8" font-family="Times,serif" font-size="14.00" fill="#000000">&lt;identifier&gt;</text>
</g>
<!-- 15&#45;&gt;16 -->
<g id="edge16" class="edge">
<title>15&#45;&gt;16</title>
<path fill="none" stroke="#000000" d="M216.237,-305.9748C207.8826,-298.3663 194.7586,-286.4141 184.384,-276.9658"/>
<polygon fill="#000000" stroke="#000000" points="186.547,-274.2017 176.7969,-270.0561 181.8337,-279.3771 186.547,-274.2017"/>
</g>
<!-- 18 -->
<g id="node19" class="node">
<title>18</title>
<text text-anchor="middle" x="224.5" y="-258.8" font-family="Times,serif" font-size="14.00" fill="#000000">=</text>
</g>
<!-- 15&#45;&gt;18 -->
<g id="edge18" class="edge">
<title>15&#45;&gt;18</title>
<path fill="none" stroke="#000000" d="M224.5,-305.9748C224.5,-299.195 224.5,-288.966 224.5,-280.1331"/>
<polygon fill="#000000" stroke="#000000" points="228.0001,-280.0561 224.5,-270.0561 221.0001,-280.0561 228.0001,-280.0561"/>
</g>
<!-- 19 -->
<g id="node20" class="node">
<title>19</title>
<text text-anchor="middle" x="267.5" y="-258.8" font-family="Times,serif" font-size="14.00" fill="#000000">&lt;expr&gt;</text>
</g>
<!-- 15&#45;&gt;19 -->
<g id="edge19" class="edge">
<title>15&#45;&gt;19</title>
<path fill="none" stroke="#000000" d="M230.8448,-305.9748C237.0692,-298.5923 246.7417,-287.1203 254.5881,-277.8142"/>
<polygon fill="#000000" stroke="#000000" points="257.359,-279.9574 261.1292,-270.0561 252.0073,-275.4452 257.359,-279.9574"/>
</g>
<!-- 17 -->
<g id="node18" class="node">
<title>17</title>
<text text-anchor="middle" x="168.5" y="-207.8" font-family="Times,serif" font-size="14.00" fill="#000000">b</text>
</g>
<!-- 16&#45;&gt;17 -->
<g id="edge17" class="edge">
<title>16&#45;&gt;17</title>
<path fill="none" stroke="#000000" d="M168.5,-254.9748C168.5,-248.195 168.5,-237.966 168.5,-229.1331"/>
<polygon fill="#000000" stroke="#000000" points="172.0001,-229.0561 168.5,-219.0561 165.0001,-229.0561 172.0001,-229.0561"/>
</g>
<!-- 20 -->
<g id="node21" class="node">
<title>20</title>
<text text-anchor="middle" x="254.5" y="-207.8" font-family="Times,serif" font-size="14.00" fill="#000000">&lt;term&gt;</text>
</g>
<!-- 19&#45;&gt;20 -->
<g id="edge20" class="edge">
<title>19&#45;&gt;20</title>
<path fill="none" stroke="#000000" d="M265.5818,-254.9748C263.8344,-248.1196 261.1882,-237.7383 258.9198,-228.8392"/>
<polygon fill="#000000" stroke="#000000" points="262.2877,-227.8817 256.4261,-219.0561 255.5046,-229.6108 262.2877,-227.8817"/>
</g>
<!-- 21 -->
<g id="node22" class="node">
<title>21</title>
<text text-anchor="middle" x="254.5" y="-156.8" font-family="Times,serif" font-size="14.00" fill="#000000">&lt;factor&gt;</text>
</g>
<!-- 20&#45;&gt;21 -->
<g id="edge21" class="edge">
<title>20&#45;&gt;21</title>
<path fill="none" stroke="#000000" d="M254.5,-203.9748C254.5,-197.195 254.5,-186.966 254.5,-178.1331"/>
<polygon fill="#000000" stroke="#000000" points="258.0001,-178.0561 254.5,-168.0561 251.0001,-178.0561 258.0001,-178.0561"/>
</g>
<!-- 22 -->
<g id="node23" class="node">
<title>22</title>
<text text-anchor="middle" x="254.5" y="-105.8" font-family="Times,serif" font-size="14.00" fill="#000000">&lt;number&gt;</text>
</g>
<!-- 21&#45;&gt;22 -->
<g id="edge22" class="edge">
<title>21&#45;&gt;22</title>
<path fill="none" stroke="#000000" d="M254.5,-152.9748C254.5,-146.195 254.5,-135.966 254.5,-127.1331"/>
<polygon fill="#000000" stroke="#000000" points="258.0001,-127.0561 254.5,-117.0561 251.0001,-127.0561 258.0001,-127.0561"/>
</g>
<!-- 23 -->
<g id="node24" class="node">
<title>23</title>
<text text-anchor="middle" x="254.5" y="-54.8" font-family="Times,serif" font-size="14.00" fill="#000000">2</text>
</g>
<!-- 22&#45;&gt;23 -->
<g id="edge23" class="edge">
<title>22&#45;&gt;23</title>
<path fill="none" stroke="#000000" d="M254.5,-101.9748C254.5,-95.195 254.5,-84.966 254.5,-76.1331"/>
<polygon fill="#000000" stroke="#000000" points="258.0001,-76.0561 254.5,-66.0561 251.0001,-76.0561 258.0001,-76.0561"/>
</g>
<!-- 26 -->
<g id="node27" class="node">
<title>26</title>
<text text-anchor="middle" x="343.5" y="-309.8" font-family="Times,serif" font-size="14.00" fill="#000000">&lt;statement&gt;</text>
</g>
<!-- 25&#45;&gt;26 -->
<g id="edge26" class="edge">
<title>25&#45;&gt;26</title>
<path fill="none" stroke="#000000" d="M340.0902,-356.9748C340.622,-350.195 341.4242,-339.966 342.117,-331.1331"/>
<polygon fill="#000000" stroke="#000000" points="345.6146,-331.2992 342.9074,-321.0561 338.6361,-330.7518 345.6146,-331.2992"/>
</g>
<!-- 27 -->
<g id="node28" class="node">
<title>27</title>
<text text-anchor="middle" x="370.5" y="-258.8" font-family="Times,serif" font-size="14.00" fill="#ff0000">&lt;assignment&gt;</text>
</g>
<!-- 26&#45;&gt;27 -->
<g id="edge27" class="edge">
<title>26&#45;&gt;27</title>
<path fill="none" stroke="#000000" d="M347.4839,-305.9748C351.2328,-298.8936 356.9735,-288.05 361.7837,-278.9641"/>
<polygon fill="#000000" stroke="#000000" points="364.914,-280.5316 366.4997,-270.0561 358.7275,-277.2564 364.914,-280.5316"/>
</g>
<!-- 28 -->
<g id="node29" class="node">
<title>28</title>
<text text-anchor="middle" x="327.5" y="-207.8" font-family="Times,serif" font-size="14.00" fill="#000000">&lt;identifier&gt;</text>
</g>
<!-- 27&#45;&gt;28 -->
<g id="edge28" class="edge">
<title>27&#45;&gt;28</title>
<path fill="none" stroke="#000000" d="M364.1552,-254.9748C357.9308,-247.5923 348.2583,-236.1203 340.4119,-226.8142"/>
<polygon fill="#000000" stroke="#000000" points="342.9927,-224.4452 333.8708,-219.0561 337.641,-228.9574 342.9927,-224.4452"/>
</g>
<!-- 30 -->
<g id="node31" class="node">
<title>30</title>
<text text-anchor="middle" x="383.5" y="-207.8" font-family="Times,serif" font-size="14.00" fill="#000000">=</text>
</g>
<!-- 27&#45;&gt;30 -->
<g id="edge30" class="edge">
<title>27&#45;&gt;30</title>
<path fill="none" stroke="#000000" d="M372.4182,-254.9748C374.1656,-248.1196 376.8118,-237.7383 379.0802,-228.8392"/>
<polygon fill="#000000" stroke="#000000" points="382.4954,-229.6108 381.5739,-219.0561 375.7123,-227.8817 382.4954,-229.6108"/>
</g>
<!-- 31 -->
<g id="node32" class="node">
<title>31</title>
<text text-anchor="middle" x="426.5" y="-207.8" font-family="Times,serif" font-size="14.00" fill="#000000">&lt;expr&gt;</text>
</g>
<!-- 27&#45;&gt;31 -->
<g id="edge31" class="edge">
<title>27&#45;&gt;31</title>
<path fill="none" stroke="#000000" d="M378.763,-254.9748C387.1174,-247.3663 400.2414,-235.4141 410.616,-225.9658"/>
<polygon fill="#000000" stroke="#000000" points="413.1663,-228.3771 418.2031,-219.0561 408.453,-223.2017 413.1663,-228.3771"/>
</g>
<!-- 29 -->
<g id="node30" class="node">
<title>29</title>
<text text-anchor="middle" x="327.5" y="-156.8" font-family="Times,serif" font-size="14.00" fill="#000000">b</text>
</g>
<!-- 28&#45;&gt;29 -->
<g id="edge29" class="edge">
<title>28&#45;&gt;29</title>
<path fill="none" stroke="#000000" d="M327.5,-203.9748C327.5,-197.195 327.5,-186.966 327.5,-178.1331"/>
<polygon fill="#000000" stroke="#000000" points="331.0001,-178.0561 327.5,-168.0561 324.0001,-178.0561 331.0001,-178.0561"/>
</g>
<!-- 32 -->
<g id="node33" class="node">
<title>32</title>
<text text-anchor="middle" x="426.5" y="-156.8" font-family="Times,serif" font-size="14.00" fill="#000000">&lt;term&gt;</text>
</g>
<!-- 31&#45;&gt;32 -->
<g id="edge32" class="edge">
<title>31&#45;&gt;32</title>
<path fill="none" stroke="#000000" d="M426.5,-203.9748C426.5,-197.195 426.5,-186.966 426.5,-178.1331"/>
<polygon fill="#000000" stroke="#000000" points="430.0001,-178.0561 426.5,-168.0561 423.0001,-178.0561 430.0001,-178.0561"/>
</g>
<!-- 33 -->
<g id="node34" class="node">
<title>33</title>
<text text-anchor="middle" x="426.5" y="-105.8" font-family="Times,serif" font-size="14.00" fill="#000000">&lt;factor&gt;</text>
</g>
<!-- 32&#45;&gt;33 -->
<g id="edge33" class="edge">
<title>32&#45;&gt;33</title>
<path fill="none" stroke="#000000" d="M426.5,-152.9748C426.5,-146.195 426.5,-135.966 426.5,-127.1331"/>
<polygon fill="#000000" stroke="#000000" points="430.0001,-127.0561 426.5,-117.0561 423.0001,-127.0561 430.0001,-127.0561"/>
</g>
<!-- 34 -->
<g id="node35" class="node">
<title>34</title>
<text text-anchor="middle" x="426.5" y="-54.8" font-family="Times,serif" font-size="14.00" fill="#000000">&lt;number&gt;</text>
</g>
<!-- 33&#45;&gt;34 -->
<g id="edge34" class="edge">
<title>33&#45;&gt;34</title>
<path fill="none" stroke="#000000" d="M426.5,-101.9748C426.5,-95.195 426.5,-84.966 426.5,-76.1331"/>
<polygon fill="#000000" stroke="#000000" points="430.0001,-76.0561 426.5,-66.0561 423.0001,-76.0561 430.0001,-76.0561"/>
</g>
<!-- 35 -->
<g id="node36" class="node">
<title>35</title>
<text text-anchor="middle" x="426.5" y="-3.8" font-family="Times,serif" font-size="14.00" fill="#000000">2</text>
</g>
<!-- 34&#45;&gt;35 -->
<g id="edge35" class="edge">
<title>34&#45;&gt;35</title>
<path fill="none" stroke="#000000" d="M426.5,-50.9748C426.5,-44.195 426.5,-33.966 426.5,-25.1331"/>
<polygon fill="#000000" stroke="#000000" points="430.0001,-25.0561 426.5,-15.0561 423.0001,-25.0561 430.0001,-25.0561"/>
</g>
</g>
</svg>