<?xml version="1.0" encoding="UTF-8" standalone="no"?>
<!DOCTYPE svg PUBLIC "-//W3C//DTD SVG 1.1//EN"
 "http://www.w3.org/Graphics/SVG/1.1/DTD/svg11.dtd">
<!-- Generated by graphviz version 12.2.1 (20241206.2353)
 -->
<!-- Pages: 1 -->
<svg width="381pt" height="438pt"
 viewBox="0.00 0.00 380.83 438.25" xmlns="http://www.w3.org/2000/svg" xmlns:xlink="http://www.w3.org/1999/xlink">
<g id="graph0" class="graph" transform="scale(1 1) rotate(0) translate(4 434.25)">
<polygon fill="white" stroke="none" points="-4,4 -4,-434.25 376.83,-434.25 376.83,4 -4,4"/>
<!-- 1 -->
<g id="node1" class="node">
<title>1</title>
<ellipse fill="none" stroke="black" cx="186.42" cy="-408.25" rx="60.26" ry="18"/>
<ellipse fill="none" stroke="black" cx="186.42" cy="-408.25" rx="64.26" ry="22"/>
<text text-anchor="middle" x="186.42" y="-402.07" font-family="Times,serif" font-size="14.00">1: enter: fib(n)</text>
</g>
<!-- 3 -->
<g id="node4" class="node">
<title>3</title>
<polygon fill="none" stroke="black" points="228.92,-349.25 143.92,-349.25 143.92,-313.25 228.92,-313.25 228.92,-349.25"/>
<text text-anchor="middle" x="186.42" y="-325.07" font-family="Times,serif" font-size="14.00">2: ls = [0, 1]</text>
</g>
<!-- 1&#45;&gt;3 -->
<g id="edge2" class="edge">
<title>1&#45;&gt;3</title>
<path fill="none" stroke="black" d="M186.42,-385.96C186.42,-378.07 186.42,-369 186.42,-360.58"/>
<polygon fill="black" stroke="black" points="189.92,-360.82 186.42,-350.82 182.92,-360.82 189.92,-360.82"/>
</g>
<!-- 2 -->
<g id="node2" class="node">
<title>2</title>
<ellipse fill="none" stroke="black" cx="77.42" cy="-22" rx="55.97" ry="18"/>
<ellipse fill="none" stroke="black" cx="77.42" cy="-22" rx="59.97" ry="22"/>
<text text-anchor="middle" x="77.42" y="-15.82" font-family="Times,serif" font-size="14.00">1: exit: fib(n)</text>
</g>
<!-- 8 -->
<g id="node3" class="node">
<title>8</title>
<polygon fill="none" stroke="black" points="115.04,-117 39.79,-117 39.79,-81 115.04,-81 115.04,-117"/>
<text text-anchor="middle" x="77.42" y="-92.83" font-family="Times,serif" font-size="14.00">5: return ls</text>
</g>
<!-- 8&#45;&gt;2 -->
<g id="edge1" class="edge">
<title>8&#45;&gt;2</title>
<path fill="none" stroke="black" d="M77.42,-80.6C77.42,-73.17 77.42,-64.23 77.42,-55.64"/>
<polygon fill="black" stroke="black" points="80.92,-55.83 77.42,-45.83 73.92,-55.83 80.92,-55.83"/>
</g>
<!-- 4 -->
<g id="node5" class="node">
<title>4</title>
<polygon fill="none" stroke="black" points="267.17,-276.25 105.67,-276.25 105.67,-240.25 267.17,-240.25 267.17,-276.25"/>
<text text-anchor="middle" x="186.42" y="-252.07" font-family="Times,serif" font-size="14.00">3: __iv = iter(range(n &#45; 2))</text>
</g>
<!-- 3&#45;&gt;4 -->
<g id="edge3" class="edge">
<title>3&#45;&gt;4</title>
<path fill="none" stroke="black" d="M186.42,-313.06C186.42,-305.48 186.42,-296.35 186.42,-287.79"/>
<polygon fill="black" stroke="black" points="189.92,-287.79 186.42,-277.79 182.92,-287.79 189.92,-287.79"/>
</g>
<!-- 5 -->
<g id="node6" class="node">
<title>5</title>
<polygon fill="none" stroke="black" points="186.42,-203.25 0,-185.25 186.42,-167.25 372.83,-185.25 186.42,-203.25"/>
<text text-anchor="middle" x="186.42" y="-179.07" font-family="Times,serif" font-size="14.00">3: for: __iv.__length__hint__() &gt; 0</text>
</g>
<!-- 4&#45;&gt;5 -->
<g id="edge4" class="edge">
<title>4&#45;&gt;5</title>
<path fill="none" stroke="black" d="M186.42,-240.06C186.42,-232.48 186.42,-223.35 186.42,-214.79"/>
<polygon fill="black" stroke="black" points="189.92,-214.79 186.42,-204.79 182.92,-214.79 189.92,-214.79"/>
</g>
<!-- 5&#45;&gt;8 -->
<g id="edge8" class="edge">
<title>5&#45;&gt;8</title>
<path fill="none" stroke="red" d="M166.42,-168.8C150.34,-156.36 127.43,-138.66 108.89,-124.32"/>
<polygon fill="red" stroke="red" points="111.16,-121.66 101.11,-118.32 106.88,-127.2 111.16,-121.66"/>
<text text-anchor="middle" x="142.19" y="-135.95" font-family="Times,serif" font-size="14.00">F</text>
</g>
<!-- 6 -->
<g id="node8" class="node">
<title>6</title>
<polygon fill="none" stroke="black" points="239.42,-117 133.42,-117 133.42,-81 239.42,-81 239.42,-117"/>
<text text-anchor="middle" x="186.42" y="-92.83" font-family="Times,serif" font-size="14.00">3: i = next(__iv)</text>
</g>
<!-- 5&#45;&gt;6 -->
<g id="edge6" class="edge">
<title>5&#45;&gt;6</title>
<path fill="none" stroke="blue" d="M186.42,-166.79C186.42,-155.84 186.42,-141.44 186.42,-128.82"/>
<polygon fill="blue" stroke="blue" points="189.92,-128.95 186.42,-118.95 182.92,-128.95 189.92,-128.95"/>
<text text-anchor="middle" x="190.54" y="-135.95" font-family="Times,serif" font-size="14.00">T</text>
</g>
<!-- 7 -->
<g id="node7" class="node">
<title>7</title>
<polygon fill="none" stroke="black" points="336.04,-40 170.79,-40 170.79,-4 336.04,-4 336.04,-40"/>
<text text-anchor="middle" x="253.42" y="-15.82" font-family="Times,serif" font-size="14.00">4: ls.append(ls[&#45;1] + ls[&#45;2])</text>
</g>
<!-- 7&#45;&gt;5 -->
<g id="edge5" class="edge">
<title>7&#45;&gt;5</title>
<path fill="none" stroke="black" d="M255.9,-40.42C257.93,-59.9 258.95,-92 248.42,-117 241.25,-134 227.82,-149.42 215.28,-161.2"/>
<polygon fill="black" stroke="black" points="213.09,-158.46 207.96,-167.73 217.75,-163.68 213.09,-158.46"/>
</g>
<!-- 6&#45;&gt;7 -->
<g id="edge7" class="edge">
<title>6&#45;&gt;7</title>
<path fill="none" stroke="black" d="M201.96,-80.6C210.41,-71.14 221.04,-59.25 230.43,-48.73"/>
<polygon fill="black" stroke="black" points="232.9,-51.22 236.95,-41.43 227.68,-46.56 232.9,-51.22"/>
</g>
</g>
</svg>