<?xml version="1.0" encoding="UTF-8" standalone="no"?>
<!DOCTYPE svg PUBLIC "-//W3C//DTD SVG 1.1//EN"
 "http://www.w3.org/Graphics/SVG/1.1/DTD/svg11.dtd">
<!-- Generated by graphviz version 12.2.1 (20241206.2353)
 -->
<!-- Pages: 1 -->
<svg width="264pt" height="365pt"
 viewBox="0.00 0.00 263.62 365.25" xmlns="http://www.w3.org/2000/svg" xmlns:xlink="http://www.w3.org/1999/xlink">
<g id="graph0" class="graph" transform="scale(1 1) rotate(0) translate(4 361.25)">
<polygon fill="white" stroke="none" points="-4,4 -4,-361.25 259.62,-361.25 259.62,4 -4,4"/>
<!-- 1 -->
<g id="node1" class="node">
<title>1</title>
<ellipse fill="none" stroke="black" cx="128.74" cy="-335.25" rx="85.55" ry="18"/>
<ellipse fill="none" stroke="black" cx="128.74" cy="-335.25" rx="89.55" ry="22"/>
<text text-anchor="middle" x="128.74" y="-329.07" font-family="Times,serif" font-size="14.00">1: enter: abs_value(x)</text>
</g>
<!-- 3 -->
<g id="node4" class="node">
<title>3</title>
<polygon fill="none" stroke="black" points="128.74,-276.25 61.05,-258.25 128.74,-240.25 196.43,-258.25 128.74,-276.25"/>
<text text-anchor="middle" x="128.74" y="-252.07" font-family="Times,serif" font-size="14.00">2: if: x &lt; 0</text>
</g>
<!-- 1&#45;&gt;3 -->
<g id="edge2" class="edge">
<title>1&#45;&gt;3</title>
<path fill="none" stroke="black" d="M128.74,-312.96C128.74,-305.07 128.74,-296 128.74,-287.58"/>
<polygon fill="black" stroke="black" points="132.24,-287.82 128.74,-277.82 125.24,-287.82 132.24,-287.82"/>
</g>
<!-- 2 -->
<g id="node2" class="node">
<title>2</title>
<ellipse fill="none" stroke="black" cx="128.74" cy="-22" rx="81.25" ry="18"/>
<ellipse fill="none" stroke="black" cx="128.74" cy="-22" rx="85.25" ry="22"/>
<text text-anchor="middle" x="128.74" y="-15.82" font-family="Times,serif" font-size="14.00">1: exit: abs_value(x)</text>
</g>
<!-- 6 -->
<g id="node3" class="node">
<title>6</title>
<polygon fill="none" stroke="black" points="165.24,-117 92.24,-117 92.24,-81 165.24,-81 165.24,-117"/>
<text text-anchor="middle" x="128.74" y="-92.83" font-family="Times,serif" font-size="14.00">6: return v</text>
</g>
<!-- 6&#45;&gt;2 -->
<g id="edge1" class="edge">
<title>6&#45;&gt;2</title>
<path fill="none" stroke="black" d="M128.74,-80.6C128.74,-73.17 128.74,-64.23 128.74,-55.64"/>
<polygon fill="black" stroke="black" points="132.24,-55.83 128.74,-45.83 125.24,-55.83 132.24,-55.83"/>
</g>
<!-- 4 -->
<g id="node5" class="node">
<title>4</title>
<ellipse fill="none" stroke="black" cx="60.74" cy="-172" rx="60.74" ry="18"/>
<text text-anchor="middle" x="60.74" y="-165.82" font-family="Times,serif" font-size="14.00">3: v: float = &#45;x</text>
</g>
<!-- 3&#45;&gt;4 -->
<g id="edge3" class="edge">
<title>3&#45;&gt;4</title>
<path fill="none" stroke="blue" d="M117.2,-242.96C107.41,-230.83 93.13,-213.13 81.37,-198.56"/>
<polygon fill="blue" stroke="blue" points="84.4,-196.74 75.4,-191.16 78.95,-201.14 84.4,-196.74"/>
<text text-anchor="middle" x="102.94" y="-208.95" font-family="Times,serif" font-size="14.00">T</text>
</g>
<!-- 5 -->
<g id="node6" class="node">
<title>5</title>
<ellipse fill="none" stroke="black" cx="197.74" cy="-172" rx="57.88" ry="18"/>
<text text-anchor="middle" x="197.74" y="-165.82" font-family="Times,serif" font-size="14.00">5: v: float = x</text>
</g>
<!-- 3&#45;&gt;5 -->
<g id="edge4" class="edge">
<title>3&#45;&gt;5</title>
<path fill="none" stroke="red" d="M140.45,-242.96C150.44,-230.75 165.06,-212.9 177.03,-198.28"/>
<polygon fill="red" stroke="red" points="179.49,-200.81 183.12,-190.85 174.08,-196.37 179.49,-200.81"/>
<text text-anchor="middle" x="171.12" y="-208.95" font-family="Times,serif" font-size="14.00">F</text>
</g>
<!-- 4&#45;&gt;6 -->
<g id="edge5" class="edge">
<title>4&#45;&gt;6</title>
<path fill="none" stroke="black" d="M76.86,-154.17C85.06,-145.61 95.2,-135.02 104.34,-125.48"/>
<polygon fill="black" stroke="black" points="106.59,-128.18 110.98,-118.54 101.54,-123.34 106.59,-128.18"/>
</g>
<!-- 5&#45;&gt;6 -->
<g id="edge6" class="edge">
<title>5&#45;&gt;6</title>
<path fill="none" stroke="black" d="M181.74,-154.53C173.36,-145.91 162.92,-135.17 153.53,-125.51"/>
<polygon fill="black" stroke="black" points="156.15,-123.19 146.67,-118.45 151.13,-128.06 156.15,-123.19"/>
</g>
</g>
</svg>