<?xml version="1.0" encoding="UTF-8" standalone="no"?>
<!DOCTYPE svg PUBLIC "-//W3C//DTD SVG 1.1//EN"
 "http://www.w3.org/Graphics/SVG/1.1/DTD/svg11.dtd">
<!-- Generated by graphviz version 12.2.1 (20241206.2353)
 -->
<!-- Pages: 1 -->
<svg width="403pt" height="173pt"
 viewBox="0.00 0.00 403.38 173.00" xmlns="http://www.w3.org/2000/svg" xmlns:xlink="http://www.w3.org/1999/xlink">
<g id="graph0" class="graph" transform="scale(1 1) rotate(0) translate(4 169)">
<polygon fill="white" stroke="none" points="-4,4 -4,-169 399.38,-169 399.38,4 -4,4"/>
<!-- 0 -->
<g id="node1" class="node">
<title>0</title>
<text text-anchor="middle" x="178.88" y="-151.7" font-family="Times,serif" font-size="14.00">&lt;start&gt;</text>
</g>
<!-- 1 -->
<g id="node2" class="node">
<title>1</title>
<text text-anchor="middle" x="178.88" y="-101.45" font-family="Times,serif" font-size="14.00">&lt;vehicle&gt;</text>
</g>
<!-- 0&#45;&gt;1 -->
<g id="edge1" class="edge">
<title>0&#45;&gt;1</title>
<path fill="none" stroke="black" d="M178.88,-150.96C178.88,-144.74 178.88,-134.65 178.88,-125.89"/>
<polygon fill="black" stroke="black" points="182.38,-126.1 178.88,-116.1 175.38,-126.1 182.38,-126.1"/>
</g>
<!-- 2 -->
<g id="node3" class="node">
<title>2</title>
<text text-anchor="middle" x="19.88" y="-51.2" font-family="Times,serif" font-size="14.00">&lt;year&gt;</text>
</g>
<!-- 1&#45;&gt;2 -->
<g id="edge2" class="edge">
<title>1&#45;&gt;2</title>
<path fill="none" stroke="black" d="M158.74,-100.51C131.42,-92.23 82.39,-77.35 50.5,-67.67"/>
<polygon fill="black" stroke="black" points="51.63,-64.35 41.05,-64.8 49.6,-71.05 51.63,-64.35"/>
</g>
<!-- 4 -->
<g id="node5" class="node">
<title>4</title>
<text text-anchor="middle" x="72.88" y="-51.2" font-family="Times,serif" font-size="14.00">, (44)</text>
</g>
<!-- 1&#45;&gt;4 -->
<g id="edge4" class="edge">
<title>1&#45;&gt;4</title>
<path fill="none" stroke="black" d="M165.45,-100.51C148.17,-92.65 117.84,-78.84 96.62,-69.18"/>
<polygon fill="black" stroke="black" points="98.12,-66.02 87.57,-65.06 95.22,-72.39 98.12,-66.02"/>
</g>
<!-- 5 -->
<g id="node6" class="node">
<title>5</title>
<text text-anchor="middle" x="125.88" y="-51.2" font-family="Times,serif" font-size="14.00">&lt;kind&gt;</text>
</g>
<!-- 1&#45;&gt;5 -->
<g id="edge5" class="edge">
<title>1&#45;&gt;5</title>
<path fill="none" stroke="black" d="M172.38,-100.71C164.59,-93.62 151.29,-81.51 140.9,-72.06"/>
<polygon fill="black" stroke="black" points="143.3,-69.5 133.55,-65.36 138.58,-74.68 143.3,-69.5"/>
</g>
<!-- 7 -->
<g id="node8" class="node">
<title>7</title>
<text text-anchor="middle" x="178.88" y="-51.2" font-family="Times,serif" font-size="14.00">, (44)</text>
</g>
<!-- 1&#45;&gt;7 -->
<g id="edge7" class="edge">
<title>1&#45;&gt;7</title>
<path fill="none" stroke="black" d="M178.88,-100.71C178.88,-94.49 178.88,-84.4 178.88,-75.64"/>
<polygon fill="black" stroke="black" points="182.38,-75.85 178.88,-65.85 175.38,-75.85 182.38,-75.85"/>
</g>
<!-- 8 -->
<g id="node9" class="node">
<title>8</title>
<text text-anchor="middle" x="244.88" y="-51.2" font-family="Times,serif" font-size="14.00">&lt;company&gt;</text>
</g>
<!-- 1&#45;&gt;8 -->
<g id="edge8" class="edge">
<title>1&#45;&gt;8</title>
<path fill="none" stroke="black" d="M187.23,-100.51C197.41,-93.08 214.83,-80.34 227.87,-70.81"/>
<polygon fill="black" stroke="black" points="229.56,-73.91 235.57,-65.18 225.43,-68.25 229.56,-73.91"/>
</g>
<!-- 10 -->
<g id="node11" class="node">
<title>10</title>
<text text-anchor="middle" x="310.88" y="-51.2" font-family="Times,serif" font-size="14.00">, (44)</text>
</g>
<!-- 1&#45;&gt;10 -->
<g id="edge10" class="edge">
<title>1&#45;&gt;10</title>
<path fill="none" stroke="black" d="M195.59,-100.51C218.19,-92.25 258.71,-77.44 285.19,-67.76"/>
<polygon fill="black" stroke="black" points="286.31,-71.08 294.5,-64.36 283.9,-64.51 286.31,-71.08"/>
</g>
<!-- 11 -->
<g id="node12" class="node">
<title>11</title>
<text text-anchor="middle" x="369.88" y="-51.2" font-family="Times,serif" font-size="14.00">&lt;model&gt;</text>
</g>
<!-- 1&#45;&gt;11 -->
<g id="edge11" class="edge">
<title>1&#45;&gt;11</title>
<path fill="none" stroke="black" d="M203.07,-100.51C236.36,-92.1 296.52,-76.9 334.77,-67.24"/>
<polygon fill="black" stroke="black" points="335.58,-70.65 344.41,-64.81 333.86,-63.86 335.58,-70.65"/>
</g>
<!-- 3 -->
<g id="node4" class="node">
<title>3</title>
<text text-anchor="middle" x="19.88" y="-0.95" font-family="Times,serif" font-size="14.00">1997</text>
</g>
<!-- 2&#45;&gt;3 -->
<g id="edge3" class="edge">
<title>2&#45;&gt;3</title>
<path fill="none" stroke="black" d="M19.88,-50.46C19.88,-44.24 19.88,-34.15 19.88,-25.39"/>
<polygon fill="black" stroke="black" points="23.38,-25.6 19.88,-15.6 16.38,-25.6 23.38,-25.6"/>
</g>
<!-- 6 -->
<g id="node7" class="node">
<title>6</title>
<text text-anchor="middle" x="125.88" y="-0.95" font-family="Times,serif" font-size="14.00">van</text>
</g>
<!-- 5&#45;&gt;6 -->
<g id="edge6" class="edge">
<title>5&#45;&gt;6</title>
<path fill="none" stroke="black" d="M125.88,-50.46C125.88,-44.24 125.88,-34.15 125.88,-25.39"/>
<polygon fill="black" stroke="black" points="129.38,-25.6 125.88,-15.6 122.38,-25.6 129.38,-25.6"/>
</g>
<!-- 9 -->
<g id="node10" class="node">
<title>9</title>
<text text-anchor="middle" x="244.88" y="-0.95" font-family="Times,serif" font-size="14.00">Ford</text>
</g>
<!-- 8&#45;&gt;9 -->
<g id="edge9" class="edge">
<title>8&#45;&gt;9</title>
<path fill="none" stroke="black" d="M244.88,-50.46C244.88,-44.24 244.88,-34.15 244.88,-25.39"/>
<polygon fill="black" stroke="black" points="248.38,-25.6 244.88,-15.6 241.38,-25.6 248.38,-25.6"/>
</g>
<!-- 12 -->
<g id="node13" class="node">
<title>12</title>
<text text-anchor="middle" x="369.88" y="-0.95" font-family="Times,serif" font-size="14.00">E350</text>
</g>
<!-- 11&#45;&gt;12 -->
<g id="edge12" class="edge">
<title>11&#45;&gt;12</title>
<path fill="none" stroke="black" d="M369.88,-50.46C369.88,-44.24 369.88,-34.15 369.88,-25.39"/>
<polygon fill="black" stroke="black" points="373.38,-25.6 369.88,-15.6 366.38,-25.6 373.38,-25.6"/>
</g>
</g>
</svg>