<svg xmlns="http://www.w3.org/2000/svg" class="railroad-diagram" height="92" viewBox="0 0 245.5 92" width="245.5">
<g transform="translate(.5 .5)">
<style>/* <![CDATA[ */
    svg.railroad-diagram {
    }
    svg.railroad-diagram path {
        stroke-width:3;
        stroke:black;
        fill:white;
    }
    svg.railroad-diagram text {
        font:14px "Fira Mono", monospace;
        text-anchor:middle;
    }
    svg.railroad-diagram text.label{
        text-anchor:start;
    }
    svg.railroad-diagram text.comment{
        font:italic 12px "Fira Mono", monospace;
    }
    svg.railroad-diagram rect{
        stroke-width:2;
        stroke:black;
        fill:mistyrose;
    }

/* ]]> */
</style><g>
<path d="M20 51v20m10 -20v20m-10 -10h20"/></g><g>
<path d="M40 61h0.0"/><path d="M205.5 61h0.0"/><path d="M40.0 61a10 10 0 0 0 10 -10v-10a10 10 0 0 1 10 -10"/><g>
<path d="M60.0 31h0.0"/><path d="M185.5 31h0.0"/><g class="terminal">
<path d="M60.0 31h0.0"/><path d="M88.5 31h0.0"/><rect height="22" rx="10" ry="10" width="28.5" x="60.0" y="20"/><text x="74.25" y="35">a</text></g><path d="M88.5 31h10"/><path d="M98.5 31h10"/><g class="non-terminal">
<path d="M108.5 31h0.0"/><path d="M137.0 31h0.0"/><rect height="22" width="28.5" x="108.5" y="20"/><text x="122.75" y="35">B</text></g><path d="M137.0 31h10"/><path d="M147.0 31h10"/><g class="terminal">
<path d="M157.0 31h0.0"/><path d="M185.5 31h0.0"/><rect height="22" rx="10" ry="10" width="28.5" x="157.0" y="20"/><text x="171.25" y="35">c</text></g></g><path d="M185.5 31a10 10 0 0 1 10 10v10a10 10 0 0 0 10 10"/><path d="M40.0 61h20"/><g>
<path d="M60.0 61h24.25"/><path d="M161.25 61h24.25"/><g class="terminal">
<path d="M84.25 61h0.0"/><path d="M112.75 61h0.0"/><rect height="22" rx="10" ry="10" width="28.5" x="84.25" y="50"/><text x="98.5" y="65">a</text></g><path d="M112.75 61h10"/><path d="M122.75 61h10"/><g class="non-terminal">
<path d="M132.75 61h0.0"/><path d="M161.25 61h0.0"/><rect height="22" width="28.5" x="132.75" y="50"/><text x="147.0" y="65">A</text></g></g><path d="M185.5 61h20"/></g><path d="M 205.5 61 h 20 m -10 -10 v 20 m 10 -20 v 20"/></g></svg>