<?xml version="1.0" encoding="UTF-8" standalone="no"?>
<!DOCTYPE svg PUBLIC "-//W3C//DTD SVG 1.1//EN"
 "http://www.w3.org/Graphics/SVG/1.1/DTD/svg11.dtd">
<!-- Generated by graphviz version 12.2.1 (20241206.2353)
 -->
<!-- Pages: 1 -->
<svg width="332pt" height="671pt"
 viewBox="0.00 0.00 332.08 670.50" xmlns="http://www.w3.org/2000/svg" xmlns:xlink="http://www.w3.org/1999/xlink">
<g id="graph0" class="graph" transform="scale(1 1) rotate(0) translate(4 666.5)">
<polygon fill="white" stroke="none" points="-4,4 -4,-666.5 328.08,-666.5 328.08,4 -4,4"/>
<!-- 1 -->
<g id="node1" class="node">
<title>1</title>
<ellipse fill="none" stroke="black" cx="213.9" cy="-640.5" rx="72.19" ry="18"/>
<ellipse fill="none" stroke="black" cx="213.9" cy="-640.5" rx="76.19" ry="22"/>
<text text-anchor="middle" x="213.9" y="-634.33" font-family="Times,serif" font-size="14.00">1: enter: gcd(a, b)</text>
</g>
<!-- 3 -->
<g id="node4" class="node">
<title>3</title>
<polygon fill="none" stroke="black" points="213.9,-581.5 146.88,-563.5 213.9,-545.5 280.91,-563.5 213.9,-581.5"/>
<text text-anchor="middle" x="213.9" y="-557.33" font-family="Times,serif" font-size="14.00">2: if: a &lt; b</text>
</g>
<!-- 1&#45;&gt;3 -->
<g id="edge2" class="edge">
<title>1&#45;&gt;3</title>
<path fill="none" stroke="black" d="M213.9,-618.21C213.9,-610.32 213.9,-601.25 213.9,-592.83"/>
<polygon fill="black" stroke="black" points="217.4,-593.07 213.9,-583.07 210.4,-593.07 217.4,-593.07"/>
</g>
<!-- 2 -->
<g id="node2" class="node">
<title>2</title>
<ellipse fill="none" stroke="black" cx="71.9" cy="-95" rx="67.9" ry="18"/>
<ellipse fill="none" stroke="black" cx="71.9" cy="-95" rx="71.9" ry="22"/>
<text text-anchor="middle" x="71.9" y="-88.83" font-family="Times,serif" font-size="14.00">1: exit: gcd(a, b)</text>
</g>
<!-- 11 -->
<g id="node3" class="node">
<title>11</title>
<polygon fill="none" stroke="black" points="128.4,-190 49.4,-190 49.4,-154 128.4,-154 128.4,-190"/>
<text text-anchor="middle" x="88.9" y="-165.82" font-family="Times,serif" font-size="14.00">11: return a</text>
</g>
<!-- 11&#45;&gt;2 -->
<g id="edge1" class="edge">
<title>11&#45;&gt;2</title>
<path fill="none" stroke="black" d="M84.95,-153.6C83.25,-146.08 81.2,-137.03 79.23,-128.35"/>
<polygon fill="black" stroke="black" points="82.69,-127.77 77.06,-118.79 75.86,-129.32 82.69,-127.77"/>
</g>
<!-- 4 -->
<g id="node5" class="node">
<title>4</title>
<ellipse fill="none" stroke="black" cx="172.9" cy="-477.25" rx="50.72" ry="18"/>
<text text-anchor="middle" x="172.9" y="-471.07" font-family="Times,serif" font-size="14.00">3: c: int = a</text>
</g>
<!-- 3&#45;&gt;4 -->
<g id="edge3" class="edge">
<title>3&#45;&gt;4</title>
<path fill="none" stroke="blue" d="M206.38,-547.05C200.7,-535.39 192.77,-519.1 186.06,-505.3"/>
<polygon fill="blue" stroke="blue" points="189.4,-504.16 181.88,-496.7 183.11,-507.23 189.4,-504.16"/>
<text text-anchor="middle" x="199.98" y="-514.2" font-family="Times,serif" font-size="14.00">T</text>
</g>
<!-- 7 -->
<g id="node8" class="node">
<title>7</title>
<polygon fill="none" stroke="black" points="212.9,-276.25 121.6,-258.25 212.9,-240.25 304.19,-258.25 212.9,-276.25"/>
<text text-anchor="middle" x="212.9" y="-252.07" font-family="Times,serif" font-size="14.00">7: while: b != 0</text>
</g>
<!-- 3&#45;&gt;7 -->
<g id="edge7" class="edge">
<title>3&#45;&gt;7</title>
<path fill="none" stroke="red" d="M225.47,-548.26C237.28,-532.24 253.9,-504.97 253.9,-478.25 253.9,-478.25 253.9,-478.25 253.9,-330.25 253.9,-312.61 244.29,-295.41 234.37,-282.36"/>
<polygon fill="red" stroke="red" points="237.24,-280.33 228.19,-274.81 231.82,-284.77 237.24,-280.33"/>
<text text-anchor="middle" x="257.65" y="-398.07" font-family="Times,serif" font-size="14.00">F</text>
</g>
<!-- 5 -->
<g id="node6" class="node">
<title>5</title>
<ellipse fill="none" stroke="black" cx="166.9" cy="-404.25" rx="51.2" ry="18"/>
<text text-anchor="middle" x="166.9" y="-398.07" font-family="Times,serif" font-size="14.00">4: a: int = b</text>
</g>
<!-- 4&#45;&gt;5 -->
<g id="edge4" class="edge">
<title>4&#45;&gt;5</title>
<path fill="none" stroke="black" d="M171.44,-459.06C170.79,-451.39 170.01,-442.14 169.28,-433.49"/>
<polygon fill="black" stroke="black" points="172.79,-433.46 168.46,-423.79 165.82,-434.05 172.79,-433.46"/>
</g>
<!-- 6 -->
<g id="node7" class="node">
<title>6</title>
<ellipse fill="none" stroke="black" cx="172.9" cy="-331.25" rx="51.2" ry="18"/>
<text text-anchor="middle" x="172.9" y="-325.07" font-family="Times,serif" font-size="14.00">5: b: int = c</text>
</g>
<!-- 5&#45;&gt;6 -->
<g id="edge5" class="edge">
<title>5&#45;&gt;6</title>
<path fill="none" stroke="black" d="M168.35,-386.06C169,-378.39 169.78,-369.14 170.51,-360.49"/>
<polygon fill="black" stroke="black" points="173.97,-361.05 171.33,-350.79 167,-360.46 173.97,-361.05"/>
</g>
<!-- 6&#45;&gt;7 -->
<g id="edge6" class="edge">
<title>6&#45;&gt;7</title>
<path fill="none" stroke="black" d="M182.37,-313.42C187.19,-304.87 193.15,-294.3 198.52,-284.77"/>
<polygon fill="black" stroke="black" points="201.43,-286.73 203.29,-276.3 195.33,-283.3 201.43,-286.73"/>
</g>
<!-- 7&#45;&gt;11 -->
<g id="edge12" class="edge">
<title>7&#45;&gt;11</title>
<path fill="none" stroke="red" d="M192.97,-243.71C174.37,-231.07 146.19,-211.93 123.84,-196.74"/>
<polygon fill="red" stroke="red" points="125.84,-193.87 115.61,-191.15 121.91,-199.66 125.84,-193.87"/>
<text text-anchor="middle" x="162.07" y="-208.95" font-family="Times,serif" font-size="14.00">F</text>
</g>
<!-- 8 -->
<g id="node10" class="node">
<title>8</title>
<ellipse fill="none" stroke="black" cx="212.9" cy="-172" rx="50.72" ry="18"/>
<text text-anchor="middle" x="212.9" y="-165.82" font-family="Times,serif" font-size="14.00">8: c: int = a</text>
</g>
<!-- 7&#45;&gt;8 -->
<g id="edge9" class="edge">
<title>7&#45;&gt;8</title>
<path fill="none" stroke="blue" d="M212.9,-239.79C212.9,-228.84 212.9,-214.44 212.9,-201.82"/>
<polygon fill="blue" stroke="blue" points="216.4,-201.95 212.9,-191.95 209.4,-201.95 216.4,-201.95"/>
<text text-anchor="middle" x="217.02" y="-208.95" font-family="Times,serif" font-size="14.00">T</text>
</g>
<!-- 10 -->
<g id="node9" class="node">
<title>10</title>
<ellipse fill="none" stroke="black" cx="251.9" cy="-18" rx="72.19" ry="18"/>
<text text-anchor="middle" x="251.9" y="-11.82" font-family="Times,serif" font-size="14.00">10: b: int = c % b</text>
</g>
<!-- 10&#45;&gt;7 -->
<g id="edge8" class="edge">
<title>10&#45;&gt;7</title>
<path fill="none" stroke="black" d="M260.4,-36.03C265.11,-46.42 270.48,-60.15 272.9,-73 282.48,-124.11 291.42,-141.41 272.9,-190 266.1,-207.82 252.18,-223.91 239.45,-235.89"/>
<polygon fill="black" stroke="black" points="237.2,-233.21 232.07,-242.48 241.86,-238.43 237.2,-233.21"/>
</g>
<!-- 9 -->
<g id="node11" class="node">
<title>9</title>
<ellipse fill="none" stroke="black" cx="212.9" cy="-95" rx="51.2" ry="18"/>
<text text-anchor="middle" x="212.9" y="-88.83" font-family="Times,serif" font-size="14.00">9: a: int = b</text>
</g>
<!-- 8&#45;&gt;9 -->
<g id="edge10" class="edge">
<title>8&#45;&gt;9</title>
<path fill="none" stroke="black" d="M212.9,-153.6C212.9,-144.99 212.9,-134.37 212.9,-124.6"/>
<polygon fill="black" stroke="black" points="216.4,-124.81 212.9,-114.81 209.4,-124.81 216.4,-124.81"/>
</g>
<!-- 9&#45;&gt;10 -->
<g id="edge11" class="edge">
<title>9&#45;&gt;10</title>
<path fill="none" stroke="black" d="M221.75,-76.98C226.45,-67.94 232.35,-56.6 237.67,-46.35"/>
<polygon fill="black" stroke="black" points="240.74,-48.04 242.25,-37.55 234.53,-44.81 240.74,-48.04"/>
</g>
</g>
</svg>