<svg xmlns="http://www.w3.org/2000/svg" class="railroad-diagram" height="122" viewBox="0 0 330.5 122" width="330.5">
<g transform="translate(.5 .5)">
<style>/* <![CDATA[ */
    svg.railroad-diagram {
    }
    svg.railroad-diagram path {
        stroke-width:3;
        stroke:black;
        fill:white;
    }
    svg.railroad-diagram text {
        font:14px "Fira Mono", monospace;
        text-anchor:middle;
    }
    svg.railroad-diagram text.label{
        text-anchor:start;
    }
    svg.railroad-diagram text.comment{
        font:italic 12px "Fira Mono", monospace;
    }
    svg.railroad-diagram rect{
        stroke-width:2;
        stroke:black;
        fill:mistyrose;
    }

/* ]]> */
</style><g>
<path d="M20 51v20m10 -20v20m-10 -10h20"/></g><g>
<path d="M40 61h0.0"/><path d="M290.5 61h0.0"/><path d="M40.0 61a10 10 0 0 0 10 -10v-10a10 10 0 0 1 10 -10"/><g>
<path d="M60.0 31h0.0"/><path d="M270.5 31h0.0"/><g class="non-terminal">
<path d="M60.0 31h0.0"/><path d="M131.0 31h0.0"/><rect height="22" width="71.0" x="60.0" y="20"/><text x="95.5" y="35">factor</text></g><path d="M131.0 31h10"/><path d="M141.0 31h10"/><g class="terminal">
<path d="M151.0 31h0.0"/><path d="M196.5 31h0.0"/><rect height="22" rx="10" ry="10" width="45.5" x="151.0" y="20"/><text x="173.75" y="35"> * </text></g><path d="M196.5 31h10"/><path d="M206.5 31h10"/><g class="non-terminal">
<path d="M216.5 31h0.0"/><path d="M270.5 31h0.0"/><rect height="22" width="54.0" x="216.5" y="20"/><text x="243.5" y="35">term</text></g></g><path d="M270.5 31a10 10 0 0 1 10 10v10a10 10 0 0 0 10 10"/><path d="M40.0 61h20"/><g>
<path d="M60.0 61h0.0"/><path d="M270.5 61h0.0"/><g class="non-terminal">
<path d="M60.0 61h0.0"/><path d="M131.0 61h0.0"/><rect height="22" width="71.0" x="60.0" y="50"/><text x="95.5" y="65">factor</text></g><path d="M131.0 61h10"/><path d="M141.0 61h10"/><g class="terminal">
<path d="M151.0 61h0.0"/><path d="M196.5 61h0.0"/><rect height="22" rx="10" ry="10" width="45.5" x="151.0" y="50"/><text x="173.75" y="65"> / </text></g><path d="M196.5 61h10"/><path d="M206.5 61h10"/><g class="non-terminal">
<path d="M216.5 61h0.0"/><path d="M270.5 61h0.0"/><rect height="22" width="54.0" x="216.5" y="50"/><text x="243.5" y="65">term</text></g></g><path d="M270.5 61h20"/><path d="M40.0 61a10 10 0 0 1 10 10v10a10 10 0 0 0 10 10"/><g>
<path d="M60.0 91h69.75"/><path d="M200.75 91h69.75"/><g class="non-terminal">
<path d="M129.75 91h0.0"/><path d="M200.75 91h0.0"/><rect height="22" width="71.0" x="129.75" y="80"/><text x="165.25" y="95">factor</text></g></g><path d="M270.5 91a10 10 0 0 0 10 -10v-10a10 10 0 0 1 10 -10"/></g><path d="M 290.5 61 h 20 m -10 -10 v 20 m 10 -20 v 20"/></g></svg>