<?xml version="1.0" encoding="UTF-8" standalone="no"?>
<!DOCTYPE svg PUBLIC "-//W3C//DTD SVG 1.1//EN"
 "http://www.w3.org/Graphics/SVG/1.1/DTD/svg11.dtd">
<!-- Generated by graphviz version 12.2.1 (20241206.2353)
 -->
<!-- Pages: 1 -->
<svg width="174pt" height="274pt"
 viewBox="0.00 0.00 174.00 273.50" xmlns="http://www.w3.org/2000/svg" xmlns:xlink="http://www.w3.org/1999/xlink">
<g id="graph0" class="graph" transform="scale(1 1) rotate(0) translate(4 269.5)">
<polygon fill="white" stroke="none" points="-4,4 -4,-269.5 170,-269.5 170,4 -4,4"/>
<!-- 0 -->
<g id="node1" class="node">
<title>0</title>
<text text-anchor="middle" x="83" y="-252.2" font-family="Times,serif" font-size="14.00">&lt;start&gt;</text>
</g>
<!-- 1 -->
<g id="node2" class="node">
<title>1</title>
<text text-anchor="middle" x="83" y="-201.95" font-family="Times,serif" font-size="14.00">&lt;expr&gt;</text>
</g>
<!-- 0&#45;&gt;1 -->
<g id="edge1" class="edge">
<title>0&#45;&gt;1</title>
<path fill="none" stroke="black" d="M83,-251.46C83,-245.24 83,-235.15 83,-226.39"/>
<polygon fill="black" stroke="black" points="86.5,-226.6 83,-216.6 79.5,-226.6 86.5,-226.6"/>
</g>
<!-- 2 -->
<g id="node3" class="node">
<title>2</title>
<text text-anchor="middle" x="27" y="-151.7" font-family="Times,serif" font-size="14.00">&lt;expr&gt;</text>
</g>
<!-- 1&#45;&gt;2 -->
<g id="edge2" class="edge">
<title>1&#45;&gt;2</title>
<path fill="none" stroke="black" d="M76.13,-201.21C67.82,-194.05 53.57,-181.76 42.55,-172.27"/>
<polygon fill="black" stroke="black" points="44.93,-169.7 35.07,-165.83 40.36,-175.01 44.93,-169.7"/>
</g>
<!-- 6 -->
<g id="node7" class="node">
<title>6</title>
<text text-anchor="middle" x="83" y="-151.7" font-family="Times,serif" font-size="14.00">+ (43)</text>
</g>
<!-- 1&#45;&gt;6 -->
<g id="edge6" class="edge">
<title>1&#45;&gt;6</title>
<path fill="none" stroke="black" d="M83,-201.21C83,-194.99 83,-184.9 83,-176.14"/>
<polygon fill="black" stroke="black" points="86.5,-176.35 83,-166.35 79.5,-176.35 86.5,-176.35"/>
</g>
<!-- 7 -->
<g id="node8" class="node">
<title>7</title>
<text text-anchor="middle" x="139" y="-151.7" font-family="Times,serif" font-size="14.00">&lt;expr&gt;</text>
</g>
<!-- 1&#45;&gt;7 -->
<g id="edge7" class="edge">
<title>1&#45;&gt;7</title>
<path fill="none" stroke="black" d="M89.87,-201.21C98.18,-194.05 112.43,-181.76 123.45,-172.27"/>
<polygon fill="black" stroke="black" points="125.64,-175.01 130.93,-165.83 121.07,-169.7 125.64,-175.01"/>
</g>
<!-- 3 -->
<g id="node4" class="node">
<title>3</title>
<text text-anchor="middle" x="27" y="-101.45" font-family="Times,serif" font-size="14.00">&lt;integer&gt;</text>
</g>
<!-- 2&#45;&gt;3 -->
<g id="edge3" class="edge">
<title>2&#45;&gt;3</title>
<path fill="none" stroke="black" d="M27,-150.96C27,-144.74 27,-134.65 27,-125.89"/>
<polygon fill="black" stroke="black" points="30.5,-126.1 27,-116.1 23.5,-126.1 30.5,-126.1"/>
</g>
<!-- 4 -->
<g id="node5" class="node">
<title>4</title>
<text text-anchor="middle" x="27" y="-51.2" font-family="Times,serif" font-size="14.00">&lt;digit&gt;</text>
</g>
<!-- 3&#45;&gt;4 -->
<g id="edge4" class="edge">
<title>3&#45;&gt;4</title>
<path fill="none" stroke="black" d="M27,-100.71C27,-94.49 27,-84.4 27,-75.64"/>
<polygon fill="black" stroke="black" points="30.5,-75.85 27,-65.85 23.5,-75.85 30.5,-75.85"/>
</g>
<!-- 5 -->
<g id="node6" class="node">
<title>5</title>
<text text-anchor="middle" x="27" y="-0.95" font-family="Times,serif" font-size="14.00">1 (49)</text>
</g>
<!-- 4&#45;&gt;5 -->
<g id="edge5" class="edge">
<title>4&#45;&gt;5</title>
<path fill="none" stroke="black" d="M27,-50.46C27,-44.24 27,-34.15 27,-25.39"/>
<polygon fill="black" stroke="black" points="30.5,-25.6 27,-15.6 23.5,-25.6 30.5,-25.6"/>
</g>
<!-- 8 -->
<g id="node9" class="node">
<title>8</title>
<text text-anchor="middle" x="139" y="-101.45" font-family="Times,serif" font-size="14.00">&lt;integer&gt;</text>
</g>
<!-- 7&#45;&gt;8 -->
<g id="edge8" class="edge">
<title>7&#45;&gt;8</title>
<path fill="none" stroke="black" d="M139,-150.96C139,-144.74 139,-134.65 139,-125.89"/>
<polygon fill="black" stroke="black" points="142.5,-126.1 139,-116.1 135.5,-126.1 142.5,-126.1"/>
</g>
<!-- 9 -->
<g id="node10" class="node">
<title>9</title>
<text text-anchor="middle" x="139" y="-51.2" font-family="Times,serif" font-size="14.00">&lt;digit&gt;</text>
</g>
<!-- 8&#45;&gt;9 -->
<g id="edge9" class="edge">
<title>8&#45;&gt;9</title>
<path fill="none" stroke="black" d="M139,-100.71C139,-94.49 139,-84.4 139,-75.64"/>
<polygon fill="black" stroke="black" points="142.5,-75.85 139,-65.85 135.5,-75.85 142.5,-75.85"/>
</g>
<!-- 10 -->
<g id="node11" class="node">
<title>10</title>
<text text-anchor="middle" x="139" y="-0.95" font-family="Times,serif" font-size="14.00">2 (50)</text>
</g>
<!-- 9&#45;&gt;10 -->
<g id="edge10" class="edge">
<title>9&#45;&gt;10</title>
<path fill="none" stroke="black" d="M139,-50.46C139,-44.24 139,-34.15 139,-25.39"/>
<polygon fill="black" stroke="black" points="142.5,-25.6 139,-15.6 135.5,-25.6 142.5,-25.6"/>
</g>
</g>
</svg>