<?xml version="1.0" encoding="UTF-8" standalone="no"?>
<!DOCTYPE svg PUBLIC "-//W3C//DTD SVG 1.1//EN"
 "http://www.w3.org/Graphics/SVG/1.1/DTD/svg11.dtd">
<!-- Generated by graphviz version 12.2.1 (20241206.2353)
 -->
<!-- Pages: 1 -->
<svg width="239pt" height="324pt"
 viewBox="0.00 0.00 239.00 323.75" xmlns="http://www.w3.org/2000/svg" xmlns:xlink="http://www.w3.org/1999/xlink">
<g id="graph0" class="graph" transform="scale(1 1) rotate(0) translate(4 319.75)">
<polygon fill="white" stroke="none" points="-4,4 -4,-319.75 235,-319.75 235,4 -4,4"/>
<!-- 0 -->
<g id="node1" class="node">
<title>0</title>
<text text-anchor="middle" x="145" y="-302.45" font-family="Times,serif" font-size="14.00">&lt;start&gt;</text>
</g>
<!-- 1 -->
<g id="node2" class="node">
<title>1</title>
<text text-anchor="middle" x="145" y="-252.2" font-family="Times,serif" font-size="14.00">&lt;expr&gt;</text>
</g>
<!-- 0&#45;&gt;1 -->
<g id="edge1" class="edge">
<title>0&#45;&gt;1</title>
<path fill="none" stroke="black" d="M145,-301.71C145,-295.49 145,-285.4 145,-276.64"/>
<polygon fill="black" stroke="black" points="148.5,-276.85 145,-266.85 141.5,-276.85 148.5,-276.85"/>
</g>
<!-- 2 -->
<g id="node3" class="node">
<title>2</title>
<text text-anchor="middle" x="87" y="-201.95" font-family="Times,serif" font-size="14.00">&lt;expr&gt;</text>
</g>
<!-- 1&#45;&gt;2 -->
<g id="edge2" class="edge">
<title>1&#45;&gt;2</title>
<path fill="none" stroke="black" d="M137.89,-251.46C129.19,-244.22 114.22,-231.77 102.76,-222.23"/>
<polygon fill="black" stroke="black" points="105.26,-219.76 95.33,-216.06 100.78,-225.14 105.26,-219.76"/>
</g>
<!-- 12 -->
<g id="node13" class="node">
<title>12</title>
<text text-anchor="middle" x="145" y="-201.95" font-family="Times,serif" font-size="14.00">+ (43)</text>
</g>
<!-- 1&#45;&gt;12 -->
<g id="edge12" class="edge">
<title>1&#45;&gt;12</title>
<path fill="none" stroke="black" d="M145,-251.46C145,-245.24 145,-235.15 145,-226.39"/>
<polygon fill="black" stroke="black" points="148.5,-226.6 145,-216.6 141.5,-226.6 148.5,-226.6"/>
</g>
<!-- 13 -->
<g id="node14" class="node">
<title>13</title>
<text text-anchor="middle" x="202" y="-201.95" font-family="Times,serif" font-size="14.00">&lt;expr&gt;</text>
</g>
<!-- 1&#45;&gt;13 -->
<g id="edge13" class="edge">
<title>1&#45;&gt;13</title>
<path fill="none" stroke="black" d="M151.99,-251.46C160.45,-244.3 174.96,-232.01 186.18,-222.52"/>
<polygon fill="black" stroke="black" points="188.43,-225.2 193.8,-216.07 183.9,-219.86 188.43,-225.2"/>
</g>
<!-- 3 -->
<g id="node4" class="node">
<title>3</title>
<text text-anchor="middle" x="27" y="-151.7" font-family="Times,serif" font-size="14.00">&lt;expr&gt;</text>
</g>
<!-- 2&#45;&gt;3 -->
<g id="edge3" class="edge">
<title>2&#45;&gt;3</title>
<path fill="none" stroke="black" d="M79.64,-201.21C70.65,-193.97 55.15,-181.52 43.3,-171.98"/>
<polygon fill="black" stroke="black" points="45.58,-169.33 35.6,-165.79 41.2,-174.78 45.58,-169.33"/>
</g>
<!-- 7 -->
<g id="node8" class="node">
<title>7</title>
<text text-anchor="middle" x="83" y="-151.7" font-family="Times,serif" font-size="14.00">+ (43)</text>
</g>
<!-- 2&#45;&gt;7 -->
<g id="edge7" class="edge">
<title>2&#45;&gt;7</title>
<path fill="none" stroke="black" d="M86.51,-201.21C85.99,-194.99 85.16,-184.9 84.43,-176.14"/>
<polygon fill="black" stroke="black" points="87.93,-176.02 83.62,-166.35 80.96,-176.6 87.93,-176.02"/>
</g>
<!-- 8 -->
<g id="node9" class="node">
<title>8</title>
<text text-anchor="middle" x="139" y="-151.7" font-family="Times,serif" font-size="14.00">&lt;expr&gt;</text>
</g>
<!-- 2&#45;&gt;8 -->
<g id="edge8" class="edge">
<title>2&#45;&gt;8</title>
<path fill="none" stroke="black" d="M93.38,-201.21C101.02,-194.12 114.06,-182.01 124.25,-172.56"/>
<polygon fill="black" stroke="black" points="126.51,-175.24 131.46,-165.87 121.75,-170.11 126.51,-175.24"/>
</g>
<!-- 4 -->
<g id="node5" class="node">
<title>4</title>
<text text-anchor="middle" x="27" y="-101.45" font-family="Times,serif" font-size="14.00">&lt;integer&gt;</text>
</g>
<!-- 3&#45;&gt;4 -->
<g id="edge4" class="edge">
<title>3&#45;&gt;4</title>
<path fill="none" stroke="black" d="M27,-150.96C27,-144.74 27,-134.65 27,-125.89"/>
<polygon fill="black" stroke="black" points="30.5,-126.1 27,-116.1 23.5,-126.1 30.5,-126.1"/>
</g>
<!-- 5 -->
<g id="node6" class="node">
<title>5</title>
<text text-anchor="middle" x="27" y="-51.2" font-family="Times,serif" font-size="14.00">&lt;digit&gt;</text>
</g>
<!-- 4&#45;&gt;5 -->
<g id="edge5" class="edge">
<title>4&#45;&gt;5</title>
<path fill="none" stroke="black" d="M27,-100.71C27,-94.49 27,-84.4 27,-75.64"/>
<polygon fill="black" stroke="black" points="30.5,-75.85 27,-65.85 23.5,-75.85 30.5,-75.85"/>
</g>
<!-- 6 -->
<g id="node7" class="node">
<title>6</title>
<text text-anchor="middle" x="27" y="-0.95" font-family="Times,serif" font-size="14.00">1 (49)</text>
</g>
<!-- 5&#45;&gt;6 -->
<g id="edge6" class="edge">
<title>5&#45;&gt;6</title>
<path fill="none" stroke="black" d="M27,-50.46C27,-44.24 27,-34.15 27,-25.39"/>
<polygon fill="black" stroke="black" points="30.5,-25.6 27,-15.6 23.5,-25.6 30.5,-25.6"/>
</g>
<!-- 9 -->
<g id="node10" class="node">
<title>9</title>
<text text-anchor="middle" x="138" y="-101.45" font-family="Times,serif" font-size="14.00">&lt;integer&gt;</text>
</g>
<!-- 8&#45;&gt;9 -->
<g id="edge9" class="edge">
<title>8&#45;&gt;9</title>
<path fill="none" stroke="black" d="M138.88,-150.96C138.75,-144.74 138.54,-134.65 138.36,-125.89"/>
<polygon fill="black" stroke="black" points="141.86,-126.03 138.15,-116.1 134.86,-126.17 141.86,-126.03"/>
</g>
<!-- 10 -->
<g id="node11" class="node">
<title>10</title>
<text text-anchor="middle" x="138" y="-51.2" font-family="Times,serif" font-size="14.00">&lt;digit&gt;</text>
</g>
<!-- 9&#45;&gt;10 -->
<g id="edge10" class="edge">
<title>9&#45;&gt;10</title>
<path fill="none" stroke="black" d="M138,-100.71C138,-94.49 138,-84.4 138,-75.64"/>
<polygon fill="black" stroke="black" points="141.5,-75.85 138,-65.85 134.5,-75.85 141.5,-75.85"/>
</g>
<!-- 11 -->
<g id="node12" class="node">
<title>11</title>
<text text-anchor="middle" x="138" y="-0.95" font-family="Times,serif" font-size="14.00">2 (50)</text>
</g>
<!-- 10&#45;&gt;11 -->
<g id="edge11" class="edge">
<title>10&#45;&gt;11</title>
<path fill="none" stroke="black" d="M138,-50.46C138,-44.24 138,-34.15 138,-25.39"/>
<polygon fill="black" stroke="black" points="141.5,-25.6 138,-15.6 134.5,-25.6 141.5,-25.6"/>
</g>
<!-- 14 -->
<g id="node15" class="node">
<title>14</title>
<text text-anchor="middle" x="204" y="-151.7" font-family="Times,serif" font-size="14.00">&lt;integer&gt;</text>
</g>
<!-- 13&#45;&gt;14 -->
<g id="edge14" class="edge">
<title>13&#45;&gt;14</title>
<path fill="none" stroke="black" d="M202.25,-201.21C202.5,-194.99 202.92,-184.9 203.28,-176.14"/>
<polygon fill="black" stroke="black" points="206.77,-176.49 203.69,-166.35 199.78,-176.2 206.77,-176.49"/>
</g>
<!-- 15 -->
<g id="node16" class="node">
<title>15</title>
<text text-anchor="middle" x="204" y="-101.45" font-family="Times,serif" font-size="14.00">&lt;digit&gt;</text>
</g>
<!-- 14&#45;&gt;15 -->
<g id="edge15" class="edge">
<title>14&#45;&gt;15</title>
<path fill="none" stroke="black" d="M204,-150.96C204,-144.74 204,-134.65 204,-125.89"/>
<polygon fill="black" stroke="black" points="207.5,-126.1 204,-116.1 200.5,-126.1 207.5,-126.1"/>
</g>
<!-- 16 -->
<g id="node17" class="node">
<title>16</title>
<text text-anchor="middle" x="204" y="-51.2" font-family="Times,serif" font-size="14.00">3 (51)</text>
</g>
<!-- 15&#45;&gt;16 -->
<g id="edge16" class="edge">
<title>15&#45;&gt;16</title>
<path fill="none" stroke="black" d="M204,-100.71C204,-94.49 204,-84.4 204,-75.64"/>
<polygon fill="black" stroke="black" points="207.5,-75.85 204,-65.85 200.5,-75.85 207.5,-75.85"/>
</g>
</g>
</svg>