<?xml version="1.0" encoding="UTF-8" standalone="no"?>
<!DOCTYPE svg PUBLIC "-//W3C//DTD SVG 1.1//EN"
 "http://www.w3.org/Graphics/SVG/1.1/DTD/svg11.dtd">
<!-- Generated by graphviz version 12.2.1 (20241206.2353)
 -->
<!-- Pages: 1 -->
<svg width="157pt" height="475pt"
 viewBox="0.00 0.00 157.00 474.50" xmlns="http://www.w3.org/2000/svg" xmlns:xlink="http://www.w3.org/1999/xlink">
<g id="graph0" class="graph" transform="scale(1 1) rotate(0) translate(4 470.5)">
<polygon fill="white" stroke="none" points="-4,4 -4,-470.5 153,-470.5 153,4 -4,4"/>
<!-- 0 -->
<g id="node1" class="node">
<title>0</title>
<text text-anchor="middle" x="76" y="-453.2" font-family="Times,serif" font-size="14.00">&lt;expr&gt;</text>
</g>
<!-- 1 -->
<g id="node2" class="node">
<title>1</title>
<text text-anchor="middle" x="76" y="-402.95" font-family="Times,serif" font-size="14.00">&lt;term&gt;</text>
</g>
<!-- 0&#45;&gt;1 -->
<g id="edge1" class="edge">
<title>0&#45;&gt;1</title>
<path fill="none" stroke="black" d="M76,-452.46C76,-446.24 76,-436.15 76,-427.39"/>
<polygon fill="black" stroke="black" points="79.5,-427.6 76,-417.6 72.5,-427.6 79.5,-427.6"/>
</g>
<!-- 2 -->
<g id="node3" class="node">
<title>2</title>
<text text-anchor="middle" x="76" y="-352.7" font-family="Times,serif" font-size="14.00">&lt;factor&gt;</text>
</g>
<!-- 1&#45;&gt;2 -->
<g id="edge2" class="edge">
<title>1&#45;&gt;2</title>
<path fill="none" stroke="black" d="M76,-402.21C76,-395.99 76,-385.9 76,-377.14"/>
<polygon fill="black" stroke="black" points="79.5,-377.35 76,-367.35 72.5,-377.35 79.5,-377.35"/>
</g>
<!-- 3 -->
<g id="node4" class="node">
<title>3</title>
<text text-anchor="middle" x="22" y="-302.45" font-family="Times,serif" font-size="14.00">( (40)</text>
</g>
<!-- 2&#45;&gt;3 -->
<g id="edge3" class="edge">
<title>2&#45;&gt;3</title>
<path fill="none" stroke="black" d="M69.38,-351.96C61.36,-344.8 47.62,-332.51 36.99,-323.02"/>
<polygon fill="black" stroke="black" points="39.59,-320.65 29.8,-316.6 34.93,-325.87 39.59,-320.65"/>
</g>
<!-- 4 -->
<g id="node5" class="node">
<title>4</title>
<text text-anchor="middle" x="76" y="-302.45" font-family="Times,serif" font-size="14.00">&lt;expr&gt;</text>
</g>
<!-- 2&#45;&gt;4 -->
<g id="edge4" class="edge">
<title>2&#45;&gt;4</title>
<path fill="none" stroke="black" d="M76,-351.96C76,-345.74 76,-335.65 76,-326.89"/>
<polygon fill="black" stroke="black" points="79.5,-327.1 76,-317.1 72.5,-327.1 79.5,-327.1"/>
</g>
<!-- 16 -->
<g id="node17" class="node">
<title>16</title>
<text text-anchor="middle" x="130" y="-302.45" font-family="Times,serif" font-size="14.00">) (41)</text>
</g>
<!-- 2&#45;&gt;16 -->
<g id="edge16" class="edge">
<title>2&#45;&gt;16</title>
<path fill="none" stroke="black" d="M82.62,-351.96C90.64,-344.8 104.38,-332.51 115.01,-323.02"/>
<polygon fill="black" stroke="black" points="117.07,-325.87 122.2,-316.6 112.41,-320.65 117.07,-325.87"/>
</g>
<!-- 5 -->
<g id="node6" class="node">
<title>5</title>
<text text-anchor="middle" x="76" y="-252.2" font-family="Times,serif" font-size="14.00">&lt;term&gt;</text>
</g>
<!-- 4&#45;&gt;5 -->
<g id="edge5" class="edge">
<title>4&#45;&gt;5</title>
<path fill="none" stroke="black" d="M76,-301.71C76,-295.49 76,-285.4 76,-276.64"/>
<polygon fill="black" stroke="black" points="79.5,-276.85 76,-266.85 72.5,-276.85 79.5,-276.85"/>
</g>
<!-- 6 -->
<g id="node7" class="node">
<title>6</title>
<text text-anchor="middle" x="27" y="-201.95" font-family="Times,serif" font-size="14.00">&lt;factor&gt;</text>
</g>
<!-- 5&#45;&gt;6 -->
<g id="edge6" class="edge">
<title>5&#45;&gt;6</title>
<path fill="none" stroke="black" d="M69.99,-251.46C62.86,-244.44 50.75,-232.51 41.19,-223.1"/>
<polygon fill="black" stroke="black" points="43.72,-220.67 34.14,-216.15 38.81,-225.66 43.72,-220.67"/>
</g>
<!-- 10 -->
<g id="node11" class="node">
<title>10</title>
<text text-anchor="middle" x="76" y="-201.95" font-family="Times,serif" font-size="14.00"> * </text>
</g>
<!-- 5&#45;&gt;10 -->
<g id="edge10" class="edge">
<title>5&#45;&gt;10</title>
<path fill="none" stroke="black" d="M76,-251.46C76,-245.24 76,-235.15 76,-226.39"/>
<polygon fill="black" stroke="black" points="79.5,-226.6 76,-216.6 72.5,-226.6 79.5,-226.6"/>
</g>
<!-- 11 -->
<g id="node12" class="node">
<title>11</title>
<text text-anchor="middle" x="122" y="-201.95" font-family="Times,serif" font-size="14.00">&lt;term&gt;</text>
</g>
<!-- 5&#45;&gt;11 -->
<g id="edge11" class="edge">
<title>5&#45;&gt;11</title>
<path fill="none" stroke="black" d="M81.64,-251.46C88.26,-244.51 99.47,-232.75 108.4,-223.39"/>
<polygon fill="black" stroke="black" points="110.9,-225.84 115.27,-216.19 105.84,-221.01 110.9,-225.84"/>
</g>
<!-- 7 -->
<g id="node8" class="node">
<title>7</title>
<text text-anchor="middle" x="27" y="-151.7" font-family="Times,serif" font-size="14.00">&lt;integer&gt;</text>
</g>
<!-- 6&#45;&gt;7 -->
<g id="edge7" class="edge">
<title>6&#45;&gt;7</title>
<path fill="none" stroke="black" d="M27,-201.21C27,-194.99 27,-184.9 27,-176.14"/>
<polygon fill="black" stroke="black" points="30.5,-176.35 27,-166.35 23.5,-176.35 30.5,-176.35"/>
</g>
<!-- 8 -->
<g id="node9" class="node">
<title>8</title>
<text text-anchor="middle" x="27" y="-101.45" font-family="Times,serif" font-size="14.00">&lt;digit&gt;</text>
</g>
<!-- 7&#45;&gt;8 -->
<g id="edge8" class="edge">
<title>7&#45;&gt;8</title>
<path fill="none" stroke="black" d="M27,-150.96C27,-144.74 27,-134.65 27,-125.89"/>
<polygon fill="black" stroke="black" points="30.5,-126.1 27,-116.1 23.5,-126.1 30.5,-126.1"/>
</g>
<!-- 9 -->
<g id="node10" class="node">
<title>9</title>
<text text-anchor="middle" x="27" y="-51.2" font-family="Times,serif" font-size="14.00">2 (50)</text>
</g>
<!-- 8&#45;&gt;9 -->
<g id="edge9" class="edge">
<title>8&#45;&gt;9</title>
<path fill="none" stroke="black" d="M27,-100.71C27,-94.49 27,-84.4 27,-75.64"/>
<polygon fill="black" stroke="black" points="30.5,-75.85 27,-65.85 23.5,-75.85 30.5,-75.85"/>
</g>
<!-- 12 -->
<g id="node13" class="node">
<title>12</title>
<text text-anchor="middle" x="122" y="-151.7" font-family="Times,serif" font-size="14.00">&lt;factor&gt;</text>
</g>
<!-- 11&#45;&gt;12 -->
<g id="edge12" class="edge">
<title>11&#45;&gt;12</title>
<path fill="none" stroke="black" d="M122,-201.21C122,-194.99 122,-184.9 122,-176.14"/>
<polygon fill="black" stroke="black" points="125.5,-176.35 122,-166.35 118.5,-176.35 125.5,-176.35"/>
</g>
<!-- 13 -->
<g id="node14" class="node">
<title>13</title>
<text text-anchor="middle" x="122" y="-101.45" font-family="Times,serif" font-size="14.00">&lt;integer&gt;</text>
</g>
<!-- 12&#45;&gt;13 -->
<g id="edge13" class="edge">
<title>12&#45;&gt;13</title>
<path fill="none" stroke="black" d="M122,-150.96C122,-144.74 122,-134.65 122,-125.89"/>
<polygon fill="black" stroke="black" points="125.5,-126.1 122,-116.1 118.5,-126.1 125.5,-126.1"/>
</g>
<!-- 14 -->
<g id="node15" class="node">
<title>14</title>
<text text-anchor="middle" x="122" y="-51.2" font-family="Times,serif" font-size="14.00">&lt;digit&gt;</text>
</g>
<!-- 13&#45;&gt;14 -->
<g id="edge14" class="edge">
<title>13&#45;&gt;14</title>
<path fill="none" stroke="black" d="M122,-100.71C122,-94.49 122,-84.4 122,-75.64"/>
<polygon fill="black" stroke="black" points="125.5,-75.85 122,-65.85 118.5,-75.85 125.5,-75.85"/>
</g>
<!-- 15 -->
<g id="node16" class="node">
<title>15</title>
<text text-anchor="middle" x="122" y="-0.95" font-family="Times,serif" font-size="14.00">3 (51)</text>
</g>
<!-- 14&#45;&gt;15 -->
<g id="edge15" class="edge">
<title>14&#45;&gt;15</title>
<path fill="none" stroke="black" d="M122,-50.46C122,-44.24 122,-34.15 122,-25.39"/>
<polygon fill="black" stroke="black" points="125.5,-25.6 122,-15.6 118.5,-25.6 125.5,-25.6"/>
</g>
</g>
</svg>