<?xml version="1.0" encoding="UTF-8" standalone="no"?>
<!DOCTYPE svg PUBLIC "-//W3C//DTD SVG 1.1//EN"
 "http://www.w3.org/Graphics/SVG/1.1/DTD/svg11.dtd">
<!-- Generated by graphviz version 12.2.1 (20241206.2353)
 -->
<!-- Pages: 1 -->
<svg width="243pt" height="374pt"
 viewBox="0.00 0.00 242.75 374.00" xmlns="http://www.w3.org/2000/svg" xmlns:xlink="http://www.w3.org/1999/xlink">
<g id="graph0" class="graph" transform="scale(1 1) rotate(0) translate(4 370)">
<polygon fill="white" stroke="none" points="-4,4 -4,-370 238.75,-370 238.75,4 -4,4"/>
<!-- 0 -->
<g id="node1" class="node">
<title>0</title>
<text text-anchor="middle" x="54.12" y="-352.7" font-family="Times,serif" font-size="14.00">&lt;start&gt;</text>
</g>
<!-- 1 -->
<g id="node2" class="node">
<title>1</title>
<text text-anchor="middle" x="54.12" y="-302.45" font-family="Times,serif" font-size="14.00">&lt;string&gt;</text>
</g>
<!-- 0&#45;&gt;1 -->
<g id="edge1" class="edge">
<title>0&#45;&gt;1</title>
<path fill="none" stroke="black" d="M54.12,-351.96C54.12,-345.74 54.12,-335.65 54.12,-326.89"/>
<polygon fill="black" stroke="black" points="57.63,-327.1 54.13,-317.1 50.63,-327.1 57.63,-327.1"/>
</g>
<!-- 2 -->
<g id="node3" class="node">
<title>2</title>
<text text-anchor="middle" x="22.12" y="-252.2" font-family="Times,serif" font-size="14.00">&lt;letter&gt;</text>
</g>
<!-- 1&#45;&gt;2 -->
<g id="edge2" class="edge">
<title>1&#45;&gt;2</title>
<path fill="none" stroke="black" d="M50.2,-301.71C45.79,-295.05 38.44,-283.98 32.37,-274.82"/>
<polygon fill="black" stroke="black" points="35.36,-273 26.92,-266.6 29.53,-276.87 35.36,-273"/>
</g>
<!-- 5 -->
<g id="node6" class="node">
<title>5</title>
<text text-anchor="middle" x="86.12" y="-252.2" font-family="Times,serif" font-size="14.00">&lt;string&gt;</text>
</g>
<!-- 1&#45;&gt;5 -->
<g id="edge5" class="edge">
<title>1&#45;&gt;5</title>
<path fill="none" stroke="black" d="M58.05,-301.71C62.46,-295.05 69.81,-283.98 75.88,-274.82"/>
<polygon fill="black" stroke="black" points="78.72,-276.87 81.33,-266.6 72.89,-273 78.72,-276.87"/>
</g>
<!-- 3 -->
<g id="node4" class="node">
<title>3</title>
<text text-anchor="middle" x="22.12" y="-201.95" font-family="Times,serif" font-size="14.00">&lt;other&gt;</text>
</g>
<!-- 2&#45;&gt;3 -->
<g id="edge3" class="edge">
<title>2&#45;&gt;3</title>
<path fill="none" stroke="black" d="M22.12,-251.46C22.12,-245.24 22.12,-235.15 22.12,-226.39"/>
<polygon fill="black" stroke="black" points="25.63,-226.6 22.13,-216.6 18.63,-226.6 25.63,-226.6"/>
</g>
<!-- 4 -->
<g id="node5" class="node">
<title>4</title>
<text text-anchor="middle" x="22.12" y="-151.7" font-family="Times,serif" font-size="14.00">e (101)</text>
</g>
<!-- 3&#45;&gt;4 -->
<g id="edge4" class="edge">
<title>3&#45;&gt;4</title>
<path fill="none" stroke="black" d="M22.12,-201.21C22.12,-194.99 22.12,-184.9 22.12,-176.14"/>
<polygon fill="black" stroke="black" points="25.63,-176.35 22.13,-166.35 18.63,-176.35 25.63,-176.35"/>
</g>
<!-- 6 -->
<g id="node7" class="node">
<title>6</title>
<text text-anchor="middle" x="85.12" y="-201.95" font-family="Times,serif" font-size="14.00">&lt;letter&gt;</text>
</g>
<!-- 5&#45;&gt;6 -->
<g id="edge6" class="edge">
<title>5&#45;&gt;6</title>
<path fill="none" stroke="black" d="M86,-251.46C85.87,-245.24 85.66,-235.15 85.48,-226.39"/>
<polygon fill="black" stroke="black" points="88.99,-226.53 85.28,-216.6 81.99,-226.67 88.99,-226.53"/>
</g>
<!-- 9 -->
<g id="node10" class="node">
<title>9</title>
<text text-anchor="middle" x="149.12" y="-201.95" font-family="Times,serif" font-size="14.00">&lt;string&gt;</text>
</g>
<!-- 5&#45;&gt;9 -->
<g id="edge9" class="edge">
<title>5&#45;&gt;9</title>
<path fill="none" stroke="black" d="M94.1,-251.26C103.72,-243.9 120.12,-231.34 132.53,-221.84"/>
<polygon fill="black" stroke="black" points="134.4,-224.81 140.21,-215.96 130.14,-219.26 134.4,-224.81"/>
</g>
<!-- 7 -->
<g id="node8" class="node">
<title>7</title>
<text text-anchor="middle" x="85.12" y="-151.7" font-family="Times,serif" font-size="14.00">&lt;plus&gt;</text>
</g>
<!-- 6&#45;&gt;7 -->
<g id="edge7" class="edge">
<title>6&#45;&gt;7</title>
<path fill="none" stroke="black" d="M85.12,-201.21C85.12,-194.99 85.12,-184.9 85.12,-176.14"/>
<polygon fill="black" stroke="black" points="88.63,-176.35 85.13,-166.35 81.63,-176.35 88.63,-176.35"/>
</g>
<!-- 8 -->
<g id="node9" class="node">
<title>8</title>
<text text-anchor="middle" x="85.12" y="-101.45" font-family="Times,serif" font-size="14.00">+ (43)</text>
</g>
<!-- 7&#45;&gt;8 -->
<g id="edge8" class="edge">
<title>7&#45;&gt;8</title>
<path fill="none" stroke="black" d="M85.12,-150.96C85.12,-144.74 85.12,-134.65 85.12,-125.89"/>
<polygon fill="black" stroke="black" points="88.63,-126.1 85.13,-116.1 81.63,-126.1 88.63,-126.1"/>
</g>
<!-- 10 -->
<g id="node11" class="node">
<title>10</title>
<text text-anchor="middle" x="147.12" y="-151.7" font-family="Times,serif" font-size="14.00">&lt;letter&gt;</text>
</g>
<!-- 9&#45;&gt;10 -->
<g id="edge10" class="edge">
<title>9&#45;&gt;10</title>
<path fill="none" stroke="black" d="M148.88,-201.21C148.62,-194.99 148.2,-184.9 147.84,-176.14"/>
<polygon fill="black" stroke="black" points="151.35,-176.2 147.43,-166.35 144.35,-176.49 151.35,-176.2"/>
</g>
<!-- 13 -->
<g id="node14" class="node">
<title>13</title>
<text text-anchor="middle" x="211.12" y="-151.7" font-family="Times,serif" font-size="14.00">&lt;string&gt;</text>
</g>
<!-- 9&#45;&gt;13 -->
<g id="edge13" class="edge">
<title>9&#45;&gt;13</title>
<path fill="none" stroke="black" d="M156.98,-201.01C166.44,-193.65 182.58,-181.09 194.79,-171.59"/>
<polygon fill="black" stroke="black" points="196.59,-174.62 202.34,-165.71 192.29,-169.09 196.59,-174.62"/>
</g>
<!-- 11 -->
<g id="node12" class="node">
<title>11</title>
<text text-anchor="middle" x="147.12" y="-101.45" font-family="Times,serif" font-size="14.00">&lt;other&gt;</text>
</g>
<!-- 10&#45;&gt;11 -->
<g id="edge11" class="edge">
<title>10&#45;&gt;11</title>
<path fill="none" stroke="black" d="M147.12,-150.96C147.12,-144.74 147.12,-134.65 147.12,-125.89"/>
<polygon fill="black" stroke="black" points="150.63,-126.1 147.13,-116.1 143.63,-126.1 150.63,-126.1"/>
</g>
<!-- 12 -->
<g id="node13" class="node">
<title>12</title>
<text text-anchor="middle" x="147.12" y="-51.2" font-family="Times,serif" font-size="14.00">d (100)</text>
</g>
<!-- 11&#45;&gt;12 -->
<g id="edge12" class="edge">
<title>11&#45;&gt;12</title>
<path fill="none" stroke="black" d="M147.12,-100.71C147.12,-94.49 147.12,-84.4 147.12,-75.64"/>
<polygon fill="black" stroke="black" points="150.63,-75.85 147.13,-65.85 143.63,-75.85 150.63,-75.85"/>
</g>
<!-- 14 -->
<g id="node15" class="node">
<title>14</title>
<text text-anchor="middle" x="211.12" y="-101.45" font-family="Times,serif" font-size="14.00">&lt;letter&gt;</text>
</g>
<!-- 13&#45;&gt;14 -->
<g id="edge14" class="edge">
<title>13&#45;&gt;14</title>
<path fill="none" stroke="black" d="M211.12,-150.96C211.12,-144.74 211.12,-134.65 211.12,-125.89"/>
<polygon fill="black" stroke="black" points="214.63,-126.1 211.13,-116.1 207.63,-126.1 214.63,-126.1"/>
</g>
<!-- 15 -->
<g id="node16" class="node">
<title>15</title>
<text text-anchor="middle" x="211.12" y="-51.2" font-family="Times,serif" font-size="14.00">&lt;plus&gt;</text>
</g>
<!-- 14&#45;&gt;15 -->
<g id="edge15" class="edge">
<title>14&#45;&gt;15</title>
<path fill="none" stroke="black" d="M211.12,-100.71C211.12,-94.49 211.12,-84.4 211.12,-75.64"/>
<polygon fill="black" stroke="black" points="214.63,-75.85 211.13,-65.85 207.63,-75.85 214.63,-75.85"/>
</g>
<!-- 16 -->
<g id="node17" class="node">
<title>16</title>
<text text-anchor="middle" x="211.12" y="-0.95" font-family="Times,serif" font-size="14.00">+ (43)</text>
</g>
<!-- 15&#45;&gt;16 -->
<g id="edge16" class="edge">
<title>15&#45;&gt;16</title>
<path fill="none" stroke="black" d="M211.12,-50.46C211.12,-44.24 211.12,-34.15 211.12,-25.39"/>
<polygon fill="black" stroke="black" points="214.63,-25.6 211.13,-15.6 207.63,-25.6 214.63,-25.6"/>
</g>
</g>
</svg>