<?xml version="1.0" encoding="UTF-8" standalone="no"?>
<!DOCTYPE svg PUBLIC "-//W3C//DTD SVG 1.1//EN"
 "http://www.w3.org/Graphics/SVG/1.1/DTD/svg11.dtd">
<!-- Generated by graphviz version 12.2.1 (20241206.2353)
 -->
<!-- Pages: 1 -->
<svg width="300pt" height="223pt"
 viewBox="0.00 0.00 300.00 223.25" xmlns="http://www.w3.org/2000/svg" xmlns:xlink="http://www.w3.org/1999/xlink">
<g id="graph0" class="graph" transform="scale(1 1) rotate(0) translate(4 219.25)">
<polygon fill="white" stroke="none" points="-4,4 -4,-219.25 296,-219.25 296,4 -4,4"/>
<!-- 0 -->
<g id="node1" class="node">
<title>0</title>
<text text-anchor="middle" x="146" y="-201.95" font-family="Times,serif" font-size="14.00">&lt;start&gt;</text>
</g>
<!-- 1 -->
<g id="node2" class="node">
<title>1</title>
<text text-anchor="middle" x="146" y="-151.7" font-family="Times,serif" font-size="14.00">&lt;expr&gt;</text>
</g>
<!-- 0&#45;&gt;1 -->
<g id="edge1" class="edge">
<title>0&#45;&gt;1</title>
<path fill="none" stroke="black" d="M146,-201.21C146,-194.99 146,-184.9 146,-176.14"/>
<polygon fill="black" stroke="black" points="149.5,-176.35 146,-166.35 142.5,-176.35 149.5,-176.35"/>
</g>
<!-- 2 -->
<g id="node3" class="node">
<title>2</title>
<text text-anchor="middle" x="93" y="-101.45" font-family="Times,serif" font-size="14.00">&lt;expr&gt;</text>
</g>
<!-- 1&#45;&gt;2 -->
<g id="edge2" class="edge">
<title>1&#45;&gt;2</title>
<path fill="none" stroke="black" d="M139.5,-150.96C131.71,-143.87 118.41,-131.76 108.03,-122.31"/>
<polygon fill="black" stroke="black" points="110.42,-119.75 100.67,-115.61 105.71,-124.93 110.42,-119.75"/>
</g>
<!-- 6 -->
<g id="node7" class="node">
<title>6</title>
<text text-anchor="middle" x="146" y="-101.45" font-family="Times,serif" font-size="14.00"> + </text>
</g>
<!-- 1&#45;&gt;6 -->
<g id="edge6" class="edge">
<title>1&#45;&gt;6</title>
<path fill="none" stroke="black" d="M146,-150.96C146,-144.74 146,-134.65 146,-125.89"/>
<polygon fill="black" stroke="black" points="149.5,-126.1 146,-116.1 142.5,-126.1 149.5,-126.1"/>
</g>
<!-- 7 -->
<g id="node8" class="node">
<title>7</title>
<text text-anchor="middle" x="197" y="-101.45" font-family="Times,serif" font-size="14.00">&lt;term&gt;</text>
</g>
<!-- 1&#45;&gt;7 -->
<g id="edge7" class="edge">
<title>1&#45;&gt;7</title>
<path fill="none" stroke="black" d="M152.25,-150.96C159.75,-143.87 172.54,-131.76 182.54,-122.31"/>
<polygon fill="black" stroke="black" points="184.74,-125.04 189.6,-115.63 179.93,-119.96 184.74,-125.04"/>
</g>
<!-- 3 -->
<g id="node4" class="node">
<title>3</title>
<text text-anchor="middle" x="21" y="-51.2" font-family="Times,serif" font-size="14.00">&lt;term&gt;</text>
</g>
<!-- 2&#45;&gt;3 -->
<g id="edge3" class="edge">
<title>2&#45;&gt;3</title>
<path fill="none" stroke="black" d="M83.88,-100.51C72.68,-93 53.4,-80.09 39.13,-70.53"/>
<polygon fill="black" stroke="black" points="41.33,-67.79 31.08,-65.13 37.44,-73.6 41.33,-67.79"/>
</g>
<!-- 4 -->
<g id="node5" class="node">
<title>4</title>
<text text-anchor="middle" x="68" y="-51.2" font-family="Times,serif" font-size="14.00"> + </text>
</g>
<!-- 2&#45;&gt;4 -->
<g id="edge4" class="edge">
<title>2&#45;&gt;4</title>
<path fill="none" stroke="black" d="M89.93,-100.71C86.56,-94.2 80.99,-83.46 76.31,-74.42"/>
<polygon fill="black" stroke="black" points="79.5,-72.95 71.79,-65.68 73.28,-76.17 79.5,-72.95"/>
</g>
<!-- 5 -->
<g id="node6" class="node">
<title>5</title>
<text text-anchor="middle" x="114" y="-51.2" font-family="Times,serif" font-size="14.00">&lt;expr&gt;</text>
</g>
<!-- 2&#45;&gt;5 -->
<g id="edge5" class="edge">
<title>2&#45;&gt;5</title>
<path fill="none" stroke="black" d="M95.58,-100.71C98.38,-94.27 102.98,-83.69 106.88,-74.72"/>
<polygon fill="black" stroke="black" points="110.02,-76.29 110.8,-65.73 103.6,-73.5 110.02,-76.29"/>
</g>
<!-- 8 -->
<g id="node9" class="node">
<title>8</title>
<text text-anchor="middle" x="176" y="-51.2" font-family="Times,serif" font-size="14.00">&lt;factor&gt;</text>
</g>
<!-- 7&#45;&gt;8 -->
<g id="edge8" class="edge">
<title>7&#45;&gt;8</title>
<path fill="none" stroke="black" d="M194.42,-100.71C191.62,-94.27 187.02,-83.69 183.12,-74.72"/>
<polygon fill="black" stroke="black" points="186.4,-73.5 179.2,-65.73 179.98,-76.29 186.4,-73.5"/>
</g>
<!-- 11 -->
<g id="node12" class="node">
<title>11</title>
<text text-anchor="middle" x="225" y="-51.2" font-family="Times,serif" font-size="14.00"> * </text>
</g>
<!-- 7&#45;&gt;11 -->
<g id="edge11" class="edge">
<title>7&#45;&gt;11</title>
<path fill="none" stroke="black" d="M200.43,-100.71C204.25,-94.12 210.58,-83.22 215.86,-74.12"/>
<polygon fill="black" stroke="black" points="218.79,-76.05 220.78,-65.65 212.73,-72.54 218.79,-76.05"/>
</g>
<!-- 12 -->
<g id="node13" class="node">
<title>12</title>
<text text-anchor="middle" x="271" y="-51.2" font-family="Times,serif" font-size="14.00">&lt;term&gt;</text>
</g>
<!-- 7&#45;&gt;12 -->
<g id="edge12" class="edge">
<title>7&#45;&gt;12</title>
<path fill="none" stroke="black" d="M206.37,-100.51C217.89,-93 237.7,-80.09 252.36,-70.53"/>
<polygon fill="black" stroke="black" points="254.2,-73.51 260.67,-65.11 250.38,-67.64 254.2,-73.51"/>
</g>
<!-- 9 -->
<g id="node10" class="node">
<title>9</title>
<text text-anchor="middle" x="147" y="-0.95" font-family="Times,serif" font-size="14.00">&#45; (45)</text>
</g>
<!-- 8&#45;&gt;9 -->
<g id="edge9" class="edge">
<title>8&#45;&gt;9</title>
<path fill="none" stroke="black" d="M172.44,-50.46C168.49,-43.87 161.93,-32.97 156.46,-23.87"/>
<polygon fill="black" stroke="black" points="159.52,-22.16 151.36,-15.39 153.52,-25.76 159.52,-22.16"/>
</g>
<!-- 10 -->
<g id="node11" class="node">
<title>10</title>
<text text-anchor="middle" x="204" y="-0.95" font-family="Times,serif" font-size="14.00">&lt;factor&gt;</text>
</g>
<!-- 8&#45;&gt;10 -->
<g id="edge10" class="edge">
<title>8&#45;&gt;10</title>
<path fill="none" stroke="black" d="M179.43,-50.46C183.25,-43.87 189.58,-32.97 194.86,-23.87"/>
<polygon fill="black" stroke="black" points="197.79,-25.8 199.78,-15.4 191.73,-22.29 197.79,-25.8"/>
</g>
</g>
</svg>