<?xml version="1.0" encoding="UTF-8" standalone="no"?>
<!DOCTYPE svg PUBLIC "-//W3C//DTD SVG 1.1//EN"
 "http://www.w3.org/Graphics/SVG/1.1/DTD/svg11.dtd">
<!-- Generated by graphviz version 12.2.1 (20241206.2353)
 -->
<!-- Pages: 1 -->
<svg width="439pt" height="324pt"
 viewBox="0.00 0.00 438.50 323.75" xmlns="http://www.w3.org/2000/svg" xmlns:xlink="http://www.w3.org/1999/xlink">
<g id="graph0" class="graph" transform="scale(1 1) rotate(0) translate(4 319.75)">
<polygon fill="white" stroke="none" points="-4,4 -4,-319.75 434.5,-319.75 434.5,4 -4,4"/>
<!-- 0 -->
<g id="node1" class="node">
<title>0</title>
<text text-anchor="middle" x="206.25" y="-302.45" font-family="Times,serif" font-size="14.00">&lt;start&gt;</text>
</g>
<!-- 1 -->
<g id="node2" class="node">
<title>1</title>
<text text-anchor="middle" x="206.25" y="-252.2" font-family="Times,serif" font-size="14.00">&lt;xml&#45;tree&gt;</text>
</g>
<!-- 0&#45;&gt;1 -->
<g id="edge1" class="edge">
<title>0&#45;&gt;1</title>
<path fill="none" stroke="black" d="M206.25,-301.71C206.25,-295.49 206.25,-285.4 206.25,-276.64"/>
<polygon fill="black" stroke="black" points="209.75,-276.85 206.25,-266.85 202.75,-276.85 209.75,-276.85"/>
</g>
<!-- 2 -->
<g id="node3" class="node">
<title>2</title>
<text text-anchor="middle" x="97.25" y="-201.95" font-family="Times,serif" font-size="14.00">&lt;xml&#45;open&#45;tag&gt;</text>
</g>
<!-- 1&#45;&gt;2 -->
<g id="edge2" class="edge">
<title>1&#45;&gt;2</title>
<path fill="none" stroke="black" d="M192.45,-251.26C174.59,-243.36 143.2,-229.46 121.37,-219.8"/>
<polygon fill="black" stroke="black" points="122.89,-216.65 112.33,-215.8 120.05,-223.05 122.89,-216.65"/>
</g>
<!-- 7 -->
<g id="node8" class="node">
<title>7</title>
<text text-anchor="middle" x="206.25" y="-201.95" font-family="Times,serif" font-size="14.00">&lt;xml&#45;tree&gt;</text>
</g>
<!-- 1&#45;&gt;7 -->
<g id="edge7" class="edge">
<title>1&#45;&gt;7</title>
<path fill="none" stroke="black" d="M206.25,-251.46C206.25,-245.24 206.25,-235.15 206.25,-226.39"/>
<polygon fill="black" stroke="black" points="209.75,-226.6 206.25,-216.6 202.75,-226.6 209.75,-226.6"/>
</g>
<!-- 18 -->
<g id="node19" class="node">
<title>18</title>
<text text-anchor="middle" x="345.25" y="-201.95" font-family="Times,serif" font-size="14.00">&lt;xml&#45;close&#45;tag&gt;</text>
</g>
<!-- 1&#45;&gt;18 -->
<g id="edge18" class="edge">
<title>1&#45;&gt;18</title>
<path fill="none" stroke="black" d="M223.85,-251.26C247.35,-243.11 289.24,-228.57 317.14,-218.88"/>
<polygon fill="black" stroke="black" points="318.06,-222.27 326.36,-215.68 315.76,-215.66 318.06,-222.27"/>
</g>
<!-- 3 -->
<g id="node4" class="node">
<title>3</title>
<text text-anchor="middle" x="17.25" y="-151.7" font-family="Times,serif" font-size="14.00">&lt; (60)</text>
</g>
<!-- 2&#45;&gt;3 -->
<g id="edge3" class="edge">
<title>2&#45;&gt;3</title>
<path fill="none" stroke="black" d="M87.12,-201.01C74.49,-193.4 52.65,-180.23 36.74,-170.63"/>
<polygon fill="black" stroke="black" points="38.97,-167.89 28.6,-165.72 35.35,-173.88 38.97,-167.89"/>
</g>
<!-- 4 -->
<g id="node5" class="node">
<title>4</title>
<text text-anchor="middle" x="66.25" y="-151.7" font-family="Times,serif" font-size="14.00">&lt;id&gt;</text>
</g>
<!-- 2&#45;&gt;4 -->
<g id="edge4" class="edge">
<title>2&#45;&gt;4</title>
<path fill="none" stroke="black" d="M93.45,-201.21C89.17,-194.55 82.06,-183.48 76.17,-174.32"/>
<polygon fill="black" stroke="black" points="79.25,-172.63 70.9,-166.11 73.36,-176.42 79.25,-172.63"/>
</g>
<!-- 6 -->
<g id="node7" class="node">
<title>6</title>
<text text-anchor="middle" x="115.25" y="-151.7" font-family="Times,serif" font-size="14.00">&gt; (62)</text>
</g>
<!-- 2&#45;&gt;6 -->
<g id="edge6" class="edge">
<title>2&#45;&gt;6</title>
<path fill="none" stroke="black" d="M99.46,-201.21C101.83,-194.84 105.72,-184.43 109.04,-175.53"/>
<polygon fill="black" stroke="black" points="112.28,-176.85 112.5,-166.26 105.72,-174.4 112.28,-176.85"/>
</g>
<!-- 5 -->
<g id="node6" class="node">
<title>5</title>
<text text-anchor="middle" x="62.25" y="-101.45" font-family="Times,serif" font-size="14.00">html</text>
</g>
<!-- 4&#45;&gt;5 -->
<g id="edge5" class="edge">
<title>4&#45;&gt;5</title>
<path fill="none" stroke="black" d="M65.76,-150.96C65.24,-144.74 64.41,-134.65 63.68,-125.89"/>
<polygon fill="black" stroke="black" points="67.18,-125.77 62.87,-116.1 60.21,-126.35 67.18,-125.77"/>
</g>
<!-- 8 -->
<g id="node9" class="node">
<title>8</title>
<text text-anchor="middle" x="189.25" y="-151.7" font-family="Times,serif" font-size="14.00">&lt;xml&#45;tree&gt;</text>
</g>
<!-- 7&#45;&gt;8 -->
<g id="edge8" class="edge">
<title>7&#45;&gt;8</title>
<path fill="none" stroke="black" d="M204.17,-201.21C201.92,-194.84 198.25,-184.43 195.12,-175.53"/>
<polygon fill="black" stroke="black" points="198.48,-174.54 191.85,-166.27 191.88,-176.86 198.48,-174.54"/>
</g>
<!-- 15 -->
<g id="node16" class="node">
<title>15</title>
<text text-anchor="middle" x="270.25" y="-151.7" font-family="Times,serif" font-size="14.00">&lt;xml&#45;tree&gt;</text>
</g>
<!-- 7&#45;&gt;15 -->
<g id="edge15" class="edge">
<title>7&#45;&gt;15</title>
<path fill="none" stroke="black" d="M214.36,-201.01C224.12,-193.65 240.79,-181.09 253.39,-171.59"/>
<polygon fill="black" stroke="black" points="255.32,-174.51 261.2,-165.7 251.11,-168.92 255.32,-174.51"/>
</g>
<!-- 9 -->
<g id="node10" class="node">
<title>9</title>
<text text-anchor="middle" x="124.25" y="-101.45" font-family="Times,serif" font-size="14.00">&lt;xml&#45;tree&gt;</text>
</g>
<!-- 8&#45;&gt;9 -->
<g id="edge9" class="edge">
<title>8&#45;&gt;9</title>
<path fill="none" stroke="black" d="M181.02,-150.76C171.1,-143.4 154.17,-130.84 141.38,-121.34"/>
<polygon fill="black" stroke="black" points="143.54,-118.59 133.43,-115.44 139.37,-124.21 143.54,-118.59"/>
</g>
<!-- 12 -->
<g id="node13" class="node">
<title>12</title>
<text text-anchor="middle" x="205.25" y="-101.45" font-family="Times,serif" font-size="14.00">&lt;xml&#45;tree&gt;</text>
</g>
<!-- 8&#45;&gt;12 -->
<g id="edge12" class="edge">
<title>8&#45;&gt;12</title>
<path fill="none" stroke="black" d="M191.21,-150.96C193.32,-144.59 196.78,-134.18 199.73,-125.28"/>
<polygon fill="black" stroke="black" points="202.97,-126.62 202.8,-116.03 196.33,-124.42 202.97,-126.62"/>
</g>
<!-- 10 -->
<g id="node11" class="node">
<title>10</title>
<text text-anchor="middle" x="124.25" y="-51.2" font-family="Times,serif" font-size="14.00">&lt;text&gt;</text>
</g>
<!-- 9&#45;&gt;10 -->
<g id="edge10" class="edge">
<title>9&#45;&gt;10</title>
<path fill="none" stroke="black" d="M124.25,-100.71C124.25,-94.49 124.25,-84.4 124.25,-75.64"/>
<polygon fill="black" stroke="black" points="127.75,-75.85 124.25,-65.85 120.75,-75.85 127.75,-75.85"/>
</g>
<!-- 11 -->
<g id="node12" class="node">
<title>11</title>
<text text-anchor="middle" x="124.25" y="-0.95" font-family="Times,serif" font-size="14.00">Te</text>
</g>
<!-- 10&#45;&gt;11 -->
<g id="edge11" class="edge">
<title>10&#45;&gt;11</title>
<path fill="none" stroke="black" d="M124.25,-50.46C124.25,-44.24 124.25,-34.15 124.25,-25.39"/>
<polygon fill="black" stroke="black" points="127.75,-25.6 124.25,-15.6 120.75,-25.6 127.75,-25.6"/>
</g>
<!-- 13 -->
<g id="node14" class="node">
<title>13</title>
<text text-anchor="middle" x="205.25" y="-51.2" font-family="Times,serif" font-size="14.00">&lt;text&gt;</text>
</g>
<!-- 12&#45;&gt;13 -->
<g id="edge13" class="edge">
<title>12&#45;&gt;13</title>
<path fill="none" stroke="black" d="M205.25,-100.71C205.25,-94.49 205.25,-84.4 205.25,-75.64"/>
<polygon fill="black" stroke="black" points="208.75,-75.85 205.25,-65.85 201.75,-75.85 208.75,-75.85"/>
</g>
<!-- 14 -->
<g id="node15" class="node">
<title>14</title>
<text text-anchor="middle" x="205.25" y="-0.95" font-family="Times,serif" font-size="14.00">x (120)</text>
</g>
<!-- 13&#45;&gt;14 -->
<g id="edge14" class="edge">
<title>13&#45;&gt;14</title>
<path fill="none" stroke="black" d="M205.25,-50.46C205.25,-44.24 205.25,-34.15 205.25,-25.39"/>
<polygon fill="black" stroke="black" points="208.75,-25.6 205.25,-15.6 201.75,-25.6 208.75,-25.6"/>
</g>
<!-- 16 -->
<g id="node17" class="node">
<title>16</title>
<text text-anchor="middle" x="273.25" y="-101.45" font-family="Times,serif" font-size="14.00">&lt;text&gt;</text>
</g>
<!-- 15&#45;&gt;16 -->
<g id="edge16" class="edge">
<title>15&#45;&gt;16</title>
<path fill="none" stroke="black" d="M270.62,-150.96C271,-144.74 271.63,-134.65 272.18,-125.89"/>
<polygon fill="black" stroke="black" points="275.66,-126.3 272.79,-116.1 268.67,-125.86 275.66,-126.3"/>
</g>
<!-- 17 -->
<g id="node18" class="node">
<title>17</title>
<text text-anchor="middle" x="273.25" y="-51.2" font-family="Times,serif" font-size="14.00">t (116)</text>
</g>
<!-- 16&#45;&gt;17 -->
<g id="edge17" class="edge">
<title>16&#45;&gt;17</title>
<path fill="none" stroke="black" d="M273.25,-100.71C273.25,-94.49 273.25,-84.4 273.25,-75.64"/>
<polygon fill="black" stroke="black" points="276.75,-75.85 273.25,-65.85 269.75,-75.85 276.75,-75.85"/>
</g>
<!-- 19 -->
<g id="node20" class="node">
<title>19</title>
<text text-anchor="middle" x="326.25" y="-151.7" font-family="Times,serif" font-size="14.00">&lt;/</text>
</g>
<!-- 18&#45;&gt;19 -->
<g id="edge19" class="edge">
<title>18&#45;&gt;19</title>
<path fill="none" stroke="black" d="M342.92,-201.21C340.41,-194.84 336.31,-184.43 332.81,-175.53"/>
<polygon fill="black" stroke="black" points="336.07,-174.27 329.15,-166.25 329.56,-176.84 336.07,-174.27"/>
</g>
<!-- 20 -->
<g id="node21" class="node">
<title>20</title>
<text text-anchor="middle" x="364.25" y="-151.7" font-family="Times,serif" font-size="14.00">&lt;id&gt;</text>
</g>
<!-- 18&#45;&gt;20 -->
<g id="edge20" class="edge">
<title>18&#45;&gt;20</title>
<path fill="none" stroke="black" d="M347.58,-201.21C350.09,-194.84 354.19,-184.43 357.69,-175.53"/>
<polygon fill="black" stroke="black" points="360.94,-176.84 361.35,-166.25 354.43,-174.27 360.94,-176.84"/>
</g>
<!-- 22 -->
<g id="node23" class="node">
<title>22</title>
<text text-anchor="middle" x="413.25" y="-151.7" font-family="Times,serif" font-size="14.00">&gt; (62)</text>
</g>
<!-- 18&#45;&gt;22 -->
<g id="edge22" class="edge">
<title>18&#45;&gt;22</title>
<path fill="none" stroke="black" d="M353.86,-201.01C364.34,-193.58 382.3,-180.84 395.73,-171.31"/>
<polygon fill="black" stroke="black" points="397.56,-174.3 403.69,-165.66 393.51,-168.59 397.56,-174.3"/>
</g>
<!-- 21 -->
<g id="node22" class="node">
<title>21</title>
<text text-anchor="middle" x="364.25" y="-101.45" font-family="Times,serif" font-size="14.00">html</text>
</g>
<!-- 20&#45;&gt;21 -->
<g id="edge21" class="edge">
<title>20&#45;&gt;21</title>
<path fill="none" stroke="black" d="M364.25,-150.96C364.25,-144.74 364.25,-134.65 364.25,-125.89"/>
<polygon fill="black" stroke="black" points="367.75,-126.1 364.25,-116.1 360.75,-126.1 367.75,-126.1"/>
</g>
</g>
</svg>