<?xml version="1.0" encoding="UTF-8" standalone="no"?>
<!DOCTYPE svg PUBLIC "-//W3C//DTD SVG 1.1//EN"
 "http://www.w3.org/Graphics/SVG/1.1/DTD/svg11.dtd">
<!-- Generated by graphviz version 12.2.1 (20241206.2353)
 -->
<!-- Pages: 1 -->
<svg width="981pt" height="603pt"
 viewBox="0.00 0.00 980.88 602.75" xmlns="http://www.w3.org/2000/svg" xmlns:xlink="http://www.w3.org/1999/xlink">
<g id="graph0" class="graph" transform="scale(1 1) rotate(0) translate(4 598.75)">
<polygon fill="white" stroke="none" points="-4,4 -4,-598.75 976.88,-598.75 976.88,4 -4,4"/>
<!-- 0 -->
<g id="node1" class="node">
<title>0</title>
<text text-anchor="middle" x="638.38" y="-581.45" font-family="Times,serif" font-size="14.00">(0) Length(cgi_decode_s_str_1) &lt;= 0</text>
</g>
<!-- 1 -->
<g id="node2" class="node">
<title>1</title>
<text text-anchor="middle" x="562.38" y="-516.95" font-family="Times,serif" font-size="14.00">(1) str.substr(cgi_decode_s_str_1, 0, 1) == &quot;+&quot;</text>
</g>
<!-- 0&#45;&gt;1 -->
<g id="edge1" class="edge">
<title>0&#45;&gt;1</title>
<path fill="none" stroke="red" d="M631.09,-580.63C619.03,-570.71 594.64,-550.66 578.4,-537.3"/>
<polygon fill="red" stroke="red" points="580.65,-534.62 570.7,-530.97 576.2,-540.02 580.65,-534.62"/>
<text text-anchor="middle" x="610.56" y="-549.2" font-family="Times,serif" font-size="14.00">0</text>
</g>
<!-- 36 -->
<g id="node37" class="node">
<title>36</title>
<text text-anchor="middle" x="714.38" y="-516.95" font-family="Times,serif" font-size="14.00">* </text>
</g>
<!-- 0&#45;&gt;36 -->
<g id="edge36" class="edge">
<title>0&#45;&gt;36</title>
<path fill="none" stroke="blue" d="M645.66,-580.63C658.34,-570.21 684.63,-548.58 700.77,-535.32"/>
<polygon fill="blue" stroke="blue" points="702.62,-538.33 708.12,-529.27 698.17,-532.92 702.62,-538.33"/>
<text text-anchor="middle" x="686.56" y="-549.2" font-family="Times,serif" font-size="14.00">1</text>
</g>
<!-- 2 -->
<g id="node3" class="node">
<title>2</title>
<text text-anchor="middle" x="437.38" y="-452.45" font-family="Times,serif" font-size="14.00">(2) str.substr(cgi_decode_s_str_1, 0, 1) == &quot;%&quot;</text>
</g>
<!-- 1&#45;&gt;2 -->
<g id="edge2" class="edge">
<title>1&#45;&gt;2</title>
<path fill="none" stroke="red" d="M550.39,-516.13C529.54,-505.71 486.28,-484.08 459.74,-470.81"/>
<polygon fill="red" stroke="red" points="461.37,-467.71 450.86,-466.37 458.24,-473.97 461.37,-467.71"/>
<text text-anchor="middle" x="514.45" y="-484.7" font-family="Times,serif" font-size="14.00">0</text>
</g>
<!-- 13 -->
<g id="node14" class="node">
<title>13</title>
<text text-anchor="middle" x="688.38" y="-452.45" font-family="Times,serif" font-size="14.00">(2) Length(cgi_decode_s_str_1) &lt;= 1</text>
</g>
<!-- 1&#45;&gt;13 -->
<g id="edge13" class="edge">
<title>1&#45;&gt;13</title>
<path fill="none" stroke="blue" d="M574.46,-516.13C595.57,-505.66 639.47,-483.88 666.19,-470.63"/>
<polygon fill="blue" stroke="blue" points="667.39,-473.94 674.79,-466.36 664.28,-467.67 667.39,-473.94"/>
<text text-anchor="middle" x="640.04" y="-484.7" font-family="Times,serif" font-size="14.00">1</text>
</g>
<!-- 3 -->
<g id="node4" class="node">
<title>3</title>
<text text-anchor="middle" x="328.38" y="-387.95" font-family="Times,serif" font-size="14.00">(3) Length(cgi_decode_s_str_1) &lt;= 1</text>
</g>
<!-- 2&#45;&gt;3 -->
<g id="edge3" class="edge">
<title>2&#45;&gt;3</title>
<path fill="none" stroke="red" d="M426.92,-451.63C408.98,-441.35 372.02,-420.15 348.82,-406.85"/>
<polygon fill="red" stroke="red" points="350.68,-403.88 340.27,-401.94 347.2,-409.95 350.68,-403.88"/>
<text text-anchor="middle" x="396.01" y="-420.2" font-family="Times,serif" font-size="14.00">0</text>
</g>
<!-- 12 -->
<g id="node13" class="node">
<title>12</title>
<text text-anchor="middle" x="460.38" y="-387.95" font-family="Times,serif" font-size="14.00">* %</text>
</g>
<!-- 2&#45;&gt;12 -->
<g id="edge12" class="edge">
<title>2&#45;&gt;12</title>
<path fill="none" stroke="blue" d="M439.5,-451.86C442.84,-442.79 449.43,-424.86 454.32,-411.57"/>
<polygon fill="blue" stroke="blue" points="457.5,-413.08 457.67,-402.48 450.93,-410.66 457.5,-413.08"/>
<text text-anchor="middle" x="454.31" y="-420.2" font-family="Times,serif" font-size="14.00">1</text>
</g>
<!-- 4 -->
<g id="node5" class="node">
<title>4</title>
<text text-anchor="middle" x="291.38" y="-323.45" font-family="Times,serif" font-size="14.00">(4) str.substr(cgi_decode_s_str_1, 1, 1) == &quot;+&quot;</text>
</g>
<!-- 3&#45;&gt;4 -->
<g id="edge4" class="edge">
<title>3&#45;&gt;4</title>
<path fill="none" stroke="red" d="M324.96,-387.36C319.48,-378.1 308.54,-359.62 300.63,-346.26"/>
<polygon fill="red" stroke="red" points="303.77,-344.69 295.66,-337.86 297.74,-348.25 303.77,-344.69"/>
<text text-anchor="middle" x="316.56" y="-355.7" font-family="Times,serif" font-size="14.00">0</text>
</g>
<!-- 11 -->
<g id="node12" class="node">
<title>11</title>
<text text-anchor="middle" x="445.38" y="-323.45" font-family="Times,serif" font-size="14.00">* &#160;</text>
</g>
<!-- 3&#45;&gt;11 -->
<g id="edge11" class="edge">
<title>3&#45;&gt;11</title>
<path fill="none" stroke="blue" d="M339.59,-387.13C360.23,-376.11 404.32,-352.55 428.56,-339.61"/>
<polygon fill="blue" stroke="blue" points="429.9,-342.86 437.07,-335.06 426.6,-336.69 429.9,-342.86"/>
<text text-anchor="middle" x="400.73" y="-355.7" font-family="Times,serif" font-size="14.00">1</text>
</g>
<!-- 5 -->
<g id="node6" class="node">
<title>5</title>
<text text-anchor="middle" x="185.38" y="-258.95" font-family="Times,serif" font-size="14.00">(5) str.substr(cgi_decode_s_str_1, 1, 1) == &quot;%&quot;</text>
</g>
<!-- 4&#45;&gt;5 -->
<g id="edge5" class="edge">
<title>4&#45;&gt;5</title>
<path fill="none" stroke="red" d="M281.21,-322.63C263.84,-312.39 228.15,-291.34 205.56,-278.03"/>
<polygon fill="red" stroke="red" points="207.36,-275.02 196.97,-272.96 203.8,-281.05 207.36,-275.02"/>
<text text-anchor="middle" x="251.24" y="-291.2" font-family="Times,serif" font-size="14.00">0</text>
</g>
<!-- 10 -->
<g id="node11" class="node">
<title>10</title>
<text text-anchor="middle" x="350.38" y="-258.95" font-family="Times,serif" font-size="14.00">? (63)</text>
</g>
<!-- 4&#45;&gt;10 -->
<g id="edge10" class="edge">
<title>4&#45;&gt;10</title>
<path fill="none" stroke="blue" d="M296.82,-322.86C305.91,-313.23 324.41,-293.63 337.1,-280.19"/>
<polygon fill="blue" stroke="blue" points="339.41,-282.84 343.73,-273.16 334.32,-278.03 339.41,-282.84"/>
<text text-anchor="middle" x="329.53" y="-291.2" font-family="Times,serif" font-size="14.00">1</text>
</g>
<!-- 6 -->
<g id="node7" class="node">
<title>6</title>
<text text-anchor="middle" x="102.38" y="-194.45" font-family="Times,serif" font-size="14.00">(6) Length(cgi_decode_s_str_1) &lt;= 2</text>
</g>
<!-- 5&#45;&gt;6 -->
<g id="edge6" class="edge">
<title>5&#45;&gt;6</title>
<path fill="none" stroke="red" d="M177.42,-258.13C164.12,-248.12 137.11,-227.78 119.38,-214.43"/>
<polygon fill="red" stroke="red" points="121.49,-211.64 111.4,-208.42 117.28,-217.23 121.49,-211.64"/>
<text text-anchor="middle" x="154.68" y="-226.7" font-family="Times,serif" font-size="14.00">0</text>
</g>
<!-- 9 -->
<g id="node10" class="node">
<title>9</title>
<text text-anchor="middle" x="238.38" y="-194.45" font-family="Times,serif" font-size="14.00">* A%</text>
</g>
<!-- 5&#45;&gt;9 -->
<g id="edge9" class="edge">
<title>5&#45;&gt;9</title>
<path fill="none" stroke="blue" d="M190.27,-258.36C198.35,-248.82 214.73,-229.5 226.12,-216.07"/>
<polygon fill="blue" stroke="blue" points="228.56,-218.61 232.36,-208.72 223.23,-214.08 228.56,-218.61"/>
<text text-anchor="middle" x="220" y="-226.7" font-family="Times,serif" font-size="14.00">1</text>
</g>
<!-- 7 -->
<g id="node8" class="node">
<title>7</title>
<text text-anchor="middle" x="88.38" y="-129.95" font-family="Times,serif" font-size="14.00">? (63)</text>
</g>
<!-- 6&#45;&gt;7 -->
<g id="edge7" class="edge">
<title>6&#45;&gt;7</title>
<path fill="none" stroke="red" d="M101.08,-193.86C99.07,-184.88 95.12,-167.22 92.15,-153.98"/>
<polygon fill="red" stroke="red" points="95.64,-153.53 90.04,-144.54 88.81,-155.06 95.64,-153.53"/>
<text text-anchor="middle" x="100" y="-162.2" font-family="Times,serif" font-size="14.00">0</text>
</g>
<!-- 8 -->
<g id="node9" class="node">
<title>8</title>
<text text-anchor="middle" x="136.38" y="-129.95" font-family="Times,serif" font-size="14.00">* AB</text>
</g>
<!-- 6&#45;&gt;8 -->
<g id="edge8" class="edge">
<title>6&#45;&gt;8</title>
<path fill="none" stroke="blue" d="M105.51,-193.86C110.5,-184.69 120.4,-166.49 127.65,-153.17"/>
<polygon fill="blue" stroke="blue" points="130.72,-154.85 132.42,-144.39 124.57,-151.5 130.72,-154.85"/>
<text text-anchor="middle" x="125.8" y="-162.2" font-family="Times,serif" font-size="14.00">1</text>
</g>
<!-- 14 -->
<g id="node15" class="node">
<title>14</title>
<text text-anchor="middle" x="667.38" y="-387.95" font-family="Times,serif" font-size="14.00">(3) str.substr(cgi_decode_s_str_1, 1, 1) == &quot;+&quot;</text>
</g>
<!-- 13&#45;&gt;14 -->
<g id="edge14" class="edge">
<title>13&#45;&gt;14</title>
<path fill="none" stroke="red" d="M686.44,-451.86C683.39,-442.79 677.36,-424.86 672.9,-411.57"/>
<polygon fill="red" stroke="red" points="676.35,-410.86 669.85,-402.5 669.72,-413.09 676.35,-410.86"/>
<text text-anchor="middle" x="683.13" y="-420.2" font-family="Times,serif" font-size="14.00">0</text>
</g>
<!-- 35 -->
<g id="node36" class="node">
<title>35</title>
<text text-anchor="middle" x="823.38" y="-387.95" font-family="Times,serif" font-size="14.00">* +</text>
</g>
<!-- 13&#45;&gt;35 -->
<g id="edge35" class="edge">
<title>13&#45;&gt;35</title>
<path fill="none" stroke="blue" d="M701.32,-451.63C725.22,-440.57 776.36,-416.89 804.26,-403.97"/>
<polygon fill="blue" stroke="blue" points="805.36,-407.32 812.96,-399.95 802.42,-400.97 805.36,-407.32"/>
<text text-anchor="middle" x="771.34" y="-420.2" font-family="Times,serif" font-size="14.00">1</text>
</g>
<!-- 15 -->
<g id="node16" class="node">
<title>15</title>
<text text-anchor="middle" x="611.38" y="-323.45" font-family="Times,serif" font-size="14.00">(4) str.substr(cgi_decode_s_str_1, 1, 1) == &quot;%&quot;</text>
</g>
<!-- 14&#45;&gt;15 -->
<g id="edge15" class="edge">
<title>14&#45;&gt;15</title>
<path fill="none" stroke="red" d="M662.21,-387.36C653.67,-377.82 636.35,-358.5 624.32,-345.07"/>
<polygon fill="red" stroke="red" points="626.98,-342.8 617.7,-337.69 621.77,-347.47 626.98,-342.8"/>
<text text-anchor="middle" x="647.77" y="-355.7" font-family="Times,serif" font-size="14.00">0</text>
</g>
<!-- 26 -->
<g id="node27" class="node">
<title>26</title>
<text text-anchor="middle" x="862.38" y="-323.45" font-family="Times,serif" font-size="14.00">(4) Length(cgi_decode_s_str_1) &lt;= 2</text>
</g>
<!-- 14&#45;&gt;26 -->
<g id="edge26" class="edge">
<title>14&#45;&gt;26</title>
<path fill="none" stroke="blue" d="M686.43,-387.02C720.52,-376.09 792.17,-353.13 832.73,-340.13"/>
<polygon fill="blue" stroke="blue" points="833.64,-343.51 842.09,-337.13 831.5,-336.85 833.64,-343.51"/>
<text text-anchor="middle" x="785.72" y="-355.7" font-family="Times,serif" font-size="14.00">1</text>
</g>
<!-- 16 -->
<g id="node17" class="node">
<title>16</title>
<text text-anchor="middle" x="495.38" y="-258.95" font-family="Times,serif" font-size="14.00">(5) Length(cgi_decode_s_str_1) &lt;= 2</text>
</g>
<!-- 15&#45;&gt;16 -->
<g id="edge16" class="edge">
<title>15&#45;&gt;16</title>
<path fill="none" stroke="red" d="M600.25,-322.63C580.99,-312.25 541.11,-290.77 516.46,-277.49"/>
<polygon fill="red" stroke="red" points="518.43,-274.57 507.97,-272.91 515.11,-280.73 518.43,-274.57"/>
<text text-anchor="middle" x="567.14" y="-291.2" font-family="Times,serif" font-size="14.00">0</text>
</g>
<!-- 25 -->
<g id="node26" class="node">
<title>25</title>
<text text-anchor="middle" x="632.38" y="-258.95" font-family="Times,serif" font-size="14.00">? (63)</text>
</g>
<!-- 15&#45;&gt;25 -->
<g id="edge25" class="edge">
<title>15&#45;&gt;25</title>
<path fill="none" stroke="blue" d="M613.31,-322.86C616.36,-313.79 622.39,-295.86 626.85,-282.57"/>
<polygon fill="blue" stroke="blue" points="630.03,-284.09 629.9,-273.5 623.4,-281.86 630.03,-284.09"/>
<text text-anchor="middle" x="627.13" y="-291.2" font-family="Times,serif" font-size="14.00">1</text>
</g>
<!-- 17 -->
<g id="node18" class="node">
<title>17</title>
<text text-anchor="middle" x="449.38" y="-194.45" font-family="Times,serif" font-size="14.00">(6) str.substr(cgi_decode_s_str_1, 2, 1) == &quot;+&quot;</text>
</g>
<!-- 16&#45;&gt;17 -->
<g id="edge17" class="edge">
<title>16&#45;&gt;17</title>
<path fill="none" stroke="red" d="M491.13,-258.36C484.18,-248.92 470.17,-229.88 460.3,-216.47"/>
<polygon fill="red" stroke="red" points="463.39,-214.76 454.64,-208.78 457.75,-218.91 463.39,-214.76"/>
<text text-anchor="middle" x="479.87" y="-226.7" font-family="Times,serif" font-size="14.00">0</text>
</g>
<!-- 24 -->
<g id="node25" class="node">
<title>24</title>
<text text-anchor="middle" x="610.38" y="-194.45" font-family="Times,serif" font-size="14.00">* +A</text>
</g>
<!-- 16&#45;&gt;24 -->
<g id="edge24" class="edge">
<title>16&#45;&gt;24</title>
<path fill="none" stroke="blue" d="M506.4,-258.13C525.41,-247.8 564.68,-226.46 589.14,-213.17"/>
<polygon fill="blue" stroke="blue" points="590.77,-216.26 597.88,-208.41 587.43,-210.11 590.77,-216.26"/>
<text text-anchor="middle" x="566.55" y="-226.7" font-family="Times,serif" font-size="14.00">1</text>
</g>
<!-- 18 -->
<g id="node19" class="node">
<title>18</title>
<text text-anchor="middle" x="349.38" y="-129.95" font-family="Times,serif" font-size="14.00">(7) str.substr(cgi_decode_s_str_1, 2, 1) == &quot;%&quot;</text>
</g>
<!-- 17&#45;&gt;18 -->
<g id="edge18" class="edge">
<title>17&#45;&gt;18</title>
<path fill="none" stroke="red" d="M439.79,-193.63C423.48,-183.44 390.03,-162.54 368.71,-149.21"/>
<polygon fill="red" stroke="red" points="370.7,-146.33 360.36,-143.99 366.99,-152.26 370.7,-146.33"/>
<text text-anchor="middle" x="411.71" y="-162.2" font-family="Times,serif" font-size="14.00">0</text>
</g>
<!-- 23 -->
<g id="node24" class="node">
<title>23</title>
<text text-anchor="middle" x="514.38" y="-129.95" font-family="Times,serif" font-size="14.00">? (63)</text>
</g>
<!-- 17&#45;&gt;23 -->
<g id="edge23" class="edge">
<title>17&#45;&gt;23</title>
<path fill="none" stroke="blue" d="M455.37,-193.86C465.48,-184.14 486.16,-164.25 500.15,-150.8"/>
<polygon fill="blue" stroke="blue" points="502.33,-153.56 507.11,-144.11 497.48,-148.52 502.33,-153.56"/>
<text text-anchor="middle" x="491.07" y="-162.2" font-family="Times,serif" font-size="14.00">1</text>
</g>
<!-- 19 -->
<g id="node20" class="node">
<title>19</title>
<text text-anchor="middle" x="254.38" y="-65.45" font-family="Times,serif" font-size="14.00">(8) Length(cgi_decode_s_str_1) &lt;= 3</text>
</g>
<!-- 18&#45;&gt;19 -->
<g id="edge19" class="edge">
<title>18&#45;&gt;19</title>
<path fill="none" stroke="red" d="M340.27,-129.13C324.84,-118.99 293.29,-98.23 273.02,-84.89"/>
<polygon fill="red" stroke="red" points="275.14,-82.1 264.86,-79.52 271.29,-87.94 275.14,-82.1"/>
<text text-anchor="middle" x="313.76" y="-97.7" font-family="Times,serif" font-size="14.00">0</text>
</g>
<!-- 22 -->
<g id="node23" class="node">
<title>22</title>
<text text-anchor="middle" x="391.38" y="-65.45" font-family="Times,serif" font-size="14.00">? (63)</text>
</g>
<!-- 18&#45;&gt;22 -->
<g id="edge22" class="edge">
<title>18&#45;&gt;22</title>
<path fill="none" stroke="blue" d="M353.25,-129.36C359.53,-120.01 372.14,-101.25 381.13,-87.86"/>
<polygon fill="blue" stroke="blue" points="383.87,-90.07 386.54,-79.82 378.06,-86.17 383.87,-90.07"/>
<text text-anchor="middle" x="377.51" y="-97.7" font-family="Times,serif" font-size="14.00">1</text>
</g>
<!-- 20 -->
<g id="node21" class="node">
<title>20</title>
<text text-anchor="middle" x="228.38" y="-0.95" font-family="Times,serif" font-size="14.00">? (63)</text>
</g>
<!-- 19&#45;&gt;20 -->
<g id="edge20" class="edge">
<title>19&#45;&gt;20</title>
<path fill="none" stroke="red" d="M251.98,-64.86C248.2,-55.79 240.74,-37.86 235.22,-24.57"/>
<polygon fill="red" stroke="red" points="238.5,-23.35 231.43,-15.46 232.04,-26.04 238.5,-23.35"/>
<text text-anchor="middle" x="247.08" y="-33.2" font-family="Times,serif" font-size="14.00">0</text>
</g>
<!-- 21 -->
<g id="node22" class="node">
<title>21</title>
<text text-anchor="middle" x="281.38" y="-0.95" font-family="Times,serif" font-size="14.00">* +AB</text>
</g>
<!-- 19&#45;&gt;21 -->
<g id="edge21" class="edge">
<title>19&#45;&gt;21</title>
<path fill="none" stroke="blue" d="M256.87,-64.86C260.78,-55.79 268.53,-37.86 274.27,-24.57"/>
<polygon fill="blue" stroke="blue" points="277.46,-26.02 278.21,-15.45 271.03,-23.24 277.46,-26.02"/>
<text text-anchor="middle" x="273.67" y="-33.2" font-family="Times,serif" font-size="14.00">1</text>
</g>
<!-- 27 -->
<g id="node28" class="node">
<title>27</title>
<text text-anchor="middle" x="799.38" y="-258.95" font-family="Times,serif" font-size="14.00">(5) str.substr(cgi_decode_s_str_1, 2, 1) == &quot;+&quot;</text>
</g>
<!-- 26&#45;&gt;27 -->
<g id="edge27" class="edge">
<title>26&#45;&gt;27</title>
<path fill="none" stroke="red" d="M856.56,-322.86C846.77,-313.14 826.72,-293.25 813.16,-279.8"/>
<polygon fill="red" stroke="red" points="816,-277.69 806.43,-273.13 811.07,-282.65 816,-277.69"/>
<text text-anchor="middle" x="839.89" y="-291.2" font-family="Times,serif" font-size="14.00">0</text>
</g>
<!-- 34 -->
<g id="node35" class="node">
<title>34</title>
<text text-anchor="middle" x="959.38" y="-258.95" font-family="Times,serif" font-size="14.00">* ++</text>
</g>
<!-- 26&#45;&gt;34 -->
<g id="edge34" class="edge">
<title>26&#45;&gt;34</title>
<path fill="none" stroke="blue" d="M871.68,-322.63C887.42,-312.49 919.64,-291.73 940.34,-278.39"/>
<polygon fill="blue" stroke="blue" points="942.18,-281.37 948.69,-273.01 938.39,-275.49 942.18,-281.37"/>
<text text-anchor="middle" x="922.94" y="-291.2" font-family="Times,serif" font-size="14.00">1</text>
</g>
<!-- 28 -->
<g id="node29" class="node">
<title>28</title>
<text text-anchor="middle" x="780.38" y="-194.45" font-family="Times,serif" font-size="14.00">(6) str.substr(cgi_decode_s_str_1, 2, 1) == &quot;%&quot;</text>
</g>
<!-- 27&#45;&gt;28 -->
<g id="edge28" class="edge">
<title>27&#45;&gt;28</title>
<path fill="none" stroke="red" d="M797.62,-258.36C794.89,-249.38 789.52,-231.72 785.5,-218.48"/>
<polygon fill="red" stroke="red" points="788.88,-217.56 782.62,-209.01 782.18,-219.59 788.88,-217.56"/>
<text text-anchor="middle" x="794.95" y="-226.7" font-family="Times,serif" font-size="14.00">0</text>
</g>
<!-- 33 -->
<g id="node34" class="node">
<title>33</title>
<text text-anchor="middle" x="945.38" y="-194.45" font-family="Times,serif" font-size="14.00">? (63)</text>
</g>
<!-- 27&#45;&gt;33 -->
<g id="edge33" class="edge">
<title>27&#45;&gt;33</title>
<path fill="none" stroke="blue" d="M813.64,-258.02C838.56,-247.35 890.3,-225.2 921,-212.06"/>
<polygon fill="blue" stroke="blue" points="922.06,-215.41 929.88,-208.26 919.31,-208.98 922.06,-215.41"/>
<text text-anchor="middle" x="888.83" y="-226.7" font-family="Times,serif" font-size="14.00">1</text>
</g>
<!-- 29 -->
<g id="node30" class="node">
<title>29</title>
<text text-anchor="middle" x="676.38" y="-129.95" font-family="Times,serif" font-size="14.00">(7) Length(cgi_decode_s_str_1) &lt;= 3</text>
</g>
<!-- 28&#45;&gt;29 -->
<g id="edge29" class="edge">
<title>28&#45;&gt;29</title>
<path fill="none" stroke="red" d="M770.4,-193.63C753.36,-183.39 718.34,-162.34 696.18,-149.03"/>
<polygon fill="red" stroke="red" points="698.14,-146.12 687.77,-143.97 694.54,-152.12 698.14,-146.12"/>
<text text-anchor="middle" x="741.07" y="-162.2" font-family="Times,serif" font-size="14.00">0</text>
</g>
<!-- 32 -->
<g id="node33" class="node">
<title>32</title>
<text text-anchor="middle" x="813.38" y="-129.95" font-family="Times,serif" font-size="14.00">? (63)</text>
</g>
<!-- 28&#45;&gt;32 -->
<g id="edge32" class="edge">
<title>28&#45;&gt;32</title>
<path fill="none" stroke="blue" d="M783.42,-193.86C788.26,-184.69 797.87,-166.49 804.91,-153.17"/>
<polygon fill="blue" stroke="blue" points="807.96,-154.88 809.53,-144.4 801.77,-151.61 807.96,-154.88"/>
<text text-anchor="middle" x="803.21" y="-162.2" font-family="Times,serif" font-size="14.00">1</text>
</g>
<!-- 30 -->
<g id="node31" class="node">
<title>30</title>
<text text-anchor="middle" x="649.38" y="-65.45" font-family="Times,serif" font-size="14.00">? (63)</text>
</g>
<!-- 29&#45;&gt;30 -->
<g id="edge30" class="edge">
<title>29&#45;&gt;30</title>
<path fill="none" stroke="red" d="M673.88,-129.36C669.97,-120.29 662.22,-102.36 656.48,-89.07"/>
<polygon fill="red" stroke="red" points="659.72,-87.74 652.54,-79.95 653.29,-90.52 659.72,-87.74"/>
<text text-anchor="middle" x="668.67" y="-97.7" font-family="Times,serif" font-size="14.00">0</text>
</g>
<!-- 31 -->
<g id="node32" class="node">
<title>31</title>
<text text-anchor="middle" x="702.38" y="-65.45" font-family="Times,serif" font-size="14.00">* ++A</text>
</g>
<!-- 29&#45;&gt;31 -->
<g id="edge31" class="edge">
<title>29&#45;&gt;31</title>
<path fill="none" stroke="blue" d="M678.77,-129.36C682.55,-120.29 690.01,-102.36 695.53,-89.07"/>
<polygon fill="blue" stroke="blue" points="698.71,-90.54 699.32,-79.96 692.25,-87.85 698.71,-90.54"/>
<text text-anchor="middle" x="695.08" y="-97.7" font-family="Times,serif" font-size="14.00">1</text>
</g>
</g>
</svg>