<svg xmlns="http://www.w3.org/2000/svg" class="railroad-diagram" height="62" viewBox="0 0 512.5 62" width="512.5">
<g transform="translate(.5 .5)">
<style>/* <![CDATA[ */
    svg.railroad-diagram {
    }
    svg.railroad-diagram path {
        stroke-width:3;
        stroke:black;
        fill:white;
    }
    svg.railroad-diagram text {
        font:14px "Fira Mono", monospace;
        text-anchor:middle;
    }
    svg.railroad-diagram text.label{
        text-anchor:start;
    }
    svg.railroad-diagram text.comment{
        font:italic 12px "Fira Mono", monospace;
    }
    svg.railroad-diagram rect{
        stroke-width:2;
        stroke:black;
        fill:mistyrose;
    }

/* ]]> */
</style><g>
<path d="M20 21v20m10 -20v20m-10 -10h20"/></g><g>
<path d="M40 31h0.0"/><path d="M472.5 31h0.0"/><path d="M40.0 31h20"/><g>
<path d="M60.0 31h0.0"/><path d="M452.5 31h0.0"/><g class="non-terminal">
<path d="M60.0 31h0.0"/><path d="M122.5 31h0.0"/><rect height="22" width="62.5" x="60.0" y="20"/><text x="91.25" y="35">digit</text></g><path d="M122.5 31h10"/><path d="M132.5 31h10"/><g class="non-terminal">
<path d="M142.5 31h0.0"/><path d="M205.0 31h0.0"/><rect height="22" width="62.5" x="142.5" y="20"/><text x="173.75" y="35">digit</text></g><path d="M205.0 31h10"/><path d="M215.0 31h10"/><g class="non-terminal">
<path d="M225.0 31h0.0"/><path d="M287.5 31h0.0"/><rect height="22" width="62.5" x="225.0" y="20"/><text x="256.25" y="35">digit</text></g><path d="M287.5 31h10"/><path d="M297.5 31h10"/><g class="non-terminal">
<path d="M307.5 31h0.0"/><path d="M370.0 31h0.0"/><rect height="22" width="62.5" x="307.5" y="20"/><text x="338.75" y="35">digit</text></g><path d="M370.0 31h10"/><path d="M380.0 31h10"/><g class="non-terminal">
<path d="M390.0 31h0.0"/><path d="M452.5 31h0.0"/><rect height="22" width="62.5" x="390.0" y="20"/><text x="421.25" y="35">digit</text></g></g><path d="M452.5 31h20"/></g><path d="M 472.5 31 h 20 m -10 -10 v 20 m 10 -20 v 20"/></g></svg>