<?xml version="1.0" encoding="UTF-8" standalone="no"?>
<!DOCTYPE svg PUBLIC "-//W3C//DTD SVG 1.1//EN"
 "http://www.w3.org/Graphics/SVG/1.1/DTD/svg11.dtd">
<!-- Generated by graphviz version 12.2.1 (20241206.2353)
 -->
<!-- Pages: 1 -->
<svg width="282pt" height="636pt"
 viewBox="0.00 0.00 281.77 636.00" xmlns="http://www.w3.org/2000/svg" xmlns:xlink="http://www.w3.org/1999/xlink">
<g id="graph0" class="graph" transform="scale(1 1) rotate(0) translate(4 632)">
<polygon fill="white" stroke="none" points="-4,4 -4,-632 277.77,-632 277.77,4 -4,4"/>
<!-- 1 -->
<g id="node1" class="node">
<title>1</title>
<ellipse fill="none" stroke="black" cx="173.9" cy="-606" rx="72.19" ry="18"/>
<ellipse fill="none" stroke="black" cx="173.9" cy="-606" rx="76.19" ry="22"/>
<text text-anchor="middle" x="173.9" y="-599.83" font-family="Times,serif" font-size="14.00">1: enter: gcd(a, b)</text>
</g>
<!-- 3 -->
<g id="node4" class="node">
<title>3</title>
<polygon fill="none" stroke="black" points="173.9,-548 106.88,-530 173.9,-512 240.91,-530 173.9,-548"/>
<text text-anchor="middle" x="173.9" y="-523.83" font-family="Times,serif" font-size="14.00">2: if: a &lt; b</text>
</g>
<!-- 1&#45;&gt;3 -->
<g id="edge2" class="edge">
<title>1&#45;&gt;3</title>
<path fill="none" stroke="green" d="M173.9,-583.6C173.9,-576.11 173.9,-567.59 173.9,-559.61"/>
<polygon fill="green" stroke="green" points="177.4,-559.65 173.9,-549.65 170.4,-559.65 177.4,-559.65"/>
</g>
<!-- 2 -->
<g id="node2" class="node">
<title>2</title>
<ellipse fill="none" stroke="black" cx="71.9" cy="-94" rx="67.9" ry="18"/>
<ellipse fill="none" stroke="black" cx="71.9" cy="-94" rx="71.9" ry="22"/>
<text text-anchor="middle" x="71.9" y="-87.83" font-family="Times,serif" font-size="14.00">1: exit: gcd(a, b)</text>
</g>
<!-- 11 -->
<g id="node3" class="node">
<title>11</title>
<polygon fill="none" stroke="black" points="111.4,-188 32.4,-188 32.4,-152 111.4,-152 111.4,-188"/>
<text text-anchor="middle" x="71.9" y="-163.82" font-family="Times,serif" font-size="14.00">12: return a</text>
</g>
<!-- 11&#45;&gt;2 -->
<g id="edge1" class="edge">
<title>11&#45;&gt;2</title>
<path fill="none" stroke="green" d="M71.9,-151.84C71.9,-144.64 71.9,-136.02 71.9,-127.7"/>
<polygon fill="green" stroke="green" points="75.4,-127.82 71.9,-117.82 68.4,-127.82 75.4,-127.82"/>
</g>
<!-- 4 -->
<g id="node5" class="node">
<title>4</title>
<ellipse fill="none" stroke="black" cx="134.9" cy="-458" rx="50.72" ry="18"/>
<text text-anchor="middle" x="134.9" y="-451.82" font-family="Times,serif" font-size="14.00">3: c: int = a</text>
</g>
<!-- 3&#45;&gt;4 -->
<g id="edge3" class="edge">
<title>3&#45;&gt;4</title>
<path fill="none" stroke="green" d="M165.43,-513.81C160.89,-505.66 155.16,-495.37 149.89,-485.92"/>
<polygon fill="green" stroke="green" points="153.1,-484.48 145.17,-477.45 146.98,-487.89 153.1,-484.48"/>
</g>
<!-- 7 -->
<g id="node8" class="node">
<title>7</title>
<polygon fill="none" stroke="black" points="179.9,-260 88.6,-242 179.9,-224 271.19,-242 179.9,-260"/>
<text text-anchor="middle" x="179.9" y="-235.82" font-family="Times,serif" font-size="14.00">7: while: b != 0</text>
</g>
<!-- 3&#45;&gt;7 -->
<g id="edge7" class="edge">
<title>3&#45;&gt;7</title>
<path fill="none" stroke="green" d="M181.75,-513.7C186.6,-503.35 192.37,-489.22 194.9,-476 208.86,-402.85 195.05,-314.68 186.15,-270.74"/>
<polygon fill="green" stroke="green" points="189.59,-270.11 184.1,-261.04 182.74,-271.55 189.59,-270.11"/>
</g>
<!-- 5 -->
<g id="node6" class="node">
<title>5</title>
<polygon fill="none" stroke="black" points="175.27,-404 116.52,-404 116.52,-368 175.27,-368 175.27,-404"/>
<text text-anchor="middle" x="145.9" y="-379.82" font-family="Times,serif" font-size="14.00">4: a = b</text>
</g>
<!-- 4&#45;&gt;5 -->
<g id="edge4" class="edge">
<title>4&#45;&gt;5</title>
<path fill="none" stroke="green" d="M137.61,-439.7C138.77,-432.32 140.16,-423.52 141.46,-415.25"/>
<polygon fill="green" stroke="green" points="144.88,-416.02 142.97,-405.6 137.96,-414.93 144.88,-416.02"/>
</g>
<!-- 6 -->
<g id="node7" class="node">
<title>6</title>
<polygon fill="none" stroke="black" points="181.27,-332 122.52,-332 122.52,-296 181.27,-296 181.27,-332"/>
<text text-anchor="middle" x="151.9" y="-307.82" font-family="Times,serif" font-size="14.00">5: b = c</text>
</g>
<!-- 5&#45;&gt;6 -->
<g id="edge5" class="edge">
<title>5&#45;&gt;6</title>
<path fill="none" stroke="green" d="M147.38,-367.7C148,-360.41 148.75,-351.73 149.45,-343.54"/>
<polygon fill="green" stroke="green" points="152.93,-343.87 150.3,-333.61 145.96,-343.28 152.93,-343.87"/>
</g>
<!-- 6&#45;&gt;7 -->
<g id="edge6" class="edge">
<title>6&#45;&gt;7</title>
<path fill="none" stroke="green" d="M158.82,-295.7C161.96,-287.84 165.75,-278.37 169.24,-269.63"/>
<polygon fill="green" stroke="green" points="172.41,-271.13 172.88,-260.55 165.91,-268.53 172.41,-271.13"/>
</g>
<!-- 7&#45;&gt;11 -->
<g id="edge12" class="edge">
<title>7&#45;&gt;11</title>
<path fill="none" stroke="green" d="M159.33,-227.67C144.77,-218.23 124.86,-205.33 107.71,-194.22"/>
<polygon fill="green" stroke="green" points="110.09,-191.59 99.8,-189.08 106.28,-197.46 110.09,-191.59"/>
</g>
<!-- 8 -->
<g id="node10" class="node">
<title>8</title>
<ellipse fill="none" stroke="black" cx="179.9" cy="-170" rx="50.72" ry="18"/>
<text text-anchor="middle" x="179.9" y="-163.82" font-family="Times,serif" font-size="14.00">8: c: int = a</text>
</g>
<!-- 7&#45;&gt;8 -->
<g id="edge9" class="edge">
<title>7&#45;&gt;8</title>
<path fill="none" stroke="green" d="M179.9,-223.7C179.9,-216.41 179.9,-207.73 179.9,-199.54"/>
<polygon fill="green" stroke="green" points="183.4,-199.62 179.9,-189.62 176.4,-199.62 183.4,-199.62"/>
</g>
<!-- 10 -->
<g id="node9" class="node">
<title>10</title>
<polygon fill="none" stroke="black" points="273.77,-36 182.02,-36 182.02,0 273.77,0 273.77,-36"/>
<text text-anchor="middle" x="227.9" y="-11.82" font-family="Times,serif" font-size="14.00">10: b = c % b</text>
</g>
<!-- 10&#45;&gt;7 -->
<g id="edge8" class="edge">
<title>10&#45;&gt;7</title>
<path fill="none" stroke="green" d="M234.37,-36.5C245.04,-68.28 262.93,-136.92 239.9,-188 233.87,-201.36 222.62,-212.71 211.48,-221.44"/>
<polygon fill="green" stroke="green" points="209.52,-218.53 203.49,-227.25 213.64,-224.2 209.52,-218.53"/>
</g>
<!-- 9 -->
<g id="node11" class="node">
<title>9</title>
<polygon fill="none" stroke="black" points="226.27,-112 167.52,-112 167.52,-76 226.27,-76 226.27,-112"/>
<text text-anchor="middle" x="196.9" y="-87.83" font-family="Times,serif" font-size="14.00">9: a = b</text>
</g>
<!-- 8&#45;&gt;9 -->
<g id="edge10" class="edge">
<title>8&#45;&gt;9</title>
<path fill="none" stroke="green" d="M183.84,-151.84C185.78,-143.4 188.16,-133.01 190.37,-123.42"/>
<polygon fill="green" stroke="green" points="193.75,-124.33 192.58,-113.8 186.93,-122.76 193.75,-124.33"/>
</g>
<!-- 9&#45;&gt;10 -->
<g id="edge11" class="edge">
<title>9&#45;&gt;10</title>
<path fill="none" stroke="green" d="M204.09,-75.84C207.7,-67.21 212.17,-56.55 216.25,-46.79"/>
<polygon fill="green" stroke="green" points="219.42,-48.3 220.05,-37.72 212.96,-45.59 219.42,-48.3"/>
</g>
</g>
</svg>