<svg xmlns="http://www.w3.org/2000/svg" class="railroad-diagram" height="62" viewBox="0 0 307.5 62" width="307.5">
<g transform="translate(.5 .5)">
<style>/* <![CDATA[ */
    svg.railroad-diagram {
    }
    svg.railroad-diagram path {
        stroke-width:3;
        stroke:black;
        fill:white;
    }
    svg.railroad-diagram text {
        font:14px "Fira Mono", monospace;
        text-anchor:middle;
    }
    svg.railroad-diagram text.label{
        text-anchor:start;
    }
    svg.railroad-diagram text.comment{
        font:italic 12px "Fira Mono", monospace;
    }
    svg.railroad-diagram rect{
        stroke-width:2;
        stroke:black;
        fill:mistyrose;
    }

/* ]]> */
</style><g>
<path d="M20 21v20m10 -20v20m-10 -10h20"/></g><g>
<path d="M40 31h0.0"/><path d="M267.5 31h0.0"/><path d="M40.0 31h20"/><g>
<path d="M60.0 31h0.0"/><path d="M247.5 31h0.0"/><g class="non-terminal">
<path d="M60.0 31h0.0"/><path d="M156.5 31h0.0"/><rect height="22" width="96.5" x="60.0" y="20"/><text x="108.25" y="35">leaddigit</text></g><path d="M156.5 31h10"/><path d="M166.5 31h10"/><g class="non-terminal">
<path d="M176.5 31h0.0"/><path d="M247.5 31h0.0"/><rect height="22" width="71.0" x="176.5" y="20"/><text x="212.0" y="35">digits</text></g></g><path d="M247.5 31h20"/></g><path d="M 267.5 31 h 20 m -10 -10 v 20 m 10 -20 v 20"/></g></svg>