<?xml version="1.0" encoding="UTF-8" standalone="no"?>
<!DOCTYPE svg PUBLIC "-//W3C//DTD SVG 1.1//EN"
 "http://www.w3.org/Graphics/SVG/1.1/DTD/svg11.dtd">
<!-- Generated by graphviz version 2.40.1 (20161225.0304)
 -->
<!-- Title: %3 Pages: 1 -->
<svg width="230pt" height="431pt"
 viewBox="0.00 0.00 230.00 431.00" xmlns="http://www.w3.org/2000/svg" xmlns:xlink="http://www.w3.org/1999/xlink">
<g id="graph0" class="graph" transform="scale(1 1) rotate(0) translate(4 427)">
<title>%3</title>
<polygon fill="#ffffff" stroke="transparent" points="-4,4 -4,-427 226,-427 226,4 -4,4"/>
<!-- 0 -->
<g id="node1" class="node">
<title>0</title>
<text text-anchor="middle" x="97.5" y="-411.8" font-family="Times,serif" font-size="14.00" fill="#000000">&lt;start&gt;</text>
</g>
<!-- 1 -->
<g id="node2" class="node">
<title>1</title>
<text text-anchor="middle" x="97.5" y="-360.8" font-family="Times,serif" font-size="14.00" fill="#000000">&lt;expr&gt;</text>
</g>
<!-- 0&#45;&gt;1 -->
<g id="edge1" class="edge">
<title>0&#45;&gt;1</title>
<path fill="none" stroke="#000000" d="M97.5,-407.9748C97.5,-401.195 97.5,-390.966 97.5,-382.1331"/>
<polygon fill="#000000" stroke="#000000" points="101.0001,-382.0561 97.5,-372.0561 94.0001,-382.0561 101.0001,-382.0561"/>
</g>
<!-- 2 -->
<g id="node3" class="node">
<title>2</title>
<text text-anchor="middle" x="47.5" y="-309.8" font-family="Times,serif" font-size="14.00" fill="#000000">&lt;term&gt;</text>
</g>
<!-- 1&#45;&gt;2 -->
<g id="edge2" class="edge">
<title>1&#45;&gt;2</title>
<path fill="none" stroke="#000000" d="M90.1223,-356.9748C82.7369,-349.4417 71.1768,-337.6503 61.958,-328.2472"/>
<polygon fill="#000000" stroke="#000000" points="64.4079,-325.7466 54.9079,-321.0561 59.4094,-330.6471 64.4079,-325.7466"/>
</g>
<!-- 7 -->
<g id="node8" class="node">
<title>7</title>
<text text-anchor="middle" x="97.5" y="-309.8" font-family="Times,serif" font-size="14.00" fill="#000000"> + </text>
</g>
<!-- 1&#45;&gt;7 -->
<g id="edge7" class="edge">
<title>1&#45;&gt;7</title>
<path fill="none" stroke="#000000" d="M97.5,-356.9748C97.5,-350.195 97.5,-339.966 97.5,-331.1331"/>
<polygon fill="#000000" stroke="#000000" points="101.0001,-331.0561 97.5,-321.0561 94.0001,-331.0561 101.0001,-331.0561"/>
</g>
<!-- 8 -->
<g id="node9" class="node">
<title>8</title>
<text text-anchor="middle" x="145.5" y="-309.8" font-family="Times,serif" font-size="14.00" fill="#000000">&lt;expr&gt;</text>
</g>
<!-- 1&#45;&gt;8 -->
<g id="edge8" class="edge">
<title>1&#45;&gt;8</title>
<path fill="none" stroke="#000000" d="M104.5826,-356.9748C111.6017,-349.517 122.5487,-337.8857 131.3541,-328.53"/>
<polygon fill="#000000" stroke="#000000" points="134.0834,-330.7369 138.3884,-321.0561 128.986,-325.9393 134.0834,-330.7369"/>
</g>
<!-- 3 -->
<g id="node4" class="node">
<title>3</title>
<text text-anchor="middle" x="40.5" y="-258.8" font-family="Times,serif" font-size="14.00" fill="#000000">&lt;factor&gt;</text>
</g>
<!-- 2&#45;&gt;3 -->
<g id="edge3" class="edge">
<title>2&#45;&gt;3</title>
<path fill="none" stroke="#000000" d="M46.4671,-305.9748C45.5366,-299.195 44.1326,-288.966 42.9202,-280.1331"/>
<polygon fill="#000000" stroke="#000000" points="46.3645,-279.4873 41.5371,-270.0561 39.4295,-280.4392 46.3645,-279.4873"/>
</g>
<!-- 4 -->
<g id="node5" class="node">
<title>4</title>
<text text-anchor="middle" x="27.5" y="-207.8" font-family="Times,serif" font-size="14.00" fill="#000000">&lt;integer&gt;</text>
</g>
<!-- 3&#45;&gt;4 -->
<g id="edge4" class="edge">
<title>3&#45;&gt;4</title>
<path fill="none" stroke="#000000" d="M38.5818,-254.9748C36.8344,-248.1196 34.1882,-237.7383 31.9198,-228.8392"/>
<polygon fill="#000000" stroke="#000000" points="35.2877,-227.8817 29.4261,-219.0561 28.5046,-229.6108 35.2877,-227.8817"/>
</g>
<!-- 5 -->
<g id="node6" class="node">
<title>5</title>
<text text-anchor="middle" x="27.5" y="-156.8" font-family="Times,serif" font-size="14.00" fill="#000000">&lt;digit&gt;</text>
</g>
<!-- 4&#45;&gt;5 -->
<g id="edge5" class="edge">
<title>4&#45;&gt;5</title>
<path fill="none" stroke="#000000" d="M27.5,-203.9748C27.5,-197.195 27.5,-186.966 27.5,-178.1331"/>
<polygon fill="#000000" stroke="#000000" points="31.0001,-178.0561 27.5,-168.0561 24.0001,-178.0561 31.0001,-178.0561"/>
</g>
<!-- 6 -->
<g id="node7" class="node">
<title>6</title>
<text text-anchor="middle" x="27.5" y="-105.8" font-family="Times,serif" font-size="14.00" fill="#000000">1</text>
</g>
<!-- 5&#45;&gt;6 -->
<g id="edge6" class="edge">
<title>5&#45;&gt;6</title>
<path fill="none" stroke="#000000" d="M27.5,-152.9748C27.5,-146.195 27.5,-135.966 27.5,-127.1331"/>
<polygon fill="#000000" stroke="#000000" points="31.0001,-127.0561 27.5,-117.0561 24.0001,-127.0561 31.0001,-127.0561"/>
</g>
<!-- 9 -->
<g id="node10" class="node">
<title>9</title>
<text text-anchor="middle" x="146.5" y="-258.8" font-family="Times,serif" font-size="14.00" fill="#000000">&lt;term&gt;</text>
</g>
<!-- 8&#45;&gt;9 -->
<g id="edge9" class="edge">
<title>8&#45;&gt;9</title>
<path fill="none" stroke="#000000" d="M145.6476,-305.9748C145.7805,-299.195 145.9811,-288.966 146.1543,-280.1331"/>
<polygon fill="#000000" stroke="#000000" points="149.655,-280.1228 146.3518,-270.0561 142.6564,-279.9855 149.655,-280.1228"/>
</g>
<!-- 10 -->
<g id="node11" class="node">
<title>10</title>
<text text-anchor="middle" x="97.5" y="-207.8" font-family="Times,serif" font-size="14.00" fill="#000000">&lt;factor&gt;</text>
</g>
<!-- 9&#45;&gt;10 -->
<g id="edge10" class="edge">
<title>9&#45;&gt;10</title>
<path fill="none" stroke="#000000" d="M139.2699,-254.9748C132.1046,-247.517 120.9294,-235.8857 111.9406,-226.53"/>
<polygon fill="#000000" stroke="#000000" points="114.2119,-223.8423 104.7598,-219.0561 109.1642,-228.6921 114.2119,-223.8423"/>
</g>
<!-- 14 -->
<g id="node15" class="node">
<title>14</title>
<text text-anchor="middle" x="147.5" y="-207.8" font-family="Times,serif" font-size="14.00" fill="#000000"> * </text>
</g>
<!-- 9&#45;&gt;14 -->
<g id="edge14" class="edge">
<title>9&#45;&gt;14</title>
<path fill="none" stroke="#000000" d="M146.6476,-254.9748C146.7805,-248.195 146.9811,-237.966 147.1543,-229.1331"/>
<polygon fill="#000000" stroke="#000000" points="150.655,-229.1228 147.3518,-219.0561 143.6564,-228.9855 150.655,-229.1228"/>
</g>
<!-- 15 -->
<g id="node16" class="node">
<title>15</title>
<text text-anchor="middle" x="194.5" y="-207.8" font-family="Times,serif" font-size="14.00" fill="#000000">&lt;term&gt;</text>
</g>
<!-- 9&#45;&gt;15 -->
<g id="edge15" class="edge">
<title>9&#45;&gt;15</title>
<path fill="none" stroke="#000000" d="M153.5826,-254.9748C160.6017,-247.517 171.5487,-235.8857 180.3541,-226.53"/>
<polygon fill="#000000" stroke="#000000" points="183.0834,-228.7369 187.3884,-219.0561 177.986,-223.9393 183.0834,-228.7369"/>
</g>
<!-- 11 -->
<g id="node12" class="node">
<title>11</title>
<text text-anchor="middle" x="97.5" y="-156.8" font-family="Times,serif" font-size="14.00" fill="#000000">&lt;integer&gt;</text>
</g>
<!-- 10&#45;&gt;11 -->
<g id="edge11" class="edge">
<title>10&#45;&gt;11</title>
<path fill="none" stroke="#000000" d="M97.5,-203.9748C97.5,-197.195 97.5,-186.966 97.5,-178.1331"/>
<polygon fill="#000000" stroke="#000000" points="101.0001,-178.0561 97.5,-168.0561 94.0001,-178.0561 101.0001,-178.0561"/>
</g>
<!-- 12 -->
<g id="node13" class="node">
<title>12</title>
<text text-anchor="middle" x="97.5" y="-105.8" font-family="Times,serif" font-size="14.00" fill="#000000">&lt;digit&gt;</text>
</g>
<!-- 11&#45;&gt;12 -->
<g id="edge12" class="edge">
<title>11&#45;&gt;12</title>
<path fill="none" stroke="#000000" d="M97.5,-152.9748C97.5,-146.195 97.5,-135.966 97.5,-127.1331"/>
<polygon fill="#000000" stroke="#000000" points="101.0001,-127.0561 97.5,-117.0561 94.0001,-127.0561 101.0001,-127.0561"/>
</g>
<!-- 13 -->
<g id="node14" class="node">
<title>13</title>
<text text-anchor="middle" x="97.5" y="-54.8" font-family="Times,serif" font-size="14.00" fill="#000000">2</text>
</g>
<!-- 12&#45;&gt;13 -->
<g id="edge13" class="edge">
<title>12&#45;&gt;13</title>
<path fill="none" stroke="#000000" d="M97.5,-101.9748C97.5,-95.195 97.5,-84.966 97.5,-76.1331"/>
<polygon fill="#000000" stroke="#000000" points="101.0001,-76.0561 97.5,-66.0561 94.0001,-76.0561 101.0001,-76.0561"/>
</g>
<!-- 16 -->
<g id="node17" class="node">
<title>16</title>
<text text-anchor="middle" x="194.5" y="-156.8" font-family="Times,serif" font-size="14.00" fill="#000000">&lt;factor&gt;</text>
</g>
<!-- 15&#45;&gt;16 -->
<g id="edge16" class="edge">
<title>15&#45;&gt;16</title>
<path fill="none" stroke="#000000" d="M194.5,-203.9748C194.5,-197.195 194.5,-186.966 194.5,-178.1331"/>
<polygon fill="#000000" stroke="#000000" points="198.0001,-178.0561 194.5,-168.0561 191.0001,-178.0561 198.0001,-178.0561"/>
</g>
<!-- 17 -->
<g id="node18" class="node">
<title>17</title>
<text text-anchor="middle" x="194.5" y="-105.8" font-family="Times,serif" font-size="14.00" fill="#000000">&lt;integer&gt;</text>
</g>
<!-- 16&#45;&gt;17 -->
<g id="edge17" class="edge">
<title>16&#45;&gt;17</title>
<path fill="none" stroke="#000000" d="M194.5,-152.9748C194.5,-146.195 194.5,-135.966 194.5,-127.1331"/>
<polygon fill="#000000" stroke="#000000" points="198.0001,-127.0561 194.5,-117.0561 191.0001,-127.0561 198.0001,-127.0561"/>
</g>
<!-- 18 -->
<g id="node19" class="node">
<title>18</title>
<text text-anchor="middle" x="194.5" y="-54.8" font-family="Times,serif" font-size="14.00" fill="#000000">&lt;digit&gt;</text>
</g>
<!-- 17&#45;&gt;18 -->
<g id="edge18" class="edge">
<title>17&#45;&gt;18</title>
<path fill="none" stroke="#000000" d="M194.5,-101.9748C194.5,-95.195 194.5,-84.966 194.5,-76.1331"/>
<polygon fill="#000000" stroke="#000000" points="198.0001,-76.0561 194.5,-66.0561 191.0001,-76.0561 198.0001,-76.0561"/>
</g>
<!-- 19 -->
<g id="node20" class="node">
<title>19</title>
<text text-anchor="middle" x="194.5" y="-3.8" font-family="Times,serif" font-size="14.00" fill="#000000">3</text>
</g>
<!-- 18&#45;&gt;19 -->
<g id="edge19" class="edge">
<title>18&#45;&gt;19</title>
<path fill="none" stroke="#000000" d="M194.5,-50.9748C194.5,-44.195 194.5,-33.966 194.5,-25.1331"/>
<polygon fill="#000000" stroke="#000000" points="198.0001,-25.0561 194.5,-15.0561 191.0001,-25.0561 198.0001,-25.0561"/>
</g>
</g>
</svg>