<?xml version="1.0" encoding="UTF-8" standalone="no"?>
<!DOCTYPE svg PUBLIC "-//W3C//DTD SVG 1.1//EN"
 "http://www.w3.org/Graphics/SVG/1.1/DTD/svg11.dtd">
<!-- Generated by graphviz version 2.40.1 (20161225.0304)
 -->
<!-- Title: %3 Pages: 1 -->
<svg width="437pt" height="635pt"
 viewBox="0.00 0.00 437.00 635.00" xmlns="http://www.w3.org/2000/svg" xmlns:xlink="http://www.w3.org/1999/xlink">
<g id="graph0" class="graph" transform="scale(1 1) rotate(0) translate(4 631)">
<title>%3</title>
<polygon fill="#ffffff" stroke="transparent" points="-4,4 -4,-631 433,-631 433,4 -4,4"/>
<!-- 0 -->
<g id="node1" class="node">
<title>0</title>
<text text-anchor="middle" x="190.5" y="-615.8" font-family="Times,serif" font-size="14.00" fill="#000000">&lt;start&gt;</text>
</g>
<!-- 1 -->
<g id="node2" class="node">
<title>1</title>
<text text-anchor="middle" x="190.5" y="-564.8" font-family="Times,serif" font-size="14.00" fill="#000000">&lt;statements&gt;</text>
</g>
<!-- 0&#45;&gt;1 -->
<g id="edge1" class="edge">
<title>0&#45;&gt;1</title>
<path fill="none" stroke="#000000" d="M190.5,-611.9748C190.5,-605.195 190.5,-594.966 190.5,-586.1331"/>
<polygon fill="#000000" stroke="#000000" points="194.0001,-586.0561 190.5,-576.0561 187.0001,-586.0561 194.0001,-586.0561"/>
</g>
<!-- 2 -->
<g id="node3" class="node">
<title>2</title>
<text text-anchor="middle" x="133.5" y="-513.8" font-family="Times,serif" font-size="14.00" fill="#000000">&lt;statement&gt;</text>
</g>
<!-- 1&#45;&gt;2 -->
<g id="edge2" class="edge">
<title>1&#45;&gt;2</title>
<path fill="none" stroke="#000000" d="M182.0895,-560.9748C173.5859,-553.3663 160.2275,-541.4141 149.6677,-531.9658"/>
<polygon fill="#000000" stroke="#000000" points="151.7313,-529.1157 141.9451,-525.0561 147.0637,-534.3324 151.7313,-529.1157"/>
</g>
<!-- 22 -->
<g id="node23" class="node">
<title>22</title>
<text text-anchor="middle" x="190.5" y="-513.8" font-family="Times,serif" font-size="14.00" fill="#000000">;</text>
</g>
<!-- 1&#45;&gt;22 -->
<g id="edge22" class="edge">
<title>1&#45;&gt;22</title>
<path fill="none" stroke="#000000" d="M190.5,-560.9748C190.5,-554.195 190.5,-543.966 190.5,-535.1331"/>
<polygon fill="#000000" stroke="#000000" points="194.0001,-535.0561 190.5,-525.0561 187.0001,-535.0561 194.0001,-535.0561"/>
</g>
<!-- 23 -->
<g id="node24" class="node">
<title>23</title>
<text text-anchor="middle" x="249.5" y="-513.8" font-family="Times,serif" font-size="14.00" fill="#000000">&lt;statements&gt;</text>
</g>
<!-- 1&#45;&gt;23 -->
<g id="edge23" class="edge">
<title>1&#45;&gt;23</title>
<path fill="none" stroke="#000000" d="M199.2057,-560.9748C208.0947,-553.291 222.109,-541.177 233.0889,-531.6859"/>
<polygon fill="#000000" stroke="#000000" points="235.4821,-534.2435 240.7586,-525.0561 230.9044,-528.9478 235.4821,-534.2435"/>
</g>
<!-- 3 -->
<g id="node4" class="node">
<title>3</title>
<text text-anchor="middle" x="129.5" y="-462.8" font-family="Times,serif" font-size="14.00" fill="#000000">&lt;assignment&gt;</text>
</g>
<!-- 2&#45;&gt;3 -->
<g id="edge3" class="edge">
<title>2&#45;&gt;3</title>
<path fill="none" stroke="#000000" d="M132.9098,-509.9748C132.378,-503.195 131.5758,-492.966 130.883,-484.1331"/>
<polygon fill="#000000" stroke="#000000" points="134.3639,-483.7518 130.0926,-474.0561 127.3854,-484.2992 134.3639,-483.7518"/>
</g>
<!-- 4 -->
<g id="node5" class="node">
<title>4</title>
<text text-anchor="middle" x="73.5" y="-411.8" font-family="Times,serif" font-size="14.00" fill="#ff0000">&lt;identifier&gt;</text>
</g>
<!-- 3&#45;&gt;4 -->
<g id="edge4" class="edge">
<title>3&#45;&gt;4</title>
<path fill="none" stroke="#000000" d="M121.237,-458.9748C112.8826,-451.3663 99.7586,-439.4141 89.384,-429.9658"/>
<polygon fill="#000000" stroke="#000000" points="91.547,-427.2017 81.7969,-423.0561 86.8337,-432.3771 91.547,-427.2017"/>
</g>
<!-- 11 -->
<g id="node12" class="node">
<title>11</title>
<text text-anchor="middle" x="129.5" y="-411.8" font-family="Times,serif" font-size="14.00" fill="#000000">=</text>
</g>
<!-- 3&#45;&gt;11 -->
<g id="edge11" class="edge">
<title>3&#45;&gt;11</title>
<path fill="none" stroke="#000000" d="M129.5,-458.9748C129.5,-452.195 129.5,-441.966 129.5,-433.1331"/>
<polygon fill="#000000" stroke="#000000" points="133.0001,-433.0561 129.5,-423.0561 126.0001,-433.0561 133.0001,-433.0561"/>
</g>
<!-- 12 -->
<g id="node13" class="node">
<title>12</title>
<text text-anchor="middle" x="172.5" y="-411.8" font-family="Times,serif" font-size="14.00" fill="#000000">&lt;expr&gt;</text>
</g>
<!-- 3&#45;&gt;12 -->
<g id="edge12" class="edge">
<title>3&#45;&gt;12</title>
<path fill="none" stroke="#000000" d="M135.8448,-458.9748C142.0692,-451.5923 151.7417,-440.1203 159.5881,-430.8142"/>
<polygon fill="#000000" stroke="#000000" points="162.359,-432.9574 166.1292,-423.0561 157.0073,-428.4452 162.359,-432.9574"/>
</g>
<!-- 5 -->
<g id="node6" class="node">
<title>5</title>
<text text-anchor="middle" x="73.5" y="-360.8" font-family="Times,serif" font-size="14.00" fill="#000000">&lt;word&gt;</text>
</g>
<!-- 4&#45;&gt;5 -->
<g id="edge5" class="edge">
<title>4&#45;&gt;5</title>
<path fill="none" stroke="#000000" d="M73.5,-407.9748C73.5,-401.195 73.5,-390.966 73.5,-382.1331"/>
<polygon fill="#000000" stroke="#000000" points="77.0001,-382.0561 73.5,-372.0561 70.0001,-382.0561 77.0001,-382.0561"/>
</g>
<!-- 6 -->
<g id="node7" class="node">
<title>6</title>
<text text-anchor="middle" x="23.5" y="-309.8" font-family="Times,serif" font-size="14.00" fill="#000000">&lt;alpha&gt;</text>
</g>
<!-- 5&#45;&gt;6 -->
<g id="edge6" class="edge">
<title>5&#45;&gt;6</title>
<path fill="none" stroke="#000000" d="M66.1223,-356.9748C58.7369,-349.4417 47.1768,-337.6503 37.958,-328.2472"/>
<polygon fill="#000000" stroke="#000000" points="40.4079,-325.7466 30.9079,-321.0561 35.4094,-330.6471 40.4079,-325.7466"/>
</g>
<!-- 8 -->
<g id="node9" class="node">
<title>8</title>
<text text-anchor="middle" x="87.5" y="-309.8" font-family="Times,serif" font-size="14.00" fill="#000000">&lt;word&gt;</text>
</g>
<!-- 5&#45;&gt;8 -->
<g id="edge8" class="edge">
<title>5&#45;&gt;8</title>
<path fill="none" stroke="#000000" d="M75.5657,-356.9748C77.4476,-350.1196 80.2973,-339.7383 82.7402,-330.8392"/>
<polygon fill="#000000" stroke="#000000" points="86.1537,-331.6259 85.4258,-321.0561 79.4034,-329.7728 86.1537,-331.6259"/>
</g>
<!-- 7 -->
<g id="node8" class="node">
<title>7</title>
<text text-anchor="middle" x="23.5" y="-258.8" font-family="Times,serif" font-size="14.00" fill="#000000">v</text>
</g>
<!-- 6&#45;&gt;7 -->
<g id="edge7" class="edge">
<title>6&#45;&gt;7</title>
<path fill="none" stroke="#000000" d="M23.5,-305.9748C23.5,-299.195 23.5,-288.966 23.5,-280.1331"/>
<polygon fill="#000000" stroke="#000000" points="27.0001,-280.0561 23.5,-270.0561 20.0001,-280.0561 27.0001,-280.0561"/>
</g>
<!-- 9 -->
<g id="node10" class="node">
<title>9</title>
<text text-anchor="middle" x="87.5" y="-258.8" font-family="Times,serif" font-size="14.00" fill="#000000">&lt;alpha&gt;</text>
</g>
<!-- 8&#45;&gt;9 -->
<g id="edge9" class="edge">
<title>8&#45;&gt;9</title>
<path fill="none" stroke="#000000" d="M87.5,-305.9748C87.5,-299.195 87.5,-288.966 87.5,-280.1331"/>
<polygon fill="#000000" stroke="#000000" points="91.0001,-280.0561 87.5,-270.0561 84.0001,-280.0561 91.0001,-280.0561"/>
</g>
<!-- 10 -->
<g id="node11" class="node">
<title>10</title>
<text text-anchor="middle" x="87.5" y="-207.8" font-family="Times,serif" font-size="14.00" fill="#000000">a</text>
</g>
<!-- 9&#45;&gt;10 -->
<g id="edge10" class="edge">
<title>9&#45;&gt;10</title>
<path fill="none" stroke="#000000" d="M87.5,-254.9748C87.5,-248.195 87.5,-237.966 87.5,-229.1331"/>
<polygon fill="#000000" stroke="#000000" points="91.0001,-229.0561 87.5,-219.0561 84.0001,-229.0561 91.0001,-229.0561"/>
</g>
<!-- 13 -->
<g id="node14" class="node">
<title>13</title>
<text text-anchor="middle" x="168.5" y="-360.8" font-family="Times,serif" font-size="14.00" fill="#000000">&lt;term&gt;</text>
</g>
<!-- 12&#45;&gt;13 -->
<g id="edge13" class="edge">
<title>12&#45;&gt;13</title>
<path fill="none" stroke="#000000" d="M171.9098,-407.9748C171.378,-401.195 170.5758,-390.966 169.883,-382.1331"/>
<polygon fill="#000000" stroke="#000000" points="173.3639,-381.7518 169.0926,-372.0561 166.3854,-382.2992 173.3639,-381.7518"/>
</g>
<!-- 14 -->
<g id="node15" class="node">
<title>14</title>
<text text-anchor="middle" x="166.5" y="-309.8" font-family="Times,serif" font-size="14.00" fill="#000000">&lt;factor&gt;</text>
</g>
<!-- 13&#45;&gt;14 -->
<g id="edge14" class="edge">
<title>13&#45;&gt;14</title>
<path fill="none" stroke="#000000" d="M168.2049,-356.9748C167.939,-350.195 167.5379,-339.966 167.1915,-331.1331"/>
<polygon fill="#000000" stroke="#000000" points="170.6856,-330.9112 166.7963,-321.0561 163.691,-331.1856 170.6856,-330.9112"/>
</g>
<!-- 15 -->
<g id="node16" class="node">
<title>15</title>
<text text-anchor="middle" x="164.5" y="-258.8" font-family="Times,serif" font-size="14.00" fill="#ff0000">&lt;number&gt;</text>
</g>
<!-- 14&#45;&gt;15 -->
<g id="edge15" class="edge">
<title>14&#45;&gt;15</title>
<path fill="none" stroke="#000000" d="M166.2049,-305.9748C165.939,-299.195 165.5379,-288.966 165.1915,-280.1331"/>
<polygon fill="#000000" stroke="#000000" points="168.6856,-279.9112 164.7963,-270.0561 161.691,-280.1856 168.6856,-279.9112"/>
</g>
<!-- 16 -->
<g id="node17" class="node">
<title>16</title>
<text text-anchor="middle" x="164.5" y="-207.8" font-family="Times,serif" font-size="14.00" fill="#000000">&lt;integer&gt;</text>
</g>
<!-- 15&#45;&gt;16 -->
<g id="edge16" class="edge">
<title>15&#45;&gt;16</title>
<path fill="none" stroke="#000000" d="M164.5,-254.9748C164.5,-248.195 164.5,-237.966 164.5,-229.1331"/>
<polygon fill="#000000" stroke="#000000" points="168.0001,-229.0561 164.5,-219.0561 161.0001,-229.0561 168.0001,-229.0561"/>
</g>
<!-- 17 -->
<g id="node18" class="node">
<title>17</title>
<text text-anchor="middle" x="131.5" y="-156.8" font-family="Times,serif" font-size="14.00" fill="#000000">&lt;digit&gt;</text>
</g>
<!-- 16&#45;&gt;17 -->
<g id="edge17" class="edge">
<title>16&#45;&gt;17</title>
<path fill="none" stroke="#000000" d="M159.6307,-203.9748C155.0001,-196.8183 147.8828,-185.8188 141.966,-176.6747"/>
<polygon fill="#000000" stroke="#000000" points="144.7603,-174.5504 136.3892,-168.0561 138.8833,-178.3532 144.7603,-174.5504"/>
</g>
<!-- 19 -->
<g id="node20" class="node">
<title>19</title>
<text text-anchor="middle" x="198.5" y="-156.8" font-family="Times,serif" font-size="14.00" fill="#000000">&lt;integer&gt;</text>
</g>
<!-- 16&#45;&gt;19 -->
<g id="edge19" class="edge">
<title>16&#45;&gt;19</title>
<path fill="none" stroke="#000000" d="M169.5168,-203.9748C174.338,-196.743 181.7754,-185.5868 187.9089,-176.3866"/>
<polygon fill="#000000" stroke="#000000" points="190.8277,-178.3181 193.4626,-168.0561 185.0034,-174.4352 190.8277,-178.3181"/>
</g>
<!-- 18 -->
<g id="node19" class="node">
<title>18</title>
<text text-anchor="middle" x="131.5" y="-105.8" font-family="Times,serif" font-size="14.00" fill="#000000">1</text>
</g>
<!-- 17&#45;&gt;18 -->
<g id="edge18" class="edge">
<title>17&#45;&gt;18</title>
<path fill="none" stroke="#000000" d="M131.5,-152.9748C131.5,-146.195 131.5,-135.966 131.5,-127.1331"/>
<polygon fill="#000000" stroke="#000000" points="135.0001,-127.0561 131.5,-117.0561 128.0001,-127.0561 135.0001,-127.0561"/>
</g>
<!-- 20 -->
<g id="node21" class="node">
<title>20</title>
<text text-anchor="middle" x="198.5" y="-105.8" font-family="Times,serif" font-size="14.00" fill="#000000">&lt;digit&gt;</text>
</g>
<!-- 19&#45;&gt;20 -->
<g id="edge20" class="edge">
<title>19&#45;&gt;20</title>
<path fill="none" stroke="#000000" d="M198.5,-152.9748C198.5,-146.195 198.5,-135.966 198.5,-127.1331"/>
<polygon fill="#000000" stroke="#000000" points="202.0001,-127.0561 198.5,-117.0561 195.0001,-127.0561 202.0001,-127.0561"/>
</g>
<!-- 21 -->
<g id="node22" class="node">
<title>21</title>
<text text-anchor="middle" x="198.5" y="-54.8" font-family="Times,serif" font-size="14.00" fill="#000000">0</text>
</g>
<!-- 20&#45;&gt;21 -->
<g id="edge21" class="edge">
<title>20&#45;&gt;21</title>
<path fill="none" stroke="#000000" d="M198.5,-101.9748C198.5,-95.195 198.5,-84.966 198.5,-76.1331"/>
<polygon fill="#000000" stroke="#000000" points="202.0001,-76.0561 198.5,-66.0561 195.0001,-76.0561 202.0001,-76.0561"/>
</g>
<!-- 24 -->
<g id="node25" class="node">
<title>24</title>
<text text-anchor="middle" x="255.5" y="-462.8" font-family="Times,serif" font-size="14.00" fill="#000000">&lt;statement&gt;</text>
</g>
<!-- 23&#45;&gt;24 -->
<g id="edge24" class="edge">
<title>23&#45;&gt;24</title>
<path fill="none" stroke="#000000" d="M250.3853,-509.9748C251.1829,-503.195 252.3864,-492.966 253.4255,-484.1331"/>
<polygon fill="#000000" stroke="#000000" points="256.9186,-484.3966 254.611,-474.0561 249.9665,-483.5786 256.9186,-484.3966"/>
</g>
<!-- 25 -->
<g id="node26" class="node">
<title>25</title>
<text text-anchor="middle" x="261.5" y="-411.8" font-family="Times,serif" font-size="14.00" fill="#000000">&lt;assignment&gt;</text>
</g>
<!-- 24&#45;&gt;25 -->
<g id="edge25" class="edge">
<title>24&#45;&gt;25</title>
<path fill="none" stroke="#000000" d="M256.3853,-458.9748C257.1829,-452.195 258.3864,-441.966 259.4255,-433.1331"/>
<polygon fill="#000000" stroke="#000000" points="262.9186,-433.3966 260.611,-423.0561 255.9665,-432.5786 262.9186,-433.3966"/>
</g>
<!-- 26 -->
<g id="node27" class="node">
<title>26</title>
<text text-anchor="middle" x="248.5" y="-360.8" font-family="Times,serif" font-size="14.00" fill="#ff0000">&lt;identifier&gt;</text>
</g>
<!-- 25&#45;&gt;26 -->
<g id="edge26" class="edge">
<title>25&#45;&gt;26</title>
<path fill="none" stroke="#000000" d="M259.5818,-407.9748C257.8344,-401.1196 255.1882,-390.7383 252.9198,-381.8392"/>
<polygon fill="#000000" stroke="#000000" points="256.2877,-380.8817 250.4261,-372.0561 249.5046,-382.6108 256.2877,-380.8817"/>
</g>
<!-- 33 -->
<g id="node34" class="node">
<title>33</title>
<text text-anchor="middle" x="304.5" y="-360.8" font-family="Times,serif" font-size="14.00" fill="#000000">=</text>
</g>
<!-- 25&#45;&gt;33 -->
<g id="edge33" class="edge">
<title>25&#45;&gt;33</title>
<path fill="none" stroke="#000000" d="M267.8448,-407.9748C274.7131,-399.8286 285.7798,-386.703 293.9587,-377.0025"/>
<polygon fill="#000000" stroke="#000000" points="296.6845,-379.1993 300.4547,-369.298 291.3328,-374.6871 296.6845,-379.1993"/>
</g>
<!-- 34 -->
<g id="node35" class="node">
<title>34</title>
<text text-anchor="middle" x="350.5" y="-360.8" font-family="Times,serif" font-size="14.00" fill="#000000">&lt;expr&gt;</text>
</g>
<!-- 25&#45;&gt;34 -->
<g id="edge34" class="edge">
<title>25&#45;&gt;34</title>
<path fill="none" stroke="#000000" d="M274.6323,-407.9748C288.83,-399.839 311.6952,-386.7365 328.6171,-377.0397"/>
<polygon fill="#000000" stroke="#000000" points="330.3776,-380.0648 337.3139,-372.0561 326.8972,-373.9913 330.3776,-380.0648"/>
</g>
<!-- 27 -->
<g id="node28" class="node">
<title>27</title>
<text text-anchor="middle" x="248.5" y="-309.8" font-family="Times,serif" font-size="14.00" fill="#000000">&lt;word&gt;</text>
</g>
<!-- 26&#45;&gt;27 -->
<g id="edge27" class="edge">
<title>26&#45;&gt;27</title>
<path fill="none" stroke="#000000" d="M248.5,-356.9748C248.5,-350.195 248.5,-339.966 248.5,-331.1331"/>
<polygon fill="#000000" stroke="#000000" points="252.0001,-331.0561 248.5,-321.0561 245.0001,-331.0561 252.0001,-331.0561"/>
</g>
<!-- 28 -->
<g id="node29" class="node">
<title>28</title>
<text text-anchor="middle" x="235.5" y="-258.8" font-family="Times,serif" font-size="14.00" fill="#000000">&lt;alpha&gt;</text>
</g>
<!-- 27&#45;&gt;28 -->
<g id="edge28" class="edge">
<title>27&#45;&gt;28</title>
<path fill="none" stroke="#000000" d="M246.5818,-305.9748C244.8344,-299.1196 242.1882,-288.7383 239.9198,-279.8392"/>
<polygon fill="#000000" stroke="#000000" points="243.2877,-278.8817 237.4261,-270.0561 236.5046,-280.6108 243.2877,-278.8817"/>
</g>
<!-- 30 -->
<g id="node31" class="node">
<title>30</title>
<text text-anchor="middle" x="299.5" y="-258.8" font-family="Times,serif" font-size="14.00" fill="#000000">&lt;word&gt;</text>
</g>
<!-- 27&#45;&gt;30 -->
<g id="edge30" class="edge">
<title>27&#45;&gt;30</title>
<path fill="none" stroke="#000000" d="M256.0252,-305.9748C263.5583,-298.4417 275.3497,-286.6503 284.7528,-277.2472"/>
<polygon fill="#000000" stroke="#000000" points="287.3477,-279.6021 291.9439,-270.0561 282.3979,-274.6523 287.3477,-279.6021"/>
</g>
<!-- 29 -->
<g id="node30" class="node">
<title>29</title>
<text text-anchor="middle" x="235.5" y="-207.8" font-family="Times,serif" font-size="14.00" fill="#000000">v</text>
</g>
<!-- 28&#45;&gt;29 -->
<g id="edge29" class="edge">
<title>28&#45;&gt;29</title>
<path fill="none" stroke="#000000" d="M235.5,-254.9748C235.5,-248.195 235.5,-237.966 235.5,-229.1331"/>
<polygon fill="#000000" stroke="#000000" points="239.0001,-229.0561 235.5,-219.0561 232.0001,-229.0561 239.0001,-229.0561"/>
</g>
<!-- 31 -->
<g id="node32" class="node">
<title>31</title>
<text text-anchor="middle" x="297.5" y="-207.8" font-family="Times,serif" font-size="14.00" fill="#000000">&lt;alpha&gt;</text>
</g>
<!-- 30&#45;&gt;31 -->
<g id="edge31" class="edge">
<title>30&#45;&gt;31</title>
<path fill="none" stroke="#000000" d="M299.2049,-254.9748C298.939,-248.195 298.5379,-237.966 298.1915,-229.1331"/>
<polygon fill="#000000" stroke="#000000" points="301.6856,-228.9112 297.7963,-219.0561 294.691,-229.1856 301.6856,-228.9112"/>
</g>
<!-- 32 -->
<g id="node33" class="node">
<title>32</title>
<text text-anchor="middle" x="297.5" y="-156.8" font-family="Times,serif" font-size="14.00" fill="#000000">b</text>
</g>
<!-- 31&#45;&gt;32 -->
<g id="edge32" class="edge">
<title>31&#45;&gt;32</title>
<path fill="none" stroke="#000000" d="M297.5,-203.9748C297.5,-197.195 297.5,-186.966 297.5,-178.1331"/>
<polygon fill="#000000" stroke="#000000" points="301.0001,-178.0561 297.5,-168.0561 294.0001,-178.0561 301.0001,-178.0561"/>
</g>
<!-- 35 -->
<g id="node36" class="node">
<title>35</title>
<text text-anchor="middle" x="364.5" y="-309.8" font-family="Times,serif" font-size="14.00" fill="#000000">&lt;term&gt;</text>
</g>
<!-- 34&#45;&gt;35 -->
<g id="edge35" class="edge">
<title>34&#45;&gt;35</title>
<path fill="none" stroke="#000000" d="M352.5657,-356.9748C354.4476,-350.1196 357.2973,-339.7383 359.7402,-330.8392"/>
<polygon fill="#000000" stroke="#000000" points="363.1537,-331.6259 362.4258,-321.0561 356.4034,-329.7728 363.1537,-331.6259"/>
</g>
<!-- 36 -->
<g id="node37" class="node">
<title>36</title>
<text text-anchor="middle" x="367.5" y="-258.8" font-family="Times,serif" font-size="14.00" fill="#000000">&lt;factor&gt;</text>
</g>
<!-- 35&#45;&gt;36 -->
<g id="edge36" class="edge">
<title>35&#45;&gt;36</title>
<path fill="none" stroke="#000000" d="M364.9427,-305.9748C365.3415,-299.195 365.9432,-288.966 366.4628,-280.1331"/>
<polygon fill="#000000" stroke="#000000" points="369.9622,-280.2444 367.0555,-270.0561 362.9742,-279.8333 369.9622,-280.2444"/>
</g>
<!-- 37 -->
<g id="node38" class="node">
<title>37</title>
<text text-anchor="middle" x="368.5" y="-207.8" font-family="Times,serif" font-size="14.00" fill="#ff0000">&lt;number&gt;</text>
</g>
<!-- 36&#45;&gt;37 -->
<g id="edge37" class="edge">
<title>36&#45;&gt;37</title>
<path fill="none" stroke="#000000" d="M367.6476,-254.9748C367.7805,-248.195 367.9811,-237.966 368.1543,-229.1331"/>
<polygon fill="#000000" stroke="#000000" points="371.655,-229.1228 368.3518,-219.0561 364.6564,-228.9855 371.655,-229.1228"/>
</g>
<!-- 38 -->
<g id="node39" class="node">
<title>38</title>
<text text-anchor="middle" x="368.5" y="-156.8" font-family="Times,serif" font-size="14.00" fill="#000000">&lt;integer&gt;</text>
</g>
<!-- 37&#45;&gt;38 -->
<g id="edge38" class="edge">
<title>37&#45;&gt;38</title>
<path fill="none" stroke="#000000" d="M368.5,-203.9748C368.5,-197.195 368.5,-186.966 368.5,-178.1331"/>
<polygon fill="#000000" stroke="#000000" points="372.0001,-178.0561 368.5,-168.0561 365.0001,-178.0561 372.0001,-178.0561"/>
</g>
<!-- 39 -->
<g id="node40" class="node">
<title>39</title>
<text text-anchor="middle" x="334.5" y="-105.8" font-family="Times,serif" font-size="14.00" fill="#000000">&lt;digit&gt;</text>
</g>
<!-- 38&#45;&gt;39 -->
<g id="edge39" class="edge">
<title>38&#45;&gt;39</title>
<path fill="none" stroke="#000000" d="M363.4832,-152.9748C358.662,-145.743 351.2246,-134.5868 345.0911,-125.3866"/>
<polygon fill="#000000" stroke="#000000" points="347.9966,-123.4352 339.5374,-117.0561 342.1723,-127.3181 347.9966,-123.4352"/>
</g>
<!-- 41 -->
<g id="node42" class="node">
<title>41</title>
<text text-anchor="middle" x="401.5" y="-105.8" font-family="Times,serif" font-size="14.00" fill="#000000">&lt;integer&gt;</text>
</g>
<!-- 38&#45;&gt;41 -->
<g id="edge41" class="edge">
<title>38&#45;&gt;41</title>
<path fill="none" stroke="#000000" d="M373.3693,-152.9748C377.9999,-145.8183 385.1172,-134.8188 391.034,-125.6747"/>
<polygon fill="#000000" stroke="#000000" points="394.1167,-127.3532 396.6108,-117.0561 388.2397,-123.5504 394.1167,-127.3532"/>
</g>
<!-- 40 -->
<g id="node41" class="node">
<title>40</title>
<text text-anchor="middle" x="334.5" y="-54.8" font-family="Times,serif" font-size="14.00" fill="#000000">2</text>
</g>
<!-- 39&#45;&gt;40 -->
<g id="edge40" class="edge">
<title>39&#45;&gt;40</title>
<path fill="none" stroke="#000000" d="M334.5,-101.9748C334.5,-95.195 334.5,-84.966 334.5,-76.1331"/>
<polygon fill="#000000" stroke="#000000" points="338.0001,-76.0561 334.5,-66.0561 331.0001,-76.0561 338.0001,-76.0561"/>
</g>
<!-- 42 -->
<g id="node43" class="node">
<title>42</title>
<text text-anchor="middle" x="401.5" y="-54.8" font-family="Times,serif" font-size="14.00" fill="#000000">&lt;digit&gt;</text>
</g>
<!-- 41&#45;&gt;42 -->
<g id="edge42" class="edge">
<title>41&#45;&gt;42</title>
<path fill="none" stroke="#000000" d="M401.5,-101.9748C401.5,-95.195 401.5,-84.966 401.5,-76.1331"/>
<polygon fill="#000000" stroke="#000000" points="405.0001,-76.0561 401.5,-66.0561 398.0001,-76.0561 405.0001,-76.0561"/>
</g>
<!-- 43 -->
<g id="node44" class="node">
<title>43</title>
<text text-anchor="middle" x="401.5" y="-3.8" font-family="Times,serif" font-size="14.00" fill="#000000">0</text>
</g>
<!-- 42&#45;&gt;43 -->
<g id="edge43" class="edge">
<title>42&#45;&gt;43</title>
<path fill="none" stroke="#000000" d="M401.5,-50.9748C401.5,-44.195 401.5,-33.966 401.5,-25.1331"/>
<polygon fill="#000000" stroke="#000000" points="405.0001,-25.0561 401.5,-15.0561 398.0001,-25.0561 405.0001,-25.0561"/>
</g>
</g>
</svg>