<?xml version="1.0" encoding="UTF-8" standalone="no"?>
<!DOCTYPE svg PUBLIC "-//W3C//DTD SVG 1.1//EN"
 "http://www.w3.org/Graphics/SVG/1.1/DTD/svg11.dtd">
<!-- Generated by graphviz version 12.2.1 (20241206.2353)
 -->
<!-- Pages: 1 -->
<svg width="628pt" height="611pt"
 viewBox="0.00 0.00 627.67 610.75" xmlns="http://www.w3.org/2000/svg" xmlns:xlink="http://www.w3.org/1999/xlink">
<g id="graph0" class="graph" transform="scale(1 1) rotate(0) translate(4 606.75)">
<polygon fill="white" stroke="none" points="-4,4 -4,-606.75 623.67,-606.75 623.67,4 -4,4"/>
<!-- 1 -->
<g id="node1" class="node">
<title>1</title>
<ellipse fill="none" stroke="black" cx="273.72" cy="-580.75" rx="107.01" ry="18"/>
<ellipse fill="none" stroke="black" cx="273.72" cy="-580.75" rx="111.01" ry="22"/>
<text text-anchor="middle" x="273.72" y="-574.58" font-family="Times,serif" font-size="14.00">1: enter: compute_gcd(x, y)</text>
</g>
<!-- 3 -->
<g id="node4" class="node">
<title>3</title>
<polygon fill="none" stroke="black" points="273.72,-521.75 206.03,-503.75 273.72,-485.75 341.4,-503.75 273.72,-521.75"/>
<text text-anchor="middle" x="273.72" y="-497.57" font-family="Times,serif" font-size="14.00">2: if: x &gt; y</text>
</g>
<!-- 1&#45;&gt;3 -->
<g id="edge2" class="edge">
<title>1&#45;&gt;3</title>
<path fill="none" stroke="black" d="M273.72,-558.46C273.72,-550.57 273.72,-541.5 273.72,-533.08"/>
<polygon fill="black" stroke="black" points="277.22,-533.32 273.72,-523.32 270.22,-533.32 277.22,-533.32"/>
</g>
<!-- 2 -->
<g id="node2" class="node">
<title>2</title>
<ellipse fill="none" stroke="black" cx="106.72" cy="-108.25" rx="102.72" ry="18"/>
<ellipse fill="none" stroke="black" cx="106.72" cy="-108.25" rx="106.72" ry="22"/>
<text text-anchor="middle" x="106.72" y="-102.08" font-family="Times,serif" font-size="14.00">1: exit: compute_gcd(x, y)</text>
</g>
<!-- 11 -->
<g id="node3" class="node">
<title>11</title>
<polygon fill="none" stroke="black" points="183.97,-203.25 91.47,-203.25 91.47,-167.25 183.97,-167.25 183.97,-203.25"/>
<text text-anchor="middle" x="137.72" y="-179.07" font-family="Times,serif" font-size="14.00">10: return gcd</text>
</g>
<!-- 11&#45;&gt;2 -->
<g id="edge1" class="edge">
<title>11&#45;&gt;2</title>
<path fill="none" stroke="black" d="M130.53,-166.85C127.35,-159.16 123.51,-149.87 119.85,-141.01"/>
<polygon fill="black" stroke="black" points="123.16,-139.87 116.11,-131.97 116.69,-142.54 123.16,-139.87"/>
</g>
<!-- 4 -->
<g id="node5" class="node">
<title>4</title>
<polygon fill="none" stroke="black" points="265.09,-435.5 182.34,-435.5 182.34,-399.5 265.09,-399.5 265.09,-435.5"/>
<text text-anchor="middle" x="223.72" y="-411.32" font-family="Times,serif" font-size="14.00">3: small = y</text>
</g>
<!-- 3&#45;&gt;4 -->
<g id="edge3" class="edge">
<title>3&#45;&gt;4</title>
<path fill="none" stroke="blue" d="M264.78,-487.69C257.82,-475.96 247.97,-459.37 239.67,-445.38"/>
<polygon fill="blue" stroke="blue" points="242.84,-443.87 234.73,-437.06 236.82,-447.44 242.84,-443.87"/>
<text text-anchor="middle" x="255.84" y="-454.45" font-family="Times,serif" font-size="14.00">T</text>
</g>
<!-- 5 -->
<g id="node6" class="node">
<title>5</title>
<polygon fill="none" stroke="black" points="366.09,-435.5 283.34,-435.5 283.34,-399.5 366.09,-399.5 366.09,-435.5"/>
<text text-anchor="middle" x="324.72" y="-411.32" font-family="Times,serif" font-size="14.00">5: small = x</text>
</g>
<!-- 3&#45;&gt;5 -->
<g id="edge4" class="edge">
<title>3&#45;&gt;5</title>
<path fill="none" stroke="red" d="M282.84,-487.69C289.94,-475.96 299.98,-459.37 308.45,-445.38"/>
<polygon fill="red" stroke="red" points="311.3,-447.42 313.49,-437.05 305.32,-443.79 311.3,-447.42"/>
<text text-anchor="middle" x="306.02" y="-454.45" font-family="Times,serif" font-size="14.00">F</text>
</g>
<!-- 6 -->
<g id="node7" class="node">
<title>6</title>
<polygon fill="none" stroke="black" points="375.09,-362.5 172.34,-362.5 172.34,-326.5 375.09,-326.5 375.09,-362.5"/>
<text text-anchor="middle" x="273.72" y="-338.32" font-family="Times,serif" font-size="14.00">6: __iv = iter(range(1, small + 1))</text>
</g>
<!-- 4&#45;&gt;6 -->
<g id="edge5" class="edge">
<title>4&#45;&gt;6</title>
<path fill="none" stroke="black" d="M235.82,-399.31C241.66,-391.03 248.78,-380.91 255.27,-371.69"/>
<polygon fill="black" stroke="black" points="257.96,-373.96 260.85,-363.77 252.23,-369.93 257.96,-373.96"/>
</g>
<!-- 5&#45;&gt;6 -->
<g id="edge6" class="edge">
<title>5&#45;&gt;6</title>
<path fill="none" stroke="black" d="M312.37,-399.31C306.42,-391.03 299.15,-380.91 292.53,-371.69"/>
<polygon fill="black" stroke="black" points="295.51,-369.84 286.83,-363.76 289.82,-373.92 295.51,-369.84"/>
</g>
<!-- 7 -->
<g id="node8" class="node">
<title>7</title>
<polygon fill="none" stroke="black" points="273.72,-289.5 87.3,-271.5 273.72,-253.5 460.13,-271.5 273.72,-289.5"/>
<text text-anchor="middle" x="273.72" y="-265.32" font-family="Times,serif" font-size="14.00">6: for: __iv.__length__hint__() &gt; 0</text>
</g>
<!-- 6&#45;&gt;7 -->
<g id="edge7" class="edge">
<title>6&#45;&gt;7</title>
<path fill="none" stroke="black" d="M273.72,-326.31C273.72,-318.73 273.72,-309.6 273.72,-301.04"/>
<polygon fill="black" stroke="black" points="277.22,-301.04 273.72,-291.04 270.22,-301.04 277.22,-301.04"/>
</g>
<!-- 7&#45;&gt;11 -->
<g id="edge13" class="edge">
<title>7&#45;&gt;11</title>
<path fill="none" stroke="red" d="M249.4,-255.44C228.81,-242.68 198.95,-224.19 175.29,-209.53"/>
<polygon fill="red" stroke="red" points="177.2,-206.59 166.86,-204.3 173.52,-212.54 177.2,-206.59"/>
<text text-anchor="middle" x="217.61" y="-222.2" font-family="Times,serif" font-size="14.00">F</text>
</g>
<!-- 8 -->
<g id="node11" class="node">
<title>8</title>
<polygon fill="none" stroke="black" points="391.72,-203.25 285.72,-203.25 285.72,-167.25 391.72,-167.25 391.72,-203.25"/>
<text text-anchor="middle" x="338.72" y="-179.07" font-family="Times,serif" font-size="14.00">6: i = next(__iv)</text>
</g>
<!-- 7&#45;&gt;8 -->
<g id="edge10" class="edge">
<title>7&#45;&gt;8</title>
<path fill="none" stroke="blue" d="M286.25,-254.26C295.36,-242.45 307.89,-226.2 318.42,-212.55"/>
<polygon fill="blue" stroke="blue" points="321.07,-214.86 324.4,-204.8 315.52,-210.58 321.07,-214.86"/>
<text text-anchor="middle" x="314.23" y="-222.2" font-family="Times,serif" font-size="14.00">T</text>
</g>
<!-- 10 -->
<g id="node9" class="node">
<title>10</title>
<polygon fill="none" stroke="black" points="292.34,-36 223.09,-36 223.09,0 292.34,0 292.34,-36"/>
<text text-anchor="middle" x="257.72" y="-11.82" font-family="Times,serif" font-size="14.00">8: gcd = i</text>
</g>
<!-- 10&#45;&gt;7 -->
<g id="edge8" class="edge">
<title>10&#45;&gt;7</title>
<path fill="none" stroke="black" d="M257.83,-36.36C258.06,-58.26 258.74,-97.08 260.72,-130.25 263.03,-168.95 267.46,-213.51 270.51,-241.82"/>
<polygon fill="black" stroke="black" points="267.02,-242.19 271.59,-251.75 273.98,-241.43 267.02,-242.19"/>
</g>
<!-- 9 -->
<g id="node10" class="node">
<title>9</title>
<polygon fill="none" stroke="black" points="444.72,-126.25 269.77,-108.25 444.72,-90.25 619.67,-108.25 444.72,-126.25"/>
<text text-anchor="middle" x="444.72" y="-102.08" font-family="Times,serif" font-size="14.00">7: if: x % i == 0 and y % i == 0</text>
</g>
<!-- 9&#45;&gt;7 -->
<g id="edge9" class="edge">
<title>9&#45;&gt;7</title>
<path fill="none" stroke="red" d="M440.41,-126.08C434.46,-146.49 421.96,-180.93 400.72,-203.25 379.8,-225.23 350.09,-241.5 324.66,-252.53"/>
<polygon fill="red" stroke="red" points="323.36,-249.28 315.47,-256.36 326.04,-255.75 323.36,-249.28"/>
<text text-anchor="middle" x="428" y="-179.07" font-family="Times,serif" font-size="14.00">F</text>
</g>
<!-- 9&#45;&gt;10 -->
<g id="edge12" class="edge">
<title>9&#45;&gt;10</title>
<path fill="none" stroke="blue" d="M414.67,-93.07C384.55,-78.85 337.77,-56.78 303.12,-40.43"/>
<polygon fill="blue" stroke="blue" points="304.69,-37.3 294.15,-36.19 301.7,-43.63 304.69,-37.3"/>
<text text-anchor="middle" x="360.95" y="-54.95" font-family="Times,serif" font-size="14.00">T</text>
</g>
<!-- 8&#45;&gt;9 -->
<g id="edge11" class="edge">
<title>8&#45;&gt;9</title>
<path fill="none" stroke="black" d="M363.3,-166.85C378.44,-156.15 397.96,-142.34 414.09,-130.92"/>
<polygon fill="black" stroke="black" points="415.76,-134.03 421.9,-125.39 411.72,-128.31 415.76,-134.03"/>
</g>
</g>
</svg>