<?xml version="1.0" encoding="UTF-8" standalone="no"?>
<!DOCTYPE svg PUBLIC "-//W3C//DTD SVG 1.1//EN"
 "http://www.w3.org/Graphics/SVG/1.1/DTD/svg11.dtd">
<!-- Generated by graphviz version 12.2.1 (20241206.2353)
 -->
<!-- Pages: 1 -->
<svg width="321pt" height="168pt"
 viewBox="0.00 0.00 320.75 168.25" xmlns="http://www.w3.org/2000/svg" xmlns:xlink="http://www.w3.org/1999/xlink">
<g id="graph0" class="graph" transform="scale(1 1) rotate(0) translate(4 164.25)">
<polygon fill="white" stroke="none" points="-4,4 -4,-164.25 316.75,-164.25 316.75,4 -4,4"/>
<!-- 0 -->
<g id="node1" class="node">
<title>0</title>
<text text-anchor="middle" x="19.88" y="-66.95" font-family="Times,serif" font-size="14.00">&lt;start&gt;</text>
</g>
<!-- 1 -->
<g id="node2" class="node">
<title>1</title>
<text text-anchor="middle" x="98.25" y="-66.95" font-family="Times,serif" font-size="14.00">record 0</text>
</g>
<!-- 0&#45;&gt;1 -->
<g id="edge1" class="edge">
<title>0&#45;&gt;1</title>
<path fill="none" stroke="black" d="M39.36,-73.12C46.95,-73.12 55.97,-73.12 64.6,-73.12"/>
<polygon fill="black" stroke="black" points="64.45,-76.63 74.45,-73.13 64.45,-69.63 64.45,-76.63"/>
</g>
<!-- 2 -->
<g id="node3" class="node">
<title>2</title>
<text text-anchor="middle" x="234.75" y="-146.95" font-family="Times,serif" font-size="14.00">1999</text>
</g>
<!-- 1&#45;&gt;2 -->
<g id="edge2" class="edge">
<title>1&#45;&gt;2</title>
<path fill="none" stroke="black" d="M103.31,-80.03C111.56,-93.37 131.63,-122.68 156.75,-137.12 173.16,-146.56 194.38,-150.47 210.39,-152.07"/>
<polygon fill="black" stroke="black" points="209.71,-155.53 219.94,-152.78 210.23,-148.55 209.71,-155.53"/>
</g>
<!-- 3 -->
<g id="node4" class="node">
<title>3</title>
<text text-anchor="middle" x="234.75" y="-114.95" font-family="Times,serif" font-size="14.00">Chevy</text>
</g>
<!-- 1&#45;&gt;3 -->
<g id="edge3" class="edge">
<title>1&#45;&gt;3</title>
<path fill="none" stroke="black" d="M109.39,-80.02C120.53,-87.29 139.19,-98.59 156.75,-105.12 172.7,-111.06 191.38,-115.01 206.34,-117.5"/>
<polygon fill="black" stroke="black" points="205.52,-120.92 215.93,-118.97 206.57,-114 205.52,-120.92"/>
</g>
<!-- 4 -->
<g id="node5" class="node">
<title>4</title>
<text text-anchor="middle" x="234.75" y="-82.95" font-family="Times,serif" font-size="14.00" fill="red">&quot;Venture \&quot;Extended Edition</text>
</g>
<!-- 1&#45;&gt;4 -->
<g id="edge4" class="edge">
<title>1&#45;&gt;4</title>
<path fill="none" stroke="black" d="M120.56,-75.66C132.19,-77.04 147.32,-78.84 162.71,-80.67"/>
<polygon fill="black" stroke="black" points="162.08,-84.12 172.42,-81.83 162.9,-77.17 162.08,-84.12"/>
</g>
<!-- 5 -->
<g id="node6" class="node">
<title>5</title>
<text text-anchor="middle" x="234.75" y="-50.95" font-family="Times,serif" font-size="14.00" fill="red"> Very Large\&quot;&quot;</text>
</g>
<!-- 1&#45;&gt;5 -->
<g id="edge5" class="edge">
<title>1&#45;&gt;5</title>
<path fill="none" stroke="black" d="M120.56,-70.59C137.39,-68.59 161.57,-65.71 183.26,-63.13"/>
<polygon fill="black" stroke="black" points="183.64,-66.61 193.15,-61.95 182.81,-59.66 183.64,-66.61"/>
</g>
<!-- 6 -->
<g id="node7" class="node">
<title>6</title>
</g>
<!-- 1&#45;&gt;6 -->
<g id="edge6" class="edge">
<title>1&#45;&gt;6</title>
<path fill="none" stroke="black" d="M108.88,-66.2C108.92,-66.17 108.97,-66.14 109.01,-66.11"/>
<polygon fill="black" stroke="black" points="101.61,-75.41 107.89,-66.88 97.66,-69.63 101.61,-75.41"/>
</g>
<!-- 7 -->
<g id="node8" class="node">
<title>7</title>
<text text-anchor="middle" x="234.75" y="-0.95" font-family="Times,serif" font-size="14.00">5000.00</text>
</g>
<!-- 1&#45;&gt;7 -->
<g id="edge7" class="edge">
<title>1&#45;&gt;7</title>
<path fill="none" stroke="black" d="M105.16,-66.05C114.78,-55.04 134.94,-33.94 156.75,-23.12 170.61,-16.25 187.28,-12.33 201.56,-10.09"/>
<polygon fill="black" stroke="black" points="201.93,-13.57 211.38,-8.78 201,-6.64 201.93,-13.57"/>
</g>
</g>
</svg>