<?xml version="1.0" encoding="UTF-8" standalone="no"?>
<!DOCTYPE svg PUBLIC "-//W3C//DTD SVG 1.1//EN"
 "http://www.w3.org/Graphics/SVG/1.1/DTD/svg11.dtd">
<!-- Generated by graphviz version 12.2.1 (20241206.2353)
 -->
<!-- Pages: 1 -->
<svg width="147pt" height="475pt"
 viewBox="0.00 0.00 146.75 474.50" xmlns="http://www.w3.org/2000/svg" xmlns:xlink="http://www.w3.org/1999/xlink">
<g id="graph0" class="graph" transform="scale(1 1) rotate(0) translate(4 470.5)">
<polygon fill="white" stroke="none" points="-4,4 -4,-470.5 142.75,-470.5 142.75,4 -4,4"/>
<!-- 0 -->
<g id="node1" class="node">
<title>0</title>
<text text-anchor="middle" x="69.38" y="-453.2" font-family="Times,serif" font-size="14.00">&lt;start&gt;</text>
</g>
<!-- 1 -->
<g id="node2" class="node">
<title>1</title>
<text text-anchor="middle" x="69.38" y="-402.95" font-family="Times,serif" font-size="14.00">&lt;expr&gt;</text>
</g>
<!-- 0&#45;&gt;1 -->
<g id="edge1" class="edge">
<title>0&#45;&gt;1</title>
<path fill="none" stroke="black" d="M69.38,-452.46C69.38,-446.24 69.38,-436.15 69.38,-427.39"/>
<polygon fill="black" stroke="black" points="72.88,-427.6 69.38,-417.6 65.88,-427.6 72.88,-427.6"/>
</g>
<!-- 2 -->
<g id="node3" class="node">
<title>2</title>
<text text-anchor="middle" x="69.38" y="-352.7" font-family="Times,serif" font-size="14.00">&lt;term&gt;</text>
</g>
<!-- 1&#45;&gt;2 -->
<g id="edge2" class="edge">
<title>1&#45;&gt;2</title>
<path fill="none" stroke="black" d="M69.38,-402.21C69.38,-395.99 69.38,-385.9 69.38,-377.14"/>
<polygon fill="black" stroke="black" points="72.88,-377.35 69.38,-367.35 65.88,-377.35 72.88,-377.35"/>
</g>
<!-- 3 -->
<g id="node4" class="node">
<title>3</title>
<text text-anchor="middle" x="69.38" y="-302.45" font-family="Times,serif" font-size="14.00">&lt;factor&gt;</text>
</g>
<!-- 2&#45;&gt;3 -->
<g id="edge3" class="edge">
<title>2&#45;&gt;3</title>
<path fill="none" stroke="black" d="M69.38,-351.96C69.38,-345.74 69.38,-335.65 69.38,-326.89"/>
<polygon fill="black" stroke="black" points="72.88,-327.1 69.38,-317.1 65.88,-327.1 72.88,-327.1"/>
</g>
<!-- 4 -->
<g id="node5" class="node">
<title>4</title>
<text text-anchor="middle" x="15.38" y="-252.2" font-family="Times,serif" font-size="14.00">( (40)</text>
</g>
<!-- 3&#45;&gt;4 -->
<g id="edge4" class="edge">
<title>3&#45;&gt;4</title>
<path fill="none" stroke="black" d="M62.75,-301.71C54.74,-294.55 40.99,-282.26 30.36,-272.77"/>
<polygon fill="black" stroke="black" points="32.97,-270.4 23.18,-266.35 28.3,-275.62 32.97,-270.4"/>
</g>
<!-- 5 -->
<g id="node6" class="node">
<title>5</title>
<text text-anchor="middle" x="69.38" y="-252.2" font-family="Times,serif" font-size="14.00">&lt;expr&gt;</text>
</g>
<!-- 3&#45;&gt;5 -->
<g id="edge5" class="edge">
<title>3&#45;&gt;5</title>
<path fill="none" stroke="black" d="M69.38,-301.71C69.38,-295.49 69.38,-285.4 69.38,-276.64"/>
<polygon fill="black" stroke="black" points="72.88,-276.85 69.38,-266.85 65.88,-276.85 72.88,-276.85"/>
</g>
<!-- 11 -->
<g id="node12" class="node">
<title>11</title>
<text text-anchor="middle" x="123.38" y="-252.2" font-family="Times,serif" font-size="14.00">) (41)</text>
</g>
<!-- 3&#45;&gt;11 -->
<g id="edge11" class="edge">
<title>3&#45;&gt;11</title>
<path fill="none" stroke="black" d="M76,-301.71C84.01,-294.55 97.76,-282.26 108.39,-272.77"/>
<polygon fill="black" stroke="black" points="110.45,-275.62 115.57,-266.35 105.78,-270.4 110.45,-275.62"/>
</g>
<!-- 6 -->
<g id="node7" class="node">
<title>6</title>
<text text-anchor="middle" x="69.38" y="-201.95" font-family="Times,serif" font-size="14.00">&lt;term&gt;</text>
</g>
<!-- 5&#45;&gt;6 -->
<g id="edge6" class="edge">
<title>5&#45;&gt;6</title>
<path fill="none" stroke="black" d="M69.38,-251.46C69.38,-245.24 69.38,-235.15 69.38,-226.39"/>
<polygon fill="black" stroke="black" points="72.88,-226.6 69.38,-216.6 65.88,-226.6 72.88,-226.6"/>
</g>
<!-- 7 -->
<g id="node8" class="node">
<title>7</title>
<text text-anchor="middle" x="69.38" y="-151.7" font-family="Times,serif" font-size="14.00">&lt;factor&gt;</text>
</g>
<!-- 6&#45;&gt;7 -->
<g id="edge7" class="edge">
<title>6&#45;&gt;7</title>
<path fill="none" stroke="black" d="M69.38,-201.21C69.38,-194.99 69.38,-184.9 69.38,-176.14"/>
<polygon fill="black" stroke="black" points="72.88,-176.35 69.38,-166.35 65.88,-176.35 72.88,-176.35"/>
</g>
<!-- 8 -->
<g id="node9" class="node">
<title>8</title>
<text text-anchor="middle" x="69.38" y="-101.45" font-family="Times,serif" font-size="14.00">&lt;integer&gt;</text>
</g>
<!-- 7&#45;&gt;8 -->
<g id="edge8" class="edge">
<title>7&#45;&gt;8</title>
<path fill="none" stroke="black" d="M69.38,-150.96C69.38,-144.74 69.38,-134.65 69.38,-125.89"/>
<polygon fill="black" stroke="black" points="72.88,-126.1 69.38,-116.1 65.88,-126.1 72.88,-126.1"/>
</g>
<!-- 9 -->
<g id="node10" class="node">
<title>9</title>
<text text-anchor="middle" x="69.38" y="-51.2" font-family="Times,serif" font-size="14.00">&lt;digit&gt;</text>
</g>
<!-- 8&#45;&gt;9 -->
<g id="edge9" class="edge">
<title>8&#45;&gt;9</title>
<path fill="none" stroke="black" d="M69.38,-100.71C69.38,-94.49 69.38,-84.4 69.38,-75.64"/>
<polygon fill="black" stroke="black" points="72.88,-75.85 69.38,-65.85 65.88,-75.85 72.88,-75.85"/>
</g>
<!-- 10 -->
<g id="node11" class="node">
<title>10</title>
<text text-anchor="middle" x="69.38" y="-0.95" font-family="Times,serif" font-size="14.00">3 (51)</text>
</g>
<!-- 9&#45;&gt;10 -->
<g id="edge10" class="edge">
<title>9&#45;&gt;10</title>
<path fill="none" stroke="black" d="M69.38,-50.46C69.38,-44.24 69.38,-34.15 69.38,-25.39"/>
<polygon fill="black" stroke="black" points="72.88,-25.6 69.38,-15.6 65.88,-25.6 72.88,-25.6"/>
</g>
</g>
</svg>