<?xml version="1.0" encoding="UTF-8" standalone="no"?>
<!DOCTYPE svg PUBLIC "-//W3C//DTD SVG 1.1//EN"
 "http://www.w3.org/Graphics/SVG/1.1/DTD/svg11.dtd">
<!-- Generated by graphviz version 12.2.1 (20241206.2353)
 -->
<!-- Pages: 1 -->
<svg width="243pt" height="324pt"
 viewBox="0.00 0.00 243.25 323.75" xmlns="http://www.w3.org/2000/svg" xmlns:xlink="http://www.w3.org/1999/xlink">
<g id="graph0" class="graph" transform="scale(1 1) rotate(0) translate(4 319.75)">
<polygon fill="white" stroke="none" points="-4,4 -4,-319.75 239.25,-319.75 239.25,4 -4,4"/>
<!-- 0 -->
<g id="node1" class="node">
<title>0</title>
<text text-anchor="middle" x="123.62" y="-302.45" font-family="Times,serif" font-size="14.00">&lt;start&gt;</text>
</g>
<!-- 1 -->
<g id="node2" class="node">
<title>1</title>
<text text-anchor="middle" x="123.62" y="-252.2" font-family="Times,serif" font-size="14.00">&lt;expr&gt;</text>
</g>
<!-- 0&#45;&gt;1 -->
<g id="edge1" class="edge">
<title>0&#45;&gt;1</title>
<path fill="none" stroke="black" d="M123.62,-301.71C123.62,-295.49 123.62,-285.4 123.62,-276.64"/>
<polygon fill="black" stroke="black" points="127.13,-276.85 123.63,-266.85 120.13,-276.85 127.13,-276.85"/>
</g>
<!-- 2 -->
<g id="node3" class="node">
<title>2</title>
<text text-anchor="middle" x="123.62" y="-201.95" font-family="Times,serif" font-size="14.00">&lt;expr_&gt;</text>
</g>
<!-- 1&#45;&gt;2 -->
<g id="edge2" class="edge">
<title>1&#45;&gt;2</title>
<path fill="none" stroke="black" d="M123.62,-251.46C123.62,-245.24 123.62,-235.15 123.62,-226.39"/>
<polygon fill="black" stroke="black" points="127.13,-226.6 123.63,-216.6 120.13,-226.6 127.13,-226.6"/>
</g>
<!-- 3 -->
<g id="node4" class="node">
<title>3</title>
<text text-anchor="middle" x="123.62" y="-151.7" font-family="Times,serif" font-size="14.00">&lt;expr&gt;</text>
</g>
<!-- 2&#45;&gt;3 -->
<g id="edge3" class="edge">
<title>2&#45;&gt;3</title>
<path fill="none" stroke="black" d="M123.62,-201.21C123.62,-194.99 123.62,-184.9 123.62,-176.14"/>
<polygon fill="black" stroke="black" points="127.13,-176.35 123.63,-166.35 120.13,-176.35 127.13,-176.35"/>
</g>
<!-- 4 -->
<g id="node5" class="node">
<title>4</title>
<text text-anchor="middle" x="87.62" y="-101.45" font-family="Times,serif" font-size="14.00">&lt;integer&gt;</text>
</g>
<!-- 3&#45;&gt;4 -->
<g id="edge4" class="edge">
<title>3&#45;&gt;4</title>
<path fill="none" stroke="black" d="M119.21,-150.96C114.19,-144.23 105.8,-132.98 98.93,-123.77"/>
<polygon fill="black" stroke="black" points="101.77,-121.72 92.98,-115.8 96.16,-125.91 101.77,-121.72"/>
</g>
<!-- 8 -->
<g id="node9" class="node">
<title>8</title>
<text text-anchor="middle" x="159.62" y="-101.45" font-family="Times,serif" font-size="14.00">&lt;integer&gt;</text>
</g>
<!-- 3&#45;&gt;8 -->
<g id="edge8" class="edge">
<title>3&#45;&gt;8</title>
<path fill="none" stroke="black" d="M128.04,-150.96C133.06,-144.23 141.45,-132.98 148.32,-123.77"/>
<polygon fill="black" stroke="black" points="151.09,-125.91 154.27,-115.8 145.48,-121.72 151.09,-125.91"/>
</g>
<!-- 5 -->
<g id="node6" class="node">
<title>5</title>
<text text-anchor="middle" x="20.62" y="-51.2" font-family="Times,serif" font-size="14.00">&lt;digit&gt;</text>
</g>
<!-- 4&#45;&gt;5 -->
<g id="edge5" class="edge">
<title>4&#45;&gt;5</title>
<path fill="none" stroke="black" d="M79.14,-100.51C68.81,-93.08 51.12,-80.34 37.89,-70.81"/>
<polygon fill="black" stroke="black" points="40.22,-68.17 30.06,-65.17 36.13,-73.85 40.22,-68.17"/>
</g>
<!-- 7 -->
<g id="node8" class="node">
<title>7</title>
<text text-anchor="middle" x="89.62" y="-51.2" font-family="Times,serif" font-size="14.00">&lt;integer_&gt;</text>
</g>
<!-- 4&#45;&gt;7 -->
<g id="edge7" class="edge">
<title>4&#45;&gt;7</title>
<path fill="none" stroke="black" d="M87.87,-100.71C88.13,-94.49 88.55,-84.4 88.91,-75.64"/>
<polygon fill="black" stroke="black" points="92.4,-75.99 89.32,-65.85 85.4,-75.7 92.4,-75.99"/>
</g>
<!-- 6 -->
<g id="node7" class="node">
<title>6</title>
<text text-anchor="middle" x="20.62" y="-0.95" font-family="Times,serif" font-size="14.00">1 (49)</text>
</g>
<!-- 5&#45;&gt;6 -->
<g id="edge6" class="edge">
<title>5&#45;&gt;6</title>
<path fill="none" stroke="black" d="M20.62,-50.46C20.62,-44.24 20.62,-34.15 20.62,-25.39"/>
<polygon fill="black" stroke="black" points="24.13,-25.6 20.63,-15.6 17.13,-25.6 24.13,-25.6"/>
</g>
<!-- 9 -->
<g id="node10" class="node">
<title>9</title>
<text text-anchor="middle" x="158.62" y="-51.2" font-family="Times,serif" font-size="14.00">+ (43)</text>
</g>
<!-- 8&#45;&gt;9 -->
<g id="edge9" class="edge">
<title>8&#45;&gt;9</title>
<path fill="none" stroke="black" d="M159.5,-100.71C159.37,-94.49 159.16,-84.4 158.98,-75.64"/>
<polygon fill="black" stroke="black" points="162.49,-75.78 158.78,-65.85 155.49,-75.92 162.49,-75.78"/>
</g>
<!-- 10 -->
<g id="node11" class="node">
<title>10</title>
<text text-anchor="middle" x="214.62" y="-51.2" font-family="Times,serif" font-size="14.00">&lt;digit&gt;</text>
</g>
<!-- 8&#45;&gt;10 -->
<g id="edge10" class="edge">
<title>8&#45;&gt;10</title>
<path fill="none" stroke="black" d="M166.37,-100.71C174.53,-93.55 188.53,-81.26 199.36,-71.77"/>
<polygon fill="black" stroke="black" points="201.48,-74.56 206.69,-65.34 196.86,-69.3 201.48,-74.56"/>
</g>
<!-- 11 -->
<g id="node12" class="node">
<title>11</title>
<text text-anchor="middle" x="214.62" y="-0.95" font-family="Times,serif" font-size="14.00">2 (50)</text>
</g>
<!-- 10&#45;&gt;11 -->
<g id="edge11" class="edge">
<title>10&#45;&gt;11</title>
<path fill="none" stroke="black" d="M214.62,-50.46C214.62,-44.24 214.62,-34.15 214.62,-25.39"/>
<polygon fill="black" stroke="black" points="218.13,-25.6 214.63,-15.6 211.13,-25.6 218.13,-25.6"/>
</g>
</g>
</svg>