<svg xmlns="http://www.w3.org/2000/svg" class="railroad-diagram" height="182" viewBox="0 0 347.5 182" width="347.5">
<g transform="translate(.5 .5)">
<style>/* <![CDATA[ */
    svg.railroad-diagram {
    }
    svg.railroad-diagram path {
        stroke-width:3;
        stroke:black;
        fill:white;
    }
    svg.railroad-diagram text {
        font:14px "Fira Mono", monospace;
        text-anchor:middle;
    }
    svg.railroad-diagram text.label{
        text-anchor:start;
    }
    svg.railroad-diagram text.comment{
        font:italic 12px "Fira Mono", monospace;
    }
    svg.railroad-diagram rect{
        stroke-width:2;
        stroke:black;
        fill:mistyrose;
    }

/* ]]> */
</style><g>
<path d="M20 81v20m10 -20v20m-10 -10h20"/></g><g>
<path d="M40 91h0.0"/><path d="M307.5 91h0.0"/><path d="M40.0 91a10 10 0 0 0 10 -10v-10a10 10 0 0 1 10 -10"/><g>
<path d="M60.0 61h54.0"/><path d="M233.5 61h54.0"/><g class="terminal">
<path d="M114.0 61h0.0"/><path d="M142.5 61h0.0"/><rect height="22" rx="10" ry="10" width="28.5" x="114.0" y="50"/><text x="128.25" y="65">-</text></g><path d="M142.5 61h10"/><path d="M152.5 61h10"/><g class="non-terminal">
<path d="M162.5 61h0.0"/><path d="M233.5 61h0.0"/><rect height="22" width="71.0" x="162.5" y="50"/><text x="198.0" y="65">factor</text></g></g><path d="M287.5 61a10 10 0 0 1 10 10v10a10 10 0 0 0 10 10"/><path d="M40.0 91a10 10 0 0 0 10 -10v-40a10 10 0 0 1 10 -10"/><g>
<path d="M60.0 31h54.0"/><path d="M233.5 31h54.0"/><g class="terminal">
<path d="M114.0 31h0.0"/><path d="M142.5 31h0.0"/><rect height="22" rx="10" ry="10" width="28.5" x="114.0" y="20"/><text x="128.25" y="35">+</text></g><path d="M142.5 31h10"/><path d="M152.5 31h10"/><g class="non-terminal">
<path d="M162.5 31h0.0"/><path d="M233.5 31h0.0"/><rect height="22" width="71.0" x="162.5" y="20"/><text x="198.0" y="35">factor</text></g></g><path d="M287.5 31a10 10 0 0 1 10 10v40a10 10 0 0 0 10 10"/><path d="M40.0 91h20"/><g>
<path d="M60.0 91h38.25"/><path d="M249.25 91h38.25"/><g class="terminal">
<path d="M98.25 91h0.0"/><path d="M126.75 91h0.0"/><rect height="22" rx="10" ry="10" width="28.5" x="98.25" y="80"/><text x="112.5" y="95">(</text></g><path d="M126.75 91h10"/><path d="M136.75 91h10"/><g class="non-terminal">
<path d="M146.75 91h0.0"/><path d="M200.75 91h0.0"/><rect height="22" width="54.0" x="146.75" y="80"/><text x="173.75" y="95">expr</text></g><path d="M200.75 91h10"/><path d="M210.75 91h10"/><g class="terminal">
<path d="M220.75 91h0.0"/><path d="M249.25 91h0.0"/><rect height="22" rx="10" ry="10" width="28.5" x="220.75" y="80"/><text x="235.0" y="95">)</text></g></g><path d="M287.5 91h20"/><path d="M40.0 91a10 10 0 0 1 10 10v10a10 10 0 0 0 10 10"/><g>
<path d="M60.0 121h0.0"/><path d="M287.5 121h0.0"/><g class="non-terminal">
<path d="M60.0 121h0.0"/><path d="M139.5 121h0.0"/><rect height="22" width="79.5" x="60.0" y="110"/><text x="99.75" y="125">integer</text></g><path d="M139.5 121h10"/><path d="M149.5 121h10"/><g class="terminal">
<path d="M159.5 121h0.0"/><path d="M188.0 121h0.0"/><rect height="22" rx="10" ry="10" width="28.5" x="159.5" y="110"/><text x="173.75" y="125">.</text></g><path d="M188.0 121h10"/><path d="M198.0 121h10"/><g class="non-terminal">
<path d="M208.0 121h0.0"/><path d="M287.5 121h0.0"/><rect height="22" width="79.5" x="208.0" y="110"/><text x="247.75" y="125">integer</text></g></g><path d="M287.5 121a10 10 0 0 0 10 -10v-10a10 10 0 0 1 10 -10"/><path d="M40.0 91a10 10 0 0 1 10 10v40a10 10 0 0 0 10 10"/><g>
<path d="M60.0 151h74.0"/><path d="M213.5 151h74.0"/><g class="non-terminal">
<path d="M134.0 151h0.0"/><path d="M213.5 151h0.0"/><rect height="22" width="79.5" x="134.0" y="140"/><text x="173.75" y="155">integer</text></g></g><path d="M287.5 151a10 10 0 0 0 10 -10v-40a10 10 0 0 1 10 -10"/></g><path d="M 307.5 91 h 20 m -10 -10 v 20 m 10 -20 v 20"/></g></svg>