<svg xmlns="http://www.w3.org/2000/svg" class="railroad-diagram" height="122" viewBox="0 0 358.5 122" width="358.5">
<g transform="translate(.5 .5)">
<style>/* <![CDATA[ */
    svg.railroad-diagram {
    }
    svg.railroad-diagram path {
        stroke-width:3;
        stroke:black;
        fill:white;
    }
    svg.railroad-diagram text {
        font:14px "Fira Mono", monospace;
        text-anchor:middle;
    }
    svg.railroad-diagram text.label{
        text-anchor:start;
    }
    svg.railroad-diagram text.comment{
        font:italic 12px "Fira Mono", monospace;
    }
    svg.railroad-diagram rect{
        stroke-width:2;
        stroke:black;
        fill:mistyrose;
    }

/* ]]> */
</style><g>
<path d="M20 51v20m10 -20v20m-10 -10h20"/></g><g>
<path d="M40 61h0.0"/><path d="M318.5 61h0.0"/><path d="M40.0 61a10 10 0 0 0 10 -10v-10a10 10 0 0 1 10 -10"/><g>
<path d="M60.0 31h3.0"/><path d="M295.5 31h3.0"/><g class="terminal">
<path d="M63.0 31h0.0"/><path d="M295.5 31h0.0"/><rect height="22" rx="10" ry="10" width="232.5" x="63.0" y="20"/><text x="179.25" y="35">Generating Software Tests</text></g></g><path d="M298.5 31a10 10 0 0 1 10 10v10a10 10 0 0 0 10 10"/><path d="M40.0 61h20"/><g>
<path d="M60.0 61h0.0"/><path d="M298.5 61h0.0"/><g class="non-terminal">
<path d="M60.0 61h0.0"/><path d="M199.0 61h0.0"/><rect height="22" width="139.0" x="60.0" y="50"/><text x="129.5" y="65">fuzzing-prefix</text></g><path d="M199.0 61h10"/><path d="M209.0 61h10"/><g class="terminal">
<path d="M219.0 61h0.0"/><path d="M298.5 61h0.0"/><rect height="22" rx="10" ry="10" width="79.5" x="219.0" y="50"/><text x="258.75" y="65">Fuzzing</text></g></g><path d="M298.5 61h20"/><path d="M40.0 61a10 10 0 0 1 10 10v10a10 10 0 0 0 10 10"/><g>
<path d="M60.0 91h41.25"/><path d="M257.25 91h41.25"/><g class="terminal">
<path d="M101.25 91h0.0"/><path d="M257.25 91h0.0"/><rect height="22" rx="10" ry="10" width="156.0" x="101.25" y="80"/><text x="179.25" y="95">The Fuzzing Book</text></g></g><path d="M298.5 91a10 10 0 0 0 10 -10v-10a10 10 0 0 1 10 -10"/></g><path d="M 318.5 61 h 20 m -10 -10 v 20 m 10 -20 v 20"/></g></svg>