<?xml version="1.0" encoding="UTF-8" standalone="no"?>
<!DOCTYPE svg PUBLIC "-//W3C//DTD SVG 1.1//EN"
 "http://www.w3.org/Graphics/SVG/1.1/DTD/svg11.dtd">
<!-- Generated by graphviz version 12.2.1 (20241206.2353)
 -->
<!-- Pages: 1 -->
<svg width="518pt" height="424pt"
 viewBox="0.00 0.00 517.62 424.25" xmlns="http://www.w3.org/2000/svg" xmlns:xlink="http://www.w3.org/1999/xlink">
<g id="graph0" class="graph" transform="scale(1 1) rotate(0) translate(4 420.25)">
<polygon fill="white" stroke="none" points="-4,4 -4,-420.25 513.62,-420.25 513.62,4 -4,4"/>
<!-- 0 -->
<g id="node1" class="node">
<title>0</title>
<text text-anchor="middle" x="274.62" y="-402.95" font-family="Times,serif" font-size="14.00">&lt;start&gt;</text>
</g>
<!-- 1 -->
<g id="node2" class="node">
<title>1</title>
<text text-anchor="middle" x="274.62" y="-352.7" font-family="Times,serif" font-size="14.00">&lt;expr&gt;</text>
</g>
<!-- 0&#45;&gt;1 -->
<g id="edge1" class="edge">
<title>0&#45;&gt;1</title>
<path fill="none" stroke="black" d="M274.62,-402.21C274.62,-395.99 274.62,-385.9 274.62,-377.14"/>
<polygon fill="black" stroke="black" points="278.13,-377.35 274.63,-367.35 271.13,-377.35 278.13,-377.35"/>
</g>
<!-- 2 -->
<g id="node3" class="node">
<title>2</title>
<text text-anchor="middle" x="274.62" y="-302.45" font-family="Times,serif" font-size="14.00">&lt;term&gt;</text>
</g>
<!-- 1&#45;&gt;2 -->
<g id="edge2" class="edge">
<title>1&#45;&gt;2</title>
<path fill="none" stroke="black" d="M274.62,-351.96C274.62,-345.74 274.62,-335.65 274.62,-326.89"/>
<polygon fill="black" stroke="black" points="278.13,-327.1 274.63,-317.1 271.13,-327.1 278.13,-327.1"/>
</g>
<!-- 3 -->
<g id="node4" class="node">
<title>3</title>
<text text-anchor="middle" x="160.62" y="-252.2" font-family="Times,serif" font-size="14.00">&lt;factor&gt;</text>
</g>
<!-- 2&#45;&gt;3 -->
<g id="edge3" class="edge">
<title>2&#45;&gt;3</title>
<path fill="none" stroke="black" d="M260.19,-301.51C241.43,-293.57 208.38,-279.59 185.53,-269.92"/>
<polygon fill="black" stroke="black" points="186.91,-266.7 176.34,-266.03 184.18,-273.15 186.91,-266.7"/>
</g>
<!-- 14 -->
<g id="node15" class="node">
<title>14</title>
<text text-anchor="middle" x="274.62" y="-252.2" font-family="Times,serif" font-size="14.00"> * </text>
</g>
<!-- 2&#45;&gt;14 -->
<g id="edge14" class="edge">
<title>2&#45;&gt;14</title>
<path fill="none" stroke="black" d="M274.62,-301.71C274.62,-295.49 274.62,-285.4 274.62,-276.64"/>
<polygon fill="black" stroke="black" points="278.13,-276.85 274.63,-266.85 271.13,-276.85 278.13,-276.85"/>
</g>
<!-- 15 -->
<g id="node16" class="node">
<title>15</title>
<text text-anchor="middle" x="335.62" y="-252.2" font-family="Times,serif" font-size="14.00">&lt;term&gt;</text>
</g>
<!-- 2&#45;&gt;15 -->
<g id="edge15" class="edge">
<title>2&#45;&gt;15</title>
<path fill="none" stroke="black" d="M282.35,-301.51C291.57,-294.22 307.23,-281.83 319.2,-272.37"/>
<polygon fill="black" stroke="black" points="321.29,-275.17 326.97,-266.22 316.95,-269.68 321.29,-275.17"/>
</g>
<!-- 4 -->
<g id="node5" class="node">
<title>4</title>
<text text-anchor="middle" x="70.62" y="-201.95" font-family="Times,serif" font-size="14.00">&lt;integer&gt;</text>
</g>
<!-- 3&#45;&gt;4 -->
<g id="edge4" class="edge">
<title>3&#45;&gt;4</title>
<path fill="none" stroke="black" d="M149.23,-251.26C134.89,-243.58 109.98,-230.22 92.04,-220.61"/>
<polygon fill="black" stroke="black" points="93.73,-217.54 83.26,-215.9 90.42,-223.71 93.73,-217.54"/>
</g>
<!-- 10 -->
<g id="node11" class="node">
<title>10</title>
<text text-anchor="middle" x="130.62" y="-201.95" font-family="Times,serif" font-size="14.00">. (46)</text>
</g>
<!-- 3&#45;&gt;10 -->
<g id="edge10" class="edge">
<title>3&#45;&gt;10</title>
<path fill="none" stroke="black" d="M156.95,-251.46C152.81,-244.8 145.92,-233.73 140.23,-224.57"/>
<polygon fill="black" stroke="black" points="143.39,-223.02 135.13,-216.38 137.44,-226.72 143.39,-223.02"/>
</g>
<!-- 11 -->
<g id="node12" class="node">
<title>11</title>
<text text-anchor="middle" x="190.62" y="-201.95" font-family="Times,serif" font-size="14.00">&lt;integer&gt;</text>
</g>
<!-- 3&#45;&gt;11 -->
<g id="edge11" class="edge">
<title>3&#45;&gt;11</title>
<path fill="none" stroke="black" d="M164.3,-251.46C168.44,-244.8 175.33,-233.73 181.02,-224.57"/>
<polygon fill="black" stroke="black" points="183.81,-226.72 186.12,-216.38 177.86,-223.02 183.81,-226.72"/>
</g>
<!-- 5 -->
<g id="node6" class="node">
<title>5</title>
<text text-anchor="middle" x="20.62" y="-151.7" font-family="Times,serif" font-size="14.00">&lt;digit&gt;</text>
</g>
<!-- 4&#45;&gt;5 -->
<g id="edge5" class="edge">
<title>4&#45;&gt;5</title>
<path fill="none" stroke="black" d="M64.49,-201.21C57.15,-194.12 44.6,-182.01 34.8,-172.56"/>
<polygon fill="black" stroke="black" points="37.52,-170.32 27.9,-165.89 32.66,-175.35 37.52,-170.32"/>
</g>
<!-- 7 -->
<g id="node8" class="node">
<title>7</title>
<text text-anchor="middle" x="86.62" y="-151.7" font-family="Times,serif" font-size="14.00">&lt;integer&gt;</text>
</g>
<!-- 4&#45;&gt;7 -->
<g id="edge7" class="edge">
<title>4&#45;&gt;7</title>
<path fill="none" stroke="black" d="M72.59,-201.21C74.7,-194.84 78.15,-184.43 81.1,-175.53"/>
<polygon fill="black" stroke="black" points="84.35,-176.87 84.17,-166.28 77.7,-174.67 84.35,-176.87"/>
</g>
<!-- 6 -->
<g id="node7" class="node">
<title>6</title>
<text text-anchor="middle" x="20.62" y="-101.45" font-family="Times,serif" font-size="14.00">1 (49)</text>
</g>
<!-- 5&#45;&gt;6 -->
<g id="edge6" class="edge">
<title>5&#45;&gt;6</title>
<path fill="none" stroke="black" d="M20.62,-150.96C20.62,-144.74 20.62,-134.65 20.62,-125.89"/>
<polygon fill="black" stroke="black" points="24.13,-126.1 20.63,-116.1 17.13,-126.1 24.13,-126.1"/>
</g>
<!-- 8 -->
<g id="node9" class="node">
<title>8</title>
<text text-anchor="middle" x="86.62" y="-101.45" font-family="Times,serif" font-size="14.00">&lt;digit&gt;</text>
</g>
<!-- 7&#45;&gt;8 -->
<g id="edge8" class="edge">
<title>7&#45;&gt;8</title>
<path fill="none" stroke="black" d="M86.62,-150.96C86.62,-144.74 86.62,-134.65 86.62,-125.89"/>
<polygon fill="black" stroke="black" points="90.13,-126.1 86.63,-116.1 83.13,-126.1 90.13,-126.1"/>
</g>
<!-- 9 -->
<g id="node10" class="node">
<title>9</title>
<text text-anchor="middle" x="86.62" y="-51.2" font-family="Times,serif" font-size="14.00">8 (56)</text>
</g>
<!-- 8&#45;&gt;9 -->
<g id="edge9" class="edge">
<title>8&#45;&gt;9</title>
<path fill="none" stroke="black" d="M86.62,-100.71C86.62,-94.49 86.62,-84.4 86.62,-75.64"/>
<polygon fill="black" stroke="black" points="90.13,-75.85 86.63,-65.85 83.13,-75.85 90.13,-75.85"/>
</g>
<!-- 12 -->
<g id="node13" class="node">
<title>12</title>
<text text-anchor="middle" x="174.62" y="-151.7" font-family="Times,serif" font-size="14.00">&lt;digit&gt;</text>
</g>
<!-- 11&#45;&gt;12 -->
<g id="edge12" class="edge">
<title>11&#45;&gt;12</title>
<path fill="none" stroke="black" d="M188.66,-201.21C186.55,-194.84 183.1,-184.43 180.15,-175.53"/>
<polygon fill="black" stroke="black" points="183.55,-174.67 177.08,-166.28 176.9,-176.87 183.55,-174.67"/>
</g>
<!-- 13 -->
<g id="node14" class="node">
<title>13</title>
<text text-anchor="middle" x="157.62" y="-101.45" font-family="Times,serif" font-size="14.00">3 (51)</text>
</g>
<!-- 12&#45;&gt;13 -->
<g id="edge13" class="edge">
<title>12&#45;&gt;13</title>
<path fill="none" stroke="black" d="M172.54,-150.96C170.3,-144.59 166.63,-134.18 163.49,-125.28"/>
<polygon fill="black" stroke="black" points="166.85,-124.29 160.23,-116.02 160.25,-126.61 166.85,-124.29"/>
</g>
<!-- 16 -->
<g id="node17" class="node">
<title>16</title>
<text text-anchor="middle" x="311.62" y="-201.95" font-family="Times,serif" font-size="14.00">&lt;factor&gt;</text>
</g>
<!-- 15&#45;&gt;16 -->
<g id="edge16" class="edge">
<title>15&#45;&gt;16</title>
<path fill="none" stroke="black" d="M332.68,-251.46C329.44,-244.95 324.1,-234.21 319.61,-225.17"/>
<polygon fill="black" stroke="black" points="322.85,-223.84 315.27,-216.44 316.59,-226.96 322.85,-223.84"/>
</g>
<!-- 30 -->
<g id="node31" class="node">
<title>30</title>
<text text-anchor="middle" x="359.62" y="-201.95" font-family="Times,serif" font-size="14.00"> / </text>
</g>
<!-- 15&#45;&gt;30 -->
<g id="edge30" class="edge">
<title>15&#45;&gt;30</title>
<path fill="none" stroke="black" d="M338.57,-251.46C341.81,-244.95 347.15,-234.21 351.64,-225.17"/>
<polygon fill="black" stroke="black" points="354.66,-226.96 355.98,-216.44 348.4,-223.84 354.66,-226.96"/>
</g>
<!-- 31 -->
<g id="node32" class="node">
<title>31</title>
<text text-anchor="middle" x="422.62" y="-201.95" font-family="Times,serif" font-size="14.00">&lt;term&gt;</text>
</g>
<!-- 15&#45;&gt;31 -->
<g id="edge31" class="edge">
<title>15&#45;&gt;31</title>
<path fill="none" stroke="black" d="M346.64,-251.26C360.5,-243.58 384.58,-230.22 401.92,-220.61"/>
<polygon fill="black" stroke="black" points="403.32,-223.83 410.37,-215.92 399.93,-217.71 403.32,-223.83"/>
</g>
<!-- 17 -->
<g id="node18" class="node">
<title>17</title>
<text text-anchor="middle" x="251.62" y="-151.7" font-family="Times,serif" font-size="14.00">&lt;integer&gt;</text>
</g>
<!-- 16&#45;&gt;17 -->
<g id="edge17" class="edge">
<title>16&#45;&gt;17</title>
<path fill="none" stroke="black" d="M304.27,-201.21C295.27,-193.97 279.78,-181.52 267.92,-171.98"/>
<polygon fill="black" stroke="black" points="270.21,-169.33 260.22,-165.79 265.82,-174.78 270.21,-169.33"/>
</g>
<!-- 23 -->
<g id="node24" class="node">
<title>23</title>
<text text-anchor="middle" x="311.62" y="-151.7" font-family="Times,serif" font-size="14.00">. (46)</text>
</g>
<!-- 16&#45;&gt;23 -->
<g id="edge23" class="edge">
<title>16&#45;&gt;23</title>
<path fill="none" stroke="black" d="M311.62,-201.21C311.62,-194.99 311.62,-184.9 311.62,-176.14"/>
<polygon fill="black" stroke="black" points="315.13,-176.35 311.63,-166.35 308.13,-176.35 315.13,-176.35"/>
</g>
<!-- 24 -->
<g id="node25" class="node">
<title>24</title>
<text text-anchor="middle" x="371.62" y="-151.7" font-family="Times,serif" font-size="14.00">&lt;integer&gt;</text>
</g>
<!-- 16&#45;&gt;24 -->
<g id="edge24" class="edge">
<title>16&#45;&gt;24</title>
<path fill="none" stroke="black" d="M318.98,-201.21C327.98,-193.97 343.47,-181.52 355.33,-171.98"/>
<polygon fill="black" stroke="black" points="357.43,-174.78 363.03,-165.79 353.04,-169.33 357.43,-174.78"/>
</g>
<!-- 18 -->
<g id="node19" class="node">
<title>18</title>
<text text-anchor="middle" x="212.62" y="-101.45" font-family="Times,serif" font-size="14.00">&lt;digit&gt;</text>
</g>
<!-- 17&#45;&gt;18 -->
<g id="edge18" class="edge">
<title>17&#45;&gt;18</title>
<path fill="none" stroke="black" d="M246.84,-150.96C241.35,-144.16 232.12,-132.74 224.63,-123.48"/>
<polygon fill="black" stroke="black" points="227.41,-121.34 218.4,-115.77 221.96,-125.74 227.41,-121.34"/>
</g>
<!-- 20 -->
<g id="node21" class="node">
<title>20</title>
<text text-anchor="middle" x="278.62" y="-101.45" font-family="Times,serif" font-size="14.00">&lt;integer&gt;</text>
</g>
<!-- 17&#45;&gt;20 -->
<g id="edge20" class="edge">
<title>17&#45;&gt;20</title>
<path fill="none" stroke="black" d="M254.94,-150.96C258.62,-144.37 264.72,-133.47 269.81,-124.37"/>
<polygon fill="black" stroke="black" points="272.72,-126.35 274.55,-115.91 266.61,-122.93 272.72,-126.35"/>
</g>
<!-- 19 -->
<g id="node20" class="node">
<title>19</title>
<text text-anchor="middle" x="212.62" y="-51.2" font-family="Times,serif" font-size="14.00">2 (50)</text>
</g>
<!-- 18&#45;&gt;19 -->
<g id="edge19" class="edge">
<title>18&#45;&gt;19</title>
<path fill="none" stroke="black" d="M212.62,-100.71C212.62,-94.49 212.62,-84.4 212.62,-75.64"/>
<polygon fill="black" stroke="black" points="216.13,-75.85 212.63,-65.85 209.13,-75.85 216.13,-75.85"/>
</g>
<!-- 21 -->
<g id="node22" class="node">
<title>21</title>
<text text-anchor="middle" x="278.62" y="-51.2" font-family="Times,serif" font-size="14.00">&lt;digit&gt;</text>
</g>
<!-- 20&#45;&gt;21 -->
<g id="edge21" class="edge">
<title>20&#45;&gt;21</title>
<path fill="none" stroke="black" d="M278.62,-100.71C278.62,-94.49 278.62,-84.4 278.62,-75.64"/>
<polygon fill="black" stroke="black" points="282.13,-75.85 278.63,-65.85 275.13,-75.85 282.13,-75.85"/>
</g>
<!-- 22 -->
<g id="node23" class="node">
<title>22</title>
<text text-anchor="middle" x="278.62" y="-0.95" font-family="Times,serif" font-size="14.00">1 (49)</text>
</g>
<!-- 21&#45;&gt;22 -->
<g id="edge22" class="edge">
<title>21&#45;&gt;22</title>
<path fill="none" stroke="black" d="M278.62,-50.46C278.62,-44.24 278.62,-34.15 278.62,-25.39"/>
<polygon fill="black" stroke="black" points="282.13,-25.6 278.63,-15.6 275.13,-25.6 282.13,-25.6"/>
</g>
<!-- 25 -->
<g id="node26" class="node">
<title>25</title>
<text text-anchor="middle" x="344.62" y="-101.45" font-family="Times,serif" font-size="14.00">&lt;digit&gt;</text>
</g>
<!-- 24&#45;&gt;25 -->
<g id="edge25" class="edge">
<title>24&#45;&gt;25</title>
<path fill="none" stroke="black" d="M368.31,-150.96C364.63,-144.37 358.53,-133.47 353.44,-124.37"/>
<polygon fill="black" stroke="black" points="356.64,-122.93 348.7,-115.91 350.53,-126.35 356.64,-122.93"/>
</g>
<!-- 27 -->
<g id="node28" class="node">
<title>27</title>
<text text-anchor="middle" x="410.62" y="-101.45" font-family="Times,serif" font-size="14.00">&lt;integer&gt;</text>
</g>
<!-- 24&#45;&gt;27 -->
<g id="edge27" class="edge">
<title>24&#45;&gt;27</title>
<path fill="none" stroke="black" d="M376.41,-150.96C381.9,-144.16 391.13,-132.74 398.62,-123.48"/>
<polygon fill="black" stroke="black" points="401.29,-125.74 404.85,-115.77 395.84,-121.34 401.29,-125.74"/>
</g>
<!-- 26 -->
<g id="node27" class="node">
<title>26</title>
<text text-anchor="middle" x="344.62" y="-51.2" font-family="Times,serif" font-size="14.00">9 (57)</text>
</g>
<!-- 25&#45;&gt;26 -->
<g id="edge26" class="edge">
<title>25&#45;&gt;26</title>
<path fill="none" stroke="black" d="M344.62,-100.71C344.62,-94.49 344.62,-84.4 344.62,-75.64"/>
<polygon fill="black" stroke="black" points="348.13,-75.85 344.63,-65.85 341.13,-75.85 348.13,-75.85"/>
</g>
<!-- 28 -->
<g id="node29" class="node">
<title>28</title>
<text text-anchor="middle" x="410.62" y="-51.2" font-family="Times,serif" font-size="14.00">&lt;digit&gt;</text>
</g>
<!-- 27&#45;&gt;28 -->
<g id="edge28" class="edge">
<title>27&#45;&gt;28</title>
<path fill="none" stroke="black" d="M410.62,-100.71C410.62,-94.49 410.62,-84.4 410.62,-75.64"/>
<polygon fill="black" stroke="black" points="414.13,-75.85 410.63,-65.85 407.13,-75.85 414.13,-75.85"/>
</g>
<!-- 29 -->
<g id="node30" class="node">
<title>29</title>
<text text-anchor="middle" x="410.62" y="-0.95" font-family="Times,serif" font-size="14.00">5 (53)</text>
</g>
<!-- 28&#45;&gt;29 -->
<g id="edge29" class="edge">
<title>28&#45;&gt;29</title>
<path fill="none" stroke="black" d="M410.62,-50.46C410.62,-44.24 410.62,-34.15 410.62,-25.39"/>
<polygon fill="black" stroke="black" points="414.13,-25.6 410.63,-15.6 407.13,-25.6 414.13,-25.6"/>
</g>
<!-- 32 -->
<g id="node33" class="node">
<title>32</title>
<text text-anchor="middle" x="453.62" y="-151.7" font-family="Times,serif" font-size="14.00">&lt;factor&gt;</text>
</g>
<!-- 31&#45;&gt;32 -->
<g id="edge32" class="edge">
<title>31&#45;&gt;32</title>
<path fill="none" stroke="black" d="M426.43,-201.21C430.7,-194.55 437.82,-183.48 443.7,-174.32"/>
<polygon fill="black" stroke="black" points="446.51,-176.42 448.97,-166.11 440.62,-172.63 446.51,-176.42"/>
</g>
<!-- 33 -->
<g id="node34" class="node">
<title>33</title>
<text text-anchor="middle" x="482.62" y="-101.45" font-family="Times,serif" font-size="14.00">&lt;integer&gt;</text>
</g>
<!-- 32&#45;&gt;33 -->
<g id="edge33" class="edge">
<title>32&#45;&gt;33</title>
<path fill="none" stroke="black" d="M457.18,-150.96C461.14,-144.37 467.69,-133.47 473.16,-124.37"/>
<polygon fill="black" stroke="black" points="476.11,-126.26 478.26,-115.89 470.11,-122.66 476.11,-126.26"/>
</g>
<!-- 34 -->
<g id="node35" class="node">
<title>34</title>
<text text-anchor="middle" x="482.62" y="-51.2" font-family="Times,serif" font-size="14.00">&lt;digit&gt;</text>
</g>
<!-- 33&#45;&gt;34 -->
<g id="edge34" class="edge">
<title>33&#45;&gt;34</title>
<path fill="none" stroke="black" d="M482.62,-100.71C482.62,-94.49 482.62,-84.4 482.62,-75.64"/>
<polygon fill="black" stroke="black" points="486.13,-75.85 482.63,-65.85 479.13,-75.85 486.13,-75.85"/>
</g>
<!-- 35 -->
<g id="node36" class="node">
<title>35</title>
<text text-anchor="middle" x="482.62" y="-0.95" font-family="Times,serif" font-size="14.00">0 (48)</text>
</g>
<!-- 34&#45;&gt;35 -->
<g id="edge35" class="edge">
<title>34&#45;&gt;35</title>
<path fill="none" stroke="black" d="M482.62,-50.46C482.62,-44.24 482.62,-34.15 482.62,-25.39"/>
<polygon fill="black" stroke="black" points="486.13,-25.6 482.63,-15.6 479.13,-25.6 486.13,-25.6"/>
</g>
</g>
</svg>