<svg class="railroad-diagram" height="122" viewBox="0 0 313.5 122" width="313.5" xmlns="http://www.w3.org/2000/svg">
<g transform="translate(.5 .5)">
<style>/* <![CDATA[ */
    svg.railroad-diagram {
        background-color:hsl(100,100%,100%);
    }
    svg.railroad-diagram path {
        stroke-width:3;
        stroke:black;
        fill:rgba(0,0,0,0);
    }
    svg.railroad-diagram text {
        font:bold 14px monospace;
        text-anchor:middle;
    }
    svg.railroad-diagram text.label{
        text-anchor:start;
    }
    svg.railroad-diagram text.comment{
        font:italic 12px monospace;
    }
    svg.railroad-diagram rect{
        stroke-width:3;
        stroke:black;
        fill:hsl(0,62%,82%);
    }

/* ]]> */
</style><g>
<path d="M20 51v20m10 -20v20m-10 -10h20"/></g><g>
<path d="M40 61h0.0"/><path d="M273.5 61h0.0"/><path d="M40.0 61a10 10 0 0 0 10 -10v-10a10 10 0 0 1 10 -10"/><g>
<path d="M60.0 31h0.0"/><path d="M253.5 31h0.0"/><g class="non-terminal">
<path d="M60.0 31h0.0"/><path d="M131.0 31h0.0"/><rect height="22" width="71.0" x="60.0" y="20"/><text x="95.5" y="35">factor</text></g><path d="M131.0 31h10"/><path d="M141.0 31h10"/><g class="terminal">
<path d="M151.0 31h0.0"/><path d="M179.5 31h0.0"/><rect height="22" rx="10" ry="10" width="28.5" x="151.0" y="20"/><text x="165.25" y="35">*</text></g><path d="M179.5 31h10"/><path d="M189.5 31h10"/><g class="non-terminal">
<path d="M199.5 31h0.0"/><path d="M253.5 31h0.0"/><rect height="22" width="54.0" x="199.5" y="20"/><text x="226.5" y="35">term</text></g></g><path d="M253.5 31a10 10 0 0 1 10 10v10a10 10 0 0 0 10 10"/><path d="M40.0 61h20"/><g>
<path d="M60.0 61h0.0"/><path d="M253.5 61h0.0"/><g class="non-terminal">
<path d="M60.0 61h0.0"/><path d="M131.0 61h0.0"/><rect height="22" width="71.0" x="60.0" y="50"/><text x="95.5" y="65">factor</text></g><path d="M131.0 61h10"/><path d="M141.0 61h10"/><g class="terminal">
<path d="M151.0 61h0.0"/><path d="M179.5 61h0.0"/><rect height="22" rx="10" ry="10" width="28.5" x="151.0" y="50"/><text x="165.25" y="65">/</text></g><path d="M179.5 61h10"/><path d="M189.5 61h10"/><g class="non-terminal">
<path d="M199.5 61h0.0"/><path d="M253.5 61h0.0"/><rect height="22" width="54.0" x="199.5" y="50"/><text x="226.5" y="65">term</text></g></g><path d="M253.5 61h20"/><path d="M40.0 61a10 10 0 0 1 10 10v10a10 10 0 0 0 10 10"/><g>
<path d="M60.0 91h61.25"/><path d="M192.25 91h61.25"/><g class="non-terminal">
<path d="M121.25 91h0.0"/><path d="M192.25 91h0.0"/><rect height="22" width="71.0" x="121.25" y="80"/><text x="156.75" y="95">factor</text></g></g><path d="M253.5 91a10 10 0 0 0 10 -10v-10a10 10 0 0 1 10 -10"/></g><path d="M 273.5 61 h 20 m -10 -10 v 20 m 10 -20 v 20"/></g></svg>