<?xml version="1.0" encoding="UTF-8" standalone="no"?>
<!DOCTYPE svg PUBLIC "-//W3C//DTD SVG 1.1//EN"
 "http://www.w3.org/Graphics/SVG/1.1/DTD/svg11.dtd">
<!-- Generated by graphviz version 12.2.1 (20241206.2353)
 -->
<!-- Pages: 1 -->
<svg width="220pt" height="173pt"
 viewBox="0.00 0.00 219.62 173.00" xmlns="http://www.w3.org/2000/svg" xmlns:xlink="http://www.w3.org/1999/xlink">
<g id="graph0" class="graph" transform="scale(1 1) rotate(0) translate(4 169)">
<polygon fill="white" stroke="none" points="-4,4 -4,-169 215.62,-169 215.62,4 -4,4"/>
<!-- 0 -->
<g id="node1" class="node">
<title>0</title>
<text text-anchor="middle" x="104.25" y="-151.7" font-family="Times,serif" font-size="14.00">&lt;start&gt;</text>
</g>
<!-- 1 -->
<g id="node2" class="node">
<title>1</title>
<text text-anchor="middle" x="104.25" y="-101.45" font-family="Times,serif" font-size="14.00">&lt;query&gt;</text>
</g>
<!-- 0&#45;&gt;1 -->
<g id="edge1" class="edge">
<title>0&#45;&gt;1</title>
<path fill="none" stroke="black" d="M104.25,-150.96C104.25,-144.74 104.25,-134.65 104.25,-125.89"/>
<polygon fill="black" stroke="black" points="107.75,-126.1 104.25,-116.1 100.75,-126.1 107.75,-126.1"/>
</g>
<!-- 2 -->
<g id="node3" class="node">
<title>2</title>
<text text-anchor="middle" x="17.25" y="-51.2" font-family="Times,serif" font-size="14.00">select </text>
</g>
<!-- 1&#45;&gt;2 -->
<g id="edge2" class="edge">
<title>1&#45;&gt;2</title>
<path fill="none" stroke="black" d="M93.23,-100.51C79.37,-92.83 55.3,-79.47 37.95,-69.86"/>
<polygon fill="black" stroke="black" points="39.95,-66.96 29.5,-65.17 36.55,-73.08 39.95,-66.96"/>
</g>
<!-- 3 -->
<g id="node4" class="node">
<title>3</title>
<text text-anchor="middle" x="75.25" y="-51.2" font-family="Times,serif" font-size="14.00">&lt;exprs&gt;</text>
</g>
<!-- 1&#45;&gt;3 -->
<g id="edge3" class="edge">
<title>1&#45;&gt;3</title>
<path fill="none" stroke="black" d="M100.69,-100.71C96.74,-94.12 90.18,-83.22 84.71,-74.12"/>
<polygon fill="black" stroke="black" points="87.77,-72.41 79.61,-65.64 81.77,-76.01 87.77,-72.41"/>
</g>
<!-- 5 -->
<g id="node6" class="node">
<title>5</title>
<text text-anchor="middle" x="133.25" y="-51.2" font-family="Times,serif" font-size="14.00"> from </text>
</g>
<!-- 1&#45;&gt;5 -->
<g id="edge5" class="edge">
<title>1&#45;&gt;5</title>
<path fill="none" stroke="black" d="M107.81,-100.71C111.76,-94.12 118.32,-83.22 123.79,-74.12"/>
<polygon fill="black" stroke="black" points="126.73,-76.01 128.89,-65.64 120.73,-72.41 126.73,-76.01"/>
</g>
<!-- 6 -->
<g id="node7" class="node">
<title>6</title>
<text text-anchor="middle" x="190.25" y="-51.2" font-family="Times,serif" font-size="14.00">&lt;table&gt;</text>
</g>
<!-- 1&#45;&gt;6 -->
<g id="edge6" class="edge">
<title>1&#45;&gt;6</title>
<path fill="none" stroke="black" d="M115.14,-100.51C128.84,-92.83 152.64,-79.47 169.78,-69.86"/>
<polygon fill="black" stroke="black" points="171.12,-73.12 178.13,-65.18 167.69,-67.02 171.12,-73.12"/>
</g>
<!-- 4 -->
<g id="node5" class="node">
<title>4</title>
<text text-anchor="middle" x="75.25" y="-0.95" font-family="Times,serif" font-size="14.00">t4(I,N)!=b(k)/O!=(K4(:/Z))</text>
</g>
<!-- 3&#45;&gt;4 -->
<g id="edge4" class="edge">
<title>3&#45;&gt;4</title>
<path fill="none" stroke="black" d="M75.25,-50.46C75.25,-44.24 75.25,-34.15 75.25,-25.39"/>
<polygon fill="black" stroke="black" points="78.75,-25.6 75.25,-15.6 71.75,-25.6 78.75,-25.6"/>
</g>
<!-- 7 -->
<g id="node8" class="node">
<title>7</title>
<text text-anchor="middle" x="190.25" y="-0.95" font-family="Times,serif" font-size="14.00">I7</text>
</g>
<!-- 6&#45;&gt;7 -->
<g id="edge7" class="edge">
<title>6&#45;&gt;7</title>
<path fill="none" stroke="black" d="M190.25,-50.46C190.25,-44.24 190.25,-34.15 190.25,-25.39"/>
<polygon fill="black" stroke="black" points="193.75,-25.6 190.25,-15.6 186.75,-25.6 193.75,-25.6"/>
</g>
</g>
</svg>