<svg xmlns="http://www.w3.org/2000/svg" class="railroad-diagram" height="122" viewBox="0 0 643.5 122" width="643.5">
<g transform="translate(.5 .5)">
<style>/* <![CDATA[ */
    svg.railroad-diagram {
    }
    svg.railroad-diagram path {
        stroke-width:3;
        stroke:black;
        fill:white;
    }
    svg.railroad-diagram text {
        font:14px "Fira Mono", monospace;
        text-anchor:middle;
    }
    svg.railroad-diagram text.label{
        text-anchor:start;
    }
    svg.railroad-diagram text.comment{
        font:italic 12px "Fira Mono", monospace;
    }
    svg.railroad-diagram rect{
        stroke-width:2;
        stroke:black;
        fill:mistyrose;
    }

/* ]]> */
</style><g>
<path d="M20 51v20m10 -20v20m-10 -10h20"/></g><g>
<path d="M40 61h0.0"/><path d="M603.5 61h0.0"/><path d="M40.0 61a10 10 0 0 0 10 -10v-10a10 10 0 0 1 10 -10"/><g>
<path d="M60.0 31h0.0"/><path d="M583.5 31h0.0"/><g class="non-terminal">
<path d="M60.0 31h0.0"/><path d="M131.0 31h0.0"/><rect height="22" width="71.0" x="60.0" y="20"/><text x="95.5" y="35">scheme</text></g><path d="M131.0 31h10"/><path d="M141.0 31h10"/><g class="terminal">
<path d="M151.0 31h0.0"/><path d="M196.5 31h0.0"/><rect height="22" rx="10" ry="10" width="45.5" x="151.0" y="20"/><text x="173.75" y="35">://</text></g><path d="M196.5 31h10"/><path d="M206.5 31h10"/><g class="non-terminal">
<path d="M216.5 31h0.0"/><path d="M287.5 31h0.0"/><rect height="22" width="71.0" x="216.5" y="20"/><text x="252.0" y="35">netloc</text></g><path d="M287.5 31h10"/><path d="M297.5 31h10"/><g class="terminal">
<path d="M307.5 31h0.0"/><path d="M344.5 31h0.0"/><rect height="22" rx="10" ry="10" width="37.0" x="307.5" y="20"/><text x="326.0" y="35">/?</text></g><path d="M344.5 31h10"/><path d="M354.5 31h10"/><g class="non-terminal">
<path d="M364.5 31h0.0"/><path d="M427.0 31h0.0"/><rect height="22" width="62.5" x="364.5" y="20"/><text x="395.75" y="35">query</text></g><path d="M427.0 31h10"/><path d="M437.0 31h10"/><g class="terminal">
<path d="M447.0 31h0.0"/><path d="M475.5 31h0.0"/><rect height="22" rx="10" ry="10" width="28.5" x="447.0" y="20"/><text x="461.25" y="35">#</text></g><path d="M475.5 31h10"/><path d="M485.5 31h10"/><g class="non-terminal">
<path d="M495.5 31h0.0"/><path d="M583.5 31h0.0"/><rect height="22" width="88.0" x="495.5" y="20"/><text x="539.5" y="35">fragment</text></g></g><path d="M583.5 31a10 10 0 0 1 10 10v10a10 10 0 0 0 10 10"/><path d="M40.0 61h20"/><g>
<path d="M60.0 61h123.75"/><path d="M459.75 61h123.75"/><g class="non-terminal">
<path d="M183.75 61h0.0"/><path d="M254.75 61h0.0"/><rect height="22" width="71.0" x="183.75" y="50"/><text x="219.25" y="65">scheme</text></g><path d="M254.75 61h10"/><path d="M264.75 61h10"/><g class="terminal">
<path d="M274.75 61h0.0"/><path d="M320.25 61h0.0"/><rect height="22" rx="10" ry="10" width="45.5" x="274.75" y="50"/><text x="297.5" y="65">://</text></g><path d="M320.25 61h10"/><path d="M330.25 61h10"/><g class="non-terminal">
<path d="M340.25 61h0.0"/><path d="M411.25 61h0.0"/><rect height="22" width="71.0" x="340.25" y="50"/><text x="375.75" y="65">netloc</text></g><path d="M411.25 61h10"/><path d="M421.25 61h10"/><g class="terminal">
<path d="M431.25 61h0.0"/><path d="M459.75 61h0.0"/><rect height="22" rx="10" ry="10" width="28.5" x="431.25" y="50"/><text x="445.5" y="65">/</text></g></g><path d="M583.5 61h20"/><path d="M40.0 61a10 10 0 0 1 10 10v10a10 10 0 0 0 10 10"/><g>
<path d="M60.0 91h65.5"/><path d="M518.0 91h65.5"/><g class="non-terminal">
<path d="M125.5 91h0.0"/><path d="M196.5 91h0.0"/><rect height="22" width="71.0" x="125.5" y="80"/><text x="161.0" y="95">scheme</text></g><path d="M196.5 91h10"/><path d="M206.5 91h10"/><g class="terminal">
<path d="M216.5 91h0.0"/><path d="M262.0 91h0.0"/><rect height="22" rx="10" ry="10" width="45.5" x="216.5" y="80"/><text x="239.25" y="95">://</text></g><path d="M262.0 91h10"/><path d="M272.0 91h10"/><g class="non-terminal">
<path d="M282.0 91h0.0"/><path d="M353.0 91h0.0"/><rect height="22" width="71.0" x="282.0" y="80"/><text x="317.5" y="95">netloc</text></g><path d="M353.0 91h10"/><path d="M363.0 91h10"/><g class="terminal">
<path d="M373.0 91h0.0"/><path d="M410.0 91h0.0"/><rect height="22" rx="10" ry="10" width="37.0" x="373.0" y="80"/><text x="391.5" y="95">/#</text></g><path d="M410.0 91h10"/><path d="M420.0 91h10"/><g class="non-terminal">
<path d="M430.0 91h0.0"/><path d="M518.0 91h0.0"/><rect height="22" width="88.0" x="430.0" y="80"/><text x="474.0" y="95">fragment</text></g></g><path d="M583.5 91a10 10 0 0 0 10 -10v-10a10 10 0 0 1 10 -10"/></g><path d="M 603.5 61 h 20 m -10 -10 v 20 m 10 -20 v 20"/></g></svg>