<svg xmlns="http://www.w3.org/2000/svg" class="railroad-diagram" height="62" viewBox="0 0 1031.0 62" width="1031.0">
<g transform="translate(.5 .5)">
<style>/* <![CDATA[ */
    svg.railroad-diagram {
    }
    svg.railroad-diagram path {
        stroke-width:3;
        stroke:black;
        fill:white;
    }
    svg.railroad-diagram text {
        font:14px "Fira Mono", monospace;
        text-anchor:middle;
    }
    svg.railroad-diagram text.label{
        text-anchor:start;
    }
    svg.railroad-diagram text.comment{
        font:italic 12px "Fira Mono", monospace;
    }
    svg.railroad-diagram rect{
        stroke-width:2;
        stroke:black;
        fill:mistyrose;
    }

/* ]]> */
</style><g>
<path d="M20 21v20m10 -20v20m-10 -10h20"/></g><g>
<path d="M40 31h0.0"/><path d="M991.0 31h0.0"/><path d="M40.0 31h20"/><g>
<path d="M60.0 31h0.0"/><path d="M971.0 31h0.0"/><g class="non-terminal">
<path d="M60.0 31h0.0"/><path d="M318.0 31h0.0"/><rect height="22" width="258.0" x="60.0" y="20"/><text x="189.0" y="35">process_inventory@24:vehicle</text></g><path d="M318.0 31h10"/><path d="M328.0 31h10"/><g class="terminal">
<path d="M338.0 31h0.0"/><path d="M366.5 31h0.0"/><rect height="22" rx="10" ry="10" width="28.5" x="338.0" y="20"/><text x="352.25" y="35">
</text></g><path d="M366.5 31h10"/><path d="M376.5 31h10"/><g class="non-terminal">
<path d="M386.5 31h0.0"/><path d="M644.5 31h0.0"/><rect height="22" width="258.0" x="386.5" y="20"/><text x="515.5" y="35">process_inventory@24:vehicle</text></g><path d="M644.5 31h10"/><path d="M654.5 31h10"/><g class="terminal">
<path d="M664.5 31h0.0"/><path d="M693.0 31h0.0"/><rect height="22" rx="10" ry="10" width="28.5" x="664.5" y="20"/><text x="678.75" y="35">
</text></g><path d="M693.0 31h10"/><path d="M703.0 31h10"/><g class="non-terminal">
<path d="M713.0 31h0.0"/><path d="M971.0 31h0.0"/><rect height="22" width="258.0" x="713.0" y="20"/><text x="842.0" y="35">process_inventory@24:vehicle</text></g></g><path d="M971.0 31h20"/></g><path d="M 991.0 31 h 20 m -10 -10 v 20 m 10 -20 v 20"/></g></svg>