<svg xmlns="http://www.w3.org/2000/svg" class="railroad-diagram" height="92" viewBox="0 0 327.0 92" width="327.0">
<g transform="translate(.5 .5)">
<style>/* <![CDATA[ */
    svg.railroad-diagram {
    }
    svg.railroad-diagram path {
        stroke-width:3;
        stroke:black;
        fill:white;
    }
    svg.railroad-diagram text {
        font:14px "Fira Mono", monospace;
        text-anchor:middle;
    }
    svg.railroad-diagram text.label{
        text-anchor:start;
    }
    svg.railroad-diagram text.comment{
        font:italic 12px "Fira Mono", monospace;
    }
    svg.railroad-diagram rect{
        stroke-width:2;
        stroke:black;
        fill:mistyrose;
    }

/* ]]> */
</style><g>
<path d="M20 51v20m10 -20v20m-10 -10h20"/></g><g>
<path d="M40 61h0.0"/><path d="M287.0 61h0.0"/><path d="M40.0 61a10 10 0 0 0 10 -10v-10a10 10 0 0 1 10 -10"/><g>
<path d="M60.0 31h0.0"/><path d="M267.0 31h0.0"/><g class="non-terminal">
<path d="M60.0 31h0.0"/><path d="M267.0 31h0.0"/><rect height="22" width="207.0" x="60.0" y="20"/><text x="163.5" y="35">process_van@40:company</text></g></g><path d="M267.0 31a10 10 0 0 1 10 10v10a10 10 0 0 0 10 10"/><path d="M40.0 61h20"/><g>
<path d="M60.0 61h0.0"/><path d="M267.0 61h0.0"/><g class="non-terminal">
<path d="M60.0 61h0.0"/><path d="M267.0 61h0.0"/><rect height="22" width="207.0" x="60.0" y="50"/><text x="163.5" y="65">process_car@49:company</text></g></g><path d="M267.0 61h20"/></g><path d="M 287.0 61 h 20 m -10 -10 v 20 m 10 -20 v 20"/></g></svg>