<?xml version="1.0" encoding="UTF-8" standalone="no"?>
<!DOCTYPE svg PUBLIC "-//W3C//DTD SVG 1.1//EN"
 "http://www.w3.org/Graphics/SVG/1.1/DTD/svg11.dtd">
<!-- Generated by graphviz version 12.2.1 (20241206.2353)
 -->
<!-- Pages: 1 -->
<svg width="64pt" height="223pt"
 viewBox="0.00 0.00 63.75 223.25" xmlns="http://www.w3.org/2000/svg" xmlns:xlink="http://www.w3.org/1999/xlink">
<g id="graph0" class="graph" transform="scale(1 1) rotate(0) translate(4 219.25)">
<polygon fill="white" stroke="none" points="-4,4 -4,-219.25 59.75,-219.25 59.75,4 -4,4"/>
<!-- 0 -->
<g id="node1" class="node">
<title>0</title>
<text text-anchor="middle" x="30.75" y="-201.95" font-family="Times,serif" font-size="14.00">&lt;start&gt;</text>
</g>
<!-- 1 -->
<g id="node2" class="node">
<title>1</title>
<text text-anchor="middle" x="30.75" y="-151.7" font-family="Times,serif" font-size="14.00">&lt;A&gt;</text>
</g>
<!-- 0&#45;&gt;1 -->
<g id="edge1" class="edge">
<title>0&#45;&gt;1</title>
<path fill="none" stroke="black" d="M30.75,-201.21C30.75,-194.99 30.75,-184.9 30.75,-176.14"/>
<polygon fill="black" stroke="black" points="34.25,-176.35 30.75,-166.35 27.25,-176.35 34.25,-176.35"/>
</g>
<!-- 2 -->
<g id="node3" class="node">
<title>2</title>
<text text-anchor="middle" x="30.75" y="-101.45" font-family="Times,serif" font-size="14.00">&lt;B&gt;</text>
</g>
<!-- 1&#45;&gt;2 -->
<g id="edge2" class="edge">
<title>1&#45;&gt;2</title>
<path fill="none" stroke="black" d="M30.75,-150.96C30.75,-144.74 30.75,-134.65 30.75,-125.89"/>
<polygon fill="black" stroke="black" points="34.25,-126.1 30.75,-116.1 27.25,-126.1 34.25,-126.1"/>
</g>
<!-- 3 -->
<g id="node4" class="node">
<title>3</title>
<text text-anchor="middle" x="12.75" y="-51.2" font-family="Times,serif" font-size="14.00">&lt;C&gt;</text>
</g>
<!-- 2&#45;&gt;3 -->
<g id="edge3" class="edge">
<title>2&#45;&gt;3</title>
<path fill="none" stroke="black" d="M28.54,-100.71C26.17,-94.34 22.28,-83.93 18.96,-75.03"/>
<polygon fill="black" stroke="black" points="22.28,-73.9 15.5,-65.76 15.72,-76.35 22.28,-73.9"/>
</g>
<!-- 5 -->
<g id="node6" class="node">
<title>5</title>
<text text-anchor="middle" x="49.75" y="-51.2" font-family="Times,serif" font-size="14.00">cc</text>
</g>
<!-- 2&#45;&gt;5 -->
<g id="edge5" class="edge">
<title>2&#45;&gt;5</title>
<path fill="none" stroke="black" d="M33.08,-100.71C35.59,-94.34 39.69,-83.93 43.19,-75.03"/>
<polygon fill="black" stroke="black" points="46.44,-76.34 46.85,-65.75 39.93,-73.77 46.44,-76.34"/>
</g>
<!-- 4 -->
<g id="node5" class="node">
<title>4</title>
<text text-anchor="middle" x="12.75" y="-0.95" font-family="Times,serif" font-size="14.00">BB</text>
</g>
<!-- 3&#45;&gt;4 -->
<g id="edge4" class="edge">
<title>3&#45;&gt;4</title>
<path fill="none" stroke="black" d="M12.75,-50.46C12.75,-44.24 12.75,-34.15 12.75,-25.39"/>
<polygon fill="black" stroke="black" points="16.25,-25.6 12.75,-15.6 9.25,-25.6 16.25,-25.6"/>
</g>
</g>
</svg>