<svg xmlns="http://www.w3.org/2000/svg" class="railroad-diagram" height="62" viewBox="0 0 254.0 62" width="254.0">
<g transform="translate(.5 .5)">
<style>/* <![CDATA[ */
    svg.railroad-diagram {
    }
    svg.railroad-diagram path {
        stroke-width:3;
        stroke:black;
        fill:white;
    }
    svg.railroad-diagram text {
        font:14px "Fira Mono", monospace;
        text-anchor:middle;
    }
    svg.railroad-diagram text.label{
        text-anchor:start;
    }
    svg.railroad-diagram text.comment{
        font:italic 12px "Fira Mono", monospace;
    }
    svg.railroad-diagram rect{
        stroke-width:2;
        stroke:black;
        fill:mistyrose;
    }

/* ]]> */
</style><g>
<path d="M20 21v20m10 -20v20m-10 -10h20"/></g><g>
<path d="M40 31h0.0"/><path d="M214.0 31h0.0"/><path d="M40.0 31h20"/><g>
<path d="M60.0 31h0.0"/><path d="M194.0 31h0.0"/><g class="terminal">
<path d="M60.0 31h0.0"/><path d="M88.5 31h0.0"/><rect height="22" rx="10" ry="10" width="28.5" x="60.0" y="20"/><text x="74.25" y="35">&lt;</text></g><path d="M88.5 31h10"/><path d="M98.5 31h10"/><g class="non-terminal">
<path d="M108.5 31h0.0"/><path d="M145.5 31h0.0"/><rect height="22" width="37.0" x="108.5" y="20"/><text x="127.0" y="35">id</text></g><path d="M145.5 31h10"/><path d="M155.5 31h10"/><g class="terminal">
<path d="M165.5 31h0.0"/><path d="M194.0 31h0.0"/><rect height="22" rx="10" ry="10" width="28.5" x="165.5" y="20"/><text x="179.75" y="35">&gt;</text></g></g><path d="M194.0 31h20"/></g><path d="M 214.0 31 h 20 m -10 -10 v 20 m 10 -20 v 20"/></g></svg>