<svg xmlns="http://www.w3.org/2000/svg" class="railroad-diagram" height="92" viewBox="0 0 248.0 92" width="248.0">
<g transform="translate(.5 .5)">
<style>/* <![CDATA[ */
    svg.railroad-diagram {
    }
    svg.railroad-diagram path {
        stroke-width:3;
        stroke:black;
        fill:white;
    }
    svg.railroad-diagram text {
        font:14px "Fira Mono", monospace;
        text-anchor:middle;
    }
    svg.railroad-diagram text.label{
        text-anchor:start;
    }
    svg.railroad-diagram text.comment{
        font:italic 12px "Fira Mono", monospace;
    }
    svg.railroad-diagram rect{
        stroke-width:2;
        stroke:black;
        fill:mistyrose;
    }

/* ]]> */
</style><g>
<path d="M20 51v20m10 -20v20m-10 -10h20"/></g><g>
<path d="M40 61h0.0"/><path d="M208.0 61h0.0"/><path d="M40.0 61a10 10 0 0 0 10 -10v-10a10 10 0 0 1 10 -10"/><g>
<path d="M60.0 31h28.5"/><path d="M159.5 31h28.5"/><g class="non-terminal">
<path d="M88.5 31h0.0"/><path d="M159.5 31h0.0"/><rect height="22" width="71.0" x="88.5" y="20"/><text x="124.0" y="35">letter</text></g></g><path d="M188.0 31a10 10 0 0 1 10 10v10a10 10 0 0 0 10 10"/><path d="M40.0 61h20"/><g>
<path d="M60.0 61h0.0"/><path d="M188.0 61h0.0"/><g class="non-terminal">
<path d="M60.0 61h0.0"/><path d="M97.0 61h0.0"/><rect height="22" width="37.0" x="60.0" y="50"/><text x="78.5" y="65">id</text></g><path d="M97.0 61h10"/><path d="M107.0 61h10"/><g class="non-terminal">
<path d="M117.0 61h0.0"/><path d="M188.0 61h0.0"/><rect height="22" width="71.0" x="117.0" y="50"/><text x="152.5" y="65">letter</text></g></g><path d="M188.0 61h20"/></g><path d="M 208.0 61 h 20 m -10 -10 v 20 m 10 -20 v 20"/></g></svg>