<?xml version="1.0" encoding="UTF-8" standalone="no"?>
<!DOCTYPE svg PUBLIC "-//W3C//DTD SVG 1.1//EN"
 "http://www.w3.org/Graphics/SVG/1.1/DTD/svg11.dtd">
<!-- Generated by graphviz version 12.2.1 (20241206.2353)
 -->
<!-- Pages: 1 -->
<svg width="604pt" height="348pt"
 viewBox="0.00 0.00 604.13 347.50" xmlns="http://www.w3.org/2000/svg" xmlns:xlink="http://www.w3.org/1999/xlink">
<g id="graph0" class="graph" transform="scale(1 1) rotate(0) translate(4 343.5)">
<polygon fill="white" stroke="none" points="-4,4 -4,-343.5 600.13,-343.5 600.13,4 -4,4"/>
<!-- start -->
<g id="node1" class="node">
<title>start</title>
<ellipse fill="none" stroke="black" cx="316.33" cy="-321.5" rx="35.46" ry="18"/>
<text text-anchor="middle" x="316.33" y="-315.32" font-family="Times,serif" font-size="14.00">&lt;start&gt;</text>
</g>
<!-- state -->
<g id="node2" class="node">
<title>state</title>
<ellipse fill="none" stroke="black" cx="316.33" cy="-248.5" rx="36.41" ry="18"/>
<text text-anchor="middle" x="316.33" y="-242.32" font-family="Times,serif" font-size="14.00">&lt;state&gt;</text>
</g>
<!-- start&#45;&gt;state -->
<g id="edge1" class="edge">
<title>start&#45;&gt;state</title>
<path fill="none" stroke="black" d="M316.33,-303.31C316.33,-295.73 316.33,-286.6 316.33,-278.04"/>
<polygon fill="black" stroke="black" points="319.83,-278.04 316.33,-268.04 312.83,-278.04 319.83,-278.04"/>
</g>
<!-- state&#45;1 -->
<g id="node3" class="node">
<title>state&#45;1</title>
<ellipse fill="none" stroke="black" cx="194.33" cy="-91" rx="43.57" ry="18"/>
<text text-anchor="middle" x="194.33" y="-84.83" font-family="Times,serif" font-size="14.00">&lt;state&#45;1&gt;</text>
</g>
<!-- state&#45;&gt;state&#45;1 -->
<g id="edge2" class="edge">
<title>state&#45;&gt;state&#45;1</title>
<path fill="none" stroke="black" d="M280.04,-245.89C204.45,-242.16 35.7,-231.75 18.58,-212.5 -6.67,-184.1 -5.52,-156.38 18.58,-127 33.77,-108.49 94.25,-99.58 140.06,-95.42"/>
<polygon fill="black" stroke="black" points="140.17,-98.93 149.84,-94.6 139.58,-91.95 140.17,-98.93"/>
<text text-anchor="start" x="18.58" y="-163.57" font-family="Times,serif" font-size="14.00">click(&#39;terms and conditions&#39;)</text>
</g>
<!-- state&#45;2 -->
<g id="node4" class="node">
<title>state&#45;2</title>
<ellipse fill="none" stroke="black" cx="399.33" cy="-91" rx="43.57" ry="18"/>
<text text-anchor="middle" x="399.33" y="-84.83" font-family="Times,serif" font-size="14.00">&lt;state&#45;2&gt;</text>
</g>
<!-- state&#45;&gt;state&#45;2 -->
<g id="edge3" class="edge">
<title>state&#45;&gt;state&#45;2</title>
<path fill="none" stroke="black" d="M311.12,-230.23C304.67,-205.17 296.92,-158.32 317.83,-127 325.31,-115.79 337.2,-108.16 349.61,-102.97"/>
<polygon fill="black" stroke="black" points="350.45,-106.38 358.65,-99.67 348.06,-99.81 350.45,-106.38"/>
<text text-anchor="start" x="317.83" y="-199.2" font-family="Times,serif" font-size="14.00">fill(&#39;city&#39;, &#39;&lt;text&gt;&#39;)</text>
<text text-anchor="start" x="317.83" y="-184.95" font-family="Times,serif" font-size="14.00">fill(&#39;email&#39;, &#39;&lt;email&gt;&#39;)</text>
<text text-anchor="start" x="317.83" y="-170.7" font-family="Times,serif" font-size="14.00">fill(&#39;name&#39;, &#39;&lt;text&gt;&#39;)</text>
<text text-anchor="start" x="317.83" y="-156.45" font-family="Times,serif" font-size="14.00">check(&#39;terms&#39;, &lt;boolean&gt;)</text>
<text text-anchor="start" x="317.83" y="-142.2" font-family="Times,serif" font-size="14.00">fill(&#39;zip&#39;, &#39;&lt;number&gt;&#39;)</text>
<text text-anchor="start" x="317.83" y="-127.95" font-family="Times,serif" font-size="14.00">submit(&#39;submit&#39;)</text>
</g>
<!-- end -->
<g id="node5" class="node">
<title>end</title>
<ellipse fill="none" stroke="black" cx="399.33" cy="-18" rx="33.07" ry="18"/>
<text text-anchor="middle" x="399.33" y="-11.82" font-family="Times,serif" font-size="14.00">&lt;end&gt;</text>
</g>
<!-- state&#45;&gt;end -->
<g id="edge4" class="edge">
<title>state&#45;&gt;end</title>
<path fill="none" stroke="black" d="M353.24,-248.28C418.56,-248.78 550.39,-245.55 579.33,-212.5 604.37,-183.91 598.05,-160.07 579.33,-127 549.52,-74.34 482.65,-44.56 439.34,-30.13"/>
<polygon fill="black" stroke="black" points="440.64,-26.87 430.05,-27.16 438.51,-33.54 440.64,-26.87"/>
</g>
<!-- state&#45;1&#45;&gt;state -->
<g id="edge5" class="edge">
<title>state&#45;1&#45;&gt;state</title>
<path fill="none" stroke="black" d="M189.74,-109.29C184.09,-134.8 177.88,-182.69 201.33,-212.5 217.26,-232.75 244.57,-241.61 268.58,-245.35"/>
<polygon fill="black" stroke="black" points="267.81,-248.78 278.18,-246.58 268.7,-241.84 267.81,-248.78"/>
<text text-anchor="start" x="201.33" y="-163.57" font-family="Times,serif" font-size="14.00">click(&#39;order form&#39;)</text>
</g>
<!-- state&#45;1&#45;&gt;end -->
<g id="edge6" class="edge">
<title>state&#45;1&#45;&gt;end</title>
<path fill="none" stroke="black" d="M226.81,-78.75C263.29,-66.12 322.43,-45.63 361.11,-32.24"/>
<polygon fill="black" stroke="black" points="362.19,-35.57 370.49,-28.99 359.9,-28.95 362.19,-35.57"/>
</g>
<!-- state&#45;2&#45;&gt;state -->
<g id="edge7" class="edge">
<title>state&#45;2&#45;&gt;state</title>
<path fill="none" stroke="black" d="M432.22,-103.06C443.14,-108.48 454.09,-116.22 460.33,-127 479.37,-159.88 483.81,-182.62 460.33,-212.5 448.34,-227.76 400.45,-237.19 363.16,-242.36"/>
<polygon fill="black" stroke="black" points="362.93,-238.86 353.47,-243.63 363.84,-245.8 362.93,-238.86"/>
<text text-anchor="start" x="476.32" y="-163.57" font-family="Times,serif" font-size="14.00">click(&#39;order form&#39;)</text>
</g>
<!-- state&#45;2&#45;&gt;end -->
<g id="edge8" class="edge">
<title>state&#45;2&#45;&gt;end</title>
<path fill="none" stroke="black" d="M399.33,-72.81C399.33,-65.23 399.33,-56.1 399.33,-47.54"/>
<polygon fill="black" stroke="black" points="402.83,-47.54 399.33,-37.54 395.83,-47.54 402.83,-47.54"/>
</g>
</g>
</svg>