<?xml version="1.0" encoding="UTF-8" standalone="no"?>
<!DOCTYPE svg PUBLIC "-//W3C//DTD SVG 1.1//EN"
 "http://www.w3.org/Graphics/SVG/1.1/DTD/svg11.dtd">
<!-- Generated by graphviz version 12.2.1 (20241206.2353)
 -->
<!-- Pages: 1 -->
<svg width="418pt" height="564pt"
 viewBox="0.00 0.00 418.25 564.00" xmlns="http://www.w3.org/2000/svg" xmlns:xlink="http://www.w3.org/1999/xlink">
<g id="graph0" class="graph" transform="scale(1 1) rotate(0) translate(4 560)">
<polygon fill="white" stroke="none" points="-4,4 -4,-560 414.25,-560 414.25,4 -4,4"/>
<!-- 1 -->
<g id="node1" class="node">
<title>1</title>
<ellipse fill="none" stroke="black" cx="98.75" cy="-534" rx="79.82" ry="18"/>
<ellipse fill="none" stroke="black" cx="98.75" cy="-534" rx="83.82" ry="22"/>
<text text-anchor="middle" x="98.75" y="-527.83" font-family="Times,serif" font-size="14.00">1: enter: factorial(n)</text>
</g>
<!-- 3 -->
<g id="node7" class="node">
<title>3</title>
<polygon fill="none" stroke="black" points="98.75,-476 31.06,-458 98.75,-440 166.44,-458 98.75,-476"/>
<text text-anchor="middle" x="98.75" y="-451.82" font-family="Times,serif" font-size="14.00">2: if: n &lt; 0</text>
</g>
<!-- 1&#45;&gt;3 -->
<g id="edge5" class="edge">
<title>1&#45;&gt;3</title>
<path fill="none" stroke="green" d="M98.75,-511.6C98.75,-504.11 98.75,-495.59 98.75,-487.61"/>
<polygon fill="green" stroke="green" points="102.25,-487.65 98.75,-477.65 95.25,-487.65 102.25,-487.65"/>
</g>
<!-- 2 -->
<g id="node2" class="node">
<title>2</title>
<ellipse fill="none" stroke="black" cx="142.75" cy="-22" rx="75.53" ry="18"/>
<ellipse fill="none" stroke="black" cx="142.75" cy="-22" rx="79.53" ry="22"/>
<text text-anchor="middle" x="142.75" y="-15.82" font-family="Times,serif" font-size="14.00">1: exit: factorial(n)</text>
</g>
<!-- 4 -->
<g id="node3" class="node">
<title>4</title>
<polygon fill="none" stroke="black" points="95.5,-188 0,-188 0,-152 95.5,-152 95.5,-188"/>
<text text-anchor="middle" x="47.75" y="-163.82" font-family="Times,serif" font-size="14.00">3: return None</text>
</g>
<!-- 4&#45;&gt;2 -->
<g id="edge1" class="edge">
<title>4&#45;&gt;2</title>
<path fill="none" stroke="green" d="M59.02,-151.68C74.74,-127.52 103.5,-83.33 122.86,-53.56"/>
<polygon fill="green" stroke="green" points="125.7,-55.63 128.22,-45.34 119.83,-51.81 125.7,-55.63"/>
</g>
<!-- 6 -->
<g id="node4" class="node">
<title>6</title>
<polygon fill="none" stroke="black" points="160.25,-332 87.25,-332 87.25,-296 160.25,-296 160.25,-332"/>
<text text-anchor="middle" x="123.75" y="-307.82" font-family="Times,serif" font-size="14.00">6: return 1</text>
</g>
<!-- 6&#45;&gt;2 -->
<g id="edge2" class="edge">
<title>6&#45;&gt;2</title>
<path fill="none" stroke="red" d="M124.88,-295.73C127.97,-248.63 136.57,-117.38 140.6,-55.75"/>
<polygon fill="red" stroke="red" points="144.09,-56.12 141.25,-45.91 137.1,-55.66 144.09,-56.12"/>
</g>
<!-- 8 -->
<g id="node5" class="node">
<title>8</title>
<polygon fill="none" stroke="black" points="230.25,-260 157.25,-260 157.25,-224 230.25,-224 230.25,-260"/>
<text text-anchor="middle" x="193.75" y="-235.82" font-family="Times,serif" font-size="14.00">9: return 1</text>
</g>
<!-- 8&#45;&gt;2 -->
<g id="edge3" class="edge">
<title>8&#45;&gt;2</title>
<path fill="none" stroke="red" d="M189.66,-223.53C181.12,-187.02 161.27,-102.15 150.32,-55.37"/>
<polygon fill="red" stroke="red" points="153.78,-54.77 148.09,-45.83 146.96,-56.36 153.78,-54.77"/>
</g>
<!-- 13 -->
<g id="node6" class="node">
<title>13</title>
<polygon fill="none" stroke="black" points="269.62,-116 189.88,-116 189.88,-80 269.62,-80 269.62,-116"/>
<text text-anchor="middle" x="229.75" y="-91.83" font-family="Times,serif" font-size="14.00">16: return v</text>
</g>
<!-- 13&#45;&gt;2 -->
<g id="edge4" class="edge">
<title>13&#45;&gt;2</title>
<path fill="none" stroke="green" d="M209.57,-79.84C199.33,-71.13 186.64,-60.33 175.08,-50.5"/>
<polygon fill="green" stroke="green" points="177.56,-48.01 167.68,-44.2 173.03,-53.35 177.56,-48.01"/>
</g>
<!-- 3&#45;&gt;4 -->
<g id="edge6" class="edge">
<title>3&#45;&gt;4</title>
<path fill="none" stroke="green" d="M87.53,-442.6C80.25,-432.41 71.31,-418.12 66.75,-404 43.96,-333.39 44.03,-244.81 45.93,-199.93"/>
<polygon fill="green" stroke="green" points="49.42,-200.15 46.42,-189.99 42.43,-199.81 49.42,-200.15"/>
</g>
<!-- 5 -->
<g id="node8" class="node">
<title>5</title>
<polygon fill="none" stroke="black" points="150.75,-404 75.64,-386 150.75,-368 225.86,-386 150.75,-404"/>
<text text-anchor="middle" x="150.75" y="-379.82" font-family="Times,serif" font-size="14.00">5: if: n == 0</text>
</g>
<!-- 3&#45;&gt;5 -->
<g id="edge7" class="edge">
<title>3&#45;&gt;5</title>
<path fill="none" stroke="green" d="M109.52,-442.5C116.36,-433.3 125.36,-421.18 133.2,-410.62"/>
<polygon fill="green" stroke="green" points="135.93,-412.82 139.09,-402.7 130.31,-408.64 135.93,-412.82"/>
</g>
<!-- 5&#45;&gt;6 -->
<g id="edge8" class="edge">
<title>5&#45;&gt;6</title>
<path fill="none" stroke="red" d="M144.62,-369.12C141.65,-361.4 137.98,-351.9 134.56,-343.02"/>
<polygon fill="red" stroke="red" points="137.83,-341.77 130.96,-333.7 131.3,-344.29 137.83,-341.77"/>
</g>
<!-- 7 -->
<g id="node9" class="node">
<title>7</title>
<polygon fill="none" stroke="black" points="253.75,-332 178.64,-314 253.75,-296 328.86,-314 253.75,-332"/>
<text text-anchor="middle" x="253.75" y="-307.82" font-family="Times,serif" font-size="14.00">8: if: n == 1</text>
</g>
<!-- 5&#45;&gt;7 -->
<g id="edge9" class="edge">
<title>5&#45;&gt;7</title>
<path fill="none" stroke="green" d="M169.64,-372.16C185.32,-361.5 207.85,-346.19 225.65,-334.1"/>
<polygon fill="green" stroke="green" points="227.42,-337.12 233.73,-328.61 223.49,-331.33 227.42,-337.12"/>
</g>
<!-- 7&#45;&gt;8 -->
<g id="edge10" class="edge">
<title>7&#45;&gt;8</title>
<path fill="none" stroke="red" d="M241.32,-298.5C234.06,-290.03 224.7,-279.1 216.19,-269.18"/>
<polygon fill="red" stroke="red" points="218.86,-266.92 209.7,-261.61 213.55,-271.48 218.86,-266.92"/>
</g>
<!-- 9 -->
<g id="node10" class="node">
<title>9</title>
<polygon fill="none" stroke="black" points="316.88,-260 250.62,-260 250.62,-224 316.88,-224 316.88,-260"/>
<text text-anchor="middle" x="283.75" y="-235.82" font-family="Times,serif" font-size="14.00">11: v = 1</text>
</g>
<!-- 7&#45;&gt;9 -->
<g id="edge11" class="edge">
<title>7&#45;&gt;9</title>
<path fill="none" stroke="green" d="M260.41,-297.46C263.75,-289.68 267.89,-280 271.76,-270.98"/>
<polygon fill="green" stroke="green" points="274.95,-272.42 275.67,-261.85 268.51,-269.66 274.95,-272.42"/>
</g>
<!-- 10 -->
<g id="node11" class="node">
<title>10</title>
<polygon fill="none" stroke="black" points="308.75,-188 211.38,-170 308.75,-152 406.12,-170 308.75,-188"/>
<text text-anchor="middle" x="308.75" y="-163.82" font-family="Times,serif" font-size="14.00">12: while: n != 0</text>
</g>
<!-- 9&#45;&gt;10 -->
<g id="edge12" class="edge">
<title>9&#45;&gt;10</title>
<path fill="none" stroke="green" d="M289.93,-223.7C292.7,-215.93 296.04,-206.58 299.13,-197.93"/>
<polygon fill="green" stroke="green" points="302.41,-199.16 302.48,-188.57 295.82,-196.81 302.41,-199.16"/>
</g>
<!-- 10&#45;&gt;13 -->
<g id="edge16" class="edge">
<title>10&#45;&gt;13</title>
<path fill="none" stroke="green" d="M292.76,-154.83C282.78,-145.98 269.63,-134.34 257.94,-123.98"/>
<polygon fill="green" stroke="green" points="260.29,-121.38 250.48,-117.37 255.65,-126.62 260.29,-121.38"/>
</g>
<!-- 11 -->
<g id="node13" class="node">
<title>11</title>
<polygon fill="none" stroke="black" points="375.38,-116 288.12,-116 288.12,-80 375.38,-80 375.38,-116"/>
<text text-anchor="middle" x="331.75" y="-91.83" font-family="Times,serif" font-size="14.00">13: v = v * n</text>
</g>
<!-- 10&#45;&gt;11 -->
<g id="edge14" class="edge">
<title>10&#45;&gt;11</title>
<path fill="none" stroke="green" d="M314.08,-152.76C316.62,-145.04 319.73,-135.59 322.63,-126.77"/>
<polygon fill="green" stroke="green" points="325.85,-128.15 325.65,-117.56 319.2,-125.97 325.85,-128.15"/>
</g>
<!-- 12 -->
<g id="node12" class="node">
<title>12</title>
<polygon fill="none" stroke="black" points="410.25,-40 325.25,-40 325.25,-4 410.25,-4 410.25,-40"/>
<text text-anchor="middle" x="367.75" y="-15.82" font-family="Times,serif" font-size="14.00">14: n = n &#45; 1</text>
</g>
<!-- 12&#45;&gt;10 -->
<g id="edge13" class="edge">
<title>12&#45;&gt;10</title>
<path fill="none" stroke="green" d="M377.25,-40.44C386.46,-59.91 397.35,-91.84 384.75,-116 376.77,-131.3 362.14,-143.08 347.83,-151.6"/>
<polygon fill="green" stroke="green" points="346.45,-148.37 339.38,-156.26 349.83,-154.5 346.45,-148.37"/>
</g>
<!-- 11&#45;&gt;12 -->
<g id="edge15" class="edge">
<title>11&#45;&gt;12</title>
<path fill="none" stroke="green" d="M340.1,-79.84C344.34,-71.12 349.6,-60.32 354.38,-50.48"/>
<polygon fill="green" stroke="green" points="357.43,-52.21 358.66,-41.69 351.14,-49.15 357.43,-52.21"/>
</g>
</g>
</svg>