<svg xmlns="http://www.w3.org/2000/svg" xmlns:xlink="http://www.w3.org/1999/xlink" width="1791pt" height="476pt" viewBox="0.00 0.00 1791.38 476.00">
<g id="graph0" class="graph" transform="scale(1 1) rotate(0) translate(4 472)">
<polygon fill="white" stroke="none" points="-4,4 -4,-472 1787.38,-472 1787.38,4 -4,4"/>
<!-- 0 -->
<g id="node1" class="node">
<title>0</title>
<text text-anchor="start" x="115.88" y="-445.95" font-family="Courier,monospace" font-weight="bold" font-size="14.00" fill="#004080">FunctionDef</text>
</g>
<!-- 1 -->
<g id="node2" class="node">
<title>1</title>
<text text-anchor="middle" x="49.25" y="-372.95" font-family="Courier,monospace" font-size="14.00" fill="#008040">&quot;triangle&quot;</text>
</g>
<!-- 0&#45;&#45;1 -->
<g id="edge1" class="edge">
<title>0--1</title>
<path fill="none" stroke="black" d="M162.25,-431C162.25,-431 118.93,-411.07 85.94,-395.88"/>
</g>
<!-- 2 -->
<g id="node3" class="node">
<title>2</title>
<text text-anchor="start" x="124.12" y="-373.95" font-family="Courier,monospace" font-weight="bold" font-size="14.00" fill="#004080">arguments</text>
</g>
<!-- 0&#45;&#45;2 -->
<g id="edge2" class="edge">
<title>0--2</title>
<path fill="none" stroke="black" d="M162.25,-431C162.25,-431 161.86,-410.94 161.57,-395.74"/>
</g>
<!-- 9 -->
<g id="node10" class="node">
<title>9</title>
<text text-anchor="start" x="495" y="-373.95" font-family="Courier,monospace" font-weight="bold" font-size="14.00" fill="#004080">If</text>
</g>
<!-- 0&#45;&#45;9 -->
<g id="edge9" class="edge">
<title>0--9</title>
<path fill="none" stroke="black" d="M162.25,-431C162.25,-431 396.1,-395.34 476.49,-383.08"/>
</g>
<!-- 3 -->
<g id="node4" class="node">
<title>3</title>
<text text-anchor="start" x="40.88" y="-301.95" font-family="Courier,monospace" font-weight="bold" font-size="14.00" fill="#004080">arg</text>
</g>
<!-- 2&#45;&#45;3 -->
<g id="edge3" class="edge">
<title>2--3</title>
<path fill="none" stroke="black" d="M155.25,-359C155.25,-359 110.27,-336.07 80.05,-320.66"/>
</g>
<!-- 5 -->
<g id="node6" class="node">
<title>5</title>
<text text-anchor="start" x="112.88" y="-301.95" font-family="Courier,monospace" font-weight="bold" font-size="14.00" fill="#004080">arg</text>
</g>
<!-- 2&#45;&#45;5 -->
<g id="edge5" class="edge">
<title>2--5</title>
<path fill="none" stroke="black" d="M155.25,-359C155.25,-359 143.68,-338.94 134.91,-323.74"/>
</g>
<!-- 7 -->
<g id="node8" class="node">
<title>7</title>
<text text-anchor="start" x="184.88" y="-301.95" font-family="Courier,monospace" font-weight="bold" font-size="14.00" fill="#004080">arg</text>
</g>
<!-- 2&#45;&#45;7 -->
<g id="edge7" class="edge">
<title>2--7</title>
<path fill="none" stroke="black" d="M155.25,-359C155.25,-359 171.45,-338.94 183.73,-323.74"/>
</g>
<!-- 4 -->
<g id="node5" class="node">
<title>4</title>
<text text-anchor="middle" x="53.25" y="-228.95" font-family="Courier,monospace" font-size="14.00" fill="#008040">&quot;a&quot;</text>
</g>
<!-- 3&#45;&#45;4 -->
<g id="edge4" class="edge">
<title>3--4</title>
<path fill="none" stroke="black" d="M53.25,-288.05C53.25,-277.05 53.25,-262.76 53.25,-251.79"/>
</g>
<!-- 6 -->
<g id="node7" class="node">
<title>6</title>
<text text-anchor="middle" x="125.25" y="-228.95" font-family="Courier,monospace" font-size="14.00" fill="#008040">&quot;b&quot;</text>
</g>
<!-- 5&#45;&#45;6 -->
<g id="edge6" class="edge">
<title>5--6</title>
<path fill="none" stroke="black" d="M125.25,-288.05C125.25,-277.05 125.25,-262.76 125.25,-251.79"/>
</g>
<!-- 8 -->
<g id="node9" class="node">
<title>8</title>
<text text-anchor="middle" x="197.25" y="-228.95" font-family="Courier,monospace" font-size="14.00" fill="#008040">&quot;c&quot;</text>
</g>
<!-- 7&#45;&#45;8 -->
<g id="edge8" class="edge">
<title>7--8</title>
<path fill="none" stroke="black" d="M197.25,-288.05C197.25,-277.05 197.25,-262.76 197.25,-251.79"/>
</g>
<!-- 10 -->
<g id="node11" class="node">
<title>10</title>
<text text-anchor="start" x="348.38" y="-301.95" font-family="Courier,monospace" font-weight="bold" font-size="14.00" fill="#004080">Compare</text>
</g>
<!-- 9&#45;&#45;10 -->
<g id="edge10" class="edge">
<title>9--10</title>
<path fill="none" stroke="black" d="M521.25,-359C521.25,-359 456.62,-335.66 413.96,-320.26"/>
</g>
<!-- 18 -->
<g id="node19" class="node">
<title>18</title>
<text text-anchor="start" x="656" y="-301.95" font-family="Courier,monospace" font-weight="bold" font-size="14.00" fill="#004080">If</text>
</g>
<!-- 9&#45;&#45;18 -->
<g id="edge18" class="edge">
<title>9--18</title>
<path fill="none" stroke="black" d="M521.25,-359C521.25,-359 595.93,-331.84 637.35,-316.78"/>
</g>
<!-- 33 -->
<g id="node34" class="node">
<title>33</title>
<text text-anchor="start" x="1187" y="-301.95" font-family="Courier,monospace" font-weight="bold" font-size="14.00" fill="#004080">If</text>
</g>
<!-- 9&#45;&#45;33 -->
<g id="edge33" class="edge">
<title>9--33</title>
<path fill="none" stroke="black" d="M521.25,-359C521.25,-359 1043.06,-318.74 1168.41,-309.07"/>
</g>
<!-- 11 -->
<g id="node12" class="node">
<title>11</title>
<text text-anchor="start" x="252.75" y="-229.95" font-family="Courier,monospace" font-weight="bold" font-size="14.00" fill="#004080">Name</text>
</g>
<!-- 10&#45;&#45;11 -->
<g id="edge11" class="edge">
<title>10--11</title>
<path fill="none" stroke="black" d="M371.25,-287C371.25,-287 326.27,-264.07 296.05,-248.66"/>
</g>
<!-- 14 -->
<g id="node15" class="node">
<title>14</title>
<text text-anchor="middle" x="341.25" y="-228.95" font-family="Courier,monospace" font-size="14.00" fill="#008040">Eq</text>
</g>
<!-- 10&#45;&#45;14 -->
<g id="edge14" class="edge">
<title>10--14</title>
<path fill="none" stroke="black" d="M371.25,-287C371.25,-287 359.68,-266.94 350.91,-251.74"/>
</g>
<!-- 15 -->
<g id="node16" class="node">
<title>15</title>
<text text-anchor="start" x="396.75" y="-229.95" font-family="Courier,monospace" font-weight="bold" font-size="14.00" fill="#004080">Name</text>
</g>
<!-- 10&#45;&#45;15 -->
<g id="edge15" class="edge">
<title>10--15</title>
<path fill="none" stroke="black" d="M371.25,-287C371.25,-287 387.45,-266.94 399.73,-251.74"/>
</g>
<!-- 12 -->
<g id="node13" class="node">
<title>12</title>
<text text-anchor="middle" x="197.25" y="-156.95" font-family="Courier,monospace" font-size="14.00" fill="#008040">&quot;a&quot;</text>
</g>
<!-- 11&#45;&#45;12 -->
<g id="edge12" class="edge">
<title>11--12</title>
<path fill="none" stroke="black" d="M262.25,-215C262.25,-215 237.18,-194.94 218.17,-179.74"/>
</g>
<!-- 13 -->
<g id="node14" class="node">
<title>13</title>
<text text-anchor="middle" x="269.25" y="-156.95" font-family="Courier,monospace" font-size="14.00" fill="#008040">Load</text>
</g>
<!-- 11&#45;&#45;13 -->
<g id="edge13" class="edge">
<title>11--13</title>
<path fill="none" stroke="black" d="M262.25,-215C262.25,-215 264.95,-194.94 267,-179.74"/>
</g>
<!-- 16 -->
<g id="node17" class="node">
<title>16</title>
<text text-anchor="middle" x="341.25" y="-156.95" font-family="Courier,monospace" font-size="14.00" fill="#008040">&quot;b&quot;</text>
</g>
<!-- 15&#45;&#45;16 -->
<g id="edge16" class="edge">
<title>15--16</title>
<path fill="none" stroke="black" d="M406.25,-215C406.25,-215 381.18,-194.94 362.17,-179.74"/>
</g>
<!-- 17 -->
<g id="node18" class="node">
<title>17</title>
<text text-anchor="middle" x="413.25" y="-156.95" font-family="Courier,monospace" font-size="14.00" fill="#008040">Load</text>
</g>
<!-- 15&#45;&#45;17 -->
<g id="edge17" class="edge">
<title>15--17</title>
<path fill="none" stroke="black" d="M406.25,-215C406.25,-215 408.95,-194.94 411,-179.74"/>
</g>
<!-- 19 -->
<g id="node20" class="node">
<title>19</title>
<text text-anchor="start" x="564.38" y="-229.95" font-family="Courier,monospace" font-weight="bold" font-size="14.00" fill="#004080">Compare</text>
</g>
<!-- 18&#45;&#45;19 -->
<g id="edge19" class="edge">
<title>18--19</title>
<path fill="none" stroke="black" d="M670.25,-287C670.25,-287 640.55,-266.94 618.04,-251.74"/>
</g>
<!-- 27 -->
<g id="node28" class="node">
<title>27</title>
<text text-anchor="start" x="674.5" y="-229.95" font-family="Courier,monospace" font-weight="bold" font-size="14.00" fill="#004080">Return</text>
</g>
<!-- 18&#45;&#45;27 -->
<g id="edge27" class="edge">
<title>18--27</title>
<path fill="none" stroke="black" d="M670.25,-287C670.25,-287 681.44,-266.94 689.91,-251.74"/>
</g>
<!-- 30 -->
<g id="node31" class="node">
<title>30</title>
<text text-anchor="start" x="799.5" y="-229.95" font-family="Courier,monospace" font-weight="bold" font-size="14.00" fill="#004080">Return</text>
</g>
<!-- 18&#45;&#45;30 -->
<g id="edge30" class="edge">
<title>18--30</title>
<path fill="none" stroke="black" d="M670.25,-287C670.25,-287 746.39,-261.29 791.59,-246.03"/>
</g>
<!-- 20 -->
<g id="node21" class="node">
<title>20</title>
<text text-anchor="start" x="468.75" y="-157.95" font-family="Courier,monospace" font-weight="bold" font-size="14.00" fill="#004080">Name</text>
</g>
<!-- 19&#45;&#45;20 -->
<g id="edge20" class="edge">
<title>19--20</title>
<path fill="none" stroke="black" d="M587.25,-215C587.25,-215 542.27,-192.07 512.05,-176.66"/>
</g>
<!-- 23 -->
<g id="node24" class="node">
<title>23</title>
<text text-anchor="middle" x="557.25" y="-156.95" font-family="Courier,monospace" font-size="14.00" fill="#008040">Eq</text>
</g>
<!-- 19&#45;&#45;23 -->
<g id="edge23" class="edge">
<title>19--23</title>
<path fill="none" stroke="black" d="M587.25,-215C587.25,-215 575.68,-194.94 566.91,-179.74"/>
</g>
<!-- 24 -->
<g id="node25" class="node">
<title>24</title>
<text text-anchor="start" x="612.75" y="-157.95" font-family="Courier,monospace" font-weight="bold" font-size="14.00" fill="#004080">Name</text>
</g>
<!-- 19&#45;&#45;24 -->
<g id="edge24" class="edge">
<title>19--24</title>
<path fill="none" stroke="black" d="M587.25,-215C587.25,-215 603.45,-194.94 615.73,-179.74"/>
</g>
<!-- 21 -->
<g id="node22" class="node">
<title>21</title>
<text text-anchor="middle" x="413.25" y="-84.95" font-family="Courier,monospace" font-size="14.00" fill="#008040">&quot;b&quot;</text>
</g>
<!-- 20&#45;&#45;21 -->
<g id="edge21" class="edge">
<title>20--21</title>
<path fill="none" stroke="black" d="M478.25,-143C478.25,-143 453.18,-122.94 434.17,-107.74"/>
</g>
<!-- 22 -->
<g id="node23" class="node">
<title>22</title>
<text text-anchor="middle" x="485.25" y="-84.95" font-family="Courier,monospace" font-size="14.00" fill="#008040">Load</text>
</g>
<!-- 20&#45;&#45;22 -->
<g id="edge22" class="edge">
<title>20--22</title>
<path fill="none" stroke="black" d="M478.25,-143C478.25,-143 480.95,-122.94 483,-107.74"/>
</g>
<!-- 25 -->
<g id="node26" class="node">
<title>25</title>
<text text-anchor="middle" x="557.25" y="-84.95" font-family="Courier,monospace" font-size="14.00" fill="#008040">&quot;c&quot;</text>
</g>
<!-- 24&#45;&#45;25 -->
<g id="edge25" class="edge">
<title>24--25</title>
<path fill="none" stroke="black" d="M622.25,-143C622.25,-143 597.18,-122.94 578.17,-107.74"/>
</g>
<!-- 26 -->
<g id="node27" class="node">
<title>26</title>
<text text-anchor="middle" x="629.25" y="-84.95" font-family="Courier,monospace" font-size="14.00" fill="#008040">Load</text>
</g>
<!-- 24&#45;&#45;26 -->
<g id="edge26" class="edge">
<title>24--26</title>
<path fill="none" stroke="black" d="M622.25,-143C622.25,-143 624.95,-122.94 627,-107.74"/>
</g>
<!-- 28 -->
<g id="node29" class="node">
<title>28</title>
<text text-anchor="start" x="693.25" y="-157.95" font-family="Courier,monospace" font-weight="bold" font-size="14.00" fill="#004080">Constant</text>
</g>
<!-- 27&#45;&#45;28 -->
<g id="edge28" class="edge">
<title>27--28</title>
<path fill="none" stroke="black" d="M705.79,-216.05C710.03,-205.05 715.54,-190.76 719.77,-179.79"/>
</g>
<!-- 29 -->
<g id="node30" class="node">
<title>29</title>
<text text-anchor="middle" x="736.25" y="-84.95" font-family="Courier,monospace" font-size="14.00" fill="#008040">&quot;Equilateral&quot;</text>
</g>
<!-- 28&#45;&#45;29 -->
<g id="edge29" class="edge">
<title>28--29</title>
<path fill="none" stroke="black" d="M728.67,-144.05C730.24,-133.05 732.28,-118.76 733.85,-107.79"/>
</g>
<!-- 31 -->
<g id="node32" class="node">
<title>31</title>
<text text-anchor="start" x="815.25" y="-157.95" font-family="Courier,monospace" font-weight="bold" font-size="14.00" fill="#004080">Constant</text>
</g>
<!-- 30&#45;&#45;31 -->
<g id="edge31" class="edge">
<title>30--31</title>
<path fill="none" stroke="black" d="M830.06,-216.05C833.83,-205.05 838.73,-190.76 842.49,-179.79"/>
</g>
<!-- 32 -->
<g id="node33" class="node">
<title>32</title>
<text text-anchor="middle" x="869.25" y="-84.95" font-family="Courier,monospace" font-size="14.00" fill="#008040">&quot;Isosceles&quot;</text>
</g>
<!-- 31&#45;&#45;32 -->
<g id="edge32" class="edge">
<title>31--32</title>
<path fill="none" stroke="black" d="M853.33,-144.05C856.64,-133.05 860.92,-118.76 864.21,-107.79"/>
</g>
<!-- 34 -->
<g id="node35" class="node">
<title>34</title>
<text text-anchor="start" x="1102.38" y="-229.95" font-family="Courier,monospace" font-weight="bold" font-size="14.00" fill="#004080">Compare</text>
</g>
<!-- 33&#45;&#45;34 -->
<g id="edge34" class="edge">
<title>33--34</title>
<path fill="none" stroke="black" d="M1203.25,-287C1203.25,-287 1175.48,-266.94 1154.43,-251.74"/>
</g>
<!-- 42 -->
<g id="node43" class="node">
<title>42</title>
<text text-anchor="start" x="1209.5" y="-229.95" font-family="Courier,monospace" font-weight="bold" font-size="14.00" fill="#004080">Return</text>
</g>
<!-- 33&#45;&#45;42 -->
<g id="edge42" class="edge">
<title>33--42</title>
<path fill="none" stroke="black" d="M1203.25,-287C1203.25,-287 1215.21,-266.94 1224.27,-251.74"/>
</g>
<!-- 45 -->
<g id="node46" class="node">
<title>45</title>
<text text-anchor="start" x="1521" y="-229.95" font-family="Courier,monospace" font-weight="bold" font-size="14.00" fill="#004080">If</text>
</g>
<!-- 33&#45;&#45;45 -->
<g id="edge45" class="edge">
<title>33--45</title>
<path fill="none" stroke="black" d="M1203.25,-287C1203.25,-287 1424.19,-251.76 1502.29,-239.3"/>
</g>
<!-- 35 -->
<g id="node36" class="node">
<title>35</title>
<text text-anchor="start" x="1022.75" y="-157.95" font-family="Courier,monospace" font-weight="bold" font-size="14.00" fill="#004080">Name</text>
</g>
<!-- 34&#45;&#45;35 -->
<g id="edge35" class="edge">
<title>34--35</title>
<path fill="none" stroke="black" d="M1128.25,-215C1128.25,-215 1092.17,-193.92 1065.95,-178.6"/>
</g>
<!-- 38 -->
<g id="node39" class="node">
<title>38</title>
<text text-anchor="middle" x="1111.25" y="-156.95" font-family="Courier,monospace" font-size="14.00" fill="#008040">Eq</text>
</g>
<!-- 34&#45;&#45;38 -->
<g id="edge38" class="edge">
<title>34--38</title>
<path fill="none" stroke="black" d="M1128.25,-215C1128.25,-215 1121.69,-194.94 1116.72,-179.74"/>
</g>
<!-- 39 -->
<g id="node40" class="node">
<title>39</title>
<text text-anchor="start" x="1166.75" y="-157.95" font-family="Courier,monospace" font-weight="bold" font-size="14.00" fill="#004080">Name</text>
</g>
<!-- 34&#45;&#45;39 -->
<g id="edge39" class="edge">
<title>34--39</title>
<path fill="none" stroke="black" d="M1128.25,-215C1128.25,-215 1149.47,-194.94 1165.54,-179.74"/>
</g>
<!-- 36 -->
<g id="node37" class="node">
<title>36</title>
<text text-anchor="middle" x="967.25" y="-84.95" font-family="Courier,monospace" font-size="14.00" fill="#008040">&quot;b&quot;</text>
</g>
<!-- 35&#45;&#45;36 -->
<g id="edge36" class="edge">
<title>35--36</title>
<path fill="none" stroke="black" d="M1032.25,-143C1032.25,-143 1007.18,-122.94 988.17,-107.74"/>
</g>
<!-- 37 -->
<g id="node38" class="node">
<title>37</title>
<text text-anchor="middle" x="1039.25" y="-84.95" font-family="Courier,monospace" font-size="14.00" fill="#008040">Load</text>
</g>
<!-- 35&#45;&#45;37 -->
<g id="edge37" class="edge">
<title>35--37</title>
<path fill="none" stroke="black" d="M1032.25,-143C1032.25,-143 1034.95,-122.94 1037,-107.74"/>
</g>
<!-- 40 -->
<g id="node41" class="node">
<title>40</title>
<text text-anchor="middle" x="1111.25" y="-84.95" font-family="Courier,monospace" font-size="14.00" fill="#008040">&quot;c&quot;</text>
</g>
<!-- 39&#45;&#45;40 -->
<g id="edge40" class="edge">
<title>39--40</title>
<path fill="none" stroke="black" d="M1176.25,-143C1176.25,-143 1151.18,-122.94 1132.17,-107.74"/>
</g>
<!-- 41 -->
<g id="node42" class="node">
<title>41</title>
<text text-anchor="middle" x="1183.25" y="-84.95" font-family="Courier,monospace" font-size="14.00" fill="#008040">Load</text>
</g>
<!-- 39&#45;&#45;41 -->
<g id="edge41" class="edge">
<title>39--41</title>
<path fill="none" stroke="black" d="M1176.25,-143C1176.25,-143 1178.95,-122.94 1181,-107.74"/>
</g>
<!-- 43 -->
<g id="node44" class="node">
<title>43</title>
<text text-anchor="start" x="1242.25" y="-157.95" font-family="Courier,monospace" font-weight="bold" font-size="14.00" fill="#004080">Constant</text>
</g>
<!-- 42&#45;&#45;43 -->
<g id="edge43" class="edge">
<title>42--43</title>
<path fill="none" stroke="black" d="M1244.17,-216.05C1250.62,-205.05 1258.99,-190.76 1265.42,-179.79"/>
</g>
<!-- 44 -->
<g id="node45" class="node">
<title>44</title>
<text text-anchor="middle" x="1281.25" y="-84.95" font-family="Courier,monospace" font-size="14.00" fill="#008040">&quot;Isosceles&quot;</text>
</g>
<!-- 43&#45;&#45;44 -->
<g id="edge44" class="edge">
<title>43--44</title>
<path fill="none" stroke="black" d="M1276.7,-144.05C1277.65,-133.05 1278.87,-118.76 1279.81,-107.79"/>
</g>
<!-- 46 -->
<g id="node47" class="node">
<title>46</title>
<text text-anchor="start" x="1436.38" y="-157.95" font-family="Courier,monospace" font-weight="bold" font-size="14.00" fill="#004080">Compare</text>
</g>
<!-- 45&#45;&#45;46 -->
<g id="edge46" class="edge">
<title>45--46</title>
<path fill="none" stroke="black" d="M1538.25,-215C1538.25,-215 1510.09,-194.94 1488.75,-179.74"/>
</g>
<!-- 54 -->
<g id="node55" class="node">
<title>54</title>
<text text-anchor="start" x="1569.5" y="-157.95" font-family="Courier,monospace" font-weight="bold" font-size="14.00" fill="#004080">Return</text>
</g>
<!-- 45&#45;&#45;54 -->
<g id="edge54" class="edge">
<title>45--54</title>
<path fill="none" stroke="black" d="M1538.25,-215C1538.25,-215 1559.85,-194.94 1576.22,-179.74"/>
</g>
<!-- 57 -->
<g id="node58" class="node">
<title>57</title>
<text text-anchor="start" x="1690.5" y="-157.95" font-family="Courier,monospace" font-weight="bold" font-size="14.00" fill="#004080">Return</text>
</g>
<!-- 45&#45;&#45;57 -->
<g id="edge57" class="edge">
<title>45--57</title>
<path fill="none" stroke="black" d="M1538.25,-215C1538.25,-215 1631.69,-187.55 1682.79,-172.54"/>
</g>
<!-- 47 -->
<g id="node48" class="node">
<title>47</title>
<text text-anchor="start" x="1362.75" y="-85.95" font-family="Courier,monospace" font-weight="bold" font-size="14.00" fill="#004080">Name</text>
</g>
<!-- 46&#45;&#45;47 -->
<g id="edge47" class="edge">
<title>46--47</title>
<path fill="none" stroke="black" d="M1463.25,-143C1463.25,-143 1430.44,-122.69 1405.83,-107.45"/>
</g>
<!-- 50 -->
<g id="node51" class="node">
<title>50</title>
<text text-anchor="middle" x="1451.25" y="-84.95" font-family="Courier,monospace" font-size="14.00" fill="#008040">Eq</text>
</g>
<!-- 46&#45;&#45;50 -->
<g id="edge50" class="edge">
<title>46--50</title>
<path fill="none" stroke="black" d="M1463.25,-143C1463.25,-143 1458.62,-122.94 1455.11,-107.74"/>
</g>
<!-- 51 -->
<g id="node52" class="node">
<title>51</title>
<text text-anchor="start" x="1506.75" y="-85.95" font-family="Courier,monospace" font-weight="bold" font-size="14.00" fill="#004080">Name</text>
</g>
<!-- 46&#45;&#45;51 -->
<g id="edge51" class="edge">
<title>46--51</title>
<path fill="none" stroke="black" d="M1463.25,-143C1463.25,-143 1486.4,-122.94 1503.94,-107.74"/>
</g>
<!-- 48 -->
<g id="node49" class="node">
<title>48</title>
<text text-anchor="middle" x="1307.25" y="-12.95" font-family="Courier,monospace" font-size="14.00" fill="#008040">&quot;a&quot;</text>
</g>
<!-- 47&#45;&#45;48 -->
<g id="edge48" class="edge">
<title>47--48</title>
<path fill="none" stroke="black" d="M1372.25,-71C1372.25,-71 1347.18,-50.94 1328.17,-35.74"/>
</g>
<!-- 49 -->
<g id="node50" class="node">
<title>49</title>
<text text-anchor="middle" x="1379.25" y="-12.95" font-family="Courier,monospace" font-size="14.00" fill="#008040">Load</text>
</g>
<!-- 47&#45;&#45;49 -->
<g id="edge49" class="edge">
<title>47--49</title>
<path fill="none" stroke="black" d="M1372.25,-71C1372.25,-71 1374.95,-50.94 1377,-35.74"/>
</g>
<!-- 52 -->
<g id="node53" class="node">
<title>52</title>
<text text-anchor="middle" x="1451.25" y="-12.95" font-family="Courier,monospace" font-size="14.00" fill="#008040">&quot;c&quot;</text>
</g>
<!-- 51&#45;&#45;52 -->
<g id="edge52" class="edge">
<title>51--52</title>
<path fill="none" stroke="black" d="M1516.25,-71C1516.25,-71 1491.18,-50.94 1472.17,-35.74"/>
</g>
<!-- 53 -->
<g id="node54" class="node">
<title>53</title>
<text text-anchor="middle" x="1523.25" y="-12.95" font-family="Courier,monospace" font-size="14.00" fill="#008040">Load</text>
</g>
<!-- 51&#45;&#45;53 -->
<g id="edge53" class="edge">
<title>51--53</title>
<path fill="none" stroke="black" d="M1516.25,-71C1516.25,-71 1518.95,-50.94 1521,-35.74"/>
</g>
<!-- 55 -->
<g id="node56" class="node">
<title>55</title>
<text text-anchor="start" x="1582.25" y="-85.95" font-family="Courier,monospace" font-weight="bold" font-size="14.00" fill="#004080">Constant</text>
</g>
<!-- 54&#45;&#45;55 -->
<g id="edge55" class="edge">
<title>54--55</title>
<path fill="none" stroke="black" d="M1599.33,-144.05C1602.64,-133.05 1606.92,-118.76 1610.21,-107.79"/>
</g>
<!-- 56 -->
<g id="node57" class="node">
<title>56</title>
<text text-anchor="middle" x="1621.25" y="-12.95" font-family="Courier,monospace" font-size="14.00" fill="#008040">&quot;Isosceles&quot;</text>
</g>
<!-- 55&#45;&#45;56 -->
<g id="edge56" class="edge">
<title>55--56</title>
<path fill="none" stroke="black" d="M1616.7,-72.05C1617.65,-61.05 1618.87,-46.76 1619.81,-35.79"/>
</g>
<!-- 58 -->
<g id="node59" class="node">
<title>58</title>
<text text-anchor="start" x="1697.25" y="-85.95" font-family="Courier,monospace" font-weight="bold" font-size="14.00" fill="#004080">Constant</text>
</g>
<!-- 57&#45;&#45;58 -->
<g id="edge58" class="edge">
<title>57--58</title>
<path fill="none" stroke="black" d="M1718.88,-144.05C1721.24,-133.05 1724.3,-118.76 1726.65,-107.79"/>
</g>
<!-- 59 -->
<g id="node60" class="node">
<title>59</title>
<text text-anchor="middle" x="1738.25" y="-12.95" font-family="Courier,monospace" font-size="14.00" fill="#008040">&quot;Scalene&quot;</text>
</g>
<!-- 58&#45;&#45;59 -->
<g id="edge59" class="edge">
<title>58--59</title>
<path fill="none" stroke="black" d="M1732.19,-72.05C1733.44,-61.05 1735.08,-46.76 1736.33,-35.79"/>
</g>
</g>
</svg>