<?xml version="1.0" encoding="UTF-8" standalone="no"?>
<!DOCTYPE svg PUBLIC "-//W3C//DTD SVG 1.1//EN"
 "http://www.w3.org/Graphics/SVG/1.1/DTD/svg11.dtd">
<!-- Generated by graphviz version 12.2.1 (20241206.2353)
 -->
<!-- Pages: 1 -->
<svg width="450pt" height="324pt"
 viewBox="0.00 0.00 449.50 323.75" xmlns="http://www.w3.org/2000/svg" xmlns:xlink="http://www.w3.org/1999/xlink">
<g id="graph0" class="graph" transform="scale(1 1) rotate(0) translate(4 319.75)">
<polygon fill="white" stroke="none" points="-4,4 -4,-319.75 445.5,-319.75 445.5,4 -4,4"/>
<!-- 0 -->
<g id="node1" class="node">
<title>0</title>
<text text-anchor="middle" x="201.25" y="-302.45" font-family="Times,serif" font-size="14.00">&lt;start&gt;</text>
</g>
<!-- 1 -->
<g id="node2" class="node">
<title>1</title>
<text text-anchor="middle" x="201.25" y="-252.2" font-family="Times,serif" font-size="14.00">&lt;xml&#45;tree&gt;</text>
</g>
<!-- 0&#45;&gt;1 -->
<g id="edge1" class="edge">
<title>0&#45;&gt;1</title>
<path fill="none" stroke="black" d="M201.25,-301.71C201.25,-295.49 201.25,-285.4 201.25,-276.64"/>
<polygon fill="black" stroke="black" points="204.75,-276.85 201.25,-266.85 197.75,-276.85 204.75,-276.85"/>
</g>
<!-- 2 -->
<g id="node3" class="node">
<title>2</title>
<text text-anchor="middle" x="96.25" y="-201.95" font-family="Times,serif" font-size="14.00">&lt;xml&#45;open&#45;tag&gt;</text>
</g>
<!-- 1&#45;&gt;2 -->
<g id="edge2" class="edge">
<title>1&#45;&gt;2</title>
<path fill="none" stroke="black" d="M187.95,-251.26C170.83,-243.4 140.79,-229.59 119.77,-219.93"/>
<polygon fill="black" stroke="black" points="121.36,-216.81 110.82,-215.82 118.44,-223.17 121.36,-216.81"/>
</g>
<!-- 7 -->
<g id="node8" class="node">
<title>7</title>
<text text-anchor="middle" x="201.25" y="-201.95" font-family="Times,serif" font-size="14.00">&lt;xml&#45;tree&gt;</text>
</g>
<!-- 1&#45;&gt;7 -->
<g id="edge7" class="edge">
<title>1&#45;&gt;7</title>
<path fill="none" stroke="black" d="M201.25,-251.46C201.25,-245.24 201.25,-235.15 201.25,-226.39"/>
<polygon fill="black" stroke="black" points="204.75,-226.6 201.25,-216.6 197.75,-226.6 204.75,-226.6"/>
</g>
<!-- 18 -->
<g id="node19" class="node">
<title>18</title>
<text text-anchor="middle" x="356.25" y="-201.95" font-family="Times,serif" font-size="14.00">&lt;xml&#45;close&#45;tag&gt;</text>
</g>
<!-- 1&#45;&gt;18 -->
<g id="edge18" class="edge">
<title>1&#45;&gt;18</title>
<path fill="none" stroke="black" d="M220.88,-251.26C247.43,-243 295.05,-228.18 326.14,-218.5"/>
<polygon fill="black" stroke="black" points="326.83,-221.95 335.33,-215.64 324.75,-215.27 326.83,-221.95"/>
</g>
<!-- 3 -->
<g id="node4" class="node">
<title>3</title>
<text text-anchor="middle" x="17.25" y="-151.7" font-family="Times,serif" font-size="14.00">&lt; (60)</text>
</g>
<!-- 2&#45;&gt;3 -->
<g id="edge3" class="edge">
<title>2&#45;&gt;3</title>
<path fill="none" stroke="black" d="M86.24,-201.01C73.9,-193.47 52.62,-180.48 36.95,-170.91"/>
<polygon fill="black" stroke="black" points="38.82,-167.95 28.47,-165.73 35.18,-173.92 38.82,-167.95"/>
</g>
<!-- 4 -->
<g id="node5" class="node">
<title>4</title>
<text text-anchor="middle" x="66.25" y="-151.7" font-family="Times,serif" font-size="14.00">&lt;id&gt;</text>
</g>
<!-- 2&#45;&gt;4 -->
<g id="edge4" class="edge">
<title>2&#45;&gt;4</title>
<path fill="none" stroke="black" d="M92.57,-201.21C88.43,-194.55 81.55,-183.48 75.85,-174.32"/>
<polygon fill="black" stroke="black" points="79.01,-172.77 70.76,-166.13 73.07,-176.47 79.01,-172.77"/>
</g>
<!-- 6 -->
<g id="node7" class="node">
<title>6</title>
<text text-anchor="middle" x="115.25" y="-151.7" font-family="Times,serif" font-size="14.00">&gt; (62)</text>
</g>
<!-- 2&#45;&gt;6 -->
<g id="edge6" class="edge">
<title>2&#45;&gt;6</title>
<path fill="none" stroke="black" d="M98.58,-201.21C101.09,-194.84 105.19,-184.43 108.69,-175.53"/>
<polygon fill="black" stroke="black" points="111.94,-176.84 112.35,-166.25 105.43,-174.27 111.94,-176.84"/>
</g>
<!-- 5 -->
<g id="node6" class="node">
<title>5</title>
<text text-anchor="middle" x="66.25" y="-101.45" font-family="Times,serif" font-size="14.00">html</text>
</g>
<!-- 4&#45;&gt;5 -->
<g id="edge5" class="edge">
<title>4&#45;&gt;5</title>
<path fill="none" stroke="black" d="M66.25,-150.96C66.25,-144.74 66.25,-134.65 66.25,-125.89"/>
<polygon fill="black" stroke="black" points="69.75,-126.1 66.25,-116.1 62.75,-126.1 69.75,-126.1"/>
</g>
<!-- 8 -->
<g id="node9" class="node">
<title>8</title>
<text text-anchor="middle" x="182.25" y="-151.7" font-family="Times,serif" font-size="14.00">&lt;xml&#45;tree&gt;</text>
</g>
<!-- 7&#45;&gt;8 -->
<g id="edge8" class="edge">
<title>7&#45;&gt;8</title>
<path fill="none" stroke="black" d="M198.92,-201.21C196.41,-194.84 192.31,-184.43 188.81,-175.53"/>
<polygon fill="black" stroke="black" points="192.07,-174.27 185.15,-166.25 185.56,-176.84 192.07,-174.27"/>
</g>
<!-- 11 -->
<g id="node12" class="node">
<title>11</title>
<text text-anchor="middle" x="263.25" y="-151.7" font-family="Times,serif" font-size="14.00">&lt;xml&#45;tree&gt;</text>
</g>
<!-- 7&#45;&gt;11 -->
<g id="edge11" class="edge">
<title>7&#45;&gt;11</title>
<path fill="none" stroke="black" d="M209.1,-201.01C218.56,-193.65 234.71,-181.09 246.92,-171.59"/>
<polygon fill="black" stroke="black" points="248.72,-174.62 254.46,-165.71 244.42,-169.09 248.72,-174.62"/>
</g>
<!-- 9 -->
<g id="node10" class="node">
<title>9</title>
<text text-anchor="middle" x="173.25" y="-101.45" font-family="Times,serif" font-size="14.00">&lt;text&gt;</text>
</g>
<!-- 8&#45;&gt;9 -->
<g id="edge9" class="edge">
<title>8&#45;&gt;9</title>
<path fill="none" stroke="black" d="M181.15,-150.96C179.99,-144.74 178.1,-134.65 176.47,-125.89"/>
<polygon fill="black" stroke="black" points="179.91,-125.27 174.64,-116.08 173.03,-126.55 179.91,-125.27"/>
</g>
<!-- 10 -->
<g id="node11" class="node">
<title>10</title>
<text text-anchor="middle" x="173.25" y="-51.2" font-family="Times,serif" font-size="14.00">Te</text>
</g>
<!-- 9&#45;&gt;10 -->
<g id="edge10" class="edge">
<title>9&#45;&gt;10</title>
<path fill="none" stroke="black" d="M173.25,-100.71C173.25,-94.49 173.25,-84.4 173.25,-75.64"/>
<polygon fill="black" stroke="black" points="176.75,-75.85 173.25,-65.85 169.75,-75.85 176.75,-75.85"/>
</g>
<!-- 12 -->
<g id="node13" class="node">
<title>12</title>
<text text-anchor="middle" x="241.25" y="-101.45" font-family="Times,serif" font-size="14.00">&lt;xml&#45;tree&gt;</text>
</g>
<!-- 11&#45;&gt;12 -->
<g id="edge12" class="edge">
<title>11&#45;&gt;12</title>
<path fill="none" stroke="black" d="M260.55,-150.96C257.62,-144.52 252.79,-133.94 248.7,-124.97"/>
<polygon fill="black" stroke="black" points="251.93,-123.61 244.6,-115.97 245.56,-126.52 251.93,-123.61"/>
</g>
<!-- 15 -->
<g id="node16" class="node">
<title>15</title>
<text text-anchor="middle" x="322.25" y="-101.45" font-family="Times,serif" font-size="14.00">&lt;xml&#45;tree&gt;</text>
</g>
<!-- 11&#45;&gt;15 -->
<g id="edge15" class="edge">
<title>11&#45;&gt;15</title>
<path fill="none" stroke="black" d="M270.48,-150.96C279.33,-143.72 294.56,-131.27 306.22,-121.73"/>
<polygon fill="black" stroke="black" points="308.26,-124.59 313.78,-115.55 303.83,-119.17 308.26,-124.59"/>
</g>
<!-- 13 -->
<g id="node14" class="node">
<title>13</title>
<text text-anchor="middle" x="241.25" y="-51.2" font-family="Times,serif" font-size="14.00">&lt;text&gt;</text>
</g>
<!-- 12&#45;&gt;13 -->
<g id="edge13" class="edge">
<title>12&#45;&gt;13</title>
<path fill="none" stroke="black" d="M241.25,-100.71C241.25,-94.49 241.25,-84.4 241.25,-75.64"/>
<polygon fill="black" stroke="black" points="244.75,-75.85 241.25,-65.85 237.75,-75.85 244.75,-75.85"/>
</g>
<!-- 14 -->
<g id="node15" class="node">
<title>14</title>
<text text-anchor="middle" x="241.25" y="-0.95" font-family="Times,serif" font-size="14.00">x (120)</text>
</g>
<!-- 13&#45;&gt;14 -->
<g id="edge14" class="edge">
<title>13&#45;&gt;14</title>
<path fill="none" stroke="black" d="M241.25,-50.46C241.25,-44.24 241.25,-34.15 241.25,-25.39"/>
<polygon fill="black" stroke="black" points="244.75,-25.6 241.25,-15.6 237.75,-25.6 244.75,-25.6"/>
</g>
<!-- 16 -->
<g id="node17" class="node">
<title>16</title>
<text text-anchor="middle" x="322.25" y="-51.2" font-family="Times,serif" font-size="14.00">&lt;text&gt;</text>
</g>
<!-- 15&#45;&gt;16 -->
<g id="edge16" class="edge">
<title>15&#45;&gt;16</title>
<path fill="none" stroke="black" d="M322.25,-100.71C322.25,-94.49 322.25,-84.4 322.25,-75.64"/>
<polygon fill="black" stroke="black" points="325.75,-75.85 322.25,-65.85 318.75,-75.85 325.75,-75.85"/>
</g>
<!-- 17 -->
<g id="node18" class="node">
<title>17</title>
<text text-anchor="middle" x="322.25" y="-0.95" font-family="Times,serif" font-size="14.00">t (116)</text>
</g>
<!-- 16&#45;&gt;17 -->
<g id="edge17" class="edge">
<title>16&#45;&gt;17</title>
<path fill="none" stroke="black" d="M322.25,-50.46C322.25,-44.24 322.25,-34.15 322.25,-25.39"/>
<polygon fill="black" stroke="black" points="325.75,-25.6 322.25,-15.6 318.75,-25.6 325.75,-25.6"/>
</g>
<!-- 19 -->
<g id="node20" class="node">
<title>19</title>
<text text-anchor="middle" x="337.25" y="-151.7" font-family="Times,serif" font-size="14.00">&lt;/</text>
</g>
<!-- 18&#45;&gt;19 -->
<g id="edge19" class="edge">
<title>18&#45;&gt;19</title>
<path fill="none" stroke="black" d="M353.92,-201.21C351.41,-194.84 347.31,-184.43 343.81,-175.53"/>
<polygon fill="black" stroke="black" points="347.07,-174.27 340.15,-166.25 340.56,-176.84 347.07,-174.27"/>
</g>
<!-- 20 -->
<g id="node21" class="node">
<title>20</title>
<text text-anchor="middle" x="375.25" y="-151.7" font-family="Times,serif" font-size="14.00">&lt;id&gt;</text>
</g>
<!-- 18&#45;&gt;20 -->
<g id="edge20" class="edge">
<title>18&#45;&gt;20</title>
<path fill="none" stroke="black" d="M358.58,-201.21C361.09,-194.84 365.19,-184.43 368.69,-175.53"/>
<polygon fill="black" stroke="black" points="371.94,-176.84 372.35,-166.25 365.43,-174.27 371.94,-176.84"/>
</g>
<!-- 22 -->
<g id="node23" class="node">
<title>22</title>
<text text-anchor="middle" x="424.25" y="-151.7" font-family="Times,serif" font-size="14.00">&gt; (62)</text>
</g>
<!-- 18&#45;&gt;22 -->
<g id="edge22" class="edge">
<title>18&#45;&gt;22</title>
<path fill="none" stroke="black" d="M364.86,-201.01C375.34,-193.58 393.3,-180.84 406.73,-171.31"/>
<polygon fill="black" stroke="black" points="408.56,-174.3 414.69,-165.66 404.51,-168.59 408.56,-174.3"/>
</g>
<!-- 21 -->
<g id="node22" class="node">
<title>21</title>
<text text-anchor="middle" x="384.25" y="-101.45" font-family="Times,serif" font-size="14.00">html</text>
</g>
<!-- 20&#45;&gt;21 -->
<g id="edge21" class="edge">
<title>20&#45;&gt;21</title>
<path fill="none" stroke="black" d="M376.35,-150.96C377.51,-144.74 379.4,-134.65 381.03,-125.89"/>
<polygon fill="black" stroke="black" points="384.47,-126.55 382.86,-116.08 377.59,-125.27 384.47,-126.55"/>
</g>
</g>
</svg>