<svg xmlns="http://www.w3.org/2000/svg" class="railroad-diagram" height="92" viewBox="0 0 313.5 92" width="313.5">
<g transform="translate(.5 .5)">
<style>/* <![CDATA[ */
    svg.railroad-diagram {
    }
    svg.railroad-diagram path {
        stroke-width:3;
        stroke:black;
        fill:white;
    }
    svg.railroad-diagram text {
        font:14px "Fira Mono", monospace;
        text-anchor:middle;
    }
    svg.railroad-diagram text.label{
        text-anchor:start;
    }
    svg.railroad-diagram text.comment{
        font:italic 12px "Fira Mono", monospace;
    }
    svg.railroad-diagram rect{
        stroke-width:2;
        stroke:black;
        fill:mistyrose;
    }

/* ]]> */
</style><g>
<path d="M20 51v20m10 -20v20m-10 -10h20"/></g><g>
<path d="M40 61h0.0"/><path d="M273.5 61h0.0"/><path d="M40.0 61a10 10 0 0 0 10 -10v-10a10 10 0 0 1 10 -10"/><g>
<path d="M60.0 31h65.5"/><path d="M188.0 31h65.5"/><g class="non-terminal">
<path d="M125.5 31h0.0"/><path d="M188.0 31h0.0"/><rect height="22" width="62.5" x="125.5" y="20"/><text x="156.75" y="35">assgn</text></g></g><path d="M253.5 31a10 10 0 0 1 10 10v10a10 10 0 0 0 10 10"/><path d="M40.0 61h20"/><g>
<path d="M60.0 61h0.0"/><path d="M253.5 61h0.0"/><g class="non-terminal">
<path d="M60.0 61h0.0"/><path d="M122.5 61h0.0"/><rect height="22" width="62.5" x="60.0" y="50"/><text x="91.25" y="65">assgn</text></g><path d="M122.5 61h10"/><path d="M132.5 61h10"/><g class="terminal">
<path d="M142.5 61h0.0"/><path d="M179.5 61h0.0"/><rect height="22" rx="10" ry="10" width="37.0" x="142.5" y="50"/><text x="161.0" y="65">; </text></g><path d="M179.5 61h10"/><path d="M189.5 61h10"/><g class="non-terminal">
<path d="M199.5 61h0.0"/><path d="M253.5 61h0.0"/><rect height="22" width="54.0" x="199.5" y="50"/><text x="226.5" y="65">stmt</text></g></g><path d="M253.5 61h20"/></g><path d="M 273.5 61 h 20 m -10 -10 v 20 m 10 -20 v 20"/></g></svg>