<?xml version="1.0" encoding="UTF-8" standalone="no"?>
<!DOCTYPE svg PUBLIC "-//W3C//DTD SVG 1.1//EN"
 "http://www.w3.org/Graphics/SVG/1.1/DTD/svg11.dtd">
<!-- Generated by graphviz version 12.2.1 (20241206.2353)
 -->
<!-- Pages: 1 -->
<svg width="224pt" height="374pt"
 viewBox="0.00 0.00 224.00 374.00" xmlns="http://www.w3.org/2000/svg" xmlns:xlink="http://www.w3.org/1999/xlink">
<g id="graph0" class="graph" transform="scale(1 1) rotate(0) translate(4 370)">
<polygon fill="white" stroke="none" points="-4,4 -4,-370 220,-370 220,4 -4,4"/>
<!-- 0 -->
<g id="node1" class="node">
<title>0</title>
<text text-anchor="middle" x="90" y="-352.7" font-family="Times,serif" font-size="14.00">&lt;start&gt;</text>
</g>
<!-- 1 -->
<g id="node2" class="node">
<title>1</title>
<text text-anchor="middle" x="90" y="-302.45" font-family="Times,serif" font-size="14.00">&lt;expr&gt;</text>
</g>
<!-- 0&#45;&gt;1 -->
<g id="edge1" class="edge">
<title>0&#45;&gt;1</title>
<path fill="none" stroke="black" d="M90,-351.96C90,-345.74 90,-335.65 90,-326.89"/>
<polygon fill="black" stroke="black" points="93.5,-327.1 90,-317.1 86.5,-327.1 93.5,-327.1"/>
</g>
<!-- 2 -->
<g id="node3" class="node">
<title>2</title>
<text text-anchor="middle" x="39" y="-252.2" font-family="Times,serif" font-size="14.00">&lt;expr&gt;</text>
</g>
<!-- 1&#45;&gt;2 -->
<g id="edge2" class="edge">
<title>1&#45;&gt;2</title>
<path fill="none" stroke="black" d="M83.75,-301.71C76.25,-294.62 63.46,-282.51 53.46,-273.06"/>
<polygon fill="black" stroke="black" points="56.07,-270.71 46.4,-266.38 51.26,-275.79 56.07,-270.71"/>
</g>
<!-- 8 -->
<g id="node9" class="node">
<title>8</title>
<text text-anchor="middle" x="90" y="-252.2" font-family="Times,serif" font-size="14.00"> + </text>
</g>
<!-- 1&#45;&gt;8 -->
<g id="edge8" class="edge">
<title>1&#45;&gt;8</title>
<path fill="none" stroke="black" d="M90,-301.71C90,-295.49 90,-285.4 90,-276.64"/>
<polygon fill="black" stroke="black" points="93.5,-276.85 90,-266.85 86.5,-276.85 93.5,-276.85"/>
</g>
<!-- 9 -->
<g id="node10" class="node">
<title>9</title>
<text text-anchor="middle" x="139" y="-252.2" font-family="Times,serif" font-size="14.00">&lt;term&gt;</text>
</g>
<!-- 1&#45;&gt;9 -->
<g id="edge9" class="edge">
<title>1&#45;&gt;9</title>
<path fill="none" stroke="black" d="M96.01,-301.71C103.14,-294.69 115.25,-282.76 124.81,-273.35"/>
<polygon fill="black" stroke="black" points="127.19,-275.91 131.86,-266.4 122.28,-270.92 127.19,-275.91"/>
</g>
<!-- 3 -->
<g id="node4" class="node">
<title>3</title>
<text text-anchor="middle" x="30" y="-201.95" font-family="Times,serif" font-size="14.00">&lt;term&gt;</text>
</g>
<!-- 2&#45;&gt;3 -->
<g id="edge3" class="edge">
<title>2&#45;&gt;3</title>
<path fill="none" stroke="black" d="M37.9,-251.46C36.74,-245.24 34.85,-235.15 33.22,-226.39"/>
<polygon fill="black" stroke="black" points="36.66,-225.77 31.39,-216.58 29.78,-227.05 36.66,-225.77"/>
</g>
<!-- 4 -->
<g id="node5" class="node">
<title>4</title>
<text text-anchor="middle" x="27" y="-151.7" font-family="Times,serif" font-size="14.00">&lt;factor&gt;</text>
</g>
<!-- 3&#45;&gt;4 -->
<g id="edge4" class="edge">
<title>3&#45;&gt;4</title>
<path fill="none" stroke="black" d="M29.63,-201.21C29.25,-194.99 28.62,-184.9 28.07,-176.14"/>
<polygon fill="black" stroke="black" points="31.58,-176.11 27.46,-166.35 24.59,-176.55 31.58,-176.11"/>
</g>
<!-- 5 -->
<g id="node6" class="node">
<title>5</title>
<text text-anchor="middle" x="27" y="-101.45" font-family="Times,serif" font-size="14.00">&lt;integer&gt;</text>
</g>
<!-- 4&#45;&gt;5 -->
<g id="edge5" class="edge">
<title>4&#45;&gt;5</title>
<path fill="none" stroke="black" d="M27,-150.96C27,-144.74 27,-134.65 27,-125.89"/>
<polygon fill="black" stroke="black" points="30.5,-126.1 27,-116.1 23.5,-126.1 30.5,-126.1"/>
</g>
<!-- 6 -->
<g id="node7" class="node">
<title>6</title>
<text text-anchor="middle" x="27" y="-51.2" font-family="Times,serif" font-size="14.00">&lt;digit&gt;</text>
</g>
<!-- 5&#45;&gt;6 -->
<g id="edge6" class="edge">
<title>5&#45;&gt;6</title>
<path fill="none" stroke="black" d="M27,-100.71C27,-94.49 27,-84.4 27,-75.64"/>
<polygon fill="black" stroke="black" points="30.5,-75.85 27,-65.85 23.5,-75.85 30.5,-75.85"/>
</g>
<!-- 7 -->
<g id="node8" class="node">
<title>7</title>
<text text-anchor="middle" x="27" y="-0.95" font-family="Times,serif" font-size="14.00">7 (55)</text>
</g>
<!-- 6&#45;&gt;7 -->
<g id="edge7" class="edge">
<title>6&#45;&gt;7</title>
<path fill="none" stroke="black" d="M27,-50.46C27,-44.24 27,-34.15 27,-25.39"/>
<polygon fill="black" stroke="black" points="30.5,-25.6 27,-15.6 23.5,-25.6 30.5,-25.6"/>
</g>
<!-- 10 -->
<g id="node11" class="node">
<title>10</title>
<text text-anchor="middle" x="94" y="-201.95" font-family="Times,serif" font-size="14.00">&lt;factor&gt;</text>
</g>
<!-- 9&#45;&gt;10 -->
<g id="edge10" class="edge">
<title>9&#45;&gt;10</title>
<path fill="none" stroke="black" d="M133.48,-251.46C127,-244.51 116.04,-232.75 107.3,-223.39"/>
<polygon fill="black" stroke="black" points="109.98,-221.12 100.6,-216.2 104.86,-225.9 109.98,-221.12"/>
</g>
<!-- 14 -->
<g id="node15" class="node">
<title>14</title>
<text text-anchor="middle" x="143" y="-201.95" font-family="Times,serif" font-size="14.00"> * </text>
</g>
<!-- 9&#45;&gt;14 -->
<g id="edge14" class="edge">
<title>9&#45;&gt;14</title>
<path fill="none" stroke="black" d="M139.49,-251.46C140.01,-245.24 140.84,-235.15 141.57,-226.39"/>
<polygon fill="black" stroke="black" points="145.04,-226.85 142.38,-216.6 138.07,-226.27 145.04,-226.85"/>
</g>
<!-- 15 -->
<g id="node16" class="node">
<title>15</title>
<text text-anchor="middle" x="189" y="-201.95" font-family="Times,serif" font-size="14.00">&lt;term&gt;</text>
</g>
<!-- 9&#45;&gt;15 -->
<g id="edge15" class="edge">
<title>9&#45;&gt;15</title>
<path fill="none" stroke="black" d="M145.13,-251.46C152.48,-244.37 165.02,-232.26 174.82,-222.81"/>
<polygon fill="black" stroke="black" points="176.96,-225.6 181.73,-216.14 172.1,-220.57 176.96,-225.6"/>
</g>
<!-- 11 -->
<g id="node12" class="node">
<title>11</title>
<text text-anchor="middle" x="96" y="-151.7" font-family="Times,serif" font-size="14.00">&lt;integer&gt;</text>
</g>
<!-- 10&#45;&gt;11 -->
<g id="edge11" class="edge">
<title>10&#45;&gt;11</title>
<path fill="none" stroke="black" d="M94.25,-201.21C94.5,-194.99 94.92,-184.9 95.28,-176.14"/>
<polygon fill="black" stroke="black" points="98.77,-176.49 95.69,-166.35 91.78,-176.2 98.77,-176.49"/>
</g>
<!-- 12 -->
<g id="node13" class="node">
<title>12</title>
<text text-anchor="middle" x="96" y="-101.45" font-family="Times,serif" font-size="14.00">&lt;digit&gt;</text>
</g>
<!-- 11&#45;&gt;12 -->
<g id="edge12" class="edge">
<title>11&#45;&gt;12</title>
<path fill="none" stroke="black" d="M96,-150.96C96,-144.74 96,-134.65 96,-125.89"/>
<polygon fill="black" stroke="black" points="99.5,-126.1 96,-116.1 92.5,-126.1 99.5,-126.1"/>
</g>
<!-- 13 -->
<g id="node14" class="node">
<title>13</title>
<text text-anchor="middle" x="96" y="-51.2" font-family="Times,serif" font-size="14.00">5 (53)</text>
</g>
<!-- 12&#45;&gt;13 -->
<g id="edge13" class="edge">
<title>12&#45;&gt;13</title>
<path fill="none" stroke="black" d="M96,-100.71C96,-94.49 96,-84.4 96,-75.64"/>
<polygon fill="black" stroke="black" points="99.5,-75.85 96,-65.85 92.5,-75.85 99.5,-75.85"/>
</g>
<!-- 16 -->
<g id="node17" class="node">
<title>16</title>
<text text-anchor="middle" x="189" y="-151.7" font-family="Times,serif" font-size="14.00">&lt;factor&gt;</text>
</g>
<!-- 15&#45;&gt;16 -->
<g id="edge16" class="edge">
<title>15&#45;&gt;16</title>
<path fill="none" stroke="black" d="M189,-201.21C189,-194.99 189,-184.9 189,-176.14"/>
<polygon fill="black" stroke="black" points="192.5,-176.35 189,-166.35 185.5,-176.35 192.5,-176.35"/>
</g>
<!-- 17 -->
<g id="node18" class="node">
<title>17</title>
<text text-anchor="middle" x="189" y="-101.45" font-family="Times,serif" font-size="14.00">&lt;integer&gt;</text>
</g>
<!-- 16&#45;&gt;17 -->
<g id="edge17" class="edge">
<title>16&#45;&gt;17</title>
<path fill="none" stroke="black" d="M189,-150.96C189,-144.74 189,-134.65 189,-125.89"/>
<polygon fill="black" stroke="black" points="192.5,-126.1 189,-116.1 185.5,-126.1 192.5,-126.1"/>
</g>
<!-- 18 -->
<g id="node19" class="node">
<title>18</title>
<text text-anchor="middle" x="189" y="-51.2" font-family="Times,serif" font-size="14.00">&lt;digit&gt;</text>
</g>
<!-- 17&#45;&gt;18 -->
<g id="edge18" class="edge">
<title>17&#45;&gt;18</title>
<path fill="none" stroke="black" d="M189,-100.71C189,-94.49 189,-84.4 189,-75.64"/>
<polygon fill="black" stroke="black" points="192.5,-75.85 189,-65.85 185.5,-75.85 192.5,-75.85"/>
</g>
<!-- 19 -->
<g id="node20" class="node">
<title>19</title>
<text text-anchor="middle" x="189" y="-0.95" font-family="Times,serif" font-size="14.00">8 (56)</text>
</g>
<!-- 18&#45;&gt;19 -->
<g id="edge19" class="edge">
<title>18&#45;&gt;19</title>
<path fill="none" stroke="black" d="M189,-50.46C189,-44.24 189,-34.15 189,-25.39"/>
<polygon fill="black" stroke="black" points="192.5,-25.6 189,-15.6 185.5,-25.6 192.5,-25.6"/>
</g>
</g>
</svg>