<?xml version="1.0" encoding="UTF-8" standalone="no"?>
<!DOCTYPE svg PUBLIC "-//W3C//DTD SVG 1.1//EN"
 "http://www.w3.org/Graphics/SVG/1.1/DTD/svg11.dtd">
<!-- Generated by graphviz version 12.2.1 (20241206.2353)
 -->
<!-- Pages: 1 -->
<svg width="1852pt" height="662pt"
 viewBox="0.00 0.00 1851.50 662.25" xmlns="http://www.w3.org/2000/svg" xmlns:xlink="http://www.w3.org/1999/xlink">
<g id="graph0" class="graph" transform="scale(1 1) rotate(0) translate(4 658.25)">
<polygon fill="white" stroke="none" points="-4,4 -4,-658.25 1847.5,-658.25 1847.5,4 -4,4"/>
<!-- 0 -->
<g id="node1" class="node">
<title>0</title>
<text text-anchor="middle" x="19.88" y="-320.95" font-family="Times,serif" font-size="14.00">&lt;start&gt;</text>
</g>
<!-- 1 -->
<g id="node2" class="node">
<title>1</title>
<text text-anchor="middle" x="174.38" y="-320.95" font-family="Times,serif" font-size="14.00">&lt;process_inventory@22:inventory&gt;</text>
</g>
<!-- 0&#45;&gt;1 -->
<g id="edge1" class="edge">
<title>0&#45;&gt;1</title>
<path fill="none" stroke="black" d="M39.57,-327.12C46.61,-327.12 55.2,-327.12 64.6,-327.12"/>
<polygon fill="black" stroke="black" points="64.46,-330.63 74.46,-327.13 64.46,-323.63 64.46,-330.63"/>
</g>
<!-- 2 -->
<g id="node3" class="node">
<title>2</title>
<text text-anchor="middle" x="407.62" y="-320.95" font-family="Times,serif" font-size="14.00">&lt;process_inventory@22:inventory&gt;</text>
</g>
<!-- 1&#45;&gt;2 -->
<g id="edge2" class="edge">
<title>1&#45;&gt;2</title>
<path fill="none" stroke="black" d="M272.78,-327.12C281.09,-327.12 289.54,-327.12 297.93,-327.12"/>
<polygon fill="black" stroke="black" points="297.82,-330.63 307.82,-327.13 297.82,-323.63 297.82,-330.63"/>
</g>
<!-- 3 -->
<g id="node4" class="node">
<title>3</title>
<text text-anchor="middle" x="634.5" y="-432.95" font-family="Times,serif" font-size="14.00">&lt;process_inventory@24:vehicle&gt;</text>
</g>
<!-- 2&#45;&gt;3 -->
<g id="edge3" class="edge">
<title>2&#45;&gt;3</title>
<path fill="none" stroke="black" d="M422.69,-334.13C460.08,-352.75 562.26,-403.64 609.26,-427.05"/>
<polygon fill="black" stroke="black" points="607.57,-430.12 618.08,-431.45 610.69,-423.86 607.57,-430.12"/>
</g>
<!-- 23 -->
<g id="node24" class="node">
<title>23</title>
<text text-anchor="middle" x="634.5" y="-352.95" font-family="Times,serif" font-size="14.00">\n (10)</text>
</g>
<!-- 2&#45;&gt;23 -->
<g id="edge23" class="edge">
<title>2&#45;&gt;23</title>
<path fill="none" stroke="black" d="M458.53,-334.23C503.52,-340.63 568.1,-349.82 604.91,-355.06"/>
<polygon fill="black" stroke="black" points="604.37,-358.51 614.76,-356.46 605.35,-351.58 604.37,-358.51"/>
</g>
<!-- 24 -->
<g id="node25" class="node">
<title>24</title>
<text text-anchor="middle" x="634.5" y="-320.95" font-family="Times,serif" font-size="14.00">&lt;process_inventory@24:vehicle&gt;</text>
</g>
<!-- 2&#45;&gt;24 -->
<g id="edge24" class="edge">
<title>2&#45;&gt;24</title>
<path fill="none" stroke="black" d="M505.95,-327.12C514.27,-327.12 522.71,-327.12 531.07,-327.12"/>
<polygon fill="black" stroke="black" points="530.9,-330.63 540.9,-327.13 530.9,-323.63 530.9,-330.63"/>
</g>
<!-- 44 -->
<g id="node45" class="node">
<title>44</title>
<text text-anchor="middle" x="634.5" y="-288.95" font-family="Times,serif" font-size="14.00">\n (10)</text>
</g>
<!-- 2&#45;&gt;44 -->
<g id="edge44" class="edge">
<title>2&#45;&gt;44</title>
<path fill="none" stroke="black" d="M458.53,-320.02C503.52,-313.62 568.1,-304.43 604.91,-299.19"/>
<polygon fill="black" stroke="black" points="605.35,-302.67 614.76,-297.79 604.37,-295.74 605.35,-302.67"/>
</g>
<!-- 45 -->
<g id="node46" class="node">
<title>45</title>
<text text-anchor="middle" x="634.5" y="-216.95" font-family="Times,serif" font-size="14.00">&lt;process_inventory@24:vehicle&gt;</text>
</g>
<!-- 2&#45;&gt;45 -->
<g id="edge45" class="edge">
<title>2&#45;&gt;45</title>
<path fill="none" stroke="black" d="M423.73,-320.14C461.56,-302.64 560.74,-256.78 607.89,-234.97"/>
<polygon fill="black" stroke="black" points="609.18,-238.23 616.79,-230.85 606.25,-231.87 609.18,-238.23"/>
</g>
<!-- 4 -->
<g id="node5" class="node">
<title>4</title>
<text text-anchor="middle" x="848.62" y="-464.95" font-family="Times,serif" font-size="14.00">&lt;process_vehicle@29:vehicle&gt;</text>
</g>
<!-- 3&#45;&gt;4 -->
<g id="edge4" class="edge">
<title>3&#45;&gt;4</title>
<path fill="none" stroke="black" d="M682.58,-446.23C714.16,-450.99 755.97,-457.3 789.61,-462.37"/>
<polygon fill="black" stroke="black" points="788.77,-465.79 799.18,-463.82 789.82,-458.86 788.77,-465.79"/>
</g>
<!-- 5 -->
<g id="node6" class="node">
<title>5</title>
<text text-anchor="middle" x="1056.38" y="-528.95" font-family="Times,serif" font-size="14.00">&lt;process_vehicle@29:vehicle&gt;</text>
</g>
<!-- 4&#45;&gt;5 -->
<g id="edge5" class="edge">
<title>4&#45;&gt;5</title>
<path fill="none" stroke="black" d="M872.43,-478.22C908.75,-489.52 979.93,-511.66 1022,-524.74"/>
<polygon fill="black" stroke="black" points="1020.75,-528.02 1031.34,-527.65 1022.83,-521.34 1020.75,-528.02"/>
</g>
<!-- 6 -->
<g id="node7" class="node">
<title>6</title>
<text text-anchor="middle" x="1269.75" y="-640.95" font-family="Times,serif" font-size="14.00">&lt;process_vehicle@30:year&gt;</text>
</g>
<!-- 5&#45;&gt;6 -->
<g id="edge6" class="edge">
<title>5&#45;&gt;6</title>
<path fill="none" stroke="black" d="M1063.65,-542.09C1080.32,-560.11 1127.91,-608.46 1178.25,-631.12 1183.39,-633.44 1188.84,-635.42 1194.41,-637.12"/>
<polygon fill="black" stroke="black" points="1193.2,-640.41 1203.76,-639.64 1195.02,-633.66 1193.2,-640.41"/>
</g>
<!-- 10 -->
<g id="node11" class="node">
<title>10</title>
<text text-anchor="middle" x="1269.75" y="-608.95" font-family="Times,serif" font-size="14.00">, (44)</text>
</g>
<!-- 5&#45;&gt;10 -->
<g id="edge10" class="edge">
<title>5&#45;&gt;10</title>
<path fill="none" stroke="black" d="M1067.86,-542.14C1088.22,-555.42 1134.91,-584.23 1178.25,-599.12 1199.69,-606.49 1225.2,-610.61 1243.66,-612.81"/>
<polygon fill="black" stroke="black" points="1243.1,-616.27 1253.42,-613.87 1243.85,-609.31 1243.1,-616.27"/>
</g>
<!-- 11 -->
<g id="node12" class="node">
<title>11</title>
<text text-anchor="middle" x="1269.75" y="-576.95" font-family="Times,serif" font-size="14.00">&lt;process_vehicle@30:kind&gt;</text>
</g>
<!-- 5&#45;&gt;11 -->
<g id="edge11" class="edge">
<title>5&#45;&gt;11</title>
<path fill="none" stroke="black" d="M1081.77,-542.23C1106.08,-549.15 1144.54,-559.7 1178.25,-567.12 1189.47,-569.6 1201.54,-571.94 1213.09,-574.04"/>
<polygon fill="black" stroke="black" points="1212.47,-577.49 1222.92,-575.79 1213.69,-570.59 1212.47,-577.49"/>
</g>
<!-- 13 -->
<g id="node14" class="node">
<title>13</title>
<text text-anchor="middle" x="1269.75" y="-544.95" font-family="Times,serif" font-size="14.00">, (44)</text>
</g>
<!-- 5&#45;&gt;13 -->
<g id="edge13" class="edge">
<title>5&#45;&gt;13</title>
<path fill="none" stroke="black" d="M1142.13,-541.54C1178.68,-544.31 1218.71,-547.34 1243.78,-549.23"/>
<polygon fill="black" stroke="black" points="1243.36,-552.71 1253.6,-549.98 1243.89,-545.73 1243.36,-552.71"/>
</g>
<!-- 14 -->
<g id="node15" class="node">
<title>14</title>
<text text-anchor="middle" x="1269.75" y="-512.95" font-family="Times,serif" font-size="14.00">&lt;process_vehicle@30:company&gt;</text>
</g>
<!-- 5&#45;&gt;14 -->
<g id="edge14" class="edge">
<title>5&#45;&gt;14</title>
<path fill="none" stroke="black" d="M1142.13,-528.71C1150.34,-528.09 1158.73,-527.45 1167.09,-526.82"/>
<polygon fill="black" stroke="black" points="1167.22,-530.32 1176.93,-526.08 1166.69,-523.34 1167.22,-530.32"/>
</g>
<!-- 18 -->
<g id="node19" class="node">
<title>18</title>
<text text-anchor="middle" x="1269.75" y="-480.95" font-family="Times,serif" font-size="14.00">, (44)</text>
</g>
<!-- 5&#45;&gt;18 -->
<g id="edge18" class="edge">
<title>5&#45;&gt;18</title>
<path fill="none" stroke="black" d="M1081.77,-528.02C1106.08,-521.1 1144.54,-510.55 1178.25,-503.12 1200.26,-498.28 1225.53,-493.91 1243.76,-490.96"/>
<polygon fill="black" stroke="black" points="1244.05,-494.46 1253.38,-489.44 1242.96,-487.55 1244.05,-494.46"/>
</g>
<!-- 19 -->
<g id="node20" class="node">
<title>19</title>
<text text-anchor="middle" x="1269.75" y="-448.95" font-family="Times,serif" font-size="14.00">&lt;process_vehicle@30:model&gt;</text>
</g>
<!-- 5&#45;&gt;19 -->
<g id="edge19" class="edge">
<title>5&#45;&gt;19</title>
<path fill="none" stroke="black" d="M1067.86,-528.11C1088.22,-514.83 1134.91,-486.02 1178.25,-471.12 1185.82,-468.52 1193.91,-466.33 1202.01,-464.48"/>
<polygon fill="black" stroke="black" points="1202.47,-467.95 1211.54,-462.47 1201.03,-461.1 1202.47,-467.95"/>
</g>
<!-- 7 -->
<g id="node8" class="node">
<title>7</title>
<text text-anchor="middle" x="1479" y="-640.95" font-family="Times,serif" font-size="14.00">&lt;process_van@40:year&gt;</text>
</g>
<!-- 6&#45;&gt;7 -->
<g id="edge7" class="edge">
<title>6&#45;&gt;7</title>
<path fill="none" stroke="black" d="M1347.63,-647.12C1364.64,-647.12 1382.68,-647.12 1399.74,-647.12"/>
<polygon fill="black" stroke="black" points="1399.28,-650.63 1409.28,-647.13 1399.28,-643.63 1399.28,-650.63"/>
</g>
<!-- 8 -->
<g id="node9" class="node">
<title>8</title>
<text text-anchor="middle" x="1678.5" y="-640.95" font-family="Times,serif" font-size="14.00">&lt;process_van@40:year&gt;</text>
</g>
<!-- 7&#45;&gt;8 -->
<g id="edge8" class="edge">
<title>7&#45;&gt;8</title>
<path fill="none" stroke="black" d="M1547.14,-647.12C1563.93,-647.12 1582.08,-647.12 1599.35,-647.12"/>
<polygon fill="black" stroke="black" points="1599.03,-650.63 1609.03,-647.13 1599.03,-643.63 1599.03,-650.63"/>
</g>
<!-- 9 -->
<g id="node10" class="node">
<title>9</title>
<text text-anchor="middle" x="1819.88" y="-640.95" font-family="Times,serif" font-size="14.00">1997</text>
</g>
<!-- 8&#45;&gt;9 -->
<g id="edge9" class="edge">
<title>8&#45;&gt;9</title>
<path fill="none" stroke="black" d="M1746.74,-647.12C1764.04,-647.12 1781.54,-647.12 1794.98,-647.12"/>
<polygon fill="black" stroke="black" points="1794.95,-650.63 1804.95,-647.13 1794.95,-643.63 1794.95,-650.63"/>
</g>
<!-- 12 -->
<g id="node13" class="node">
<title>12</title>
<text text-anchor="middle" x="1479" y="-576.95" font-family="Times,serif" font-size="14.00">van</text>
</g>
<!-- 11&#45;&gt;12 -->
<g id="edge12" class="edge">
<title>11&#45;&gt;12</title>
<path fill="none" stroke="black" d="M1347.92,-583.12C1387.52,-583.12 1432.63,-583.12 1457.97,-583.12"/>
<polygon fill="black" stroke="black" points="1457.77,-586.63 1467.77,-583.13 1457.77,-579.63 1457.77,-586.63"/>
</g>
<!-- 15 -->
<g id="node16" class="node">
<title>15</title>
<text text-anchor="middle" x="1479" y="-512.95" font-family="Times,serif" font-size="14.00">&lt;process_van@40:company&gt;</text>
</g>
<!-- 14&#45;&gt;15 -->
<g id="edge15" class="edge">
<title>14&#45;&gt;15</title>
<path fill="none" stroke="black" d="M1361.05,-519.12C1369.37,-519.12 1377.82,-519.12 1386.15,-519.12"/>
<polygon fill="black" stroke="black" points="1385.92,-522.63 1395.92,-519.13 1385.92,-515.63 1385.92,-522.63"/>
</g>
<!-- 16 -->
<g id="node17" class="node">
<title>16</title>
<text text-anchor="middle" x="1678.5" y="-512.95" font-family="Times,serif" font-size="14.00">&lt;process_van@40:company&gt;</text>
</g>
<!-- 15&#45;&gt;16 -->
<g id="edge16" class="edge">
<title>15&#45;&gt;16</title>
<path fill="none" stroke="black" d="M1560.62,-519.12C1568.83,-519.12 1577.21,-519.12 1585.54,-519.12"/>
<polygon fill="black" stroke="black" points="1585.31,-522.63 1595.31,-519.13 1585.31,-515.63 1585.31,-522.63"/>
</g>
<!-- 17 -->
<g id="node18" class="node">
<title>17</title>
<text text-anchor="middle" x="1819.88" y="-512.95" font-family="Times,serif" font-size="14.00">Ford</text>
</g>
<!-- 16&#45;&gt;17 -->
<g id="edge17" class="edge">
<title>16&#45;&gt;17</title>
<path fill="none" stroke="black" d="M1760.17,-519.12C1773.21,-519.12 1785.72,-519.12 1795.82,-519.12"/>
<polygon fill="black" stroke="black" points="1795.66,-522.63 1805.66,-519.13 1795.66,-515.63 1795.66,-522.63"/>
</g>
<!-- 20 -->
<g id="node21" class="node">
<title>20</title>
<text text-anchor="middle" x="1479" y="-448.95" font-family="Times,serif" font-size="14.00">&lt;process_van@40:model&gt;</text>
</g>
<!-- 19&#45;&gt;20 -->
<g id="edge20" class="edge">
<title>19&#45;&gt;20</title>
<path fill="none" stroke="black" d="M1353.26,-455.12C1366.66,-455.12 1380.56,-455.12 1394,-455.12"/>
<polygon fill="black" stroke="black" points="1393.65,-458.63 1403.65,-455.13 1393.65,-451.63 1393.65,-458.63"/>
</g>
<!-- 21 -->
<g id="node22" class="node">
<title>21</title>
<text text-anchor="middle" x="1678.5" y="-448.95" font-family="Times,serif" font-size="14.00">&lt;process_van@40:model&gt;</text>
</g>
<!-- 20&#45;&gt;21 -->
<g id="edge21" class="edge">
<title>20&#45;&gt;21</title>
<path fill="none" stroke="black" d="M1552.7,-455.12C1566.02,-455.12 1580.02,-455.12 1593.63,-455.12"/>
<polygon fill="black" stroke="black" points="1593.44,-458.63 1603.44,-455.13 1593.44,-451.63 1593.44,-458.63"/>
</g>
<!-- 22 -->
<g id="node23" class="node">
<title>22</title>
<text text-anchor="middle" x="1819.88" y="-448.95" font-family="Times,serif" font-size="14.00">E350</text>
</g>
<!-- 21&#45;&gt;22 -->
<g id="edge22" class="edge">
<title>21&#45;&gt;22</title>
<path fill="none" stroke="black" d="M1752.05,-455.12C1767.36,-455.12 1782.49,-455.12 1794.48,-455.12"/>
<polygon fill="black" stroke="black" points="1794.18,-458.63 1804.18,-455.13 1794.18,-451.63 1794.18,-458.63"/>
</g>
<!-- 25 -->
<g id="node26" class="node">
<title>25</title>
<text text-anchor="middle" x="848.62" y="-320.95" font-family="Times,serif" font-size="14.00">&lt;process_vehicle@29:vehicle&gt;</text>
</g>
<!-- 24&#45;&gt;25 -->
<g id="edge25" class="edge">
<title>24&#45;&gt;25</title>
<path fill="none" stroke="black" d="M726.69,-327.12C734.95,-327.12 743.33,-327.12 751.63,-327.12"/>
<polygon fill="black" stroke="black" points="751.37,-330.63 761.37,-327.13 751.37,-323.63 751.37,-330.63"/>
</g>
<!-- 26 -->
<g id="node27" class="node">
<title>26</title>
<text text-anchor="middle" x="1056.38" y="-320.95" font-family="Times,serif" font-size="14.00">&lt;process_vehicle@29:vehicle&gt;</text>
</g>
<!-- 25&#45;&gt;26 -->
<g id="edge26" class="edge">
<title>25&#45;&gt;26</title>
<path fill="none" stroke="black" d="M934.5,-327.12C942.72,-327.12 951.1,-327.12 959.41,-327.12"/>
<polygon fill="black" stroke="black" points="959.18,-330.63 969.18,-327.13 959.18,-323.63 959.18,-330.63"/>
</g>
<!-- 27 -->
<g id="node28" class="node">
<title>27</title>
<text text-anchor="middle" x="1269.75" y="-416.95" font-family="Times,serif" font-size="14.00">&lt;process_vehicle@30:year&gt;</text>
</g>
<!-- 26&#45;&gt;27 -->
<g id="edge27" class="edge">
<title>26&#45;&gt;27</title>
<path fill="none" stroke="black" d="M1065.21,-334.02C1083.55,-349.75 1131.27,-388.37 1178.25,-407.12 1184.33,-409.55 1190.78,-411.61 1197.33,-413.36"/>
<polygon fill="black" stroke="black" points="1196.38,-416.73 1206.92,-415.66 1198.02,-409.92 1196.38,-416.73"/>
</g>
<!-- 31 -->
<g id="node32" class="node">
<title>31</title>
<text text-anchor="middle" x="1269.75" y="-384.95" font-family="Times,serif" font-size="14.00">, (44)</text>
</g>
<!-- 26&#45;&gt;31 -->
<g id="edge31" class="edge">
<title>26&#45;&gt;31</title>
<path fill="none" stroke="black" d="M1072.3,-334.2C1094.79,-344.59 1138.93,-363.97 1178.25,-375.12 1199.93,-381.28 1225.23,-385.51 1243.57,-388.07"/>
<polygon fill="black" stroke="black" points="1242.88,-391.51 1253.25,-389.35 1243.8,-384.57 1242.88,-391.51"/>
</g>
<!-- 32 -->
<g id="node33" class="node">
<title>32</title>
<text text-anchor="middle" x="1269.75" y="-352.95" font-family="Times,serif" font-size="14.00">&lt;process_vehicle@30:kind&gt;</text>
</g>
<!-- 26&#45;&gt;32 -->
<g id="edge32" class="edge">
<title>26&#45;&gt;32</title>
<path fill="none" stroke="black" d="M1104.29,-334.23C1135.76,-338.99 1177.42,-345.3 1210.94,-350.37"/>
<polygon fill="black" stroke="black" points="1210.06,-353.78 1220.47,-351.82 1211.11,-346.86 1210.06,-353.78"/>
</g>
<!-- 34 -->
<g id="node35" class="node">
<title>34</title>
<text text-anchor="middle" x="1269.75" y="-320.95" font-family="Times,serif" font-size="14.00">, (44)</text>
</g>
<!-- 26&#45;&gt;34 -->
<g id="edge34" class="edge">
<title>26&#45;&gt;34</title>
<path fill="none" stroke="black" d="M1142.13,-327.12C1178.68,-327.12 1218.71,-327.12 1243.78,-327.12"/>
<polygon fill="black" stroke="black" points="1243.6,-330.63 1253.6,-327.13 1243.6,-323.63 1243.6,-330.63"/>
</g>
<!-- 35 -->
<g id="node36" class="node">
<title>35</title>
<text text-anchor="middle" x="1269.75" y="-288.95" font-family="Times,serif" font-size="14.00">&lt;process_vehicle@30:company&gt;</text>
</g>
<!-- 26&#45;&gt;35 -->
<g id="edge35" class="edge">
<title>26&#45;&gt;35</title>
<path fill="none" stroke="black" d="M1104.29,-320.02C1135.76,-315.26 1177.42,-308.95 1210.94,-303.88"/>
<polygon fill="black" stroke="black" points="1211.11,-307.39 1220.47,-302.43 1210.06,-300.47 1211.11,-307.39"/>
</g>
<!-- 39 -->
<g id="node40" class="node">
<title>39</title>
<text text-anchor="middle" x="1269.75" y="-256.95" font-family="Times,serif" font-size="14.00">, (44)</text>
</g>
<!-- 26&#45;&gt;39 -->
<g id="edge39" class="edge">
<title>26&#45;&gt;39</title>
<path fill="none" stroke="black" d="M1072.3,-320.05C1094.79,-309.66 1138.93,-290.28 1178.25,-279.12 1199.93,-272.97 1225.23,-268.74 1243.57,-266.18"/>
<polygon fill="black" stroke="black" points="1243.8,-269.68 1253.25,-264.9 1242.88,-262.74 1243.8,-269.68"/>
</g>
<!-- 40 -->
<g id="node41" class="node">
<title>40</title>
<text text-anchor="middle" x="1269.75" y="-224.95" font-family="Times,serif" font-size="14.00">&lt;process_vehicle@30:model&gt;</text>
</g>
<!-- 26&#45;&gt;40 -->
<g id="edge40" class="edge">
<title>26&#45;&gt;40</title>
<path fill="none" stroke="black" d="M1065.21,-320.23C1083.55,-304.5 1131.27,-265.88 1178.25,-247.12 1184.33,-244.7 1190.78,-242.64 1197.33,-240.89"/>
<polygon fill="black" stroke="black" points="1198.02,-244.33 1206.92,-238.59 1196.38,-237.52 1198.02,-244.33"/>
</g>
<!-- 28 -->
<g id="node29" class="node">
<title>28</title>
<text text-anchor="middle" x="1479" y="-416.95" font-family="Times,serif" font-size="14.00">&lt;process_car@49:year&gt;</text>
</g>
<!-- 27&#45;&gt;28 -->
<g id="edge28" class="edge">
<title>27&#45;&gt;28</title>
<path fill="none" stroke="black" d="M1347.63,-423.12C1365.11,-423.12 1383.68,-423.12 1401.16,-423.12"/>
<polygon fill="black" stroke="black" points="1400.96,-426.63 1410.96,-423.13 1400.96,-419.63 1400.96,-426.63"/>
</g>
<!-- 29 -->
<g id="node30" class="node">
<title>29</title>
<text text-anchor="middle" x="1678.5" y="-416.95" font-family="Times,serif" font-size="14.00">&lt;process_car@49:year&gt;</text>
</g>
<!-- 28&#45;&gt;29 -->
<g id="edge29" class="edge">
<title>28&#45;&gt;29</title>
<path fill="none" stroke="black" d="M1545.49,-423.12C1563.07,-423.12 1582.25,-423.12 1600.4,-423.12"/>
<polygon fill="black" stroke="black" points="1600.34,-426.63 1610.34,-423.13 1600.34,-419.63 1600.34,-426.63"/>
</g>
<!-- 30 -->
<g id="node31" class="node">
<title>30</title>
<text text-anchor="middle" x="1819.88" y="-416.95" font-family="Times,serif" font-size="14.00">2000</text>
</g>
<!-- 29&#45;&gt;30 -->
<g id="edge30" class="edge">
<title>29&#45;&gt;30</title>
<path fill="none" stroke="black" d="M1745.11,-423.12C1763.05,-423.12 1781.36,-423.12 1795.25,-423.12"/>
<polygon fill="black" stroke="black" points="1795.11,-426.63 1805.11,-423.13 1795.11,-419.63 1795.11,-426.63"/>
</g>
<!-- 33 -->
<g id="node34" class="node">
<title>33</title>
<text text-anchor="middle" x="1479" y="-352.95" font-family="Times,serif" font-size="14.00">car</text>
</g>
<!-- 32&#45;&gt;33 -->
<g id="edge33" class="edge">
<title>32&#45;&gt;33</title>
<path fill="none" stroke="black" d="M1347.92,-359.12C1388.31,-359.12 1434.44,-359.12 1459.47,-359.12"/>
<polygon fill="black" stroke="black" points="1459.25,-362.63 1469.25,-359.13 1459.25,-355.63 1459.25,-362.63"/>
</g>
<!-- 36 -->
<g id="node37" class="node">
<title>36</title>
<text text-anchor="middle" x="1479" y="-288.95" font-family="Times,serif" font-size="14.00">&lt;process_car@49:company&gt;</text>
</g>
<!-- 35&#45;&gt;36 -->
<g id="edge36" class="edge">
<title>35&#45;&gt;36</title>
<path fill="none" stroke="black" d="M1361.05,-295.12C1369.85,-295.12 1378.78,-295.12 1387.58,-295.12"/>
<polygon fill="black" stroke="black" points="1387.53,-298.63 1397.53,-295.13 1387.53,-291.63 1387.53,-298.63"/>
</g>
<!-- 37 -->
<g id="node38" class="node">
<title>37</title>
<text text-anchor="middle" x="1678.5" y="-288.95" font-family="Times,serif" font-size="14.00">&lt;process_car@49:company&gt;</text>
</g>
<!-- 36&#45;&gt;37 -->
<g id="edge37" class="edge">
<title>36&#45;&gt;37</title>
<path fill="none" stroke="black" d="M1559.19,-295.12C1568.35,-295.12 1577.74,-295.12 1587.03,-295.12"/>
<polygon fill="black" stroke="black" points="1586.78,-298.63 1596.78,-295.13 1586.78,-291.63 1586.78,-298.63"/>
</g>
<!-- 38 -->
<g id="node39" class="node">
<title>38</title>
<text text-anchor="middle" x="1819.88" y="-288.95" font-family="Times,serif" font-size="14.00">Mercury</text>
</g>
<!-- 37&#45;&gt;38 -->
<g id="edge38" class="edge">
<title>37&#45;&gt;38</title>
<path fill="none" stroke="black" d="M1758.55,-295.12C1767.88,-295.12 1776.98,-295.12 1785.17,-295.12"/>
<polygon fill="black" stroke="black" points="1784.92,-298.63 1794.92,-295.13 1784.92,-291.63 1784.92,-298.63"/>
</g>
<!-- 41 -->
<g id="node42" class="node">
<title>41</title>
<text text-anchor="middle" x="1479" y="-224.95" font-family="Times,serif" font-size="14.00">&lt;process_car@49:model&gt;</text>
</g>
<!-- 40&#45;&gt;41 -->
<g id="edge41" class="edge">
<title>40&#45;&gt;41</title>
<path fill="none" stroke="black" d="M1353.26,-231.12C1367.1,-231.12 1381.47,-231.12 1395.32,-231.12"/>
<polygon fill="black" stroke="black" points="1395.3,-234.63 1405.3,-231.13 1395.3,-227.63 1395.3,-234.63"/>
</g>
<!-- 42 -->
<g id="node43" class="node">
<title>42</title>
<text text-anchor="middle" x="1678.5" y="-224.95" font-family="Times,serif" font-size="14.00">&lt;process_car@49:model&gt;</text>
</g>
<!-- 41&#45;&gt;42 -->
<g id="edge42" class="edge">
<title>41&#45;&gt;42</title>
<path fill="none" stroke="black" d="M1551.3,-231.12C1565.43,-231.12 1580.36,-231.12 1594.83,-231.12"/>
<polygon fill="black" stroke="black" points="1594.79,-234.63 1604.79,-231.13 1594.79,-227.63 1594.79,-234.63"/>
</g>
<!-- 43 -->
<g id="node44" class="node">
<title>43</title>
<text text-anchor="middle" x="1819.88" y="-224.95" font-family="Times,serif" font-size="14.00">Cougar</text>
</g>
<!-- 42&#45;&gt;43 -->
<g id="edge43" class="edge">
<title>42&#45;&gt;43</title>
<path fill="none" stroke="black" d="M1750.82,-231.12C1764.2,-231.12 1777.5,-231.12 1788.74,-231.12"/>
<polygon fill="black" stroke="black" points="1788.53,-234.63 1798.53,-231.13 1788.53,-227.63 1788.53,-234.63"/>
</g>
<!-- 46 -->
<g id="node47" class="node">
<title>46</title>
<text text-anchor="middle" x="848.62" y="-136.95" font-family="Times,serif" font-size="14.00">&lt;process_vehicle@29:vehicle&gt;</text>
</g>
<!-- 45&#45;&gt;46 -->
<g id="edge46" class="edge">
<title>45&#45;&gt;46</title>
<path fill="none" stroke="black" d="M654.32,-216.03C691.36,-202.06 773.91,-170.93 818.2,-154.22"/>
<polygon fill="black" stroke="black" points="819.3,-157.55 827.43,-150.74 816.83,-151 819.3,-157.55"/>
</g>
<!-- 47 -->
<g id="node48" class="node">
<title>47</title>
<text text-anchor="middle" x="1056.38" y="-112.95" font-family="Times,serif" font-size="14.00">&lt;process_vehicle@29:vehicle&gt;</text>
</g>
<!-- 46&#45;&gt;47 -->
<g id="edge47" class="edge">
<title>46&#45;&gt;47</title>
<path fill="none" stroke="black" d="M910.52,-136.02C933.33,-133.36 959.47,-130.31 983.2,-127.54"/>
<polygon fill="black" stroke="black" points="983.6,-131.02 993.13,-126.39 982.79,-124.07 983.6,-131.02"/>
</g>
<!-- 48 -->
<g id="node49" class="node">
<title>48</title>
<text text-anchor="middle" x="1269.75" y="-192.95" font-family="Times,serif" font-size="14.00">&lt;process_vehicle@30:year&gt;</text>
</g>
<!-- 47&#45;&gt;48 -->
<g id="edge48" class="edge">
<title>47&#45;&gt;48</title>
<path fill="none" stroke="black" d="M1067.86,-126.14C1088.22,-139.42 1134.91,-168.23 1178.25,-183.12 1185.82,-185.73 1193.91,-187.92 1202.01,-189.77"/>
<polygon fill="black" stroke="black" points="1201.03,-193.15 1211.54,-191.78 1202.47,-186.3 1201.03,-193.15"/>
</g>
<!-- 52 -->
<g id="node53" class="node">
<title>52</title>
<text text-anchor="middle" x="1269.75" y="-160.95" font-family="Times,serif" font-size="14.00">, (44)</text>
</g>
<!-- 47&#45;&gt;52 -->
<g id="edge52" class="edge">
<title>47&#45;&gt;52</title>
<path fill="none" stroke="black" d="M1081.77,-126.23C1106.08,-133.15 1144.54,-143.7 1178.25,-151.12 1200.26,-155.97 1225.53,-160.34 1243.76,-163.29"/>
<polygon fill="black" stroke="black" points="1242.96,-166.7 1253.38,-164.81 1244.05,-159.79 1242.96,-166.7"/>
</g>
<!-- 53 -->
<g id="node54" class="node">
<title>53</title>
<text text-anchor="middle" x="1269.75" y="-128.95" font-family="Times,serif" font-size="14.00">&lt;process_vehicle@30:kind&gt;</text>
</g>
<!-- 47&#45;&gt;53 -->
<g id="edge53" class="edge">
<title>47&#45;&gt;53</title>
<path fill="none" stroke="black" d="M1142.13,-125.54C1154.62,-126.49 1167.51,-127.46 1180.08,-128.41"/>
<polygon fill="black" stroke="black" points="1179.75,-131.9 1189.99,-129.16 1180.28,-124.92 1179.75,-131.9"/>
</g>
<!-- 55 -->
<g id="node56" class="node">
<title>55</title>
<text text-anchor="middle" x="1269.75" y="-96.95" font-family="Times,serif" font-size="14.00">, (44)</text>
</g>
<!-- 47&#45;&gt;55 -->
<g id="edge55" class="edge">
<title>47&#45;&gt;55</title>
<path fill="none" stroke="black" d="M1142.13,-112.71C1178.68,-109.94 1218.71,-106.91 1243.78,-105.02"/>
<polygon fill="black" stroke="black" points="1243.89,-108.52 1253.6,-104.27 1243.36,-101.54 1243.89,-108.52"/>
</g>
<!-- 56 -->
<g id="node57" class="node">
<title>56</title>
<text text-anchor="middle" x="1269.75" y="-64.95" font-family="Times,serif" font-size="14.00">&lt;process_vehicle@30:company&gt;</text>
</g>
<!-- 47&#45;&gt;56 -->
<g id="edge56" class="edge">
<title>47&#45;&gt;56</title>
<path fill="none" stroke="black" d="M1081.77,-112.02C1106.08,-105.1 1144.54,-94.55 1178.25,-87.12 1189.47,-84.65 1201.54,-82.31 1213.09,-80.21"/>
<polygon fill="black" stroke="black" points="1213.69,-83.66 1222.92,-78.46 1212.47,-76.76 1213.69,-83.66"/>
</g>
<!-- 60 -->
<g id="node61" class="node">
<title>60</title>
<text text-anchor="middle" x="1269.75" y="-32.95" font-family="Times,serif" font-size="14.00">, (44)</text>
</g>
<!-- 47&#45;&gt;60 -->
<g id="edge60" class="edge">
<title>47&#45;&gt;60</title>
<path fill="none" stroke="black" d="M1067.86,-112.11C1088.22,-98.83 1134.91,-70.02 1178.25,-55.12 1199.69,-47.76 1225.2,-43.64 1243.66,-41.44"/>
<polygon fill="black" stroke="black" points="1243.85,-44.94 1253.42,-40.38 1243.1,-37.98 1243.85,-44.94"/>
</g>
<!-- 61 -->
<g id="node62" class="node">
<title>61</title>
<text text-anchor="middle" x="1269.75" y="-0.95" font-family="Times,serif" font-size="14.00">&lt;process_vehicle@30:model&gt;</text>
</g>
<!-- 47&#45;&gt;61 -->
<g id="edge61" class="edge">
<title>47&#45;&gt;61</title>
<path fill="none" stroke="black" d="M1063.65,-112.16C1080.32,-94.14 1127.91,-45.79 1178.25,-23.12 1183.39,-20.81 1188.84,-18.83 1194.41,-17.13"/>
<polygon fill="black" stroke="black" points="1195.02,-20.59 1203.76,-14.61 1193.2,-13.84 1195.02,-20.59"/>
</g>
<!-- 49 -->
<g id="node50" class="node">
<title>49</title>
<text text-anchor="middle" x="1479" y="-192.95" font-family="Times,serif" font-size="14.00">&lt;process_car@49:year&gt;</text>
</g>
<!-- 48&#45;&gt;49 -->
<g id="edge49" class="edge">
<title>48&#45;&gt;49</title>
<path fill="none" stroke="black" d="M1347.63,-199.12C1365.11,-199.12 1383.68,-199.12 1401.16,-199.12"/>
<polygon fill="black" stroke="black" points="1400.96,-202.63 1410.96,-199.13 1400.96,-195.63 1400.96,-202.63"/>
</g>
<!-- 50 -->
<g id="node51" class="node">
<title>50</title>
<text text-anchor="middle" x="1678.5" y="-192.95" font-family="Times,serif" font-size="14.00">&lt;process_car@49:year&gt;</text>
</g>
<!-- 49&#45;&gt;50 -->
<g id="edge50" class="edge">
<title>49&#45;&gt;50</title>
<path fill="none" stroke="black" d="M1545.49,-199.12C1563.07,-199.12 1582.25,-199.12 1600.4,-199.12"/>
<polygon fill="black" stroke="black" points="1600.34,-202.63 1610.34,-199.13 1600.34,-195.63 1600.34,-202.63"/>
</g>
<!-- 51 -->
<g id="node52" class="node">
<title>51</title>
<text text-anchor="middle" x="1819.88" y="-192.95" font-family="Times,serif" font-size="14.00">1999</text>
</g>
<!-- 50&#45;&gt;51 -->
<g id="edge51" class="edge">
<title>50&#45;&gt;51</title>
<path fill="none" stroke="black" d="M1745.11,-199.12C1763.05,-199.12 1781.36,-199.12 1795.25,-199.12"/>
<polygon fill="black" stroke="black" points="1795.11,-202.63 1805.11,-199.13 1795.11,-195.63 1795.11,-202.63"/>
</g>
<!-- 54 -->
<g id="node55" class="node">
<title>54</title>
<text text-anchor="middle" x="1479" y="-128.95" font-family="Times,serif" font-size="14.00">car</text>
</g>
<!-- 53&#45;&gt;54 -->
<g id="edge54" class="edge">
<title>53&#45;&gt;54</title>
<path fill="none" stroke="black" d="M1347.92,-135.12C1388.31,-135.12 1434.44,-135.12 1459.47,-135.12"/>
<polygon fill="black" stroke="black" points="1459.25,-138.63 1469.25,-135.13 1459.25,-131.63 1459.25,-138.63"/>
</g>
<!-- 57 -->
<g id="node58" class="node">
<title>57</title>
<text text-anchor="middle" x="1479" y="-64.95" font-family="Times,serif" font-size="14.00">&lt;process_car@49:company&gt;</text>
</g>
<!-- 56&#45;&gt;57 -->
<g id="edge57" class="edge">
<title>56&#45;&gt;57</title>
<path fill="none" stroke="black" d="M1361.05,-71.12C1369.85,-71.12 1378.78,-71.12 1387.58,-71.12"/>
<polygon fill="black" stroke="black" points="1387.53,-74.63 1397.53,-71.13 1387.53,-67.63 1387.53,-74.63"/>
</g>
<!-- 58 -->
<g id="node59" class="node">
<title>58</title>
<text text-anchor="middle" x="1678.5" y="-64.95" font-family="Times,serif" font-size="14.00">&lt;process_car@49:company&gt;</text>
</g>
<!-- 57&#45;&gt;58 -->
<g id="edge58" class="edge">
<title>57&#45;&gt;58</title>
<path fill="none" stroke="black" d="M1559.19,-71.12C1568.35,-71.12 1577.74,-71.12 1587.03,-71.12"/>
<polygon fill="black" stroke="black" points="1586.78,-74.63 1596.78,-71.13 1586.78,-67.63 1586.78,-74.63"/>
</g>
<!-- 59 -->
<g id="node60" class="node">
<title>59</title>
<text text-anchor="middle" x="1819.88" y="-64.95" font-family="Times,serif" font-size="14.00">Chevy</text>
</g>
<!-- 58&#45;&gt;59 -->
<g id="edge59" class="edge">
<title>58&#45;&gt;59</title>
<path fill="none" stroke="black" d="M1758.55,-71.12C1770.09,-71.12 1781.27,-71.12 1790.82,-71.12"/>
<polygon fill="black" stroke="black" points="1790.79,-74.63 1800.79,-71.13 1790.79,-67.63 1790.79,-74.63"/>
</g>
<!-- 62 -->
<g id="node63" class="node">
<title>62</title>
<text text-anchor="middle" x="1479" y="-0.95" font-family="Times,serif" font-size="14.00">&lt;process_car@49:model&gt;</text>
</g>
<!-- 61&#45;&gt;62 -->
<g id="edge62" class="edge">
<title>61&#45;&gt;62</title>
<path fill="none" stroke="black" d="M1353.26,-7.12C1367.1,-7.12 1381.47,-7.12 1395.32,-7.12"/>
<polygon fill="black" stroke="black" points="1395.3,-10.63 1405.3,-7.13 1395.3,-3.63 1395.3,-10.63"/>
</g>
<!-- 63 -->
<g id="node64" class="node">
<title>63</title>
<text text-anchor="middle" x="1678.5" y="-0.95" font-family="Times,serif" font-size="14.00">&lt;process_car@49:model&gt;</text>
</g>
<!-- 62&#45;&gt;63 -->
<g id="edge63" class="edge">
<title>62&#45;&gt;63</title>
<path fill="none" stroke="black" d="M1551.3,-7.12C1565.43,-7.12 1580.36,-7.12 1594.83,-7.12"/>
<polygon fill="black" stroke="black" points="1594.79,-10.63 1604.79,-7.13 1594.79,-3.63 1594.79,-10.63"/>
</g>
<!-- 64 -->
<g id="node65" class="node">
<title>64</title>
<text text-anchor="middle" x="1819.88" y="-0.95" font-family="Times,serif" font-size="14.00">Venture</text>
</g>
<!-- 63&#45;&gt;64 -->
<g id="edge64" class="edge">
<title>63&#45;&gt;64</title>
<path fill="none" stroke="black" d="M1750.82,-7.12C1763.67,-7.12 1776.44,-7.12 1787.39,-7.12"/>
<polygon fill="black" stroke="black" points="1787.37,-10.63 1797.37,-7.13 1787.37,-3.63 1787.37,-10.63"/>
</g>
</g>
</svg>