<svg xmlns="http://www.w3.org/2000/svg" class="railroad-diagram" height="92" viewBox="0 0 413.0 92" width="413.0">
<g transform="translate(.5 .5)">
<style>/* <![CDATA[ */
    svg.railroad-diagram {
    }
    svg.railroad-diagram path {
        stroke-width:3;
        stroke:black;
        fill:white;
    }
    svg.railroad-diagram text {
        font:14px "Fira Mono", monospace;
        text-anchor:middle;
    }
    svg.railroad-diagram text.label{
        text-anchor:start;
    }
    svg.railroad-diagram text.comment{
        font:italic 12px "Fira Mono", monospace;
    }
    svg.railroad-diagram rect{
        stroke-width:2;
        stroke:black;
        fill:mistyrose;
    }

/* ]]> */
</style><g>
<path d="M20 51v20m10 -20v20m-10 -10h20"/></g><g>
<path d="M40 61h0.0"/><path d="M373.0 61h0.0"/><path d="M40.0 61a10 10 0 0 0 10 -10v-10a10 10 0 0 1 10 -10"/><g>
<path d="M60.0 31h123.75"/><path d="M229.25 31h123.75"/><g class="non-terminal">
<path d="M183.75 31h0.0"/><path d="M229.25 31h0.0"/><rect height="22" width="45.5" x="183.75" y="20"/><text x="206.5" y="35">url</text></g></g><path d="M353.0 31a10 10 0 0 1 10 10v10a10 10 0 0 0 10 10"/><path d="M40.0 61h20"/><g>
<path d="M60.0 61h0.0"/><path d="M353.0 61h0.0"/><g class="non-terminal">
<path d="M60.0 61h0.0"/><path d="M131.0 61h0.0"/><rect height="22" width="71.0" x="60.0" y="50"/><text x="95.5" y="65">scheme</text></g><path d="M131.0 61h10"/><path d="M141.0 61h10"/><g class="terminal">
<path d="M151.0 61h0.0"/><path d="M196.5 61h0.0"/><rect height="22" rx="10" ry="10" width="45.5" x="151.0" y="50"/><text x="173.75" y="65">://</text></g><path d="M196.5 61h10"/><path d="M206.5 61h10"/><g class="non-terminal">
<path d="M216.5 61h0.0"/><path d="M287.5 61h0.0"/><rect height="22" width="71.0" x="216.5" y="50"/><text x="252.0" y="65">netloc</text></g><path d="M287.5 61h10"/><path d="M297.5 61h10"/><g class="non-terminal">
<path d="M307.5 61h0.0"/><path d="M353.0 61h0.0"/><rect height="22" width="45.5" x="307.5" y="50"/><text x="330.25" y="65">url</text></g></g><path d="M353.0 61h20"/></g><path d="M 373.0 61 h 20 m -10 -10 v 20 m 10 -20 v 20"/></g></svg>