<?xml version="1.0" encoding="UTF-8" standalone="no"?>
<!DOCTYPE svg PUBLIC "-//W3C//DTD SVG 1.1//EN"
 "http://www.w3.org/Graphics/SVG/1.1/DTD/svg11.dtd">
<!-- Generated by graphviz version 12.2.1 (20241206.2353)
 -->
<!-- Pages: 1 -->
<svg width="212pt" height="246pt"
 viewBox="0.00 0.00 212.00 246.25" xmlns="http://www.w3.org/2000/svg" xmlns:xlink="http://www.w3.org/1999/xlink">
<g id="graph0" class="graph" transform="scale(1 1) rotate(0) translate(4 242.25)">
<polygon fill="white" stroke="none" points="-4,4 -4,-242.25 208,-242.25 208,4 -4,4"/>
<!-- 0 -->
<g id="node1" class="node">
<title>0</title>
<text text-anchor="middle" x="19.88" y="-112.95" font-family="Times,serif" font-size="14.00">&lt;start&gt;</text>
</g>
<!-- 1 -->
<g id="node2" class="node">
<title>1</title>
<text text-anchor="middle" x="98.25" y="-160.95" font-family="Times,serif" font-size="14.00">record 0</text>
</g>
<!-- 0&#45;&gt;1 -->
<g id="edge1" class="edge">
<title>0&#45;&gt;1</title>
<path fill="none" stroke="black" d="M32.14,-126.21C43.76,-133.51 62.15,-145.06 76.42,-154.04"/>
<polygon fill="black" stroke="black" points="74.32,-156.85 84.65,-159.21 78.05,-150.92 74.32,-156.85"/>
</g>
<!-- 6 -->
<g id="node7" class="node">
<title>6</title>
<text text-anchor="middle" x="98.25" y="-64.95" font-family="Times,serif" font-size="14.00">record 1</text>
</g>
<!-- 0&#45;&gt;6 -->
<g id="edge6" class="edge">
<title>0&#45;&gt;6</title>
<path fill="none" stroke="black" d="M32.14,-112.04C43.76,-104.74 62.15,-93.19 76.42,-84.21"/>
<polygon fill="black" stroke="black" points="78.05,-87.33 84.65,-79.04 74.32,-81.4 78.05,-87.33"/>
</g>
<!-- 2 -->
<g id="node3" class="node">
<title>2</title>
<text text-anchor="middle" x="180.38" y="-224.95" font-family="Times,serif" font-size="14.00">1997</text>
</g>
<!-- 1&#45;&gt;2 -->
<g id="edge2" class="edge">
<title>1&#45;&gt;2</title>
<path fill="none" stroke="black" d="M107.27,-174.17C118.23,-183.72 138.61,-201.17 156.75,-215.12 157.74,-215.89 158.77,-216.66 159.8,-217.43"/>
<polygon fill="black" stroke="black" points="157.72,-220.25 167.88,-223.24 161.81,-214.56 157.72,-220.25"/>
</g>
<!-- 3 -->
<g id="node4" class="node">
<title>3</title>
<text text-anchor="middle" x="180.38" y="-192.95" font-family="Times,serif" font-size="14.00">van</text>
</g>
<!-- 1&#45;&gt;3 -->
<g id="edge3" class="edge">
<title>1&#45;&gt;3</title>
<path fill="none" stroke="black" d="M117.03,-174.23C129.88,-179.36 147.21,-186.28 160.34,-191.52"/>
<polygon fill="black" stroke="black" points="158.98,-194.75 169.56,-195.21 161.57,-188.25 158.98,-194.75"/>
</g>
<!-- 4 -->
<g id="node5" class="node">
<title>4</title>
<text text-anchor="middle" x="180.38" y="-160.95" font-family="Times,serif" font-size="14.00">Ford</text>
</g>
<!-- 1&#45;&gt;4 -->
<g id="edge4" class="edge">
<title>1&#45;&gt;4</title>
<path fill="none" stroke="black" d="M120.72,-167.12C131.77,-167.12 145.24,-167.12 156.48,-167.12"/>
<polygon fill="black" stroke="black" points="156.47,-170.63 166.47,-167.13 156.47,-163.63 156.47,-170.63"/>
</g>
<!-- 5 -->
<g id="node6" class="node">
<title>5</title>
<text text-anchor="middle" x="180.38" y="-128.95" font-family="Times,serif" font-size="14.00">E350</text>
</g>
<!-- 1&#45;&gt;5 -->
<g id="edge5" class="edge">
<title>1&#45;&gt;5</title>
<path fill="none" stroke="black" d="M117.03,-160.02C128.47,-155.46 143.46,-149.47 155.87,-144.51"/>
<polygon fill="black" stroke="black" points="156.98,-147.84 164.97,-140.88 154.38,-141.34 156.98,-147.84"/>
</g>
<!-- 7 -->
<g id="node8" class="node">
<title>7</title>
<text text-anchor="middle" x="180.38" y="-96.95" font-family="Times,serif" font-size="14.00">2000</text>
</g>
<!-- 6&#45;&gt;7 -->
<g id="edge7" class="edge">
<title>6&#45;&gt;7</title>
<path fill="none" stroke="black" d="M117.03,-78.23C128.75,-82.91 144.2,-89.08 156.79,-94.1"/>
<polygon fill="black" stroke="black" points="155.36,-97.3 165.95,-97.76 157.96,-90.8 155.36,-97.3"/>
</g>
<!-- 8 -->
<g id="node9" class="node">
<title>8</title>
<text text-anchor="middle" x="180.38" y="-64.95" font-family="Times,serif" font-size="14.00">car</text>
</g>
<!-- 6&#45;&gt;8 -->
<g id="edge8" class="edge">
<title>6&#45;&gt;8</title>
<path fill="none" stroke="black" d="M120.72,-71.12C133.39,-71.12 149.23,-71.12 161.26,-71.12"/>
<polygon fill="black" stroke="black" points="160.97,-74.63 170.97,-71.13 160.97,-67.63 160.97,-74.63"/>
</g>
<!-- 9 -->
<g id="node10" class="node">
<title>9</title>
<text text-anchor="middle" x="180.38" y="-32.95" font-family="Times,serif" font-size="14.00">Mercury</text>
</g>
<!-- 6&#45;&gt;9 -->
<g id="edge9" class="edge">
<title>6&#45;&gt;9</title>
<path fill="none" stroke="black" d="M117.03,-64.02C127.09,-60 139.91,-54.89 151.3,-50.34"/>
<polygon fill="black" stroke="black" points="152.25,-53.73 160.24,-46.77 149.65,-47.23 152.25,-53.73"/>
</g>
<!-- 10 -->
<g id="node11" class="node">
<title>10</title>
<text text-anchor="middle" x="180.38" y="-0.95" font-family="Times,serif" font-size="14.00">Cougar</text>
</g>
<!-- 6&#45;&gt;10 -->
<g id="edge10" class="edge">
<title>6&#45;&gt;10</title>
<path fill="none" stroke="black" d="M107.27,-64.08C118.23,-54.53 138.61,-37.08 156.75,-23.12 157.74,-22.36 158.77,-21.59 159.8,-20.82"/>
<polygon fill="black" stroke="black" points="161.81,-23.69 167.88,-15.01 157.72,-18 161.81,-23.69"/>
</g>
</g>
</svg>