<?xml version="1.0" encoding="UTF-8" standalone="no"?>
<!DOCTYPE svg PUBLIC "-//W3C//DTD SVG 1.1//EN"
 "http://www.w3.org/Graphics/SVG/1.1/DTD/svg11.dtd">
<!-- Generated by graphviz version 12.2.1 (20241206.2353)
 -->
<!-- Pages: 1 -->
<svg width="397pt" height="708pt"
 viewBox="0.00 0.00 396.50 708.00" xmlns="http://www.w3.org/2000/svg" xmlns:xlink="http://www.w3.org/1999/xlink">
<g id="graph0" class="graph" transform="scale(1 1) rotate(0) translate(4 704)">
<polygon fill="white" stroke="none" points="-4,4 -4,-704 392.5,-704 392.5,4 -4,4"/>
<!-- 1 -->
<g id="node1" class="node">
<title>1</title>
<ellipse fill="none" stroke="black" cx="187.62" cy="-678" rx="85.55" ry="18"/>
<ellipse fill="none" stroke="black" cx="187.62" cy="-678" rx="89.55" ry="22"/>
<text text-anchor="middle" x="187.62" y="-671.83" font-family="Times,serif" font-size="14.00">1: enter: roots(a, b, c)</text>
</g>
<!-- 3 -->
<g id="node4" class="node">
<title>3</title>
<ellipse fill="none" stroke="black" cx="187.62" cy="-602" rx="108.92" ry="18"/>
<text text-anchor="middle" x="187.62" y="-595.83" font-family="Times,serif" font-size="14.00">2: d: float = b * b &#45; 4 * a * c</text>
</g>
<!-- 1&#45;&gt;3 -->
<g id="edge2" class="edge">
<title>1&#45;&gt;3</title>
<path fill="none" stroke="green" d="M187.62,-655.6C187.62,-648.11 187.62,-639.59 187.62,-631.61"/>
<polygon fill="green" stroke="green" points="191.13,-631.65 187.63,-621.65 184.13,-631.65 191.13,-631.65"/>
</g>
<!-- 2 -->
<g id="node2" class="node">
<title>2</title>
<ellipse fill="none" stroke="black" cx="276.62" cy="-22" rx="81.25" ry="18"/>
<ellipse fill="none" stroke="black" cx="276.62" cy="-22" rx="85.25" ry="22"/>
<text text-anchor="middle" x="276.62" y="-15.82" font-family="Times,serif" font-size="14.00">1: exit: roots(a, b, c)</text>
</g>
<!-- 12 -->
<g id="node3" class="node">
<title>12</title>
<polygon fill="none" stroke="black" points="388.5,-116 164.75,-116 164.75,-80 388.5,-80 388.5,-116"/>
<text text-anchor="middle" x="276.62" y="-91.83" font-family="Times,serif" font-size="14.00">13: return (&#45;ba2 + s / a2, &#45;ba2 &#45; s / a2)</text>
</g>
<!-- 12&#45;&gt;2 -->
<g id="edge1" class="edge">
<title>12&#45;&gt;2</title>
<path fill="none" stroke="green" d="M276.62,-79.84C276.62,-72.64 276.62,-64.02 276.62,-55.7"/>
<polygon fill="green" stroke="green" points="280.13,-55.82 276.63,-45.82 273.13,-55.82 280.13,-55.82"/>
</g>
<!-- 4 -->
<g id="node5" class="node">
<title>4</title>
<ellipse fill="none" stroke="black" cx="187.62" cy="-530" rx="81.73" ry="18"/>
<text text-anchor="middle" x="187.62" y="-523.83" font-family="Times,serif" font-size="14.00">3: ax: float = 0.5 * d</text>
</g>
<!-- 3&#45;&gt;4 -->
<g id="edge3" class="edge">
<title>3&#45;&gt;4</title>
<path fill="none" stroke="green" d="M187.62,-583.7C187.62,-576.41 187.62,-567.73 187.62,-559.54"/>
<polygon fill="green" stroke="green" points="191.13,-559.62 187.63,-549.62 184.13,-559.62 191.13,-559.62"/>
</g>
<!-- 5 -->
<g id="node6" class="node">
<title>5</title>
<ellipse fill="none" stroke="black" cx="187.62" cy="-458" rx="62.17" ry="18"/>
<text text-anchor="middle" x="187.62" y="-451.82" font-family="Times,serif" font-size="14.00">4: bx: float = 0</text>
</g>
<!-- 4&#45;&gt;5 -->
<g id="edge4" class="edge">
<title>4&#45;&gt;5</title>
<path fill="none" stroke="green" d="M187.62,-511.7C187.62,-504.41 187.62,-495.73 187.62,-487.54"/>
<polygon fill="green" stroke="green" points="191.13,-487.62 187.63,-477.62 184.13,-487.62 191.13,-487.62"/>
</g>
<!-- 6 -->
<g id="node7" class="node">
<title>6</title>
<polygon fill="none" stroke="black" points="187.62,-404 62.6,-386 187.62,-368 312.65,-386 187.62,-404"/>
<text text-anchor="middle" x="187.62" y="-379.82" font-family="Times,serif" font-size="14.00">5: while: ax &#45; bx &gt; 0.1</text>
</g>
<!-- 5&#45;&gt;6 -->
<g id="edge5" class="edge">
<title>5&#45;&gt;6</title>
<path fill="none" stroke="green" d="M187.62,-439.7C187.62,-432.41 187.62,-423.73 187.62,-415.54"/>
<polygon fill="green" stroke="green" points="191.13,-415.62 187.63,-405.62 184.13,-415.62 191.13,-415.62"/>
</g>
<!-- 7 -->
<g id="node9" class="node">
<title>7</title>
<polygon fill="none" stroke="black" points="159.25,-332 0,-332 0,-296 159.25,-296 159.25,-332"/>
<text text-anchor="middle" x="79.62" y="-307.82" font-family="Times,serif" font-size="14.00">6: bx = 0.5 * (ax + d / ax)</text>
</g>
<!-- 6&#45;&gt;7 -->
<g id="edge7" class="edge">
<title>6&#45;&gt;7</title>
<path fill="none" stroke="red" d="M165.77,-370.83C151.45,-361.55 132.38,-349.19 115.82,-338.46"/>
<polygon fill="red" stroke="red" points="117.99,-335.69 107.69,-333.19 114.18,-341.57 117.99,-335.69"/>
</g>
<!-- 9 -->
<g id="node10" class="node">
<title>9</title>
<ellipse fill="none" stroke="black" cx="276.62" cy="-314" rx="61.22" ry="18"/>
<text text-anchor="middle" x="276.62" y="-307.82" font-family="Times,serif" font-size="14.00">9: s: float = bx</text>
</g>
<!-- 6&#45;&gt;9 -->
<g id="edge9" class="edge">
<title>6&#45;&gt;9</title>
<path fill="none" stroke="green" d="M206.07,-370.5C217.9,-361.19 233.52,-348.9 247.06,-338.25"/>
<polygon fill="green" stroke="green" points="249.14,-341.07 254.84,-332.13 244.82,-335.56 249.14,-341.07"/>
</g>
<!-- 8 -->
<g id="node8" class="node">
<title>8</title>
<polygon fill="none" stroke="black" points="147.75,-260 75.5,-260 75.5,-224 147.75,-224 147.75,-260"/>
<text text-anchor="middle" x="111.62" y="-235.82" font-family="Times,serif" font-size="14.00">7: ax = bx</text>
</g>
<!-- 8&#45;&gt;6 -->
<g id="edge6" class="edge">
<title>8&#45;&gt;6</title>
<path fill="none" stroke="red" d="M136.31,-260.27C147.82,-269.58 160.69,-282.01 168.62,-296 179.13,-314.51 183.84,-338.18 185.94,-356.46"/>
<polygon fill="red" stroke="red" points="182.45,-356.71 186.87,-366.35 189.42,-356.06 182.45,-356.71"/>
</g>
<!-- 7&#45;&gt;8 -->
<g id="edge8" class="edge">
<title>7&#45;&gt;8</title>
<path fill="none" stroke="red" d="M87.54,-295.7C91.02,-288.07 95.21,-278.92 99.1,-270.4"/>
<polygon fill="red" stroke="red" points="102.2,-272.03 103.18,-261.48 95.84,-269.12 102.2,-272.03"/>
</g>
<!-- 10 -->
<g id="node11" class="node">
<title>10</title>
<ellipse fill="none" stroke="black" cx="276.62" cy="-242" rx="78.87" ry="18"/>
<text text-anchor="middle" x="276.62" y="-235.82" font-family="Times,serif" font-size="14.00">10: a2: float = 2 * a</text>
</g>
<!-- 9&#45;&gt;10 -->
<g id="edge10" class="edge">
<title>9&#45;&gt;10</title>
<path fill="none" stroke="green" d="M276.62,-295.7C276.62,-288.41 276.62,-279.73 276.62,-271.54"/>
<polygon fill="green" stroke="green" points="280.13,-271.62 276.63,-261.62 273.13,-271.62 280.13,-271.62"/>
</g>
<!-- 11 -->
<g id="node12" class="node">
<title>11</title>
<ellipse fill="none" stroke="black" cx="276.62" cy="-170" rx="85.55" ry="18"/>
<text text-anchor="middle" x="276.62" y="-163.82" font-family="Times,serif" font-size="14.00">11: ba2: float = b / a2</text>
</g>
<!-- 10&#45;&gt;11 -->
<g id="edge11" class="edge">
<title>10&#45;&gt;11</title>
<path fill="none" stroke="green" d="M276.62,-223.7C276.62,-216.41 276.62,-207.73 276.62,-199.54"/>
<polygon fill="green" stroke="green" points="280.13,-199.62 276.63,-189.62 273.13,-199.62 280.13,-199.62"/>
</g>
<!-- 11&#45;&gt;12 -->
<g id="edge12" class="edge">
<title>11&#45;&gt;12</title>
<path fill="none" stroke="green" d="M276.62,-151.7C276.62,-144.41 276.62,-135.73 276.62,-127.54"/>
<polygon fill="green" stroke="green" points="280.13,-127.62 276.63,-117.62 273.13,-127.62 280.13,-127.62"/>
</g>
</g>
</svg>