<svg xmlns="http://www.w3.org/2000/svg" class="railroad-diagram" height="152" viewBox="0 0 643.5 152" width="643.5">
<g transform="translate(.5 .5)">
<style>/* <![CDATA[ */
    svg.railroad-diagram {
    }
    svg.railroad-diagram path {
        stroke-width:3;
        stroke:black;
        fill:white;
    }
    svg.railroad-diagram text {
        font:14px "Fira Mono", monospace;
        text-anchor:middle;
    }
    svg.railroad-diagram text.label{
        text-anchor:start;
    }
    svg.railroad-diagram text.comment{
        font:italic 12px "Fira Mono", monospace;
    }
    svg.railroad-diagram rect{
        stroke-width:2;
        stroke:black;
        fill:mistyrose;
    }

/* ]]> */
</style><g>
<path d="M20 81v20m10 -20v20m-10 -10h20"/></g><g>
<path d="M40 91h0.0"/><path d="M603.5 91h0.0"/><path d="M40.0 91a10 10 0 0 0 10 -10v-10a10 10 0 0 1 10 -10"/><g>
<path d="M60.0 61h0.0"/><path d="M583.5 61h0.0"/><g class="non-terminal">
<path d="M60.0 61h0.0"/><path d="M131.0 61h0.0"/><rect height="22" width="71.0" x="60.0" y="50"/><text x="95.5" y="65">scheme</text></g><path d="M131.0 61h10"/><path d="M141.0 61h10"/><g class="terminal">
<path d="M151.0 61h0.0"/><path d="M196.5 61h0.0"/><rect height="22" rx="10" ry="10" width="45.5" x="151.0" y="50"/><text x="173.75" y="65">://</text></g><path d="M196.5 61h10"/><path d="M206.5 61h10"/><g class="non-terminal">
<path d="M216.5 61h0.0"/><path d="M287.5 61h0.0"/><rect height="22" width="71.0" x="216.5" y="50"/><text x="252.0" y="65">netloc</text></g><path d="M287.5 61h10"/><path d="M297.5 61h10"/><g class="terminal">
<path d="M307.5 61h0.0"/><path d="M344.5 61h0.0"/><rect height="22" rx="10" ry="10" width="37.0" x="307.5" y="50"/><text x="326.0" y="65">/?</text></g><path d="M344.5 61h10"/><path d="M354.5 61h10"/><g class="non-terminal">
<path d="M364.5 61h0.0"/><path d="M427.0 61h0.0"/><rect height="22" width="62.5" x="364.5" y="50"/><text x="395.75" y="65">query</text></g><path d="M427.0 61h10"/><path d="M437.0 61h10"/><g class="terminal">
<path d="M447.0 61h0.0"/><path d="M475.5 61h0.0"/><rect height="22" rx="10" ry="10" width="28.5" x="447.0" y="50"/><text x="461.25" y="65">#</text></g><path d="M475.5 61h10"/><path d="M485.5 61h10"/><g class="non-terminal">
<path d="M495.5 61h0.0"/><path d="M583.5 61h0.0"/><rect height="22" width="88.0" x="495.5" y="50"/><text x="539.5" y="65">fragment</text></g></g><path d="M583.5 61a10 10 0 0 1 10 10v10a10 10 0 0 0 10 10"/><path d="M40.0 91a10 10 0 0 0 10 -10v-40a10 10 0 0 1 10 -10"/><g>
<path d="M60.0 31h196.5"/><path d="M387.0 31h196.5"/><g class="terminal">
<path d="M256.5 31h0.0"/><path d="M387.0 31h0.0"/><rect height="22" rx="10" ry="10" width="130.5" x="256.5" y="20"/><text x="321.75" y="35">/releases/5.8</text></g></g><path d="M583.5 31a10 10 0 0 1 10 10v40a10 10 0 0 0 10 10"/><path d="M40.0 91h20"/><g>
<path d="M60.0 91h123.75"/><path d="M459.75 91h123.75"/><g class="non-terminal">
<path d="M183.75 91h0.0"/><path d="M254.75 91h0.0"/><rect height="22" width="71.0" x="183.75" y="80"/><text x="219.25" y="95">scheme</text></g><path d="M254.75 91h10"/><path d="M264.75 91h10"/><g class="terminal">
<path d="M274.75 91h0.0"/><path d="M320.25 91h0.0"/><rect height="22" rx="10" ry="10" width="45.5" x="274.75" y="80"/><text x="297.5" y="95">://</text></g><path d="M320.25 91h10"/><path d="M330.25 91h10"/><g class="non-terminal">
<path d="M340.25 91h0.0"/><path d="M411.25 91h0.0"/><rect height="22" width="71.0" x="340.25" y="80"/><text x="375.75" y="95">netloc</text></g><path d="M411.25 91h10"/><path d="M421.25 91h10"/><g class="terminal">
<path d="M431.25 91h0.0"/><path d="M459.75 91h0.0"/><rect height="22" rx="10" ry="10" width="28.5" x="431.25" y="80"/><text x="445.5" y="95">/</text></g></g><path d="M583.5 91h20"/><path d="M40.0 91a10 10 0 0 1 10 10v10a10 10 0 0 0 10 10"/><g>
<path d="M60.0 121h65.5"/><path d="M518.0 121h65.5"/><g class="non-terminal">
<path d="M125.5 121h0.0"/><path d="M196.5 121h0.0"/><rect height="22" width="71.0" x="125.5" y="110"/><text x="161.0" y="125">scheme</text></g><path d="M196.5 121h10"/><path d="M206.5 121h10"/><g class="terminal">
<path d="M216.5 121h0.0"/><path d="M262.0 121h0.0"/><rect height="22" rx="10" ry="10" width="45.5" x="216.5" y="110"/><text x="239.25" y="125">://</text></g><path d="M262.0 121h10"/><path d="M272.0 121h10"/><g class="non-terminal">
<path d="M282.0 121h0.0"/><path d="M353.0 121h0.0"/><rect height="22" width="71.0" x="282.0" y="110"/><text x="317.5" y="125">netloc</text></g><path d="M353.0 121h10"/><path d="M363.0 121h10"/><g class="terminal">
<path d="M373.0 121h0.0"/><path d="M410.0 121h0.0"/><rect height="22" rx="10" ry="10" width="37.0" x="373.0" y="110"/><text x="391.5" y="125">/#</text></g><path d="M410.0 121h10"/><path d="M420.0 121h10"/><g class="non-terminal">
<path d="M430.0 121h0.0"/><path d="M518.0 121h0.0"/><rect height="22" width="88.0" x="430.0" y="110"/><text x="474.0" y="125">fragment</text></g></g><path d="M583.5 121a10 10 0 0 0 10 -10v-10a10 10 0 0 1 10 -10"/></g><path d="M 603.5 91 h 20 m -10 -10 v 20 m 10 -20 v 20"/></g></svg>