<svg xmlns="http://www.w3.org/2000/svg" class="railroad-diagram" height="152" viewBox="0 0 369.5 152" width="369.5">
<g transform="translate(.5 .5)">
<style>/* <![CDATA[ */
    svg.railroad-diagram {
    }
    svg.railroad-diagram path {
        stroke-width:3;
        stroke:black;
        fill:white;
    }
    svg.railroad-diagram text {
        font:14px "Fira Mono", monospace;
        text-anchor:middle;
    }
    svg.railroad-diagram text.label{
        text-anchor:start;
    }
    svg.railroad-diagram text.comment{
        font:italic 12px "Fira Mono", monospace;
    }
    svg.railroad-diagram rect{
        stroke-width:2;
        stroke:black;
        fill:mistyrose;
    }

/* ]]> */
</style><g>
<path d="M20 81v20m10 -20v20m-10 -10h20"/></g><g>
<path d="M40 91h0.0"/><path d="M329.5 91h0.0"/><path d="M40.0 91a10 10 0 0 0 10 -10v-10a10 10 0 0 1 10 -10"/><g>
<path d="M60.0 61h34.0"/><path d="M275.5 61h34.0"/><g class="terminal">
<path d="M94.0 61h0.0"/><path d="M275.5 61h0.0"/><rect height="22" rx="10" ry="10" width="181.5" x="94.0" y="50"/><text x="184.75" y="65">www.fuzzingbook.org</text></g></g><path d="M309.5 61a10 10 0 0 1 10 10v10a10 10 0 0 0 10 10"/><path d="M40.0 91a10 10 0 0 0 10 -10v-40a10 10 0 0 1 10 -10"/><g>
<path d="M60.0 31h25.5"/><path d="M284.0 31h25.5"/><g class="terminal">
<path d="M85.5 31h0.0"/><path d="M284.0 31h0.0"/><rect height="22" rx="10" ry="10" width="198.5" x="85.5" y="20"/><text x="184.75" y="35">www.cispa.saarland:80</text></g></g><path d="M309.5 31a10 10 0 0 1 10 10v40a10 10 0 0 0 10 10"/><path d="M40.0 91h20"/><g>
<path d="M60.0 91h68.0"/><path d="M241.5 91h68.0"/><g class="terminal">
<path d="M128.0 91h0.0"/><path d="M241.5 91h0.0"/><rect height="22" rx="10" ry="10" width="113.5" x="128.0" y="80"/><text x="184.75" y="95">freebsd.org</text></g></g><path d="M309.5 91h20"/><path d="M40.0 91a10 10 0 0 1 10 10v10a10 10 0 0 0 10 10"/><g>
<path d="M60.0 121h0.0"/><path d="M309.5 121h0.0"/><g class="terminal">
<path d="M60.0 121h0.0"/><path d="M309.5 121h0.0"/><rect height="22" rx="10" ry="10" width="249.5" x="60.0" y="110"/><text x="184.75" y="125">user:pass@www.google.com:80</text></g></g><path d="M309.5 121a10 10 0 0 0 10 -10v-10a10 10 0 0 1 10 -10"/></g><path d="M 329.5 91 h 20 m -10 -10 v 20 m 10 -20 v 20"/></g></svg>