<?xml version="1.0" encoding="UTF-8" standalone="no"?>
<!DOCTYPE svg PUBLIC "-//W3C//DTD SVG 1.1//EN"
 "http://www.w3.org/Graphics/SVG/1.1/DTD/svg11.dtd">
<!-- Generated by graphviz version 12.2.1 (20241206.2353)
 -->
<!-- Pages: 1 -->
<svg width="597pt" height="780pt"
 viewBox="0.00 0.00 597.12 780.00" xmlns="http://www.w3.org/2000/svg" xmlns:xlink="http://www.w3.org/1999/xlink">
<g id="graph0" class="graph" transform="scale(1 1) rotate(0) translate(4 776)">
<polygon fill="white" stroke="none" points="-4,4 -4,-776 593.12,-776 593.12,4 -4,4"/>
<!-- 1 -->
<g id="node1" class="node">
<title>1</title>
<ellipse fill="none" stroke="black" cx="287.25" cy="-750" rx="89.84" ry="18"/>
<ellipse fill="none" stroke="black" cx="287.25" cy="-750" rx="93.84" ry="22"/>
<text text-anchor="middle" x="287.25" y="-743.83" font-family="Times,serif" font-size="14.00">1: enter: roots3(a, b, c)</text>
</g>
<!-- 3 -->
<g id="node6" class="node">
<title>3</title>
<ellipse fill="none" stroke="black" cx="287.25" cy="-674" rx="108.92" ry="18"/>
<text text-anchor="middle" x="287.25" y="-667.83" font-family="Times,serif" font-size="14.00">2: d: float = b * b &#45; 4 * a * c</text>
</g>
<!-- 1&#45;&gt;3 -->
<g id="edge4" class="edge">
<title>1&#45;&gt;3</title>
<path fill="none" stroke="green" d="M287.25,-727.6C287.25,-720.11 287.25,-711.59 287.25,-703.61"/>
<polygon fill="green" stroke="green" points="290.75,-703.65 287.25,-693.65 283.75,-703.65 290.75,-703.65"/>
</g>
<!-- 2 -->
<g id="node2" class="node">
<title>2</title>
<ellipse fill="none" stroke="black" cx="274.25" cy="-22" rx="85.55" ry="18"/>
<ellipse fill="none" stroke="black" cx="274.25" cy="-22" rx="89.55" ry="22"/>
<text text-anchor="middle" x="274.25" y="-15.82" font-family="Times,serif" font-size="14.00">1: exit: roots3(a, b, c)</text>
</g>
<!-- 12 -->
<g id="node3" class="node">
<title>12</title>
<polygon fill="none" stroke="black" points="182.5,-116 0,-116 0,-80 182.5,-80 182.5,-116"/>
<text text-anchor="middle" x="91.25" y="-91.83" font-family="Times,serif" font-size="14.00">13: return (math.inf, math.inf)</text>
</g>
<!-- 12&#45;&gt;2 -->
<g id="edge1" class="edge">
<title>12&#45;&gt;2</title>
<path fill="none" stroke="red" d="M134.16,-79.65C159.24,-69.51 191.2,-56.58 218.25,-45.64"/>
<polygon fill="red" stroke="red" points="219.38,-48.96 227.33,-41.97 216.75,-42.48 219.38,-48.96"/>
</g>
<!-- 13 -->
<g id="node4" class="node">
<title>13</title>
<polygon fill="none" stroke="black" points="347.5,-116 201,-116 201,-80 347.5,-80 347.5,-116"/>
<text text-anchor="middle" x="274.25" y="-91.83" font-family="Times,serif" font-size="14.00">14: return (&#45;c / b, &#45;c / b)</text>
</g>
<!-- 13&#45;&gt;2 -->
<g id="edge2" class="edge">
<title>13&#45;&gt;2</title>
<path fill="none" stroke="red" d="M274.25,-79.84C274.25,-72.64 274.25,-64.02 274.25,-55.7"/>
<polygon fill="red" stroke="red" points="277.75,-55.82 274.25,-45.82 270.75,-55.82 277.75,-55.82"/>
</g>
<!-- 16 -->
<g id="node5" class="node">
<title>16</title>
<polygon fill="none" stroke="black" points="589.12,-116 365.38,-116 365.38,-80 589.12,-80 589.12,-116"/>
<text text-anchor="middle" x="477.25" y="-91.83" font-family="Times,serif" font-size="14.00">18: return (&#45;ba2 + s / a2, &#45;ba2 &#45; s / a2)</text>
</g>
<!-- 16&#45;&gt;2 -->
<g id="edge3" class="edge">
<title>16&#45;&gt;2</title>
<path fill="none" stroke="green" d="M429.4,-79.56C400.77,-69.12 364.16,-55.77 333.69,-44.67"/>
<polygon fill="green" stroke="green" points="335.21,-41.5 324.61,-41.36 332.81,-48.07 335.21,-41.5"/>
</g>
<!-- 4 -->
<g id="node7" class="node">
<title>4</title>
<ellipse fill="none" stroke="black" cx="287.25" cy="-602" rx="81.73" ry="18"/>
<text text-anchor="middle" x="287.25" y="-595.83" font-family="Times,serif" font-size="14.00">4: xa: float = 0.5 * d</text>
</g>
<!-- 3&#45;&gt;4 -->
<g id="edge5" class="edge">
<title>3&#45;&gt;4</title>
<path fill="none" stroke="green" d="M287.25,-655.7C287.25,-648.41 287.25,-639.73 287.25,-631.54"/>
<polygon fill="green" stroke="green" points="290.75,-631.62 287.25,-621.62 283.75,-631.62 290.75,-631.62"/>
</g>
<!-- 5 -->
<g id="node8" class="node">
<title>5</title>
<ellipse fill="none" stroke="black" cx="287.25" cy="-530" rx="62.17" ry="18"/>
<text text-anchor="middle" x="287.25" y="-523.83" font-family="Times,serif" font-size="14.00">5: xb: float = 0</text>
</g>
<!-- 4&#45;&gt;5 -->
<g id="edge6" class="edge">
<title>4&#45;&gt;5</title>
<path fill="none" stroke="green" d="M287.25,-583.7C287.25,-576.41 287.25,-567.73 287.25,-559.54"/>
<polygon fill="green" stroke="green" points="290.75,-559.62 287.25,-549.62 283.75,-559.62 290.75,-559.62"/>
</g>
<!-- 6 -->
<g id="node9" class="node">
<title>6</title>
<polygon fill="none" stroke="black" points="287.25,-476 162.22,-458 287.25,-440 412.28,-458 287.25,-476"/>
<text text-anchor="middle" x="287.25" y="-451.82" font-family="Times,serif" font-size="14.00">6: while: xa &#45; xb &gt; 0.1</text>
</g>
<!-- 5&#45;&gt;6 -->
<g id="edge7" class="edge">
<title>5&#45;&gt;6</title>
<path fill="none" stroke="green" d="M287.25,-511.7C287.25,-504.41 287.25,-495.73 287.25,-487.54"/>
<polygon fill="green" stroke="green" points="290.75,-487.62 287.25,-477.62 283.75,-487.62 290.75,-487.62"/>
</g>
<!-- 7 -->
<g id="node11" class="node">
<title>7</title>
<polygon fill="none" stroke="black" points="258.88,-404 99.62,-404 99.62,-368 258.88,-368 258.88,-404"/>
<text text-anchor="middle" x="179.25" y="-379.82" font-family="Times,serif" font-size="14.00">7: xb = 0.5 * (xa + d / xa)</text>
</g>
<!-- 6&#45;&gt;7 -->
<g id="edge9" class="edge">
<title>6&#45;&gt;7</title>
<path fill="none" stroke="green" d="M265.39,-442.83C251.07,-433.55 232,-421.19 215.45,-410.46"/>
<polygon fill="green" stroke="green" points="217.61,-407.69 207.32,-405.19 213.8,-413.57 217.61,-407.69"/>
</g>
<!-- 9 -->
<g id="node12" class="node">
<title>9</title>
<ellipse fill="none" stroke="black" cx="376.25" cy="-386" rx="61.22" ry="18"/>
<text text-anchor="middle" x="376.25" y="-379.82" font-family="Times,serif" font-size="14.00">9: s: float = xb</text>
</g>
<!-- 6&#45;&gt;9 -->
<g id="edge11" class="edge">
<title>6&#45;&gt;9</title>
<path fill="none" stroke="green" d="M305.69,-442.5C317.52,-433.19 333.15,-420.9 346.69,-410.25"/>
<polygon fill="green" stroke="green" points="348.77,-413.07 354.47,-404.13 344.44,-407.56 348.77,-413.07"/>
</g>
<!-- 8 -->
<g id="node10" class="node">
<title>8</title>
<polygon fill="none" stroke="black" points="246.38,-332 174.12,-332 174.12,-296 246.38,-296 246.38,-332"/>
<text text-anchor="middle" x="210.25" y="-307.82" font-family="Times,serif" font-size="14.00">8: xa = xb</text>
</g>
<!-- 8&#45;&gt;6 -->
<g id="edge8" class="edge">
<title>8&#45;&gt;6</title>
<path fill="none" stroke="green" d="M235.67,-332.42C247.3,-341.68 260.25,-354.03 268.25,-368 278.83,-386.47 283.54,-410.14 285.62,-428.43"/>
<polygon fill="green" stroke="green" points="282.13,-428.69 286.53,-438.32 289.1,-428.05 282.13,-428.69"/>
</g>
<!-- 7&#45;&gt;8 -->
<g id="edge10" class="edge">
<title>7&#45;&gt;8</title>
<path fill="none" stroke="green" d="M186.91,-367.7C190.29,-360.07 194.34,-350.92 198.12,-342.4"/>
<polygon fill="green" stroke="green" points="201.21,-344.05 202.06,-333.49 194.81,-341.21 201.21,-344.05"/>
</g>
<!-- 10 -->
<g id="node13" class="node">
<title>10</title>
<polygon fill="none" stroke="black" points="376.25,-332 295.75,-314 376.25,-296 456.75,-314 376.25,-332"/>
<text text-anchor="middle" x="376.25" y="-307.82" font-family="Times,serif" font-size="14.00">11: if: a == 0</text>
</g>
<!-- 9&#45;&gt;10 -->
<g id="edge12" class="edge">
<title>9&#45;&gt;10</title>
<path fill="none" stroke="green" d="M376.25,-367.7C376.25,-360.41 376.25,-351.73 376.25,-343.54"/>
<polygon fill="green" stroke="green" points="379.75,-343.62 376.25,-333.62 372.75,-343.62 379.75,-343.62"/>
</g>
<!-- 11 -->
<g id="node14" class="node">
<title>11</title>
<polygon fill="none" stroke="black" points="274.25,-188 193.07,-170 274.25,-152 355.43,-170 274.25,-188"/>
<text text-anchor="middle" x="274.25" y="-163.82" font-family="Times,serif" font-size="14.00">12: if: b == 0</text>
</g>
<!-- 10&#45;&gt;11 -->
<g id="edge13" class="edge">
<title>10&#45;&gt;11</title>
<path fill="none" stroke="red" d="M365.53,-298.07C347.88,-273.51 312.57,-224.35 291.42,-194.9"/>
<polygon fill="red" stroke="red" points="294.39,-193.04 285.71,-186.96 288.7,-197.12 294.39,-193.04"/>
</g>
<!-- 14 -->
<g id="node15" class="node">
<title>14</title>
<ellipse fill="none" stroke="black" cx="439.25" cy="-242" rx="78.87" ry="18"/>
<text text-anchor="middle" x="439.25" y="-235.82" font-family="Times,serif" font-size="14.00">16: a2: float = 2 * a</text>
</g>
<!-- 10&#45;&gt;14 -->
<g id="edge16" class="edge">
<title>10&#45;&gt;14</title>
<path fill="none" stroke="green" d="M389.3,-298.5C397.11,-289.82 407.25,-278.56 416.35,-268.45"/>
<polygon fill="green" stroke="green" points="418.89,-270.85 422.98,-261.08 413.69,-266.17 418.89,-270.85"/>
</g>
<!-- 11&#45;&gt;12 -->
<g id="edge14" class="edge">
<title>11&#45;&gt;12</title>
<path fill="none" stroke="red" d="M245.66,-158.06C219.46,-148.04 179.95,-132.93 147.44,-120.5"/>
<polygon fill="red" stroke="red" points="148.73,-117.24 138.13,-116.93 146.22,-123.78 148.73,-117.24"/>
</g>
<!-- 11&#45;&gt;13 -->
<g id="edge15" class="edge">
<title>11&#45;&gt;13</title>
<path fill="none" stroke="red" d="M274.25,-151.7C274.25,-144.41 274.25,-135.73 274.25,-127.54"/>
<polygon fill="red" stroke="red" points="277.75,-127.62 274.25,-117.62 270.75,-127.62 277.75,-127.62"/>
</g>
<!-- 15 -->
<g id="node16" class="node">
<title>15</title>
<ellipse fill="none" stroke="black" cx="468.25" cy="-170" rx="85.55" ry="18"/>
<text text-anchor="middle" x="468.25" y="-163.82" font-family="Times,serif" font-size="14.00">17: ba2: float = b / a2</text>
</g>
<!-- 14&#45;&gt;15 -->
<g id="edge17" class="edge">
<title>14&#45;&gt;15</title>
<path fill="none" stroke="green" d="M446.42,-223.7C449.54,-216.15 453.29,-207.12 456.78,-198.68"/>
<polygon fill="green" stroke="green" points="459.99,-200.08 460.58,-189.5 453.52,-197.4 459.99,-200.08"/>
</g>
<!-- 15&#45;&gt;16 -->
<g id="edge18" class="edge">
<title>15&#45;&gt;16</title>
<path fill="none" stroke="green" d="M470.47,-151.7C471.42,-144.32 472.55,-135.52 473.62,-127.25"/>
<polygon fill="green" stroke="green" points="477.05,-127.97 474.86,-117.61 470.11,-127.08 477.05,-127.97"/>
</g>
</g>
</svg>