<?xml version="1.0" encoding="UTF-8" standalone="no"?>
<!DOCTYPE svg PUBLIC "-//W3C//DTD SVG 1.1//EN"
 "http://www.w3.org/Graphics/SVG/1.1/DTD/svg11.dtd">
<!-- Generated by graphviz version 12.2.1 (20241206.2353)
 -->
<!-- Pages: 1 -->
<svg width="64pt" height="173pt"
 viewBox="0.00 0.00 64.12 173.00" xmlns="http://www.w3.org/2000/svg" xmlns:xlink="http://www.w3.org/1999/xlink">
<g id="graph0" class="graph" transform="scale(1 1) rotate(0) translate(4 169)">
<polygon fill="white" stroke="none" points="-4,4 -4,-169 60.12,-169 60.12,4 -4,4"/>
<!-- 0 -->
<g id="node1" class="node">
<title>0</title>
<text text-anchor="middle" x="31.12" y="-151.7" font-family="Times,serif" font-size="14.00">&lt;start&gt;</text>
</g>
<!-- 1 -->
<g id="node2" class="node">
<title>1</title>
<text text-anchor="middle" x="31.12" y="-101.45" font-family="Times,serif" font-size="14.00">&lt;A&gt;</text>
</g>
<!-- 0&#45;&gt;1 -->
<g id="edge1" class="edge">
<title>0&#45;&gt;1</title>
<path fill="none" stroke="black" d="M31.12,-150.96C31.12,-144.74 31.12,-134.65 31.12,-125.89"/>
<polygon fill="black" stroke="black" points="34.63,-126.1 31.13,-116.1 27.63,-126.1 34.63,-126.1"/>
</g>
<!-- 2 -->
<g id="node3" class="node">
<title>2</title>
<text text-anchor="middle" x="13.12" y="-51.2" font-family="Times,serif" font-size="14.00">&lt;A&gt;</text>
</g>
<!-- 1&#45;&gt;2 -->
<g id="edge2" class="edge">
<title>1&#45;&gt;2</title>
<path fill="none" stroke="black" d="M28.92,-100.71C26.54,-94.34 22.66,-83.93 19.34,-75.03"/>
<polygon fill="black" stroke="black" points="22.65,-73.9 15.88,-65.76 16.1,-76.35 22.65,-73.9"/>
</g>
<!-- 4 -->
<g id="node5" class="node">
<title>4</title>
<text text-anchor="middle" x="50.12" y="-51.2" font-family="Times,serif" font-size="14.00">aa</text>
</g>
<!-- 1&#45;&gt;4 -->
<g id="edge4" class="edge">
<title>1&#45;&gt;4</title>
<path fill="none" stroke="black" d="M33.45,-100.71C35.96,-94.34 40.06,-83.93 43.57,-75.03"/>
<polygon fill="black" stroke="black" points="46.81,-76.34 47.22,-65.75 40.3,-73.77 46.81,-76.34"/>
</g>
<!-- 3 -->
<g id="node4" class="node">
<title>3</title>
<text text-anchor="middle" x="13.12" y="-0.95" font-family="Times,serif" font-size="14.00">AA</text>
</g>
<!-- 2&#45;&gt;3 -->
<g id="edge3" class="edge">
<title>2&#45;&gt;3</title>
<path fill="none" stroke="black" d="M13.12,-50.46C13.12,-44.24 13.12,-34.15 13.12,-25.39"/>
<polygon fill="black" stroke="black" points="16.63,-25.6 13.13,-15.6 9.63,-25.6 16.63,-25.6"/>
</g>
</g>
</svg>