<?xml version="1.0" encoding="UTF-8" standalone="no"?>
<!DOCTYPE svg PUBLIC "-//W3C//DTD SVG 1.1//EN"
 "http://www.w3.org/Graphics/SVG/1.1/DTD/svg11.dtd">
<!-- Generated by graphviz version 12.2.1 (20241206.2353)
 -->
<!-- Pages: 1 -->
<svg width="255pt" height="209pt"
 viewBox="0.00 0.00 254.75 209.00" xmlns="http://www.w3.org/2000/svg" xmlns:xlink="http://www.w3.org/1999/xlink">
<g id="graph0" class="graph" transform="scale(1 1) rotate(0) translate(4 205)">
<polygon fill="white" stroke="none" points="-4,4 -4,-205 250.75,-205 250.75,4 -4,4"/>
<!-- 0 -->
<g id="node1" class="node">
<title>0</title>
<text text-anchor="middle" x="145.12" y="-187.7" font-family="Times,serif" font-size="14.00">&lt;start&gt;</text>
</g>
<!-- 1 -->
<g id="node2" class="node">
<title>1</title>
<text text-anchor="middle" x="145.12" y="-137.45" font-family="Times,serif" font-size="14.00">&lt;state&gt;</text>
</g>
<!-- 0&#45;&gt;1 -->
<g id="edge1" class="edge">
<title>0&#45;&gt;1</title>
<path fill="none" stroke="black" d="M145.12,-186.96C145.12,-180.74 145.12,-170.65 145.12,-161.89"/>
<polygon fill="black" stroke="black" points="148.63,-162.1 145.13,-152.1 141.63,-162.1 148.63,-162.1"/>
</g>
<!-- 2 -->
<g id="node3" class="node">
<title>2</title>
<text text-anchor="middle" x="82.12" y="-87.2" font-family="Times,serif" font-size="14.00">click(&#39;terms and conditions&#39;)\n</text>
</g>
<!-- 1&#45;&gt;2 -->
<g id="edge2" class="edge">
<title>1&#45;&gt;2</title>
<path fill="none" stroke="black" d="M137.15,-136.51C127.53,-129.15 111.13,-116.59 98.72,-107.09"/>
<polygon fill="black" stroke="black" points="101.11,-104.51 91.04,-101.21 96.85,-110.06 101.11,-104.51"/>
</g>
<!-- 3 -->
<g id="node4" class="node">
<title>3</title>
<text text-anchor="middle" x="208.12" y="-87.2" font-family="Times,serif" font-size="14.00">&lt;state&#45;1&gt;</text>
</g>
<!-- 1&#45;&gt;3 -->
<g id="edge3" class="edge">
<title>1&#45;&gt;3</title>
<path fill="none" stroke="black" d="M153.1,-136.51C162.72,-129.15 179.12,-116.59 191.53,-107.09"/>
<polygon fill="black" stroke="black" points="193.4,-110.06 199.21,-101.21 189.14,-104.51 193.4,-110.06"/>
</g>
<!-- 4 -->
<g id="node5" class="node">
<title>4</title>
<text text-anchor="middle" x="208.12" y="-36.95" font-family="Times,serif" font-size="14.00">&lt;unexplored&gt;</text>
</g>
<!-- 3&#45;&gt;4 -->
<g id="edge4" class="edge">
<title>3&#45;&gt;4</title>
<path fill="none" stroke="black" d="M208.12,-86.46C208.12,-80.24 208.12,-70.15 208.12,-61.39"/>
<polygon fill="black" stroke="black" points="211.63,-61.6 208.13,-51.6 204.63,-61.6 211.63,-61.6"/>
</g>
<!-- 5 -->
<g id="node6" class="node">
<title>5</title>
</g>
<!-- 4&#45;&gt;5 -->
<g id="edge5" class="edge">
<title>4&#45;&gt;5</title>
<path fill="none" stroke="black" d="M208.12,-36.06C208.12,-36.01 208.12,-35.97 208.12,-35.92"/>
<polygon fill="black" stroke="black" points="211.63,-47.3 208.13,-37.3 204.63,-47.3 211.63,-47.3"/>
</g>
</g>
</svg>