<svg xmlns="http://www.w3.org/2000/svg" class="railroad-diagram" height="62" viewBox="0 0 980.0 62" width="980.0">
<g transform="translate(.5 .5)">
<style>/* <![CDATA[ */
    svg.railroad-diagram {
    }
    svg.railroad-diagram path {
        stroke-width:3;
        stroke:black;
        fill:white;
    }
    svg.railroad-diagram text {
        font:14px "Fira Mono", monospace;
        text-anchor:middle;
    }
    svg.railroad-diagram text.label{
        text-anchor:start;
    }
    svg.railroad-diagram text.comment{
        font:italic 12px "Fira Mono", monospace;
    }
    svg.railroad-diagram rect{
        stroke-width:2;
        stroke:black;
        fill:mistyrose;
    }

/* ]]> */
</style><g>
<path d="M20 21v20m10 -20v20m-10 -10h20"/></g><g>
<path d="M40 31h0.0"/><path d="M940.0 31h0.0"/><path d="M40.0 31h20"/><g>
<path d="M60.0 31h0.0"/><path d="M920.0 31h0.0"/><g class="non-terminal">
<path d="M60.0 31h0.0"/><path d="M301.0 31h0.0"/><rect height="22" width="241.0" x="60.0" y="20"/><text x="180.5" y="35">process_vehicle@29:vehicle</text></g><path d="M301.0 31h10"/><path d="M311.0 31h10"/><g class="terminal">
<path d="M321.0 31h0.0"/><path d="M349.5 31h0.0"/><rect height="22" rx="10" ry="10" width="28.5" x="321.0" y="20"/><text x="335.25" y="35">
</text></g><path d="M349.5 31h10"/><path d="M359.5 31h10"/><g class="non-terminal">
<path d="M369.5 31h0.0"/><path d="M610.5 31h0.0"/><rect height="22" width="241.0" x="369.5" y="20"/><text x="490.0" y="35">process_vehicle@29:vehicle</text></g><path d="M610.5 31h10"/><path d="M620.5 31h10"/><g class="terminal">
<path d="M630.5 31h0.0"/><path d="M659.0 31h0.0"/><rect height="22" rx="10" ry="10" width="28.5" x="630.5" y="20"/><text x="644.75" y="35">
</text></g><path d="M659.0 31h10"/><path d="M669.0 31h10"/><g class="non-terminal">
<path d="M679.0 31h0.0"/><path d="M920.0 31h0.0"/><rect height="22" width="241.0" x="679.0" y="20"/><text x="799.5" y="35">process_vehicle@29:vehicle</text></g></g><path d="M920.0 31h20"/></g><path d="M 940.0 31 h 20 m -10 -10 v 20 m 10 -20 v 20"/></g></svg>