<svg xmlns="http://www.w3.org/2000/svg" class="railroad-diagram" height="92" viewBox="0 0 271.0 92" width="271.0">
<g transform="translate(.5 .5)">
<style>/* <![CDATA[ */
    svg.railroad-diagram {
    }
    svg.railroad-diagram path {
        stroke-width:3;
        stroke:black;
        fill:white;
    }
    svg.railroad-diagram text {
        font:14px "Fira Mono", monospace;
        text-anchor:middle;
    }
    svg.railroad-diagram text.label{
        text-anchor:start;
    }
    svg.railroad-diagram text.comment{
        font:italic 12px "Fira Mono", monospace;
    }
    svg.railroad-diagram rect{
        stroke-width:2;
        stroke:black;
        fill:mistyrose;
    }

/* ]]> */
</style><g>
<path d="M20 51v20m10 -20v20m-10 -10h20"/></g><g>
<path d="M40 61h0.0"/><path d="M231.0 61h0.0"/><path d="M40.0 61a10 10 0 0 0 10 -10v-10a10 10 0 0 1 10 -10"/><g>
<path d="M60.0 31h4.25"/><path d="M206.75 31h4.25"/><g class="non-terminal">
<path d="M64.25 31h0.0"/><path d="M101.25 31h0.0"/><rect height="22" width="37.0" x="64.25" y="20"/><text x="82.75" y="35">id</text></g><path d="M101.25 31h10"/><path d="M111.25 31h10"/><g class="terminal">
<path d="M121.25 31h0.0"/><path d="M149.75 31h0.0"/><rect height="22" rx="10" ry="10" width="28.5" x="121.25" y="20"/><text x="135.5" y="35">=</text></g><path d="M149.75 31h10"/><path d="M159.75 31h10"/><g class="non-terminal">
<path d="M169.75 31h0.0"/><path d="M206.75 31h0.0"/><rect height="22" width="37.0" x="169.75" y="20"/><text x="188.25" y="35">id</text></g></g><path d="M211.0 31a10 10 0 0 1 10 10v10a10 10 0 0 0 10 10"/><path d="M40.0 61h20"/><g>
<path d="M60.0 61h0.0"/><path d="M211.0 61h0.0"/><g class="non-terminal">
<path d="M60.0 61h0.0"/><path d="M97.0 61h0.0"/><rect height="22" width="37.0" x="60.0" y="50"/><text x="78.5" y="65">id</text></g><path d="M97.0 61h10"/><path d="M107.0 61h10"/><g class="terminal">
<path d="M117.0 61h0.0"/><path d="M145.5 61h0.0"/><rect height="22" rx="10" ry="10" width="28.5" x="117.0" y="50"/><text x="131.25" y="65">=</text></g><path d="M145.5 61h10"/><path d="M155.5 61h10"/><g class="non-terminal">
<path d="M165.5 61h0.0"/><path d="M211.0 61h0.0"/><rect height="22" width="45.5" x="165.5" y="50"/><text x="188.25" y="65">nat</text></g></g><path d="M211.0 61h20"/></g><path d="M 231.0 61 h 20 m -10 -10 v 20 m 10 -20 v 20"/></g></svg>