<?xml version="1.0" encoding="UTF-8" standalone="no"?>
<!DOCTYPE svg PUBLIC "-//W3C//DTD SVG 1.1//EN"
 "http://www.w3.org/Graphics/SVG/1.1/DTD/svg11.dtd">
<!-- Generated by graphviz version 12.2.1 (20241206.2353)
 -->
<!-- Pages: 1 -->
<svg width="142pt" height="123pt"
 viewBox="0.00 0.00 142.25 122.75" xmlns="http://www.w3.org/2000/svg" xmlns:xlink="http://www.w3.org/1999/xlink">
<g id="graph0" class="graph" transform="scale(1 1) rotate(0) translate(4 118.75)">
<polygon fill="white" stroke="none" points="-4,4 -4,-118.75 138.25,-118.75 138.25,4 -4,4"/>
<!-- 0 -->
<g id="node1" class="node">
<title>0</title>
<text text-anchor="middle" x="66.25" y="-101.45" font-family="Times,serif" font-size="14.00">&lt;start&gt;</text>
</g>
<!-- 1 -->
<g id="node2" class="node">
<title>1</title>
<text text-anchor="middle" x="66.25" y="-51.2" font-family="Times,serif" font-size="14.00">&lt;expr&gt;</text>
</g>
<!-- 0&#45;&gt;1 -->
<g id="edge1" class="edge">
<title>0&#45;&gt;1</title>
<path fill="none" stroke="black" d="M66.25,-100.71C66.25,-94.49 66.25,-84.4 66.25,-75.64"/>
<polygon fill="black" stroke="black" points="69.75,-75.85 66.25,-65.85 62.75,-75.85 69.75,-75.85"/>
</g>
<!-- 2 -->
<g id="node3" class="node">
<title>2</title>
<text text-anchor="middle" x="20.25" y="-0.95" font-family="Times,serif" font-size="14.00">&lt;expr&gt;</text>
</g>
<!-- 1&#45;&gt;2 -->
<g id="edge2" class="edge">
<title>1&#45;&gt;2</title>
<path fill="none" stroke="black" d="M60.61,-50.46C53.99,-43.51 42.78,-31.75 33.85,-22.39"/>
<polygon fill="black" stroke="black" points="36.41,-20.01 26.98,-15.19 31.35,-24.84 36.41,-20.01"/>
</g>
<!-- 3 -->
<g id="node4" class="node">
<title>3</title>
<text text-anchor="middle" x="66.25" y="-0.95" font-family="Times,serif" font-size="14.00"> + </text>
</g>
<!-- 1&#45;&gt;3 -->
<g id="edge3" class="edge">
<title>1&#45;&gt;3</title>
<path fill="none" stroke="black" d="M66.25,-50.46C66.25,-44.24 66.25,-34.15 66.25,-25.39"/>
<polygon fill="black" stroke="black" points="69.75,-25.6 66.25,-15.6 62.75,-25.6 69.75,-25.6"/>
</g>
<!-- 4 -->
<g id="node5" class="node">
<title>4</title>
<text text-anchor="middle" x="113.25" y="-0.95" font-family="Times,serif" font-size="14.00">&lt;term&gt;</text>
</g>
<!-- 1&#45;&gt;4 -->
<g id="edge4" class="edge">
<title>1&#45;&gt;4</title>
<path fill="none" stroke="black" d="M72.01,-50.46C78.85,-43.44 90.47,-31.51 99.64,-22.1"/>
<polygon fill="black" stroke="black" points="101.91,-24.78 106.38,-15.17 96.9,-19.9 101.91,-24.78"/>
</g>
</g>
</svg>