<?xml version="1.0" encoding="UTF-8" standalone="no"?>
<!DOCTYPE svg PUBLIC "-//W3C//DTD SVG 1.1//EN"
 "http://www.w3.org/Graphics/SVG/1.1/DTD/svg11.dtd">
<!-- Generated by graphviz version 12.2.1 (20241206.2353)
 -->
<!-- Pages: 1 -->
<svg width="636pt" height="223pt"
 viewBox="0.00 0.00 635.75 223.25" xmlns="http://www.w3.org/2000/svg" xmlns:xlink="http://www.w3.org/1999/xlink">
<g id="graph0" class="graph" transform="scale(1 1) rotate(0) translate(4 219.25)">
<polygon fill="white" stroke="none" points="-4,4 -4,-219.25 631.75,-219.25 631.75,4 -4,4"/>
<!-- 0 -->
<g id="node1" class="node">
<title>0</title>
<text text-anchor="middle" x="265.12" y="-201.95" font-family="Times,serif" font-size="14.00">&lt;start&gt;</text>
</g>
<!-- 1 -->
<g id="node2" class="node">
<title>1</title>
<text text-anchor="middle" x="265.12" y="-151.7" font-family="Times,serif" font-size="14.00">&lt;phone&#45;number&gt;</text>
</g>
<!-- 0&#45;&gt;1 -->
<g id="edge1" class="edge">
<title>0&#45;&gt;1</title>
<path fill="none" stroke="black" d="M265.12,-201.21C265.12,-194.99 265.12,-184.9 265.12,-176.14"/>
<polygon fill="black" stroke="black" points="268.63,-176.35 265.13,-166.35 261.63,-176.35 268.63,-176.35"/>
</g>
<!-- 2 -->
<g id="node3" class="node">
<title>2</title>
<text text-anchor="middle" x="113.12" y="-101.45" font-family="Times,serif" font-size="14.00">( (40)</text>
</g>
<!-- 1&#45;&gt;2 -->
<g id="edge2" class="edge">
<title>1&#45;&gt;2</title>
<path fill="none" stroke="black" d="M245.87,-150.76C218.79,-142.17 169.38,-126.48 139.08,-116.86"/>
<polygon fill="black" stroke="black" points="140.15,-113.53 129.56,-113.84 138.03,-120.2 140.15,-113.53"/>
</g>
<!-- 3 -->
<g id="node4" class="node">
<title>3</title>
<text text-anchor="middle" x="166.12" y="-101.45" font-family="Times,serif" font-size="14.00">&lt;area&gt;</text>
</g>
<!-- 1&#45;&gt;3 -->
<g id="edge3" class="edge">
<title>1&#45;&gt;3</title>
<path fill="none" stroke="black" d="M252.59,-150.76C236.59,-142.97 208.64,-129.35 188.85,-119.7"/>
<polygon fill="black" stroke="black" points="190.44,-116.58 179.92,-115.35 187.38,-122.88 190.44,-116.58"/>
</g>
<!-- 10 -->
<g id="node11" class="node">
<title>10</title>
<text text-anchor="middle" x="232.12" y="-101.45" font-family="Times,serif" font-size="14.00">) (41)</text>
</g>
<!-- 1&#45;&gt;10 -->
<g id="edge10" class="edge">
<title>1&#45;&gt;10</title>
<path fill="none" stroke="black" d="M261.08,-150.96C256.53,-144.3 248.95,-133.23 242.69,-124.07"/>
<polygon fill="black" stroke="black" points="245.59,-122.12 237.06,-115.84 239.82,-126.07 245.59,-122.12"/>
</g>
<!-- 11 -->
<g id="node12" class="node">
<title>11</title>
<text text-anchor="middle" x="299.12" y="-101.45" font-family="Times,serif" font-size="14.00">&lt;exchange&gt;</text>
</g>
<!-- 1&#45;&gt;11 -->
<g id="edge11" class="edge">
<title>1&#45;&gt;11</title>
<path fill="none" stroke="black" d="M269.29,-150.96C274.04,-144.23 281.96,-132.98 288.45,-123.77"/>
<polygon fill="black" stroke="black" points="291.15,-126.02 294.05,-115.83 285.43,-121.99 291.15,-126.02"/>
</g>
<!-- 18 -->
<g id="node19" class="node">
<title>18</title>
<text text-anchor="middle" x="366.12" y="-101.45" font-family="Times,serif" font-size="14.00">&#45; (45)</text>
</g>
<!-- 1&#45;&gt;18 -->
<g id="edge18" class="edge">
<title>1&#45;&gt;18</title>
<path fill="none" stroke="black" d="M277.92,-150.76C294.31,-142.93 323.02,-129.22 343.22,-119.57"/>
<polygon fill="black" stroke="black" points="344.56,-122.81 352.07,-115.34 341.54,-116.49 344.56,-122.81"/>
</g>
<!-- 19 -->
<g id="node20" class="node">
<title>19</title>
<text text-anchor="middle" x="489.12" y="-101.45" font-family="Times,serif" font-size="14.00">&lt;line&gt;</text>
</g>
<!-- 1&#45;&gt;19 -->
<g id="edge19" class="edge">
<title>1&#45;&gt;19</title>
<path fill="none" stroke="black" d="M293.49,-150.76C336.22,-141.56 416.65,-124.24 459.88,-114.92"/>
<polygon fill="black" stroke="black" points="460.51,-118.37 469.54,-112.84 459.03,-111.53 460.51,-118.37"/>
</g>
<!-- 4 -->
<g id="node5" class="node">
<title>4</title>
<text text-anchor="middle" x="34.12" y="-51.2" font-family="Times,serif" font-size="14.00">&lt;lead&#45;digit&gt;</text>
</g>
<!-- 3&#45;&gt;4 -->
<g id="edge4" class="edge">
<title>3&#45;&gt;4</title>
<path fill="none" stroke="black" d="M149.41,-100.51C127.19,-92.39 87.66,-77.94 61.17,-68.26"/>
<polygon fill="black" stroke="black" points="62.72,-65.1 52.13,-64.96 60.32,-71.68 62.72,-65.1"/>
</g>
<!-- 6 -->
<g id="node7" class="node">
<title>6</title>
<text text-anchor="middle" x="107.12" y="-51.2" font-family="Times,serif" font-size="14.00">&lt;digit&gt;</text>
</g>
<!-- 3&#45;&gt;6 -->
<g id="edge6" class="edge">
<title>3&#45;&gt;6</title>
<path fill="none" stroke="black" d="M158.89,-100.71C150.04,-93.47 134.81,-81.02 123.15,-71.48"/>
<polygon fill="black" stroke="black" points="125.55,-68.92 115.59,-65.3 121.12,-74.34 125.55,-68.92"/>
</g>
<!-- 8 -->
<g id="node9" class="node">
<title>8</title>
<text text-anchor="middle" x="166.12" y="-51.2" font-family="Times,serif" font-size="14.00">&lt;digit&gt;</text>
</g>
<!-- 3&#45;&gt;8 -->
<g id="edge8" class="edge">
<title>3&#45;&gt;8</title>
<path fill="none" stroke="black" d="M166.12,-100.71C166.12,-94.49 166.12,-84.4 166.12,-75.64"/>
<polygon fill="black" stroke="black" points="169.63,-75.85 166.13,-65.85 162.63,-75.85 169.63,-75.85"/>
</g>
<!-- 5 -->
<g id="node6" class="node">
<title>5</title>
<text text-anchor="middle" x="34.12" y="-0.95" font-family="Times,serif" font-size="14.00">5 (53)</text>
</g>
<!-- 4&#45;&gt;5 -->
<g id="edge5" class="edge">
<title>4&#45;&gt;5</title>
<path fill="none" stroke="black" d="M34.12,-50.46C34.12,-44.24 34.12,-34.15 34.12,-25.39"/>
<polygon fill="black" stroke="black" points="37.63,-25.6 34.13,-15.6 30.63,-25.6 37.63,-25.6"/>
</g>
<!-- 7 -->
<g id="node8" class="node">
<title>7</title>
<text text-anchor="middle" x="107.12" y="-0.95" font-family="Times,serif" font-size="14.00">5 (53)</text>
</g>
<!-- 6&#45;&gt;7 -->
<g id="edge7" class="edge">
<title>6&#45;&gt;7</title>
<path fill="none" stroke="black" d="M107.12,-50.46C107.12,-44.24 107.12,-34.15 107.12,-25.39"/>
<polygon fill="black" stroke="black" points="110.63,-25.6 107.13,-15.6 103.63,-25.6 110.63,-25.6"/>
</g>
<!-- 9 -->
<g id="node10" class="node">
<title>9</title>
<text text-anchor="middle" x="166.12" y="-0.95" font-family="Times,serif" font-size="14.00">5 (53)</text>
</g>
<!-- 8&#45;&gt;9 -->
<g id="edge9" class="edge">
<title>8&#45;&gt;9</title>
<path fill="none" stroke="black" d="M166.12,-50.46C166.12,-44.24 166.12,-34.15 166.12,-25.39"/>
<polygon fill="black" stroke="black" points="169.63,-25.6 166.13,-15.6 162.63,-25.6 169.63,-25.6"/>
</g>
<!-- 12 -->
<g id="node13" class="node">
<title>12</title>
<text text-anchor="middle" x="239.12" y="-51.2" font-family="Times,serif" font-size="14.00">&lt;lead&#45;digit&gt;</text>
</g>
<!-- 11&#45;&gt;12 -->
<g id="edge12" class="edge">
<title>11&#45;&gt;12</title>
<path fill="none" stroke="black" d="M291.77,-100.71C282.77,-93.47 267.28,-81.02 255.42,-71.48"/>
<polygon fill="black" stroke="black" points="257.71,-68.83 247.72,-65.29 253.32,-74.28 257.71,-68.83"/>
</g>
<!-- 14 -->
<g id="node15" class="node">
<title>14</title>
<text text-anchor="middle" x="312.12" y="-51.2" font-family="Times,serif" font-size="14.00">&lt;digit&gt;</text>
</g>
<!-- 11&#45;&gt;14 -->
<g id="edge14" class="edge">
<title>11&#45;&gt;14</title>
<path fill="none" stroke="black" d="M300.72,-100.71C302.41,-94.41 305.18,-84.17 307.56,-75.33"/>
<polygon fill="black" stroke="black" points="310.9,-76.37 310.12,-65.8 304.14,-74.55 310.9,-76.37"/>
</g>
<!-- 16 -->
<g id="node17" class="node">
<title>16</title>
<text text-anchor="middle" x="371.12" y="-51.2" font-family="Times,serif" font-size="14.00">&lt;digit&gt;</text>
</g>
<!-- 11&#45;&gt;16 -->
<g id="edge16" class="edge">
<title>11&#45;&gt;16</title>
<path fill="none" stroke="black" d="M308.24,-100.51C319.45,-93 338.73,-80.09 352.99,-70.53"/>
<polygon fill="black" stroke="black" points="354.69,-73.6 361.05,-65.13 350.79,-67.79 354.69,-73.6"/>
</g>
<!-- 13 -->
<g id="node14" class="node">
<title>13</title>
<text text-anchor="middle" x="239.12" y="-0.95" font-family="Times,serif" font-size="14.00">9 (57)</text>
</g>
<!-- 12&#45;&gt;13 -->
<g id="edge13" class="edge">
<title>12&#45;&gt;13</title>
<path fill="none" stroke="black" d="M239.12,-50.46C239.12,-44.24 239.12,-34.15 239.12,-25.39"/>
<polygon fill="black" stroke="black" points="242.63,-25.6 239.13,-15.6 235.63,-25.6 242.63,-25.6"/>
</g>
<!-- 15 -->
<g id="node16" class="node">
<title>15</title>
<text text-anchor="middle" x="312.12" y="-0.95" font-family="Times,serif" font-size="14.00">8 (56)</text>
</g>
<!-- 14&#45;&gt;15 -->
<g id="edge15" class="edge">
<title>14&#45;&gt;15</title>
<path fill="none" stroke="black" d="M312.12,-50.46C312.12,-44.24 312.12,-34.15 312.12,-25.39"/>
<polygon fill="black" stroke="black" points="315.63,-25.6 312.13,-15.6 308.63,-25.6 315.63,-25.6"/>
</g>
<!-- 17 -->
<g id="node18" class="node">
<title>17</title>
<text text-anchor="middle" x="371.12" y="-0.95" font-family="Times,serif" font-size="14.00">7 (55)</text>
</g>
<!-- 16&#45;&gt;17 -->
<g id="edge17" class="edge">
<title>16&#45;&gt;17</title>
<path fill="none" stroke="black" d="M371.12,-50.46C371.12,-44.24 371.12,-34.15 371.12,-25.39"/>
<polygon fill="black" stroke="black" points="374.63,-25.6 371.13,-15.6 367.63,-25.6 374.63,-25.6"/>
</g>
<!-- 20 -->
<g id="node21" class="node">
<title>20</title>
<text text-anchor="middle" x="430.12" y="-51.2" font-family="Times,serif" font-size="14.00">&lt;digit&gt;</text>
</g>
<!-- 19&#45;&gt;20 -->
<g id="edge20" class="edge">
<title>19&#45;&gt;20</title>
<path fill="none" stroke="black" d="M481.89,-100.71C473.04,-93.47 457.81,-81.02 446.15,-71.48"/>
<polygon fill="black" stroke="black" points="448.55,-68.92 438.59,-65.3 444.12,-74.34 448.55,-68.92"/>
</g>
<!-- 22 -->
<g id="node23" class="node">
<title>22</title>
<text text-anchor="middle" x="489.12" y="-51.2" font-family="Times,serif" font-size="14.00">&lt;digit&gt;</text>
</g>
<!-- 19&#45;&gt;22 -->
<g id="edge22" class="edge">
<title>19&#45;&gt;22</title>
<path fill="none" stroke="black" d="M489.12,-100.71C489.12,-94.49 489.12,-84.4 489.12,-75.64"/>
<polygon fill="black" stroke="black" points="492.63,-75.85 489.13,-65.85 485.63,-75.85 492.63,-75.85"/>
</g>
<!-- 24 -->
<g id="node25" class="node">
<title>24</title>
<text text-anchor="middle" x="548.12" y="-51.2" font-family="Times,serif" font-size="14.00">&lt;digit&gt;</text>
</g>
<!-- 19&#45;&gt;24 -->
<g id="edge24" class="edge">
<title>19&#45;&gt;24</title>
<path fill="none" stroke="black" d="M496.36,-100.71C505.21,-93.47 520.44,-81.02 532.1,-71.48"/>
<polygon fill="black" stroke="black" points="534.13,-74.34 539.66,-65.3 529.7,-68.92 534.13,-74.34"/>
</g>
<!-- 26 -->
<g id="node27" class="node">
<title>26</title>
<text text-anchor="middle" x="607.12" y="-51.2" font-family="Times,serif" font-size="14.00">&lt;digit&gt;</text>
</g>
<!-- 19&#45;&gt;26 -->
<g id="edge26" class="edge">
<title>19&#45;&gt;26</title>
<path fill="none" stroke="black" d="M504.07,-100.51C523.58,-92.54 558.01,-78.46 581.67,-68.79"/>
<polygon fill="black" stroke="black" points="582.97,-72.03 590.9,-65.01 580.32,-65.55 582.97,-72.03"/>
</g>
<!-- 21 -->
<g id="node22" class="node">
<title>21</title>
<text text-anchor="middle" x="430.12" y="-0.95" font-family="Times,serif" font-size="14.00">6 (54)</text>
</g>
<!-- 20&#45;&gt;21 -->
<g id="edge21" class="edge">
<title>20&#45;&gt;21</title>
<path fill="none" stroke="black" d="M430.12,-50.46C430.12,-44.24 430.12,-34.15 430.12,-25.39"/>
<polygon fill="black" stroke="black" points="433.63,-25.6 430.13,-15.6 426.63,-25.6 433.63,-25.6"/>
</g>
<!-- 23 -->
<g id="node24" class="node">
<title>23</title>
<text text-anchor="middle" x="489.12" y="-0.95" font-family="Times,serif" font-size="14.00">5 (53)</text>
</g>
<!-- 22&#45;&gt;23 -->
<g id="edge23" class="edge">
<title>22&#45;&gt;23</title>
<path fill="none" stroke="black" d="M489.12,-50.46C489.12,-44.24 489.12,-34.15 489.12,-25.39"/>
<polygon fill="black" stroke="black" points="492.63,-25.6 489.13,-15.6 485.63,-25.6 492.63,-25.6"/>
</g>
<!-- 25 -->
<g id="node26" class="node">
<title>25</title>
<text text-anchor="middle" x="548.12" y="-0.95" font-family="Times,serif" font-size="14.00">4 (52)</text>
</g>
<!-- 24&#45;&gt;25 -->
<g id="edge25" class="edge">
<title>24&#45;&gt;25</title>
<path fill="none" stroke="black" d="M548.12,-50.46C548.12,-44.24 548.12,-34.15 548.12,-25.39"/>
<polygon fill="black" stroke="black" points="551.63,-25.6 548.13,-15.6 544.63,-25.6 551.63,-25.6"/>
</g>
<!-- 27 -->
<g id="node28" class="node">
<title>27</title>
<text text-anchor="middle" x="607.12" y="-0.95" font-family="Times,serif" font-size="14.00">3 (51)</text>
</g>
<!-- 26&#45;&gt;27 -->
<g id="edge27" class="edge">
<title>26&#45;&gt;27</title>
<path fill="none" stroke="black" d="M607.12,-50.46C607.12,-44.24 607.12,-34.15 607.12,-25.39"/>
<polygon fill="black" stroke="black" points="610.63,-25.6 607.13,-15.6 603.63,-25.6 610.63,-25.6"/>
</g>
</g>
</svg>