<svg xmlns="http://www.w3.org/2000/svg" class="railroad-diagram" height="62" viewBox="0 0 677.5 62" width="677.5">
<g transform="translate(.5 .5)">
<style>/* <![CDATA[ */
    svg.railroad-diagram {
    }
    svg.railroad-diagram path {
        stroke-width:3;
        stroke:black;
        fill:white;
    }
    svg.railroad-diagram text {
        font:14px "Fira Mono", monospace;
        text-anchor:middle;
    }
    svg.railroad-diagram text.label{
        text-anchor:start;
    }
    svg.railroad-diagram text.comment{
        font:italic 12px "Fira Mono", monospace;
    }
    svg.railroad-diagram rect{
        stroke-width:2;
        stroke:black;
        fill:mistyrose;
    }

/* ]]> */
</style><g>
<path d="M20 21v20m10 -20v20m-10 -10h20"/></g><g>
<path d="M40 31h0.0"/><path d="M637.5 31h0.0"/><path d="M40.0 31h20"/><g>
<path d="M60.0 31h0.0"/><path d="M617.5 31h0.0"/><g class="non-terminal">
<path d="M60.0 31h0.0"/><path d="M139.5 31h0.0"/><rect height="22" width="79.5" x="60.0" y="20"/><text x="99.75" y="35">year@30</text></g><path d="M139.5 31h10"/><path d="M149.5 31h10"/><g class="terminal">
<path d="M159.5 31h0.0"/><path d="M188.0 31h0.0"/><rect height="22" rx="10" ry="10" width="28.5" x="159.5" y="20"/><text x="173.75" y="35">,</text></g><path d="M188.0 31h10"/><path d="M198.0 31h10"/><g class="non-terminal">
<path d="M208.0 31h0.0"/><path d="M287.5 31h0.0"/><rect height="22" width="79.5" x="208.0" y="20"/><text x="247.75" y="35">kind@30</text></g><path d="M287.5 31h10"/><path d="M297.5 31h10"/><g class="terminal">
<path d="M307.5 31h0.0"/><path d="M336.0 31h0.0"/><rect height="22" rx="10" ry="10" width="28.5" x="307.5" y="20"/><text x="321.75" y="35">,</text></g><path d="M336.0 31h10"/><path d="M346.0 31h10"/><g class="non-terminal">
<path d="M356.0 31h0.0"/><path d="M461.0 31h0.0"/><rect height="22" width="105.0" x="356.0" y="20"/><text x="408.5" y="35">company@30</text></g><path d="M461.0 31h10"/><path d="M471.0 31h10"/><g class="terminal">
<path d="M481.0 31h0.0"/><path d="M509.5 31h0.0"/><rect height="22" rx="10" ry="10" width="28.5" x="481.0" y="20"/><text x="495.25" y="35">,</text></g><path d="M509.5 31h10"/><path d="M519.5 31h10"/><g class="non-terminal">
<path d="M529.5 31h0.0"/><path d="M617.5 31h0.0"/><rect height="22" width="88.0" x="529.5" y="20"/><text x="573.5" y="35">model@30</text></g></g><path d="M617.5 31h20"/></g><path d="M 637.5 31 h 20 m -10 -10 v 20 m 10 -20 v 20"/></g></svg>