<?xml version="1.0" encoding="UTF-8" standalone="no"?>
<!DOCTYPE svg PUBLIC "-//W3C//DTD SVG 1.1//EN"
 "http://www.w3.org/Graphics/SVG/1.1/DTD/svg11.dtd">
<!-- Generated by graphviz version 12.2.1 (20241206.2353)
 -->
<!-- Pages: 1 -->
<svg width="208pt" height="173pt"
 viewBox="0.00 0.00 208.00 173.00" xmlns="http://www.w3.org/2000/svg" xmlns:xlink="http://www.w3.org/1999/xlink">
<g id="graph0" class="graph" transform="scale(1 1) rotate(0) translate(4 169)">
<polygon fill="white" stroke="none" points="-4,4 -4,-169 204,-169 204,4 -4,4"/>
<!-- 0 -->
<g id="node1" class="node">
<title>0</title>
<text text-anchor="middle" x="81" y="-151.7" font-family="Times,serif" font-size="14.00">&lt;start&gt;</text>
</g>
<!-- 1 -->
<g id="node2" class="node">
<title>1</title>
<text text-anchor="middle" x="81" y="-101.45" font-family="Times,serif" font-size="14.00">&lt;expr&gt;</text>
</g>
<!-- 0&#45;&gt;1 -->
<g id="edge1" class="edge">
<title>0&#45;&gt;1</title>
<path fill="none" stroke="black" d="M81,-150.96C81,-144.74 81,-134.65 81,-125.89"/>
<polygon fill="black" stroke="black" points="84.5,-126.1 81,-116.1 77.5,-126.1 84.5,-126.1"/>
</g>
<!-- 2 -->
<g id="node3" class="node">
<title>2</title>
<text text-anchor="middle" x="30" y="-51.2" font-family="Times,serif" font-size="14.00">&lt;expr&gt;</text>
</g>
<!-- 1&#45;&gt;2 -->
<g id="edge2" class="edge">
<title>1&#45;&gt;2</title>
<path fill="none" stroke="black" d="M74.75,-100.71C67.25,-93.62 54.46,-81.51 44.46,-72.06"/>
<polygon fill="black" stroke="black" points="47.07,-69.71 37.4,-65.38 42.26,-74.79 47.07,-69.71"/>
</g>
<!-- 4 -->
<g id="node5" class="node">
<title>4</title>
<text text-anchor="middle" x="81" y="-51.2" font-family="Times,serif" font-size="14.00"> + </text>
</g>
<!-- 1&#45;&gt;4 -->
<g id="edge4" class="edge">
<title>1&#45;&gt;4</title>
<path fill="none" stroke="black" d="M81,-100.71C81,-94.49 81,-84.4 81,-75.64"/>
<polygon fill="black" stroke="black" points="84.5,-75.85 81,-65.85 77.5,-75.85 84.5,-75.85"/>
</g>
<!-- 5 -->
<g id="node6" class="node">
<title>5</title>
<text text-anchor="middle" x="130" y="-51.2" font-family="Times,serif" font-size="14.00">&lt;term&gt;</text>
</g>
<!-- 1&#45;&gt;5 -->
<g id="edge5" class="edge">
<title>1&#45;&gt;5</title>
<path fill="none" stroke="black" d="M87.01,-100.71C94.14,-93.69 106.25,-81.76 115.81,-72.35"/>
<polygon fill="black" stroke="black" points="118.19,-74.91 122.86,-65.4 113.28,-69.92 118.19,-74.91"/>
</g>
<!-- 3 -->
<g id="node4" class="node">
<title>3</title>
<text text-anchor="middle" x="21" y="-0.95" font-family="Times,serif" font-size="14.00">&lt;term&gt;</text>
</g>
<!-- 2&#45;&gt;3 -->
<g id="edge3" class="edge">
<title>2&#45;&gt;3</title>
<path fill="none" stroke="black" d="M28.9,-50.46C27.74,-44.24 25.85,-34.15 24.22,-25.39"/>
<polygon fill="black" stroke="black" points="27.66,-24.77 22.39,-15.58 20.78,-26.05 27.66,-24.77"/>
</g>
<!-- 6 -->
<g id="node7" class="node">
<title>6</title>
<text text-anchor="middle" x="84" y="-0.95" font-family="Times,serif" font-size="14.00">&lt;factor&gt;</text>
</g>
<!-- 5&#45;&gt;6 -->
<g id="edge6" class="edge">
<title>5&#45;&gt;6</title>
<path fill="none" stroke="black" d="M124.36,-50.46C117.74,-43.51 106.53,-31.75 97.6,-22.39"/>
<polygon fill="black" stroke="black" points="100.16,-20.01 90.73,-15.19 95.1,-24.84 100.16,-20.01"/>
</g>
<!-- 7 -->
<g id="node8" class="node">
<title>7</title>
<text text-anchor="middle" x="133" y="-0.95" font-family="Times,serif" font-size="14.00"> * </text>
</g>
<!-- 5&#45;&gt;7 -->
<g id="edge7" class="edge">
<title>5&#45;&gt;7</title>
<path fill="none" stroke="black" d="M130.37,-50.46C130.75,-44.24 131.38,-34.15 131.93,-25.39"/>
<polygon fill="black" stroke="black" points="135.41,-25.8 132.54,-15.6 128.42,-25.36 135.41,-25.8"/>
</g>
<!-- 8 -->
<g id="node9" class="node">
<title>8</title>
<text text-anchor="middle" x="179" y="-0.95" font-family="Times,serif" font-size="14.00">&lt;term&gt;</text>
</g>
<!-- 5&#45;&gt;8 -->
<g id="edge8" class="edge">
<title>5&#45;&gt;8</title>
<path fill="none" stroke="black" d="M136.01,-50.46C143.14,-43.44 155.25,-31.51 164.81,-22.1"/>
<polygon fill="black" stroke="black" points="167.19,-24.66 171.86,-15.15 162.28,-19.67 167.19,-24.66"/>
</g>
</g>
</svg>