<?xml version="1.0" encoding="UTF-8" standalone="no"?>
<!DOCTYPE svg PUBLIC "-//W3C//DTD SVG 1.1//EN"
 "http://www.w3.org/Graphics/SVG/1.1/DTD/svg11.dtd">
<!-- Generated by graphviz version 12.2.1 (20241206.2353)
 -->
<!-- Pages: 1 -->
<svg width="337pt" height="223pt"
 viewBox="0.00 0.00 336.50 223.25" xmlns="http://www.w3.org/2000/svg" xmlns:xlink="http://www.w3.org/1999/xlink">
<g id="graph0" class="graph" transform="scale(1 1) rotate(0) translate(4 219.25)">
<polygon fill="white" stroke="none" points="-4,4 -4,-219.25 332.5,-219.25 332.5,4 -4,4"/>
<!-- 0 -->
<g id="node1" class="node">
<title>0</title>
<text text-anchor="middle" x="167.25" y="-201.95" font-family="Times,serif" font-size="14.00">&lt;start&gt;</text>
</g>
<!-- 1 -->
<g id="node2" class="node">
<title>1</title>
<text text-anchor="middle" x="167.25" y="-151.7" font-family="Times,serif" font-size="14.00">&lt;xml&#45;tree&gt;</text>
</g>
<!-- 0&#45;&gt;1 -->
<g id="edge1" class="edge">
<title>0&#45;&gt;1</title>
<path fill="none" stroke="black" d="M167.25,-201.21C167.25,-194.99 167.25,-184.9 167.25,-176.14"/>
<polygon fill="black" stroke="black" points="170.75,-176.35 167.25,-166.35 163.75,-176.35 170.75,-176.35"/>
</g>
<!-- 2 -->
<g id="node3" class="node">
<title>2</title>
<text text-anchor="middle" x="70.25" y="-101.45" font-family="Times,serif" font-size="14.00">&lt;xml&#45;open&#45;tag&gt;</text>
</g>
<!-- 1&#45;&gt;2 -->
<g id="edge2" class="edge">
<title>1&#45;&gt;2</title>
<path fill="none" stroke="black" d="M154.96,-150.76C139.29,-142.97 111.91,-129.35 92.52,-119.7"/>
<polygon fill="black" stroke="black" points="94.3,-116.68 83.79,-115.36 91.19,-122.95 94.3,-116.68"/>
</g>
<!-- 7 -->
<g id="node8" class="node">
<title>7</title>
<text text-anchor="middle" x="167.25" y="-101.45" font-family="Times,serif" font-size="14.00">&lt;xml&#45;tree&gt;</text>
</g>
<!-- 1&#45;&gt;7 -->
<g id="edge7" class="edge">
<title>1&#45;&gt;7</title>
<path fill="none" stroke="black" d="M167.25,-150.96C167.25,-144.74 167.25,-134.65 167.25,-125.89"/>
<polygon fill="black" stroke="black" points="170.75,-126.1 167.25,-116.1 163.75,-126.1 170.75,-126.1"/>
</g>
<!-- 10 -->
<g id="node11" class="node">
<title>10</title>
<text text-anchor="middle" x="262.25" y="-101.45" font-family="Times,serif" font-size="14.00">&lt;xml&#45;close&#45;tag&gt;</text>
</g>
<!-- 1&#45;&gt;10 -->
<g id="edge10" class="edge">
<title>1&#45;&gt;10</title>
<path fill="none" stroke="black" d="M179.28,-150.76C194.56,-143.01 221.2,-129.47 240.18,-119.84"/>
<polygon fill="black" stroke="black" points="241.64,-123.02 248.97,-115.37 238.47,-116.78 241.64,-123.02"/>
</g>
<!-- 3 -->
<g id="node4" class="node">
<title>3</title>
<text text-anchor="middle" x="17.25" y="-51.2" font-family="Times,serif" font-size="14.00">&lt; (60)</text>
</g>
<!-- 2&#45;&gt;3 -->
<g id="edge3" class="edge">
<title>2&#45;&gt;3</title>
<path fill="none" stroke="black" d="M63.75,-100.71C55.96,-93.62 42.66,-81.51 32.28,-72.06"/>
<polygon fill="black" stroke="black" points="34.67,-69.5 24.92,-65.36 29.96,-74.68 34.67,-69.5"/>
</g>
<!-- 4 -->
<g id="node5" class="node">
<title>4</title>
<text text-anchor="middle" x="66.25" y="-51.2" font-family="Times,serif" font-size="14.00">&lt;id&gt;</text>
</g>
<!-- 2&#45;&gt;4 -->
<g id="edge4" class="edge">
<title>2&#45;&gt;4</title>
<path fill="none" stroke="black" d="M69.76,-100.71C69.24,-94.49 68.41,-84.4 67.68,-75.64"/>
<polygon fill="black" stroke="black" points="71.18,-75.52 66.87,-65.85 64.21,-76.1 71.18,-75.52"/>
</g>
<!-- 6 -->
<g id="node7" class="node">
<title>6</title>
<text text-anchor="middle" x="115.25" y="-51.2" font-family="Times,serif" font-size="14.00">&gt; (62)</text>
</g>
<!-- 2&#45;&gt;6 -->
<g id="edge6" class="edge">
<title>2&#45;&gt;6</title>
<path fill="none" stroke="black" d="M75.77,-100.71C82.25,-93.76 93.21,-82 101.95,-72.64"/>
<polygon fill="black" stroke="black" points="104.39,-75.15 108.65,-65.45 99.27,-70.37 104.39,-75.15"/>
</g>
<!-- 5 -->
<g id="node6" class="node">
<title>5</title>
<text text-anchor="middle" x="66.25" y="-0.95" font-family="Times,serif" font-size="14.00">html</text>
</g>
<!-- 4&#45;&gt;5 -->
<g id="edge5" class="edge">
<title>4&#45;&gt;5</title>
<path fill="none" stroke="black" d="M66.25,-50.46C66.25,-44.24 66.25,-34.15 66.25,-25.39"/>
<polygon fill="black" stroke="black" points="69.75,-25.6 66.25,-15.6 62.75,-25.6 69.75,-25.6"/>
</g>
<!-- 8 -->
<g id="node9" class="node">
<title>8</title>
<text text-anchor="middle" x="169.25" y="-51.2" font-family="Times,serif" font-size="14.00">&lt;text&gt;</text>
</g>
<!-- 7&#45;&gt;8 -->
<g id="edge8" class="edge">
<title>7&#45;&gt;8</title>
<path fill="none" stroke="black" d="M167.5,-100.71C167.75,-94.49 168.17,-84.4 168.53,-75.64"/>
<polygon fill="black" stroke="black" points="172.02,-75.99 168.94,-65.85 165.03,-75.7 172.02,-75.99"/>
</g>
<!-- 9 -->
<g id="node10" class="node">
<title>9</title>
<text text-anchor="middle" x="169.25" y="-0.95" font-family="Times,serif" font-size="14.00">Text</text>
</g>
<!-- 8&#45;&gt;9 -->
<g id="edge9" class="edge">
<title>8&#45;&gt;9</title>
<path fill="none" stroke="black" d="M169.25,-50.46C169.25,-44.24 169.25,-34.15 169.25,-25.39"/>
<polygon fill="black" stroke="black" points="172.75,-25.6 169.25,-15.6 165.75,-25.6 172.75,-25.6"/>
</g>
<!-- 11 -->
<g id="node12" class="node">
<title>11</title>
<text text-anchor="middle" x="224.25" y="-51.2" font-family="Times,serif" font-size="14.00">&lt;/</text>
</g>
<!-- 10&#45;&gt;11 -->
<g id="edge11" class="edge">
<title>10&#45;&gt;11</title>
<path fill="none" stroke="black" d="M257.59,-100.71C252.23,-93.91 243.24,-82.49 235.95,-73.23"/>
<polygon fill="black" stroke="black" points="238.82,-71.22 229.88,-65.53 233.32,-75.55 238.82,-71.22"/>
</g>
<!-- 12 -->
<g id="node13" class="node">
<title>12</title>
<text text-anchor="middle" x="262.25" y="-51.2" font-family="Times,serif" font-size="14.00">&lt;id&gt;</text>
</g>
<!-- 10&#45;&gt;12 -->
<g id="edge12" class="edge">
<title>10&#45;&gt;12</title>
<path fill="none" stroke="black" d="M262.25,-100.71C262.25,-94.49 262.25,-84.4 262.25,-75.64"/>
<polygon fill="black" stroke="black" points="265.75,-75.85 262.25,-65.85 258.75,-75.85 265.75,-75.85"/>
</g>
<!-- 14 -->
<g id="node15" class="node">
<title>14</title>
<text text-anchor="middle" x="311.25" y="-51.2" font-family="Times,serif" font-size="14.00">&gt; (62)</text>
</g>
<!-- 10&#45;&gt;14 -->
<g id="edge14" class="edge">
<title>10&#45;&gt;14</title>
<path fill="none" stroke="black" d="M268.26,-100.71C275.39,-93.69 287.5,-81.76 297.06,-72.35"/>
<polygon fill="black" stroke="black" points="299.44,-74.91 304.11,-65.4 294.53,-69.92 299.44,-74.91"/>
</g>
<!-- 13 -->
<g id="node14" class="node">
<title>13</title>
<text text-anchor="middle" x="262.25" y="-0.95" font-family="Times,serif" font-size="14.00">html</text>
</g>
<!-- 12&#45;&gt;13 -->
<g id="edge13" class="edge">
<title>12&#45;&gt;13</title>
<path fill="none" stroke="black" d="M262.25,-50.46C262.25,-44.24 262.25,-34.15 262.25,-25.39"/>
<polygon fill="black" stroke="black" points="265.75,-25.6 262.25,-15.6 258.75,-25.6 265.75,-25.6"/>
</g>
</g>
</svg>