<?xml version="1.0" encoding="UTF-8" standalone="no"?>
<!DOCTYPE svg PUBLIC "-//W3C//DTD SVG 1.1//EN"
 "http://www.w3.org/Graphics/SVG/1.1/DTD/svg11.dtd">
<!-- Generated by graphviz version 12.2.1 (20241206.2353)
 -->
<!-- Pages: 1 -->
<svg width="188pt" height="173pt"
 viewBox="0.00 0.00 188.25 173.00" xmlns="http://www.w3.org/2000/svg" xmlns:xlink="http://www.w3.org/1999/xlink">
<g id="graph0" class="graph" transform="scale(1 1) rotate(0) translate(4 169)">
<polygon fill="white" stroke="none" points="-4,4 -4,-169 184.25,-169 184.25,4 -4,4"/>
<!-- 0 -->
<g id="node1" class="node">
<title>0</title>
<text text-anchor="middle" x="66.25" y="-151.7" font-family="Times,serif" font-size="14.00">&lt;start&gt;</text>
</g>
<!-- 1 -->
<g id="node2" class="node">
<title>1</title>
<text text-anchor="middle" x="66.25" y="-101.45" font-family="Times,serif" font-size="14.00">&lt;expr&gt;</text>
</g>
<!-- 0&#45;&gt;1 -->
<g id="edge1" class="edge">
<title>0&#45;&gt;1</title>
<path fill="none" stroke="black" d="M66.25,-150.96C66.25,-144.74 66.25,-134.65 66.25,-125.89"/>
<polygon fill="black" stroke="black" points="69.75,-126.1 66.25,-116.1 62.75,-126.1 69.75,-126.1"/>
</g>
<!-- 2 -->
<g id="node3" class="node">
<title>2</title>
<text text-anchor="middle" x="20.25" y="-51.2" font-family="Times,serif" font-size="14.00">&lt;expr&gt;</text>
</g>
<!-- 1&#45;&gt;2 -->
<g id="edge2" class="edge">
<title>1&#45;&gt;2</title>
<path fill="none" stroke="black" d="M60.61,-100.71C53.99,-93.76 42.78,-82 33.85,-72.64"/>
<polygon fill="black" stroke="black" points="36.41,-70.26 26.98,-65.44 31.35,-75.09 36.41,-70.26"/>
</g>
<!-- 3 -->
<g id="node4" class="node">
<title>3</title>
<text text-anchor="middle" x="66.25" y="-51.2" font-family="Times,serif" font-size="14.00"> + </text>
</g>
<!-- 1&#45;&gt;3 -->
<g id="edge3" class="edge">
<title>1&#45;&gt;3</title>
<path fill="none" stroke="black" d="M66.25,-100.71C66.25,-94.49 66.25,-84.4 66.25,-75.64"/>
<polygon fill="black" stroke="black" points="69.75,-75.85 66.25,-65.85 62.75,-75.85 69.75,-75.85"/>
</g>
<!-- 4 -->
<g id="node5" class="node">
<title>4</title>
<text text-anchor="middle" x="113.25" y="-51.2" font-family="Times,serif" font-size="14.00">&lt;term&gt;</text>
</g>
<!-- 1&#45;&gt;4 -->
<g id="edge4" class="edge">
<title>1&#45;&gt;4</title>
<path fill="none" stroke="black" d="M72.01,-100.71C78.85,-93.69 90.47,-81.76 99.64,-72.35"/>
<polygon fill="black" stroke="black" points="101.91,-75.03 106.38,-65.42 96.9,-70.15 101.91,-75.03"/>
</g>
<!-- 5 -->
<g id="node6" class="node">
<title>5</title>
<text text-anchor="middle" x="64.25" y="-0.95" font-family="Times,serif" font-size="14.00">&lt;factor&gt;</text>
</g>
<!-- 4&#45;&gt;5 -->
<g id="edge5" class="edge">
<title>4&#45;&gt;5</title>
<path fill="none" stroke="black" d="M107.24,-50.46C100.11,-43.44 88,-31.51 78.44,-22.1"/>
<polygon fill="black" stroke="black" points="80.97,-19.67 71.39,-15.15 76.06,-24.66 80.97,-19.67"/>
</g>
<!-- 6 -->
<g id="node7" class="node">
<title>6</title>
<text text-anchor="middle" x="113.25" y="-0.95" font-family="Times,serif" font-size="14.00"> * </text>
</g>
<!-- 4&#45;&gt;6 -->
<g id="edge6" class="edge">
<title>4&#45;&gt;6</title>
<path fill="none" stroke="black" d="M113.25,-50.46C113.25,-44.24 113.25,-34.15 113.25,-25.39"/>
<polygon fill="black" stroke="black" points="116.75,-25.6 113.25,-15.6 109.75,-25.6 116.75,-25.6"/>
</g>
<!-- 7 -->
<g id="node8" class="node">
<title>7</title>
<text text-anchor="middle" x="159.25" y="-0.95" font-family="Times,serif" font-size="14.00">&lt;term&gt;</text>
</g>
<!-- 4&#45;&gt;7 -->
<g id="edge7" class="edge">
<title>4&#45;&gt;7</title>
<path fill="none" stroke="black" d="M118.89,-50.46C125.51,-43.51 136.72,-31.75 145.65,-22.39"/>
<polygon fill="black" stroke="black" points="148.15,-24.84 152.52,-15.19 143.09,-20.01 148.15,-24.84"/>
</g>
</g>
</svg>