<svg xmlns="http://www.w3.org/2000/svg" class="railroad-diagram" height="62" viewBox="0 0 529.5 62" width="529.5">
<g transform="translate(.5 .5)">
<style>/* <![CDATA[ */
    svg.railroad-diagram {
    }
    svg.railroad-diagram path {
        stroke-width:3;
        stroke:black;
        fill:white;
    }
    svg.railroad-diagram text {
        font:14px "Fira Mono", monospace;
        text-anchor:middle;
    }
    svg.railroad-diagram text.label{
        text-anchor:start;
    }
    svg.railroad-diagram text.comment{
        font:italic 12px "Fira Mono", monospace;
    }
    svg.railroad-diagram rect{
        stroke-width:2;
        stroke:black;
        fill:mistyrose;
    }

/* ]]> */
</style><g>
<path d="M20 21v20m10 -20v20m-10 -10h20"/></g><g>
<path d="M40 31h0.0"/><path d="M489.5 31h0.0"/><path d="M40.0 31h20"/><g>
<path d="M60.0 31h0.0"/><path d="M469.5 31h0.0"/><g class="non-terminal">
<path d="M60.0 31h0.0"/><path d="M131.0 31h0.0"/><rect height="22" width="71.0" x="60.0" y="20"/><text x="95.5" y="35">scheme</text></g><path d="M131.0 31h10"/><path d="M141.0 31h10"/><g class="terminal">
<path d="M151.0 31h0.0"/><path d="M196.5 31h0.0"/><rect height="22" rx="10" ry="10" width="45.5" x="151.0" y="20"/><text x="173.75" y="35">://</text></g><path d="M196.5 31h10"/><path d="M206.5 31h10"/><g class="non-terminal">
<path d="M216.5 31h0.0"/><path d="M313.0 31h0.0"/><rect height="22" width="96.5" x="216.5" y="20"/><text x="264.75" y="35">authority</text></g><path d="M313.0 31h10"/><path d="M323.0 31h10"/><g class="non-terminal">
<path d="M333.0 31h0.0"/><path d="M387.0 31h0.0"/><rect height="22" width="54.0" x="333.0" y="20"/><text x="360.0" y="35">path</text></g><path d="M387.0 31h10"/><path d="M397.0 31h10"/><g class="non-terminal">
<path d="M407.0 31h0.0"/><path d="M469.5 31h0.0"/><rect height="22" width="62.5" x="407.0" y="20"/><text x="438.25" y="35">query</text></g></g><path d="M469.5 31h20"/></g><path d="M 489.5 31 h 20 m -10 -10 v 20 m 10 -20 v 20"/></g></svg>