<svg class="railroad-diagram" height="92" viewBox="0 0 256.5 92" width="256.5" xmlns="http://www.w3.org/2000/svg">
<g transform="translate(.5 .5)">
<style>/* <![CDATA[ */
    svg.railroad-diagram {
        background-color:hsl(100,100%,100%);
    }
    svg.railroad-diagram path {
        stroke-width:3;
        stroke:black;
        fill:rgba(0,0,0,0);
    }
    svg.railroad-diagram text {
        font:bold 14px monospace;
        text-anchor:middle;
    }
    svg.railroad-diagram text.label{
        text-anchor:start;
    }
    svg.railroad-diagram text.comment{
        font:italic 12px monospace;
    }
    svg.railroad-diagram rect{
        stroke-width:3;
        stroke:black;
        fill:hsl(0,62%,82%);
    }

/* ]]> */
</style><g>
<path d="M20 51v20m10 -20v20m-10 -10h20"/></g><g>
<path d="M40 61h0.0"/><path d="M216.5 61h0.0"/><path d="M40.0 61a10 10 0 0 0 10 -10v-10a10 10 0 0 1 10 -10"/><g>
<path d="M60.0 31h0.0"/><path d="M196.5 31h0.0"/><g class="non-terminal">
<path d="M60.0 31h0.0"/><path d="M122.5 31h0.0"/><rect height="22" width="62.5" x="60.0" y="20"/><text x="91.25" y="35">alpha</text></g><path d="M122.5 31h10"/><path d="M132.5 31h10"/><g class="non-terminal">
<path d="M142.5 31h0.0"/><path d="M196.5 31h0.0"/><rect height="22" width="54.0" x="142.5" y="20"/><text x="169.5" y="35">word</text></g></g><path d="M196.5 31a10 10 0 0 1 10 10v10a10 10 0 0 0 10 10"/><path d="M40.0 61h20"/><g>
<path d="M60.0 61h37.0"/><path d="M159.5 61h37.0"/><g class="non-terminal">
<path d="M97.0 61h0.0"/><path d="M159.5 61h0.0"/><rect height="22" width="62.5" x="97.0" y="50"/><text x="128.25" y="65">alpha</text></g></g><path d="M196.5 61h20"/></g><path d="M 216.5 61 h 20 m -10 -10 v 20 m 10 -20 v 20"/></g></svg>