<?xml version="1.0" encoding="UTF-8" standalone="no"?>
<!DOCTYPE svg PUBLIC "-//W3C//DTD SVG 1.1//EN"
 "http://www.w3.org/Graphics/SVG/1.1/DTD/svg11.dtd">
<!-- Generated by graphviz version 2.40.1 (20161225.0304)
 -->
<!-- Title: %3 Pages: 1 -->
<svg width="890pt" height="548pt"
 viewBox="0.00 0.00 889.63 548.00" xmlns="http://www.w3.org/2000/svg" xmlns:xlink="http://www.w3.org/1999/xlink">
<g id="graph0" class="graph" transform="scale(1 1) rotate(0) translate(4 544)">
<title>%3</title>
<polygon fill="#ffffff" stroke="transparent" points="-4,4 -4,-544 885.6296,-544 885.6296,4 -4,4"/>
<!-- Intro_Testing -->
<g id="node1" class="node">
<title>Intro_Testing</title>
<ellipse fill="none" stroke="#000000" cx="304.0356" cy="-522" rx="60.3893" ry="18"/>
<text text-anchor="middle" x="304.0356" y="-518.3" font-family="Times,serif" font-size="14.00" fill="#000000">Intro_Testing</text>
</g>
<!-- Fuzzer -->
<g id="node2" class="node">
<title>Fuzzer</title>
<ellipse fill="none" stroke="#000000" cx="304.0356" cy="-450" rx="35.9954" ry="18"/>
<text text-anchor="middle" x="304.0356" y="-446.3" font-family="Times,serif" font-size="14.00" fill="#000000">Fuzzer</text>
</g>
<!-- Intro_Testing&#45;&gt;Fuzzer -->
<g id="edge1" class="edge">
<title>Intro_Testing&#45;&gt;Fuzzer</title>
<path fill="none" stroke="#000000" d="M304.0356,-503.8314C304.0356,-496.131 304.0356,-486.9743 304.0356,-478.4166"/>
<polygon fill="#000000" stroke="#000000" points="307.5357,-478.4132 304.0356,-468.4133 300.5357,-478.4133 307.5357,-478.4132"/>
</g>
<!-- Coverage -->
<g id="node3" class="node">
<title>Coverage</title>
<ellipse fill="none" stroke="#000000" cx="223.0356" cy="-306" rx="45.4919" ry="18"/>
<text text-anchor="middle" x="223.0356" y="-302.3" font-family="Times,serif" font-size="14.00" fill="#000000">Coverage</text>
</g>
<!-- Fuzzer&#45;&gt;Coverage -->
<g id="edge2" class="edge">
<title>Fuzzer&#45;&gt;Coverage</title>
<path fill="none" stroke="#000000" d="M294.2652,-432.6302C280.2929,-407.7907 254.4831,-361.9066 238.0676,-332.7234"/>
<polygon fill="#000000" stroke="#000000" points="241.0481,-330.8829 233.0949,-323.8831 234.947,-334.3148 241.0481,-330.8829"/>
</g>
<!-- Grammars -->
<g id="node4" class="node">
<title>Grammars</title>
<ellipse fill="none" stroke="#000000" cx="365.0356" cy="-378" rx="49.2915" ry="18"/>
<text text-anchor="middle" x="365.0356" y="-374.3" font-family="Times,serif" font-size="14.00" fill="#000000">Grammars</text>
</g>
<!-- Fuzzer&#45;&gt;Grammars -->
<g id="edge3" class="edge">
<title>Fuzzer&#45;&gt;Grammars</title>
<path fill="none" stroke="#000000" d="M318.1836,-433.3008C325.7374,-424.3848 335.1911,-413.2264 343.6245,-403.2722"/>
<polygon fill="#000000" stroke="#000000" points="346.3196,-405.5055 350.1134,-395.6132 340.9787,-400.9806 346.3196,-405.5055"/>
</g>
<!-- MutationFuzzer -->
<g id="node5" class="node">
<title>MutationFuzzer</title>
<ellipse fill="none" stroke="#000000" cx="85.0356" cy="-234" rx="68.7879" ry="18"/>
<text text-anchor="middle" x="85.0356" y="-230.3" font-family="Times,serif" font-size="14.00" fill="#000000">MutationFuzzer</text>
</g>
<!-- Coverage&#45;&gt;MutationFuzzer -->
<g id="edge4" class="edge">
<title>Coverage&#45;&gt;MutationFuzzer</title>
<path fill="none" stroke="#000000" d="M195.441,-291.6028C175.2546,-281.0708 147.5655,-266.6243 124.967,-254.8338"/>
<polygon fill="#000000" stroke="#000000" points="126.434,-251.6514 115.9491,-250.1288 123.196,-257.8575 126.434,-251.6514"/>
</g>
<!-- GrammarCoverageFuzzer -->
<g id="node6" class="node">
<title>GrammarCoverageFuzzer</title>
<ellipse fill="none" stroke="#000000" cx="361.0356" cy="-234" rx="105.0817" ry="18"/>
<text text-anchor="middle" x="361.0356" y="-230.3" font-family="Times,serif" font-size="14.00" fill="#000000">GrammarCoverageFuzzer</text>
</g>
<!-- Coverage&#45;&gt;GrammarCoverageFuzzer -->
<g id="edge5" class="edge">
<title>Coverage&#45;&gt;GrammarCoverageFuzzer</title>
<path fill="none" stroke="#000000" d="M250.6303,-291.6028C270.2636,-281.3593 296.9942,-267.4129 319.2357,-255.8087"/>
<polygon fill="#000000" stroke="#000000" points="320.896,-258.8902 328.1428,-251.1615 317.658,-252.6841 320.896,-258.8902"/>
</g>
<!-- ProbabilisticGrammarFuzzer -->
<g id="node7" class="node">
<title>ProbabilisticGrammarFuzzer</title>
<ellipse fill="none" stroke="#000000" cx="129.0356" cy="-162" rx="116.1796" ry="18"/>
<text text-anchor="middle" x="129.0356" y="-158.3" font-family="Times,serif" font-size="14.00" fill="#000000">ProbabilisticGrammarFuzzer</text>
</g>
<!-- Coverage&#45;&gt;ProbabilisticGrammarFuzzer -->
<g id="edge6" class="edge">
<title>Coverage&#45;&gt;ProbabilisticGrammarFuzzer</title>
<path fill="none" stroke="#000000" d="M179.0709,-301.3305C122.2129,-294.2805 27.9693,-278.8113 7.0356,-252 -2.811,-239.3887 -1.6932,-229.4092 7.0356,-216 17.5273,-199.8827 34.0464,-188.5398 51.5796,-180.5697"/>
<polygon fill="#000000" stroke="#000000" points="52.9427,-183.7934 60.8142,-176.7019 50.2384,-177.3369 52.9427,-183.7934"/>
</g>
<!-- GrammarFuzzer -->
<g id="node8" class="node">
<title>GrammarFuzzer</title>
<ellipse fill="none" stroke="#000000" cx="525.0356" cy="-306" rx="70.3881" ry="18"/>
<text text-anchor="middle" x="525.0356" y="-302.3" font-family="Times,serif" font-size="14.00" fill="#000000">GrammarFuzzer</text>
</g>
<!-- Grammars&#45;&gt;GrammarFuzzer -->
<g id="edge7" class="edge">
<title>Grammars&#45;&gt;GrammarFuzzer</title>
<path fill="none" stroke="#000000" d="M396.2651,-363.9468C420.4265,-353.0741 454.1854,-337.8826 481.076,-325.7818"/>
<polygon fill="#000000" stroke="#000000" points="482.5912,-328.9381 490.2741,-321.6427 479.7186,-322.5547 482.5912,-328.9381"/>
</g>
<!-- ConfigurationFuzzer -->
<g id="node14" class="node">
<title>ConfigurationFuzzer</title>
<ellipse fill="none" stroke="#000000" cx="349.0356" cy="-162" rx="85.5853" ry="18"/>
<text text-anchor="middle" x="349.0356" y="-158.3" font-family="Times,serif" font-size="14.00" fill="#000000">ConfigurationFuzzer</text>
</g>
<!-- GrammarCoverageFuzzer&#45;&gt;ConfigurationFuzzer -->
<g id="edge14" class="edge">
<title>GrammarCoverageFuzzer&#45;&gt;ConfigurationFuzzer</title>
<path fill="none" stroke="#000000" d="M358.0075,-215.8314C356.7241,-208.131 355.198,-198.9743 353.7717,-190.4166"/>
<polygon fill="#000000" stroke="#000000" points="357.201,-189.7018 352.1045,-180.4133 350.2962,-190.8526 357.201,-189.7018"/>
</g>
<!-- Carver -->
<g id="node15" class="node">
<title>Carver</title>
<ellipse fill="none" stroke="#000000" cx="502.0356" cy="-18" rx="35.9954" ry="18"/>
<text text-anchor="middle" x="502.0356" y="-14.3" font-family="Times,serif" font-size="14.00" fill="#000000">Carver</text>
</g>
<!-- GrammarCoverageFuzzer&#45;&gt;Carver -->
<g id="edge15" class="edge">
<title>GrammarCoverageFuzzer&#45;&gt;Carver</title>
<path fill="none" stroke="#000000" d="M397.7176,-217.0461C413.8286,-208.0185 431.8185,-195.5429 444.0356,-180 475.4809,-139.9946 464.7542,-119.8601 482.0356,-72 485.1593,-63.3491 488.6209,-53.9419 491.774,-45.4393"/>
<polygon fill="#000000" stroke="#000000" points="495.0892,-46.5658 495.2951,-35.973 488.5284,-44.1254 495.0892,-46.5658"/>
</g>
<!-- GUIFuzzer -->
<g id="node16" class="node">
<title>GUIFuzzer</title>
<ellipse fill="none" stroke="#000000" cx="542.0356" cy="-162" rx="51.1914" ry="18"/>
<text text-anchor="middle" x="542.0356" y="-158.3" font-family="Times,serif" font-size="14.00" fill="#000000">GUIFuzzer</text>
</g>
<!-- GrammarCoverageFuzzer&#45;&gt;GUIFuzzer -->
<g id="edge16" class="edge">
<title>GrammarCoverageFuzzer&#45;&gt;GUIFuzzer</title>
<path fill="none" stroke="#000000" d="M403.0156,-217.3008C431.6325,-205.9173 469.4388,-190.8783 498.4011,-179.3574"/>
<polygon fill="#000000" stroke="#000000" points="499.8598,-182.5439 507.858,-175.5955 497.2725,-176.0396 499.8598,-182.5439"/>
</g>
<!-- APIFuzzer -->
<g id="node17" class="node">
<title>APIFuzzer</title>
<ellipse fill="none" stroke="#000000" cx="541.0356" cy="-90" rx="50.0912" ry="18"/>
<text text-anchor="middle" x="541.0356" y="-86.3" font-family="Times,serif" font-size="14.00" fill="#000000">APIFuzzer</text>
</g>
<!-- ProbabilisticGrammarFuzzer&#45;&gt;APIFuzzer -->
<g id="edge18" class="edge">
<title>ProbabilisticGrammarFuzzer&#45;&gt;APIFuzzer</title>
<path fill="none" stroke="#000000" d="M206.5297,-148.4574C287.8446,-134.247 413.6377,-112.2637 485.5521,-99.6962"/>
<polygon fill="#000000" stroke="#000000" points="486.5116,-103.0816 495.7597,-97.9123 485.3065,-96.1861 486.5116,-103.0816"/>
</g>
<!-- GrammarFuzzer&#45;&gt;GrammarCoverageFuzzer -->
<g id="edge8" class="edge">
<title>GrammarFuzzer&#45;&gt;GrammarCoverageFuzzer</title>
<path fill="none" stroke="#000000" d="M489.4501,-290.3771C465.7895,-279.9895 434.4416,-266.227 408.6417,-254.9002"/>
<polygon fill="#000000" stroke="#000000" points="409.9754,-251.6633 399.4119,-250.8481 407.1614,-258.0728 409.9754,-251.6633"/>
</g>
<!-- Parser -->
<g id="node9" class="node">
<title>Parser</title>
<ellipse fill="none" stroke="#000000" cx="205.0356" cy="-234" rx="33.2948" ry="18"/>
<text text-anchor="middle" x="205.0356" y="-230.3" font-family="Times,serif" font-size="14.00" fill="#000000">Parser</text>
</g>
<!-- GrammarFuzzer&#45;&gt;Parser -->
<g id="edge9" class="edge">
<title>GrammarFuzzer&#45;&gt;Parser</title>
<path fill="none" stroke="#000000" d="M462.5488,-297.7549C405.5865,-289.3268 319.5233,-274.294 247.0356,-252 244.7324,-251.2916 242.3845,-250.498 240.0349,-249.6492"/>
<polygon fill="#000000" stroke="#000000" points="241.065,-246.2944 230.4765,-245.9272 238.5249,-252.8173 241.065,-246.2944"/>
</g>
<!-- GeneratorGrammarFuzzer -->
<g id="node10" class="node">
<title>GeneratorGrammarFuzzer</title>
<ellipse fill="none" stroke="#000000" cx="718.0356" cy="-162" rx="106.6812" ry="18"/>
<text text-anchor="middle" x="718.0356" y="-158.3" font-family="Times,serif" font-size="14.00" fill="#000000">GeneratorGrammarFuzzer</text>
</g>
<!-- GrammarFuzzer&#45;&gt;GeneratorGrammarFuzzer -->
<g id="edge10" class="edge">
<title>GrammarFuzzer&#45;&gt;GeneratorGrammarFuzzer</title>
<path fill="none" stroke="#000000" d="M581.1648,-295.0095C625.6857,-285.1638 683.0049,-269.5931 699.0356,-252 714.1004,-235.467 718.3682,-210.0845 719.144,-190.4849"/>
<polygon fill="#000000" stroke="#000000" points="722.646,-190.3241 719.2621,-180.2842 715.6465,-190.2429 722.646,-190.3241"/>
</g>
<!-- Reducer -->
<g id="node11" class="node">
<title>Reducer</title>
<ellipse fill="none" stroke="#000000" cx="525.0356" cy="-234" rx="40.8928" ry="18"/>
<text text-anchor="middle" x="525.0356" y="-230.3" font-family="Times,serif" font-size="14.00" fill="#000000">Reducer</text>
</g>
<!-- GrammarFuzzer&#45;&gt;Reducer -->
<g id="edge11" class="edge">
<title>GrammarFuzzer&#45;&gt;Reducer</title>
<path fill="none" stroke="#000000" d="M525.0356,-287.8314C525.0356,-280.131 525.0356,-270.9743 525.0356,-262.4166"/>
<polygon fill="#000000" stroke="#000000" points="528.5357,-262.4132 525.0356,-252.4133 521.5357,-262.4133 528.5357,-262.4132"/>
</g>
<!-- GrammarMiner -->
<g id="node12" class="node">
<title>GrammarMiner</title>
<ellipse fill="none" stroke="#000000" cx="814.0356" cy="-234" rx="67.6881" ry="18"/>
<text text-anchor="middle" x="814.0356" y="-230.3" font-family="Times,serif" font-size="14.00" fill="#000000">GrammarMiner</text>
</g>
<!-- GrammarFuzzer&#45;&gt;GrammarMiner -->
<g id="edge12" class="edge">
<title>GrammarFuzzer&#45;&gt;GrammarMiner</title>
<path fill="none" stroke="#000000" d="M575.7063,-293.3762C625.589,-280.9487 701.7539,-261.9733 754.498,-248.8329"/>
<polygon fill="#000000" stroke="#000000" points="755.5335,-252.182 764.3907,-246.3683 753.8412,-245.3896 755.5335,-252.182"/>
</g>
<!-- WebFuzzer -->
<g id="node13" class="node">
<title>WebFuzzer</title>
<ellipse fill="none" stroke="#000000" cx="637.0356" cy="-234" rx="52.7911" ry="18"/>
<text text-anchor="middle" x="637.0356" y="-230.3" font-family="Times,serif" font-size="14.00" fill="#000000">WebFuzzer</text>
</g>
<!-- GrammarFuzzer&#45;&gt;WebFuzzer -->
<g id="edge13" class="edge">
<title>GrammarFuzzer&#45;&gt;WebFuzzer</title>
<path fill="none" stroke="#000000" d="M551.2947,-289.1192C566.9313,-279.0671 586.9261,-266.2133 603.6732,-255.4473"/>
<polygon fill="#000000" stroke="#000000" points="605.5753,-258.3854 612.0944,-250.0336 601.79,-252.4971 605.5753,-258.3854"/>
</g>
<!-- Parser&#45;&gt;ProbabilisticGrammarFuzzer -->
<g id="edge17" class="edge">
<title>Parser&#45;&gt;ProbabilisticGrammarFuzzer</title>
<path fill="none" stroke="#000000" d="M188.5448,-218.3771C178.8257,-209.1695 166.3076,-197.3103 155.2621,-186.8461"/>
<polygon fill="#000000" stroke="#000000" points="157.5697,-184.211 147.903,-179.8744 152.7555,-189.2927 157.5697,-184.211"/>
</g>
<!-- GeneratorGrammarFuzzer&#45;&gt;APIFuzzer -->
<g id="edge19" class="edge">
<title>GeneratorGrammarFuzzer&#45;&gt;APIFuzzer</title>
<path fill="none" stroke="#000000" d="M676.9834,-145.3008C649.1206,-133.9668 612.3495,-119.009 584.0758,-107.5079"/>
<polygon fill="#000000" stroke="#000000" points="585.0398,-104.1215 574.458,-103.5955 582.4021,-110.6056 585.0398,-104.1215"/>
</g>
<!-- WebFuzzer&#45;&gt;GUIFuzzer -->
<g id="edge21" class="edge">
<title>WebFuzzer&#45;&gt;GUIFuzzer</title>
<path fill="none" stroke="#000000" d="M615.002,-217.3008C602.2015,-207.5994 585.898,-195.2431 571.9501,-184.672"/>
<polygon fill="#000000" stroke="#000000" points="573.7061,-181.6113 563.6223,-178.3604 569.4779,-187.1901 573.7061,-181.6113"/>
</g>
<!-- APIFuzzer&#45;&gt;Carver -->
<g id="edge20" class="edge">
<title>APIFuzzer&#45;&gt;Carver</title>
<path fill="none" stroke="#000000" d="M531.3952,-72.2022C526.8613,-63.832 521.3624,-53.6802 516.3549,-44.4356"/>
<polygon fill="#000000" stroke="#000000" points="519.4056,-42.719 511.5652,-35.593 513.2506,-46.053 519.4056,-42.719"/>
</g>
</g>
</svg>
