<?xml version="1.0" encoding="UTF-8" standalone="no"?>
<!DOCTYPE svg PUBLIC "-//W3C//DTD SVG 1.1//EN"
 "http://www.w3.org/Graphics/SVG/1.1/DTD/svg11.dtd">
<!-- Generated by graphviz version 2.40.1 (20161225.0304)
 -->
<!-- Title: %3 Pages: 1 -->
<svg width="1343pt" height="548pt"
 viewBox="0.00 0.00 1342.50 548.00" xmlns="http://www.w3.org/2000/svg" xmlns:xlink="http://www.w3.org/1999/xlink">
<g id="graph0" class="graph" transform="scale(1 1) rotate(0) translate(4 544)">
<title>%3</title>
<polygon fill="#ffffff" stroke="transparent" points="-4,4 -4,-544 1338.5,-544 1338.5,4 -4,4"/>
<!-- Fuzzer -->
<g id="node1" class="node">
<title>Fuzzer</title>
<g id="a_node1"><a xlink:href="Fuzzer.ipynb" xlink:title="Fuzzer">
<polygon fill="#ffffff" stroke="#000000" points="922,-468 624,-468 624,-432 928,-432 928,-462 922,-468"/>
<polyline fill="none" stroke="#000000" points="922,-468 922,-462 "/>
<polyline fill="none" stroke="#000000" points="928,-462 922,-462 "/>
<text text-anchor="middle" x="776" y="-446.3" font-family="Patua One" font-size="14.00" fill="#b03a2e">Fuzzing: Breaking Things with Random Inputs</text>
</a>
</g>
</g>
<!-- Coverage -->
<g id="node2" class="node">
<title>Coverage</title>
<g id="a_node2"><a xlink:href="Coverage.ipynb" xlink:title="Coverage">
<polygon fill="#ffffff" stroke="#000000" points="409.5,-324 292.5,-324 292.5,-288 415.5,-288 415.5,-318 409.5,-324"/>
<polyline fill="none" stroke="#000000" points="409.5,-324 409.5,-318 "/>
<polyline fill="none" stroke="#000000" points="415.5,-318 409.5,-318 "/>
<text text-anchor="middle" x="354" y="-302.3" font-family="Patua One" font-size="14.00" fill="#b03a2e">Getting Coverage</text>
</a>
</g>
</g>
<!-- Fuzzer&#45;&gt;Coverage -->
<g id="edge1" class="edge">
<title>Fuzzer&#45;&gt;Coverage</title>
<path fill="none" stroke="#000000" d="M722.9807,-431.9081C644.9392,-405.2778 499.4318,-355.626 416.3672,-327.2817"/>
<polygon fill="#000000" stroke="#000000" points="417.3969,-323.935 406.8024,-324.0179 415.1362,-330.5599 417.3969,-323.935"/>
</g>
<!-- SearchBasedFuzzer -->
<g id="node3" class="node">
<title>SearchBasedFuzzer</title>
<g id="a_node3"><a xlink:href="SearchBasedFuzzer.ipynb" xlink:title="SearchBasedFuzzer">
<polygon fill="#ffffff" stroke="#000000" points="1197,-324 1051,-324 1051,-288 1203,-288 1203,-318 1197,-324"/>
<polyline fill="none" stroke="#000000" points="1197,-324 1197,-318 "/>
<polyline fill="none" stroke="#000000" points="1203,-318 1197,-318 "/>
<text text-anchor="middle" x="1127" y="-302.3" font-family="Patua One" font-size="14.00" fill="#b03a2e">Search&#45;Based Fuzzing</text>
</a>
</g>
</g>
<!-- Fuzzer&#45;&gt;SearchBasedFuzzer -->
<g id="edge2" class="edge">
<title>Fuzzer&#45;&gt;SearchBasedFuzzer</title>
<path fill="none" stroke="#000000" d="M788.8831,-431.7978C805.9253,-408.2389 835.5992,-369.1198 851,-360 882.5836,-341.2975 972.2741,-325.9365 1040.9214,-316.4434"/>
<polygon fill="#000000" stroke="#000000" points="1041.4516,-319.9036 1050.8876,-315.0857 1040.5066,-312.9677 1041.4516,-319.9036"/>
</g>
<!-- Grammars -->
<g id="node4" class="node">
<title>Grammars</title>
<g id="a_node4"><a xlink:href="Grammars.ipynb" xlink:title="Grammars">
<polygon fill="#ffffff" stroke="#000000" points="797.5,-396 638.5,-396 638.5,-360 803.5,-360 803.5,-390 797.5,-396"/>
<polyline fill="none" stroke="#000000" points="797.5,-396 797.5,-390 "/>
<polyline fill="none" stroke="#000000" points="803.5,-390 797.5,-390 "/>
<text text-anchor="middle" x="721" y="-374.3" font-family="Patua One" font-size="14.00" fill="#b03a2e">Fuzzing with Grammars</text>
</a>
</g>
</g>
<!-- Fuzzer&#45;&gt;Grammars -->
<g id="edge3" class="edge">
<title>Fuzzer&#45;&gt;Grammars</title>
<path fill="none" stroke="#000000" d="M762.1212,-431.8314C755.7864,-423.5386 748.1616,-413.557 741.2074,-404.4533"/>
<polygon fill="#000000" stroke="#000000" points="743.9175,-402.2353 735.0657,-396.4133 738.3548,-406.4847 743.9175,-402.2353"/>
</g>
<!-- FuzzingInTheLarge -->
<g id="node5" class="node">
<title>FuzzingInTheLarge</title>
<g id="a_node5"><a xlink:href="FuzzingInTheLarge.ipynb" xlink:title="FuzzingInTheLarge">
<polygon fill="#ffffff" stroke="#000000" points="1080,-396 860,-396 860,-360 1086,-360 1086,-390 1080,-396"/>
<polyline fill="none" stroke="#000000" points="1080,-396 1080,-390 "/>
<polyline fill="none" stroke="#000000" points="1086,-390 1080,-390 "/>
<text text-anchor="middle" x="973" y="-374.3" font-family="Patua One" font-size="14.00" fill="#b03a2e">Practical Steps with FuzzManager</text>
</a>
</g>
</g>
<!-- Fuzzer&#45;&gt;FuzzingInTheLarge -->
<g id="edge4" class="edge">
<title>Fuzzer&#45;&gt;FuzzingInTheLarge</title>
<path fill="none" stroke="#000000" d="M825.4571,-431.9243C852.2711,-422.1243 885.5949,-409.945 913.7847,-399.6422"/>
<polygon fill="#000000" stroke="#000000" points="915.3316,-402.8033 923.5225,-396.0831 912.9287,-396.2286 915.3316,-402.8033"/>
</g>
<!-- MutationFuzzer -->
<g id="node7" class="node">
<title>MutationFuzzer</title>
<g id="a_node7"><a xlink:href="MutationFuzzer.ipynb" xlink:title="MutationFuzzer">
<polygon fill="#ffffff" stroke="#000000" points="183.5,-252 20.5,-252 20.5,-216 189.5,-216 189.5,-246 183.5,-252"/>
<polyline fill="none" stroke="#000000" points="183.5,-252 183.5,-246 "/>
<polyline fill="none" stroke="#000000" points="189.5,-246 183.5,-246 "/>
<text text-anchor="middle" x="105" y="-230.3" font-family="Patua One" font-size="14.00" fill="#b03a2e">Mutation&#45;Based Fuzzing</text>
</a>
</g>
</g>
<!-- Coverage&#45;&gt;MutationFuzzer -->
<g id="edge6" class="edge">
<title>Coverage&#45;&gt;MutationFuzzer</title>
<path fill="none" stroke="#000000" d="M292.4494,-288.2022C257.6966,-278.1532 214.0634,-265.5364 177.6406,-255.0045"/>
<polygon fill="#000000" stroke="#000000" points="178.1507,-251.5087 167.572,-252.0931 176.2063,-258.2332 178.1507,-251.5087"/>
</g>
<!-- GrammarCoverageFuzzer -->
<g id="node8" class="node">
<title>GrammarCoverageFuzzer</title>
<g id="a_node8"><a xlink:href="GrammarCoverageFuzzer.ipynb" xlink:title="GrammarCoverageFuzzer">
<polygon fill="#ffffff" stroke="#000000" points="830.5,-252 701.5,-252 701.5,-216 836.5,-216 836.5,-246 830.5,-252"/>
<polyline fill="none" stroke="#000000" points="830.5,-252 830.5,-246 "/>
<polyline fill="none" stroke="#000000" points="836.5,-246 830.5,-246 "/>
<text text-anchor="middle" x="769" y="-230.3" font-family="Patua One" font-size="14.00" fill="#b03a2e">Grammar Coverage</text>
</a>
</g>
</g>
<!-- Coverage&#45;&gt;GrammarCoverageFuzzer -->
<g id="edge7" class="edge">
<title>Coverage&#45;&gt;GrammarCoverageFuzzer</title>
<path fill="none" stroke="#000000" d="M415.6816,-295.2986C489.086,-282.5634 611.7193,-261.2873 691.4714,-247.4507"/>
<polygon fill="#000000" stroke="#000000" points="692.2073,-250.8754 701.4618,-245.7175 691.0107,-243.9785 692.2073,-250.8754"/>
</g>
<!-- ProbabilisticGrammarFuzzer -->
<g id="node9" class="node">
<title>ProbabilisticGrammarFuzzer</title>
<g id="a_node9"><a xlink:href="ProbabilisticGrammarFuzzer.ipynb" xlink:title="ProbabilisticGrammarFuzzer">
<polygon fill="#ffffff" stroke="#000000" points="202,-180 0,-180 0,-144 208,-144 208,-174 202,-180"/>
<polyline fill="none" stroke="#000000" points="202,-180 202,-174 "/>
<polyline fill="none" stroke="#000000" points="208,-174 202,-174 "/>
<text text-anchor="middle" x="104" y="-158.3" font-family="Patua One" font-size="14.00" fill="#b03a2e">Probabilistic Grammar Fuzzing</text>
</a>
</g>
</g>
<!-- Coverage&#45;&gt;ProbabilisticGrammarFuzzer -->
<g id="edge8" class="edge">
<title>Coverage&#45;&gt;ProbabilisticGrammarFuzzer</title>
<path fill="none" stroke="#000000" d="M292.1421,-300.5901C198.3299,-291.7526 29.0188,-273.0775 11,-252 .6032,-239.8383 3.0171,-229.8663 11,-216 18.4172,-203.1163 30.2175,-193.0231 42.9567,-185.2309"/>
<polygon fill="#000000" stroke="#000000" points="44.8918,-188.1579 51.8838,-180.1978 41.4539,-182.0602 44.8918,-188.1579"/>
</g>
<!-- GrammarMiner -->
<g id="node10" class="node">
<title>GrammarMiner</title>
<g id="a_node10"><a xlink:href="GrammarMiner.ipynb" xlink:title="GrammarMiner">
<polygon fill="#ffffff" stroke="#000000" points="513.5,-252 352.5,-252 352.5,-216 519.5,-216 519.5,-246 513.5,-252"/>
<polyline fill="none" stroke="#000000" points="513.5,-252 513.5,-246 "/>
<polyline fill="none" stroke="#000000" points="519.5,-246 513.5,-246 "/>
<text text-anchor="middle" x="436" y="-230.3" font-family="Patua One" font-size="14.00" fill="#b03a2e">Mining Input Grammars</text>
</a>
</g>
</g>
<!-- Coverage&#45;&gt;GrammarMiner -->
<g id="edge9" class="edge">
<title>Coverage&#45;&gt;GrammarMiner</title>
<path fill="none" stroke="#000000" d="M374.6921,-287.8314C384.6948,-279.0485 396.855,-268.3712 407.6999,-258.8489"/>
<polygon fill="#000000" stroke="#000000" points="410.1094,-261.3909 415.3146,-252.1628 405.4908,-256.1308 410.1094,-261.3909"/>
</g>
<!-- SymbolicFuzzer -->
<g id="node11" class="node">
<title>SymbolicFuzzer</title>
<g id="a_node11"><a xlink:href="SymbolicFuzzer.ipynb" xlink:title="SymbolicFuzzer">
<polygon fill="#ffffff" stroke="#000000" points="328,-252 208,-252 208,-216 334,-216 334,-246 328,-252"/>
<polyline fill="none" stroke="#000000" points="328,-252 328,-246 "/>
<polyline fill="none" stroke="#000000" points="334,-246 328,-246 "/>
<text text-anchor="middle" x="271" y="-230.3" font-family="Patua One" font-size="14.00" fill="#b03a2e">Symbolic Fuzzing</text>
</a>
</g>
</g>
<!-- Coverage&#45;&gt;SymbolicFuzzer -->
<g id="edge10" class="edge">
<title>Coverage&#45;&gt;SymbolicFuzzer</title>
<path fill="none" stroke="#000000" d="M333.0556,-287.8314C322.9309,-279.0485 310.6223,-268.3712 299.6452,-258.8489"/>
<polygon fill="#000000" stroke="#000000" points="301.7851,-256.0718 291.9377,-252.1628 297.1981,-261.3595 301.7851,-256.0718"/>
</g>
<!-- EvoGrammarFuzzer -->
<g id="node12" class="node">
<title>EvoGrammarFuzzer</title>
<g id="a_node12"><a xlink:href="EvoGrammarFuzzer.ipynb" xlink:title="EvoGrammarFuzzer">
<polygon fill="#ffffff" stroke="#000000" points="1328.5,-108 1123.5,-108 1123.5,-72 1334.5,-72 1334.5,-102 1328.5,-108"/>
<polyline fill="none" stroke="#000000" points="1328.5,-108 1328.5,-102 "/>
<polyline fill="none" stroke="#000000" points="1334.5,-102 1328.5,-102 "/>
<text text-anchor="middle" x="1229" y="-86.3" font-family="Patua One" font-size="14.00" fill="#b03a2e">Evolutionary Grammar Fuzzing</text>
</a>
</g>
</g>
<!-- SearchBasedFuzzer&#45;&gt;EvoGrammarFuzzer -->
<g id="edge11" class="edge">
<title>SearchBasedFuzzer&#45;&gt;EvoGrammarFuzzer</title>
<path fill="none" stroke="#000000" d="M1203.3073,-288.0928C1237.0018,-278.493 1271.2085,-265.8094 1281,-252 1308.7634,-212.844 1298.9497,-188.5175 1281,-144 1276.6775,-133.2796 1269.0956,-123.4983 1261.0361,-115.2948"/>
<polygon fill="#000000" stroke="#000000" points="1263.2442,-112.5652 1253.5801,-108.2228 1258.427,-117.644 1263.2442,-112.5652"/>
</g>
<!-- GrammarFuzzer -->
<g id="node13" class="node">
<title>GrammarFuzzer</title>
<g id="a_node13"><a xlink:href="GrammarFuzzer.ipynb" xlink:title="GrammarFuzzer">
<polygon fill="#ffffff" stroke="#000000" points="806.5,-324 629.5,-324 629.5,-288 812.5,-288 812.5,-318 806.5,-324"/>
<polyline fill="none" stroke="#000000" points="806.5,-324 806.5,-318 "/>
<polyline fill="none" stroke="#000000" points="812.5,-318 806.5,-318 "/>
<text text-anchor="middle" x="721" y="-302.3" font-family="Patua One" font-size="14.00" fill="#b03a2e">Efficient Grammar Fuzzing</text>
</a>
</g>
</g>
<!-- Grammars&#45;&gt;GrammarFuzzer -->
<g id="edge12" class="edge">
<title>Grammars&#45;&gt;GrammarFuzzer</title>
<path fill="none" stroke="#000000" d="M721,-359.8314C721,-352.131 721,-342.9743 721,-334.4166"/>
<polygon fill="#000000" stroke="#000000" points="724.5001,-334.4132 721,-324.4133 717.5001,-334.4133 724.5001,-334.4132"/>
</g>
<!-- Intro_Testing -->
<g id="node6" class="node">
<title>Intro_Testing</title>
<g id="a_node6"><a xlink:href="Intro_Testing.ipynb" xlink:title="Intro_Testing">
<polygon fill="#ffffff" stroke="#000000" points="879.5,-540 666.5,-540 666.5,-504 885.5,-504 885.5,-534 879.5,-540"/>
<polyline fill="none" stroke="#000000" points="879.5,-540 879.5,-534 "/>
<polyline fill="none" stroke="#000000" points="885.5,-534 879.5,-534 "/>
<text text-anchor="middle" x="776" y="-518.3" font-family="Patua One" font-size="14.00" fill="#b03a2e">Introduction to Software Testing</text>
</a>
</g>
</g>
<!-- Intro_Testing&#45;&gt;Fuzzer -->
<g id="edge5" class="edge">
<title>Intro_Testing&#45;&gt;Fuzzer</title>
<path fill="none" stroke="#000000" d="M776,-503.8314C776,-496.131 776,-486.9743 776,-478.4166"/>
<polygon fill="#000000" stroke="#000000" points="779.5001,-478.4132 776,-468.4133 772.5001,-478.4133 779.5001,-478.4132"/>
</g>
<!-- ConfigurationFuzzer -->
<g id="node18" class="node">
<title>ConfigurationFuzzer</title>
<g id="a_node18"><a xlink:href="ConfigurationFuzzer.ipynb" xlink:title="ConfigurationFuzzer">
<polygon fill="#ffffff" stroke="#000000" points="989.5,-180 836.5,-180 836.5,-144 995.5,-144 995.5,-174 989.5,-180"/>
<polyline fill="none" stroke="#000000" points="989.5,-180 989.5,-174 "/>
<polyline fill="none" stroke="#000000" points="995.5,-174 989.5,-174 "/>
<text text-anchor="middle" x="916" y="-158.3" font-family="Patua One" font-size="14.00" fill="#b03a2e">Testing Configurations</text>
</a>
</g>
</g>
<!-- GrammarCoverageFuzzer&#45;&gt;ConfigurationFuzzer -->
<g id="edge19" class="edge">
<title>GrammarCoverageFuzzer&#45;&gt;ConfigurationFuzzer</title>
<path fill="none" stroke="#000000" d="M806.0943,-215.8314C825.4926,-206.3302 849.417,-194.6121 869.9862,-184.5374"/>
<polygon fill="#000000" stroke="#000000" points="871.7314,-187.5799 879.1724,-180.038 868.6522,-181.2935 871.7314,-187.5799"/>
</g>
<!-- Carver -->
<g id="node19" class="node">
<title>Carver</title>
<g id="a_node19"><a xlink:href="Carver.ipynb" xlink:title="Carver">
<polygon fill="#ffffff" stroke="#000000" points="827.5,-36 702.5,-36 702.5,0 833.5,0 833.5,-30 827.5,-36"/>
<polyline fill="none" stroke="#000000" points="827.5,-36 827.5,-30 "/>
<polyline fill="none" stroke="#000000" points="833.5,-30 827.5,-30 "/>
<text text-anchor="middle" x="768" y="-14.3" font-family="Patua One" font-size="14.00" fill="#b03a2e">Carving Unit Tests</text>
</a>
</g>
</g>
<!-- GrammarCoverageFuzzer&#45;&gt;Carver -->
<g id="edge20" class="edge">
<title>GrammarCoverageFuzzer&#45;&gt;Carver</title>
<path fill="none" stroke="#000000" d="M836.5358,-217.9631C839.3948,-217.2973 842.2255,-216.6407 845,-216 916.02,-199.6005 959.4667,-236.9167 1005,-180 1058.8673,-112.6659 931.6727,-62.3512 843.5485,-36.8064"/>
<polygon fill="#000000" stroke="#000000" points="844.3902,-33.407 833.8142,-34.0384 842.4756,-40.1401 844.3902,-33.407"/>
</g>
<!-- GUIFuzzer -->
<g id="node20" class="node">
<title>GUIFuzzer</title>
<g id="a_node20"><a xlink:href="GUIFuzzer.ipynb" xlink:title="GUIFuzzer">
<polygon fill="#ffffff" stroke="#000000" points="1266,-180 1052,-180 1052,-144 1272,-144 1272,-174 1266,-180"/>
<polyline fill="none" stroke="#000000" points="1266,-180 1266,-174 "/>
<polyline fill="none" stroke="#000000" points="1272,-174 1266,-174 "/>
<text text-anchor="middle" x="1162" y="-158.3" font-family="Patua One" font-size="14.00" fill="#b03a2e">Testing Graphical User Interfaces</text>
</a>
</g>
</g>
<!-- GrammarCoverageFuzzer&#45;&gt;GUIFuzzer -->
<g id="edge21" class="edge">
<title>GrammarCoverageFuzzer&#45;&gt;GUIFuzzer</title>
<path fill="none" stroke="#000000" d="M836.9055,-217.6904C839.6364,-217.1064 842.3425,-216.5405 845,-216 909.6447,-202.8527 982.1505,-190.3374 1041.4875,-180.6719"/>
<polygon fill="#000000" stroke="#000000" points="1042.3389,-184.0796 1051.6494,-179.0234 1041.218,-177.1699 1042.3389,-184.0796"/>
</g>
<!-- APIFuzzer -->
<g id="node23" class="node">
<title>APIFuzzer</title>
<g id="a_node23"><a xlink:href="APIFuzzer.ipynb" xlink:title="APIFuzzer">
<polygon fill="#ffffff" stroke="#000000" points="554.5,-108 463.5,-108 463.5,-72 560.5,-72 560.5,-102 554.5,-108"/>
<polyline fill="none" stroke="#000000" points="554.5,-108 554.5,-102 "/>
<polyline fill="none" stroke="#000000" points="560.5,-102 554.5,-102 "/>
<text text-anchor="middle" x="512" y="-86.3" font-family="Patua One" font-size="14.00" fill="#b03a2e">Fuzzing APIs</text>
</a>
</g>
</g>
<!-- ProbabilisticGrammarFuzzer&#45;&gt;APIFuzzer -->
<g id="edge26" class="edge">
<title>ProbabilisticGrammarFuzzer&#45;&gt;APIFuzzer</title>
<path fill="none" stroke="#000000" d="M206.166,-143.9707C284.1365,-130.2112 388.8007,-111.741 453.2596,-100.366"/>
<polygon fill="#000000" stroke="#000000" points="454.0098,-103.7877 463.2494,-98.603 452.7933,-96.8942 454.0098,-103.7877"/>
</g>
<!-- InformationFlow -->
<g id="node22" class="node">
<title>InformationFlow</title>
<g id="a_node22"><a xlink:href="InformationFlow.ipynb" xlink:title="InformationFlow">
<polygon fill="#ffffff" stroke="#000000" points="403.5,-180 226.5,-180 226.5,-144 409.5,-144 409.5,-174 403.5,-180"/>
<polyline fill="none" stroke="#000000" points="403.5,-180 403.5,-174 "/>
<polyline fill="none" stroke="#000000" points="409.5,-174 403.5,-174 "/>
<text text-anchor="middle" x="318" y="-158.3" font-family="Patua One" font-size="14.00" fill="#b03a2e">Tracking Information Flow</text>
</a>
</g>
</g>
<!-- GrammarMiner&#45;&gt;InformationFlow -->
<g id="edge28" class="edge">
<title>GrammarMiner&#45;&gt;InformationFlow</title>
<path fill="none" stroke="#000000" d="M406.2236,-215.8314C391.1307,-206.6221 372.6243,-195.3301 356.4657,-185.4706"/>
<polygon fill="#000000" stroke="#000000" points="358.1263,-182.3838 347.7669,-180.1628 354.4802,-188.3593 358.1263,-182.3838"/>
</g>
<!-- GrammarFuzzer&#45;&gt;GrammarCoverageFuzzer -->
<g id="edge13" class="edge">
<title>GrammarFuzzer&#45;&gt;GrammarCoverageFuzzer</title>
<path fill="none" stroke="#000000" d="M733.1124,-287.8314C738.5281,-279.7079 745.0242,-269.9637 750.9921,-261.0118"/>
<polygon fill="#000000" stroke="#000000" points="754.0896,-262.6753 756.7245,-252.4133 748.2653,-258.7923 754.0896,-262.6753"/>
</g>
<!-- GrammarFuzzer&#45;&gt;GrammarMiner -->
<g id="edge17" class="edge">
<title>GrammarFuzzer&#45;&gt;GrammarMiner</title>
<path fill="none" stroke="#000000" d="M649.4503,-287.9243C609.3034,-277.7819 559.0692,-265.0912 517.4207,-254.5694"/>
<polygon fill="#000000" stroke="#000000" points="518.1318,-251.1392 507.5791,-252.0831 516.4172,-257.926 518.1318,-251.1392"/>
</g>
<!-- Parser -->
<g id="node14" class="node">
<title>Parser</title>
<g id="a_node14"><a xlink:href="Parser.ipynb" xlink:title="Parser">
<polygon fill="#ffffff" stroke="#000000" points="638.5,-252 537.5,-252 537.5,-216 644.5,-216 644.5,-246 638.5,-252"/>
<polyline fill="none" stroke="#000000" points="638.5,-252 638.5,-246 "/>
<polyline fill="none" stroke="#000000" points="644.5,-246 638.5,-246 "/>
<text text-anchor="middle" x="591" y="-230.3" font-family="Patua One" font-size="14.00" fill="#b03a2e">Parsing Inputs</text>
</a>
</g>
</g>
<!-- GrammarFuzzer&#45;&gt;Parser -->
<g id="edge14" class="edge">
<title>GrammarFuzzer&#45;&gt;Parser</title>
<path fill="none" stroke="#000000" d="M688.1955,-287.8314C671.4138,-278.5368 650.8015,-267.1208 632.8837,-257.1971"/>
<polygon fill="#000000" stroke="#000000" points="634.2377,-253.9461 623.794,-252.1628 630.8462,-260.0696 634.2377,-253.9461"/>
</g>
<!-- GeneratorGrammarFuzzer -->
<g id="node15" class="node">
<title>GeneratorGrammarFuzzer</title>
<g id="a_node15"><a xlink:href="GeneratorGrammarFuzzer.ipynb" xlink:title="GeneratorGrammarFuzzer">
<polygon fill="#ffffff" stroke="#000000" points="590,-180 428,-180 428,-144 596,-144 596,-174 590,-180"/>
<polyline fill="none" stroke="#000000" points="590,-180 590,-174 "/>
<polyline fill="none" stroke="#000000" points="596,-174 590,-174 "/>
<text text-anchor="middle" x="512" y="-158.3" font-family="Patua One" font-size="14.00" fill="#b03a2e">Fuzzing with Generators</text>
</a>
</g>
</g>
<!-- GrammarFuzzer&#45;&gt;GeneratorGrammarFuzzer -->
<g id="edge15" class="edge">
<title>GrammarFuzzer&#45;&gt;GeneratorGrammarFuzzer</title>
<path fill="none" stroke="#000000" d="M711.3298,-287.6946C699.861,-267.5797 678.9825,-235.5375 653,-216 634.6587,-202.2082 612.3726,-191.5342 590.9846,-183.4585"/>
<polygon fill="#000000" stroke="#000000" points="592.1583,-180.1612 581.5642,-180.0423 589.7719,-186.7419 592.1583,-180.1612"/>
</g>
<!-- Reducer -->
<g id="node16" class="node">
<title>Reducer</title>
<g id="a_node16"><a xlink:href="Reducer.ipynb" xlink:title="Reducer">
<polygon fill="#ffffff" stroke="#000000" points="1073.5,-252 854.5,-252 854.5,-216 1079.5,-216 1079.5,-246 1073.5,-252"/>
<polyline fill="none" stroke="#000000" points="1073.5,-252 1073.5,-246 "/>
<polyline fill="none" stroke="#000000" points="1079.5,-246 1073.5,-246 "/>
<text text-anchor="middle" x="967" y="-230.3" font-family="Patua One" font-size="14.00" fill="#b03a2e">Reducing Failure&#45;Inducing Inputs</text>
</a>
</g>
</g>
<!-- GrammarFuzzer&#45;&gt;Reducer -->
<g id="edge16" class="edge">
<title>GrammarFuzzer&#45;&gt;Reducer</title>
<path fill="none" stroke="#000000" d="M782.7587,-287.9243C816.9732,-277.9103 859.6756,-265.412 895.3524,-254.97"/>
<polygon fill="#000000" stroke="#000000" points="896.6017,-258.2513 905.2159,-252.0831 894.6354,-251.5331 896.6017,-258.2513"/>
</g>
<!-- WebFuzzer -->
<g id="node17" class="node">
<title>WebFuzzer</title>
<g id="a_node17"><a xlink:href="WebFuzzer.ipynb" xlink:title="WebFuzzer">
<polygon fill="#ffffff" stroke="#000000" points="1266,-252 1098,-252 1098,-216 1272,-216 1272,-246 1266,-252"/>
<polyline fill="none" stroke="#000000" points="1266,-252 1266,-246 "/>
<polyline fill="none" stroke="#000000" points="1272,-246 1266,-246 "/>
<text text-anchor="middle" x="1185" y="-230.3" font-family="Patua One" font-size="14.00" fill="#b03a2e">Testing Web Applications</text>
</a>
</g>
</g>
<!-- GrammarFuzzer&#45;&gt;WebFuzzer -->
<g id="edge18" class="edge">
<title>GrammarFuzzer&#45;&gt;WebFuzzer</title>
<path fill="none" stroke="#000000" d="M812.6531,-293.5792C884.7993,-283.5628 988.1395,-268.6894 1087.9481,-252.1443"/>
<polygon fill="#000000" stroke="#000000" points="1088.6166,-255.5812 1097.9058,-250.486 1087.4667,-248.6763 1088.6166,-255.5812"/>
</g>
<!-- Parser&#45;&gt;ProbabilisticGrammarFuzzer -->
<g id="edge23" class="edge">
<title>Parser&#45;&gt;ProbabilisticGrammarFuzzer</title>
<path fill="none" stroke="#000000" d="M537.1851,-217.9999C534.0895,-217.2745 531.012,-216.6005 528,-216 394.7382,-189.4342 356.6236,-198.4933 218.1771,-180.1145"/>
<polygon fill="#000000" stroke="#000000" points="218.4117,-176.6145 208.0329,-178.743 217.4737,-183.5514 218.4117,-176.6145"/>
</g>
<!-- LangFuzzer -->
<g id="node21" class="node">
<title>LangFuzzer</title>
<g id="a_node21"><a xlink:href="LangFuzzer.ipynb" xlink:title="LangFuzzer">
<polygon fill="#ffffff" stroke="#000000" points="812,-180 614,-180 614,-144 818,-144 818,-174 812,-180"/>
<polyline fill="none" stroke="#000000" points="812,-180 812,-174 "/>
<polyline fill="none" stroke="#000000" points="818,-174 812,-174 "/>
<text text-anchor="middle" x="716" y="-158.3" font-family="Patua One" font-size="14.00" fill="#b03a2e">Fuzzing with Input Fragments</text>
</a>
</g>
</g>
<!-- Parser&#45;&gt;LangFuzzer -->
<g id="edge22" class="edge">
<title>Parser&#45;&gt;LangFuzzer</title>
<path fill="none" stroke="#000000" d="M622.5428,-215.8314C638.6791,-206.5368 658.4986,-195.1208 675.7272,-185.1971"/>
<polygon fill="#000000" stroke="#000000" points="677.5489,-188.187 684.4673,-180.1628 674.055,-182.1212 677.5489,-188.187"/>
</g>
<!-- Parser&#45;&gt;InformationFlow -->
<g id="edge24" class="edge">
<title>Parser&#45;&gt;InformationFlow</title>
<path fill="none" stroke="#000000" d="M537.4108,-218.5839C534.229,-217.7012 531.0739,-216.8342 528,-216 485.8,-204.5479 438.6613,-192.3709 399.7537,-182.4846"/>
<polygon fill="#000000" stroke="#000000" points="400.6009,-179.0888 390.0473,-180.0224 398.8796,-185.8739 400.6009,-179.0888"/>
</g>
<!-- GeneratorGrammarFuzzer&#45;&gt;APIFuzzer -->
<g id="edge27" class="edge">
<title>GeneratorGrammarFuzzer&#45;&gt;APIFuzzer</title>
<path fill="none" stroke="#000000" d="M512,-143.8314C512,-136.131 512,-126.9743 512,-118.4166"/>
<polygon fill="#000000" stroke="#000000" points="515.5001,-118.4132 512,-108.4133 508.5001,-118.4133 515.5001,-118.4132"/>
</g>
<!-- WebFuzzer&#45;&gt;GUIFuzzer -->
<g id="edge30" class="edge">
<title>WebFuzzer&#45;&gt;GUIFuzzer</title>
<path fill="none" stroke="#000000" d="M1179.1961,-215.8314C1176.7092,-208.0463 1173.7469,-198.7729 1170.9875,-190.1347"/>
<polygon fill="#000000" stroke="#000000" points="1174.2591,-188.874 1167.882,-180.4133 1167.591,-191.0041 1174.2591,-188.874"/>
</g>
<!-- LangFuzzer&#45;&gt;EvoGrammarFuzzer -->
<g id="edge25" class="edge">
<title>LangFuzzer&#45;&gt;EvoGrammarFuzzer</title>
<path fill="none" stroke="#000000" d="M818.1997,-145.3197C821.1649,-144.8702 824.1033,-144.4293 827,-144 923.1927,-129.7426 1032.5825,-115.1538 1112.9411,-104.7398"/>
<polygon fill="#000000" stroke="#000000" points="1113.6211,-108.1811 1123.0893,-103.4268 1112.7228,-101.2389 1113.6211,-108.1811"/>
</g>
<!-- APIFuzzer&#45;&gt;Carver -->
<g id="edge29" class="edge">
<title>APIFuzzer&#45;&gt;Carver</title>
<path fill="none" stroke="#000000" d="M560.7542,-76.2879C598.4385,-65.6892 651.2311,-50.8413 694.1012,-38.784"/>
<polygon fill="#000000" stroke="#000000" points="695.2479,-42.0974 703.9268,-36.0206 693.3526,-35.3588 695.2479,-42.0974"/>
</g>
</g>
</svg>
