<?xml version="1.0" encoding="UTF-8" standalone="no"?>
<!DOCTYPE svg PUBLIC "-//W3C//DTD SVG 1.1//EN"
 "http://www.w3.org/Graphics/SVG/1.1/DTD/svg11.dtd">
<!-- Generated by graphviz version 2.40.1 (20161225.0304)
 -->
<!-- Title: %3 Pages: 1 -->
<svg width="1825pt" height="620pt"
 viewBox="0.00 0.00 1824.50 620.00" xmlns="http://www.w3.org/2000/svg" xmlns:xlink="http://www.w3.org/1999/xlink">
<g id="graph0" class="graph" transform="scale(1 1) rotate(0) translate(4 616)">
<title>%3</title>
<polygon fill="#ffffff" stroke="transparent" points="-4,4 -4,-616 1820.5,-616 1820.5,4 -4,4"/>
<!-- Fuzzer -->
<g id="node1" class="node">
<title>Fuzzer</title>
<g id="a_node1"><a xlink:href="Fuzzer.ipynb" xlink:title="Fuzzer">
<polygon fill="#ffffff" stroke="#000000" points="1323.5,-540 1025.5,-540 1025.5,-504 1329.5,-504 1329.5,-534 1323.5,-540"/>
<polyline fill="none" stroke="#000000" points="1323.5,-540 1323.5,-534 "/>
<polyline fill="none" stroke="#000000" points="1329.5,-534 1323.5,-534 "/>
<text text-anchor="middle" x="1177.5" y="-518.3" font-family="Patua One" font-size="14.00" fill="#b03a2e">Fuzzing: Breaking Things with Random Inputs</text>
</a>
</g>
</g>
<!-- Coverage -->
<g id="node2" class="node">
<title>Coverage</title>
<g id="a_node2"><a xlink:href="Coverage.ipynb" xlink:title="Coverage">
<polygon fill="#ffffff" stroke="#000000" points="860,-396 743,-396 743,-360 866,-360 866,-390 860,-396"/>
<polyline fill="none" stroke="#000000" points="860,-396 860,-390 "/>
<polyline fill="none" stroke="#000000" points="866,-390 860,-390 "/>
<text text-anchor="middle" x="804.5" y="-374.3" font-family="Patua One" font-size="14.00" fill="#b03a2e">Getting Coverage</text>
</a>
</g>
</g>
<!-- Fuzzer&#45;&gt;Coverage -->
<g id="edge1" class="edge">
<title>Fuzzer&#45;&gt;Coverage</title>
<path fill="none" stroke="#000000" d="M1113.1984,-503.9356C1080.3544,-494.2046 1039.9473,-481.452 1004.5,-468 950.616,-447.5513 890.5318,-419.82 850.4174,-400.5669"/>
<polygon fill="#000000" stroke="#000000" points="851.696,-397.2978 841.1682,-396.108 848.6562,-403.6034 851.696,-397.2978"/>
</g>
<!-- SearchBasedFuzzer -->
<g id="node3" class="node">
<title>SearchBasedFuzzer</title>
<g id="a_node3"><a xlink:href="SearchBasedFuzzer.ipynb" xlink:title="SearchBasedFuzzer">
<polygon fill="#ffffff" stroke="#000000" points="1159.5,-468 1013.5,-468 1013.5,-432 1165.5,-432 1165.5,-462 1159.5,-468"/>
<polyline fill="none" stroke="#000000" points="1159.5,-468 1159.5,-462 "/>
<polyline fill="none" stroke="#000000" points="1165.5,-462 1159.5,-462 "/>
<text text-anchor="middle" x="1089.5" y="-446.3" font-family="Patua One" font-size="14.00" fill="#b03a2e">Search&#45;Based Fuzzing</text>
</a>
</g>
</g>
<!-- Fuzzer&#45;&gt;SearchBasedFuzzer -->
<g id="edge2" class="edge">
<title>Fuzzer&#45;&gt;SearchBasedFuzzer</title>
<path fill="none" stroke="#000000" d="M1155.2939,-503.8314C1144.455,-494.9632 1131.2556,-484.1637 1119.5322,-474.5718"/>
<polygon fill="#000000" stroke="#000000" points="1121.655,-471.7864 1111.699,-468.1628 1117.2223,-477.2041 1121.655,-471.7864"/>
</g>
<!-- Grammars -->
<g id="node4" class="node">
<title>Grammars</title>
<g id="a_node4"><a xlink:href="Grammars.ipynb" xlink:title="Grammars">
<polygon fill="#ffffff" stroke="#000000" points="1343,-468 1184,-468 1184,-432 1349,-432 1349,-462 1343,-468"/>
<polyline fill="none" stroke="#000000" points="1343,-468 1343,-462 "/>
<polyline fill="none" stroke="#000000" points="1349,-462 1343,-462 "/>
<text text-anchor="middle" x="1266.5" y="-446.3" font-family="Patua One" font-size="14.00" fill="#b03a2e">Fuzzing with Grammars</text>
</a>
</g>
</g>
<!-- Fuzzer&#45;&gt;Grammars -->
<g id="edge3" class="edge">
<title>Fuzzer&#45;&gt;Grammars</title>
<path fill="none" stroke="#000000" d="M1199.9585,-503.8314C1210.9205,-494.9632 1224.2699,-484.1637 1236.1265,-474.5718"/>
<polygon fill="#000000" stroke="#000000" points="1238.4755,-477.1734 1244.0487,-468.1628 1234.0729,-471.7313 1238.4755,-477.1734"/>
</g>
<!-- FuzzingInTheLarge -->
<g id="node5" class="node">
<title>FuzzingInTheLarge</title>
<g id="a_node5"><a xlink:href="FuzzingInTheLarge.ipynb" xlink:title="FuzzingInTheLarge">
<polygon fill="#ffffff" stroke="#000000" points="1503.5,-468 1367.5,-468 1367.5,-432 1509.5,-432 1509.5,-462 1503.5,-468"/>
<polyline fill="none" stroke="#000000" points="1503.5,-468 1503.5,-462 "/>
<polyline fill="none" stroke="#000000" points="1509.5,-462 1503.5,-462 "/>
<text text-anchor="middle" x="1438.5" y="-446.3" font-family="Patua One" font-size="14.00" fill="#b03a2e">Fuzzing In the Large</text>
</a>
</g>
</g>
<!-- Fuzzer&#45;&gt;FuzzingInTheLarge -->
<g id="edge4" class="edge">
<title>Fuzzer&#45;&gt;FuzzingInTheLarge</title>
<path fill="none" stroke="#000000" d="M1243.0244,-503.9243C1279.4803,-493.8675 1325.0188,-481.3052 1362.9685,-470.8363"/>
<polygon fill="#000000" stroke="#000000" points="1364.2395,-474.1165 1372.9486,-468.0831 1362.3779,-467.3685 1364.2395,-474.1165"/>
</g>
<!-- MutationFuzzer -->
<g id="node7" class="node">
<title>MutationFuzzer</title>
<g id="a_node7"><a xlink:href="MutationFuzzer.ipynb" xlink:title="MutationFuzzer">
<polygon fill="#ffffff" stroke="#000000" points="336,-324 173,-324 173,-288 342,-288 342,-318 336,-324"/>
<polyline fill="none" stroke="#000000" points="336,-324 336,-318 "/>
<polyline fill="none" stroke="#000000" points="342,-318 336,-318 "/>
<text text-anchor="middle" x="257.5" y="-302.3" font-family="Patua One" font-size="14.00" fill="#b03a2e">Mutation&#45;Based Fuzzing</text>
</a>
</g>
</g>
<!-- Coverage&#45;&gt;MutationFuzzer -->
<g id="edge6" class="edge">
<title>Coverage&#45;&gt;MutationFuzzer</title>
<path fill="none" stroke="#000000" d="M742.764,-372.0354C657.3638,-363.4748 498.1686,-346.4035 352.0522,-324.0238"/>
<polygon fill="#000000" stroke="#000000" points="352.4189,-320.539 342.0021,-322.4727 351.3512,-327.4571 352.4189,-320.539"/>
</g>
<!-- MutationAnalysis -->
<g id="node8" class="node">
<title>MutationAnalysis</title>
<g id="a_node8"><a xlink:href="MutationAnalysis.ipynb" xlink:title="MutationAnalysis">
<polygon fill="#ffffff" stroke="#000000" points="704.5,-324 360.5,-324 360.5,-288 710.5,-288 710.5,-318 704.5,-324"/>
<polyline fill="none" stroke="#000000" points="704.5,-324 704.5,-318 "/>
<polyline fill="none" stroke="#000000" points="710.5,-318 704.5,-318 "/>
<text text-anchor="middle" x="535.5" y="-302.3" font-family="Patua One" font-size="14.00" fill="#b03a2e">Evaluating Test Effectiveness with Mutation Analysis</text>
</a>
</g>
</g>
<!-- Coverage&#45;&gt;MutationAnalysis -->
<g id="edge7" class="edge">
<title>Coverage&#45;&gt;MutationAnalysis</title>
<path fill="none" stroke="#000000" d="M742.786,-361.4817C704.1573,-351.1425 654.0663,-337.7352 612.8022,-326.6906"/>
<polygon fill="#000000" stroke="#000000" points="613.6235,-323.2872 603.0586,-324.0826 611.8136,-330.0492 613.6235,-323.2872"/>
</g>
<!-- GrammarCoverageFuzzer -->
<g id="node9" class="node">
<title>GrammarCoverageFuzzer</title>
<g id="a_node9"><a xlink:href="GrammarCoverageFuzzer.ipynb" xlink:title="GrammarCoverageFuzzer">
<polygon fill="#ffffff" stroke="#000000" points="1331,-324 1202,-324 1202,-288 1337,-288 1337,-318 1331,-324"/>
<polyline fill="none" stroke="#000000" points="1331,-324 1331,-318 "/>
<polyline fill="none" stroke="#000000" points="1337,-318 1331,-318 "/>
<text text-anchor="middle" x="1269.5" y="-302.3" font-family="Patua One" font-size="14.00" fill="#b03a2e">Grammar Coverage</text>
</a>
</g>
</g>
<!-- Coverage&#45;&gt;GrammarCoverageFuzzer -->
<g id="edge8" class="edge">
<title>Coverage&#45;&gt;GrammarCoverageFuzzer</title>
<path fill="none" stroke="#000000" d="M866.2484,-368.439C950.1866,-355.4421 1100.2999,-332.1987 1191.7972,-318.0314"/>
<polygon fill="#000000" stroke="#000000" points="1192.4869,-321.4664 1201.8335,-316.4774 1191.4157,-314.5488 1192.4869,-321.4664"/>
</g>
<!-- ProbabilisticGrammarFuzzer -->
<g id="node10" class="node">
<title>ProbabilisticGrammarFuzzer</title>
<g id="a_node10"><a xlink:href="ProbabilisticGrammarFuzzer.ipynb" xlink:title="ProbabilisticGrammarFuzzer">
<polygon fill="#ffffff" stroke="#000000" points="1170.5,-252 968.5,-252 968.5,-216 1176.5,-216 1176.5,-246 1170.5,-252"/>
<polyline fill="none" stroke="#000000" points="1170.5,-252 1170.5,-246 "/>
<polyline fill="none" stroke="#000000" points="1176.5,-246 1170.5,-246 "/>
<text text-anchor="middle" x="1072.5" y="-230.3" font-family="Patua One" font-size="14.00" fill="#b03a2e">Probabilistic Grammar Fuzzing</text>
</a>
</g>
</g>
<!-- Coverage&#45;&gt;ProbabilisticGrammarFuzzer -->
<g id="edge9" class="edge">
<title>Coverage&#45;&gt;ProbabilisticGrammarFuzzer</title>
<path fill="none" stroke="#000000" d="M866.1909,-376.1468C946.4185,-372.2872 1079.9445,-360.4197 1110.5,-324 1126.1432,-305.3545 1112.3088,-279.3332 1097.1287,-260.0637"/>
<polygon fill="#000000" stroke="#000000" points="1099.7145,-257.6995 1090.6226,-252.2599 1094.3379,-262.182 1099.7145,-257.6995"/>
</g>
<!-- GrammarMiner -->
<g id="node11" class="node">
<title>GrammarMiner</title>
<g id="a_node11"><a xlink:href="GrammarMiner.ipynb" xlink:title="GrammarMiner">
<polygon fill="#ffffff" stroke="#000000" points="889,-180 728,-180 728,-144 895,-144 895,-174 889,-180"/>
<polyline fill="none" stroke="#000000" points="889,-180 889,-174 "/>
<polyline fill="none" stroke="#000000" points="895,-174 889,-174 "/>
<text text-anchor="middle" x="811.5" y="-158.3" font-family="Patua One" font-size="14.00" fill="#b03a2e">Mining Input Grammars</text>
</a>
</g>
</g>
<!-- Coverage&#45;&gt;GrammarMiner -->
<g id="edge10" class="edge">
<title>Coverage&#45;&gt;GrammarMiner</title>
<path fill="none" stroke="#000000" d="M782.7328,-359.8165C773.0277,-350.2816 762.6403,-337.7355 757.5,-324 740.6762,-279.0449 739.1312,-260.3462 757.5,-216 762.0521,-205.0103 770.046,-195.0911 778.5102,-186.8418"/>
<polygon fill="#000000" stroke="#000000" points="780.9499,-189.354 785.9948,-180.0373 776.2411,-184.1745 780.9499,-189.354"/>
</g>
<!-- DynamicInvariants -->
<g id="node12" class="node">
<title>DynamicInvariants</title>
<g id="a_node12"><a xlink:href="DynamicInvariants.ipynb" xlink:title="DynamicInvariants">
<polygon fill="#ffffff" stroke="#000000" points="970.5,-324 766.5,-324 766.5,-288 976.5,-288 976.5,-318 970.5,-324"/>
<polyline fill="none" stroke="#000000" points="970.5,-324 970.5,-318 "/>
<polyline fill="none" stroke="#000000" points="976.5,-318 970.5,-318 "/>
<text text-anchor="middle" x="871.5" y="-302.3" font-family="Patua One" font-size="14.00" fill="#b03a2e">Mining Function Specifications</text>
</a>
</g>
</g>
<!-- Coverage&#45;&gt;DynamicInvariants -->
<g id="edge11" class="edge">
<title>Coverage&#45;&gt;DynamicInvariants</title>
<path fill="none" stroke="#000000" d="M821.4069,-359.8314C829.2813,-351.3694 838.792,-341.1489 847.4013,-331.8971"/>
<polygon fill="#000000" stroke="#000000" points="850.1153,-334.1183 854.3654,-324.4133 844.9908,-329.3497 850.1153,-334.1183"/>
</g>
<!-- WhenToStopFuzzing -->
<g id="node13" class="node">
<title>WhenToStopFuzzing</title>
<g id="a_node13"><a xlink:href="WhenToStopFuzzing.ipynb" xlink:title="WhenToStopFuzzing">
<polygon fill="#ffffff" stroke="#000000" points="149,-324 0,-324 0,-288 155,-288 155,-318 149,-324"/>
<polyline fill="none" stroke="#000000" points="149,-324 149,-318 "/>
<polyline fill="none" stroke="#000000" points="155,-318 149,-318 "/>
<text text-anchor="middle" x="77.5" y="-302.3" font-family="Patua One" font-size="14.00" fill="#b03a2e">When To Stop Fuzzing</text>
</a>
</g>
</g>
<!-- Coverage&#45;&gt;WhenToStopFuzzing -->
<g id="edge12" class="edge">
<title>Coverage&#45;&gt;WhenToStopFuzzing</title>
<path fill="none" stroke="#000000" d="M742.7831,-375.3143C629.8939,-369.8534 382.4759,-355.3485 165.2342,-324.1652"/>
<polygon fill="#000000" stroke="#000000" points="165.6385,-320.6873 155.2396,-322.7155 164.6336,-327.6148 165.6385,-320.6873"/>
</g>
<!-- GrammarFuzzer -->
<g id="node16" class="node">
<title>GrammarFuzzer</title>
<g id="a_node16"><a xlink:href="GrammarFuzzer.ipynb" xlink:title="GrammarFuzzer">
<polygon fill="#ffffff" stroke="#000000" points="1441,-396 1264,-396 1264,-360 1447,-360 1447,-390 1441,-396"/>
<polyline fill="none" stroke="#000000" points="1441,-396 1441,-390 "/>
<polyline fill="none" stroke="#000000" points="1447,-390 1441,-390 "/>
<text text-anchor="middle" x="1355.5" y="-374.3" font-family="Patua One" font-size="14.00" fill="#b03a2e">Efficient Grammar Fuzzing</text>
</a>
</g>
</g>
<!-- Grammars&#45;&gt;GrammarFuzzer -->
<g id="edge15" class="edge">
<title>Grammars&#45;&gt;GrammarFuzzer</title>
<path fill="none" stroke="#000000" d="M1288.9585,-431.8314C1299.9205,-422.9632 1313.2699,-412.1637 1325.1265,-402.5718"/>
<polygon fill="#000000" stroke="#000000" points="1327.4755,-405.1734 1333.0487,-396.1628 1323.0729,-399.7313 1327.4755,-405.1734"/>
</g>
<!-- Intro_Testing -->
<g id="node6" class="node">
<title>Intro_Testing</title>
<g id="a_node6"><a xlink:href="Intro_Testing.ipynb" xlink:title="Intro_Testing">
<polygon fill="#ffffff" stroke="#000000" points="1281,-612 1068,-612 1068,-576 1287,-576 1287,-606 1281,-612"/>
<polyline fill="none" stroke="#000000" points="1281,-612 1281,-606 "/>
<polyline fill="none" stroke="#000000" points="1287,-606 1281,-606 "/>
<text text-anchor="middle" x="1177.5" y="-590.3" font-family="Patua One" font-size="14.00" fill="#b03a2e">Introduction to Software Testing</text>
</a>
</g>
</g>
<!-- Intro_Testing&#45;&gt;Fuzzer -->
<g id="edge5" class="edge">
<title>Intro_Testing&#45;&gt;Fuzzer</title>
<path fill="none" stroke="#000000" d="M1177.5,-575.8314C1177.5,-568.131 1177.5,-558.9743 1177.5,-550.4166"/>
<polygon fill="#000000" stroke="#000000" points="1181.0001,-550.4132 1177.5,-540.4133 1174.0001,-550.4133 1181.0001,-550.4132"/>
</g>
<!-- GreyboxFuzzer -->
<g id="node14" class="node">
<title>GreyboxFuzzer</title>
<g id="a_node14"><a xlink:href="GreyboxFuzzer.ipynb" xlink:title="GreyboxFuzzer">
<polygon fill="#ffffff" stroke="#000000" points="589.5,-252 475.5,-252 475.5,-216 595.5,-216 595.5,-246 589.5,-252"/>
<polyline fill="none" stroke="#000000" points="589.5,-252 589.5,-246 "/>
<polyline fill="none" stroke="#000000" points="595.5,-246 589.5,-246 "/>
<text text-anchor="middle" x="535.5" y="-230.3" font-family="Patua One" font-size="14.00" fill="#b03a2e">Greybox Fuzzing</text>
</a>
</g>
</g>
<!-- MutationFuzzer&#45;&gt;GreyboxFuzzer -->
<g id="edge13" class="edge">
<title>MutationFuzzer&#45;&gt;GreyboxFuzzer</title>
<path fill="none" stroke="#000000" d="M327.2923,-287.9243C369.4312,-277.0106 422.963,-263.1463 465.194,-252.2087"/>
<polygon fill="#000000" stroke="#000000" points="466.3182,-255.5331 475.1213,-249.6377 464.5631,-248.7567 466.3182,-255.5331"/>
</g>
<!-- ConfigurationFuzzer -->
<g id="node21" class="node">
<title>ConfigurationFuzzer</title>
<g id="a_node21"><a xlink:href="ConfigurationFuzzer.ipynb" xlink:title="ConfigurationFuzzer">
<polygon fill="#ffffff" stroke="#000000" points="1386,-252 1233,-252 1233,-216 1392,-216 1392,-246 1386,-252"/>
<polyline fill="none" stroke="#000000" points="1386,-252 1386,-246 "/>
<polyline fill="none" stroke="#000000" points="1392,-246 1386,-246 "/>
<text text-anchor="middle" x="1312.5" y="-230.3" font-family="Patua One" font-size="14.00" fill="#b03a2e">Testing Configurations</text>
</a>
</g>
</g>
<!-- GrammarCoverageFuzzer&#45;&gt;ConfigurationFuzzer -->
<g id="edge21" class="edge">
<title>GrammarCoverageFuzzer&#45;&gt;ConfigurationFuzzer</title>
<path fill="none" stroke="#000000" d="M1280.3507,-287.8314C1285.2023,-279.7079 1291.0217,-269.9637 1296.368,-261.0118"/>
<polygon fill="#000000" stroke="#000000" points="1299.3806,-262.7933 1301.5032,-252.4133 1293.3708,-259.2041 1299.3806,-262.7933"/>
</g>
<!-- Carver -->
<g id="node22" class="node">
<title>Carver</title>
<g id="a_node22"><a xlink:href="Carver.ipynb" xlink:title="Carver">
<polygon fill="#ffffff" stroke="#000000" points="1302,-108 1177,-108 1177,-72 1308,-72 1308,-102 1302,-108"/>
<polyline fill="none" stroke="#000000" points="1302,-108 1302,-102 "/>
<polyline fill="none" stroke="#000000" points="1308,-102 1302,-102 "/>
<text text-anchor="middle" x="1242.5" y="-86.3" font-family="Patua One" font-size="14.00" fill="#b03a2e">Carving Unit Tests</text>
</a>
</g>
</g>
<!-- GrammarCoverageFuzzer&#45;&gt;Carver -->
<g id="edge22" class="edge">
<title>GrammarCoverageFuzzer&#45;&gt;Carver</title>
<path fill="none" stroke="#000000" d="M1248.1873,-287.7308C1238.6866,-278.1756 1228.521,-265.6372 1223.5,-252 1206.9154,-206.9561 1215.4189,-191.3149 1223.5,-144 1224.9988,-135.2245 1227.7751,-125.9785 1230.7513,-117.6659"/>
<polygon fill="#000000" stroke="#000000" points="1234.1126,-118.6742 1234.4083,-108.0835 1227.5727,-116.1782 1234.1126,-118.6742"/>
</g>
<!-- GUIFuzzer -->
<g id="node23" class="node">
<title>GUIFuzzer</title>
<g id="a_node23"><a xlink:href="GUIFuzzer.ipynb" xlink:title="GUIFuzzer">
<polygon fill="#ffffff" stroke="#000000" points="1624.5,-252 1410.5,-252 1410.5,-216 1630.5,-216 1630.5,-246 1624.5,-252"/>
<polyline fill="none" stroke="#000000" points="1624.5,-252 1624.5,-246 "/>
<polyline fill="none" stroke="#000000" points="1630.5,-246 1624.5,-246 "/>
<text text-anchor="middle" x="1520.5" y="-230.3" font-family="Patua One" font-size="14.00" fill="#b03a2e">Testing Graphical User Interfaces</text>
</a>
</g>
</g>
<!-- GrammarCoverageFuzzer&#45;&gt;GUIFuzzer -->
<g id="edge23" class="edge">
<title>GrammarCoverageFuzzer&#45;&gt;GUIFuzzer</title>
<path fill="none" stroke="#000000" d="M1332.5139,-287.9243C1367.4238,-277.9103 1410.9942,-265.412 1447.3962,-254.97"/>
<polygon fill="#000000" stroke="#000000" points="1448.8129,-258.2049 1457.4602,-252.0831 1446.8827,-251.4762 1448.8129,-258.2049"/>
</g>
<!-- APIFuzzer -->
<g id="node25" class="node">
<title>APIFuzzer</title>
<g id="a_node25"><a xlink:href="APIFuzzer.ipynb" xlink:title="APIFuzzer">
<polygon fill="#ffffff" stroke="#000000" points="1324,-180 1233,-180 1233,-144 1330,-144 1330,-174 1324,-180"/>
<polyline fill="none" stroke="#000000" points="1324,-180 1324,-174 "/>
<polyline fill="none" stroke="#000000" points="1330,-174 1324,-174 "/>
<text text-anchor="middle" x="1281.5" y="-158.3" font-family="Patua One" font-size="14.00" fill="#b03a2e">Fuzzing APIs</text>
</a>
</g>
</g>
<!-- ProbabilisticGrammarFuzzer&#45;&gt;APIFuzzer -->
<g id="edge27" class="edge">
<title>ProbabilisticGrammarFuzzer&#45;&gt;APIFuzzer</title>
<path fill="none" stroke="#000000" d="M1124.9698,-215.9243C1154.8657,-205.6252 1192.3893,-192.6984 1223.2026,-182.0833"/>
<polygon fill="#000000" stroke="#000000" points="1224.6382,-185.2907 1232.9529,-178.7244 1222.3582,-178.6724 1224.6382,-185.2907"/>
</g>
<!-- ConcolicFuzzer -->
<g id="node26" class="node">
<title>ConcolicFuzzer</title>
<g id="a_node26"><a xlink:href="ConcolicFuzzer.ipynb" xlink:title="ConcolicFuzzer">
<polygon fill="#ffffff" stroke="#000000" points="865.5,-108 751.5,-108 751.5,-72 871.5,-72 871.5,-102 865.5,-108"/>
<polyline fill="none" stroke="#000000" points="865.5,-108 865.5,-102 "/>
<polyline fill="none" stroke="#000000" points="871.5,-102 865.5,-102 "/>
<text text-anchor="middle" x="811.5" y="-86.3" font-family="Patua One" font-size="14.00" fill="#b03a2e">Concolic Fuzzing</text>
</a>
</g>
</g>
<!-- GrammarMiner&#45;&gt;ConcolicFuzzer -->
<g id="edge29" class="edge">
<title>GrammarMiner&#45;&gt;ConcolicFuzzer</title>
<path fill="none" stroke="#000000" d="M811.5,-143.8314C811.5,-136.131 811.5,-126.9743 811.5,-118.4166"/>
<polygon fill="#000000" stroke="#000000" points="815.0001,-118.4132 811.5,-108.4133 808.0001,-118.4133 815.0001,-118.4132"/>
</g>
<!-- GreyboxGrammarFuzzer -->
<g id="node15" class="node">
<title>GreyboxGrammarFuzzer</title>
<g id="a_node15"><a xlink:href="GreyboxGrammarFuzzer.ipynb" xlink:title="GreyboxGrammarFuzzer">
<polygon fill="#ffffff" stroke="#000000" points="656.5,-180 442.5,-180 442.5,-144 662.5,-144 662.5,-174 656.5,-180"/>
<polyline fill="none" stroke="#000000" points="656.5,-180 656.5,-174 "/>
<polyline fill="none" stroke="#000000" points="662.5,-174 656.5,-174 "/>
<text text-anchor="middle" x="552.5" y="-158.3" font-family="Patua One" font-size="14.00" fill="#b03a2e">Greybox Fuzzing with Grammars</text>
</a>
</g>
</g>
<!-- GreyboxFuzzer&#45;&gt;GreyboxGrammarFuzzer -->
<g id="edge14" class="edge">
<title>GreyboxFuzzer&#45;&gt;GreyboxGrammarFuzzer</title>
<path fill="none" stroke="#000000" d="M539.7898,-215.8314C541.608,-208.131 543.7699,-198.9743 545.7905,-190.4166"/>
<polygon fill="#000000" stroke="#000000" points="549.2608,-190.95 548.1524,-180.4133 542.4481,-189.3414 549.2608,-190.95"/>
</g>
<!-- GrammarFuzzer&#45;&gt;GrammarCoverageFuzzer -->
<g id="edge16" class="edge">
<title>GrammarFuzzer&#45;&gt;GrammarCoverageFuzzer</title>
<path fill="none" stroke="#000000" d="M1333.7986,-359.8314C1323.3079,-351.0485 1310.5545,-340.3712 1299.1806,-330.8489"/>
<polygon fill="#000000" stroke="#000000" points="1301.1089,-327.8986 1291.1945,-324.1628 1296.6153,-333.2659 1301.1089,-327.8986"/>
</g>
<!-- Parser -->
<g id="node17" class="node">
<title>Parser</title>
<g id="a_node17"><a xlink:href="Parser.ipynb" xlink:title="Parser">
<polygon fill="#ffffff" stroke="#000000" points="1096,-324 995,-324 995,-288 1102,-288 1102,-318 1096,-324"/>
<polyline fill="none" stroke="#000000" points="1096,-324 1096,-318 "/>
<polyline fill="none" stroke="#000000" points="1102,-318 1096,-318 "/>
<text text-anchor="middle" x="1048.5" y="-302.3" font-family="Patua One" font-size="14.00" fill="#b03a2e">Parsing Inputs</text>
</a>
</g>
</g>
<!-- GrammarFuzzer&#45;&gt;Parser -->
<g id="edge17" class="edge">
<title>GrammarFuzzer&#45;&gt;Parser</title>
<path fill="none" stroke="#000000" d="M1278.4272,-359.9243C1227.1885,-347.9074 1160.6962,-332.3131 1112.4055,-320.9876"/>
<polygon fill="#000000" stroke="#000000" points="1112.9242,-317.5144 1102.3891,-318.6385 1111.3258,-324.3294 1112.9242,-317.5144"/>
</g>
<!-- GeneratorGrammarFuzzer -->
<g id="node18" class="node">
<title>GeneratorGrammarFuzzer</title>
<g id="a_node18"><a xlink:href="GeneratorGrammarFuzzer.ipynb" xlink:title="GeneratorGrammarFuzzer">
<polygon fill="#ffffff" stroke="#000000" points="1810.5,-252 1648.5,-252 1648.5,-216 1816.5,-216 1816.5,-246 1810.5,-252"/>
<polyline fill="none" stroke="#000000" points="1810.5,-252 1810.5,-246 "/>
<polyline fill="none" stroke="#000000" points="1816.5,-246 1810.5,-246 "/>
<text text-anchor="middle" x="1732.5" y="-230.3" font-family="Patua One" font-size="14.00" fill="#b03a2e">Fuzzing with Generators</text>
</a>
</g>
</g>
<!-- GrammarFuzzer&#45;&gt;GeneratorGrammarFuzzer -->
<g id="edge18" class="edge">
<title>GrammarFuzzer&#45;&gt;GeneratorGrammarFuzzer</title>
<path fill="none" stroke="#000000" d="M1446.3152,-359.9913C1476.8319,-351.691 1510.2669,-340.0223 1538.5,-324 1559.0157,-312.3574 1557.2714,-300.1346 1577.5,-288 1600.2593,-274.3472 1626.9743,-263.4811 1651.7543,-255.1811"/>
<polygon fill="#000000" stroke="#000000" points="1653.0782,-258.431 1661.5063,-252.0109 1650.9141,-251.774 1653.0782,-258.431"/>
</g>
<!-- Reducer -->
<g id="node19" class="node">
<title>Reducer</title>
<g id="a_node19"><a xlink:href="Reducer.ipynb" xlink:title="Reducer">
<polygon fill="#ffffff" stroke="#000000" points="1805,-324 1586,-324 1586,-288 1811,-288 1811,-318 1805,-324"/>
<polyline fill="none" stroke="#000000" points="1805,-324 1805,-318 "/>
<polyline fill="none" stroke="#000000" points="1811,-318 1805,-318 "/>
<text text-anchor="middle" x="1698.5" y="-302.3" font-family="Patua One" font-size="14.00" fill="#b03a2e">Reducing Failure&#45;Inducing Inputs</text>
</a>
</g>
</g>
<!-- GrammarFuzzer&#45;&gt;Reducer -->
<g id="edge19" class="edge">
<title>GrammarFuzzer&#45;&gt;Reducer</title>
<path fill="none" stroke="#000000" d="M1441.6106,-359.9243C1490.6325,-349.634 1552.1511,-336.7205 1602.6958,-326.1105"/>
<polygon fill="#000000" stroke="#000000" points="1603.5838,-329.5005 1612.6515,-324.0207 1602.1457,-322.6498 1603.5838,-329.5005"/>
</g>
<!-- WebFuzzer -->
<g id="node20" class="node">
<title>WebFuzzer</title>
<g id="a_node20"><a xlink:href="WebFuzzer.ipynb" xlink:title="WebFuzzer">
<polygon fill="#ffffff" stroke="#000000" points="1523.5,-324 1355.5,-324 1355.5,-288 1529.5,-288 1529.5,-318 1523.5,-324"/>
<polyline fill="none" stroke="#000000" points="1523.5,-324 1523.5,-318 "/>
<polyline fill="none" stroke="#000000" points="1529.5,-318 1523.5,-318 "/>
<text text-anchor="middle" x="1442.5" y="-302.3" font-family="Patua One" font-size="14.00" fill="#b03a2e">Testing Web Applications</text>
</a>
</g>
</g>
<!-- GrammarFuzzer&#45;&gt;WebFuzzer -->
<g id="edge20" class="edge">
<title>GrammarFuzzer&#45;&gt;WebFuzzer</title>
<path fill="none" stroke="#000000" d="M1377.4538,-359.8314C1388.1695,-350.9632 1401.2189,-340.1637 1412.809,-330.5718"/>
<polygon fill="#000000" stroke="#000000" points="1415.0808,-333.2349 1420.5533,-324.1628 1410.6178,-327.8422 1415.0808,-333.2349"/>
</g>
<!-- Parser&#45;&gt;ProbabilisticGrammarFuzzer -->
<g id="edge24" class="edge">
<title>Parser&#45;&gt;ProbabilisticGrammarFuzzer</title>
<path fill="none" stroke="#000000" d="M1054.5562,-287.8314C1057.1512,-280.0463 1060.2424,-270.7729 1063.1218,-262.1347"/>
<polygon fill="#000000" stroke="#000000" points="1066.5203,-263.0069 1066.3622,-252.4133 1059.8795,-260.7933 1066.5203,-263.0069"/>
</g>
<!-- Parser&#45;&gt;GreyboxGrammarFuzzer -->
<g id="edge25" class="edge">
<title>Parser&#45;&gt;GreyboxGrammarFuzzer</title>
<path fill="none" stroke="#000000" d="M994.9969,-290.2341C991.7934,-289.4393 988.61,-288.6871 985.5,-288 885.3272,-265.8674 855.9463,-280.8579 757.5,-252 699.3651,-234.9587 636.0311,-205.3076 595.3776,-184.7177"/>
<polygon fill="#000000" stroke="#000000" points="596.8009,-181.5146 586.3035,-180.0813 593.6159,-187.748 596.8009,-181.5146"/>
</g>
<!-- InformationFlow -->
<g id="node24" class="node">
<title>InformationFlow</title>
<g id="a_node24"><a xlink:href="InformationFlow.ipynb" xlink:title="InformationFlow">
<polygon fill="#ffffff" stroke="#000000" points="944,-252 767,-252 767,-216 950,-216 950,-246 944,-252"/>
<polyline fill="none" stroke="#000000" points="944,-252 944,-246 "/>
<polyline fill="none" stroke="#000000" points="950,-246 944,-246 "/>
<text text-anchor="middle" x="858.5" y="-230.3" font-family="Patua One" font-size="14.00" fill="#b03a2e">Tracking Information Flow</text>
</a>
</g>
</g>
<!-- Parser&#45;&gt;InformationFlow -->
<g id="edge26" class="edge">
<title>Parser&#45;&gt;InformationFlow</title>
<path fill="none" stroke="#000000" d="M1000.555,-287.8314C974.6918,-278.0306 942.6038,-265.8709 915.472,-255.5894"/>
<polygon fill="#000000" stroke="#000000" points="916.6916,-252.3087 906.1003,-252.038 914.2111,-258.8545 916.6916,-252.3087"/>
</g>
<!-- GeneratorGrammarFuzzer&#45;&gt;APIFuzzer -->
<g id="edge28" class="edge">
<title>GeneratorGrammarFuzzer&#45;&gt;APIFuzzer</title>
<path fill="none" stroke="#000000" d="M1648.3791,-217.5564C1645.3841,-217.0226 1642.4173,-216.5021 1639.5,-216 1534.4064,-197.9116 1411.3753,-180.0816 1340.3387,-170.1119"/>
<polygon fill="#000000" stroke="#000000" points="1340.6321,-166.619 1330.2434,-168.6989 1339.6617,-173.5514 1340.6321,-166.619"/>
</g>
<!-- WebFuzzer&#45;&gt;GUIFuzzer -->
<g id="edge33" class="edge">
<title>WebFuzzer&#45;&gt;GUIFuzzer</title>
<path fill="none" stroke="#000000" d="M1462.1827,-287.8314C1471.6051,-279.1337 1483.0401,-268.5783 1493.2796,-259.1265"/>
<polygon fill="#000000" stroke="#000000" points="1495.8495,-261.5175 1500.8236,-252.1628 1491.1016,-256.3738 1495.8495,-261.5175"/>
</g>
<!-- InformationFlow&#45;&gt;GrammarMiner -->
<g id="edge30" class="edge">
<title>InformationFlow&#45;&gt;GrammarMiner</title>
<path fill="none" stroke="#000000" d="M846.6399,-215.8314C841.3371,-207.7079 834.9763,-197.9637 829.1327,-189.0118"/>
<polygon fill="#000000" stroke="#000000" points="831.9169,-186.8739 823.5198,-180.4133 826.0552,-190.7003 831.9169,-186.8739"/>
</g>
<!-- APIFuzzer&#45;&gt;Carver -->
<g id="edge32" class="edge">
<title>APIFuzzer&#45;&gt;Carver</title>
<path fill="none" stroke="#000000" d="M1271.6587,-143.8314C1267.3043,-135.7925 1262.0902,-126.1666 1257.2831,-117.2918"/>
<polygon fill="#000000" stroke="#000000" points="1260.3143,-115.5392 1252.4739,-108.4133 1254.1592,-118.8732 1260.3143,-115.5392"/>
</g>
<!-- SymbolicFuzzer -->
<g id="node27" class="node">
<title>SymbolicFuzzer</title>
<g id="a_node27"><a xlink:href="SymbolicFuzzer.ipynb" xlink:title="SymbolicFuzzer">
<polygon fill="#ffffff" stroke="#000000" points="868.5,-36 748.5,-36 748.5,0 874.5,0 874.5,-30 868.5,-36"/>
<polyline fill="none" stroke="#000000" points="868.5,-36 868.5,-30 "/>
<polyline fill="none" stroke="#000000" points="874.5,-30 868.5,-30 "/>
<text text-anchor="middle" x="811.5" y="-14.3" font-family="Patua One" font-size="14.00" fill="#b03a2e">Symbolic Fuzzing</text>
</a>
</g>
</g>
<!-- ConcolicFuzzer&#45;&gt;SymbolicFuzzer -->
<g id="edge31" class="edge">
<title>ConcolicFuzzer&#45;&gt;SymbolicFuzzer</title>
<path fill="none" stroke="#000000" d="M811.5,-71.8314C811.5,-64.131 811.5,-54.9743 811.5,-46.4166"/>
<polygon fill="#000000" stroke="#000000" points="815.0001,-46.4132 811.5,-36.4133 808.0001,-46.4133 815.0001,-46.4132"/>
</g>
</g>
</svg>
