<?xml version="1.0" encoding="UTF-8" standalone="no"?>
<!DOCTYPE svg PUBLIC "-//W3C//DTD SVG 1.1//EN"
 "http://www.w3.org/Graphics/SVG/1.1/DTD/svg11.dtd">
<!-- Generated by graphviz version 2.40.1 (20161225.0304)
 -->
<!-- Title: %3 Pages: 1 -->
<svg width="1243pt" height="548pt"
 viewBox="0.00 0.00 1243.19 548.00" xmlns="http://www.w3.org/2000/svg" xmlns:xlink="http://www.w3.org/1999/xlink">
<g id="graph0" class="graph" transform="scale(1 1) rotate(0) translate(4 544)">
<title>%3</title>
<polygon fill="#ffffff" stroke="transparent" points="-4,4 -4,-544 1239.1933,-544 1239.1933,4 -4,4"/>
<!-- Fuzzer -->
<g id="node1" class="node">
<title>Fuzzer</title>
<g id="a_node1"><a xlink:href="Fuzzer.ipynb" xlink:title="Fuzzer">
<polygon fill="#ffffff" stroke="#000000" points="804.6933,-468 506.6933,-468 506.6933,-432 810.6933,-432 810.6933,-462 804.6933,-468"/>
<polyline fill="none" stroke="#000000" points="804.6933,-468 804.6933,-462 "/>
<polyline fill="none" stroke="#000000" points="810.6933,-462 804.6933,-462 "/>
<text text-anchor="middle" x="658.6933" y="-446.3" font-family="Patua One" font-size="14.00" fill="#b03a2e">Fuzzing: Breaking Things with Random Inputs</text>
</a>
</g>
</g>
<!-- Coverage -->
<g id="node2" class="node">
<title>Coverage</title>
<g id="a_node2"><a xlink:href="Coverage.ipynb" xlink:title="Coverage">
<polygon fill="#ffffff" stroke="#000000" points="361.1933,-324 244.1933,-324 244.1933,-288 367.1933,-288 367.1933,-318 361.1933,-324"/>
<polyline fill="none" stroke="#000000" points="361.1933,-324 361.1933,-318 "/>
<polyline fill="none" stroke="#000000" points="367.1933,-318 361.1933,-318 "/>
<text text-anchor="middle" x="305.6933" y="-302.3" font-family="Patua One" font-size="14.00" fill="#b03a2e">Getting Coverage</text>
</a>
</g>
</g>
<!-- Fuzzer&#45;&gt;Coverage -->
<g id="edge1" class="edge">
<title>Fuzzer&#45;&gt;Coverage</title>
<path fill="none" stroke="#000000" d="M530.9357,-431.9625C474.0565,-422.397 414.3903,-409.7817 389.6933,-396 362.094,-380.5987 338.3517,-352.9604 323.2193,-332.361"/>
<polygon fill="#000000" stroke="#000000" points="325.9289,-330.1322 317.275,-324.0198 320.2283,-334.1947 325.9289,-330.1322"/>
</g>
<!-- SearchBasedFuzzer -->
<g id="node3" class="node">
<title>SearchBasedFuzzer</title>
<g id="a_node3"><a xlink:href="SearchBasedFuzzer.ipynb" xlink:title="SearchBasedFuzzer">
<polygon fill="#ffffff" stroke="#000000" points="728.6933,-396 582.6933,-396 582.6933,-360 734.6933,-360 734.6933,-390 728.6933,-396"/>
<polyline fill="none" stroke="#000000" points="728.6933,-396 728.6933,-390 "/>
<polyline fill="none" stroke="#000000" points="734.6933,-390 728.6933,-390 "/>
<text text-anchor="middle" x="658.6933" y="-374.3" font-family="Patua One" font-size="14.00" fill="#b03a2e">Search&#45;Based Fuzzing</text>
</a>
</g>
</g>
<!-- Fuzzer&#45;&gt;SearchBasedFuzzer -->
<g id="edge2" class="edge">
<title>Fuzzer&#45;&gt;SearchBasedFuzzer</title>
<path fill="none" stroke="#000000" d="M658.6933,-431.8314C658.6933,-424.131 658.6933,-414.9743 658.6933,-406.4166"/>
<polygon fill="#000000" stroke="#000000" points="662.1934,-406.4132 658.6933,-396.4133 655.1934,-406.4133 662.1934,-406.4132"/>
</g>
<!-- Grammars -->
<g id="node4" class="node">
<title>Grammars</title>
<g id="a_node4"><a xlink:href="Grammars.ipynb" xlink:title="Grammars">
<polygon fill="#ffffff" stroke="#000000" points="558.1933,-396 399.1933,-396 399.1933,-360 564.1933,-360 564.1933,-390 558.1933,-396"/>
<polyline fill="none" stroke="#000000" points="558.1933,-396 558.1933,-390 "/>
<polyline fill="none" stroke="#000000" points="564.1933,-390 558.1933,-390 "/>
<text text-anchor="middle" x="481.6933" y="-374.3" font-family="Patua One" font-size="14.00" fill="#b03a2e">Fuzzing with Grammars</text>
</a>
</g>
</g>
<!-- Fuzzer&#45;&gt;Grammars -->
<g id="edge3" class="edge">
<title>Fuzzer&#45;&gt;Grammars</title>
<path fill="none" stroke="#000000" d="M614.0287,-431.8314C590.1456,-422.1162 560.5643,-410.0831 535.4305,-399.8592"/>
<polygon fill="#000000" stroke="#000000" points="536.6184,-396.564 526.0367,-396.038 533.9808,-403.0481 536.6184,-396.564"/>
</g>
<!-- InformationFlow -->
<g id="node5" class="node">
<title>InformationFlow</title>
<g id="a_node5"><a xlink:href="InformationFlow.ipynb" xlink:title="InformationFlow">
<polygon fill="#ffffff" stroke="#000000" points="930.1933,-396 753.1933,-396 753.1933,-360 936.1933,-360 936.1933,-390 930.1933,-396"/>
<polyline fill="none" stroke="#000000" points="930.1933,-396 930.1933,-390 "/>
<polyline fill="none" stroke="#000000" points="936.1933,-390 930.1933,-390 "/>
<text text-anchor="middle" x="844.6933" y="-374.3" font-family="Patua One" font-size="14.00" fill="#b03a2e">Tracking Information Flow</text>
</a>
</g>
</g>
<!-- Fuzzer&#45;&gt;InformationFlow -->
<g id="edge4" class="edge">
<title>Fuzzer&#45;&gt;InformationFlow</title>
<path fill="none" stroke="#000000" d="M705.6289,-431.8314C730.837,-422.0734 762.0859,-409.977 788.5724,-399.7242"/>
<polygon fill="#000000" stroke="#000000" points="790.0329,-402.912 798.0951,-396.038 787.5059,-396.384 790.0329,-402.912"/>
</g>
<!-- FuzzingInTheLarge -->
<g id="node6" class="node">
<title>FuzzingInTheLarge</title>
<g id="a_node6"><a xlink:href="FuzzingInTheLarge.ipynb" xlink:title="FuzzingInTheLarge">
<polygon fill="#ffffff" stroke="#000000" points="1174.6933,-396 954.6933,-396 954.6933,-360 1180.6933,-360 1180.6933,-390 1174.6933,-396"/>
<polyline fill="none" stroke="#000000" points="1174.6933,-396 1174.6933,-390 "/>
<polyline fill="none" stroke="#000000" points="1180.6933,-390 1174.6933,-390 "/>
<text text-anchor="middle" x="1067.6933" y="-374.3" font-family="Patua One" font-size="14.00" fill="#b03a2e">Practical Steps with FuzzManager</text>
</a>
</g>
</g>
<!-- Fuzzer&#45;&gt;FuzzingInTheLarge -->
<g id="edge5" class="edge">
<title>Fuzzer&#45;&gt;FuzzingInTheLarge</title>
<path fill="none" stroke="#000000" d="M761.1097,-431.9707C820.1706,-421.5737 894.5102,-408.487 955.1948,-397.8041"/>
<polygon fill="#000000" stroke="#000000" points="955.9561,-401.224 965.1979,-396.0432 954.7425,-394.33 955.9561,-401.224"/>
</g>
<!-- MutationFuzzer -->
<g id="node8" class="node">
<title>MutationFuzzer</title>
<g id="a_node8"><a xlink:href="MutationFuzzer.ipynb" xlink:title="MutationFuzzer">
<polygon fill="#ffffff" stroke="#000000" points="180.1933,-252 17.1933,-252 17.1933,-216 186.1933,-216 186.1933,-246 180.1933,-252"/>
<polyline fill="none" stroke="#000000" points="180.1933,-252 180.1933,-246 "/>
<polyline fill="none" stroke="#000000" points="186.1933,-246 180.1933,-246 "/>
<text text-anchor="middle" x="101.6933" y="-230.3" font-family="Patua One" font-size="14.00" fill="#b03a2e">Mutation&#45;Based Fuzzing</text>
</a>
</g>
</g>
<!-- Coverage&#45;&gt;MutationFuzzer -->
<g id="edge7" class="edge">
<title>Coverage&#45;&gt;MutationFuzzer</title>
<path fill="none" stroke="#000000" d="M254.4788,-287.9243C226.5908,-278.0815 191.9026,-265.8386 162.6306,-255.5073"/>
<polygon fill="#000000" stroke="#000000" points="163.5236,-252.1109 152.9288,-252.0831 161.1939,-258.7119 163.5236,-252.1109"/>
</g>
<!-- GrammarCoverageFuzzer -->
<g id="node9" class="node">
<title>GrammarCoverageFuzzer</title>
<g id="a_node9"><a xlink:href="GrammarCoverageFuzzer.ipynb" xlink:title="GrammarCoverageFuzzer">
<polygon fill="#ffffff" stroke="#000000" points="570.1933,-252 441.1933,-252 441.1933,-216 576.1933,-216 576.1933,-246 570.1933,-252"/>
<polyline fill="none" stroke="#000000" points="570.1933,-252 570.1933,-246 "/>
<polyline fill="none" stroke="#000000" points="576.1933,-246 570.1933,-246 "/>
<text text-anchor="middle" x="508.6933" y="-230.3" font-family="Patua One" font-size="14.00" fill="#b03a2e">Grammar Coverage</text>
</a>
</g>
</g>
<!-- Coverage&#45;&gt;GrammarCoverageFuzzer -->
<g id="edge8" class="edge">
<title>Coverage&#45;&gt;GrammarCoverageFuzzer</title>
<path fill="none" stroke="#000000" d="M356.6567,-287.9243C384.408,-278.0815 418.9261,-265.8386 448.0547,-255.5073"/>
<polygon fill="#000000" stroke="#000000" points="449.4541,-258.7246 457.7089,-252.0831 447.1141,-252.1273 449.4541,-258.7246"/>
</g>
<!-- ProbabilisticGrammarFuzzer -->
<g id="node10" class="node">
<title>ProbabilisticGrammarFuzzer</title>
<g id="a_node10"><a xlink:href="ProbabilisticGrammarFuzzer.ipynb" xlink:title="ProbabilisticGrammarFuzzer">
<polygon fill="#ffffff" stroke="#000000" points="404.6933,-180 202.6933,-180 202.6933,-144 410.6933,-144 410.6933,-174 404.6933,-180"/>
<polyline fill="none" stroke="#000000" points="404.6933,-180 404.6933,-174 "/>
<polyline fill="none" stroke="#000000" points="410.6933,-174 404.6933,-174 "/>
<text text-anchor="middle" x="306.6933" y="-158.3" font-family="Patua One" font-size="14.00" fill="#b03a2e">Probabilistic Grammar Fuzzing</text>
</a>
</g>
</g>
<!-- Coverage&#45;&gt;ProbabilisticGrammarFuzzer -->
<g id="edge9" class="edge">
<title>Coverage&#45;&gt;ProbabilisticGrammarFuzzer</title>
<path fill="none" stroke="#000000" d="M243.9281,-303.8085C165.6097,-299.5806 37.1821,-287.3127 7.6933,-252 -2.5623,-239.719 -2.5659,-228.278 7.6933,-216 31.3152,-187.7297 118.1742,-174.2332 192.2303,-167.8049"/>
<polygon fill="#000000" stroke="#000000" points="192.9114,-171.2604 202.587,-166.9439 192.3314,-164.2845 192.9114,-171.2604"/>
</g>
<!-- GrammarFuzzer -->
<g id="node11" class="node">
<title>GrammarFuzzer</title>
<g id="a_node11"><a xlink:href="GrammarFuzzer.ipynb" xlink:title="GrammarFuzzer">
<polygon fill="#ffffff" stroke="#000000" points="792.1933,-324 615.1933,-324 615.1933,-288 798.1933,-288 798.1933,-318 792.1933,-324"/>
<polyline fill="none" stroke="#000000" points="792.1933,-324 792.1933,-318 "/>
<polyline fill="none" stroke="#000000" points="798.1933,-318 792.1933,-318 "/>
<text text-anchor="middle" x="706.6933" y="-302.3" font-family="Patua One" font-size="14.00" fill="#b03a2e">Efficient Grammar Fuzzing</text>
</a>
</g>
</g>
<!-- Grammars&#45;&gt;GrammarFuzzer -->
<g id="edge10" class="edge">
<title>Grammars&#45;&gt;GrammarFuzzer</title>
<path fill="none" stroke="#000000" d="M538.1798,-359.9243C569.2061,-349.9959 607.8636,-337.6255 640.3238,-327.2382"/>
<polygon fill="#000000" stroke="#000000" points="641.7259,-330.4645 650.1834,-324.0831 639.5925,-323.7975 641.7259,-330.4645"/>
</g>
<!-- Intro_Testing -->
<g id="node7" class="node">
<title>Intro_Testing</title>
<g id="a_node7"><a xlink:href="Intro_Testing.ipynb" xlink:title="Intro_Testing">
<polygon fill="#ffffff" stroke="#000000" points="762.1933,-540 549.1933,-540 549.1933,-504 768.1933,-504 768.1933,-534 762.1933,-540"/>
<polyline fill="none" stroke="#000000" points="762.1933,-540 762.1933,-534 "/>
<polyline fill="none" stroke="#000000" points="768.1933,-534 762.1933,-534 "/>
<text text-anchor="middle" x="658.6933" y="-518.3" font-family="Patua One" font-size="14.00" fill="#b03a2e">Introduction to Software Testing</text>
</a>
</g>
</g>
<!-- Intro_Testing&#45;&gt;Fuzzer -->
<g id="edge6" class="edge">
<title>Intro_Testing&#45;&gt;Fuzzer</title>
<path fill="none" stroke="#000000" d="M658.6933,-503.8314C658.6933,-496.131 658.6933,-486.9743 658.6933,-478.4166"/>
<polygon fill="#000000" stroke="#000000" points="662.1934,-478.4132 658.6933,-468.4133 655.1934,-478.4133 662.1934,-478.4132"/>
</g>
<!-- ConfigurationFuzzer -->
<g id="node17" class="node">
<title>ConfigurationFuzzer</title>
<g id="a_node17"><a xlink:href="ConfigurationFuzzer.ipynb" xlink:title="ConfigurationFuzzer">
<polygon fill="#ffffff" stroke="#000000" points="582.1933,-180 429.1933,-180 429.1933,-144 588.1933,-144 588.1933,-174 582.1933,-180"/>
<polyline fill="none" stroke="#000000" points="582.1933,-180 582.1933,-174 "/>
<polyline fill="none" stroke="#000000" points="588.1933,-174 582.1933,-174 "/>
<text text-anchor="middle" x="508.6933" y="-158.3" font-family="Patua One" font-size="14.00" fill="#b03a2e">Testing Configurations</text>
</a>
</g>
</g>
<!-- GrammarCoverageFuzzer&#45;&gt;ConfigurationFuzzer -->
<g id="edge17" class="edge">
<title>GrammarCoverageFuzzer&#45;&gt;ConfigurationFuzzer</title>
<path fill="none" stroke="#000000" d="M508.6933,-215.8314C508.6933,-208.131 508.6933,-198.9743 508.6933,-190.4166"/>
<polygon fill="#000000" stroke="#000000" points="512.1934,-190.4132 508.6933,-180.4133 505.1934,-190.4133 512.1934,-190.4132"/>
</g>
<!-- Carver -->
<g id="node18" class="node">
<title>Carver</title>
<g id="a_node18"><a xlink:href="Carver.ipynb" xlink:title="Carver">
<polygon fill="#ffffff" stroke="#000000" points="714.1933,-36 589.1933,-36 589.1933,0 720.1933,0 720.1933,-30 714.1933,-36"/>
<polyline fill="none" stroke="#000000" points="714.1933,-36 714.1933,-30 "/>
<polyline fill="none" stroke="#000000" points="720.1933,-30 714.1933,-30 "/>
<text text-anchor="middle" x="654.6933" y="-14.3" font-family="Patua One" font-size="14.00" fill="#b03a2e">Carving Unit Tests</text>
</a>
</g>
</g>
<!-- GrammarCoverageFuzzer&#45;&gt;Carver -->
<g id="edge18" class="edge">
<title>GrammarCoverageFuzzer&#45;&gt;Carver</title>
<path fill="none" stroke="#000000" d="M550.6846,-215.791C566.9198,-206.9861 584.4888,-195.0272 596.6933,-180 597.8012,-178.6358 628.6466,-91.6669 644.8925,-45.7381"/>
<polygon fill="#000000" stroke="#000000" points="648.2749,-46.6711 648.3088,-36.0763 641.6753,-44.3375 648.2749,-46.6711"/>
</g>
<!-- GUIFuzzer -->
<g id="node19" class="node">
<title>GUIFuzzer</title>
<g id="a_node19"><a xlink:href="GUIFuzzer.ipynb" xlink:title="GUIFuzzer">
<polygon fill="#ffffff" stroke="#000000" points="894.6933,-180 680.6933,-180 680.6933,-144 900.6933,-144 900.6933,-174 894.6933,-180"/>
<polyline fill="none" stroke="#000000" points="894.6933,-180 894.6933,-174 "/>
<polyline fill="none" stroke="#000000" points="900.6933,-174 894.6933,-174 "/>
<text text-anchor="middle" x="790.6933" y="-158.3" font-family="Patua One" font-size="14.00" fill="#b03a2e">Testing Graphical User Interfaces</text>
</a>
</g>
</g>
<!-- GrammarCoverageFuzzer&#45;&gt;GUIFuzzer -->
<g id="edge19" class="edge">
<title>GrammarCoverageFuzzer&#45;&gt;GUIFuzzer</title>
<path fill="none" stroke="#000000" d="M576.2393,-216.7542C616.4501,-206.4876 667.7189,-193.3977 710.0446,-182.5912"/>
<polygon fill="#000000" stroke="#000000" points="710.9399,-185.9749 719.7632,-180.1098 709.2081,-179.1925 710.9399,-185.9749"/>
</g>
<!-- APIFuzzer -->
<g id="node20" class="node">
<title>APIFuzzer</title>
<g id="a_node20"><a xlink:href="APIFuzzer.ipynb" xlink:title="APIFuzzer">
<polygon fill="#ffffff" stroke="#000000" points="736.1933,-108 645.1933,-108 645.1933,-72 742.1933,-72 742.1933,-102 736.1933,-108"/>
<polyline fill="none" stroke="#000000" points="736.1933,-108 736.1933,-102 "/>
<polyline fill="none" stroke="#000000" points="742.1933,-102 736.1933,-102 "/>
<text text-anchor="middle" x="693.6933" y="-86.3" font-family="Patua One" font-size="14.00" fill="#b03a2e">Fuzzing APIs</text>
</a>
</g>
</g>
<!-- ProbabilisticGrammarFuzzer&#45;&gt;APIFuzzer -->
<g id="edge21" class="edge">
<title>ProbabilisticGrammarFuzzer&#45;&gt;APIFuzzer</title>
<path fill="none" stroke="#000000" d="M403.8502,-143.9243C476.7041,-130.3701 574.021,-112.2646 635.283,-100.867"/>
<polygon fill="#000000" stroke="#000000" points="635.9776,-104.2979 645.1687,-99.0278 634.6972,-97.416 635.9776,-104.2979"/>
</g>
<!-- GrammarFuzzer&#45;&gt;GrammarCoverageFuzzer -->
<g id="edge11" class="edge">
<title>GrammarFuzzer&#45;&gt;GrammarCoverageFuzzer</title>
<path fill="none" stroke="#000000" d="M656.9851,-287.9243C629.9173,-278.0815 596.2494,-265.8386 567.8383,-255.5073"/>
<polygon fill="#000000" stroke="#000000" points="569.016,-252.2114 558.4219,-252.0831 566.6237,-258.7899 569.016,-252.2114"/>
</g>
<!-- Parser -->
<g id="node12" class="node">
<title>Parser</title>
<g id="a_node12"><a xlink:href="Parser.ipynb" xlink:title="Parser">
<polygon fill="#ffffff" stroke="#000000" points="416.6933,-252 204.6933,-252 204.6933,-216 422.6933,-216 422.6933,-246 416.6933,-252"/>
<polyline fill="none" stroke="#000000" points="416.6933,-252 416.6933,-246 "/>
<polyline fill="none" stroke="#000000" points="422.6933,-246 416.6933,-246 "/>
<text text-anchor="middle" x="313.6933" y="-230.3" font-family="Patua One" font-size="14.00" fill="#b03a2e">Parsing and Recombining Inputs</text>
</a>
</g>
</g>
<!-- GrammarFuzzer&#45;&gt;Parser -->
<g id="edge12" class="edge">
<title>GrammarFuzzer&#45;&gt;Parser</title>
<path fill="none" stroke="#000000" d="M615.0482,-289.2101C557.3603,-278.6413 482.6211,-264.9486 422.007,-253.8437"/>
<polygon fill="#000000" stroke="#000000" points="422.4876,-250.3736 412.0206,-252.0142 421.2261,-257.259 422.4876,-250.3736"/>
</g>
<!-- GeneratorGrammarFuzzer -->
<g id="node13" class="node">
<title>GeneratorGrammarFuzzer</title>
<g id="a_node13"><a xlink:href="GeneratorGrammarFuzzer.ipynb" xlink:title="GeneratorGrammarFuzzer">
<polygon fill="#ffffff" stroke="#000000" points="1098.6933,-180 936.6933,-180 936.6933,-144 1104.6933,-144 1104.6933,-174 1098.6933,-180"/>
<polyline fill="none" stroke="#000000" points="1098.6933,-180 1098.6933,-174 "/>
<polyline fill="none" stroke="#000000" points="1104.6933,-174 1098.6933,-174 "/>
<text text-anchor="middle" x="1020.6933" y="-158.3" font-family="Patua One" font-size="14.00" fill="#b03a2e">Fuzzing with Generators</text>
</a>
</g>
</g>
<!-- GrammarFuzzer&#45;&gt;GeneratorGrammarFuzzer -->
<g id="edge13" class="edge">
<title>GrammarFuzzer&#45;&gt;GeneratorGrammarFuzzer</title>
<path fill="none" stroke="#000000" d="M798.3964,-296.2436C885.8509,-285.9939 1006.3463,-269.0249 1020.6933,-252 1034.8612,-235.1876 1033.4543,-209.6665 1029.3136,-190.0897"/>
<polygon fill="#000000" stroke="#000000" points="1032.6689,-189.0759 1026.8907,-180.1954 1025.8697,-190.7409 1032.6689,-189.0759"/>
</g>
<!-- Reducer -->
<g id="node14" class="node">
<title>Reducer</title>
<g id="a_node14"><a xlink:href="Reducer.ipynb" xlink:title="Reducer">
<polygon fill="#ffffff" stroke="#000000" points="813.1933,-252 594.1933,-252 594.1933,-216 819.1933,-216 819.1933,-246 813.1933,-252"/>
<polyline fill="none" stroke="#000000" points="813.1933,-252 813.1933,-246 "/>
<polyline fill="none" stroke="#000000" points="819.1933,-246 813.1933,-246 "/>
<text text-anchor="middle" x="706.6933" y="-230.3" font-family="Patua One" font-size="14.00" fill="#b03a2e">Reducing Failure&#45;Inducing Inputs</text>
</a>
</g>
</g>
<!-- GrammarFuzzer&#45;&gt;Reducer -->
<g id="edge14" class="edge">
<title>GrammarFuzzer&#45;&gt;Reducer</title>
<path fill="none" stroke="#000000" d="M706.6933,-287.8314C706.6933,-280.131 706.6933,-270.9743 706.6933,-262.4166"/>
<polygon fill="#000000" stroke="#000000" points="710.1934,-262.4132 706.6933,-252.4133 703.1934,-262.4133 710.1934,-262.4132"/>
</g>
<!-- GrammarMiner -->
<g id="node15" class="node">
<title>GrammarMiner</title>
<g id="a_node15"><a xlink:href="GrammarMiner.ipynb" xlink:title="GrammarMiner">
<polygon fill="#ffffff" stroke="#000000" points="1229.1933,-252 1068.1933,-252 1068.1933,-216 1235.1933,-216 1235.1933,-246 1229.1933,-252"/>
<polyline fill="none" stroke="#000000" points="1229.1933,-252 1229.1933,-246 "/>
<polyline fill="none" stroke="#000000" points="1235.1933,-246 1229.1933,-246 "/>
<text text-anchor="middle" x="1151.6933" y="-230.3" font-family="Patua One" font-size="14.00" fill="#b03a2e">Mining Input Grammars</text>
</a>
</g>
</g>
<!-- GrammarFuzzer&#45;&gt;GrammarMiner -->
<g id="edge15" class="edge">
<title>GrammarFuzzer&#45;&gt;GrammarMiner</title>
<path fill="none" stroke="#000000" d="M798.4933,-292.4116C868.5058,-281.8792 967.2857,-266.6559 1053.6933,-252 1055.1589,-251.7514 1056.6366,-251.4992 1058.1239,-251.244"/>
<polygon fill="#000000" stroke="#000000" points="1058.7988,-254.6792 1068.0527,-249.5202 1057.6013,-247.7824 1058.7988,-254.6792"/>
</g>
<!-- WebFuzzer -->
<g id="node16" class="node">
<title>WebFuzzer</title>
<g id="a_node16"><a xlink:href="WebFuzzer.ipynb" xlink:title="WebFuzzer">
<polygon fill="#ffffff" stroke="#000000" points="1005.6933,-252 837.6933,-252 837.6933,-216 1011.6933,-216 1011.6933,-246 1005.6933,-252"/>
<polyline fill="none" stroke="#000000" points="1005.6933,-252 1005.6933,-246 "/>
<polyline fill="none" stroke="#000000" points="1011.6933,-246 1005.6933,-246 "/>
<text text-anchor="middle" x="924.6933" y="-230.3" font-family="Patua One" font-size="14.00" fill="#b03a2e">Testing Web Applications</text>
</a>
</g>
</g>
<!-- GrammarFuzzer&#45;&gt;WebFuzzer -->
<g id="edge16" class="edge">
<title>GrammarFuzzer&#45;&gt;WebFuzzer</title>
<path fill="none" stroke="#000000" d="M761.4225,-287.9243C791.4835,-277.9959 828.9383,-265.6255 860.3887,-255.2382"/>
<polygon fill="#000000" stroke="#000000" points="861.5437,-258.5428 869.9415,-252.0831 859.3483,-251.8959 861.5437,-258.5428"/>
</g>
<!-- Parser&#45;&gt;ProbabilisticGrammarFuzzer -->
<g id="edge20" class="edge">
<title>Parser&#45;&gt;ProbabilisticGrammarFuzzer</title>
<path fill="none" stroke="#000000" d="M311.9269,-215.8314C311.1782,-208.131 310.288,-198.9743 309.456,-190.4166"/>
<polygon fill="#000000" stroke="#000000" points="312.9348,-190.0276 308.4834,-180.4133 305.9676,-190.7051 312.9348,-190.0276"/>
</g>
<!-- GeneratorGrammarFuzzer&#45;&gt;APIFuzzer -->
<g id="edge22" class="edge">
<title>GeneratorGrammarFuzzer&#45;&gt;APIFuzzer</title>
<path fill="none" stroke="#000000" d="M938.5994,-143.9243C880.6018,-131.1542 804.2562,-114.3441 752.3271,-102.9102"/>
<polygon fill="#000000" stroke="#000000" points="752.7982,-99.4302 742.2795,-100.6979 751.293,-106.2664 752.7982,-99.4302"/>
</g>
<!-- WebFuzzer&#45;&gt;GUIFuzzer -->
<g id="edge24" class="edge">
<title>WebFuzzer&#45;&gt;GUIFuzzer</title>
<path fill="none" stroke="#000000" d="M890.8794,-215.8314C873.4226,-206.4516 851.9446,-194.9112 833.3581,-184.9244"/>
<polygon fill="#000000" stroke="#000000" points="834.9619,-181.8129 824.4963,-180.1628 831.6486,-187.9792 834.9619,-181.8129"/>
</g>
<!-- APIFuzzer&#45;&gt;Carver -->
<g id="edge23" class="edge">
<title>APIFuzzer&#45;&gt;Carver</title>
<path fill="none" stroke="#000000" d="M683.8519,-71.8314C679.4975,-63.7925 674.2835,-54.1666 669.4763,-45.2918"/>
<polygon fill="#000000" stroke="#000000" points="672.5075,-43.5392 664.6671,-36.4133 666.3525,-46.8732 672.5075,-43.5392"/>
</g>
</g>
</svg>
