<?xml version="1.0" encoding="UTF-8" standalone="no"?>
<!DOCTYPE svg PUBLIC "-//W3C//DTD SVG 1.1//EN"
 "http://www.w3.org/Graphics/SVG/1.1/DTD/svg11.dtd">
<!-- Generated by graphviz version 2.40.1 (20161225.0304)
 -->
<!-- Title: %3 Pages: 1 -->
<svg width="2085pt" height="548pt"
 viewBox="0.00 0.00 2085.00 548.00" xmlns="http://www.w3.org/2000/svg" xmlns:xlink="http://www.w3.org/1999/xlink">
<g id="graph0" class="graph" transform="scale(1 1) rotate(0) translate(4 544)">
<title>%3</title>
<polygon fill="#ffffff" stroke="transparent" points="-4,4 -4,-544 2081,-544 2081,4 -4,4"/>
<!-- Fuzzer -->
<g id="node1" class="node">
<title>Fuzzer</title>
<g id="a_node1"><a xlink:href="Fuzzer.ipynb" xlink:title="Fuzzer">
<polygon fill="#ffffff" stroke="#000000" points="1544,-468 1246,-468 1246,-432 1550,-432 1550,-462 1544,-468"/>
<polyline fill="none" stroke="#000000" points="1544,-468 1544,-462 "/>
<polyline fill="none" stroke="#000000" points="1550,-462 1544,-462 "/>
<text text-anchor="middle" x="1398" y="-446.3" font-family="Patua One" font-size="14.00" fill="#b03a2e">Fuzzing: Breaking Things with Random Inputs</text>
</a>
</g>
</g>
<!-- Coverage -->
<g id="node2" class="node">
<title>Coverage</title>
<g id="a_node2"><a xlink:href="Coverage.ipynb" xlink:title="Coverage">
<polygon fill="#ffffff" stroke="#000000" points="995.5,-324 878.5,-324 878.5,-288 1001.5,-288 1001.5,-318 995.5,-324"/>
<polyline fill="none" stroke="#000000" points="995.5,-324 995.5,-318 "/>
<polyline fill="none" stroke="#000000" points="1001.5,-318 995.5,-318 "/>
<text text-anchor="middle" x="940" y="-302.3" font-family="Patua One" font-size="14.00" fill="#b03a2e">Getting Coverage</text>
</a>
</g>
</g>
<!-- Fuzzer&#45;&gt;Coverage -->
<g id="edge1" class="edge">
<title>Fuzzer&#45;&gt;Coverage</title>
<path fill="none" stroke="#000000" d="M1336.6652,-431.9574C1301.8139,-421.6157 1257.4006,-408.2863 1218,-396 1144.5582,-373.0986 1060.5762,-345.7486 1004.3116,-327.2564"/>
<polygon fill="#000000" stroke="#000000" points="1005.078,-323.824 994.485,-324.0241 1002.8907,-330.4735 1005.078,-323.824"/>
</g>
<!-- SearchBasedFuzzer -->
<g id="node3" class="node">
<title>SearchBasedFuzzer</title>
<g id="a_node3"><a xlink:href="SearchBasedFuzzer.ipynb" xlink:title="SearchBasedFuzzer">
<polygon fill="#ffffff" stroke="#000000" points="1557,-396 1411,-396 1411,-360 1563,-360 1563,-390 1557,-396"/>
<polyline fill="none" stroke="#000000" points="1557,-396 1557,-390 "/>
<polyline fill="none" stroke="#000000" points="1563,-390 1557,-390 "/>
<text text-anchor="middle" x="1487" y="-374.3" font-family="Patua One" font-size="14.00" fill="#b03a2e">Search&#45;Based Fuzzing</text>
</a>
</g>
</g>
<!-- Fuzzer&#45;&gt;SearchBasedFuzzer -->
<g id="edge2" class="edge">
<title>Fuzzer&#45;&gt;SearchBasedFuzzer</title>
<path fill="none" stroke="#000000" d="M1420.4585,-431.8314C1431.4205,-422.9632 1444.7699,-412.1637 1456.6265,-402.5718"/>
<polygon fill="#000000" stroke="#000000" points="1458.9755,-405.1734 1464.5487,-396.1628 1454.5729,-399.7313 1458.9755,-405.1734"/>
</g>
<!-- Grammars -->
<g id="node4" class="node">
<title>Grammars</title>
<g id="a_node4"><a xlink:href="Grammars.ipynb" xlink:title="Grammars">
<polygon fill="#ffffff" stroke="#000000" points="1386.5,-396 1227.5,-396 1227.5,-360 1392.5,-360 1392.5,-390 1386.5,-396"/>
<polyline fill="none" stroke="#000000" points="1386.5,-396 1386.5,-390 "/>
<polyline fill="none" stroke="#000000" points="1392.5,-390 1386.5,-390 "/>
<text text-anchor="middle" x="1310" y="-374.3" font-family="Patua One" font-size="14.00" fill="#b03a2e">Fuzzing with Grammars</text>
</a>
</g>
</g>
<!-- Fuzzer&#45;&gt;Grammars -->
<g id="edge3" class="edge">
<title>Fuzzer&#45;&gt;Grammars</title>
<path fill="none" stroke="#000000" d="M1375.7939,-431.8314C1364.955,-422.9632 1351.7556,-412.1637 1340.0322,-402.5718"/>
<polygon fill="#000000" stroke="#000000" points="1342.155,-399.7864 1332.199,-396.1628 1337.7223,-405.2041 1342.155,-399.7864"/>
</g>
<!-- FuzzingInTheLarge -->
<g id="node5" class="node">
<title>FuzzingInTheLarge</title>
<g id="a_node5"><a xlink:href="FuzzingInTheLarge.ipynb" xlink:title="FuzzingInTheLarge">
<polygon fill="#ffffff" stroke="#000000" points="1801,-396 1581,-396 1581,-360 1807,-360 1807,-390 1801,-396"/>
<polyline fill="none" stroke="#000000" points="1801,-396 1801,-390 "/>
<polyline fill="none" stroke="#000000" points="1807,-390 1801,-390 "/>
<text text-anchor="middle" x="1694" y="-374.3" font-family="Patua One" font-size="14.00" fill="#b03a2e">Practical Steps with FuzzManager</text>
</a>
</g>
</g>
<!-- Fuzzer&#45;&gt;FuzzingInTheLarge -->
<g id="edge4" class="edge">
<title>Fuzzer&#45;&gt;FuzzingInTheLarge</title>
<path fill="none" stroke="#000000" d="M1472.3112,-431.9243C1514.1751,-421.7412 1566.5999,-408.9892 1609.9573,-398.4428"/>
<polygon fill="#000000" stroke="#000000" points="1611.0255,-401.7851 1619.915,-396.0207 1609.371,-394.9834 1611.0255,-401.7851"/>
</g>
<!-- MutationFuzzer -->
<g id="node7" class="node">
<title>MutationFuzzer</title>
<g id="a_node7"><a xlink:href="MutationFuzzer.ipynb" xlink:title="MutationFuzzer">
<polygon fill="#ffffff" stroke="#000000" points="933.5,-252 770.5,-252 770.5,-216 939.5,-216 939.5,-246 933.5,-252"/>
<polyline fill="none" stroke="#000000" points="933.5,-252 933.5,-246 "/>
<polyline fill="none" stroke="#000000" points="939.5,-246 933.5,-246 "/>
<text text-anchor="middle" x="855" y="-230.3" font-family="Patua One" font-size="14.00" fill="#b03a2e">Mutation&#45;Based Fuzzing</text>
</a>
</g>
</g>
<!-- Coverage&#45;&gt;MutationFuzzer -->
<g id="edge6" class="edge">
<title>Coverage&#45;&gt;MutationFuzzer</title>
<path fill="none" stroke="#000000" d="M918.5509,-287.8314C908.1822,-279.0485 895.5771,-268.3712 884.3354,-258.8489"/>
<polygon fill="#000000" stroke="#000000" points="886.3349,-255.9556 876.4422,-252.1628 881.8105,-261.297 886.3349,-255.9556"/>
</g>
<!-- MutationAnalysis -->
<g id="node8" class="node">
<title>MutationAnalysis</title>
<g id="a_node8"><a xlink:href="MutationAnalysis.ipynb" xlink:title="MutationAnalysis">
<polygon fill="#ffffff" stroke="#000000" points="746,-252 402,-252 402,-216 752,-216 752,-246 746,-252"/>
<polyline fill="none" stroke="#000000" points="746,-252 746,-246 "/>
<polyline fill="none" stroke="#000000" points="752,-246 746,-246 "/>
<text text-anchor="middle" x="577" y="-230.3" font-family="Patua One" font-size="14.00" fill="#b03a2e">Evaluating Test Effectiveness with Mutation Analysis</text>
</a>
</g>
</g>
<!-- Coverage&#45;&gt;MutationAnalysis -->
<g id="edge7" class="edge">
<title>Coverage&#45;&gt;MutationAnalysis</title>
<path fill="none" stroke="#000000" d="M878.422,-293.7862C823.6047,-282.9133 742.3709,-266.8008 678.0428,-254.0415"/>
<polygon fill="#000000" stroke="#000000" points="678.3602,-250.5364 667.8703,-252.0239 676.9982,-257.4026 678.3602,-250.5364"/>
</g>
<!-- GrammarCoverageFuzzer -->
<g id="node9" class="node">
<title>GrammarCoverageFuzzer</title>
<g id="a_node9"><a xlink:href="GrammarCoverageFuzzer.ipynb" xlink:title="GrammarCoverageFuzzer">
<polygon fill="#ffffff" stroke="#000000" points="1086.5,-252 957.5,-252 957.5,-216 1092.5,-216 1092.5,-246 1086.5,-252"/>
<polyline fill="none" stroke="#000000" points="1086.5,-252 1086.5,-246 "/>
<polyline fill="none" stroke="#000000" points="1092.5,-246 1086.5,-246 "/>
<text text-anchor="middle" x="1025" y="-230.3" font-family="Patua One" font-size="14.00" fill="#b03a2e">Grammar Coverage</text>
</a>
</g>
</g>
<!-- Coverage&#45;&gt;GrammarCoverageFuzzer -->
<g id="edge8" class="edge">
<title>Coverage&#45;&gt;GrammarCoverageFuzzer</title>
<path fill="none" stroke="#000000" d="M961.4491,-287.8314C971.8178,-279.0485 984.4229,-268.3712 995.6646,-258.8489"/>
<polygon fill="#000000" stroke="#000000" points="998.1895,-261.297 1003.5578,-252.1628 993.6651,-255.9556 998.1895,-261.297"/>
</g>
<!-- ProbabilisticGrammarFuzzer -->
<g id="node10" class="node">
<title>ProbabilisticGrammarFuzzer</title>
<g id="a_node10"><a xlink:href="ProbabilisticGrammarFuzzer.ipynb" xlink:title="ProbabilisticGrammarFuzzer">
<polygon fill="#ffffff" stroke="#000000" points="1461,-180 1259,-180 1259,-144 1467,-144 1467,-174 1461,-180"/>
<polyline fill="none" stroke="#000000" points="1461,-180 1461,-174 "/>
<polyline fill="none" stroke="#000000" points="1467,-174 1461,-174 "/>
<text text-anchor="middle" x="1363" y="-158.3" font-family="Patua One" font-size="14.00" fill="#b03a2e">Probabilistic Grammar Fuzzing</text>
</a>
</g>
</g>
<!-- Coverage&#45;&gt;ProbabilisticGrammarFuzzer -->
<g id="edge9" class="edge">
<title>Coverage&#45;&gt;ProbabilisticGrammarFuzzer</title>
<path fill="none" stroke="#000000" d="M1001.608,-302.1322C1089.5276,-295.6912 1245.7049,-280.5599 1294,-252 1307.224,-244.1798 1329.9677,-212.4471 1345.7097,-188.8632"/>
<polygon fill="#000000" stroke="#000000" points="1348.7802,-190.5648 1351.3657,-180.2903 1342.9372,-186.7098 1348.7802,-190.5648"/>
</g>
<!-- GrammarMiner -->
<g id="node11" class="node">
<title>GrammarMiner</title>
<g id="a_node11"><a xlink:href="GrammarMiner.ipynb" xlink:title="GrammarMiner">
<polygon fill="#ffffff" stroke="#000000" points="1502.5,-252 1341.5,-252 1341.5,-216 1508.5,-216 1508.5,-246 1502.5,-252"/>
<polyline fill="none" stroke="#000000" points="1502.5,-252 1502.5,-246 "/>
<polyline fill="none" stroke="#000000" points="1508.5,-246 1502.5,-246 "/>
<text text-anchor="middle" x="1425" y="-230.3" font-family="Patua One" font-size="14.00" fill="#b03a2e">Mining Input Grammars</text>
</a>
</g>
</g>
<!-- Coverage&#45;&gt;GrammarMiner -->
<g id="edge10" class="edge">
<title>Coverage&#45;&gt;GrammarMiner</title>
<path fill="none" stroke="#000000" d="M1001.7866,-298.2116C1078.2795,-288.3777 1212.4807,-270.498 1327,-252 1328.4676,-251.7629 1329.947,-251.5215 1331.436,-251.2763"/>
<polygon fill="#000000" stroke="#000000" points="1332.0912,-254.7154 1341.374,-249.6085 1330.9326,-247.8119 1332.0912,-254.7154"/>
</g>
<!-- DynamicInvariants -->
<g id="node12" class="node">
<title>DynamicInvariants</title>
<g id="a_node12"><a xlink:href="DynamicInvariants.ipynb" xlink:title="DynamicInvariants">
<polygon fill="#ffffff" stroke="#000000" points="204,-252 0,-252 0,-216 210,-216 210,-246 204,-252"/>
<polyline fill="none" stroke="#000000" points="204,-252 204,-246 "/>
<polyline fill="none" stroke="#000000" points="210,-246 204,-246 "/>
<text text-anchor="middle" x="105" y="-230.3" font-family="Patua One" font-size="14.00" fill="#b03a2e">Mining Function Specifications</text>
</a>
</g>
</g>
<!-- Coverage&#45;&gt;DynamicInvariants -->
<g id="edge11" class="edge">
<title>Coverage&#45;&gt;DynamicInvariants</title>
<path fill="none" stroke="#000000" d="M878.1126,-303.0754C754.8517,-296.8782 469.7821,-280.6863 220.2221,-252.0908"/>
<polygon fill="#000000" stroke="#000000" points="220.575,-248.6083 210.2394,-250.938 219.7719,-255.5621 220.575,-248.6083"/>
</g>
<!-- WhenToStopFuzzing -->
<g id="node13" class="node">
<title>WhenToStopFuzzing</title>
<g id="a_node13"><a xlink:href="WhenToStopFuzzing.ipynb" xlink:title="WhenToStopFuzzing">
<polygon fill="#ffffff" stroke="#000000" points="377.5,-252 228.5,-252 228.5,-216 383.5,-216 383.5,-246 377.5,-252"/>
<polyline fill="none" stroke="#000000" points="377.5,-252 377.5,-246 "/>
<polyline fill="none" stroke="#000000" points="383.5,-246 377.5,-246 "/>
<text text-anchor="middle" x="306" y="-230.3" font-family="Patua One" font-size="14.00" fill="#b03a2e">When To Stop Fuzzing</text>
</a>
</g>
</g>
<!-- Coverage&#45;&gt;WhenToStopFuzzing -->
<g id="edge12" class="edge">
<title>Coverage&#45;&gt;WhenToStopFuzzing</title>
<path fill="none" stroke="#000000" d="M878.2108,-302.0363C778.4281,-295.166 575.4993,-279.2534 393.7258,-252.0177"/>
<polygon fill="#000000" stroke="#000000" points="394.1259,-248.5385 383.7148,-250.5029 393.0786,-255.4597 394.1259,-248.5385"/>
</g>
<!-- GrammarFuzzer -->
<g id="node14" class="node">
<title>GrammarFuzzer</title>
<g id="a_node14"><a xlink:href="GrammarFuzzer.ipynb" xlink:title="GrammarFuzzer">
<polygon fill="#ffffff" stroke="#000000" points="1510.5,-324 1333.5,-324 1333.5,-288 1516.5,-288 1516.5,-318 1510.5,-324"/>
<polyline fill="none" stroke="#000000" points="1510.5,-324 1510.5,-318 "/>
<polyline fill="none" stroke="#000000" points="1516.5,-318 1510.5,-318 "/>
<text text-anchor="middle" x="1425" y="-302.3" font-family="Patua One" font-size="14.00" fill="#b03a2e">Efficient Grammar Fuzzing</text>
</a>
</g>
</g>
<!-- Grammars&#45;&gt;GrammarFuzzer -->
<g id="edge13" class="edge">
<title>Grammars&#45;&gt;GrammarFuzzer</title>
<path fill="none" stroke="#000000" d="M1339.0194,-359.8314C1353.7286,-350.6221 1371.7644,-339.3301 1387.5122,-329.4706"/>
<polygon fill="#000000" stroke="#000000" points="1389.3714,-332.436 1395.9899,-324.1628 1385.6567,-326.5029 1389.3714,-332.436"/>
</g>
<!-- Intro_Testing -->
<g id="node6" class="node">
<title>Intro_Testing</title>
<g id="a_node6"><a xlink:href="Intro_Testing.ipynb" xlink:title="Intro_Testing">
<polygon fill="#ffffff" stroke="#000000" points="1501.5,-540 1288.5,-540 1288.5,-504 1507.5,-504 1507.5,-534 1501.5,-540"/>
<polyline fill="none" stroke="#000000" points="1501.5,-540 1501.5,-534 "/>
<polyline fill="none" stroke="#000000" points="1507.5,-534 1501.5,-534 "/>
<text text-anchor="middle" x="1398" y="-518.3" font-family="Patua One" font-size="14.00" fill="#b03a2e">Introduction to Software Testing</text>
</a>
</g>
</g>
<!-- Intro_Testing&#45;&gt;Fuzzer -->
<g id="edge5" class="edge">
<title>Intro_Testing&#45;&gt;Fuzzer</title>
<path fill="none" stroke="#000000" d="M1398,-503.8314C1398,-496.131 1398,-486.9743 1398,-478.4166"/>
<polygon fill="#000000" stroke="#000000" points="1401.5001,-478.4132 1398,-468.4133 1394.5001,-478.4133 1401.5001,-478.4132"/>
</g>
<!-- ConfigurationFuzzer -->
<g id="node19" class="node">
<title>ConfigurationFuzzer</title>
<g id="a_node19"><a xlink:href="ConfigurationFuzzer.ipynb" xlink:title="ConfigurationFuzzer">
<polygon fill="#ffffff" stroke="#000000" points="958.5,-180 805.5,-180 805.5,-144 964.5,-144 964.5,-174 958.5,-180"/>
<polyline fill="none" stroke="#000000" points="958.5,-180 958.5,-174 "/>
<polyline fill="none" stroke="#000000" points="964.5,-174 958.5,-174 "/>
<text text-anchor="middle" x="885" y="-158.3" font-family="Patua One" font-size="14.00" fill="#b03a2e">Testing Configurations</text>
</a>
</g>
</g>
<!-- GrammarCoverageFuzzer&#45;&gt;ConfigurationFuzzer -->
<g id="edge20" class="edge">
<title>GrammarCoverageFuzzer&#45;&gt;ConfigurationFuzzer</title>
<path fill="none" stroke="#000000" d="M989.6721,-215.8314C971.3507,-206.4089 948.7898,-194.8062 929.3105,-184.7883"/>
<polygon fill="#000000" stroke="#000000" points="930.8102,-181.6239 920.3166,-180.1628 927.6088,-187.8489 930.8102,-181.6239"/>
</g>
<!-- Carver -->
<g id="node20" class="node">
<title>Carver</title>
<g id="a_node20"><a xlink:href="Carver.ipynb" xlink:title="Carver">
<polygon fill="#ffffff" stroke="#000000" points="1237.5,-36 1112.5,-36 1112.5,0 1243.5,0 1243.5,-30 1237.5,-36"/>
<polyline fill="none" stroke="#000000" points="1237.5,-36 1237.5,-30 "/>
<polyline fill="none" stroke="#000000" points="1243.5,-30 1237.5,-30 "/>
<text text-anchor="middle" x="1178" y="-14.3" font-family="Patua One" font-size="14.00" fill="#b03a2e">Carving Unit Tests</text>
</a>
</g>
</g>
<!-- GrammarCoverageFuzzer&#45;&gt;Carver -->
<g id="edge21" class="edge">
<title>GrammarCoverageFuzzer&#45;&gt;Carver</title>
<path fill="none" stroke="#000000" d="M1016.4293,-215.7738C1008.8548,-196.8637 1000.6283,-166.908 1012,-144 1035.7551,-96.1459 1087.335,-61.576 1126.7372,-40.8869"/>
<polygon fill="#000000" stroke="#000000" points="1128.6435,-43.8434 1135.9583,-36.1789 1125.4604,-37.609 1128.6435,-43.8434"/>
</g>
<!-- GUIFuzzer -->
<g id="node21" class="node">
<title>GUIFuzzer</title>
<g id="a_node21"><a xlink:href="GUIFuzzer.ipynb" xlink:title="GUIFuzzer">
<polygon fill="#ffffff" stroke="#000000" points="1235,-180 1021,-180 1021,-144 1241,-144 1241,-174 1235,-180"/>
<polyline fill="none" stroke="#000000" points="1235,-180 1235,-174 "/>
<polyline fill="none" stroke="#000000" points="1241,-174 1235,-174 "/>
<text text-anchor="middle" x="1131" y="-158.3" font-family="Patua One" font-size="14.00" fill="#b03a2e">Testing Graphical User Interfaces</text>
</a>
</g>
</g>
<!-- GrammarCoverageFuzzer&#45;&gt;GUIFuzzer -->
<g id="edge22" class="edge">
<title>GrammarCoverageFuzzer&#45;&gt;GUIFuzzer</title>
<path fill="none" stroke="#000000" d="M1051.7483,-215.8314C1065.0553,-206.7927 1081.316,-195.7476 1095.6375,-186.0198"/>
<polygon fill="#000000" stroke="#000000" points="1097.9547,-188.677 1104.2603,-180.1628 1094.0215,-182.8864 1097.9547,-188.677"/>
</g>
<!-- APIFuzzer -->
<g id="node24" class="node">
<title>APIFuzzer</title>
<g id="a_node24"><a xlink:href="APIFuzzer.ipynb" xlink:title="APIFuzzer">
<polygon fill="#ffffff" stroke="#000000" points="1405.5,-108 1314.5,-108 1314.5,-72 1411.5,-72 1411.5,-102 1405.5,-108"/>
<polyline fill="none" stroke="#000000" points="1405.5,-108 1405.5,-102 "/>
<polyline fill="none" stroke="#000000" points="1411.5,-102 1405.5,-102 "/>
<text text-anchor="middle" x="1363" y="-86.3" font-family="Patua One" font-size="14.00" fill="#b03a2e">Fuzzing APIs</text>
</a>
</g>
</g>
<!-- ProbabilisticGrammarFuzzer&#45;&gt;APIFuzzer -->
<g id="edge26" class="edge">
<title>ProbabilisticGrammarFuzzer&#45;&gt;APIFuzzer</title>
<path fill="none" stroke="#000000" d="M1363,-143.8314C1363,-136.131 1363,-126.9743 1363,-118.4166"/>
<polygon fill="#000000" stroke="#000000" points="1366.5001,-118.4132 1363,-108.4133 1359.5001,-118.4133 1366.5001,-118.4132"/>
</g>
<!-- InformationFlow -->
<g id="node23" class="node">
<title>InformationFlow</title>
<g id="a_node23"><a xlink:href="InformationFlow.ipynb" xlink:title="InformationFlow">
<polygon fill="#ffffff" stroke="#000000" points="1848.5,-180 1671.5,-180 1671.5,-144 1854.5,-144 1854.5,-174 1848.5,-180"/>
<polyline fill="none" stroke="#000000" points="1848.5,-180 1848.5,-174 "/>
<polyline fill="none" stroke="#000000" points="1854.5,-174 1848.5,-174 "/>
<text text-anchor="middle" x="1763" y="-158.3" font-family="Patua One" font-size="14.00" fill="#b03a2e">Tracking Information Flow</text>
</a>
</g>
</g>
<!-- GrammarMiner&#45;&gt;InformationFlow -->
<g id="edge28" class="edge">
<title>GrammarMiner&#45;&gt;InformationFlow</title>
<path fill="none" stroke="#000000" d="M1508.5506,-216.2022C1557.0263,-205.8761 1618.2307,-192.8384 1668.464,-182.1378"/>
<polygon fill="#000000" stroke="#000000" points="1669.3061,-185.5371 1678.3574,-180.0304 1667.8476,-178.6907 1669.3061,-185.5371"/>
</g>
<!-- GrammarFuzzer&#45;&gt;GrammarCoverageFuzzer -->
<g id="edge14" class="edge">
<title>GrammarFuzzer&#45;&gt;GrammarCoverageFuzzer</title>
<path fill="none" stroke="#000000" d="M1333.1737,-292.2505C1270.842,-282.5414 1186.3539,-268.6524 1102.5078,-252.0359"/>
<polygon fill="#000000" stroke="#000000" points="1103.0445,-248.574 1092.5529,-250.0494 1101.6746,-255.4387 1103.0445,-248.574"/>
</g>
<!-- GrammarFuzzer&#45;&gt;GrammarMiner -->
<g id="edge18" class="edge">
<title>GrammarFuzzer&#45;&gt;GrammarMiner</title>
<path fill="none" stroke="#000000" d="M1425,-287.8314C1425,-280.131 1425,-270.9743 1425,-262.4166"/>
<polygon fill="#000000" stroke="#000000" points="1428.5001,-262.4132 1425,-252.4133 1421.5001,-262.4133 1428.5001,-262.4132"/>
</g>
<!-- Parser -->
<g id="node15" class="node">
<title>Parser</title>
<g id="a_node15"><a xlink:href="Parser.ipynb" xlink:title="Parser">
<polygon fill="#ffffff" stroke="#000000" points="1909.5,-252 1808.5,-252 1808.5,-216 1915.5,-216 1915.5,-246 1909.5,-252"/>
<polyline fill="none" stroke="#000000" points="1909.5,-252 1909.5,-246 "/>
<polyline fill="none" stroke="#000000" points="1915.5,-246 1909.5,-246 "/>
<text text-anchor="middle" x="1862" y="-230.3" font-family="Patua One" font-size="14.00" fill="#b03a2e">Parsing Inputs</text>
</a>
</g>
</g>
<!-- GrammarFuzzer&#45;&gt;Parser -->
<g id="edge15" class="edge">
<title>GrammarFuzzer&#45;&gt;Parser</title>
<path fill="none" stroke="#000000" d="M1516.5657,-296.4322C1590.5009,-287.8708 1697.2813,-273.6224 1798.5653,-252.1715"/>
<polygon fill="#000000" stroke="#000000" points="1799.305,-255.5925 1808.3486,-250.0731 1797.8369,-248.7482 1799.305,-255.5925"/>
</g>
<!-- GeneratorGrammarFuzzer -->
<g id="node16" class="node">
<title>GeneratorGrammarFuzzer</title>
<g id="a_node16"><a xlink:href="GeneratorGrammarFuzzer.ipynb" xlink:title="GeneratorGrammarFuzzer">
<polygon fill="#ffffff" stroke="#000000" points="1647,-180 1485,-180 1485,-144 1653,-144 1653,-174 1647,-180"/>
<polyline fill="none" stroke="#000000" points="1647,-180 1647,-174 "/>
<polyline fill="none" stroke="#000000" points="1653,-174 1647,-174 "/>
<text text-anchor="middle" x="1569" y="-158.3" font-family="Patua One" font-size="14.00" fill="#b03a2e">Fuzzing with Generators</text>
</a>
</g>
</g>
<!-- GrammarFuzzer&#45;&gt;GeneratorGrammarFuzzer -->
<g id="edge16" class="edge">
<title>GrammarFuzzer&#45;&gt;GeneratorGrammarFuzzer</title>
<path fill="none" stroke="#000000" d="M1466.6798,-287.8305C1484.0029,-278.8396 1503.4232,-266.7309 1518,-252 1535.7492,-234.0631 1549.3784,-208.7037 1558.0632,-189.4731"/>
<polygon fill="#000000" stroke="#000000" points="1561.3832,-190.6142 1562.1498,-180.0471 1554.9608,-187.8297 1561.3832,-190.6142"/>
</g>
<!-- Reducer -->
<g id="node17" class="node">
<title>Reducer</title>
<g id="a_node17"><a xlink:href="Reducer.ipynb" xlink:title="Reducer">
<polygon fill="#ffffff" stroke="#000000" points="1784.5,-252 1565.5,-252 1565.5,-216 1790.5,-216 1790.5,-246 1784.5,-252"/>
<polyline fill="none" stroke="#000000" points="1784.5,-252 1784.5,-246 "/>
<polyline fill="none" stroke="#000000" points="1790.5,-246 1784.5,-246 "/>
<text text-anchor="middle" x="1678" y="-230.3" font-family="Patua One" font-size="14.00" fill="#b03a2e">Reducing Failure&#45;Inducing Inputs</text>
</a>
</g>
</g>
<!-- GrammarFuzzer&#45;&gt;Reducer -->
<g id="edge17" class="edge">
<title>GrammarFuzzer&#45;&gt;Reducer</title>
<path fill="none" stroke="#000000" d="M1488.516,-287.9243C1523.8545,-277.8675 1567.9971,-265.3052 1604.7837,-254.8363"/>
<polygon fill="#000000" stroke="#000000" points="1605.7978,-258.1867 1614.4578,-252.0831 1603.8817,-251.454 1605.7978,-258.1867"/>
</g>
<!-- WebFuzzer -->
<g id="node18" class="node">
<title>WebFuzzer</title>
<g id="a_node18"><a xlink:href="WebFuzzer.ipynb" xlink:title="WebFuzzer">
<polygon fill="#ffffff" stroke="#000000" points="1279,-252 1111,-252 1111,-216 1285,-216 1285,-246 1279,-252"/>
<polyline fill="none" stroke="#000000" points="1279,-252 1279,-246 "/>
<polyline fill="none" stroke="#000000" points="1285,-246 1279,-246 "/>
<text text-anchor="middle" x="1198" y="-230.3" font-family="Patua One" font-size="14.00" fill="#b03a2e">Testing Web Applications</text>
</a>
</g>
</g>
<!-- GrammarFuzzer&#45;&gt;WebFuzzer -->
<g id="edge19" class="edge">
<title>GrammarFuzzer&#45;&gt;WebFuzzer</title>
<path fill="none" stroke="#000000" d="M1368.0113,-287.9243C1336.7093,-277.9959 1297.7082,-265.6255 1264.9594,-255.2382"/>
<polygon fill="#000000" stroke="#000000" points="1265.6023,-251.7704 1255.0121,-252.0831 1263.4859,-258.4428 1265.6023,-251.7704"/>
</g>
<!-- Parser&#45;&gt;ProbabilisticGrammarFuzzer -->
<g id="edge24" class="edge">
<title>Parser&#45;&gt;ProbabilisticGrammarFuzzer</title>
<path fill="none" stroke="#000000" d="M1808.3711,-217.8185C1805.5507,-217.1595 1802.7481,-216.5474 1800,-216 1661.0966,-188.3334 1621.3552,-198.8958 1477.1393,-180.1036"/>
<polygon fill="#000000" stroke="#000000" points="1477.4042,-176.6082 1467.0304,-178.761 1476.4825,-183.5472 1477.4042,-176.6082"/>
</g>
<!-- LangFuzzer -->
<g id="node22" class="node">
<title>LangFuzzer</title>
<g id="a_node22"><a xlink:href="LangFuzzer.ipynb" xlink:title="LangFuzzer">
<polygon fill="#ffffff" stroke="#000000" points="2071,-180 1873,-180 1873,-144 2077,-144 2077,-174 2071,-180"/>
<polyline fill="none" stroke="#000000" points="2071,-180 2071,-174 "/>
<polyline fill="none" stroke="#000000" points="2077,-174 2071,-174 "/>
<text text-anchor="middle" x="1975" y="-158.3" font-family="Patua One" font-size="14.00" fill="#b03a2e">Fuzzing with Input Fragments</text>
</a>
</g>
</g>
<!-- Parser&#45;&gt;LangFuzzer -->
<g id="edge23" class="edge">
<title>Parser&#45;&gt;LangFuzzer</title>
<path fill="none" stroke="#000000" d="M1890.5147,-215.8314C1904.8342,-206.7074 1922.3624,-195.539 1937.7338,-185.7449"/>
<polygon fill="#000000" stroke="#000000" points="1939.9417,-188.4882 1946.4945,-180.1628 1936.1801,-182.5847 1939.9417,-188.4882"/>
</g>
<!-- Parser&#45;&gt;InformationFlow -->
<g id="edge25" class="edge">
<title>Parser&#45;&gt;InformationFlow</title>
<path fill="none" stroke="#000000" d="M1837.0181,-215.8314C1824.7072,-206.8779 1809.6893,-195.9558 1796.4063,-186.2955"/>
<polygon fill="#000000" stroke="#000000" points="1798.1199,-183.214 1787.9739,-180.1628 1794.0027,-188.8752 1798.1199,-183.214"/>
</g>
<!-- GeneratorGrammarFuzzer&#45;&gt;APIFuzzer -->
<g id="edge27" class="edge">
<title>GeneratorGrammarFuzzer&#45;&gt;APIFuzzer</title>
<path fill="none" stroke="#000000" d="M1517.2834,-143.9243C1488.0317,-133.7004 1451.3711,-120.887 1421.1267,-110.3161"/>
<polygon fill="#000000" stroke="#000000" points="1422.145,-106.9645 1411.5501,-106.969 1419.8353,-113.5725 1422.145,-106.9645"/>
</g>
<!-- WebFuzzer&#45;&gt;GUIFuzzer -->
<g id="edge32" class="edge">
<title>WebFuzzer&#45;&gt;GUIFuzzer</title>
<path fill="none" stroke="#000000" d="M1181.0931,-215.8314C1173.2187,-207.3694 1163.708,-197.1489 1155.0987,-187.8971"/>
<polygon fill="#000000" stroke="#000000" points="1157.5092,-185.3497 1148.1346,-180.4133 1152.3847,-190.1183 1157.5092,-185.3497"/>
</g>
<!-- ConcolicFuzzer -->
<g id="node25" class="node">
<title>ConcolicFuzzer</title>
<g id="a_node25"><a xlink:href="ConcolicFuzzer.ipynb" xlink:title="ConcolicFuzzer">
<polygon fill="#ffffff" stroke="#000000" points="1817,-108 1703,-108 1703,-72 1823,-72 1823,-102 1817,-108"/>
<polyline fill="none" stroke="#000000" points="1817,-108 1817,-102 "/>
<polyline fill="none" stroke="#000000" points="1823,-102 1817,-102 "/>
<text text-anchor="middle" x="1763" y="-86.3" font-family="Patua One" font-size="14.00" fill="#b03a2e">Concolic Fuzzing</text>
</a>
</g>
</g>
<!-- InformationFlow&#45;&gt;ConcolicFuzzer -->
<g id="edge29" class="edge">
<title>InformationFlow&#45;&gt;ConcolicFuzzer</title>
<path fill="none" stroke="#000000" d="M1763,-143.8314C1763,-136.131 1763,-126.9743 1763,-118.4166"/>
<polygon fill="#000000" stroke="#000000" points="1766.5001,-118.4132 1763,-108.4133 1759.5001,-118.4133 1766.5001,-118.4132"/>
</g>
<!-- APIFuzzer&#45;&gt;Carver -->
<g id="edge31" class="edge">
<title>APIFuzzer&#45;&gt;Carver</title>
<path fill="none" stroke="#000000" d="M1316.3167,-71.8314C1291.2441,-62.0734 1260.1633,-49.977 1233.8191,-39.7242"/>
<polygon fill="#000000" stroke="#000000" points="1234.9362,-36.4033 1224.3476,-36.038 1232.3973,-42.9266 1234.9362,-36.4033"/>
</g>
<!-- SymbolicFuzzer -->
<g id="node26" class="node">
<title>SymbolicFuzzer</title>
<g id="a_node26"><a xlink:href="SymbolicFuzzer.ipynb" xlink:title="SymbolicFuzzer">
<polygon fill="#ffffff" stroke="#000000" points="1820,-36 1700,-36 1700,0 1826,0 1826,-30 1820,-36"/>
<polyline fill="none" stroke="#000000" points="1820,-36 1820,-30 "/>
<polyline fill="none" stroke="#000000" points="1826,-30 1820,-30 "/>
<text text-anchor="middle" x="1763" y="-14.3" font-family="Patua One" font-size="14.00" fill="#b03a2e">Symbolic Fuzzing</text>
</a>
</g>
</g>
<!-- ConcolicFuzzer&#45;&gt;SymbolicFuzzer -->
<g id="edge30" class="edge">
<title>ConcolicFuzzer&#45;&gt;SymbolicFuzzer</title>
<path fill="none" stroke="#000000" d="M1763,-71.8314C1763,-64.131 1763,-54.9743 1763,-46.4166"/>
<polygon fill="#000000" stroke="#000000" points="1766.5001,-46.4132 1763,-36.4133 1759.5001,-46.4133 1766.5001,-46.4132"/>
</g>
</g>
</svg>
