<?xml version="1.0" encoding="UTF-8" standalone="no"?>
<!DOCTYPE svg PUBLIC "-//W3C//DTD SVG 1.1//EN"
 "http://www.w3.org/Graphics/SVG/1.1/DTD/svg11.dtd">
<!-- Generated by graphviz version 2.40.1 (20161225.0304)
 -->
<!-- Title: %3 Pages: 1 -->
<svg width="2095pt" height="620pt"
 viewBox="0.00 0.00 2095.00 620.00" xmlns="http://www.w3.org/2000/svg" xmlns:xlink="http://www.w3.org/1999/xlink">
<g id="graph0" class="graph" transform="scale(1 1) rotate(0) translate(4 616)">
<title>%3</title>
<polygon fill="#ffffff" stroke="transparent" points="-4,4 -4,-616 2091,-616 2091,4 -4,4"/>
<!-- Fuzzer -->
<g id="node1" class="node">
<title>Fuzzer</title>
<g id="a_node1"><a xlink:href="Fuzzer.ipynb" xlink:title="Fuzzer">
<polygon fill="#ffffff" stroke="#000000" points="1116.5,-540 818.5,-540 818.5,-504 1122.5,-504 1122.5,-534 1116.5,-540"/>
<polyline fill="none" stroke="#000000" points="1116.5,-540 1116.5,-534 "/>
<polyline fill="none" stroke="#000000" points="1122.5,-534 1116.5,-534 "/>
<text text-anchor="middle" x="970.5" y="-518.3" font-family="Patua One" font-size="14.00" fill="#b03a2e">Fuzzing: Breaking Things with Random Inputs</text>
</a>
</g>
</g>
<!-- Coverage -->
<g id="node2" class="node">
<title>Coverage</title>
<g id="a_node2"><a xlink:href="Coverage.ipynb" xlink:title="Coverage">
<polygon fill="#ffffff" stroke="#000000" points="1306,-396 1189,-396 1189,-360 1312,-360 1312,-390 1306,-396"/>
<polyline fill="none" stroke="#000000" points="1306,-396 1306,-390 "/>
<polyline fill="none" stroke="#000000" points="1312,-390 1306,-390 "/>
<text text-anchor="middle" x="1250.5" y="-374.3" font-family="Patua One" font-size="14.00" fill="#b03a2e">Getting Coverage</text>
</a>
</g>
</g>
<!-- Fuzzer&#45;&gt;Coverage -->
<g id="edge1" class="edge">
<title>Fuzzer&#45;&gt;Coverage</title>
<path fill="none" stroke="#000000" d="M968.941,-503.7539C968.276,-483.3852 970.6042,-450.8196 989.5,-432 1015.695,-405.9106 1110.8822,-391.3513 1178.7244,-384.0931"/>
<polygon fill="#000000" stroke="#000000" points="1179.358,-387.5462 1188.9432,-383.0325 1178.6353,-380.5837 1179.358,-387.5462"/>
</g>
<!-- SearchBasedFuzzer -->
<g id="node3" class="node">
<title>SearchBasedFuzzer</title>
<g id="a_node3"><a xlink:href="SearchBasedFuzzer.ipynb" xlink:title="SearchBasedFuzzer">
<polygon fill="#ffffff" stroke="#000000" points="1144.5,-468 998.5,-468 998.5,-432 1150.5,-432 1150.5,-462 1144.5,-468"/>
<polyline fill="none" stroke="#000000" points="1144.5,-468 1144.5,-462 "/>
<polyline fill="none" stroke="#000000" points="1150.5,-462 1144.5,-462 "/>
<text text-anchor="middle" x="1074.5" y="-446.3" font-family="Patua One" font-size="14.00" fill="#b03a2e">Search&#45;Based Fuzzing</text>
</a>
</g>
</g>
<!-- Fuzzer&#45;&gt;SearchBasedFuzzer -->
<g id="edge2" class="edge">
<title>Fuzzer&#45;&gt;SearchBasedFuzzer</title>
<path fill="none" stroke="#000000" d="M996.7436,-503.8314C1009.7995,-494.7927 1025.7535,-483.7476 1039.8047,-474.0198"/>
<polygon fill="#000000" stroke="#000000" points="1042.0351,-476.7326 1048.2648,-468.1628 1038.0506,-470.9773 1042.0351,-476.7326"/>
</g>
<!-- Grammars -->
<g id="node4" class="node">
<title>Grammars</title>
<g id="a_node4"><a xlink:href="Grammars.ipynb" xlink:title="Grammars">
<polygon fill="#ffffff" stroke="#000000" points="814,-468 655,-468 655,-432 820,-432 820,-462 814,-468"/>
<polyline fill="none" stroke="#000000" points="814,-468 814,-462 "/>
<polyline fill="none" stroke="#000000" points="820,-462 814,-462 "/>
<text text-anchor="middle" x="737.5" y="-446.3" font-family="Patua One" font-size="14.00" fill="#b03a2e">Fuzzing with Grammars</text>
</a>
</g>
</g>
<!-- Fuzzer&#45;&gt;Grammars -->
<g id="edge3" class="edge">
<title>Fuzzer&#45;&gt;Grammars</title>
<path fill="none" stroke="#000000" d="M912.005,-503.9243C879.7371,-493.9531 839.4984,-481.5188 805.7949,-471.104"/>
<polygon fill="#000000" stroke="#000000" points="806.6067,-467.6916 796.0191,-468.0831 804.5399,-474.3796 806.6067,-467.6916"/>
</g>
<!-- MutationFuzzer -->
<g id="node6" class="node">
<title>MutationFuzzer</title>
<g id="a_node6"><a xlink:href="MutationFuzzer.ipynb" xlink:title="MutationFuzzer">
<polygon fill="#ffffff" stroke="#000000" points="1273,-324 1110,-324 1110,-288 1279,-288 1279,-318 1273,-324"/>
<polyline fill="none" stroke="#000000" points="1273,-324 1273,-318 "/>
<polyline fill="none" stroke="#000000" points="1279,-318 1273,-318 "/>
<text text-anchor="middle" x="1194.5" y="-302.3" font-family="Patua One" font-size="14.00" fill="#b03a2e">Mutation&#45;Based Fuzzing</text>
</a>
</g>
</g>
<!-- Coverage&#45;&gt;MutationFuzzer -->
<g id="edge5" class="edge">
<title>Coverage&#45;&gt;MutationFuzzer</title>
<path fill="none" stroke="#000000" d="M1236.3688,-359.8314C1229.9189,-351.5386 1222.1555,-341.557 1215.0748,-332.4533"/>
<polygon fill="#000000" stroke="#000000" points="1217.7236,-330.158 1208.8214,-324.4133 1212.1981,-334.4556 1217.7236,-330.158"/>
</g>
<!-- MutationAnalysis -->
<g id="node7" class="node">
<title>MutationAnalysis</title>
<g id="a_node7"><a xlink:href="MutationAnalysis.ipynb" xlink:title="MutationAnalysis">
<polygon fill="#ffffff" stroke="#000000" points="1679.5,-324 1335.5,-324 1335.5,-288 1685.5,-288 1685.5,-318 1679.5,-324"/>
<polyline fill="none" stroke="#000000" points="1679.5,-324 1679.5,-318 "/>
<polyline fill="none" stroke="#000000" points="1685.5,-318 1679.5,-318 "/>
<text text-anchor="middle" x="1510.5" y="-302.3" font-family="Patua One" font-size="14.00" fill="#b03a2e">Evaluating Test Effectiveness with Mutation Analysis</text>
</a>
</g>
</g>
<!-- Coverage&#45;&gt;MutationAnalysis -->
<g id="edge6" class="edge">
<title>Coverage&#45;&gt;MutationAnalysis</title>
<path fill="none" stroke="#000000" d="M1312.1164,-360.937C1349.0786,-350.7013 1396.3514,-337.6104 1435.4788,-326.7751"/>
<polygon fill="#000000" stroke="#000000" points="1436.5365,-330.114 1445.2397,-324.0721 1434.6683,-323.3679 1436.5365,-330.114"/>
</g>
<!-- GrammarCoverageFuzzer -->
<g id="node8" class="node">
<title>GrammarCoverageFuzzer</title>
<g id="a_node8"><a xlink:href="GrammarCoverageFuzzer.ipynb" xlink:title="GrammarCoverageFuzzer">
<polygon fill="#ffffff" stroke="#000000" points="603,-324 474,-324 474,-288 609,-288 609,-318 603,-324"/>
<polyline fill="none" stroke="#000000" points="603,-324 603,-318 "/>
<polyline fill="none" stroke="#000000" points="609,-318 603,-318 "/>
<text text-anchor="middle" x="541.5" y="-302.3" font-family="Patua One" font-size="14.00" fill="#b03a2e">Grammar Coverage</text>
</a>
</g>
</g>
<!-- Coverage&#45;&gt;GrammarCoverageFuzzer -->
<g id="edge7" class="edge">
<title>Coverage&#45;&gt;GrammarCoverageFuzzer</title>
<path fill="none" stroke="#000000" d="M1188.8212,-371.7364C1059.8144,-358.6356 761.7042,-328.3621 619.5883,-313.93"/>
<polygon fill="#000000" stroke="#000000" points="619.5196,-310.4051 609.2171,-312.8768 618.8123,-317.3693 619.5196,-310.4051"/>
</g>
<!-- ProbabilisticGrammarFuzzer -->
<g id="node9" class="node">
<title>ProbabilisticGrammarFuzzer</title>
<g id="a_node9"><a xlink:href="ProbabilisticGrammarFuzzer.ipynb" xlink:title="ProbabilisticGrammarFuzzer">
<polygon fill="#ffffff" stroke="#000000" points="895.5,-252 693.5,-252 693.5,-216 901.5,-216 901.5,-246 895.5,-252"/>
<polyline fill="none" stroke="#000000" points="895.5,-252 895.5,-246 "/>
<polyline fill="none" stroke="#000000" points="901.5,-246 895.5,-246 "/>
<text text-anchor="middle" x="797.5" y="-230.3" font-family="Patua One" font-size="14.00" fill="#b03a2e">Probabilistic Grammar Fuzzing</text>
</a>
</g>
</g>
<!-- Coverage&#45;&gt;ProbabilisticGrammarFuzzer -->
<g id="edge8" class="edge">
<title>Coverage&#45;&gt;ProbabilisticGrammarFuzzer</title>
<path fill="none" stroke="#000000" d="M1188.824,-376.8577C1088.5234,-373.8677 895.7875,-363.0582 841.5,-324 821.089,-309.3149 809.6988,-282.5123 803.6503,-261.9623"/>
<polygon fill="#000000" stroke="#000000" points="806.9953,-260.9227 801.0243,-252.1706 800.2342,-262.7359 806.9953,-260.9227"/>
</g>
<!-- GrammarMiner -->
<g id="node10" class="node">
<title>GrammarMiner</title>
<g id="a_node10"><a xlink:href="GrammarMiner.ipynb" xlink:title="GrammarMiner">
<polygon fill="#ffffff" stroke="#000000" points="1343,-180 1182,-180 1182,-144 1349,-144 1349,-174 1343,-180"/>
<polyline fill="none" stroke="#000000" points="1343,-180 1343,-174 "/>
<polyline fill="none" stroke="#000000" points="1349,-174 1343,-174 "/>
<text text-anchor="middle" x="1265.5" y="-158.3" font-family="Patua One" font-size="14.00" fill="#b03a2e">Mining Input Grammars</text>
</a>
</g>
</g>
<!-- Coverage&#45;&gt;GrammarMiner -->
<g id="edge9" class="edge">
<title>Coverage&#45;&gt;GrammarMiner</title>
<path fill="none" stroke="#000000" d="M1266.8526,-359.9654C1274.7064,-350.0988 1283.3061,-337.2153 1287.5,-324 1302.02,-278.2467 1298.099,-263.0325 1288.5,-216 1286.6839,-207.1016 1283.3446,-197.8541 1279.7629,-189.5789"/>
<polygon fill="#000000" stroke="#000000" points="1282.8911,-188.0044 1275.5235,-180.3906 1276.5349,-190.937 1282.8911,-188.0044"/>
</g>
<!-- DynamicInvariants -->
<g id="node11" class="node">
<title>DynamicInvariants</title>
<g id="a_node11"><a xlink:href="DynamicInvariants.ipynb" xlink:title="DynamicInvariants">
<polygon fill="#ffffff" stroke="#000000" points="1907.5,-324 1703.5,-324 1703.5,-288 1913.5,-288 1913.5,-318 1907.5,-324"/>
<polyline fill="none" stroke="#000000" points="1907.5,-324 1907.5,-318 "/>
<polyline fill="none" stroke="#000000" points="1913.5,-318 1907.5,-318 "/>
<text text-anchor="middle" x="1808.5" y="-302.3" font-family="Patua One" font-size="14.00" fill="#b03a2e">Mining Function Specifications</text>
</a>
</g>
</g>
<!-- Coverage&#45;&gt;DynamicInvariants -->
<g id="edge10" class="edge">
<title>Coverage&#45;&gt;DynamicInvariants</title>
<path fill="none" stroke="#000000" d="M1312.3621,-371.1798C1396.2243,-361.7775 1550.9134,-343.8817 1693.0284,-324.1815"/>
<polygon fill="#000000" stroke="#000000" points="1693.816,-327.6057 1703.2378,-322.76 1692.8506,-320.6725 1693.816,-327.6057"/>
</g>
<!-- WhenToStopFuzzing -->
<g id="node12" class="node">
<title>WhenToStopFuzzing</title>
<g id="a_node12"><a xlink:href="WhenToStopFuzzing.ipynb" xlink:title="WhenToStopFuzzing">
<polygon fill="#ffffff" stroke="#000000" points="2081,-324 1932,-324 1932,-288 2087,-288 2087,-318 2081,-324"/>
<polyline fill="none" stroke="#000000" points="2081,-324 2081,-318 "/>
<polyline fill="none" stroke="#000000" points="2087,-318 2081,-318 "/>
<text text-anchor="middle" x="2009.5" y="-302.3" font-family="Patua One" font-size="14.00" fill="#b03a2e">When To Stop Fuzzing</text>
</a>
</g>
</g>
<!-- Coverage&#45;&gt;WhenToStopFuzzing -->
<g id="edge11" class="edge">
<title>Coverage&#45;&gt;WhenToStopFuzzing</title>
<path fill="none" stroke="#000000" d="M1312.3959,-375.5909C1429.5046,-370.4742 1691.6145,-356.3577 1921.8931,-323.9802"/>
<polygon fill="#000000" stroke="#000000" points="1922.3873,-327.4452 1931.7957,-322.5737 1921.4028,-320.5148 1922.3873,-327.4452"/>
</g>
<!-- GrammarFuzzer -->
<g id="node15" class="node">
<title>GrammarFuzzer</title>
<g id="a_node15"><a xlink:href="GrammarFuzzer.ipynb" xlink:title="GrammarFuzzer">
<polygon fill="#ffffff" stroke="#000000" points="579,-396 402,-396 402,-360 585,-360 585,-390 579,-396"/>
<polyline fill="none" stroke="#000000" points="579,-396 579,-390 "/>
<polyline fill="none" stroke="#000000" points="585,-390 579,-390 "/>
<text text-anchor="middle" x="493.5" y="-374.3" font-family="Patua One" font-size="14.00" fill="#b03a2e">Efficient Grammar Fuzzing</text>
</a>
</g>
</g>
<!-- Grammars&#45;&gt;GrammarFuzzer -->
<g id="edge14" class="edge">
<title>Grammars&#45;&gt;GrammarFuzzer</title>
<path fill="none" stroke="#000000" d="M676.2434,-431.9243C642.3071,-421.9103 599.9519,-409.412 564.5651,-398.97"/>
<polygon fill="#000000" stroke="#000000" points="565.3635,-395.5565 554.7818,-396.0831 563.3823,-402.2703 565.3635,-395.5565"/>
</g>
<!-- Intro_Testing -->
<g id="node5" class="node">
<title>Intro_Testing</title>
<g id="a_node5"><a xlink:href="Intro_Testing.ipynb" xlink:title="Intro_Testing">
<polygon fill="#ffffff" stroke="#000000" points="1074,-612 861,-612 861,-576 1080,-576 1080,-606 1074,-612"/>
<polyline fill="none" stroke="#000000" points="1074,-612 1074,-606 "/>
<polyline fill="none" stroke="#000000" points="1080,-606 1074,-606 "/>
<text text-anchor="middle" x="970.5" y="-590.3" font-family="Patua One" font-size="14.00" fill="#b03a2e">Introduction to Software Testing</text>
</a>
</g>
</g>
<!-- Intro_Testing&#45;&gt;Fuzzer -->
<g id="edge4" class="edge">
<title>Intro_Testing&#45;&gt;Fuzzer</title>
<path fill="none" stroke="#000000" d="M970.5,-575.8314C970.5,-568.131 970.5,-558.9743 970.5,-550.4166"/>
<polygon fill="#000000" stroke="#000000" points="974.0001,-550.4132 970.5,-540.4133 967.0001,-550.4133 974.0001,-550.4132"/>
</g>
<!-- GreyboxFuzzer -->
<g id="node13" class="node">
<title>GreyboxFuzzer</title>
<g id="a_node13"><a xlink:href="GreyboxFuzzer.ipynb" xlink:title="GreyboxFuzzer">
<polygon fill="#ffffff" stroke="#000000" points="1273.5,-252 1159.5,-252 1159.5,-216 1279.5,-216 1279.5,-246 1273.5,-252"/>
<polyline fill="none" stroke="#000000" points="1273.5,-252 1273.5,-246 "/>
<polyline fill="none" stroke="#000000" points="1279.5,-246 1273.5,-246 "/>
<text text-anchor="middle" x="1219.5" y="-230.3" font-family="Patua One" font-size="14.00" fill="#b03a2e">Greybox Fuzzing</text>
</a>
</g>
</g>
<!-- MutationFuzzer&#45;&gt;GreyboxFuzzer -->
<g id="edge12" class="edge">
<title>MutationFuzzer&#45;&gt;GreyboxFuzzer</title>
<path fill="none" stroke="#000000" d="M1200.8086,-287.8314C1203.5117,-280.0463 1206.7316,-270.7729 1209.731,-262.1347"/>
<polygon fill="#000000" stroke="#000000" points="1213.1327,-263.0081 1213.1065,-252.4133 1206.52,-260.7119 1213.1327,-263.0081"/>
</g>
<!-- ConfigurationFuzzer -->
<g id="node20" class="node">
<title>ConfigurationFuzzer</title>
<g id="a_node20"><a xlink:href="ConfigurationFuzzer.ipynb" xlink:title="ConfigurationFuzzer">
<polygon fill="#ffffff" stroke="#000000" points="669,-252 516,-252 516,-216 675,-216 675,-246 669,-252"/>
<polyline fill="none" stroke="#000000" points="669,-252 669,-246 "/>
<polyline fill="none" stroke="#000000" points="675,-246 669,-246 "/>
<text text-anchor="middle" x="595.5" y="-230.3" font-family="Patua One" font-size="14.00" fill="#b03a2e">Testing Configurations</text>
</a>
</g>
</g>
<!-- GrammarCoverageFuzzer&#45;&gt;ConfigurationFuzzer -->
<g id="edge20" class="edge">
<title>GrammarCoverageFuzzer&#45;&gt;ConfigurationFuzzer</title>
<path fill="none" stroke="#000000" d="M555.1265,-287.8314C561.346,-279.5386 568.8322,-269.557 575.66,-260.4533"/>
<polygon fill="#000000" stroke="#000000" points="578.49,-262.5133 581.69,-252.4133 572.89,-258.3133 578.49,-262.5133"/>
</g>
<!-- Carver -->
<g id="node21" class="node">
<title>Carver</title>
<g id="a_node21"><a xlink:href="Carver.ipynb" xlink:title="Carver">
<polygon fill="#ffffff" stroke="#000000" points="509,-108 384,-108 384,-72 515,-72 515,-102 509,-108"/>
<polyline fill="none" stroke="#000000" points="509,-108 509,-102 "/>
<polyline fill="none" stroke="#000000" points="515,-102 509,-102 "/>
<text text-anchor="middle" x="449.5" y="-86.3" font-family="Patua One" font-size="14.00" fill="#b03a2e">Carving Unit Tests</text>
</a>
</g>
</g>
<!-- GrammarCoverageFuzzer&#45;&gt;Carver -->
<g id="edge21" class="edge">
<title>GrammarCoverageFuzzer&#45;&gt;Carver</title>
<path fill="none" stroke="#000000" d="M528.0526,-287.6518C521.0117,-277.4915 512.6091,-264.4335 506.5,-252 500.4291,-239.6442 473.4494,-160.7954 458.8904,-117.8287"/>
<polygon fill="#000000" stroke="#000000" points="462.1663,-116.5901 455.6456,-108.2396 455.5356,-118.8338 462.1663,-116.5901"/>
</g>
<!-- GUIFuzzer -->
<g id="node22" class="node">
<title>GUIFuzzer</title>
<g id="a_node22"><a xlink:href="GUIFuzzer.ipynb" xlink:title="GUIFuzzer">
<polygon fill="#ffffff" stroke="#000000" points="267.5,-252 53.5,-252 53.5,-216 273.5,-216 273.5,-246 267.5,-252"/>
<polyline fill="none" stroke="#000000" points="267.5,-252 267.5,-246 "/>
<polyline fill="none" stroke="#000000" points="273.5,-246 267.5,-246 "/>
<text text-anchor="middle" x="163.5" y="-230.3" font-family="Patua One" font-size="14.00" fill="#b03a2e">Testing Graphical User Interfaces</text>
</a>
</g>
</g>
<!-- GrammarCoverageFuzzer&#45;&gt;GUIFuzzer -->
<g id="edge22" class="edge">
<title>GrammarCoverageFuzzer&#45;&gt;GUIFuzzer</title>
<path fill="none" stroke="#000000" d="M473.9212,-293.1278C416.7589,-282.2398 333.8992,-266.457 268.1629,-253.9358"/>
<polygon fill="#000000" stroke="#000000" points="268.6587,-250.4674 258.1804,-252.0344 267.3489,-257.3438 268.6587,-250.4674"/>
</g>
<!-- APIFuzzer -->
<g id="node24" class="node">
<title>APIFuzzer</title>
<g id="a_node24"><a xlink:href="APIFuzzer.ipynb" xlink:title="APIFuzzer">
<polygon fill="#ffffff" stroke="#000000" points="453,-180 362,-180 362,-144 459,-144 459,-174 453,-180"/>
<polyline fill="none" stroke="#000000" points="453,-180 453,-174 "/>
<polyline fill="none" stroke="#000000" points="459,-174 453,-174 "/>
<text text-anchor="middle" x="410.5" y="-158.3" font-family="Patua One" font-size="14.00" fill="#b03a2e">Fuzzing APIs</text>
</a>
</g>
</g>
<!-- ProbabilisticGrammarFuzzer&#45;&gt;APIFuzzer -->
<g id="edge26" class="edge">
<title>ProbabilisticGrammarFuzzer&#45;&gt;APIFuzzer</title>
<path fill="none" stroke="#000000" d="M700.3431,-215.9243C627.4892,-202.3701 530.1722,-184.2646 468.9103,-172.867"/>
<polygon fill="#000000" stroke="#000000" points="469.4961,-169.416 459.0246,-171.0278 468.2157,-176.2979 469.4961,-169.416"/>
</g>
<!-- ConcolicFuzzer -->
<g id="node25" class="node">
<title>ConcolicFuzzer</title>
<g id="a_node25"><a xlink:href="ConcolicFuzzer.ipynb" xlink:title="ConcolicFuzzer">
<polygon fill="#ffffff" stroke="#000000" points="1319.5,-108 1205.5,-108 1205.5,-72 1325.5,-72 1325.5,-102 1319.5,-108"/>
<polyline fill="none" stroke="#000000" points="1319.5,-108 1319.5,-102 "/>
<polyline fill="none" stroke="#000000" points="1325.5,-102 1319.5,-102 "/>
<text text-anchor="middle" x="1265.5" y="-86.3" font-family="Patua One" font-size="14.00" fill="#b03a2e">Concolic Fuzzing</text>
</a>
</g>
</g>
<!-- GrammarMiner&#45;&gt;ConcolicFuzzer -->
<g id="edge28" class="edge">
<title>GrammarMiner&#45;&gt;ConcolicFuzzer</title>
<path fill="none" stroke="#000000" d="M1265.5,-143.8314C1265.5,-136.131 1265.5,-126.9743 1265.5,-118.4166"/>
<polygon fill="#000000" stroke="#000000" points="1269.0001,-118.4132 1265.5,-108.4133 1262.0001,-118.4133 1269.0001,-118.4132"/>
</g>
<!-- GreyboxGrammarFuzzer -->
<g id="node14" class="node">
<title>GreyboxGrammarFuzzer</title>
<g id="a_node14"><a xlink:href="GreyboxGrammarFuzzer.ipynb" xlink:title="GreyboxGrammarFuzzer">
<polygon fill="#ffffff" stroke="#000000" points="1074.5,-180 860.5,-180 860.5,-144 1080.5,-144 1080.5,-174 1074.5,-180"/>
<polyline fill="none" stroke="#000000" points="1074.5,-180 1074.5,-174 "/>
<polyline fill="none" stroke="#000000" points="1080.5,-174 1074.5,-174 "/>
<text text-anchor="middle" x="970.5" y="-158.3" font-family="Patua One" font-size="14.00" fill="#b03a2e">Greybox Fuzzing with Grammars</text>
</a>
</g>
</g>
<!-- GreyboxFuzzer&#45;&gt;GreyboxGrammarFuzzer -->
<g id="edge13" class="edge">
<title>GreyboxFuzzer&#45;&gt;GreyboxGrammarFuzzer</title>
<path fill="none" stroke="#000000" d="M1159.224,-216.5708C1124.0792,-206.4084 1079.5319,-193.5273 1042.5439,-182.832"/>
<polygon fill="#000000" stroke="#000000" points="1043.3999,-179.4362 1032.8212,-180.0206 1041.4554,-186.1607 1043.3999,-179.4362"/>
</g>
<!-- GrammarFuzzer&#45;&gt;GrammarCoverageFuzzer -->
<g id="edge15" class="edge">
<title>GrammarFuzzer&#45;&gt;GrammarCoverageFuzzer</title>
<path fill="none" stroke="#000000" d="M505.6124,-359.8314C511.0281,-351.7079 517.5242,-341.9637 523.4921,-333.0118"/>
<polygon fill="#000000" stroke="#000000" points="526.5896,-334.6753 529.2245,-324.4133 520.7653,-330.7923 526.5896,-334.6753"/>
</g>
<!-- Parser -->
<g id="node16" class="node">
<title>Parser</title>
<g id="a_node16"><a xlink:href="Parser.ipynb" xlink:title="Parser">
<polygon fill="#ffffff" stroke="#000000" points="952,-324 851,-324 851,-288 958,-288 958,-318 952,-324"/>
<polyline fill="none" stroke="#000000" points="952,-324 952,-318 "/>
<polyline fill="none" stroke="#000000" points="958,-318 952,-318 "/>
<text text-anchor="middle" x="904.5" y="-302.3" font-family="Patua One" font-size="14.00" fill="#b03a2e">Parsing Inputs</text>
</a>
</g>
</g>
<!-- GrammarFuzzer&#45;&gt;Parser -->
<g id="edge16" class="edge">
<title>GrammarFuzzer&#45;&gt;Parser</title>
<path fill="none" stroke="#000000" d="M585.2249,-361.9314C662.8609,-348.3309 772.133,-329.1884 840.5964,-317.1948"/>
<polygon fill="#000000" stroke="#000000" points="841.5616,-320.5791 850.8077,-315.406 840.3537,-313.6841 841.5616,-320.5791"/>
</g>
<!-- GeneratorGrammarFuzzer -->
<g id="node17" class="node">
<title>GeneratorGrammarFuzzer</title>
<g id="a_node17"><a xlink:href="GeneratorGrammarFuzzer.ipynb" xlink:title="GeneratorGrammarFuzzer">
<polygon fill="#ffffff" stroke="#000000" points="453.5,-252 291.5,-252 291.5,-216 459.5,-216 459.5,-246 453.5,-252"/>
<polyline fill="none" stroke="#000000" points="453.5,-252 453.5,-246 "/>
<polyline fill="none" stroke="#000000" points="459.5,-246 453.5,-246 "/>
<text text-anchor="middle" x="375.5" y="-230.3" font-family="Patua One" font-size="14.00" fill="#b03a2e">Fuzzing with Generators</text>
</a>
</g>
</g>
<!-- GrammarFuzzer&#45;&gt;GeneratorGrammarFuzzer -->
<g id="edge17" class="edge">
<title>GrammarFuzzer&#45;&gt;GeneratorGrammarFuzzer</title>
<path fill="none" stroke="#000000" d="M480.9988,-359.9399C467.9662,-341.4239 446.665,-312.0193 426.5,-288 418.4198,-278.3753 409.1008,-268.253 400.6572,-259.4068"/>
<polygon fill="#000000" stroke="#000000" points="402.978,-256.7714 393.5155,-252.0058 397.9408,-261.6322 402.978,-256.7714"/>
</g>
<!-- Reducer -->
<g id="node18" class="node">
<title>Reducer</title>
<g id="a_node18"><a xlink:href="Reducer.ipynb" xlink:title="Reducer">
<polygon fill="#ffffff" stroke="#000000" points="219,-324 0,-324 0,-288 225,-288 225,-318 219,-324"/>
<polyline fill="none" stroke="#000000" points="219,-324 219,-318 "/>
<polyline fill="none" stroke="#000000" points="225,-318 219,-318 "/>
<text text-anchor="middle" x="112.5" y="-302.3" font-family="Patua One" font-size="14.00" fill="#b03a2e">Reducing Failure&#45;Inducing Inputs</text>
</a>
</g>
</g>
<!-- GrammarFuzzer&#45;&gt;Reducer -->
<g id="edge18" class="edge">
<title>GrammarFuzzer&#45;&gt;Reducer</title>
<path fill="none" stroke="#000000" d="M401.7562,-360.6626C346.2845,-350.1798 275.3711,-336.7788 217.6419,-325.8693"/>
<polygon fill="#000000" stroke="#000000" points="218.2367,-322.4199 207.7607,-324.002 216.9368,-329.2981 218.2367,-322.4199"/>
</g>
<!-- WebFuzzer -->
<g id="node19" class="node">
<title>WebFuzzer</title>
<g id="a_node19"><a xlink:href="WebFuzzer.ipynb" xlink:title="WebFuzzer">
<polygon fill="#ffffff" stroke="#000000" points="411.5,-324 243.5,-324 243.5,-288 417.5,-288 417.5,-318 411.5,-324"/>
<polyline fill="none" stroke="#000000" points="411.5,-324 411.5,-318 "/>
<polyline fill="none" stroke="#000000" points="417.5,-318 411.5,-318 "/>
<text text-anchor="middle" x="330.5" y="-302.3" font-family="Patua One" font-size="14.00" fill="#b03a2e">Testing Web Applications</text>
</a>
</g>
</g>
<!-- GrammarFuzzer&#45;&gt;WebFuzzer -->
<g id="edge19" class="edge">
<title>GrammarFuzzer&#45;&gt;WebFuzzer</title>
<path fill="none" stroke="#000000" d="M452.3682,-359.8314C430.5679,-350.2018 403.6122,-338.295 380.5996,-328.1299"/>
<polygon fill="#000000" stroke="#000000" points="381.8976,-324.877 371.336,-324.038 379.0692,-331.2802 381.8976,-324.877"/>
</g>
<!-- Parser&#45;&gt;ProbabilisticGrammarFuzzer -->
<g id="edge23" class="edge">
<title>Parser&#45;&gt;ProbabilisticGrammarFuzzer</title>
<path fill="none" stroke="#000000" d="M877.4994,-287.8314C864.0669,-278.7927 847.6527,-267.7476 833.1961,-258.0198"/>
<polygon fill="#000000" stroke="#000000" points="834.7425,-254.8418 824.492,-252.1628 830.8346,-260.6494 834.7425,-254.8418"/>
</g>
<!-- Parser&#45;&gt;GreyboxGrammarFuzzer -->
<g id="edge24" class="edge">
<title>Parser&#45;&gt;GreyboxGrammarFuzzer</title>
<path fill="none" stroke="#000000" d="M912.8589,-287.7623C924.265,-262.8764 944.7956,-218.0822 958.0258,-189.2165"/>
<polygon fill="#000000" stroke="#000000" points="961.2241,-190.6386 962.2089,-180.0896 954.8606,-187.722 961.2241,-190.6386"/>
</g>
<!-- InformationFlow -->
<g id="node23" class="node">
<title>InformationFlow</title>
<g id="a_node23"><a xlink:href="InformationFlow.ipynb" xlink:title="InformationFlow">
<polygon fill="#ffffff" stroke="#000000" points="1135,-252 958,-252 958,-216 1141,-216 1141,-246 1135,-252"/>
<polyline fill="none" stroke="#000000" points="1135,-252 1135,-246 "/>
<polyline fill="none" stroke="#000000" points="1141,-246 1135,-246 "/>
<text text-anchor="middle" x="1049.5" y="-230.3" font-family="Patua One" font-size="14.00" fill="#b03a2e">Tracking Information Flow</text>
</a>
</g>
</g>
<!-- Parser&#45;&gt;InformationFlow -->
<g id="edge25" class="edge">
<title>Parser&#45;&gt;InformationFlow</title>
<path fill="none" stroke="#000000" d="M941.0896,-287.8314C960.2239,-278.3302 983.8229,-266.6121 1004.1122,-256.5374"/>
<polygon fill="#000000" stroke="#000000" points="1005.7735,-259.6203 1013.1735,-252.038 1002.6603,-253.3506 1005.7735,-259.6203"/>
</g>
<!-- GeneratorGrammarFuzzer&#45;&gt;APIFuzzer -->
<g id="edge27" class="edge">
<title>GeneratorGrammarFuzzer&#45;&gt;APIFuzzer</title>
<path fill="none" stroke="#000000" d="M384.332,-215.8314C388.1986,-207.8771 392.8206,-198.369 397.0968,-189.5723"/>
<polygon fill="#000000" stroke="#000000" points="400.3249,-190.9371 401.5491,-180.4133 394.0293,-187.8768 400.3249,-190.9371"/>
</g>
<!-- WebFuzzer&#45;&gt;GUIFuzzer -->
<g id="edge32" class="edge">
<title>WebFuzzer&#45;&gt;GUIFuzzer</title>
<path fill="none" stroke="#000000" d="M288.3588,-287.8314C266.0236,-278.2018 238.4064,-266.295 214.829,-256.1299"/>
<polygon fill="#000000" stroke="#000000" points="215.9067,-252.7831 205.3381,-252.038 213.1353,-259.2112 215.9067,-252.7831"/>
</g>
<!-- FuzzingInTheLarge -->
<g id="node27" class="node">
<title>FuzzingInTheLarge</title>
<g id="a_node27"><a xlink:href="FuzzingInTheLarge.ipynb" xlink:title="FuzzingInTheLarge">
<polygon fill="#ffffff" stroke="#000000" points="228.5,-180 92.5,-180 92.5,-144 234.5,-144 234.5,-174 228.5,-180"/>
<polyline fill="none" stroke="#000000" points="228.5,-180 228.5,-174 "/>
<polyline fill="none" stroke="#000000" points="234.5,-174 228.5,-174 "/>
<text text-anchor="middle" x="163.5" y="-158.3" font-family="Patua One" font-size="14.00" fill="#b03a2e">Fuzzing In the Large</text>
</a>
</g>
</g>
<!-- GUIFuzzer&#45;&gt;FuzzingInTheLarge -->
<g id="edge33" class="edge">
<title>GUIFuzzer&#45;&gt;FuzzingInTheLarge</title>
<path fill="none" stroke="#000000" d="M163.5,-215.8314C163.5,-208.131 163.5,-198.9743 163.5,-190.4166"/>
<polygon fill="#000000" stroke="#000000" points="167.0001,-190.4132 163.5,-180.4133 160.0001,-190.4133 167.0001,-190.4132"/>
</g>
<!-- InformationFlow&#45;&gt;GrammarMiner -->
<g id="edge29" class="edge">
<title>InformationFlow&#45;&gt;GrammarMiner</title>
<path fill="none" stroke="#000000" d="M1103.7271,-215.9243C1133.384,-206.0387 1170.3037,-193.7321 1201.3821,-183.3726"/>
<polygon fill="#000000" stroke="#000000" points="1202.8706,-186.5659 1211.2506,-180.0831 1200.6569,-179.9251 1202.8706,-186.5659"/>
</g>
<!-- APIFuzzer&#45;&gt;Carver -->
<g id="edge31" class="edge">
<title>APIFuzzer&#45;&gt;Carver</title>
<path fill="none" stroke="#000000" d="M420.3413,-143.8314C424.6957,-135.7925 429.9098,-126.1666 434.7169,-117.2918"/>
<polygon fill="#000000" stroke="#000000" points="437.8408,-118.8732 439.5261,-108.4133 431.6857,-115.5392 437.8408,-118.8732"/>
</g>
<!-- SymbolicFuzzer -->
<g id="node26" class="node">
<title>SymbolicFuzzer</title>
<g id="a_node26"><a xlink:href="SymbolicFuzzer.ipynb" xlink:title="SymbolicFuzzer">
<polygon fill="#ffffff" stroke="#000000" points="1322.5,-36 1202.5,-36 1202.5,0 1328.5,0 1328.5,-30 1322.5,-36"/>
<polyline fill="none" stroke="#000000" points="1322.5,-36 1322.5,-30 "/>
<polyline fill="none" stroke="#000000" points="1328.5,-30 1322.5,-30 "/>
<text text-anchor="middle" x="1265.5" y="-14.3" font-family="Patua One" font-size="14.00" fill="#b03a2e">Symbolic Fuzzing</text>
</a>
</g>
</g>
<!-- ConcolicFuzzer&#45;&gt;SymbolicFuzzer -->
<g id="edge30" class="edge">
<title>ConcolicFuzzer&#45;&gt;SymbolicFuzzer</title>
<path fill="none" stroke="#000000" d="M1265.5,-71.8314C1265.5,-64.131 1265.5,-54.9743 1265.5,-46.4166"/>
<polygon fill="#000000" stroke="#000000" points="1269.0001,-46.4132 1265.5,-36.4133 1262.0001,-46.4133 1269.0001,-46.4132"/>
</g>
</g>
</svg>
