<?xml version="1.0" encoding="UTF-8" standalone="no"?>
<!DOCTYPE svg PUBLIC "-//W3C//DTD SVG 1.1//EN"
 "http://www.w3.org/Graphics/SVG/1.1/DTD/svg11.dtd">
<!-- Generated by graphviz version 2.40.1 (20161225.0304)
 -->
<!-- Title: %3 Pages: 1 -->
<svg width="1655pt" height="548pt"
 viewBox="0.00 0.00 1655.00 548.00" xmlns="http://www.w3.org/2000/svg" xmlns:xlink="http://www.w3.org/1999/xlink">
<g id="graph0" class="graph" transform="scale(1 1) rotate(0) translate(4 544)">
<title>%3</title>
<polygon fill="#ffffff" stroke="transparent" points="-4,4 -4,-544 1651,-544 1651,4 -4,4"/>
<!-- Fuzzer -->
<g id="node1" class="node">
<title>Fuzzer</title>
<g id="a_node1"><a xlink:href="Fuzzer.ipynb" xlink:title="Fuzzer">
<polygon fill="#ffffff" stroke="#000000" points="1084.5,-468 786.5,-468 786.5,-432 1090.5,-432 1090.5,-462 1084.5,-468"/>
<polyline fill="none" stroke="#000000" points="1084.5,-468 1084.5,-462 "/>
<polyline fill="none" stroke="#000000" points="1090.5,-462 1084.5,-462 "/>
<text text-anchor="middle" x="938.5" y="-446.3" font-family="Patua One" font-size="14.00" fill="#b03a2e">Fuzzing: Breaking Things with Random Inputs</text>
</a>
</g>
</g>
<!-- Coverage -->
<g id="node2" class="node">
<title>Coverage</title>
<g id="a_node2"><a xlink:href="Coverage.ipynb" xlink:title="Coverage">
<polygon fill="#ffffff" stroke="#000000" points="531,-324 414,-324 414,-288 537,-288 537,-318 531,-324"/>
<polyline fill="none" stroke="#000000" points="531,-324 531,-318 "/>
<polyline fill="none" stroke="#000000" points="537,-318 531,-318 "/>
<text text-anchor="middle" x="475.5" y="-302.3" font-family="Patua One" font-size="14.00" fill="#b03a2e">Getting Coverage</text>
</a>
</g>
</g>
<!-- Fuzzer&#45;&gt;Coverage -->
<g id="edge1" class="edge">
<title>Fuzzer&#45;&gt;Coverage</title>
<path fill="none" stroke="#000000" d="M880.3295,-431.9081C794.4451,-405.1967 634.0883,-355.3234 543.0958,-327.0233"/>
<polygon fill="#000000" stroke="#000000" points="544.0208,-323.6457 533.4325,-324.0179 541.9419,-330.3299 544.0208,-323.6457"/>
</g>
<!-- SearchBasedFuzzer -->
<g id="node3" class="node">
<title>SearchBasedFuzzer</title>
<g id="a_node3"><a xlink:href="SearchBasedFuzzer.ipynb" xlink:title="SearchBasedFuzzer">
<polygon fill="#ffffff" stroke="#000000" points="1435.5,-324 1289.5,-324 1289.5,-288 1441.5,-288 1441.5,-318 1435.5,-324"/>
<polyline fill="none" stroke="#000000" points="1435.5,-324 1435.5,-318 "/>
<polyline fill="none" stroke="#000000" points="1441.5,-318 1435.5,-318 "/>
<text text-anchor="middle" x="1365.5" y="-302.3" font-family="Patua One" font-size="14.00" fill="#b03a2e">Search&#45;Based Fuzzing</text>
</a>
</g>
</g>
<!-- Fuzzer&#45;&gt;SearchBasedFuzzer -->
<g id="edge2" class="edge">
<title>Fuzzer&#45;&gt;SearchBasedFuzzer</title>
<path fill="none" stroke="#000000" d="M951.3292,-431.7048C968.3105,-408.0405 997.9155,-368.8022 1013.5,-360 1057.6895,-335.0415 1189.9672,-319.8864 1279.1774,-312.2255"/>
<polygon fill="#000000" stroke="#000000" points="1279.6217,-315.7005 1289.2924,-311.373 1279.0337,-308.7252 1279.6217,-315.7005"/>
</g>
<!-- Grammars -->
<g id="node4" class="node">
<title>Grammars</title>
<g id="a_node4"><a xlink:href="Grammars.ipynb" xlink:title="Grammars">
<polygon fill="#ffffff" stroke="#000000" points="960,-396 801,-396 801,-360 966,-360 966,-390 960,-396"/>
<polyline fill="none" stroke="#000000" points="960,-396 960,-390 "/>
<polyline fill="none" stroke="#000000" points="966,-390 960,-390 "/>
<text text-anchor="middle" x="883.5" y="-374.3" font-family="Patua One" font-size="14.00" fill="#b03a2e">Fuzzing with Grammars</text>
</a>
</g>
</g>
<!-- Fuzzer&#45;&gt;Grammars -->
<g id="edge3" class="edge">
<title>Fuzzer&#45;&gt;Grammars</title>
<path fill="none" stroke="#000000" d="M924.6212,-431.8314C918.2864,-423.5386 910.6616,-413.557 903.7074,-404.4533"/>
<polygon fill="#000000" stroke="#000000" points="906.4175,-402.2353 897.5657,-396.4133 900.8548,-406.4847 906.4175,-402.2353"/>
</g>
<!-- FuzzingInTheLarge -->
<g id="node5" class="node">
<title>FuzzingInTheLarge</title>
<g id="a_node5"><a xlink:href="FuzzingInTheLarge.ipynb" xlink:title="FuzzingInTheLarge">
<polygon fill="#ffffff" stroke="#000000" points="1242.5,-396 1022.5,-396 1022.5,-360 1248.5,-360 1248.5,-390 1242.5,-396"/>
<polyline fill="none" stroke="#000000" points="1242.5,-396 1242.5,-390 "/>
<polyline fill="none" stroke="#000000" points="1248.5,-390 1242.5,-390 "/>
<text text-anchor="middle" x="1135.5" y="-374.3" font-family="Patua One" font-size="14.00" fill="#b03a2e">Practical Steps with FuzzManager</text>
</a>
</g>
</g>
<!-- Fuzzer&#45;&gt;FuzzingInTheLarge -->
<g id="edge4" class="edge">
<title>Fuzzer&#45;&gt;FuzzingInTheLarge</title>
<path fill="none" stroke="#000000" d="M987.9571,-431.9243C1014.7711,-422.1243 1048.0949,-409.945 1076.2847,-399.6422"/>
<polygon fill="#000000" stroke="#000000" points="1077.8316,-402.8033 1086.0225,-396.0831 1075.4287,-396.2286 1077.8316,-402.8033"/>
</g>
<!-- MutationFuzzer -->
<g id="node8" class="node">
<title>MutationFuzzer</title>
<g id="a_node8"><a xlink:href="MutationFuzzer.ipynb" xlink:title="MutationFuzzer">
<polygon fill="#ffffff" stroke="#000000" points="336,-252 173,-252 173,-216 342,-216 342,-246 336,-252"/>
<polyline fill="none" stroke="#000000" points="336,-252 336,-246 "/>
<polyline fill="none" stroke="#000000" points="342,-246 336,-246 "/>
<text text-anchor="middle" x="257.5" y="-230.3" font-family="Patua One" font-size="14.00" fill="#b03a2e">Mutation&#45;Based Fuzzing</text>
</a>
</g>
</g>
<!-- Coverage&#45;&gt;MutationFuzzer -->
<g id="edge7" class="edge">
<title>Coverage&#45;&gt;MutationFuzzer</title>
<path fill="none" stroke="#000000" d="M420.7708,-287.9243C390.7098,-277.9959 353.255,-265.6255 321.8046,-255.2382"/>
<polygon fill="#000000" stroke="#000000" points="322.8449,-251.8959 312.2517,-252.0831 320.6496,-258.5428 322.8449,-251.8959"/>
</g>
<!-- GrammarCoverageFuzzer -->
<g id="node9" class="node">
<title>GrammarCoverageFuzzer</title>
<g id="a_node9"><a xlink:href="GrammarCoverageFuzzer.ipynb" xlink:title="GrammarCoverageFuzzer">
<polygon fill="#ffffff" stroke="#000000" points="489,-252 360,-252 360,-216 495,-216 495,-246 489,-252"/>
<polyline fill="none" stroke="#000000" points="489,-252 489,-246 "/>
<polyline fill="none" stroke="#000000" points="495,-246 489,-246 "/>
<text text-anchor="middle" x="427.5" y="-230.3" font-family="Patua One" font-size="14.00" fill="#b03a2e">Grammar Coverage</text>
</a>
</g>
</g>
<!-- Coverage&#45;&gt;GrammarCoverageFuzzer -->
<g id="edge8" class="edge">
<title>Coverage&#45;&gt;GrammarCoverageFuzzer</title>
<path fill="none" stroke="#000000" d="M463.3876,-287.8314C457.9719,-279.7079 451.4758,-269.9637 445.5079,-261.0118"/>
<polygon fill="#000000" stroke="#000000" points="448.2347,-258.7923 439.7755,-252.4133 442.4104,-262.6753 448.2347,-258.7923"/>
</g>
<!-- ProbabilisticGrammarFuzzer -->
<g id="node10" class="node">
<title>ProbabilisticGrammarFuzzer</title>
<g id="a_node10"><a xlink:href="ProbabilisticGrammarFuzzer.ipynb" xlink:title="ProbabilisticGrammarFuzzer">
<polygon fill="#ffffff" stroke="#000000" points="1148.5,-180 946.5,-180 946.5,-144 1154.5,-144 1154.5,-174 1148.5,-180"/>
<polyline fill="none" stroke="#000000" points="1148.5,-180 1148.5,-174 "/>
<polyline fill="none" stroke="#000000" points="1154.5,-174 1148.5,-174 "/>
<text text-anchor="middle" x="1050.5" y="-158.3" font-family="Patua One" font-size="14.00" fill="#b03a2e">Probabilistic Grammar Fuzzing</text>
</a>
</g>
</g>
<!-- Coverage&#45;&gt;ProbabilisticGrammarFuzzer -->
<g id="edge9" class="edge">
<title>Coverage&#45;&gt;ProbabilisticGrammarFuzzer</title>
<path fill="none" stroke="#000000" d="M483.3236,-287.8353C493.5462,-266.5665 513.6134,-232.1911 542.5,-216 616.8345,-174.335 834.8926,-189.8086 936.44,-179.9476"/>
<polygon fill="#000000" stroke="#000000" points="936.9244,-183.4155 946.4797,-178.8386 936.1558,-176.4578 936.9244,-183.4155"/>
</g>
<!-- GrammarMiner -->
<g id="node11" class="node">
<title>GrammarMiner</title>
<g id="a_node11"><a xlink:href="GrammarMiner.ipynb" xlink:title="GrammarMiner">
<polygon fill="#ffffff" stroke="#000000" points="905,-252 744,-252 744,-216 911,-216 911,-246 905,-252"/>
<polyline fill="none" stroke="#000000" points="905,-252 905,-246 "/>
<polyline fill="none" stroke="#000000" points="911,-246 905,-246 "/>
<text text-anchor="middle" x="827.5" y="-230.3" font-family="Patua One" font-size="14.00" fill="#b03a2e">Mining Input Grammars</text>
</a>
</g>
</g>
<!-- Coverage&#45;&gt;GrammarMiner -->
<g id="edge10" class="edge">
<title>Coverage&#45;&gt;GrammarMiner</title>
<path fill="none" stroke="#000000" d="M537.2165,-293.3762C591.5863,-282.2551 671.5913,-265.8904 733.8483,-253.156"/>
<polygon fill="#000000" stroke="#000000" points="734.5854,-256.5778 743.6811,-251.1448 733.1826,-249.7198 734.5854,-256.5778"/>
</g>
<!-- WhenToStopFuzzing -->
<g id="node12" class="node">
<title>WhenToStopFuzzing</title>
<g id="a_node12"><a xlink:href="WhenToStopFuzzing.ipynb" xlink:title="WhenToStopFuzzing">
<polygon fill="#ffffff" stroke="#000000" points="149,-252 0,-252 0,-216 155,-216 155,-246 149,-252"/>
<polyline fill="none" stroke="#000000" points="149,-252 149,-246 "/>
<polyline fill="none" stroke="#000000" points="155,-246 149,-246 "/>
<text text-anchor="middle" x="77.5" y="-230.3" font-family="Patua One" font-size="14.00" fill="#b03a2e">When To Stop Fuzzing</text>
</a>
</g>
</g>
<!-- Coverage&#45;&gt;WhenToStopFuzzing -->
<g id="edge11" class="edge">
<title>Coverage&#45;&gt;WhenToStopFuzzing</title>
<path fill="none" stroke="#000000" d="M413.8177,-295.9774C353.011,-285.9491 257.1907,-269.752 165.3166,-252.3193"/>
<polygon fill="#000000" stroke="#000000" points="165.7697,-248.8427 155.2913,-250.409 164.4594,-255.719 165.7697,-248.8427"/>
</g>
<!-- EvoGrammarFuzzer -->
<g id="node13" class="node">
<title>EvoGrammarFuzzer</title>
<g id="a_node13"><a xlink:href="EvoGrammarFuzzer.ipynb" xlink:title="EvoGrammarFuzzer">
<polygon fill="#ffffff" stroke="#000000" points="1641,-108 1436,-108 1436,-72 1647,-72 1647,-102 1641,-108"/>
<polyline fill="none" stroke="#000000" points="1641,-108 1641,-102 "/>
<polyline fill="none" stroke="#000000" points="1647,-102 1641,-102 "/>
<text text-anchor="middle" x="1541.5" y="-86.3" font-family="Patua One" font-size="14.00" fill="#b03a2e">Evolutionary Grammar Fuzzing</text>
</a>
</g>
</g>
<!-- SearchBasedFuzzer&#45;&gt;EvoGrammarFuzzer -->
<g id="edge12" class="edge">
<title>SearchBasedFuzzer&#45;&gt;EvoGrammarFuzzer</title>
<path fill="none" stroke="#000000" d="M1433.0744,-287.9091C1485.4546,-269.9369 1554.4966,-236.6804 1587.5,-180 1599.8616,-158.7701 1584.9454,-133.8439 1568.8894,-115.6135"/>
<polygon fill="#000000" stroke="#000000" points="1571.3943,-113.1676 1562.0148,-108.2407 1566.2746,-117.9414 1571.3943,-113.1676"/>
</g>
<!-- GrammarFuzzer -->
<g id="node14" class="node">
<title>GrammarFuzzer</title>
<g id="a_node14"><a xlink:href="GrammarFuzzer.ipynb" xlink:title="GrammarFuzzer">
<polygon fill="#ffffff" stroke="#000000" points="969,-324 792,-324 792,-288 975,-288 975,-318 969,-324"/>
<polyline fill="none" stroke="#000000" points="969,-324 969,-318 "/>
<polyline fill="none" stroke="#000000" points="975,-318 969,-318 "/>
<text text-anchor="middle" x="883.5" y="-302.3" font-family="Patua One" font-size="14.00" fill="#b03a2e">Efficient Grammar Fuzzing</text>
</a>
</g>
</g>
<!-- Grammars&#45;&gt;GrammarFuzzer -->
<g id="edge13" class="edge">
<title>Grammars&#45;&gt;GrammarFuzzer</title>
<path fill="none" stroke="#000000" d="M883.5,-359.8314C883.5,-352.131 883.5,-342.9743 883.5,-334.4166"/>
<polygon fill="#000000" stroke="#000000" points="887.0001,-334.4132 883.5,-324.4133 880.0001,-334.4133 887.0001,-334.4132"/>
</g>
<!-- Intro_Testing -->
<g id="node6" class="node">
<title>Intro_Testing</title>
<g id="a_node6"><a xlink:href="Intro_Testing.ipynb" xlink:title="Intro_Testing">
<polygon fill="#ffffff" stroke="#000000" points="1179,-540 966,-540 966,-504 1185,-504 1185,-534 1179,-540"/>
<polyline fill="none" stroke="#000000" points="1179,-540 1179,-534 "/>
<polyline fill="none" stroke="#000000" points="1185,-534 1179,-534 "/>
<text text-anchor="middle" x="1075.5" y="-518.3" font-family="Patua One" font-size="14.00" fill="#b03a2e">Introduction to Software Testing</text>
</a>
</g>
</g>
<!-- Intro_Testing&#45;&gt;Fuzzer -->
<g id="edge5" class="edge">
<title>Intro_Testing&#45;&gt;Fuzzer</title>
<path fill="none" stroke="#000000" d="M1040.9291,-503.8314C1023.0815,-494.4516 1001.1226,-482.9112 982.12,-472.9244"/>
<polygon fill="#000000" stroke="#000000" points="983.5401,-469.7168 973.0598,-468.1628 980.2836,-475.9132 983.5401,-469.7168"/>
</g>
<!-- DynamicInvariants -->
<g id="node7" class="node">
<title>DynamicInvariants</title>
<g id="a_node7"><a xlink:href="DynamicInvariants.ipynb" xlink:title="DynamicInvariants">
<polygon fill="#ffffff" stroke="#000000" points="1312.5,-468 1108.5,-468 1108.5,-432 1318.5,-432 1318.5,-462 1312.5,-468"/>
<polyline fill="none" stroke="#000000" points="1312.5,-468 1312.5,-462 "/>
<polyline fill="none" stroke="#000000" points="1318.5,-462 1312.5,-462 "/>
<text text-anchor="middle" x="1213.5" y="-446.3" font-family="Patua One" font-size="14.00" fill="#b03a2e">Mining Function Specifications</text>
</a>
</g>
</g>
<!-- Intro_Testing&#45;&gt;DynamicInvariants -->
<g id="edge6" class="edge">
<title>Intro_Testing&#45;&gt;DynamicInvariants</title>
<path fill="none" stroke="#000000" d="M1110.3232,-503.8314C1128.3011,-494.4516 1150.4203,-482.9112 1169.5616,-472.9244"/>
<polygon fill="#000000" stroke="#000000" points="1171.4411,-475.8916 1178.6879,-468.1628 1168.2031,-469.6855 1171.4411,-475.8916"/>
</g>
<!-- ConfigurationFuzzer -->
<g id="node19" class="node">
<title>ConfigurationFuzzer</title>
<g id="a_node19"><a xlink:href="ConfigurationFuzzer.ipynb" xlink:title="ConfigurationFuzzer">
<polygon fill="#ffffff" stroke="#000000" points="498,-180 345,-180 345,-144 504,-144 504,-174 498,-180"/>
<polyline fill="none" stroke="#000000" points="498,-180 498,-174 "/>
<polyline fill="none" stroke="#000000" points="504,-174 498,-174 "/>
<text text-anchor="middle" x="424.5" y="-158.3" font-family="Patua One" font-size="14.00" fill="#b03a2e">Testing Configurations</text>
</a>
</g>
</g>
<!-- GrammarCoverageFuzzer&#45;&gt;ConfigurationFuzzer -->
<g id="edge20" class="edge">
<title>GrammarCoverageFuzzer&#45;&gt;ConfigurationFuzzer</title>
<path fill="none" stroke="#000000" d="M426.743,-215.8314C426.4221,-208.131 426.0406,-198.9743 425.684,-190.4166"/>
<polygon fill="#000000" stroke="#000000" points="429.1806,-190.2589 425.2672,-180.4133 422.1867,-190.5503 429.1806,-190.2589"/>
</g>
<!-- Carver -->
<g id="node20" class="node">
<title>Carver</title>
<g id="a_node20"><a xlink:href="Carver.ipynb" xlink:title="Carver">
<polygon fill="#ffffff" stroke="#000000" points="640,-36 515,-36 515,0 646,0 646,-30 640,-36"/>
<polyline fill="none" stroke="#000000" points="640,-36 640,-30 "/>
<polyline fill="none" stroke="#000000" points="646,-30 640,-30 "/>
<text text-anchor="middle" x="580.5" y="-14.3" font-family="Patua One" font-size="14.00" fill="#b03a2e">Carving Unit Tests</text>
</a>
</g>
</g>
<!-- GrammarCoverageFuzzer&#45;&gt;Carver -->
<g id="edge21" class="edge">
<title>GrammarCoverageFuzzer&#45;&gt;Carver</title>
<path fill="none" stroke="#000000" d="M376.4145,-215.9348C360.4334,-207.5922 344.6105,-195.9115 335.5,-180 327.5498,-166.115 327.1658,-157.658 335.5,-144 372.1229,-83.9831 447.4667,-51.3466 504.9891,-34.4348"/>
<polygon fill="#000000" stroke="#000000" points="506.118,-37.7527 514.7824,-31.6553 504.2067,-31.0187 506.118,-37.7527"/>
</g>
<!-- GUIFuzzer -->
<g id="node21" class="node">
<title>GUIFuzzer</title>
<g id="a_node21"><a xlink:href="GUIFuzzer.ipynb" xlink:title="GUIFuzzer">
<polygon fill="#ffffff" stroke="#000000" points="736.5,-180 522.5,-180 522.5,-144 742.5,-144 742.5,-174 736.5,-180"/>
<polyline fill="none" stroke="#000000" points="736.5,-180 736.5,-174 "/>
<polyline fill="none" stroke="#000000" points="742.5,-174 736.5,-174 "/>
<text text-anchor="middle" x="632.5" y="-158.3" font-family="Patua One" font-size="14.00" fill="#b03a2e">Testing Graphical User Interfaces</text>
</a>
</g>
</g>
<!-- GrammarCoverageFuzzer&#45;&gt;GUIFuzzer -->
<g id="edge22" class="edge">
<title>GrammarCoverageFuzzer&#45;&gt;GUIFuzzer</title>
<path fill="none" stroke="#000000" d="M478.9655,-215.9243C506.9902,-206.0815 541.8484,-193.8386 571.264,-183.5073"/>
<polygon fill="#000000" stroke="#000000" points="572.7381,-186.6992 581.0133,-180.0831 570.4184,-180.0947 572.7381,-186.6992"/>
</g>
<!-- APIFuzzer -->
<g id="node24" class="node">
<title>APIFuzzer</title>
<g id="a_node24"><a xlink:href="APIFuzzer.ipynb" xlink:title="APIFuzzer">
<polygon fill="#ffffff" stroke="#000000" points="887,-108 796,-108 796,-72 893,-72 893,-102 887,-108"/>
<polyline fill="none" stroke="#000000" points="887,-108 887,-102 "/>
<polyline fill="none" stroke="#000000" points="893,-102 887,-102 "/>
<text text-anchor="middle" x="844.5" y="-86.3" font-family="Patua One" font-size="14.00" fill="#b03a2e">Fuzzing APIs</text>
</a>
</g>
</g>
<!-- ProbabilisticGrammarFuzzer&#45;&gt;APIFuzzer -->
<g id="edge27" class="edge">
<title>ProbabilisticGrammarFuzzer&#45;&gt;APIFuzzer</title>
<path fill="none" stroke="#000000" d="M998.7834,-143.9243C969.5317,-133.7004 932.8711,-120.887 902.6267,-110.3161"/>
<polygon fill="#000000" stroke="#000000" points="903.645,-106.9645 893.0501,-106.969 901.3353,-113.5725 903.645,-106.9645"/>
</g>
<!-- InformationFlow -->
<g id="node23" class="node">
<title>InformationFlow</title>
<g id="a_node23"><a xlink:href="InformationFlow.ipynb" xlink:title="InformationFlow">
<polygon fill="#ffffff" stroke="#000000" points="1350,-180 1173,-180 1173,-144 1356,-144 1356,-174 1350,-180"/>
<polyline fill="none" stroke="#000000" points="1350,-180 1350,-174 "/>
<polyline fill="none" stroke="#000000" points="1356,-174 1350,-174 "/>
<text text-anchor="middle" x="1264.5" y="-158.3" font-family="Patua One" font-size="14.00" fill="#b03a2e">Tracking Information Flow</text>
</a>
</g>
</g>
<!-- GrammarMiner&#45;&gt;InformationFlow -->
<g id="edge29" class="edge">
<title>GrammarMiner&#45;&gt;InformationFlow</title>
<path fill="none" stroke="#000000" d="M911.1044,-220.9682C976.734,-210.6443 1070.6942,-195.6579 1162.7946,-180.1053"/>
<polygon fill="#000000" stroke="#000000" points="1163.5775,-183.5227 1172.8534,-178.4032 1162.4095,-176.6208 1163.5775,-183.5227"/>
</g>
<!-- GrammarFuzzer&#45;&gt;GrammarCoverageFuzzer -->
<g id="edge14" class="edge">
<title>GrammarFuzzer&#45;&gt;GrammarCoverageFuzzer</title>
<path fill="none" stroke="#000000" d="M791.7701,-291.5163C707.5943,-278.2254 584.2767,-258.7542 504.9408,-246.2275"/>
<polygon fill="#000000" stroke="#000000" points="505.4326,-242.7619 495.0091,-244.6593 504.3408,-249.6762 505.4326,-242.7619"/>
</g>
<!-- GrammarFuzzer&#45;&gt;GrammarMiner -->
<g id="edge18" class="edge">
<title>GrammarFuzzer&#45;&gt;GrammarMiner</title>
<path fill="none" stroke="#000000" d="M869.3688,-287.8314C862.9189,-279.5386 855.1555,-269.557 848.0748,-260.4533"/>
<polygon fill="#000000" stroke="#000000" points="850.7236,-258.158 841.8214,-252.4133 845.1981,-262.4556 850.7236,-258.158"/>
</g>
<!-- Parser -->
<g id="node15" class="node">
<title>Parser</title>
<g id="a_node15"><a xlink:href="Parser.ipynb" xlink:title="Parser">
<polygon fill="#ffffff" stroke="#000000" points="1312,-252 1211,-252 1211,-216 1318,-216 1318,-246 1312,-252"/>
<polyline fill="none" stroke="#000000" points="1312,-252 1312,-246 "/>
<polyline fill="none" stroke="#000000" points="1318,-246 1312,-246 "/>
<text text-anchor="middle" x="1264.5" y="-230.3" font-family="Patua One" font-size="14.00" fill="#b03a2e">Parsing Inputs</text>
</a>
</g>
</g>
<!-- GrammarFuzzer&#45;&gt;Parser -->
<g id="edge15" class="edge">
<title>GrammarFuzzer&#45;&gt;Parser</title>
<path fill="none" stroke="#000000" d="M975.1456,-293.3417C1036.7009,-284.1717 1119.7439,-270.5149 1200.9391,-252.242"/>
<polygon fill="#000000" stroke="#000000" points="1201.8564,-255.6228 1210.8302,-249.9907 1200.3028,-248.7973 1201.8564,-255.6228"/>
</g>
<!-- GeneratorGrammarFuzzer -->
<g id="node16" class="node">
<title>GeneratorGrammarFuzzer</title>
<g id="a_node16"><a xlink:href="GeneratorGrammarFuzzer.ipynb" xlink:title="GeneratorGrammarFuzzer">
<polygon fill="#ffffff" stroke="#000000" points="922.5,-180 760.5,-180 760.5,-144 928.5,-144 928.5,-174 922.5,-180"/>
<polyline fill="none" stroke="#000000" points="922.5,-180 922.5,-174 "/>
<polyline fill="none" stroke="#000000" points="928.5,-174 922.5,-174 "/>
<text text-anchor="middle" x="844.5" y="-158.3" font-family="Patua One" font-size="14.00" fill="#b03a2e">Fuzzing with Generators</text>
</a>
</g>
</g>
<!-- GrammarFuzzer&#45;&gt;GeneratorGrammarFuzzer -->
<g id="edge16" class="edge">
<title>GrammarFuzzer&#45;&gt;GeneratorGrammarFuzzer</title>
<path fill="none" stroke="#000000" d="M899.7964,-287.9793C914.4289,-269.4946 931.8523,-240.1146 919.5,-216 913.263,-203.8238 902.8605,-193.7682 891.7593,-185.7713"/>
<polygon fill="#000000" stroke="#000000" points="893.4527,-182.6937 883.1914,-180.0563 889.5684,-188.5171 893.4527,-182.6937"/>
</g>
<!-- Reducer -->
<g id="node17" class="node">
<title>Reducer</title>
<g id="a_node17"><a xlink:href="Reducer.ipynb" xlink:title="Reducer">
<polygon fill="#ffffff" stroke="#000000" points="1187,-252 968,-252 968,-216 1193,-216 1193,-246 1187,-252"/>
<polyline fill="none" stroke="#000000" points="1187,-252 1187,-246 "/>
<polyline fill="none" stroke="#000000" points="1193,-246 1187,-246 "/>
<text text-anchor="middle" x="1080.5" y="-230.3" font-family="Patua One" font-size="14.00" fill="#b03a2e">Reducing Failure&#45;Inducing Inputs</text>
</a>
</g>
</g>
<!-- GrammarFuzzer&#45;&gt;Reducer -->
<g id="edge17" class="edge">
<title>GrammarFuzzer&#45;&gt;Reducer</title>
<path fill="none" stroke="#000000" d="M932.9571,-287.9243C959.7711,-278.1243 993.0949,-265.945 1021.2847,-255.6422"/>
<polygon fill="#000000" stroke="#000000" points="1022.8316,-258.8033 1031.0225,-252.0831 1020.4287,-252.2286 1022.8316,-258.8033"/>
</g>
<!-- WebFuzzer -->
<g id="node18" class="node">
<title>WebFuzzer</title>
<g id="a_node18"><a xlink:href="WebFuzzer.ipynb" xlink:title="WebFuzzer">
<polygon fill="#ffffff" stroke="#000000" points="719.5,-252 551.5,-252 551.5,-216 725.5,-216 725.5,-246 719.5,-252"/>
<polyline fill="none" stroke="#000000" points="719.5,-252 719.5,-246 "/>
<polyline fill="none" stroke="#000000" points="725.5,-246 719.5,-246 "/>
<text text-anchor="middle" x="638.5" y="-230.3" font-family="Patua One" font-size="14.00" fill="#b03a2e">Testing Web Applications</text>
</a>
</g>
</g>
<!-- GrammarFuzzer&#45;&gt;WebFuzzer -->
<g id="edge19" class="edge">
<title>GrammarFuzzer&#45;&gt;WebFuzzer</title>
<path fill="none" stroke="#000000" d="M821.9924,-287.9243C787.917,-277.9103 745.3882,-265.412 709.8563,-254.97"/>
<polygon fill="#000000" stroke="#000000" points="710.6141,-251.5448 700.0329,-252.0831 708.6403,-258.2608 710.6141,-251.5448"/>
</g>
<!-- Parser&#45;&gt;ProbabilisticGrammarFuzzer -->
<g id="edge24" class="edge">
<title>Parser&#45;&gt;ProbabilisticGrammarFuzzer</title>
<path fill="none" stroke="#000000" d="M1210.775,-215.9243C1181.3927,-206.0387 1144.8148,-193.7321 1114.0242,-183.3726"/>
<polygon fill="#000000" stroke="#000000" points="1114.8412,-179.9548 1104.2471,-180.0831 1112.6089,-186.5893 1114.8412,-179.9548"/>
</g>
<!-- LangFuzzer -->
<g id="node22" class="node">
<title>LangFuzzer</title>
<g id="a_node22"><a xlink:href="LangFuzzer.ipynb" xlink:title="LangFuzzer">
<polygon fill="#ffffff" stroke="#000000" points="1572.5,-180 1374.5,-180 1374.5,-144 1578.5,-144 1578.5,-174 1572.5,-180"/>
<polyline fill="none" stroke="#000000" points="1572.5,-180 1572.5,-174 "/>
<polyline fill="none" stroke="#000000" points="1578.5,-174 1572.5,-174 "/>
<text text-anchor="middle" x="1476.5" y="-158.3" font-family="Patua One" font-size="14.00" fill="#b03a2e">Fuzzing with Input Fragments</text>
</a>
</g>
</g>
<!-- Parser&#45;&gt;LangFuzzer -->
<g id="edge23" class="edge">
<title>Parser&#45;&gt;LangFuzzer</title>
<path fill="none" stroke="#000000" d="M1317.7229,-215.9243C1346.8306,-206.0387 1383.0666,-193.7321 1413.5694,-183.3726"/>
<polygon fill="#000000" stroke="#000000" points="1414.9119,-186.6131 1423.2552,-180.0831 1412.6608,-179.9849 1414.9119,-186.6131"/>
</g>
<!-- Parser&#45;&gt;InformationFlow -->
<g id="edge25" class="edge">
<title>Parser&#45;&gt;InformationFlow</title>
<path fill="none" stroke="#000000" d="M1264.5,-215.8314C1264.5,-208.131 1264.5,-198.9743 1264.5,-190.4166"/>
<polygon fill="#000000" stroke="#000000" points="1268.0001,-190.4132 1264.5,-180.4133 1261.0001,-190.4133 1268.0001,-190.4132"/>
</g>
<!-- GeneratorGrammarFuzzer&#45;&gt;APIFuzzer -->
<g id="edge28" class="edge">
<title>GeneratorGrammarFuzzer&#45;&gt;APIFuzzer</title>
<path fill="none" stroke="#000000" d="M844.5,-143.8314C844.5,-136.131 844.5,-126.9743 844.5,-118.4166"/>
<polygon fill="#000000" stroke="#000000" points="848.0001,-118.4132 844.5,-108.4133 841.0001,-118.4133 848.0001,-118.4132"/>
</g>
<!-- WebFuzzer&#45;&gt;GUIFuzzer -->
<g id="edge33" class="edge">
<title>WebFuzzer&#45;&gt;GUIFuzzer</title>
<path fill="none" stroke="#000000" d="M636.9859,-215.8314C636.3442,-208.131 635.5812,-198.9743 634.8681,-190.4166"/>
<polygon fill="#000000" stroke="#000000" points="638.3529,-190.088 634.0344,-180.4133 631.3771,-190.6694 638.3529,-190.088"/>
</g>
<!-- LangFuzzer&#45;&gt;EvoGrammarFuzzer -->
<g id="edge26" class="edge">
<title>LangFuzzer&#45;&gt;EvoGrammarFuzzer</title>
<path fill="none" stroke="#000000" d="M1492.9022,-143.8314C1500.5415,-135.3694 1509.7683,-125.1489 1518.1207,-115.8971"/>
<polygon fill="#000000" stroke="#000000" points="1520.7738,-118.1813 1524.8769,-108.4133 1515.5779,-113.4906 1520.7738,-118.1813"/>
</g>
<!-- ConcolicFuzzer -->
<g id="node25" class="node">
<title>ConcolicFuzzer</title>
<g id="a_node25"><a xlink:href="ConcolicFuzzer.ipynb" xlink:title="ConcolicFuzzer">
<polygon fill="#ffffff" stroke="#000000" points="1318.5,-108 1204.5,-108 1204.5,-72 1324.5,-72 1324.5,-102 1318.5,-108"/>
<polyline fill="none" stroke="#000000" points="1318.5,-108 1318.5,-102 "/>
<polyline fill="none" stroke="#000000" points="1324.5,-102 1318.5,-102 "/>
<text text-anchor="middle" x="1264.5" y="-86.3" font-family="Patua One" font-size="14.00" fill="#b03a2e">Concolic Fuzzing</text>
</a>
</g>
</g>
<!-- InformationFlow&#45;&gt;ConcolicFuzzer -->
<g id="edge30" class="edge">
<title>InformationFlow&#45;&gt;ConcolicFuzzer</title>
<path fill="none" stroke="#000000" d="M1264.5,-143.8314C1264.5,-136.131 1264.5,-126.9743 1264.5,-118.4166"/>
<polygon fill="#000000" stroke="#000000" points="1268.0001,-118.4132 1264.5,-108.4133 1261.0001,-118.4133 1268.0001,-118.4132"/>
</g>
<!-- APIFuzzer&#45;&gt;Carver -->
<g id="edge32" class="edge">
<title>APIFuzzer&#45;&gt;Carver</title>
<path fill="none" stroke="#000000" d="M795.7707,-76.7102C756.6284,-66.035 700.975,-50.8568 656.0614,-38.6077"/>
<polygon fill="#000000" stroke="#000000" points="656.9276,-35.2161 646.359,-35.9615 655.0857,-41.9695 656.9276,-35.2161"/>
</g>
<!-- SymbolicFuzzer -->
<g id="node26" class="node">
<title>SymbolicFuzzer</title>
<g id="a_node26"><a xlink:href="SymbolicFuzzer.ipynb" xlink:title="SymbolicFuzzer">
<polygon fill="#ffffff" stroke="#000000" points="1321.5,-36 1201.5,-36 1201.5,0 1327.5,0 1327.5,-30 1321.5,-36"/>
<polyline fill="none" stroke="#000000" points="1321.5,-36 1321.5,-30 "/>
<polyline fill="none" stroke="#000000" points="1327.5,-30 1321.5,-30 "/>
<text text-anchor="middle" x="1264.5" y="-14.3" font-family="Patua One" font-size="14.00" fill="#b03a2e">Symbolic Fuzzing</text>
</a>
</g>
</g>
<!-- ConcolicFuzzer&#45;&gt;SymbolicFuzzer -->
<g id="edge31" class="edge">
<title>ConcolicFuzzer&#45;&gt;SymbolicFuzzer</title>
<path fill="none" stroke="#000000" d="M1264.5,-71.8314C1264.5,-64.131 1264.5,-54.9743 1264.5,-46.4166"/>
<polygon fill="#000000" stroke="#000000" points="1268.0001,-46.4132 1264.5,-36.4133 1261.0001,-46.4133 1268.0001,-46.4132"/>
</g>
</g>
</svg>
