<?xml version="1.0" encoding="UTF-8" standalone="no"?>
<!DOCTYPE svg PUBLIC "-//W3C//DTD SVG 1.1//EN"
 "http://www.w3.org/Graphics/SVG/1.1/DTD/svg11.dtd">
<!-- Generated by graphviz version 2.40.1 (20161225.0304)
 -->
<!-- Title: %3 Pages: 1 -->
<svg width="1458pt" height="548pt"
 viewBox="0.00 0.00 1458.26 548.00" xmlns="http://www.w3.org/2000/svg" xmlns:xlink="http://www.w3.org/1999/xlink">
<g id="graph0" class="graph" transform="scale(1 1) rotate(0) translate(4 544)">
<title>%3</title>
<polygon fill="#ffffff" stroke="transparent" points="-4,4 -4,-544 1454.2551,-544 1454.2551,4 -4,4"/>
<!-- Intro_Testing -->
<g id="node1" class="node">
<title>Intro_Testing</title>
<g id="a_node1"><a xlink:href="Intro_Testing.ipynb" xlink:title="Intro_Testing">
<ellipse fill="none" stroke="#000000" cx="473.8139" cy="-522" rx="129.9769" ry="18"/>
<text text-anchor="middle" x="473.8139" y="-518.3" font-family="Times,serif" font-size="14.00" fill="#000000">Introduction to Software Testing</text>
</a>
</g>
</g>
<!-- Fuzzer -->
<g id="node2" class="node">
<title>Fuzzer</title>
<g id="a_node2"><a xlink:href="Fuzzer.ipynb" xlink:title="Fuzzer">
<ellipse fill="none" stroke="#000000" cx="473.8139" cy="-450" rx="182.7677" ry="18"/>
<text text-anchor="middle" x="473.8139" y="-446.3" font-family="Times,serif" font-size="14.00" fill="#000000">Fuzzing: Breaking Things with Random Inputs</text>
</a>
</g>
</g>
<!-- Intro_Testing&#45;&gt;Fuzzer -->
<g id="edge1" class="edge">
<title>Intro_Testing&#45;&gt;Fuzzer</title>
<path fill="none" stroke="#000000" d="M473.8139,-503.8314C473.8139,-496.131 473.8139,-486.9743 473.8139,-478.4166"/>
<polygon fill="#000000" stroke="#000000" points="477.314,-478.4132 473.8139,-468.4133 470.314,-478.4133 477.314,-478.4132"/>
</g>
<!-- Coverage -->
<g id="node3" class="node">
<title>Coverage</title>
<g id="a_node3"><a xlink:href="Coverage.ipynb" xlink:title="Coverage">
<ellipse fill="none" stroke="#000000" cx="357.8139" cy="-306" rx="75.2868" ry="18"/>
<text text-anchor="middle" x="357.8139" y="-302.3" font-family="Times,serif" font-size="14.00" fill="#000000">Getting Coverage</text>
</a>
</g>
</g>
<!-- Fuzzer&#45;&gt;Coverage -->
<g id="edge2" class="edge">
<title>Fuzzer&#45;&gt;Coverage</title>
<path fill="none" stroke="#000000" d="M459.357,-432.0535C439.0148,-406.8012 401.8325,-360.6438 378.5482,-331.7391"/>
<polygon fill="#000000" stroke="#000000" points="381.0876,-329.3123 372.0886,-323.7204 375.6363,-333.7036 381.0876,-329.3123"/>
</g>
<!-- Grammars -->
<g id="node4" class="node">
<title>Grammars</title>
<g id="a_node4"><a xlink:href="Grammars.ipynb" xlink:title="Grammars">
<ellipse fill="none" stroke="#000000" cx="564.8139" cy="-378" rx="99.3824" ry="18"/>
<text text-anchor="middle" x="564.8139" y="-374.3" font-family="Times,serif" font-size="14.00" fill="#000000">Fuzzing with Grammars</text>
</a>
</g>
</g>
<!-- Fuzzer&#45;&gt;Grammars -->
<g id="edge3" class="edge">
<title>Fuzzer&#45;&gt;Grammars</title>
<path fill="none" stroke="#000000" d="M496.777,-431.8314C508.1565,-422.8278 522.0521,-411.8335 534.312,-402.1334"/>
<polygon fill="#000000" stroke="#000000" points="536.8167,-404.6147 542.4872,-395.665 532.4733,-399.1251 536.8167,-404.6147"/>
</g>
<!-- MutationFuzzer -->
<g id="node5" class="node">
<title>MutationFuzzer</title>
<g id="a_node5"><a xlink:href="MutationFuzzer.ipynb" xlink:title="MutationFuzzer">
<ellipse fill="none" stroke="#000000" cx="117.8139" cy="-234" rx="100.9827" ry="18"/>
<text text-anchor="middle" x="117.8139" y="-230.3" font-family="Times,serif" font-size="14.00" fill="#000000">Mutation&#45;Based Fuzzing</text>
</a>
</g>
</g>
<!-- Coverage&#45;&gt;MutationFuzzer -->
<g id="edge4" class="edge">
<title>Coverage&#45;&gt;MutationFuzzer</title>
<path fill="none" stroke="#000000" d="M310.684,-291.861C273.0225,-280.5626 219.9494,-264.6406 179.0079,-252.3582"/>
<polygon fill="#000000" stroke="#000000" points="179.9933,-248.9998 169.4093,-249.4786 177.9818,-255.7046 179.9933,-248.9998"/>
</g>
<!-- GrammarCoverageFuzzer -->
<g id="node6" class="node">
<title>GrammarCoverageFuzzer</title>
<g id="a_node6"><a xlink:href="GrammarCoverageFuzzer.ipynb" xlink:title="GrammarCoverageFuzzer">
<ellipse fill="none" stroke="#000000" cx="597.8139" cy="-234" rx="82.5854" ry="18"/>
<text text-anchor="middle" x="597.8139" y="-230.3" font-family="Times,serif" font-size="14.00" fill="#000000">Grammar Coverage</text>
</a>
</g>
</g>
<!-- Coverage&#45;&gt;GrammarCoverageFuzzer -->
<g id="edge5" class="edge">
<title>Coverage&#45;&gt;GrammarCoverageFuzzer</title>
<path fill="none" stroke="#000000" d="M404.9438,-291.861C443.4899,-280.2972 498.1803,-263.8901 539.4846,-251.4988"/>
<polygon fill="#000000" stroke="#000000" points="540.5727,-254.8265 549.1452,-248.6006 538.5612,-248.1218 540.5727,-254.8265"/>
</g>
<!-- ProbabilisticGrammarFuzzer -->
<g id="node7" class="node">
<title>ProbabilisticGrammarFuzzer</title>
<g id="a_node7"><a xlink:href="ProbabilisticGrammarFuzzer.ipynb" xlink:title="ProbabilisticGrammarFuzzer">
<ellipse fill="none" stroke="#000000" cx="359.8139" cy="-162" rx="125.3778" ry="18"/>
<text text-anchor="middle" x="359.8139" y="-158.3" font-family="Times,serif" font-size="14.00" fill="#000000">Probabilistic Grammar Fuzzing</text>
</a>
</g>
</g>
<!-- Coverage&#45;&gt;ProbabilisticGrammarFuzzer -->
<g id="edge6" class="edge">
<title>Coverage&#45;&gt;ProbabilisticGrammarFuzzer</title>
<path fill="none" stroke="#000000" d="M286.7301,-299.9514C189.7055,-290.965 25.7243,-272.8857 7.8139,-252 -2.6016,-239.8543 -2.6068,-228.1412 7.8139,-216 23.2243,-198.0452 146.0721,-182.2544 242.3564,-172.4597"/>
<polygon fill="#000000" stroke="#000000" points="242.8732,-175.9255 252.4729,-171.4425 242.1729,-168.9606 242.8732,-175.9255"/>
</g>
<!-- GrammarFuzzer -->
<g id="node8" class="node">
<title>GrammarFuzzer</title>
<g id="a_node8"><a xlink:href="GrammarFuzzer.ipynb" xlink:title="GrammarFuzzer">
<ellipse fill="none" stroke="#000000" cx="831.8139" cy="-306" rx="110.4804" ry="18"/>
<text text-anchor="middle" x="831.8139" y="-302.3" font-family="Times,serif" font-size="14.00" fill="#000000">Efficient Grammar Fuzzing</text>
</a>
</g>
</g>
<!-- Grammars&#45;&gt;GrammarFuzzer -->
<g id="edge7" class="edge">
<title>Grammars&#45;&gt;GrammarFuzzer</title>
<path fill="none" stroke="#000000" d="M620.4608,-362.9941C662.3762,-351.6911 720.0307,-336.1438 764.5358,-324.1424"/>
<polygon fill="#000000" stroke="#000000" points="765.6516,-327.4666 774.3954,-321.4836 763.829,-320.708 765.6516,-327.4666"/>
</g>
<!-- ConfigurationFuzzer -->
<g id="node14" class="node">
<title>ConfigurationFuzzer</title>
<g id="a_node14"><a xlink:href="ConfigurationFuzzer.ipynb" xlink:title="ConfigurationFuzzer">
<ellipse fill="none" stroke="#000000" cx="597.8139" cy="-162" rx="94.4839" ry="18"/>
<text text-anchor="middle" x="597.8139" y="-158.3" font-family="Times,serif" font-size="14.00" fill="#000000">Testing Configurations</text>
</a>
</g>
</g>
<!-- GrammarCoverageFuzzer&#45;&gt;ConfigurationFuzzer -->
<g id="edge14" class="edge">
<title>GrammarCoverageFuzzer&#45;&gt;ConfigurationFuzzer</title>
<path fill="none" stroke="#000000" d="M597.8139,-215.8314C597.8139,-208.131 597.8139,-198.9743 597.8139,-190.4166"/>
<polygon fill="#000000" stroke="#000000" points="601.314,-190.4132 597.8139,-180.4133 594.314,-190.4133 601.314,-190.4132"/>
</g>
<!-- Carver -->
<g id="node15" class="node">
<title>Carver</title>
<g id="a_node15"><a xlink:href="Carver.ipynb" xlink:title="Carver">
<ellipse fill="none" stroke="#000000" cx="763.8139" cy="-18" rx="79.8859" ry="18"/>
<text text-anchor="middle" x="763.8139" y="-14.3" font-family="Times,serif" font-size="14.00" fill="#000000">Carving Unit Tests</text>
</a>
</g>
</g>
<!-- GrammarCoverageFuzzer&#45;&gt;Carver -->
<g id="edge15" class="edge">
<title>GrammarCoverageFuzzer&#45;&gt;Carver</title>
<path fill="none" stroke="#000000" d="M643.3086,-218.8829C663.2962,-210.2417 685.624,-197.5611 700.8139,-180 734.1025,-141.5149 719.6588,-119.1415 738.8139,-72 742.3742,-63.238 746.5851,-53.8371 750.5261,-45.3747"/>
<polygon fill="#000000" stroke="#000000" points="753.7047,-46.8401 754.8118,-36.3033 747.3755,-43.8499 753.7047,-46.8401"/>
</g>
<!-- GUIFuzzer -->
<g id="node16" class="node">
<title>GUIFuzzer</title>
<g id="a_node16"><a xlink:href="GUIFuzzer.ipynb" xlink:title="GUIFuzzer">
<ellipse fill="none" stroke="#000000" cx="925.8139" cy="-162" rx="133.7763" ry="18"/>
<text text-anchor="middle" x="925.8139" y="-158.3" font-family="Times,serif" font-size="14.00" fill="#000000">Testing Graphical User Interfaces</text>
</a>
</g>
</g>
<!-- GrammarCoverageFuzzer&#45;&gt;GUIFuzzer -->
<g id="edge16" class="edge">
<title>GrammarCoverageFuzzer&#45;&gt;GUIFuzzer</title>
<path fill="none" stroke="#000000" d="M656.0758,-221.2108C708.8916,-209.6171 787.2136,-192.4245 845.8726,-179.5481"/>
<polygon fill="#000000" stroke="#000000" points="846.8299,-182.9214 855.8469,-177.3586 845.329,-176.0842 846.8299,-182.9214"/>
</g>
<!-- APIFuzzer -->
<g id="node17" class="node">
<title>APIFuzzer</title>
<g id="a_node17"><a xlink:href="APIFuzzer.ipynb" xlink:title="APIFuzzer">
<ellipse fill="none" stroke="#000000" cx="807.8139" cy="-90" rx="60.3893" ry="18"/>
<text text-anchor="middle" x="807.8139" y="-86.3" font-family="Times,serif" font-size="14.00" fill="#000000">Fuzzing APIs</text>
</a>
</g>
</g>
<!-- ProbabilisticGrammarFuzzer&#45;&gt;APIFuzzer -->
<g id="edge18" class="edge">
<title>ProbabilisticGrammarFuzzer&#45;&gt;APIFuzzer</title>
<path fill="none" stroke="#000000" d="M443.5537,-148.5418C530.6874,-134.5382 665.2005,-112.92 744.0716,-100.2443"/>
<polygon fill="#000000" stroke="#000000" points="745.0314,-103.635 754.3493,-98.5925 743.9206,-96.7237 745.0314,-103.635"/>
</g>
<!-- GrammarFuzzer&#45;&gt;GrammarCoverageFuzzer -->
<g id="edge8" class="edge">
<title>GrammarFuzzer&#45;&gt;GrammarCoverageFuzzer</title>
<path fill="none" stroke="#000000" d="M779.8817,-290.0209C743.0489,-278.6877 693.6012,-263.473 655.5329,-251.7597"/>
<polygon fill="#000000" stroke="#000000" points="656.2042,-248.3044 645.6171,-248.7087 654.1455,-254.9948 656.2042,-248.3044"/>
</g>
<!-- Parser -->
<g id="node9" class="node">
<title>Parser</title>
<g id="a_node9"><a xlink:href="Parser.ipynb" xlink:title="Parser">
<ellipse fill="none" stroke="#000000" cx="366.8139" cy="-234" rx="129.9769" ry="18"/>
<text text-anchor="middle" x="366.8139" y="-230.3" font-family="Times,serif" font-size="14.00" fill="#000000">Parsing and Recombining Inputs</text>
</a>
</g>
</g>
<!-- GrammarFuzzer&#45;&gt;Parser -->
<g id="edge9" class="edge">
<title>GrammarFuzzer&#45;&gt;Parser</title>
<path fill="none" stroke="#000000" d="M751.6129,-293.5818C671.6418,-281.1992 548.7467,-262.1702 463.4437,-248.962"/>
<polygon fill="#000000" stroke="#000000" points="463.9109,-245.4927 453.4931,-247.4213 462.8397,-252.4103 463.9109,-245.4927"/>
</g>
<!-- GeneratorGrammarFuzzer -->
<g id="node10" class="node">
<title>GeneratorGrammarFuzzer</title>
<g id="a_node10"><a xlink:href="GeneratorGrammarFuzzer.ipynb" xlink:title="GeneratorGrammarFuzzer">
<ellipse fill="none" stroke="#000000" cx="1200.8139" cy="-162" rx="100.9827" ry="18"/>
<text text-anchor="middle" x="1200.8139" y="-158.3" font-family="Times,serif" font-size="14.00" fill="#000000">Fuzzing with Generators</text>
</a>
</g>
</g>
<!-- GrammarFuzzer&#45;&gt;GeneratorGrammarFuzzer -->
<g id="edge10" class="edge">
<title>GrammarFuzzer&#45;&gt;GeneratorGrammarFuzzer</title>
<path fill="none" stroke="#000000" d="M931.5851,-298.2413C1035.9382,-289.0909 1187.0684,-272.4996 1204.8139,-252 1219.2842,-235.2839 1216.5543,-209.5868 1211.2075,-189.924"/>
<polygon fill="#000000" stroke="#000000" points="1214.526,-188.8072 1208.2501,-180.2711 1207.833,-190.8577 1214.526,-188.8072"/>
</g>
<!-- Reducer -->
<g id="node11" class="node">
<title>Reducer</title>
<g id="a_node11"><a xlink:href="Reducer.ipynb" xlink:title="Reducer">
<ellipse fill="none" stroke="#000000" cx="831.8139" cy="-234" rx="133.7763" ry="18"/>
<text text-anchor="middle" x="831.8139" y="-230.3" font-family="Times,serif" font-size="14.00" fill="#000000">Reducing Failure&#45;Inducing Inputs</text>
</a>
</g>
</g>
<!-- GrammarFuzzer&#45;&gt;Reducer -->
<g id="edge11" class="edge">
<title>GrammarFuzzer&#45;&gt;Reducer</title>
<path fill="none" stroke="#000000" d="M831.8139,-287.8314C831.8139,-280.131 831.8139,-270.9743 831.8139,-262.4166"/>
<polygon fill="#000000" stroke="#000000" points="835.314,-262.4132 831.8139,-252.4133 828.314,-262.4133 835.314,-262.4132"/>
</g>
<!-- GrammarMiner -->
<g id="node12" class="node">
<title>GrammarMiner</title>
<g id="a_node12"><a xlink:href="GrammarMiner.ipynb" xlink:title="GrammarMiner">
<ellipse fill="none" stroke="#000000" cx="1350.8139" cy="-234" rx="99.3824" ry="18"/>
<text text-anchor="middle" x="1350.8139" y="-230.3" font-family="Times,serif" font-size="14.00" fill="#000000">Mining Input Grammars</text>
</a>
</g>
</g>
<!-- GrammarFuzzer&#45;&gt;GrammarMiner -->
<g id="edge12" class="edge">
<title>GrammarFuzzer&#45;&gt;GrammarMiner</title>
<path fill="none" stroke="#000000" d="M919.4183,-295.0096C1001.7061,-284.5295 1128.2287,-268.013 1237.8139,-252 1247.1508,-250.6357 1256.9132,-249.1579 1266.6216,-247.6558"/>
<polygon fill="#000000" stroke="#000000" points="1267.3575,-251.0835 1276.6993,-246.0854 1266.2796,-244.167 1267.3575,-251.0835"/>
</g>
<!-- WebFuzzer -->
<g id="node13" class="node">
<title>WebFuzzer</title>
<g id="a_node13"><a xlink:href="WebFuzzer.ipynb" xlink:title="WebFuzzer">
<ellipse fill="none" stroke="#000000" cx="1089.8139" cy="-234" rx="105.8812" ry="18"/>
<text text-anchor="middle" x="1089.8139" y="-230.3" font-family="Times,serif" font-size="14.00" fill="#000000">Testing Web Applications</text>
</a>
</g>
</g>
<!-- GrammarFuzzer&#45;&gt;WebFuzzer -->
<g id="edge13" class="edge">
<title>GrammarFuzzer&#45;&gt;WebFuzzer</title>
<path fill="none" stroke="#000000" d="M887.796,-290.3771C927.9967,-279.1583 982.3037,-264.0028 1024.4867,-252.2308"/>
<polygon fill="#000000" stroke="#000000" points="1025.6936,-255.5279 1034.3847,-249.4686 1023.8119,-248.7855 1025.6936,-255.5279"/>
</g>
<!-- Parser&#45;&gt;ProbabilisticGrammarFuzzer -->
<g id="edge17" class="edge">
<title>Parser&#45;&gt;ProbabilisticGrammarFuzzer</title>
<path fill="none" stroke="#000000" d="M365.0475,-215.8314C364.2988,-208.131 363.4086,-198.9743 362.5766,-190.4166"/>
<polygon fill="#000000" stroke="#000000" points="366.0554,-190.0276 361.6041,-180.4133 359.0882,-190.7051 366.0554,-190.0276"/>
</g>
<!-- GeneratorGrammarFuzzer&#45;&gt;APIFuzzer -->
<g id="edge19" class="edge">
<title>GeneratorGrammarFuzzer&#45;&gt;APIFuzzer</title>
<path fill="none" stroke="#000000" d="M1130.0995,-149.0447C1055.8518,-135.4421 940.27,-114.2668 869.5726,-101.3146"/>
<polygon fill="#000000" stroke="#000000" points="869.9448,-97.8246 859.4778,-99.4651 868.6833,-104.71 869.9448,-97.8246"/>
</g>
<!-- WebFuzzer&#45;&gt;GUIFuzzer -->
<g id="edge21" class="edge">
<title>WebFuzzer&#45;&gt;GUIFuzzer</title>
<path fill="none" stroke="#000000" d="M1051.3632,-217.1192C1028.3609,-207.0206 998.9179,-194.0945 974.3266,-183.2983"/>
<polygon fill="#000000" stroke="#000000" points="975.7262,-180.0903 965.1628,-179.2751 972.9123,-186.4998 975.7262,-180.0903"/>
</g>
<!-- APIFuzzer&#45;&gt;Carver -->
<g id="edge20" class="edge">
<title>APIFuzzer&#45;&gt;Carver</title>
<path fill="none" stroke="#000000" d="M796.9375,-72.2022C791.8605,-63.8944 785.711,-53.8316 780.0955,-44.6427"/>
<polygon fill="#000000" stroke="#000000" points="782.9187,-42.5503 774.7177,-35.8425 776.9457,-46.2005 782.9187,-42.5503"/>
</g>
</g>
</svg>
