<?xml version="1.0" encoding="UTF-8" standalone="no"?>
<!DOCTYPE svg PUBLIC "-//W3C//DTD SVG 1.1//EN"
 "http://www.w3.org/Graphics/SVG/1.1/DTD/svg11.dtd">
<!-- Generated by graphviz version 2.40.1 (20161225.0304)
 -->
<!-- Title: %3 Pages: 1 -->
<svg width="1408pt" height="548pt"
 viewBox="0.00 0.00 1408.00 548.00" xmlns="http://www.w3.org/2000/svg" xmlns:xlink="http://www.w3.org/1999/xlink">
<g id="graph0" class="graph" transform="scale(1 1) rotate(0) translate(4 544)">
<title>%3</title>
<polygon fill="#ffffff" stroke="transparent" points="-4,4 -4,-544 1404,-544 1404,4 -4,4"/>
<!-- Fuzzer -->
<g id="node1" class="node">
<title>Fuzzer</title>
<g id="a_node1"><a xlink:href="Fuzzer.ipynb" xlink:title="Fuzzer">
<polygon fill="#ffffff" stroke="#000000" points="1090,-468 792,-468 792,-432 1096,-432 1096,-462 1090,-468"/>
<polyline fill="none" stroke="#000000" points="1090,-468 1090,-462 "/>
<polyline fill="none" stroke="#000000" points="1096,-462 1090,-462 "/>
<text text-anchor="middle" x="944" y="-446.3" font-family="Patua One" font-size="14.00" fill="#b03a2e">Fuzzing: Breaking Things with Random Inputs</text>
</a>
</g>
</g>
<!-- Coverage -->
<g id="node2" class="node">
<title>Coverage</title>
<g id="a_node2"><a xlink:href="Coverage.ipynb" xlink:title="Coverage">
<polygon fill="#ffffff" stroke="#000000" points="415.5,-324 298.5,-324 298.5,-288 421.5,-288 421.5,-318 415.5,-324"/>
<polyline fill="none" stroke="#000000" points="415.5,-324 415.5,-318 "/>
<polyline fill="none" stroke="#000000" points="421.5,-318 415.5,-318 "/>
<text text-anchor="middle" x="360" y="-302.3" font-family="Patua One" font-size="14.00" fill="#b03a2e">Getting Coverage</text>
</a>
</g>
</g>
<!-- Fuzzer&#45;&gt;Coverage -->
<g id="edge1" class="edge">
<title>Fuzzer&#45;&gt;Coverage</title>
<path fill="none" stroke="#000000" d="M870.9223,-431.9808C758.1764,-404.1805 543.1796,-351.1676 431.4357,-323.6143"/>
<polygon fill="#000000" stroke="#000000" points="432.153,-320.1864 421.6059,-321.1905 430.4772,-326.9828 432.153,-320.1864"/>
</g>
<!-- SearchBasedFuzzer -->
<g id="node3" class="node">
<title>SearchBasedFuzzer</title>
<g id="a_node3"><a xlink:href="SearchBasedFuzzer.ipynb" xlink:title="SearchBasedFuzzer">
<polygon fill="#ffffff" stroke="#000000" points="1281,-324 1135,-324 1135,-288 1287,-288 1287,-318 1281,-324"/>
<polyline fill="none" stroke="#000000" points="1281,-324 1281,-318 "/>
<polyline fill="none" stroke="#000000" points="1287,-318 1281,-318 "/>
<text text-anchor="middle" x="1211" y="-302.3" font-family="Patua One" font-size="14.00" fill="#b03a2e">Search&#45;Based Fuzzing</text>
</a>
</g>
</g>
<!-- Fuzzer&#45;&gt;SearchBasedFuzzer -->
<g id="edge2" class="edge">
<title>Fuzzer&#45;&gt;SearchBasedFuzzer</title>
<path fill="none" stroke="#000000" d="M942.4765,-431.7893C941.8441,-411.4532 944.2021,-378.9174 963,-360 985.5442,-337.3125 1062.2677,-322.9912 1124.4749,-314.8432"/>
<polygon fill="#000000" stroke="#000000" points="1125.2393,-318.2742 1134.7173,-313.5394 1124.3554,-311.3302 1125.2393,-318.2742"/>
</g>
<!-- Grammars -->
<g id="node4" class="node">
<title>Grammars</title>
<g id="a_node4"><a xlink:href="Grammars.ipynb" xlink:title="Grammars">
<polygon fill="#ffffff" stroke="#000000" points="909.5,-396 750.5,-396 750.5,-360 915.5,-360 915.5,-390 909.5,-396"/>
<polyline fill="none" stroke="#000000" points="909.5,-396 909.5,-390 "/>
<polyline fill="none" stroke="#000000" points="915.5,-390 909.5,-390 "/>
<text text-anchor="middle" x="833" y="-374.3" font-family="Patua One" font-size="14.00" fill="#b03a2e">Fuzzing with Grammars</text>
</a>
</g>
</g>
<!-- Fuzzer&#45;&gt;Grammars -->
<g id="edge3" class="edge">
<title>Fuzzer&#45;&gt;Grammars</title>
<path fill="none" stroke="#000000" d="M915.99,-431.8314C901.9239,-422.7074 884.706,-411.539 869.6067,-401.7449"/>
<polygon fill="#000000" stroke="#000000" points="871.2953,-398.6684 861.001,-396.1628 867.486,-404.5412 871.2953,-398.6684"/>
</g>
<!-- InformationFlow -->
<g id="node5" class="node">
<title>InformationFlow</title>
<g id="a_node5"><a xlink:href="InformationFlow.ipynb" xlink:title="InformationFlow">
<polygon fill="#ffffff" stroke="#000000" points="1149.5,-396 972.5,-396 972.5,-360 1155.5,-360 1155.5,-390 1149.5,-396"/>
<polyline fill="none" stroke="#000000" points="1149.5,-396 1149.5,-390 "/>
<polyline fill="none" stroke="#000000" points="1155.5,-390 1149.5,-390 "/>
<text text-anchor="middle" x="1064" y="-374.3" font-family="Patua One" font-size="14.00" fill="#b03a2e">Tracking Information Flow</text>
</a>
</g>
</g>
<!-- Fuzzer&#45;&gt;InformationFlow -->
<g id="edge4" class="edge">
<title>Fuzzer&#45;&gt;InformationFlow</title>
<path fill="none" stroke="#000000" d="M974.2811,-431.8314C989.6298,-422.6221 1008.4498,-411.3301 1024.8823,-401.4706"/>
<polygon fill="#000000" stroke="#000000" points="1026.9544,-404.3091 1033.7286,-396.1628 1023.3529,-398.3066 1026.9544,-404.3091"/>
</g>
<!-- FuzzingInTheLarge -->
<g id="node6" class="node">
<title>FuzzingInTheLarge</title>
<g id="a_node6"><a xlink:href="FuzzingInTheLarge.ipynb" xlink:title="FuzzingInTheLarge">
<polygon fill="#ffffff" stroke="#000000" points="1394,-396 1174,-396 1174,-360 1400,-360 1400,-390 1394,-396"/>
<polyline fill="none" stroke="#000000" points="1394,-396 1394,-390 "/>
<polyline fill="none" stroke="#000000" points="1400,-390 1394,-390 "/>
<text text-anchor="middle" x="1287" y="-374.3" font-family="Patua One" font-size="14.00" fill="#b03a2e">Practical Steps with FuzzManager</text>
</a>
</g>
</g>
<!-- Fuzzer&#45;&gt;FuzzingInTheLarge -->
<g id="edge5" class="edge">
<title>Fuzzer&#45;&gt;FuzzingInTheLarge</title>
<path fill="none" stroke="#000000" d="M1030.1106,-431.9243C1079.1325,-421.634 1140.6511,-408.7205 1191.1958,-398.1105"/>
<polygon fill="#000000" stroke="#000000" points="1192.0838,-401.5005 1201.1515,-396.0207 1190.6457,-394.6498 1192.0838,-401.5005"/>
</g>
<!-- MutationFuzzer -->
<g id="node8" class="node">
<title>MutationFuzzer</title>
<g id="a_node8"><a xlink:href="MutationFuzzer.ipynb" xlink:title="MutationFuzzer">
<polygon fill="#ffffff" stroke="#000000" points="345.5,-252 182.5,-252 182.5,-216 351.5,-216 351.5,-246 345.5,-252"/>
<polyline fill="none" stroke="#000000" points="345.5,-252 345.5,-246 "/>
<polyline fill="none" stroke="#000000" points="351.5,-246 345.5,-246 "/>
<text text-anchor="middle" x="267" y="-230.3" font-family="Patua One" font-size="14.00" fill="#b03a2e">Mutation&#45;Based Fuzzing</text>
</a>
</g>
</g>
<!-- Coverage&#45;&gt;MutationFuzzer -->
<g id="edge7" class="edge">
<title>Coverage&#45;&gt;MutationFuzzer</title>
<path fill="none" stroke="#000000" d="M336.5322,-287.8314C324.9673,-278.8779 310.8596,-267.9558 298.3817,-258.2955"/>
<polygon fill="#000000" stroke="#000000" points="300.5102,-255.5171 290.4603,-252.1628 296.225,-261.0521 300.5102,-255.5171"/>
</g>
<!-- GrammarCoverageFuzzer -->
<g id="node9" class="node">
<title>GrammarCoverageFuzzer</title>
<g id="a_node9"><a xlink:href="GrammarCoverageFuzzer.ipynb" xlink:title="GrammarCoverageFuzzer">
<polygon fill="#ffffff" stroke="#000000" points="808.5,-252 679.5,-252 679.5,-216 814.5,-216 814.5,-246 808.5,-252"/>
<polyline fill="none" stroke="#000000" points="808.5,-252 808.5,-246 "/>
<polyline fill="none" stroke="#000000" points="814.5,-246 808.5,-246 "/>
<text text-anchor="middle" x="747" y="-230.3" font-family="Patua One" font-size="14.00" fill="#b03a2e">Grammar Coverage</text>
</a>
</g>
</g>
<!-- Coverage&#45;&gt;GrammarCoverageFuzzer -->
<g id="edge8" class="edge">
<title>Coverage&#45;&gt;GrammarCoverageFuzzer</title>
<path fill="none" stroke="#000000" d="M421.6598,-296.3253C482.1551,-286.5922 577.2436,-270.6525 669.3834,-252.0653"/>
<polygon fill="#000000" stroke="#000000" points="670.3382,-255.443 679.4418,-250.0232 668.9454,-248.583 670.3382,-255.443"/>
</g>
<!-- ProbabilisticGrammarFuzzer -->
<g id="node10" class="node">
<title>ProbabilisticGrammarFuzzer</title>
<g id="a_node10"><a xlink:href="ProbabilisticGrammarFuzzer.ipynb" xlink:title="ProbabilisticGrammarFuzzer">
<polygon fill="#ffffff" stroke="#000000" points="348,-180 146,-180 146,-144 354,-144 354,-174 348,-180"/>
<polyline fill="none" stroke="#000000" points="348,-180 348,-174 "/>
<polyline fill="none" stroke="#000000" points="354,-174 348,-174 "/>
<text text-anchor="middle" x="250" y="-158.3" font-family="Patua One" font-size="14.00" fill="#b03a2e">Probabilistic Grammar Fuzzing</text>
</a>
</g>
</g>
<!-- Coverage&#45;&gt;ProbabilisticGrammarFuzzer -->
<g id="edge9" class="edge">
<title>Coverage&#45;&gt;ProbabilisticGrammarFuzzer</title>
<path fill="none" stroke="#000000" d="M298.2033,-296.3103C249.8165,-287.3129 188.2334,-272.2547 173,-252 163.3829,-239.2128 165.6172,-230.1949 173,-216 179.3639,-203.7642 189.9112,-193.7239 201.1885,-185.7624"/>
<polygon fill="#000000" stroke="#000000" points="203.4367,-188.4745 209.8973,-180.0774 199.6103,-182.6129 203.4367,-188.4745"/>
</g>
<!-- GrammarMiner -->
<g id="node11" class="node">
<title>GrammarMiner</title>
<g id="a_node11"><a xlink:href="GrammarMiner.ipynb" xlink:title="GrammarMiner">
<polygon fill="#ffffff" stroke="#000000" points="530.5,-252 369.5,-252 369.5,-216 536.5,-216 536.5,-246 530.5,-252"/>
<polyline fill="none" stroke="#000000" points="530.5,-252 530.5,-246 "/>
<polyline fill="none" stroke="#000000" points="536.5,-246 530.5,-246 "/>
<text text-anchor="middle" x="453" y="-230.3" font-family="Patua One" font-size="14.00" fill="#b03a2e">Mining Input Grammars</text>
</a>
</g>
</g>
<!-- Coverage&#45;&gt;GrammarMiner -->
<g id="edge10" class="edge">
<title>Coverage&#45;&gt;GrammarMiner</title>
<path fill="none" stroke="#000000" d="M383.4678,-287.8314C395.0327,-278.8779 409.1404,-267.9558 421.6183,-258.2955"/>
<polygon fill="#000000" stroke="#000000" points="423.775,-261.0521 429.5397,-252.1628 419.4898,-255.5171 423.775,-261.0521"/>
</g>
<!-- SymbolicFuzzer -->
<g id="node12" class="node">
<title>SymbolicFuzzer</title>
<g id="a_node12"><a xlink:href="SymbolicFuzzer.ipynb" xlink:title="SymbolicFuzzer">
<polygon fill="#ffffff" stroke="#000000" points="120,-252 0,-252 0,-216 126,-216 126,-246 120,-252"/>
<polyline fill="none" stroke="#000000" points="120,-252 120,-246 "/>
<polyline fill="none" stroke="#000000" points="126,-246 120,-246 "/>
<text text-anchor="middle" x="63" y="-230.3" font-family="Patua One" font-size="14.00" fill="#b03a2e">Symbolic Fuzzing</text>
</a>
</g>
</g>
<!-- Coverage&#45;&gt;SymbolicFuzzer -->
<g id="edge11" class="edge">
<title>Coverage&#45;&gt;SymbolicFuzzer</title>
<path fill="none" stroke="#000000" d="M298.4614,-291.0816C251.2322,-279.632 185.8832,-263.7899 136.0099,-251.6994"/>
<polygon fill="#000000" stroke="#000000" points="136.7947,-248.2883 126.2516,-249.3337 135.1455,-255.0913 136.7947,-248.2883"/>
</g>
<!-- EvoGrammarFuzzer -->
<g id="node13" class="node">
<title>EvoGrammarFuzzer</title>
<g id="a_node13"><a xlink:href="EvoGrammarFuzzer.ipynb" xlink:title="EvoGrammarFuzzer">
<polygon fill="#ffffff" stroke="#000000" points="1273.5,-108 1068.5,-108 1068.5,-72 1279.5,-72 1279.5,-102 1273.5,-108"/>
<polyline fill="none" stroke="#000000" points="1273.5,-108 1273.5,-102 "/>
<polyline fill="none" stroke="#000000" points="1279.5,-102 1273.5,-102 "/>
<text text-anchor="middle" x="1174" y="-86.3" font-family="Patua One" font-size="14.00" fill="#b03a2e">Evolutionary Grammar Fuzzing</text>
</a>
</g>
</g>
<!-- SearchBasedFuzzer&#45;&gt;EvoGrammarFuzzer -->
<g id="edge12" class="edge">
<title>SearchBasedFuzzer&#45;&gt;EvoGrammarFuzzer</title>
<path fill="none" stroke="#000000" d="M1258.4603,-287.8399C1273.8885,-279.4057 1289.2717,-267.6906 1298,-252 1305.778,-238.0178 1304.0638,-230.8064 1298,-216 1280.2977,-172.7748 1239.8184,-136.4123 1209.9002,-114.0297"/>
<polygon fill="#000000" stroke="#000000" points="1211.9099,-111.1634 1201.7696,-108.0933 1207.7821,-116.8169 1211.9099,-111.1634"/>
</g>
<!-- GrammarFuzzer -->
<g id="node14" class="node">
<title>GrammarFuzzer</title>
<g id="a_node14"><a xlink:href="GrammarFuzzer.ipynb" xlink:title="GrammarFuzzer">
<polygon fill="#ffffff" stroke="#000000" points="918.5,-324 741.5,-324 741.5,-288 924.5,-288 924.5,-318 918.5,-324"/>
<polyline fill="none" stroke="#000000" points="918.5,-324 918.5,-318 "/>
<polyline fill="none" stroke="#000000" points="924.5,-318 918.5,-318 "/>
<text text-anchor="middle" x="833" y="-302.3" font-family="Patua One" font-size="14.00" fill="#b03a2e">Efficient Grammar Fuzzing</text>
</a>
</g>
</g>
<!-- Grammars&#45;&gt;GrammarFuzzer -->
<g id="edge13" class="edge">
<title>Grammars&#45;&gt;GrammarFuzzer</title>
<path fill="none" stroke="#000000" d="M833,-359.8314C833,-352.131 833,-342.9743 833,-334.4166"/>
<polygon fill="#000000" stroke="#000000" points="836.5001,-334.4132 833,-324.4133 829.5001,-334.4133 836.5001,-334.4132"/>
</g>
<!-- Intro_Testing -->
<g id="node7" class="node">
<title>Intro_Testing</title>
<g id="a_node7"><a xlink:href="Intro_Testing.ipynb" xlink:title="Intro_Testing">
<polygon fill="#ffffff" stroke="#000000" points="1047.5,-540 834.5,-540 834.5,-504 1053.5,-504 1053.5,-534 1047.5,-540"/>
<polyline fill="none" stroke="#000000" points="1047.5,-540 1047.5,-534 "/>
<polyline fill="none" stroke="#000000" points="1053.5,-534 1047.5,-534 "/>
<text text-anchor="middle" x="944" y="-518.3" font-family="Patua One" font-size="14.00" fill="#b03a2e">Introduction to Software Testing</text>
</a>
</g>
</g>
<!-- Intro_Testing&#45;&gt;Fuzzer -->
<g id="edge6" class="edge">
<title>Intro_Testing&#45;&gt;Fuzzer</title>
<path fill="none" stroke="#000000" d="M944,-503.8314C944,-496.131 944,-486.9743 944,-478.4166"/>
<polygon fill="#000000" stroke="#000000" points="947.5001,-478.4132 944,-468.4133 940.5001,-478.4133 947.5001,-478.4132"/>
</g>
<!-- ConfigurationFuzzer -->
<g id="node19" class="node">
<title>ConfigurationFuzzer</title>
<g id="a_node19"><a xlink:href="ConfigurationFuzzer.ipynb" xlink:title="ConfigurationFuzzer">
<polygon fill="#ffffff" stroke="#000000" points="747.5,-180 594.5,-180 594.5,-144 753.5,-144 753.5,-174 747.5,-180"/>
<polyline fill="none" stroke="#000000" points="747.5,-180 747.5,-174 "/>
<polyline fill="none" stroke="#000000" points="753.5,-174 747.5,-174 "/>
<text text-anchor="middle" x="674" y="-158.3" font-family="Patua One" font-size="14.00" fill="#b03a2e">Testing Configurations</text>
</a>
</g>
</g>
<!-- GrammarCoverageFuzzer&#45;&gt;ConfigurationFuzzer -->
<g id="edge20" class="edge">
<title>GrammarCoverageFuzzer&#45;&gt;ConfigurationFuzzer</title>
<path fill="none" stroke="#000000" d="M728.579,-215.8314C719.8471,-207.219 709.2683,-196.7851 699.7577,-187.4048"/>
<polygon fill="#000000" stroke="#000000" points="701.9925,-184.6931 692.4151,-180.1628 697.077,-189.6769 701.9925,-184.6931"/>
</g>
<!-- Carver -->
<g id="node20" class="node">
<title>Carver</title>
<g id="a_node20"><a xlink:href="Carver.ipynb" xlink:title="Carver">
<polygon fill="#ffffff" stroke="#000000" points="879.5,-36 754.5,-36 754.5,0 885.5,0 885.5,-30 879.5,-36"/>
<polyline fill="none" stroke="#000000" points="879.5,-36 879.5,-30 "/>
<polyline fill="none" stroke="#000000" points="885.5,-30 879.5,-30 "/>
<text text-anchor="middle" x="820" y="-14.3" font-family="Patua One" font-size="14.00" fill="#b03a2e">Carving Unit Tests</text>
</a>
</g>
</g>
<!-- GrammarCoverageFuzzer&#45;&gt;Carver -->
<g id="edge21" class="edge">
<title>GrammarCoverageFuzzer&#45;&gt;Carver</title>
<path fill="none" stroke="#000000" d="M752.896,-215.9878C762.7209,-186.0471 783.1296,-124.1662 801,-72 803.8851,-63.5779 807.0775,-54.438 810.0089,-46.1139"/>
<polygon fill="#000000" stroke="#000000" points="813.3856,-47.0628 813.4169,-36.468 806.7855,-44.7309 813.3856,-47.0628"/>
</g>
<!-- GUIFuzzer -->
<g id="node21" class="node">
<title>GUIFuzzer</title>
<g id="a_node21"><a xlink:href="GUIFuzzer.ipynb" xlink:title="GUIFuzzer">
<polygon fill="#ffffff" stroke="#000000" points="1024,-180 810,-180 810,-144 1030,-144 1030,-174 1024,-180"/>
<polyline fill="none" stroke="#000000" points="1024,-180 1024,-174 "/>
<polyline fill="none" stroke="#000000" points="1030,-174 1024,-174 "/>
<text text-anchor="middle" x="920" y="-158.3" font-family="Patua One" font-size="14.00" fill="#b03a2e">Testing Graphical User Interfaces</text>
</a>
</g>
</g>
<!-- GrammarCoverageFuzzer&#45;&gt;GUIFuzzer -->
<g id="edge22" class="edge">
<title>GrammarCoverageFuzzer&#45;&gt;GUIFuzzer</title>
<path fill="none" stroke="#000000" d="M790.6552,-215.8314C813.8958,-206.159 842.6568,-194.1891 867.1523,-183.9944"/>
<polygon fill="#000000" stroke="#000000" points="868.7712,-187.1117 876.6587,-180.038 866.0815,-180.6491 868.7712,-187.1117"/>
</g>
<!-- APIFuzzer -->
<g id="node23" class="node">
<title>APIFuzzer</title>
<g id="a_node23"><a xlink:href="APIFuzzer.ipynb" xlink:title="APIFuzzer">
<polygon fill="#ffffff" stroke="#000000" points="901.5,-108 810.5,-108 810.5,-72 907.5,-72 907.5,-102 901.5,-108"/>
<polyline fill="none" stroke="#000000" points="901.5,-108 901.5,-102 "/>
<polyline fill="none" stroke="#000000" points="907.5,-102 901.5,-102 "/>
<text text-anchor="middle" x="859" y="-86.3" font-family="Patua One" font-size="14.00" fill="#b03a2e">Fuzzing APIs</text>
</a>
</g>
</g>
<!-- ProbabilisticGrammarFuzzer&#45;&gt;APIFuzzer -->
<g id="edge26" class="edge">
<title>ProbabilisticGrammarFuzzer&#45;&gt;APIFuzzer</title>
<path fill="none" stroke="#000000" d="M354.0293,-145.2303C357.0513,-144.8069 360.0466,-144.3958 363,-144 520.6397,-122.8766 707.3123,-104.2745 800.272,-95.4438"/>
<polygon fill="#000000" stroke="#000000" points="800.6992,-98.9191 810.3249,-94.4922 800.0395,-91.9502 800.6992,-98.9191"/>
</g>
<!-- GrammarFuzzer&#45;&gt;GrammarCoverageFuzzer -->
<g id="edge14" class="edge">
<title>GrammarFuzzer&#45;&gt;GrammarCoverageFuzzer</title>
<path fill="none" stroke="#000000" d="M811.2986,-287.8314C800.8079,-279.0485 788.0545,-268.3712 776.6806,-258.8489"/>
<polygon fill="#000000" stroke="#000000" points="778.6089,-255.8986 768.6945,-252.1628 774.1153,-261.2659 778.6089,-255.8986"/>
</g>
<!-- GrammarFuzzer&#45;&gt;GrammarMiner -->
<g id="edge18" class="edge">
<title>GrammarFuzzer&#45;&gt;GrammarMiner</title>
<path fill="none" stroke="#000000" d="M741.1995,-288.9777C687.1557,-278.9114 617.1927,-265.8025 546.6828,-252.3164"/>
<polygon fill="#000000" stroke="#000000" points="547.2113,-248.8541 536.7315,-250.4112 545.895,-255.7292 547.2113,-248.8541"/>
</g>
<!-- Parser -->
<g id="node15" class="node">
<title>Parser</title>
<g id="a_node15"><a xlink:href="Parser.ipynb" xlink:title="Parser">
<polygon fill="#ffffff" stroke="#000000" points="655.5,-252 554.5,-252 554.5,-216 661.5,-216 661.5,-246 655.5,-252"/>
<polyline fill="none" stroke="#000000" points="655.5,-252 655.5,-246 "/>
<polyline fill="none" stroke="#000000" points="661.5,-246 655.5,-246 "/>
<text text-anchor="middle" x="608" y="-230.3" font-family="Patua One" font-size="14.00" fill="#b03a2e">Parsing Inputs</text>
</a>
</g>
</g>
<!-- GrammarFuzzer&#45;&gt;Parser -->
<g id="edge15" class="edge">
<title>GrammarFuzzer&#45;&gt;Parser</title>
<path fill="none" stroke="#000000" d="M776.5134,-287.9243C744.5241,-277.6877 704.4224,-264.8552 671.3649,-254.2768"/>
<polygon fill="#000000" stroke="#000000" points="672.3869,-250.929 661.7959,-251.2147 670.2534,-257.596 672.3869,-250.929"/>
</g>
<!-- GeneratorGrammarFuzzer -->
<g id="node16" class="node">
<title>GeneratorGrammarFuzzer</title>
<g id="a_node16"><a xlink:href="GeneratorGrammarFuzzer.ipynb" xlink:title="GeneratorGrammarFuzzer">
<polygon fill="#ffffff" stroke="#000000" points="1210,-180 1048,-180 1048,-144 1216,-144 1216,-174 1210,-180"/>
<polyline fill="none" stroke="#000000" points="1210,-180 1210,-174 "/>
<polyline fill="none" stroke="#000000" points="1216,-174 1210,-174 "/>
<text text-anchor="middle" x="1132" y="-158.3" font-family="Patua One" font-size="14.00" fill="#b03a2e">Fuzzing with Generators</text>
</a>
</g>
</g>
<!-- GrammarFuzzer&#45;&gt;GeneratorGrammarFuzzer -->
<g id="edge16" class="edge">
<title>GrammarFuzzer&#45;&gt;GeneratorGrammarFuzzer</title>
<path fill="none" stroke="#000000" d="M923.8152,-287.9913C954.3319,-279.691 987.7669,-268.0223 1016,-252 1036.5157,-240.3574 1036.6357,-230.8053 1055,-216 1067.9298,-205.576 1082.7412,-194.9103 1095.8976,-185.8407"/>
<polygon fill="#000000" stroke="#000000" points="1097.98,-188.657 1104.2678,-180.1298 1094.0347,-182.8747 1097.98,-188.657"/>
</g>
<!-- Reducer -->
<g id="node17" class="node">
<title>Reducer</title>
<g id="a_node17"><a xlink:href="Reducer.ipynb" xlink:title="Reducer">
<polygon fill="#ffffff" stroke="#000000" points="1282.5,-252 1063.5,-252 1063.5,-216 1288.5,-216 1288.5,-246 1282.5,-252"/>
<polyline fill="none" stroke="#000000" points="1282.5,-252 1282.5,-246 "/>
<polyline fill="none" stroke="#000000" points="1288.5,-246 1282.5,-246 "/>
<text text-anchor="middle" x="1176" y="-230.3" font-family="Patua One" font-size="14.00" fill="#b03a2e">Reducing Failure&#45;Inducing Inputs</text>
</a>
</g>
</g>
<!-- GrammarFuzzer&#45;&gt;Reducer -->
<g id="edge17" class="edge">
<title>GrammarFuzzer&#45;&gt;Reducer</title>
<path fill="none" stroke="#000000" d="M919.1106,-287.9243C968.1325,-277.634 1029.6511,-264.7205 1080.1958,-254.1105"/>
<polygon fill="#000000" stroke="#000000" points="1081.0838,-257.5005 1090.1515,-252.0207 1079.6457,-250.6498 1081.0838,-257.5005"/>
</g>
<!-- WebFuzzer -->
<g id="node18" class="node">
<title>WebFuzzer</title>
<g id="a_node18"><a xlink:href="WebFuzzer.ipynb" xlink:title="WebFuzzer">
<polygon fill="#ffffff" stroke="#000000" points="1001,-252 833,-252 833,-216 1007,-216 1007,-246 1001,-252"/>
<polyline fill="none" stroke="#000000" points="1001,-252 1001,-246 "/>
<polyline fill="none" stroke="#000000" points="1007,-246 1001,-246 "/>
<text text-anchor="middle" x="920" y="-230.3" font-family="Patua One" font-size="14.00" fill="#b03a2e">Testing Web Applications</text>
</a>
</g>
</g>
<!-- GrammarFuzzer&#45;&gt;WebFuzzer -->
<g id="edge19" class="edge">
<title>GrammarFuzzer&#45;&gt;WebFuzzer</title>
<path fill="none" stroke="#000000" d="M854.9538,-287.8314C865.6695,-278.9632 878.7189,-268.1637 890.309,-258.5718"/>
<polygon fill="#000000" stroke="#000000" points="892.5808,-261.2349 898.0533,-252.1628 888.1178,-255.8422 892.5808,-261.2349"/>
</g>
<!-- Parser&#45;&gt;ProbabilisticGrammarFuzzer -->
<g id="edge24" class="edge">
<title>Parser&#45;&gt;ProbabilisticGrammarFuzzer</title>
<path fill="none" stroke="#000000" d="M554.4764,-218.3244C551.2781,-217.5069 548.1014,-216.7251 545,-216 485.8168,-202.1631 419.2685,-189.717 364.378,-180.2705"/>
<polygon fill="#000000" stroke="#000000" points="364.7157,-176.7775 354.2688,-178.5418 363.5358,-183.6773 364.7157,-176.7775"/>
</g>
<!-- LangFuzzer -->
<g id="node22" class="node">
<title>LangFuzzer</title>
<g id="a_node22"><a xlink:href="LangFuzzer.ipynb" xlink:title="LangFuzzer">
<polygon fill="#ffffff" stroke="#000000" points="570,-180 372,-180 372,-144 576,-144 576,-174 570,-180"/>
<polyline fill="none" stroke="#000000" points="570,-180 570,-174 "/>
<polyline fill="none" stroke="#000000" points="576,-174 570,-174 "/>
<text text-anchor="middle" x="474" y="-158.3" font-family="Patua One" font-size="14.00" fill="#b03a2e">Fuzzing with Input Fragments</text>
</a>
</g>
</g>
<!-- Parser&#45;&gt;LangFuzzer -->
<g id="edge23" class="edge">
<title>Parser&#45;&gt;LangFuzzer</title>
<path fill="none" stroke="#000000" d="M574.1861,-215.8314C556.7293,-206.4516 535.2513,-194.9112 516.6648,-184.9244"/>
<polygon fill="#000000" stroke="#000000" points="518.2686,-181.8129 507.803,-180.1628 514.9554,-187.9792 518.2686,-181.8129"/>
</g>
<!-- GeneratorGrammarFuzzer&#45;&gt;APIFuzzer -->
<g id="edge27" class="edge">
<title>GeneratorGrammarFuzzer&#45;&gt;APIFuzzer</title>
<path fill="none" stroke="#000000" d="M1063.463,-143.9243C1018.4779,-132.0601 960.2711,-116.7089 917.473,-105.4214"/>
<polygon fill="#000000" stroke="#000000" points="918.3277,-102.0272 907.7657,-102.8613 916.5425,-108.7958 918.3277,-102.0272"/>
</g>
<!-- WebFuzzer&#45;&gt;GUIFuzzer -->
<g id="edge29" class="edge">
<title>WebFuzzer&#45;&gt;GUIFuzzer</title>
<path fill="none" stroke="#000000" d="M920,-215.8314C920,-208.131 920,-198.9743 920,-190.4166"/>
<polygon fill="#000000" stroke="#000000" points="923.5001,-190.4132 920,-180.4133 916.5001,-190.4133 923.5001,-190.4132"/>
</g>
<!-- LangFuzzer&#45;&gt;EvoGrammarFuzzer -->
<g id="edge25" class="edge">
<title>LangFuzzer&#45;&gt;EvoGrammarFuzzer</title>
<path fill="none" stroke="#000000" d="M576.1774,-145.1573C579.1491,-144.7552 582.0949,-144.3683 585,-144 748.8211,-123.233 939.2475,-107.248 1058.209,-98.2319"/>
<polygon fill="#000000" stroke="#000000" points="1058.7177,-101.7035 1068.4261,-97.4613 1058.1912,-94.7234 1058.7177,-101.7035"/>
</g>
<!-- APIFuzzer&#45;&gt;Carver -->
<g id="edge28" class="edge">
<title>APIFuzzer&#45;&gt;Carver</title>
<path fill="none" stroke="#000000" d="M849.1587,-71.8314C844.8043,-63.7925 839.5902,-54.1666 834.7831,-45.2918"/>
<polygon fill="#000000" stroke="#000000" points="837.8143,-43.5392 829.9739,-36.4133 831.6592,-46.8732 837.8143,-43.5392"/>
</g>
</g>
</svg>
