<?xml version="1.0" encoding="UTF-8" standalone="no"?>
<!DOCTYPE svg PUBLIC "-//W3C//DTD SVG 1.1//EN"
 "http://www.w3.org/Graphics/SVG/1.1/DTD/svg11.dtd">
<!-- Generated by graphviz version 2.40.1 (20161225.0304)
 -->
<!-- Title: %3 Pages: 1 -->
<svg width="1773pt" height="548pt"
 viewBox="0.00 0.00 1773.00 548.00" xmlns="http://www.w3.org/2000/svg" xmlns:xlink="http://www.w3.org/1999/xlink">
<g id="graph0" class="graph" transform="scale(1 1) rotate(0) translate(4 544)">
<title>%3</title>
<polygon fill="#ffffff" stroke="transparent" points="-4,4 -4,-544 1769,-544 1769,4 -4,4"/>
<!-- Fuzzer -->
<g id="node1" class="node">
<title>Fuzzer</title>
<g id="a_node1"><a xlink:href="Fuzzer.ipynb" xlink:title="Fuzzer">
<polygon fill="#ffffff" stroke="#000000" points="1280.5,-468 982.5,-468 982.5,-432 1286.5,-432 1286.5,-462 1280.5,-468"/>
<polyline fill="none" stroke="#000000" points="1280.5,-468 1280.5,-462 "/>
<polyline fill="none" stroke="#000000" points="1286.5,-462 1280.5,-462 "/>
<text text-anchor="middle" x="1134.5" y="-446.3" font-family="Patua One" font-size="14.00" fill="#b03a2e">Fuzzing: Breaking Things with Random Inputs</text>
</a>
</g>
</g>
<!-- Coverage -->
<g id="node2" class="node">
<title>Coverage</title>
<g id="a_node2"><a xlink:href="Coverage.ipynb" xlink:title="Coverage">
<polygon fill="#ffffff" stroke="#000000" points="628,-324 511,-324 511,-288 634,-288 634,-318 628,-324"/>
<polyline fill="none" stroke="#000000" points="628,-324 628,-318 "/>
<polyline fill="none" stroke="#000000" points="634,-318 628,-318 "/>
<text text-anchor="middle" x="572.5" y="-302.3" font-family="Patua One" font-size="14.00" fill="#b03a2e">Getting Coverage</text>
</a>
</g>
</g>
<!-- Fuzzer&#45;&gt;Coverage -->
<g id="edge1" class="edge">
<title>Fuzzer&#45;&gt;Coverage</title>
<path fill="none" stroke="#000000" d="M1064.1752,-431.9808C956.6426,-404.428 752.4553,-352.1095 644.1404,-324.3563"/>
<polygon fill="#000000" stroke="#000000" points="644.8381,-320.922 634.2822,-321.8303 643.1005,-327.703 644.8381,-320.922"/>
</g>
<!-- SearchBasedFuzzer -->
<g id="node3" class="node">
<title>SearchBasedFuzzer</title>
<g id="a_node3"><a xlink:href="SearchBasedFuzzer.ipynb" xlink:title="SearchBasedFuzzer">
<polygon fill="#ffffff" stroke="#000000" points="1615.5,-324 1469.5,-324 1469.5,-288 1621.5,-288 1621.5,-318 1615.5,-324"/>
<polyline fill="none" stroke="#000000" points="1615.5,-324 1615.5,-318 "/>
<polyline fill="none" stroke="#000000" points="1621.5,-318 1615.5,-318 "/>
<text text-anchor="middle" x="1545.5" y="-302.3" font-family="Patua One" font-size="14.00" fill="#b03a2e">Search&#45;Based Fuzzing</text>
</a>
</g>
</g>
<!-- Fuzzer&#45;&gt;SearchBasedFuzzer -->
<g id="edge2" class="edge">
<title>Fuzzer&#45;&gt;SearchBasedFuzzer</title>
<path fill="none" stroke="#000000" d="M1147.3385,-431.721C1164.3301,-408.0751 1193.947,-368.8577 1209.5,-360 1251.0024,-336.3636 1374.0998,-321.0441 1459.1753,-312.9639"/>
<polygon fill="#000000" stroke="#000000" points="1459.7222,-316.4282 1469.3538,-312.0144 1459.0719,-309.4585 1459.7222,-316.4282"/>
</g>
<!-- Grammars -->
<g id="node4" class="node">
<title>Grammars</title>
<g id="a_node4"><a xlink:href="Grammars.ipynb" xlink:title="Grammars">
<polygon fill="#ffffff" stroke="#000000" points="1156,-396 997,-396 997,-360 1162,-360 1162,-390 1156,-396"/>
<polyline fill="none" stroke="#000000" points="1156,-396 1156,-390 "/>
<polyline fill="none" stroke="#000000" points="1162,-390 1156,-390 "/>
<text text-anchor="middle" x="1079.5" y="-374.3" font-family="Patua One" font-size="14.00" fill="#b03a2e">Fuzzing with Grammars</text>
</a>
</g>
</g>
<!-- Fuzzer&#45;&gt;Grammars -->
<g id="edge3" class="edge">
<title>Fuzzer&#45;&gt;Grammars</title>
<path fill="none" stroke="#000000" d="M1120.6212,-431.8314C1114.2864,-423.5386 1106.6616,-413.557 1099.7074,-404.4533"/>
<polygon fill="#000000" stroke="#000000" points="1102.4175,-402.2353 1093.5657,-396.4133 1096.8548,-406.4847 1102.4175,-402.2353"/>
</g>
<!-- FuzzingInTheLarge -->
<g id="node5" class="node">
<title>FuzzingInTheLarge</title>
<g id="a_node5"><a xlink:href="FuzzingInTheLarge.ipynb" xlink:title="FuzzingInTheLarge">
<polygon fill="#ffffff" stroke="#000000" points="1438.5,-396 1218.5,-396 1218.5,-360 1444.5,-360 1444.5,-390 1438.5,-396"/>
<polyline fill="none" stroke="#000000" points="1438.5,-396 1438.5,-390 "/>
<polyline fill="none" stroke="#000000" points="1444.5,-390 1438.5,-390 "/>
<text text-anchor="middle" x="1331.5" y="-374.3" font-family="Patua One" font-size="14.00" fill="#b03a2e">Practical Steps with FuzzManager</text>
</a>
</g>
</g>
<!-- Fuzzer&#45;&gt;FuzzingInTheLarge -->
<g id="edge4" class="edge">
<title>Fuzzer&#45;&gt;FuzzingInTheLarge</title>
<path fill="none" stroke="#000000" d="M1183.9571,-431.9243C1210.7711,-422.1243 1244.0949,-409.945 1272.2847,-399.6422"/>
<polygon fill="#000000" stroke="#000000" points="1273.8316,-402.8033 1282.0225,-396.0831 1271.4287,-396.2286 1273.8316,-402.8033"/>
</g>
<!-- MutationFuzzer -->
<g id="node7" class="node">
<title>MutationFuzzer</title>
<g id="a_node7"><a xlink:href="MutationFuzzer.ipynb" xlink:title="MutationFuzzer">
<polygon fill="#ffffff" stroke="#000000" points="163,-252 0,-252 0,-216 169,-216 169,-246 163,-252"/>
<polyline fill="none" stroke="#000000" points="163,-252 163,-246 "/>
<polyline fill="none" stroke="#000000" points="169,-246 163,-246 "/>
<text text-anchor="middle" x="84.5" y="-230.3" font-family="Patua One" font-size="14.00" fill="#b03a2e">Mutation&#45;Based Fuzzing</text>
</a>
</g>
</g>
<!-- Coverage&#45;&gt;MutationFuzzer -->
<g id="edge6" class="edge">
<title>Coverage&#45;&gt;MutationFuzzer</title>
<path fill="none" stroke="#000000" d="M510.9275,-298.5868C435.308,-289.2531 302.8976,-272.1674 179.0546,-252.0439"/>
<polygon fill="#000000" stroke="#000000" points="179.447,-248.5616 169.0133,-250.4024 178.3176,-255.4699 179.447,-248.5616"/>
</g>
<!-- GrammarCoverageFuzzer -->
<g id="node8" class="node">
<title>GrammarCoverageFuzzer</title>
<g id="a_node8"><a xlink:href="GrammarCoverageFuzzer.ipynb" xlink:title="GrammarCoverageFuzzer">
<polygon fill="#ffffff" stroke="#000000" points="634,-252 505,-252 505,-216 640,-216 640,-246 634,-252"/>
<polyline fill="none" stroke="#000000" points="634,-252 634,-246 "/>
<polyline fill="none" stroke="#000000" points="640,-246 634,-246 "/>
<text text-anchor="middle" x="572.5" y="-230.3" font-family="Patua One" font-size="14.00" fill="#b03a2e">Grammar Coverage</text>
</a>
</g>
</g>
<!-- Coverage&#45;&gt;GrammarCoverageFuzzer -->
<g id="edge7" class="edge">
<title>Coverage&#45;&gt;GrammarCoverageFuzzer</title>
<path fill="none" stroke="#000000" d="M572.5,-287.8314C572.5,-280.131 572.5,-270.9743 572.5,-262.4166"/>
<polygon fill="#000000" stroke="#000000" points="576.0001,-262.4132 572.5,-252.4133 569.0001,-262.4133 576.0001,-262.4132"/>
</g>
<!-- ProbabilisticGrammarFuzzer -->
<g id="node9" class="node">
<title>ProbabilisticGrammarFuzzer</title>
<g id="a_node9"><a xlink:href="ProbabilisticGrammarFuzzer.ipynb" xlink:title="ProbabilisticGrammarFuzzer">
<polygon fill="#ffffff" stroke="#000000" points="1282.5,-180 1080.5,-180 1080.5,-144 1288.5,-144 1288.5,-174 1282.5,-180"/>
<polyline fill="none" stroke="#000000" points="1282.5,-180 1282.5,-174 "/>
<polyline fill="none" stroke="#000000" points="1288.5,-174 1282.5,-174 "/>
<text text-anchor="middle" x="1184.5" y="-158.3" font-family="Patua One" font-size="14.00" fill="#b03a2e">Probabilistic Grammar Fuzzing</text>
</a>
</g>
</g>
<!-- Coverage&#45;&gt;ProbabilisticGrammarFuzzer -->
<g id="edge8" class="edge">
<title>Coverage&#45;&gt;ProbabilisticGrammarFuzzer</title>
<path fill="none" stroke="#000000" d="M634.0194,-297.6838C701.8524,-287.8115 806.0831,-270.3595 841.5,-252 862.1543,-241.2932 858.7246,-226.4698 879.5,-216 888.3109,-211.5597 987.2884,-194.4585 1070.1378,-180.675"/>
<polygon fill="#000000" stroke="#000000" points="1070.8628,-184.1026 1080.1543,-179.0116 1069.716,-177.1972 1070.8628,-184.1026"/>
</g>
<!-- GrammarMiner -->
<g id="node10" class="node">
<title>GrammarMiner</title>
<g id="a_node10"><a xlink:href="GrammarMiner.ipynb" xlink:title="GrammarMiner">
<polygon fill="#ffffff" stroke="#000000" points="1050,-252 889,-252 889,-216 1056,-216 1056,-246 1050,-252"/>
<polyline fill="none" stroke="#000000" points="1050,-252 1050,-246 "/>
<polyline fill="none" stroke="#000000" points="1056,-246 1050,-246 "/>
<text text-anchor="middle" x="972.5" y="-230.3" font-family="Patua One" font-size="14.00" fill="#b03a2e">Mining Input Grammars</text>
</a>
</g>
</g>
<!-- Coverage&#45;&gt;GrammarMiner -->
<g id="edge9" class="edge">
<title>Coverage&#45;&gt;GrammarMiner</title>
<path fill="none" stroke="#000000" d="M634.1144,-295.0704C695.1562,-284.2218 791.3018,-267.0788 874.5,-252 875.9628,-251.7349 877.4377,-251.4673 878.9225,-251.1977"/>
<polygon fill="#000000" stroke="#000000" points="879.6252,-254.6274 888.8372,-249.3939 878.3722,-247.7404 879.6252,-254.6274"/>
</g>
<!-- SymbolicFuzzer -->
<g id="node11" class="node">
<title>SymbolicFuzzer</title>
<g id="a_node11"><a xlink:href="SymbolicFuzzer.ipynb" xlink:title="SymbolicFuzzer">
<polygon fill="#ffffff" stroke="#000000" points="307.5,-252 187.5,-252 187.5,-216 313.5,-216 313.5,-246 307.5,-252"/>
<polyline fill="none" stroke="#000000" points="307.5,-252 307.5,-246 "/>
<polyline fill="none" stroke="#000000" points="313.5,-246 307.5,-246 "/>
<text text-anchor="middle" x="250.5" y="-230.3" font-family="Patua One" font-size="14.00" fill="#b03a2e">Symbolic Fuzzing</text>
</a>
</g>
</g>
<!-- Coverage&#45;&gt;SymbolicFuzzer -->
<g id="edge10" class="edge">
<title>Coverage&#45;&gt;SymbolicFuzzer</title>
<path fill="none" stroke="#000000" d="M510.9891,-293.2907C462.5857,-283.1574 393.1869,-268.3384 323.5184,-252.2044"/>
<polygon fill="#000000" stroke="#000000" points="324.221,-248.7745 313.6882,-249.9194 322.6361,-255.5927 324.221,-248.7745"/>
</g>
<!-- WhenToStopFuzzing -->
<g id="node12" class="node">
<title>WhenToStopFuzzing</title>
<g id="a_node12"><a xlink:href="WhenToStopFuzzing.ipynb" xlink:title="WhenToStopFuzzing">
<polygon fill="#ffffff" stroke="#000000" points="481,-252 332,-252 332,-216 487,-216 487,-246 481,-252"/>
<polyline fill="none" stroke="#000000" points="481,-252 481,-246 "/>
<polyline fill="none" stroke="#000000" points="487,-246 481,-246 "/>
<text text-anchor="middle" x="409.5" y="-230.3" font-family="Patua One" font-size="14.00" fill="#b03a2e">When To Stop Fuzzing</text>
</a>
</g>
</g>
<!-- Coverage&#45;&gt;WhenToStopFuzzing -->
<g id="edge11" class="edge">
<title>Coverage&#45;&gt;WhenToStopFuzzing</title>
<path fill="none" stroke="#000000" d="M531.3682,-287.8314C509.5679,-278.2018 482.6122,-266.295 459.5996,-256.1299"/>
<polygon fill="#000000" stroke="#000000" points="460.8976,-252.877 450.336,-252.038 458.0692,-259.2802 460.8976,-252.877"/>
</g>
<!-- EvoGrammarFuzzer -->
<g id="node13" class="node">
<title>EvoGrammarFuzzer</title>
<g id="a_node13"><a xlink:href="EvoGrammarFuzzer.ipynb" xlink:title="EvoGrammarFuzzer">
<polygon fill="#ffffff" stroke="#000000" points="1759,-108 1554,-108 1554,-72 1765,-72 1765,-102 1759,-108"/>
<polyline fill="none" stroke="#000000" points="1759,-108 1759,-102 "/>
<polyline fill="none" stroke="#000000" points="1765,-102 1759,-102 "/>
<text text-anchor="middle" x="1659.5" y="-86.3" font-family="Patua One" font-size="14.00" fill="#b03a2e">Evolutionary Grammar Fuzzing</text>
</a>
</g>
</g>
<!-- SearchBasedFuzzer&#45;&gt;EvoGrammarFuzzer -->
<g id="edge12" class="edge">
<title>SearchBasedFuzzer&#45;&gt;EvoGrammarFuzzer</title>
<path fill="none" stroke="#000000" d="M1584.9792,-287.9806C1623.7687,-267.8445 1680.6443,-231.2116 1705.5,-180 1712.4863,-165.6058 1711.0282,-159.0146 1705.5,-144 1701.695,-133.6656 1694.9356,-123.9621 1687.75,-115.7098"/>
<polygon fill="#000000" stroke="#000000" points="1690.192,-113.1965 1680.8127,-108.2692 1685.0721,-117.9701 1690.192,-113.1965"/>
</g>
<!-- GrammarFuzzer -->
<g id="node14" class="node">
<title>GrammarFuzzer</title>
<g id="a_node14"><a xlink:href="GrammarFuzzer.ipynb" xlink:title="GrammarFuzzer">
<polygon fill="#ffffff" stroke="#000000" points="1165,-324 988,-324 988,-288 1171,-288 1171,-318 1165,-324"/>
<polyline fill="none" stroke="#000000" points="1165,-324 1165,-318 "/>
<polyline fill="none" stroke="#000000" points="1171,-318 1165,-318 "/>
<text text-anchor="middle" x="1079.5" y="-302.3" font-family="Patua One" font-size="14.00" fill="#b03a2e">Efficient Grammar Fuzzing</text>
</a>
</g>
</g>
<!-- Grammars&#45;&gt;GrammarFuzzer -->
<g id="edge13" class="edge">
<title>Grammars&#45;&gt;GrammarFuzzer</title>
<path fill="none" stroke="#000000" d="M1079.5,-359.8314C1079.5,-352.131 1079.5,-342.9743 1079.5,-334.4166"/>
<polygon fill="#000000" stroke="#000000" points="1083.0001,-334.4132 1079.5,-324.4133 1076.0001,-334.4133 1083.0001,-334.4132"/>
</g>
<!-- Intro_Testing -->
<g id="node6" class="node">
<title>Intro_Testing</title>
<g id="a_node6"><a xlink:href="Intro_Testing.ipynb" xlink:title="Intro_Testing">
<polygon fill="#ffffff" stroke="#000000" points="1238,-540 1025,-540 1025,-504 1244,-504 1244,-534 1238,-540"/>
<polyline fill="none" stroke="#000000" points="1238,-540 1238,-534 "/>
<polyline fill="none" stroke="#000000" points="1244,-534 1238,-534 "/>
<text text-anchor="middle" x="1134.5" y="-518.3" font-family="Patua One" font-size="14.00" fill="#b03a2e">Introduction to Software Testing</text>
</a>
</g>
</g>
<!-- Intro_Testing&#45;&gt;Fuzzer -->
<g id="edge5" class="edge">
<title>Intro_Testing&#45;&gt;Fuzzer</title>
<path fill="none" stroke="#000000" d="M1134.5,-503.8314C1134.5,-496.131 1134.5,-486.9743 1134.5,-478.4166"/>
<polygon fill="#000000" stroke="#000000" points="1138.0001,-478.4132 1134.5,-468.4133 1131.0001,-478.4133 1138.0001,-478.4132"/>
</g>
<!-- ConfigurationFuzzer -->
<g id="node19" class="node">
<title>ConfigurationFuzzer</title>
<g id="a_node19"><a xlink:href="ConfigurationFuzzer.ipynb" xlink:title="ConfigurationFuzzer">
<polygon fill="#ffffff" stroke="#000000" points="575,-180 422,-180 422,-144 581,-144 581,-174 575,-180"/>
<polyline fill="none" stroke="#000000" points="575,-180 575,-174 "/>
<polyline fill="none" stroke="#000000" points="581,-174 575,-174 "/>
<text text-anchor="middle" x="501.5" y="-158.3" font-family="Patua One" font-size="14.00" fill="#b03a2e">Testing Configurations</text>
</a>
</g>
</g>
<!-- GrammarCoverageFuzzer&#45;&gt;ConfigurationFuzzer -->
<g id="edge20" class="edge">
<title>GrammarCoverageFuzzer&#45;&gt;ConfigurationFuzzer</title>
<path fill="none" stroke="#000000" d="M554.5837,-215.8314C546.1558,-207.2848 535.959,-196.9443 526.764,-187.6198"/>
<polygon fill="#000000" stroke="#000000" points="529.1711,-185.0761 519.6575,-180.4133 524.1869,-189.9912 529.1711,-185.0761"/>
</g>
<!-- Carver -->
<g id="node20" class="node">
<title>Carver</title>
<g id="a_node20"><a xlink:href="Carver.ipynb" xlink:title="Carver">
<polygon fill="#ffffff" stroke="#000000" points="956,-36 831,-36 831,0 962,0 962,-30 956,-36"/>
<polyline fill="none" stroke="#000000" points="956,-36 956,-30 "/>
<polyline fill="none" stroke="#000000" points="962,-30 956,-30 "/>
<text text-anchor="middle" x="896.5" y="-14.3" font-family="Patua One" font-size="14.00" fill="#b03a2e">Carving Unit Tests</text>
</a>
</g>
</g>
<!-- GrammarCoverageFuzzer&#45;&gt;Carver -->
<g id="edge21" class="edge">
<title>GrammarCoverageFuzzer&#45;&gt;Carver</title>
<path fill="none" stroke="#000000" d="M579.9331,-215.9773C588.9025,-196.1158 605.6717,-164.2999 628.5,-144 685.3394,-93.456 765.9866,-59.2509 823.9424,-39.3802"/>
<polygon fill="#000000" stroke="#000000" points="825.4026,-42.5818 833.764,-36.0751 823.1699,-35.9473 825.4026,-42.5818"/>
</g>
<!-- GUIFuzzer -->
<g id="node21" class="node">
<title>GUIFuzzer</title>
<g id="a_node21"><a xlink:href="GUIFuzzer.ipynb" xlink:title="GUIFuzzer">
<polygon fill="#ffffff" stroke="#000000" points="851.5,-180 637.5,-180 637.5,-144 857.5,-144 857.5,-174 851.5,-180"/>
<polyline fill="none" stroke="#000000" points="851.5,-180 851.5,-174 "/>
<polyline fill="none" stroke="#000000" points="857.5,-174 851.5,-174 "/>
<text text-anchor="middle" x="747.5" y="-158.3" font-family="Patua One" font-size="14.00" fill="#b03a2e">Testing Graphical User Interfaces</text>
</a>
</g>
</g>
<!-- GrammarCoverageFuzzer&#45;&gt;GUIFuzzer -->
<g id="edge22" class="edge">
<title>GrammarCoverageFuzzer&#45;&gt;GUIFuzzer</title>
<path fill="none" stroke="#000000" d="M616.6599,-215.8314C640.2732,-206.1162 669.5202,-194.0831 694.37,-183.8592"/>
<polygon fill="#000000" stroke="#000000" points="695.7415,-187.0797 703.6577,-180.038 693.0781,-180.6061 695.7415,-187.0797"/>
</g>
<!-- APIFuzzer -->
<g id="node24" class="node">
<title>APIFuzzer</title>
<g id="a_node24"><a xlink:href="APIFuzzer.ipynb" xlink:title="APIFuzzer">
<polygon fill="#ffffff" stroke="#000000" points="1227,-108 1136,-108 1136,-72 1233,-72 1233,-102 1227,-108"/>
<polyline fill="none" stroke="#000000" points="1227,-108 1227,-102 "/>
<polyline fill="none" stroke="#000000" points="1233,-102 1227,-102 "/>
<text text-anchor="middle" x="1184.5" y="-86.3" font-family="Patua One" font-size="14.00" fill="#b03a2e">Fuzzing APIs</text>
</a>
</g>
</g>
<!-- ProbabilisticGrammarFuzzer&#45;&gt;APIFuzzer -->
<g id="edge27" class="edge">
<title>ProbabilisticGrammarFuzzer&#45;&gt;APIFuzzer</title>
<path fill="none" stroke="#000000" d="M1184.5,-143.8314C1184.5,-136.131 1184.5,-126.9743 1184.5,-118.4166"/>
<polygon fill="#000000" stroke="#000000" points="1188.0001,-118.4132 1184.5,-108.4133 1181.0001,-118.4133 1188.0001,-118.4132"/>
</g>
<!-- InformationFlow -->
<g id="node23" class="node">
<title>InformationFlow</title>
<g id="a_node23"><a xlink:href="InformationFlow.ipynb" xlink:title="InformationFlow">
<polygon fill="#ffffff" stroke="#000000" points="1056,-180 879,-180 879,-144 1062,-144 1062,-174 1056,-180"/>
<polyline fill="none" stroke="#000000" points="1056,-180 1056,-174 "/>
<polyline fill="none" stroke="#000000" points="1062,-174 1056,-174 "/>
<text text-anchor="middle" x="970.5" y="-158.3" font-family="Patua One" font-size="14.00" fill="#b03a2e">Tracking Information Flow</text>
</a>
</g>
</g>
<!-- GrammarMiner&#45;&gt;InformationFlow -->
<g id="edge29" class="edge">
<title>GrammarMiner&#45;&gt;InformationFlow</title>
<path fill="none" stroke="#000000" d="M971.9953,-215.8314C971.7814,-208.131 971.5271,-198.9743 971.2894,-190.4166"/>
<polygon fill="#000000" stroke="#000000" points="974.7879,-190.3122 971.0115,-180.4133 967.7906,-190.5066 974.7879,-190.3122"/>
</g>
<!-- DynamicInvariants -->
<g id="node26" class="node">
<title>DynamicInvariants</title>
<g id="a_node26"><a xlink:href="DynamicInvariants.ipynb" xlink:title="DynamicInvariants">
<polygon fill="#ffffff" stroke="#000000" points="397.5,-180 35.5,-180 35.5,-144 403.5,-144 403.5,-174 397.5,-180"/>
<polyline fill="none" stroke="#000000" points="397.5,-180 397.5,-174 "/>
<polyline fill="none" stroke="#000000" points="403.5,-174 397.5,-174 "/>
<text text-anchor="middle" x="219.5" y="-158.3" font-family="Patua One" font-size="14.00" fill="#b03a2e">Mining Function Specifications with Dynamic Invariants</text>
</a>
</g>
</g>
<!-- SymbolicFuzzer&#45;&gt;DynamicInvariants -->
<g id="edge31" class="edge">
<title>SymbolicFuzzer&#45;&gt;DynamicInvariants</title>
<path fill="none" stroke="#000000" d="M242.6774,-215.8314C239.2891,-207.9617 235.2459,-198.5712 231.4924,-189.8533"/>
<polygon fill="#000000" stroke="#000000" points="234.5973,-188.214 227.4279,-180.4133 228.1679,-190.9822 234.5973,-188.214"/>
</g>
<!-- GrammarFuzzer&#45;&gt;GrammarCoverageFuzzer -->
<g id="edge14" class="edge">
<title>GrammarFuzzer&#45;&gt;GrammarCoverageFuzzer</title>
<path fill="none" stroke="#000000" d="M987.6473,-297.2797C902.6007,-288.5595 772.4842,-273.5818 649.9597,-251.9763"/>
<polygon fill="#000000" stroke="#000000" points="650.4819,-248.5143 640.0231,-250.2063 649.2543,-255.4058 650.4819,-248.5143"/>
</g>
<!-- GrammarFuzzer&#45;&gt;GrammarMiner -->
<g id="edge18" class="edge">
<title>GrammarFuzzer&#45;&gt;GrammarMiner</title>
<path fill="none" stroke="#000000" d="M1052.4994,-287.8314C1039.0669,-278.7927 1022.6527,-267.7476 1008.1961,-258.0198"/>
<polygon fill="#000000" stroke="#000000" points="1009.7425,-254.8418 999.492,-252.1628 1005.8346,-260.6494 1009.7425,-254.8418"/>
</g>
<!-- Parser -->
<g id="node15" class="node">
<title>Parser</title>
<g id="a_node15"><a xlink:href="Parser.ipynb" xlink:title="Parser">
<polygon fill="#ffffff" stroke="#000000" points="1418,-252 1317,-252 1317,-216 1424,-216 1424,-246 1418,-252"/>
<polyline fill="none" stroke="#000000" points="1418,-252 1418,-246 "/>
<polyline fill="none" stroke="#000000" points="1424,-246 1418,-246 "/>
<text text-anchor="middle" x="1370.5" y="-230.3" font-family="Patua One" font-size="14.00" fill="#b03a2e">Parsing Inputs</text>
</a>
</g>
</g>
<!-- GrammarFuzzer&#45;&gt;Parser -->
<g id="edge15" class="edge">
<title>GrammarFuzzer&#45;&gt;Parser</title>
<path fill="none" stroke="#000000" d="M1160.5596,-287.9452C1201.9903,-278.466 1253.4027,-266.3198 1307.0856,-252.3199"/>
<polygon fill="#000000" stroke="#000000" points="1307.9928,-255.7004 1316.778,-249.7783 1306.2173,-248.9294 1307.9928,-255.7004"/>
</g>
<!-- GeneratorGrammarFuzzer -->
<g id="node16" class="node">
<title>GeneratorGrammarFuzzer</title>
<g id="a_node16"><a xlink:href="GeneratorGrammarFuzzer.ipynb" xlink:title="GeneratorGrammarFuzzer">
<polygon fill="#ffffff" stroke="#000000" points="1468.5,-180 1306.5,-180 1306.5,-144 1474.5,-144 1474.5,-174 1468.5,-180"/>
<polyline fill="none" stroke="#000000" points="1468.5,-180 1468.5,-174 "/>
<polyline fill="none" stroke="#000000" points="1474.5,-174 1468.5,-174 "/>
<text text-anchor="middle" x="1390.5" y="-158.3" font-family="Patua One" font-size="14.00" fill="#b03a2e">Fuzzing with Generators</text>
</a>
</g>
</g>
<!-- GrammarFuzzer&#45;&gt;GeneratorGrammarFuzzer -->
<g id="edge16" class="edge">
<title>GrammarFuzzer&#45;&gt;GeneratorGrammarFuzzer</title>
<path fill="none" stroke="#000000" d="M1171.0871,-298.1815C1270.2222,-288.7713 1416.5363,-271.7476 1433.5,-252 1449.7646,-233.0662 1434.0816,-206.9215 1417.2709,-187.6886"/>
<polygon fill="#000000" stroke="#000000" points="1419.6904,-185.1494 1410.3388,-180.1695 1414.5438,-189.8942 1419.6904,-185.1494"/>
</g>
<!-- Reducer -->
<g id="node17" class="node">
<title>Reducer</title>
<g id="a_node17"><a xlink:href="Reducer.ipynb" xlink:title="Reducer">
<polygon fill="#ffffff" stroke="#000000" points="1293,-252 1074,-252 1074,-216 1299,-216 1299,-246 1293,-252"/>
<polyline fill="none" stroke="#000000" points="1293,-252 1293,-246 "/>
<polyline fill="none" stroke="#000000" points="1299,-246 1293,-246 "/>
<text text-anchor="middle" x="1186.5" y="-230.3" font-family="Patua One" font-size="14.00" fill="#b03a2e">Reducing Failure&#45;Inducing Inputs</text>
</a>
</g>
</g>
<!-- GrammarFuzzer&#45;&gt;Reducer -->
<g id="edge17" class="edge">
<title>GrammarFuzzer&#45;&gt;Reducer</title>
<path fill="none" stroke="#000000" d="M1106.5006,-287.8314C1119.9331,-278.7927 1136.3473,-267.7476 1150.8039,-258.0198"/>
<polygon fill="#000000" stroke="#000000" points="1153.1654,-260.6494 1159.508,-252.1628 1149.2575,-254.8418 1153.1654,-260.6494"/>
</g>
<!-- WebFuzzer -->
<g id="node18" class="node">
<title>WebFuzzer</title>
<g id="a_node18"><a xlink:href="WebFuzzer.ipynb" xlink:title="WebFuzzer">
<polygon fill="#ffffff" stroke="#000000" points="826.5,-252 658.5,-252 658.5,-216 832.5,-216 832.5,-246 826.5,-252"/>
<polyline fill="none" stroke="#000000" points="826.5,-252 826.5,-246 "/>
<polyline fill="none" stroke="#000000" points="832.5,-246 826.5,-246 "/>
<text text-anchor="middle" x="745.5" y="-230.3" font-family="Patua One" font-size="14.00" fill="#b03a2e">Testing Web Applications</text>
</a>
</g>
</g>
<!-- GrammarFuzzer&#45;&gt;WebFuzzer -->
<g id="edge19" class="edge">
<title>GrammarFuzzer&#45;&gt;WebFuzzer</title>
<path fill="none" stroke="#000000" d="M995.6488,-287.9243C948.0127,-277.6554 888.2584,-264.7743 839.0981,-254.1768"/>
<polygon fill="#000000" stroke="#000000" points="839.609,-250.7066 829.0959,-252.0207 838.1338,-257.5494 839.609,-250.7066"/>
</g>
<!-- Parser&#45;&gt;ProbabilisticGrammarFuzzer -->
<g id="edge24" class="edge">
<title>Parser&#45;&gt;ProbabilisticGrammarFuzzer</title>
<path fill="none" stroke="#000000" d="M1323.5643,-215.8314C1298.3563,-206.0734 1267.1074,-193.977 1240.6209,-183.7242"/>
<polygon fill="#000000" stroke="#000000" points="1241.6873,-180.384 1231.0981,-180.038 1239.1603,-186.912 1241.6873,-180.384"/>
</g>
<!-- LangFuzzer -->
<g id="node22" class="node">
<title>LangFuzzer</title>
<g id="a_node22"><a xlink:href="LangFuzzer.ipynb" xlink:title="LangFuzzer">
<polygon fill="#ffffff" stroke="#000000" points="1690.5,-180 1492.5,-180 1492.5,-144 1696.5,-144 1696.5,-174 1690.5,-180"/>
<polyline fill="none" stroke="#000000" points="1690.5,-180 1690.5,-174 "/>
<polyline fill="none" stroke="#000000" points="1696.5,-174 1690.5,-174 "/>
<text text-anchor="middle" x="1594.5" y="-158.3" font-family="Patua One" font-size="14.00" fill="#b03a2e">Fuzzing with Input Fragments</text>
</a>
</g>
</g>
<!-- Parser&#45;&gt;LangFuzzer -->
<g id="edge23" class="edge">
<title>Parser&#45;&gt;LangFuzzer</title>
<path fill="none" stroke="#000000" d="M1424.1536,-216.7542C1455.4889,-206.6821 1495.2781,-193.8927 1528.52,-183.2079"/>
<polygon fill="#000000" stroke="#000000" points="1529.7091,-186.5021 1538.1584,-180.1098 1527.567,-179.8379 1529.7091,-186.5021"/>
</g>
<!-- Parser&#45;&gt;InformationFlow -->
<g id="edge25" class="edge">
<title>Parser&#45;&gt;InformationFlow</title>
<path fill="none" stroke="#000000" d="M1316.8429,-217.9528C1314.03,-217.2587 1311.2366,-216.6023 1308.5,-216 1207.599,-193.7912 1178.3746,-197.1155 1072.3042,-180.0928"/>
<polygon fill="#000000" stroke="#000000" points="1072.5735,-176.5906 1062.1409,-178.4376 1071.4482,-183.4996 1072.5735,-176.5906"/>
</g>
<!-- GeneratorGrammarFuzzer&#45;&gt;APIFuzzer -->
<g id="edge28" class="edge">
<title>GeneratorGrammarFuzzer&#45;&gt;APIFuzzer</title>
<path fill="none" stroke="#000000" d="M1338.7834,-143.9243C1309.5317,-133.7004 1272.8711,-120.887 1242.6267,-110.3161"/>
<polygon fill="#000000" stroke="#000000" points="1243.645,-106.9645 1233.0501,-106.969 1241.3353,-113.5725 1243.645,-106.9645"/>
</g>
<!-- WebFuzzer&#45;&gt;GUIFuzzer -->
<g id="edge33" class="edge">
<title>WebFuzzer&#45;&gt;GUIFuzzer</title>
<path fill="none" stroke="#000000" d="M746.0047,-215.8314C746.2186,-208.131 746.4729,-198.9743 746.7106,-190.4166"/>
<polygon fill="#000000" stroke="#000000" points="750.2094,-190.5066 746.9885,-180.4133 743.2121,-190.3122 750.2094,-190.5066"/>
</g>
<!-- LangFuzzer&#45;&gt;EvoGrammarFuzzer -->
<g id="edge26" class="edge">
<title>LangFuzzer&#45;&gt;EvoGrammarFuzzer</title>
<path fill="none" stroke="#000000" d="M1610.9022,-143.8314C1618.5415,-135.3694 1627.7683,-125.1489 1636.1207,-115.8971"/>
<polygon fill="#000000" stroke="#000000" points="1638.7738,-118.1813 1642.8769,-108.4133 1633.5779,-113.4906 1638.7738,-118.1813"/>
</g>
<!-- ConcolicFuzzer -->
<g id="node25" class="node">
<title>ConcolicFuzzer</title>
<g id="a_node25"><a xlink:href="ConcolicFuzzer.ipynb" xlink:title="ConcolicFuzzer">
<polygon fill="#ffffff" stroke="#000000" points="1024.5,-108 910.5,-108 910.5,-72 1030.5,-72 1030.5,-102 1024.5,-108"/>
<polyline fill="none" stroke="#000000" points="1024.5,-108 1024.5,-102 "/>
<polyline fill="none" stroke="#000000" points="1030.5,-102 1024.5,-102 "/>
<text text-anchor="middle" x="970.5" y="-86.3" font-family="Patua One" font-size="14.00" fill="#b03a2e">Concolic Fuzzing</text>
</a>
</g>
</g>
<!-- InformationFlow&#45;&gt;ConcolicFuzzer -->
<g id="edge30" class="edge">
<title>InformationFlow&#45;&gt;ConcolicFuzzer</title>
<path fill="none" stroke="#000000" d="M970.5,-143.8314C970.5,-136.131 970.5,-126.9743 970.5,-118.4166"/>
<polygon fill="#000000" stroke="#000000" points="974.0001,-118.4132 970.5,-108.4133 967.0001,-118.4133 974.0001,-118.4132"/>
</g>
<!-- APIFuzzer&#45;&gt;Carver -->
<g id="edge32" class="edge">
<title>APIFuzzer&#45;&gt;Carver</title>
<path fill="none" stroke="#000000" d="M1135.9704,-77.8676C1091.1663,-66.6666 1023.92,-49.855 972.0834,-36.8959"/>
<polygon fill="#000000" stroke="#000000" points="972.8134,-33.4707 962.2631,-34.4408 971.1156,-40.2617 972.8134,-33.4707"/>
</g>
</g>
</svg>
