<?xml version="1.0" encoding="UTF-8" standalone="no"?>
<!DOCTYPE svg PUBLIC "-//W3C//DTD SVG 1.1//EN"
 "http://www.w3.org/Graphics/SVG/1.1/DTD/svg11.dtd">
<!-- Generated by graphviz version 2.40.1 (20161225.0304)
 -->
<!-- Title: %3 Pages: 1 -->
<svg width="1923pt" height="548pt"
 viewBox="0.00 0.00 1923.00 548.00" xmlns="http://www.w3.org/2000/svg" xmlns:xlink="http://www.w3.org/1999/xlink">
<g id="graph0" class="graph" transform="scale(1 1) rotate(0) translate(4 544)">
<title>%3</title>
<polygon fill="#ffffff" stroke="transparent" points="-4,4 -4,-544 1919,-544 1919,4 -4,4"/>
<!-- Fuzzer -->
<g id="node1" class="node">
<title>Fuzzer</title>
<g id="a_node1"><a xlink:href="Fuzzer.ipynb" xlink:title="Fuzzer">
<polygon fill="#ffffff" stroke="#000000" points="1023.5,-468 725.5,-468 725.5,-432 1029.5,-432 1029.5,-462 1023.5,-468"/>
<polyline fill="none" stroke="#000000" points="1023.5,-468 1023.5,-462 "/>
<polyline fill="none" stroke="#000000" points="1029.5,-462 1023.5,-462 "/>
<text text-anchor="middle" x="877.5" y="-446.3" font-family="Patua One" font-size="14.00" fill="#b03a2e">Fuzzing: Breaking Things with Random Inputs</text>
</a>
</g>
</g>
<!-- Coverage -->
<g id="node2" class="node">
<title>Coverage</title>
<g id="a_node2"><a xlink:href="Coverage.ipynb" xlink:title="Coverage">
<polygon fill="#ffffff" stroke="#000000" points="1076,-324 959,-324 959,-288 1082,-288 1082,-318 1076,-324"/>
<polyline fill="none" stroke="#000000" points="1076,-324 1076,-318 "/>
<polyline fill="none" stroke="#000000" points="1082,-318 1076,-318 "/>
<text text-anchor="middle" x="1020.5" y="-302.3" font-family="Patua One" font-size="14.00" fill="#b03a2e">Getting Coverage</text>
</a>
</g>
</g>
<!-- Fuzzer&#45;&gt;Coverage -->
<g id="edge1" class="edge">
<title>Fuzzer&#45;&gt;Coverage</title>
<path fill="none" stroke="#000000" d="M861.4915,-431.9876C846.3824,-412.7111 828.2763,-381.9479 844.5,-360 857.3667,-342.5935 905.8883,-328.4895 948.7329,-319.0661"/>
<polygon fill="#000000" stroke="#000000" points="949.5759,-322.465 958.6221,-316.9499 948.1111,-315.62 949.5759,-322.465"/>
</g>
<!-- SearchBasedFuzzer -->
<g id="node3" class="node">
<title>SearchBasedFuzzer</title>
<g id="a_node3"><a xlink:href="SearchBasedFuzzer.ipynb" xlink:title="SearchBasedFuzzer">
<polygon fill="#ffffff" stroke="#000000" points="999.5,-396 853.5,-396 853.5,-360 1005.5,-360 1005.5,-390 999.5,-396"/>
<polyline fill="none" stroke="#000000" points="999.5,-396 999.5,-390 "/>
<polyline fill="none" stroke="#000000" points="1005.5,-390 999.5,-390 "/>
<text text-anchor="middle" x="929.5" y="-374.3" font-family="Patua One" font-size="14.00" fill="#b03a2e">Search&#45;Based Fuzzing</text>
</a>
</g>
</g>
<!-- Fuzzer&#45;&gt;SearchBasedFuzzer -->
<g id="edge2" class="edge">
<title>Fuzzer&#45;&gt;SearchBasedFuzzer</title>
<path fill="none" stroke="#000000" d="M890.6218,-431.8314C896.5499,-423.6232 903.6729,-413.7606 910.1933,-404.7323"/>
<polygon fill="#000000" stroke="#000000" points="913.184,-406.5693 916.2015,-396.4133 907.5092,-402.4708 913.184,-406.5693"/>
</g>
<!-- Grammars -->
<g id="node4" class="node">
<title>Grammars</title>
<g id="a_node4"><a xlink:href="Grammars.ipynb" xlink:title="Grammars">
<polygon fill="#ffffff" stroke="#000000" points="726,-396 567,-396 567,-360 732,-360 732,-390 726,-396"/>
<polyline fill="none" stroke="#000000" points="726,-396 726,-390 "/>
<polyline fill="none" stroke="#000000" points="732,-390 726,-390 "/>
<text text-anchor="middle" x="649.5" y="-374.3" font-family="Patua One" font-size="14.00" fill="#b03a2e">Fuzzing with Grammars</text>
</a>
</g>
</g>
<!-- Fuzzer&#45;&gt;Grammars -->
<g id="edge3" class="edge">
<title>Fuzzer&#45;&gt;Grammars</title>
<path fill="none" stroke="#000000" d="M820.2603,-431.9243C788.6848,-421.9531 749.3096,-409.5188 716.3294,-399.104"/>
<polygon fill="#000000" stroke="#000000" points="717.3531,-395.757 706.7633,-396.0831 715.2451,-402.4321 717.3531,-395.757"/>
</g>
<!-- FuzzingInTheLarge -->
<g id="node5" class="node">
<title>FuzzingInTheLarge</title>
<g id="a_node5"><a xlink:href="FuzzingInTheLarge.ipynb" xlink:title="FuzzingInTheLarge">
<polygon fill="#ffffff" stroke="#000000" points="1243.5,-396 1023.5,-396 1023.5,-360 1249.5,-360 1249.5,-390 1243.5,-396"/>
<polyline fill="none" stroke="#000000" points="1243.5,-396 1243.5,-390 "/>
<polyline fill="none" stroke="#000000" points="1249.5,-390 1243.5,-390 "/>
<text text-anchor="middle" x="1136.5" y="-374.3" font-family="Patua One" font-size="14.00" fill="#b03a2e">Practical Steps with FuzzManager</text>
</a>
</g>
</g>
<!-- Fuzzer&#45;&gt;FuzzingInTheLarge -->
<g id="edge4" class="edge">
<title>Fuzzer&#45;&gt;FuzzingInTheLarge</title>
<path fill="none" stroke="#000000" d="M942.5223,-431.9243C978.6989,-421.8675 1023.8884,-409.3052 1061.5473,-398.8363"/>
<polygon fill="#000000" stroke="#000000" points="1062.7537,-402.1337 1071.4509,-396.0831 1060.8788,-395.3894 1062.7537,-402.1337"/>
</g>
<!-- MutationFuzzer -->
<g id="node7" class="node">
<title>MutationFuzzer</title>
<g id="a_node7"><a xlink:href="MutationFuzzer.ipynb" xlink:title="MutationFuzzer">
<polygon fill="#ffffff" stroke="#000000" points="1909,-252 1746,-252 1746,-216 1915,-216 1915,-246 1909,-252"/>
<polyline fill="none" stroke="#000000" points="1909,-252 1909,-246 "/>
<polyline fill="none" stroke="#000000" points="1915,-246 1909,-246 "/>
<text text-anchor="middle" x="1830.5" y="-230.3" font-family="Patua One" font-size="14.00" fill="#b03a2e">Mutation&#45;Based Fuzzing</text>
</a>
</g>
</g>
<!-- Coverage&#45;&gt;MutationFuzzer -->
<g id="edge6" class="edge">
<title>Coverage&#45;&gt;MutationFuzzer</title>
<path fill="none" stroke="#000000" d="M1082.1328,-303.7688C1204.8066,-298.8042 1488.3424,-284.7151 1735.6584,-252.1659"/>
<polygon fill="#000000" stroke="#000000" points="1736.4698,-255.5889 1745.9214,-250.8017 1735.5474,-248.65 1736.4698,-255.5889"/>
</g>
<!-- MutationAnalysis -->
<g id="node8" class="node">
<title>MutationAnalysis</title>
<g id="a_node8"><a xlink:href="MutationAnalysis.ipynb" xlink:title="MutationAnalysis">
<polygon fill="#ffffff" stroke="#000000" points="1320.5,-252 976.5,-252 976.5,-216 1326.5,-216 1326.5,-246 1320.5,-252"/>
<polyline fill="none" stroke="#000000" points="1320.5,-252 1320.5,-246 "/>
<polyline fill="none" stroke="#000000" points="1326.5,-246 1320.5,-246 "/>
<text text-anchor="middle" x="1151.5" y="-230.3" font-family="Patua One" font-size="14.00" fill="#b03a2e">Evaluating Test Effectiveness with Mutation Analysis</text>
</a>
</g>
</g>
<!-- Coverage&#45;&gt;MutationAnalysis -->
<g id="edge7" class="edge">
<title>Coverage&#45;&gt;MutationAnalysis</title>
<path fill="none" stroke="#000000" d="M1053.5568,-287.8314C1070.4677,-278.5368 1091.2385,-267.1208 1109.2941,-257.1971"/>
<polygon fill="#000000" stroke="#000000" points="1111.376,-260.0468 1118.4537,-252.1628 1108.0043,-253.9122 1111.376,-260.0468"/>
</g>
<!-- GrammarCoverageFuzzer -->
<g id="node9" class="node">
<title>GrammarCoverageFuzzer</title>
<g id="a_node9"><a xlink:href="GrammarCoverageFuzzer.ipynb" xlink:title="GrammarCoverageFuzzer">
<polygon fill="#ffffff" stroke="#000000" points="952,-252 823,-252 823,-216 958,-216 958,-246 952,-252"/>
<polyline fill="none" stroke="#000000" points="952,-252 952,-246 "/>
<polyline fill="none" stroke="#000000" points="958,-246 952,-246 "/>
<text text-anchor="middle" x="890.5" y="-230.3" font-family="Patua One" font-size="14.00" fill="#b03a2e">Grammar Coverage</text>
</a>
</g>
</g>
<!-- Coverage&#45;&gt;GrammarCoverageFuzzer -->
<g id="edge8" class="edge">
<title>Coverage&#45;&gt;GrammarCoverageFuzzer</title>
<path fill="none" stroke="#000000" d="M987.6955,-287.8314C970.9138,-278.5368 950.3015,-267.1208 932.3837,-257.1971"/>
<polygon fill="#000000" stroke="#000000" points="933.7377,-253.9461 923.294,-252.1628 930.3462,-260.0696 933.7377,-253.9461"/>
</g>
<!-- ProbabilisticGrammarFuzzer -->
<g id="node10" class="node">
<title>ProbabilisticGrammarFuzzer</title>
<g id="a_node10"><a xlink:href="ProbabilisticGrammarFuzzer.ipynb" xlink:title="ProbabilisticGrammarFuzzer">
<polygon fill="#ffffff" stroke="#000000" points="715.5,-180 513.5,-180 513.5,-144 721.5,-144 721.5,-174 715.5,-180"/>
<polyline fill="none" stroke="#000000" points="715.5,-180 715.5,-174 "/>
<polyline fill="none" stroke="#000000" points="721.5,-174 715.5,-174 "/>
<text text-anchor="middle" x="617.5" y="-158.3" font-family="Patua One" font-size="14.00" fill="#b03a2e">Probabilistic Grammar Fuzzing</text>
</a>
</g>
</g>
<!-- Coverage&#45;&gt;ProbabilisticGrammarFuzzer -->
<g id="edge9" class="edge">
<title>Coverage&#45;&gt;ProbabilisticGrammarFuzzer</title>
<path fill="none" stroke="#000000" d="M958.6594,-301.9408C852.2851,-294.3375 643.8678,-276.4798 621.5,-252 606.5654,-235.6552 606.9243,-209.8674 610.2297,-190.0776"/>
<polygon fill="#000000" stroke="#000000" points="613.7004,-190.57 612.2258,-180.0783 606.8358,-189.1997 613.7004,-190.57"/>
</g>
<!-- GrammarMiner -->
<g id="node11" class="node">
<title>GrammarMiner</title>
<g id="a_node11"><a xlink:href="GrammarMiner.ipynb" xlink:title="GrammarMiner">
<polygon fill="#ffffff" stroke="#000000" points="443,-252 282,-252 282,-216 449,-216 449,-246 443,-252"/>
<polyline fill="none" stroke="#000000" points="443,-252 443,-246 "/>
<polyline fill="none" stroke="#000000" points="449,-246 443,-246 "/>
<text text-anchor="middle" x="365.5" y="-230.3" font-family="Patua One" font-size="14.00" fill="#b03a2e">Mining Input Grammars</text>
</a>
</g>
</g>
<!-- Coverage&#45;&gt;GrammarMiner -->
<g id="edge10" class="edge">
<title>Coverage&#45;&gt;GrammarMiner</title>
<path fill="none" stroke="#000000" d="M958.615,-302.0484C856.5278,-295.094 646.2795,-278.936 459.1968,-252.1778"/>
<polygon fill="#000000" stroke="#000000" points="459.5751,-248.6962 449.1776,-250.7313 458.5748,-255.6244 459.5751,-248.6962"/>
</g>
<!-- DynamicInvariants -->
<g id="node12" class="node">
<title>DynamicInvariants</title>
<g id="a_node12"><a xlink:href="DynamicInvariants.ipynb" xlink:title="DynamicInvariants">
<polygon fill="#ffffff" stroke="#000000" points="1548.5,-252 1344.5,-252 1344.5,-216 1554.5,-216 1554.5,-246 1548.5,-252"/>
<polyline fill="none" stroke="#000000" points="1548.5,-252 1548.5,-246 "/>
<polyline fill="none" stroke="#000000" points="1554.5,-246 1548.5,-246 "/>
<text text-anchor="middle" x="1449.5" y="-230.3" font-family="Patua One" font-size="14.00" fill="#b03a2e">Mining Function Specifications</text>
</a>
</g>
</g>
<!-- Coverage&#45;&gt;DynamicInvariants -->
<g id="edge11" class="edge">
<title>Coverage&#45;&gt;DynamicInvariants</title>
<path fill="none" stroke="#000000" d="M1082.4221,-295.6075C1148.0657,-284.5904 1253.2368,-266.9393 1334.2135,-253.3488"/>
<polygon fill="#000000" stroke="#000000" points="1335.1831,-256.7351 1344.4658,-251.6281 1334.0244,-249.8316 1335.1831,-256.7351"/>
</g>
<!-- WhenToStopFuzzing -->
<g id="node13" class="node">
<title>WhenToStopFuzzing</title>
<g id="a_node13"><a xlink:href="WhenToStopFuzzing.ipynb" xlink:title="WhenToStopFuzzing">
<polygon fill="#ffffff" stroke="#000000" points="1722,-252 1573,-252 1573,-216 1728,-216 1728,-246 1722,-252"/>
<polyline fill="none" stroke="#000000" points="1722,-252 1722,-246 "/>
<polyline fill="none" stroke="#000000" points="1728,-246 1722,-246 "/>
<text text-anchor="middle" x="1650.5" y="-230.3" font-family="Patua One" font-size="14.00" fill="#b03a2e">When To Stop Fuzzing</text>
</a>
</g>
</g>
<!-- Coverage&#45;&gt;WhenToStopFuzzing -->
<g id="edge12" class="edge">
<title>Coverage&#45;&gt;WhenToStopFuzzing</title>
<path fill="none" stroke="#000000" d="M1082.2452,-301.9781C1181.4442,-295.0509 1382.5781,-279.0889 1562.856,-252.0062"/>
<polygon fill="#000000" stroke="#000000" points="1563.4229,-255.4604 1572.7848,-250.5001 1562.3729,-248.5395 1563.4229,-255.4604"/>
</g>
<!-- GrammarFuzzer -->
<g id="node16" class="node">
<title>GrammarFuzzer</title>
<g id="a_node16"><a xlink:href="GrammarFuzzer.ipynb" xlink:title="GrammarFuzzer">
<polygon fill="#ffffff" stroke="#000000" points="606,-324 429,-324 429,-288 612,-288 612,-318 606,-324"/>
<polyline fill="none" stroke="#000000" points="606,-324 606,-318 "/>
<polyline fill="none" stroke="#000000" points="612,-318 606,-318 "/>
<text text-anchor="middle" x="520.5" y="-302.3" font-family="Patua One" font-size="14.00" fill="#b03a2e">Efficient Grammar Fuzzing</text>
</a>
</g>
</g>
<!-- Grammars&#45;&gt;GrammarFuzzer -->
<g id="edge15" class="edge">
<title>Grammars&#45;&gt;GrammarFuzzer</title>
<path fill="none" stroke="#000000" d="M616.9479,-359.8314C600.2952,-350.5368 579.8415,-339.1208 562.0615,-329.1971"/>
<polygon fill="#000000" stroke="#000000" points="563.4795,-325.9803 553.0417,-324.1628 560.0679,-332.0927 563.4795,-325.9803"/>
</g>
<!-- Intro_Testing -->
<g id="node6" class="node">
<title>Intro_Testing</title>
<g id="a_node6"><a xlink:href="Intro_Testing.ipynb" xlink:title="Intro_Testing">
<polygon fill="#ffffff" stroke="#000000" points="981,-540 768,-540 768,-504 987,-504 987,-534 981,-540"/>
<polyline fill="none" stroke="#000000" points="981,-540 981,-534 "/>
<polyline fill="none" stroke="#000000" points="987,-534 981,-534 "/>
<text text-anchor="middle" x="877.5" y="-518.3" font-family="Patua One" font-size="14.00" fill="#b03a2e">Introduction to Software Testing</text>
</a>
</g>
</g>
<!-- Intro_Testing&#45;&gt;Fuzzer -->
<g id="edge5" class="edge">
<title>Intro_Testing&#45;&gt;Fuzzer</title>
<path fill="none" stroke="#000000" d="M877.5,-503.8314C877.5,-496.131 877.5,-486.9743 877.5,-478.4166"/>
<polygon fill="#000000" stroke="#000000" points="881.0001,-478.4132 877.5,-468.4133 874.0001,-478.4133 881.0001,-478.4132"/>
</g>
<!-- GreyboxFuzzer -->
<g id="node14" class="node">
<title>GreyboxFuzzer</title>
<g id="a_node14"><a xlink:href="GreyboxFuzzer.ipynb" xlink:title="GreyboxFuzzer">
<polygon fill="#ffffff" stroke="#000000" points="1595.5,-180 1481.5,-180 1481.5,-144 1601.5,-144 1601.5,-174 1595.5,-180"/>
<polyline fill="none" stroke="#000000" points="1595.5,-180 1595.5,-174 "/>
<polyline fill="none" stroke="#000000" points="1601.5,-174 1595.5,-174 "/>
<text text-anchor="middle" x="1541.5" y="-158.3" font-family="Patua One" font-size="14.00" fill="#b03a2e">Greybox Fuzzing</text>
</a>
</g>
</g>
<!-- MutationFuzzer&#45;&gt;GreyboxFuzzer -->
<g id="edge13" class="edge">
<title>MutationFuzzer&#45;&gt;GreyboxFuzzer</title>
<path fill="none" stroke="#000000" d="M1757.9461,-215.9243C1713.1778,-204.7709 1656.0398,-190.5359 1611.7126,-179.4924"/>
<polygon fill="#000000" stroke="#000000" points="1612.4354,-176.0656 1601.8859,-177.0442 1610.7432,-182.858 1612.4354,-176.0656"/>
</g>
<!-- ConfigurationFuzzer -->
<g id="node21" class="node">
<title>ConfigurationFuzzer</title>
<g id="a_node21"><a xlink:href="ConfigurationFuzzer.ipynb" xlink:title="ConfigurationFuzzer">
<polygon fill="#ffffff" stroke="#000000" points="1169,-180 1016,-180 1016,-144 1175,-144 1175,-174 1169,-180"/>
<polyline fill="none" stroke="#000000" points="1169,-180 1169,-174 "/>
<polyline fill="none" stroke="#000000" points="1175,-174 1169,-174 "/>
<text text-anchor="middle" x="1095.5" y="-158.3" font-family="Patua One" font-size="14.00" fill="#b03a2e">Testing Configurations</text>
</a>
</g>
</g>
<!-- GrammarCoverageFuzzer&#45;&gt;ConfigurationFuzzer -->
<g id="edge22" class="edge">
<title>GrammarCoverageFuzzer&#45;&gt;ConfigurationFuzzer</title>
<path fill="none" stroke="#000000" d="M941.9655,-215.9243C969.9902,-206.0815 1004.8484,-193.8386 1034.264,-183.5073"/>
<polygon fill="#000000" stroke="#000000" points="1035.7381,-186.6992 1044.0133,-180.0831 1033.4184,-180.0947 1035.7381,-186.6992"/>
</g>
<!-- Carver -->
<g id="node22" class="node">
<title>Carver</title>
<g id="a_node22"><a xlink:href="Carver.ipynb" xlink:title="Carver">
<polygon fill="#ffffff" stroke="#000000" points="862,-36 737,-36 737,0 868,0 868,-30 862,-36"/>
<polyline fill="none" stroke="#000000" points="862,-36 862,-30 "/>
<polyline fill="none" stroke="#000000" points="868,-30 862,-30 "/>
<text text-anchor="middle" x="802.5" y="-14.3" font-family="Patua One" font-size="14.00" fill="#b03a2e">Carving Unit Tests</text>
</a>
</g>
</g>
<!-- GrammarCoverageFuzzer&#45;&gt;Carver -->
<g id="edge23" class="edge">
<title>GrammarCoverageFuzzer&#45;&gt;Carver</title>
<path fill="none" stroke="#000000" d="M931.5213,-215.7895C945.9099,-207.1553 960.4739,-195.3184 968.5,-180 991.4627,-136.1741 976.2792,-107.1911 941.5,-72 924.2231,-54.5184 900.6438,-42.5764 877.8128,-34.4693"/>
<polygon fill="#000000" stroke="#000000" points="878.6882,-31.0717 868.0944,-31.2247 876.4713,-37.7115 878.6882,-31.0717"/>
</g>
<!-- GUIFuzzer -->
<g id="node23" class="node">
<title>GUIFuzzer</title>
<g id="a_node23"><a xlink:href="GUIFuzzer.ipynb" xlink:title="GUIFuzzer">
<polygon fill="#ffffff" stroke="#000000" points="953.5,-180 739.5,-180 739.5,-144 959.5,-144 959.5,-174 953.5,-180"/>
<polyline fill="none" stroke="#000000" points="953.5,-180 953.5,-174 "/>
<polyline fill="none" stroke="#000000" points="959.5,-174 953.5,-174 "/>
<text text-anchor="middle" x="849.5" y="-158.3" font-family="Patua One" font-size="14.00" fill="#b03a2e">Testing Graphical User Interfaces</text>
</a>
</g>
</g>
<!-- GrammarCoverageFuzzer&#45;&gt;GUIFuzzer -->
<g id="edge24" class="edge">
<title>GrammarCoverageFuzzer&#45;&gt;GUIFuzzer</title>
<path fill="none" stroke="#000000" d="M880.154,-215.8314C875.5763,-207.7925 870.0948,-198.1666 865.0412,-189.2918"/>
<polygon fill="#000000" stroke="#000000" points="867.9752,-187.3712 859.9853,-180.4133 861.8923,-190.8351 867.9752,-187.3712"/>
</g>
<!-- APIFuzzer -->
<g id="node25" class="node">
<title>APIFuzzer</title>
<g id="a_node25"><a xlink:href="APIFuzzer.ipynb" xlink:title="APIFuzzer">
<polygon fill="#ffffff" stroke="#000000" points="660,-108 569,-108 569,-72 666,-72 666,-102 660,-108"/>
<polyline fill="none" stroke="#000000" points="660,-108 660,-102 "/>
<polyline fill="none" stroke="#000000" points="666,-102 660,-102 "/>
<text text-anchor="middle" x="617.5" y="-86.3" font-family="Patua One" font-size="14.00" fill="#b03a2e">Fuzzing APIs</text>
</a>
</g>
</g>
<!-- ProbabilisticGrammarFuzzer&#45;&gt;APIFuzzer -->
<g id="edge28" class="edge">
<title>ProbabilisticGrammarFuzzer&#45;&gt;APIFuzzer</title>
<path fill="none" stroke="#000000" d="M617.5,-143.8314C617.5,-136.131 617.5,-126.9743 617.5,-118.4166"/>
<polygon fill="#000000" stroke="#000000" points="621.0001,-118.4132 617.5,-108.4133 614.0001,-118.4133 621.0001,-118.4132"/>
</g>
<!-- InformationFlow -->
<g id="node24" class="node">
<title>InformationFlow</title>
<g id="a_node24"><a xlink:href="InformationFlow.ipynb" xlink:title="InformationFlow">
<polygon fill="#ffffff" stroke="#000000" points="451,-180 274,-180 274,-144 457,-144 457,-174 451,-180"/>
<polyline fill="none" stroke="#000000" points="451,-180 451,-174 "/>
<polyline fill="none" stroke="#000000" points="457,-174 451,-174 "/>
<text text-anchor="middle" x="365.5" y="-158.3" font-family="Patua One" font-size="14.00" fill="#b03a2e">Tracking Information Flow</text>
</a>
</g>
</g>
<!-- GrammarMiner&#45;&gt;InformationFlow -->
<g id="edge30" class="edge">
<title>GrammarMiner&#45;&gt;InformationFlow</title>
<path fill="none" stroke="#000000" d="M365.5,-215.8314C365.5,-208.131 365.5,-198.9743 365.5,-190.4166"/>
<polygon fill="#000000" stroke="#000000" points="369.0001,-190.4132 365.5,-180.4133 362.0001,-190.4133 369.0001,-190.4132"/>
</g>
<!-- GreyboxGrammarFuzzer -->
<g id="node15" class="node">
<title>GreyboxGrammarFuzzer</title>
<g id="a_node15"><a xlink:href="GreyboxGrammarFuzzer.ipynb" xlink:title="GreyboxGrammarFuzzer">
<polygon fill="#ffffff" stroke="#000000" points="926.5,-108 712.5,-108 712.5,-72 932.5,-72 932.5,-102 926.5,-108"/>
<polyline fill="none" stroke="#000000" points="926.5,-108 926.5,-102 "/>
<polyline fill="none" stroke="#000000" points="932.5,-102 926.5,-102 "/>
<text text-anchor="middle" x="822.5" y="-86.3" font-family="Patua One" font-size="14.00" fill="#b03a2e">Greybox Fuzzing with Grammars</text>
</a>
</g>
</g>
<!-- GreyboxFuzzer&#45;&gt;GreyboxGrammarFuzzer -->
<g id="edge14" class="edge">
<title>GreyboxFuzzer&#45;&gt;GreyboxGrammarFuzzer</title>
<path fill="none" stroke="#000000" d="M1481.4351,-155.9852C1363.203,-144.1455 1098.295,-117.6179 942.7688,-102.0436"/>
<polygon fill="#000000" stroke="#000000" points="942.9844,-98.5478 932.6854,-101.0339 942.2869,-105.5129 942.9844,-98.5478"/>
</g>
<!-- GrammarFuzzer&#45;&gt;GrammarCoverageFuzzer -->
<g id="edge16" class="edge">
<title>GrammarFuzzer&#45;&gt;GrammarCoverageFuzzer</title>
<path fill="none" stroke="#000000" d="M612.1108,-290.2664C667.5062,-280.4805 739.764,-267.2377 813.0571,-252.0438"/>
<polygon fill="#000000" stroke="#000000" points="813.8584,-255.452 822.9341,-249.9855 812.4303,-248.5992 813.8584,-255.452"/>
</g>
<!-- GrammarFuzzer&#45;&gt;GrammarMiner -->
<g id="edge20" class="edge">
<title>GrammarFuzzer&#45;&gt;GrammarMiner</title>
<path fill="none" stroke="#000000" d="M481.387,-287.8314C460.7488,-278.2446 435.2516,-266.4008 413.4327,-256.2655"/>
<polygon fill="#000000" stroke="#000000" points="414.8756,-253.0766 404.3318,-252.038 411.9266,-259.4251 414.8756,-253.0766"/>
</g>
<!-- Parser -->
<g id="node17" class="node">
<title>Parser</title>
<g id="a_node17"><a xlink:href="Parser.ipynb" xlink:title="Parser">
<polygon fill="#ffffff" stroke="#000000" points="568,-252 467,-252 467,-216 574,-216 574,-246 568,-252"/>
<polyline fill="none" stroke="#000000" points="568,-252 568,-246 "/>
<polyline fill="none" stroke="#000000" points="574,-246 568,-246 "/>
<text text-anchor="middle" x="520.5" y="-230.3" font-family="Patua One" font-size="14.00" fill="#b03a2e">Parsing Inputs</text>
</a>
</g>
</g>
<!-- GrammarFuzzer&#45;&gt;Parser -->
<g id="edge17" class="edge">
<title>GrammarFuzzer&#45;&gt;Parser</title>
<path fill="none" stroke="#000000" d="M520.5,-287.8314C520.5,-280.131 520.5,-270.9743 520.5,-262.4166"/>
<polygon fill="#000000" stroke="#000000" points="524.0001,-262.4132 520.5,-252.4133 517.0001,-262.4133 524.0001,-262.4132"/>
</g>
<!-- GeneratorGrammarFuzzer -->
<g id="node18" class="node">
<title>GeneratorGrammarFuzzer</title>
<g id="a_node18"><a xlink:href="GeneratorGrammarFuzzer.ipynb" xlink:title="GeneratorGrammarFuzzer">
<polygon fill="#ffffff" stroke="#000000" points="249.5,-180 87.5,-180 87.5,-144 255.5,-144 255.5,-174 249.5,-180"/>
<polyline fill="none" stroke="#000000" points="249.5,-180 249.5,-174 "/>
<polyline fill="none" stroke="#000000" points="255.5,-174 249.5,-174 "/>
<text text-anchor="middle" x="171.5" y="-158.3" font-family="Patua One" font-size="14.00" fill="#b03a2e">Fuzzing with Generators</text>
</a>
</g>
</g>
<!-- GrammarFuzzer&#45;&gt;GeneratorGrammarFuzzer -->
<g id="edge18" class="edge">
<title>GrammarFuzzer&#45;&gt;GeneratorGrammarFuzzer</title>
<path fill="none" stroke="#000000" d="M428.7581,-297.769C380.1865,-290.5761 320.7722,-277.1253 272.5,-252 251.5756,-241.109 251.0625,-231.7481 233.5,-216 222.7447,-206.3559 210.8036,-195.8977 200.2952,-186.7763"/>
<polygon fill="#000000" stroke="#000000" points="202.4327,-183.9974 192.5819,-180.0972 197.8505,-189.2892 202.4327,-183.9974"/>
</g>
<!-- Reducer -->
<g id="node19" class="node">
<title>Reducer</title>
<g id="a_node19"><a xlink:href="Reducer.ipynb" xlink:title="Reducer">
<polygon fill="#ffffff" stroke="#000000" points="219,-252 0,-252 0,-216 225,-216 225,-246 219,-252"/>
<polyline fill="none" stroke="#000000" points="219,-252 219,-246 "/>
<polyline fill="none" stroke="#000000" points="225,-246 219,-246 "/>
<text text-anchor="middle" x="112.5" y="-230.3" font-family="Patua One" font-size="14.00" fill="#b03a2e">Reducing Failure&#45;Inducing Inputs</text>
</a>
</g>
</g>
<!-- GrammarFuzzer&#45;&gt;Reducer -->
<g id="edge19" class="edge">
<title>GrammarFuzzer&#45;&gt;Reducer</title>
<path fill="none" stroke="#000000" d="M428.9368,-289.8418C368.4999,-279.1765 288.9159,-265.1322 224.6802,-253.7965"/>
<polygon fill="#000000" stroke="#000000" points="224.964,-250.2926 214.5079,-252.0014 223.7474,-257.1861 224.964,-250.2926"/>
</g>
<!-- WebFuzzer -->
<g id="node20" class="node">
<title>WebFuzzer</title>
<g id="a_node20"><a xlink:href="WebFuzzer.ipynb" xlink:title="WebFuzzer">
<polygon fill="#ffffff" stroke="#000000" points="798.5,-252 630.5,-252 630.5,-216 804.5,-216 804.5,-246 798.5,-252"/>
<polyline fill="none" stroke="#000000" points="798.5,-252 798.5,-246 "/>
<polyline fill="none" stroke="#000000" points="804.5,-246 798.5,-246 "/>
<text text-anchor="middle" x="717.5" y="-230.3" font-family="Patua One" font-size="14.00" fill="#b03a2e">Testing Web Applications</text>
</a>
</g>
</g>
<!-- GrammarFuzzer&#45;&gt;WebFuzzer -->
<g id="edge21" class="edge">
<title>GrammarFuzzer&#45;&gt;WebFuzzer</title>
<path fill="none" stroke="#000000" d="M569.9571,-287.9243C596.7711,-278.1243 630.0949,-265.945 658.2847,-255.6422"/>
<polygon fill="#000000" stroke="#000000" points="659.8316,-258.8033 668.0225,-252.0831 657.4287,-252.2286 659.8316,-258.8033"/>
</g>
<!-- Parser&#45;&gt;ProbabilisticGrammarFuzzer -->
<g id="edge25" class="edge">
<title>Parser&#45;&gt;ProbabilisticGrammarFuzzer</title>
<path fill="none" stroke="#000000" d="M544.9772,-215.8314C557.0395,-206.8779 571.754,-195.9558 584.7686,-186.2955"/>
<polygon fill="#000000" stroke="#000000" points="587.087,-188.9335 593.0306,-180.1628 582.9148,-183.3127 587.087,-188.9335"/>
</g>
<!-- Parser&#45;&gt;GreyboxGrammarFuzzer -->
<g id="edge26" class="edge">
<title>Parser&#45;&gt;GreyboxGrammarFuzzer</title>
<path fill="none" stroke="#000000" d="M509.6554,-215.9133C499.2762,-195.9943 487.5025,-164.1272 504.5,-144 511.1427,-136.1342 615.1221,-119.4818 702.3983,-106.7356"/>
<polygon fill="#000000" stroke="#000000" points="703.0158,-110.1827 712.4081,-105.2801 702.0085,-103.2556 703.0158,-110.1827"/>
</g>
<!-- Parser&#45;&gt;InformationFlow -->
<g id="edge27" class="edge">
<title>Parser&#45;&gt;InformationFlow</title>
<path fill="none" stroke="#000000" d="M481.387,-215.8314C460.7488,-206.2446 435.2516,-194.4008 413.4327,-184.2655"/>
<polygon fill="#000000" stroke="#000000" points="414.8756,-181.0766 404.3318,-180.038 411.9266,-187.4251 414.8756,-181.0766"/>
</g>
<!-- GeneratorGrammarFuzzer&#45;&gt;APIFuzzer -->
<g id="edge29" class="edge">
<title>GeneratorGrammarFuzzer&#45;&gt;APIFuzzer</title>
<path fill="none" stroke="#000000" d="M255.6223,-145.5643C258.6169,-145.0283 261.5832,-144.5052 264.5,-144 367.8489,-126.1008 488.7668,-108.2756 558.8965,-98.2439"/>
<polygon fill="#000000" stroke="#000000" points="559.4616,-101.6988 568.8669,-96.8212 558.4727,-94.769 559.4616,-101.6988"/>
</g>
<!-- WebFuzzer&#45;&gt;GUIFuzzer -->
<g id="edge34" class="edge">
<title>WebFuzzer&#45;&gt;GUIFuzzer</title>
<path fill="none" stroke="#000000" d="M750.8092,-215.8314C767.9273,-206.4942 788.9706,-195.016 807.2222,-185.0606"/>
<polygon fill="#000000" stroke="#000000" points="809.0985,-188.024 816.2015,-180.1628 805.7465,-181.8788 809.0985,-188.024"/>
</g>
<!-- ConcolicFuzzer -->
<g id="node26" class="node">
<title>ConcolicFuzzer</title>
<g id="a_node26"><a xlink:href="ConcolicFuzzer.ipynb" xlink:title="ConcolicFuzzer">
<polygon fill="#ffffff" stroke="#000000" points="419.5,-108 305.5,-108 305.5,-72 425.5,-72 425.5,-102 419.5,-108"/>
<polyline fill="none" stroke="#000000" points="419.5,-108 419.5,-102 "/>
<polyline fill="none" stroke="#000000" points="425.5,-102 419.5,-102 "/>
<text text-anchor="middle" x="365.5" y="-86.3" font-family="Patua One" font-size="14.00" fill="#b03a2e">Concolic Fuzzing</text>
</a>
</g>
</g>
<!-- InformationFlow&#45;&gt;ConcolicFuzzer -->
<g id="edge31" class="edge">
<title>InformationFlow&#45;&gt;ConcolicFuzzer</title>
<path fill="none" stroke="#000000" d="M365.5,-143.8314C365.5,-136.131 365.5,-126.9743 365.5,-118.4166"/>
<polygon fill="#000000" stroke="#000000" points="369.0001,-118.4132 365.5,-108.4133 362.0001,-118.4133 369.0001,-118.4132"/>
</g>
<!-- APIFuzzer&#45;&gt;Carver -->
<g id="edge33" class="edge">
<title>APIFuzzer&#45;&gt;Carver</title>
<path fill="none" stroke="#000000" d="M664.1833,-71.8314C689.2559,-62.0734 720.3367,-49.977 746.6809,-39.7242"/>
<polygon fill="#000000" stroke="#000000" points="748.1027,-42.9266 756.1524,-36.038 745.5638,-36.4033 748.1027,-42.9266"/>
</g>
<!-- SymbolicFuzzer -->
<g id="node27" class="node">
<title>SymbolicFuzzer</title>
<g id="a_node27"><a xlink:href="SymbolicFuzzer.ipynb" xlink:title="SymbolicFuzzer">
<polygon fill="#ffffff" stroke="#000000" points="422.5,-36 302.5,-36 302.5,0 428.5,0 428.5,-30 422.5,-36"/>
<polyline fill="none" stroke="#000000" points="422.5,-36 422.5,-30 "/>
<polyline fill="none" stroke="#000000" points="428.5,-30 422.5,-30 "/>
<text text-anchor="middle" x="365.5" y="-14.3" font-family="Patua One" font-size="14.00" fill="#b03a2e">Symbolic Fuzzing</text>
</a>
</g>
</g>
<!-- ConcolicFuzzer&#45;&gt;SymbolicFuzzer -->
<g id="edge32" class="edge">
<title>ConcolicFuzzer&#45;&gt;SymbolicFuzzer</title>
<path fill="none" stroke="#000000" d="M365.5,-71.8314C365.5,-64.131 365.5,-54.9743 365.5,-46.4166"/>
<polygon fill="#000000" stroke="#000000" points="369.0001,-46.4132 365.5,-36.4133 362.0001,-46.4133 369.0001,-46.4132"/>
</g>
</g>
</svg>
