<?xml version="1.0" encoding="UTF-8" standalone="no"?>
<!DOCTYPE svg PUBLIC "-//W3C//DTD SVG 1.1//EN"
 "http://www.w3.org/Graphics/SVG/1.1/DTD/svg11.dtd">
<!-- Generated by graphviz version 2.40.1 (20161225.0304)
 -->
<!-- Title: %3 Pages: 1 -->
<svg width="1396pt" height="548pt"
 viewBox="0.00 0.00 1395.67 548.00" xmlns="http://www.w3.org/2000/svg" xmlns:xlink="http://www.w3.org/1999/xlink">
<g id="graph0" class="graph" transform="scale(1 1) rotate(0) translate(4 544)">
<title>%3</title>
<polygon fill="#ffffff" stroke="transparent" points="-4,4 -4,-544 1391.6719,-544 1391.6719,4 -4,4"/>
<!-- Fuzzer -->
<g id="node1" class="node">
<title>Fuzzer</title>
<g id="a_node1"><a xlink:href="Fuzzer.ipynb" xlink:title="Fuzzer">
<polygon fill="#ffffff" stroke="#000000" points="1082.6906,-468 787.0125,-468 787.0125,-432 1088.6906,-432 1088.6906,-462 1082.6906,-468"/>
<polyline fill="none" stroke="#000000" points="1082.6906,-468 1082.6906,-462 "/>
<polyline fill="none" stroke="#000000" points="1088.6906,-462 1082.6906,-462 "/>
<text text-anchor="middle" x="937.8516" y="-445.8" font-family="Patua One" font-size="14.00" fill="#b03a2e">Fuzzing: Breaking Things with Random Inputs</text>
</a>
</g>
</g>
<!-- Coverage -->
<g id="node2" class="node">
<title>Coverage</title>
<g id="a_node2"><a xlink:href="Coverage.ipynb" xlink:title="Coverage">
<polygon fill="#ffffff" stroke="#000000" points="413.5823,-324 294.1208,-324 294.1208,-288 419.5823,-288 419.5823,-318 413.5823,-324"/>
<polyline fill="none" stroke="#000000" points="413.5823,-324 413.5823,-318 "/>
<polyline fill="none" stroke="#000000" points="419.5823,-318 413.5823,-318 "/>
<text text-anchor="middle" x="356.8516" y="-301.8" font-family="Patua One" font-size="14.00" fill="#b03a2e">Getting Coverage</text>
</a>
</g>
</g>
<!-- Fuzzer&#45;&gt;Coverage -->
<g id="edge1" class="edge">
<title>Fuzzer&#45;&gt;Coverage</title>
<path fill="none" stroke="#000000" d="M865.1493,-431.9808C753.5736,-404.327 541.3418,-351.7256 429.6865,-324.052"/>
<polygon fill="#000000" stroke="#000000" points="430.4056,-320.6244 419.8572,-321.6159 428.7215,-327.4189 430.4056,-320.6244"/>
</g>
<!-- SearchBasedFuzzer -->
<g id="node3" class="node">
<title>SearchBasedFuzzer</title>
<g id="a_node3"><a xlink:href="SearchBasedFuzzer.ipynb" xlink:title="SearchBasedFuzzer">
<polygon fill="#ffffff" stroke="#000000" points="1277.479,-324 1126.2242,-324 1126.2242,-288 1283.479,-288 1283.479,-318 1277.479,-324"/>
<polyline fill="none" stroke="#000000" points="1277.479,-324 1277.479,-318 "/>
<polyline fill="none" stroke="#000000" points="1283.479,-318 1277.479,-318 "/>
<text text-anchor="middle" x="1204.8516" y="-301.8" font-family="Patua One" font-size="14.00" fill="#b03a2e">Search&#45;Based Fuzzing</text>
</a>
</g>
</g>
<!-- Fuzzer&#45;&gt;SearchBasedFuzzer -->
<g id="edge2" class="edge">
<title>Fuzzer&#45;&gt;SearchBasedFuzzer</title>
<path fill="none" stroke="#000000" d="M936.3281,-431.7893C935.6957,-411.4532 938.0537,-378.9174 956.8516,-360 979.1015,-337.6085 1054.1259,-323.3664 1115.8837,-315.1653"/>
<polygon fill="#000000" stroke="#000000" points="1116.5934,-318.6028 1126.0631,-313.8515 1115.6973,-311.6604 1116.5934,-318.6028"/>
</g>
<!-- Grammars -->
<g id="node4" class="node">
<title>Grammars</title>
<g id="a_node4"><a xlink:href="Grammars.ipynb" xlink:title="Grammars">
<polygon fill="#ffffff" stroke="#000000" points="903.6583,-396 746.0448,-396 746.0448,-360 909.6583,-360 909.6583,-390 903.6583,-396"/>
<polyline fill="none" stroke="#000000" points="903.6583,-396 903.6583,-390 "/>
<polyline fill="none" stroke="#000000" points="909.6583,-390 903.6583,-390 "/>
<text text-anchor="middle" x="827.8516" y="-373.8" font-family="Patua One" font-size="14.00" fill="#b03a2e">Fuzzing with Grammars</text>
</a>
</g>
</g>
<!-- Fuzzer&#45;&gt;Grammars -->
<g id="edge3" class="edge">
<title>Fuzzer&#45;&gt;Grammars</title>
<path fill="none" stroke="#000000" d="M910.0939,-431.8314C896.1545,-422.7074 879.0918,-411.539 864.1284,-401.7449"/>
<polygon fill="#000000" stroke="#000000" points="865.8842,-398.711 855.6003,-396.1628 862.0505,-404.5679 865.8842,-398.711"/>
</g>
<!-- InformationFlow -->
<g id="node5" class="node">
<title>InformationFlow</title>
<g id="a_node5"><a xlink:href="InformationFlow.ipynb" xlink:title="InformationFlow">
<polygon fill="#ffffff" stroke="#000000" points="1135.8941,-396 965.809,-396 965.809,-360 1141.8941,-360 1141.8941,-390 1135.8941,-396"/>
<polyline fill="none" stroke="#000000" points="1135.8941,-396 1135.8941,-390 "/>
<polyline fill="none" stroke="#000000" points="1141.8941,-390 1135.8941,-390 "/>
<text text-anchor="middle" x="1053.8516" y="-373.8" font-family="Patua One" font-size="14.00" fill="#b03a2e">Tracking Information Flow</text>
</a>
</g>
</g>
<!-- Fuzzer&#45;&gt;InformationFlow -->
<g id="edge4" class="edge">
<title>Fuzzer&#45;&gt;InformationFlow</title>
<path fill="none" stroke="#000000" d="M967.1233,-431.8314C981.9604,-422.6221 1000.1531,-411.3301 1016.0378,-401.4706"/>
<polygon fill="#000000" stroke="#000000" points="1017.9386,-404.4102 1024.5892,-396.1628 1014.247,-398.4628 1017.9386,-404.4102"/>
</g>
<!-- FuzzingInTheLarge -->
<g id="node6" class="node">
<title>FuzzingInTheLarge</title>
<g id="a_node6"><a xlink:href="FuzzingInTheLarge.ipynb" xlink:title="FuzzingInTheLarge">
<polygon fill="#ffffff" stroke="#000000" points="1381.4925,-396 1160.2107,-396 1160.2107,-360 1387.4925,-360 1387.4925,-390 1381.4925,-396"/>
<polyline fill="none" stroke="#000000" points="1381.4925,-396 1381.4925,-390 "/>
<polyline fill="none" stroke="#000000" points="1387.4925,-390 1381.4925,-390 "/>
<text text-anchor="middle" x="1273.8516" y="-373.8" font-family="Patua One" font-size="14.00" fill="#b03a2e">Practical Steps with FuzzManager</text>
</a>
</g>
</g>
<!-- Fuzzer&#45;&gt;FuzzingInTheLarge -->
<g id="edge5" class="edge">
<title>Fuzzer&#45;&gt;FuzzingInTheLarge</title>
<path fill="none" stroke="#000000" d="M1022.2049,-431.9243C1070.1262,-421.6554 1130.2384,-408.7743 1179.693,-398.1768"/>
<polygon fill="#000000" stroke="#000000" points="1180.7104,-401.5384 1189.755,-396.0207 1179.2436,-394.6937 1180.7104,-401.5384"/>
</g>
<!-- MutationFuzzer -->
<g id="node8" class="node">
<title>MutationFuzzer</title>
<g id="a_node8"><a xlink:href="MutationFuzzer.ipynb" xlink:title="MutationFuzzer">
<polygon fill="#ffffff" stroke="#000000" points="342.3164,-252 181.3867,-252 181.3867,-216 348.3164,-216 348.3164,-246 342.3164,-252"/>
<polyline fill="none" stroke="#000000" points="342.3164,-252 342.3164,-246 "/>
<polyline fill="none" stroke="#000000" points="348.3164,-246 342.3164,-246 "/>
<text text-anchor="middle" x="264.8516" y="-229.8" font-family="Patua One" font-size="14.00" fill="#b03a2e">Mutation&#45;Based Fuzzing</text>
</a>
</g>
</g>
<!-- Coverage&#45;&gt;MutationFuzzer -->
<g id="edge7" class="edge">
<title>Coverage&#45;&gt;MutationFuzzer</title>
<path fill="none" stroke="#000000" d="M333.6361,-287.8314C322.3045,-278.9632 308.5052,-268.1637 296.2489,-258.5718"/>
<polygon fill="#000000" stroke="#000000" points="298.0918,-255.5697 288.0596,-252.1628 293.7776,-261.0822 298.0918,-255.5697"/>
</g>
<!-- GrammarCoverageFuzzer -->
<g id="node9" class="node">
<title>GrammarCoverageFuzzer</title>
<g id="a_node9"><a xlink:href="GrammarCoverageFuzzer.ipynb" xlink:title="GrammarCoverageFuzzer">
<polygon fill="#ffffff" stroke="#000000" points="804.555,-252 671.1481,-252 671.1481,-216 810.555,-216 810.555,-246 804.555,-252"/>
<polyline fill="none" stroke="#000000" points="804.555,-252 804.555,-246 "/>
<polyline fill="none" stroke="#000000" points="810.555,-246 804.555,-246 "/>
<text text-anchor="middle" x="740.8516" y="-229.8" font-family="Patua One" font-size="14.00" fill="#b03a2e">Grammar Coverage</text>
</a>
</g>
</g>
<!-- Coverage&#45;&gt;GrammarCoverageFuzzer -->
<g id="edge8" class="edge">
<title>Coverage&#45;&gt;GrammarCoverageFuzzer</title>
<path fill="none" stroke="#000000" d="M419.8153,-295.7744C479.3733,-285.8927 571.4906,-270.0702 661.0456,-252.114"/>
<polygon fill="#000000" stroke="#000000" points="661.9936,-255.4934 671.1045,-250.0858 660.6099,-248.6315 661.9936,-255.4934"/>
</g>
<!-- ProbabilisticGrammarFuzzer -->
<g id="node10" class="node">
<title>ProbabilisticGrammarFuzzer</title>
<g id="a_node10"><a xlink:href="ProbabilisticGrammarFuzzer.ipynb" xlink:title="ProbabilisticGrammarFuzzer">
<polygon fill="#ffffff" stroke="#000000" points="351.7377,-180 149.9655,-180 149.9655,-144 357.7377,-144 357.7377,-174 351.7377,-180"/>
<polyline fill="none" stroke="#000000" points="351.7377,-180 351.7377,-174 "/>
<polyline fill="none" stroke="#000000" points="357.7377,-174 351.7377,-174 "/>
<text text-anchor="middle" x="253.8516" y="-157.8" font-family="Patua One" font-size="14.00" fill="#b03a2e">Probabilistic Grammar Fuzzing</text>
</a>
</g>
</g>
<!-- Coverage&#45;&gt;ProbabilisticGrammarFuzzer -->
<g id="edge9" class="edge">
<title>Coverage&#45;&gt;ProbabilisticGrammarFuzzer</title>
<path fill="none" stroke="#000000" d="M293.6422,-295.7138C246.4082,-286.5868 187.5668,-271.6544 172.8516,-252 163.2622,-239.192 165.3018,-230.1068 172.8516,-216 179.5255,-203.5296 190.4922,-193.4416 202.2317,-185.5111"/>
<polygon fill="#000000" stroke="#000000" points="204.2412,-188.3826 210.8662,-180.1146 200.5312,-182.4466 204.2412,-188.3826"/>
</g>
<!-- GrammarMiner -->
<g id="node11" class="node">
<title>GrammarMiner</title>
<g id="a_node11"><a xlink:href="GrammarMiner.ipynb" xlink:title="GrammarMiner">
<polygon fill="#ffffff" stroke="#000000" points="523.1203,-252 366.5828,-252 366.5828,-216 529.1203,-216 529.1203,-246 523.1203,-252"/>
<polyline fill="none" stroke="#000000" points="523.1203,-252 523.1203,-246 "/>
<polyline fill="none" stroke="#000000" points="529.1203,-246 523.1203,-246 "/>
<text text-anchor="middle" x="447.8516" y="-229.8" font-family="Patua One" font-size="14.00" fill="#b03a2e">Mining Input Grammars</text>
</a>
</g>
</g>
<!-- Coverage&#45;&gt;GrammarMiner -->
<g id="edge10" class="edge">
<title>Coverage&#45;&gt;GrammarMiner</title>
<path fill="none" stroke="#000000" d="M379.8147,-287.8314C391.0231,-278.9632 404.6725,-268.1637 416.7955,-258.5718"/>
<polygon fill="#000000" stroke="#000000" points="419.2252,-261.1125 424.8958,-252.1628 414.8818,-255.6229 419.2252,-261.1125"/>
</g>
<!-- SymbolicFuzzer -->
<g id="node12" class="node">
<title>SymbolicFuzzer</title>
<g id="a_node12"><a xlink:href="SymbolicFuzzer.ipynb" xlink:title="SymbolicFuzzer">
<polygon fill="#ffffff" stroke="#000000" points="119.555,-252 .1481,-252 .1481,-216 125.555,-216 125.555,-246 119.555,-252"/>
<polyline fill="none" stroke="#000000" points="119.555,-252 119.555,-246 "/>
<polyline fill="none" stroke="#000000" points="125.555,-246 119.555,-246 "/>
<text text-anchor="middle" x="62.8516" y="-229.8" font-family="Patua One" font-size="14.00" fill="#b03a2e">Symbolic Fuzzing</text>
</a>
</g>
</g>
<!-- Coverage&#45;&gt;SymbolicFuzzer -->
<g id="edge11" class="edge">
<title>Coverage&#45;&gt;SymbolicFuzzer</title>
<path fill="none" stroke="#000000" d="M293.7812,-290.5542C247.2945,-279.1697 183.9673,-263.661 135.3855,-251.7634"/>
<polygon fill="#000000" stroke="#000000" points="136.1104,-248.3376 125.5648,-249.3584 134.4453,-255.1367 136.1104,-248.3376"/>
</g>
<!-- EvoGrammarFuzzer -->
<g id="node13" class="node">
<title>EvoGrammarFuzzer</title>
<g id="a_node13"><a xlink:href="EvoGrammarFuzzer.ipynb" xlink:title="EvoGrammarFuzzer">
<polygon fill="#ffffff" stroke="#000000" points="1263.3027,-108 1060.4004,-108 1060.4004,-72 1269.3027,-72 1269.3027,-102 1263.3027,-108"/>
<polyline fill="none" stroke="#000000" points="1263.3027,-108 1263.3027,-102 "/>
<polyline fill="none" stroke="#000000" points="1269.3027,-102 1263.3027,-102 "/>
<text text-anchor="middle" x="1164.8516" y="-85.8" font-family="Patua One" font-size="14.00" fill="#b03a2e">Evolutionary Grammar Fuzzing</text>
</a>
</g>
</g>
<!-- SearchBasedFuzzer&#45;&gt;EvoGrammarFuzzer -->
<g id="edge12" class="edge">
<title>SearchBasedFuzzer&#45;&gt;EvoGrammarFuzzer</title>
<path fill="none" stroke="#000000" d="M1249.3085,-287.8691C1264.3242,-279.346 1279.4092,-267.5645 1287.8516,-252 1295.4802,-237.9357 1293.7078,-230.8898 1287.8516,-216 1270.8229,-172.7037 1230.5697,-136.3546 1200.7242,-113.9947"/>
<polygon fill="#000000" stroke="#000000" points="1202.749,-111.1394 1192.6101,-108.0648 1198.6187,-116.7911 1202.749,-111.1394"/>
</g>
<!-- GrammarFuzzer -->
<g id="node14" class="node">
<title>GrammarFuzzer</title>
<g id="a_node14"><a xlink:href="GrammarFuzzer.ipynb" xlink:title="GrammarFuzzer">
<polygon fill="#ffffff" stroke="#000000" points="912.5618,-324 737.1414,-324 737.1414,-288 918.5618,-288 918.5618,-318 912.5618,-324"/>
<polyline fill="none" stroke="#000000" points="912.5618,-324 912.5618,-318 "/>
<polyline fill="none" stroke="#000000" points="918.5618,-318 912.5618,-318 "/>
<text text-anchor="middle" x="827.8516" y="-301.8" font-family="Patua One" font-size="14.00" fill="#b03a2e">Efficient Grammar Fuzzing</text>
</a>
</g>
</g>
<!-- Grammars&#45;&gt;GrammarFuzzer -->
<g id="edge13" class="edge">
<title>Grammars&#45;&gt;GrammarFuzzer</title>
<path fill="none" stroke="#000000" d="M827.8516,-359.8314C827.8516,-352.131 827.8516,-342.9743 827.8516,-334.4166"/>
<polygon fill="#000000" stroke="#000000" points="831.3517,-334.4132 827.8516,-324.4133 824.3517,-334.4133 831.3517,-334.4132"/>
</g>
<!-- Intro_Testing -->
<g id="node7" class="node">
<title>Intro_Testing</title>
<g id="a_node7"><a xlink:href="Intro_Testing.ipynb" xlink:title="Intro_Testing">
<polygon fill="#ffffff" stroke="#000000" points="1037.7149,-540 831.9882,-540 831.9882,-504 1043.7149,-504 1043.7149,-534 1037.7149,-540"/>
<polyline fill="none" stroke="#000000" points="1037.7149,-540 1037.7149,-534 "/>
<polyline fill="none" stroke="#000000" points="1043.7149,-534 1037.7149,-534 "/>
<text text-anchor="middle" x="937.8516" y="-517.8" font-family="Patua One" font-size="14.00" fill="#b03a2e">Introduction to Software Testing</text>
</a>
</g>
</g>
<!-- Intro_Testing&#45;&gt;Fuzzer -->
<g id="edge6" class="edge">
<title>Intro_Testing&#45;&gt;Fuzzer</title>
<path fill="none" stroke="#000000" d="M937.8516,-503.8314C937.8516,-496.131 937.8516,-486.9743 937.8516,-478.4166"/>
<polygon fill="#000000" stroke="#000000" points="941.3517,-478.4132 937.8516,-468.4133 934.3517,-478.4133 941.3517,-478.4132"/>
</g>
<!-- ConfigurationFuzzer -->
<g id="node19" class="node">
<title>ConfigurationFuzzer</title>
<g id="a_node19"><a xlink:href="ConfigurationFuzzer.ipynb" xlink:title="ConfigurationFuzzer">
<polygon fill="#ffffff" stroke="#000000" points="741.8757,-180 593.8274,-180 593.8274,-144 747.8757,-144 747.8757,-174 741.8757,-180"/>
<polyline fill="none" stroke="#000000" points="741.8757,-180 741.8757,-174 "/>
<polyline fill="none" stroke="#000000" points="747.8757,-174 741.8757,-174 "/>
<text text-anchor="middle" x="670.8516" y="-157.8" font-family="Patua One" font-size="14.00" fill="#b03a2e">Testing Configurations</text>
</a>
</g>
</g>
<!-- GrammarCoverageFuzzer&#45;&gt;ConfigurationFuzzer -->
<g id="edge20" class="edge">
<title>GrammarCoverageFuzzer&#45;&gt;ConfigurationFuzzer</title>
<path fill="none" stroke="#000000" d="M723.1876,-215.8314C714.8784,-207.2848 704.8252,-196.9443 695.7597,-187.6198"/>
<polygon fill="#000000" stroke="#000000" points="698.2337,-185.1435 688.7533,-180.4133 693.2147,-190.023 698.2337,-185.1435"/>
</g>
<!-- Carver -->
<g id="node20" class="node">
<title>Carver</title>
<g id="a_node20"><a xlink:href="Carver.ipynb" xlink:title="Carver">
<polygon fill="#ffffff" stroke="#000000" points="872.6987,-36 749.0044,-36 749.0044,0 878.6987,0 878.6987,-30 872.6987,-36"/>
<polyline fill="none" stroke="#000000" points="872.6987,-36 872.6987,-30 "/>
<polyline fill="none" stroke="#000000" points="878.6987,-30 872.6987,-30 "/>
<text text-anchor="middle" x="813.8516" y="-13.8" font-family="Patua One" font-size="14.00" fill="#b03a2e">Carving Unit Tests</text>
</a>
</g>
</g>
<!-- GrammarCoverageFuzzer&#45;&gt;Carver -->
<g id="edge21" class="edge">
<title>GrammarCoverageFuzzer&#45;&gt;Carver</title>
<path fill="none" stroke="#000000" d="M746.7476,-215.9878C756.5725,-186.0471 776.9812,-124.1662 794.8516,-72 797.7367,-63.5779 800.9291,-54.438 803.8605,-46.1139"/>
<polygon fill="#000000" stroke="#000000" points="807.2372,-47.0628 807.2684,-36.468 800.637,-44.7309 807.2372,-47.0628"/>
</g>
<!-- GUIFuzzer -->
<g id="node21" class="node">
<title>GUIFuzzer</title>
<g id="a_node21"><a xlink:href="GUIFuzzer.ipynb" xlink:title="GUIFuzzer">
<polygon fill="#ffffff" stroke="#000000" points="1020.3301,-180 803.373,-180 803.373,-144 1026.3301,-144 1026.3301,-174 1020.3301,-180"/>
<polyline fill="none" stroke="#000000" points="1020.3301,-180 1020.3301,-174 "/>
<polyline fill="none" stroke="#000000" points="1026.3301,-174 1020.3301,-174 "/>
<text text-anchor="middle" x="914.8516" y="-157.8" font-family="Patua One" font-size="14.00" fill="#b03a2e">Testing Graphical User Interfaces</text>
</a>
</g>
</g>
<!-- GrammarCoverageFuzzer&#45;&gt;GUIFuzzer -->
<g id="edge22" class="edge">
<title>GrammarCoverageFuzzer&#45;&gt;GUIFuzzer</title>
<path fill="none" stroke="#000000" d="M784.7591,-215.8314C808.134,-206.159 837.0613,-194.1891 861.6983,-183.9944"/>
<polygon fill="#000000" stroke="#000000" points="863.3578,-187.0956 871.2598,-180.038 860.6813,-180.6275 863.3578,-187.0956"/>
</g>
<!-- APIFuzzer -->
<g id="node23" class="node">
<title>APIFuzzer</title>
<g id="a_node23"><a xlink:href="APIFuzzer.ipynb" xlink:title="APIFuzzer">
<polygon fill="#ffffff" stroke="#000000" points="895.562,-108 804.1412,-108 804.1412,-72 901.562,-72 901.562,-102 895.562,-108"/>
<polyline fill="none" stroke="#000000" points="895.562,-108 895.562,-102 "/>
<polyline fill="none" stroke="#000000" points="901.562,-102 895.562,-102 "/>
<text text-anchor="middle" x="852.8516" y="-85.8" font-family="Patua One" font-size="14.00" fill="#b03a2e">Fuzzing APIs</text>
</a>
</g>
</g>
<!-- ProbabilisticGrammarFuzzer&#45;&gt;APIFuzzer -->
<g id="edge26" class="edge">
<title>ProbabilisticGrammarFuzzer&#45;&gt;APIFuzzer</title>
<path fill="none" stroke="#000000" d="M357.5797,-145.2817C360.704,-144.8407 363.8002,-144.4123 366.8516,-144 520.5636,-123.2297 702.4217,-104.6009 793.9529,-95.6367"/>
<polygon fill="#000000" stroke="#000000" points="794.5136,-99.0987 804.1263,-94.6437 793.8336,-92.1318 794.5136,-99.0987"/>
</g>
<!-- GrammarFuzzer&#45;&gt;GrammarCoverageFuzzer -->
<g id="edge14" class="edge">
<title>GrammarFuzzer&#45;&gt;GrammarCoverageFuzzer</title>
<path fill="none" stroke="#000000" d="M805.8978,-287.8314C795.1821,-278.9632 782.1327,-268.1637 770.5425,-258.5718"/>
<polygon fill="#000000" stroke="#000000" points="772.7338,-255.8422 762.7983,-252.1628 768.2708,-261.2349 772.7338,-255.8422"/>
</g>
<!-- GrammarFuzzer&#45;&gt;GrammarMiner -->
<g id="edge18" class="edge">
<title>GrammarFuzzer&#45;&gt;GrammarMiner</title>
<path fill="none" stroke="#000000" d="M737.0127,-289.4056C682.3916,-279.3516 611.2102,-266.1171 539.4107,-252.2902"/>
<polygon fill="#000000" stroke="#000000" points="539.759,-248.793 529.2771,-250.3355 538.4331,-255.6663 539.759,-248.793"/>
</g>
<!-- Parser -->
<g id="node15" class="node">
<title>Parser</title>
<g id="a_node15"><a xlink:href="Parser.ipynb" xlink:title="Parser">
<polygon fill="#ffffff" stroke="#000000" points="646.8488,-252 546.8543,-252 546.8543,-216 652.8488,-216 652.8488,-246 646.8488,-252"/>
<polyline fill="none" stroke="#000000" points="646.8488,-252 646.8488,-246 "/>
<polyline fill="none" stroke="#000000" points="652.8488,-246 646.8488,-246 "/>
<text text-anchor="middle" x="599.8516" y="-229.8" font-family="Patua One" font-size="14.00" fill="#b03a2e">Parsing Inputs</text>
</a>
</g>
</g>
<!-- GrammarFuzzer&#45;&gt;Parser -->
<g id="edge15" class="edge">
<title>GrammarFuzzer&#45;&gt;Parser</title>
<path fill="none" stroke="#000000" d="M770.6118,-287.9243C737.7157,-277.536 696.3537,-264.4744 662.5773,-253.8081"/>
<polygon fill="#000000" stroke="#000000" points="663.4019,-250.3982 652.812,-250.7244 661.2939,-257.0733 663.4019,-250.3982"/>
</g>
<!-- GeneratorGrammarFuzzer -->
<g id="node16" class="node">
<title>GeneratorGrammarFuzzer</title>
<g id="a_node16"><a xlink:href="GeneratorGrammarFuzzer.ipynb" xlink:title="GeneratorGrammarFuzzer">
<polygon fill="#ffffff" stroke="#000000" points="1205.5822,-180 1044.1209,-180 1044.1209,-144 1211.5822,-144 1211.5822,-174 1205.5822,-180"/>
<polyline fill="none" stroke="#000000" points="1205.5822,-180 1205.5822,-174 "/>
<polyline fill="none" stroke="#000000" points="1211.5822,-174 1205.5822,-174 "/>
<text text-anchor="middle" x="1127.8516" y="-157.8" font-family="Patua One" font-size="14.00" fill="#b03a2e">Fuzzing with Generators</text>
</a>
</g>
</g>
<!-- GrammarFuzzer&#45;&gt;GeneratorGrammarFuzzer -->
<g id="edge16" class="edge">
<title>GrammarFuzzer&#45;&gt;GeneratorGrammarFuzzer</title>
<path fill="none" stroke="#000000" d="M918.7537,-288.0036C948.9871,-279.7221 982.0189,-268.0619 1009.8516,-252 1030.0014,-240.3717 1029.7043,-230.5572 1047.8516,-216 1061.04,-205.4206 1076.2598,-194.7921 1089.8609,-185.7967"/>
<polygon fill="#000000" stroke="#000000" points="1092.0677,-188.5359 1098.5275,-180.1382 1088.2407,-182.6746 1092.0677,-188.5359"/>
</g>
<!-- Reducer -->
<g id="node17" class="node">
<title>Reducer</title>
<g id="a_node17"><a xlink:href="Reducer.ipynb" xlink:title="Reducer">
<polygon fill="#ffffff" stroke="#000000" points="1272.8061,-252 1056.897,-252 1056.897,-216 1278.8061,-216 1278.8061,-246 1272.8061,-252"/>
<polyline fill="none" stroke="#000000" points="1272.8061,-252 1272.8061,-246 "/>
<polyline fill="none" stroke="#000000" points="1278.8061,-246 1272.8061,-246 "/>
<text text-anchor="middle" x="1167.8516" y="-229.8" font-family="Patua One" font-size="14.00" fill="#b03a2e">Reducing Failure&#45;Inducing Inputs</text>
</a>
</g>
</g>
<!-- GrammarFuzzer&#45;&gt;Reducer -->
<g id="edge17" class="edge">
<title>GrammarFuzzer&#45;&gt;Reducer</title>
<path fill="none" stroke="#000000" d="M913.2091,-287.9243C961.8021,-277.634 1022.7827,-264.7205 1072.8853,-254.1105"/>
<polygon fill="#000000" stroke="#000000" points="1073.696,-257.5165 1082.7539,-252.0207 1072.2457,-250.6684 1073.696,-257.5165"/>
</g>
<!-- WebFuzzer -->
<g id="node18" class="node">
<title>WebFuzzer</title>
<g id="a_node18"><a xlink:href="WebFuzzer.ipynb" xlink:title="WebFuzzer">
<polygon fill="#ffffff" stroke="#000000" points="994.7534,-252 828.9497,-252 828.9497,-216 1000.7534,-216 1000.7534,-246 994.7534,-252"/>
<polyline fill="none" stroke="#000000" points="994.7534,-252 994.7534,-246 "/>
<polyline fill="none" stroke="#000000" points="1000.7534,-246 994.7534,-246 "/>
<text text-anchor="middle" x="914.8516" y="-229.8" font-family="Patua One" font-size="14.00" fill="#b03a2e">Testing Web Applications</text>
</a>
</g>
</g>
<!-- GrammarFuzzer&#45;&gt;WebFuzzer -->
<g id="edge19" class="edge">
<title>GrammarFuzzer&#45;&gt;WebFuzzer</title>
<path fill="none" stroke="#000000" d="M849.8053,-287.8314C860.521,-278.9632 873.5704,-268.1637 885.1606,-258.5718"/>
<polygon fill="#000000" stroke="#000000" points="887.4323,-261.2349 892.9048,-252.1628 882.9693,-255.8422 887.4323,-261.2349"/>
</g>
<!-- Parser&#45;&gt;ProbabilisticGrammarFuzzer -->
<g id="edge24" class="edge">
<title>Parser&#45;&gt;ProbabilisticGrammarFuzzer</title>
<path fill="none" stroke="#000000" d="M546.8397,-218.2516C543.8063,-217.4621 540.7945,-216.7053 537.8516,-216 482.1417,-202.6484 419.6509,-190.4677 367.5013,-181.0681"/>
<polygon fill="#000000" stroke="#000000" points="368.0123,-177.604 357.5518,-179.2858 366.7779,-184.4943 368.0123,-177.604"/>
</g>
<!-- LangFuzzer -->
<g id="node22" class="node">
<title>LangFuzzer</title>
<g id="a_node22"><a xlink:href="LangFuzzer.ipynb" xlink:title="LangFuzzer">
<polygon fill="#ffffff" stroke="#000000" points="569.4857,-180 376.2174,-180 376.2174,-144 575.4857,-144 575.4857,-174 569.4857,-180"/>
<polyline fill="none" stroke="#000000" points="569.4857,-180 569.4857,-174 "/>
<polyline fill="none" stroke="#000000" points="575.4857,-174 569.4857,-174 "/>
<text text-anchor="middle" x="475.8516" y="-157.8" font-family="Patua One" font-size="14.00" fill="#b03a2e">Fuzzing with Input Fragments</text>
</a>
</g>
</g>
<!-- Parser&#45;&gt;LangFuzzer -->
<g id="edge23" class="edge">
<title>Parser&#45;&gt;LangFuzzer</title>
<path fill="none" stroke="#000000" d="M568.5611,-215.8314C552.5539,-206.5368 532.893,-195.1208 515.8021,-185.1971"/>
<polygon fill="#000000" stroke="#000000" points="517.5374,-182.1575 507.132,-180.1628 514.0224,-188.211 517.5374,-182.1575"/>
</g>
<!-- GeneratorGrammarFuzzer&#45;&gt;APIFuzzer -->
<g id="edge27" class="edge">
<title>GeneratorGrammarFuzzer&#45;&gt;APIFuzzer</title>
<path fill="none" stroke="#000000" d="M1058.8124,-143.9243C1013.4978,-132.0601 954.8646,-116.7089 911.7529,-105.4214"/>
<polygon fill="#000000" stroke="#000000" points="912.535,-102.0083 901.9745,-102.8613 910.762,-108.78 912.535,-102.0083"/>
</g>
<!-- WebFuzzer&#45;&gt;GUIFuzzer -->
<g id="edge29" class="edge">
<title>WebFuzzer&#45;&gt;GUIFuzzer</title>
<path fill="none" stroke="#000000" d="M914.8516,-215.8314C914.8516,-208.131 914.8516,-198.9743 914.8516,-190.4166"/>
<polygon fill="#000000" stroke="#000000" points="918.3517,-190.4132 914.8516,-180.4133 911.3517,-190.4133 918.3517,-190.4132"/>
</g>
<!-- LangFuzzer&#45;&gt;EvoGrammarFuzzer -->
<g id="edge25" class="edge">
<title>LangFuzzer&#45;&gt;EvoGrammarFuzzer</title>
<path fill="none" stroke="#000000" d="M575.6024,-145.237C578.7191,-144.8062 581.808,-144.3925 584.8516,-144 745.9024,-123.2315 933.1022,-107.2718 1050.2888,-98.2591"/>
<polygon fill="#000000" stroke="#000000" points="1050.6507,-101.7417 1060.3545,-97.4888 1050.1165,-94.7621 1050.6507,-101.7417"/>
</g>
<!-- APIFuzzer&#45;&gt;Carver -->
<g id="edge28" class="edge">
<title>APIFuzzer&#45;&gt;Carver</title>
<path fill="none" stroke="#000000" d="M843.0102,-71.8314C838.6558,-63.7925 833.4418,-54.1666 828.6346,-45.2918"/>
<polygon fill="#000000" stroke="#000000" points="831.6658,-43.5392 823.8254,-36.4133 825.5108,-46.8732 831.6658,-43.5392"/>
</g>
</g>
</svg>
