<?xml version="1.0" encoding="UTF-8" standalone="no"?>
<!DOCTYPE svg PUBLIC "-//W3C//DTD SVG 1.1//EN"
 "http://www.w3.org/Graphics/SVG/1.1/DTD/svg11.dtd">
<!-- Generated by graphviz version 2.40.1 (20161225.0304)
 -->
<!-- Title: %3 Pages: 1 -->
<svg width="1852pt" height="548pt"
 viewBox="0.00 0.00 1851.50 548.00" xmlns="http://www.w3.org/2000/svg" xmlns:xlink="http://www.w3.org/1999/xlink">
<g id="graph0" class="graph" transform="scale(1 1) rotate(0) translate(4 544)">
<title>%3</title>
<polygon fill="#ffffff" stroke="transparent" points="-4,4 -4,-544 1847.5,-544 1847.5,4 -4,4"/>
<!-- Fuzzer -->
<g id="node1" class="node">
<title>Fuzzer</title>
<g id="a_node1"><a xlink:href="Fuzzer.ipynb" xlink:title="Fuzzer">
<polygon fill="#ffffff" stroke="#000000" points="1364,-468 1066,-468 1066,-432 1370,-432 1370,-462 1364,-468"/>
<polyline fill="none" stroke="#000000" points="1364,-468 1364,-462 "/>
<polyline fill="none" stroke="#000000" points="1370,-462 1364,-462 "/>
<text text-anchor="middle" x="1218" y="-446.3" font-family="Patua One" font-size="14.00" fill="#b03a2e">Fuzzing: Breaking Things with Random Inputs</text>
</a>
</g>
</g>
<!-- Coverage -->
<g id="node2" class="node">
<title>Coverage</title>
<g id="a_node2"><a xlink:href="Coverage.ipynb" xlink:title="Coverage">
<polygon fill="#ffffff" stroke="#000000" points="711.5,-324 594.5,-324 594.5,-288 717.5,-288 717.5,-318 711.5,-324"/>
<polyline fill="none" stroke="#000000" points="711.5,-324 711.5,-318 "/>
<polyline fill="none" stroke="#000000" points="717.5,-318 711.5,-318 "/>
<text text-anchor="middle" x="656" y="-302.3" font-family="Patua One" font-size="14.00" fill="#b03a2e">Getting Coverage</text>
</a>
</g>
</g>
<!-- Fuzzer&#45;&gt;Coverage -->
<g id="edge1" class="edge">
<title>Fuzzer&#45;&gt;Coverage</title>
<path fill="none" stroke="#000000" d="M1147.6752,-431.9808C1040.1426,-404.428 835.9553,-352.1095 727.6404,-324.3563"/>
<polygon fill="#000000" stroke="#000000" points="728.3381,-320.922 717.7822,-321.8303 726.6005,-327.703 728.3381,-320.922"/>
</g>
<!-- SearchBasedFuzzer -->
<g id="node3" class="node">
<title>SearchBasedFuzzer</title>
<g id="a_node3"><a xlink:href="SearchBasedFuzzer.ipynb" xlink:title="SearchBasedFuzzer">
<polygon fill="#ffffff" stroke="#000000" points="1699,-324 1553,-324 1553,-288 1705,-288 1705,-318 1699,-324"/>
<polyline fill="none" stroke="#000000" points="1699,-324 1699,-318 "/>
<polyline fill="none" stroke="#000000" points="1705,-318 1699,-318 "/>
<text text-anchor="middle" x="1629" y="-302.3" font-family="Patua One" font-size="14.00" fill="#b03a2e">Search&#45;Based Fuzzing</text>
</a>
</g>
</g>
<!-- Fuzzer&#45;&gt;SearchBasedFuzzer -->
<g id="edge2" class="edge">
<title>Fuzzer&#45;&gt;SearchBasedFuzzer</title>
<path fill="none" stroke="#000000" d="M1230.8385,-431.721C1247.8301,-408.0751 1277.447,-368.8577 1293,-360 1334.5024,-336.3636 1457.5998,-321.0441 1542.6753,-312.9639"/>
<polygon fill="#000000" stroke="#000000" points="1543.2222,-316.4282 1552.8538,-312.0144 1542.5719,-309.4585 1543.2222,-316.4282"/>
</g>
<!-- Grammars -->
<g id="node4" class="node">
<title>Grammars</title>
<g id="a_node4"><a xlink:href="Grammars.ipynb" xlink:title="Grammars">
<polygon fill="#ffffff" stroke="#000000" points="1239.5,-396 1080.5,-396 1080.5,-360 1245.5,-360 1245.5,-390 1239.5,-396"/>
<polyline fill="none" stroke="#000000" points="1239.5,-396 1239.5,-390 "/>
<polyline fill="none" stroke="#000000" points="1245.5,-390 1239.5,-390 "/>
<text text-anchor="middle" x="1163" y="-374.3" font-family="Patua One" font-size="14.00" fill="#b03a2e">Fuzzing with Grammars</text>
</a>
</g>
</g>
<!-- Fuzzer&#45;&gt;Grammars -->
<g id="edge3" class="edge">
<title>Fuzzer&#45;&gt;Grammars</title>
<path fill="none" stroke="#000000" d="M1204.1212,-431.8314C1197.7864,-423.5386 1190.1616,-413.557 1183.2074,-404.4533"/>
<polygon fill="#000000" stroke="#000000" points="1185.9175,-402.2353 1177.0657,-396.4133 1180.3548,-406.4847 1185.9175,-402.2353"/>
</g>
<!-- FuzzingInTheLarge -->
<g id="node5" class="node">
<title>FuzzingInTheLarge</title>
<g id="a_node5"><a xlink:href="FuzzingInTheLarge.ipynb" xlink:title="FuzzingInTheLarge">
<polygon fill="#ffffff" stroke="#000000" points="1522,-396 1302,-396 1302,-360 1528,-360 1528,-390 1522,-396"/>
<polyline fill="none" stroke="#000000" points="1522,-396 1522,-390 "/>
<polyline fill="none" stroke="#000000" points="1528,-390 1522,-390 "/>
<text text-anchor="middle" x="1415" y="-374.3" font-family="Patua One" font-size="14.00" fill="#b03a2e">Practical Steps with FuzzManager</text>
</a>
</g>
</g>
<!-- Fuzzer&#45;&gt;FuzzingInTheLarge -->
<g id="edge4" class="edge">
<title>Fuzzer&#45;&gt;FuzzingInTheLarge</title>
<path fill="none" stroke="#000000" d="M1267.4571,-431.9243C1294.2711,-422.1243 1327.5949,-409.945 1355.7847,-399.6422"/>
<polygon fill="#000000" stroke="#000000" points="1357.3316,-402.8033 1365.5225,-396.0831 1354.9287,-396.2286 1357.3316,-402.8033"/>
</g>
<!-- MutationFuzzer -->
<g id="node7" class="node">
<title>MutationFuzzer</title>
<g id="a_node7"><a xlink:href="MutationFuzzer.ipynb" xlink:title="MutationFuzzer">
<polygon fill="#ffffff" stroke="#000000" points="564.5,-252 401.5,-252 401.5,-216 570.5,-216 570.5,-246 564.5,-252"/>
<polyline fill="none" stroke="#000000" points="564.5,-252 564.5,-246 "/>
<polyline fill="none" stroke="#000000" points="570.5,-246 564.5,-246 "/>
<text text-anchor="middle" x="486" y="-230.3" font-family="Patua One" font-size="14.00" fill="#b03a2e">Mutation&#45;Based Fuzzing</text>
</a>
</g>
</g>
<!-- Coverage&#45;&gt;MutationFuzzer -->
<g id="edge6" class="edge">
<title>Coverage&#45;&gt;MutationFuzzer</title>
<path fill="none" stroke="#000000" d="M613.1018,-287.8314C590.2643,-278.159 562.002,-266.1891 537.9313,-255.9944"/>
<polygon fill="#000000" stroke="#000000" points="539.1629,-252.7151 528.5897,-252.038 536.4329,-259.1608 539.1629,-252.7151"/>
</g>
<!-- GrammarCoverageFuzzer -->
<g id="node8" class="node">
<title>GrammarCoverageFuzzer</title>
<g id="a_node8"><a xlink:href="GrammarCoverageFuzzer.ipynb" xlink:title="GrammarCoverageFuzzer">
<polygon fill="#ffffff" stroke="#000000" points="717.5,-252 588.5,-252 588.5,-216 723.5,-216 723.5,-246 717.5,-252"/>
<polyline fill="none" stroke="#000000" points="717.5,-252 717.5,-246 "/>
<polyline fill="none" stroke="#000000" points="723.5,-246 717.5,-246 "/>
<text text-anchor="middle" x="656" y="-230.3" font-family="Patua One" font-size="14.00" fill="#b03a2e">Grammar Coverage</text>
</a>
</g>
</g>
<!-- Coverage&#45;&gt;GrammarCoverageFuzzer -->
<g id="edge7" class="edge">
<title>Coverage&#45;&gt;GrammarCoverageFuzzer</title>
<path fill="none" stroke="#000000" d="M656,-287.8314C656,-280.131 656,-270.9743 656,-262.4166"/>
<polygon fill="#000000" stroke="#000000" points="659.5001,-262.4132 656,-252.4133 652.5001,-262.4133 659.5001,-262.4132"/>
</g>
<!-- ProbabilisticGrammarFuzzer -->
<g id="node9" class="node">
<title>ProbabilisticGrammarFuzzer</title>
<g id="a_node9"><a xlink:href="ProbabilisticGrammarFuzzer.ipynb" xlink:title="ProbabilisticGrammarFuzzer">
<polygon fill="#ffffff" stroke="#000000" points="1159,-180 957,-180 957,-144 1165,-144 1165,-174 1159,-180"/>
<polyline fill="none" stroke="#000000" points="1159,-180 1159,-174 "/>
<polyline fill="none" stroke="#000000" points="1165,-174 1159,-174 "/>
<text text-anchor="middle" x="1061" y="-158.3" font-family="Patua One" font-size="14.00" fill="#b03a2e">Probabilistic Grammar Fuzzing</text>
</a>
</g>
</g>
<!-- Coverage&#45;&gt;ProbabilisticGrammarFuzzer -->
<g id="edge8" class="edge">
<title>Coverage&#45;&gt;ProbabilisticGrammarFuzzer</title>
<path fill="none" stroke="#000000" d="M717.5194,-297.6838C785.3524,-287.8115 889.5831,-270.3595 925,-252 945.6543,-241.2932 944.2154,-229.725 963,-216 978.7489,-204.4931 997.2193,-193.7056 1013.8538,-184.8434"/>
<polygon fill="#000000" stroke="#000000" points="1015.6371,-187.8606 1022.8773,-180.1257 1012.3938,-181.6573 1015.6371,-187.8606"/>
</g>
<!-- GrammarMiner -->
<g id="node10" class="node">
<title>GrammarMiner</title>
<g id="a_node10"><a xlink:href="GrammarMiner.ipynb" xlink:title="GrammarMiner">
<polygon fill="#ffffff" stroke="#000000" points="1133.5,-252 972.5,-252 972.5,-216 1139.5,-216 1139.5,-246 1133.5,-252"/>
<polyline fill="none" stroke="#000000" points="1133.5,-252 1133.5,-246 "/>
<polyline fill="none" stroke="#000000" points="1139.5,-246 1133.5,-246 "/>
<text text-anchor="middle" x="1056" y="-230.3" font-family="Patua One" font-size="14.00" fill="#b03a2e">Mining Input Grammars</text>
</a>
</g>
</g>
<!-- Coverage&#45;&gt;GrammarMiner -->
<g id="edge9" class="edge">
<title>Coverage&#45;&gt;GrammarMiner</title>
<path fill="none" stroke="#000000" d="M717.6144,-295.0704C778.6562,-284.2218 874.8018,-267.0788 958,-252 959.4628,-251.7349 960.9377,-251.4673 962.4225,-251.1977"/>
<polygon fill="#000000" stroke="#000000" points="963.1252,-254.6274 972.3372,-249.3939 961.8722,-247.7404 963.1252,-254.6274"/>
</g>
<!-- DynamicInvariants -->
<g id="node11" class="node">
<title>DynamicInvariants</title>
<g id="a_node11"><a xlink:href="DynamicInvariants.ipynb" xlink:title="DynamicInvariants">
<polygon fill="#ffffff" stroke="#000000" points="204,-252 0,-252 0,-216 210,-216 210,-246 204,-252"/>
<polyline fill="none" stroke="#000000" points="204,-252 204,-246 "/>
<polyline fill="none" stroke="#000000" points="210,-246 204,-246 "/>
<text text-anchor="middle" x="105" y="-230.3" font-family="Patua One" font-size="14.00" fill="#b03a2e">Mining Function Specifications</text>
</a>
</g>
</g>
<!-- Coverage&#45;&gt;DynamicInvariants -->
<g id="edge10" class="edge">
<title>Coverage&#45;&gt;DynamicInvariants</title>
<path fill="none" stroke="#000000" d="M594.3991,-299.0498C511.6951,-289.5713 359.934,-271.6623 220.2952,-252.1595"/>
<polygon fill="#000000" stroke="#000000" points="220.6525,-248.6754 210.2633,-250.7527 219.6802,-255.6076 220.6525,-248.6754"/>
</g>
<!-- WhenToStopFuzzing -->
<g id="node12" class="node">
<title>WhenToStopFuzzing</title>
<g id="a_node12"><a xlink:href="WhenToStopFuzzing.ipynb" xlink:title="WhenToStopFuzzing">
<polygon fill="#ffffff" stroke="#000000" points="377.5,-252 228.5,-252 228.5,-216 383.5,-216 383.5,-246 377.5,-252"/>
<polyline fill="none" stroke="#000000" points="377.5,-252 377.5,-246 "/>
<polyline fill="none" stroke="#000000" points="383.5,-246 377.5,-246 "/>
<text text-anchor="middle" x="306" y="-230.3" font-family="Patua One" font-size="14.00" fill="#b03a2e">When To Stop Fuzzing</text>
</a>
</g>
</g>
<!-- Coverage&#45;&gt;WhenToStopFuzzing -->
<g id="edge11" class="edge">
<title>Coverage&#45;&gt;WhenToStopFuzzing</title>
<path fill="none" stroke="#000000" d="M594.3728,-293.4772C543.158,-283.0512 468.0802,-267.724 393.8091,-252.3706"/>
<polygon fill="#000000" stroke="#000000" points="394.3141,-248.901 383.8124,-250.3029 392.8962,-255.756 394.3141,-248.901"/>
</g>
<!-- EvoGrammarFuzzer -->
<g id="node13" class="node">
<title>EvoGrammarFuzzer</title>
<g id="a_node13"><a xlink:href="EvoGrammarFuzzer.ipynb" xlink:title="EvoGrammarFuzzer">
<polygon fill="#ffffff" stroke="#000000" points="1837.5,-108 1632.5,-108 1632.5,-72 1843.5,-72 1843.5,-102 1837.5,-108"/>
<polyline fill="none" stroke="#000000" points="1837.5,-108 1837.5,-102 "/>
<polyline fill="none" stroke="#000000" points="1843.5,-102 1837.5,-102 "/>
<text text-anchor="middle" x="1738" y="-86.3" font-family="Patua One" font-size="14.00" fill="#b03a2e">Evolutionary Grammar Fuzzing</text>
</a>
</g>
</g>
<!-- SearchBasedFuzzer&#45;&gt;EvoGrammarFuzzer -->
<g id="edge12" class="edge">
<title>SearchBasedFuzzer&#45;&gt;EvoGrammarFuzzer</title>
<path fill="none" stroke="#000000" d="M1666.9326,-287.842C1704.5465,-267.4835 1759.9359,-230.5737 1784,-180 1790.8746,-165.5522 1789.5282,-159.0146 1784,-144 1780.195,-133.6656 1773.4356,-123.9621 1766.25,-115.7098"/>
<polygon fill="#000000" stroke="#000000" points="1768.692,-113.1965 1759.3127,-108.2692 1763.5721,-117.9701 1768.692,-113.1965"/>
</g>
<!-- GrammarFuzzer -->
<g id="node14" class="node">
<title>GrammarFuzzer</title>
<g id="a_node14"><a xlink:href="GrammarFuzzer.ipynb" xlink:title="GrammarFuzzer">
<polygon fill="#ffffff" stroke="#000000" points="1248.5,-324 1071.5,-324 1071.5,-288 1254.5,-288 1254.5,-318 1248.5,-324"/>
<polyline fill="none" stroke="#000000" points="1248.5,-324 1248.5,-318 "/>
<polyline fill="none" stroke="#000000" points="1254.5,-318 1248.5,-318 "/>
<text text-anchor="middle" x="1163" y="-302.3" font-family="Patua One" font-size="14.00" fill="#b03a2e">Efficient Grammar Fuzzing</text>
</a>
</g>
</g>
<!-- Grammars&#45;&gt;GrammarFuzzer -->
<g id="edge13" class="edge">
<title>Grammars&#45;&gt;GrammarFuzzer</title>
<path fill="none" stroke="#000000" d="M1163,-359.8314C1163,-352.131 1163,-342.9743 1163,-334.4166"/>
<polygon fill="#000000" stroke="#000000" points="1166.5001,-334.4132 1163,-324.4133 1159.5001,-334.4133 1166.5001,-334.4132"/>
</g>
<!-- Intro_Testing -->
<g id="node6" class="node">
<title>Intro_Testing</title>
<g id="a_node6"><a xlink:href="Intro_Testing.ipynb" xlink:title="Intro_Testing">
<polygon fill="#ffffff" stroke="#000000" points="1321.5,-540 1108.5,-540 1108.5,-504 1327.5,-504 1327.5,-534 1321.5,-540"/>
<polyline fill="none" stroke="#000000" points="1321.5,-540 1321.5,-534 "/>
<polyline fill="none" stroke="#000000" points="1327.5,-534 1321.5,-534 "/>
<text text-anchor="middle" x="1218" y="-518.3" font-family="Patua One" font-size="14.00" fill="#b03a2e">Introduction to Software Testing</text>
</a>
</g>
</g>
<!-- Intro_Testing&#45;&gt;Fuzzer -->
<g id="edge5" class="edge">
<title>Intro_Testing&#45;&gt;Fuzzer</title>
<path fill="none" stroke="#000000" d="M1218,-503.8314C1218,-496.131 1218,-486.9743 1218,-478.4166"/>
<polygon fill="#000000" stroke="#000000" points="1221.5001,-478.4132 1218,-468.4133 1214.5001,-478.4133 1221.5001,-478.4132"/>
</g>
<!-- ConfigurationFuzzer -->
<g id="node19" class="node">
<title>ConfigurationFuzzer</title>
<g id="a_node19"><a xlink:href="ConfigurationFuzzer.ipynb" xlink:title="ConfigurationFuzzer">
<polygon fill="#ffffff" stroke="#000000" points="694.5,-180 541.5,-180 541.5,-144 700.5,-144 700.5,-174 694.5,-180"/>
<polyline fill="none" stroke="#000000" points="694.5,-180 694.5,-174 "/>
<polyline fill="none" stroke="#000000" points="700.5,-174 694.5,-174 "/>
<text text-anchor="middle" x="621" y="-158.3" font-family="Patua One" font-size="14.00" fill="#b03a2e">Testing Configurations</text>
</a>
</g>
</g>
<!-- GrammarCoverageFuzzer&#45;&gt;ConfigurationFuzzer -->
<g id="edge20" class="edge">
<title>GrammarCoverageFuzzer&#45;&gt;ConfigurationFuzzer</title>
<path fill="none" stroke="#000000" d="M647.168,-215.8314C643.3014,-207.8771 638.6794,-198.369 634.4032,-189.5723"/>
<polygon fill="#000000" stroke="#000000" points="637.4707,-187.8768 629.9509,-180.4133 631.1751,-190.9371 637.4707,-187.8768"/>
</g>
<!-- Carver -->
<g id="node20" class="node">
<title>Carver</title>
<g id="a_node20"><a xlink:href="Carver.ipynb" xlink:title="Carver">
<polygon fill="#ffffff" stroke="#000000" points="846.5,-36 721.5,-36 721.5,0 852.5,0 852.5,-30 846.5,-36"/>
<polyline fill="none" stroke="#000000" points="846.5,-36 846.5,-30 "/>
<polyline fill="none" stroke="#000000" points="852.5,-30 846.5,-30 "/>
<text text-anchor="middle" x="787" y="-14.3" font-family="Patua One" font-size="14.00" fill="#b03a2e">Carving Unit Tests</text>
</a>
</g>
</g>
<!-- GrammarCoverageFuzzer&#45;&gt;Carver -->
<g id="edge21" class="edge">
<title>GrammarCoverageFuzzer&#45;&gt;Carver</title>
<path fill="none" stroke="#000000" d="M598.8189,-215.9394C570.2728,-205.648 540.1073,-192.3733 532,-180 523.2311,-166.6169 523.5562,-157.5905 532,-144 570.9415,-81.3224 651.306,-48.8854 711.4668,-32.7409"/>
<polygon fill="#000000" stroke="#000000" points="712.5107,-36.0862 721.3158,-30.1937 710.7579,-29.3091 712.5107,-36.0862"/>
</g>
<!-- GUIFuzzer -->
<g id="node21" class="node">
<title>GUIFuzzer</title>
<g id="a_node21"><a xlink:href="GUIFuzzer.ipynb" xlink:title="GUIFuzzer">
<polygon fill="#ffffff" stroke="#000000" points="933,-180 719,-180 719,-144 939,-144 939,-174 933,-180"/>
<polyline fill="none" stroke="#000000" points="933,-180 933,-174 "/>
<polyline fill="none" stroke="#000000" points="939,-174 933,-174 "/>
<text text-anchor="middle" x="829" y="-158.3" font-family="Patua One" font-size="14.00" fill="#b03a2e">Testing Graphical User Interfaces</text>
</a>
</g>
</g>
<!-- GrammarCoverageFuzzer&#45;&gt;GUIFuzzer -->
<g id="edge22" class="edge">
<title>GrammarCoverageFuzzer&#45;&gt;GUIFuzzer</title>
<path fill="none" stroke="#000000" d="M699.6552,-215.8314C722.8958,-206.159 751.6568,-194.1891 776.1523,-183.9944"/>
<polygon fill="#000000" stroke="#000000" points="777.7712,-187.1117 785.6587,-180.038 775.0815,-180.6491 777.7712,-187.1117"/>
</g>
<!-- APIFuzzer -->
<g id="node24" class="node">
<title>APIFuzzer</title>
<g id="a_node24"><a xlink:href="APIFuzzer.ipynb" xlink:title="APIFuzzer">
<polygon fill="#ffffff" stroke="#000000" points="1103.5,-108 1012.5,-108 1012.5,-72 1109.5,-72 1109.5,-102 1103.5,-108"/>
<polyline fill="none" stroke="#000000" points="1103.5,-108 1103.5,-102 "/>
<polyline fill="none" stroke="#000000" points="1109.5,-102 1103.5,-102 "/>
<text text-anchor="middle" x="1061" y="-86.3" font-family="Patua One" font-size="14.00" fill="#b03a2e">Fuzzing APIs</text>
</a>
</g>
</g>
<!-- ProbabilisticGrammarFuzzer&#45;&gt;APIFuzzer -->
<g id="edge27" class="edge">
<title>ProbabilisticGrammarFuzzer&#45;&gt;APIFuzzer</title>
<path fill="none" stroke="#000000" d="M1061,-143.8314C1061,-136.131 1061,-126.9743 1061,-118.4166"/>
<polygon fill="#000000" stroke="#000000" points="1064.5001,-118.4132 1061,-108.4133 1057.5001,-118.4133 1064.5001,-118.4132"/>
</g>
<!-- InformationFlow -->
<g id="node23" class="node">
<title>InformationFlow</title>
<g id="a_node23"><a xlink:href="InformationFlow.ipynb" xlink:title="InformationFlow">
<polygon fill="#ffffff" stroke="#000000" points="1360.5,-180 1183.5,-180 1183.5,-144 1366.5,-144 1366.5,-174 1360.5,-180"/>
<polyline fill="none" stroke="#000000" points="1360.5,-180 1360.5,-174 "/>
<polyline fill="none" stroke="#000000" points="1366.5,-174 1360.5,-174 "/>
<text text-anchor="middle" x="1275" y="-158.3" font-family="Patua One" font-size="14.00" fill="#b03a2e">Tracking Information Flow</text>
</a>
</g>
</g>
<!-- GrammarMiner&#45;&gt;InformationFlow -->
<g id="edge29" class="edge">
<title>GrammarMiner&#45;&gt;InformationFlow</title>
<path fill="none" stroke="#000000" d="M1110.9803,-215.9243C1141.1792,-205.9959 1178.8058,-193.6255 1210.4004,-183.2382"/>
<polygon fill="#000000" stroke="#000000" points="1211.5905,-186.5313 1219.9971,-180.0831 1209.4042,-179.8815 1211.5905,-186.5313"/>
</g>
<!-- GrammarFuzzer&#45;&gt;GrammarCoverageFuzzer -->
<g id="edge14" class="edge">
<title>GrammarFuzzer&#45;&gt;GrammarCoverageFuzzer</title>
<path fill="none" stroke="#000000" d="M1071.1473,-297.2797C986.1007,-288.5595 855.9842,-273.5818 733.4597,-251.9763"/>
<polygon fill="#000000" stroke="#000000" points="733.9819,-248.5143 723.5231,-250.2063 732.7543,-255.4058 733.9819,-248.5143"/>
</g>
<!-- GrammarFuzzer&#45;&gt;GrammarMiner -->
<g id="edge18" class="edge">
<title>GrammarFuzzer&#45;&gt;GrammarMiner</title>
<path fill="none" stroke="#000000" d="M1135.9994,-287.8314C1122.5669,-278.7927 1106.1527,-267.7476 1091.6961,-258.0198"/>
<polygon fill="#000000" stroke="#000000" points="1093.2425,-254.8418 1082.992,-252.1628 1089.3346,-260.6494 1093.2425,-254.8418"/>
</g>
<!-- Parser -->
<g id="node15" class="node">
<title>Parser</title>
<g id="a_node15"><a xlink:href="Parser.ipynb" xlink:title="Parser">
<polygon fill="#ffffff" stroke="#000000" points="1501.5,-252 1400.5,-252 1400.5,-216 1507.5,-216 1507.5,-246 1501.5,-252"/>
<polyline fill="none" stroke="#000000" points="1501.5,-252 1501.5,-246 "/>
<polyline fill="none" stroke="#000000" points="1507.5,-246 1501.5,-246 "/>
<text text-anchor="middle" x="1454" y="-230.3" font-family="Patua One" font-size="14.00" fill="#b03a2e">Parsing Inputs</text>
</a>
</g>
</g>
<!-- GrammarFuzzer&#45;&gt;Parser -->
<g id="edge15" class="edge">
<title>GrammarFuzzer&#45;&gt;Parser</title>
<path fill="none" stroke="#000000" d="M1244.0596,-287.9452C1285.4903,-278.466 1336.9027,-266.3198 1390.5856,-252.3199"/>
<polygon fill="#000000" stroke="#000000" points="1391.4928,-255.7004 1400.278,-249.7783 1389.7173,-248.9294 1391.4928,-255.7004"/>
</g>
<!-- GeneratorGrammarFuzzer -->
<g id="node16" class="node">
<title>GeneratorGrammarFuzzer</title>
<g id="a_node16"><a xlink:href="GeneratorGrammarFuzzer.ipynb" xlink:title="GeneratorGrammarFuzzer">
<polygon fill="#ffffff" stroke="#000000" points="1547,-180 1385,-180 1385,-144 1553,-144 1553,-174 1547,-180"/>
<polyline fill="none" stroke="#000000" points="1547,-180 1547,-174 "/>
<polyline fill="none" stroke="#000000" points="1553,-174 1547,-174 "/>
<text text-anchor="middle" x="1469" y="-158.3" font-family="Patua One" font-size="14.00" fill="#b03a2e">Fuzzing with Generators</text>
</a>
</g>
</g>
<!-- GrammarFuzzer&#45;&gt;GeneratorGrammarFuzzer -->
<g id="edge16" class="edge">
<title>GrammarFuzzer&#45;&gt;GeneratorGrammarFuzzer</title>
<path fill="none" stroke="#000000" d="M1254.5871,-298.1815C1353.7222,-288.7713 1500.0363,-271.7476 1517,-252 1533.6044,-232.6706 1516.376,-206.635 1498.1034,-187.5397"/>
<polygon fill="#000000" stroke="#000000" points="1500.41,-184.8976 1490.8483,-180.3342 1495.4772,-189.8644 1500.41,-184.8976"/>
</g>
<!-- Reducer -->
<g id="node17" class="node">
<title>Reducer</title>
<g id="a_node17"><a xlink:href="Reducer.ipynb" xlink:title="Reducer">
<polygon fill="#ffffff" stroke="#000000" points="1376.5,-252 1157.5,-252 1157.5,-216 1382.5,-216 1382.5,-246 1376.5,-252"/>
<polyline fill="none" stroke="#000000" points="1376.5,-252 1376.5,-246 "/>
<polyline fill="none" stroke="#000000" points="1382.5,-246 1376.5,-246 "/>
<text text-anchor="middle" x="1270" y="-230.3" font-family="Patua One" font-size="14.00" fill="#b03a2e">Reducing Failure&#45;Inducing Inputs</text>
</a>
</g>
</g>
<!-- GrammarFuzzer&#45;&gt;Reducer -->
<g id="edge17" class="edge">
<title>GrammarFuzzer&#45;&gt;Reducer</title>
<path fill="none" stroke="#000000" d="M1190.0006,-287.8314C1203.4331,-278.7927 1219.8473,-267.7476 1234.3039,-258.0198"/>
<polygon fill="#000000" stroke="#000000" points="1236.6654,-260.6494 1243.008,-252.1628 1232.7575,-254.8418 1236.6654,-260.6494"/>
</g>
<!-- WebFuzzer -->
<g id="node18" class="node">
<title>WebFuzzer</title>
<g id="a_node18"><a xlink:href="WebFuzzer.ipynb" xlink:title="WebFuzzer">
<polygon fill="#ffffff" stroke="#000000" points="910,-252 742,-252 742,-216 916,-216 916,-246 910,-252"/>
<polyline fill="none" stroke="#000000" points="910,-252 910,-246 "/>
<polyline fill="none" stroke="#000000" points="916,-246 910,-246 "/>
<text text-anchor="middle" x="829" y="-230.3" font-family="Patua One" font-size="14.00" fill="#b03a2e">Testing Web Applications</text>
</a>
</g>
</g>
<!-- GrammarFuzzer&#45;&gt;WebFuzzer -->
<g id="edge19" class="edge">
<title>GrammarFuzzer&#45;&gt;WebFuzzer</title>
<path fill="none" stroke="#000000" d="M1079.1488,-287.9243C1031.5127,-277.6554 971.7584,-264.7743 922.5981,-254.1768"/>
<polygon fill="#000000" stroke="#000000" points="923.109,-250.7066 912.5959,-252.0207 921.6338,-257.5494 923.109,-250.7066"/>
</g>
<!-- Parser&#45;&gt;ProbabilisticGrammarFuzzer -->
<g id="edge24" class="edge">
<title>Parser&#45;&gt;ProbabilisticGrammarFuzzer</title>
<path fill="none" stroke="#000000" d="M1400.3348,-217.9894C1397.5239,-217.2858 1394.7332,-216.6173 1392,-216 1381.2117,-213.5633 1266.5979,-194.9917 1175.2228,-180.2993"/>
<polygon fill="#000000" stroke="#000000" points="1175.7618,-176.8411 1165.3331,-178.7096 1174.6509,-183.7524 1175.7618,-176.8411"/>
</g>
<!-- LangFuzzer -->
<g id="node22" class="node">
<title>LangFuzzer</title>
<g id="a_node22"><a xlink:href="LangFuzzer.ipynb" xlink:title="LangFuzzer">
<polygon fill="#ffffff" stroke="#000000" points="1769,-180 1571,-180 1571,-144 1775,-144 1775,-174 1769,-180"/>
<polyline fill="none" stroke="#000000" points="1769,-180 1769,-174 "/>
<polyline fill="none" stroke="#000000" points="1775,-174 1769,-174 "/>
<text text-anchor="middle" x="1673" y="-158.3" font-family="Patua One" font-size="14.00" fill="#b03a2e">Fuzzing with Input Fragments</text>
</a>
</g>
</g>
<!-- Parser&#45;&gt;LangFuzzer -->
<g id="edge23" class="edge">
<title>Parser&#45;&gt;LangFuzzer</title>
<path fill="none" stroke="#000000" d="M1507.5734,-216.3868C1537.9845,-206.3887 1576.2625,-193.8041 1608.3367,-183.2592"/>
<polygon fill="#000000" stroke="#000000" points="1609.6694,-186.5054 1618.076,-180.0572 1607.4831,-179.8556 1609.6694,-186.5054"/>
</g>
<!-- Parser&#45;&gt;InformationFlow -->
<g id="edge25" class="edge">
<title>Parser&#45;&gt;InformationFlow</title>
<path fill="none" stroke="#000000" d="M1408.8307,-215.8314C1384.6777,-206.1162 1354.7622,-194.0831 1329.3444,-183.8592"/>
<polygon fill="#000000" stroke="#000000" points="1330.4282,-180.5227 1319.8444,-180.038 1327.8159,-187.017 1330.4282,-180.5227"/>
</g>
<!-- GeneratorGrammarFuzzer&#45;&gt;APIFuzzer -->
<g id="edge28" class="edge">
<title>GeneratorGrammarFuzzer&#45;&gt;APIFuzzer</title>
<path fill="none" stroke="#000000" d="M1384.8656,-145.6323C1381.8745,-145.077 1378.9121,-144.5314 1376,-144 1286.8079,-127.7254 1183.1402,-110.2261 1119.815,-99.6961"/>
<polygon fill="#000000" stroke="#000000" points="1120.0618,-96.1893 1109.6235,-98.0037 1118.9151,-103.0947 1120.0618,-96.1893"/>
</g>
<!-- WebFuzzer&#45;&gt;GUIFuzzer -->
<g id="edge33" class="edge">
<title>WebFuzzer&#45;&gt;GUIFuzzer</title>
<path fill="none" stroke="#000000" d="M829,-215.8314C829,-208.131 829,-198.9743 829,-190.4166"/>
<polygon fill="#000000" stroke="#000000" points="832.5001,-190.4132 829,-180.4133 825.5001,-190.4133 832.5001,-190.4132"/>
</g>
<!-- LangFuzzer&#45;&gt;EvoGrammarFuzzer -->
<g id="edge26" class="edge">
<title>LangFuzzer&#45;&gt;EvoGrammarFuzzer</title>
<path fill="none" stroke="#000000" d="M1689.4022,-143.8314C1697.0415,-135.3694 1706.2683,-125.1489 1714.6207,-115.8971"/>
<polygon fill="#000000" stroke="#000000" points="1717.2738,-118.1813 1721.3769,-108.4133 1712.0779,-113.4906 1717.2738,-118.1813"/>
</g>
<!-- ConcolicFuzzer -->
<g id="node25" class="node">
<title>ConcolicFuzzer</title>
<g id="a_node25"><a xlink:href="ConcolicFuzzer.ipynb" xlink:title="ConcolicFuzzer">
<polygon fill="#ffffff" stroke="#000000" points="1329,-108 1215,-108 1215,-72 1335,-72 1335,-102 1329,-108"/>
<polyline fill="none" stroke="#000000" points="1329,-108 1329,-102 "/>
<polyline fill="none" stroke="#000000" points="1335,-102 1329,-102 "/>
<text text-anchor="middle" x="1275" y="-86.3" font-family="Patua One" font-size="14.00" fill="#b03a2e">Concolic Fuzzing</text>
</a>
</g>
</g>
<!-- InformationFlow&#45;&gt;ConcolicFuzzer -->
<g id="edge30" class="edge">
<title>InformationFlow&#45;&gt;ConcolicFuzzer</title>
<path fill="none" stroke="#000000" d="M1275,-143.8314C1275,-136.131 1275,-126.9743 1275,-118.4166"/>
<polygon fill="#000000" stroke="#000000" points="1278.5001,-118.4132 1275,-108.4133 1271.5001,-118.4133 1278.5001,-118.4132"/>
</g>
<!-- APIFuzzer&#45;&gt;Carver -->
<g id="edge32" class="edge">
<title>APIFuzzer&#45;&gt;Carver</title>
<path fill="none" stroke="#000000" d="M1012.33,-77.2108C970.7514,-66.285 910.2502,-50.3869 862.406,-37.8147"/>
<polygon fill="#000000" stroke="#000000" points="863.2693,-34.4228 852.7081,-35.2664 861.4902,-41.193 863.2693,-34.4228"/>
</g>
<!-- SymbolicFuzzer -->
<g id="node26" class="node">
<title>SymbolicFuzzer</title>
<g id="a_node26"><a xlink:href="SymbolicFuzzer.ipynb" xlink:title="SymbolicFuzzer">
<polygon fill="#ffffff" stroke="#000000" points="1332,-36 1212,-36 1212,0 1338,0 1338,-30 1332,-36"/>
<polyline fill="none" stroke="#000000" points="1332,-36 1332,-30 "/>
<polyline fill="none" stroke="#000000" points="1338,-30 1332,-30 "/>
<text text-anchor="middle" x="1275" y="-14.3" font-family="Patua One" font-size="14.00" fill="#b03a2e">Symbolic Fuzzing</text>
</a>
</g>
</g>
<!-- ConcolicFuzzer&#45;&gt;SymbolicFuzzer -->
<g id="edge31" class="edge">
<title>ConcolicFuzzer&#45;&gt;SymbolicFuzzer</title>
<path fill="none" stroke="#000000" d="M1275,-71.8314C1275,-64.131 1275,-54.9743 1275,-46.4166"/>
<polygon fill="#000000" stroke="#000000" points="1278.5001,-46.4132 1275,-36.4133 1271.5001,-46.4133 1278.5001,-46.4132"/>
</g>
</g>
</svg>
