<?xml version="1.0" encoding="UTF-8" standalone="no"?>
<!DOCTYPE svg PUBLIC "-//W3C//DTD SVG 1.1//EN"
 "http://www.w3.org/Graphics/SVG/1.1/DTD/svg11.dtd">
<!-- Generated by graphviz version 2.40.1 (20161225.0304)
 -->
<!-- Title: %3 Pages: 1 -->
<svg width="1304pt" height="548pt"
 viewBox="0.00 0.00 1303.50 548.00" xmlns="http://www.w3.org/2000/svg" xmlns:xlink="http://www.w3.org/1999/xlink">
<g id="graph0" class="graph" transform="scale(1 1) rotate(0) translate(4 544)">
<title>%3</title>
<polygon fill="#ffffff" stroke="transparent" points="-4,4 -4,-544 1299.5,-544 1299.5,4 -4,4"/>
<!-- Fuzzer -->
<g id="node1" class="node">
<title>Fuzzer</title>
<g id="a_node1"><a xlink:href="Fuzzer.ipynb" xlink:title="Fuzzer">
<polygon fill="#ffffff" stroke="#000000" points="919.5,-468 621.5,-468 621.5,-432 925.5,-432 925.5,-462 919.5,-468"/>
<polyline fill="none" stroke="#000000" points="919.5,-468 919.5,-462 "/>
<polyline fill="none" stroke="#000000" points="925.5,-462 919.5,-462 "/>
<text text-anchor="middle" x="773.5" y="-446.3" font-family="Patua One" font-size="14.00" fill="#b03a2e">Fuzzing: Breaking Things with Random Inputs</text>
</a>
</g>
</g>
<!-- Coverage -->
<g id="node2" class="node">
<title>Coverage</title>
<g id="a_node2"><a xlink:href="Coverage.ipynb" xlink:title="Coverage">
<polygon fill="#ffffff" stroke="#000000" points="495,-324 378,-324 378,-288 501,-288 501,-318 495,-324"/>
<polyline fill="none" stroke="#000000" points="495,-324 495,-318 "/>
<polyline fill="none" stroke="#000000" points="501,-318 495,-318 "/>
<text text-anchor="middle" x="439.5" y="-302.3" font-family="Patua One" font-size="14.00" fill="#b03a2e">Getting Coverage</text>
</a>
</g>
</g>
<!-- Fuzzer&#45;&gt;Coverage -->
<g id="edge1" class="edge">
<title>Fuzzer&#45;&gt;Coverage</title>
<path fill="none" stroke="#000000" d="M637.0133,-431.967C582.4409,-422.8436 527.183,-410.5939 504.5,-396 480.852,-380.7853 463.0469,-353.6815 452.1055,-333.1814"/>
<polygon fill="#000000" stroke="#000000" points="455.0898,-331.3291 447.4276,-324.0118 448.8543,-334.5102 455.0898,-331.3291"/>
</g>
<!-- SearchBasedFuzzer -->
<g id="node3" class="node">
<title>SearchBasedFuzzer</title>
<g id="a_node3"><a xlink:href="SearchBasedFuzzer.ipynb" xlink:title="SearchBasedFuzzer">
<polygon fill="#ffffff" stroke="#000000" points="843.5,-396 697.5,-396 697.5,-360 849.5,-360 849.5,-390 843.5,-396"/>
<polyline fill="none" stroke="#000000" points="843.5,-396 843.5,-390 "/>
<polyline fill="none" stroke="#000000" points="849.5,-390 843.5,-390 "/>
<text text-anchor="middle" x="773.5" y="-374.3" font-family="Patua One" font-size="14.00" fill="#b03a2e">Search&#45;Based Fuzzing</text>
</a>
</g>
</g>
<!-- Fuzzer&#45;&gt;SearchBasedFuzzer -->
<g id="edge2" class="edge">
<title>Fuzzer&#45;&gt;SearchBasedFuzzer</title>
<path fill="none" stroke="#000000" d="M773.5,-431.8314C773.5,-424.131 773.5,-414.9743 773.5,-406.4166"/>
<polygon fill="#000000" stroke="#000000" points="777.0001,-406.4132 773.5,-396.4133 770.0001,-406.4133 777.0001,-406.4132"/>
</g>
<!-- Grammars -->
<g id="node4" class="node">
<title>Grammars</title>
<g id="a_node4"><a xlink:href="Grammars.ipynb" xlink:title="Grammars">
<polygon fill="#ffffff" stroke="#000000" points="673,-396 514,-396 514,-360 679,-360 679,-390 673,-396"/>
<polyline fill="none" stroke="#000000" points="673,-396 673,-390 "/>
<polyline fill="none" stroke="#000000" points="679,-390 673,-390 "/>
<text text-anchor="middle" x="596.5" y="-374.3" font-family="Patua One" font-size="14.00" fill="#b03a2e">Fuzzing with Grammars</text>
</a>
</g>
</g>
<!-- Fuzzer&#45;&gt;Grammars -->
<g id="edge3" class="edge">
<title>Fuzzer&#45;&gt;Grammars</title>
<path fill="none" stroke="#000000" d="M728.8354,-431.8314C704.9523,-422.1162 675.371,-410.0831 650.2372,-399.8592"/>
<polygon fill="#000000" stroke="#000000" points="651.4252,-396.564 640.8434,-396.038 648.7875,-403.0481 651.4252,-396.564"/>
</g>
<!-- InformationFlow -->
<g id="node5" class="node">
<title>InformationFlow</title>
<g id="a_node5"><a xlink:href="InformationFlow.ipynb" xlink:title="InformationFlow">
<polygon fill="#ffffff" stroke="#000000" points="1045,-396 868,-396 868,-360 1051,-360 1051,-390 1045,-396"/>
<polyline fill="none" stroke="#000000" points="1045,-396 1045,-390 "/>
<polyline fill="none" stroke="#000000" points="1051,-390 1045,-390 "/>
<text text-anchor="middle" x="959.5" y="-374.3" font-family="Patua One" font-size="14.00" fill="#b03a2e">Tracking Information Flow</text>
</a>
</g>
</g>
<!-- Fuzzer&#45;&gt;InformationFlow -->
<g id="edge4" class="edge">
<title>Fuzzer&#45;&gt;InformationFlow</title>
<path fill="none" stroke="#000000" d="M820.4357,-431.8314C845.6437,-422.0734 876.8926,-409.977 903.3791,-399.7242"/>
<polygon fill="#000000" stroke="#000000" points="904.8397,-402.912 912.9019,-396.038 902.3127,-396.384 904.8397,-402.912"/>
</g>
<!-- FuzzingInTheLarge -->
<g id="node6" class="node">
<title>FuzzingInTheLarge</title>
<g id="a_node6"><a xlink:href="FuzzingInTheLarge.ipynb" xlink:title="FuzzingInTheLarge">
<polygon fill="#ffffff" stroke="#000000" points="1289.5,-396 1069.5,-396 1069.5,-360 1295.5,-360 1295.5,-390 1289.5,-396"/>
<polyline fill="none" stroke="#000000" points="1289.5,-396 1289.5,-390 "/>
<polyline fill="none" stroke="#000000" points="1295.5,-390 1289.5,-390 "/>
<text text-anchor="middle" x="1182.5" y="-374.3" font-family="Patua One" font-size="14.00" fill="#b03a2e">Practical Steps with FuzzManager</text>
</a>
</g>
</g>
<!-- Fuzzer&#45;&gt;FuzzingInTheLarge -->
<g id="edge5" class="edge">
<title>Fuzzer&#45;&gt;FuzzingInTheLarge</title>
<path fill="none" stroke="#000000" d="M875.9164,-431.9707C934.9774,-421.5737 1009.317,-408.487 1070.0016,-397.8041"/>
<polygon fill="#000000" stroke="#000000" points="1070.7629,-401.224 1080.0046,-396.0432 1069.5492,-394.33 1070.7629,-401.224"/>
</g>
<!-- MutationFuzzer -->
<g id="node8" class="node">
<title>MutationFuzzer</title>
<g id="a_node8"><a xlink:href="MutationFuzzer.ipynb" xlink:title="MutationFuzzer">
<polygon fill="#ffffff" stroke="#000000" points="163,-252 0,-252 0,-216 169,-216 169,-246 163,-252"/>
<polyline fill="none" stroke="#000000" points="163,-252 163,-246 "/>
<polyline fill="none" stroke="#000000" points="169,-246 163,-246 "/>
<text text-anchor="middle" x="84.5" y="-230.3" font-family="Patua One" font-size="14.00" fill="#b03a2e">Mutation&#45;Based Fuzzing</text>
</a>
</g>
</g>
<!-- Coverage&#45;&gt;MutationFuzzer -->
<g id="edge7" class="edge">
<title>Coverage&#45;&gt;MutationFuzzer</title>
<path fill="none" stroke="#000000" d="M377.6637,-293.4586C322.8858,-282.3487 242.0769,-265.9593 179.1648,-253.1996"/>
<polygon fill="#000000" stroke="#000000" points="179.7244,-249.7419 169.2282,-251.1843 178.333,-256.6023 179.7244,-249.7419"/>
</g>
<!-- GrammarCoverageFuzzer -->
<g id="node9" class="node">
<title>GrammarCoverageFuzzer</title>
<g id="a_node9"><a xlink:href="GrammarCoverageFuzzer.ipynb" xlink:title="GrammarCoverageFuzzer">
<polygon fill="#ffffff" stroke="#000000" points="501,-252 372,-252 372,-216 507,-216 507,-246 501,-252"/>
<polyline fill="none" stroke="#000000" points="501,-252 501,-246 "/>
<polyline fill="none" stroke="#000000" points="507,-246 501,-246 "/>
<text text-anchor="middle" x="439.5" y="-230.3" font-family="Patua One" font-size="14.00" fill="#b03a2e">Grammar Coverage</text>
</a>
</g>
</g>
<!-- Coverage&#45;&gt;GrammarCoverageFuzzer -->
<g id="edge8" class="edge">
<title>Coverage&#45;&gt;GrammarCoverageFuzzer</title>
<path fill="none" stroke="#000000" d="M439.5,-287.8314C439.5,-280.131 439.5,-270.9743 439.5,-262.4166"/>
<polygon fill="#000000" stroke="#000000" points="443.0001,-262.4132 439.5,-252.4133 436.0001,-262.4133 443.0001,-262.4132"/>
</g>
<!-- ProbabilisticGrammarFuzzer -->
<g id="node10" class="node">
<title>ProbabilisticGrammarFuzzer</title>
<g id="a_node10"><a xlink:href="ProbabilisticGrammarFuzzer.ipynb" xlink:title="ProbabilisticGrammarFuzzer">
<polygon fill="#ffffff" stroke="#000000" points="962.5,-180 760.5,-180 760.5,-144 968.5,-144 968.5,-174 962.5,-180"/>
<polyline fill="none" stroke="#000000" points="962.5,-180 962.5,-174 "/>
<polyline fill="none" stroke="#000000" points="968.5,-174 962.5,-174 "/>
<text text-anchor="middle" x="864.5" y="-158.3" font-family="Patua One" font-size="14.00" fill="#b03a2e">Probabilistic Grammar Fuzzing</text>
</a>
</g>
</g>
<!-- Coverage&#45;&gt;ProbabilisticGrammarFuzzer -->
<g id="edge9" class="edge">
<title>Coverage&#45;&gt;ProbabilisticGrammarFuzzer</title>
<path fill="none" stroke="#000000" d="M501.1035,-290.3227C504.6157,-289.5151 508.0996,-288.7349 511.5,-288 598.4966,-269.1968 629.1279,-292.2746 708.5,-252 729.2465,-241.4729 727.2177,-229.0164 746.5,-216 764.9575,-203.5404 786.7536,-192.6519 806.5585,-183.9788"/>
<polygon fill="#000000" stroke="#000000" points="807.9791,-187.1779 815.797,-180.0273 805.2263,-180.7419 807.9791,-187.1779"/>
</g>
<!-- GrammarMiner -->
<g id="node11" class="node">
<title>GrammarMiner</title>
<g id="a_node11"><a xlink:href="GrammarMiner.ipynb" xlink:title="GrammarMiner">
<polygon fill="#ffffff" stroke="#000000" points="348,-252 187,-252 187,-216 354,-216 354,-246 348,-252"/>
<polyline fill="none" stroke="#000000" points="348,-252 348,-246 "/>
<polyline fill="none" stroke="#000000" points="354,-246 348,-246 "/>
<text text-anchor="middle" x="270.5" y="-230.3" font-family="Patua One" font-size="14.00" fill="#b03a2e">Mining Input Grammars</text>
</a>
</g>
</g>
<!-- Coverage&#45;&gt;GrammarMiner -->
<g id="edge10" class="edge">
<title>Coverage&#45;&gt;GrammarMiner</title>
<path fill="none" stroke="#000000" d="M396.8542,-287.8314C374.151,-278.159 346.0549,-266.1891 322.1258,-255.9944"/>
<polygon fill="#000000" stroke="#000000" points="323.4109,-252.7376 312.8392,-252.038 320.6672,-259.1775 323.4109,-252.7376"/>
</g>
<!-- GrammarFuzzer -->
<g id="node12" class="node">
<title>GrammarFuzzer</title>
<g id="a_node12"><a xlink:href="GrammarFuzzer.ipynb" xlink:title="GrammarFuzzer">
<polygon fill="#ffffff" stroke="#000000" points="698,-324 521,-324 521,-288 704,-288 704,-318 698,-324"/>
<polyline fill="none" stroke="#000000" points="698,-324 698,-318 "/>
<polyline fill="none" stroke="#000000" points="704,-318 698,-318 "/>
<text text-anchor="middle" x="612.5" y="-302.3" font-family="Patua One" font-size="14.00" fill="#b03a2e">Efficient Grammar Fuzzing</text>
</a>
</g>
</g>
<!-- Grammars&#45;&gt;GrammarFuzzer -->
<g id="edge11" class="edge">
<title>Grammars&#45;&gt;GrammarFuzzer</title>
<path fill="none" stroke="#000000" d="M600.5375,-359.8314C602.2487,-352.131 604.2835,-342.9743 606.1852,-334.4166"/>
<polygon fill="#000000" stroke="#000000" points="609.6554,-334.9344 608.4082,-324.4133 602.8221,-333.4159 609.6554,-334.9344"/>
</g>
<!-- Intro_Testing -->
<g id="node7" class="node">
<title>Intro_Testing</title>
<g id="a_node7"><a xlink:href="Intro_Testing.ipynb" xlink:title="Intro_Testing">
<polygon fill="#ffffff" stroke="#000000" points="877,-540 664,-540 664,-504 883,-504 883,-534 877,-540"/>
<polyline fill="none" stroke="#000000" points="877,-540 877,-534 "/>
<polyline fill="none" stroke="#000000" points="883,-534 877,-534 "/>
<text text-anchor="middle" x="773.5" y="-518.3" font-family="Patua One" font-size="14.00" fill="#b03a2e">Introduction to Software Testing</text>
</a>
</g>
</g>
<!-- Intro_Testing&#45;&gt;Fuzzer -->
<g id="edge6" class="edge">
<title>Intro_Testing&#45;&gt;Fuzzer</title>
<path fill="none" stroke="#000000" d="M773.5,-503.8314C773.5,-496.131 773.5,-486.9743 773.5,-478.4166"/>
<polygon fill="#000000" stroke="#000000" points="777.0001,-478.4132 773.5,-468.4133 770.0001,-478.4133 777.0001,-478.4132"/>
</g>
<!-- ConfigurationFuzzer -->
<g id="node17" class="node">
<title>ConfigurationFuzzer</title>
<g id="a_node17"><a xlink:href="ConfigurationFuzzer.ipynb" xlink:title="ConfigurationFuzzer">
<polygon fill="#ffffff" stroke="#000000" points="498,-180 345,-180 345,-144 504,-144 504,-174 498,-180"/>
<polyline fill="none" stroke="#000000" points="498,-180 498,-174 "/>
<polyline fill="none" stroke="#000000" points="504,-174 498,-174 "/>
<text text-anchor="middle" x="424.5" y="-158.3" font-family="Patua One" font-size="14.00" fill="#b03a2e">Testing Configurations</text>
</a>
</g>
</g>
<!-- GrammarCoverageFuzzer&#45;&gt;ConfigurationFuzzer -->
<g id="edge18" class="edge">
<title>GrammarCoverageFuzzer&#45;&gt;ConfigurationFuzzer</title>
<path fill="none" stroke="#000000" d="M435.7149,-215.8314C434.1106,-208.131 432.203,-198.9743 430.4201,-190.4166"/>
<polygon fill="#000000" stroke="#000000" points="433.8021,-189.4892 428.3361,-180.4133 426.9493,-190.9169 433.8021,-189.4892"/>
</g>
<!-- Carver -->
<g id="node18" class="node">
<title>Carver</title>
<g id="a_node18"><a xlink:href="Carver.ipynb" xlink:title="Carver">
<polygon fill="#ffffff" stroke="#000000" points="650,-36 525,-36 525,0 656,0 656,-30 650,-36"/>
<polyline fill="none" stroke="#000000" points="650,-36 650,-30 "/>
<polyline fill="none" stroke="#000000" points="656,-30 650,-30 "/>
<text text-anchor="middle" x="590.5" y="-14.3" font-family="Patua One" font-size="14.00" fill="#b03a2e">Carving Unit Tests</text>
</a>
</g>
</g>
<!-- GrammarCoverageFuzzer&#45;&gt;Carver -->
<g id="edge19" class="edge">
<title>GrammarCoverageFuzzer&#45;&gt;Carver</title>
<path fill="none" stroke="#000000" d="M378.9244,-215.9994C361.9119,-207.8421 345.3767,-196.2569 335.5,-180 327.1924,-166.3258 327.0562,-157.5905 335.5,-144 374.4415,-81.3224 454.806,-48.8854 514.9668,-32.7409"/>
<polygon fill="#000000" stroke="#000000" points="516.0107,-36.0862 524.8158,-30.1937 514.2579,-29.3091 516.0107,-36.0862"/>
</g>
<!-- GUIFuzzer -->
<g id="node19" class="node">
<title>GUIFuzzer</title>
<g id="a_node19"><a xlink:href="GUIFuzzer.ipynb" xlink:title="GUIFuzzer">
<polygon fill="#ffffff" stroke="#000000" points="736.5,-180 522.5,-180 522.5,-144 742.5,-144 742.5,-174 736.5,-180"/>
<polyline fill="none" stroke="#000000" points="736.5,-180 736.5,-174 "/>
<polyline fill="none" stroke="#000000" points="742.5,-174 736.5,-174 "/>
<text text-anchor="middle" x="632.5" y="-158.3" font-family="Patua One" font-size="14.00" fill="#b03a2e">Testing Graphical User Interfaces</text>
</a>
</g>
</g>
<!-- GrammarCoverageFuzzer&#45;&gt;GUIFuzzer -->
<g id="edge20" class="edge">
<title>GrammarCoverageFuzzer&#45;&gt;GUIFuzzer</title>
<path fill="none" stroke="#000000" d="M488.202,-215.8314C514.4736,-206.0306 547.0683,-193.8709 574.6284,-183.5894"/>
<polygon fill="#000000" stroke="#000000" points="576.0023,-186.8126 584.1482,-180.038 573.5555,-180.2541 576.0023,-186.8126"/>
</g>
<!-- APIFuzzer -->
<g id="node20" class="node">
<title>APIFuzzer</title>
<g id="a_node20"><a xlink:href="APIFuzzer.ipynb" xlink:title="APIFuzzer">
<polygon fill="#ffffff" stroke="#000000" points="907,-108 816,-108 816,-72 913,-72 913,-102 907,-108"/>
<polyline fill="none" stroke="#000000" points="907,-108 907,-102 "/>
<polyline fill="none" stroke="#000000" points="913,-102 907,-102 "/>
<text text-anchor="middle" x="864.5" y="-86.3" font-family="Patua One" font-size="14.00" fill="#b03a2e">Fuzzing APIs</text>
</a>
</g>
</g>
<!-- ProbabilisticGrammarFuzzer&#45;&gt;APIFuzzer -->
<g id="edge22" class="edge">
<title>ProbabilisticGrammarFuzzer&#45;&gt;APIFuzzer</title>
<path fill="none" stroke="#000000" d="M864.5,-143.8314C864.5,-136.131 864.5,-126.9743 864.5,-118.4166"/>
<polygon fill="#000000" stroke="#000000" points="868.0001,-118.4132 864.5,-108.4133 861.0001,-118.4133 868.0001,-118.4132"/>
</g>
<!-- GrammarFuzzer&#45;&gt;GrammarCoverageFuzzer -->
<g id="edge12" class="edge">
<title>GrammarFuzzer&#45;&gt;GrammarCoverageFuzzer</title>
<path fill="none" stroke="#000000" d="M568.8448,-287.8314C545.6042,-278.159 516.8432,-266.1891 492.3477,-255.9944"/>
<polygon fill="#000000" stroke="#000000" points="493.4185,-252.6491 482.8413,-252.038 490.7288,-259.1117 493.4185,-252.6491"/>
</g>
<!-- GrammarFuzzer&#45;&gt;GrammarMiner -->
<g id="edge16" class="edge">
<title>GrammarFuzzer&#45;&gt;GrammarMiner</title>
<path fill="none" stroke="#000000" d="M526.6404,-287.9243C477.1123,-277.4973 414.7905,-264.3769 364.0225,-253.6889"/>
<polygon fill="#000000" stroke="#000000" points="364.5367,-250.2206 354.0301,-251.5853 363.0946,-257.0704 364.5367,-250.2206"/>
</g>
<!-- Parser -->
<g id="node13" class="node">
<title>Parser</title>
<g id="a_node13"><a xlink:href="Parser.ipynb" xlink:title="Parser">
<polygon fill="#ffffff" stroke="#000000" points="967.5,-252 755.5,-252 755.5,-216 973.5,-216 973.5,-246 967.5,-252"/>
<polyline fill="none" stroke="#000000" points="967.5,-252 967.5,-246 "/>
<polyline fill="none" stroke="#000000" points="973.5,-246 967.5,-246 "/>
<text text-anchor="middle" x="864.5" y="-230.3" font-family="Patua One" font-size="14.00" fill="#b03a2e">Parsing and Recombining Inputs</text>
</a>
</g>
</g>
<!-- GrammarFuzzer&#45;&gt;Parser -->
<g id="edge13" class="edge">
<title>GrammarFuzzer&#45;&gt;Parser</title>
<path fill="none" stroke="#000000" d="M675.765,-287.9243C710.9637,-277.8675 754.9319,-265.3052 791.5731,-254.8363"/>
<polygon fill="#000000" stroke="#000000" points="792.5553,-258.1958 801.209,-252.0831 790.6322,-251.4651 792.5553,-258.1958"/>
</g>
<!-- GeneratorGrammarFuzzer -->
<g id="node14" class="node">
<title>GeneratorGrammarFuzzer</title>
<g id="a_node14"><a xlink:href="GeneratorGrammarFuzzer.ipynb" xlink:title="GeneratorGrammarFuzzer">
<polygon fill="#ffffff" stroke="#000000" points="1235.5,-180 1073.5,-180 1073.5,-144 1241.5,-144 1241.5,-174 1235.5,-180"/>
<polyline fill="none" stroke="#000000" points="1235.5,-180 1235.5,-174 "/>
<polyline fill="none" stroke="#000000" points="1241.5,-174 1235.5,-174 "/>
<text text-anchor="middle" x="1157.5" y="-158.3" font-family="Patua One" font-size="14.00" fill="#b03a2e">Fuzzing with Generators</text>
</a>
</g>
</g>
<!-- GrammarFuzzer&#45;&gt;GeneratorGrammarFuzzer -->
<g id="edge14" class="edge">
<title>GrammarFuzzer&#45;&gt;GeneratorGrammarFuzzer</title>
<path fill="none" stroke="#000000" d="M704.1557,-304.6182C866.7625,-301.209 1191.9656,-289.7049 1226.5,-252 1245.7953,-230.9333 1221.0518,-204.8349 1195.9922,-186.1763"/>
<polygon fill="#000000" stroke="#000000" points="1197.7186,-183.1087 1187.5448,-180.1519 1193.6541,-188.8079 1197.7186,-183.1087"/>
</g>
<!-- Reducer -->
<g id="node15" class="node">
<title>Reducer</title>
<g id="a_node15"><a xlink:href="Reducer.ipynb" xlink:title="Reducer">
<polygon fill="#ffffff" stroke="#000000" points="1211,-252 992,-252 992,-216 1217,-216 1217,-246 1211,-252"/>
<polyline fill="none" stroke="#000000" points="1211,-252 1211,-246 "/>
<polyline fill="none" stroke="#000000" points="1217,-246 1211,-246 "/>
<text text-anchor="middle" x="1104.5" y="-230.3" font-family="Patua One" font-size="14.00" fill="#b03a2e">Reducing Failure&#45;Inducing Inputs</text>
</a>
</g>
</g>
<!-- GrammarFuzzer&#45;&gt;Reducer -->
<g id="edge15" class="edge">
<title>GrammarFuzzer&#45;&gt;Reducer</title>
<path fill="none" stroke="#000000" d="M704.1181,-292.6693C776.5842,-282.1158 880.6371,-266.9414 981.7411,-252.1102"/>
<polygon fill="#000000" stroke="#000000" points="982.4442,-255.5446 991.8302,-250.63 981.428,-248.6188 982.4442,-255.5446"/>
</g>
<!-- WebFuzzer -->
<g id="node16" class="node">
<title>WebFuzzer</title>
<g id="a_node16"><a xlink:href="WebFuzzer.ipynb" xlink:title="WebFuzzer">
<polygon fill="#ffffff" stroke="#000000" points="693.5,-252 525.5,-252 525.5,-216 699.5,-216 699.5,-246 693.5,-252"/>
<polyline fill="none" stroke="#000000" points="693.5,-252 693.5,-246 "/>
<polyline fill="none" stroke="#000000" points="699.5,-246 693.5,-246 "/>
<text text-anchor="middle" x="612.5" y="-230.3" font-family="Patua One" font-size="14.00" fill="#b03a2e">Testing Web Applications</text>
</a>
</g>
</g>
<!-- GrammarFuzzer&#45;&gt;WebFuzzer -->
<g id="edge17" class="edge">
<title>GrammarFuzzer&#45;&gt;WebFuzzer</title>
<path fill="none" stroke="#000000" d="M612.5,-287.8314C612.5,-280.131 612.5,-270.9743 612.5,-262.4166"/>
<polygon fill="#000000" stroke="#000000" points="616.0001,-262.4132 612.5,-252.4133 609.0001,-262.4133 616.0001,-262.4132"/>
</g>
<!-- Parser&#45;&gt;ProbabilisticGrammarFuzzer -->
<g id="edge21" class="edge">
<title>Parser&#45;&gt;ProbabilisticGrammarFuzzer</title>
<path fill="none" stroke="#000000" d="M864.5,-215.8314C864.5,-208.131 864.5,-198.9743 864.5,-190.4166"/>
<polygon fill="#000000" stroke="#000000" points="868.0001,-190.4132 864.5,-180.4133 861.0001,-190.4133 868.0001,-190.4132"/>
</g>
<!-- GeneratorGrammarFuzzer&#45;&gt;APIFuzzer -->
<g id="edge23" class="edge">
<title>GeneratorGrammarFuzzer&#45;&gt;APIFuzzer</title>
<path fill="none" stroke="#000000" d="M1083.9419,-143.9243C1034.1946,-131.6997 969.3816,-115.7729 923.1171,-104.4042"/>
<polygon fill="#000000" stroke="#000000" points="923.7923,-100.9661 913.246,-101.9785 922.1218,-107.7638 923.7923,-100.9661"/>
</g>
<!-- WebFuzzer&#45;&gt;GUIFuzzer -->
<g id="edge25" class="edge">
<title>WebFuzzer&#45;&gt;GUIFuzzer</title>
<path fill="none" stroke="#000000" d="M617.5468,-215.8314C619.7094,-208.0463 622.2853,-198.7729 624.6848,-190.1347"/>
<polygon fill="#000000" stroke="#000000" points="628.081,-190.9852 627.3852,-180.4133 621.3364,-189.1117 628.081,-190.9852"/>
</g>
<!-- APIFuzzer&#45;&gt;Carver -->
<g id="edge24" class="edge">
<title>APIFuzzer&#45;&gt;Carver</title>
<path fill="none" stroke="#000000" d="M815.83,-77.2108C774.2514,-66.285 713.7502,-50.3869 665.906,-37.8147"/>
<polygon fill="#000000" stroke="#000000" points="666.7693,-34.4228 656.2081,-35.2664 664.9902,-41.193 666.7693,-34.4228"/>
</g>
</g>
</svg>
