<?xml version="1.0" encoding="UTF-8" standalone="no"?>
<!DOCTYPE svg PUBLIC "-//W3C//DTD SVG 1.1//EN"
 "http://www.w3.org/Graphics/SVG/1.1/DTD/svg11.dtd">
<!-- Generated by graphviz version 2.40.1 (20161225.0304)
 -->
<!-- Title: %3 Pages: 1 -->
<svg width="1669pt" height="548pt"
 viewBox="0.00 0.00 1668.50 548.00" xmlns="http://www.w3.org/2000/svg" xmlns:xlink="http://www.w3.org/1999/xlink">
<g id="graph0" class="graph" transform="scale(1 1) rotate(0) translate(4 544)">
<title>%3</title>
<polygon fill="#ffffff" stroke="transparent" points="-4,4 -4,-544 1664.5,-544 1664.5,4 -4,4"/>
<!-- Fuzzer -->
<g id="node1" class="node">
<title>Fuzzer</title>
<g id="a_node1"><a xlink:href="Fuzzer.ipynb" xlink:title="Fuzzer">
<polygon fill="#ffffff" stroke="#000000" points="1229,-468 931,-468 931,-432 1235,-432 1235,-462 1229,-468"/>
<polyline fill="none" stroke="#000000" points="1229,-468 1229,-462 "/>
<polyline fill="none" stroke="#000000" points="1235,-462 1229,-462 "/>
<text text-anchor="middle" x="1083" y="-446.3" font-family="Patua One" font-size="14.00" fill="#b03a2e">Fuzzing: Breaking Things with Random Inputs</text>
</a>
</g>
</g>
<!-- Coverage -->
<g id="node2" class="node">
<title>Coverage</title>
<g id="a_node2"><a xlink:href="Coverage.ipynb" xlink:title="Coverage">
<polygon fill="#ffffff" stroke="#000000" points="627.5,-324 510.5,-324 510.5,-288 633.5,-288 633.5,-318 627.5,-324"/>
<polyline fill="none" stroke="#000000" points="627.5,-324 627.5,-318 "/>
<polyline fill="none" stroke="#000000" points="633.5,-318 627.5,-318 "/>
<text text-anchor="middle" x="572" y="-302.3" font-family="Patua One" font-size="14.00" fill="#b03a2e">Getting Coverage</text>
</a>
</g>
</g>
<!-- Fuzzer&#45;&gt;Coverage -->
<g id="edge1" class="edge">
<title>Fuzzer&#45;&gt;Coverage</title>
<path fill="none" stroke="#000000" d="M1019.057,-431.9808C923.2938,-404.9947 743.2252,-354.2513 643.3256,-326.0996"/>
<polygon fill="#000000" stroke="#000000" points="644.1929,-322.7077 633.6184,-323.3641 642.2942,-329.4453 644.1929,-322.7077"/>
</g>
<!-- SearchBasedFuzzer -->
<g id="node3" class="node">
<title>SearchBasedFuzzer</title>
<g id="a_node3"><a xlink:href="SearchBasedFuzzer.ipynb" xlink:title="SearchBasedFuzzer">
<polygon fill="#ffffff" stroke="#000000" points="1515,-324 1369,-324 1369,-288 1521,-288 1521,-318 1515,-324"/>
<polyline fill="none" stroke="#000000" points="1515,-324 1515,-318 "/>
<polyline fill="none" stroke="#000000" points="1521,-318 1515,-318 "/>
<text text-anchor="middle" x="1445" y="-302.3" font-family="Patua One" font-size="14.00" fill="#b03a2e">Search&#45;Based Fuzzing</text>
</a>
</g>
</g>
<!-- Fuzzer&#45;&gt;SearchBasedFuzzer -->
<g id="edge2" class="edge">
<title>Fuzzer&#45;&gt;SearchBasedFuzzer</title>
<path fill="none" stroke="#000000" d="M1095.8734,-431.7814C1112.9047,-408.2041 1142.5663,-369.064 1158,-360 1191.4039,-340.3824 1287.1919,-324.944 1358.9845,-315.6857"/>
<polygon fill="#000000" stroke="#000000" points="1359.4672,-319.1526 1368.9465,-314.4205 1358.5852,-312.2083 1359.4672,-319.1526"/>
</g>
<!-- Grammars -->
<g id="node4" class="node">
<title>Grammars</title>
<g id="a_node4"><a xlink:href="Grammars.ipynb" xlink:title="Grammars">
<polygon fill="#ffffff" stroke="#000000" points="1104.5,-396 945.5,-396 945.5,-360 1110.5,-360 1110.5,-390 1104.5,-396"/>
<polyline fill="none" stroke="#000000" points="1104.5,-396 1104.5,-390 "/>
<polyline fill="none" stroke="#000000" points="1110.5,-390 1104.5,-390 "/>
<text text-anchor="middle" x="1028" y="-374.3" font-family="Patua One" font-size="14.00" fill="#b03a2e">Fuzzing with Grammars</text>
</a>
</g>
</g>
<!-- Fuzzer&#45;&gt;Grammars -->
<g id="edge3" class="edge">
<title>Fuzzer&#45;&gt;Grammars</title>
<path fill="none" stroke="#000000" d="M1069.1212,-431.8314C1062.7864,-423.5386 1055.1616,-413.557 1048.2074,-404.4533"/>
<polygon fill="#000000" stroke="#000000" points="1050.9175,-402.2353 1042.0657,-396.4133 1045.3548,-406.4847 1050.9175,-402.2353"/>
</g>
<!-- FuzzingInTheLarge -->
<g id="node5" class="node">
<title>FuzzingInTheLarge</title>
<g id="a_node5"><a xlink:href="FuzzingInTheLarge.ipynb" xlink:title="FuzzingInTheLarge">
<polygon fill="#ffffff" stroke="#000000" points="1387,-396 1167,-396 1167,-360 1393,-360 1393,-390 1387,-396"/>
<polyline fill="none" stroke="#000000" points="1387,-396 1387,-390 "/>
<polyline fill="none" stroke="#000000" points="1393,-390 1387,-390 "/>
<text text-anchor="middle" x="1280" y="-374.3" font-family="Patua One" font-size="14.00" fill="#b03a2e">Practical Steps with FuzzManager</text>
</a>
</g>
</g>
<!-- Fuzzer&#45;&gt;FuzzingInTheLarge -->
<g id="edge4" class="edge">
<title>Fuzzer&#45;&gt;FuzzingInTheLarge</title>
<path fill="none" stroke="#000000" d="M1132.4571,-431.9243C1159.2711,-422.1243 1192.5949,-409.945 1220.7847,-399.6422"/>
<polygon fill="#000000" stroke="#000000" points="1222.3316,-402.8033 1230.5225,-396.0831 1219.9287,-396.2286 1222.3316,-402.8033"/>
</g>
<!-- MutationFuzzer -->
<g id="node7" class="node">
<title>MutationFuzzer</title>
<g id="a_node7"><a xlink:href="MutationFuzzer.ipynb" xlink:title="MutationFuzzer">
<polygon fill="#ffffff" stroke="#000000" points="480.5,-252 317.5,-252 317.5,-216 486.5,-216 486.5,-246 480.5,-252"/>
<polyline fill="none" stroke="#000000" points="480.5,-252 480.5,-246 "/>
<polyline fill="none" stroke="#000000" points="486.5,-246 480.5,-246 "/>
<text text-anchor="middle" x="402" y="-230.3" font-family="Patua One" font-size="14.00" fill="#b03a2e">Mutation&#45;Based Fuzzing</text>
</a>
</g>
</g>
<!-- Coverage&#45;&gt;MutationFuzzer -->
<g id="edge6" class="edge">
<title>Coverage&#45;&gt;MutationFuzzer</title>
<path fill="none" stroke="#000000" d="M529.1018,-287.8314C506.2643,-278.159 478.002,-266.1891 453.9313,-255.9944"/>
<polygon fill="#000000" stroke="#000000" points="455.1629,-252.7151 444.5897,-252.038 452.4329,-259.1608 455.1629,-252.7151"/>
</g>
<!-- GrammarCoverageFuzzer -->
<g id="node8" class="node">
<title>GrammarCoverageFuzzer</title>
<g id="a_node8"><a xlink:href="GrammarCoverageFuzzer.ipynb" xlink:title="GrammarCoverageFuzzer">
<polygon fill="#ffffff" stroke="#000000" points="633.5,-252 504.5,-252 504.5,-216 639.5,-216 639.5,-246 633.5,-252"/>
<polyline fill="none" stroke="#000000" points="633.5,-252 633.5,-246 "/>
<polyline fill="none" stroke="#000000" points="639.5,-246 633.5,-246 "/>
<text text-anchor="middle" x="572" y="-230.3" font-family="Patua One" font-size="14.00" fill="#b03a2e">Grammar Coverage</text>
</a>
</g>
</g>
<!-- Coverage&#45;&gt;GrammarCoverageFuzzer -->
<g id="edge7" class="edge">
<title>Coverage&#45;&gt;GrammarCoverageFuzzer</title>
<path fill="none" stroke="#000000" d="M572,-287.8314C572,-280.131 572,-270.9743 572,-262.4166"/>
<polygon fill="#000000" stroke="#000000" points="575.5001,-262.4132 572,-252.4133 568.5001,-262.4133 575.5001,-262.4132"/>
</g>
<!-- ProbabilisticGrammarFuzzer -->
<g id="node9" class="node">
<title>ProbabilisticGrammarFuzzer</title>
<g id="a_node9"><a xlink:href="ProbabilisticGrammarFuzzer.ipynb" xlink:title="ProbabilisticGrammarFuzzer">
<polygon fill="#ffffff" stroke="#000000" points="976,-180 774,-180 774,-144 982,-144 982,-174 976,-180"/>
<polyline fill="none" stroke="#000000" points="976,-180 976,-174 "/>
<polyline fill="none" stroke="#000000" points="982,-174 976,-174 "/>
<text text-anchor="middle" x="878" y="-158.3" font-family="Patua One" font-size="14.00" fill="#b03a2e">Probabilistic Grammar Fuzzing</text>
</a>
</g>
</g>
<!-- Coverage&#45;&gt;ProbabilisticGrammarFuzzer -->
<g id="edge8" class="edge">
<title>Coverage&#45;&gt;ProbabilisticGrammarFuzzer</title>
<path fill="none" stroke="#000000" d="M633.6343,-300.3667C702.9761,-292.8901 809.9887,-277.565 841,-252 859.6489,-236.6263 869.0095,-210.3284 873.639,-190.1173"/>
<polygon fill="#000000" stroke="#000000" points="877.0942,-190.6894 875.6528,-180.1931 870.234,-189.2973 877.0942,-190.6894"/>
</g>
<!-- GrammarMiner -->
<g id="node10" class="node">
<title>GrammarMiner</title>
<g id="a_node10"><a xlink:href="GrammarMiner.ipynb" xlink:title="GrammarMiner">
<polygon fill="#ffffff" stroke="#000000" points="1049.5,-252 888.5,-252 888.5,-216 1055.5,-216 1055.5,-246 1049.5,-252"/>
<polyline fill="none" stroke="#000000" points="1049.5,-252 1049.5,-246 "/>
<polyline fill="none" stroke="#000000" points="1055.5,-246 1049.5,-246 "/>
<text text-anchor="middle" x="972" y="-230.3" font-family="Patua One" font-size="14.00" fill="#b03a2e">Mining Input Grammars</text>
</a>
</g>
</g>
<!-- Coverage&#45;&gt;GrammarMiner -->
<g id="edge9" class="edge">
<title>Coverage&#45;&gt;GrammarMiner</title>
<path fill="none" stroke="#000000" d="M633.6144,-295.0704C694.6562,-284.2218 790.8018,-267.0788 874,-252 875.4628,-251.7349 876.9377,-251.4673 878.4225,-251.1977"/>
<polygon fill="#000000" stroke="#000000" points="879.1252,-254.6274 888.3372,-249.3939 877.8722,-247.7404 879.1252,-254.6274"/>
</g>
<!-- SymbolicFuzzer -->
<g id="node11" class="node">
<title>SymbolicFuzzer</title>
<g id="a_node11"><a xlink:href="SymbolicFuzzer.ipynb" xlink:title="SymbolicFuzzer">
<polygon fill="#ffffff" stroke="#000000" points="120,-252 0,-252 0,-216 126,-216 126,-246 120,-252"/>
<polyline fill="none" stroke="#000000" points="120,-252 120,-246 "/>
<polyline fill="none" stroke="#000000" points="126,-246 120,-246 "/>
<text text-anchor="middle" x="63" y="-230.3" font-family="Patua One" font-size="14.00" fill="#b03a2e">Symbolic Fuzzing</text>
</a>
</g>
</g>
<!-- Coverage&#45;&gt;SymbolicFuzzer -->
<g id="edge10" class="edge">
<title>Coverage&#45;&gt;SymbolicFuzzer</title>
<path fill="none" stroke="#000000" d="M510.4819,-300.785C427.5499,-293.2258 275.1901,-277.4771 136.1101,-252.0877"/>
<polygon fill="#000000" stroke="#000000" points="136.5898,-248.6172 126.1205,-250.243 135.3186,-255.5008 136.5898,-248.6172"/>
</g>
<!-- WhenToStopFuzzing -->
<g id="node12" class="node">
<title>WhenToStopFuzzing</title>
<g id="a_node12"><a xlink:href="WhenToStopFuzzing.ipynb" xlink:title="WhenToStopFuzzing">
<polygon fill="#ffffff" stroke="#000000" points="293.5,-252 144.5,-252 144.5,-216 299.5,-216 299.5,-246 293.5,-252"/>
<polyline fill="none" stroke="#000000" points="293.5,-252 293.5,-246 "/>
<polyline fill="none" stroke="#000000" points="299.5,-246 293.5,-246 "/>
<text text-anchor="middle" x="222" y="-230.3" font-family="Patua One" font-size="14.00" fill="#b03a2e">When To Stop Fuzzing</text>
</a>
</g>
</g>
<!-- Coverage&#45;&gt;WhenToStopFuzzing -->
<g id="edge11" class="edge">
<title>Coverage&#45;&gt;WhenToStopFuzzing</title>
<path fill="none" stroke="#000000" d="M510.3728,-293.4772C459.158,-283.0512 384.0802,-267.724 309.8091,-252.3706"/>
<polygon fill="#000000" stroke="#000000" points="310.3141,-248.901 299.8124,-250.3029 308.8962,-255.756 310.3141,-248.901"/>
</g>
<!-- EvoGrammarFuzzer -->
<g id="node13" class="node">
<title>EvoGrammarFuzzer</title>
<g id="a_node13"><a xlink:href="EvoGrammarFuzzer.ipynb" xlink:title="EvoGrammarFuzzer">
<polygon fill="#ffffff" stroke="#000000" points="1654.5,-108 1449.5,-108 1449.5,-72 1660.5,-72 1660.5,-102 1654.5,-108"/>
<polyline fill="none" stroke="#000000" points="1654.5,-108 1654.5,-102 "/>
<polyline fill="none" stroke="#000000" points="1660.5,-102 1654.5,-102 "/>
<text text-anchor="middle" x="1555" y="-86.3" font-family="Patua One" font-size="14.00" fill="#b03a2e">Evolutionary Grammar Fuzzing</text>
</a>
</g>
</g>
<!-- SearchBasedFuzzer&#45;&gt;EvoGrammarFuzzer -->
<g id="edge12" class="edge">
<title>SearchBasedFuzzer&#45;&gt;EvoGrammarFuzzer</title>
<path fill="none" stroke="#000000" d="M1483.1699,-287.9068C1521.0205,-267.6007 1576.7625,-230.7324 1601,-180 1607.8973,-165.563 1606.5282,-159.0146 1601,-144 1597.195,-133.6656 1590.4356,-123.9621 1583.25,-115.7098"/>
<polygon fill="#000000" stroke="#000000" points="1585.692,-113.1965 1576.3127,-108.2692 1580.5721,-117.9701 1585.692,-113.1965"/>
</g>
<!-- GrammarFuzzer -->
<g id="node14" class="node">
<title>GrammarFuzzer</title>
<g id="a_node14"><a xlink:href="GrammarFuzzer.ipynb" xlink:title="GrammarFuzzer">
<polygon fill="#ffffff" stroke="#000000" points="1113.5,-324 936.5,-324 936.5,-288 1119.5,-288 1119.5,-318 1113.5,-324"/>
<polyline fill="none" stroke="#000000" points="1113.5,-324 1113.5,-318 "/>
<polyline fill="none" stroke="#000000" points="1119.5,-318 1113.5,-318 "/>
<text text-anchor="middle" x="1028" y="-302.3" font-family="Patua One" font-size="14.00" fill="#b03a2e">Efficient Grammar Fuzzing</text>
</a>
</g>
</g>
<!-- Grammars&#45;&gt;GrammarFuzzer -->
<g id="edge13" class="edge">
<title>Grammars&#45;&gt;GrammarFuzzer</title>
<path fill="none" stroke="#000000" d="M1028,-359.8314C1028,-352.131 1028,-342.9743 1028,-334.4166"/>
<polygon fill="#000000" stroke="#000000" points="1031.5001,-334.4132 1028,-324.4133 1024.5001,-334.4133 1031.5001,-334.4132"/>
</g>
<!-- Intro_Testing -->
<g id="node6" class="node">
<title>Intro_Testing</title>
<g id="a_node6"><a xlink:href="Intro_Testing.ipynb" xlink:title="Intro_Testing">
<polygon fill="#ffffff" stroke="#000000" points="1186.5,-540 973.5,-540 973.5,-504 1192.5,-504 1192.5,-534 1186.5,-540"/>
<polyline fill="none" stroke="#000000" points="1186.5,-540 1186.5,-534 "/>
<polyline fill="none" stroke="#000000" points="1192.5,-534 1186.5,-534 "/>
<text text-anchor="middle" x="1083" y="-518.3" font-family="Patua One" font-size="14.00" fill="#b03a2e">Introduction to Software Testing</text>
</a>
</g>
</g>
<!-- Intro_Testing&#45;&gt;Fuzzer -->
<g id="edge5" class="edge">
<title>Intro_Testing&#45;&gt;Fuzzer</title>
<path fill="none" stroke="#000000" d="M1083,-503.8314C1083,-496.131 1083,-486.9743 1083,-478.4166"/>
<polygon fill="#000000" stroke="#000000" points="1086.5001,-478.4132 1083,-468.4133 1079.5001,-478.4133 1086.5001,-478.4132"/>
</g>
<!-- ConfigurationFuzzer -->
<g id="node19" class="node">
<title>ConfigurationFuzzer</title>
<g id="a_node19"><a xlink:href="ConfigurationFuzzer.ipynb" xlink:title="ConfigurationFuzzer">
<polygon fill="#ffffff" stroke="#000000" points="473.5,-180 320.5,-180 320.5,-144 479.5,-144 479.5,-174 473.5,-180"/>
<polyline fill="none" stroke="#000000" points="473.5,-180 473.5,-174 "/>
<polyline fill="none" stroke="#000000" points="479.5,-174 473.5,-174 "/>
<text text-anchor="middle" x="400" y="-158.3" font-family="Patua One" font-size="14.00" fill="#b03a2e">Testing Configurations</text>
</a>
</g>
</g>
<!-- GrammarCoverageFuzzer&#45;&gt;ConfigurationFuzzer -->
<g id="edge20" class="edge">
<title>GrammarCoverageFuzzer&#45;&gt;ConfigurationFuzzer</title>
<path fill="none" stroke="#000000" d="M528.5971,-215.8314C505.4909,-206.159 476.8962,-194.1891 452.5423,-183.9944"/>
<polygon fill="#000000" stroke="#000000" points="453.6667,-180.6709 443.0908,-180.038 450.9637,-187.128 453.6667,-180.6709"/>
</g>
<!-- Carver -->
<g id="node20" class="node">
<title>Carver</title>
<g id="a_node20"><a xlink:href="Carver.ipynb" xlink:title="Carver">
<polygon fill="#ffffff" stroke="#000000" points="752.5,-36 627.5,-36 627.5,0 758.5,0 758.5,-30 752.5,-36"/>
<polyline fill="none" stroke="#000000" points="752.5,-36 752.5,-30 "/>
<polyline fill="none" stroke="#000000" points="758.5,-30 752.5,-30 "/>
<text text-anchor="middle" x="693" y="-14.3" font-family="Patua One" font-size="14.00" fill="#b03a2e">Carving Unit Tests</text>
</a>
</g>
</g>
<!-- GrammarCoverageFuzzer&#45;&gt;Carver -->
<g id="edge21" class="edge">
<title>GrammarCoverageFuzzer&#45;&gt;Carver</title>
<path fill="none" stroke="#000000" d="M551.1422,-215.6461C541.846,-206.0709 531.9022,-193.54 527,-180 521.5532,-164.9557 519.8858,-158.3314 527,-144 550.7551,-96.1459 602.335,-61.576 641.7372,-40.8869"/>
<polygon fill="#000000" stroke="#000000" points="643.6435,-43.8434 650.9583,-36.1789 640.4604,-37.609 643.6435,-43.8434"/>
</g>
<!-- GUIFuzzer -->
<g id="node21" class="node">
<title>GUIFuzzer</title>
<g id="a_node21"><a xlink:href="GUIFuzzer.ipynb" xlink:title="GUIFuzzer">
<polygon fill="#ffffff" stroke="#000000" points="750,-180 536,-180 536,-144 756,-144 756,-174 750,-180"/>
<polyline fill="none" stroke="#000000" points="750,-180 750,-174 "/>
<polyline fill="none" stroke="#000000" points="756,-174 750,-174 "/>
<text text-anchor="middle" x="646" y="-158.3" font-family="Patua One" font-size="14.00" fill="#b03a2e">Testing Graphical User Interfaces</text>
</a>
</g>
</g>
<!-- GrammarCoverageFuzzer&#45;&gt;GUIFuzzer -->
<g id="edge22" class="edge">
<title>GrammarCoverageFuzzer&#45;&gt;GUIFuzzer</title>
<path fill="none" stroke="#000000" d="M590.6733,-215.8314C599.5249,-207.219 610.2486,-196.7851 619.8895,-187.4048"/>
<polygon fill="#000000" stroke="#000000" points="622.6061,-189.645 627.3326,-180.1628 617.7246,-184.6279 622.6061,-189.645"/>
</g>
<!-- APIFuzzer -->
<g id="node24" class="node">
<title>APIFuzzer</title>
<g id="a_node24"><a xlink:href="APIFuzzer.ipynb" xlink:title="APIFuzzer">
<polygon fill="#ffffff" stroke="#000000" points="920.5,-108 829.5,-108 829.5,-72 926.5,-72 926.5,-102 920.5,-108"/>
<polyline fill="none" stroke="#000000" points="920.5,-108 920.5,-102 "/>
<polyline fill="none" stroke="#000000" points="926.5,-102 920.5,-102 "/>
<text text-anchor="middle" x="878" y="-86.3" font-family="Patua One" font-size="14.00" fill="#b03a2e">Fuzzing APIs</text>
</a>
</g>
</g>
<!-- ProbabilisticGrammarFuzzer&#45;&gt;APIFuzzer -->
<g id="edge27" class="edge">
<title>ProbabilisticGrammarFuzzer&#45;&gt;APIFuzzer</title>
<path fill="none" stroke="#000000" d="M878,-143.8314C878,-136.131 878,-126.9743 878,-118.4166"/>
<polygon fill="#000000" stroke="#000000" points="881.5001,-118.4132 878,-108.4133 874.5001,-118.4133 881.5001,-118.4132"/>
</g>
<!-- InformationFlow -->
<g id="node23" class="node">
<title>InformationFlow</title>
<g id="a_node23"><a xlink:href="InformationFlow.ipynb" xlink:title="InformationFlow">
<polygon fill="#ffffff" stroke="#000000" points="1363.5,-180 1186.5,-180 1186.5,-144 1369.5,-144 1369.5,-174 1363.5,-180"/>
<polyline fill="none" stroke="#000000" points="1363.5,-180 1363.5,-174 "/>
<polyline fill="none" stroke="#000000" points="1369.5,-174 1363.5,-174 "/>
<text text-anchor="middle" x="1278" y="-158.3" font-family="Patua One" font-size="14.00" fill="#b03a2e">Tracking Information Flow</text>
</a>
</g>
</g>
<!-- GrammarMiner&#45;&gt;InformationFlow -->
<g id="edge29" class="edge">
<title>GrammarMiner&#45;&gt;InformationFlow</title>
<path fill="none" stroke="#000000" d="M1048.8217,-215.9243C1092.1911,-205.7198 1146.5241,-192.9355 1191.401,-182.3762"/>
<polygon fill="#000000" stroke="#000000" points="1192.4796,-185.7181 1201.4121,-180.0207 1190.8763,-178.9042 1192.4796,-185.7181"/>
</g>
<!-- GrammarFuzzer&#45;&gt;GrammarCoverageFuzzer -->
<g id="edge14" class="edge">
<title>GrammarFuzzer&#45;&gt;GrammarCoverageFuzzer</title>
<path fill="none" stroke="#000000" d="M936.4999,-295.2582C861.9123,-285.9705 753.6743,-271.2874 649.593,-252.0211"/>
<polygon fill="#000000" stroke="#000000" points="650.0075,-248.538 639.5348,-250.1423 648.7221,-255.419 650.0075,-248.538"/>
</g>
<!-- GrammarFuzzer&#45;&gt;GrammarMiner -->
<g id="edge18" class="edge">
<title>GrammarFuzzer&#45;&gt;GrammarMiner</title>
<path fill="none" stroke="#000000" d="M1013.8688,-287.8314C1007.4189,-279.5386 999.6555,-269.557 992.5748,-260.4533"/>
<polygon fill="#000000" stroke="#000000" points="995.2236,-258.158 986.3214,-252.4133 989.6981,-262.4556 995.2236,-258.158"/>
</g>
<!-- Parser -->
<g id="node15" class="node">
<title>Parser</title>
<g id="a_node15"><a xlink:href="Parser.ipynb" xlink:title="Parser">
<polygon fill="#ffffff" stroke="#000000" points="1456.5,-252 1355.5,-252 1355.5,-216 1462.5,-216 1462.5,-246 1456.5,-252"/>
<polyline fill="none" stroke="#000000" points="1456.5,-252 1456.5,-246 "/>
<polyline fill="none" stroke="#000000" points="1462.5,-246 1456.5,-246 "/>
<text text-anchor="middle" x="1409" y="-230.3" font-family="Patua One" font-size="14.00" fill="#b03a2e">Parsing Inputs</text>
</a>
</g>
</g>
<!-- GrammarFuzzer&#45;&gt;Parser -->
<g id="edge15" class="edge">
<title>GrammarFuzzer&#45;&gt;Parser</title>
<path fill="none" stroke="#000000" d="M1119.6456,-293.3417C1181.2009,-284.1717 1264.2439,-270.5149 1345.4391,-252.242"/>
<polygon fill="#000000" stroke="#000000" points="1346.3564,-255.6228 1355.3302,-249.9907 1344.8028,-248.7973 1346.3564,-255.6228"/>
</g>
<!-- GeneratorGrammarFuzzer -->
<g id="node16" class="node">
<title>GeneratorGrammarFuzzer</title>
<g id="a_node16"><a xlink:href="GeneratorGrammarFuzzer.ipynb" xlink:title="GeneratorGrammarFuzzer">
<polygon fill="#ffffff" stroke="#000000" points="1162,-180 1000,-180 1000,-144 1168,-144 1168,-174 1162,-180"/>
<polyline fill="none" stroke="#000000" points="1162,-180 1162,-174 "/>
<polyline fill="none" stroke="#000000" points="1168,-174 1162,-174 "/>
<text text-anchor="middle" x="1084" y="-158.3" font-family="Patua One" font-size="14.00" fill="#b03a2e">Fuzzing with Generators</text>
</a>
</g>
</g>
<!-- GrammarFuzzer&#45;&gt;GeneratorGrammarFuzzer -->
<g id="edge16" class="edge">
<title>GrammarFuzzer&#45;&gt;GeneratorGrammarFuzzer</title>
<path fill="none" stroke="#000000" d="M1042.4697,-287.9844C1049.8987,-277.9214 1058.5163,-264.8504 1064,-252 1072.455,-232.1866 1077.5477,-208.3311 1080.4766,-190.1598"/>
<polygon fill="#000000" stroke="#000000" points="1083.9499,-190.5974 1081.9601,-180.1912 1077.0262,-189.567 1083.9499,-190.5974"/>
</g>
<!-- Reducer -->
<g id="node17" class="node">
<title>Reducer</title>
<g id="a_node17"><a xlink:href="Reducer.ipynb" xlink:title="Reducer">
<polygon fill="#ffffff" stroke="#000000" points="1331.5,-252 1112.5,-252 1112.5,-216 1337.5,-216 1337.5,-246 1331.5,-252"/>
<polyline fill="none" stroke="#000000" points="1331.5,-252 1331.5,-246 "/>
<polyline fill="none" stroke="#000000" points="1337.5,-246 1331.5,-246 "/>
<text text-anchor="middle" x="1225" y="-230.3" font-family="Patua One" font-size="14.00" fill="#b03a2e">Reducing Failure&#45;Inducing Inputs</text>
</a>
</g>
</g>
<!-- GrammarFuzzer&#45;&gt;Reducer -->
<g id="edge17" class="edge">
<title>GrammarFuzzer&#45;&gt;Reducer</title>
<path fill="none" stroke="#000000" d="M1077.4571,-287.9243C1104.2711,-278.1243 1137.5949,-265.945 1165.7847,-255.6422"/>
<polygon fill="#000000" stroke="#000000" points="1167.3316,-258.8033 1175.5225,-252.0831 1164.9287,-252.2286 1167.3316,-258.8033"/>
</g>
<!-- WebFuzzer -->
<g id="node18" class="node">
<title>WebFuzzer</title>
<g id="a_node18"><a xlink:href="WebFuzzer.ipynb" xlink:title="WebFuzzer">
<polygon fill="#ffffff" stroke="#000000" points="826,-252 658,-252 658,-216 832,-216 832,-246 826,-252"/>
<polyline fill="none" stroke="#000000" points="826,-252 826,-246 "/>
<polyline fill="none" stroke="#000000" points="832,-246 826,-246 "/>
<text text-anchor="middle" x="745" y="-230.3" font-family="Patua One" font-size="14.00" fill="#b03a2e">Testing Web Applications</text>
</a>
</g>
</g>
<!-- GrammarFuzzer&#45;&gt;WebFuzzer -->
<g id="edge19" class="edge">
<title>GrammarFuzzer&#45;&gt;WebFuzzer</title>
<path fill="none" stroke="#000000" d="M956.9524,-287.9243C917.0872,-277.7819 867.2055,-265.0912 825.8493,-254.5694"/>
<polygon fill="#000000" stroke="#000000" points="826.6311,-251.1569 816.0768,-252.0831 824.9051,-257.9408 826.6311,-251.1569"/>
</g>
<!-- Parser&#45;&gt;ProbabilisticGrammarFuzzer -->
<g id="edge24" class="edge">
<title>Parser&#45;&gt;ProbabilisticGrammarFuzzer</title>
<path fill="none" stroke="#000000" d="M1355.3776,-217.7853C1352.5556,-217.135 1349.7508,-216.5338 1347,-216 1194.0846,-186.3268 1150.4782,-199.9282 992.1247,-180.0905"/>
<polygon fill="#000000" stroke="#000000" points="992.3883,-176.5958 982.0253,-178.7997 991.5009,-183.5393 992.3883,-176.5958"/>
</g>
<!-- LangFuzzer -->
<g id="node22" class="node">
<title>LangFuzzer</title>
<g id="a_node22"><a xlink:href="LangFuzzer.ipynb" xlink:title="LangFuzzer">
<polygon fill="#ffffff" stroke="#000000" points="1586,-180 1388,-180 1388,-144 1592,-144 1592,-174 1586,-180"/>
<polyline fill="none" stroke="#000000" points="1586,-180 1586,-174 "/>
<polyline fill="none" stroke="#000000" points="1592,-174 1586,-174 "/>
<text text-anchor="middle" x="1490" y="-158.3" font-family="Patua One" font-size="14.00" fill="#b03a2e">Fuzzing with Input Fragments</text>
</a>
</g>
</g>
<!-- Parser&#45;&gt;LangFuzzer -->
<g id="edge23" class="edge">
<title>Parser&#45;&gt;LangFuzzer</title>
<path fill="none" stroke="#000000" d="M1429.4397,-215.8314C1439.3205,-207.0485 1451.3324,-196.3712 1462.045,-186.8489"/>
<polygon fill="#000000" stroke="#000000" points="1464.418,-189.4224 1469.5668,-180.1628 1459.7674,-184.1906 1464.418,-189.4224"/>
</g>
<!-- Parser&#45;&gt;InformationFlow -->
<g id="edge25" class="edge">
<title>Parser&#45;&gt;InformationFlow</title>
<path fill="none" stroke="#000000" d="M1375.9432,-215.8314C1359.0323,-206.5368 1338.2615,-195.1208 1320.2059,-185.1971"/>
<polygon fill="#000000" stroke="#000000" points="1321.4957,-181.9122 1311.0463,-180.1628 1318.124,-188.0468 1321.4957,-181.9122"/>
</g>
<!-- GeneratorGrammarFuzzer&#45;&gt;APIFuzzer -->
<g id="edge28" class="edge">
<title>GeneratorGrammarFuzzer&#45;&gt;APIFuzzer</title>
<path fill="none" stroke="#000000" d="M1032.2834,-143.9243C1003.0317,-133.7004 966.3711,-120.887 936.1267,-110.3161"/>
<polygon fill="#000000" stroke="#000000" points="937.145,-106.9645 926.5501,-106.969 934.8353,-113.5725 937.145,-106.9645"/>
</g>
<!-- WebFuzzer&#45;&gt;GUIFuzzer -->
<g id="edge32" class="edge">
<title>WebFuzzer&#45;&gt;GUIFuzzer</title>
<path fill="none" stroke="#000000" d="M720.0181,-215.8314C707.7072,-206.8779 692.6893,-195.9558 679.4063,-186.2955"/>
<polygon fill="#000000" stroke="#000000" points="681.1199,-183.214 670.9739,-180.1628 677.0027,-188.8752 681.1199,-183.214"/>
</g>
<!-- LangFuzzer&#45;&gt;EvoGrammarFuzzer -->
<g id="edge26" class="edge">
<title>LangFuzzer&#45;&gt;EvoGrammarFuzzer</title>
<path fill="none" stroke="#000000" d="M1506.4022,-143.8314C1514.0415,-135.3694 1523.2683,-125.1489 1531.6207,-115.8971"/>
<polygon fill="#000000" stroke="#000000" points="1534.2738,-118.1813 1538.3769,-108.4133 1529.0779,-113.4906 1534.2738,-118.1813"/>
</g>
<!-- ConcolicFuzzer -->
<g id="node25" class="node">
<title>ConcolicFuzzer</title>
<g id="a_node25"><a xlink:href="ConcolicFuzzer.ipynb" xlink:title="ConcolicFuzzer">
<polygon fill="#ffffff" stroke="#000000" points="1332,-108 1218,-108 1218,-72 1338,-72 1338,-102 1332,-108"/>
<polyline fill="none" stroke="#000000" points="1332,-108 1332,-102 "/>
<polyline fill="none" stroke="#000000" points="1338,-102 1332,-102 "/>
<text text-anchor="middle" x="1278" y="-86.3" font-family="Patua One" font-size="14.00" fill="#b03a2e">Concolic Fuzzing</text>
</a>
</g>
</g>
<!-- InformationFlow&#45;&gt;ConcolicFuzzer -->
<g id="edge30" class="edge">
<title>InformationFlow&#45;&gt;ConcolicFuzzer</title>
<path fill="none" stroke="#000000" d="M1278,-143.8314C1278,-136.131 1278,-126.9743 1278,-118.4166"/>
<polygon fill="#000000" stroke="#000000" points="1281.5001,-118.4132 1278,-108.4133 1274.5001,-118.4133 1281.5001,-118.4132"/>
</g>
<!-- APIFuzzer&#45;&gt;Carver -->
<g id="edge31" class="edge">
<title>APIFuzzer&#45;&gt;Carver</title>
<path fill="none" stroke="#000000" d="M831.3167,-71.8314C806.2441,-62.0734 775.1633,-49.977 748.8191,-39.7242"/>
<polygon fill="#000000" stroke="#000000" points="749.9362,-36.4033 739.3476,-36.038 747.3973,-42.9266 749.9362,-36.4033"/>
</g>
</g>
</svg>
