<?xml version="1.0" encoding="UTF-8" standalone="no"?>
<!DOCTYPE svg PUBLIC "-//W3C//DTD SVG 1.1//EN"
 "http://www.w3.org/Graphics/SVG/1.1/DTD/svg11.dtd">
<!-- Generated by graphviz version 2.40.1 (20161225.0304)
 -->
<!-- Title: %3 Pages: 1 -->
<svg width="1400pt" height="548pt"
 viewBox="0.00 0.00 1400.00 548.00" xmlns="http://www.w3.org/2000/svg" xmlns:xlink="http://www.w3.org/1999/xlink">
<g id="graph0" class="graph" transform="scale(1 1) rotate(0) translate(4 544)">
<title>%3</title>
<polygon fill="#ffffff" stroke="transparent" points="-4,4 -4,-544 1396,-544 1396,4 -4,4"/>
<!-- Fuzzer -->
<g id="node1" class="node">
<title>Fuzzer</title>
<g id="a_node1"><a xlink:href="Fuzzer.ipynb" xlink:title="Fuzzer">
<polygon fill="#ffffff" stroke="#000000" points="1085,-468 789,-468 789,-432 1091,-432 1091,-462 1085,-468"/>
<polyline fill="none" stroke="#000000" points="1085,-468 1085,-462 "/>
<polyline fill="none" stroke="#000000" points="1091,-462 1085,-462 "/>
<text text-anchor="middle" x="940" y="-446.3" font-family="Patua One" font-size="14.00" fill="#b03a2e">Fuzzing: Breaking Things with Random Inputs</text>
</a>
</g>
</g>
<!-- Coverage -->
<g id="node2" class="node">
<title>Coverage</title>
<g id="a_node2"><a xlink:href="Coverage.ipynb" xlink:title="Coverage">
<polygon fill="#ffffff" stroke="#000000" points="415,-324 295,-324 295,-288 421,-288 421,-318 415,-324"/>
<polyline fill="none" stroke="#000000" points="415,-324 415,-318 "/>
<polyline fill="none" stroke="#000000" points="421,-318 415,-318 "/>
<text text-anchor="middle" x="358" y="-302.3" font-family="Patua One" font-size="14.00" fill="#b03a2e">Getting Coverage</text>
</a>
</g>
</g>
<!-- Fuzzer&#45;&gt;Coverage -->
<g id="edge1" class="edge">
<title>Fuzzer&#45;&gt;Coverage</title>
<path fill="none" stroke="#000000" d="M867.1726,-431.9808C755.4049,-404.327 542.8078,-351.7256 430.9603,-324.052"/>
<polygon fill="#000000" stroke="#000000" points="431.6621,-320.6202 421.1141,-321.6159 429.9808,-327.4153 431.6621,-320.6202"/>
</g>
<!-- SearchBasedFuzzer -->
<g id="node3" class="node">
<title>SearchBasedFuzzer</title>
<g id="a_node3"><a xlink:href="SearchBasedFuzzer.ipynb" xlink:title="SearchBasedFuzzer">
<polygon fill="#ffffff" stroke="#000000" points="1281,-324 1129,-324 1129,-288 1287,-288 1287,-318 1281,-324"/>
<polyline fill="none" stroke="#000000" points="1281,-324 1281,-318 "/>
<polyline fill="none" stroke="#000000" points="1287,-318 1281,-318 "/>
<text text-anchor="middle" x="1208" y="-302.3" font-family="Patua One" font-size="14.00" fill="#b03a2e">Search&#45;Based Fuzzing</text>
</a>
</g>
</g>
<!-- Fuzzer&#45;&gt;SearchBasedFuzzer -->
<g id="edge2" class="edge">
<title>Fuzzer&#45;&gt;SearchBasedFuzzer</title>
<path fill="none" stroke="#000000" d="M938.4737,-431.7865C937.8386,-411.4478 940.1942,-378.9096 959,-360 981.345,-337.5317 1056.6713,-323.2987 1118.6765,-315.1206"/>
<polygon fill="#000000" stroke="#000000" points="1119.4228,-318.5537 1128.8967,-313.8107 1118.5328,-311.6105 1119.4228,-318.5537"/>
</g>
<!-- Grammars -->
<g id="node4" class="node">
<title>Grammars</title>
<g id="a_node4"><a xlink:href="Grammars.ipynb" xlink:title="Grammars">
<polygon fill="#ffffff" stroke="#000000" points="906,-396 748,-396 748,-360 912,-360 912,-390 906,-396"/>
<polyline fill="none" stroke="#000000" points="906,-396 906,-390 "/>
<polyline fill="none" stroke="#000000" points="912,-390 906,-390 "/>
<text text-anchor="middle" x="830" y="-374.3" font-family="Patua One" font-size="14.00" fill="#b03a2e">Fuzzing with Grammars</text>
</a>
</g>
</g>
<!-- Fuzzer&#45;&gt;Grammars -->
<g id="edge3" class="edge">
<title>Fuzzer&#45;&gt;Grammars</title>
<path fill="none" stroke="#000000" d="M912.2424,-431.8314C898.303,-422.7074 881.2402,-411.539 866.2769,-401.7449"/>
<polygon fill="#000000" stroke="#000000" points="868.0326,-398.711 857.7488,-396.1628 864.199,-404.5679 868.0326,-398.711"/>
</g>
<!-- InformationFlow -->
<g id="node5" class="node">
<title>InformationFlow</title>
<g id="a_node5"><a xlink:href="InformationFlow.ipynb" xlink:title="InformationFlow">
<polygon fill="#ffffff" stroke="#000000" points="1140,-396 968,-396 968,-360 1146,-360 1146,-390 1140,-396"/>
<polyline fill="none" stroke="#000000" points="1140,-396 1140,-390 "/>
<polyline fill="none" stroke="#000000" points="1146,-390 1140,-390 "/>
<text text-anchor="middle" x="1057" y="-374.3" font-family="Patua One" font-size="14.00" fill="#b03a2e">Tracking Information Flow</text>
</a>
</g>
</g>
<!-- Fuzzer&#45;&gt;InformationFlow -->
<g id="edge4" class="edge">
<title>Fuzzer&#45;&gt;InformationFlow</title>
<path fill="none" stroke="#000000" d="M969.524,-431.8314C984.4891,-422.6221 1002.8386,-411.3301 1018.8603,-401.4706"/>
<polygon fill="#000000" stroke="#000000" points="1020.8032,-404.3847 1027.4854,-396.1628 1017.1345,-398.423 1020.8032,-404.3847"/>
</g>
<!-- FuzzingInTheLarge -->
<g id="node6" class="node">
<title>FuzzingInTheLarge</title>
<g id="a_node6"><a xlink:href="FuzzingInTheLarge.ipynb" xlink:title="FuzzingInTheLarge">
<polygon fill="#ffffff" stroke="#000000" points="1386,-396 1164,-396 1164,-360 1392,-360 1392,-390 1386,-396"/>
<polyline fill="none" stroke="#000000" points="1386,-396 1386,-390 "/>
<polyline fill="none" stroke="#000000" points="1392,-390 1386,-390 "/>
<text text-anchor="middle" x="1278" y="-374.3" font-family="Patua One" font-size="14.00" fill="#b03a2e">Practical Steps with FuzzManager</text>
</a>
</g>
</g>
<!-- Fuzzer&#45;&gt;FuzzingInTheLarge -->
<g id="edge5" class="edge">
<title>Fuzzer&#45;&gt;FuzzingInTheLarge</title>
<path fill="none" stroke="#000000" d="M1024.8554,-431.9243C1073.1626,-421.634 1133.7845,-408.7205 1183.5924,-398.1105"/>
<polygon fill="#000000" stroke="#000000" points="1184.3516,-401.5274 1193.4029,-396.0207 1182.8931,-394.681 1184.3516,-401.5274"/>
</g>
<!-- MutationFuzzer -->
<g id="node8" class="node">
<title>MutationFuzzer</title>
<g id="a_node8"><a xlink:href="MutationFuzzer.ipynb" xlink:title="MutationFuzzer">
<polygon fill="#ffffff" stroke="#000000" points="343.5,-252 182.5,-252 182.5,-216 349.5,-216 349.5,-246 343.5,-252"/>
<polyline fill="none" stroke="#000000" points="343.5,-252 343.5,-246 "/>
<polyline fill="none" stroke="#000000" points="349.5,-246 343.5,-246 "/>
<text text-anchor="middle" x="266" y="-230.3" font-family="Patua One" font-size="14.00" fill="#b03a2e">Mutation&#45;Based Fuzzing</text>
</a>
</g>
</g>
<!-- Coverage&#45;&gt;MutationFuzzer -->
<g id="edge7" class="edge">
<title>Coverage&#45;&gt;MutationFuzzer</title>
<path fill="none" stroke="#000000" d="M334.7845,-287.8314C323.453,-278.9632 309.6536,-268.1637 297.3973,-258.5718"/>
<polygon fill="#000000" stroke="#000000" points="299.2402,-255.5697 289.2081,-252.1628 294.926,-261.0822 299.2402,-255.5697"/>
</g>
<!-- GrammarCoverageFuzzer -->
<g id="node9" class="node">
<title>GrammarCoverageFuzzer</title>
<g id="a_node9"><a xlink:href="GrammarCoverageFuzzer.ipynb" xlink:title="GrammarCoverageFuzzer">
<polygon fill="#ffffff" stroke="#000000" points="807,-252 673,-252 673,-216 813,-216 813,-246 807,-252"/>
<polyline fill="none" stroke="#000000" points="807,-252 807,-246 "/>
<polyline fill="none" stroke="#000000" points="813,-246 807,-246 "/>
<text text-anchor="middle" x="743" y="-230.3" font-family="Patua One" font-size="14.00" fill="#b03a2e">Grammar Coverage</text>
</a>
</g>
</g>
<!-- Coverage&#45;&gt;GrammarCoverageFuzzer -->
<g id="edge8" class="edge">
<title>Coverage&#45;&gt;GrammarCoverageFuzzer</title>
<path fill="none" stroke="#000000" d="M421.1717,-295.7876C480.9261,-285.9153 573.3463,-270.0998 662.7836,-252.1994"/>
<polygon fill="#000000" stroke="#000000" points="663.7148,-255.5822 672.8275,-250.1777 662.3334,-248.7199 663.7148,-255.5822"/>
</g>
<!-- ProbabilisticGrammarFuzzer -->
<g id="node10" class="node">
<title>ProbabilisticGrammarFuzzer</title>
<g id="a_node10"><a xlink:href="ProbabilisticGrammarFuzzer.ipynb" xlink:title="ProbabilisticGrammarFuzzer">
<polygon fill="#ffffff" stroke="#000000" points="349,-180 147,-180 147,-144 355,-144 355,-174 349,-180"/>
<polyline fill="none" stroke="#000000" points="349,-180 349,-174 "/>
<polyline fill="none" stroke="#000000" points="355,-174 349,-174 "/>
<text text-anchor="middle" x="251" y="-158.3" font-family="Patua One" font-size="14.00" fill="#b03a2e">Probabilistic Grammar Fuzzing</text>
</a>
</g>
</g>
<!-- Coverage&#45;&gt;ProbabilisticGrammarFuzzer -->
<g id="edge9" class="edge">
<title>Coverage&#45;&gt;ProbabilisticGrammarFuzzer</title>
<path fill="none" stroke="#000000" d="M294.934,-295.8533C247.3649,-286.7621 187.8534,-271.8089 173,-252 163.4013,-239.199 165.5743,-230.1725 173,-216 179.4585,-203.6735 190.1505,-193.6013 201.5778,-185.6382"/>
<polygon fill="#000000" stroke="#000000" points="203.4786,-188.5771 209.9787,-180.2105 199.6798,-182.6975 203.4786,-188.5771"/>
</g>
<!-- GrammarMiner -->
<g id="node11" class="node">
<title>GrammarMiner</title>
<g id="a_node11"><a xlink:href="GrammarMiner.ipynb" xlink:title="GrammarMiner">
<polygon fill="#ffffff" stroke="#000000" points="524.5,-252 367.5,-252 367.5,-216 530.5,-216 530.5,-246 524.5,-252"/>
<polyline fill="none" stroke="#000000" points="524.5,-252 524.5,-246 "/>
<polyline fill="none" stroke="#000000" points="530.5,-246 524.5,-246 "/>
<text text-anchor="middle" x="449" y="-230.3" font-family="Patua One" font-size="14.00" fill="#b03a2e">Mining Input Grammars</text>
</a>
</g>
</g>
<!-- Coverage&#45;&gt;GrammarMiner -->
<g id="edge10" class="edge">
<title>Coverage&#45;&gt;GrammarMiner</title>
<path fill="none" stroke="#000000" d="M380.9631,-287.8314C392.1715,-278.9632 405.8209,-268.1637 417.9439,-258.5718"/>
<polygon fill="#000000" stroke="#000000" points="420.3737,-261.1125 426.0442,-252.1628 416.0303,-255.6229 420.3737,-261.1125"/>
</g>
<!-- SymbolicFuzzer -->
<g id="node12" class="node">
<title>SymbolicFuzzer</title>
<g id="a_node12"><a xlink:href="SymbolicFuzzer.ipynb" xlink:title="SymbolicFuzzer">
<polygon fill="#ffffff" stroke="#000000" points="120,-252 0,-252 0,-216 126,-216 126,-246 120,-252"/>
<polyline fill="none" stroke="#000000" points="120,-252 120,-246 "/>
<polyline fill="none" stroke="#000000" points="126,-246 120,-246 "/>
<text text-anchor="middle" x="63" y="-230.3" font-family="Patua One" font-size="14.00" fill="#b03a2e">Symbolic Fuzzing</text>
</a>
</g>
</g>
<!-- Coverage&#45;&gt;SymbolicFuzzer -->
<g id="edge11" class="edge">
<title>Coverage&#45;&gt;SymbolicFuzzer</title>
<path fill="none" stroke="#000000" d="M294.7151,-290.5542C248.1495,-279.189 184.7434,-263.7136 136.029,-251.824"/>
<polygon fill="#000000" stroke="#000000" points="136.725,-248.3912 126.1802,-249.4203 135.0652,-255.1916 136.725,-248.3912"/>
</g>
<!-- EvoGrammarFuzzer -->
<g id="node13" class="node">
<title>EvoGrammarFuzzer</title>
<g id="a_node13"><a xlink:href="EvoGrammarFuzzer.ipynb" xlink:title="EvoGrammarFuzzer">
<polygon fill="#ffffff" stroke="#000000" points="1267.5,-108 1064.5,-108 1064.5,-72 1273.5,-72 1273.5,-102 1267.5,-108"/>
<polyline fill="none" stroke="#000000" points="1267.5,-108 1267.5,-102 "/>
<polyline fill="none" stroke="#000000" points="1273.5,-102 1267.5,-102 "/>
<text text-anchor="middle" x="1169" y="-86.3" font-family="Patua One" font-size="14.00" fill="#b03a2e">Evolutionary Grammar Fuzzing</text>
</a>
</g>
</g>
<!-- SearchBasedFuzzer&#45;&gt;EvoGrammarFuzzer -->
<g id="edge12" class="edge">
<title>SearchBasedFuzzer&#45;&gt;EvoGrammarFuzzer</title>
<path fill="none" stroke="#000000" d="M1252.9789,-287.9855C1268.174,-279.4759 1283.4432,-267.6732 1292,-252 1299.667,-237.9566 1297.8004,-230.9116 1292,-216 1275.1337,-172.6402 1234.8498,-136.3031 1204.9527,-113.9633"/>
<polygon fill="#000000" stroke="#000000" points="1206.9668,-111.1003 1196.8237,-108.0393 1202.8441,-116.7575 1206.9668,-111.1003"/>
</g>
<!-- GrammarFuzzer -->
<g id="node14" class="node">
<title>GrammarFuzzer</title>
<g id="a_node14"><a xlink:href="GrammarFuzzer.ipynb" xlink:title="GrammarFuzzer">
<polygon fill="#ffffff" stroke="#000000" points="915,-324 739,-324 739,-288 921,-288 921,-318 915,-324"/>
<polyline fill="none" stroke="#000000" points="915,-324 915,-318 "/>
<polyline fill="none" stroke="#000000" points="921,-318 915,-318 "/>
<text text-anchor="middle" x="830" y="-302.3" font-family="Patua One" font-size="14.00" fill="#b03a2e">Efficient Grammar Fuzzing</text>
</a>
</g>
</g>
<!-- Grammars&#45;&gt;GrammarFuzzer -->
<g id="edge13" class="edge">
<title>Grammars&#45;&gt;GrammarFuzzer</title>
<path fill="none" stroke="#000000" d="M830,-359.8314C830,-352.131 830,-342.9743 830,-334.4166"/>
<polygon fill="#000000" stroke="#000000" points="833.5001,-334.4132 830,-324.4133 826.5001,-334.4133 833.5001,-334.4132"/>
</g>
<!-- Intro_Testing -->
<g id="node7" class="node">
<title>Intro_Testing</title>
<g id="a_node7"><a xlink:href="Intro_Testing.ipynb" xlink:title="Intro_Testing">
<polygon fill="#ffffff" stroke="#000000" points="1041,-540 833,-540 833,-504 1047,-504 1047,-534 1041,-540"/>
<polyline fill="none" stroke="#000000" points="1041,-540 1041,-534 "/>
<polyline fill="none" stroke="#000000" points="1047,-534 1041,-534 "/>
<text text-anchor="middle" x="940" y="-518.3" font-family="Patua One" font-size="14.00" fill="#b03a2e">Introduction to Software Testing</text>
</a>
</g>
</g>
<!-- Intro_Testing&#45;&gt;Fuzzer -->
<g id="edge6" class="edge">
<title>Intro_Testing&#45;&gt;Fuzzer</title>
<path fill="none" stroke="#000000" d="M940,-503.8314C940,-496.131 940,-486.9743 940,-478.4166"/>
<polygon fill="#000000" stroke="#000000" points="943.5001,-478.4132 940,-468.4133 936.5001,-478.4133 943.5001,-478.4132"/>
</g>
<!-- ConfigurationFuzzer -->
<g id="node19" class="node">
<title>ConfigurationFuzzer</title>
<g id="a_node19"><a xlink:href="ConfigurationFuzzer.ipynb" xlink:title="ConfigurationFuzzer">
<polygon fill="#ffffff" stroke="#000000" points="742.5,-180 591.5,-180 591.5,-144 748.5,-144 748.5,-174 742.5,-180"/>
<polyline fill="none" stroke="#000000" points="742.5,-180 742.5,-174 "/>
<polyline fill="none" stroke="#000000" points="748.5,-174 742.5,-174 "/>
<text text-anchor="middle" x="670" y="-158.3" font-family="Patua One" font-size="14.00" fill="#b03a2e">Testing Configurations</text>
</a>
</g>
</g>
<!-- GrammarCoverageFuzzer&#45;&gt;ConfigurationFuzzer -->
<g id="edge20" class="edge">
<title>GrammarCoverageFuzzer&#45;&gt;ConfigurationFuzzer</title>
<path fill="none" stroke="#000000" d="M724.579,-215.8314C715.8471,-207.219 705.2683,-196.7851 695.7577,-187.4048"/>
<polygon fill="#000000" stroke="#000000" points="697.9925,-184.6931 688.4151,-180.1628 693.077,-189.6769 697.9925,-184.6931"/>
</g>
<!-- Carver -->
<g id="node20" class="node">
<title>Carver</title>
<g id="a_node20"><a xlink:href="Carver.ipynb" xlink:title="Carver">
<polygon fill="#ffffff" stroke="#000000" points="876,-36 750,-36 750,0 882,0 882,-30 876,-36"/>
<polyline fill="none" stroke="#000000" points="876,-36 876,-30 "/>
<polyline fill="none" stroke="#000000" points="882,-30 876,-30 "/>
<text text-anchor="middle" x="816" y="-14.3" font-family="Patua One" font-size="14.00" fill="#b03a2e">Carving Unit Tests</text>
</a>
</g>
</g>
<!-- GrammarCoverageFuzzer&#45;&gt;Carver -->
<g id="edge21" class="edge">
<title>GrammarCoverageFuzzer&#45;&gt;Carver</title>
<path fill="none" stroke="#000000" d="M748.6569,-215.9445C758.1129,-185.9415 777.8811,-123.9732 796,-72 798.948,-63.5437 802.2818,-54.3936 805.3703,-46.0706"/>
<polygon fill="#000000" stroke="#000000" points="808.7506,-47.0234 808.9736,-36.4309 802.1937,-44.5724 808.7506,-47.0234"/>
</g>
<!-- GUIFuzzer -->
<g id="node21" class="node">
<title>GUIFuzzer</title>
<g id="a_node21"><a xlink:href="GUIFuzzer.ipynb" xlink:title="GUIFuzzer">
<polygon fill="#ffffff" stroke="#000000" points="1024.5,-180 805.5,-180 805.5,-144 1030.5,-144 1030.5,-174 1024.5,-180"/>
<polyline fill="none" stroke="#000000" points="1024.5,-180 1024.5,-174 "/>
<polyline fill="none" stroke="#000000" points="1030.5,-174 1024.5,-174 "/>
<text text-anchor="middle" x="918" y="-158.3" font-family="Patua One" font-size="14.00" fill="#b03a2e">Testing Graphical User Interfaces</text>
</a>
</g>
</g>
<!-- GrammarCoverageFuzzer&#45;&gt;GUIFuzzer -->
<g id="edge22" class="edge">
<title>GrammarCoverageFuzzer&#45;&gt;GUIFuzzer</title>
<path fill="none" stroke="#000000" d="M787.1599,-215.8314C810.7732,-206.1162 840.0202,-194.0831 864.87,-183.8592"/>
<polygon fill="#000000" stroke="#000000" points="866.2415,-187.0797 874.1577,-180.038 863.5781,-180.6061 866.2415,-187.0797"/>
</g>
<!-- APIFuzzer -->
<g id="node23" class="node">
<title>APIFuzzer</title>
<g id="a_node23"><a xlink:href="APIFuzzer.ipynb" xlink:title="APIFuzzer">
<polygon fill="#ffffff" stroke="#000000" points="898.5,-108 805.5,-108 805.5,-72 904.5,-72 904.5,-102 898.5,-108"/>
<polyline fill="none" stroke="#000000" points="898.5,-108 898.5,-102 "/>
<polyline fill="none" stroke="#000000" points="904.5,-102 898.5,-102 "/>
<text text-anchor="middle" x="855" y="-86.3" font-family="Patua One" font-size="14.00" fill="#b03a2e">Fuzzing APIs</text>
</a>
</g>
</g>
<!-- ProbabilisticGrammarFuzzer&#45;&gt;APIFuzzer -->
<g id="edge26" class="edge">
<title>ProbabilisticGrammarFuzzer&#45;&gt;APIFuzzer</title>
<path fill="none" stroke="#000000" d="M355.0298,-145.2347C358.0517,-144.81 361.0468,-144.3974 364,-144 519.2386,-123.1118 702.9063,-104.541 795.409,-95.6143"/>
<polygon fill="#000000" stroke="#000000" points="795.8024,-99.0927 805.4214,-94.6514 795.1322,-92.1248 795.8024,-99.0927"/>
</g>
<!-- GrammarFuzzer&#45;&gt;GrammarCoverageFuzzer -->
<g id="edge14" class="edge">
<title>GrammarFuzzer&#45;&gt;GrammarCoverageFuzzer</title>
<path fill="none" stroke="#000000" d="M808.0462,-287.8314C797.3305,-278.9632 784.2811,-268.1637 772.691,-258.5718"/>
<polygon fill="#000000" stroke="#000000" points="774.8822,-255.8422 764.9467,-252.1628 770.4192,-261.2349 774.8822,-255.8422"/>
</g>
<!-- GrammarFuzzer&#45;&gt;GrammarMiner -->
<g id="edge18" class="edge">
<title>GrammarFuzzer&#45;&gt;GrammarMiner</title>
<path fill="none" stroke="#000000" d="M738.8467,-289.2967C684.2669,-279.2313 613.2324,-266.0203 541.0372,-252.1893"/>
<polygon fill="#000000" stroke="#000000" points="541.3245,-248.6806 530.8441,-250.2338 540.0056,-255.5552 541.3245,-248.6806"/>
</g>
<!-- Parser -->
<g id="node15" class="node">
<title>Parser</title>
<g id="a_node15"><a xlink:href="Parser.ipynb" xlink:title="Parser">
<polygon fill="#ffffff" stroke="#000000" points="649,-252 549,-252 549,-216 655,-216 655,-246 649,-252"/>
<polyline fill="none" stroke="#000000" points="649,-252 649,-246 "/>
<polyline fill="none" stroke="#000000" points="655,-246 649,-246 "/>
<text text-anchor="middle" x="602" y="-230.3" font-family="Patua One" font-size="14.00" fill="#b03a2e">Parsing Inputs</text>
</a>
</g>
</g>
<!-- GrammarFuzzer&#45;&gt;Parser -->
<g id="edge15" class="edge">
<title>GrammarFuzzer&#45;&gt;Parser</title>
<path fill="none" stroke="#000000" d="M772.7603,-287.9243C739.9842,-277.574 698.804,-264.5697 665.0959,-253.925"/>
<polygon fill="#000000" stroke="#000000" points="665.9372,-250.5204 655.3473,-250.8465 663.8292,-257.1955 665.9372,-250.5204"/>
</g>
<!-- GeneratorGrammarFuzzer -->
<g id="node16" class="node">
<title>GeneratorGrammarFuzzer</title>
<g id="a_node16"><a xlink:href="GeneratorGrammarFuzzer.ipynb" xlink:title="GeneratorGrammarFuzzer">
<polygon fill="#ffffff" stroke="#000000" points="1211,-180 1049,-180 1049,-144 1217,-144 1217,-174 1211,-180"/>
<polyline fill="none" stroke="#000000" points="1211,-180 1211,-174 "/>
<polyline fill="none" stroke="#000000" points="1217,-174 1211,-174 "/>
<text text-anchor="middle" x="1133" y="-158.3" font-family="Patua One" font-size="14.00" fill="#b03a2e">Fuzzing with Generators</text>
</a>
</g>
</g>
<!-- GrammarFuzzer&#45;&gt;GeneratorGrammarFuzzer -->
<g id="edge16" class="edge">
<title>GrammarFuzzer&#45;&gt;GeneratorGrammarFuzzer</title>
<path fill="none" stroke="#000000" d="M921.4317,-288.2692C952.1248,-279.9912 985.7178,-268.2655 1014,-252 1034.1671,-240.4016 1033.811,-230.505 1052,-216 1065.3326,-205.3678 1080.7382,-194.7282 1094.5116,-185.7386"/>
<polygon fill="#000000" stroke="#000000" points="1096.7764,-188.4431 1103.2889,-180.0861 1092.9864,-182.5579 1096.7764,-188.4431"/>
</g>
<!-- Reducer -->
<g id="node17" class="node">
<title>Reducer</title>
<g id="a_node17"><a xlink:href="Reducer.ipynb" xlink:title="Reducer">
<polygon fill="#ffffff" stroke="#000000" points="1277,-252 1061,-252 1061,-216 1283,-216 1283,-246 1277,-252"/>
<polyline fill="none" stroke="#000000" points="1277,-252 1277,-246 "/>
<polyline fill="none" stroke="#000000" points="1283,-246 1277,-246 "/>
<text text-anchor="middle" x="1172" y="-230.3" font-family="Patua One" font-size="14.00" fill="#b03a2e">Reducing Failure&#45;Inducing Inputs</text>
</a>
</g>
</g>
<!-- GrammarFuzzer&#45;&gt;Reducer -->
<g id="edge17" class="edge">
<title>GrammarFuzzer&#45;&gt;Reducer</title>
<path fill="none" stroke="#000000" d="M915.8596,-287.9243C964.7385,-277.634 1026.0778,-264.7205 1076.4751,-254.1105"/>
<polygon fill="#000000" stroke="#000000" points="1077.3373,-257.5058 1086.4018,-252.0207 1075.8952,-250.6559 1077.3373,-257.5058"/>
</g>
<!-- WebFuzzer -->
<g id="node18" class="node">
<title>WebFuzzer</title>
<g id="a_node18"><a xlink:href="WebFuzzer.ipynb" xlink:title="WebFuzzer">
<polygon fill="#ffffff" stroke="#000000" points="999,-252 831,-252 831,-216 1005,-216 1005,-246 999,-252"/>
<polyline fill="none" stroke="#000000" points="999,-252 999,-246 "/>
<polyline fill="none" stroke="#000000" points="1005,-246 999,-246 "/>
<text text-anchor="middle" x="918" y="-230.3" font-family="Patua One" font-size="14.00" fill="#b03a2e">Testing Web Applications</text>
</a>
</g>
</g>
<!-- GrammarFuzzer&#45;&gt;WebFuzzer -->
<g id="edge19" class="edge">
<title>GrammarFuzzer&#45;&gt;WebFuzzer</title>
<path fill="none" stroke="#000000" d="M852.2061,-287.8314C863.045,-278.9632 876.2444,-268.1637 887.9678,-258.5718"/>
<polygon fill="#000000" stroke="#000000" points="890.2777,-261.2041 895.801,-252.1628 885.845,-255.7864 890.2777,-261.2041"/>
</g>
<!-- Parser&#45;&gt;ProbabilisticGrammarFuzzer -->
<g id="edge24" class="edge">
<title>Parser&#45;&gt;ProbabilisticGrammarFuzzer</title>
<path fill="none" stroke="#000000" d="M548.8153,-218.4284C545.5022,-217.5751 542.2106,-216.7579 539,-216 482.1382,-202.5767 418.3314,-190.3292 365.2553,-180.9041"/>
<polygon fill="#000000" stroke="#000000" points="365.5878,-177.4088 355.1316,-179.1174 364.3711,-184.3022 365.5878,-177.4088"/>
</g>
<!-- LangFuzzer -->
<g id="node22" class="node">
<title>LangFuzzer</title>
<g id="a_node22"><a xlink:href="LangFuzzer.ipynb" xlink:title="LangFuzzer">
<polygon fill="#ffffff" stroke="#000000" points="567,-180 373,-180 373,-144 573,-144 573,-174 567,-180"/>
<polyline fill="none" stroke="#000000" points="567,-180 567,-174 "/>
<polyline fill="none" stroke="#000000" points="573,-174 567,-174 "/>
<text text-anchor="middle" x="473" y="-158.3" font-family="Patua One" font-size="14.00" fill="#b03a2e">Fuzzing with Input Fragments</text>
</a>
</g>
</g>
<!-- Parser&#45;&gt;LangFuzzer -->
<g id="edge23" class="edge">
<title>Parser&#45;&gt;LangFuzzer</title>
<path fill="none" stroke="#000000" d="M569.4479,-215.8314C552.7952,-206.5368 532.3415,-195.1208 514.5615,-185.1971"/>
<polygon fill="#000000" stroke="#000000" points="515.9795,-181.9803 505.5417,-180.1628 512.5679,-188.0927 515.9795,-181.9803"/>
</g>
<!-- GeneratorGrammarFuzzer&#45;&gt;APIFuzzer -->
<g id="edge27" class="edge">
<title>GeneratorGrammarFuzzer&#45;&gt;APIFuzzer</title>
<path fill="none" stroke="#000000" d="M1063.2077,-143.9243C1017.3988,-132.0601 958.1259,-116.7089 914.5439,-105.4214"/>
<polygon fill="#000000" stroke="#000000" points="915.217,-101.9804 904.6589,-102.8613 913.4619,-108.7568 915.217,-101.9804"/>
</g>
<!-- WebFuzzer&#45;&gt;GUIFuzzer -->
<g id="edge29" class="edge">
<title>WebFuzzer&#45;&gt;GUIFuzzer</title>
<path fill="none" stroke="#000000" d="M918,-215.8314C918,-208.131 918,-198.9743 918,-190.4166"/>
<polygon fill="#000000" stroke="#000000" points="921.5001,-190.4132 918,-180.4133 914.5001,-190.4133 921.5001,-190.4132"/>
</g>
<!-- LangFuzzer&#45;&gt;EvoGrammarFuzzer -->
<g id="edge25" class="edge">
<title>LangFuzzer&#45;&gt;EvoGrammarFuzzer</title>
<path fill="none" stroke="#000000" d="M573.0424,-145.1924C576.0601,-144.7773 579.0513,-144.3786 582,-144 745.4826,-123.0094 935.5967,-107.0571 1054.1271,-98.1117"/>
<polygon fill="#000000" stroke="#000000" points="1054.5964,-101.5865 1064.3062,-97.3475 1054.0722,-94.6061 1054.5964,-101.5865"/>
</g>
<!-- APIFuzzer&#45;&gt;Carver -->
<g id="edge28" class="edge">
<title>APIFuzzer&#45;&gt;Carver</title>
<path fill="none" stroke="#000000" d="M845.1587,-71.8314C840.8043,-63.7925 835.5902,-54.1666 830.7831,-45.2918"/>
<polygon fill="#000000" stroke="#000000" points="833.8143,-43.5392 825.9739,-36.4133 827.6592,-46.8732 833.8143,-43.5392"/>
</g>
</g>
</svg>
