<?xml version="1.0" encoding="UTF-8" standalone="no"?>
<!DOCTYPE svg PUBLIC "-//W3C//DTD SVG 1.1//EN"
 "http://www.w3.org/Graphics/SVG/1.1/DTD/svg11.dtd">
<!-- Generated by graphviz version 2.40.1 (20161225.0304)
 -->
<!-- Title: %3 Pages: 1 -->
<svg width="2151pt" height="548pt"
 viewBox="0.00 0.00 2150.50 548.00" xmlns="http://www.w3.org/2000/svg" xmlns:xlink="http://www.w3.org/1999/xlink">
<g id="graph0" class="graph" transform="scale(1 1) rotate(0) translate(4 544)">
<title>%3</title>
<polygon fill="#ffffff" stroke="transparent" points="-4,4 -4,-544 2146.5,-544 2146.5,4 -4,4"/>
<!-- Fuzzer -->
<g id="node1" class="node">
<title>Fuzzer</title>
<g id="a_node1"><a xlink:href="Fuzzer.ipynb" xlink:title="Fuzzer">
<polygon fill="#ffffff" stroke="#000000" points="1456.5,-468 1158.5,-468 1158.5,-432 1462.5,-432 1462.5,-462 1456.5,-468"/>
<polyline fill="none" stroke="#000000" points="1456.5,-468 1456.5,-462 "/>
<polyline fill="none" stroke="#000000" points="1462.5,-462 1456.5,-462 "/>
<text text-anchor="middle" x="1310.5" y="-446.3" font-family="Patua One" font-size="14.00" fill="#b03a2e">Fuzzing: Breaking Things with Random Inputs</text>
</a>
</g>
</g>
<!-- Coverage -->
<g id="node2" class="node">
<title>Coverage</title>
<g id="a_node2"><a xlink:href="Coverage.ipynb" xlink:title="Coverage">
<polygon fill="#ffffff" stroke="#000000" points="951,-324 834,-324 834,-288 957,-288 957,-318 951,-324"/>
<polyline fill="none" stroke="#000000" points="951,-324 951,-318 "/>
<polyline fill="none" stroke="#000000" points="957,-318 951,-318 "/>
<text text-anchor="middle" x="895.5" y="-302.3" font-family="Patua One" font-size="14.00" fill="#b03a2e">Getting Coverage</text>
</a>
</g>
</g>
<!-- Fuzzer&#45;&gt;Coverage -->
<g id="edge1" class="edge">
<title>Fuzzer&#45;&gt;Coverage</title>
<path fill="none" stroke="#000000" d="M1245.9853,-431.9055C1211.5195,-421.9225 1168.4828,-408.9507 1130.5,-396 1067.636,-374.5657 996.5605,-346.8495 949.1961,-327.8715"/>
<polygon fill="#000000" stroke="#000000" points="950.3388,-324.5588 939.7548,-324.0785 947.7292,-331.0542 950.3388,-324.5588"/>
</g>
<!-- SearchBasedFuzzer -->
<g id="node3" class="node">
<title>SearchBasedFuzzer</title>
<g id="a_node3"><a xlink:href="SearchBasedFuzzer.ipynb" xlink:title="SearchBasedFuzzer">
<polygon fill="#ffffff" stroke="#000000" points="1469.5,-396 1323.5,-396 1323.5,-360 1475.5,-360 1475.5,-390 1469.5,-396"/>
<polyline fill="none" stroke="#000000" points="1469.5,-396 1469.5,-390 "/>
<polyline fill="none" stroke="#000000" points="1475.5,-390 1469.5,-390 "/>
<text text-anchor="middle" x="1399.5" y="-374.3" font-family="Patua One" font-size="14.00" fill="#b03a2e">Search&#45;Based Fuzzing</text>
</a>
</g>
</g>
<!-- Fuzzer&#45;&gt;SearchBasedFuzzer -->
<g id="edge2" class="edge">
<title>Fuzzer&#45;&gt;SearchBasedFuzzer</title>
<path fill="none" stroke="#000000" d="M1332.9585,-431.8314C1343.9205,-422.9632 1357.2699,-412.1637 1369.1265,-402.5718"/>
<polygon fill="#000000" stroke="#000000" points="1371.4755,-405.1734 1377.0487,-396.1628 1367.0729,-399.7313 1371.4755,-405.1734"/>
</g>
<!-- Grammars -->
<g id="node4" class="node">
<title>Grammars</title>
<g id="a_node4"><a xlink:href="Grammars.ipynb" xlink:title="Grammars">
<polygon fill="#ffffff" stroke="#000000" points="1299,-396 1140,-396 1140,-360 1305,-360 1305,-390 1299,-396"/>
<polyline fill="none" stroke="#000000" points="1299,-396 1299,-390 "/>
<polyline fill="none" stroke="#000000" points="1305,-390 1299,-390 "/>
<text text-anchor="middle" x="1222.5" y="-374.3" font-family="Patua One" font-size="14.00" fill="#b03a2e">Fuzzing with Grammars</text>
</a>
</g>
</g>
<!-- Fuzzer&#45;&gt;Grammars -->
<g id="edge3" class="edge">
<title>Fuzzer&#45;&gt;Grammars</title>
<path fill="none" stroke="#000000" d="M1288.2939,-431.8314C1277.455,-422.9632 1264.2556,-412.1637 1252.5322,-402.5718"/>
<polygon fill="#000000" stroke="#000000" points="1254.655,-399.7864 1244.699,-396.1628 1250.2223,-405.2041 1254.655,-399.7864"/>
</g>
<!-- FuzzingInTheLarge -->
<g id="node5" class="node">
<title>FuzzingInTheLarge</title>
<g id="a_node5"><a xlink:href="FuzzingInTheLarge.ipynb" xlink:title="FuzzingInTheLarge">
<polygon fill="#ffffff" stroke="#000000" points="1713.5,-396 1493.5,-396 1493.5,-360 1719.5,-360 1719.5,-390 1713.5,-396"/>
<polyline fill="none" stroke="#000000" points="1713.5,-396 1713.5,-390 "/>
<polyline fill="none" stroke="#000000" points="1719.5,-390 1713.5,-390 "/>
<text text-anchor="middle" x="1606.5" y="-374.3" font-family="Patua One" font-size="14.00" fill="#b03a2e">Practical Steps with FuzzManager</text>
</a>
</g>
</g>
<!-- Fuzzer&#45;&gt;FuzzingInTheLarge -->
<g id="edge4" class="edge">
<title>Fuzzer&#45;&gt;FuzzingInTheLarge</title>
<path fill="none" stroke="#000000" d="M1384.8112,-431.9243C1426.6751,-421.7412 1479.0999,-408.9892 1522.4573,-398.4428"/>
<polygon fill="#000000" stroke="#000000" points="1523.5255,-401.7851 1532.415,-396.0207 1521.871,-394.9834 1523.5255,-401.7851"/>
</g>
<!-- MutationFuzzer -->
<g id="node7" class="node">
<title>MutationFuzzer</title>
<g id="a_node7"><a xlink:href="MutationFuzzer.ipynb" xlink:title="MutationFuzzer">
<polygon fill="#ffffff" stroke="#000000" points="163,-252 0,-252 0,-216 169,-216 169,-246 163,-252"/>
<polyline fill="none" stroke="#000000" points="163,-252 163,-246 "/>
<polyline fill="none" stroke="#000000" points="169,-246 163,-246 "/>
<text text-anchor="middle" x="84.5" y="-230.3" font-family="Patua One" font-size="14.00" fill="#b03a2e">Mutation&#45;Based Fuzzing</text>
</a>
</g>
</g>
<!-- Coverage&#45;&gt;MutationFuzzer -->
<g id="edge6" class="edge">
<title>Coverage&#45;&gt;MutationFuzzer</title>
<path fill="none" stroke="#000000" d="M833.8726,-303.728C711.1478,-298.6886 427.4084,-284.4649 179.1604,-251.9966"/>
<polygon fill="#000000" stroke="#000000" points="179.6025,-248.5246 169.2303,-250.6855 178.6861,-255.4644 179.6025,-248.5246"/>
</g>
<!-- MutationAnalysis -->
<g id="node8" class="node">
<title>MutationAnalysis</title>
<g id="a_node8"><a xlink:href="MutationAnalysis.ipynb" xlink:title="MutationAnalysis">
<polygon fill="#ffffff" stroke="#000000" points="933.5,-252 589.5,-252 589.5,-216 939.5,-216 939.5,-246 933.5,-252"/>
<polyline fill="none" stroke="#000000" points="933.5,-252 933.5,-246 "/>
<polyline fill="none" stroke="#000000" points="939.5,-246 933.5,-246 "/>
<text text-anchor="middle" x="764.5" y="-230.3" font-family="Patua One" font-size="14.00" fill="#b03a2e">Evaluating Test Effectiveness with Mutation Analysis</text>
</a>
</g>
</g>
<!-- Coverage&#45;&gt;MutationAnalysis -->
<g id="edge7" class="edge">
<title>Coverage&#45;&gt;MutationAnalysis</title>
<path fill="none" stroke="#000000" d="M862.4432,-287.8314C845.5323,-278.5368 824.7615,-267.1208 806.7059,-257.1971"/>
<polygon fill="#000000" stroke="#000000" points="807.9957,-253.9122 797.5463,-252.1628 804.624,-260.0468 807.9957,-253.9122"/>
</g>
<!-- GrammarCoverageFuzzer -->
<g id="node9" class="node">
<title>GrammarCoverageFuzzer</title>
<g id="a_node9"><a xlink:href="GrammarCoverageFuzzer.ipynb" xlink:title="GrammarCoverageFuzzer">
<polygon fill="#ffffff" stroke="#000000" points="1087,-252 958,-252 958,-216 1093,-216 1093,-246 1087,-252"/>
<polyline fill="none" stroke="#000000" points="1087,-252 1087,-246 "/>
<polyline fill="none" stroke="#000000" points="1093,-246 1087,-246 "/>
<text text-anchor="middle" x="1025.5" y="-230.3" font-family="Patua One" font-size="14.00" fill="#b03a2e">Grammar Coverage</text>
</a>
</g>
</g>
<!-- Coverage&#45;&gt;GrammarCoverageFuzzer -->
<g id="edge8" class="edge">
<title>Coverage&#45;&gt;GrammarCoverageFuzzer</title>
<path fill="none" stroke="#000000" d="M928.3045,-287.8314C945.0862,-278.5368 965.6985,-267.1208 983.6163,-257.1971"/>
<polygon fill="#000000" stroke="#000000" points="985.6538,-260.0696 992.706,-252.1628 982.2623,-253.9461 985.6538,-260.0696"/>
</g>
<!-- ProbabilisticGrammarFuzzer -->
<g id="node10" class="node">
<title>ProbabilisticGrammarFuzzer</title>
<g id="a_node10"><a xlink:href="ProbabilisticGrammarFuzzer.ipynb" xlink:title="ProbabilisticGrammarFuzzer">
<polygon fill="#ffffff" stroke="#000000" points="1712.5,-180 1510.5,-180 1510.5,-144 1718.5,-144 1718.5,-174 1712.5,-180"/>
<polyline fill="none" stroke="#000000" points="1712.5,-180 1712.5,-174 "/>
<polyline fill="none" stroke="#000000" points="1718.5,-174 1712.5,-174 "/>
<text text-anchor="middle" x="1614.5" y="-158.3" font-family="Patua One" font-size="14.00" fill="#b03a2e">Probabilistic Grammar Fuzzing</text>
</a>
</g>
</g>
<!-- Coverage&#45;&gt;ProbabilisticGrammarFuzzer -->
<g id="edge9" class="edge">
<title>Coverage&#45;&gt;ProbabilisticGrammarFuzzer</title>
<path fill="none" stroke="#000000" d="M957.0079,-297.9363C999.5638,-290.4778 1056.4218,-276.6786 1101.5,-252 1122.1912,-240.6723 1118.9843,-225.6705 1140.5,-216 1284.552,-151.254 1339.3379,-198.657 1500.2283,-180.0616"/>
<polygon fill="#000000" stroke="#000000" points="1500.9757,-183.4963 1510.4754,-178.8052 1500.1238,-176.5483 1500.9757,-183.4963"/>
</g>
<!-- GrammarMiner -->
<g id="node11" class="node">
<title>GrammarMiner</title>
<g id="a_node11"><a xlink:href="GrammarMiner.ipynb" xlink:title="GrammarMiner">
<polygon fill="#ffffff" stroke="#000000" points="1503,-252 1342,-252 1342,-216 1509,-216 1509,-246 1503,-252"/>
<polyline fill="none" stroke="#000000" points="1503,-252 1503,-246 "/>
<polyline fill="none" stroke="#000000" points="1509,-246 1503,-246 "/>
<text text-anchor="middle" x="1425.5" y="-230.3" font-family="Patua One" font-size="14.00" fill="#b03a2e">Mining Input Grammars</text>
</a>
</g>
</g>
<!-- Coverage&#45;&gt;GrammarMiner -->
<g id="edge10" class="edge">
<title>Coverage&#45;&gt;GrammarMiner</title>
<path fill="none" stroke="#000000" d="M957.2007,-299.7174C1040.0165,-290.9865 1191.9048,-273.9287 1331.8423,-252.0445"/>
<polygon fill="#000000" stroke="#000000" points="1332.5626,-255.4743 1341.896,-250.4606 1331.4731,-248.5596 1332.5626,-255.4743"/>
</g>
<!-- DynamicInvariants -->
<g id="node12" class="node">
<title>DynamicInvariants</title>
<g id="a_node12"><a xlink:href="DynamicInvariants.ipynb" xlink:title="DynamicInvariants">
<polygon fill="#ffffff" stroke="#000000" points="391.5,-252 187.5,-252 187.5,-216 397.5,-216 397.5,-246 391.5,-252"/>
<polyline fill="none" stroke="#000000" points="391.5,-252 391.5,-246 "/>
<polyline fill="none" stroke="#000000" points="397.5,-246 391.5,-246 "/>
<text text-anchor="middle" x="292.5" y="-230.3" font-family="Patua One" font-size="14.00" fill="#b03a2e">Mining Function Specifications</text>
</a>
</g>
</g>
<!-- Coverage&#45;&gt;DynamicInvariants -->
<g id="edge11" class="edge">
<title>Coverage&#45;&gt;DynamicInvariants</title>
<path fill="none" stroke="#000000" d="M833.6329,-300.1015C742.6329,-291.2186 567.1111,-273.2998 407.7443,-252.136"/>
<polygon fill="#000000" stroke="#000000" points="408.1317,-248.6567 397.7564,-250.8025 407.2052,-255.5952 408.1317,-248.6567"/>
</g>
<!-- WhenToStopFuzzing -->
<g id="node13" class="node">
<title>WhenToStopFuzzing</title>
<g id="a_node13"><a xlink:href="WhenToStopFuzzing.ipynb" xlink:title="WhenToStopFuzzing">
<polygon fill="#ffffff" stroke="#000000" points="565,-252 416,-252 416,-216 571,-216 571,-246 565,-252"/>
<polyline fill="none" stroke="#000000" points="565,-252 565,-246 "/>
<polyline fill="none" stroke="#000000" points="571,-246 565,-246 "/>
<text text-anchor="middle" x="493.5" y="-230.3" font-family="Patua One" font-size="14.00" fill="#b03a2e">When To Stop Fuzzing</text>
</a>
</g>
</g>
<!-- Coverage&#45;&gt;WhenToStopFuzzing -->
<g id="edge12" class="edge">
<title>Coverage&#45;&gt;WhenToStopFuzzing</title>
<path fill="none" stroke="#000000" d="M833.8216,-296.0676C772.4091,-286.0328 675.2007,-269.7585 581.2253,-252.1053"/>
<polygon fill="#000000" stroke="#000000" points="581.7375,-248.6403 571.262,-250.2262 580.44,-255.519 581.7375,-248.6403"/>
</g>
<!-- GrammarFuzzer -->
<g id="node15" class="node">
<title>GrammarFuzzer</title>
<g id="a_node15"><a xlink:href="GrammarFuzzer.ipynb" xlink:title="GrammarFuzzer">
<polygon fill="#ffffff" stroke="#000000" points="1511,-324 1334,-324 1334,-288 1517,-288 1517,-318 1511,-324"/>
<polyline fill="none" stroke="#000000" points="1511,-324 1511,-318 "/>
<polyline fill="none" stroke="#000000" points="1517,-318 1511,-318 "/>
<text text-anchor="middle" x="1425.5" y="-302.3" font-family="Patua One" font-size="14.00" fill="#b03a2e">Efficient Grammar Fuzzing</text>
</a>
</g>
</g>
<!-- Grammars&#45;&gt;GrammarFuzzer -->
<g id="edge14" class="edge">
<title>Grammars&#45;&gt;GrammarFuzzer</title>
<path fill="none" stroke="#000000" d="M1273.4634,-359.9243C1301.2147,-350.0815 1335.7328,-337.8386 1364.8614,-327.5073"/>
<polygon fill="#000000" stroke="#000000" points="1366.2608,-330.7246 1374.5156,-324.0831 1363.9208,-324.1273 1366.2608,-330.7246"/>
</g>
<!-- Intro_Testing -->
<g id="node6" class="node">
<title>Intro_Testing</title>
<g id="a_node6"><a xlink:href="Intro_Testing.ipynb" xlink:title="Intro_Testing">
<polygon fill="#ffffff" stroke="#000000" points="1414,-540 1201,-540 1201,-504 1420,-504 1420,-534 1414,-540"/>
<polyline fill="none" stroke="#000000" points="1414,-540 1414,-534 "/>
<polyline fill="none" stroke="#000000" points="1420,-534 1414,-534 "/>
<text text-anchor="middle" x="1310.5" y="-518.3" font-family="Patua One" font-size="14.00" fill="#b03a2e">Introduction to Software Testing</text>
</a>
</g>
</g>
<!-- Intro_Testing&#45;&gt;Fuzzer -->
<g id="edge5" class="edge">
<title>Intro_Testing&#45;&gt;Fuzzer</title>
<path fill="none" stroke="#000000" d="M1310.5,-503.8314C1310.5,-496.131 1310.5,-486.9743 1310.5,-478.4166"/>
<polygon fill="#000000" stroke="#000000" points="1314.0001,-478.4132 1310.5,-468.4133 1307.0001,-478.4133 1314.0001,-478.4132"/>
</g>
<!-- GreyboxFuzzer -->
<g id="node14" class="node">
<title>GreyboxFuzzer</title>
<g id="a_node14"><a xlink:href="GreyboxFuzzer.ipynb" xlink:title="GreyboxFuzzer">
<polygon fill="#ffffff" stroke="#000000" points="138.5,-180 24.5,-180 24.5,-144 144.5,-144 144.5,-174 138.5,-180"/>
<polyline fill="none" stroke="#000000" points="138.5,-180 138.5,-174 "/>
<polyline fill="none" stroke="#000000" points="144.5,-174 138.5,-174 "/>
<text text-anchor="middle" x="84.5" y="-158.3" font-family="Patua One" font-size="14.00" fill="#b03a2e">Greybox Fuzzing</text>
</a>
</g>
</g>
<!-- MutationFuzzer&#45;&gt;GreyboxFuzzer -->
<g id="edge13" class="edge">
<title>MutationFuzzer&#45;&gt;GreyboxFuzzer</title>
<path fill="none" stroke="#000000" d="M84.5,-215.8314C84.5,-208.131 84.5,-198.9743 84.5,-190.4166"/>
<polygon fill="#000000" stroke="#000000" points="88.0001,-190.4132 84.5,-180.4133 81.0001,-190.4133 88.0001,-190.4132"/>
</g>
<!-- ConfigurationFuzzer -->
<g id="node20" class="node">
<title>ConfigurationFuzzer</title>
<g id="a_node20"><a xlink:href="ConfigurationFuzzer.ipynb" xlink:title="ConfigurationFuzzer">
<polygon fill="#ffffff" stroke="#000000" points="1024,-180 871,-180 871,-144 1030,-144 1030,-174 1024,-180"/>
<polyline fill="none" stroke="#000000" points="1024,-180 1024,-174 "/>
<polyline fill="none" stroke="#000000" points="1030,-174 1024,-174 "/>
<text text-anchor="middle" x="950.5" y="-158.3" font-family="Patua One" font-size="14.00" fill="#b03a2e">Testing Configurations</text>
</a>
</g>
</g>
<!-- GrammarCoverageFuzzer&#45;&gt;ConfigurationFuzzer -->
<g id="edge21" class="edge">
<title>GrammarCoverageFuzzer&#45;&gt;ConfigurationFuzzer</title>
<path fill="none" stroke="#000000" d="M1006.5743,-215.8314C997.5143,-207.1337 986.5191,-196.5783 976.6735,-187.1265"/>
<polygon fill="#000000" stroke="#000000" points="979.0574,-184.5633 969.4196,-180.1628 974.2096,-189.613 979.0574,-184.5633"/>
</g>
<!-- Carver -->
<g id="node21" class="node">
<title>Carver</title>
<g id="a_node21"><a xlink:href="Carver.ipynb" xlink:title="Carver">
<polygon fill="#ffffff" stroke="#000000" points="1293,-36 1168,-36 1168,0 1299,0 1299,-30 1293,-36"/>
<polyline fill="none" stroke="#000000" points="1293,-36 1293,-30 "/>
<polyline fill="none" stroke="#000000" points="1299,-30 1293,-30 "/>
<text text-anchor="middle" x="1233.5" y="-14.3" font-family="Patua One" font-size="14.00" fill="#b03a2e">Carving Unit Tests</text>
</a>
</g>
</g>
<!-- GrammarCoverageFuzzer&#45;&gt;Carver -->
<g id="edge22" class="edge">
<title>GrammarCoverageFuzzer&#45;&gt;Carver</title>
<path fill="none" stroke="#000000" d="M1033.5314,-215.8465C1042.5262,-196.7268 1058.3793,-166.3516 1077.5,-144 1112.7128,-102.8373 1162.75,-65.1652 1196.5831,-41.9468"/>
<polygon fill="#000000" stroke="#000000" points="1198.9295,-44.5846 1205.2429,-36.0763 1195.0016,-38.7905 1198.9295,-44.5846"/>
</g>
<!-- GUIFuzzer -->
<g id="node22" class="node">
<title>GUIFuzzer</title>
<g id="a_node22"><a xlink:href="GUIFuzzer.ipynb" xlink:title="GUIFuzzer">
<polygon fill="#ffffff" stroke="#000000" points="1300.5,-180 1086.5,-180 1086.5,-144 1306.5,-144 1306.5,-174 1300.5,-180"/>
<polyline fill="none" stroke="#000000" points="1300.5,-180 1300.5,-174 "/>
<polyline fill="none" stroke="#000000" points="1306.5,-174 1300.5,-174 "/>
<text text-anchor="middle" x="1196.5" y="-158.3" font-family="Patua One" font-size="14.00" fill="#b03a2e">Testing Graphical User Interfaces</text>
</a>
</g>
</g>
<!-- GrammarCoverageFuzzer&#45;&gt;GUIFuzzer -->
<g id="edge23" class="edge">
<title>GrammarCoverageFuzzer&#45;&gt;GUIFuzzer</title>
<path fill="none" stroke="#000000" d="M1068.6505,-215.8314C1091.6224,-206.159 1120.0509,-194.1891 1144.2632,-183.9944"/>
<polygon fill="#000000" stroke="#000000" points="1145.8016,-187.1443 1153.6598,-180.038 1143.0852,-180.6929 1145.8016,-187.1443"/>
</g>
<!-- APIFuzzer -->
<g id="node25" class="node">
<title>APIFuzzer</title>
<g id="a_node25"><a xlink:href="APIFuzzer.ipynb" xlink:title="APIFuzzer">
<polygon fill="#ffffff" stroke="#000000" points="1451,-108 1360,-108 1360,-72 1457,-72 1457,-102 1451,-108"/>
<polyline fill="none" stroke="#000000" points="1451,-108 1451,-102 "/>
<polyline fill="none" stroke="#000000" points="1457,-102 1451,-102 "/>
<text text-anchor="middle" x="1408.5" y="-86.3" font-family="Patua One" font-size="14.00" fill="#b03a2e">Fuzzing APIs</text>
</a>
</g>
</g>
<!-- ProbabilisticGrammarFuzzer&#45;&gt;APIFuzzer -->
<g id="edge27" class="edge">
<title>ProbabilisticGrammarFuzzer&#45;&gt;APIFuzzer</title>
<path fill="none" stroke="#000000" d="M1562.7834,-143.9243C1533.5317,-133.7004 1496.8711,-120.887 1466.6267,-110.3161"/>
<polygon fill="#000000" stroke="#000000" points="1467.645,-106.9645 1457.0501,-106.969 1465.3353,-113.5725 1467.645,-106.9645"/>
</g>
<!-- InformationFlow -->
<g id="node24" class="node">
<title>InformationFlow</title>
<g id="a_node24"><a xlink:href="InformationFlow.ipynb" xlink:title="InformationFlow">
<polygon fill="#ffffff" stroke="#000000" points="1914,-180 1737,-180 1737,-144 1920,-144 1920,-174 1914,-180"/>
<polyline fill="none" stroke="#000000" points="1914,-180 1914,-174 "/>
<polyline fill="none" stroke="#000000" points="1920,-174 1914,-174 "/>
<text text-anchor="middle" x="1828.5" y="-158.3" font-family="Patua One" font-size="14.00" fill="#b03a2e">Tracking Information Flow</text>
</a>
</g>
</g>
<!-- GrammarMiner&#45;&gt;InformationFlow -->
<g id="edge29" class="edge">
<title>GrammarMiner&#45;&gt;InformationFlow</title>
<path fill="none" stroke="#000000" d="M1509.0019,-219.0816C1572.1579,-207.7981 1659.1927,-192.2484 1726.4752,-180.2278"/>
<polygon fill="#000000" stroke="#000000" points="1727.4464,-183.6097 1736.6749,-178.4055 1726.2152,-176.7189 1727.4464,-183.6097"/>
</g>
<!-- GrammarFuzzer&#45;&gt;GrammarCoverageFuzzer -->
<g id="edge15" class="edge">
<title>GrammarFuzzer&#45;&gt;GrammarCoverageFuzzer</title>
<path fill="none" stroke="#000000" d="M1333.9827,-289.5269C1264.2279,-276.971 1169.2286,-259.8711 1103.1568,-247.9782"/>
<polygon fill="#000000" stroke="#000000" points="1103.6794,-244.5161 1093.2175,-246.1891 1102.4393,-251.4054 1103.6794,-244.5161"/>
</g>
<!-- GrammarFuzzer&#45;&gt;GrammarMiner -->
<g id="edge19" class="edge">
<title>GrammarFuzzer&#45;&gt;GrammarMiner</title>
<path fill="none" stroke="#000000" d="M1425.5,-287.8314C1425.5,-280.131 1425.5,-270.9743 1425.5,-262.4166"/>
<polygon fill="#000000" stroke="#000000" points="1429.0001,-262.4132 1425.5,-252.4133 1422.0001,-262.4133 1429.0001,-262.4132"/>
</g>
<!-- Parser -->
<g id="node16" class="node">
<title>Parser</title>
<g id="a_node16"><a xlink:href="Parser.ipynb" xlink:title="Parser">
<polygon fill="#ffffff" stroke="#000000" points="1910,-252 1809,-252 1809,-216 1916,-216 1916,-246 1910,-252"/>
<polyline fill="none" stroke="#000000" points="1910,-252 1910,-246 "/>
<polyline fill="none" stroke="#000000" points="1916,-246 1910,-246 "/>
<text text-anchor="middle" x="1862.5" y="-230.3" font-family="Patua One" font-size="14.00" fill="#b03a2e">Parsing Inputs</text>
</a>
</g>
</g>
<!-- GrammarFuzzer&#45;&gt;Parser -->
<g id="edge16" class="edge">
<title>GrammarFuzzer&#45;&gt;Parser</title>
<path fill="none" stroke="#000000" d="M1517.0657,-296.4322C1591.0009,-287.8708 1697.7813,-273.6224 1799.0653,-252.1715"/>
<polygon fill="#000000" stroke="#000000" points="1799.805,-255.5925 1808.8486,-250.0731 1798.3369,-248.7482 1799.805,-255.5925"/>
</g>
<!-- GeneratorGrammarFuzzer -->
<g id="node17" class="node">
<title>GeneratorGrammarFuzzer</title>
<g id="a_node17"><a xlink:href="GeneratorGrammarFuzzer.ipynb" xlink:title="GeneratorGrammarFuzzer">
<polygon fill="#ffffff" stroke="#000000" points="1486.5,-180 1324.5,-180 1324.5,-144 1492.5,-144 1492.5,-174 1486.5,-180"/>
<polyline fill="none" stroke="#000000" points="1486.5,-180 1486.5,-174 "/>
<polyline fill="none" stroke="#000000" points="1492.5,-174 1486.5,-174 "/>
<text text-anchor="middle" x="1408.5" y="-158.3" font-family="Patua One" font-size="14.00" fill="#b03a2e">Fuzzing with Generators</text>
</a>
</g>
</g>
<!-- GrammarFuzzer&#45;&gt;GeneratorGrammarFuzzer -->
<g id="edge17" class="edge">
<title>GrammarFuzzer&#45;&gt;GeneratorGrammarFuzzer</title>
<path fill="none" stroke="#000000" d="M1477.6162,-287.8022C1493.6028,-279.4867 1509.3711,-267.8568 1518.5,-252 1526.4829,-238.1337 1526.9613,-229.5796 1518.5,-216 1510.1478,-202.5955 1497.3892,-192.4243 1483.4822,-184.7383"/>
<polygon fill="#000000" stroke="#000000" points="1484.7141,-181.4387 1474.2123,-180.0374 1481.5481,-187.6818 1484.7141,-181.4387"/>
</g>
<!-- Reducer -->
<g id="node18" class="node">
<title>Reducer</title>
<g id="a_node18"><a xlink:href="Reducer.ipynb" xlink:title="Reducer">
<polygon fill="#ffffff" stroke="#000000" points="1785,-252 1566,-252 1566,-216 1791,-216 1791,-246 1785,-252"/>
<polyline fill="none" stroke="#000000" points="1785,-252 1785,-246 "/>
<polyline fill="none" stroke="#000000" points="1791,-246 1785,-246 "/>
<text text-anchor="middle" x="1678.5" y="-230.3" font-family="Patua One" font-size="14.00" fill="#b03a2e">Reducing Failure&#45;Inducing Inputs</text>
</a>
</g>
</g>
<!-- GrammarFuzzer&#45;&gt;Reducer -->
<g id="edge18" class="edge">
<title>GrammarFuzzer&#45;&gt;Reducer</title>
<path fill="none" stroke="#000000" d="M1489.016,-287.9243C1524.3545,-277.8675 1568.4971,-265.3052 1605.2837,-254.8363"/>
<polygon fill="#000000" stroke="#000000" points="1606.2978,-258.1867 1614.9578,-252.0831 1604.3817,-251.454 1606.2978,-258.1867"/>
</g>
<!-- WebFuzzer -->
<g id="node19" class="node">
<title>WebFuzzer</title>
<g id="a_node19"><a xlink:href="WebFuzzer.ipynb" xlink:title="WebFuzzer">
<polygon fill="#ffffff" stroke="#000000" points="1317.5,-252 1149.5,-252 1149.5,-216 1323.5,-216 1323.5,-246 1317.5,-252"/>
<polyline fill="none" stroke="#000000" points="1317.5,-252 1317.5,-246 "/>
<polyline fill="none" stroke="#000000" points="1323.5,-246 1317.5,-246 "/>
<text text-anchor="middle" x="1236.5" y="-230.3" font-family="Patua One" font-size="14.00" fill="#b03a2e">Testing Web Applications</text>
</a>
</g>
</g>
<!-- GrammarFuzzer&#45;&gt;WebFuzzer -->
<g id="edge20" class="edge">
<title>GrammarFuzzer&#45;&gt;WebFuzzer</title>
<path fill="none" stroke="#000000" d="M1377.8073,-287.8314C1352.1927,-278.0734 1320.4398,-265.977 1293.526,-255.7242"/>
<polygon fill="#000000" stroke="#000000" points="1294.4406,-252.3273 1283.8497,-252.038 1291.9486,-258.8687 1294.4406,-252.3273"/>
</g>
<!-- Parser&#45;&gt;ProbabilisticGrammarFuzzer -->
<g id="edge25" class="edge">
<title>Parser&#45;&gt;ProbabilisticGrammarFuzzer</title>
<path fill="none" stroke="#000000" d="M1808.993,-218.4657C1773.1567,-208.0616 1725.5578,-194.2426 1686.4187,-182.8796"/>
<polygon fill="#000000" stroke="#000000" points="1687.242,-179.4742 1676.6627,-180.0472 1685.2903,-186.1966 1687.242,-179.4742"/>
</g>
<!-- LangFuzzer -->
<g id="node23" class="node">
<title>LangFuzzer</title>
<g id="a_node23"><a xlink:href="LangFuzzer.ipynb" xlink:title="LangFuzzer">
<polygon fill="#ffffff" stroke="#000000" points="2136.5,-180 1938.5,-180 1938.5,-144 2142.5,-144 2142.5,-174 2136.5,-180"/>
<polyline fill="none" stroke="#000000" points="2136.5,-180 2136.5,-174 "/>
<polyline fill="none" stroke="#000000" points="2142.5,-174 2136.5,-174 "/>
<text text-anchor="middle" x="2040.5" y="-158.3" font-family="Patua One" font-size="14.00" fill="#b03a2e">Fuzzing with Input Fragments</text>
</a>
</g>
</g>
<!-- Parser&#45;&gt;LangFuzzer -->
<g id="edge24" class="edge">
<title>Parser&#45;&gt;LangFuzzer</title>
<path fill="none" stroke="#000000" d="M1907.4169,-215.8314C1931.435,-206.1162 1961.1834,-194.0831 1986.4592,-183.8592"/>
<polygon fill="#000000" stroke="#000000" points="1987.9482,-187.0325 1995.9061,-180.038 1985.3233,-180.5432 1987.9482,-187.0325"/>
</g>
<!-- Parser&#45;&gt;InformationFlow -->
<g id="edge26" class="edge">
<title>Parser&#45;&gt;InformationFlow</title>
<path fill="none" stroke="#000000" d="M1853.9204,-215.8314C1850.1642,-207.8771 1845.6743,-198.369 1841.5202,-189.5723"/>
<polygon fill="#000000" stroke="#000000" points="1844.6301,-187.9612 1837.1952,-180.4133 1838.3004,-190.9503 1844.6301,-187.9612"/>
</g>
<!-- GeneratorGrammarFuzzer&#45;&gt;APIFuzzer -->
<g id="edge28" class="edge">
<title>GeneratorGrammarFuzzer&#45;&gt;APIFuzzer</title>
<path fill="none" stroke="#000000" d="M1408.5,-143.8314C1408.5,-136.131 1408.5,-126.9743 1408.5,-118.4166"/>
<polygon fill="#000000" stroke="#000000" points="1412.0001,-118.4132 1408.5,-108.4133 1405.0001,-118.4133 1412.0001,-118.4132"/>
</g>
<!-- WebFuzzer&#45;&gt;GUIFuzzer -->
<g id="edge33" class="edge">
<title>WebFuzzer&#45;&gt;GUIFuzzer</title>
<path fill="none" stroke="#000000" d="M1226.4063,-215.8314C1221.9403,-207.7925 1216.5925,-198.1666 1211.6621,-189.2918"/>
<polygon fill="#000000" stroke="#000000" points="1214.6456,-187.4551 1206.7296,-180.4133 1208.5265,-190.8546 1214.6456,-187.4551"/>
</g>
<!-- ConcolicFuzzer -->
<g id="node26" class="node">
<title>ConcolicFuzzer</title>
<g id="a_node26"><a xlink:href="ConcolicFuzzer.ipynb" xlink:title="ConcolicFuzzer">
<polygon fill="#ffffff" stroke="#000000" points="1882.5,-108 1768.5,-108 1768.5,-72 1888.5,-72 1888.5,-102 1882.5,-108"/>
<polyline fill="none" stroke="#000000" points="1882.5,-108 1882.5,-102 "/>
<polyline fill="none" stroke="#000000" points="1888.5,-102 1882.5,-102 "/>
<text text-anchor="middle" x="1828.5" y="-86.3" font-family="Patua One" font-size="14.00" fill="#b03a2e">Concolic Fuzzing</text>
</a>
</g>
</g>
<!-- InformationFlow&#45;&gt;ConcolicFuzzer -->
<g id="edge30" class="edge">
<title>InformationFlow&#45;&gt;ConcolicFuzzer</title>
<path fill="none" stroke="#000000" d="M1828.5,-143.8314C1828.5,-136.131 1828.5,-126.9743 1828.5,-118.4166"/>
<polygon fill="#000000" stroke="#000000" points="1832.0001,-118.4132 1828.5,-108.4133 1825.0001,-118.4133 1832.0001,-118.4132"/>
</g>
<!-- APIFuzzer&#45;&gt;Carver -->
<g id="edge32" class="edge">
<title>APIFuzzer&#45;&gt;Carver</title>
<path fill="none" stroke="#000000" d="M1364.3401,-71.8314C1340.7268,-62.1162 1311.4798,-50.0831 1286.63,-39.8592"/>
<polygon fill="#000000" stroke="#000000" points="1287.9219,-36.6061 1277.3423,-36.038 1285.2585,-43.0797 1287.9219,-36.6061"/>
</g>
<!-- SymbolicFuzzer -->
<g id="node27" class="node">
<title>SymbolicFuzzer</title>
<g id="a_node27"><a xlink:href="SymbolicFuzzer.ipynb" xlink:title="SymbolicFuzzer">
<polygon fill="#ffffff" stroke="#000000" points="1885.5,-36 1765.5,-36 1765.5,0 1891.5,0 1891.5,-30 1885.5,-36"/>
<polyline fill="none" stroke="#000000" points="1885.5,-36 1885.5,-30 "/>
<polyline fill="none" stroke="#000000" points="1891.5,-30 1885.5,-30 "/>
<text text-anchor="middle" x="1828.5" y="-14.3" font-family="Patua One" font-size="14.00" fill="#b03a2e">Symbolic Fuzzing</text>
</a>
</g>
</g>
<!-- ConcolicFuzzer&#45;&gt;SymbolicFuzzer -->
<g id="edge31" class="edge">
<title>ConcolicFuzzer&#45;&gt;SymbolicFuzzer</title>
<path fill="none" stroke="#000000" d="M1828.5,-71.8314C1828.5,-64.131 1828.5,-54.9743 1828.5,-46.4166"/>
<polygon fill="#000000" stroke="#000000" points="1832.0001,-46.4132 1828.5,-36.4133 1825.0001,-46.4133 1832.0001,-46.4132"/>
</g>
</g>
</svg>
