<?xml version="1.0" encoding="UTF-8" standalone="no"?>
<!DOCTYPE svg PUBLIC "-//W3C//DTD SVG 1.1//EN"
 "http://www.w3.org/Graphics/SVG/1.1/DTD/svg11.dtd">
<!-- Generated by graphviz version 2.40.1 (20161225.0304)
 -->
<!-- Title: %3 Pages: 1 -->
<svg width="1344pt" height="548pt"
 viewBox="0.00 0.00 1343.50 548.00" xmlns="http://www.w3.org/2000/svg" xmlns:xlink="http://www.w3.org/1999/xlink">
<g id="graph0" class="graph" transform="scale(1 1) rotate(0) translate(4 544)">
<title>%3</title>
<polygon fill="#ffffff" stroke="transparent" points="-4,4 -4,-544 1339.5,-544 1339.5,4 -4,4"/>
<!-- Fuzzer -->
<g id="node1" class="node">
<title>Fuzzer</title>
<g id="a_node1"><a xlink:href="Fuzzer.ipynb" xlink:title="Fuzzer">
<polygon fill="#ffffff" stroke="#000000" points="1025.5,-468 727.5,-468 727.5,-432 1031.5,-432 1031.5,-462 1025.5,-468"/>
<polyline fill="none" stroke="#000000" points="1025.5,-468 1025.5,-462 "/>
<polyline fill="none" stroke="#000000" points="1031.5,-462 1025.5,-462 "/>
<text text-anchor="middle" x="879.5" y="-446.3" font-family="Patua One" font-size="14.00" fill="#b03a2e">Fuzzing: Breaking Things with Random Inputs</text>
</a>
</g>
</g>
<!-- Coverage -->
<g id="node2" class="node">
<title>Coverage</title>
<g id="a_node2"><a xlink:href="Coverage.ipynb" xlink:title="Coverage">
<polygon fill="#ffffff" stroke="#000000" points="349,-324 232,-324 232,-288 355,-288 355,-318 349,-324"/>
<polyline fill="none" stroke="#000000" points="349,-324 349,-318 "/>
<polyline fill="none" stroke="#000000" points="355,-318 349,-318 "/>
<text text-anchor="middle" x="293.5" y="-302.3" font-family="Patua One" font-size="14.00" fill="#b03a2e">Getting Coverage</text>
</a>
</g>
</g>
<!-- Fuzzer&#45;&gt;Coverage -->
<g id="edge1" class="edge">
<title>Fuzzer&#45;&gt;Coverage</title>
<path fill="none" stroke="#000000" d="M806.172,-431.9808C693.04,-404.1805 477.3069,-351.1676 365.1804,-323.6143"/>
<polygon fill="#000000" stroke="#000000" points="365.8632,-320.178 355.3169,-321.1905 364.1927,-326.9758 365.8632,-320.178"/>
</g>
<!-- SearchBasedFuzzer -->
<g id="node3" class="node">
<title>SearchBasedFuzzer</title>
<g id="a_node3"><a xlink:href="SearchBasedFuzzer.ipynb" xlink:title="SearchBasedFuzzer">
<polygon fill="#ffffff" stroke="#000000" points="1216.5,-324 1070.5,-324 1070.5,-288 1222.5,-288 1222.5,-318 1216.5,-324"/>
<polyline fill="none" stroke="#000000" points="1216.5,-324 1216.5,-318 "/>
<polyline fill="none" stroke="#000000" points="1222.5,-318 1216.5,-318 "/>
<text text-anchor="middle" x="1146.5" y="-302.3" font-family="Patua One" font-size="14.00" fill="#b03a2e">Search&#45;Based Fuzzing</text>
</a>
</g>
</g>
<!-- Fuzzer&#45;&gt;SearchBasedFuzzer -->
<g id="edge2" class="edge">
<title>Fuzzer&#45;&gt;SearchBasedFuzzer</title>
<path fill="none" stroke="#000000" d="M877.9765,-431.7893C877.3441,-411.4532 879.7021,-378.9174 898.5,-360 921.0442,-337.3125 997.7677,-322.9912 1059.9749,-314.8432"/>
<polygon fill="#000000" stroke="#000000" points="1060.7393,-318.2742 1070.2173,-313.5394 1059.8554,-311.3302 1060.7393,-318.2742"/>
</g>
<!-- Grammars -->
<g id="node4" class="node">
<title>Grammars</title>
<g id="a_node4"><a xlink:href="Grammars.ipynb" xlink:title="Grammars">
<polygon fill="#ffffff" stroke="#000000" points="845,-396 686,-396 686,-360 851,-360 851,-390 845,-396"/>
<polyline fill="none" stroke="#000000" points="845,-396 845,-390 "/>
<polyline fill="none" stroke="#000000" points="851,-390 845,-390 "/>
<text text-anchor="middle" x="768.5" y="-374.3" font-family="Patua One" font-size="14.00" fill="#b03a2e">Fuzzing with Grammars</text>
</a>
</g>
</g>
<!-- Fuzzer&#45;&gt;Grammars -->
<g id="edge3" class="edge">
<title>Fuzzer&#45;&gt;Grammars</title>
<path fill="none" stroke="#000000" d="M851.49,-431.8314C837.4239,-422.7074 820.206,-411.539 805.1067,-401.7449"/>
<polygon fill="#000000" stroke="#000000" points="806.7953,-398.6684 796.501,-396.1628 802.986,-404.5412 806.7953,-398.6684"/>
</g>
<!-- InformationFlow -->
<g id="node5" class="node">
<title>InformationFlow</title>
<g id="a_node5"><a xlink:href="InformationFlow.ipynb" xlink:title="InformationFlow">
<polygon fill="#ffffff" stroke="#000000" points="1085,-396 908,-396 908,-360 1091,-360 1091,-390 1085,-396"/>
<polyline fill="none" stroke="#000000" points="1085,-396 1085,-390 "/>
<polyline fill="none" stroke="#000000" points="1091,-390 1085,-390 "/>
<text text-anchor="middle" x="999.5" y="-374.3" font-family="Patua One" font-size="14.00" fill="#b03a2e">Tracking Information Flow</text>
</a>
</g>
</g>
<!-- Fuzzer&#45;&gt;InformationFlow -->
<g id="edge4" class="edge">
<title>Fuzzer&#45;&gt;InformationFlow</title>
<path fill="none" stroke="#000000" d="M909.7811,-431.8314C925.1298,-422.6221 943.9498,-411.3301 960.3823,-401.4706"/>
<polygon fill="#000000" stroke="#000000" points="962.4544,-404.3091 969.2286,-396.1628 958.8529,-398.3066 962.4544,-404.3091"/>
</g>
<!-- FuzzingInTheLarge -->
<g id="node6" class="node">
<title>FuzzingInTheLarge</title>
<g id="a_node6"><a xlink:href="FuzzingInTheLarge.ipynb" xlink:title="FuzzingInTheLarge">
<polygon fill="#ffffff" stroke="#000000" points="1329.5,-396 1109.5,-396 1109.5,-360 1335.5,-360 1335.5,-390 1329.5,-396"/>
<polyline fill="none" stroke="#000000" points="1329.5,-396 1329.5,-390 "/>
<polyline fill="none" stroke="#000000" points="1335.5,-390 1329.5,-390 "/>
<text text-anchor="middle" x="1222.5" y="-374.3" font-family="Patua One" font-size="14.00" fill="#b03a2e">Practical Steps with FuzzManager</text>
</a>
</g>
</g>
<!-- Fuzzer&#45;&gt;FuzzingInTheLarge -->
<g id="edge5" class="edge">
<title>Fuzzer&#45;&gt;FuzzingInTheLarge</title>
<path fill="none" stroke="#000000" d="M965.6106,-431.9243C1014.6325,-421.634 1076.1511,-408.7205 1126.6958,-398.1105"/>
<polygon fill="#000000" stroke="#000000" points="1127.5838,-401.5005 1136.6515,-396.0207 1126.1457,-394.6498 1127.5838,-401.5005"/>
</g>
<!-- MutationFuzzer -->
<g id="node8" class="node">
<title>MutationFuzzer</title>
<g id="a_node8"><a xlink:href="MutationFuzzer.ipynb" xlink:title="MutationFuzzer">
<polygon fill="#ffffff" stroke="#000000" points="163,-252 0,-252 0,-216 169,-216 169,-246 163,-252"/>
<polyline fill="none" stroke="#000000" points="163,-252 163,-246 "/>
<polyline fill="none" stroke="#000000" points="169,-246 163,-246 "/>
<text text-anchor="middle" x="84.5" y="-230.3" font-family="Patua One" font-size="14.00" fill="#b03a2e">Mutation&#45;Based Fuzzing</text>
</a>
</g>
</g>
<!-- Coverage&#45;&gt;MutationFuzzer -->
<g id="edge7" class="edge">
<title>Coverage&#45;&gt;MutationFuzzer</title>
<path fill="none" stroke="#000000" d="M241.0302,-287.9243C212.3345,-278.0387 176.6112,-265.7321 146.54,-255.3726"/>
<polygon fill="#000000" stroke="#000000" points="147.5861,-252.0312 136.9913,-252.0831 145.306,-258.6495 147.5861,-252.0312"/>
</g>
<!-- GrammarCoverageFuzzer -->
<g id="node9" class="node">
<title>GrammarCoverageFuzzer</title>
<g id="a_node9"><a xlink:href="GrammarCoverageFuzzer.ipynb" xlink:title="GrammarCoverageFuzzer">
<polygon fill="#ffffff" stroke="#000000" points="355,-252 226,-252 226,-216 361,-216 361,-246 355,-252"/>
<polyline fill="none" stroke="#000000" points="355,-252 355,-246 "/>
<polyline fill="none" stroke="#000000" points="361,-246 355,-246 "/>
<text text-anchor="middle" x="293.5" y="-230.3" font-family="Patua One" font-size="14.00" fill="#b03a2e">Grammar Coverage</text>
</a>
</g>
</g>
<!-- Coverage&#45;&gt;GrammarCoverageFuzzer -->
<g id="edge8" class="edge">
<title>Coverage&#45;&gt;GrammarCoverageFuzzer</title>
<path fill="none" stroke="#000000" d="M293.5,-287.8314C293.5,-280.131 293.5,-270.9743 293.5,-262.4166"/>
<polygon fill="#000000" stroke="#000000" points="297.0001,-262.4132 293.5,-252.4133 290.0001,-262.4133 297.0001,-262.4132"/>
</g>
<!-- ProbabilisticGrammarFuzzer -->
<g id="node10" class="node">
<title>ProbabilisticGrammarFuzzer</title>
<g id="a_node10"><a xlink:href="ProbabilisticGrammarFuzzer.ipynb" xlink:title="ProbabilisticGrammarFuzzer">
<polygon fill="#ffffff" stroke="#000000" points="566.5,-180 364.5,-180 364.5,-144 572.5,-144 572.5,-174 566.5,-180"/>
<polyline fill="none" stroke="#000000" points="566.5,-180 566.5,-174 "/>
<polyline fill="none" stroke="#000000" points="572.5,-174 566.5,-174 "/>
<text text-anchor="middle" x="468.5" y="-158.3" font-family="Patua One" font-size="14.00" fill="#b03a2e">Probabilistic Grammar Fuzzing</text>
</a>
</g>
</g>
<!-- Coverage&#45;&gt;ProbabilisticGrammarFuzzer -->
<g id="edge9" class="edge">
<title>Coverage&#45;&gt;ProbabilisticGrammarFuzzer</title>
<path fill="none" stroke="#000000" d="M253.3973,-287.9226C239.0601,-279.2521 224.4861,-267.3548 216.5,-252 209.1172,-237.8051 206.4412,-228.4427 216.5,-216 221.3578,-209.991 294.368,-194.7402 360.5551,-181.9729"/>
<polygon fill="#000000" stroke="#000000" points="361.5235,-185.351 370.684,-180.0279 360.2034,-178.4766 361.5235,-185.351"/>
</g>
<!-- GrammarMiner -->
<g id="node11" class="node">
<title>GrammarMiner</title>
<g id="a_node11"><a xlink:href="GrammarMiner.ipynb" xlink:title="GrammarMiner">
<polygon fill="#ffffff" stroke="#000000" points="540,-252 379,-252 379,-216 546,-216 546,-246 540,-252"/>
<polyline fill="none" stroke="#000000" points="540,-252 540,-246 "/>
<polyline fill="none" stroke="#000000" points="546,-246 540,-246 "/>
<text text-anchor="middle" x="462.5" y="-230.3" font-family="Patua One" font-size="14.00" fill="#b03a2e">Mining Input Grammars</text>
</a>
</g>
</g>
<!-- Coverage&#45;&gt;GrammarMiner -->
<g id="edge10" class="edge">
<title>Coverage&#45;&gt;GrammarMiner</title>
<path fill="none" stroke="#000000" d="M336.1458,-287.8314C358.849,-278.159 386.9451,-266.1891 410.8742,-255.9944"/>
<polygon fill="#000000" stroke="#000000" points="412.3328,-259.1775 420.1608,-252.038 409.5891,-252.7376 412.3328,-259.1775"/>
</g>
<!-- EvoGrammarFuzzer -->
<g id="node12" class="node">
<title>EvoGrammarFuzzer</title>
<g id="a_node12"><a xlink:href="EvoGrammarFuzzer.ipynb" xlink:title="EvoGrammarFuzzer">
<polygon fill="#ffffff" stroke="#000000" points="1188,-108 983,-108 983,-72 1194,-72 1194,-102 1188,-108"/>
<polyline fill="none" stroke="#000000" points="1188,-108 1188,-102 "/>
<polyline fill="none" stroke="#000000" points="1194,-102 1188,-102 "/>
<text text-anchor="middle" x="1088.5" y="-86.3" font-family="Patua One" font-size="14.00" fill="#b03a2e">Evolutionary Grammar Fuzzing</text>
</a>
</g>
</g>
<!-- SearchBasedFuzzer&#45;&gt;EvoGrammarFuzzer -->
<g id="edge11" class="edge">
<title>SearchBasedFuzzer&#45;&gt;EvoGrammarFuzzer</title>
<path fill="none" stroke="#000000" d="M1167.9467,-287.8617C1201.8672,-256.9425 1260.7968,-192.6566 1227.5,-144 1219.4893,-132.294 1192.8683,-120.7153 1165.037,-111.2997"/>
<polygon fill="#000000" stroke="#000000" points="1165.7635,-107.8546 1155.1707,-108.0629 1163.5814,-114.5058 1165.7635,-107.8546"/>
</g>
<!-- GrammarFuzzer -->
<g id="node13" class="node">
<title>GrammarFuzzer</title>
<g id="a_node13"><a xlink:href="GrammarFuzzer.ipynb" xlink:title="GrammarFuzzer">
<polygon fill="#ffffff" stroke="#000000" points="854,-324 677,-324 677,-288 860,-288 860,-318 854,-324"/>
<polyline fill="none" stroke="#000000" points="854,-324 854,-318 "/>
<polyline fill="none" stroke="#000000" points="860,-318 854,-318 "/>
<text text-anchor="middle" x="768.5" y="-302.3" font-family="Patua One" font-size="14.00" fill="#b03a2e">Efficient Grammar Fuzzing</text>
</a>
</g>
</g>
<!-- Grammars&#45;&gt;GrammarFuzzer -->
<g id="edge12" class="edge">
<title>Grammars&#45;&gt;GrammarFuzzer</title>
<path fill="none" stroke="#000000" d="M768.5,-359.8314C768.5,-352.131 768.5,-342.9743 768.5,-334.4166"/>
<polygon fill="#000000" stroke="#000000" points="772.0001,-334.4132 768.5,-324.4133 765.0001,-334.4133 772.0001,-334.4132"/>
</g>
<!-- Intro_Testing -->
<g id="node7" class="node">
<title>Intro_Testing</title>
<g id="a_node7"><a xlink:href="Intro_Testing.ipynb" xlink:title="Intro_Testing">
<polygon fill="#ffffff" stroke="#000000" points="983,-540 770,-540 770,-504 989,-504 989,-534 983,-540"/>
<polyline fill="none" stroke="#000000" points="983,-540 983,-534 "/>
<polyline fill="none" stroke="#000000" points="989,-534 983,-534 "/>
<text text-anchor="middle" x="879.5" y="-518.3" font-family="Patua One" font-size="14.00" fill="#b03a2e">Introduction to Software Testing</text>
</a>
</g>
</g>
<!-- Intro_Testing&#45;&gt;Fuzzer -->
<g id="edge6" class="edge">
<title>Intro_Testing&#45;&gt;Fuzzer</title>
<path fill="none" stroke="#000000" d="M879.5,-503.8314C879.5,-496.131 879.5,-486.9743 879.5,-478.4166"/>
<polygon fill="#000000" stroke="#000000" points="883.0001,-478.4132 879.5,-468.4133 876.0001,-478.4133 883.0001,-478.4132"/>
</g>
<!-- ConfigurationFuzzer -->
<g id="node18" class="node">
<title>ConfigurationFuzzer</title>
<g id="a_node18"><a xlink:href="ConfigurationFuzzer.ipynb" xlink:title="ConfigurationFuzzer">
<polygon fill="#ffffff" stroke="#000000" points="340,-180 187,-180 187,-144 346,-144 346,-174 340,-180"/>
<polyline fill="none" stroke="#000000" points="340,-180 340,-174 "/>
<polyline fill="none" stroke="#000000" points="346,-174 340,-174 "/>
<text text-anchor="middle" x="266.5" y="-158.3" font-family="Patua One" font-size="14.00" fill="#b03a2e">Testing Configurations</text>
</a>
</g>
</g>
<!-- GrammarCoverageFuzzer&#45;&gt;ConfigurationFuzzer -->
<g id="edge19" class="edge">
<title>GrammarCoverageFuzzer&#45;&gt;ConfigurationFuzzer</title>
<path fill="none" stroke="#000000" d="M286.6868,-215.8314C283.7356,-207.9617 280.2142,-198.5712 276.945,-189.8533"/>
<polygon fill="#000000" stroke="#000000" points="280.1934,-188.5476 273.405,-180.4133 273.6391,-191.0055 280.1934,-188.5476"/>
</g>
<!-- Carver -->
<g id="node19" class="node">
<title>Carver</title>
<g id="a_node19"><a xlink:href="Carver.ipynb" xlink:title="Carver">
<polygon fill="#ffffff" stroke="#000000" points="373,-36 248,-36 248,0 379,0 379,-30 373,-36"/>
<polyline fill="none" stroke="#000000" points="373,-36 373,-30 "/>
<polyline fill="none" stroke="#000000" points="379,-30 373,-30 "/>
<text text-anchor="middle" x="313.5" y="-14.3" font-family="Patua One" font-size="14.00" fill="#b03a2e">Carving Unit Tests</text>
</a>
</g>
</g>
<!-- GrammarCoverageFuzzer&#45;&gt;Carver -->
<g id="edge20" class="edge">
<title>GrammarCoverageFuzzer&#45;&gt;Carver</title>
<path fill="none" stroke="#000000" d="M225.811,-217.3887C206.9514,-209.31 188.6058,-197.4201 177.5,-180 168.8988,-166.5085 171.0962,-158.6626 177.5,-144 196.9531,-99.4585 240.7769,-63.6233 273.452,-41.7212"/>
<polygon fill="#000000" stroke="#000000" points="275.4634,-44.5879 281.9192,-36.1871 271.6337,-38.7284 275.4634,-44.5879"/>
</g>
<!-- GUIFuzzer -->
<g id="node20" class="node">
<title>GUIFuzzer</title>
<g id="a_node20"><a xlink:href="GUIFuzzer.ipynb" xlink:title="GUIFuzzer">
<polygon fill="#ffffff" stroke="#000000" points="804.5,-180 590.5,-180 590.5,-144 810.5,-144 810.5,-174 804.5,-180"/>
<polyline fill="none" stroke="#000000" points="804.5,-180 804.5,-174 "/>
<polyline fill="none" stroke="#000000" points="810.5,-174 804.5,-174 "/>
<text text-anchor="middle" x="700.5" y="-158.3" font-family="Patua One" font-size="14.00" fill="#b03a2e">Testing Graphical User Interfaces</text>
</a>
</g>
</g>
<!-- GrammarCoverageFuzzer&#45;&gt;GUIFuzzer -->
<g id="edge21" class="edge">
<title>GrammarCoverageFuzzer&#45;&gt;GUIFuzzer</title>
<path fill="none" stroke="#000000" d="M361.4007,-217.6666C364.1329,-217.0892 366.8406,-216.5312 369.5,-216 408.9802,-208.1146 502.3969,-192.9905 579.9562,-180.7495"/>
<polygon fill="#000000" stroke="#000000" points="580.9677,-184.1334 590.3008,-179.1191 579.8778,-177.2188 580.9677,-184.1334"/>
</g>
<!-- APIFuzzer -->
<g id="node22" class="node">
<title>APIFuzzer</title>
<g id="a_node22"><a xlink:href="APIFuzzer.ipynb" xlink:title="APIFuzzer">
<polygon fill="#ffffff" stroke="#000000" points="511,-108 420,-108 420,-72 517,-72 517,-102 511,-108"/>
<polyline fill="none" stroke="#000000" points="511,-108 511,-102 "/>
<polyline fill="none" stroke="#000000" points="517,-102 511,-102 "/>
<text text-anchor="middle" x="468.5" y="-86.3" font-family="Patua One" font-size="14.00" fill="#b03a2e">Fuzzing APIs</text>
</a>
</g>
</g>
<!-- ProbabilisticGrammarFuzzer&#45;&gt;APIFuzzer -->
<g id="edge25" class="edge">
<title>ProbabilisticGrammarFuzzer&#45;&gt;APIFuzzer</title>
<path fill="none" stroke="#000000" d="M468.5,-143.8314C468.5,-136.131 468.5,-126.9743 468.5,-118.4166"/>
<polygon fill="#000000" stroke="#000000" points="472.0001,-118.4132 468.5,-108.4133 465.0001,-118.4133 472.0001,-118.4132"/>
</g>
<!-- GrammarFuzzer&#45;&gt;GrammarCoverageFuzzer -->
<g id="edge13" class="edge">
<title>GrammarFuzzer&#45;&gt;GrammarCoverageFuzzer</title>
<path fill="none" stroke="#000000" d="M676.9746,-296.1978C598.2162,-287.167 481.3968,-272.3551 371.3291,-252.2596"/>
<polygon fill="#000000" stroke="#000000" points="371.8518,-248.7971 361.3829,-250.4257 370.5824,-255.681 371.8518,-248.7971"/>
</g>
<!-- GrammarFuzzer&#45;&gt;GrammarMiner -->
<g id="edge17" class="edge">
<title>GrammarFuzzer&#45;&gt;GrammarMiner</title>
<path fill="none" stroke="#000000" d="M691.6783,-287.9243C648.3089,-277.7198 593.9759,-264.9355 549.099,-254.3762"/>
<polygon fill="#000000" stroke="#000000" points="549.6237,-250.9042 539.0879,-252.0207 548.0204,-257.7181 549.6237,-250.9042"/>
</g>
<!-- Parser -->
<g id="node14" class="node">
<title>Parser</title>
<g id="a_node14"><a xlink:href="Parser.ipynb" xlink:title="Parser">
<polygon fill="#ffffff" stroke="#000000" points="908,-252 807,-252 807,-216 914,-216 914,-246 908,-252"/>
<polyline fill="none" stroke="#000000" points="908,-252 908,-246 "/>
<polyline fill="none" stroke="#000000" points="914,-246 908,-246 "/>
<text text-anchor="middle" x="860.5" y="-230.3" font-family="Patua One" font-size="14.00" fill="#b03a2e">Parsing Inputs</text>
</a>
</g>
</g>
<!-- GrammarFuzzer&#45;&gt;Parser -->
<g id="edge14" class="edge">
<title>GrammarFuzzer&#45;&gt;Parser</title>
<path fill="none" stroke="#000000" d="M791.7155,-287.8314C803.047,-278.9632 816.8464,-268.1637 829.1027,-258.5718"/>
<polygon fill="#000000" stroke="#000000" points="831.574,-261.0822 837.2919,-252.1628 827.2598,-255.5697 831.574,-261.0822"/>
</g>
<!-- GeneratorGrammarFuzzer -->
<g id="node15" class="node">
<title>GeneratorGrammarFuzzer</title>
<g id="a_node15"><a xlink:href="GeneratorGrammarFuzzer.ipynb" xlink:title="GeneratorGrammarFuzzer">
<polygon fill="#ffffff" stroke="#000000" points="1212.5,-180 1050.5,-180 1050.5,-144 1218.5,-144 1218.5,-174 1212.5,-180"/>
<polyline fill="none" stroke="#000000" points="1212.5,-180 1212.5,-174 "/>
<polyline fill="none" stroke="#000000" points="1218.5,-174 1212.5,-174 "/>
<text text-anchor="middle" x="1134.5" y="-158.3" font-family="Patua One" font-size="14.00" fill="#b03a2e">Fuzzing with Generators</text>
</a>
</g>
</g>
<!-- GrammarFuzzer&#45;&gt;GeneratorGrammarFuzzer -->
<g id="edge15" class="edge">
<title>GrammarFuzzer&#45;&gt;GeneratorGrammarFuzzer</title>
<path fill="none" stroke="#000000" d="M860.4166,-303.2234C950.6193,-298.5324 1079.7109,-285.9179 1115.5,-252 1132.0063,-236.3567 1136.0279,-210.2676 1136.347,-190.1949"/>
<polygon fill="#000000" stroke="#000000" points="1139.8448,-190.003 1136.2112,-180.0508 1132.8454,-190.0968 1139.8448,-190.003"/>
</g>
<!-- Reducer -->
<g id="node16" class="node">
<title>Reducer</title>
<g id="a_node16"><a xlink:href="Reducer.ipynb" xlink:title="Reducer">
<polygon fill="#ffffff" stroke="#000000" points="783,-252 564,-252 564,-216 789,-216 789,-246 783,-252"/>
<polyline fill="none" stroke="#000000" points="783,-252 783,-246 "/>
<polyline fill="none" stroke="#000000" points="789,-246 783,-246 "/>
<text text-anchor="middle" x="676.5" y="-230.3" font-family="Patua One" font-size="14.00" fill="#b03a2e">Reducing Failure&#45;Inducing Inputs</text>
</a>
</g>
</g>
<!-- GrammarFuzzer&#45;&gt;Reducer -->
<g id="edge16" class="edge">
<title>GrammarFuzzer&#45;&gt;Reducer</title>
<path fill="none" stroke="#000000" d="M745.2845,-287.8314C733.953,-278.9632 720.1536,-268.1637 707.8973,-258.5718"/>
<polygon fill="#000000" stroke="#000000" points="709.7402,-255.5697 699.7081,-252.1628 705.426,-261.0822 709.7402,-255.5697"/>
</g>
<!-- WebFuzzer -->
<g id="node17" class="node">
<title>WebFuzzer</title>
<g id="a_node17"><a xlink:href="WebFuzzer.ipynb" xlink:title="WebFuzzer">
<polygon fill="#ffffff" stroke="#000000" points="1100.5,-252 932.5,-252 932.5,-216 1106.5,-216 1106.5,-246 1100.5,-252"/>
<polyline fill="none" stroke="#000000" points="1100.5,-252 1100.5,-246 "/>
<polyline fill="none" stroke="#000000" points="1106.5,-246 1100.5,-246 "/>
<text text-anchor="middle" x="1019.5" y="-230.3" font-family="Patua One" font-size="14.00" fill="#b03a2e">Testing Web Applications</text>
</a>
</g>
</g>
<!-- GrammarFuzzer&#45;&gt;WebFuzzer -->
<g id="edge18" class="edge">
<title>GrammarFuzzer&#45;&gt;WebFuzzer</title>
<path fill="none" stroke="#000000" d="M831.5139,-287.9243C866.4238,-277.9103 909.9942,-265.412 946.3962,-254.97"/>
<polygon fill="#000000" stroke="#000000" points="947.8129,-258.2049 956.4602,-252.0831 945.8827,-251.4762 947.8129,-258.2049"/>
</g>
<!-- Parser&#45;&gt;ProbabilisticGrammarFuzzer -->
<g id="edge23" class="edge">
<title>Parser&#45;&gt;ProbabilisticGrammarFuzzer</title>
<path fill="none" stroke="#000000" d="M806.9919,-218.2565C803.7897,-217.4561 800.6079,-216.6966 797.5,-216 786.7991,-213.6015 673.4422,-195.1141 582.7381,-180.4298"/>
<polygon fill="#000000" stroke="#000000" points="583.0701,-176.9381 572.6394,-178.7954 581.9518,-183.8481 583.0701,-176.9381"/>
</g>
<!-- LangFuzzer -->
<g id="node21" class="node">
<title>LangFuzzer</title>
<g id="a_node21"><a xlink:href="LangFuzzer.ipynb" xlink:title="LangFuzzer">
<polygon fill="#ffffff" stroke="#000000" points="1026.5,-180 828.5,-180 828.5,-144 1032.5,-144 1032.5,-174 1026.5,-180"/>
<polyline fill="none" stroke="#000000" points="1026.5,-180 1026.5,-174 "/>
<polyline fill="none" stroke="#000000" points="1032.5,-174 1026.5,-174 "/>
<text text-anchor="middle" x="930.5" y="-158.3" font-family="Patua One" font-size="14.00" fill="#b03a2e">Fuzzing with Input Fragments</text>
</a>
</g>
</g>
<!-- Parser&#45;&gt;LangFuzzer -->
<g id="edge22" class="edge">
<title>Parser&#45;&gt;LangFuzzer</title>
<path fill="none" stroke="#000000" d="M878.164,-215.8314C886.4732,-207.2848 896.5264,-196.9443 905.5918,-187.6198"/>
<polygon fill="#000000" stroke="#000000" points="908.1369,-190.023 912.5982,-180.4133 903.1179,-185.1435 908.1369,-190.023"/>
</g>
<!-- GeneratorGrammarFuzzer&#45;&gt;APIFuzzer -->
<g id="edge26" class="edge">
<title>GeneratorGrammarFuzzer&#45;&gt;APIFuzzer</title>
<path fill="none" stroke="#000000" d="M1050.4124,-145.3451C1047.408,-144.8711 1044.4301,-144.4206 1041.5,-144 854.6092,-117.1722 631.4333,-100.5284 527.3586,-93.6509"/>
<polygon fill="#000000" stroke="#000000" points="527.571,-90.1574 517.3636,-92.9963 527.1135,-97.1424 527.571,-90.1574"/>
</g>
<!-- WebFuzzer&#45;&gt;GUIFuzzer -->
<g id="edge28" class="edge">
<title>WebFuzzer&#45;&gt;GUIFuzzer</title>
<path fill="none" stroke="#000000" d="M939.4146,-215.9243C894.0128,-205.6769 837.0853,-192.828 790.1888,-182.2432"/>
<polygon fill="#000000" stroke="#000000" points="790.8669,-178.8083 780.3416,-180.0207 789.3256,-185.6365 790.8669,-178.8083"/>
</g>
<!-- LangFuzzer&#45;&gt;EvoGrammarFuzzer -->
<g id="edge24" class="edge">
<title>LangFuzzer&#45;&gt;EvoGrammarFuzzer</title>
<path fill="none" stroke="#000000" d="M970.3701,-143.8314C991.4077,-134.2446 1017.3983,-122.4008 1039.6396,-112.2655"/>
<polygon fill="#000000" stroke="#000000" points="1041.2683,-115.3697 1048.9166,-108.038 1038.3655,-108.9999 1041.2683,-115.3697"/>
</g>
<!-- APIFuzzer&#45;&gt;Carver -->
<g id="edge27" class="edge">
<title>APIFuzzer&#45;&gt;Carver</title>
<path fill="none" stroke="#000000" d="M429.387,-71.8314C408.7488,-62.2446 383.2516,-50.4008 361.4327,-40.2655"/>
<polygon fill="#000000" stroke="#000000" points="362.8756,-37.0766 352.3318,-36.038 359.9266,-43.4251 362.8756,-37.0766"/>
</g>
</g>
</svg>
