<?xml version="1.0" encoding="UTF-8" standalone="no"?>
<!DOCTYPE svg PUBLIC "-//W3C//DTD SVG 1.1//EN"
 "http://www.w3.org/Graphics/SVG/1.1/DTD/svg11.dtd">
<!-- Generated by graphviz version 2.40.1 (20161225.0304)
 -->
<!-- Title: %3 Pages: 1 -->
<svg width="1648pt" height="548pt"
 viewBox="0.00 0.00 1648.00 548.00" xmlns="http://www.w3.org/2000/svg" xmlns:xlink="http://www.w3.org/1999/xlink">
<g id="graph0" class="graph" transform="scale(1 1) rotate(0) translate(4 544)">
<title>%3</title>
<polygon fill="#ffffff" stroke="transparent" points="-4,4 -4,-544 1644,-544 1644,4 -4,4"/>
<!-- Fuzzer -->
<g id="node1" class="node">
<title>Fuzzer</title>
<g id="a_node1"><a xlink:href="Fuzzer.ipynb" xlink:title="Fuzzer">
<polygon fill="#ffffff" stroke="#000000" points="1140.5,-468 842.5,-468 842.5,-432 1146.5,-432 1146.5,-462 1140.5,-468"/>
<polyline fill="none" stroke="#000000" points="1140.5,-468 1140.5,-462 "/>
<polyline fill="none" stroke="#000000" points="1146.5,-462 1140.5,-462 "/>
<text text-anchor="middle" x="994.5" y="-446.3" font-family="Patua One" font-size="14.00" fill="#b03a2e">Fuzzing: Breaking Things with Random Inputs</text>
</a>
</g>
</g>
<!-- Coverage -->
<g id="node2" class="node">
<title>Coverage</title>
<g id="a_node2"><a xlink:href="Coverage.ipynb" xlink:title="Coverage">
<polygon fill="#ffffff" stroke="#000000" points="627,-324 510,-324 510,-288 633,-288 633,-318 627,-324"/>
<polyline fill="none" stroke="#000000" points="627,-324 627,-318 "/>
<polyline fill="none" stroke="#000000" points="633,-318 627,-318 "/>
<text text-anchor="middle" x="571.5" y="-302.3" font-family="Patua One" font-size="14.00" fill="#b03a2e">Getting Coverage</text>
</a>
</g>
</g>
<!-- Fuzzer&#45;&gt;Coverage -->
<g id="edge1" class="edge">
<title>Fuzzer&#45;&gt;Coverage</title>
<path fill="none" stroke="#000000" d="M941.3551,-431.9081C863.1287,-405.2778 717.2765,-355.626 634.015,-327.2817"/>
<polygon fill="#000000" stroke="#000000" points="635.022,-323.9273 624.4275,-324.0179 632.7661,-330.5539 635.022,-323.9273"/>
</g>
<!-- SearchBasedFuzzer -->
<g id="node3" class="node">
<title>SearchBasedFuzzer</title>
<g id="a_node3"><a xlink:href="SearchBasedFuzzer.ipynb" xlink:title="SearchBasedFuzzer">
<polygon fill="#ffffff" stroke="#000000" points="1432.5,-324 1286.5,-324 1286.5,-288 1438.5,-288 1438.5,-318 1432.5,-324"/>
<polyline fill="none" stroke="#000000" points="1432.5,-324 1432.5,-318 "/>
<polyline fill="none" stroke="#000000" points="1438.5,-318 1432.5,-318 "/>
<text text-anchor="middle" x="1362.5" y="-302.3" font-family="Patua One" font-size="14.00" fill="#b03a2e">Search&#45;Based Fuzzing</text>
</a>
</g>
</g>
<!-- Fuzzer&#45;&gt;SearchBasedFuzzer -->
<g id="edge2" class="edge">
<title>Fuzzer&#45;&gt;SearchBasedFuzzer</title>
<path fill="none" stroke="#000000" d="M1007.3685,-431.773C1024.3942,-408.1861 1054.0494,-369.0353 1069.5,-360 1103.829,-339.9249 1202.6285,-324.4838 1276.0642,-315.3526"/>
<polygon fill="#000000" stroke="#000000" points="1276.7478,-318.7951 1286.2485,-314.1062 1275.8974,-311.847 1276.7478,-318.7951"/>
</g>
<!-- Grammars -->
<g id="node4" class="node">
<title>Grammars</title>
<g id="a_node4"><a xlink:href="Grammars.ipynb" xlink:title="Grammars">
<polygon fill="#ffffff" stroke="#000000" points="1016,-396 857,-396 857,-360 1022,-360 1022,-390 1016,-396"/>
<polyline fill="none" stroke="#000000" points="1016,-396 1016,-390 "/>
<polyline fill="none" stroke="#000000" points="1022,-390 1016,-390 "/>
<text text-anchor="middle" x="939.5" y="-374.3" font-family="Patua One" font-size="14.00" fill="#b03a2e">Fuzzing with Grammars</text>
</a>
</g>
</g>
<!-- Fuzzer&#45;&gt;Grammars -->
<g id="edge3" class="edge">
<title>Fuzzer&#45;&gt;Grammars</title>
<path fill="none" stroke="#000000" d="M980.6212,-431.8314C974.2864,-423.5386 966.6616,-413.557 959.7074,-404.4533"/>
<polygon fill="#000000" stroke="#000000" points="962.4175,-402.2353 953.5657,-396.4133 956.8548,-406.4847 962.4175,-402.2353"/>
</g>
<!-- FuzzingInTheLarge -->
<g id="node5" class="node">
<title>FuzzingInTheLarge</title>
<g id="a_node5"><a xlink:href="FuzzingInTheLarge.ipynb" xlink:title="FuzzingInTheLarge">
<polygon fill="#ffffff" stroke="#000000" points="1298.5,-396 1078.5,-396 1078.5,-360 1304.5,-360 1304.5,-390 1298.5,-396"/>
<polyline fill="none" stroke="#000000" points="1298.5,-396 1298.5,-390 "/>
<polyline fill="none" stroke="#000000" points="1304.5,-390 1298.5,-390 "/>
<text text-anchor="middle" x="1191.5" y="-374.3" font-family="Patua One" font-size="14.00" fill="#b03a2e">Practical Steps with FuzzManager</text>
</a>
</g>
</g>
<!-- Fuzzer&#45;&gt;FuzzingInTheLarge -->
<g id="edge4" class="edge">
<title>Fuzzer&#45;&gt;FuzzingInTheLarge</title>
<path fill="none" stroke="#000000" d="M1043.9571,-431.9243C1070.7711,-422.1243 1104.0949,-409.945 1132.2847,-399.6422"/>
<polygon fill="#000000" stroke="#000000" points="1133.8316,-402.8033 1142.0225,-396.0831 1131.4287,-396.2286 1133.8316,-402.8033"/>
</g>
<!-- MutationFuzzer -->
<g id="node7" class="node">
<title>MutationFuzzer</title>
<g id="a_node7"><a xlink:href="MutationFuzzer.ipynb" xlink:title="MutationFuzzer">
<polygon fill="#ffffff" stroke="#000000" points="336,-252 173,-252 173,-216 342,-216 342,-246 336,-252"/>
<polyline fill="none" stroke="#000000" points="336,-252 336,-246 "/>
<polyline fill="none" stroke="#000000" points="342,-246 336,-246 "/>
<text text-anchor="middle" x="257.5" y="-230.3" font-family="Patua One" font-size="14.00" fill="#b03a2e">Mutation&#45;Based Fuzzing</text>
</a>
</g>
</g>
<!-- Coverage&#45;&gt;MutationFuzzer -->
<g id="edge6" class="edge">
<title>Coverage&#45;&gt;MutationFuzzer</title>
<path fill="none" stroke="#000000" d="M509.8384,-291.861C463.1089,-281.146 398.2442,-266.2726 345.9816,-254.2888"/>
<polygon fill="#000000" stroke="#000000" points="346.5713,-250.8332 336.042,-252.0096 345.0068,-257.6562 346.5713,-250.8332"/>
</g>
<!-- GrammarCoverageFuzzer -->
<g id="node8" class="node">
<title>GrammarCoverageFuzzer</title>
<g id="a_node8"><a xlink:href="GrammarCoverageFuzzer.ipynb" xlink:title="GrammarCoverageFuzzer">
<polygon fill="#ffffff" stroke="#000000" points="489,-252 360,-252 360,-216 495,-216 495,-246 489,-252"/>
<polyline fill="none" stroke="#000000" points="489,-252 489,-246 "/>
<polyline fill="none" stroke="#000000" points="495,-246 489,-246 "/>
<text text-anchor="middle" x="427.5" y="-230.3" font-family="Patua One" font-size="14.00" fill="#b03a2e">Grammar Coverage</text>
</a>
</g>
</g>
<!-- Coverage&#45;&gt;GrammarCoverageFuzzer -->
<g id="edge7" class="edge">
<title>Coverage&#45;&gt;GrammarCoverageFuzzer</title>
<path fill="none" stroke="#000000" d="M535.1627,-287.8314C516.1604,-278.3302 492.7242,-266.6121 472.5748,-256.5374"/>
<polygon fill="#000000" stroke="#000000" points="474.0855,-253.3797 463.576,-252.038 470.955,-259.6407 474.0855,-253.3797"/>
</g>
<!-- ProbabilisticGrammarFuzzer -->
<g id="node9" class="node">
<title>ProbabilisticGrammarFuzzer</title>
<g id="a_node9"><a xlink:href="ProbabilisticGrammarFuzzer.ipynb" xlink:title="ProbabilisticGrammarFuzzer">
<polygon fill="#ffffff" stroke="#000000" points="930.5,-180 728.5,-180 728.5,-144 936.5,-144 936.5,-174 930.5,-180"/>
<polyline fill="none" stroke="#000000" points="930.5,-180 930.5,-174 "/>
<polyline fill="none" stroke="#000000" points="936.5,-174 930.5,-174 "/>
<text text-anchor="middle" x="832.5" y="-158.3" font-family="Patua One" font-size="14.00" fill="#b03a2e">Probabilistic Grammar Fuzzing</text>
</a>
</g>
</g>
<!-- Coverage&#45;&gt;ProbabilisticGrammarFuzzer -->
<g id="edge8" class="edge">
<title>Coverage&#45;&gt;ProbabilisticGrammarFuzzer</title>
<path fill="none" stroke="#000000" d="M624.37,-287.9228C647.4712,-278.8447 674.2995,-266.6431 696.5,-252 715.9205,-239.1906 715.7154,-229.725 734.5,-216 750.2489,-204.4931 768.7193,-193.7056 785.3538,-184.8434"/>
<polygon fill="#000000" stroke="#000000" points="787.1371,-187.8606 794.3773,-180.1257 783.8938,-181.6573 787.1371,-187.8606"/>
</g>
<!-- GrammarMiner -->
<g id="node10" class="node">
<title>GrammarMiner</title>
<g id="a_node10"><a xlink:href="GrammarMiner.ipynb" xlink:title="GrammarMiner">
<polygon fill="#ffffff" stroke="#000000" points="905,-252 744,-252 744,-216 911,-216 911,-246 905,-252"/>
<polyline fill="none" stroke="#000000" points="905,-252 905,-246 "/>
<polyline fill="none" stroke="#000000" points="911,-246 905,-246 "/>
<text text-anchor="middle" x="827.5" y="-230.3" font-family="Patua One" font-size="14.00" fill="#b03a2e">Mining Input Grammars</text>
</a>
</g>
</g>
<!-- Coverage&#45;&gt;GrammarMiner -->
<g id="edge9" class="edge">
<title>Coverage&#45;&gt;GrammarMiner</title>
<path fill="none" stroke="#000000" d="M633.1442,-288.6626C669.2704,-278.5021 715.144,-265.6001 753.2509,-254.8826"/>
<polygon fill="#000000" stroke="#000000" points="754.5893,-258.142 763.2682,-252.0652 752.6941,-251.4034 754.5893,-258.142"/>
</g>
<!-- WhenToStopFuzzing -->
<g id="node11" class="node">
<title>WhenToStopFuzzing</title>
<g id="a_node11"><a xlink:href="WhenToStopFuzzing.ipynb" xlink:title="WhenToStopFuzzing">
<polygon fill="#ffffff" stroke="#000000" points="149,-252 0,-252 0,-216 155,-216 155,-246 149,-252"/>
<polyline fill="none" stroke="#000000" points="149,-252 149,-246 "/>
<polyline fill="none" stroke="#000000" points="155,-246 149,-246 "/>
<text text-anchor="middle" x="77.5" y="-230.3" font-family="Patua One" font-size="14.00" fill="#b03a2e">When To Stop Fuzzing</text>
</a>
</g>
</g>
<!-- Coverage&#45;&gt;WhenToStopFuzzing -->
<g id="edge10" class="edge">
<title>Coverage&#45;&gt;WhenToStopFuzzing</title>
<path fill="none" stroke="#000000" d="M509.766,-299.2849C431.7011,-290.4688 292.9719,-273.7234 165.2266,-252.2372"/>
<polygon fill="#000000" stroke="#000000" points="165.7105,-248.7694 155.2661,-250.5484 164.5402,-255.6709 165.7105,-248.7694"/>
</g>
<!-- EvoGrammarFuzzer -->
<g id="node12" class="node">
<title>EvoGrammarFuzzer</title>
<g id="a_node12"><a xlink:href="EvoGrammarFuzzer.ipynb" xlink:title="EvoGrammarFuzzer">
<polygon fill="#ffffff" stroke="#000000" points="1634,-108 1429,-108 1429,-72 1640,-72 1640,-102 1634,-108"/>
<polyline fill="none" stroke="#000000" points="1634,-108 1634,-102 "/>
<polyline fill="none" stroke="#000000" points="1640,-102 1634,-102 "/>
<text text-anchor="middle" x="1534.5" y="-86.3" font-family="Patua One" font-size="14.00" fill="#b03a2e">Evolutionary Grammar Fuzzing</text>
</a>
</g>
</g>
<!-- SearchBasedFuzzer&#45;&gt;EvoGrammarFuzzer -->
<g id="edge11" class="edge">
<title>SearchBasedFuzzer&#45;&gt;EvoGrammarFuzzer</title>
<path fill="none" stroke="#000000" d="M1438.5491,-292.4341C1485.202,-282.7034 1539.2091,-268.4428 1556.5,-252 1592.132,-218.1158 1597.4891,-190.1427 1580.5,-144 1576.695,-133.6656 1569.9356,-123.9621 1562.75,-115.7098"/>
<polygon fill="#000000" stroke="#000000" points="1565.192,-113.1965 1555.8127,-108.2692 1560.0721,-117.9701 1565.192,-113.1965"/>
</g>
<!-- GrammarFuzzer -->
<g id="node13" class="node">
<title>GrammarFuzzer</title>
<g id="a_node13"><a xlink:href="GrammarFuzzer.ipynb" xlink:title="GrammarFuzzer">
<polygon fill="#ffffff" stroke="#000000" points="1025,-324 848,-324 848,-288 1031,-288 1031,-318 1025,-324"/>
<polyline fill="none" stroke="#000000" points="1025,-324 1025,-318 "/>
<polyline fill="none" stroke="#000000" points="1031,-318 1025,-318 "/>
<text text-anchor="middle" x="939.5" y="-302.3" font-family="Patua One" font-size="14.00" fill="#b03a2e">Efficient Grammar Fuzzing</text>
</a>
</g>
</g>
<!-- Grammars&#45;&gt;GrammarFuzzer -->
<g id="edge12" class="edge">
<title>Grammars&#45;&gt;GrammarFuzzer</title>
<path fill="none" stroke="#000000" d="M939.5,-359.8314C939.5,-352.131 939.5,-342.9743 939.5,-334.4166"/>
<polygon fill="#000000" stroke="#000000" points="943.0001,-334.4132 939.5,-324.4133 936.0001,-334.4133 943.0001,-334.4132"/>
</g>
<!-- Intro_Testing -->
<g id="node6" class="node">
<title>Intro_Testing</title>
<g id="a_node6"><a xlink:href="Intro_Testing.ipynb" xlink:title="Intro_Testing">
<polygon fill="#ffffff" stroke="#000000" points="1098,-540 885,-540 885,-504 1104,-504 1104,-534 1098,-540"/>
<polyline fill="none" stroke="#000000" points="1098,-540 1098,-534 "/>
<polyline fill="none" stroke="#000000" points="1104,-534 1098,-534 "/>
<text text-anchor="middle" x="994.5" y="-518.3" font-family="Patua One" font-size="14.00" fill="#b03a2e">Introduction to Software Testing</text>
</a>
</g>
</g>
<!-- Intro_Testing&#45;&gt;Fuzzer -->
<g id="edge5" class="edge">
<title>Intro_Testing&#45;&gt;Fuzzer</title>
<path fill="none" stroke="#000000" d="M994.5,-503.8314C994.5,-496.131 994.5,-486.9743 994.5,-478.4166"/>
<polygon fill="#000000" stroke="#000000" points="998.0001,-478.4132 994.5,-468.4133 991.0001,-478.4133 998.0001,-478.4132"/>
</g>
<!-- ConfigurationFuzzer -->
<g id="node19" class="node">
<title>ConfigurationFuzzer</title>
<g id="a_node19"><a xlink:href="ConfigurationFuzzer.ipynb" xlink:title="ConfigurationFuzzer">
<polygon fill="#ffffff" stroke="#000000" points="466,-180 313,-180 313,-144 472,-144 472,-174 466,-180"/>
<polyline fill="none" stroke="#000000" points="466,-180 466,-174 "/>
<polyline fill="none" stroke="#000000" points="472,-174 466,-174 "/>
<text text-anchor="middle" x="392.5" y="-158.3" font-family="Patua One" font-size="14.00" fill="#b03a2e">Testing Configurations</text>
</a>
</g>
</g>
<!-- GrammarCoverageFuzzer&#45;&gt;ConfigurationFuzzer -->
<g id="edge20" class="edge">
<title>GrammarCoverageFuzzer&#45;&gt;ConfigurationFuzzer</title>
<path fill="none" stroke="#000000" d="M418.668,-215.8314C414.8014,-207.8771 410.1794,-198.369 405.9032,-189.5723"/>
<polygon fill="#000000" stroke="#000000" points="408.9707,-187.8768 401.4509,-180.4133 402.6751,-190.9371 408.9707,-187.8768"/>
</g>
<!-- Carver -->
<g id="node20" class="node">
<title>Carver</title>
<g id="a_node20"><a xlink:href="Carver.ipynb" xlink:title="Carver">
<polygon fill="#ffffff" stroke="#000000" points="618,-36 493,-36 493,0 624,0 624,-30 618,-36"/>
<polyline fill="none" stroke="#000000" points="618,-36 618,-30 "/>
<polyline fill="none" stroke="#000000" points="624,-30 618,-30 "/>
<text text-anchor="middle" x="558.5" y="-14.3" font-family="Patua One" font-size="14.00" fill="#b03a2e">Carving Unit Tests</text>
</a>
</g>
</g>
<!-- GrammarCoverageFuzzer&#45;&gt;Carver -->
<g id="edge21" class="edge">
<title>GrammarCoverageFuzzer&#45;&gt;Carver</title>
<path fill="none" stroke="#000000" d="M370.3189,-215.9394C341.7728,-205.648 311.6073,-192.3733 303.5,-180 294.7311,-166.6169 295.0562,-157.5905 303.5,-144 342.4415,-81.3224 422.806,-48.8854 482.9668,-32.7409"/>
<polygon fill="#000000" stroke="#000000" points="484.0107,-36.0862 492.8158,-30.1937 482.2579,-29.3091 484.0107,-36.0862"/>
</g>
<!-- GUIFuzzer -->
<g id="node21" class="node">
<title>GUIFuzzer</title>
<g id="a_node21"><a xlink:href="GUIFuzzer.ipynb" xlink:title="GUIFuzzer">
<polygon fill="#ffffff" stroke="#000000" points="704.5,-180 490.5,-180 490.5,-144 710.5,-144 710.5,-174 704.5,-180"/>
<polyline fill="none" stroke="#000000" points="704.5,-180 704.5,-174 "/>
<polyline fill="none" stroke="#000000" points="710.5,-174 704.5,-174 "/>
<text text-anchor="middle" x="600.5" y="-158.3" font-family="Patua One" font-size="14.00" fill="#b03a2e">Testing Graphical User Interfaces</text>
</a>
</g>
</g>
<!-- GrammarCoverageFuzzer&#45;&gt;GUIFuzzer -->
<g id="edge22" class="edge">
<title>GrammarCoverageFuzzer&#45;&gt;GUIFuzzer</title>
<path fill="none" stroke="#000000" d="M471.1552,-215.8314C494.3958,-206.159 523.1568,-194.1891 547.6523,-183.9944"/>
<polygon fill="#000000" stroke="#000000" points="549.2712,-187.1117 557.1587,-180.038 546.5815,-180.6491 549.2712,-187.1117"/>
</g>
<!-- APIFuzzer -->
<g id="node24" class="node">
<title>APIFuzzer</title>
<g id="a_node24"><a xlink:href="APIFuzzer.ipynb" xlink:title="APIFuzzer">
<polygon fill="#ffffff" stroke="#000000" points="875,-108 784,-108 784,-72 881,-72 881,-102 875,-108"/>
<polyline fill="none" stroke="#000000" points="875,-108 875,-102 "/>
<polyline fill="none" stroke="#000000" points="881,-102 875,-102 "/>
<text text-anchor="middle" x="832.5" y="-86.3" font-family="Patua One" font-size="14.00" fill="#b03a2e">Fuzzing APIs</text>
</a>
</g>
</g>
<!-- ProbabilisticGrammarFuzzer&#45;&gt;APIFuzzer -->
<g id="edge27" class="edge">
<title>ProbabilisticGrammarFuzzer&#45;&gt;APIFuzzer</title>
<path fill="none" stroke="#000000" d="M832.5,-143.8314C832.5,-136.131 832.5,-126.9743 832.5,-118.4166"/>
<polygon fill="#000000" stroke="#000000" points="836.0001,-118.4132 832.5,-108.4133 829.0001,-118.4133 836.0001,-118.4132"/>
</g>
<!-- InformationFlow -->
<g id="node23" class="node">
<title>InformationFlow</title>
<g id="a_node23"><a xlink:href="InformationFlow.ipynb" xlink:title="InformationFlow">
<polygon fill="#ffffff" stroke="#000000" points="1330,-180 1153,-180 1153,-144 1336,-144 1336,-174 1330,-180"/>
<polyline fill="none" stroke="#000000" points="1330,-180 1330,-174 "/>
<polyline fill="none" stroke="#000000" points="1336,-174 1330,-174 "/>
<text text-anchor="middle" x="1244.5" y="-158.3" font-family="Patua One" font-size="14.00" fill="#b03a2e">Tracking Information Flow</text>
</a>
</g>
</g>
<!-- GrammarMiner&#45;&gt;InformationFlow -->
<g id="edge29" class="edge">
<title>GrammarMiner&#45;&gt;InformationFlow</title>
<path fill="none" stroke="#000000" d="M911.1341,-219.5596C977.8944,-208.0326 1071.6949,-191.8369 1142.7971,-179.5602"/>
<polygon fill="#000000" stroke="#000000" points="1143.4155,-183.0053 1152.6741,-177.8548 1142.2244,-176.1074 1143.4155,-183.0053"/>
</g>
<!-- GrammarFuzzer&#45;&gt;GrammarCoverageFuzzer -->
<g id="edge13" class="edge">
<title>GrammarFuzzer&#45;&gt;GrammarCoverageFuzzer</title>
<path fill="none" stroke="#000000" d="M847.8437,-297.4772C761.8465,-288.8263 629.5091,-273.8372 505.1102,-252.001"/>
<polygon fill="#000000" stroke="#000000" points="505.4797,-248.512 495.0221,-250.2118 504.2572,-255.4044 505.4797,-248.512"/>
</g>
<!-- GrammarFuzzer&#45;&gt;GrammarMiner -->
<g id="edge17" class="edge">
<title>GrammarFuzzer&#45;&gt;GrammarMiner</title>
<path fill="none" stroke="#000000" d="M911.2377,-287.8314C897.0448,-278.7074 879.6718,-267.539 864.4364,-257.7449"/>
<polygon fill="#000000" stroke="#000000" points="866.0578,-254.6263 855.7533,-252.1628 862.2724,-260.5146 866.0578,-254.6263"/>
</g>
<!-- Parser -->
<g id="node14" class="node">
<title>Parser</title>
<g id="a_node14"><a xlink:href="Parser.ipynb" xlink:title="Parser">
<polygon fill="#ffffff" stroke="#000000" points="1541,-252 1440,-252 1440,-216 1547,-216 1547,-246 1541,-252"/>
<polyline fill="none" stroke="#000000" points="1541,-252 1541,-246 "/>
<polyline fill="none" stroke="#000000" points="1547,-246 1541,-246 "/>
<text text-anchor="middle" x="1493.5" y="-230.3" font-family="Patua One" font-size="14.00" fill="#b03a2e">Parsing Inputs</text>
</a>
</g>
</g>
<!-- GrammarFuzzer&#45;&gt;Parser -->
<g id="edge14" class="edge">
<title>GrammarFuzzer&#45;&gt;Parser</title>
<path fill="none" stroke="#000000" d="M1031.1439,-300.5594C1128.0709,-293.7536 1285.4412,-279.7104 1429.7625,-251.9557"/>
<polygon fill="#000000" stroke="#000000" points="1430.5436,-255.3694 1439.6892,-250.0208 1429.2042,-248.4987 1430.5436,-255.3694"/>
</g>
<!-- GeneratorGrammarFuzzer -->
<g id="node15" class="node">
<title>GeneratorGrammarFuzzer</title>
<g id="a_node15"><a xlink:href="GeneratorGrammarFuzzer.ipynb" xlink:title="GeneratorGrammarFuzzer">
<polygon fill="#ffffff" stroke="#000000" points="1116.5,-180 954.5,-180 954.5,-144 1122.5,-144 1122.5,-174 1116.5,-180"/>
<polyline fill="none" stroke="#000000" points="1116.5,-180 1116.5,-174 "/>
<polyline fill="none" stroke="#000000" points="1122.5,-174 1116.5,-174 "/>
<text text-anchor="middle" x="1038.5" y="-158.3" font-family="Patua One" font-size="14.00" fill="#b03a2e">Fuzzing with Generators</text>
</a>
</g>
</g>
<!-- GrammarFuzzer&#45;&gt;GeneratorGrammarFuzzer -->
<g id="edge15" class="edge">
<title>GrammarFuzzer&#45;&gt;GeneratorGrammarFuzzer</title>
<path fill="none" stroke="#000000" d="M939.4308,-287.9012C940.1896,-268.5508 943.8735,-237.7249 958.5,-216 966.633,-203.9199 978.4636,-193.8185 990.5441,-185.7444"/>
<polygon fill="#000000" stroke="#000000" points="992.7278,-188.5061 999.3355,-180.2242 989.0053,-182.5778 992.7278,-188.5061"/>
</g>
<!-- Reducer -->
<g id="node16" class="node">
<title>Reducer</title>
<g id="a_node16"><a xlink:href="Reducer.ipynb" xlink:title="Reducer">
<polygon fill="#ffffff" stroke="#000000" points="1187,-252 968,-252 968,-216 1193,-216 1193,-246 1187,-252"/>
<polyline fill="none" stroke="#000000" points="1187,-252 1187,-246 "/>
<polyline fill="none" stroke="#000000" points="1193,-246 1187,-246 "/>
<text text-anchor="middle" x="1080.5" y="-230.3" font-family="Patua One" font-size="14.00" fill="#b03a2e">Reducing Failure&#45;Inducing Inputs</text>
</a>
</g>
</g>
<!-- GrammarFuzzer&#45;&gt;Reducer -->
<g id="edge16" class="edge">
<title>GrammarFuzzer&#45;&gt;Reducer</title>
<path fill="none" stroke="#000000" d="M975.0803,-287.8314C993.5325,-278.4089 1016.2545,-266.8062 1035.873,-256.7883"/>
<polygon fill="#000000" stroke="#000000" points="1037.6168,-259.8278 1044.9311,-252.1628 1034.4333,-253.5935 1037.6168,-259.8278"/>
</g>
<!-- DynamicInvariants -->
<g id="node17" class="node">
<title>DynamicInvariants</title>
<g id="a_node17"><a xlink:href="DynamicInvariants.ipynb" xlink:title="DynamicInvariants">
<polygon fill="#ffffff" stroke="#000000" points="1415.5,-252 1211.5,-252 1211.5,-216 1421.5,-216 1421.5,-246 1415.5,-252"/>
<polyline fill="none" stroke="#000000" points="1415.5,-252 1415.5,-246 "/>
<polyline fill="none" stroke="#000000" points="1421.5,-246 1415.5,-246 "/>
<text text-anchor="middle" x="1316.5" y="-230.3" font-family="Patua One" font-size="14.00" fill="#b03a2e">Mining Function Specifications</text>
</a>
</g>
</g>
<!-- GrammarFuzzer&#45;&gt;DynamicInvariants -->
<g id="edge18" class="edge">
<title>GrammarFuzzer&#45;&gt;DynamicInvariants</title>
<path fill="none" stroke="#000000" d="M1031.2425,-288.4789C1085.8319,-278.0533 1155.2751,-264.791 1211.9764,-253.9621"/>
<polygon fill="#000000" stroke="#000000" points="1212.88,-257.3528 1222.0459,-252.039 1211.5668,-250.4771 1212.88,-257.3528"/>
</g>
<!-- WebFuzzer -->
<g id="node18" class="node">
<title>WebFuzzer</title>
<g id="a_node18"><a xlink:href="WebFuzzer.ipynb" xlink:title="WebFuzzer">
<polygon fill="#ffffff" stroke="#000000" points="681.5,-252 513.5,-252 513.5,-216 687.5,-216 687.5,-246 681.5,-252"/>
<polyline fill="none" stroke="#000000" points="681.5,-252 681.5,-246 "/>
<polyline fill="none" stroke="#000000" points="687.5,-246 681.5,-246 "/>
<text text-anchor="middle" x="600.5" y="-230.3" font-family="Patua One" font-size="14.00" fill="#b03a2e">Testing Web Applications</text>
</a>
</g>
</g>
<!-- GrammarFuzzer&#45;&gt;WebFuzzer -->
<g id="edge19" class="edge">
<title>GrammarFuzzer&#45;&gt;WebFuzzer</title>
<path fill="none" stroke="#000000" d="M854.3936,-287.9243C805.9434,-277.634 745.1422,-264.7205 695.1869,-254.1105"/>
<polygon fill="#000000" stroke="#000000" points="695.8564,-250.6747 685.3474,-252.0207 694.402,-257.5219 695.8564,-250.6747"/>
</g>
<!-- Parser&#45;&gt;ProbabilisticGrammarFuzzer -->
<g id="edge24" class="edge">
<title>Parser&#45;&gt;ProbabilisticGrammarFuzzer</title>
<path fill="none" stroke="#000000" d="M1439.7132,-217.8508C1436.6105,-217.1634 1433.5237,-216.5384 1430.5,-216 1220.919,-178.6859 1161.9716,-204.2232 946.5567,-180.0547"/>
<polygon fill="#000000" stroke="#000000" points="946.8456,-176.565 936.5123,-178.9047 946.0493,-183.5195 946.8456,-176.565"/>
</g>
<!-- LangFuzzer -->
<g id="node22" class="node">
<title>LangFuzzer</title>
<g id="a_node22"><a xlink:href="LangFuzzer.ipynb" xlink:title="LangFuzzer">
<polygon fill="#ffffff" stroke="#000000" points="1565.5,-180 1367.5,-180 1367.5,-144 1571.5,-144 1571.5,-174 1565.5,-180"/>
<polyline fill="none" stroke="#000000" points="1565.5,-180 1565.5,-174 "/>
<polyline fill="none" stroke="#000000" points="1571.5,-174 1565.5,-174 "/>
<text text-anchor="middle" x="1469.5" y="-158.3" font-family="Patua One" font-size="14.00" fill="#b03a2e">Fuzzing with Input Fragments</text>
</a>
</g>
</g>
<!-- Parser&#45;&gt;LangFuzzer -->
<g id="edge23" class="edge">
<title>Parser&#45;&gt;LangFuzzer</title>
<path fill="none" stroke="#000000" d="M1487.4438,-215.8314C1484.8488,-208.0463 1481.7576,-198.7729 1478.8782,-190.1347"/>
<polygon fill="#000000" stroke="#000000" points="1482.1205,-188.7933 1475.6378,-180.4133 1475.4797,-191.0069 1482.1205,-188.7933"/>
</g>
<!-- Parser&#45;&gt;InformationFlow -->
<g id="edge25" class="edge">
<title>Parser&#45;&gt;InformationFlow</title>
<path fill="none" stroke="#000000" d="M1439.7773,-218.4657C1403.7965,-208.0616 1356.0056,-194.2426 1316.7087,-182.8796"/>
<polygon fill="#000000" stroke="#000000" points="1317.4921,-179.4628 1306.9134,-180.0472 1315.5476,-186.1873 1317.4921,-179.4628"/>
</g>
<!-- GeneratorGrammarFuzzer&#45;&gt;APIFuzzer -->
<g id="edge28" class="edge">
<title>GeneratorGrammarFuzzer&#45;&gt;APIFuzzer</title>
<path fill="none" stroke="#000000" d="M986.7834,-143.9243C957.5317,-133.7004 920.8711,-120.887 890.6267,-110.3161"/>
<polygon fill="#000000" stroke="#000000" points="891.645,-106.9645 881.0501,-106.969 889.3353,-113.5725 891.645,-106.9645"/>
</g>
<!-- WebFuzzer&#45;&gt;GUIFuzzer -->
<g id="edge33" class="edge">
<title>WebFuzzer&#45;&gt;GUIFuzzer</title>
<path fill="none" stroke="#000000" d="M600.5,-215.8314C600.5,-208.131 600.5,-198.9743 600.5,-190.4166"/>
<polygon fill="#000000" stroke="#000000" points="604.0001,-190.4132 600.5,-180.4133 597.0001,-190.4133 604.0001,-190.4132"/>
</g>
<!-- LangFuzzer&#45;&gt;EvoGrammarFuzzer -->
<g id="edge26" class="edge">
<title>LangFuzzer&#45;&gt;EvoGrammarFuzzer</title>
<path fill="none" stroke="#000000" d="M1485.9022,-143.8314C1493.5415,-135.3694 1502.7683,-125.1489 1511.1207,-115.8971"/>
<polygon fill="#000000" stroke="#000000" points="1513.7738,-118.1813 1517.8769,-108.4133 1508.5779,-113.4906 1513.7738,-118.1813"/>
</g>
<!-- ConcolicFuzzer -->
<g id="node25" class="node">
<title>ConcolicFuzzer</title>
<g id="a_node25"><a xlink:href="ConcolicFuzzer.ipynb" xlink:title="ConcolicFuzzer">
<polygon fill="#ffffff" stroke="#000000" points="1298.5,-108 1184.5,-108 1184.5,-72 1304.5,-72 1304.5,-102 1298.5,-108"/>
<polyline fill="none" stroke="#000000" points="1298.5,-108 1298.5,-102 "/>
<polyline fill="none" stroke="#000000" points="1304.5,-102 1298.5,-102 "/>
<text text-anchor="middle" x="1244.5" y="-86.3" font-family="Patua One" font-size="14.00" fill="#b03a2e">Concolic Fuzzing</text>
</a>
</g>
</g>
<!-- InformationFlow&#45;&gt;ConcolicFuzzer -->
<g id="edge30" class="edge">
<title>InformationFlow&#45;&gt;ConcolicFuzzer</title>
<path fill="none" stroke="#000000" d="M1244.5,-143.8314C1244.5,-136.131 1244.5,-126.9743 1244.5,-118.4166"/>
<polygon fill="#000000" stroke="#000000" points="1248.0001,-118.4132 1244.5,-108.4133 1241.0001,-118.4133 1248.0001,-118.4132"/>
</g>
<!-- APIFuzzer&#45;&gt;Carver -->
<g id="edge32" class="edge">
<title>APIFuzzer&#45;&gt;Carver</title>
<path fill="none" stroke="#000000" d="M783.83,-77.2108C742.2514,-66.285 681.7502,-50.3869 633.906,-37.8147"/>
<polygon fill="#000000" stroke="#000000" points="634.7693,-34.4228 624.2081,-35.2664 632.9902,-41.193 634.7693,-34.4228"/>
</g>
<!-- SymbolicFuzzer -->
<g id="node26" class="node">
<title>SymbolicFuzzer</title>
<g id="a_node26"><a xlink:href="SymbolicFuzzer.ipynb" xlink:title="SymbolicFuzzer">
<polygon fill="#ffffff" stroke="#000000" points="1301.5,-36 1181.5,-36 1181.5,0 1307.5,0 1307.5,-30 1301.5,-36"/>
<polyline fill="none" stroke="#000000" points="1301.5,-36 1301.5,-30 "/>
<polyline fill="none" stroke="#000000" points="1307.5,-30 1301.5,-30 "/>
<text text-anchor="middle" x="1244.5" y="-14.3" font-family="Patua One" font-size="14.00" fill="#b03a2e">Symbolic Fuzzing</text>
</a>
</g>
</g>
<!-- ConcolicFuzzer&#45;&gt;SymbolicFuzzer -->
<g id="edge31" class="edge">
<title>ConcolicFuzzer&#45;&gt;SymbolicFuzzer</title>
<path fill="none" stroke="#000000" d="M1244.5,-71.8314C1244.5,-64.131 1244.5,-54.9743 1244.5,-46.4166"/>
<polygon fill="#000000" stroke="#000000" points="1248.0001,-46.4132 1244.5,-36.4133 1241.0001,-46.4133 1248.0001,-46.4132"/>
</g>
</g>
</svg>
