<?xml version="1.0" standalone="no"?>
<!DOCTYPE svg PUBLIC "-//W3C//DTD SVG 20010904//EN"
 "http://www.w3.org/TR/2001/REC-SVG-20010904/DTD/svg10.dtd">
<svg version="1.0" xmlns="http://www.w3.org/2000/svg"
 width="152.000000pt" height="152.000000pt" viewBox="0 0 152.000000 152.000000"
 preserveAspectRatio="xMidYMid meet">
<metadata>
Created by potrace 1.11, written by Peter Selinger 2001-2013
</metadata>
<g transform="translate(0.000000,152.000000) scale(0.100000,-0.100000)"
fill="#000000" stroke="none">
<path d="M627 1378 c-16 -73 -31 -144 -33 -158 -3 -14 -21 -99 -41 -190 -19
-91 -37 -178 -40 -195 -2 -16 -8 -48 -13 -70 -5 -22 -8 -41 -6 -42 2 -2 74 33
162 76 87 44 160 78 162 77 1 -2 -2 -23 -7 -47 -5 -24 -12 -56 -15 -71 -2 -15
-12 -65 -22 -110 -9 -46 -18 -90 -19 -98 -2 -8 -4 -21 -4 -29 -1 -10 -9 -12
-33 -6 -49 10 -67 11 -68 2 -1 -10 133 -206 142 -207 8 0 148 197 148 210 0 5
-10 7 -22 4 -81 -16 -78 -16 -68 13 5 16 43 138 85 273 42 135 80 257 85 272
l9 28 -77 -39 c-42 -21 -122 -60 -177 -86 -55 -26 -103 -50 -107 -52 -4 -2 4
27 18 64 15 37 41 109 59 158 18 50 55 150 83 223 l50 132 -112 0 -111 0 -28
-132z"/>
<path d="M140 515 l0 -505 620 0 620 0 0 505 0 505 -90 0 -90 0 0 -415 0 -415
-440 0 -440 0 0 415 0 415 -90 0 -90 0 0 -505z"/>
</g>
</svg>
