<?xml version="1.0" encoding="UTF-8" standalone="no"?>
<!DOCTYPE svg PUBLIC "-//W3C//DTD SVG 1.1//EN"
 "http://www.w3.org/Graphics/SVG/1.1/DTD/svg11.dtd">
<!-- Generated by graphviz version 2.40.1 (20161225.0304)
 -->
<!-- Title: %3 Pages: 1 -->
<svg width="226pt" height="176pt"
 viewBox="0.00 0.00 225.50 176.00" xmlns="http://www.w3.org/2000/svg" xmlns:xlink="http://www.w3.org/1999/xlink">
<g id="graph0" class="graph" transform="scale(1 1) rotate(0) translate(4 172)">
<title>%3</title>
<polygon fill="#ffffff" stroke="transparent" points="-4,4 -4,-172 221.5,-172 221.5,4 -4,4"/>
<!-- 0 -->
<g id="node1" class="node">
<title>0</title>
<text text-anchor="middle" x="68" y="-156.8" font-family="Times,serif" font-size="14.00" fill="#000000">&lt;term&gt;</text>
</g>
<!-- 1 -->
<g id="node2" class="node">
<title>1</title>
<text text-anchor="middle" x="21" y="-105.8" font-family="Times,serif" font-size="14.00" fill="#000000">&lt;term&gt;</text>
</g>
<!-- 0&#45;&gt;1 -->
<g id="edge1" class="edge">
<title>0&#45;&gt;1</title>
<path fill="none" stroke="#000000" d="M61.065,-152.9748C54.1921,-145.517 43.4731,-133.8857 34.8512,-124.53"/>
<polygon fill="#000000" stroke="#000000" points="37.3141,-122.0378 27.9635,-117.0561 32.1666,-126.7816 37.3141,-122.0378"/>
</g>
<!-- 2 -->
<g id="node3" class="node">
<title>2</title>
<text text-anchor="middle" x="68" y="-105.8" font-family="Times,serif" font-size="14.00" fill="#000000"> * </text>
</g>
<!-- 0&#45;&gt;2 -->
<g id="edge2" class="edge">
<title>0&#45;&gt;2</title>
<path fill="none" stroke="#000000" d="M68,-152.9748C68,-146.195 68,-135.966 68,-127.1331"/>
<polygon fill="#000000" stroke="#000000" points="71.5001,-127.0561 68,-117.0561 64.5001,-127.0561 71.5001,-127.0561"/>
</g>
<!-- 3 -->
<g id="node4" class="node">
<title>3</title>
<text text-anchor="middle" x="118" y="-105.8" font-family="Times,serif" font-size="14.00" fill="#000000">&lt;factor&gt;</text>
</g>
<!-- 0&#45;&gt;3 -->
<g id="edge3" class="edge">
<title>0&#45;&gt;3</title>
<path fill="none" stroke="#000000" d="M75.3777,-152.9748C82.7631,-145.4417 94.3232,-133.6503 103.542,-124.2472"/>
<polygon fill="#000000" stroke="#000000" points="106.0906,-126.6471 110.5921,-117.0561 101.0921,-121.7466 106.0906,-126.6471"/>
</g>
<!-- 4 -->
<g id="node5" class="node">
<title>4</title>
<text text-anchor="middle" x="95" y="-54.8" font-family="Times,serif" font-size="14.00" fill="#000000">+</text>
</g>
<!-- 3&#45;&gt;4 -->
<g id="edge4" class="edge">
<title>3&#45;&gt;4</title>
<path fill="none" stroke="#000000" d="M114.6063,-101.9748C111.4468,-94.969 106.6264,-84.2803 102.556,-75.2547"/>
<polygon fill="#000000" stroke="#000000" points="105.7093,-73.7331 98.4077,-66.0561 99.3282,-76.6109 105.7093,-73.7331"/>
</g>
<!-- 5 -->
<g id="node6" class="node">
<title>5</title>
<text text-anchor="middle" x="142" y="-54.8" font-family="Times,serif" font-size="14.00" fill="#000000">&lt;factor&gt;</text>
</g>
<!-- 3&#45;&gt;5 -->
<g id="edge5" class="edge">
<title>3&#45;&gt;5</title>
<path fill="none" stroke="#000000" d="M121.5413,-101.9748C124.8381,-94.969 129.8681,-84.2803 134.1155,-75.2547"/>
<polygon fill="#000000" stroke="#000000" points="137.353,-76.5946 138.4442,-66.0561 131.0193,-73.614 137.353,-76.5946"/>
</g>
<!-- 6 -->
<g id="node7" class="node">
<title>6</title>
<text text-anchor="middle" x="94" y="-3.8" font-family="Times,serif" font-size="14.00" fill="#000000">&lt;integer&gt;</text>
</g>
<!-- 5&#45;&gt;6 -->
<g id="edge6" class="edge">
<title>5&#45;&gt;6</title>
<path fill="none" stroke="#000000" d="M134.9174,-50.9748C127.8983,-43.517 116.9513,-31.8857 108.1459,-22.53"/>
<polygon fill="#000000" stroke="#000000" points="110.514,-19.9393 101.1116,-15.0561 105.4166,-24.7369 110.514,-19.9393"/>
</g>
<!-- 7 -->
<g id="node8" class="node">
<title>7</title>
<text text-anchor="middle" x="142" y="-3.8" font-family="Times,serif" font-size="14.00" fill="#000000">.</text>
</g>
<!-- 5&#45;&gt;7 -->
<g id="edge7" class="edge">
<title>5&#45;&gt;7</title>
<path fill="none" stroke="#000000" d="M142,-50.9748C142,-44.195 142,-33.966 142,-25.1331"/>
<polygon fill="#000000" stroke="#000000" points="145.5001,-25.0561 142,-15.0561 138.5001,-25.0561 145.5001,-25.0561"/>
</g>
<!-- 8 -->
<g id="node9" class="node">
<title>8</title>
<text text-anchor="middle" x="190" y="-3.8" font-family="Times,serif" font-size="14.00" fill="#000000">&lt;integer&gt;</text>
</g>
<!-- 5&#45;&gt;8 -->
<g id="edge8" class="edge">
<title>5&#45;&gt;8</title>
<path fill="none" stroke="#000000" d="M149.0826,-50.9748C156.1017,-43.517 167.0487,-31.8857 175.8541,-22.53"/>
<polygon fill="#000000" stroke="#000000" points="178.5834,-24.7369 182.8884,-15.0561 173.486,-19.9393 178.5834,-24.7369"/>
</g>
</g>
</svg>
