<?xml version="1.0" encoding="UTF-8" standalone="no"?>
<!DOCTYPE svg PUBLIC "-//W3C//DTD SVG 1.1//EN"
 "http://www.w3.org/Graphics/SVG/1.1/DTD/svg11.dtd">
<!-- Generated by graphviz version 2.40.1 (20161225.0304)
 -->
<!-- Title: %3 Pages: 1 -->
<svg width="174pt" height="125pt"
 viewBox="0.00 0.00 173.50 125.00" xmlns="http://www.w3.org/2000/svg" xmlns:xlink="http://www.w3.org/1999/xlink">
<g id="graph0" class="graph" transform="scale(1 1) rotate(0) translate(4 121)">
<title>%3</title>
<polygon fill="#ffffff" stroke="transparent" points="-4,4 -4,-121 169.5,-121 169.5,4 -4,4"/>
<!-- 0 -->
<g id="node1" class="node">
<title>0</title>
<text text-anchor="middle" x="68" y="-105.8" font-family="Times,serif" font-size="14.00" fill="#000000">&lt;term&gt;</text>
</g>
<!-- 1 -->
<g id="node2" class="node">
<title>1</title>
<text text-anchor="middle" x="21" y="-54.8" font-family="Times,serif" font-size="14.00" fill="#000000">&lt;term&gt;</text>
</g>
<!-- 0&#45;&gt;1 -->
<g id="edge1" class="edge">
<title>0&#45;&gt;1</title>
<path fill="none" stroke="#000000" d="M61.065,-101.9748C54.1921,-94.517 43.4731,-82.8857 34.8512,-73.53"/>
<polygon fill="#000000" stroke="#000000" points="37.3141,-71.0378 27.9635,-66.0561 32.1666,-75.7816 37.3141,-71.0378"/>
</g>
<!-- 2 -->
<g id="node3" class="node">
<title>2</title>
<text text-anchor="middle" x="68" y="-54.8" font-family="Times,serif" font-size="14.00" fill="#000000"> * </text>
</g>
<!-- 0&#45;&gt;2 -->
<g id="edge2" class="edge">
<title>0&#45;&gt;2</title>
<path fill="none" stroke="#000000" d="M68,-101.9748C68,-95.195 68,-84.966 68,-76.1331"/>
<polygon fill="#000000" stroke="#000000" points="71.5001,-76.0561 68,-66.0561 64.5001,-76.0561 71.5001,-76.0561"/>
</g>
<!-- 3 -->
<g id="node4" class="node">
<title>3</title>
<text text-anchor="middle" x="118" y="-54.8" font-family="Times,serif" font-size="14.00" fill="#000000">&lt;factor&gt;</text>
</g>
<!-- 0&#45;&gt;3 -->
<g id="edge3" class="edge">
<title>0&#45;&gt;3</title>
<path fill="none" stroke="#000000" d="M75.3777,-101.9748C82.7631,-94.4417 94.3232,-82.6503 103.542,-73.2472"/>
<polygon fill="#000000" stroke="#000000" points="106.0906,-75.6471 110.5921,-66.0561 101.0921,-70.7466 106.0906,-75.6471"/>
</g>
<!-- 4 -->
<g id="node5" class="node">
<title>4</title>
<text text-anchor="middle" x="94" y="-3.8" font-family="Times,serif" font-size="14.00" fill="#000000">+</text>
</g>
<!-- 3&#45;&gt;4 -->
<g id="edge4" class="edge">
<title>3&#45;&gt;4</title>
<path fill="none" stroke="#000000" d="M114.4587,-50.9748C111.1619,-43.969 106.1319,-33.2803 101.8845,-24.2547"/>
<polygon fill="#000000" stroke="#000000" points="104.9807,-22.614 97.5558,-15.0561 98.647,-25.5946 104.9807,-22.614"/>
</g>
<!-- 5 -->
<g id="node6" class="node">
<title>5</title>
<text text-anchor="middle" x="141" y="-3.8" font-family="Times,serif" font-size="14.00" fill="#000000">&lt;factor&gt;</text>
</g>
<!-- 3&#45;&gt;5 -->
<g id="edge5" class="edge">
<title>3&#45;&gt;5</title>
<path fill="none" stroke="#000000" d="M121.3937,-50.9748C124.5532,-43.969 129.3736,-33.2803 133.444,-24.2547"/>
<polygon fill="#000000" stroke="#000000" points="136.6718,-25.6109 137.5923,-15.0561 130.2907,-22.7331 136.6718,-25.6109"/>
</g>
</g>
</svg>
