<?xml version="1.0" encoding="UTF-8" standalone="no"?>
<!DOCTYPE svg PUBLIC "-//W3C//DTD SVG 1.1//EN"
 "http://www.w3.org/Graphics/SVG/1.1/DTD/svg11.dtd">
<!-- Generated by graphviz version 2.40.1 (20161225.0304)
 -->
<!-- Title: %3 Pages: 1 -->
<svg width="374pt" height="329pt"
 viewBox="0.00 0.00 373.50 329.00" xmlns="http://www.w3.org/2000/svg" xmlns:xlink="http://www.w3.org/1999/xlink">
<g id="graph0" class="graph" transform="scale(1 1) rotate(0) translate(4 325)">
<title>%3</title>
<polygon fill="#ffffff" stroke="transparent" points="-4,4 -4,-325 369.5,-325 369.5,4 -4,4"/>
<!-- 0 -->
<g id="node1" class="node">
<title>0</title>
<text text-anchor="middle" x="141.5" y="-309.8" font-family="Times,serif" font-size="14.00" fill="#000000">&lt;term&gt;</text>
</g>
<!-- 1 -->
<g id="node2" class="node">
<title>1</title>
<text text-anchor="middle" x="87.5" y="-258.8" font-family="Times,serif" font-size="14.00" fill="#000000">&lt;term&gt;</text>
</g>
<!-- 0&#45;&gt;1 -->
<g id="edge1" class="edge">
<title>0&#45;&gt;1</title>
<path fill="none" stroke="#000000" d="M133.5321,-305.9748C125.4761,-298.3663 112.8208,-286.4141 102.8167,-276.9658"/>
<polygon fill="#000000" stroke="#000000" points="105.1739,-274.3778 95.5006,-270.0561 100.3675,-279.4669 105.1739,-274.3778"/>
</g>
<!-- 12 -->
<g id="node13" class="node">
<title>12</title>
<text text-anchor="middle" x="141.5" y="-258.8" font-family="Times,serif" font-size="14.00" fill="#000000"> * </text>
</g>
<!-- 0&#45;&gt;12 -->
<g id="edge12" class="edge">
<title>0&#45;&gt;12</title>
<path fill="none" stroke="#000000" d="M141.5,-305.9748C141.5,-299.195 141.5,-288.966 141.5,-280.1331"/>
<polygon fill="#000000" stroke="#000000" points="145.0001,-280.0561 141.5,-270.0561 138.0001,-280.0561 145.0001,-280.0561"/>
</g>
<!-- 13 -->
<g id="node14" class="node">
<title>13</title>
<text text-anchor="middle" x="194.5" y="-258.8" font-family="Times,serif" font-size="14.00" fill="#000000">&lt;factor&gt;</text>
</g>
<!-- 0&#45;&gt;13 -->
<g id="edge13" class="edge">
<title>0&#45;&gt;13</title>
<path fill="none" stroke="#000000" d="M149.3203,-305.9748C157.1489,-298.4417 169.4026,-286.6503 179.1745,-277.2472"/>
<polygon fill="#000000" stroke="#000000" points="181.8687,-279.5119 186.6476,-270.0561 177.015,-274.4679 181.8687,-279.5119"/>
</g>
<!-- 2 -->
<g id="node3" class="node">
<title>2</title>
<text text-anchor="middle" x="27.5" y="-207.8" font-family="Times,serif" font-size="14.00" fill="#000000">&lt;term&gt;</text>
</g>
<!-- 1&#45;&gt;2 -->
<g id="edge2" class="edge">
<title>1&#45;&gt;2</title>
<path fill="none" stroke="#000000" d="M78.6468,-254.9748C69.6071,-247.291 55.3553,-235.177 44.1893,-225.6859"/>
<polygon fill="#000000" stroke="#000000" points="46.2757,-222.8658 36.3895,-219.0561 41.7422,-228.1994 46.2757,-222.8658"/>
</g>
<!-- 7 -->
<g id="node8" class="node">
<title>7</title>
<text text-anchor="middle" x="74.5" y="-207.8" font-family="Times,serif" font-size="14.00" fill="#000000"> * </text>
</g>
<!-- 1&#45;&gt;7 -->
<g id="edge7" class="edge">
<title>1&#45;&gt;7</title>
<path fill="none" stroke="#000000" d="M85.5818,-254.9748C83.8344,-248.1196 81.1882,-237.7383 78.9198,-228.8392"/>
<polygon fill="#000000" stroke="#000000" points="82.2877,-227.8817 76.4261,-219.0561 75.5046,-229.6108 82.2877,-227.8817"/>
</g>
<!-- 8 -->
<g id="node9" class="node">
<title>8</title>
<text text-anchor="middle" x="124.5" y="-207.8" font-family="Times,serif" font-size="14.00" fill="#000000">&lt;factor&gt;</text>
</g>
<!-- 1&#45;&gt;8 -->
<g id="edge8" class="edge">
<title>1&#45;&gt;8</title>
<path fill="none" stroke="#000000" d="M92.9595,-254.9748C98.2061,-247.743 106.2998,-236.5868 112.9744,-227.3866"/>
<polygon fill="#000000" stroke="#000000" points="115.9788,-229.2056 119.0181,-219.0561 110.3128,-225.095 115.9788,-229.2056"/>
</g>
<!-- 3 -->
<g id="node4" class="node">
<title>3</title>
<text text-anchor="middle" x="27.5" y="-156.8" font-family="Times,serif" font-size="14.00" fill="#000000">&lt;factor&gt;</text>
</g>
<!-- 2&#45;&gt;3 -->
<g id="edge3" class="edge">
<title>2&#45;&gt;3</title>
<path fill="none" stroke="#000000" d="M27.5,-203.9748C27.5,-197.195 27.5,-186.966 27.5,-178.1331"/>
<polygon fill="#000000" stroke="#000000" points="31.0001,-178.0561 27.5,-168.0561 24.0001,-178.0561 31.0001,-178.0561"/>
</g>
<!-- 4 -->
<g id="node5" class="node">
<title>4</title>
<text text-anchor="middle" x="27.5" y="-105.8" font-family="Times,serif" font-size="14.00" fill="#000000">&lt;integer&gt;</text>
</g>
<!-- 3&#45;&gt;4 -->
<g id="edge4" class="edge">
<title>3&#45;&gt;4</title>
<path fill="none" stroke="#000000" d="M27.5,-152.9748C27.5,-146.195 27.5,-135.966 27.5,-127.1331"/>
<polygon fill="#000000" stroke="#000000" points="31.0001,-127.0561 27.5,-117.0561 24.0001,-127.0561 31.0001,-127.0561"/>
</g>
<!-- 5 -->
<g id="node6" class="node">
<title>5</title>
<text text-anchor="middle" x="27.5" y="-54.8" font-family="Times,serif" font-size="14.00" fill="#000000">&lt;digit&gt;</text>
</g>
<!-- 4&#45;&gt;5 -->
<g id="edge5" class="edge">
<title>4&#45;&gt;5</title>
<path fill="none" stroke="#000000" d="M27.5,-101.9748C27.5,-95.195 27.5,-84.966 27.5,-76.1331"/>
<polygon fill="#000000" stroke="#000000" points="31.0001,-76.0561 27.5,-66.0561 24.0001,-76.0561 31.0001,-76.0561"/>
</g>
<!-- 6 -->
<g id="node7" class="node">
<title>6</title>
<text text-anchor="middle" x="27.5" y="-3.8" font-family="Times,serif" font-size="14.00" fill="#000000">4</text>
</g>
<!-- 5&#45;&gt;6 -->
<g id="edge6" class="edge">
<title>5&#45;&gt;6</title>
<path fill="none" stroke="#000000" d="M27.5,-50.9748C27.5,-44.195 27.5,-33.966 27.5,-25.1331"/>
<polygon fill="#000000" stroke="#000000" points="31.0001,-25.0561 27.5,-15.0561 24.0001,-25.0561 31.0001,-25.0561"/>
</g>
<!-- 9 -->
<g id="node10" class="node">
<title>9</title>
<text text-anchor="middle" x="123.5" y="-156.8" font-family="Times,serif" font-size="14.00" fill="#000000">&lt;integer&gt;</text>
</g>
<!-- 8&#45;&gt;9 -->
<g id="edge9" class="edge">
<title>8&#45;&gt;9</title>
<path fill="none" stroke="#000000" d="M124.3524,-203.9748C124.2195,-197.195 124.0189,-186.966 123.8457,-178.1331"/>
<polygon fill="#000000" stroke="#000000" points="127.3436,-177.9855 123.6482,-168.0561 120.345,-178.1228 127.3436,-177.9855"/>
</g>
<!-- 10 -->
<g id="node11" class="node">
<title>10</title>
<text text-anchor="middle" x="123.5" y="-105.8" font-family="Times,serif" font-size="14.00" fill="#000000">&lt;digit&gt;</text>
</g>
<!-- 9&#45;&gt;10 -->
<g id="edge10" class="edge">
<title>9&#45;&gt;10</title>
<path fill="none" stroke="#000000" d="M123.5,-152.9748C123.5,-146.195 123.5,-135.966 123.5,-127.1331"/>
<polygon fill="#000000" stroke="#000000" points="127.0001,-127.0561 123.5,-117.0561 120.0001,-127.0561 127.0001,-127.0561"/>
</g>
<!-- 11 -->
<g id="node12" class="node">
<title>11</title>
<text text-anchor="middle" x="123.5" y="-54.8" font-family="Times,serif" font-size="14.00" fill="#000000">1</text>
</g>
<!-- 10&#45;&gt;11 -->
<g id="edge11" class="edge">
<title>10&#45;&gt;11</title>
<path fill="none" stroke="#000000" d="M123.5,-101.9748C123.5,-95.195 123.5,-84.966 123.5,-76.1331"/>
<polygon fill="#000000" stroke="#000000" points="127.0001,-76.0561 123.5,-66.0561 120.0001,-76.0561 127.0001,-76.0561"/>
</g>
<!-- 14 -->
<g id="node15" class="node">
<title>14</title>
<text text-anchor="middle" x="194.5" y="-207.8" font-family="Times,serif" font-size="14.00" fill="#000000">+</text>
</g>
<!-- 13&#45;&gt;14 -->
<g id="edge14" class="edge">
<title>13&#45;&gt;14</title>
<path fill="none" stroke="#000000" d="M194.5,-254.9748C194.5,-248.195 194.5,-237.966 194.5,-229.1331"/>
<polygon fill="#000000" stroke="#000000" points="198.0001,-229.0561 194.5,-219.0561 191.0001,-229.0561 198.0001,-229.0561"/>
</g>
<!-- 15 -->
<g id="node16" class="node">
<title>15</title>
<text text-anchor="middle" x="242.5" y="-207.8" font-family="Times,serif" font-size="14.00" fill="#000000">&lt;factor&gt;</text>
</g>
<!-- 13&#45;&gt;15 -->
<g id="edge15" class="edge">
<title>13&#45;&gt;15</title>
<path fill="none" stroke="#000000" d="M201.5826,-254.9748C208.6017,-247.517 219.5487,-235.8857 228.3541,-226.53"/>
<polygon fill="#000000" stroke="#000000" points="231.0834,-228.7369 235.3884,-219.0561 225.986,-223.9393 231.0834,-228.7369"/>
</g>
<!-- 16 -->
<g id="node17" class="node">
<title>16</title>
<text text-anchor="middle" x="196.5" y="-156.8" font-family="Times,serif" font-size="14.00" fill="#000000">&lt;integer&gt;</text>
</g>
<!-- 15&#45;&gt;16 -->
<g id="edge16" class="edge">
<title>15&#45;&gt;16</title>
<path fill="none" stroke="#000000" d="M235.7125,-203.9748C228.9859,-196.517 218.495,-184.8857 210.0564,-175.53"/>
<polygon fill="#000000" stroke="#000000" points="212.612,-173.1376 203.3153,-168.0561 207.414,-177.826 212.612,-173.1376"/>
</g>
<!-- 19 -->
<g id="node20" class="node">
<title>19</title>
<text text-anchor="middle" x="244.5" y="-156.8" font-family="Times,serif" font-size="14.00" fill="#000000">.</text>
</g>
<!-- 15&#45;&gt;19 -->
<g id="edge19" class="edge">
<title>15&#45;&gt;19</title>
<path fill="none" stroke="#000000" d="M242.7951,-203.9748C243.061,-197.195 243.4621,-186.966 243.8085,-178.1331"/>
<polygon fill="#000000" stroke="#000000" points="247.309,-178.1856 244.2037,-168.0561 240.3144,-177.9112 247.309,-178.1856"/>
</g>
<!-- 20 -->
<g id="node21" class="node">
<title>20</title>
<text text-anchor="middle" x="292.5" y="-156.8" font-family="Times,serif" font-size="14.00" fill="#000000">&lt;integer&gt;</text>
</g>
<!-- 15&#45;&gt;20 -->
<g id="edge20" class="edge">
<title>15&#45;&gt;20</title>
<path fill="none" stroke="#000000" d="M249.8777,-203.9748C257.2631,-196.4417 268.8232,-184.6503 278.042,-175.2472"/>
<polygon fill="#000000" stroke="#000000" points="280.5906,-177.6471 285.0921,-168.0561 275.5921,-172.7466 280.5906,-177.6471"/>
</g>
<!-- 17 -->
<g id="node18" class="node">
<title>17</title>
<text text-anchor="middle" x="196.5" y="-105.8" font-family="Times,serif" font-size="14.00" fill="#000000">&lt;digit&gt;</text>
</g>
<!-- 16&#45;&gt;17 -->
<g id="edge17" class="edge">
<title>16&#45;&gt;17</title>
<path fill="none" stroke="#000000" d="M196.5,-152.9748C196.5,-146.195 196.5,-135.966 196.5,-127.1331"/>
<polygon fill="#000000" stroke="#000000" points="200.0001,-127.0561 196.5,-117.0561 193.0001,-127.0561 200.0001,-127.0561"/>
</g>
<!-- 18 -->
<g id="node19" class="node">
<title>18</title>
<text text-anchor="middle" x="196.5" y="-54.8" font-family="Times,serif" font-size="14.00" fill="#000000">2</text>
</g>
<!-- 17&#45;&gt;18 -->
<g id="edge18" class="edge">
<title>17&#45;&gt;18</title>
<path fill="none" stroke="#000000" d="M196.5,-101.9748C196.5,-95.195 196.5,-84.966 196.5,-76.1331"/>
<polygon fill="#000000" stroke="#000000" points="200.0001,-76.0561 196.5,-66.0561 193.0001,-76.0561 200.0001,-76.0561"/>
</g>
<!-- 21 -->
<g id="node22" class="node">
<title>21</title>
<text text-anchor="middle" x="277.5" y="-105.8" font-family="Times,serif" font-size="14.00" fill="#000000">&lt;integer&gt;</text>
</g>
<!-- 20&#45;&gt;21 -->
<g id="edge21" class="edge">
<title>20&#45;&gt;21</title>
<path fill="none" stroke="#000000" d="M290.2867,-152.9748C288.2705,-146.1196 285.2171,-135.7383 282.5998,-126.8392"/>
<polygon fill="#000000" stroke="#000000" points="285.9019,-125.6622 279.7224,-117.0561 279.1863,-127.6374 285.9019,-125.6622"/>
</g>
<!-- 24 -->
<g id="node25" class="node">
<title>24</title>
<text text-anchor="middle" x="344.5" y="-105.8" font-family="Times,serif" font-size="14.00" fill="#000000">&lt;digit&gt;</text>
</g>
<!-- 20&#45;&gt;24 -->
<g id="edge24" class="edge">
<title>20&#45;&gt;24</title>
<path fill="none" stroke="#000000" d="M300.1728,-152.9748C307.8536,-145.4417 319.8761,-133.6503 329.4637,-124.2472"/>
<polygon fill="#000000" stroke="#000000" points="332.1071,-126.557 336.7957,-117.0561 327.2056,-121.5594 332.1071,-126.557"/>
</g>
<!-- 22 -->
<g id="node23" class="node">
<title>22</title>
<text text-anchor="middle" x="277.5" y="-54.8" font-family="Times,serif" font-size="14.00" fill="#000000">&lt;digit&gt;</text>
</g>
<!-- 21&#45;&gt;22 -->
<g id="edge22" class="edge">
<title>21&#45;&gt;22</title>
<path fill="none" stroke="#000000" d="M277.5,-101.9748C277.5,-95.195 277.5,-84.966 277.5,-76.1331"/>
<polygon fill="#000000" stroke="#000000" points="281.0001,-76.0561 277.5,-66.0561 274.0001,-76.0561 281.0001,-76.0561"/>
</g>
<!-- 23 -->
<g id="node24" class="node">
<title>23</title>
<text text-anchor="middle" x="277.5" y="-3.8" font-family="Times,serif" font-size="14.00" fill="#000000">0</text>
</g>
<!-- 22&#45;&gt;23 -->
<g id="edge23" class="edge">
<title>22&#45;&gt;23</title>
<path fill="none" stroke="#000000" d="M277.5,-50.9748C277.5,-44.195 277.5,-33.966 277.5,-25.1331"/>
<polygon fill="#000000" stroke="#000000" points="281.0001,-25.0561 277.5,-15.0561 274.0001,-25.0561 281.0001,-25.0561"/>
</g>
<!-- 25 -->
<g id="node26" class="node">
<title>25</title>
<text text-anchor="middle" x="344.5" y="-54.8" font-family="Times,serif" font-size="14.00" fill="#000000">9</text>
</g>
<!-- 24&#45;&gt;25 -->
<g id="edge25" class="edge">
<title>24&#45;&gt;25</title>
<path fill="none" stroke="#000000" d="M344.5,-101.9748C344.5,-95.195 344.5,-84.966 344.5,-76.1331"/>
<polygon fill="#000000" stroke="#000000" points="348.0001,-76.0561 344.5,-66.0561 341.0001,-76.0561 348.0001,-76.0561"/>
</g>
</g>
</svg>
