<?xml version="1.0" encoding="UTF-8" standalone="no"?>
<!DOCTYPE svg PUBLIC "-//W3C//DTD SVG 1.1//EN"
 "http://www.w3.org/Graphics/SVG/1.1/DTD/svg11.dtd">
<!-- Generated by graphviz version 2.40.1 (20161225.0304)
 -->
<!-- Title: %3 Pages: 1 -->
<svg width="830pt" height="533pt"
 viewBox="0.00 0.00 830.00 533.00" xmlns="http://www.w3.org/2000/svg" xmlns:xlink="http://www.w3.org/1999/xlink">
<g id="graph0" class="graph" transform="scale(1 1) rotate(0) translate(4 529)">
<title>%3</title>
<polygon fill="#ffffff" stroke="transparent" points="-4,4 -4,-529 826,-529 826,4 -4,4"/>
<!-- 0 -->
<g id="node1" class="node">
<title>0</title>
<text text-anchor="middle" x="467.5" y="-513.8" font-family="Times,serif" font-size="14.00" fill="#000000">&lt;start&gt;</text>
</g>
<!-- 1 -->
<g id="node2" class="node">
<title>1</title>
<text text-anchor="middle" x="467.5" y="-462.8" font-family="Times,serif" font-size="14.00" fill="#000000">&lt;expr&gt;</text>
</g>
<!-- 0&#45;&gt;1 -->
<g id="edge1" class="edge">
<title>0&#45;&gt;1</title>
<path fill="none" stroke="#000000" d="M467.5,-509.9748C467.5,-503.195 467.5,-492.966 467.5,-484.1331"/>
<polygon fill="#000000" stroke="#000000" points="471.0001,-484.0561 467.5,-474.0561 464.0001,-484.0561 471.0001,-484.0561"/>
</g>
<!-- 2 -->
<g id="node3" class="node">
<title>2</title>
<text text-anchor="middle" x="330.5" y="-411.8" font-family="Times,serif" font-size="14.00" fill="#000000">&lt;expr&gt;</text>
</g>
<!-- 1&#45;&gt;2 -->
<g id="edge2" class="edge">
<title>1&#45;&gt;2</title>
<path fill="none" stroke="#000000" d="M447.2852,-458.9748C424.3173,-450.4247 386.6138,-436.3891 360.2795,-426.5858"/>
<polygon fill="#000000" stroke="#000000" points="361.3905,-423.2648 350.7978,-423.0561 358.9484,-429.825 361.3905,-423.2648"/>
</g>
<!-- 42 -->
<g id="node43" class="node">
<title>42</title>
<text text-anchor="middle" x="467.5" y="-411.8" font-family="Times,serif" font-size="14.00" fill="#000000"> &#45; </text>
</g>
<!-- 1&#45;&gt;42 -->
<g id="edge42" class="edge">
<title>1&#45;&gt;42</title>
<path fill="none" stroke="#000000" d="M467.5,-458.9748C467.5,-452.195 467.5,-441.966 467.5,-433.1331"/>
<polygon fill="#000000" stroke="#000000" points="471.0001,-433.0561 467.5,-423.0561 464.0001,-433.0561 471.0001,-433.0561"/>
</g>
<!-- 43 -->
<g id="node44" class="node">
<title>43</title>
<text text-anchor="middle" x="651.5" y="-411.8" font-family="Times,serif" font-size="14.00" fill="#000000">&lt;term&gt;</text>
</g>
<!-- 1&#45;&gt;43 -->
<g id="edge43" class="edge">
<title>1&#45;&gt;43</title>
<path fill="none" stroke="#000000" d="M488.2495,-460.7488C520.4653,-451.8194 582.7148,-434.5655 620.3449,-424.1354"/>
<polygon fill="#000000" stroke="#000000" points="621.5584,-427.4311 630.2602,-421.3871 619.6886,-420.6854 621.5584,-427.4311"/>
</g>
<!-- 3 -->
<g id="node4" class="node">
<title>3</title>
<text text-anchor="middle" x="120.5" y="-360.8" font-family="Times,serif" font-size="14.00" fill="#000000">&lt;expr&gt;</text>
</g>
<!-- 2&#45;&gt;3 -->
<g id="edge3" class="edge">
<title>2&#45;&gt;3</title>
<path fill="none" stroke="#000000" d="M309.982,-410.517C272.8929,-401.5097 194.52,-382.4763 151.0889,-371.9287"/>
<polygon fill="#000000" stroke="#000000" points="151.6449,-368.4621 141.1013,-369.5032 149.9928,-375.2644 151.6449,-368.4621"/>
</g>
<!-- 22 -->
<g id="node23" class="node">
<title>22</title>
<text text-anchor="middle" x="307.5" y="-360.8" font-family="Times,serif" font-size="14.00" fill="#000000"> &#45; </text>
</g>
<!-- 2&#45;&gt;22 -->
<g id="edge22" class="edge">
<title>2&#45;&gt;22</title>
<path fill="none" stroke="#000000" d="M327.1063,-407.9748C323.9468,-400.969 319.1264,-390.2803 315.056,-381.2547"/>
<polygon fill="#000000" stroke="#000000" points="318.2093,-379.7331 310.9077,-372.0561 311.8282,-382.6109 318.2093,-379.7331"/>
</g>
<!-- 23 -->
<g id="node24" class="node">
<title>23</title>
<text text-anchor="middle" x="352.5" y="-360.8" font-family="Times,serif" font-size="14.00" fill="#000000">&lt;term&gt;</text>
</g>
<!-- 2&#45;&gt;23 -->
<g id="edge23" class="edge">
<title>2&#45;&gt;23</title>
<path fill="none" stroke="#000000" d="M333.7462,-407.9748C336.7683,-400.969 341.3791,-390.2803 345.2725,-381.2547"/>
<polygon fill="#000000" stroke="#000000" points="348.4933,-382.6246 349.2405,-372.0561 342.0658,-379.8519 348.4933,-382.6246"/>
</g>
<!-- 4 -->
<g id="node5" class="node">
<title>4</title>
<text text-anchor="middle" x="45.5" y="-309.8" font-family="Times,serif" font-size="14.00" fill="#000000">&lt;expr&gt;</text>
</g>
<!-- 3&#45;&gt;4 -->
<g id="edge4" class="edge">
<title>3&#45;&gt;4</title>
<path fill="none" stroke="#000000" d="M109.4335,-356.9748C97.8015,-349.065 79.2655,-336.4606 65.1403,-326.8554"/>
<polygon fill="#000000" stroke="#000000" points="66.8493,-323.785 56.6119,-321.0561 62.9131,-329.5735 66.8493,-323.785"/>
</g>
<!-- 10 -->
<g id="node11" class="node">
<title>10</title>
<text text-anchor="middle" x="97.5" y="-309.8" font-family="Times,serif" font-size="14.00" fill="#000000"> &#45; </text>
</g>
<!-- 3&#45;&gt;10 -->
<g id="edge10" class="edge">
<title>3&#45;&gt;10</title>
<path fill="none" stroke="#000000" d="M117.1063,-356.9748C113.9468,-349.969 109.1264,-339.2803 105.056,-330.2547"/>
<polygon fill="#000000" stroke="#000000" points="108.2093,-328.7331 100.9077,-321.0561 101.8282,-331.6109 108.2093,-328.7331"/>
</g>
<!-- 11 -->
<g id="node12" class="node">
<title>11</title>
<text text-anchor="middle" x="142.5" y="-309.8" font-family="Times,serif" font-size="14.00" fill="#000000">&lt;term&gt;</text>
</g>
<!-- 3&#45;&gt;11 -->
<g id="edge11" class="edge">
<title>3&#45;&gt;11</title>
<path fill="none" stroke="#000000" d="M123.7462,-356.9748C126.7683,-349.969 131.3791,-339.2803 135.2725,-330.2547"/>
<polygon fill="#000000" stroke="#000000" points="138.4933,-331.6246 139.2405,-321.0561 132.0658,-328.8519 138.4933,-331.6246"/>
</g>
<!-- 5 -->
<g id="node6" class="node">
<title>5</title>
<text text-anchor="middle" x="35.5" y="-258.8" font-family="Times,serif" font-size="14.00" fill="#000000">&lt;term&gt;</text>
</g>
<!-- 4&#45;&gt;5 -->
<g id="edge5" class="edge">
<title>4&#45;&gt;5</title>
<path fill="none" stroke="#000000" d="M44.0245,-305.9748C42.6951,-299.195 40.6894,-288.966 38.9575,-280.1331"/>
<polygon fill="#000000" stroke="#000000" points="42.3404,-279.1958 36.9816,-270.0561 35.4712,-280.5427 42.3404,-279.1958"/>
</g>
<!-- 6 -->
<g id="node7" class="node">
<title>6</title>
<text text-anchor="middle" x="30.5" y="-207.8" font-family="Times,serif" font-size="14.00" fill="#000000">&lt;factor&gt;</text>
</g>
<!-- 5&#45;&gt;6 -->
<g id="edge6" class="edge">
<title>5&#45;&gt;6</title>
<path fill="none" stroke="#000000" d="M34.7622,-254.9748C34.0975,-248.195 33.0947,-237.966 32.2287,-229.1331"/>
<polygon fill="#000000" stroke="#000000" points="35.6999,-228.6669 31.2408,-219.0561 28.7333,-229.3499 35.6999,-228.6669"/>
</g>
<!-- 7 -->
<g id="node8" class="node">
<title>7</title>
<text text-anchor="middle" x="27.5" y="-156.8" font-family="Times,serif" font-size="14.00" fill="#000000">&lt;integer&gt;</text>
</g>
<!-- 6&#45;&gt;7 -->
<g id="edge7" class="edge">
<title>6&#45;&gt;7</title>
<path fill="none" stroke="#000000" d="M30.0573,-203.9748C29.6585,-197.195 29.0568,-186.966 28.5372,-178.1331"/>
<polygon fill="#000000" stroke="#000000" points="32.0258,-177.8333 27.9445,-168.0561 25.0378,-178.2444 32.0258,-177.8333"/>
</g>
<!-- 8 -->
<g id="node9" class="node">
<title>8</title>
<text text-anchor="middle" x="27.5" y="-105.8" font-family="Times,serif" font-size="14.00" fill="#000000">&lt;digit&gt;</text>
</g>
<!-- 7&#45;&gt;8 -->
<g id="edge8" class="edge">
<title>7&#45;&gt;8</title>
<path fill="none" stroke="#000000" d="M27.5,-152.9748C27.5,-146.195 27.5,-135.966 27.5,-127.1331"/>
<polygon fill="#000000" stroke="#000000" points="31.0001,-127.0561 27.5,-117.0561 24.0001,-127.0561 31.0001,-127.0561"/>
</g>
<!-- 9 -->
<g id="node10" class="node">
<title>9</title>
<text text-anchor="middle" x="27.5" y="-54.8" font-family="Times,serif" font-size="14.00" fill="#000000">0</text>
</g>
<!-- 8&#45;&gt;9 -->
<g id="edge9" class="edge">
<title>8&#45;&gt;9</title>
<path fill="none" stroke="#000000" d="M27.5,-101.9748C27.5,-95.195 27.5,-84.966 27.5,-76.1331"/>
<polygon fill="#000000" stroke="#000000" points="31.0001,-76.0561 27.5,-66.0561 24.0001,-76.0561 31.0001,-76.0561"/>
</g>
<!-- 12 -->
<g id="node13" class="node">
<title>12</title>
<text text-anchor="middle" x="97.5" y="-258.8" font-family="Times,serif" font-size="14.00" fill="#000000">&lt;term&gt;</text>
</g>
<!-- 11&#45;&gt;12 -->
<g id="edge12" class="edge">
<title>11&#45;&gt;12</title>
<path fill="none" stroke="#000000" d="M135.8601,-305.9748C129.3462,-298.5923 119.2238,-287.1203 111.0125,-277.8142"/>
<polygon fill="#000000" stroke="#000000" points="113.4078,-275.2388 104.1671,-270.0561 108.159,-279.8702 113.4078,-275.2388"/>
</g>
<!-- 17 -->
<g id="node18" class="node">
<title>17</title>
<text text-anchor="middle" x="142.5" y="-258.8" font-family="Times,serif" font-size="14.00" fill="#000000"> / </text>
</g>
<!-- 11&#45;&gt;17 -->
<g id="edge17" class="edge">
<title>11&#45;&gt;17</title>
<path fill="none" stroke="#000000" d="M142.5,-305.9748C142.5,-299.195 142.5,-288.966 142.5,-280.1331"/>
<polygon fill="#000000" stroke="#000000" points="146.0001,-280.0561 142.5,-270.0561 139.0001,-280.0561 146.0001,-280.0561"/>
</g>
<!-- 18 -->
<g id="node19" class="node">
<title>18</title>
<text text-anchor="middle" x="190.5" y="-258.8" font-family="Times,serif" font-size="14.00" fill="#000000">&lt;factor&gt;</text>
</g>
<!-- 11&#45;&gt;18 -->
<g id="edge18" class="edge">
<title>11&#45;&gt;18</title>
<path fill="none" stroke="#000000" d="M149.5826,-305.9748C156.6017,-298.517 167.5487,-286.8857 176.3541,-277.53"/>
<polygon fill="#000000" stroke="#000000" points="179.0834,-279.7369 183.3884,-270.0561 173.986,-274.9393 179.0834,-279.7369"/>
</g>
<!-- 13 -->
<g id="node14" class="node">
<title>13</title>
<text text-anchor="middle" x="99.5" y="-207.8" font-family="Times,serif" font-size="14.00" fill="#000000">&lt;factor&gt;</text>
</g>
<!-- 12&#45;&gt;13 -->
<g id="edge13" class="edge">
<title>12&#45;&gt;13</title>
<path fill="none" stroke="#000000" d="M97.7951,-254.9748C98.061,-248.195 98.4621,-237.966 98.8085,-229.1331"/>
<polygon fill="#000000" stroke="#000000" points="102.309,-229.1856 99.2037,-219.0561 95.3144,-228.9112 102.309,-229.1856"/>
</g>
<!-- 14 -->
<g id="node15" class="node">
<title>14</title>
<text text-anchor="middle" x="100.5" y="-156.8" font-family="Times,serif" font-size="14.00" fill="#000000">&lt;integer&gt;</text>
</g>
<!-- 13&#45;&gt;14 -->
<g id="edge14" class="edge">
<title>13&#45;&gt;14</title>
<path fill="none" stroke="#000000" d="M99.6476,-203.9748C99.7805,-197.195 99.9811,-186.966 100.1543,-178.1331"/>
<polygon fill="#000000" stroke="#000000" points="103.655,-178.1228 100.3518,-168.0561 96.6564,-177.9855 103.655,-178.1228"/>
</g>
<!-- 15 -->
<g id="node16" class="node">
<title>15</title>
<text text-anchor="middle" x="100.5" y="-105.8" font-family="Times,serif" font-size="14.00" fill="#000000">&lt;digit&gt;</text>
</g>
<!-- 14&#45;&gt;15 -->
<g id="edge15" class="edge">
<title>14&#45;&gt;15</title>
<path fill="none" stroke="#000000" d="M100.5,-152.9748C100.5,-146.195 100.5,-135.966 100.5,-127.1331"/>
<polygon fill="#000000" stroke="#000000" points="104.0001,-127.0561 100.5,-117.0561 97.0001,-127.0561 104.0001,-127.0561"/>
</g>
<!-- 16 -->
<g id="node17" class="node">
<title>16</title>
<text text-anchor="middle" x="100.5" y="-54.8" font-family="Times,serif" font-size="14.00" fill="#000000">9</text>
</g>
<!-- 15&#45;&gt;16 -->
<g id="edge16" class="edge">
<title>15&#45;&gt;16</title>
<path fill="none" stroke="#000000" d="M100.5,-101.9748C100.5,-95.195 100.5,-84.966 100.5,-76.1331"/>
<polygon fill="#000000" stroke="#000000" points="104.0001,-76.0561 100.5,-66.0561 97.0001,-76.0561 104.0001,-76.0561"/>
</g>
<!-- 19 -->
<g id="node20" class="node">
<title>19</title>
<text text-anchor="middle" x="188.5" y="-207.8" font-family="Times,serif" font-size="14.00" fill="#000000">&lt;integer&gt;</text>
</g>
<!-- 18&#45;&gt;19 -->
<g id="edge19" class="edge">
<title>18&#45;&gt;19</title>
<path fill="none" stroke="#000000" d="M190.2049,-254.9748C189.939,-248.195 189.5379,-237.966 189.1915,-229.1331"/>
<polygon fill="#000000" stroke="#000000" points="192.6856,-228.9112 188.7963,-219.0561 185.691,-229.1856 192.6856,-228.9112"/>
</g>
<!-- 20 -->
<g id="node21" class="node">
<title>20</title>
<text text-anchor="middle" x="188.5" y="-156.8" font-family="Times,serif" font-size="14.00" fill="#000000">&lt;digit&gt;</text>
</g>
<!-- 19&#45;&gt;20 -->
<g id="edge20" class="edge">
<title>19&#45;&gt;20</title>
<path fill="none" stroke="#000000" d="M188.5,-203.9748C188.5,-197.195 188.5,-186.966 188.5,-178.1331"/>
<polygon fill="#000000" stroke="#000000" points="192.0001,-178.0561 188.5,-168.0561 185.0001,-178.0561 192.0001,-178.0561"/>
</g>
<!-- 21 -->
<g id="node22" class="node">
<title>21</title>
<text text-anchor="middle" x="188.5" y="-105.8" font-family="Times,serif" font-size="14.00" fill="#000000">7</text>
</g>
<!-- 20&#45;&gt;21 -->
<g id="edge21" class="edge">
<title>20&#45;&gt;21</title>
<path fill="none" stroke="#000000" d="M188.5,-152.9748C188.5,-146.195 188.5,-135.966 188.5,-127.1331"/>
<polygon fill="#000000" stroke="#000000" points="192.0001,-127.0561 188.5,-117.0561 185.0001,-127.0561 192.0001,-127.0561"/>
</g>
<!-- 24 -->
<g id="node25" class="node">
<title>24</title>
<text text-anchor="middle" x="305.5" y="-309.8" font-family="Times,serif" font-size="14.00" fill="#000000">&lt;term&gt;</text>
</g>
<!-- 23&#45;&gt;24 -->
<g id="edge24" class="edge">
<title>23&#45;&gt;24</title>
<path fill="none" stroke="#000000" d="M345.565,-356.9748C338.6921,-349.517 327.9731,-337.8857 319.3512,-328.53"/>
<polygon fill="#000000" stroke="#000000" points="321.8141,-326.0378 312.4635,-321.0561 316.6666,-330.7816 321.8141,-326.0378"/>
</g>
<!-- 35 -->
<g id="node36" class="node">
<title>35</title>
<text text-anchor="middle" x="352.5" y="-309.8" font-family="Times,serif" font-size="14.00" fill="#000000"> / </text>
</g>
<!-- 23&#45;&gt;35 -->
<g id="edge35" class="edge">
<title>23&#45;&gt;35</title>
<path fill="none" stroke="#000000" d="M352.5,-356.9748C352.5,-350.195 352.5,-339.966 352.5,-331.1331"/>
<polygon fill="#000000" stroke="#000000" points="356.0001,-331.0561 352.5,-321.0561 349.0001,-331.0561 356.0001,-331.0561"/>
</g>
<!-- 36 -->
<g id="node37" class="node">
<title>36</title>
<text text-anchor="middle" x="401.5" y="-309.8" font-family="Times,serif" font-size="14.00" fill="#000000">&lt;factor&gt;</text>
</g>
<!-- 23&#45;&gt;36 -->
<g id="edge36" class="edge">
<title>23&#45;&gt;36</title>
<path fill="none" stroke="#000000" d="M359.7301,-356.9748C366.8954,-349.517 378.0706,-337.8857 387.0594,-328.53"/>
<polygon fill="#000000" stroke="#000000" points="389.8358,-330.6921 394.2402,-321.0561 384.7881,-325.8423 389.8358,-330.6921"/>
</g>
<!-- 25 -->
<g id="node26" class="node">
<title>25</title>
<text text-anchor="middle" x="257.5" y="-258.8" font-family="Times,serif" font-size="14.00" fill="#000000">&lt;term&gt;</text>
</g>
<!-- 24&#45;&gt;25 -->
<g id="edge25" class="edge">
<title>24&#45;&gt;25</title>
<path fill="none" stroke="#000000" d="M298.4174,-305.9748C291.3983,-298.517 280.4513,-286.8857 271.6459,-277.53"/>
<polygon fill="#000000" stroke="#000000" points="274.014,-274.9393 264.6116,-270.0561 268.9166,-279.7369 274.014,-274.9393"/>
</g>
<!-- 30 -->
<g id="node31" class="node">
<title>30</title>
<text text-anchor="middle" x="304.5" y="-258.8" font-family="Times,serif" font-size="14.00" fill="#000000"> * </text>
</g>
<!-- 24&#45;&gt;30 -->
<g id="edge30" class="edge">
<title>24&#45;&gt;30</title>
<path fill="none" stroke="#000000" d="M305.3524,-305.9748C305.2195,-299.195 305.0189,-288.966 304.8457,-280.1331"/>
<polygon fill="#000000" stroke="#000000" points="308.3436,-279.9855 304.6482,-270.0561 301.345,-280.1228 308.3436,-279.9855"/>
</g>
<!-- 31 -->
<g id="node32" class="node">
<title>31</title>
<text text-anchor="middle" x="354.5" y="-258.8" font-family="Times,serif" font-size="14.00" fill="#000000">&lt;factor&gt;</text>
</g>
<!-- 24&#45;&gt;31 -->
<g id="edge31" class="edge">
<title>24&#45;&gt;31</title>
<path fill="none" stroke="#000000" d="M312.7301,-305.9748C319.8954,-298.517 331.0706,-286.8857 340.0594,-277.53"/>
<polygon fill="#000000" stroke="#000000" points="342.8358,-279.6921 347.2402,-270.0561 337.7881,-274.8423 342.8358,-279.6921"/>
</g>
<!-- 26 -->
<g id="node27" class="node">
<title>26</title>
<text text-anchor="middle" x="258.5" y="-207.8" font-family="Times,serif" font-size="14.00" fill="#000000">&lt;factor&gt;</text>
</g>
<!-- 25&#45;&gt;26 -->
<g id="edge26" class="edge">
<title>25&#45;&gt;26</title>
<path fill="none" stroke="#000000" d="M257.6476,-254.9748C257.7805,-248.195 257.9811,-237.966 258.1543,-229.1331"/>
<polygon fill="#000000" stroke="#000000" points="261.655,-229.1228 258.3518,-219.0561 254.6564,-228.9855 261.655,-229.1228"/>
</g>
<!-- 27 -->
<g id="node28" class="node">
<title>27</title>
<text text-anchor="middle" x="258.5" y="-156.8" font-family="Times,serif" font-size="14.00" fill="#000000">&lt;integer&gt;</text>
</g>
<!-- 26&#45;&gt;27 -->
<g id="edge27" class="edge">
<title>26&#45;&gt;27</title>
<path fill="none" stroke="#000000" d="M258.5,-203.9748C258.5,-197.195 258.5,-186.966 258.5,-178.1331"/>
<polygon fill="#000000" stroke="#000000" points="262.0001,-178.0561 258.5,-168.0561 255.0001,-178.0561 262.0001,-178.0561"/>
</g>
<!-- 28 -->
<g id="node29" class="node">
<title>28</title>
<text text-anchor="middle" x="258.5" y="-105.8" font-family="Times,serif" font-size="14.00" fill="#000000">&lt;digit&gt;</text>
</g>
<!-- 27&#45;&gt;28 -->
<g id="edge28" class="edge">
<title>27&#45;&gt;28</title>
<path fill="none" stroke="#000000" d="M258.5,-152.9748C258.5,-146.195 258.5,-135.966 258.5,-127.1331"/>
<polygon fill="#000000" stroke="#000000" points="262.0001,-127.0561 258.5,-117.0561 255.0001,-127.0561 262.0001,-127.0561"/>
</g>
<!-- 29 -->
<g id="node30" class="node">
<title>29</title>
<text text-anchor="middle" x="258.5" y="-54.8" font-family="Times,serif" font-size="14.00" fill="#000000">3</text>
</g>
<!-- 28&#45;&gt;29 -->
<g id="edge29" class="edge">
<title>28&#45;&gt;29</title>
<path fill="none" stroke="#000000" d="M258.5,-101.9748C258.5,-95.195 258.5,-84.966 258.5,-76.1331"/>
<polygon fill="#000000" stroke="#000000" points="262.0001,-76.0561 258.5,-66.0561 255.0001,-76.0561 262.0001,-76.0561"/>
</g>
<!-- 32 -->
<g id="node33" class="node">
<title>32</title>
<text text-anchor="middle" x="354.5" y="-207.8" font-family="Times,serif" font-size="14.00" fill="#000000">&lt;integer&gt;</text>
</g>
<!-- 31&#45;&gt;32 -->
<g id="edge32" class="edge">
<title>31&#45;&gt;32</title>
<path fill="none" stroke="#000000" d="M354.5,-254.9748C354.5,-248.195 354.5,-237.966 354.5,-229.1331"/>
<polygon fill="#000000" stroke="#000000" points="358.0001,-229.0561 354.5,-219.0561 351.0001,-229.0561 358.0001,-229.0561"/>
</g>
<!-- 33 -->
<g id="node34" class="node">
<title>33</title>
<text text-anchor="middle" x="354.5" y="-156.8" font-family="Times,serif" font-size="14.00" fill="#000000">&lt;digit&gt;</text>
</g>
<!-- 32&#45;&gt;33 -->
<g id="edge33" class="edge">
<title>32&#45;&gt;33</title>
<path fill="none" stroke="#000000" d="M354.5,-203.9748C354.5,-197.195 354.5,-186.966 354.5,-178.1331"/>
<polygon fill="#000000" stroke="#000000" points="358.0001,-178.0561 354.5,-168.0561 351.0001,-178.0561 358.0001,-178.0561"/>
</g>
<!-- 34 -->
<g id="node35" class="node">
<title>34</title>
<text text-anchor="middle" x="354.5" y="-105.8" font-family="Times,serif" font-size="14.00" fill="#000000">3</text>
</g>
<!-- 33&#45;&gt;34 -->
<g id="edge34" class="edge">
<title>33&#45;&gt;34</title>
<path fill="none" stroke="#000000" d="M354.5,-152.9748C354.5,-146.195 354.5,-135.966 354.5,-127.1331"/>
<polygon fill="#000000" stroke="#000000" points="358.0001,-127.0561 354.5,-117.0561 351.0001,-127.0561 358.0001,-127.0561"/>
</g>
<!-- 37 -->
<g id="node38" class="node">
<title>37</title>
<text text-anchor="middle" x="401.5" y="-258.8" font-family="Times,serif" font-size="14.00" fill="#000000">+</text>
</g>
<!-- 36&#45;&gt;37 -->
<g id="edge37" class="edge">
<title>36&#45;&gt;37</title>
<path fill="none" stroke="#000000" d="M401.5,-305.9748C401.5,-299.195 401.5,-288.966 401.5,-280.1331"/>
<polygon fill="#000000" stroke="#000000" points="405.0001,-280.0561 401.5,-270.0561 398.0001,-280.0561 405.0001,-280.0561"/>
</g>
<!-- 38 -->
<g id="node39" class="node">
<title>38</title>
<text text-anchor="middle" x="448.5" y="-258.8" font-family="Times,serif" font-size="14.00" fill="#000000">&lt;factor&gt;</text>
</g>
<!-- 36&#45;&gt;38 -->
<g id="edge38" class="edge">
<title>36&#45;&gt;38</title>
<path fill="none" stroke="#000000" d="M408.435,-305.9748C415.3079,-298.517 426.0269,-286.8857 434.6488,-277.53"/>
<polygon fill="#000000" stroke="#000000" points="437.3334,-279.7816 441.5365,-270.0561 432.1859,-275.0378 437.3334,-279.7816"/>
</g>
<!-- 39 -->
<g id="node40" class="node">
<title>39</title>
<text text-anchor="middle" x="447.5" y="-207.8" font-family="Times,serif" font-size="14.00" fill="#000000">&lt;integer&gt;</text>
</g>
<!-- 38&#45;&gt;39 -->
<g id="edge39" class="edge">
<title>38&#45;&gt;39</title>
<path fill="none" stroke="#000000" d="M448.3524,-254.9748C448.2195,-248.195 448.0189,-237.966 447.8457,-229.1331"/>
<polygon fill="#000000" stroke="#000000" points="451.3436,-228.9855 447.6482,-219.0561 444.345,-229.1228 451.3436,-228.9855"/>
</g>
<!-- 40 -->
<g id="node41" class="node">
<title>40</title>
<text text-anchor="middle" x="447.5" y="-156.8" font-family="Times,serif" font-size="14.00" fill="#000000">&lt;digit&gt;</text>
</g>
<!-- 39&#45;&gt;40 -->
<g id="edge40" class="edge">
<title>39&#45;&gt;40</title>
<path fill="none" stroke="#000000" d="M447.5,-203.9748C447.5,-197.195 447.5,-186.966 447.5,-178.1331"/>
<polygon fill="#000000" stroke="#000000" points="451.0001,-178.0561 447.5,-168.0561 444.0001,-178.0561 451.0001,-178.0561"/>
</g>
<!-- 41 -->
<g id="node42" class="node">
<title>41</title>
<text text-anchor="middle" x="447.5" y="-105.8" font-family="Times,serif" font-size="14.00" fill="#000000">1</text>
</g>
<!-- 40&#45;&gt;41 -->
<g id="edge41" class="edge">
<title>40&#45;&gt;41</title>
<path fill="none" stroke="#000000" d="M447.5,-152.9748C447.5,-146.195 447.5,-135.966 447.5,-127.1331"/>
<polygon fill="#000000" stroke="#000000" points="451.0001,-127.0561 447.5,-117.0561 444.0001,-127.0561 451.0001,-127.0561"/>
</g>
<!-- 44 -->
<g id="node45" class="node">
<title>44</title>
<text text-anchor="middle" x="629.5" y="-360.8" font-family="Times,serif" font-size="14.00" fill="#000000">&lt;term&gt;</text>
</g>
<!-- 43&#45;&gt;44 -->
<g id="edge44" class="edge">
<title>43&#45;&gt;44</title>
<path fill="none" stroke="#000000" d="M648.2538,-407.9748C645.2317,-400.969 640.6209,-390.2803 636.7275,-381.2547"/>
<polygon fill="#000000" stroke="#000000" points="639.9342,-379.8519 632.7595,-372.0561 633.5067,-382.6246 639.9342,-379.8519"/>
</g>
<!-- 66 -->
<g id="node67" class="node">
<title>66</title>
<text text-anchor="middle" x="674.5" y="-360.8" font-family="Times,serif" font-size="14.00" fill="#000000"> / </text>
</g>
<!-- 43&#45;&gt;66 -->
<g id="edge66" class="edge">
<title>43&#45;&gt;66</title>
<path fill="none" stroke="#000000" d="M654.8937,-407.9748C658.0532,-400.969 662.8736,-390.2803 666.944,-381.2547"/>
<polygon fill="#000000" stroke="#000000" points="670.1718,-382.6109 671.0923,-372.0561 663.7907,-379.7331 670.1718,-382.6109"/>
</g>
<!-- 67 -->
<g id="node68" class="node">
<title>67</title>
<text text-anchor="middle" x="757.5" y="-360.8" font-family="Times,serif" font-size="14.00" fill="#000000">&lt;factor&gt;</text>
</g>
<!-- 43&#45;&gt;67 -->
<g id="edge67" class="edge">
<title>43&#45;&gt;67</title>
<path fill="none" stroke="#000000" d="M667.1407,-407.9748C684.3634,-399.6883 712.2952,-386.2495 732.5495,-376.5045"/>
<polygon fill="#000000" stroke="#000000" points="734.3014,-379.5457 741.7952,-372.0561 731.2664,-373.2378 734.3014,-379.5457"/>
</g>
<!-- 45 -->
<g id="node46" class="node">
<title>45</title>
<text text-anchor="middle" x="564.5" y="-309.8" font-family="Times,serif" font-size="14.00" fill="#000000">&lt;term&gt;</text>
</g>
<!-- 44&#45;&gt;45 -->
<g id="edge45" class="edge">
<title>44&#45;&gt;45</title>
<path fill="none" stroke="#000000" d="M619.909,-356.9748C610.02,-349.2157 594.3733,-336.939 582.2253,-327.4075"/>
<polygon fill="#000000" stroke="#000000" points="584.1582,-324.4754 574.1303,-321.0561 579.8372,-329.9826 584.1582,-324.4754"/>
</g>
<!-- 56 -->
<g id="node57" class="node">
<title>56</title>
<text text-anchor="middle" x="629.5" y="-309.8" font-family="Times,serif" font-size="14.00" fill="#000000"> * </text>
</g>
<!-- 44&#45;&gt;56 -->
<g id="edge56" class="edge">
<title>44&#45;&gt;56</title>
<path fill="none" stroke="#000000" d="M629.5,-356.9748C629.5,-350.195 629.5,-339.966 629.5,-331.1331"/>
<polygon fill="#000000" stroke="#000000" points="633.0001,-331.0561 629.5,-321.0561 626.0001,-331.0561 633.0001,-331.0561"/>
</g>
<!-- 57 -->
<g id="node58" class="node">
<title>57</title>
<text text-anchor="middle" x="688.5" y="-309.8" font-family="Times,serif" font-size="14.00" fill="#000000">&lt;factor&gt;</text>
</g>
<!-- 44&#45;&gt;57 -->
<g id="edge57" class="edge">
<title>44&#45;&gt;57</title>
<path fill="none" stroke="#000000" d="M638.2057,-356.9748C647.0947,-349.291 661.109,-337.177 672.0889,-327.6859"/>
<polygon fill="#000000" stroke="#000000" points="674.4821,-330.2435 679.7586,-321.0561 669.9044,-324.9478 674.4821,-330.2435"/>
</g>
<!-- 46 -->
<g id="node47" class="node">
<title>46</title>
<text text-anchor="middle" x="515.5" y="-258.8" font-family="Times,serif" font-size="14.00" fill="#000000">&lt;term&gt;</text>
</g>
<!-- 45&#45;&gt;46 -->
<g id="edge46" class="edge">
<title>45&#45;&gt;46</title>
<path fill="none" stroke="#000000" d="M557.2699,-305.9748C550.1046,-298.517 538.9294,-286.8857 529.9406,-277.53"/>
<polygon fill="#000000" stroke="#000000" points="532.2119,-274.8423 522.7598,-270.0561 527.1642,-279.6921 532.2119,-274.8423"/>
</g>
<!-- 51 -->
<g id="node52" class="node">
<title>51</title>
<text text-anchor="middle" x="562.5" y="-258.8" font-family="Times,serif" font-size="14.00" fill="#000000"> * </text>
</g>
<!-- 45&#45;&gt;51 -->
<g id="edge51" class="edge">
<title>45&#45;&gt;51</title>
<path fill="none" stroke="#000000" d="M564.2049,-305.9748C563.939,-299.195 563.5379,-288.966 563.1915,-280.1331"/>
<polygon fill="#000000" stroke="#000000" points="566.6856,-279.9112 562.7963,-270.0561 559.691,-280.1856 566.6856,-279.9112"/>
</g>
<!-- 52 -->
<g id="node53" class="node">
<title>52</title>
<text text-anchor="middle" x="612.5" y="-258.8" font-family="Times,serif" font-size="14.00" fill="#000000">&lt;factor&gt;</text>
</g>
<!-- 45&#45;&gt;52 -->
<g id="edge52" class="edge">
<title>45&#45;&gt;52</title>
<path fill="none" stroke="#000000" d="M571.5826,-305.9748C578.6017,-298.517 589.5487,-286.8857 598.3541,-277.53"/>
<polygon fill="#000000" stroke="#000000" points="601.0834,-279.7369 605.3884,-270.0561 595.986,-274.9393 601.0834,-279.7369"/>
</g>
<!-- 47 -->
<g id="node48" class="node">
<title>47</title>
<text text-anchor="middle" x="517.5" y="-207.8" font-family="Times,serif" font-size="14.00" fill="#000000">&lt;factor&gt;</text>
</g>
<!-- 46&#45;&gt;47 -->
<g id="edge47" class="edge">
<title>46&#45;&gt;47</title>
<path fill="none" stroke="#000000" d="M515.7951,-254.9748C516.061,-248.195 516.4621,-237.966 516.8085,-229.1331"/>
<polygon fill="#000000" stroke="#000000" points="520.309,-229.1856 517.2037,-219.0561 513.3144,-228.9112 520.309,-229.1856"/>
</g>
<!-- 48 -->
<g id="node49" class="node">
<title>48</title>
<text text-anchor="middle" x="517.5" y="-156.8" font-family="Times,serif" font-size="14.00" fill="#000000">&lt;integer&gt;</text>
</g>
<!-- 47&#45;&gt;48 -->
<g id="edge48" class="edge">
<title>47&#45;&gt;48</title>
<path fill="none" stroke="#000000" d="M517.5,-203.9748C517.5,-197.195 517.5,-186.966 517.5,-178.1331"/>
<polygon fill="#000000" stroke="#000000" points="521.0001,-178.0561 517.5,-168.0561 514.0001,-178.0561 521.0001,-178.0561"/>
</g>
<!-- 49 -->
<g id="node50" class="node">
<title>49</title>
<text text-anchor="middle" x="517.5" y="-105.8" font-family="Times,serif" font-size="14.00" fill="#000000">&lt;digit&gt;</text>
</g>
<!-- 48&#45;&gt;49 -->
<g id="edge49" class="edge">
<title>48&#45;&gt;49</title>
<path fill="none" stroke="#000000" d="M517.5,-152.9748C517.5,-146.195 517.5,-135.966 517.5,-127.1331"/>
<polygon fill="#000000" stroke="#000000" points="521.0001,-127.0561 517.5,-117.0561 514.0001,-127.0561 521.0001,-127.0561"/>
</g>
<!-- 50 -->
<g id="node51" class="node">
<title>50</title>
<text text-anchor="middle" x="517.5" y="-54.8" font-family="Times,serif" font-size="14.00" fill="#000000">4</text>
</g>
<!-- 49&#45;&gt;50 -->
<g id="edge50" class="edge">
<title>49&#45;&gt;50</title>
<path fill="none" stroke="#000000" d="M517.5,-101.9748C517.5,-95.195 517.5,-84.966 517.5,-76.1331"/>
<polygon fill="#000000" stroke="#000000" points="521.0001,-76.0561 517.5,-66.0561 514.0001,-76.0561 521.0001,-76.0561"/>
</g>
<!-- 53 -->
<g id="node54" class="node">
<title>53</title>
<text text-anchor="middle" x="612.5" y="-207.8" font-family="Times,serif" font-size="14.00" fill="#000000">&lt;integer&gt;</text>
</g>
<!-- 52&#45;&gt;53 -->
<g id="edge53" class="edge">
<title>52&#45;&gt;53</title>
<path fill="none" stroke="#000000" d="M612.5,-254.9748C612.5,-248.195 612.5,-237.966 612.5,-229.1331"/>
<polygon fill="#000000" stroke="#000000" points="616.0001,-229.0561 612.5,-219.0561 609.0001,-229.0561 616.0001,-229.0561"/>
</g>
<!-- 54 -->
<g id="node55" class="node">
<title>54</title>
<text text-anchor="middle" x="612.5" y="-156.8" font-family="Times,serif" font-size="14.00" fill="#000000">&lt;digit&gt;</text>
</g>
<!-- 53&#45;&gt;54 -->
<g id="edge54" class="edge">
<title>53&#45;&gt;54</title>
<path fill="none" stroke="#000000" d="M612.5,-203.9748C612.5,-197.195 612.5,-186.966 612.5,-178.1331"/>
<polygon fill="#000000" stroke="#000000" points="616.0001,-178.0561 612.5,-168.0561 609.0001,-178.0561 616.0001,-178.0561"/>
</g>
<!-- 55 -->
<g id="node56" class="node">
<title>55</title>
<text text-anchor="middle" x="612.5" y="-105.8" font-family="Times,serif" font-size="14.00" fill="#000000">8</text>
</g>
<!-- 54&#45;&gt;55 -->
<g id="edge55" class="edge">
<title>54&#45;&gt;55</title>
<path fill="none" stroke="#000000" d="M612.5,-152.9748C612.5,-146.195 612.5,-135.966 612.5,-127.1331"/>
<polygon fill="#000000" stroke="#000000" points="616.0001,-127.0561 612.5,-117.0561 609.0001,-127.0561 616.0001,-127.0561"/>
</g>
<!-- 58 -->
<g id="node59" class="node">
<title>58</title>
<text text-anchor="middle" x="657.5" y="-258.8" font-family="Times,serif" font-size="14.00" fill="#000000">(</text>
</g>
<!-- 57&#45;&gt;58 -->
<g id="edge58" class="edge">
<title>57&#45;&gt;58</title>
<path fill="none" stroke="#000000" d="M683.9258,-305.9748C679.0258,-297.9135 671.1618,-284.9759 665.2845,-275.3068"/>
<polygon fill="#000000" stroke="#000000" points="668.2714,-273.4823 660.0864,-266.7551 662.2898,-277.1183 668.2714,-273.4823"/>
</g>
<!-- 59 -->
<g id="node60" class="node">
<title>59</title>
<text text-anchor="middle" x="698.5" y="-258.8" font-family="Times,serif" font-size="14.00" fill="#000000">&lt;expr&gt;</text>
</g>
<!-- 57&#45;&gt;59 -->
<g id="edge59" class="edge">
<title>57&#45;&gt;59</title>
<path fill="none" stroke="#000000" d="M689.9755,-305.9748C691.3049,-299.195 693.3106,-288.966 695.0425,-280.1331"/>
<polygon fill="#000000" stroke="#000000" points="698.5288,-280.5427 697.0184,-270.0561 691.6596,-279.1958 698.5288,-280.5427"/>
</g>
<!-- 65 -->
<g id="node66" class="node">
<title>65</title>
<text text-anchor="middle" x="739.5" y="-258.8" font-family="Times,serif" font-size="14.00" fill="#000000">)</text>
</g>
<!-- 57&#45;&gt;65 -->
<g id="edge65" class="edge">
<title>57&#45;&gt;65</title>
<path fill="none" stroke="#000000" d="M696.0252,-305.9748C704.8502,-297.1498 719.5192,-282.4808 729.3464,-272.6536"/>
<polygon fill="#000000" stroke="#000000" points="732.1074,-274.8424 736.7036,-265.2964 727.1576,-269.8926 732.1074,-274.8424"/>
</g>
<!-- 60 -->
<g id="node61" class="node">
<title>60</title>
<text text-anchor="middle" x="698.5" y="-207.8" font-family="Times,serif" font-size="14.00" fill="#000000">&lt;term&gt;</text>
</g>
<!-- 59&#45;&gt;60 -->
<g id="edge60" class="edge">
<title>59&#45;&gt;60</title>
<path fill="none" stroke="#000000" d="M698.5,-254.9748C698.5,-248.195 698.5,-237.966 698.5,-229.1331"/>
<polygon fill="#000000" stroke="#000000" points="702.0001,-229.0561 698.5,-219.0561 695.0001,-229.0561 702.0001,-229.0561"/>
</g>
<!-- 61 -->
<g id="node62" class="node">
<title>61</title>
<text text-anchor="middle" x="698.5" y="-156.8" font-family="Times,serif" font-size="14.00" fill="#000000">&lt;factor&gt;</text>
</g>
<!-- 60&#45;&gt;61 -->
<g id="edge61" class="edge">
<title>60&#45;&gt;61</title>
<path fill="none" stroke="#000000" d="M698.5,-203.9748C698.5,-197.195 698.5,-186.966 698.5,-178.1331"/>
<polygon fill="#000000" stroke="#000000" points="702.0001,-178.0561 698.5,-168.0561 695.0001,-178.0561 702.0001,-178.0561"/>
</g>
<!-- 62 -->
<g id="node63" class="node">
<title>62</title>
<text text-anchor="middle" x="698.5" y="-105.8" font-family="Times,serif" font-size="14.00" fill="#000000">&lt;integer&gt;</text>
</g>
<!-- 61&#45;&gt;62 -->
<g id="edge62" class="edge">
<title>61&#45;&gt;62</title>
<path fill="none" stroke="#000000" d="M698.5,-152.9748C698.5,-146.195 698.5,-135.966 698.5,-127.1331"/>
<polygon fill="#000000" stroke="#000000" points="702.0001,-127.0561 698.5,-117.0561 695.0001,-127.0561 702.0001,-127.0561"/>
</g>
<!-- 63 -->
<g id="node64" class="node">
<title>63</title>
<text text-anchor="middle" x="698.5" y="-54.8" font-family="Times,serif" font-size="14.00" fill="#000000">&lt;digit&gt;</text>
</g>
<!-- 62&#45;&gt;63 -->
<g id="edge63" class="edge">
<title>62&#45;&gt;63</title>
<path fill="none" stroke="#000000" d="M698.5,-101.9748C698.5,-95.195 698.5,-84.966 698.5,-76.1331"/>
<polygon fill="#000000" stroke="#000000" points="702.0001,-76.0561 698.5,-66.0561 695.0001,-76.0561 702.0001,-76.0561"/>
</g>
<!-- 64 -->
<g id="node65" class="node">
<title>64</title>
<text text-anchor="middle" x="698.5" y="-3.8" font-family="Times,serif" font-size="14.00" fill="#000000">2</text>
</g>
<!-- 63&#45;&gt;64 -->
<g id="edge64" class="edge">
<title>63&#45;&gt;64</title>
<path fill="none" stroke="#000000" d="M698.5,-50.9748C698.5,-44.195 698.5,-33.966 698.5,-25.1331"/>
<polygon fill="#000000" stroke="#000000" points="702.0001,-25.0561 698.5,-15.0561 695.0001,-25.0561 702.0001,-25.0561"/>
</g>
<!-- 68 -->
<g id="node69" class="node">
<title>68</title>
<text text-anchor="middle" x="737.5" y="-309.8" font-family="Times,serif" font-size="14.00" fill="#000000">(</text>
</g>
<!-- 67&#45;&gt;68 -->
<g id="edge68" class="edge">
<title>67&#45;&gt;68</title>
<path fill="none" stroke="#000000" d="M754.5489,-356.9748C751.7374,-349.8053 747.4133,-338.7789 743.8235,-329.625"/>
<polygon fill="#000000" stroke="#000000" points="746.9907,-328.1144 740.0814,-320.0825 740.4739,-330.67 746.9907,-328.1144"/>
</g>
<!-- 69 -->
<g id="node70" class="node">
<title>69</title>
<text text-anchor="middle" x="778.5" y="-309.8" font-family="Times,serif" font-size="14.00" fill="#000000">&lt;expr&gt;</text>
</g>
<!-- 67&#45;&gt;69 -->
<g id="edge69" class="edge">
<title>67&#45;&gt;69</title>
<path fill="none" stroke="#000000" d="M760.5986,-356.9748C763.4523,-350.0443 767.7901,-339.5097 771.4809,-330.5464"/>
<polygon fill="#000000" stroke="#000000" points="774.8175,-331.6355 775.3887,-321.0561 768.3447,-328.9702 774.8175,-331.6355"/>
</g>
<!-- 75 -->
<g id="node76" class="node">
<title>75</title>
<text text-anchor="middle" x="819.5" y="-309.8" font-family="Times,serif" font-size="14.00" fill="#000000">)</text>
</g>
<!-- 67&#45;&gt;75 -->
<g id="edge75" class="edge">
<title>67&#45;&gt;75</title>
<path fill="none" stroke="#000000" d="M766.6483,-356.9748C777.8062,-347.7965 796.6487,-332.297 808.562,-322.4974"/>
<polygon fill="#000000" stroke="#000000" points="811.1191,-324.926 816.6185,-315.8702 806.6722,-319.52 811.1191,-324.926"/>
</g>
<!-- 70 -->
<g id="node71" class="node">
<title>70</title>
<text text-anchor="middle" x="781.5" y="-258.8" font-family="Times,serif" font-size="14.00" fill="#000000">&lt;term&gt;</text>
</g>
<!-- 69&#45;&gt;70 -->
<g id="edge70" class="edge">
<title>69&#45;&gt;70</title>
<path fill="none" stroke="#000000" d="M778.9427,-305.9748C779.3415,-299.195 779.9432,-288.966 780.4628,-280.1331"/>
<polygon fill="#000000" stroke="#000000" points="783.9622,-280.2444 781.0555,-270.0561 776.9742,-279.8333 783.9622,-280.2444"/>
</g>
<!-- 71 -->
<g id="node72" class="node">
<title>71</title>
<text text-anchor="middle" x="781.5" y="-207.8" font-family="Times,serif" font-size="14.00" fill="#000000">&lt;factor&gt;</text>
</g>
<!-- 70&#45;&gt;71 -->
<g id="edge71" class="edge">
<title>70&#45;&gt;71</title>
<path fill="none" stroke="#000000" d="M781.5,-254.9748C781.5,-248.195 781.5,-237.966 781.5,-229.1331"/>
<polygon fill="#000000" stroke="#000000" points="785.0001,-229.0561 781.5,-219.0561 778.0001,-229.0561 785.0001,-229.0561"/>
</g>
<!-- 72 -->
<g id="node73" class="node">
<title>72</title>
<text text-anchor="middle" x="781.5" y="-156.8" font-family="Times,serif" font-size="14.00" fill="#000000">&lt;integer&gt;</text>
</g>
<!-- 71&#45;&gt;72 -->
<g id="edge72" class="edge">
<title>71&#45;&gt;72</title>
<path fill="none" stroke="#000000" d="M781.5,-203.9748C781.5,-197.195 781.5,-186.966 781.5,-178.1331"/>
<polygon fill="#000000" stroke="#000000" points="785.0001,-178.0561 781.5,-168.0561 778.0001,-178.0561 785.0001,-178.0561"/>
</g>
<!-- 73 -->
<g id="node74" class="node">
<title>73</title>
<text text-anchor="middle" x="781.5" y="-105.8" font-family="Times,serif" font-size="14.00" fill="#000000">&lt;digit&gt;</text>
</g>
<!-- 72&#45;&gt;73 -->
<g id="edge73" class="edge">
<title>72&#45;&gt;73</title>
<path fill="none" stroke="#000000" d="M781.5,-152.9748C781.5,-146.195 781.5,-135.966 781.5,-127.1331"/>
<polygon fill="#000000" stroke="#000000" points="785.0001,-127.0561 781.5,-117.0561 778.0001,-127.0561 785.0001,-127.0561"/>
</g>
<!-- 74 -->
<g id="node75" class="node">
<title>74</title>
<text text-anchor="middle" x="781.5" y="-54.8" font-family="Times,serif" font-size="14.00" fill="#000000">5</text>
</g>
<!-- 73&#45;&gt;74 -->
<g id="edge74" class="edge">
<title>73&#45;&gt;74</title>
<path fill="none" stroke="#000000" d="M781.5,-101.9748C781.5,-95.195 781.5,-84.966 781.5,-76.1331"/>
<polygon fill="#000000" stroke="#000000" points="785.0001,-76.0561 781.5,-66.0561 778.0001,-76.0561 785.0001,-76.0561"/>
</g>
</g>
</svg>
