<?xml version="1.0" encoding="UTF-8" standalone="no"?>
<!DOCTYPE svg PUBLIC "-//W3C//DTD SVG 1.1//EN"
 "http://www.w3.org/Graphics/SVG/1.1/DTD/svg11.dtd">
<!-- Generated by graphviz version 2.40.1 (20161225.0304)
 -->
<!-- Title: %3 Pages: 1 -->
<svg width="315pt" height="278pt"
 viewBox="0.00 0.00 315.00 278.00" xmlns="http://www.w3.org/2000/svg" xmlns:xlink="http://www.w3.org/1999/xlink">
<g id="graph0" class="graph" transform="scale(1 1) rotate(0) translate(4 274)">
<title>%3</title>
<polygon fill="#ffffff" stroke="transparent" points="-4,4 -4,-274 311,-274 311,4 -4,4"/>
<!-- 0 -->
<g id="node1" class="node">
<title>0</title>
<text text-anchor="middle" x="149" y="-258.8" font-family="Times,serif" font-size="14.00" fill="#000000">&lt;start&gt;</text>
</g>
<!-- 1 -->
<g id="node2" class="node">
<title>1</title>
<text text-anchor="middle" x="149" y="-207.8" font-family="Times,serif" font-size="14.00" fill="#000000">&lt;call&gt;</text>
</g>
<!-- 0&#45;&gt;1 -->
<g id="edge1" class="edge">
<title>0&#45;&gt;1</title>
<path fill="none" stroke="#000000" d="M149,-254.9748C149,-248.195 149,-237.966 149,-229.1331"/>
<polygon fill="#000000" stroke="#000000" points="152.5001,-229.0561 149,-219.0561 145.5001,-229.0561 152.5001,-229.0561"/>
</g>
<!-- 2 -->
<g id="node3" class="node">
<title>2</title>
<text text-anchor="middle" x="149" y="-156.8" font-family="Times,serif" font-size="14.00" fill="#000000">&lt;url&gt;</text>
</g>
<!-- 1&#45;&gt;2 -->
<g id="edge2" class="edge">
<title>1&#45;&gt;2</title>
<path fill="none" stroke="#000000" d="M149,-203.9748C149,-197.195 149,-186.966 149,-178.1331"/>
<polygon fill="#000000" stroke="#000000" points="152.5001,-178.0561 149,-168.0561 145.5001,-178.0561 152.5001,-178.0561"/>
</g>
<!-- 3 -->
<g id="node4" class="node">
<title>3</title>
<text text-anchor="middle" x="36" y="-105.8" font-family="Times,serif" font-size="14.00" fill="#000000">&lt;scheme&gt;</text>
</g>
<!-- 2&#45;&gt;3 -->
<g id="edge3" class="edge">
<title>2&#45;&gt;3</title>
<path fill="none" stroke="#000000" d="M132.8099,-153.1929C114.3932,-144.881 84.0538,-131.188 62.2448,-121.345"/>
<polygon fill="#000000" stroke="#000000" points="63.4527,-118.0502 52.8982,-117.1266 60.573,-124.4305 63.4527,-118.0502"/>
</g>
<!-- 5 -->
<g id="node6" class="node">
<title>5</title>
<text text-anchor="middle" x="91" y="-105.8" font-family="Times,serif" font-size="14.00" fill="#000000">://</text>
</g>
<!-- 2&#45;&gt;5 -->
<g id="edge5" class="edge">
<title>2&#45;&gt;5</title>
<path fill="none" stroke="#000000" d="M140.4419,-152.9748C131.093,-144.7542 115.9771,-131.4626 104.917,-121.7374"/>
<polygon fill="#000000" stroke="#000000" points="106.9251,-118.8425 97.1042,-114.8675 102.3028,-124.0993 106.9251,-118.8425"/>
</g>
<!-- 6 -->
<g id="node7" class="node">
<title>6</title>
<text text-anchor="middle" x="149" y="-105.8" font-family="Times,serif" font-size="14.00" fill="#000000">&lt;authority&gt;</text>
</g>
<!-- 2&#45;&gt;6 -->
<g id="edge6" class="edge">
<title>2&#45;&gt;6</title>
<path fill="none" stroke="#000000" d="M149,-152.9748C149,-146.195 149,-135.966 149,-127.1331"/>
<polygon fill="#000000" stroke="#000000" points="152.5001,-127.0561 149,-117.0561 145.5001,-127.0561 152.5001,-127.0561"/>
</g>
<!-- 15 -->
<g id="node16" class="node">
<title>15</title>
<text text-anchor="middle" x="221" y="-105.8" font-family="Times,serif" font-size="14.00" fill="#000000">&lt;path&gt;</text>
</g>
<!-- 2&#45;&gt;15 -->
<g id="edge15" class="edge">
<title>2&#45;&gt;15</title>
<path fill="none" stroke="#000000" d="M159.6238,-152.9748C170.7906,-145.065 188.5851,-132.4606 202.1453,-122.8554"/>
<polygon fill="#000000" stroke="#000000" points="204.1954,-125.6924 210.3326,-117.0561 200.1492,-119.9802 204.1954,-125.6924"/>
</g>
<!-- 16 -->
<g id="node17" class="node">
<title>16</title>
<text text-anchor="middle" x="283" y="-105.8" font-family="Times,serif" font-size="14.00" fill="#000000">&lt;query&gt;</text>
</g>
<!-- 2&#45;&gt;16 -->
<g id="edge16" class="edge">
<title>2&#45;&gt;16</title>
<path fill="none" stroke="#000000" d="M165.1635,-154.3482C186.986,-146.0426 226.2634,-131.0938 253.4386,-120.751"/>
<polygon fill="#000000" stroke="#000000" points="254.7472,-123.9979 262.8482,-117.1697 252.2572,-117.4557 254.7472,-123.9979"/>
</g>
<!-- 4 -->
<g id="node5" class="node">
<title>4</title>
<text text-anchor="middle" x="11" y="-54.8" font-family="Times,serif" font-size="14.00" fill="#000000">ftps</text>
</g>
<!-- 3&#45;&gt;4 -->
<g id="edge4" class="edge">
<title>3&#45;&gt;4</title>
<path fill="none" stroke="#000000" d="M32.3112,-101.9748C28.8769,-94.969 23.6374,-84.2803 19.2131,-75.2547"/>
<polygon fill="#000000" stroke="#000000" points="22.2483,-73.4947 14.704,-66.0561 15.9629,-76.5759 22.2483,-73.4947"/>
</g>
<!-- 7 -->
<g id="node8" class="node">
<title>7</title>
<text text-anchor="middle" x="71" y="-54.8" font-family="Times,serif" font-size="14.00" fill="#000000">&lt;userinfo&gt;</text>
</g>
<!-- 6&#45;&gt;7 -->
<g id="edge7" class="edge">
<title>6&#45;&gt;7</title>
<path fill="none" stroke="#000000" d="M137.4908,-101.9748C125.2783,-93.9897 105.7483,-81.22 91.0075,-71.5818"/>
<polygon fill="#000000" stroke="#000000" points="92.8415,-68.5992 82.5564,-66.0561 89.0107,-74.458 92.8415,-68.5992"/>
</g>
<!-- 9 -->
<g id="node10" class="node">
<title>9</title>
<text text-anchor="middle" x="127" y="-54.8" font-family="Times,serif" font-size="14.00" fill="#000000">@</text>
</g>
<!-- 6&#45;&gt;9 -->
<g id="edge9" class="edge">
<title>6&#45;&gt;9</title>
<path fill="none" stroke="#000000" d="M145.7538,-101.9748C142.7317,-94.969 138.1209,-84.2803 134.2275,-75.2547"/>
<polygon fill="#000000" stroke="#000000" points="137.4342,-73.8519 130.2595,-66.0561 131.0067,-76.6246 137.4342,-73.8519"/>
</g>
<!-- 10 -->
<g id="node11" class="node">
<title>10</title>
<text text-anchor="middle" x="172" y="-54.8" font-family="Times,serif" font-size="14.00" fill="#000000">&lt;host&gt;</text>
</g>
<!-- 6&#45;&gt;10 -->
<g id="edge10" class="edge">
<title>6&#45;&gt;10</title>
<path fill="none" stroke="#000000" d="M152.3937,-101.9748C155.5532,-94.969 160.3736,-84.2803 164.444,-75.2547"/>
<polygon fill="#000000" stroke="#000000" points="167.6718,-76.6109 168.5923,-66.0561 161.2907,-73.7331 167.6718,-76.6109"/>
</g>
<!-- 12 -->
<g id="node13" class="node">
<title>12</title>
<text text-anchor="middle" x="212" y="-54.8" font-family="Times,serif" font-size="14.00" fill="#000000">:</text>
</g>
<!-- 6&#45;&gt;12 -->
<g id="edge12" class="edge">
<title>6&#45;&gt;12</title>
<path fill="none" stroke="#000000" d="M158.2959,-101.9748C169.8477,-92.6233 189.5054,-76.7099 201.5632,-66.9489"/>
<polygon fill="#000000" stroke="#000000" points="203.989,-69.4882 209.5593,-60.4758 199.5846,-64.0475 203.989,-69.4882"/>
</g>
<!-- 13 -->
<g id="node14" class="node">
<title>13</title>
<text text-anchor="middle" x="252" y="-54.8" font-family="Times,serif" font-size="14.00" fill="#000000">&lt;port&gt;</text>
</g>
<!-- 6&#45;&gt;13 -->
<g id="edge13" class="edge">
<title>6&#45;&gt;13</title>
<path fill="none" stroke="#000000" d="M164.198,-101.9748C180.9333,-93.6883 208.0746,-80.2495 227.7556,-70.5045"/>
<polygon fill="#000000" stroke="#000000" points="229.3311,-73.63 236.7396,-66.0561 226.225,-67.3569 229.3311,-73.63"/>
</g>
<!-- 8 -->
<g id="node9" class="node">
<title>8</title>
<text text-anchor="middle" x="67" y="-3.8" font-family="Times,serif" font-size="14.00" fill="#000000">user:password</text>
</g>
<!-- 7&#45;&gt;8 -->
<g id="edge8" class="edge">
<title>7&#45;&gt;8</title>
<path fill="none" stroke="#000000" d="M70.4098,-50.9748C69.878,-44.195 69.0758,-33.966 68.383,-25.1331"/>
<polygon fill="#000000" stroke="#000000" points="71.8639,-24.7518 67.5926,-15.0561 64.8854,-25.2992 71.8639,-24.7518"/>
</g>
<!-- 11 -->
<g id="node12" class="node">
<title>11</title>
<text text-anchor="middle" x="175" y="-3.8" font-family="Times,serif" font-size="14.00" fill="#000000">fuzzingbook.com</text>
</g>
<!-- 10&#45;&gt;11 -->
<g id="edge11" class="edge">
<title>10&#45;&gt;11</title>
<path fill="none" stroke="#000000" d="M172.4427,-50.9748C172.8415,-44.195 173.4432,-33.966 173.9628,-25.1331"/>
<polygon fill="#000000" stroke="#000000" points="177.4622,-25.2444 174.5555,-15.0561 170.4742,-24.8333 177.4622,-25.2444"/>
</g>
<!-- 14 -->
<g id="node15" class="node">
<title>14</title>
<text text-anchor="middle" x="252" y="-3.8" font-family="Times,serif" font-size="14.00" fill="#000000">80</text>
</g>
<!-- 13&#45;&gt;14 -->
<g id="edge14" class="edge">
<title>13&#45;&gt;14</title>
<path fill="none" stroke="#000000" d="M252,-50.9748C252,-44.195 252,-33.966 252,-25.1331"/>
<polygon fill="#000000" stroke="#000000" points="255.5001,-25.0561 252,-15.0561 248.5001,-25.0561 255.5001,-25.0561"/>
</g>
</g>
</svg>
