<?xml version="1.0" encoding="UTF-8" standalone="no"?>
<!DOCTYPE svg PUBLIC "-//W3C//DTD SVG 1.1//EN"
 "http://www.w3.org/Graphics/SVG/1.1/DTD/svg11.dtd">
<!-- Generated by graphviz version 2.40.1 (20161225.0304)
 -->
<!-- Title: %3 Pages: 1 -->
<svg width="151pt" height="74pt"
 viewBox="0.00 0.00 150.50 74.00" xmlns="http://www.w3.org/2000/svg" xmlns:xlink="http://www.w3.org/1999/xlink">
<g id="graph0" class="graph" transform="scale(1 1) rotate(0) translate(4 70)">
<title>%3</title>
<polygon fill="#ffffff" stroke="transparent" points="-4,4 -4,-70 146.5,-70 146.5,4 -4,4"/>
<!-- 0 -->
<g id="node1" class="node">
<title>0</title>
<text text-anchor="middle" x="68" y="-54.8" font-family="Times,serif" font-size="14.00" fill="#000000">&lt;term&gt;</text>
</g>
<!-- 1 -->
<g id="node2" class="node">
<title>1</title>
<text text-anchor="middle" x="21" y="-3.8" font-family="Times,serif" font-size="14.00" fill="#000000">&lt;term&gt;</text>
</g>
<!-- 0&#45;&gt;1 -->
<g id="edge1" class="edge">
<title>0&#45;&gt;1</title>
<path fill="none" stroke="#000000" d="M61.065,-50.9748C54.1921,-43.517 43.4731,-31.8857 34.8512,-22.53"/>
<polygon fill="#000000" stroke="#000000" points="37.3141,-20.0378 27.9635,-15.0561 32.1666,-24.7816 37.3141,-20.0378"/>
</g>
<!-- 2 -->
<g id="node3" class="node">
<title>2</title>
<text text-anchor="middle" x="68" y="-3.8" font-family="Times,serif" font-size="14.00" fill="#000000"> * </text>
</g>
<!-- 0&#45;&gt;2 -->
<g id="edge2" class="edge">
<title>0&#45;&gt;2</title>
<path fill="none" stroke="#000000" d="M68,-50.9748C68,-44.195 68,-33.966 68,-25.1331"/>
<polygon fill="#000000" stroke="#000000" points="71.5001,-25.0561 68,-15.0561 64.5001,-25.0561 71.5001,-25.0561"/>
</g>
<!-- 3 -->
<g id="node4" class="node">
<title>3</title>
<text text-anchor="middle" x="118" y="-3.8" font-family="Times,serif" font-size="14.00" fill="#000000">&lt;factor&gt;</text>
</g>
<!-- 0&#45;&gt;3 -->
<g id="edge3" class="edge">
<title>0&#45;&gt;3</title>
<path fill="none" stroke="#000000" d="M75.3777,-50.9748C82.7631,-43.4417 94.3232,-31.6503 103.542,-22.2472"/>
<polygon fill="#000000" stroke="#000000" points="106.0906,-24.6471 110.5921,-15.0561 101.0921,-19.7466 106.0906,-24.6471"/>
</g>
</g>
</svg>
