<?xml version="1.0" standalone="no"?>
<!DOCTYPE svg PUBLIC "-//W3C//DTD SVG 20010904//EN"
 "http://www.w3.org/TR/2001/REC-SVG-20010904/DTD/svg10.dtd">
<svg version="1.0" xmlns="http://www.w3.org/2000/svg"
 width="660.000000pt" height="660.000000pt" viewBox="0 0 660.000000 660.000000"
 preserveAspectRatio="xMidYMid meet">
<metadata>
Created by potrace 1.11, written by Peter Selinger 2001-2013
</metadata>
<g transform="translate(0.000000,660.000000) scale(0.100000,-0.100000)"
fill="#000000" stroke="none">
<path d="M2785 6438 c-2 -7 -72 -335 -155 -728 -211 -997 -464 -2194 -505
-2385 -18 -88 -33 -161 -31 -162 2 -2 311 149 687 335 425 210 685 334 687
326 2 -7 -51 -288 -118 -626 -67 -337 -134 -677 -149 -756 -16 -78 -31 -145
-34 -148 -3 -3 -85 11 -184 30 -208 42 -229 44 -238 16 -3 -11 -3 -25 1 -32
20 -32 598 -855 608 -865 8 -9 85 95 316 425 168 240 306 446 308 459 2 15 -3
26 -14 30 -9 3 -101 -11 -205 -32 -104 -21 -191 -36 -193 -34 -2 2 151 501
340 1109 189 608 363 1169 387 1247 l44 141 -216 -106 c-119 -59 -461 -229
-761 -378 -300 -150 -546 -270 -548 -269 -2 2 48 142 111 312 250 670 766
2050 776 2076 l11 27 -461 0 c-359 0 -461 -3 -464 -12z"/>
<path d="M640 2315 l0 -2095 2575 0 2575 0 0 2090 0 2090 -375 0 -375 0 0
-1715 0 -1715 -1825 0 -1825 0 0 1720 0 1720 -375 0 -375 0 0 -2095z"/>
</g>
</svg>
