<?xml version="1.0" standalone="no"?>
<!DOCTYPE svg PUBLIC "-//W3C//DTD SVG 20010904//EN"
 "http://www.w3.org/TR/2001/REC-SVG-20010904/DTD/svg10.dtd">
<svg version="1.0" xmlns="http://www.w3.org/2000/svg"
 width="700.000000pt" height="700.000000pt" viewBox="0 0 700.000000 700.000000"
 preserveAspectRatio="xMidYMid meet">
<metadata>
Created by potrace 1.11, written by Peter Selinger 2001-2013
</metadata>
<g transform="translate(0.000000,700.000000) scale(0.100000,-0.100000)"
fill="#000000" stroke="none">
<path d="M2999 6835 c-15 -40 -14 -40 -64 -19 -20 8 -39 14 -40 12 -9 -9 -975
-2351 -972 -2355 3 -2 23 4 46 13 23 9 44 14 47 12 2 -3 0 -18 -6 -33 -6 -15
-9 -29 -8 -31 2 -2 448 152 992 342 544 189 991 343 993 340 5 -5 -689 -1686
-696 -1686 -4 0 -60 159 -125 353 -66 193 -121 354 -123 356 -2 3 -26 -6 -55
-20 -28 -13 -57 -23 -63 -22 -16 4 -399 -174 -403 -187 -3 -7 105 -335 239
-730 l244 -719 137 -66 c76 -36 144 -65 152 -65 8 0 313 137 678 304 l663 304
-3 29 c-2 24 3 32 24 41 14 7 24 18 21 25 -2 6 -35 102 -72 212 -38 110 -71
204 -75 208 -4 5 -26 -1 -49 -12 -22 -12 -53 -23 -68 -25 -16 -2 -171 -69
-347 -150 -175 -81 -319 -145 -321 -144 -1 2 261 638 582 1413 320 776 589
1426 597 1447 l15 36 -172 -58 c-95 -32 -567 -196 -1051 -364 -483 -169 -880
-305 -882 -304 -1 2 128 318 287 702 159 384 288 700 287 701 -6 5 -386 175
-391 175 -3 0 -11 -16 -18 -35z"/>
<path d="M1050 2255 l0 -1975 2460 0 2460 0 0 1975 0 1975 -455 0 -455 0 0
-375 0 -375 80 0 80 0 0 -1225 0 -1225 -1710 0 -1710 0 0 1225 0 1225 75 0 75
0 0 375 0 375 -450 0 -450 0 0 -1975z"/>
</g>
</svg>
