<svg xmlns="http://www.w3.org/2000/svg" class="railroad-diagram" height="62" viewBox="0 0 560.0 62" width="560.0">
<g transform="translate(.5 .5)">
<style>/* <![CDATA[ */
    svg.railroad-diagram {
    }
    svg.railroad-diagram path {
        stroke-width:3;
        stroke:black;
        fill:white;
    }
    svg.railroad-diagram text {
        font:14px "Fira Mono", monospace;
        text-anchor:middle;
    }
    svg.railroad-diagram text.label{
        text-anchor:start;
    }
    svg.railroad-diagram text.comment{
        font:italic 12px "Fira Mono", monospace;
    }
    svg.railroad-diagram rect{
        stroke-width:2;
        stroke:black;
        fill:mistyrose;
    }

/* ]]> */
</style><g>
<path d="M20 21v20m10 -20v20m-10 -10h20"/></g><g>
<path d="M40 31h0.0"/><path d="M520.0 31h0.0"/><path d="M40.0 31h20"/><g>
<path d="M60.0 31h0.0"/><path d="M500.0 31h0.0"/><g class="non-terminal">
<path d="M60.0 31h0.0"/><path d="M241.5 31h0.0"/><rect height="22" width="181.5" x="60.0" y="20"/><text x="150.75" y="35">urlparse@394:scheme</text></g><path d="M241.5 31h10"/><path d="M251.5 31h10"/><g class="terminal">
<path d="M261.5 31h0.0"/><path d="M290.0 31h0.0"/><rect height="22" rx="10" ry="10" width="28.5" x="261.5" y="20"/><text x="275.75" y="35">:</text></g><path d="M290.0 31h10"/><path d="M300.0 31h10"/><g class="non-terminal">
<path d="M310.0 31h0.0"/><path d="M500.0 31h0.0"/><rect height="22" width="190.0" x="310.0" y="20"/><text x="405.0" y="35">_splitnetloc@411:url</text></g></g><path d="M500.0 31h20"/></g><path d="M 520.0 31 h 20 m -10 -10 v 20 m 10 -20 v 20"/></g></svg>