<svg xmlns="http://www.w3.org/2000/svg" class="railroad-diagram" height="92" viewBox="0 0 543.0 92" width="543.0">
<g transform="translate(.5 .5)">
<style>/* <![CDATA[ */
    svg.railroad-diagram {
    }
    svg.railroad-diagram path {
        stroke-width:3;
        stroke:black;
        fill:white;
    }
    svg.railroad-diagram text {
        font:14px "Fira Mono", monospace;
        text-anchor:middle;
    }
    svg.railroad-diagram text.label{
        text-anchor:start;
    }
    svg.railroad-diagram text.comment{
        font:italic 12px "Fira Mono", monospace;
    }
    svg.railroad-diagram rect{
        stroke-width:2;
        stroke:black;
        fill:mistyrose;
    }

/* ]]> */
</style><g>
<path d="M20 51v20m10 -20v20m-10 -10h20"/></g><g>
<path d="M40 61h0.0"/><path d="M503.0 61h0.0"/><path d="M40.0 61a10 10 0 0 0 10 -10v-10a10 10 0 0 1 10 -10"/><g>
<path d="M60.0 31h0.0"/><path d="M483.0 31h0.0"/><g class="non-terminal">
<path d="M60.0 31h0.0"/><path d="M216.0 31h0.0"/><rect height="22" width="156.0" x="60.0" y="20"/><text x="138.0" y="35">urlsplit@486:url</text></g><path d="M216.0 31h10"/><path d="M226.0 31h10"/><g class="terminal">
<path d="M236.0 31h0.0"/><path d="M264.5 31h0.0"/><rect height="22" rx="10" ry="10" width="28.5" x="236.0" y="20"/><text x="250.25" y="35">#</text></g><path d="M264.5 31h10"/><path d="M274.5 31h10"/><g class="non-terminal">
<path d="M284.5 31h0.0"/><path d="M483.0 31h0.0"/><rect height="22" width="198.5" x="284.5" y="20"/><text x="383.75" y="35">urlparse@394:fragment</text></g></g><path d="M483.0 31a10 10 0 0 1 10 10v10a10 10 0 0 0 10 10"/><path d="M40.0 61h20"/><g>
<path d="M60.0 61h83.75"/><path d="M399.25 61h83.75"/><g class="terminal">
<path d="M143.75 61h0.0"/><path d="M180.75 61h0.0"/><rect height="22" rx="10" ry="10" width="37.0" x="143.75" y="50"/><text x="162.25" y="65">/#</text></g><path d="M180.75 61h10"/><path d="M190.75 61h10"/><g class="non-terminal">
<path d="M200.75 61h0.0"/><path d="M399.25 61h0.0"/><rect height="22" width="198.5" x="200.75" y="50"/><text x="300.0" y="65">urlparse@394:fragment</text></g></g><path d="M483.0 61h20"/></g><path d="M 503.0 61 h 20 m -10 -10 v 20 m 10 -20 v 20"/></g></svg>