<?xml version="1.0" encoding="UTF-8" standalone="no"?>
<!DOCTYPE svg PUBLIC "-//W3C//DTD SVG 1.1//EN"
 "http://www.w3.org/Graphics/SVG/1.1/DTD/svg11.dtd">
<!-- Generated by graphviz version 7.0.2 (20221119.0110)
 -->
<!-- Pages: 1 -->
<svg width="646pt" height="227pt"
 viewBox="0.00 0.00 645.50 227.00" xmlns="http://www.w3.org/2000/svg" xmlns:xlink="http://www.w3.org/1999/xlink">
<g id="graph0" class="graph" transform="scale(1 1) rotate(0) translate(4 223)">
<polygon fill="white" stroke="none" points="-4,4 -4,-223 641.5,-223 641.5,4 -4,4"/>
<!-- 0 -->
<g id="node1" class="node">
<title>0</title>
<text text-anchor="middle" x="269.5" y="-207.8" font-family="Times,serif" font-size="14.00">&lt;start&gt;</text>
</g>
<!-- 1 -->
<g id="node2" class="node">
<title>1</title>
<text text-anchor="middle" x="269.5" y="-156.8" font-family="Times,serif" font-size="14.00">&lt;phone&#45;number&gt;</text>
</g>
<!-- 0&#45;&gt;1 -->
<g id="edge1" class="edge">
<title>0&#45;&gt;1</title>
<path fill="none" stroke="black" d="M269.5,-204.09C269.5,-197.75 269.5,-187.75 269.5,-179.03"/>
<polygon fill="black" stroke="black" points="273,-179.27 269.5,-169.27 266,-179.27 273,-179.27"/>
</g>
<!-- 2 -->
<g id="node3" class="node">
<title>2</title>
<text text-anchor="middle" x="114.5" y="-105.8" font-family="Times,serif" font-size="14.00">( (40)</text>
</g>
<!-- 1&#45;&gt;2 -->
<g id="edge2" class="edge">
<title>1&#45;&gt;2</title>
<path fill="none" stroke="black" d="M249.24,-153.09C221.3,-144.26 170.93,-128.34 140.32,-118.66"/>
<polygon fill="black" stroke="black" points="141.68,-115.42 131.09,-115.74 139.57,-122.1 141.68,-115.42"/>
</g>
<!-- 3 -->
<g id="node4" class="node">
<title>3</title>
<text text-anchor="middle" x="168.5" y="-105.8" font-family="Times,serif" font-size="14.00">&lt;area&gt;</text>
</g>
<!-- 1&#45;&gt;3 -->
<g id="edge3" class="edge">
<title>1&#45;&gt;3</title>
<path fill="none" stroke="black" d="M256.3,-153.09C239.96,-145.17 211.87,-131.54 191.87,-121.84"/>
<polygon fill="black" stroke="black" points="193.59,-118.78 183.07,-117.57 190.54,-125.08 193.59,-118.78"/>
</g>
<!-- 10 -->
<g id="node11" class="node">
<title>10</title>
<text text-anchor="middle" x="235.5" y="-105.8" font-family="Times,serif" font-size="14.00">) (41)</text>
</g>
<!-- 1&#45;&gt;10 -->
<g id="edge10" class="edge">
<title>1&#45;&gt;10</title>
<path fill="none" stroke="black" d="M265.06,-153.09C260.29,-146.23 252.57,-135.1 246.21,-125.93"/>
<polygon fill="black" stroke="black" points="249.28,-124.22 240.7,-118 243.53,-128.21 249.28,-124.22"/>
</g>
<!-- 11 -->
<g id="node12" class="node">
<title>11</title>
<text text-anchor="middle" x="303.5" y="-105.8" font-family="Times,serif" font-size="14.00">&lt;exchange&gt;</text>
</g>
<!-- 1&#45;&gt;11 -->
<g id="edge11" class="edge">
<title>1&#45;&gt;11</title>
<path fill="none" stroke="black" d="M273.94,-153.09C278.71,-146.23 286.43,-135.1 292.79,-125.93"/>
<polygon fill="black" stroke="black" points="295.47,-128.21 298.3,-118 289.72,-124.22 295.47,-128.21"/>
</g>
<!-- 18 -->
<g id="node19" class="node">
<title>18</title>
<text text-anchor="middle" x="371.5" y="-105.8" font-family="Times,serif" font-size="14.00">&#45; (45)</text>
</g>
<!-- 1&#45;&gt;18 -->
<g id="edge18" class="edge">
<title>1&#45;&gt;18</title>
<path fill="none" stroke="black" d="M282.83,-153.09C299.33,-145.17 327.7,-131.54 347.9,-121.84"/>
<polygon fill="black" stroke="black" points="349.3,-125.05 356.8,-117.56 346.27,-118.74 349.3,-125.05"/>
</g>
<!-- 19 -->
<g id="node20" class="node">
<title>19</title>
<text text-anchor="middle" x="496.5" y="-105.8" font-family="Times,serif" font-size="14.00">&lt;line&gt;</text>
</g>
<!-- 1&#45;&gt;19 -->
<g id="edge19" class="edge">
<title>1&#45;&gt;19</title>
<path fill="none" stroke="black" d="M299.18,-153.09C342.68,-143.7 423.29,-126.3 466.81,-116.91"/>
<polygon fill="black" stroke="black" points="467.52,-120.34 476.55,-114.81 466.04,-113.49 467.52,-120.34"/>
</g>
<!-- 4 -->
<g id="node5" class="node">
<title>4</title>
<text text-anchor="middle" x="34.5" y="-54.8" font-family="Times,serif" font-size="14.00">&lt;lead&#45;digit&gt;</text>
</g>
<!-- 3&#45;&gt;4 -->
<g id="edge4" class="edge">
<title>3&#45;&gt;4</title>
<path fill="none" stroke="black" d="M150.98,-102.09C128.51,-93.88 89.26,-79.52 62.6,-69.77"/>
<polygon fill="black" stroke="black" points="64.04,-66.57 53.44,-66.43 61.63,-73.15 64.04,-66.57"/>
</g>
<!-- 6 -->
<g id="node7" class="node">
<title>6</title>
<text text-anchor="middle" x="108.5" y="-54.8" font-family="Times,serif" font-size="14.00">&lt;digit&gt;</text>
</g>
<!-- 3&#45;&gt;6 -->
<g id="edge6" class="edge">
<title>3&#45;&gt;6</title>
<path fill="none" stroke="black" d="M160.66,-102.09C151.62,-94.72 136.53,-82.39 124.9,-72.9"/>
<polygon fill="black" stroke="black" points="127.29,-70.32 117.33,-66.71 122.86,-75.75 127.29,-70.32"/>
</g>
<!-- 8 -->
<g id="node9" class="node">
<title>8</title>
<text text-anchor="middle" x="168.5" y="-54.8" font-family="Times,serif" font-size="14.00">&lt;digit&gt;</text>
</g>
<!-- 3&#45;&gt;8 -->
<g id="edge8" class="edge">
<title>3&#45;&gt;8</title>
<path fill="none" stroke="black" d="M168.5,-102.09C168.5,-95.75 168.5,-85.75 168.5,-77.03"/>
<polygon fill="black" stroke="black" points="172,-77.27 168.5,-67.27 165,-77.27 172,-77.27"/>
</g>
<!-- 5 -->
<g id="node6" class="node">
<title>5</title>
<text text-anchor="middle" x="34.5" y="-3.8" font-family="Times,serif" font-size="14.00">4 (52)</text>
</g>
<!-- 4&#45;&gt;5 -->
<g id="edge5" class="edge">
<title>4&#45;&gt;5</title>
<path fill="none" stroke="black" d="M34.5,-51.09C34.5,-44.75 34.5,-34.75 34.5,-26.03"/>
<polygon fill="black" stroke="black" points="38,-26.27 34.5,-16.27 31,-26.27 38,-26.27"/>
</g>
<!-- 7 -->
<g id="node8" class="node">
<title>7</title>
<text text-anchor="middle" x="108.5" y="-3.8" font-family="Times,serif" font-size="14.00">4 (52)</text>
</g>
<!-- 6&#45;&gt;7 -->
<g id="edge7" class="edge">
<title>6&#45;&gt;7</title>
<path fill="none" stroke="black" d="M108.5,-51.09C108.5,-44.75 108.5,-34.75 108.5,-26.03"/>
<polygon fill="black" stroke="black" points="112,-26.27 108.5,-16.27 105,-26.27 112,-26.27"/>
</g>
<!-- 9 -->
<g id="node10" class="node">
<title>9</title>
<text text-anchor="middle" x="168.5" y="-3.8" font-family="Times,serif" font-size="14.00">4 (52)</text>
</g>
<!-- 8&#45;&gt;9 -->
<g id="edge9" class="edge">
<title>8&#45;&gt;9</title>
<path fill="none" stroke="black" d="M168.5,-51.09C168.5,-44.75 168.5,-34.75 168.5,-26.03"/>
<polygon fill="black" stroke="black" points="172,-26.27 168.5,-16.27 165,-26.27 172,-26.27"/>
</g>
<!-- 12 -->
<g id="node13" class="node">
<title>12</title>
<text text-anchor="middle" x="242.5" y="-54.8" font-family="Times,serif" font-size="14.00">&lt;lead&#45;digit&gt;</text>
</g>
<!-- 11&#45;&gt;12 -->
<g id="edge12" class="edge">
<title>11&#45;&gt;12</title>
<path fill="none" stroke="black" d="M295.53,-102.09C286.34,-94.72 271,-82.39 259.18,-72.9"/>
<polygon fill="black" stroke="black" points="261.45,-70.23 251.46,-66.7 257.07,-75.69 261.45,-70.23"/>
</g>
<!-- 14 -->
<g id="node15" class="node">
<title>14</title>
<text text-anchor="middle" x="316.5" y="-54.8" font-family="Times,serif" font-size="14.00">&lt;digit&gt;</text>
</g>
<!-- 11&#45;&gt;14 -->
<g id="edge14" class="edge">
<title>11&#45;&gt;14</title>
<path fill="none" stroke="black" d="M305.2,-102.09C306.9,-95.68 309.6,-85.51 311.93,-76.73"/>
<polygon fill="black" stroke="black" points="315.27,-77.78 314.45,-67.22 308.51,-75.98 315.27,-77.78"/>
</g>
<!-- 16 -->
<g id="node17" class="node">
<title>16</title>
<text text-anchor="middle" x="376.5" y="-54.8" font-family="Times,serif" font-size="14.00">&lt;digit&gt;</text>
</g>
<!-- 11&#45;&gt;16 -->
<g id="edge16" class="edge">
<title>11&#45;&gt;16</title>
<path fill="none" stroke="black" d="M313.04,-102.09C324.36,-94.5 343.5,-81.65 357.8,-72.05"/>
<polygon fill="black" stroke="black" points="359.58,-75.08 365.93,-66.6 355.67,-69.26 359.58,-75.08"/>
</g>
<!-- 13 -->
<g id="node14" class="node">
<title>13</title>
<text text-anchor="middle" x="242.5" y="-3.8" font-family="Times,serif" font-size="14.00">6 (54)</text>
</g>
<!-- 12&#45;&gt;13 -->
<g id="edge13" class="edge">
<title>12&#45;&gt;13</title>
<path fill="none" stroke="black" d="M242.5,-51.09C242.5,-44.75 242.5,-34.75 242.5,-26.03"/>
<polygon fill="black" stroke="black" points="246,-26.27 242.5,-16.27 239,-26.27 246,-26.27"/>
</g>
<!-- 15 -->
<g id="node16" class="node">
<title>15</title>
<text text-anchor="middle" x="316.5" y="-3.8" font-family="Times,serif" font-size="14.00">4 (52)</text>
</g>
<!-- 14&#45;&gt;15 -->
<g id="edge15" class="edge">
<title>14&#45;&gt;15</title>
<path fill="none" stroke="black" d="M316.5,-51.09C316.5,-44.75 316.5,-34.75 316.5,-26.03"/>
<polygon fill="black" stroke="black" points="320,-26.27 316.5,-16.27 313,-26.27 320,-26.27"/>
</g>
<!-- 17 -->
<g id="node18" class="node">
<title>17</title>
<text text-anchor="middle" x="376.5" y="-3.8" font-family="Times,serif" font-size="14.00">4 (52)</text>
</g>
<!-- 16&#45;&gt;17 -->
<g id="edge17" class="edge">
<title>16&#45;&gt;17</title>
<path fill="none" stroke="black" d="M376.5,-51.09C376.5,-44.75 376.5,-34.75 376.5,-26.03"/>
<polygon fill="black" stroke="black" points="380,-26.27 376.5,-16.27 373,-26.27 380,-26.27"/>
</g>
<!-- 20 -->
<g id="node21" class="node">
<title>20</title>
<text text-anchor="middle" x="436.5" y="-54.8" font-family="Times,serif" font-size="14.00">&lt;digit&gt;</text>
</g>
<!-- 19&#45;&gt;20 -->
<g id="edge20" class="edge">
<title>19&#45;&gt;20</title>
<path fill="none" stroke="black" d="M488.66,-102.09C479.62,-94.72 464.53,-82.39 452.9,-72.9"/>
<polygon fill="black" stroke="black" points="455.29,-70.32 445.33,-66.71 450.86,-75.75 455.29,-70.32"/>
</g>
<!-- 22 -->
<g id="node23" class="node">
<title>22</title>
<text text-anchor="middle" x="496.5" y="-54.8" font-family="Times,serif" font-size="14.00">&lt;digit&gt;</text>
</g>
<!-- 19&#45;&gt;22 -->
<g id="edge22" class="edge">
<title>19&#45;&gt;22</title>
<path fill="none" stroke="black" d="M496.5,-102.09C496.5,-95.75 496.5,-85.75 496.5,-77.03"/>
<polygon fill="black" stroke="black" points="500,-77.27 496.5,-67.27 493,-77.27 500,-77.27"/>
</g>
<!-- 24 -->
<g id="node25" class="node">
<title>24</title>
<text text-anchor="middle" x="556.5" y="-54.8" font-family="Times,serif" font-size="14.00">&lt;digit&gt;</text>
</g>
<!-- 19&#45;&gt;24 -->
<g id="edge24" class="edge">
<title>19&#45;&gt;24</title>
<path fill="none" stroke="black" d="M504.34,-102.09C513.38,-94.72 528.47,-82.39 540.1,-72.9"/>
<polygon fill="black" stroke="black" points="542.14,-75.75 547.67,-66.71 537.71,-70.32 542.14,-75.75"/>
</g>
<!-- 26 -->
<g id="node27" class="node">
<title>26</title>
<text text-anchor="middle" x="616.5" y="-54.8" font-family="Times,serif" font-size="14.00">&lt;digit&gt;</text>
</g>
<!-- 19&#45;&gt;26 -->
<g id="edge26" class="edge">
<title>19&#45;&gt;26</title>
<path fill="none" stroke="black" d="M512.19,-102.09C532.04,-93.99 566.52,-79.91 590.37,-70.17"/>
<polygon fill="black" stroke="black" points="591.47,-73.5 599.41,-66.48 588.83,-67.02 591.47,-73.5"/>
</g>
<!-- 21 -->
<g id="node22" class="node">
<title>21</title>
<text text-anchor="middle" x="436.5" y="-3.8" font-family="Times,serif" font-size="14.00">6 (54)</text>
</g>
<!-- 20&#45;&gt;21 -->
<g id="edge21" class="edge">
<title>20&#45;&gt;21</title>
<path fill="none" stroke="black" d="M436.5,-51.09C436.5,-44.75 436.5,-34.75 436.5,-26.03"/>
<polygon fill="black" stroke="black" points="440,-26.27 436.5,-16.27 433,-26.27 440,-26.27"/>
</g>
<!-- 23 -->
<g id="node24" class="node">
<title>23</title>
<text text-anchor="middle" x="496.5" y="-3.8" font-family="Times,serif" font-size="14.00">1 (49)</text>
</g>
<!-- 22&#45;&gt;23 -->
<g id="edge23" class="edge">
<title>22&#45;&gt;23</title>
<path fill="none" stroke="black" d="M496.5,-51.09C496.5,-44.75 496.5,-34.75 496.5,-26.03"/>
<polygon fill="black" stroke="black" points="500,-26.27 496.5,-16.27 493,-26.27 500,-26.27"/>
</g>
<!-- 25 -->
<g id="node26" class="node">
<title>25</title>
<text text-anchor="middle" x="556.5" y="-3.8" font-family="Times,serif" font-size="14.00">6 (54)</text>
</g>
<!-- 24&#45;&gt;25 -->
<g id="edge25" class="edge">
<title>24&#45;&gt;25</title>
<path fill="none" stroke="black" d="M556.5,-51.09C556.5,-44.75 556.5,-34.75 556.5,-26.03"/>
<polygon fill="black" stroke="black" points="560,-26.27 556.5,-16.27 553,-26.27 560,-26.27"/>
</g>
<!-- 27 -->
<g id="node28" class="node">
<title>27</title>
<text text-anchor="middle" x="616.5" y="-3.8" font-family="Times,serif" font-size="14.00">3 (51)</text>
</g>
<!-- 26&#45;&gt;27 -->
<g id="edge27" class="edge">
<title>26&#45;&gt;27</title>
<path fill="none" stroke="black" d="M616.5,-51.09C616.5,-44.75 616.5,-34.75 616.5,-26.03"/>
<polygon fill="black" stroke="black" points="620,-26.27 616.5,-16.27 613,-26.27 620,-26.27"/>
</g>
</g>
</svg>
