<svg xmlns="http://www.w3.org/2000/svg" class="railroad-diagram" height="92" viewBox="0 0 182.5 92" width="182.5">
<g transform="translate(.5 .5)">
<style>/* <![CDATA[ */
    svg.railroad-diagram {
    }
    svg.railroad-diagram path {
        stroke-width:3;
        stroke:black;
        fill:white;
    }
    svg.railroad-diagram text {
        font:14px "Fira Mono", monospace;
        text-anchor:middle;
    }
    svg.railroad-diagram text.label{
        text-anchor:start;
    }
    svg.railroad-diagram text.comment{
        font:italic 12px "Fira Mono", monospace;
    }
    svg.railroad-diagram rect{
        stroke-width:2;
        stroke:black;
        fill:mistyrose;
    }

/* ]]> */
</style><g>
<path d="M20 51v20m10 -20v20m-10 -10h20"/></g><g>
<path d="M40 61h0.0"/><path d="M142.5 61h0.0"/><path d="M40.0 61a10 10 0 0 0 10 -10v-10a10 10 0 0 1 10 -10"/><g>
<path d="M60.0 31h0.0"/><path d="M122.5 31h0.0"/><g class="terminal">
<path d="M60.0 31h0.0"/><path d="M122.5 31h0.0"/><rect height="22" rx="10" ry="10" width="62.5" x="60.0" y="20"/><text x="91.25" y="35">https</text></g></g><path d="M122.5 31a10 10 0 0 1 10 10v10a10 10 0 0 0 10 10"/><path d="M40.0 61h20"/><g>
<path d="M60.0 61h4.25"/><path d="M118.25 61h4.25"/><g class="terminal">
<path d="M64.25 61h0.0"/><path d="M118.25 61h0.0"/><rect height="22" rx="10" ry="10" width="54.0" x="64.25" y="50"/><text x="91.25" y="65">http</text></g></g><path d="M122.5 61h20"/></g><path d="M 142.5 61 h 20 m -10 -10 v 20 m 10 -20 v 20"/></g></svg>