<?xml version="1.0" encoding="UTF-8" standalone="no"?>
<!DOCTYPE svg PUBLIC "-//W3C//DTD SVG 1.1//EN"
 "http://www.w3.org/Graphics/SVG/1.1/DTD/svg11.dtd">
<!-- Generated by graphviz version 7.0.2 (20221119.0110)
 -->
<!-- Pages: 1 -->
<svg width="608pt" height="352pt"
 viewBox="0.00 0.00 608.27 352.00" xmlns="http://www.w3.org/2000/svg" xmlns:xlink="http://www.w3.org/1999/xlink">
<g id="graph0" class="graph" transform="scale(1 1) rotate(0) translate(4 348)">
<polygon fill="white" stroke="none" points="-4,4 -4,-348 604.27,-348 604.27,4 -4,4"/>
<!-- start -->
<g id="node1" class="node">
<title>start</title>
<ellipse fill="none" stroke="black" cx="318.56" cy="-326" rx="36.29" ry="18"/>
<text text-anchor="middle" x="318.56" y="-322.3" font-family="Times,serif" font-size="14.00">&lt;start&gt;</text>
</g>
<!-- state -->
<g id="node2" class="node">
<title>state</title>
<ellipse fill="none" stroke="black" cx="318.56" cy="-253" rx="37.89" ry="18"/>
<text text-anchor="middle" x="318.56" y="-249.3" font-family="Times,serif" font-size="14.00">&lt;state&gt;</text>
</g>
<!-- start&#45;&gt;state -->
<g id="edge1" class="edge">
<title>start&#45;&gt;state</title>
<path fill="none" stroke="black" d="M318.56,-307.81C318.56,-300.23 318.56,-291.1 318.56,-282.54"/>
<polygon fill="black" stroke="black" points="322.06,-282.54 318.56,-272.54 315.06,-282.54 322.06,-282.54"/>
</g>
<!-- state&#45;1 -->
<g id="node3" class="node">
<title>state&#45;1</title>
<ellipse fill="none" stroke="black" cx="195.56" cy="-91" rx="44.69" ry="18"/>
<text text-anchor="middle" x="195.56" y="-87.3" font-family="Times,serif" font-size="14.00">&lt;state&#45;1&gt;</text>
</g>
<!-- state&#45;&gt;state&#45;1 -->
<g id="edge2" class="edge">
<title>state&#45;&gt;state&#45;1</title>
<path fill="none" stroke="black" d="M280.67,-250.33C204.09,-246.56 36.65,-236.21 19.56,-217 -7.03,-187.12 -5.81,-157.92 19.56,-127 34.64,-108.63 94.26,-99.72 139.97,-95.53"/>
<polygon fill="black" stroke="black" points="140.09,-99.03 149.75,-94.69 139.49,-92.06 140.09,-99.03"/>
<text text-anchor="start" x="19.56" y="-168.3" font-family="Times,serif" font-size="14.00">click(&#39;terms and conditions&#39;)</text>
</g>
<!-- state&#45;2 -->
<g id="node4" class="node">
<title>state&#45;2</title>
<ellipse fill="none" stroke="black" cx="401.56" cy="-91" rx="44.69" ry="18"/>
<text text-anchor="middle" x="401.56" y="-87.3" font-family="Times,serif" font-size="14.00">&lt;state&#45;2&gt;</text>
</g>
<!-- state&#45;&gt;state&#45;2 -->
<g id="edge3" class="edge">
<title>state&#45;&gt;state&#45;2</title>
<path fill="none" stroke="black" d="M313.28,-234.94C306.4,-209.18 297.66,-159.87 319.56,-127 326.93,-115.94 338.58,-108.36 350.81,-103.18"/>
<polygon fill="black" stroke="black" points="352.01,-106.46 360.19,-99.73 349.6,-99.89 352.01,-106.46"/>
<text text-anchor="start" x="319.56" y="-205.8" font-family="Times,serif" font-size="14.00">fill(&#39;zip&#39;, &#39;&lt;number&gt;&#39;)</text>
<text text-anchor="start" x="319.56" y="-190.8" font-family="Times,serif" font-size="14.00">check(&#39;terms&#39;, &lt;boolean&gt;)</text>
<text text-anchor="start" x="319.56" y="-175.8" font-family="Times,serif" font-size="14.00">fill(&#39;name&#39;, &#39;&lt;text&gt;&#39;)</text>
<text text-anchor="start" x="319.56" y="-160.8" font-family="Times,serif" font-size="14.00">fill(&#39;email&#39;, &#39;&lt;email&gt;&#39;)</text>
<text text-anchor="start" x="319.56" y="-145.8" font-family="Times,serif" font-size="14.00">fill(&#39;city&#39;, &#39;&lt;text&gt;&#39;)</text>
<text text-anchor="start" x="319.56" y="-130.8" font-family="Times,serif" font-size="14.00">submit(&#39;submit&#39;)</text>
</g>
<!-- end -->
<g id="node5" class="node">
<title>end</title>
<ellipse fill="none" stroke="black" cx="401.56" cy="-18" rx="34.39" ry="18"/>
<text text-anchor="middle" x="401.56" y="-14.3" font-family="Times,serif" font-size="14.00">&lt;end&gt;</text>
</g>
<!-- state&#45;&gt;end -->
<g id="edge4" class="edge">
<title>state&#45;&gt;end</title>
<path fill="none" stroke="black" d="M356.91,-252.81C422.91,-253.3 553.69,-249.95 582.56,-217 608.92,-186.91 602.31,-161.78 582.56,-127 552.81,-74.6 486.45,-44.93 442.88,-30.42"/>
<polygon fill="black" stroke="black" points="444.09,-27.14 433.5,-27.43 441.97,-33.81 444.09,-27.14"/>
</g>
<!-- state&#45;1&#45;&gt;state -->
<g id="edge5" class="edge">
<title>state&#45;1&#45;&gt;state</title>
<path fill="none" stroke="black" d="M190.77,-109.06C184.52,-135.27 177.06,-185.69 201.56,-217 217.52,-237.4 244.89,-246.3 269.15,-250.03"/>
<polygon fill="black" stroke="black" points="268.52,-253.48 278.88,-251.25 269.39,-246.53 268.52,-253.48"/>
<text text-anchor="start" x="201.56" y="-168.3" font-family="Times,serif" font-size="14.00">click(&#39;order form&#39;)</text>
</g>
<!-- state&#45;1&#45;&gt;end -->
<g id="edge6" class="edge">
<title>state&#45;1&#45;&gt;end</title>
<path fill="none" stroke="black" d="M228.66,-78.59C265.2,-66 323.97,-45.74 362.67,-32.4"/>
<polygon fill="black" stroke="black" points="363.77,-35.73 372.08,-29.16 361.49,-29.11 363.77,-35.73"/>
</g>
<!-- state&#45;2&#45;&gt;state -->
<g id="edge7" class="edge">
<title>state&#45;2&#45;&gt;state</title>
<path fill="none" stroke="black" d="M435.09,-103.38C445.8,-108.78 456.44,-116.43 462.56,-127 482.61,-161.61 487.28,-185.55 462.56,-217 450.71,-232.08 403.83,-241.46 366.74,-246.67"/>
<polygon fill="black" stroke="black" points="366.54,-243.17 357.09,-247.96 367.46,-250.11 366.54,-243.17"/>
<text text-anchor="start" x="478.56" y="-168.3" font-family="Times,serif" font-size="14.00">click(&#39;order form&#39;)</text>
</g>
<!-- state&#45;2&#45;&gt;end -->
<g id="edge8" class="edge">
<title>state&#45;2&#45;&gt;end</title>
<path fill="none" stroke="black" d="M401.56,-72.81C401.56,-65.23 401.56,-56.1 401.56,-47.54"/>
<polygon fill="black" stroke="black" points="405.06,-47.54 401.56,-37.54 398.06,-47.54 405.06,-47.54"/>
</g>
</g>
</svg>
