<?xml version="1.0" encoding="UTF-8" standalone="no"?>
<!DOCTYPE svg PUBLIC "-//W3C//DTD SVG 1.1//EN"
 "http://www.w3.org/Graphics/SVG/1.1/DTD/svg11.dtd">
<!-- Generated by graphviz version 2.49.3 (20211023.0002)
 -->
<!-- Pages: 1 -->
<svg width="487pt" height="352pt"
 viewBox="0.00 0.00 487.48 352.00" xmlns="http://www.w3.org/2000/svg" xmlns:xlink="http://www.w3.org/1999/xlink">
<g id="graph0" class="graph" transform="scale(1 1) rotate(0) translate(4 348)">
<polygon fill="white" stroke="transparent" points="-4,4 -4,-348 483.48,-348 483.48,4 -4,4"/>
<!-- start -->
<g id="node1" class="node">
<title>start</title>
<ellipse fill="none" stroke="black" cx="280.5" cy="-326" rx="36.29" ry="18"/>
<text text-anchor="middle" x="280.5" y="-322.3" font-family="Times,serif" font-size="14.00">&lt;start&gt;</text>
</g>
<!-- state -->
<g id="node2" class="node">
<title>state</title>
<ellipse fill="none" stroke="black" cx="280.5" cy="-253" rx="37.89" ry="18"/>
<text text-anchor="middle" x="280.5" y="-249.3" font-family="Times,serif" font-size="14.00">&lt;state&gt;</text>
</g>
<!-- start&#45;&gt;state -->
<g id="edge1" class="edge">
<title>start&#45;&gt;state</title>
<path fill="none" stroke="black" d="M280.5,-307.81C280.5,-299.79 280.5,-290.05 280.5,-281.07"/>
<polygon fill="black" stroke="black" points="284,-281.03 280.5,-271.03 277,-281.03 284,-281.03"/>
</g>
<!-- state&#45;1 -->
<g id="node3" class="node">
<title>state&#45;1</title>
<ellipse fill="none" stroke="black" cx="45.5" cy="-91" rx="45.49" ry="18"/>
<text text-anchor="middle" x="45.5" y="-87.3" font-family="Times,serif" font-size="14.00">&lt;state&#45;1&gt;</text>
</g>
<!-- state&#45;&gt;state&#45;1 -->
<g id="edge2" class="edge">
<title>state&#45;&gt;state&#45;1</title>
<path fill="none" stroke="black" d="M242.56,-252.79C176.89,-253.25 46.29,-249.88 17.5,-217 -8.86,-186.91 4.26,-164.75 17.5,-127 18.82,-123.23 20.74,-119.56 22.97,-116.1"/>
<polygon fill="black" stroke="black" points="25.82,-118.13 28.96,-108.02 20.19,-113.97 25.82,-118.13"/>
<text text-anchor="start" x="17.5" y="-168.3" font-family="Times,serif" font-size="14.00">click(&#39;terms and conditions&#39;)</text>
</g>
<!-- state&#45;2 -->
<g id="node4" class="node">
<title>state&#45;2</title>
<ellipse fill="none" stroke="black" cx="304.5" cy="-91" rx="45.49" ry="18"/>
<text text-anchor="middle" x="304.5" y="-87.3" font-family="Times,serif" font-size="14.00">&lt;state&#45;2&gt;</text>
</g>
<!-- state&#45;&gt;state&#45;2 -->
<g id="edge3" class="edge">
<title>state&#45;&gt;state&#45;2</title>
<path fill="none" stroke="black" d="M245.18,-246.45C227.71,-241.73 208.13,-233.03 197.5,-217 175.38,-183.67 174.02,-159.38 197.5,-127 204.68,-117.09 230.45,-108.5 254.89,-102.31"/>
<polygon fill="black" stroke="black" points="255.97,-105.65 264.87,-99.89 254.33,-98.85 255.97,-105.65"/>
<text text-anchor="start" x="197.5" y="-205.8" font-family="Times,serif" font-size="14.00">check(&#39;terms&#39;, &lt;boolean&gt;)</text>
<text text-anchor="start" x="197.5" y="-190.8" font-family="Times,serif" font-size="14.00">fill(&#39;email&#39;, &#39;&lt;email&gt;&#39;)</text>
<text text-anchor="start" x="197.5" y="-175.8" font-family="Times,serif" font-size="14.00">fill(&#39;zip&#39;, &#39;&lt;number&gt;&#39;)</text>
<text text-anchor="start" x="197.5" y="-160.8" font-family="Times,serif" font-size="14.00">fill(&#39;name&#39;, &#39;&lt;text&gt;&#39;)</text>
<text text-anchor="start" x="197.5" y="-145.8" font-family="Times,serif" font-size="14.00">fill(&#39;city&#39;, &#39;&lt;text&gt;&#39;)</text>
<text text-anchor="start" x="197.5" y="-130.8" font-family="Times,serif" font-size="14.00">submit(&#39;submit&#39;)</text>
</g>
<!-- end -->
<g id="node5" class="node">
<title>end</title>
<ellipse fill="none" stroke="black" cx="304.5" cy="-18" rx="34.39" ry="18"/>
<text text-anchor="middle" x="304.5" y="-14.3" font-family="Times,serif" font-size="14.00">&lt;end&gt;</text>
</g>
<!-- state&#45;&gt;end -->
<g id="edge4" class="edge">
<title>state&#45;&gt;end</title>
<path fill="none" stroke="black" d="M317.83,-250.25C365.65,-247.14 444.51,-238.77 462.5,-217 487.97,-186.16 481.17,-162.38 462.5,-127 437.3,-79.25 380.44,-48.61 342.26,-32.59"/>
<polygon fill="black" stroke="black" points="343.09,-29.15 332.51,-28.65 340.46,-35.64 343.09,-29.15"/>
</g>
<!-- state&#45;1&#45;&gt;state&#45;1 -->
<g id="edge5" class="edge">
<title>state&#45;1&#45;&gt;state&#45;1</title>
<path fill="none" stroke="black" d="M87.93,-97.72C99.85,-97.42 108.99,-95.18 108.99,-91 108.99,-88.12 104.67,-86.17 98.09,-85.13"/>
<polygon fill="black" stroke="black" points="98.19,-81.62 87.93,-84.28 97.6,-88.6 98.19,-81.62"/>
<text text-anchor="start" x="108.99" y="-87.3" font-family="Times,serif" font-size="14.00">click(&#39;order form&#39;)</text>
</g>
<!-- state&#45;1&#45;&gt;end -->
<g id="edge6" class="edge">
<title>state&#45;1&#45;&gt;end</title>
<path fill="none" stroke="black" d="M81.78,-80.05C129.97,-66.84 214.8,-43.59 264.7,-29.91"/>
<polygon fill="black" stroke="black" points="265.77,-33.24 274.49,-27.23 263.92,-26.49 265.77,-33.24"/>
</g>
<!-- state&#45;2&#45;&gt;state -->
<g id="edge7" class="edge">
<title>state&#45;2&#45;&gt;state</title>
<path fill="none" stroke="black" d="M327.4,-106.93C333.83,-112.4 340.01,-119.19 343.5,-127 359.8,-163.53 363.78,-182.53 343.5,-217 338.21,-225.98 329.7,-232.82 320.63,-237.96"/>
<polygon fill="black" stroke="black" points="318.83,-234.95 311.46,-242.55 321.96,-241.2 318.83,-234.95"/>
<text text-anchor="start" x="356.5" y="-168.3" font-family="Times,serif" font-size="14.00">click(&#39;order form&#39;)</text>
</g>
<!-- state&#45;2&#45;&gt;end -->
<g id="edge8" class="edge">
<title>state&#45;2&#45;&gt;end</title>
<path fill="none" stroke="black" d="M304.5,-72.81C304.5,-64.79 304.5,-55.05 304.5,-46.07"/>
<polygon fill="black" stroke="black" points="308,-46.03 304.5,-36.03 301,-46.03 308,-46.03"/>
</g>
</g>
</svg>
