<?xml version="1.0" encoding="UTF-8" standalone="no"?>
<!DOCTYPE svg PUBLIC "-//W3C//DTD SVG 1.1//EN"
 "http://www.w3.org/Graphics/SVG/1.1/DTD/svg11.dtd">
<!-- Generated by graphviz version 2.40.1 (20161225.0304)
 -->
<!-- Title: %3 Pages: 1 -->
<svg width="256pt" height="227pt"
 viewBox="0.00 0.00 256.00 227.00" xmlns="http://www.w3.org/2000/svg" xmlns:xlink="http://www.w3.org/1999/xlink">
<g id="graph0" class="graph" transform="scale(1 1) rotate(0) translate(4 223)">
<title>%3</title>
<polygon fill="#ffffff" stroke="transparent" points="-4,4 -4,-223 252,-223 252,4 -4,4"/>
<!-- 0 -->
<g id="node1" class="node">
<title>0</title>
<text text-anchor="middle" x="169.5" y="-207.8" font-family="Times,serif" font-size="14.00" fill="#000000">&lt;start&gt;</text>
</g>
<!-- 1 -->
<g id="node2" class="node">
<title>1</title>
<text text-anchor="middle" x="169.5" y="-156.8" font-family="Times,serif" font-size="14.00" fill="#000000">&lt;expr&gt;</text>
</g>
<!-- 0&#45;&gt;1 -->
<g id="edge1" class="edge">
<title>0&#45;&gt;1</title>
<path fill="none" stroke="#000000" d="M169.5,-203.9748C169.5,-197.195 169.5,-186.966 169.5,-178.1331"/>
<polygon fill="#000000" stroke="#000000" points="173.0001,-178.0561 169.5,-168.0561 166.0001,-178.0561 173.0001,-178.0561"/>
</g>
<!-- 2 -->
<g id="node3" class="node">
<title>2</title>
<text text-anchor="middle" x="119.5" y="-105.8" font-family="Times,serif" font-size="14.00" fill="#000000">&lt;expr&gt;</text>
</g>
<!-- 1&#45;&gt;2 -->
<g id="edge2" class="edge">
<title>1&#45;&gt;2</title>
<path fill="none" stroke="#000000" d="M162.1223,-152.9748C154.7369,-145.4417 143.1768,-133.6503 133.958,-124.2472"/>
<polygon fill="#000000" stroke="#000000" points="136.4079,-121.7466 126.9079,-117.0561 131.4094,-126.6471 136.4079,-121.7466"/>
</g>
<!-- 9 -->
<g id="node10" class="node">
<title>9</title>
<text text-anchor="middle" x="169.5" y="-105.8" font-family="Times,serif" font-size="14.00" fill="#000000"> + </text>
</g>
<!-- 1&#45;&gt;9 -->
<g id="edge9" class="edge">
<title>1&#45;&gt;9</title>
<path fill="none" stroke="#000000" d="M169.5,-152.9748C169.5,-146.195 169.5,-135.966 169.5,-127.1331"/>
<polygon fill="#000000" stroke="#000000" points="173.0001,-127.0561 169.5,-117.0561 166.0001,-127.0561 173.0001,-127.0561"/>
</g>
<!-- 10 -->
<g id="node11" class="node">
<title>10</title>
<text text-anchor="middle" x="218.5" y="-105.8" font-family="Times,serif" font-size="14.00" fill="#000000">&lt;term&gt;</text>
</g>
<!-- 1&#45;&gt;10 -->
<g id="edge10" class="edge">
<title>1&#45;&gt;10</title>
<path fill="none" stroke="#000000" d="M176.7301,-152.9748C183.8954,-145.517 195.0706,-133.8857 204.0594,-124.53"/>
<polygon fill="#000000" stroke="#000000" points="206.8358,-126.6921 211.2402,-117.0561 201.7881,-121.8423 206.8358,-126.6921"/>
</g>
<!-- 3 -->
<g id="node4" class="node">
<title>3</title>
<text text-anchor="middle" x="66.5" y="-54.8" font-family="Times,serif" font-size="14.00" fill="#000000">&lt;expr&gt;</text>
</g>
<!-- 2&#45;&gt;3 -->
<g id="edge3" class="edge">
<title>2&#45;&gt;3</title>
<path fill="none" stroke="#000000" d="M111.6797,-101.9748C103.8511,-94.4417 91.5974,-82.6503 81.8255,-73.2472"/>
<polygon fill="#000000" stroke="#000000" points="83.985,-70.4679 74.3524,-66.0561 79.1313,-75.5119 83.985,-70.4679"/>
</g>
<!-- 7 -->
<g id="node8" class="node">
<title>7</title>
<text text-anchor="middle" x="111.5" y="-54.8" font-family="Times,serif" font-size="14.00" fill="#000000"> &#45; </text>
</g>
<!-- 2&#45;&gt;7 -->
<g id="edge7" class="edge">
<title>2&#45;&gt;7</title>
<path fill="none" stroke="#000000" d="M118.3196,-101.9748C117.2561,-95.195 115.6515,-84.966 114.266,-76.1331"/>
<polygon fill="#000000" stroke="#000000" points="117.6927,-75.3929 112.6853,-66.0561 110.7773,-76.4777 117.6927,-75.3929"/>
</g>
<!-- 8 -->
<g id="node9" class="node">
<title>8</title>
<text text-anchor="middle" x="156.5" y="-54.8" font-family="Times,serif" font-size="14.00" fill="#000000">&lt;term&gt;</text>
</g>
<!-- 2&#45;&gt;8 -->
<g id="edge8" class="edge">
<title>2&#45;&gt;8</title>
<path fill="none" stroke="#000000" d="M124.9595,-101.9748C130.2061,-94.743 138.2998,-83.5868 144.9744,-74.3866"/>
<polygon fill="#000000" stroke="#000000" points="147.9788,-76.2056 151.0181,-66.0561 142.3128,-72.095 147.9788,-76.2056"/>
</g>
<!-- 4 -->
<g id="node5" class="node">
<title>4</title>
<text text-anchor="middle" x="20.5" y="-3.8" font-family="Times,serif" font-size="14.00" fill="#000000">&lt;expr&gt;</text>
</g>
<!-- 3&#45;&gt;4 -->
<g id="edge4" class="edge">
<title>3&#45;&gt;4</title>
<path fill="none" stroke="#000000" d="M59.7125,-50.9748C52.9859,-43.517 42.495,-31.8857 34.0564,-22.53"/>
<polygon fill="#000000" stroke="#000000" points="36.612,-20.1376 27.3153,-15.0561 31.414,-24.826 36.612,-20.1376"/>
</g>
<!-- 5 -->
<g id="node6" class="node">
<title>5</title>
<text text-anchor="middle" x="66.5" y="-3.8" font-family="Times,serif" font-size="14.00" fill="#000000"> + </text>
</g>
<!-- 3&#45;&gt;5 -->
<g id="edge5" class="edge">
<title>3&#45;&gt;5</title>
<path fill="none" stroke="#000000" d="M66.5,-50.9748C66.5,-44.195 66.5,-33.966 66.5,-25.1331"/>
<polygon fill="#000000" stroke="#000000" points="70.0001,-25.0561 66.5,-15.0561 63.0001,-25.0561 70.0001,-25.0561"/>
</g>
<!-- 6 -->
<g id="node7" class="node">
<title>6</title>
<text text-anchor="middle" x="113.5" y="-3.8" font-family="Times,serif" font-size="14.00" fill="#000000">&lt;term&gt;</text>
</g>
<!-- 3&#45;&gt;6 -->
<g id="edge6" class="edge">
<title>3&#45;&gt;6</title>
<path fill="none" stroke="#000000" d="M73.435,-50.9748C80.3079,-43.517 91.0269,-31.8857 99.6488,-22.53"/>
<polygon fill="#000000" stroke="#000000" points="102.3334,-24.7816 106.5365,-15.0561 97.1859,-20.0378 102.3334,-24.7816"/>
</g>
<!-- 11 -->
<g id="node12" class="node">
<title>11</title>
<text text-anchor="middle" x="220.5" y="-54.8" font-family="Times,serif" font-size="14.00" fill="#000000">&lt;factor&gt;</text>
</g>
<!-- 10&#45;&gt;11 -->
<g id="edge11" class="edge">
<title>10&#45;&gt;11</title>
<path fill="none" stroke="#000000" d="M218.7951,-101.9748C219.061,-95.195 219.4621,-84.966 219.8085,-76.1331"/>
<polygon fill="#000000" stroke="#000000" points="223.309,-76.1856 220.2037,-66.0561 216.3144,-75.9112 223.309,-76.1856"/>
</g>
<!-- 12 -->
<g id="node13" class="node">
<title>12</title>
<text text-anchor="middle" x="220.5" y="-3.8" font-family="Times,serif" font-size="14.00" fill="#000000">&lt;integer&gt;</text>
</g>
<!-- 11&#45;&gt;12 -->
<g id="edge12" class="edge">
<title>11&#45;&gt;12</title>
<path fill="none" stroke="#000000" d="M220.5,-50.9748C220.5,-44.195 220.5,-33.966 220.5,-25.1331"/>
<polygon fill="#000000" stroke="#000000" points="224.0001,-25.0561 220.5,-15.0561 217.0001,-25.0561 224.0001,-25.0561"/>
</g>
</g>
</svg>
