<?xml version="1.0" encoding="UTF-8" standalone="no"?>
<!DOCTYPE svg PUBLIC "-//W3C//DTD SVG 1.1//EN"
 "http://www.w3.org/Graphics/SVG/1.1/DTD/svg11.dtd">
<!-- Generated by graphviz version 2.40.1 (20161225.0304)
 -->
<!-- Title: %3 Pages: 1 -->
<svg width="234pt" height="227pt"
 viewBox="0.00 0.00 233.50 227.00" xmlns="http://www.w3.org/2000/svg" xmlns:xlink="http://www.w3.org/1999/xlink">
<g id="graph0" class="graph" transform="scale(1 1) rotate(0) translate(4 223)">
<title>%3</title>
<polygon fill="#ffffff" stroke="transparent" points="-4,4 -4,-223 229.5,-223 229.5,4 -4,4"/>
<!-- 0 -->
<g id="node1" class="node">
<title>0</title>
<text text-anchor="middle" x="157.5" y="-207.8" font-family="Times,serif" font-size="14.00" fill="#000000">&lt;start&gt;</text>
</g>
<!-- 1 -->
<g id="node2" class="node">
<title>1</title>
<text text-anchor="middle" x="157.5" y="-156.8" font-family="Times,serif" font-size="14.00" fill="#000000">&lt;expr&gt;</text>
</g>
<!-- 0&#45;&gt;1 -->
<g id="edge1" class="edge">
<title>0&#45;&gt;1</title>
<path fill="none" stroke="#000000" d="M157.5,-203.9748C157.5,-197.195 157.5,-186.966 157.5,-178.1331"/>
<polygon fill="#000000" stroke="#000000" points="161.0001,-178.0561 157.5,-168.0561 154.0001,-178.0561 161.0001,-178.0561"/>
</g>
<!-- 2 -->
<g id="node3" class="node">
<title>2</title>
<text text-anchor="middle" x="111.5" y="-105.8" font-family="Times,serif" font-size="14.00" fill="#000000">&lt;expr&gt;</text>
</g>
<!-- 1&#45;&gt;2 -->
<g id="edge2" class="edge">
<title>1&#45;&gt;2</title>
<path fill="none" stroke="#000000" d="M150.7125,-152.9748C143.9859,-145.517 133.495,-133.8857 125.0564,-124.53"/>
<polygon fill="#000000" stroke="#000000" points="127.612,-122.1376 118.3153,-117.0561 122.414,-126.826 127.612,-122.1376"/>
</g>
<!-- 9 -->
<g id="node10" class="node">
<title>9</title>
<text text-anchor="middle" x="157.5" y="-105.8" font-family="Times,serif" font-size="14.00" fill="#000000"> + </text>
</g>
<!-- 1&#45;&gt;9 -->
<g id="edge9" class="edge">
<title>1&#45;&gt;9</title>
<path fill="none" stroke="#000000" d="M157.5,-152.9748C157.5,-146.195 157.5,-135.966 157.5,-127.1331"/>
<polygon fill="#000000" stroke="#000000" points="161.0001,-127.0561 157.5,-117.0561 154.0001,-127.0561 161.0001,-127.0561"/>
</g>
<!-- 10 -->
<g id="node11" class="node">
<title>10</title>
<text text-anchor="middle" x="204.5" y="-105.8" font-family="Times,serif" font-size="14.00" fill="#000000">&lt;term&gt;</text>
</g>
<!-- 1&#45;&gt;10 -->
<g id="edge10" class="edge">
<title>1&#45;&gt;10</title>
<path fill="none" stroke="#000000" d="M164.435,-152.9748C171.3079,-145.517 182.0269,-133.8857 190.6488,-124.53"/>
<polygon fill="#000000" stroke="#000000" points="193.3334,-126.7816 197.5365,-117.0561 188.1859,-122.0378 193.3334,-126.7816"/>
</g>
<!-- 3 -->
<g id="node4" class="node">
<title>3</title>
<text text-anchor="middle" x="66.5" y="-54.8" font-family="Times,serif" font-size="14.00" fill="#000000">&lt;expr&gt;</text>
</g>
<!-- 2&#45;&gt;3 -->
<g id="edge3" class="edge">
<title>2&#45;&gt;3</title>
<path fill="none" stroke="#000000" d="M104.8601,-101.9748C98.3462,-94.5923 88.2238,-83.1203 80.0125,-73.8142"/>
<polygon fill="#000000" stroke="#000000" points="82.4078,-71.2388 73.1671,-66.0561 77.159,-75.8702 82.4078,-71.2388"/>
</g>
<!-- 7 -->
<g id="node8" class="node">
<title>7</title>
<text text-anchor="middle" x="111.5" y="-54.8" font-family="Times,serif" font-size="14.00" fill="#000000"> &#45; </text>
</g>
<!-- 2&#45;&gt;7 -->
<g id="edge7" class="edge">
<title>2&#45;&gt;7</title>
<path fill="none" stroke="#000000" d="M111.5,-101.9748C111.5,-95.195 111.5,-84.966 111.5,-76.1331"/>
<polygon fill="#000000" stroke="#000000" points="115.0001,-76.0561 111.5,-66.0561 108.0001,-76.0561 115.0001,-76.0561"/>
</g>
<!-- 8 -->
<g id="node9" class="node">
<title>8</title>
<text text-anchor="middle" x="156.5" y="-54.8" font-family="Times,serif" font-size="14.00" fill="#000000">&lt;term&gt;</text>
</g>
<!-- 2&#45;&gt;8 -->
<g id="edge8" class="edge">
<title>2&#45;&gt;8</title>
<path fill="none" stroke="#000000" d="M118.1399,-101.9748C124.6538,-94.5923 134.7762,-83.1203 142.9875,-73.8142"/>
<polygon fill="#000000" stroke="#000000" points="145.841,-75.8702 149.8329,-66.0561 140.5922,-71.2388 145.841,-75.8702"/>
</g>
<!-- 4 -->
<g id="node5" class="node">
<title>4</title>
<text text-anchor="middle" x="20.5" y="-3.8" font-family="Times,serif" font-size="14.00" fill="#000000">&lt;expr&gt;</text>
</g>
<!-- 3&#45;&gt;4 -->
<g id="edge4" class="edge">
<title>3&#45;&gt;4</title>
<path fill="none" stroke="#000000" d="M59.7125,-50.9748C52.9859,-43.517 42.495,-31.8857 34.0564,-22.53"/>
<polygon fill="#000000" stroke="#000000" points="36.612,-20.1376 27.3153,-15.0561 31.414,-24.826 36.612,-20.1376"/>
</g>
<!-- 5 -->
<g id="node6" class="node">
<title>5</title>
<text text-anchor="middle" x="66.5" y="-3.8" font-family="Times,serif" font-size="14.00" fill="#000000"> + </text>
</g>
<!-- 3&#45;&gt;5 -->
<g id="edge5" class="edge">
<title>3&#45;&gt;5</title>
<path fill="none" stroke="#000000" d="M66.5,-50.9748C66.5,-44.195 66.5,-33.966 66.5,-25.1331"/>
<polygon fill="#000000" stroke="#000000" points="70.0001,-25.0561 66.5,-15.0561 63.0001,-25.0561 70.0001,-25.0561"/>
</g>
<!-- 6 -->
<g id="node7" class="node">
<title>6</title>
<text text-anchor="middle" x="113.5" y="-3.8" font-family="Times,serif" font-size="14.00" fill="#000000">&lt;term&gt;</text>
</g>
<!-- 3&#45;&gt;6 -->
<g id="edge6" class="edge">
<title>3&#45;&gt;6</title>
<path fill="none" stroke="#000000" d="M73.435,-50.9748C80.3079,-43.517 91.0269,-31.8857 99.6488,-22.53"/>
<polygon fill="#000000" stroke="#000000" points="102.3334,-24.7816 106.5365,-15.0561 97.1859,-20.0378 102.3334,-24.7816"/>
</g>
</g>
</svg>
