<?xml version="1.0" encoding="UTF-8" standalone="no"?>
<!DOCTYPE svg PUBLIC "-//W3C//DTD SVG 1.1//EN"
 "http://www.w3.org/Graphics/SVG/1.1/DTD/svg11.dtd">
<!-- Generated by graphviz version 2.40.1 (20161225.0304)
 -->
<!-- Title: %3 Pages: 1 -->
<svg width="143pt" height="125pt"
 viewBox="0.00 0.00 142.50 125.00" xmlns="http://www.w3.org/2000/svg" xmlns:xlink="http://www.w3.org/1999/xlink">
<g id="graph0" class="graph" transform="scale(1 1) rotate(0) translate(4 121)">
<title>%3</title>
<polygon fill="#ffffff" stroke="transparent" points="-4,4 -4,-121 138.5,-121 138.5,4 -4,4"/>
<!-- 0 -->
<g id="node1" class="node">
<title>0</title>
<text text-anchor="middle" x="66.5" y="-105.8" font-family="Times,serif" font-size="14.00" fill="#000000">&lt;start&gt;</text>
</g>
<!-- 1 -->
<g id="node2" class="node">
<title>1</title>
<text text-anchor="middle" x="66.5" y="-54.8" font-family="Times,serif" font-size="14.00" fill="#000000">&lt;expr&gt;</text>
</g>
<!-- 0&#45;&gt;1 -->
<g id="edge1" class="edge">
<title>0&#45;&gt;1</title>
<path fill="none" stroke="#000000" d="M66.5,-101.9748C66.5,-95.195 66.5,-84.966 66.5,-76.1331"/>
<polygon fill="#000000" stroke="#000000" points="70.0001,-76.0561 66.5,-66.0561 63.0001,-76.0561 70.0001,-76.0561"/>
</g>
<!-- 2 -->
<g id="node3" class="node">
<title>2</title>
<text text-anchor="middle" x="20.5" y="-3.8" font-family="Times,serif" font-size="14.00" fill="#000000">&lt;expr&gt;</text>
</g>
<!-- 1&#45;&gt;2 -->
<g id="edge2" class="edge">
<title>1&#45;&gt;2</title>
<path fill="none" stroke="#000000" d="M59.7125,-50.9748C52.9859,-43.517 42.495,-31.8857 34.0564,-22.53"/>
<polygon fill="#000000" stroke="#000000" points="36.612,-20.1376 27.3153,-15.0561 31.414,-24.826 36.612,-20.1376"/>
</g>
<!-- 3 -->
<g id="node4" class="node">
<title>3</title>
<text text-anchor="middle" x="66.5" y="-3.8" font-family="Times,serif" font-size="14.00" fill="#000000"> + </text>
</g>
<!-- 1&#45;&gt;3 -->
<g id="edge3" class="edge">
<title>1&#45;&gt;3</title>
<path fill="none" stroke="#000000" d="M66.5,-50.9748C66.5,-44.195 66.5,-33.966 66.5,-25.1331"/>
<polygon fill="#000000" stroke="#000000" points="70.0001,-25.0561 66.5,-15.0561 63.0001,-25.0561 70.0001,-25.0561"/>
</g>
<!-- 4 -->
<g id="node5" class="node">
<title>4</title>
<text text-anchor="middle" x="113.5" y="-3.8" font-family="Times,serif" font-size="14.00" fill="#000000">&lt;term&gt;</text>
</g>
<!-- 1&#45;&gt;4 -->
<g id="edge4" class="edge">
<title>1&#45;&gt;4</title>
<path fill="none" stroke="#000000" d="M73.435,-50.9748C80.3079,-43.517 91.0269,-31.8857 99.6488,-22.53"/>
<polygon fill="#000000" stroke="#000000" points="102.3334,-24.7816 106.5365,-15.0561 97.1859,-20.0378 102.3334,-24.7816"/>
</g>
</g>
</svg>
