<?xml version="1.0" encoding="UTF-8" standalone="no"?>
<!DOCTYPE svg PUBLIC "-//W3C//DTD SVG 1.1//EN"
 "http://www.w3.org/Graphics/SVG/1.1/DTD/svg11.dtd">
<!-- Generated by graphviz version 2.40.1 (20161225.0304)
 -->
<!-- Title: %3 Pages: 1 -->
<svg width="287pt" height="329pt"
 viewBox="0.00 0.00 287.00 329.00" xmlns="http://www.w3.org/2000/svg" xmlns:xlink="http://www.w3.org/1999/xlink">
<g id="graph0" class="graph" transform="scale(1 1) rotate(0) translate(4 325)">
<title>%3</title>
<polygon fill="#ffffff" stroke="transparent" points="-4,4 -4,-325 283,-325 283,4 -4,4"/>
<!-- 0 -->
<g id="node1" class="node">
<title>0</title>
<text text-anchor="middle" x="194.5" y="-309.8" font-family="Times,serif" font-size="14.00" fill="#000000">&lt;start&gt;</text>
</g>
<!-- 1 -->
<g id="node2" class="node">
<title>1</title>
<text text-anchor="middle" x="194.5" y="-258.8" font-family="Times,serif" font-size="14.00" fill="#000000">&lt;expr&gt;</text>
</g>
<!-- 0&#45;&gt;1 -->
<g id="edge1" class="edge">
<title>0&#45;&gt;1</title>
<path fill="none" stroke="#000000" d="M194.5,-305.9748C194.5,-299.195 194.5,-288.966 194.5,-280.1331"/>
<polygon fill="#000000" stroke="#000000" points="198.0001,-280.0561 194.5,-270.0561 191.0001,-280.0561 198.0001,-280.0561"/>
</g>
<!-- 2 -->
<g id="node3" class="node">
<title>2</title>
<text text-anchor="middle" x="144.5" y="-207.8" font-family="Times,serif" font-size="14.00" fill="#000000">&lt;expr&gt;</text>
</g>
<!-- 1&#45;&gt;2 -->
<g id="edge2" class="edge">
<title>1&#45;&gt;2</title>
<path fill="none" stroke="#000000" d="M187.1223,-254.9748C179.7369,-247.4417 168.1768,-235.6503 158.958,-226.2472"/>
<polygon fill="#000000" stroke="#000000" points="161.4079,-223.7466 151.9079,-219.0561 156.4094,-228.6471 161.4079,-223.7466"/>
</g>
<!-- 12 -->
<g id="node13" class="node">
<title>12</title>
<text text-anchor="middle" x="194.5" y="-207.8" font-family="Times,serif" font-size="14.00" fill="#000000"> + </text>
</g>
<!-- 1&#45;&gt;12 -->
<g id="edge12" class="edge">
<title>1&#45;&gt;12</title>
<path fill="none" stroke="#000000" d="M194.5,-254.9748C194.5,-248.195 194.5,-237.966 194.5,-229.1331"/>
<polygon fill="#000000" stroke="#000000" points="198.0001,-229.0561 194.5,-219.0561 191.0001,-229.0561 198.0001,-229.0561"/>
</g>
<!-- 13 -->
<g id="node14" class="node">
<title>13</title>
<text text-anchor="middle" x="243.5" y="-207.8" font-family="Times,serif" font-size="14.00" fill="#000000">&lt;term&gt;</text>
</g>
<!-- 1&#45;&gt;13 -->
<g id="edge13" class="edge">
<title>1&#45;&gt;13</title>
<path fill="none" stroke="#000000" d="M201.7301,-254.9748C208.8954,-247.517 220.0706,-235.8857 229.0594,-226.53"/>
<polygon fill="#000000" stroke="#000000" points="231.8358,-228.6921 236.2402,-219.0561 226.7881,-223.8423 231.8358,-228.6921"/>
</g>
<!-- 3 -->
<g id="node4" class="node">
<title>3</title>
<text text-anchor="middle" x="81.5" y="-156.8" font-family="Times,serif" font-size="14.00" fill="#000000">&lt;expr&gt;</text>
</g>
<!-- 2&#45;&gt;3 -->
<g id="edge3" class="edge">
<title>2&#45;&gt;3</title>
<path fill="none" stroke="#000000" d="M135.2041,-203.9748C125.6193,-196.2157 110.4541,-183.939 98.6799,-174.4075"/>
<polygon fill="#000000" stroke="#000000" points="100.8087,-171.6278 90.834,-168.0561 96.4043,-177.0685 100.8087,-171.6278"/>
</g>
<!-- 9 -->
<g id="node10" class="node">
<title>9</title>
<text text-anchor="middle" x="136.5" y="-156.8" font-family="Times,serif" font-size="14.00" fill="#000000"> &#45; </text>
</g>
<!-- 2&#45;&gt;9 -->
<g id="edge9" class="edge">
<title>2&#45;&gt;9</title>
<path fill="none" stroke="#000000" d="M143.3196,-203.9748C142.2561,-197.195 140.6515,-186.966 139.266,-178.1331"/>
<polygon fill="#000000" stroke="#000000" points="142.6927,-177.3929 137.6853,-168.0561 135.7773,-178.4777 142.6927,-177.3929"/>
</g>
<!-- 10 -->
<g id="node11" class="node">
<title>10</title>
<text text-anchor="middle" x="181.5" y="-156.8" font-family="Times,serif" font-size="14.00" fill="#000000">&lt;term&gt;</text>
</g>
<!-- 2&#45;&gt;10 -->
<g id="edge10" class="edge">
<title>2&#45;&gt;10</title>
<path fill="none" stroke="#000000" d="M149.9595,-203.9748C155.2061,-196.743 163.2998,-185.5868 169.9744,-176.3866"/>
<polygon fill="#000000" stroke="#000000" points="172.9788,-178.2056 176.0181,-168.0561 167.3128,-174.095 172.9788,-178.2056"/>
</g>
<!-- 4 -->
<g id="node5" class="node">
<title>4</title>
<text text-anchor="middle" x="24.5" y="-105.8" font-family="Times,serif" font-size="14.00" fill="#000000">&lt;expr&gt;</text>
</g>
<!-- 3&#45;&gt;4 -->
<g id="edge4" class="edge">
<title>3&#45;&gt;4</title>
<path fill="none" stroke="#000000" d="M73.0895,-152.9748C64.5859,-145.3663 51.2275,-133.4141 40.6677,-123.9658"/>
<polygon fill="#000000" stroke="#000000" points="42.7313,-121.1157 32.9451,-117.0561 38.0637,-126.3324 42.7313,-121.1157"/>
</g>
<!-- 7 -->
<g id="node8" class="node">
<title>7</title>
<text text-anchor="middle" x="70.5" y="-105.8" font-family="Times,serif" font-size="14.00" fill="#000000"> + </text>
</g>
<!-- 3&#45;&gt;7 -->
<g id="edge7" class="edge">
<title>3&#45;&gt;7</title>
<path fill="none" stroke="#000000" d="M79.8769,-152.9748C78.3984,-146.1196 76.1592,-135.7383 74.2398,-126.8392"/>
<polygon fill="#000000" stroke="#000000" points="77.6595,-126.0934 72.1297,-117.0561 70.8169,-127.5693 77.6595,-126.0934"/>
</g>
<!-- 8 -->
<g id="node9" class="node">
<title>8</title>
<text text-anchor="middle" x="117.5" y="-105.8" font-family="Times,serif" font-size="14.00" fill="#000000">&lt;term&gt;</text>
</g>
<!-- 3&#45;&gt;8 -->
<g id="edge8" class="edge">
<title>3&#45;&gt;8</title>
<path fill="none" stroke="#000000" d="M86.8119,-152.9748C91.9167,-145.743 99.7916,-134.5868 106.2859,-125.3866"/>
<polygon fill="#000000" stroke="#000000" points="109.2588,-127.2442 112.1663,-117.0561 103.54,-123.2074 109.2588,-127.2442"/>
</g>
<!-- 5 -->
<g id="node6" class="node">
<title>5</title>
<text text-anchor="middle" x="24.5" y="-54.8" font-family="Times,serif" font-size="14.00" fill="#000000">&lt;term&gt;</text>
</g>
<!-- 4&#45;&gt;5 -->
<g id="edge5" class="edge">
<title>4&#45;&gt;5</title>
<path fill="none" stroke="#000000" d="M24.5,-101.9748C24.5,-95.195 24.5,-84.966 24.5,-76.1331"/>
<polygon fill="#000000" stroke="#000000" points="28.0001,-76.0561 24.5,-66.0561 21.0001,-76.0561 28.0001,-76.0561"/>
</g>
<!-- 6 -->
<g id="node7" class="node">
<title>6</title>
<text text-anchor="middle" x="24.5" y="-3.8" font-family="Times,serif" font-size="14.00" fill="#000000">&lt;factor&gt;</text>
</g>
<!-- 5&#45;&gt;6 -->
<g id="edge6" class="edge">
<title>5&#45;&gt;6</title>
<path fill="none" stroke="#000000" d="M24.5,-50.9748C24.5,-44.195 24.5,-33.966 24.5,-25.1331"/>
<polygon fill="#000000" stroke="#000000" points="28.0001,-25.0561 24.5,-15.0561 21.0001,-25.0561 28.0001,-25.0561"/>
</g>
<!-- 11 -->
<g id="node12" class="node">
<title>11</title>
<text text-anchor="middle" x="181.5" y="-105.8" font-family="Times,serif" font-size="14.00" fill="#000000">&lt;factor&gt;</text>
</g>
<!-- 10&#45;&gt;11 -->
<g id="edge11" class="edge">
<title>10&#45;&gt;11</title>
<path fill="none" stroke="#000000" d="M181.5,-152.9748C181.5,-146.195 181.5,-135.966 181.5,-127.1331"/>
<polygon fill="#000000" stroke="#000000" points="185.0001,-127.0561 181.5,-117.0561 178.0001,-127.0561 185.0001,-127.0561"/>
</g>
<!-- 14 -->
<g id="node15" class="node">
<title>14</title>
<text text-anchor="middle" x="248.5" y="-156.8" font-family="Times,serif" font-size="14.00" fill="#000000">&lt;factor&gt;</text>
</g>
<!-- 13&#45;&gt;14 -->
<g id="edge14" class="edge">
<title>13&#45;&gt;14</title>
<path fill="none" stroke="#000000" d="M244.2378,-203.9748C244.9025,-197.195 245.9053,-186.966 246.7713,-178.1331"/>
<polygon fill="#000000" stroke="#000000" points="250.2667,-178.3499 247.7592,-168.0561 243.3001,-177.6669 250.2667,-178.3499"/>
</g>
<!-- 15 -->
<g id="node16" class="node">
<title>15</title>
<text text-anchor="middle" x="251.5" y="-105.8" font-family="Times,serif" font-size="14.00" fill="#000000">&lt;integer&gt;</text>
</g>
<!-- 14&#45;&gt;15 -->
<g id="edge15" class="edge">
<title>14&#45;&gt;15</title>
<path fill="none" stroke="#000000" d="M248.9427,-152.9748C249.3415,-146.195 249.9432,-135.966 250.4628,-127.1331"/>
<polygon fill="#000000" stroke="#000000" points="253.9622,-127.2444 251.0555,-117.0561 246.9742,-126.8333 253.9622,-127.2444"/>
</g>
<!-- 16 -->
<g id="node17" class="node">
<title>16</title>
<text text-anchor="middle" x="251.5" y="-54.8" font-family="Times,serif" font-size="14.00" fill="#000000">&lt;digit&gt;</text>
</g>
<!-- 15&#45;&gt;16 -->
<g id="edge16" class="edge">
<title>15&#45;&gt;16</title>
<path fill="none" stroke="#000000" d="M251.5,-101.9748C251.5,-95.195 251.5,-84.966 251.5,-76.1331"/>
<polygon fill="#000000" stroke="#000000" points="255.0001,-76.0561 251.5,-66.0561 248.0001,-76.0561 255.0001,-76.0561"/>
</g>
<!-- 17 -->
<g id="node18" class="node">
<title>17</title>
<text text-anchor="middle" x="251.5" y="-3.8" font-family="Times,serif" font-size="14.00" fill="#000000">5</text>
</g>
<!-- 16&#45;&gt;17 -->
<g id="edge17" class="edge">
<title>16&#45;&gt;17</title>
<path fill="none" stroke="#000000" d="M251.5,-50.9748C251.5,-44.195 251.5,-33.966 251.5,-25.1331"/>
<polygon fill="#000000" stroke="#000000" points="255.0001,-25.0561 251.5,-15.0561 248.0001,-25.0561 255.0001,-25.0561"/>
</g>
</g>
</svg>
