<?xml version="1.0" encoding="UTF-8" standalone="no"?>
<!DOCTYPE svg PUBLIC "-//W3C//DTD SVG 1.1//EN"
 "http://www.w3.org/Graphics/SVG/1.1/DTD/svg11.dtd">
<!-- Generated by graphviz version 2.40.1 (20161225.0304)
 -->
<!-- Title: %3 Pages: 1 -->
<svg width="188pt" height="176pt"
 viewBox="0.00 0.00 187.50 176.00" xmlns="http://www.w3.org/2000/svg" xmlns:xlink="http://www.w3.org/1999/xlink">
<g id="graph0" class="graph" transform="scale(1 1) rotate(0) translate(4 172)">
<title>%3</title>
<polygon fill="#ffffff" stroke="transparent" points="-4,4 -4,-172 183.5,-172 183.5,4 -4,4"/>
<!-- 0 -->
<g id="node1" class="node">
<title>0</title>
<text text-anchor="middle" x="111.5" y="-156.8" font-family="Times,serif" font-size="14.00" fill="#000000">&lt;start&gt;</text>
</g>
<!-- 1 -->
<g id="node2" class="node">
<title>1</title>
<text text-anchor="middle" x="111.5" y="-105.8" font-family="Times,serif" font-size="14.00" fill="#000000">&lt;expr&gt;</text>
</g>
<!-- 0&#45;&gt;1 -->
<g id="edge1" class="edge">
<title>0&#45;&gt;1</title>
<path fill="none" stroke="#000000" d="M111.5,-152.9748C111.5,-146.195 111.5,-135.966 111.5,-127.1331"/>
<polygon fill="#000000" stroke="#000000" points="115.0001,-127.0561 111.5,-117.0561 108.0001,-127.0561 115.0001,-127.0561"/>
</g>
<!-- 2 -->
<g id="node3" class="node">
<title>2</title>
<text text-anchor="middle" x="65.5" y="-54.8" font-family="Times,serif" font-size="14.00" fill="#000000">&lt;expr&gt;</text>
</g>
<!-- 1&#45;&gt;2 -->
<g id="edge2" class="edge">
<title>1&#45;&gt;2</title>
<path fill="none" stroke="#000000" d="M104.7125,-101.9748C97.9859,-94.517 87.495,-82.8857 79.0564,-73.53"/>
<polygon fill="#000000" stroke="#000000" points="81.612,-71.1376 72.3153,-66.0561 76.414,-75.826 81.612,-71.1376"/>
</g>
<!-- 6 -->
<g id="node7" class="node">
<title>6</title>
<text text-anchor="middle" x="111.5" y="-54.8" font-family="Times,serif" font-size="14.00" fill="#000000"> + </text>
</g>
<!-- 1&#45;&gt;6 -->
<g id="edge6" class="edge">
<title>1&#45;&gt;6</title>
<path fill="none" stroke="#000000" d="M111.5,-101.9748C111.5,-95.195 111.5,-84.966 111.5,-76.1331"/>
<polygon fill="#000000" stroke="#000000" points="115.0001,-76.0561 111.5,-66.0561 108.0001,-76.0561 115.0001,-76.0561"/>
</g>
<!-- 7 -->
<g id="node8" class="node">
<title>7</title>
<text text-anchor="middle" x="158.5" y="-54.8" font-family="Times,serif" font-size="14.00" fill="#000000">&lt;term&gt;</text>
</g>
<!-- 1&#45;&gt;7 -->
<g id="edge7" class="edge">
<title>1&#45;&gt;7</title>
<path fill="none" stroke="#000000" d="M118.435,-101.9748C125.3079,-94.517 136.0269,-82.8857 144.6488,-73.53"/>
<polygon fill="#000000" stroke="#000000" points="147.3334,-75.7816 151.5365,-66.0561 142.1859,-71.0378 147.3334,-75.7816"/>
</g>
<!-- 3 -->
<g id="node4" class="node">
<title>3</title>
<text text-anchor="middle" x="20.5" y="-3.8" font-family="Times,serif" font-size="14.00" fill="#000000">&lt;expr&gt;</text>
</g>
<!-- 2&#45;&gt;3 -->
<g id="edge3" class="edge">
<title>2&#45;&gt;3</title>
<path fill="none" stroke="#000000" d="M58.8601,-50.9748C52.3462,-43.5923 42.2238,-32.1203 34.0125,-22.8142"/>
<polygon fill="#000000" stroke="#000000" points="36.4078,-20.2388 27.1671,-15.0561 31.159,-24.8702 36.4078,-20.2388"/>
</g>
<!-- 4 -->
<g id="node5" class="node">
<title>4</title>
<text text-anchor="middle" x="65.5" y="-3.8" font-family="Times,serif" font-size="14.00" fill="#000000"> &#45; </text>
</g>
<!-- 2&#45;&gt;4 -->
<g id="edge4" class="edge">
<title>2&#45;&gt;4</title>
<path fill="none" stroke="#000000" d="M65.5,-50.9748C65.5,-44.195 65.5,-33.966 65.5,-25.1331"/>
<polygon fill="#000000" stroke="#000000" points="69.0001,-25.0561 65.5,-15.0561 62.0001,-25.0561 69.0001,-25.0561"/>
</g>
<!-- 5 -->
<g id="node6" class="node">
<title>5</title>
<text text-anchor="middle" x="110.5" y="-3.8" font-family="Times,serif" font-size="14.00" fill="#000000">&lt;term&gt;</text>
</g>
<!-- 2&#45;&gt;5 -->
<g id="edge5" class="edge">
<title>2&#45;&gt;5</title>
<path fill="none" stroke="#000000" d="M72.1399,-50.9748C78.6538,-43.5923 88.7762,-32.1203 96.9875,-22.8142"/>
<polygon fill="#000000" stroke="#000000" points="99.841,-24.8702 103.8329,-15.0561 94.5922,-20.2388 99.841,-24.8702"/>
</g>
</g>
</svg>
