<?xml version="1.0" encoding="UTF-8" standalone="no"?>
<!DOCTYPE svg PUBLIC "-//W3C//DTD SVG 1.1//EN"
 "http://www.w3.org/Graphics/SVG/1.1/DTD/svg11.dtd">
<!-- Generated by graphviz version 2.40.1 (20161225.0304)
 -->
<!-- Title: %3 Pages: 1 -->
<svg width="855pt" height="737pt"
 viewBox="0.00 0.00 854.50 737.00" xmlns="http://www.w3.org/2000/svg" xmlns:xlink="http://www.w3.org/1999/xlink">
<g id="graph0" class="graph" transform="scale(1 1) rotate(0) translate(4 733)">
<title>%3</title>
<polygon fill="#ffffff" stroke="transparent" points="-4,4 -4,-733 850.5,-733 850.5,4 -4,4"/>
<!-- 0 -->
<g id="node1" class="node">
<title>0</title>
<text text-anchor="middle" x="332.5" y="-717.8" font-family="Times,serif" font-size="14.00" fill="#000000">&lt;start&gt;</text>
</g>
<!-- 1 -->
<g id="node2" class="node">
<title>1</title>
<text text-anchor="middle" x="332.5" y="-666.8" font-family="Times,serif" font-size="14.00" fill="#000000">&lt;expr&gt;</text>
</g>
<!-- 0&#45;&gt;1 -->
<g id="edge1" class="edge">
<title>0&#45;&gt;1</title>
<path fill="none" stroke="#000000" d="M332.5,-713.9748C332.5,-707.195 332.5,-696.966 332.5,-688.1331"/>
<polygon fill="#000000" stroke="#000000" points="336.0001,-688.0561 332.5,-678.0561 329.0001,-688.0561 336.0001,-688.0561"/>
</g>
<!-- 2 -->
<g id="node3" class="node">
<title>2</title>
<text text-anchor="middle" x="332.5" y="-615.8" font-family="Times,serif" font-size="14.00" fill="#000000">&lt;term&gt;</text>
</g>
<!-- 1&#45;&gt;2 -->
<g id="edge2" class="edge">
<title>1&#45;&gt;2</title>
<path fill="none" stroke="#000000" d="M332.5,-662.9748C332.5,-656.195 332.5,-645.966 332.5,-637.1331"/>
<polygon fill="#000000" stroke="#000000" points="336.0001,-637.0561 332.5,-627.0561 329.0001,-637.0561 336.0001,-637.0561"/>
</g>
<!-- 3 -->
<g id="node4" class="node">
<title>3</title>
<text text-anchor="middle" x="286.5" y="-564.8" font-family="Times,serif" font-size="14.00" fill="#000000">&lt;term&gt;</text>
</g>
<!-- 2&#45;&gt;3 -->
<g id="edge3" class="edge">
<title>2&#45;&gt;3</title>
<path fill="none" stroke="#000000" d="M325.7125,-611.9748C318.9859,-604.517 308.495,-592.8857 300.0564,-583.53"/>
<polygon fill="#000000" stroke="#000000" points="302.612,-581.1376 293.3153,-576.0561 297.414,-585.826 302.612,-581.1376"/>
</g>
<!-- 39 -->
<g id="node40" class="node">
<title>39</title>
<text text-anchor="middle" x="332.5" y="-564.8" font-family="Times,serif" font-size="14.00" fill="#000000"> / </text>
</g>
<!-- 2&#45;&gt;39 -->
<g id="edge39" class="edge">
<title>2&#45;&gt;39</title>
<path fill="none" stroke="#000000" d="M332.5,-611.9748C332.5,-605.195 332.5,-594.966 332.5,-586.1331"/>
<polygon fill="#000000" stroke="#000000" points="336.0001,-586.0561 332.5,-576.0561 329.0001,-586.0561 336.0001,-586.0561"/>
</g>
<!-- 40 -->
<g id="node41" class="node">
<title>40</title>
<text text-anchor="middle" x="380.5" y="-564.8" font-family="Times,serif" font-size="14.00" fill="#000000">&lt;factor&gt;</text>
</g>
<!-- 2&#45;&gt;40 -->
<g id="edge40" class="edge">
<title>2&#45;&gt;40</title>
<path fill="none" stroke="#000000" d="M339.5826,-611.9748C346.6017,-604.517 357.5487,-592.8857 366.3541,-583.53"/>
<polygon fill="#000000" stroke="#000000" points="369.0834,-585.7369 373.3884,-576.0561 363.986,-580.9393 369.0834,-585.7369"/>
</g>
<!-- 4 -->
<g id="node5" class="node">
<title>4</title>
<text text-anchor="middle" x="207.5" y="-513.8" font-family="Times,serif" font-size="14.00" fill="#000000">&lt;term&gt;</text>
</g>
<!-- 3&#45;&gt;4 -->
<g id="edge4" class="edge">
<title>3&#45;&gt;4</title>
<path fill="none" stroke="#000000" d="M274.8433,-560.9748C262.4742,-552.9897 242.6938,-540.22 227.764,-530.5818"/>
<polygon fill="#000000" stroke="#000000" points="229.5043,-527.5393 219.2045,-525.0561 225.7077,-533.4203 229.5043,-527.5393"/>
</g>
<!-- 19 -->
<g id="node20" class="node">
<title>19</title>
<text text-anchor="middle" x="267.5" y="-513.8" font-family="Times,serif" font-size="14.00" fill="#000000"> / </text>
</g>
<!-- 3&#45;&gt;19 -->
<g id="edge19" class="edge">
<title>3&#45;&gt;19</title>
<path fill="none" stroke="#000000" d="M283.6965,-560.9748C281.1145,-554.0443 277.1899,-543.5097 273.8506,-534.5464"/>
<polygon fill="#000000" stroke="#000000" points="277.086,-533.205 270.315,-525.0561 270.5264,-535.6488 277.086,-533.205"/>
</g>
<!-- 20 -->
<g id="node21" class="node">
<title>20</title>
<text text-anchor="middle" x="315.5" y="-513.8" font-family="Times,serif" font-size="14.00" fill="#000000">&lt;factor&gt;</text>
</g>
<!-- 3&#45;&gt;20 -->
<g id="edge20" class="edge">
<title>3&#45;&gt;20</title>
<path fill="none" stroke="#000000" d="M290.779,-560.9748C294.8056,-553.8936 300.9716,-543.05 306.1381,-533.9641"/>
<polygon fill="#000000" stroke="#000000" points="309.3028,-535.4791 311.2034,-525.0561 303.2178,-532.0189 309.3028,-535.4791"/>
</g>
<!-- 5 -->
<g id="node6" class="node">
<title>5</title>
<text text-anchor="middle" x="187.5" y="-462.8" font-family="Times,serif" font-size="14.00" fill="#000000">&lt;factor&gt;</text>
</g>
<!-- 4&#45;&gt;5 -->
<g id="edge5" class="edge">
<title>4&#45;&gt;5</title>
<path fill="none" stroke="#000000" d="M204.5489,-509.9748C201.8311,-503.0443 197.6999,-492.5097 194.1849,-483.5464"/>
<polygon fill="#000000" stroke="#000000" points="197.3725,-482.088 190.4632,-474.0561 190.8557,-484.6437 197.3725,-482.088"/>
</g>
<!-- 6 -->
<g id="node7" class="node">
<title>6</title>
<text text-anchor="middle" x="131.5" y="-411.8" font-family="Times,serif" font-size="14.00" fill="#000000">&lt;integer&gt;</text>
</g>
<!-- 5&#45;&gt;6 -->
<g id="edge6" class="edge">
<title>5&#45;&gt;6</title>
<path fill="none" stroke="#000000" d="M179.237,-458.9748C170.8826,-451.3663 157.7586,-439.4141 147.384,-429.9658"/>
<polygon fill="#000000" stroke="#000000" points="149.547,-427.2017 139.7969,-423.0561 144.8337,-432.3771 149.547,-427.2017"/>
</g>
<!-- 15 -->
<g id="node16" class="node">
<title>15</title>
<text text-anchor="middle" x="179.5" y="-411.8" font-family="Times,serif" font-size="14.00" fill="#000000">.</text>
</g>
<!-- 5&#45;&gt;15 -->
<g id="edge15" class="edge">
<title>5&#45;&gt;15</title>
<path fill="none" stroke="#000000" d="M186.3196,-458.9748C185.2561,-452.195 183.6515,-441.966 182.266,-433.1331"/>
<polygon fill="#000000" stroke="#000000" points="185.6927,-432.3929 180.6853,-423.0561 178.7773,-433.4777 185.6927,-432.3929"/>
</g>
<!-- 16 -->
<g id="node17" class="node">
<title>16</title>
<text text-anchor="middle" x="227.5" y="-411.8" font-family="Times,serif" font-size="14.00" fill="#000000">&lt;integer&gt;</text>
</g>
<!-- 5&#45;&gt;16 -->
<g id="edge16" class="edge">
<title>5&#45;&gt;16</title>
<path fill="none" stroke="#000000" d="M193.4021,-458.9748C199.1332,-451.6677 208.0067,-440.354 215.2649,-431.0997"/>
<polygon fill="#000000" stroke="#000000" points="218.1562,-433.0847 221.5736,-423.0561 212.6482,-428.7647 218.1562,-433.0847"/>
</g>
<!-- 7 -->
<g id="node8" class="node">
<title>7</title>
<text text-anchor="middle" x="82.5" y="-360.8" font-family="Times,serif" font-size="14.00" fill="#000000">&lt;integer&gt;</text>
</g>
<!-- 6&#45;&gt;7 -->
<g id="edge7" class="edge">
<title>6&#45;&gt;7</title>
<path fill="none" stroke="#000000" d="M124.2699,-407.9748C117.1046,-400.517 105.9294,-388.8857 96.9406,-379.53"/>
<polygon fill="#000000" stroke="#000000" points="99.2119,-376.8423 89.7598,-372.0561 94.1642,-381.6921 99.2119,-376.8423"/>
</g>
<!-- 13 -->
<g id="node14" class="node">
<title>13</title>
<text text-anchor="middle" x="149.5" y="-360.8" font-family="Times,serif" font-size="14.00" fill="#000000">&lt;digit&gt;</text>
</g>
<!-- 6&#45;&gt;13 -->
<g id="edge13" class="edge">
<title>6&#45;&gt;13</title>
<path fill="none" stroke="#000000" d="M134.156,-407.9748C136.602,-401.0443 140.3201,-390.5097 143.4836,-381.5464"/>
<polygon fill="#000000" stroke="#000000" points="146.8053,-382.6509 146.8331,-372.0561 140.2044,-380.3211 146.8053,-382.6509"/>
</g>
<!-- 8 -->
<g id="node9" class="node">
<title>8</title>
<text text-anchor="middle" x="27.5" y="-309.8" font-family="Times,serif" font-size="14.00" fill="#000000">&lt;integer&gt;</text>
</g>
<!-- 7&#45;&gt;8 -->
<g id="edge8" class="edge">
<title>7&#45;&gt;8</title>
<path fill="none" stroke="#000000" d="M74.3846,-356.9748C66.1794,-349.3663 53.2897,-337.4141 43.1004,-327.9658"/>
<polygon fill="#000000" stroke="#000000" points="45.3612,-325.2891 35.6487,-321.0561 40.6016,-330.422 45.3612,-325.2891"/>
</g>
<!-- 11 -->
<g id="node12" class="node">
<title>11</title>
<text text-anchor="middle" x="94.5" y="-309.8" font-family="Times,serif" font-size="14.00" fill="#000000">&lt;digit&gt;</text>
</g>
<!-- 7&#45;&gt;11 -->
<g id="edge11" class="edge">
<title>7&#45;&gt;11</title>
<path fill="none" stroke="#000000" d="M84.2706,-356.9748C85.8836,-350.1196 88.3263,-339.7383 90.4202,-330.8392"/>
<polygon fill="#000000" stroke="#000000" points="93.8386,-331.5919 92.7221,-321.0561 87.0247,-329.9886 93.8386,-331.5919"/>
</g>
<!-- 9 -->
<g id="node10" class="node">
<title>9</title>
<text text-anchor="middle" x="27.5" y="-258.8" font-family="Times,serif" font-size="14.00" fill="#000000">&lt;digit&gt;</text>
</g>
<!-- 8&#45;&gt;9 -->
<g id="edge9" class="edge">
<title>8&#45;&gt;9</title>
<path fill="none" stroke="#000000" d="M27.5,-305.9748C27.5,-299.195 27.5,-288.966 27.5,-280.1331"/>
<polygon fill="#000000" stroke="#000000" points="31.0001,-280.0561 27.5,-270.0561 24.0001,-280.0561 31.0001,-280.0561"/>
</g>
<!-- 10 -->
<g id="node11" class="node">
<title>10</title>
<text text-anchor="middle" x="27.5" y="-207.8" font-family="Times,serif" font-size="14.00" fill="#000000">4</text>
</g>
<!-- 9&#45;&gt;10 -->
<g id="edge10" class="edge">
<title>9&#45;&gt;10</title>
<path fill="none" stroke="#000000" d="M27.5,-254.9748C27.5,-248.195 27.5,-237.966 27.5,-229.1331"/>
<polygon fill="#000000" stroke="#000000" points="31.0001,-229.0561 27.5,-219.0561 24.0001,-229.0561 31.0001,-229.0561"/>
</g>
<!-- 12 -->
<g id="node13" class="node">
<title>12</title>
<text text-anchor="middle" x="94.5" y="-258.8" font-family="Times,serif" font-size="14.00" fill="#000000">6</text>
</g>
<!-- 11&#45;&gt;12 -->
<g id="edge12" class="edge">
<title>11&#45;&gt;12</title>
<path fill="none" stroke="#000000" d="M94.5,-305.9748C94.5,-299.195 94.5,-288.966 94.5,-280.1331"/>
<polygon fill="#000000" stroke="#000000" points="98.0001,-280.0561 94.5,-270.0561 91.0001,-280.0561 98.0001,-280.0561"/>
</g>
<!-- 14 -->
<g id="node15" class="node">
<title>14</title>
<text text-anchor="middle" x="149.5" y="-309.8" font-family="Times,serif" font-size="14.00" fill="#000000">0</text>
</g>
<!-- 13&#45;&gt;14 -->
<g id="edge14" class="edge">
<title>13&#45;&gt;14</title>
<path fill="none" stroke="#000000" d="M149.5,-356.9748C149.5,-350.195 149.5,-339.966 149.5,-331.1331"/>
<polygon fill="#000000" stroke="#000000" points="153.0001,-331.0561 149.5,-321.0561 146.0001,-331.0561 153.0001,-331.0561"/>
</g>
<!-- 17 -->
<g id="node18" class="node">
<title>17</title>
<text text-anchor="middle" x="227.5" y="-360.8" font-family="Times,serif" font-size="14.00" fill="#000000">&lt;digit&gt;</text>
</g>
<!-- 16&#45;&gt;17 -->
<g id="edge17" class="edge">
<title>16&#45;&gt;17</title>
<path fill="none" stroke="#000000" d="M227.5,-407.9748C227.5,-401.195 227.5,-390.966 227.5,-382.1331"/>
<polygon fill="#000000" stroke="#000000" points="231.0001,-382.0561 227.5,-372.0561 224.0001,-382.0561 231.0001,-382.0561"/>
</g>
<!-- 18 -->
<g id="node19" class="node">
<title>18</title>
<text text-anchor="middle" x="227.5" y="-309.8" font-family="Times,serif" font-size="14.00" fill="#000000">7</text>
</g>
<!-- 17&#45;&gt;18 -->
<g id="edge18" class="edge">
<title>17&#45;&gt;18</title>
<path fill="none" stroke="#000000" d="M227.5,-356.9748C227.5,-350.195 227.5,-339.966 227.5,-331.1331"/>
<polygon fill="#000000" stroke="#000000" points="231.0001,-331.0561 227.5,-321.0561 224.0001,-331.0561 231.0001,-331.0561"/>
</g>
<!-- 21 -->
<g id="node22" class="node">
<title>21</title>
<text text-anchor="middle" x="303.5" y="-462.8" font-family="Times,serif" font-size="14.00" fill="#000000">&#45;</text>
</g>
<!-- 20&#45;&gt;21 -->
<g id="edge21" class="edge">
<title>20&#45;&gt;21</title>
<path fill="none" stroke="#000000" d="M313.7294,-509.9748C312.1164,-503.1196 309.6737,-492.7383 307.5798,-483.8392"/>
<polygon fill="#000000" stroke="#000000" points="310.9753,-482.9886 305.2779,-474.0561 304.1614,-484.5919 310.9753,-482.9886"/>
</g>
<!-- 22 -->
<g id="node23" class="node">
<title>22</title>
<text text-anchor="middle" x="348.5" y="-462.8" font-family="Times,serif" font-size="14.00" fill="#000000">&lt;factor&gt;</text>
</g>
<!-- 20&#45;&gt;22 -->
<g id="edge22" class="edge">
<title>20&#45;&gt;22</title>
<path fill="none" stroke="#000000" d="M320.3693,-509.9748C324.9999,-502.8183 332.1172,-491.8188 338.034,-482.6747"/>
<polygon fill="#000000" stroke="#000000" points="341.1167,-484.3532 343.6108,-474.0561 335.2397,-480.5504 341.1167,-484.3532"/>
</g>
<!-- 23 -->
<g id="node24" class="node">
<title>23</title>
<text text-anchor="middle" x="300.5" y="-411.8" font-family="Times,serif" font-size="14.00" fill="#000000">&lt;integer&gt;</text>
</g>
<!-- 22&#45;&gt;23 -->
<g id="edge23" class="edge">
<title>22&#45;&gt;23</title>
<path fill="none" stroke="#000000" d="M341.4174,-458.9748C334.3983,-451.517 323.4513,-439.8857 314.6459,-430.53"/>
<polygon fill="#000000" stroke="#000000" points="317.014,-427.9393 307.6116,-423.0561 311.9166,-432.7369 317.014,-427.9393"/>
</g>
<!-- 26 -->
<g id="node27" class="node">
<title>26</title>
<text text-anchor="middle" x="348.5" y="-411.8" font-family="Times,serif" font-size="14.00" fill="#000000">.</text>
</g>
<!-- 22&#45;&gt;26 -->
<g id="edge26" class="edge">
<title>22&#45;&gt;26</title>
<path fill="none" stroke="#000000" d="M348.5,-458.9748C348.5,-452.195 348.5,-441.966 348.5,-433.1331"/>
<polygon fill="#000000" stroke="#000000" points="352.0001,-433.0561 348.5,-423.0561 345.0001,-433.0561 352.0001,-433.0561"/>
</g>
<!-- 27 -->
<g id="node28" class="node">
<title>27</title>
<text text-anchor="middle" x="396.5" y="-411.8" font-family="Times,serif" font-size="14.00" fill="#000000">&lt;integer&gt;</text>
</g>
<!-- 22&#45;&gt;27 -->
<g id="edge27" class="edge">
<title>22&#45;&gt;27</title>
<path fill="none" stroke="#000000" d="M355.5826,-458.9748C362.6017,-451.517 373.5487,-439.8857 382.3541,-430.53"/>
<polygon fill="#000000" stroke="#000000" points="385.0834,-432.7369 389.3884,-423.0561 379.986,-427.9393 385.0834,-432.7369"/>
</g>
<!-- 24 -->
<g id="node25" class="node">
<title>24</title>
<text text-anchor="middle" x="293.5" y="-360.8" font-family="Times,serif" font-size="14.00" fill="#000000">&lt;digit&gt;</text>
</g>
<!-- 23&#45;&gt;24 -->
<g id="edge24" class="edge">
<title>23&#45;&gt;24</title>
<path fill="none" stroke="#000000" d="M299.4671,-407.9748C298.5366,-401.195 297.1326,-390.966 295.9202,-382.1331"/>
<polygon fill="#000000" stroke="#000000" points="299.3645,-381.4873 294.5371,-372.0561 292.4295,-382.4392 299.3645,-381.4873"/>
</g>
<!-- 25 -->
<g id="node26" class="node">
<title>25</title>
<text text-anchor="middle" x="280.5" y="-309.8" font-family="Times,serif" font-size="14.00" fill="#000000">0</text>
</g>
<!-- 24&#45;&gt;25 -->
<g id="edge25" class="edge">
<title>24&#45;&gt;25</title>
<path fill="none" stroke="#000000" d="M291.5818,-356.9748C289.8344,-350.1196 287.1882,-339.7383 284.9198,-330.8392"/>
<polygon fill="#000000" stroke="#000000" points="288.2877,-329.8817 282.4261,-321.0561 281.5046,-331.6108 288.2877,-329.8817"/>
</g>
<!-- 28 -->
<g id="node29" class="node">
<title>28</title>
<text text-anchor="middle" x="373.5" y="-360.8" font-family="Times,serif" font-size="14.00" fill="#000000">&lt;integer&gt;</text>
</g>
<!-- 27&#45;&gt;28 -->
<g id="edge28" class="edge">
<title>27&#45;&gt;28</title>
<path fill="none" stroke="#000000" d="M393.1063,-407.9748C389.9468,-400.969 385.1264,-390.2803 381.056,-381.2547"/>
<polygon fill="#000000" stroke="#000000" points="384.2093,-379.7331 376.9077,-372.0561 377.8282,-382.6109 384.2093,-379.7331"/>
</g>
<!-- 37 -->
<g id="node38" class="node">
<title>37</title>
<text text-anchor="middle" x="440.5" y="-360.8" font-family="Times,serif" font-size="14.00" fill="#000000">&lt;digit&gt;</text>
</g>
<!-- 27&#45;&gt;37 -->
<g id="edge37" class="edge">
<title>27&#45;&gt;37</title>
<path fill="none" stroke="#000000" d="M402.9924,-407.9748C409.3615,-400.5923 419.259,-389.1203 427.2878,-379.8142"/>
<polygon fill="#000000" stroke="#000000" points="430.0987,-381.914 433.981,-372.0561 424.7986,-377.3414 430.0987,-381.914"/>
</g>
<!-- 29 -->
<g id="node30" class="node">
<title>29</title>
<text text-anchor="middle" x="330.5" y="-309.8" font-family="Times,serif" font-size="14.00" fill="#000000">&lt;integer&gt;</text>
</g>
<!-- 28&#45;&gt;29 -->
<g id="edge29" class="edge">
<title>28&#45;&gt;29</title>
<path fill="none" stroke="#000000" d="M367.1552,-356.9748C360.9308,-349.5923 351.2583,-338.1203 343.4119,-328.8142"/>
<polygon fill="#000000" stroke="#000000" points="345.9927,-326.4452 336.8708,-321.0561 340.641,-330.9574 345.9927,-326.4452"/>
</g>
<!-- 35 -->
<g id="node36" class="node">
<title>35</title>
<text text-anchor="middle" x="397.5" y="-309.8" font-family="Times,serif" font-size="14.00" fill="#000000">&lt;digit&gt;</text>
</g>
<!-- 28&#45;&gt;35 -->
<g id="edge35" class="edge">
<title>28&#45;&gt;35</title>
<path fill="none" stroke="#000000" d="M377.0413,-356.9748C380.3381,-349.969 385.3681,-339.2803 389.6155,-330.2547"/>
<polygon fill="#000000" stroke="#000000" points="392.853,-331.5946 393.9442,-321.0561 386.5193,-328.614 392.853,-331.5946"/>
</g>
<!-- 30 -->
<g id="node31" class="node">
<title>30</title>
<text text-anchor="middle" x="275.5" y="-258.8" font-family="Times,serif" font-size="14.00" fill="#000000">&lt;integer&gt;</text>
</g>
<!-- 29&#45;&gt;30 -->
<g id="edge30" class="edge">
<title>29&#45;&gt;30</title>
<path fill="none" stroke="#000000" d="M322.3846,-305.9748C314.1794,-298.3663 301.2897,-286.4141 291.1004,-276.9658"/>
<polygon fill="#000000" stroke="#000000" points="293.3612,-274.2891 283.6487,-270.0561 288.6016,-279.422 293.3612,-274.2891"/>
</g>
<!-- 33 -->
<g id="node34" class="node">
<title>33</title>
<text text-anchor="middle" x="342.5" y="-258.8" font-family="Times,serif" font-size="14.00" fill="#000000">&lt;digit&gt;</text>
</g>
<!-- 29&#45;&gt;33 -->
<g id="edge33" class="edge">
<title>29&#45;&gt;33</title>
<path fill="none" stroke="#000000" d="M332.2706,-305.9748C333.8836,-299.1196 336.3263,-288.7383 338.4202,-279.8392"/>
<polygon fill="#000000" stroke="#000000" points="341.8386,-280.5919 340.7221,-270.0561 335.0247,-278.9886 341.8386,-280.5919"/>
</g>
<!-- 31 -->
<g id="node32" class="node">
<title>31</title>
<text text-anchor="middle" x="275.5" y="-207.8" font-family="Times,serif" font-size="14.00" fill="#000000">&lt;digit&gt;</text>
</g>
<!-- 30&#45;&gt;31 -->
<g id="edge31" class="edge">
<title>30&#45;&gt;31</title>
<path fill="none" stroke="#000000" d="M275.5,-254.9748C275.5,-248.195 275.5,-237.966 275.5,-229.1331"/>
<polygon fill="#000000" stroke="#000000" points="279.0001,-229.0561 275.5,-219.0561 272.0001,-229.0561 279.0001,-229.0561"/>
</g>
<!-- 32 -->
<g id="node33" class="node">
<title>32</title>
<text text-anchor="middle" x="275.5" y="-156.8" font-family="Times,serif" font-size="14.00" fill="#000000">7</text>
</g>
<!-- 31&#45;&gt;32 -->
<g id="edge32" class="edge">
<title>31&#45;&gt;32</title>
<path fill="none" stroke="#000000" d="M275.5,-203.9748C275.5,-197.195 275.5,-186.966 275.5,-178.1331"/>
<polygon fill="#000000" stroke="#000000" points="279.0001,-178.0561 275.5,-168.0561 272.0001,-178.0561 279.0001,-178.0561"/>
</g>
<!-- 34 -->
<g id="node35" class="node">
<title>34</title>
<text text-anchor="middle" x="342.5" y="-207.8" font-family="Times,serif" font-size="14.00" fill="#000000">5</text>
</g>
<!-- 33&#45;&gt;34 -->
<g id="edge34" class="edge">
<title>33&#45;&gt;34</title>
<path fill="none" stroke="#000000" d="M342.5,-254.9748C342.5,-248.195 342.5,-237.966 342.5,-229.1331"/>
<polygon fill="#000000" stroke="#000000" points="346.0001,-229.0561 342.5,-219.0561 339.0001,-229.0561 346.0001,-229.0561"/>
</g>
<!-- 36 -->
<g id="node37" class="node">
<title>36</title>
<text text-anchor="middle" x="397.5" y="-258.8" font-family="Times,serif" font-size="14.00" fill="#000000">3</text>
</g>
<!-- 35&#45;&gt;36 -->
<g id="edge36" class="edge">
<title>35&#45;&gt;36</title>
<path fill="none" stroke="#000000" d="M397.5,-305.9748C397.5,-299.195 397.5,-288.966 397.5,-280.1331"/>
<polygon fill="#000000" stroke="#000000" points="401.0001,-280.0561 397.5,-270.0561 394.0001,-280.0561 401.0001,-280.0561"/>
</g>
<!-- 38 -->
<g id="node39" class="node">
<title>38</title>
<text text-anchor="middle" x="440.5" y="-309.8" font-family="Times,serif" font-size="14.00" fill="#000000">8</text>
</g>
<!-- 37&#45;&gt;38 -->
<g id="edge38" class="edge">
<title>37&#45;&gt;38</title>
<path fill="none" stroke="#000000" d="M440.5,-356.9748C440.5,-350.195 440.5,-339.966 440.5,-331.1331"/>
<polygon fill="#000000" stroke="#000000" points="444.0001,-331.0561 440.5,-321.0561 437.0001,-331.0561 444.0001,-331.0561"/>
</g>
<!-- 41 -->
<g id="node42" class="node">
<title>41</title>
<text text-anchor="middle" x="380.5" y="-513.8" font-family="Times,serif" font-size="14.00" fill="#000000">+</text>
</g>
<!-- 40&#45;&gt;41 -->
<g id="edge41" class="edge">
<title>40&#45;&gt;41</title>
<path fill="none" stroke="#000000" d="M380.5,-560.9748C380.5,-554.195 380.5,-543.966 380.5,-535.1331"/>
<polygon fill="#000000" stroke="#000000" points="384.0001,-535.0561 380.5,-525.0561 377.0001,-535.0561 384.0001,-535.0561"/>
</g>
<!-- 42 -->
<g id="node43" class="node">
<title>42</title>
<text text-anchor="middle" x="436.5" y="-513.8" font-family="Times,serif" font-size="14.00" fill="#000000">&lt;factor&gt;</text>
</g>
<!-- 40&#45;&gt;42 -->
<g id="edge42" class="edge">
<title>40&#45;&gt;42</title>
<path fill="none" stroke="#000000" d="M388.763,-560.9748C397.1174,-553.3663 410.2414,-541.4141 420.616,-531.9658"/>
<polygon fill="#000000" stroke="#000000" points="423.1663,-534.3771 428.2031,-525.0561 418.453,-529.2017 423.1663,-534.3771"/>
</g>
<!-- 43 -->
<g id="node44" class="node">
<title>43</title>
<text text-anchor="middle" x="408.5" y="-462.8" font-family="Times,serif" font-size="14.00" fill="#000000">(</text>
</g>
<!-- 42&#45;&gt;43 -->
<g id="edge43" class="edge">
<title>42&#45;&gt;43</title>
<path fill="none" stroke="#000000" d="M432.3685,-509.9748C428.0787,-502.1611 421.2736,-489.7662 416.0253,-480.2069"/>
<polygon fill="#000000" stroke="#000000" points="419.0148,-478.3793 411.1342,-471.298 412.8788,-481.7482 419.0148,-478.3793"/>
</g>
<!-- 44 -->
<g id="node45" class="node">
<title>44</title>
<text text-anchor="middle" x="449.5" y="-462.8" font-family="Times,serif" font-size="14.00" fill="#000000">&lt;expr&gt;</text>
</g>
<!-- 42&#45;&gt;44 -->
<g id="edge44" class="edge">
<title>42&#45;&gt;44</title>
<path fill="none" stroke="#000000" d="M438.4182,-509.9748C440.1656,-503.1196 442.8118,-492.7383 445.0802,-483.8392"/>
<polygon fill="#000000" stroke="#000000" points="448.4954,-484.6108 447.5739,-474.0561 441.7123,-482.8817 448.4954,-484.6108"/>
</g>
<!-- 79 -->
<g id="node80" class="node">
<title>79</title>
<text text-anchor="middle" x="490.5" y="-462.8" font-family="Times,serif" font-size="14.00" fill="#000000">)</text>
</g>
<!-- 42&#45;&gt;79 -->
<g id="edge79" class="edge">
<title>42&#45;&gt;79</title>
<path fill="none" stroke="#000000" d="M444.4679,-509.9748C454.0889,-500.8883 470.2697,-485.6064 480.6603,-475.7931"/>
<polygon fill="#000000" stroke="#000000" points="483.1234,-478.2811 487.9903,-468.8702 478.317,-473.1919 483.1234,-478.2811"/>
</g>
<!-- 45 -->
<g id="node46" class="node">
<title>45</title>
<text text-anchor="middle" x="552.5" y="-411.8" font-family="Times,serif" font-size="14.00" fill="#000000">&lt;term&gt;</text>
</g>
<!-- 44&#45;&gt;45 -->
<g id="edge45" class="edge">
<title>44&#45;&gt;45</title>
<path fill="none" stroke="#000000" d="M464.698,-458.9748C481.4333,-450.6883 508.5746,-437.2495 528.2556,-427.5045"/>
<polygon fill="#000000" stroke="#000000" points="529.8311,-430.63 537.2396,-423.0561 526.725,-424.3569 529.8311,-430.63"/>
</g>
<!-- 46 -->
<g id="node47" class="node">
<title>46</title>
<text text-anchor="middle" x="530.5" y="-360.8" font-family="Times,serif" font-size="14.00" fill="#000000">&lt;term&gt;</text>
</g>
<!-- 45&#45;&gt;46 -->
<g id="edge46" class="edge">
<title>45&#45;&gt;46</title>
<path fill="none" stroke="#000000" d="M549.2538,-407.9748C546.2317,-400.969 541.6209,-390.2803 537.7275,-381.2547"/>
<polygon fill="#000000" stroke="#000000" points="540.9342,-379.8519 533.7595,-372.0561 534.5067,-382.6246 540.9342,-379.8519"/>
</g>
<!-- 62 -->
<g id="node63" class="node">
<title>62</title>
<text text-anchor="middle" x="575.5" y="-360.8" font-family="Times,serif" font-size="14.00" fill="#000000"> / </text>
</g>
<!-- 45&#45;&gt;62 -->
<g id="edge62" class="edge">
<title>45&#45;&gt;62</title>
<path fill="none" stroke="#000000" d="M555.8937,-407.9748C559.0532,-400.969 563.8736,-390.2803 567.944,-381.2547"/>
<polygon fill="#000000" stroke="#000000" points="571.1718,-382.6109 572.0923,-372.0561 564.7907,-379.7331 571.1718,-382.6109"/>
</g>
<!-- 63 -->
<g id="node64" class="node">
<title>63</title>
<text text-anchor="middle" x="643.5" y="-360.8" font-family="Times,serif" font-size="14.00" fill="#000000">&lt;factor&gt;</text>
</g>
<!-- 45&#45;&gt;63 -->
<g id="edge63" class="edge">
<title>45&#45;&gt;63</title>
<path fill="none" stroke="#000000" d="M565.9274,-407.9748C580.4441,-399.839 603.8232,-386.7365 621.1253,-377.0397"/>
<polygon fill="#000000" stroke="#000000" points="623.0053,-379.9983 630.0175,-372.0561 619.583,-373.8919 623.0053,-379.9983"/>
</g>
<!-- 47 -->
<g id="node48" class="node">
<title>47</title>
<text text-anchor="middle" x="483.5" y="-309.8" font-family="Times,serif" font-size="14.00" fill="#000000">&lt;term&gt;</text>
</g>
<!-- 46&#45;&gt;47 -->
<g id="edge47" class="edge">
<title>46&#45;&gt;47</title>
<path fill="none" stroke="#000000" d="M523.565,-356.9748C516.6921,-349.517 505.9731,-337.8857 497.3512,-328.53"/>
<polygon fill="#000000" stroke="#000000" points="499.8141,-326.0378 490.4635,-321.0561 494.6666,-330.7816 499.8141,-326.0378"/>
</g>
<!-- 52 -->
<g id="node53" class="node">
<title>52</title>
<text text-anchor="middle" x="530.5" y="-309.8" font-family="Times,serif" font-size="14.00" fill="#000000"> * </text>
</g>
<!-- 46&#45;&gt;52 -->
<g id="edge52" class="edge">
<title>46&#45;&gt;52</title>
<path fill="none" stroke="#000000" d="M530.5,-356.9748C530.5,-350.195 530.5,-339.966 530.5,-331.1331"/>
<polygon fill="#000000" stroke="#000000" points="534.0001,-331.0561 530.5,-321.0561 527.0001,-331.0561 534.0001,-331.0561"/>
</g>
<!-- 53 -->
<g id="node54" class="node">
<title>53</title>
<text text-anchor="middle" x="580.5" y="-309.8" font-family="Times,serif" font-size="14.00" fill="#000000">&lt;factor&gt;</text>
</g>
<!-- 46&#45;&gt;53 -->
<g id="edge53" class="edge">
<title>46&#45;&gt;53</title>
<path fill="none" stroke="#000000" d="M537.8777,-356.9748C545.2631,-349.4417 556.8232,-337.6503 566.042,-328.2472"/>
<polygon fill="#000000" stroke="#000000" points="568.5906,-330.6471 573.0921,-321.0561 563.5921,-325.7466 568.5906,-330.6471"/>
</g>
<!-- 48 -->
<g id="node49" class="node">
<title>48</title>
<text text-anchor="middle" x="483.5" y="-258.8" font-family="Times,serif" font-size="14.00" fill="#000000">&lt;factor&gt;</text>
</g>
<!-- 47&#45;&gt;48 -->
<g id="edge48" class="edge">
<title>47&#45;&gt;48</title>
<path fill="none" stroke="#000000" d="M483.5,-305.9748C483.5,-299.195 483.5,-288.966 483.5,-280.1331"/>
<polygon fill="#000000" stroke="#000000" points="487.0001,-280.0561 483.5,-270.0561 480.0001,-280.0561 487.0001,-280.0561"/>
</g>
<!-- 49 -->
<g id="node50" class="node">
<title>49</title>
<text text-anchor="middle" x="483.5" y="-207.8" font-family="Times,serif" font-size="14.00" fill="#000000">&lt;integer&gt;</text>
</g>
<!-- 48&#45;&gt;49 -->
<g id="edge49" class="edge">
<title>48&#45;&gt;49</title>
<path fill="none" stroke="#000000" d="M483.5,-254.9748C483.5,-248.195 483.5,-237.966 483.5,-229.1331"/>
<polygon fill="#000000" stroke="#000000" points="487.0001,-229.0561 483.5,-219.0561 480.0001,-229.0561 487.0001,-229.0561"/>
</g>
<!-- 50 -->
<g id="node51" class="node">
<title>50</title>
<text text-anchor="middle" x="483.5" y="-156.8" font-family="Times,serif" font-size="14.00" fill="#000000">&lt;digit&gt;</text>
</g>
<!-- 49&#45;&gt;50 -->
<g id="edge50" class="edge">
<title>49&#45;&gt;50</title>
<path fill="none" stroke="#000000" d="M483.5,-203.9748C483.5,-197.195 483.5,-186.966 483.5,-178.1331"/>
<polygon fill="#000000" stroke="#000000" points="487.0001,-178.0561 483.5,-168.0561 480.0001,-178.0561 487.0001,-178.0561"/>
</g>
<!-- 51 -->
<g id="node52" class="node">
<title>51</title>
<text text-anchor="middle" x="483.5" y="-105.8" font-family="Times,serif" font-size="14.00" fill="#000000">2</text>
</g>
<!-- 50&#45;&gt;51 -->
<g id="edge51" class="edge">
<title>50&#45;&gt;51</title>
<path fill="none" stroke="#000000" d="M483.5,-152.9748C483.5,-146.195 483.5,-135.966 483.5,-127.1331"/>
<polygon fill="#000000" stroke="#000000" points="487.0001,-127.0561 483.5,-117.0561 480.0001,-127.0561 487.0001,-127.0561"/>
</g>
<!-- 54 -->
<g id="node55" class="node">
<title>54</title>
<text text-anchor="middle" x="533.5" y="-258.8" font-family="Times,serif" font-size="14.00" fill="#000000">(</text>
</g>
<!-- 53&#45;&gt;54 -->
<g id="edge54" class="edge">
<title>53&#45;&gt;54</title>
<path fill="none" stroke="#000000" d="M573.565,-305.9748C565.4321,-297.1498 551.9137,-282.4808 542.8573,-272.6536"/>
<polygon fill="#000000" stroke="#000000" points="545.4277,-270.2781 536.0771,-265.2964 540.2801,-275.0219 545.4277,-270.2781"/>
</g>
<!-- 55 -->
<g id="node56" class="node">
<title>55</title>
<text text-anchor="middle" x="574.5" y="-258.8" font-family="Times,serif" font-size="14.00" fill="#000000">&lt;expr&gt;</text>
</g>
<!-- 53&#45;&gt;55 -->
<g id="edge55" class="edge">
<title>53&#45;&gt;55</title>
<path fill="none" stroke="#000000" d="M579.6147,-305.9748C578.8171,-299.195 577.6136,-288.966 576.5745,-280.1331"/>
<polygon fill="#000000" stroke="#000000" points="580.0335,-279.5786 575.389,-270.0561 573.0814,-280.3966 580.0335,-279.5786"/>
</g>
<!-- 61 -->
<g id="node62" class="node">
<title>61</title>
<text text-anchor="middle" x="615.5" y="-258.8" font-family="Times,serif" font-size="14.00" fill="#000000">)</text>
</g>
<!-- 53&#45;&gt;61 -->
<g id="edge61" class="edge">
<title>53&#45;&gt;61</title>
<path fill="none" stroke="#000000" d="M585.6644,-305.9748C591.3095,-297.749 600.4391,-284.4458 607.1145,-274.7189"/>
<polygon fill="#000000" stroke="#000000" points="610.1608,-276.4654 612.9335,-266.2398 604.3892,-272.5045 610.1608,-276.4654"/>
</g>
<!-- 56 -->
<g id="node57" class="node">
<title>56</title>
<text text-anchor="middle" x="574.5" y="-207.8" font-family="Times,serif" font-size="14.00" fill="#000000">&lt;term&gt;</text>
</g>
<!-- 55&#45;&gt;56 -->
<g id="edge56" class="edge">
<title>55&#45;&gt;56</title>
<path fill="none" stroke="#000000" d="M574.5,-254.9748C574.5,-248.195 574.5,-237.966 574.5,-229.1331"/>
<polygon fill="#000000" stroke="#000000" points="578.0001,-229.0561 574.5,-219.0561 571.0001,-229.0561 578.0001,-229.0561"/>
</g>
<!-- 57 -->
<g id="node58" class="node">
<title>57</title>
<text text-anchor="middle" x="574.5" y="-156.8" font-family="Times,serif" font-size="14.00" fill="#000000">&lt;factor&gt;</text>
</g>
<!-- 56&#45;&gt;57 -->
<g id="edge57" class="edge">
<title>56&#45;&gt;57</title>
<path fill="none" stroke="#000000" d="M574.5,-203.9748C574.5,-197.195 574.5,-186.966 574.5,-178.1331"/>
<polygon fill="#000000" stroke="#000000" points="578.0001,-178.0561 574.5,-168.0561 571.0001,-178.0561 578.0001,-178.0561"/>
</g>
<!-- 58 -->
<g id="node59" class="node">
<title>58</title>
<text text-anchor="middle" x="574.5" y="-105.8" font-family="Times,serif" font-size="14.00" fill="#000000">&lt;integer&gt;</text>
</g>
<!-- 57&#45;&gt;58 -->
<g id="edge58" class="edge">
<title>57&#45;&gt;58</title>
<path fill="none" stroke="#000000" d="M574.5,-152.9748C574.5,-146.195 574.5,-135.966 574.5,-127.1331"/>
<polygon fill="#000000" stroke="#000000" points="578.0001,-127.0561 574.5,-117.0561 571.0001,-127.0561 578.0001,-127.0561"/>
</g>
<!-- 59 -->
<g id="node60" class="node">
<title>59</title>
<text text-anchor="middle" x="574.5" y="-54.8" font-family="Times,serif" font-size="14.00" fill="#000000">&lt;digit&gt;</text>
</g>
<!-- 58&#45;&gt;59 -->
<g id="edge59" class="edge">
<title>58&#45;&gt;59</title>
<path fill="none" stroke="#000000" d="M574.5,-101.9748C574.5,-95.195 574.5,-84.966 574.5,-76.1331"/>
<polygon fill="#000000" stroke="#000000" points="578.0001,-76.0561 574.5,-66.0561 571.0001,-76.0561 578.0001,-76.0561"/>
</g>
<!-- 60 -->
<g id="node61" class="node">
<title>60</title>
<text text-anchor="middle" x="574.5" y="-3.8" font-family="Times,serif" font-size="14.00" fill="#000000">8</text>
</g>
<!-- 59&#45;&gt;60 -->
<g id="edge60" class="edge">
<title>59&#45;&gt;60</title>
<path fill="none" stroke="#000000" d="M574.5,-50.9748C574.5,-44.195 574.5,-33.966 574.5,-25.1331"/>
<polygon fill="#000000" stroke="#000000" points="578.0001,-25.0561 574.5,-15.0561 571.0001,-25.0561 578.0001,-25.0561"/>
</g>
<!-- 64 -->
<g id="node65" class="node">
<title>64</title>
<text text-anchor="middle" x="643.5" y="-309.8" font-family="Times,serif" font-size="14.00" fill="#000000">&#45;</text>
</g>
<!-- 63&#45;&gt;64 -->
<g id="edge64" class="edge">
<title>63&#45;&gt;64</title>
<path fill="none" stroke="#000000" d="M643.5,-356.9748C643.5,-350.195 643.5,-339.966 643.5,-331.1331"/>
<polygon fill="#000000" stroke="#000000" points="647.0001,-331.0561 643.5,-321.0561 640.0001,-331.0561 647.0001,-331.0561"/>
</g>
<!-- 65 -->
<g id="node66" class="node">
<title>65</title>
<text text-anchor="middle" x="700.5" y="-309.8" font-family="Times,serif" font-size="14.00" fill="#000000">&lt;factor&gt;</text>
</g>
<!-- 63&#45;&gt;65 -->
<g id="edge65" class="edge">
<title>63&#45;&gt;65</title>
<path fill="none" stroke="#000000" d="M651.9105,-356.9748C660.4141,-349.3663 673.7725,-337.4141 684.3323,-327.9658"/>
<polygon fill="#000000" stroke="#000000" points="686.9363,-330.3324 692.0549,-321.0561 682.2687,-325.1157 686.9363,-330.3324"/>
</g>
<!-- 66 -->
<g id="node67" class="node">
<title>66</title>
<text text-anchor="middle" x="663.5" y="-258.8" font-family="Times,serif" font-size="14.00" fill="#000000">&lt;integer&gt;</text>
</g>
<!-- 65&#45;&gt;66 -->
<g id="edge66" class="edge">
<title>65&#45;&gt;66</title>
<path fill="none" stroke="#000000" d="M695.0405,-305.9748C689.7939,-298.743 681.7002,-287.5868 675.0256,-278.3866"/>
<polygon fill="#000000" stroke="#000000" points="677.6872,-276.095 668.9819,-270.0561 672.0212,-280.2056 677.6872,-276.095"/>
</g>
<!-- 69 -->
<g id="node70" class="node">
<title>69</title>
<text text-anchor="middle" x="711.5" y="-258.8" font-family="Times,serif" font-size="14.00" fill="#000000">.</text>
</g>
<!-- 65&#45;&gt;69 -->
<g id="edge69" class="edge">
<title>65&#45;&gt;69</title>
<path fill="none" stroke="#000000" d="M702.1231,-305.9748C703.6016,-299.1196 705.8408,-288.7383 707.7602,-279.8392"/>
<polygon fill="#000000" stroke="#000000" points="711.1831,-280.5693 709.8703,-270.0561 704.3405,-279.0934 711.1831,-280.5693"/>
</g>
<!-- 70 -->
<g id="node71" class="node">
<title>70</title>
<text text-anchor="middle" x="759.5" y="-258.8" font-family="Times,serif" font-size="14.00" fill="#000000">&lt;integer&gt;</text>
</g>
<!-- 65&#45;&gt;70 -->
<g id="edge70" class="edge">
<title>65&#45;&gt;70</title>
<path fill="none" stroke="#000000" d="M709.2057,-305.9748C718.0947,-298.291 732.109,-286.177 743.0889,-276.6859"/>
<polygon fill="#000000" stroke="#000000" points="745.4821,-279.2435 750.7586,-270.0561 740.9044,-273.9478 745.4821,-279.2435"/>
</g>
<!-- 67 -->
<g id="node68" class="node">
<title>67</title>
<text text-anchor="middle" x="663.5" y="-207.8" font-family="Times,serif" font-size="14.00" fill="#000000">&lt;digit&gt;</text>
</g>
<!-- 66&#45;&gt;67 -->
<g id="edge67" class="edge">
<title>66&#45;&gt;67</title>
<path fill="none" stroke="#000000" d="M663.5,-254.9748C663.5,-248.195 663.5,-237.966 663.5,-229.1331"/>
<polygon fill="#000000" stroke="#000000" points="667.0001,-229.0561 663.5,-219.0561 660.0001,-229.0561 667.0001,-229.0561"/>
</g>
<!-- 68 -->
<g id="node69" class="node">
<title>68</title>
<text text-anchor="middle" x="663.5" y="-156.8" font-family="Times,serif" font-size="14.00" fill="#000000">9</text>
</g>
<!-- 67&#45;&gt;68 -->
<g id="edge68" class="edge">
<title>67&#45;&gt;68</title>
<path fill="none" stroke="#000000" d="M663.5,-203.9748C663.5,-197.195 663.5,-186.966 663.5,-178.1331"/>
<polygon fill="#000000" stroke="#000000" points="667.0001,-178.0561 663.5,-168.0561 660.0001,-178.0561 667.0001,-178.0561"/>
</g>
<!-- 71 -->
<g id="node72" class="node">
<title>71</title>
<text text-anchor="middle" x="758.5" y="-207.8" font-family="Times,serif" font-size="14.00" fill="#000000">&lt;integer&gt;</text>
</g>
<!-- 70&#45;&gt;71 -->
<g id="edge71" class="edge">
<title>70&#45;&gt;71</title>
<path fill="none" stroke="#000000" d="M759.3524,-254.9748C759.2195,-248.195 759.0189,-237.966 758.8457,-229.1331"/>
<polygon fill="#000000" stroke="#000000" points="762.3436,-228.9855 758.6482,-219.0561 755.345,-229.1228 762.3436,-228.9855"/>
</g>
<!-- 77 -->
<g id="node78" class="node">
<title>77</title>
<text text-anchor="middle" x="825.5" y="-207.8" font-family="Times,serif" font-size="14.00" fill="#000000">&lt;digit&gt;</text>
</g>
<!-- 70&#45;&gt;77 -->
<g id="edge77" class="edge">
<title>70&#45;&gt;77</title>
<path fill="none" stroke="#000000" d="M769.2385,-254.9748C779.2797,-247.2157 795.1671,-234.939 807.502,-225.4075"/>
<polygon fill="#000000" stroke="#000000" points="809.9487,-227.9401 815.7215,-219.0561 805.6686,-222.4011 809.9487,-227.9401"/>
</g>
<!-- 72 -->
<g id="node73" class="node">
<title>72</title>
<text text-anchor="middle" x="714.5" y="-156.8" font-family="Times,serif" font-size="14.00" fill="#000000">&lt;integer&gt;</text>
</g>
<!-- 71&#45;&gt;72 -->
<g id="edge72" class="edge">
<title>71&#45;&gt;72</title>
<path fill="none" stroke="#000000" d="M752.0076,-203.9748C745.6385,-196.5923 735.741,-185.1203 727.7122,-175.8142"/>
<polygon fill="#000000" stroke="#000000" points="730.2014,-173.3414 721.019,-168.0561 724.9013,-177.914 730.2014,-173.3414"/>
</g>
<!-- 75 -->
<g id="node76" class="node">
<title>75</title>
<text text-anchor="middle" x="781.5" y="-156.8" font-family="Times,serif" font-size="14.00" fill="#000000">&lt;digit&gt;</text>
</g>
<!-- 71&#45;&gt;75 -->
<g id="edge75" class="edge">
<title>71&#45;&gt;75</title>
<path fill="none" stroke="#000000" d="M761.8937,-203.9748C765.0532,-196.969 769.8736,-186.2803 773.944,-177.2547"/>
<polygon fill="#000000" stroke="#000000" points="777.1718,-178.6109 778.0923,-168.0561 770.7907,-175.7331 777.1718,-178.6109"/>
</g>
<!-- 73 -->
<g id="node74" class="node">
<title>73</title>
<text text-anchor="middle" x="714.5" y="-105.8" font-family="Times,serif" font-size="14.00" fill="#000000">&lt;digit&gt;</text>
</g>
<!-- 72&#45;&gt;73 -->
<g id="edge73" class="edge">
<title>72&#45;&gt;73</title>
<path fill="none" stroke="#000000" d="M714.5,-152.9748C714.5,-146.195 714.5,-135.966 714.5,-127.1331"/>
<polygon fill="#000000" stroke="#000000" points="718.0001,-127.0561 714.5,-117.0561 711.0001,-127.0561 718.0001,-127.0561"/>
</g>
<!-- 74 -->
<g id="node75" class="node">
<title>74</title>
<text text-anchor="middle" x="714.5" y="-54.8" font-family="Times,serif" font-size="14.00" fill="#000000">3</text>
</g>
<!-- 73&#45;&gt;74 -->
<g id="edge74" class="edge">
<title>73&#45;&gt;74</title>
<path fill="none" stroke="#000000" d="M714.5,-101.9748C714.5,-95.195 714.5,-84.966 714.5,-76.1331"/>
<polygon fill="#000000" stroke="#000000" points="718.0001,-76.0561 714.5,-66.0561 711.0001,-76.0561 718.0001,-76.0561"/>
</g>
<!-- 76 -->
<g id="node77" class="node">
<title>76</title>
<text text-anchor="middle" x="781.5" y="-105.8" font-family="Times,serif" font-size="14.00" fill="#000000">9</text>
</g>
<!-- 75&#45;&gt;76 -->
<g id="edge76" class="edge">
<title>75&#45;&gt;76</title>
<path fill="none" stroke="#000000" d="M781.5,-152.9748C781.5,-146.195 781.5,-135.966 781.5,-127.1331"/>
<polygon fill="#000000" stroke="#000000" points="785.0001,-127.0561 781.5,-117.0561 778.0001,-127.0561 785.0001,-127.0561"/>
</g>
<!-- 78 -->
<g id="node79" class="node">
<title>78</title>
<text text-anchor="middle" x="825.5" y="-156.8" font-family="Times,serif" font-size="14.00" fill="#000000">1</text>
</g>
<!-- 77&#45;&gt;78 -->
<g id="edge78" class="edge">
<title>77&#45;&gt;78</title>
<path fill="none" stroke="#000000" d="M825.5,-203.9748C825.5,-197.195 825.5,-186.966 825.5,-178.1331"/>
<polygon fill="#000000" stroke="#000000" points="829.0001,-178.0561 825.5,-168.0561 822.0001,-178.0561 829.0001,-178.0561"/>
</g>
</g>
</svg>
