<?xml version="1.0" encoding="UTF-8" standalone="no"?>
<!DOCTYPE svg PUBLIC "-//W3C//DTD SVG 1.1//EN"
 "http://www.w3.org/Graphics/SVG/1.1/DTD/svg11.dtd">
<!-- Generated by graphviz version 2.40.1 (20161225.0304)
 -->
<!-- Title: %3 Pages: 1 -->
<svg width="394pt" height="431pt"
 viewBox="0.00 0.00 394.00 431.00" xmlns="http://www.w3.org/2000/svg" xmlns:xlink="http://www.w3.org/1999/xlink">
<g id="graph0" class="graph" transform="scale(1 1) rotate(0) translate(4 427)">
<title>%3</title>
<polygon fill="#ffffff" stroke="transparent" points="-4,4 -4,-427 390,-427 390,4 -4,4"/>
<!-- 0 -->
<g id="node1" class="node">
<title>0</title>
<text text-anchor="middle" x="116.5" y="-411.8" font-family="Times,serif" font-size="14.00" fill="#000000">&lt;start&gt;</text>
</g>
<!-- 1 -->
<g id="node2" class="node">
<title>1</title>
<text text-anchor="middle" x="116.5" y="-360.8" font-family="Times,serif" font-size="14.00" fill="#000000">&lt;expr&gt;</text>
</g>
<!-- 0&#45;&gt;1 -->
<g id="edge1" class="edge">
<title>0&#45;&gt;1</title>
<path fill="none" stroke="#000000" d="M116.5,-407.9748C116.5,-401.195 116.5,-390.966 116.5,-382.1331"/>
<polygon fill="#000000" stroke="#000000" points="120.0001,-382.0561 116.5,-372.0561 113.0001,-382.0561 120.0001,-382.0561"/>
</g>
<!-- 2 -->
<g id="node3" class="node">
<title>2</title>
<text text-anchor="middle" x="67.5" y="-309.8" font-family="Times,serif" font-size="14.00" fill="#000000">&lt;expr&gt;</text>
</g>
<!-- 1&#45;&gt;2 -->
<g id="edge2" class="edge">
<title>1&#45;&gt;2</title>
<path fill="none" stroke="#000000" d="M109.2699,-356.9748C102.1046,-349.517 90.9294,-337.8857 81.9406,-328.53"/>
<polygon fill="#000000" stroke="#000000" points="84.2119,-325.8423 74.7598,-321.0561 79.1642,-330.6921 84.2119,-325.8423"/>
</g>
<!-- 8 -->
<g id="node9" class="node">
<title>8</title>
<text text-anchor="middle" x="116.5" y="-309.8" font-family="Times,serif" font-size="14.00" fill="#000000"> + </text>
</g>
<!-- 1&#45;&gt;8 -->
<g id="edge8" class="edge">
<title>1&#45;&gt;8</title>
<path fill="none" stroke="#000000" d="M116.5,-356.9748C116.5,-350.195 116.5,-339.966 116.5,-331.1331"/>
<polygon fill="#000000" stroke="#000000" points="120.0001,-331.0561 116.5,-321.0561 113.0001,-331.0561 120.0001,-331.0561"/>
</g>
<!-- 9 -->
<g id="node10" class="node">
<title>9</title>
<text text-anchor="middle" x="164.5" y="-309.8" font-family="Times,serif" font-size="14.00" fill="#000000">&lt;term&gt;</text>
</g>
<!-- 1&#45;&gt;9 -->
<g id="edge9" class="edge">
<title>1&#45;&gt;9</title>
<path fill="none" stroke="#000000" d="M123.5826,-356.9748C130.6017,-349.517 141.5487,-337.8857 150.3541,-328.53"/>
<polygon fill="#000000" stroke="#000000" points="153.0834,-330.7369 157.3884,-321.0561 147.986,-325.9393 153.0834,-330.7369"/>
</g>
<!-- 3 -->
<g id="node4" class="node">
<title>3</title>
<text text-anchor="middle" x="61.5" y="-258.8" font-family="Times,serif" font-size="14.00" fill="#000000">&lt;term&gt;</text>
</g>
<!-- 2&#45;&gt;3 -->
<g id="edge3" class="edge">
<title>2&#45;&gt;3</title>
<path fill="none" stroke="#000000" d="M66.6147,-305.9748C65.8171,-299.195 64.6136,-288.966 63.5745,-280.1331"/>
<polygon fill="#000000" stroke="#000000" points="67.0335,-279.5786 62.389,-270.0561 60.0814,-280.3966 67.0335,-279.5786"/>
</g>
<!-- 4 -->
<g id="node5" class="node">
<title>4</title>
<text text-anchor="middle" x="30.5" y="-207.8" font-family="Times,serif" font-size="14.00" fill="#000000">&lt;factor&gt;</text>
</g>
<!-- 3&#45;&gt;4 -->
<g id="edge4" class="edge">
<title>3&#45;&gt;4</title>
<path fill="none" stroke="#000000" d="M56.9258,-254.9748C52.5758,-247.8183 45.8899,-236.8188 40.3317,-227.6747"/>
<polygon fill="#000000" stroke="#000000" points="43.278,-225.7834 35.0929,-219.0561 37.2963,-229.4193 43.278,-225.7834"/>
</g>
<!-- 5 -->
<g id="node6" class="node">
<title>5</title>
<text text-anchor="middle" x="27.5" y="-156.8" font-family="Times,serif" font-size="14.00" fill="#000000">&lt;integer&gt;</text>
</g>
<!-- 4&#45;&gt;5 -->
<g id="edge5" class="edge">
<title>4&#45;&gt;5</title>
<path fill="none" stroke="#000000" d="M30.0573,-203.9748C29.6585,-197.195 29.0568,-186.966 28.5372,-178.1331"/>
<polygon fill="#000000" stroke="#000000" points="32.0258,-177.8333 27.9445,-168.0561 25.0378,-178.2444 32.0258,-177.8333"/>
</g>
<!-- 6 -->
<g id="node7" class="node">
<title>6</title>
<text text-anchor="middle" x="27.5" y="-105.8" font-family="Times,serif" font-size="14.00" fill="#000000">&lt;digit&gt;</text>
</g>
<!-- 5&#45;&gt;6 -->
<g id="edge6" class="edge">
<title>5&#45;&gt;6</title>
<path fill="none" stroke="#000000" d="M27.5,-152.9748C27.5,-146.195 27.5,-135.966 27.5,-127.1331"/>
<polygon fill="#000000" stroke="#000000" points="31.0001,-127.0561 27.5,-117.0561 24.0001,-127.0561 31.0001,-127.0561"/>
</g>
<!-- 7 -->
<g id="node8" class="node">
<title>7</title>
<text text-anchor="middle" x="27.5" y="-54.8" font-family="Times,serif" font-size="14.00" fill="#000000">9</text>
</g>
<!-- 6&#45;&gt;7 -->
<g id="edge7" class="edge">
<title>6&#45;&gt;7</title>
<path fill="none" stroke="#000000" d="M27.5,-101.9748C27.5,-95.195 27.5,-84.966 27.5,-76.1331"/>
<polygon fill="#000000" stroke="#000000" points="31.0001,-76.0561 27.5,-66.0561 24.0001,-76.0561 31.0001,-76.0561"/>
</g>
<!-- 10 -->
<g id="node11" class="node">
<title>10</title>
<text text-anchor="middle" x="142.5" y="-258.8" font-family="Times,serif" font-size="14.00" fill="#000000">&lt;term&gt;</text>
</g>
<!-- 9&#45;&gt;10 -->
<g id="edge10" class="edge">
<title>9&#45;&gt;10</title>
<path fill="none" stroke="#000000" d="M161.2538,-305.9748C158.2317,-298.969 153.6209,-288.2803 149.7275,-279.2547"/>
<polygon fill="#000000" stroke="#000000" points="152.9342,-277.8519 145.7595,-270.0561 146.5067,-280.6246 152.9342,-277.8519"/>
</g>
<!-- 21 -->
<g id="node22" class="node">
<title>21</title>
<text text-anchor="middle" x="187.5" y="-258.8" font-family="Times,serif" font-size="14.00" fill="#000000"> / </text>
</g>
<!-- 9&#45;&gt;21 -->
<g id="edge21" class="edge">
<title>9&#45;&gt;21</title>
<path fill="none" stroke="#000000" d="M167.8937,-305.9748C171.0532,-298.969 175.8736,-288.2803 179.944,-279.2547"/>
<polygon fill="#000000" stroke="#000000" points="183.1718,-280.6109 184.0923,-270.0561 176.7907,-277.7331 183.1718,-280.6109"/>
</g>
<!-- 22 -->
<g id="node23" class="node">
<title>22</title>
<text text-anchor="middle" x="286.5" y="-258.8" font-family="Times,serif" font-size="14.00" fill="#000000">&lt;factor&gt;</text>
</g>
<!-- 9&#45;&gt;22 -->
<g id="edge22" class="edge">
<title>9&#45;&gt;22</title>
<path fill="none" stroke="#000000" d="M182.5015,-305.9748C202.6844,-297.5377 235.6449,-283.7591 259.046,-273.9767"/>
<polygon fill="#000000" stroke="#000000" points="260.5483,-277.1423 268.4246,-270.0561 257.8484,-270.6838 260.5483,-277.1423"/>
</g>
<!-- 11 -->
<g id="node12" class="node">
<title>11</title>
<text text-anchor="middle" x="95.5" y="-207.8" font-family="Times,serif" font-size="14.00" fill="#000000">&lt;term&gt;</text>
</g>
<!-- 10&#45;&gt;11 -->
<g id="edge11" class="edge">
<title>10&#45;&gt;11</title>
<path fill="none" stroke="#000000" d="M135.565,-254.9748C128.6921,-247.517 117.9731,-235.8857 109.3512,-226.53"/>
<polygon fill="#000000" stroke="#000000" points="111.8141,-224.0378 102.4635,-219.0561 106.6666,-228.7816 111.8141,-224.0378"/>
</g>
<!-- 16 -->
<g id="node17" class="node">
<title>16</title>
<text text-anchor="middle" x="142.5" y="-207.8" font-family="Times,serif" font-size="14.00" fill="#000000"> * </text>
</g>
<!-- 10&#45;&gt;16 -->
<g id="edge16" class="edge">
<title>10&#45;&gt;16</title>
<path fill="none" stroke="#000000" d="M142.5,-254.9748C142.5,-248.195 142.5,-237.966 142.5,-229.1331"/>
<polygon fill="#000000" stroke="#000000" points="146.0001,-229.0561 142.5,-219.0561 139.0001,-229.0561 146.0001,-229.0561"/>
</g>
<!-- 17 -->
<g id="node18" class="node">
<title>17</title>
<text text-anchor="middle" x="192.5" y="-207.8" font-family="Times,serif" font-size="14.00" fill="#000000">&lt;factor&gt;</text>
</g>
<!-- 10&#45;&gt;17 -->
<g id="edge17" class="edge">
<title>10&#45;&gt;17</title>
<path fill="none" stroke="#000000" d="M149.8777,-254.9748C157.2631,-247.4417 168.8232,-235.6503 178.042,-226.2472"/>
<polygon fill="#000000" stroke="#000000" points="180.5906,-228.6471 185.0921,-219.0561 175.5921,-223.7466 180.5906,-228.6471"/>
</g>
<!-- 12 -->
<g id="node13" class="node">
<title>12</title>
<text text-anchor="middle" x="97.5" y="-156.8" font-family="Times,serif" font-size="14.00" fill="#000000">&lt;factor&gt;</text>
</g>
<!-- 11&#45;&gt;12 -->
<g id="edge12" class="edge">
<title>11&#45;&gt;12</title>
<path fill="none" stroke="#000000" d="M95.7951,-203.9748C96.061,-197.195 96.4621,-186.966 96.8085,-178.1331"/>
<polygon fill="#000000" stroke="#000000" points="100.309,-178.1856 97.2037,-168.0561 93.3144,-177.9112 100.309,-178.1856"/>
</g>
<!-- 13 -->
<g id="node14" class="node">
<title>13</title>
<text text-anchor="middle" x="97.5" y="-105.8" font-family="Times,serif" font-size="14.00" fill="#000000">&lt;integer&gt;</text>
</g>
<!-- 12&#45;&gt;13 -->
<g id="edge13" class="edge">
<title>12&#45;&gt;13</title>
<path fill="none" stroke="#000000" d="M97.5,-152.9748C97.5,-146.195 97.5,-135.966 97.5,-127.1331"/>
<polygon fill="#000000" stroke="#000000" points="101.0001,-127.0561 97.5,-117.0561 94.0001,-127.0561 101.0001,-127.0561"/>
</g>
<!-- 14 -->
<g id="node15" class="node">
<title>14</title>
<text text-anchor="middle" x="97.5" y="-54.8" font-family="Times,serif" font-size="14.00" fill="#000000">&lt;digit&gt;</text>
</g>
<!-- 13&#45;&gt;14 -->
<g id="edge14" class="edge">
<title>13&#45;&gt;14</title>
<path fill="none" stroke="#000000" d="M97.5,-101.9748C97.5,-95.195 97.5,-84.966 97.5,-76.1331"/>
<polygon fill="#000000" stroke="#000000" points="101.0001,-76.0561 97.5,-66.0561 94.0001,-76.0561 101.0001,-76.0561"/>
</g>
<!-- 15 -->
<g id="node16" class="node">
<title>15</title>
<text text-anchor="middle" x="97.5" y="-3.8" font-family="Times,serif" font-size="14.00" fill="#000000">3</text>
</g>
<!-- 14&#45;&gt;15 -->
<g id="edge15" class="edge">
<title>14&#45;&gt;15</title>
<path fill="none" stroke="#000000" d="M97.5,-50.9748C97.5,-44.195 97.5,-33.966 97.5,-25.1331"/>
<polygon fill="#000000" stroke="#000000" points="101.0001,-25.0561 97.5,-15.0561 94.0001,-25.0561 101.0001,-25.0561"/>
</g>
<!-- 18 -->
<g id="node19" class="node">
<title>18</title>
<text text-anchor="middle" x="192.5" y="-156.8" font-family="Times,serif" font-size="14.00" fill="#000000">&lt;integer&gt;</text>
</g>
<!-- 17&#45;&gt;18 -->
<g id="edge18" class="edge">
<title>17&#45;&gt;18</title>
<path fill="none" stroke="#000000" d="M192.5,-203.9748C192.5,-197.195 192.5,-186.966 192.5,-178.1331"/>
<polygon fill="#000000" stroke="#000000" points="196.0001,-178.0561 192.5,-168.0561 189.0001,-178.0561 196.0001,-178.0561"/>
</g>
<!-- 19 -->
<g id="node20" class="node">
<title>19</title>
<text text-anchor="middle" x="192.5" y="-105.8" font-family="Times,serif" font-size="14.00" fill="#000000">&lt;digit&gt;</text>
</g>
<!-- 18&#45;&gt;19 -->
<g id="edge19" class="edge">
<title>18&#45;&gt;19</title>
<path fill="none" stroke="#000000" d="M192.5,-152.9748C192.5,-146.195 192.5,-135.966 192.5,-127.1331"/>
<polygon fill="#000000" stroke="#000000" points="196.0001,-127.0561 192.5,-117.0561 189.0001,-127.0561 196.0001,-127.0561"/>
</g>
<!-- 20 -->
<g id="node21" class="node">
<title>20</title>
<text text-anchor="middle" x="192.5" y="-54.8" font-family="Times,serif" font-size="14.00" fill="#000000">7</text>
</g>
<!-- 19&#45;&gt;20 -->
<g id="edge20" class="edge">
<title>19&#45;&gt;20</title>
<path fill="none" stroke="#000000" d="M192.5,-101.9748C192.5,-95.195 192.5,-84.966 192.5,-76.1331"/>
<polygon fill="#000000" stroke="#000000" points="196.0001,-76.0561 192.5,-66.0561 189.0001,-76.0561 196.0001,-76.0561"/>
</g>
<!-- 23 -->
<g id="node24" class="node">
<title>23</title>
<text text-anchor="middle" x="262.5" y="-207.8" font-family="Times,serif" font-size="14.00" fill="#000000">&lt;integer&gt;</text>
</g>
<!-- 22&#45;&gt;23 -->
<g id="edge23" class="edge">
<title>22&#45;&gt;23</title>
<path fill="none" stroke="#000000" d="M282.9587,-254.9748C279.6619,-247.969 274.6319,-237.2803 270.3845,-228.2547"/>
<polygon fill="#000000" stroke="#000000" points="273.4807,-226.614 266.0558,-219.0561 267.147,-229.5946 273.4807,-226.614"/>
</g>
<!-- 26 -->
<g id="node27" class="node">
<title>26</title>
<text text-anchor="middle" x="310.5" y="-207.8" font-family="Times,serif" font-size="14.00" fill="#000000">.</text>
</g>
<!-- 22&#45;&gt;26 -->
<g id="edge26" class="edge">
<title>22&#45;&gt;26</title>
<path fill="none" stroke="#000000" d="M290.0413,-254.9748C293.755,-247.0832 299.6678,-234.5185 304.1839,-224.9217"/>
<polygon fill="#000000" stroke="#000000" points="307.4065,-226.2936 308.4976,-215.7551 301.0727,-223.3129 307.4065,-226.2936"/>
</g>
<!-- 27 -->
<g id="node28" class="node">
<title>27</title>
<text text-anchor="middle" x="358.5" y="-207.8" font-family="Times,serif" font-size="14.00" fill="#000000">&lt;integer&gt;</text>
</g>
<!-- 22&#45;&gt;27 -->
<g id="edge27" class="edge">
<title>22&#45;&gt;27</title>
<path fill="none" stroke="#000000" d="M297.1238,-254.9748C308.2906,-247.065 326.0851,-234.4606 339.6453,-224.8554"/>
<polygon fill="#000000" stroke="#000000" points="341.6954,-227.6924 347.8326,-219.0561 337.6492,-221.9802 341.6954,-227.6924"/>
</g>
<!-- 24 -->
<g id="node25" class="node">
<title>24</title>
<text text-anchor="middle" x="262.5" y="-156.8" font-family="Times,serif" font-size="14.00" fill="#000000">&lt;digit&gt;</text>
</g>
<!-- 23&#45;&gt;24 -->
<g id="edge24" class="edge">
<title>23&#45;&gt;24</title>
<path fill="none" stroke="#000000" d="M262.5,-203.9748C262.5,-197.195 262.5,-186.966 262.5,-178.1331"/>
<polygon fill="#000000" stroke="#000000" points="266.0001,-178.0561 262.5,-168.0561 259.0001,-178.0561 266.0001,-178.0561"/>
</g>
<!-- 25 -->
<g id="node26" class="node">
<title>25</title>
<text text-anchor="middle" x="262.5" y="-105.8" font-family="Times,serif" font-size="14.00" fill="#000000">0</text>
</g>
<!-- 24&#45;&gt;25 -->
<g id="edge25" class="edge">
<title>24&#45;&gt;25</title>
<path fill="none" stroke="#000000" d="M262.5,-152.9748C262.5,-146.195 262.5,-135.966 262.5,-127.1331"/>
<polygon fill="#000000" stroke="#000000" points="266.0001,-127.0561 262.5,-117.0561 259.0001,-127.0561 266.0001,-127.0561"/>
</g>
<!-- 28 -->
<g id="node29" class="node">
<title>28</title>
<text text-anchor="middle" x="358.5" y="-156.8" font-family="Times,serif" font-size="14.00" fill="#000000">&lt;digit&gt;</text>
</g>
<!-- 27&#45;&gt;28 -->
<g id="edge28" class="edge">
<title>27&#45;&gt;28</title>
<path fill="none" stroke="#000000" d="M358.5,-203.9748C358.5,-197.195 358.5,-186.966 358.5,-178.1331"/>
<polygon fill="#000000" stroke="#000000" points="362.0001,-178.0561 358.5,-168.0561 355.0001,-178.0561 362.0001,-178.0561"/>
</g>
<!-- 29 -->
<g id="node30" class="node">
<title>29</title>
<text text-anchor="middle" x="358.5" y="-105.8" font-family="Times,serif" font-size="14.00" fill="#000000">1</text>
</g>
<!-- 28&#45;&gt;29 -->
<g id="edge29" class="edge">
<title>28&#45;&gt;29</title>
<path fill="none" stroke="#000000" d="M358.5,-152.9748C358.5,-146.195 358.5,-135.966 358.5,-127.1331"/>
<polygon fill="#000000" stroke="#000000" points="362.0001,-127.0561 358.5,-117.0561 355.0001,-127.0561 362.0001,-127.0561"/>
</g>
</g>
</svg>
