<?xml version="1.0" encoding="UTF-8" standalone="no"?>
<!DOCTYPE svg PUBLIC "-//W3C//DTD SVG 1.1//EN"
 "http://www.w3.org/Graphics/SVG/1.1/DTD/svg11.dtd">
<!-- Generated by graphviz version 2.40.1 (20161225.0304)
 -->
<!-- Title: %3 Pages: 1 -->
<svg width="260pt" height="329pt"
 viewBox="0.00 0.00 260.00 329.00" xmlns="http://www.w3.org/2000/svg" xmlns:xlink="http://www.w3.org/1999/xlink">
<g id="graph0" class="graph" transform="scale(1 1) rotate(0) translate(4 325)">
<title>%3</title>
<polygon fill="#ffffff" stroke="transparent" points="-4,4 -4,-325 256,-325 256,4 -4,4"/>
<!-- 0 -->
<g id="node1" class="node">
<title>0</title>
<text text-anchor="middle" x="173.5" y="-309.8" font-family="Times,serif" font-size="14.00" fill="#000000">&lt;start&gt;</text>
</g>
<!-- 1 -->
<g id="node2" class="node">
<title>1</title>
<text text-anchor="middle" x="173.5" y="-258.8" font-family="Times,serif" font-size="14.00" fill="#000000">&lt;expr&gt;</text>
</g>
<!-- 0&#45;&gt;1 -->
<g id="edge1" class="edge">
<title>0&#45;&gt;1</title>
<path fill="none" stroke="#000000" d="M173.5,-305.9748C173.5,-299.195 173.5,-288.966 173.5,-280.1331"/>
<polygon fill="#000000" stroke="#000000" points="177.0001,-280.0561 173.5,-270.0561 170.0001,-280.0561 177.0001,-280.0561"/>
</g>
<!-- 2 -->
<g id="node3" class="node">
<title>2</title>
<text text-anchor="middle" x="123.5" y="-207.8" font-family="Times,serif" font-size="14.00" fill="#000000">&lt;expr&gt;</text>
</g>
<!-- 1&#45;&gt;2 -->
<g id="edge2" class="edge">
<title>1&#45;&gt;2</title>
<path fill="none" stroke="#000000" d="M166.1223,-254.9748C158.7369,-247.4417 147.1768,-235.6503 137.958,-226.2472"/>
<polygon fill="#000000" stroke="#000000" points="140.4079,-223.7466 130.9079,-219.0561 135.4094,-228.6471 140.4079,-223.7466"/>
</g>
<!-- 11 -->
<g id="node12" class="node">
<title>11</title>
<text text-anchor="middle" x="173.5" y="-207.8" font-family="Times,serif" font-size="14.00" fill="#000000"> + </text>
</g>
<!-- 1&#45;&gt;11 -->
<g id="edge11" class="edge">
<title>1&#45;&gt;11</title>
<path fill="none" stroke="#000000" d="M173.5,-254.9748C173.5,-248.195 173.5,-237.966 173.5,-229.1331"/>
<polygon fill="#000000" stroke="#000000" points="177.0001,-229.0561 173.5,-219.0561 170.0001,-229.0561 177.0001,-229.0561"/>
</g>
<!-- 12 -->
<g id="node13" class="node">
<title>12</title>
<text text-anchor="middle" x="222.5" y="-207.8" font-family="Times,serif" font-size="14.00" fill="#000000">&lt;term&gt;</text>
</g>
<!-- 1&#45;&gt;12 -->
<g id="edge12" class="edge">
<title>1&#45;&gt;12</title>
<path fill="none" stroke="#000000" d="M180.7301,-254.9748C187.8954,-247.517 199.0706,-235.8857 208.0594,-226.53"/>
<polygon fill="#000000" stroke="#000000" points="210.8358,-228.6921 215.2402,-219.0561 205.7881,-223.8423 210.8358,-228.6921"/>
</g>
<!-- 3 -->
<g id="node4" class="node">
<title>3</title>
<text text-anchor="middle" x="70.5" y="-156.8" font-family="Times,serif" font-size="14.00" fill="#000000">&lt;expr&gt;</text>
</g>
<!-- 2&#45;&gt;3 -->
<g id="edge3" class="edge">
<title>2&#45;&gt;3</title>
<path fill="none" stroke="#000000" d="M115.6797,-203.9748C107.8511,-196.4417 95.5974,-184.6503 85.8255,-175.2472"/>
<polygon fill="#000000" stroke="#000000" points="87.985,-172.4679 78.3524,-168.0561 83.1313,-177.5119 87.985,-172.4679"/>
</g>
<!-- 9 -->
<g id="node10" class="node">
<title>9</title>
<text text-anchor="middle" x="115.5" y="-156.8" font-family="Times,serif" font-size="14.00" fill="#000000"> &#45; </text>
</g>
<!-- 2&#45;&gt;9 -->
<g id="edge9" class="edge">
<title>2&#45;&gt;9</title>
<path fill="none" stroke="#000000" d="M122.3196,-203.9748C121.2561,-197.195 119.6515,-186.966 118.266,-178.1331"/>
<polygon fill="#000000" stroke="#000000" points="121.6927,-177.3929 116.6853,-168.0561 114.7773,-178.4777 121.6927,-177.3929"/>
</g>
<!-- 10 -->
<g id="node11" class="node">
<title>10</title>
<text text-anchor="middle" x="160.5" y="-156.8" font-family="Times,serif" font-size="14.00" fill="#000000">&lt;term&gt;</text>
</g>
<!-- 2&#45;&gt;10 -->
<g id="edge10" class="edge">
<title>2&#45;&gt;10</title>
<path fill="none" stroke="#000000" d="M128.9595,-203.9748C134.2061,-196.743 142.2998,-185.5868 148.9744,-176.3866"/>
<polygon fill="#000000" stroke="#000000" points="151.9788,-178.2056 155.0181,-168.0561 146.3128,-174.095 151.9788,-178.2056"/>
</g>
<!-- 4 -->
<g id="node5" class="node">
<title>4</title>
<text text-anchor="middle" x="24.5" y="-105.8" font-family="Times,serif" font-size="14.00" fill="#000000">&lt;expr&gt;</text>
</g>
<!-- 3&#45;&gt;4 -->
<g id="edge4" class="edge">
<title>3&#45;&gt;4</title>
<path fill="none" stroke="#000000" d="M63.7125,-152.9748C56.9859,-145.517 46.495,-133.8857 38.0564,-124.53"/>
<polygon fill="#000000" stroke="#000000" points="40.612,-122.1376 31.3153,-117.0561 35.414,-126.826 40.612,-122.1376"/>
</g>
<!-- 7 -->
<g id="node8" class="node">
<title>7</title>
<text text-anchor="middle" x="70.5" y="-105.8" font-family="Times,serif" font-size="14.00" fill="#000000"> + </text>
</g>
<!-- 3&#45;&gt;7 -->
<g id="edge7" class="edge">
<title>3&#45;&gt;7</title>
<path fill="none" stroke="#000000" d="M70.5,-152.9748C70.5,-146.195 70.5,-135.966 70.5,-127.1331"/>
<polygon fill="#000000" stroke="#000000" points="74.0001,-127.0561 70.5,-117.0561 67.0001,-127.0561 74.0001,-127.0561"/>
</g>
<!-- 8 -->
<g id="node9" class="node">
<title>8</title>
<text text-anchor="middle" x="117.5" y="-105.8" font-family="Times,serif" font-size="14.00" fill="#000000">&lt;term&gt;</text>
</g>
<!-- 3&#45;&gt;8 -->
<g id="edge8" class="edge">
<title>3&#45;&gt;8</title>
<path fill="none" stroke="#000000" d="M77.435,-152.9748C84.3079,-145.517 95.0269,-133.8857 103.6488,-124.53"/>
<polygon fill="#000000" stroke="#000000" points="106.3334,-126.7816 110.5365,-117.0561 101.1859,-122.0378 106.3334,-126.7816"/>
</g>
<!-- 5 -->
<g id="node6" class="node">
<title>5</title>
<text text-anchor="middle" x="24.5" y="-54.8" font-family="Times,serif" font-size="14.00" fill="#000000">&lt;term&gt;</text>
</g>
<!-- 4&#45;&gt;5 -->
<g id="edge5" class="edge">
<title>4&#45;&gt;5</title>
<path fill="none" stroke="#000000" d="M24.5,-101.9748C24.5,-95.195 24.5,-84.966 24.5,-76.1331"/>
<polygon fill="#000000" stroke="#000000" points="28.0001,-76.0561 24.5,-66.0561 21.0001,-76.0561 28.0001,-76.0561"/>
</g>
<!-- 6 -->
<g id="node7" class="node">
<title>6</title>
<text text-anchor="middle" x="24.5" y="-3.8" font-family="Times,serif" font-size="14.00" fill="#000000">&lt;factor&gt;</text>
</g>
<!-- 5&#45;&gt;6 -->
<g id="edge6" class="edge">
<title>5&#45;&gt;6</title>
<path fill="none" stroke="#000000" d="M24.5,-50.9748C24.5,-44.195 24.5,-33.966 24.5,-25.1331"/>
<polygon fill="#000000" stroke="#000000" points="28.0001,-25.0561 24.5,-15.0561 21.0001,-25.0561 28.0001,-25.0561"/>
</g>
<!-- 13 -->
<g id="node14" class="node">
<title>13</title>
<text text-anchor="middle" x="224.5" y="-156.8" font-family="Times,serif" font-size="14.00" fill="#000000">&lt;factor&gt;</text>
</g>
<!-- 12&#45;&gt;13 -->
<g id="edge13" class="edge">
<title>12&#45;&gt;13</title>
<path fill="none" stroke="#000000" d="M222.7951,-203.9748C223.061,-197.195 223.4621,-186.966 223.8085,-178.1331"/>
<polygon fill="#000000" stroke="#000000" points="227.309,-178.1856 224.2037,-168.0561 220.3144,-177.9112 227.309,-178.1856"/>
</g>
<!-- 14 -->
<g id="node15" class="node">
<title>14</title>
<text text-anchor="middle" x="224.5" y="-105.8" font-family="Times,serif" font-size="14.00" fill="#000000">&lt;integer&gt;</text>
</g>
<!-- 13&#45;&gt;14 -->
<g id="edge14" class="edge">
<title>13&#45;&gt;14</title>
<path fill="none" stroke="#000000" d="M224.5,-152.9748C224.5,-146.195 224.5,-135.966 224.5,-127.1331"/>
<polygon fill="#000000" stroke="#000000" points="228.0001,-127.0561 224.5,-117.0561 221.0001,-127.0561 228.0001,-127.0561"/>
</g>
<!-- 15 -->
<g id="node16" class="node">
<title>15</title>
<text text-anchor="middle" x="224.5" y="-54.8" font-family="Times,serif" font-size="14.00" fill="#000000">&lt;digit&gt;</text>
</g>
<!-- 14&#45;&gt;15 -->
<g id="edge15" class="edge">
<title>14&#45;&gt;15</title>
<path fill="none" stroke="#000000" d="M224.5,-101.9748C224.5,-95.195 224.5,-84.966 224.5,-76.1331"/>
<polygon fill="#000000" stroke="#000000" points="228.0001,-76.0561 224.5,-66.0561 221.0001,-76.0561 228.0001,-76.0561"/>
</g>
</g>
</svg>
