<?xml version="1.0" encoding="UTF-8" standalone="no"?>
<!DOCTYPE svg PUBLIC "-//W3C//DTD SVG 1.1//EN"
 "http://www.w3.org/Graphics/SVG/1.1/DTD/svg11.dtd">
<!-- Generated by graphviz version 2.40.1 (20161225.0304)
 -->
<!-- Title: %3 Pages: 1 -->
<svg width="290pt" height="431pt"
 viewBox="0.00 0.00 290.00 431.00" xmlns="http://www.w3.org/2000/svg" xmlns:xlink="http://www.w3.org/1999/xlink">
<g id="graph0" class="graph" transform="scale(1 1) rotate(0) translate(4 427)">
<title>%3</title>
<polygon fill="#ffffff" stroke="transparent" points="-4,4 -4,-427 286,-427 286,4 -4,4"/>
<!-- 0 -->
<g id="node1" class="node">
<title>0</title>
<text text-anchor="middle" x="197.5" y="-411.8" font-family="Times,serif" font-size="14.00" fill="#000000">&lt;start&gt;</text>
</g>
<!-- 1 -->
<g id="node2" class="node">
<title>1</title>
<text text-anchor="middle" x="197.5" y="-360.8" font-family="Times,serif" font-size="14.00" fill="#000000">&lt;expr&gt;</text>
</g>
<!-- 0&#45;&gt;1 -->
<g id="edge1" class="edge">
<title>0&#45;&gt;1</title>
<path fill="none" stroke="#000000" d="M197.5,-407.9748C197.5,-401.195 197.5,-390.966 197.5,-382.1331"/>
<polygon fill="#000000" stroke="#000000" points="201.0001,-382.0561 197.5,-372.0561 194.0001,-382.0561 201.0001,-382.0561"/>
</g>
<!-- 2 -->
<g id="node3" class="node">
<title>2</title>
<text text-anchor="middle" x="147.5" y="-309.8" font-family="Times,serif" font-size="14.00" fill="#000000">&lt;expr&gt;</text>
</g>
<!-- 1&#45;&gt;2 -->
<g id="edge2" class="edge">
<title>1&#45;&gt;2</title>
<path fill="none" stroke="#000000" d="M190.1223,-356.9748C182.7369,-349.4417 171.1768,-337.6503 161.958,-328.2472"/>
<polygon fill="#000000" stroke="#000000" points="164.4079,-325.7466 154.9079,-321.0561 159.4094,-330.6471 164.4079,-325.7466"/>
</g>
<!-- 15 -->
<g id="node16" class="node">
<title>15</title>
<text text-anchor="middle" x="197.5" y="-309.8" font-family="Times,serif" font-size="14.00" fill="#000000"> + </text>
</g>
<!-- 1&#45;&gt;15 -->
<g id="edge15" class="edge">
<title>1&#45;&gt;15</title>
<path fill="none" stroke="#000000" d="M197.5,-356.9748C197.5,-350.195 197.5,-339.966 197.5,-331.1331"/>
<polygon fill="#000000" stroke="#000000" points="201.0001,-331.0561 197.5,-321.0561 194.0001,-331.0561 201.0001,-331.0561"/>
</g>
<!-- 16 -->
<g id="node17" class="node">
<title>16</title>
<text text-anchor="middle" x="246.5" y="-309.8" font-family="Times,serif" font-size="14.00" fill="#000000">&lt;term&gt;</text>
</g>
<!-- 1&#45;&gt;16 -->
<g id="edge16" class="edge">
<title>1&#45;&gt;16</title>
<path fill="none" stroke="#000000" d="M204.7301,-356.9748C211.8954,-349.517 223.0706,-337.8857 232.0594,-328.53"/>
<polygon fill="#000000" stroke="#000000" points="234.8358,-330.6921 239.2402,-321.0561 229.7881,-325.8423 234.8358,-330.6921"/>
</g>
<!-- 3 -->
<g id="node4" class="node">
<title>3</title>
<text text-anchor="middle" x="84.5" y="-258.8" font-family="Times,serif" font-size="14.00" fill="#000000">&lt;expr&gt;</text>
</g>
<!-- 2&#45;&gt;3 -->
<g id="edge3" class="edge">
<title>2&#45;&gt;3</title>
<path fill="none" stroke="#000000" d="M138.2041,-305.9748C128.6193,-298.2157 113.4541,-285.939 101.6799,-276.4075"/>
<polygon fill="#000000" stroke="#000000" points="103.8087,-273.6278 93.834,-270.0561 99.4043,-279.0685 103.8087,-273.6278"/>
</g>
<!-- 11 -->
<g id="node12" class="node">
<title>11</title>
<text text-anchor="middle" x="139.5" y="-258.8" font-family="Times,serif" font-size="14.00" fill="#000000"> &#45; </text>
</g>
<!-- 2&#45;&gt;11 -->
<g id="edge11" class="edge">
<title>2&#45;&gt;11</title>
<path fill="none" stroke="#000000" d="M146.3196,-305.9748C145.2561,-299.195 143.6515,-288.966 142.266,-280.1331"/>
<polygon fill="#000000" stroke="#000000" points="145.6927,-279.3929 140.6853,-270.0561 138.7773,-280.4777 145.6927,-279.3929"/>
</g>
<!-- 12 -->
<g id="node13" class="node">
<title>12</title>
<text text-anchor="middle" x="184.5" y="-258.8" font-family="Times,serif" font-size="14.00" fill="#000000">&lt;term&gt;</text>
</g>
<!-- 2&#45;&gt;12 -->
<g id="edge12" class="edge">
<title>2&#45;&gt;12</title>
<path fill="none" stroke="#000000" d="M152.9595,-305.9748C158.2061,-298.743 166.2998,-287.5868 172.9744,-278.3866"/>
<polygon fill="#000000" stroke="#000000" points="175.9788,-280.2056 179.0181,-270.0561 170.3128,-276.095 175.9788,-280.2056"/>
</g>
<!-- 4 -->
<g id="node5" class="node">
<title>4</title>
<text text-anchor="middle" x="27.5" y="-207.8" font-family="Times,serif" font-size="14.00" fill="#000000">&lt;expr&gt;</text>
</g>
<!-- 3&#45;&gt;4 -->
<g id="edge4" class="edge">
<title>3&#45;&gt;4</title>
<path fill="none" stroke="#000000" d="M76.0895,-254.9748C67.5859,-247.3663 54.2275,-235.4141 43.6677,-225.9658"/>
<polygon fill="#000000" stroke="#000000" points="45.7313,-223.1157 35.9451,-219.0561 41.0637,-228.3324 45.7313,-223.1157"/>
</g>
<!-- 9 -->
<g id="node10" class="node">
<title>9</title>
<text text-anchor="middle" x="73.5" y="-207.8" font-family="Times,serif" font-size="14.00" fill="#000000"> + </text>
</g>
<!-- 3&#45;&gt;9 -->
<g id="edge9" class="edge">
<title>3&#45;&gt;9</title>
<path fill="none" stroke="#000000" d="M82.8769,-254.9748C81.3984,-248.1196 79.1592,-237.7383 77.2398,-228.8392"/>
<polygon fill="#000000" stroke="#000000" points="80.6595,-228.0934 75.1297,-219.0561 73.8169,-229.5693 80.6595,-228.0934"/>
</g>
<!-- 10 -->
<g id="node11" class="node">
<title>10</title>
<text text-anchor="middle" x="120.5" y="-207.8" font-family="Times,serif" font-size="14.00" fill="#000000">&lt;term&gt;</text>
</g>
<!-- 3&#45;&gt;10 -->
<g id="edge10" class="edge">
<title>3&#45;&gt;10</title>
<path fill="none" stroke="#000000" d="M89.8119,-254.9748C94.9167,-247.743 102.7916,-236.5868 109.2859,-227.3866"/>
<polygon fill="#000000" stroke="#000000" points="112.2588,-229.2442 115.1663,-219.0561 106.54,-225.2074 112.2588,-229.2442"/>
</g>
<!-- 5 -->
<g id="node6" class="node">
<title>5</title>
<text text-anchor="middle" x="27.5" y="-156.8" font-family="Times,serif" font-size="14.00" fill="#000000">&lt;term&gt;</text>
</g>
<!-- 4&#45;&gt;5 -->
<g id="edge5" class="edge">
<title>4&#45;&gt;5</title>
<path fill="none" stroke="#000000" d="M27.5,-203.9748C27.5,-197.195 27.5,-186.966 27.5,-178.1331"/>
<polygon fill="#000000" stroke="#000000" points="31.0001,-178.0561 27.5,-168.0561 24.0001,-178.0561 31.0001,-178.0561"/>
</g>
<!-- 6 -->
<g id="node7" class="node">
<title>6</title>
<text text-anchor="middle" x="27.5" y="-105.8" font-family="Times,serif" font-size="14.00" fill="#000000">&lt;factor&gt;</text>
</g>
<!-- 5&#45;&gt;6 -->
<g id="edge6" class="edge">
<title>5&#45;&gt;6</title>
<path fill="none" stroke="#000000" d="M27.5,-152.9748C27.5,-146.195 27.5,-135.966 27.5,-127.1331"/>
<polygon fill="#000000" stroke="#000000" points="31.0001,-127.0561 27.5,-117.0561 24.0001,-127.0561 31.0001,-127.0561"/>
</g>
<!-- 7 -->
<g id="node8" class="node">
<title>7</title>
<text text-anchor="middle" x="27.5" y="-54.8" font-family="Times,serif" font-size="14.00" fill="#000000">&lt;integer&gt;</text>
</g>
<!-- 6&#45;&gt;7 -->
<g id="edge7" class="edge">
<title>6&#45;&gt;7</title>
<path fill="none" stroke="#000000" d="M27.5,-101.9748C27.5,-95.195 27.5,-84.966 27.5,-76.1331"/>
<polygon fill="#000000" stroke="#000000" points="31.0001,-76.0561 27.5,-66.0561 24.0001,-76.0561 31.0001,-76.0561"/>
</g>
<!-- 8 -->
<g id="node9" class="node">
<title>8</title>
<text text-anchor="middle" x="27.5" y="-3.8" font-family="Times,serif" font-size="14.00" fill="#000000">&lt;digit&gt;</text>
</g>
<!-- 7&#45;&gt;8 -->
<g id="edge8" class="edge">
<title>7&#45;&gt;8</title>
<path fill="none" stroke="#000000" d="M27.5,-50.9748C27.5,-44.195 27.5,-33.966 27.5,-25.1331"/>
<polygon fill="#000000" stroke="#000000" points="31.0001,-25.0561 27.5,-15.0561 24.0001,-25.0561 31.0001,-25.0561"/>
</g>
<!-- 13 -->
<g id="node14" class="node">
<title>13</title>
<text text-anchor="middle" x="184.5" y="-207.8" font-family="Times,serif" font-size="14.00" fill="#000000">&lt;factor&gt;</text>
</g>
<!-- 12&#45;&gt;13 -->
<g id="edge13" class="edge">
<title>12&#45;&gt;13</title>
<path fill="none" stroke="#000000" d="M184.5,-254.9748C184.5,-248.195 184.5,-237.966 184.5,-229.1331"/>
<polygon fill="#000000" stroke="#000000" points="188.0001,-229.0561 184.5,-219.0561 181.0001,-229.0561 188.0001,-229.0561"/>
</g>
<!-- 14 -->
<g id="node15" class="node">
<title>14</title>
<text text-anchor="middle" x="184.5" y="-156.8" font-family="Times,serif" font-size="14.00" fill="#000000">&lt;integer&gt;</text>
</g>
<!-- 13&#45;&gt;14 -->
<g id="edge14" class="edge">
<title>13&#45;&gt;14</title>
<path fill="none" stroke="#000000" d="M184.5,-203.9748C184.5,-197.195 184.5,-186.966 184.5,-178.1331"/>
<polygon fill="#000000" stroke="#000000" points="188.0001,-178.0561 184.5,-168.0561 181.0001,-178.0561 188.0001,-178.0561"/>
</g>
<!-- 17 -->
<g id="node18" class="node">
<title>17</title>
<text text-anchor="middle" x="251.5" y="-258.8" font-family="Times,serif" font-size="14.00" fill="#000000">&lt;factor&gt;</text>
</g>
<!-- 16&#45;&gt;17 -->
<g id="edge17" class="edge">
<title>16&#45;&gt;17</title>
<path fill="none" stroke="#000000" d="M247.2378,-305.9748C247.9025,-299.195 248.9053,-288.966 249.7713,-280.1331"/>
<polygon fill="#000000" stroke="#000000" points="253.2667,-280.3499 250.7592,-270.0561 246.3001,-279.6669 253.2667,-280.3499"/>
</g>
<!-- 18 -->
<g id="node19" class="node">
<title>18</title>
<text text-anchor="middle" x="254.5" y="-207.8" font-family="Times,serif" font-size="14.00" fill="#000000">&lt;integer&gt;</text>
</g>
<!-- 17&#45;&gt;18 -->
<g id="edge18" class="edge">
<title>17&#45;&gt;18</title>
<path fill="none" stroke="#000000" d="M251.9427,-254.9748C252.3415,-248.195 252.9432,-237.966 253.4628,-229.1331"/>
<polygon fill="#000000" stroke="#000000" points="256.9622,-229.2444 254.0555,-219.0561 249.9742,-228.8333 256.9622,-229.2444"/>
</g>
<!-- 19 -->
<g id="node20" class="node">
<title>19</title>
<text text-anchor="middle" x="254.5" y="-156.8" font-family="Times,serif" font-size="14.00" fill="#000000">&lt;digit&gt;</text>
</g>
<!-- 18&#45;&gt;19 -->
<g id="edge19" class="edge">
<title>18&#45;&gt;19</title>
<path fill="none" stroke="#000000" d="M254.5,-203.9748C254.5,-197.195 254.5,-186.966 254.5,-178.1331"/>
<polygon fill="#000000" stroke="#000000" points="258.0001,-178.0561 254.5,-168.0561 251.0001,-178.0561 258.0001,-178.0561"/>
</g>
<!-- 20 -->
<g id="node21" class="node">
<title>20</title>
<text text-anchor="middle" x="254.5" y="-105.8" font-family="Times,serif" font-size="14.00" fill="#000000">5</text>
</g>
<!-- 19&#45;&gt;20 -->
<g id="edge20" class="edge">
<title>19&#45;&gt;20</title>
<path fill="none" stroke="#000000" d="M254.5,-152.9748C254.5,-146.195 254.5,-135.966 254.5,-127.1331"/>
<polygon fill="#000000" stroke="#000000" points="258.0001,-127.0561 254.5,-117.0561 251.0001,-127.0561 258.0001,-127.0561"/>
</g>
</g>
</svg>
