<?xml version="1.0" encoding="UTF-8" standalone="no"?>
<!DOCTYPE svg PUBLIC "-//W3C//DTD SVG 1.1//EN"
 "http://www.w3.org/Graphics/SVG/1.1/DTD/svg11.dtd">
<!-- Generated by graphviz version 2.40.1 (20161225.0304)
 -->
<!-- Title: root Pages: 1 -->
<svg width="153pt" height="380pt"
 viewBox="0.00 0.00 153.00 380.00" xmlns="http://www.w3.org/2000/svg" xmlns:xlink="http://www.w3.org/1999/xlink">
<g id="graph0" class="graph" transform="scale(1 1) rotate(0) translate(4 376)">
<title>root</title>
<polygon fill="#ffffff" stroke="transparent" points="-4,4 -4,-376 149,-376 149,4 -4,4"/>
<!-- \&lt;start\&gt; -->
<g id="node1" class="node">
<title>\&lt;start\&gt;</title>
<text text-anchor="middle" x="74.5" y="-360.8" font-family="Times,serif" font-size="14.00" fill="#000000">&lt;start&gt;</text>
</g>
<!-- \&lt;expr\&gt; -->
<g id="node2" class="node">
<title>\&lt;expr\&gt;</title>
<text text-anchor="middle" x="74.5" y="-309.8" font-family="Times,serif" font-size="14.00" fill="#000000">&lt;expr&gt;</text>
</g>
<!-- \&lt;start\&gt;&#45;&gt;\&lt;expr\&gt; -->
<g id="edge1" class="edge">
<title>\&lt;start\&gt;&#45;&gt;\&lt;expr\&gt;</title>
<path fill="none" stroke="#000000" d="M74.5,-356.9748C74.5,-350.195 74.5,-339.966 74.5,-331.1331"/>
<polygon fill="#000000" stroke="#000000" points="78.0001,-331.0561 74.5,-321.0561 71.0001,-331.0561 78.0001,-331.0561"/>
</g>
<!-- \&lt;expr\&gt;  -->
<g id="node3" class="node">
<title>\&lt;expr\&gt; </title>
<text text-anchor="middle" x="29.5" y="-258.8" font-family="Times,serif" font-size="14.00" fill="#000000">&lt;expr&gt; </text>
</g>
<!-- \&lt;expr\&gt;&#45;&gt;\&lt;expr\&gt;  -->
<g id="edge2" class="edge">
<title>\&lt;expr\&gt;&#45;&gt;\&lt;expr\&gt; </title>
<path fill="none" stroke="#000000" d="M67.8601,-305.9748C61.3462,-298.5923 51.2238,-287.1203 43.0125,-277.8142"/>
<polygon fill="#000000" stroke="#000000" points="45.4078,-275.2388 36.1671,-270.0561 40.159,-279.8702 45.4078,-275.2388"/>
</g>
<!-- + -->
<g id="node4" class="node">
<title>+</title>
<text text-anchor="middle" x="74.5" y="-258.8" font-family="Times,serif" font-size="14.00" fill="#000000">+</text>
</g>
<!-- \&lt;expr\&gt;&#45;&gt;+ -->
<g id="edge3" class="edge">
<title>\&lt;expr\&gt;&#45;&gt;+</title>
<path fill="none" stroke="#000000" d="M74.5,-305.9748C74.5,-299.195 74.5,-288.966 74.5,-280.1331"/>
<polygon fill="#000000" stroke="#000000" points="78.0001,-280.0561 74.5,-270.0561 71.0001,-280.0561 78.0001,-280.0561"/>
</g>
<!-- \&lt;term\&gt; -->
<g id="node5" class="node">
<title>\&lt;term\&gt;</title>
<text text-anchor="middle" x="117.5" y="-258.8" font-family="Times,serif" font-size="14.00" fill="#000000">&lt;term&gt;</text>
</g>
<!-- \&lt;expr\&gt;&#45;&gt;\&lt;term\&gt; -->
<g id="edge4" class="edge">
<title>\&lt;expr\&gt;&#45;&gt;\&lt;term\&gt;</title>
<path fill="none" stroke="#000000" d="M80.8448,-305.9748C87.0692,-298.5923 96.7417,-287.1203 104.5881,-277.8142"/>
<polygon fill="#000000" stroke="#000000" points="107.359,-279.9574 111.1292,-270.0561 102.0073,-275.4452 107.359,-279.9574"/>
</g>
<!-- \&lt;term\&gt;  -->
<g id="node6" class="node">
<title>\&lt;term\&gt; </title>
<text text-anchor="middle" x="29.5" y="-207.8" font-family="Times,serif" font-size="14.00" fill="#000000">&lt;term&gt; </text>
</g>
<!-- \&lt;expr\&gt; &#45;&gt;\&lt;term\&gt;  -->
<g id="edge5" class="edge">
<title>\&lt;expr\&gt; &#45;&gt;\&lt;term\&gt; </title>
<path fill="none" stroke="#000000" d="M29.5,-254.9748C29.5,-248.195 29.5,-237.966 29.5,-229.1331"/>
<polygon fill="#000000" stroke="#000000" points="33.0001,-229.0561 29.5,-219.0561 26.0001,-229.0561 33.0001,-229.0561"/>
</g>
<!-- \&lt;factor\&gt; -->
<g id="node11" class="node">
<title>\&lt;factor\&gt;</title>
<text text-anchor="middle" x="117.5" y="-207.8" font-family="Times,serif" font-size="14.00" fill="#000000">&lt;factor&gt;</text>
</g>
<!-- \&lt;term\&gt;&#45;&gt;\&lt;factor\&gt; -->
<g id="edge10" class="edge">
<title>\&lt;term\&gt;&#45;&gt;\&lt;factor\&gt;</title>
<path fill="none" stroke="#000000" d="M117.5,-254.9748C117.5,-248.195 117.5,-237.966 117.5,-229.1331"/>
<polygon fill="#000000" stroke="#000000" points="121.0001,-229.0561 117.5,-219.0561 114.0001,-229.0561 121.0001,-229.0561"/>
</g>
<!-- \&lt;factor\&gt;  -->
<g id="node7" class="node">
<title>\&lt;factor\&gt; </title>
<text text-anchor="middle" x="29.5" y="-156.8" font-family="Times,serif" font-size="14.00" fill="#000000">&lt;factor&gt; </text>
</g>
<!-- \&lt;term\&gt; &#45;&gt;\&lt;factor\&gt;  -->
<g id="edge6" class="edge">
<title>\&lt;term\&gt; &#45;&gt;\&lt;factor\&gt; </title>
<path fill="none" stroke="#000000" d="M29.5,-203.9748C29.5,-197.195 29.5,-186.966 29.5,-178.1331"/>
<polygon fill="#000000" stroke="#000000" points="33.0001,-178.0561 29.5,-168.0561 26.0001,-178.0561 33.0001,-178.0561"/>
</g>
<!-- \&lt;integer\&gt;  -->
<g id="node8" class="node">
<title>\&lt;integer\&gt; </title>
<text text-anchor="middle" x="29.5" y="-105.8" font-family="Times,serif" font-size="14.00" fill="#000000">&lt;integer&gt; </text>
</g>
<!-- \&lt;factor\&gt; &#45;&gt;\&lt;integer\&gt;  -->
<g id="edge7" class="edge">
<title>\&lt;factor\&gt; &#45;&gt;\&lt;integer\&gt; </title>
<path fill="none" stroke="#000000" d="M29.5,-152.9748C29.5,-146.195 29.5,-135.966 29.5,-127.1331"/>
<polygon fill="#000000" stroke="#000000" points="33.0001,-127.0561 29.5,-117.0561 26.0001,-127.0561 33.0001,-127.0561"/>
</g>
<!-- \&lt;digit\&gt;  -->
<g id="node9" class="node">
<title>\&lt;digit\&gt; </title>
<text text-anchor="middle" x="29.5" y="-54.8" font-family="Times,serif" font-size="14.00" fill="#000000">&lt;digit&gt; </text>
</g>
<!-- \&lt;integer\&gt; &#45;&gt;\&lt;digit\&gt;  -->
<g id="edge8" class="edge">
<title>\&lt;integer\&gt; &#45;&gt;\&lt;digit\&gt; </title>
<path fill="none" stroke="#000000" d="M29.5,-101.9748C29.5,-95.195 29.5,-84.966 29.5,-76.1331"/>
<polygon fill="#000000" stroke="#000000" points="33.0001,-76.0561 29.5,-66.0561 26.0001,-76.0561 33.0001,-76.0561"/>
</g>
<!-- 2  -->
<g id="node10" class="node">
<title>2 </title>
<text text-anchor="middle" x="29.5" y="-3.8" font-family="Times,serif" font-size="14.00" fill="#000000">2 </text>
</g>
<!-- \&lt;digit\&gt; &#45;&gt;2  -->
<g id="edge9" class="edge">
<title>\&lt;digit\&gt; &#45;&gt;2 </title>
<path fill="none" stroke="#000000" d="M29.5,-50.9748C29.5,-44.195 29.5,-33.966 29.5,-25.1331"/>
<polygon fill="#000000" stroke="#000000" points="33.0001,-25.0561 29.5,-15.0561 26.0001,-25.0561 33.0001,-25.0561"/>
</g>
<!-- \&lt;integer\&gt; -->
<g id="node12" class="node">
<title>\&lt;integer\&gt;</title>
<text text-anchor="middle" x="117.5" y="-156.8" font-family="Times,serif" font-size="14.00" fill="#000000">&lt;integer&gt;</text>
</g>
<!-- \&lt;factor\&gt;&#45;&gt;\&lt;integer\&gt; -->
<g id="edge11" class="edge">
<title>\&lt;factor\&gt;&#45;&gt;\&lt;integer\&gt;</title>
<path fill="none" stroke="#000000" d="M117.5,-203.9748C117.5,-197.195 117.5,-186.966 117.5,-178.1331"/>
<polygon fill="#000000" stroke="#000000" points="121.0001,-178.0561 117.5,-168.0561 114.0001,-178.0561 121.0001,-178.0561"/>
</g>
<!-- \&lt;digit\&gt; -->
<g id="node13" class="node">
<title>\&lt;digit\&gt;</title>
<text text-anchor="middle" x="117.5" y="-105.8" font-family="Times,serif" font-size="14.00" fill="#000000">&lt;digit&gt;</text>
</g>
<!-- \&lt;integer\&gt;&#45;&gt;\&lt;digit\&gt; -->
<g id="edge12" class="edge">
<title>\&lt;integer\&gt;&#45;&gt;\&lt;digit\&gt;</title>
<path fill="none" stroke="#000000" d="M117.5,-152.9748C117.5,-146.195 117.5,-135.966 117.5,-127.1331"/>
<polygon fill="#000000" stroke="#000000" points="121.0001,-127.0561 117.5,-117.0561 114.0001,-127.0561 121.0001,-127.0561"/>
</g>
<!-- 2 -->
<g id="node14" class="node">
<title>2</title>
<text text-anchor="middle" x="117.5" y="-54.8" font-family="Times,serif" font-size="14.00" fill="#000000">2</text>
</g>
<!-- \&lt;digit\&gt;&#45;&gt;2 -->
<g id="edge13" class="edge">
<title>\&lt;digit\&gt;&#45;&gt;2</title>
<path fill="none" stroke="#000000" d="M117.5,-101.9748C117.5,-95.195 117.5,-84.966 117.5,-76.1331"/>
<polygon fill="#000000" stroke="#000000" points="121.0001,-76.0561 117.5,-66.0561 114.0001,-76.0561 121.0001,-76.0561"/>
</g>
</g>
</svg>
