<?xml version="1.0" encoding="UTF-8" standalone="no"?>
<!DOCTYPE svg PUBLIC "-//W3C//DTD SVG 1.1//EN"
 "http://www.w3.org/Graphics/SVG/1.1/DTD/svg11.dtd">
<!-- Generated by graphviz version 2.40.1 (20161225.0304)
 -->
<!-- Title: %3 Pages: 1 -->
<svg width="257pt" height="278pt"
 viewBox="0.00 0.00 256.50 278.00" xmlns="http://www.w3.org/2000/svg" xmlns:xlink="http://www.w3.org/1999/xlink">
<g id="graph0" class="graph" transform="scale(1 1) rotate(0) translate(4 274)">
<title>%3</title>
<polygon fill="#ffffff" stroke="transparent" points="-4,4 -4,-274 252.5,-274 252.5,4 -4,4"/>
<!-- 0 -->
<g id="node1" class="node">
<title>0</title>
<text text-anchor="middle" x="170" y="-258.8" font-family="Times,serif" font-size="14.00" fill="#000000">&lt;start&gt;</text>
</g>
<!-- 1 -->
<g id="node2" class="node">
<title>1</title>
<text text-anchor="middle" x="170" y="-207.8" font-family="Times,serif" font-size="14.00" fill="#000000">&lt;expr&gt;</text>
</g>
<!-- 0&#45;&gt;1 -->
<g id="edge1" class="edge">
<title>0&#45;&gt;1</title>
<path fill="none" stroke="#000000" d="M170,-254.9748C170,-248.195 170,-237.966 170,-229.1331"/>
<polygon fill="#000000" stroke="#000000" points="173.5001,-229.0561 170,-219.0561 166.5001,-229.0561 173.5001,-229.0561"/>
</g>
<!-- 2 -->
<g id="node3" class="node">
<title>2</title>
<text text-anchor="middle" x="120" y="-156.8" font-family="Times,serif" font-size="14.00" fill="#000000">&lt;expr&gt;</text>
</g>
<!-- 1&#45;&gt;2 -->
<g id="edge2" class="edge">
<title>1&#45;&gt;2</title>
<path fill="none" stroke="#000000" d="M162.6223,-203.9748C155.2369,-196.4417 143.6768,-184.6503 134.458,-175.2472"/>
<polygon fill="#000000" stroke="#000000" points="136.9079,-172.7466 127.4079,-168.0561 131.9094,-177.6471 136.9079,-172.7466"/>
</g>
<!-- 10 -->
<g id="node11" class="node">
<title>10</title>
<text text-anchor="middle" x="170" y="-156.8" font-family="Times,serif" font-size="14.00" fill="#000000"> + </text>
</g>
<!-- 1&#45;&gt;10 -->
<g id="edge10" class="edge">
<title>1&#45;&gt;10</title>
<path fill="none" stroke="#000000" d="M170,-203.9748C170,-197.195 170,-186.966 170,-178.1331"/>
<polygon fill="#000000" stroke="#000000" points="173.5001,-178.0561 170,-168.0561 166.5001,-178.0561 173.5001,-178.0561"/>
</g>
<!-- 11 -->
<g id="node12" class="node">
<title>11</title>
<text text-anchor="middle" x="219" y="-156.8" font-family="Times,serif" font-size="14.00" fill="#000000">&lt;term&gt;</text>
</g>
<!-- 1&#45;&gt;11 -->
<g id="edge11" class="edge">
<title>1&#45;&gt;11</title>
<path fill="none" stroke="#000000" d="M177.2301,-203.9748C184.3954,-196.517 195.5706,-184.8857 204.5594,-175.53"/>
<polygon fill="#000000" stroke="#000000" points="207.3358,-177.6921 211.7402,-168.0561 202.2881,-172.8423 207.3358,-177.6921"/>
</g>
<!-- 3 -->
<g id="node4" class="node">
<title>3</title>
<text text-anchor="middle" x="67" y="-105.8" font-family="Times,serif" font-size="14.00" fill="#000000">&lt;expr&gt;</text>
</g>
<!-- 2&#45;&gt;3 -->
<g id="edge3" class="edge">
<title>2&#45;&gt;3</title>
<path fill="none" stroke="#000000" d="M112.1797,-152.9748C104.3511,-145.4417 92.0974,-133.6503 82.3255,-124.2472"/>
<polygon fill="#000000" stroke="#000000" points="84.485,-121.4679 74.8524,-117.0561 79.6313,-126.5119 84.485,-121.4679"/>
</g>
<!-- 8 -->
<g id="node9" class="node">
<title>8</title>
<text text-anchor="middle" x="112" y="-105.8" font-family="Times,serif" font-size="14.00" fill="#000000"> &#45; </text>
</g>
<!-- 2&#45;&gt;8 -->
<g id="edge8" class="edge">
<title>2&#45;&gt;8</title>
<path fill="none" stroke="#000000" d="M118.8196,-152.9748C117.7561,-146.195 116.1515,-135.966 114.766,-127.1331"/>
<polygon fill="#000000" stroke="#000000" points="118.1927,-126.3929 113.1853,-117.0561 111.2773,-127.4777 118.1927,-126.3929"/>
</g>
<!-- 9 -->
<g id="node10" class="node">
<title>9</title>
<text text-anchor="middle" x="157" y="-105.8" font-family="Times,serif" font-size="14.00" fill="#000000">&lt;term&gt;</text>
</g>
<!-- 2&#45;&gt;9 -->
<g id="edge9" class="edge">
<title>2&#45;&gt;9</title>
<path fill="none" stroke="#000000" d="M125.4595,-152.9748C130.7061,-145.743 138.7998,-134.5868 145.4744,-125.3866"/>
<polygon fill="#000000" stroke="#000000" points="148.4788,-127.2056 151.5181,-117.0561 142.8128,-123.095 148.4788,-127.2056"/>
</g>
<!-- 4 -->
<g id="node5" class="node">
<title>4</title>
<text text-anchor="middle" x="21" y="-54.8" font-family="Times,serif" font-size="14.00" fill="#000000">&lt;expr&gt;</text>
</g>
<!-- 3&#45;&gt;4 -->
<g id="edge4" class="edge">
<title>3&#45;&gt;4</title>
<path fill="none" stroke="#000000" d="M60.2125,-101.9748C53.4859,-94.517 42.995,-82.8857 34.5564,-73.53"/>
<polygon fill="#000000" stroke="#000000" points="37.112,-71.1376 27.8153,-66.0561 31.914,-75.826 37.112,-71.1376"/>
</g>
<!-- 6 -->
<g id="node7" class="node">
<title>6</title>
<text text-anchor="middle" x="67" y="-54.8" font-family="Times,serif" font-size="14.00" fill="#000000"> + </text>
</g>
<!-- 3&#45;&gt;6 -->
<g id="edge6" class="edge">
<title>3&#45;&gt;6</title>
<path fill="none" stroke="#000000" d="M67,-101.9748C67,-95.195 67,-84.966 67,-76.1331"/>
<polygon fill="#000000" stroke="#000000" points="70.5001,-76.0561 67,-66.0561 63.5001,-76.0561 70.5001,-76.0561"/>
</g>
<!-- 7 -->
<g id="node8" class="node">
<title>7</title>
<text text-anchor="middle" x="114" y="-54.8" font-family="Times,serif" font-size="14.00" fill="#000000">&lt;term&gt;</text>
</g>
<!-- 3&#45;&gt;7 -->
<g id="edge7" class="edge">
<title>3&#45;&gt;7</title>
<path fill="none" stroke="#000000" d="M73.935,-101.9748C80.8079,-94.517 91.5269,-82.8857 100.1488,-73.53"/>
<polygon fill="#000000" stroke="#000000" points="102.8334,-75.7816 107.0365,-66.0561 97.6859,-71.0378 102.8334,-75.7816"/>
</g>
<!-- 5 -->
<g id="node6" class="node">
<title>5</title>
<text text-anchor="middle" x="21" y="-3.8" font-family="Times,serif" font-size="14.00" fill="#000000">&lt;term&gt;</text>
</g>
<!-- 4&#45;&gt;5 -->
<g id="edge5" class="edge">
<title>4&#45;&gt;5</title>
<path fill="none" stroke="#000000" d="M21,-50.9748C21,-44.195 21,-33.966 21,-25.1331"/>
<polygon fill="#000000" stroke="#000000" points="24.5001,-25.0561 21,-15.0561 17.5001,-25.0561 24.5001,-25.0561"/>
</g>
<!-- 12 -->
<g id="node13" class="node">
<title>12</title>
<text text-anchor="middle" x="221" y="-105.8" font-family="Times,serif" font-size="14.00" fill="#000000">&lt;factor&gt;</text>
</g>
<!-- 11&#45;&gt;12 -->
<g id="edge12" class="edge">
<title>11&#45;&gt;12</title>
<path fill="none" stroke="#000000" d="M219.2951,-152.9748C219.561,-146.195 219.9621,-135.966 220.3085,-127.1331"/>
<polygon fill="#000000" stroke="#000000" points="223.809,-127.1856 220.7037,-117.0561 216.8144,-126.9112 223.809,-127.1856"/>
</g>
<!-- 13 -->
<g id="node14" class="node">
<title>13</title>
<text text-anchor="middle" x="221" y="-54.8" font-family="Times,serif" font-size="14.00" fill="#000000">&lt;integer&gt;</text>
</g>
<!-- 12&#45;&gt;13 -->
<g id="edge13" class="edge">
<title>12&#45;&gt;13</title>
<path fill="none" stroke="#000000" d="M221,-101.9748C221,-95.195 221,-84.966 221,-76.1331"/>
<polygon fill="#000000" stroke="#000000" points="224.5001,-76.0561 221,-66.0561 217.5001,-76.0561 224.5001,-76.0561"/>
</g>
<!-- 14 -->
<g id="node15" class="node">
<title>14</title>
<text text-anchor="middle" x="221" y="-3.8" font-family="Times,serif" font-size="14.00" fill="#000000">&lt;digit&gt;</text>
</g>
<!-- 13&#45;&gt;14 -->
<g id="edge14" class="edge">
<title>13&#45;&gt;14</title>
<path fill="none" stroke="#000000" d="M221,-50.9748C221,-44.195 221,-33.966 221,-25.1331"/>
<polygon fill="#000000" stroke="#000000" points="224.5001,-25.0561 221,-15.0561 217.5001,-25.0561 224.5001,-25.0561"/>
</g>
</g>
</svg>
