<?xml version="1.0" encoding="UTF-8" standalone="no"?>
<!DOCTYPE svg PUBLIC "-//W3C//DTD SVG 1.1//EN"
 "http://www.w3.org/Graphics/SVG/1.1/DTD/svg11.dtd">
<!-- Generated by graphviz version 2.40.1 (20161225.0304)
 -->
<!-- Title: %3 Pages: 1 -->
<svg width="293pt" height="482pt"
 viewBox="0.00 0.00 293.00 482.00" xmlns="http://www.w3.org/2000/svg" xmlns:xlink="http://www.w3.org/1999/xlink">
<g id="graph0" class="graph" transform="scale(1 1) rotate(0) translate(4 478)">
<title>%3</title>
<polygon fill="#ffffff" stroke="transparent" points="-4,4 -4,-478 289,-478 289,4 -4,4"/>
<!-- 0 -->
<g id="node1" class="node">
<title>0</title>
<text text-anchor="middle" x="200.5" y="-462.8" font-family="Times,serif" font-size="14.00" fill="#000000">&lt;start&gt;</text>
</g>
<!-- 1 -->
<g id="node2" class="node">
<title>1</title>
<text text-anchor="middle" x="200.5" y="-411.8" font-family="Times,serif" font-size="14.00" fill="#000000">&lt;expr&gt;</text>
</g>
<!-- 0&#45;&gt;1 -->
<g id="edge1" class="edge">
<title>0&#45;&gt;1</title>
<path fill="none" stroke="#000000" d="M200.5,-458.9748C200.5,-452.195 200.5,-441.966 200.5,-433.1331"/>
<polygon fill="#000000" stroke="#000000" points="204.0001,-433.0561 200.5,-423.0561 197.0001,-433.0561 204.0001,-433.0561"/>
</g>
<!-- 2 -->
<g id="node3" class="node">
<title>2</title>
<text text-anchor="middle" x="150.5" y="-360.8" font-family="Times,serif" font-size="14.00" fill="#000000">&lt;expr&gt;</text>
</g>
<!-- 1&#45;&gt;2 -->
<g id="edge2" class="edge">
<title>1&#45;&gt;2</title>
<path fill="none" stroke="#000000" d="M193.1223,-407.9748C185.7369,-400.4417 174.1768,-388.6503 164.958,-379.2472"/>
<polygon fill="#000000" stroke="#000000" points="167.4079,-376.7466 157.9079,-372.0561 162.4094,-381.6471 167.4079,-376.7466"/>
</g>
<!-- 17 -->
<g id="node18" class="node">
<title>17</title>
<text text-anchor="middle" x="200.5" y="-360.8" font-family="Times,serif" font-size="14.00" fill="#000000"> + </text>
</g>
<!-- 1&#45;&gt;17 -->
<g id="edge17" class="edge">
<title>1&#45;&gt;17</title>
<path fill="none" stroke="#000000" d="M200.5,-407.9748C200.5,-401.195 200.5,-390.966 200.5,-382.1331"/>
<polygon fill="#000000" stroke="#000000" points="204.0001,-382.0561 200.5,-372.0561 197.0001,-382.0561 204.0001,-382.0561"/>
</g>
<!-- 18 -->
<g id="node19" class="node">
<title>18</title>
<text text-anchor="middle" x="249.5" y="-360.8" font-family="Times,serif" font-size="14.00" fill="#000000">&lt;term&gt;</text>
</g>
<!-- 1&#45;&gt;18 -->
<g id="edge18" class="edge">
<title>1&#45;&gt;18</title>
<path fill="none" stroke="#000000" d="M207.7301,-407.9748C214.8954,-400.517 226.0706,-388.8857 235.0594,-379.53"/>
<polygon fill="#000000" stroke="#000000" points="237.8358,-381.6921 242.2402,-372.0561 232.7881,-376.8423 237.8358,-381.6921"/>
</g>
<!-- 3 -->
<g id="node4" class="node">
<title>3</title>
<text text-anchor="middle" x="87.5" y="-309.8" font-family="Times,serif" font-size="14.00" fill="#000000">&lt;expr&gt;</text>
</g>
<!-- 2&#45;&gt;3 -->
<g id="edge3" class="edge">
<title>2&#45;&gt;3</title>
<path fill="none" stroke="#000000" d="M141.2041,-356.9748C131.6193,-349.2157 116.4541,-336.939 104.6799,-327.4075"/>
<polygon fill="#000000" stroke="#000000" points="106.8087,-324.6278 96.834,-321.0561 102.4043,-330.0685 106.8087,-324.6278"/>
</g>
<!-- 13 -->
<g id="node14" class="node">
<title>13</title>
<text text-anchor="middle" x="142.5" y="-309.8" font-family="Times,serif" font-size="14.00" fill="#000000"> &#45; </text>
</g>
<!-- 2&#45;&gt;13 -->
<g id="edge13" class="edge">
<title>2&#45;&gt;13</title>
<path fill="none" stroke="#000000" d="M149.3196,-356.9748C148.2561,-350.195 146.6515,-339.966 145.266,-331.1331"/>
<polygon fill="#000000" stroke="#000000" points="148.6927,-330.3929 143.6853,-321.0561 141.7773,-331.4777 148.6927,-330.3929"/>
</g>
<!-- 14 -->
<g id="node15" class="node">
<title>14</title>
<text text-anchor="middle" x="187.5" y="-309.8" font-family="Times,serif" font-size="14.00" fill="#000000">&lt;term&gt;</text>
</g>
<!-- 2&#45;&gt;14 -->
<g id="edge14" class="edge">
<title>2&#45;&gt;14</title>
<path fill="none" stroke="#000000" d="M155.9595,-356.9748C161.2061,-349.743 169.2998,-338.5868 175.9744,-329.3866"/>
<polygon fill="#000000" stroke="#000000" points="178.9788,-331.2056 182.0181,-321.0561 173.3128,-327.095 178.9788,-331.2056"/>
</g>
<!-- 4 -->
<g id="node5" class="node">
<title>4</title>
<text text-anchor="middle" x="27.5" y="-258.8" font-family="Times,serif" font-size="14.00" fill="#000000">&lt;expr&gt;</text>
</g>
<!-- 3&#45;&gt;4 -->
<g id="edge4" class="edge">
<title>3&#45;&gt;4</title>
<path fill="none" stroke="#000000" d="M78.6468,-305.9748C69.6071,-298.291 55.3553,-286.177 44.1893,-276.6859"/>
<polygon fill="#000000" stroke="#000000" points="46.2757,-273.8658 36.3895,-270.0561 41.7422,-279.1994 46.2757,-273.8658"/>
</g>
<!-- 10 -->
<g id="node11" class="node">
<title>10</title>
<text text-anchor="middle" x="73.5" y="-258.8" font-family="Times,serif" font-size="14.00" fill="#000000"> + </text>
</g>
<!-- 3&#45;&gt;10 -->
<g id="edge10" class="edge">
<title>3&#45;&gt;10</title>
<path fill="none" stroke="#000000" d="M85.4343,-305.9748C83.5524,-299.1196 80.7027,-288.7383 78.2598,-279.8392"/>
<polygon fill="#000000" stroke="#000000" points="81.5966,-278.7728 75.5742,-270.0561 74.8463,-280.6259 81.5966,-278.7728"/>
</g>
<!-- 11 -->
<g id="node12" class="node">
<title>11</title>
<text text-anchor="middle" x="120.5" y="-258.8" font-family="Times,serif" font-size="14.00" fill="#000000">&lt;term&gt;</text>
</g>
<!-- 3&#45;&gt;11 -->
<g id="edge11" class="edge">
<title>3&#45;&gt;11</title>
<path fill="none" stroke="#000000" d="M92.3693,-305.9748C96.9999,-298.8183 104.1172,-287.8188 110.034,-278.6747"/>
<polygon fill="#000000" stroke="#000000" points="113.1167,-280.3532 115.6108,-270.0561 107.2397,-276.5504 113.1167,-280.3532"/>
</g>
<!-- 5 -->
<g id="node6" class="node">
<title>5</title>
<text text-anchor="middle" x="27.5" y="-207.8" font-family="Times,serif" font-size="14.00" fill="#000000">&lt;term&gt;</text>
</g>
<!-- 4&#45;&gt;5 -->
<g id="edge5" class="edge">
<title>4&#45;&gt;5</title>
<path fill="none" stroke="#000000" d="M27.5,-254.9748C27.5,-248.195 27.5,-237.966 27.5,-229.1331"/>
<polygon fill="#000000" stroke="#000000" points="31.0001,-229.0561 27.5,-219.0561 24.0001,-229.0561 31.0001,-229.0561"/>
</g>
<!-- 6 -->
<g id="node7" class="node">
<title>6</title>
<text text-anchor="middle" x="27.5" y="-156.8" font-family="Times,serif" font-size="14.00" fill="#000000">&lt;factor&gt;</text>
</g>
<!-- 5&#45;&gt;6 -->
<g id="edge6" class="edge">
<title>5&#45;&gt;6</title>
<path fill="none" stroke="#000000" d="M27.5,-203.9748C27.5,-197.195 27.5,-186.966 27.5,-178.1331"/>
<polygon fill="#000000" stroke="#000000" points="31.0001,-178.0561 27.5,-168.0561 24.0001,-178.0561 31.0001,-178.0561"/>
</g>
<!-- 7 -->
<g id="node8" class="node">
<title>7</title>
<text text-anchor="middle" x="27.5" y="-105.8" font-family="Times,serif" font-size="14.00" fill="#000000">&lt;integer&gt;</text>
</g>
<!-- 6&#45;&gt;7 -->
<g id="edge7" class="edge">
<title>6&#45;&gt;7</title>
<path fill="none" stroke="#000000" d="M27.5,-152.9748C27.5,-146.195 27.5,-135.966 27.5,-127.1331"/>
<polygon fill="#000000" stroke="#000000" points="31.0001,-127.0561 27.5,-117.0561 24.0001,-127.0561 31.0001,-127.0561"/>
</g>
<!-- 8 -->
<g id="node9" class="node">
<title>8</title>
<text text-anchor="middle" x="27.5" y="-54.8" font-family="Times,serif" font-size="14.00" fill="#000000">&lt;digit&gt;</text>
</g>
<!-- 7&#45;&gt;8 -->
<g id="edge8" class="edge">
<title>7&#45;&gt;8</title>
<path fill="none" stroke="#000000" d="M27.5,-101.9748C27.5,-95.195 27.5,-84.966 27.5,-76.1331"/>
<polygon fill="#000000" stroke="#000000" points="31.0001,-76.0561 27.5,-66.0561 24.0001,-76.0561 31.0001,-76.0561"/>
</g>
<!-- 9 -->
<g id="node10" class="node">
<title>9</title>
<text text-anchor="middle" x="27.5" y="-3.8" font-family="Times,serif" font-size="14.00" fill="#000000">6</text>
</g>
<!-- 8&#45;&gt;9 -->
<g id="edge9" class="edge">
<title>8&#45;&gt;9</title>
<path fill="none" stroke="#000000" d="M27.5,-50.9748C27.5,-44.195 27.5,-33.966 27.5,-25.1331"/>
<polygon fill="#000000" stroke="#000000" points="31.0001,-25.0561 27.5,-15.0561 24.0001,-25.0561 31.0001,-25.0561"/>
</g>
<!-- 12 -->
<g id="node13" class="node">
<title>12</title>
<text text-anchor="middle" x="118.5" y="-207.8" font-family="Times,serif" font-size="14.00" fill="#000000">&lt;factor&gt;</text>
</g>
<!-- 11&#45;&gt;12 -->
<g id="edge12" class="edge">
<title>11&#45;&gt;12</title>
<path fill="none" stroke="#000000" d="M120.2049,-254.9748C119.939,-248.195 119.5379,-237.966 119.1915,-229.1331"/>
<polygon fill="#000000" stroke="#000000" points="122.6856,-228.9112 118.7963,-219.0561 115.691,-229.1856 122.6856,-228.9112"/>
</g>
<!-- 15 -->
<g id="node16" class="node">
<title>15</title>
<text text-anchor="middle" x="187.5" y="-258.8" font-family="Times,serif" font-size="14.00" fill="#000000">&lt;factor&gt;</text>
</g>
<!-- 14&#45;&gt;15 -->
<g id="edge15" class="edge">
<title>14&#45;&gt;15</title>
<path fill="none" stroke="#000000" d="M187.5,-305.9748C187.5,-299.195 187.5,-288.966 187.5,-280.1331"/>
<polygon fill="#000000" stroke="#000000" points="191.0001,-280.0561 187.5,-270.0561 184.0001,-280.0561 191.0001,-280.0561"/>
</g>
<!-- 16 -->
<g id="node17" class="node">
<title>16</title>
<text text-anchor="middle" x="188.5" y="-207.8" font-family="Times,serif" font-size="14.00" fill="#000000">&lt;integer&gt;</text>
</g>
<!-- 15&#45;&gt;16 -->
<g id="edge16" class="edge">
<title>15&#45;&gt;16</title>
<path fill="none" stroke="#000000" d="M187.6476,-254.9748C187.7805,-248.195 187.9811,-237.966 188.1543,-229.1331"/>
<polygon fill="#000000" stroke="#000000" points="191.655,-229.1228 188.3518,-219.0561 184.6564,-228.9855 191.655,-229.1228"/>
</g>
<!-- 19 -->
<g id="node20" class="node">
<title>19</title>
<text text-anchor="middle" x="254.5" y="-309.8" font-family="Times,serif" font-size="14.00" fill="#000000">&lt;factor&gt;</text>
</g>
<!-- 18&#45;&gt;19 -->
<g id="edge19" class="edge">
<title>18&#45;&gt;19</title>
<path fill="none" stroke="#000000" d="M250.2378,-356.9748C250.9025,-350.195 251.9053,-339.966 252.7713,-331.1331"/>
<polygon fill="#000000" stroke="#000000" points="256.2667,-331.3499 253.7592,-321.0561 249.3001,-330.6669 256.2667,-331.3499"/>
</g>
<!-- 20 -->
<g id="node21" class="node">
<title>20</title>
<text text-anchor="middle" x="257.5" y="-258.8" font-family="Times,serif" font-size="14.00" fill="#000000">&lt;integer&gt;</text>
</g>
<!-- 19&#45;&gt;20 -->
<g id="edge20" class="edge">
<title>19&#45;&gt;20</title>
<path fill="none" stroke="#000000" d="M254.9427,-305.9748C255.3415,-299.195 255.9432,-288.966 256.4628,-280.1331"/>
<polygon fill="#000000" stroke="#000000" points="259.9622,-280.2444 257.0555,-270.0561 252.9742,-279.8333 259.9622,-280.2444"/>
</g>
<!-- 21 -->
<g id="node22" class="node">
<title>21</title>
<text text-anchor="middle" x="257.5" y="-207.8" font-family="Times,serif" font-size="14.00" fill="#000000">&lt;digit&gt;</text>
</g>
<!-- 20&#45;&gt;21 -->
<g id="edge21" class="edge">
<title>20&#45;&gt;21</title>
<path fill="none" stroke="#000000" d="M257.5,-254.9748C257.5,-248.195 257.5,-237.966 257.5,-229.1331"/>
<polygon fill="#000000" stroke="#000000" points="261.0001,-229.0561 257.5,-219.0561 254.0001,-229.0561 261.0001,-229.0561"/>
</g>
<!-- 22 -->
<g id="node23" class="node">
<title>22</title>
<text text-anchor="middle" x="257.5" y="-156.8" font-family="Times,serif" font-size="14.00" fill="#000000">5</text>
</g>
<!-- 21&#45;&gt;22 -->
<g id="edge22" class="edge">
<title>21&#45;&gt;22</title>
<path fill="none" stroke="#000000" d="M257.5,-203.9748C257.5,-197.195 257.5,-186.966 257.5,-178.1331"/>
<polygon fill="#000000" stroke="#000000" points="261.0001,-178.0561 257.5,-168.0561 254.0001,-178.0561 261.0001,-178.0561"/>
</g>
</g>
</svg>
