<?xml version="1.0" encoding="UTF-8" standalone="no"?>
<!DOCTYPE svg PUBLIC "-//W3C//DTD SVG 1.1//EN"
 "http://www.w3.org/Graphics/SVG/1.1/DTD/svg11.dtd">
<!-- Generated by graphviz version 2.40.1 (20161225.0304)
 -->
<!-- Title: %3 Pages: 1 -->
<svg width="56pt" height="227pt"
 viewBox="0.00 0.00 56.00 227.00" xmlns="http://www.w3.org/2000/svg" xmlns:xlink="http://www.w3.org/1999/xlink">
<g id="graph0" class="graph" transform="scale(1 1) rotate(0) translate(4 223)">
<title>%3</title>
<polygon fill="#ffffff" stroke="transparent" points="-4,4 -4,-223 52,-223 52,4 -4,4"/>
<!-- 0 -->
<g id="node1" class="node">
<title>0</title>
<text text-anchor="middle" x="24" y="-207.8" font-family="Times,serif" font-size="14.00" fill="#000000">&lt;start&gt;</text>
</g>
<!-- 1 -->
<g id="node2" class="node">
<title>1</title>
<text text-anchor="middle" x="24" y="-156.8" font-family="Times,serif" font-size="14.00" fill="#000000">&lt;string&gt;</text>
</g>
<!-- 0&#45;&gt;1 -->
<g id="edge1" class="edge">
<title>0&#45;&gt;1</title>
<path fill="none" stroke="#000000" d="M24,-203.9748C24,-197.195 24,-186.966 24,-178.1331"/>
<polygon fill="#000000" stroke="#000000" points="27.5001,-178.0561 24,-168.0561 20.5001,-178.0561 27.5001,-178.0561"/>
</g>
<!-- 2 -->
<g id="node3" class="node">
<title>2</title>
<text text-anchor="middle" x="24" y="-105.8" font-family="Times,serif" font-size="14.00" fill="#000000">&lt;letter&gt;</text>
</g>
<!-- 1&#45;&gt;2 -->
<g id="edge2" class="edge">
<title>1&#45;&gt;2</title>
<path fill="none" stroke="#000000" d="M24,-152.9748C24,-146.195 24,-135.966 24,-127.1331"/>
<polygon fill="#000000" stroke="#000000" points="27.5001,-127.0561 24,-117.0561 20.5001,-127.0561 27.5001,-127.0561"/>
</g>
<!-- 3 -->
<g id="node4" class="node">
<title>3</title>
<text text-anchor="middle" x="24" y="-54.8" font-family="Times,serif" font-size="14.00" fill="#000000">&lt;other&gt;</text>
</g>
<!-- 2&#45;&gt;3 -->
<g id="edge3" class="edge">
<title>2&#45;&gt;3</title>
<path fill="none" stroke="#000000" d="M24,-101.9748C24,-95.195 24,-84.966 24,-76.1331"/>
<polygon fill="#000000" stroke="#000000" points="27.5001,-76.0561 24,-66.0561 20.5001,-76.0561 27.5001,-76.0561"/>
</g>
<!-- 4 -->
<g id="node5" class="node">
<title>4</title>
<text text-anchor="middle" x="24" y="-3.8" font-family="Times,serif" font-size="14.00" fill="#000000">0</text>
</g>
<!-- 3&#45;&gt;4 -->
<g id="edge4" class="edge">
<title>3&#45;&gt;4</title>
<path fill="none" stroke="#000000" d="M24,-50.9748C24,-44.195 24,-33.966 24,-25.1331"/>
<polygon fill="#000000" stroke="#000000" points="27.5001,-25.0561 24,-15.0561 20.5001,-25.0561 27.5001,-25.0561"/>
</g>
</g>
</svg>
