<?xml version="1.0" encoding="UTF-8" standalone="no"?>
<!DOCTYPE svg PUBLIC "-//W3C//DTD SVG 1.1//EN"
 "http://www.w3.org/Graphics/SVG/1.1/DTD/svg11.dtd">
<!-- Generated by graphviz version 2.40.1 (20161225.0304)
 -->
<!-- Title: root Pages: 1 -->
<svg width="140pt" height="125pt"
 viewBox="0.00 0.00 139.50 125.00" xmlns="http://www.w3.org/2000/svg" xmlns:xlink="http://www.w3.org/1999/xlink">
<g id="graph0" class="graph" transform="scale(1 1) rotate(0) translate(4 121)">
<title>root</title>
<polygon fill="#ffffff" stroke="transparent" points="-4,4 -4,-121 135.5,-121 135.5,4 -4,4"/>
<!-- \&lt;start\&gt; -->
<g id="node1" class="node">
<title>\&lt;start\&gt;</title>
<text text-anchor="middle" x="67.5" y="-105.8" font-family="Times,serif" font-size="14.00" fill="#000000">&lt;start&gt;</text>
</g>
<!-- \&lt;expr\&gt; -->
<g id="node2" class="node">
<title>\&lt;expr\&gt;</title>
<text text-anchor="middle" x="67.5" y="-54.8" font-family="Times,serif" font-size="14.00" fill="#000000">&lt;expr&gt;</text>
</g>
<!-- \&lt;start\&gt;&#45;&gt;\&lt;expr\&gt; -->
<g id="edge1" class="edge">
<title>\&lt;start\&gt;&#45;&gt;\&lt;expr\&gt;</title>
<path fill="none" stroke="#000000" d="M67.5,-101.9748C67.5,-95.195 67.5,-84.966 67.5,-76.1331"/>
<polygon fill="#000000" stroke="#000000" points="71.0001,-76.0561 67.5,-66.0561 64.0001,-76.0561 71.0001,-76.0561"/>
</g>
<!-- \&lt;expr\&gt;  -->
<g id="node3" class="node">
<title>\&lt;expr\&gt; </title>
<text text-anchor="middle" x="22.5" y="-3.8" font-family="Times,serif" font-size="14.00" fill="#000000">&lt;expr&gt; </text>
</g>
<!-- \&lt;expr\&gt;&#45;&gt;\&lt;expr\&gt;  -->
<g id="edge2" class="edge">
<title>\&lt;expr\&gt;&#45;&gt;\&lt;expr\&gt; </title>
<path fill="none" stroke="#000000" d="M60.8601,-50.9748C54.3462,-43.5923 44.2238,-32.1203 36.0125,-22.8142"/>
<polygon fill="#000000" stroke="#000000" points="38.4078,-20.2388 29.1671,-15.0561 33.159,-24.8702 38.4078,-20.2388"/>
</g>
<!-- + -->
<g id="node4" class="node">
<title>+</title>
<text text-anchor="middle" x="67.5" y="-3.8" font-family="Times,serif" font-size="14.00" fill="#000000">+</text>
</g>
<!-- \&lt;expr\&gt;&#45;&gt;+ -->
<g id="edge3" class="edge">
<title>\&lt;expr\&gt;&#45;&gt;+</title>
<path fill="none" stroke="#000000" d="M67.5,-50.9748C67.5,-44.195 67.5,-33.966 67.5,-25.1331"/>
<polygon fill="#000000" stroke="#000000" points="71.0001,-25.0561 67.5,-15.0561 64.0001,-25.0561 71.0001,-25.0561"/>
</g>
<!-- \&lt;term\&gt; -->
<g id="node5" class="node">
<title>\&lt;term\&gt;</title>
<text text-anchor="middle" x="110.5" y="-3.8" font-family="Times,serif" font-size="14.00" fill="#000000">&lt;term&gt;</text>
</g>
<!-- \&lt;expr\&gt;&#45;&gt;\&lt;term\&gt; -->
<g id="edge4" class="edge">
<title>\&lt;expr\&gt;&#45;&gt;\&lt;term\&gt;</title>
<path fill="none" stroke="#000000" d="M73.8448,-50.9748C80.0692,-43.5923 89.7417,-32.1203 97.5881,-22.8142"/>
<polygon fill="#000000" stroke="#000000" points="100.359,-24.9574 104.1292,-15.0561 95.0073,-20.4452 100.359,-24.9574"/>
</g>
</g>
</svg>
