<?xml version="1.0" encoding="UTF-8" standalone="no"?>
<!DOCTYPE svg PUBLIC "-//W3C//DTD SVG 1.1//EN"
 "http://www.w3.org/Graphics/SVG/1.1/DTD/svg11.dtd">
<!-- Generated by graphviz version 2.40.1 (20161225.0304)
 -->
<!-- Title: %3 Pages: 1 -->
<svg width="377pt" height="431pt"
 viewBox="0.00 0.00 377.00 431.00" xmlns="http://www.w3.org/2000/svg" xmlns:xlink="http://www.w3.org/1999/xlink">
<g id="graph0" class="graph" transform="scale(1 1) rotate(0) translate(4 427)">
<title>%3</title>
<polygon fill="#ffffff" stroke="transparent" points="-4,4 -4,-427 373,-427 373,4 -4,4"/>
<!-- 0 -->
<g id="node1" class="node">
<title>0</title>
<text text-anchor="middle" x="142" y="-411.8" font-family="Times,serif" font-size="14.00" fill="#000000">&lt;start&gt;</text>
</g>
<!-- 1 -->
<g id="node2" class="node">
<title>1</title>
<text text-anchor="middle" x="142" y="-360.8" font-family="Times,serif" font-size="14.00" fill="#000000">&lt;call&gt;</text>
</g>
<!-- 0&#45;&gt;1 -->
<g id="edge1" class="edge">
<title>0&#45;&gt;1</title>
<path fill="none" stroke="#000000" d="M142,-407.9748C142,-401.195 142,-390.966 142,-382.1331"/>
<polygon fill="#000000" stroke="#000000" points="145.5001,-382.0561 142,-372.0561 138.5001,-382.0561 145.5001,-382.0561"/>
</g>
<!-- 2 -->
<g id="node3" class="node">
<title>2</title>
<text text-anchor="middle" x="142" y="-309.8" font-family="Times,serif" font-size="14.00" fill="#000000">&lt;url&gt;</text>
</g>
<!-- 1&#45;&gt;2 -->
<g id="edge2" class="edge">
<title>1&#45;&gt;2</title>
<path fill="none" stroke="#000000" d="M142,-356.9748C142,-350.195 142,-339.966 142,-331.1331"/>
<polygon fill="#000000" stroke="#000000" points="145.5001,-331.0561 142,-321.0561 138.5001,-331.0561 145.5001,-331.0561"/>
</g>
<!-- 3 -->
<g id="node4" class="node">
<title>3</title>
<text text-anchor="middle" x="29" y="-258.8" font-family="Times,serif" font-size="14.00" fill="#000000">&lt;scheme&gt;</text>
</g>
<!-- 2&#45;&gt;3 -->
<g id="edge3" class="edge">
<title>2&#45;&gt;3</title>
<path fill="none" stroke="#000000" d="M125.8099,-306.1929C107.3932,-297.881 77.0538,-284.188 55.2448,-274.345"/>
<polygon fill="#000000" stroke="#000000" points="56.4527,-271.0502 45.8982,-270.1266 53.573,-277.4305 56.4527,-271.0502"/>
</g>
<!-- 5 -->
<g id="node6" class="node">
<title>5</title>
<text text-anchor="middle" x="84" y="-258.8" font-family="Times,serif" font-size="14.00" fill="#000000">://</text>
</g>
<!-- 2&#45;&gt;5 -->
<g id="edge5" class="edge">
<title>2&#45;&gt;5</title>
<path fill="none" stroke="#000000" d="M133.4419,-305.9748C124.093,-297.7542 108.9771,-284.4626 97.917,-274.7374"/>
<polygon fill="#000000" stroke="#000000" points="99.9251,-271.8425 90.1042,-267.8675 95.3028,-277.0993 99.9251,-271.8425"/>
</g>
<!-- 6 -->
<g id="node7" class="node">
<title>6</title>
<text text-anchor="middle" x="142" y="-258.8" font-family="Times,serif" font-size="14.00" fill="#000000">&lt;authority&gt;</text>
</g>
<!-- 2&#45;&gt;6 -->
<g id="edge6" class="edge">
<title>2&#45;&gt;6</title>
<path fill="none" stroke="#000000" d="M142,-305.9748C142,-299.195 142,-288.966 142,-280.1331"/>
<polygon fill="#000000" stroke="#000000" points="145.5001,-280.0561 142,-270.0561 138.5001,-280.0561 145.5001,-280.0561"/>
</g>
<!-- 12 -->
<g id="node13" class="node">
<title>12</title>
<text text-anchor="middle" x="214" y="-258.8" font-family="Times,serif" font-size="14.00" fill="#000000">&lt;path&gt;</text>
</g>
<!-- 2&#45;&gt;12 -->
<g id="edge12" class="edge">
<title>2&#45;&gt;12</title>
<path fill="none" stroke="#000000" d="M152.6238,-305.9748C163.7906,-298.065 181.5851,-285.4606 195.1453,-275.8554"/>
<polygon fill="#000000" stroke="#000000" points="197.1954,-278.6924 203.3326,-270.0561 193.1492,-272.9802 197.1954,-278.6924"/>
</g>
<!-- 14 -->
<g id="node15" class="node">
<title>14</title>
<text text-anchor="middle" x="276" y="-258.8" font-family="Times,serif" font-size="14.00" fill="#000000">&lt;query&gt;</text>
</g>
<!-- 2&#45;&gt;14 -->
<g id="edge14" class="edge">
<title>2&#45;&gt;14</title>
<path fill="none" stroke="#000000" d="M158.1635,-307.3482C179.986,-299.0426 219.2634,-284.0938 246.4386,-273.751"/>
<polygon fill="#000000" stroke="#000000" points="247.7472,-276.9979 255.8482,-270.1697 245.2572,-270.4557 247.7472,-276.9979"/>
</g>
<!-- 4 -->
<g id="node5" class="node">
<title>4</title>
<text text-anchor="middle" x="26" y="-207.8" font-family="Times,serif" font-size="14.00" fill="#000000">ftps</text>
</g>
<!-- 3&#45;&gt;4 -->
<g id="edge4" class="edge">
<title>3&#45;&gt;4</title>
<path fill="none" stroke="#000000" d="M28.5573,-254.9748C28.1585,-248.195 27.5568,-237.966 27.0372,-229.1331"/>
<polygon fill="#000000" stroke="#000000" points="30.5258,-228.8333 26.4445,-219.0561 23.5378,-229.2444 30.5258,-228.8333"/>
</g>
<!-- 7 -->
<g id="node8" class="node">
<title>7</title>
<text text-anchor="middle" x="86" y="-207.8" font-family="Times,serif" font-size="14.00" fill="#000000">&lt;userinfo&gt;</text>
</g>
<!-- 6&#45;&gt;7 -->
<g id="edge7" class="edge">
<title>6&#45;&gt;7</title>
<path fill="none" stroke="#000000" d="M133.737,-254.9748C125.3826,-247.3663 112.2586,-235.4141 101.884,-225.9658"/>
<polygon fill="#000000" stroke="#000000" points="104.047,-223.2017 94.2969,-219.0561 99.3337,-228.3771 104.047,-223.2017"/>
</g>
<!-- 9 -->
<g id="node10" class="node">
<title>9</title>
<text text-anchor="middle" x="142" y="-207.8" font-family="Times,serif" font-size="14.00" fill="#000000">@</text>
</g>
<!-- 6&#45;&gt;9 -->
<g id="edge9" class="edge">
<title>6&#45;&gt;9</title>
<path fill="none" stroke="#000000" d="M142,-254.9748C142,-248.195 142,-237.966 142,-229.1331"/>
<polygon fill="#000000" stroke="#000000" points="145.5001,-229.0561 142,-219.0561 138.5001,-229.0561 145.5001,-229.0561"/>
</g>
<!-- 10 -->
<g id="node11" class="node">
<title>10</title>
<text text-anchor="middle" x="187" y="-207.8" font-family="Times,serif" font-size="14.00" fill="#000000">&lt;host&gt;</text>
</g>
<!-- 6&#45;&gt;10 -->
<g id="edge10" class="edge">
<title>6&#45;&gt;10</title>
<path fill="none" stroke="#000000" d="M148.6399,-254.9748C155.1538,-247.5923 165.2762,-236.1203 173.4875,-226.8142"/>
<polygon fill="#000000" stroke="#000000" points="176.341,-228.8702 180.3329,-219.0561 171.0922,-224.2388 176.341,-228.8702"/>
</g>
<!-- 8 -->
<g id="node9" class="node">
<title>8</title>
<text text-anchor="middle" x="86" y="-156.8" font-family="Times,serif" font-size="14.00" fill="#000000">user:password</text>
</g>
<!-- 7&#45;&gt;8 -->
<g id="edge8" class="edge">
<title>7&#45;&gt;8</title>
<path fill="none" stroke="#000000" d="M86,-203.9748C86,-197.195 86,-186.966 86,-178.1331"/>
<polygon fill="#000000" stroke="#000000" points="89.5001,-178.0561 86,-168.0561 82.5001,-178.0561 89.5001,-178.0561"/>
</g>
<!-- 11 -->
<g id="node12" class="node">
<title>11</title>
<text text-anchor="middle" x="187" y="-156.8" font-family="Times,serif" font-size="14.00" fill="#000000">cispa.saarland</text>
</g>
<!-- 10&#45;&gt;11 -->
<g id="edge11" class="edge">
<title>10&#45;&gt;11</title>
<path fill="none" stroke="#000000" d="M187,-203.9748C187,-197.195 187,-186.966 187,-178.1331"/>
<polygon fill="#000000" stroke="#000000" points="190.5001,-178.0561 187,-168.0561 183.5001,-178.0561 190.5001,-178.0561"/>
</g>
<!-- 13 -->
<g id="node14" class="node">
<title>13</title>
<text text-anchor="middle" x="227" y="-207.8" font-family="Times,serif" font-size="14.00" fill="#000000">/</text>
</g>
<!-- 12&#45;&gt;13 -->
<g id="edge13" class="edge">
<title>12&#45;&gt;13</title>
<path fill="none" stroke="#000000" d="M215.9182,-254.9748C217.6656,-248.1196 220.3118,-237.7383 222.5802,-228.8392"/>
<polygon fill="#000000" stroke="#000000" points="225.9954,-229.6108 225.0739,-219.0561 219.2123,-227.8817 225.9954,-229.6108"/>
</g>
<!-- 15 -->
<g id="node16" class="node">
<title>15</title>
<text text-anchor="middle" x="263" y="-207.8" font-family="Times,serif" font-size="14.00" fill="#000000">?</text>
</g>
<!-- 14&#45;&gt;15 -->
<g id="edge15" class="edge">
<title>14&#45;&gt;15</title>
<path fill="none" stroke="#000000" d="M274.0818,-254.9748C272.3344,-248.1196 269.6882,-237.7383 267.4198,-228.8392"/>
<polygon fill="#000000" stroke="#000000" points="270.7877,-227.8817 264.9261,-219.0561 264.0046,-229.6108 270.7877,-227.8817"/>
</g>
<!-- 16 -->
<g id="node17" class="node">
<title>16</title>
<text text-anchor="middle" x="313" y="-207.8" font-family="Times,serif" font-size="14.00" fill="#000000">&lt;params&gt;</text>
</g>
<!-- 14&#45;&gt;16 -->
<g id="edge16" class="edge">
<title>14&#45;&gt;16</title>
<path fill="none" stroke="#000000" d="M281.4595,-254.9748C286.7061,-247.743 294.7998,-236.5868 301.4744,-227.3866"/>
<polygon fill="#000000" stroke="#000000" points="304.4788,-229.2056 307.5181,-219.0561 298.8128,-225.095 304.4788,-229.2056"/>
</g>
<!-- 17 -->
<g id="node18" class="node">
<title>17</title>
<text text-anchor="middle" x="313" y="-156.8" font-family="Times,serif" font-size="14.00" fill="#000000">&lt;param&gt;</text>
</g>
<!-- 16&#45;&gt;17 -->
<g id="edge17" class="edge">
<title>16&#45;&gt;17</title>
<path fill="none" stroke="#000000" d="M313,-203.9748C313,-197.195 313,-186.966 313,-178.1331"/>
<polygon fill="#000000" stroke="#000000" points="316.5001,-178.0561 313,-168.0561 309.5001,-178.0561 316.5001,-178.0561"/>
</g>
<!-- 18 -->
<g id="node19" class="node">
<title>18</title>
<text text-anchor="middle" x="268" y="-105.8" font-family="Times,serif" font-size="14.00" fill="#000000">&lt;id&gt;</text>
</g>
<!-- 17&#45;&gt;18 -->
<g id="edge18" class="edge">
<title>17&#45;&gt;18</title>
<path fill="none" stroke="#000000" d="M306.3601,-152.9748C299.8462,-145.5923 289.7238,-134.1203 281.5125,-124.8142"/>
<polygon fill="#000000" stroke="#000000" points="283.9078,-122.2388 274.6671,-117.0561 278.659,-126.8702 283.9078,-122.2388"/>
</g>
<!-- 24 -->
<g id="node25" class="node">
<title>24</title>
<text text-anchor="middle" x="313" y="-105.8" font-family="Times,serif" font-size="14.00" fill="#000000">=</text>
</g>
<!-- 17&#45;&gt;24 -->
<g id="edge24" class="edge">
<title>17&#45;&gt;24</title>
<path fill="none" stroke="#000000" d="M313,-152.9748C313,-146.195 313,-135.966 313,-127.1331"/>
<polygon fill="#000000" stroke="#000000" points="316.5001,-127.0561 313,-117.0561 309.5001,-127.0561 316.5001,-127.0561"/>
</g>
<!-- 25 -->
<g id="node26" class="node">
<title>25</title>
<text text-anchor="middle" x="354" y="-105.8" font-family="Times,serif" font-size="14.00" fill="#000000">&lt;id&gt;</text>
</g>
<!-- 17&#45;&gt;25 -->
<g id="edge25" class="edge">
<title>17&#45;&gt;25</title>
<path fill="none" stroke="#000000" d="M319.0497,-152.9748C324.924,-145.6677 334.0193,-134.354 341.459,-125.0997"/>
<polygon fill="#000000" stroke="#000000" points="344.3877,-127.0428 347.9255,-117.0561 338.9321,-122.6569 344.3877,-127.0428"/>
</g>
<!-- 19 -->
<g id="node20" class="node">
<title>19</title>
<text text-anchor="middle" x="207" y="-54.8" font-family="Times,serif" font-size="14.00" fill="#000000">x</text>
</g>
<!-- 18&#45;&gt;19 -->
<g id="edge19" class="edge">
<title>18&#45;&gt;19</title>
<path fill="none" stroke="#000000" d="M258.9992,-101.9748C248.4345,-93.142 230.8676,-78.4549 219.1134,-68.6276"/>
<polygon fill="#000000" stroke="#000000" points="221.0947,-65.722 211.1778,-61.9929 216.6047,-71.0923 221.0947,-65.722"/>
</g>
<!-- 20 -->
<g id="node21" class="node">
<title>20</title>
<text text-anchor="middle" x="250" y="-54.8" font-family="Times,serif" font-size="14.00" fill="#000000">&lt;digit&gt;</text>
</g>
<!-- 18&#45;&gt;20 -->
<g id="edge20" class="edge">
<title>18&#45;&gt;20</title>
<path fill="none" stroke="#000000" d="M265.344,-101.9748C262.898,-95.0443 259.1799,-84.5097 256.0164,-75.5464"/>
<polygon fill="#000000" stroke="#000000" points="259.2956,-74.3211 252.6669,-66.0561 252.6947,-76.6509 259.2956,-74.3211"/>
</g>
<!-- 22 -->
<g id="node23" class="node">
<title>22</title>
<text text-anchor="middle" x="310" y="-54.8" font-family="Times,serif" font-size="14.00" fill="#000000">&lt;digit&gt;</text>
</g>
<!-- 18&#45;&gt;22 -->
<g id="edge22" class="edge">
<title>18&#45;&gt;22</title>
<path fill="none" stroke="#000000" d="M274.1972,-101.9748C280.2769,-94.5923 289.7245,-83.1203 297.3883,-73.8142"/>
<polygon fill="#000000" stroke="#000000" points="300.122,-76.0004 303.7773,-66.0561 294.7185,-71.5504 300.122,-76.0004"/>
</g>
<!-- 21 -->
<g id="node22" class="node">
<title>21</title>
<text text-anchor="middle" x="250" y="-3.8" font-family="Times,serif" font-size="14.00" fill="#000000">0</text>
</g>
<!-- 20&#45;&gt;21 -->
<g id="edge21" class="edge">
<title>20&#45;&gt;21</title>
<path fill="none" stroke="#000000" d="M250,-50.9748C250,-44.195 250,-33.966 250,-25.1331"/>
<polygon fill="#000000" stroke="#000000" points="253.5001,-25.0561 250,-15.0561 246.5001,-25.0561 253.5001,-25.0561"/>
</g>
<!-- 23 -->
<g id="node24" class="node">
<title>23</title>
<text text-anchor="middle" x="310" y="-3.8" font-family="Times,serif" font-size="14.00" fill="#000000">1</text>
</g>
<!-- 22&#45;&gt;23 -->
<g id="edge23" class="edge">
<title>22&#45;&gt;23</title>
<path fill="none" stroke="#000000" d="M310,-50.9748C310,-44.195 310,-33.966 310,-25.1331"/>
<polygon fill="#000000" stroke="#000000" points="313.5001,-25.0561 310,-15.0561 306.5001,-25.0561 313.5001,-25.0561"/>
</g>
<!-- 26 -->
<g id="node27" class="node">
<title>26</title>
<text text-anchor="middle" x="359" y="-54.8" font-family="Times,serif" font-size="14.00" fill="#000000">abc</text>
</g>
<!-- 25&#45;&gt;26 -->
<g id="edge26" class="edge">
<title>25&#45;&gt;26</title>
<path fill="none" stroke="#000000" d="M354.7378,-101.9748C355.4025,-95.195 356.4053,-84.966 357.2713,-76.1331"/>
<polygon fill="#000000" stroke="#000000" points="360.7667,-76.3499 358.2592,-66.0561 353.8001,-75.6669 360.7667,-76.3499"/>
</g>
</g>
</svg>
