<?xml version="1.0" encoding="UTF-8" standalone="no"?>
<!DOCTYPE svg PUBLIC "-//W3C//DTD SVG 1.1//EN"
 "http://www.w3.org/Graphics/SVG/1.1/DTD/svg11.dtd">
<!-- Generated by graphviz version 2.40.1 (20161225.0304)
 -->
<!-- Title: %3 Pages: 1 -->
<svg width="2010pt" height="548pt"
 viewBox="0.00 0.00 2010.00 548.00" xmlns="http://www.w3.org/2000/svg" xmlns:xlink="http://www.w3.org/1999/xlink">
<g id="graph0" class="graph" transform="scale(1 1) rotate(0) translate(4 544)">
<title>%3</title>
<polygon fill="#ffffff" stroke="transparent" points="-4,4 -4,-544 2006,-544 2006,4 -4,4"/>
<!-- Fuzzer -->
<g id="node1" class="node">
<title>Fuzzer</title>
<g id="a_node1"><a xlink:href="Fuzzer.ipynb" xlink:title="Fuzzer">
<polygon fill="#ffffff" stroke="#000000" points="1324,-468 1026,-468 1026,-432 1330,-432 1330,-462 1324,-468"/>
<polyline fill="none" stroke="#000000" points="1324,-468 1324,-462 "/>
<polyline fill="none" stroke="#000000" points="1330,-462 1324,-462 "/>
<text text-anchor="middle" x="1178" y="-446.3" font-family="Patua One" font-size="14.00" fill="#b03a2e">Fuzzing: Breaking Things with Random Inputs</text>
</a>
</g>
</g>
<!-- Coverage -->
<g id="node2" class="node">
<title>Coverage</title>
<g id="a_node2"><a xlink:href="Coverage.ipynb" xlink:title="Coverage">
<polygon fill="#ffffff" stroke="#000000" points="906.5,-324 789.5,-324 789.5,-288 912.5,-288 912.5,-318 906.5,-324"/>
<polyline fill="none" stroke="#000000" points="906.5,-324 906.5,-318 "/>
<polyline fill="none" stroke="#000000" points="912.5,-318 906.5,-318 "/>
<text text-anchor="middle" x="851" y="-302.3" font-family="Patua One" font-size="14.00" fill="#b03a2e">Getting Coverage</text>
</a>
</g>
</g>
<!-- Fuzzer&#45;&gt;Coverage -->
<g id="edge1" class="edge">
<title>Fuzzer&#45;&gt;Coverage</title>
<path fill="none" stroke="#000000" d="M1136.9163,-431.9081C1076.996,-405.5212 965.7485,-356.5315 901.1036,-328.064"/>
<polygon fill="#000000" stroke="#000000" points="902.4781,-324.845 891.9156,-324.0179 899.6569,-331.2513 902.4781,-324.845"/>
</g>
<!-- SearchBasedFuzzer -->
<g id="node3" class="node">
<title>SearchBasedFuzzer</title>
<g id="a_node3"><a xlink:href="SearchBasedFuzzer.ipynb" xlink:title="SearchBasedFuzzer">
<polygon fill="#ffffff" stroke="#000000" points="1425,-396 1279,-396 1279,-360 1431,-360 1431,-390 1425,-396"/>
<polyline fill="none" stroke="#000000" points="1425,-396 1425,-390 "/>
<polyline fill="none" stroke="#000000" points="1431,-390 1425,-390 "/>
<text text-anchor="middle" x="1355" y="-374.3" font-family="Patua One" font-size="14.00" fill="#b03a2e">Search&#45;Based Fuzzing</text>
</a>
</g>
</g>
<!-- Fuzzer&#45;&gt;SearchBasedFuzzer -->
<g id="edge2" class="edge">
<title>Fuzzer&#45;&gt;SearchBasedFuzzer</title>
<path fill="none" stroke="#000000" d="M1222.6646,-431.8314C1246.5477,-422.1162 1276.129,-410.0831 1301.2628,-399.8592"/>
<polygon fill="#000000" stroke="#000000" points="1302.7125,-403.0481 1310.6566,-396.038 1300.0748,-396.564 1302.7125,-403.0481"/>
</g>
<!-- Grammars -->
<g id="node4" class="node">
<title>Grammars</title>
<g id="a_node4"><a xlink:href="Grammars.ipynb" xlink:title="Grammars">
<polygon fill="#ffffff" stroke="#000000" points="1254.5,-396 1095.5,-396 1095.5,-360 1260.5,-360 1260.5,-390 1254.5,-396"/>
<polyline fill="none" stroke="#000000" points="1254.5,-396 1254.5,-390 "/>
<polyline fill="none" stroke="#000000" points="1260.5,-390 1254.5,-390 "/>
<text text-anchor="middle" x="1178" y="-374.3" font-family="Patua One" font-size="14.00" fill="#b03a2e">Fuzzing with Grammars</text>
</a>
</g>
</g>
<!-- Fuzzer&#45;&gt;Grammars -->
<g id="edge3" class="edge">
<title>Fuzzer&#45;&gt;Grammars</title>
<path fill="none" stroke="#000000" d="M1178,-431.8314C1178,-424.131 1178,-414.9743 1178,-406.4166"/>
<polygon fill="#000000" stroke="#000000" points="1181.5001,-406.4132 1178,-396.4133 1174.5001,-406.4133 1181.5001,-406.4132"/>
</g>
<!-- MutationFuzzer -->
<g id="node6" class="node">
<title>MutationFuzzer</title>
<g id="a_node6"><a xlink:href="MutationFuzzer.ipynb" xlink:title="MutationFuzzer">
<polygon fill="#ffffff" stroke="#000000" points="759.5,-252 596.5,-252 596.5,-216 765.5,-216 765.5,-246 759.5,-252"/>
<polyline fill="none" stroke="#000000" points="759.5,-252 759.5,-246 "/>
<polyline fill="none" stroke="#000000" points="765.5,-246 759.5,-246 "/>
<text text-anchor="middle" x="681" y="-230.3" font-family="Patua One" font-size="14.00" fill="#b03a2e">Mutation&#45;Based Fuzzing</text>
</a>
</g>
</g>
<!-- Coverage&#45;&gt;MutationFuzzer -->
<g id="edge5" class="edge">
<title>Coverage&#45;&gt;MutationFuzzer</title>
<path fill="none" stroke="#000000" d="M808.1018,-287.8314C785.2643,-278.159 757.002,-266.1891 732.9313,-255.9944"/>
<polygon fill="#000000" stroke="#000000" points="734.1629,-252.7151 723.5897,-252.038 731.4329,-259.1608 734.1629,-252.7151"/>
</g>
<!-- MutationAnalysis -->
<g id="node7" class="node">
<title>MutationAnalysis</title>
<g id="a_node7"><a xlink:href="MutationAnalysis.ipynb" xlink:title="MutationAnalysis">
<polygon fill="#ffffff" stroke="#000000" points="572,-252 228,-252 228,-216 578,-216 578,-246 572,-252"/>
<polyline fill="none" stroke="#000000" points="572,-252 572,-246 "/>
<polyline fill="none" stroke="#000000" points="578,-246 572,-246 "/>
<text text-anchor="middle" x="403" y="-230.3" font-family="Patua One" font-size="14.00" fill="#b03a2e">Evaluating Test Effectiveness with Mutation Analysis</text>
</a>
</g>
</g>
<!-- Coverage&#45;&gt;MutationAnalysis -->
<g id="edge6" class="edge">
<title>Coverage&#45;&gt;MutationAnalysis</title>
<path fill="none" stroke="#000000" d="M789.1779,-296.0643C721.2952,-285.1546 610.5836,-267.3616 525.0663,-253.6178"/>
<polygon fill="#000000" stroke="#000000" points="525.4599,-250.1362 515.0312,-252.005 524.3491,-257.0475 525.4599,-250.1362"/>
</g>
<!-- GrammarCoverageFuzzer -->
<g id="node8" class="node">
<title>GrammarCoverageFuzzer</title>
<g id="a_node8"><a xlink:href="GrammarCoverageFuzzer.ipynb" xlink:title="GrammarCoverageFuzzer">
<polygon fill="#ffffff" stroke="#000000" points="912.5,-252 783.5,-252 783.5,-216 918.5,-216 918.5,-246 912.5,-252"/>
<polyline fill="none" stroke="#000000" points="912.5,-252 912.5,-246 "/>
<polyline fill="none" stroke="#000000" points="918.5,-246 912.5,-246 "/>
<text text-anchor="middle" x="851" y="-230.3" font-family="Patua One" font-size="14.00" fill="#b03a2e">Grammar Coverage</text>
</a>
</g>
</g>
<!-- Coverage&#45;&gt;GrammarCoverageFuzzer -->
<g id="edge7" class="edge">
<title>Coverage&#45;&gt;GrammarCoverageFuzzer</title>
<path fill="none" stroke="#000000" d="M851,-287.8314C851,-280.131 851,-270.9743 851,-262.4166"/>
<polygon fill="#000000" stroke="#000000" points="854.5001,-262.4132 851,-252.4133 847.5001,-262.4133 854.5001,-262.4132"/>
</g>
<!-- ProbabilisticGrammarFuzzer -->
<g id="node9" class="node">
<title>ProbabilisticGrammarFuzzer</title>
<g id="a_node9"><a xlink:href="ProbabilisticGrammarFuzzer.ipynb" xlink:title="ProbabilisticGrammarFuzzer">
<polygon fill="#ffffff" stroke="#000000" points="1572,-180 1370,-180 1370,-144 1578,-144 1578,-174 1572,-180"/>
<polyline fill="none" stroke="#000000" points="1572,-180 1572,-174 "/>
<polyline fill="none" stroke="#000000" points="1578,-174 1572,-174 "/>
<text text-anchor="middle" x="1474" y="-158.3" font-family="Patua One" font-size="14.00" fill="#b03a2e">Probabilistic Grammar Fuzzing</text>
</a>
</g>
</g>
<!-- Coverage&#45;&gt;ProbabilisticGrammarFuzzer -->
<g id="edge8" class="edge">
<title>Coverage&#45;&gt;ProbabilisticGrammarFuzzer</title>
<path fill="none" stroke="#000000" d="M878.349,-287.8205C893.0956,-277.7096 911.4138,-264.645 927,-252 945.3186,-237.1383 944.4434,-225.5789 966,-216 1043.8729,-181.3964 1258.6276,-190.2776 1359.9517,-179.9709"/>
<polygon fill="#000000" stroke="#000000" points="1360.4356,-183.4386 1369.9797,-178.8386 1359.6501,-176.4828 1360.4356,-183.4386"/>
</g>
<!-- GrammarMiner -->
<g id="node10" class="node">
<title>GrammarMiner</title>
<g id="a_node10"><a xlink:href="GrammarMiner.ipynb" xlink:title="GrammarMiner">
<polygon fill="#ffffff" stroke="#000000" points="1328.5,-252 1167.5,-252 1167.5,-216 1334.5,-216 1334.5,-246 1328.5,-252"/>
<polyline fill="none" stroke="#000000" points="1328.5,-252 1328.5,-246 "/>
<polyline fill="none" stroke="#000000" points="1334.5,-246 1328.5,-246 "/>
<text text-anchor="middle" x="1251" y="-230.3" font-family="Patua One" font-size="14.00" fill="#b03a2e">Mining Input Grammars</text>
</a>
</g>
</g>
<!-- Coverage&#45;&gt;GrammarMiner -->
<g id="edge9" class="edge">
<title>Coverage&#45;&gt;GrammarMiner</title>
<path fill="none" stroke="#000000" d="M912.5064,-295.499C972.346,-285.2105 1066.1085,-268.8994 1157.3943,-252.0964"/>
<polygon fill="#000000" stroke="#000000" points="1158.1621,-255.5139 1167.3613,-250.258 1156.8923,-248.6301 1158.1621,-255.5139"/>
</g>
<!-- DynamicInvariants -->
<g id="node11" class="node">
<title>DynamicInvariants</title>
<g id="a_node11"><a xlink:href="DynamicInvariants.ipynb" xlink:title="DynamicInvariants">
<polygon fill="#ffffff" stroke="#000000" points="204,-252 0,-252 0,-216 210,-216 210,-246 204,-252"/>
<polyline fill="none" stroke="#000000" points="204,-252 204,-246 "/>
<polyline fill="none" stroke="#000000" points="210,-246 204,-246 "/>
<text text-anchor="middle" x="105" y="-230.3" font-family="Patua One" font-size="14.00" fill="#b03a2e">Mining Function Specifications</text>
</a>
</g>
</g>
<!-- Coverage&#45;&gt;DynamicInvariants -->
<g id="edge10" class="edge">
<title>Coverage&#45;&gt;DynamicInvariants</title>
<path fill="none" stroke="#000000" d="M789.3963,-302.2022C677.9534,-295.0114 435.2615,-277.8843 220.4516,-252.1305"/>
<polygon fill="#000000" stroke="#000000" points="220.5918,-248.6221 210.2442,-250.8977 219.7524,-255.5716 220.5918,-248.6221"/>
</g>
<!-- GrammarFuzzer -->
<g id="node13" class="node">
<title>GrammarFuzzer</title>
<g id="a_node13"><a xlink:href="GrammarFuzzer.ipynb" xlink:title="GrammarFuzzer">
<polygon fill="#ffffff" stroke="#000000" points="1336.5,-324 1159.5,-324 1159.5,-288 1342.5,-288 1342.5,-318 1336.5,-324"/>
<polyline fill="none" stroke="#000000" points="1336.5,-324 1336.5,-318 "/>
<polyline fill="none" stroke="#000000" points="1342.5,-318 1336.5,-318 "/>
<text text-anchor="middle" x="1251" y="-302.3" font-family="Patua One" font-size="14.00" fill="#b03a2e">Efficient Grammar Fuzzing</text>
</a>
</g>
</g>
<!-- Grammars&#45;&gt;GrammarFuzzer -->
<g id="edge12" class="edge">
<title>Grammars&#45;&gt;GrammarFuzzer</title>
<path fill="none" stroke="#000000" d="M1196.421,-359.8314C1205.1529,-351.219 1215.7317,-340.7851 1225.2423,-331.4048"/>
<polygon fill="#000000" stroke="#000000" points="1227.923,-333.6769 1232.5849,-324.1628 1223.0075,-328.6931 1227.923,-333.6769"/>
</g>
<!-- Intro_Testing -->
<g id="node5" class="node">
<title>Intro_Testing</title>
<g id="a_node5"><a xlink:href="Intro_Testing.ipynb" xlink:title="Intro_Testing">
<polygon fill="#ffffff" stroke="#000000" points="1281.5,-540 1068.5,-540 1068.5,-504 1287.5,-504 1287.5,-534 1281.5,-540"/>
<polyline fill="none" stroke="#000000" points="1281.5,-540 1281.5,-534 "/>
<polyline fill="none" stroke="#000000" points="1287.5,-534 1281.5,-534 "/>
<text text-anchor="middle" x="1178" y="-518.3" font-family="Patua One" font-size="14.00" fill="#b03a2e">Introduction to Software Testing</text>
</a>
</g>
</g>
<!-- Intro_Testing&#45;&gt;Fuzzer -->
<g id="edge4" class="edge">
<title>Intro_Testing&#45;&gt;Fuzzer</title>
<path fill="none" stroke="#000000" d="M1178,-503.8314C1178,-496.131 1178,-486.9743 1178,-478.4166"/>
<polygon fill="#000000" stroke="#000000" points="1181.5001,-478.4132 1178,-468.4133 1174.5001,-478.4133 1181.5001,-478.4132"/>
</g>
<!-- GreyboxFuzzer -->
<g id="node12" class="node">
<title>GreyboxFuzzer</title>
<g id="a_node12"><a xlink:href="GreyboxFuzzer.ipynb" xlink:title="GreyboxFuzzer">
<polygon fill="#ffffff" stroke="#000000" points="706,-180 592,-180 592,-144 712,-144 712,-174 706,-180"/>
<polyline fill="none" stroke="#000000" points="706,-180 706,-174 "/>
<polyline fill="none" stroke="#000000" points="712,-174 706,-174 "/>
<text text-anchor="middle" x="652" y="-158.3" font-family="Patua One" font-size="14.00" fill="#b03a2e">Greybox Fuzzing</text>
</a>
</g>
</g>
<!-- MutationFuzzer&#45;&gt;GreyboxFuzzer -->
<g id="edge11" class="edge">
<title>MutationFuzzer&#45;&gt;GreyboxFuzzer</title>
<path fill="none" stroke="#000000" d="M673.6821,-215.8314C670.5124,-207.9617 666.73,-198.5712 663.2187,-189.8533"/>
<polygon fill="#000000" stroke="#000000" points="666.3992,-188.3815 659.4165,-180.4133 659.9061,-190.9968 666.3992,-188.3815"/>
</g>
<!-- ConfigurationFuzzer -->
<g id="node18" class="node">
<title>ConfigurationFuzzer</title>
<g id="a_node18"><a xlink:href="ConfigurationFuzzer.ipynb" xlink:title="ConfigurationFuzzer">
<polygon fill="#ffffff" stroke="#000000" points="883.5,-180 730.5,-180 730.5,-144 889.5,-144 889.5,-174 883.5,-180"/>
<polyline fill="none" stroke="#000000" points="883.5,-180 883.5,-174 "/>
<polyline fill="none" stroke="#000000" points="889.5,-174 883.5,-174 "/>
<text text-anchor="middle" x="810" y="-158.3" font-family="Patua One" font-size="14.00" fill="#b03a2e">Testing Configurations</text>
</a>
</g>
</g>
<!-- GrammarCoverageFuzzer&#45;&gt;ConfigurationFuzzer -->
<g id="edge19" class="edge">
<title>GrammarCoverageFuzzer&#45;&gt;ConfigurationFuzzer</title>
<path fill="none" stroke="#000000" d="M840.654,-215.8314C836.0763,-207.7925 830.5948,-198.1666 825.5412,-189.2918"/>
<polygon fill="#000000" stroke="#000000" points="828.4752,-187.3712 820.4853,-180.4133 822.3923,-190.8351 828.4752,-187.3712"/>
</g>
<!-- Carver -->
<g id="node19" class="node">
<title>Carver</title>
<g id="a_node19"><a xlink:href="Carver.ipynb" xlink:title="Carver">
<polygon fill="#ffffff" stroke="#000000" points="1152.5,-36 1027.5,-36 1027.5,0 1158.5,0 1158.5,-30 1152.5,-36"/>
<polyline fill="none" stroke="#000000" points="1152.5,-36 1152.5,-30 "/>
<polyline fill="none" stroke="#000000" points="1158.5,-30 1152.5,-30 "/>
<text text-anchor="middle" x="1093" y="-14.3" font-family="Patua One" font-size="14.00" fill="#b03a2e">Carving Unit Tests</text>
</a>
</g>
</g>
<!-- GrammarCoverageFuzzer&#45;&gt;Carver -->
<g id="edge20" class="edge">
<title>GrammarCoverageFuzzer&#45;&gt;Carver</title>
<path fill="none" stroke="#000000" d="M867.1608,-215.7495C883.9804,-197.0817 911.3938,-167.5583 937,-144 977.8052,-106.4583 1028.2182,-66.8598 1060.4904,-42.2944"/>
<polygon fill="#000000" stroke="#000000" points="1062.8324,-44.911 1068.6877,-36.0812 1058.604,-39.3324 1062.8324,-44.911"/>
</g>
<!-- GUIFuzzer -->
<g id="node20" class="node">
<title>GUIFuzzer</title>
<g id="a_node20"><a xlink:href="GUIFuzzer.ipynb" xlink:title="GUIFuzzer">
<polygon fill="#ffffff" stroke="#000000" points="1160,-180 946,-180 946,-144 1166,-144 1166,-174 1160,-180"/>
<polyline fill="none" stroke="#000000" points="1160,-180 1160,-174 "/>
<polyline fill="none" stroke="#000000" points="1166,-174 1160,-174 "/>
<text text-anchor="middle" x="1056" y="-158.3" font-family="Patua One" font-size="14.00" fill="#b03a2e">Testing Graphical User Interfaces</text>
</a>
</g>
</g>
<!-- GrammarCoverageFuzzer&#45;&gt;GUIFuzzer -->
<g id="edge21" class="edge">
<title>GrammarCoverageFuzzer&#45;&gt;GUIFuzzer</title>
<path fill="none" stroke="#000000" d="M902.4655,-215.9243C930.4902,-206.0815 965.3484,-193.8386 994.764,-183.5073"/>
<polygon fill="#000000" stroke="#000000" points="996.2381,-186.6992 1004.5133,-180.0831 993.9184,-180.0947 996.2381,-186.6992"/>
</g>
<!-- APIFuzzer -->
<g id="node23" class="node">
<title>APIFuzzer</title>
<g id="a_node23"><a xlink:href="APIFuzzer.ipynb" xlink:title="APIFuzzer">
<polygon fill="#ffffff" stroke="#000000" points="1310.5,-108 1219.5,-108 1219.5,-72 1316.5,-72 1316.5,-102 1310.5,-108"/>
<polyline fill="none" stroke="#000000" points="1310.5,-108 1310.5,-102 "/>
<polyline fill="none" stroke="#000000" points="1316.5,-102 1310.5,-102 "/>
<text text-anchor="middle" x="1268" y="-86.3" font-family="Patua One" font-size="14.00" fill="#b03a2e">Fuzzing APIs</text>
</a>
</g>
</g>
<!-- ProbabilisticGrammarFuzzer&#45;&gt;APIFuzzer -->
<g id="edge25" class="edge">
<title>ProbabilisticGrammarFuzzer&#45;&gt;APIFuzzer</title>
<path fill="none" stroke="#000000" d="M1422.2834,-143.9243C1393.0317,-133.7004 1356.3711,-120.887 1326.1267,-110.3161"/>
<polygon fill="#000000" stroke="#000000" points="1327.145,-106.9645 1316.5501,-106.969 1324.8353,-113.5725 1327.145,-106.9645"/>
</g>
<!-- InformationFlow -->
<g id="node22" class="node">
<title>InformationFlow</title>
<g id="a_node22"><a xlink:href="InformationFlow.ipynb" xlink:title="InformationFlow">
<polygon fill="#ffffff" stroke="#000000" points="1773.5,-180 1596.5,-180 1596.5,-144 1779.5,-144 1779.5,-174 1773.5,-180"/>
<polyline fill="none" stroke="#000000" points="1773.5,-180 1773.5,-174 "/>
<polyline fill="none" stroke="#000000" points="1779.5,-174 1773.5,-174 "/>
<text text-anchor="middle" x="1688" y="-158.3" font-family="Patua One" font-size="14.00" fill="#b03a2e">Tracking Information Flow</text>
</a>
</g>
</g>
<!-- GrammarMiner&#45;&gt;InformationFlow -->
<g id="edge27" class="edge">
<title>GrammarMiner&#45;&gt;InformationFlow</title>
<path fill="none" stroke="#000000" d="M1334.6044,-220.9682C1400.234,-210.6443 1494.1942,-195.6579 1586.2946,-180.1053"/>
<polygon fill="#000000" stroke="#000000" points="1587.0775,-183.5227 1596.3534,-178.4032 1585.9095,-176.6208 1587.0775,-183.5227"/>
</g>
<!-- GrammarFuzzer&#45;&gt;GrammarCoverageFuzzer -->
<g id="edge13" class="edge">
<title>GrammarFuzzer&#45;&gt;GrammarCoverageFuzzer</title>
<path fill="none" stroke="#000000" d="M1159.4827,-289.5269C1089.7279,-276.971 994.7286,-259.8711 928.6568,-247.9782"/>
<polygon fill="#000000" stroke="#000000" points="929.1794,-244.5161 918.7175,-246.1891 927.9393,-251.4054 929.1794,-244.5161"/>
</g>
<!-- GrammarFuzzer&#45;&gt;GrammarMiner -->
<g id="edge17" class="edge">
<title>GrammarFuzzer&#45;&gt;GrammarMiner</title>
<path fill="none" stroke="#000000" d="M1251,-287.8314C1251,-280.131 1251,-270.9743 1251,-262.4166"/>
<polygon fill="#000000" stroke="#000000" points="1254.5001,-262.4132 1251,-252.4133 1247.5001,-262.4133 1254.5001,-262.4132"/>
</g>
<!-- Parser -->
<g id="node14" class="node">
<title>Parser</title>
<g id="a_node14"><a xlink:href="Parser.ipynb" xlink:title="Parser">
<polygon fill="#ffffff" stroke="#000000" points="1735.5,-252 1634.5,-252 1634.5,-216 1741.5,-216 1741.5,-246 1735.5,-252"/>
<polyline fill="none" stroke="#000000" points="1735.5,-252 1735.5,-246 "/>
<polyline fill="none" stroke="#000000" points="1741.5,-246 1735.5,-246 "/>
<text text-anchor="middle" x="1688" y="-230.3" font-family="Patua One" font-size="14.00" fill="#b03a2e">Parsing Inputs</text>
</a>
</g>
</g>
<!-- GrammarFuzzer&#45;&gt;Parser -->
<g id="edge14" class="edge">
<title>GrammarFuzzer&#45;&gt;Parser</title>
<path fill="none" stroke="#000000" d="M1342.6812,-296.2618C1416.3952,-287.6231 1522.6841,-273.3502 1624.3419,-251.988"/>
<polygon fill="#000000" stroke="#000000" points="1625.1113,-255.4028 1634.1641,-249.8985 1623.6547,-248.556 1625.1113,-255.4028"/>
</g>
<!-- GeneratorGrammarFuzzer -->
<g id="node15" class="node">
<title>GeneratorGrammarFuzzer</title>
<g id="a_node15"><a xlink:href="GeneratorGrammarFuzzer.ipynb" xlink:title="GeneratorGrammarFuzzer">
<polygon fill="#ffffff" stroke="#000000" points="1346,-180 1184,-180 1184,-144 1352,-144 1352,-174 1346,-180"/>
<polyline fill="none" stroke="#000000" points="1346,-180 1346,-174 "/>
<polyline fill="none" stroke="#000000" points="1352,-174 1346,-174 "/>
<text text-anchor="middle" x="1268" y="-158.3" font-family="Patua One" font-size="14.00" fill="#b03a2e">Fuzzing with Generators</text>
</a>
</g>
</g>
<!-- GrammarFuzzer&#45;&gt;GeneratorGrammarFuzzer -->
<g id="edge15" class="edge">
<title>GrammarFuzzer&#45;&gt;GeneratorGrammarFuzzer</title>
<path fill="none" stroke="#000000" d="M1302.0855,-287.9348C1318.0666,-279.5922 1333.8895,-267.9115 1343,-252 1350.9502,-238.115 1350.2944,-230.2405 1343,-216 1336.763,-203.8238 1326.3605,-193.7682 1315.2593,-185.7713"/>
<polygon fill="#000000" stroke="#000000" points="1316.9527,-182.6937 1306.6914,-180.0563 1313.0684,-188.5171 1316.9527,-182.6937"/>
</g>
<!-- Reducer -->
<g id="node16" class="node">
<title>Reducer</title>
<g id="a_node16"><a xlink:href="Reducer.ipynb" xlink:title="Reducer">
<polygon fill="#ffffff" stroke="#000000" points="1610.5,-252 1391.5,-252 1391.5,-216 1616.5,-216 1616.5,-246 1610.5,-252"/>
<polyline fill="none" stroke="#000000" points="1610.5,-252 1610.5,-246 "/>
<polyline fill="none" stroke="#000000" points="1616.5,-246 1610.5,-246 "/>
<text text-anchor="middle" x="1504" y="-230.3" font-family="Patua One" font-size="14.00" fill="#b03a2e">Reducing Failure&#45;Inducing Inputs</text>
</a>
</g>
</g>
<!-- GrammarFuzzer&#45;&gt;Reducer -->
<g id="edge16" class="edge">
<title>GrammarFuzzer&#45;&gt;Reducer</title>
<path fill="none" stroke="#000000" d="M1314.516,-287.9243C1349.8545,-277.8675 1393.9971,-265.3052 1430.7837,-254.8363"/>
<polygon fill="#000000" stroke="#000000" points="1431.7978,-258.1867 1440.4578,-252.0831 1429.8817,-251.454 1431.7978,-258.1867"/>
</g>
<!-- WebFuzzer -->
<g id="node17" class="node">
<title>WebFuzzer</title>
<g id="a_node17"><a xlink:href="WebFuzzer.ipynb" xlink:title="WebFuzzer">
<polygon fill="#ffffff" stroke="#000000" points="1143,-252 975,-252 975,-216 1149,-216 1149,-246 1143,-252"/>
<polyline fill="none" stroke="#000000" points="1143,-252 1143,-246 "/>
<polyline fill="none" stroke="#000000" points="1149,-246 1143,-246 "/>
<text text-anchor="middle" x="1062" y="-230.3" font-family="Patua One" font-size="14.00" fill="#b03a2e">Testing Web Applications</text>
</a>
</g>
</g>
<!-- GrammarFuzzer&#45;&gt;WebFuzzer -->
<g id="edge18" class="edge">
<title>GrammarFuzzer&#45;&gt;WebFuzzer</title>
<path fill="none" stroke="#000000" d="M1203.3073,-287.8314C1177.6927,-278.0734 1145.9398,-265.977 1119.026,-255.7242"/>
<polygon fill="#000000" stroke="#000000" points="1119.9406,-252.3273 1109.3497,-252.038 1117.4486,-258.8687 1119.9406,-252.3273"/>
</g>
<!-- Parser&#45;&gt;ProbabilisticGrammarFuzzer -->
<g id="edge23" class="edge">
<title>Parser&#45;&gt;ProbabilisticGrammarFuzzer</title>
<path fill="none" stroke="#000000" d="M1634.275,-215.9243C1604.8927,-206.0387 1568.3148,-193.7321 1537.5242,-183.3726"/>
<polygon fill="#000000" stroke="#000000" points="1538.3412,-179.9548 1527.7471,-180.0831 1536.1089,-186.5893 1538.3412,-179.9548"/>
</g>
<!-- LangFuzzer -->
<g id="node21" class="node">
<title>LangFuzzer</title>
<g id="a_node21"><a xlink:href="LangFuzzer.ipynb" xlink:title="LangFuzzer">
<polygon fill="#ffffff" stroke="#000000" points="1996,-180 1798,-180 1798,-144 2002,-144 2002,-174 1996,-180"/>
<polyline fill="none" stroke="#000000" points="1996,-180 1996,-174 "/>
<polyline fill="none" stroke="#000000" points="2002,-174 1996,-174 "/>
<text text-anchor="middle" x="1900" y="-158.3" font-family="Patua One" font-size="14.00" fill="#b03a2e">Fuzzing with Input Fragments</text>
</a>
</g>
</g>
<!-- Parser&#45;&gt;LangFuzzer -->
<g id="edge22" class="edge">
<title>Parser&#45;&gt;LangFuzzer</title>
<path fill="none" stroke="#000000" d="M1741.2229,-215.9243C1770.3306,-206.0387 1806.5666,-193.7321 1837.0694,-183.3726"/>
<polygon fill="#000000" stroke="#000000" points="1838.4119,-186.6131 1846.7552,-180.0831 1836.1608,-179.9849 1838.4119,-186.6131"/>
</g>
<!-- Parser&#45;&gt;InformationFlow -->
<g id="edge24" class="edge">
<title>Parser&#45;&gt;InformationFlow</title>
<path fill="none" stroke="#000000" d="M1688,-215.8314C1688,-208.131 1688,-198.9743 1688,-190.4166"/>
<polygon fill="#000000" stroke="#000000" points="1691.5001,-190.4132 1688,-180.4133 1684.5001,-190.4133 1691.5001,-190.4132"/>
</g>
<!-- GeneratorGrammarFuzzer&#45;&gt;APIFuzzer -->
<g id="edge26" class="edge">
<title>GeneratorGrammarFuzzer&#45;&gt;APIFuzzer</title>
<path fill="none" stroke="#000000" d="M1268,-143.8314C1268,-136.131 1268,-126.9743 1268,-118.4166"/>
<polygon fill="#000000" stroke="#000000" points="1271.5001,-118.4132 1268,-108.4133 1264.5001,-118.4133 1271.5001,-118.4132"/>
</g>
<!-- WebFuzzer&#45;&gt;GUIFuzzer -->
<g id="edge31" class="edge">
<title>WebFuzzer&#45;&gt;GUIFuzzer</title>
<path fill="none" stroke="#000000" d="M1060.4859,-215.8314C1059.8442,-208.131 1059.0812,-198.9743 1058.3681,-190.4166"/>
<polygon fill="#000000" stroke="#000000" points="1061.8529,-190.088 1057.5344,-180.4133 1054.8771,-190.6694 1061.8529,-190.088"/>
</g>
<!-- ConcolicFuzzer -->
<g id="node24" class="node">
<title>ConcolicFuzzer</title>
<g id="a_node24"><a xlink:href="ConcolicFuzzer.ipynb" xlink:title="ConcolicFuzzer">
<polygon fill="#ffffff" stroke="#000000" points="1742,-108 1628,-108 1628,-72 1748,-72 1748,-102 1742,-108"/>
<polyline fill="none" stroke="#000000" points="1742,-108 1742,-102 "/>
<polyline fill="none" stroke="#000000" points="1748,-102 1742,-102 "/>
<text text-anchor="middle" x="1688" y="-86.3" font-family="Patua One" font-size="14.00" fill="#b03a2e">Concolic Fuzzing</text>
</a>
</g>
</g>
<!-- InformationFlow&#45;&gt;ConcolicFuzzer -->
<g id="edge28" class="edge">
<title>InformationFlow&#45;&gt;ConcolicFuzzer</title>
<path fill="none" stroke="#000000" d="M1688,-143.8314C1688,-136.131 1688,-126.9743 1688,-118.4166"/>
<polygon fill="#000000" stroke="#000000" points="1691.5001,-118.4132 1688,-108.4133 1684.5001,-118.4133 1691.5001,-118.4132"/>
</g>
<!-- APIFuzzer&#45;&gt;Carver -->
<g id="edge30" class="edge">
<title>APIFuzzer&#45;&gt;Carver</title>
<path fill="none" stroke="#000000" d="M1223.8401,-71.8314C1200.2268,-62.1162 1170.9798,-50.0831 1146.13,-39.8592"/>
<polygon fill="#000000" stroke="#000000" points="1147.4219,-36.6061 1136.8423,-36.038 1144.7585,-43.0797 1147.4219,-36.6061"/>
</g>
<!-- SymbolicFuzzer -->
<g id="node25" class="node">
<title>SymbolicFuzzer</title>
<g id="a_node25"><a xlink:href="SymbolicFuzzer.ipynb" xlink:title="SymbolicFuzzer">
<polygon fill="#ffffff" stroke="#000000" points="1745,-36 1625,-36 1625,0 1751,0 1751,-30 1745,-36"/>
<polyline fill="none" stroke="#000000" points="1745,-36 1745,-30 "/>
<polyline fill="none" stroke="#000000" points="1751,-30 1745,-30 "/>
<text text-anchor="middle" x="1688" y="-14.3" font-family="Patua One" font-size="14.00" fill="#b03a2e">Symbolic Fuzzing</text>
</a>
</g>
</g>
<!-- ConcolicFuzzer&#45;&gt;SymbolicFuzzer -->
<g id="edge29" class="edge">
<title>ConcolicFuzzer&#45;&gt;SymbolicFuzzer</title>
<path fill="none" stroke="#000000" d="M1688,-71.8314C1688,-64.131 1688,-54.9743 1688,-46.4166"/>
<polygon fill="#000000" stroke="#000000" points="1691.5001,-46.4132 1688,-36.4133 1684.5001,-46.4133 1691.5001,-46.4132"/>
</g>
</g>
</svg>
