<?xml version="1.0" encoding="UTF-8" standalone="no"?>
<!DOCTYPE svg PUBLIC "-//W3C//DTD SVG 1.1//EN"
 "http://www.w3.org/Graphics/SVG/1.1/DTD/svg11.dtd">
<!-- Generated by graphviz version 2.40.1 (20161225.0304)
 -->
<!-- Title: %3 Pages: 1 -->
<svg width="837pt" height="548pt"
 viewBox="0.00 0.00 837.48 548.00" xmlns="http://www.w3.org/2000/svg" xmlns:xlink="http://www.w3.org/1999/xlink">
<g id="graph0" class="graph" transform="scale(1 1) rotate(0) translate(4 544)">
<title>%3</title>
<polygon fill="#ffffff" stroke="transparent" points="-4,4 -4,-544 833.4821,-544 833.4821,4 -4,4"/>
<!-- Intro_Testing -->
<g id="node1" class="node">
<title>Intro_Testing</title>
<g id="a_node1"><a xlink:href="Intro_Testing.ipynb" xlink:title="Intro_Testing">
<ellipse fill="none" stroke="#000000" cx="434.7411" cy="-522" rx="129.9769" ry="18"/>
<text text-anchor="middle" x="434.7411" y="-518.3" font-family="Times,serif" font-size="14.00" fill="#000000">Introduction to Software Testing</text>
</a>
</g>
</g>
<!-- Fuzzer -->
<g id="node2" class="node">
<title>Fuzzer</title>
<g id="a_node2"><a xlink:href="Fuzzer.ipynb" xlink:title="Fuzzer">
<ellipse fill="none" stroke="#000000" cx="434.7411" cy="-450" rx="182.7677" ry="18"/>
<text text-anchor="middle" x="434.7411" y="-446.3" font-family="Times,serif" font-size="14.00" fill="#000000">Fuzzing: Breaking Things with Random Inputs</text>
</a>
</g>
</g>
<!-- Intro_Testing&#45;&gt;Fuzzer -->
<g id="edge1" class="edge">
<title>Intro_Testing&#45;&gt;Fuzzer</title>
<path fill="none" stroke="#000000" d="M434.7411,-503.8314C434.7411,-496.131 434.7411,-486.9743 434.7411,-478.4166"/>
<polygon fill="#000000" stroke="#000000" points="438.2412,-478.4132 434.7411,-468.4133 431.2412,-478.4133 438.2412,-478.4132"/>
</g>
<!-- Coverage -->
<g id="node3" class="node">
<title>Coverage</title>
<g id="a_node3"><a xlink:href="Coverage.ipynb" xlink:title="Coverage">
<ellipse fill="none" stroke="#000000" cx="333.7411" cy="-306" rx="75.2868" ry="18"/>
<text text-anchor="middle" x="333.7411" y="-302.3" font-family="Times,serif" font-size="14.00" fill="#000000">Getting Coverage</text>
</a>
</g>
</g>
<!-- Fuzzer&#45;&gt;Coverage -->
<g id="edge2" class="edge">
<title>Fuzzer&#45;&gt;Coverage</title>
<path fill="none" stroke="#000000" d="M421.9493,-431.7623C404.3429,-406.66 372.5291,-361.3017 352.3048,-332.4671"/>
<polygon fill="#000000" stroke="#000000" points="355.0367,-330.2668 346.4289,-324.0896 349.3058,-334.2864 355.0367,-330.2668"/>
</g>
<!-- Grammars -->
<g id="node4" class="node">
<title>Grammars</title>
<g id="a_node4"><a xlink:href="Grammars.ipynb" xlink:title="Grammars">
<ellipse fill="none" stroke="#000000" cx="517.7411" cy="-378" rx="99.3824" ry="18"/>
<text text-anchor="middle" x="517.7411" y="-374.3" font-family="Times,serif" font-size="14.00" fill="#000000">Fuzzing with Grammars</text>
</a>
</g>
</g>
<!-- Fuzzer&#45;&gt;Grammars -->
<g id="edge3" class="edge">
<title>Fuzzer&#45;&gt;Grammars</title>
<path fill="none" stroke="#000000" d="M455.6855,-431.8314C465.9648,-422.9144 478.4951,-412.0447 489.5977,-402.4135"/>
<polygon fill="#000000" stroke="#000000" points="492.1168,-404.8617 497.3772,-395.665 487.5298,-399.574 492.1168,-404.8617"/>
</g>
<!-- MutationFuzzer -->
<g id="node5" class="node">
<title>MutationFuzzer</title>
<g id="a_node5"><a xlink:href="MutationFuzzer.ipynb" xlink:title="MutationFuzzer">
<ellipse fill="none" stroke="#000000" cx="100.7411" cy="-234" rx="100.9827" ry="18"/>
<text text-anchor="middle" x="100.7411" y="-230.3" font-family="Times,serif" font-size="14.00" fill="#000000">Mutation&#45;Based Fuzzing</text>
</a>
</g>
</g>
<!-- Coverage&#45;&gt;MutationFuzzer -->
<g id="edge4" class="edge">
<title>Coverage&#45;&gt;MutationFuzzer</title>
<path fill="none" stroke="#000000" d="M287.4292,-291.689C251.2147,-280.4983 200.574,-264.8497 161.1708,-252.6736"/>
<polygon fill="#000000" stroke="#000000" points="161.9984,-249.2661 151.4108,-249.6576 159.9317,-255.954 161.9984,-249.2661"/>
</g>
<!-- GrammarCoverageFuzzer -->
<g id="node6" class="node">
<title>GrammarCoverageFuzzer</title>
<g id="a_node6"><a xlink:href="GrammarCoverageFuzzer.ipynb" xlink:title="GrammarCoverageFuzzer">
<ellipse fill="none" stroke="#000000" cx="301.7411" cy="-234" rx="82.5854" ry="18"/>
<text text-anchor="middle" x="301.7411" y="-230.3" font-family="Times,serif" font-size="14.00" fill="#000000">Grammar Coverage</text>
</a>
</g>
</g>
<!-- Coverage&#45;&gt;GrammarCoverageFuzzer -->
<g id="edge5" class="edge">
<title>Coverage&#45;&gt;GrammarCoverageFuzzer</title>
<path fill="none" stroke="#000000" d="M325.6661,-287.8314C322.1309,-279.8771 317.9051,-270.369 313.9954,-261.5723"/>
<polygon fill="#000000" stroke="#000000" points="317.1845,-260.1299 309.9247,-252.4133 310.7878,-262.9729 317.1845,-260.1299"/>
</g>
<!-- ProbabilisticGrammarFuzzer -->
<g id="node7" class="node">
<title>ProbabilisticGrammarFuzzer</title>
<g id="a_node7"><a xlink:href="ProbabilisticGrammarFuzzer.ipynb" xlink:title="ProbabilisticGrammarFuzzer">
<ellipse fill="none" stroke="#000000" cx="484.7411" cy="-162" rx="125.3778" ry="18"/>
<text text-anchor="middle" x="484.7411" y="-158.3" font-family="Times,serif" font-size="14.00" fill="#000000">Probabilistic Grammar Fuzzing</text>
</a>
</g>
</g>
<!-- Coverage&#45;&gt;ProbabilisticGrammarFuzzer -->
<g id="edge6" class="edge">
<title>Coverage&#45;&gt;ProbabilisticGrammarFuzzer</title>
<path fill="none" stroke="#000000" d="M353.6811,-288.4765C365.4592,-278.0214 380.5918,-264.4065 393.7411,-252 416.5091,-230.518 441.7758,-205.4248 459.8965,-187.2"/>
<polygon fill="#000000" stroke="#000000" points="462.6392,-189.4049 467.1968,-179.8405 457.6695,-184.4752 462.6392,-189.4049"/>
</g>
<!-- GrammarFuzzer -->
<g id="node8" class="node">
<title>GrammarFuzzer</title>
<g id="a_node8"><a xlink:href="GrammarFuzzer.ipynb" xlink:title="GrammarFuzzer">
<ellipse fill="none" stroke="#000000" cx="553.7411" cy="-306" rx="110.4804" ry="18"/>
<text text-anchor="middle" x="553.7411" y="-302.3" font-family="Times,serif" font-size="14.00" fill="#000000">Efficient Grammar Fuzzing</text>
</a>
</g>
</g>
<!-- Grammars&#45;&gt;GrammarFuzzer -->
<g id="edge7" class="edge">
<title>Grammars&#45;&gt;GrammarFuzzer</title>
<path fill="none" stroke="#000000" d="M526.8254,-359.8314C530.8025,-351.8771 535.5565,-342.369 539.9549,-333.5723"/>
<polygon fill="#000000" stroke="#000000" points="543.1927,-334.9228 544.5344,-324.4133 536.9317,-331.7923 543.1927,-334.9228"/>
</g>
<!-- ConfigurationFuzzer -->
<g id="node11" class="node">
<title>ConfigurationFuzzer</title>
<g id="a_node11"><a xlink:href="ConfigurationFuzzer.ipynb" xlink:title="ConfigurationFuzzer">
<ellipse fill="none" stroke="#000000" cx="209.7411" cy="-162" rx="94.4839" ry="18"/>
<text text-anchor="middle" x="209.7411" y="-158.3" font-family="Times,serif" font-size="14.00" fill="#000000">Testing Configurations</text>
</a>
</g>
</g>
<!-- GrammarCoverageFuzzer&#45;&gt;ConfigurationFuzzer -->
<g id="edge11" class="edge">
<title>GrammarCoverageFuzzer&#45;&gt;ConfigurationFuzzer</title>
<path fill="none" stroke="#000000" d="M279.4704,-216.5708C267.6921,-207.353 253.0555,-195.8983 240.2377,-185.8669"/>
<polygon fill="#000000" stroke="#000000" points="242.1576,-182.9251 232.1255,-179.5182 237.8435,-188.4376 242.1576,-182.9251"/>
</g>
<!-- Carver -->
<g id="node12" class="node">
<title>Carver</title>
<g id="a_node12"><a xlink:href="Carver.ipynb" xlink:title="Carver">
<ellipse fill="none" stroke="#000000" cx="407.7411" cy="-18" rx="79.8859" ry="18"/>
<text text-anchor="middle" x="407.7411" y="-14.3" font-family="Times,serif" font-size="14.00" fill="#000000">Carving Unit Tests</text>
</a>
</g>
</g>
<!-- GrammarCoverageFuzzer&#45;&gt;Carver -->
<g id="edge12" class="edge">
<title>GrammarCoverageFuzzer&#45;&gt;Carver</title>
<path fill="none" stroke="#000000" d="M310.5962,-215.9555C329.1852,-178.0762 372.3676,-90.0818 394.3566,-45.274"/>
<polygon fill="#000000" stroke="#000000" points="397.573,-46.6643 398.8365,-36.1451 391.2889,-43.5804 397.573,-46.6643"/>
</g>
<!-- APIFuzzer -->
<g id="node13" class="node">
<title>APIFuzzer</title>
<g id="a_node13"><a xlink:href="APIFuzzer.ipynb" xlink:title="APIFuzzer">
<ellipse fill="none" stroke="#000000" cx="484.7411" cy="-90" rx="60.3893" ry="18"/>
<text text-anchor="middle" x="484.7411" y="-86.3" font-family="Times,serif" font-size="14.00" fill="#000000">Fuzzing APIs</text>
</a>
</g>
</g>
<!-- ProbabilisticGrammarFuzzer&#45;&gt;APIFuzzer -->
<g id="edge14" class="edge">
<title>ProbabilisticGrammarFuzzer&#45;&gt;APIFuzzer</title>
<path fill="none" stroke="#000000" d="M484.7411,-143.8314C484.7411,-136.131 484.7411,-126.9743 484.7411,-118.4166"/>
<polygon fill="#000000" stroke="#000000" points="488.2412,-118.4132 484.7411,-108.4133 481.2412,-118.4133 488.2412,-118.4132"/>
</g>
<!-- GrammarFuzzer&#45;&gt;GrammarCoverageFuzzer -->
<g id="edge8" class="edge">
<title>GrammarFuzzer&#45;&gt;GrammarCoverageFuzzer</title>
<path fill="none" stroke="#000000" d="M498.75,-290.2883C458.2601,-278.7197 403.2448,-263.0011 361.6413,-251.1144"/>
<polygon fill="#000000" stroke="#000000" points="362.4852,-247.7155 351.9084,-248.3335 360.5621,-254.4461 362.4852,-247.7155"/>
</g>
<!-- Parser -->
<g id="node9" class="node">
<title>Parser</title>
<g id="a_node9"><a xlink:href="Parser.ipynb" xlink:title="Parser">
<ellipse fill="none" stroke="#000000" cx="570.7411" cy="-234" rx="129.9769" ry="18"/>
<text text-anchor="middle" x="570.7411" y="-230.3" font-family="Times,serif" font-size="14.00" fill="#000000">Parsing and Recombining Inputs</text>
</a>
</g>
</g>
<!-- GrammarFuzzer&#45;&gt;Parser -->
<g id="edge9" class="edge">
<title>GrammarFuzzer&#45;&gt;Parser</title>
<path fill="none" stroke="#000000" d="M558.0309,-287.8314C559.849,-280.131 562.011,-270.9743 564.0316,-262.4166"/>
<polygon fill="#000000" stroke="#000000" points="567.5018,-262.95 566.3935,-252.4133 560.6891,-261.3414 567.5018,-262.95"/>
</g>
<!-- GeneratorGrammarFuzzer -->
<g id="node10" class="node">
<title>GeneratorGrammarFuzzer</title>
<g id="a_node10"><a xlink:href="GeneratorGrammarFuzzer.ipynb" xlink:title="GeneratorGrammarFuzzer">
<ellipse fill="none" stroke="#000000" cx="728.7411" cy="-162" rx="100.9827" ry="18"/>
<text text-anchor="middle" x="728.7411" y="-158.3" font-family="Times,serif" font-size="14.00" fill="#000000">Fuzzing with Generators</text>
</a>
</g>
</g>
<!-- GrammarFuzzer&#45;&gt;GeneratorGrammarFuzzer -->
<g id="edge10" class="edge">
<title>GrammarFuzzer&#45;&gt;GeneratorGrammarFuzzer</title>
<path fill="none" stroke="#000000" d="M616.3561,-291.0495C653.9452,-280.8371 696.8968,-266.562 709.7411,-252 724.5367,-235.2257 728.8298,-209.8659 729.6838,-190.3365"/>
<polygon fill="#000000" stroke="#000000" points="733.1858,-190.2338 729.8492,-180.1781 726.1868,-190.1198 733.1858,-190.2338"/>
</g>
<!-- Parser&#45;&gt;ProbabilisticGrammarFuzzer -->
<g id="edge13" class="edge">
<title>Parser&#45;&gt;ProbabilisticGrammarFuzzer</title>
<path fill="none" stroke="#000000" d="M549.4826,-216.2022C538.7325,-207.2021 525.5221,-196.1423 513.844,-186.3652"/>
<polygon fill="#000000" stroke="#000000" points="515.9674,-183.5783 506.053,-179.8425 511.4738,-188.9456 515.9674,-183.5783"/>
</g>
<!-- GeneratorGrammarFuzzer&#45;&gt;APIFuzzer -->
<g id="edge15" class="edge">
<title>GeneratorGrammarFuzzer&#45;&gt;APIFuzzer</title>
<path fill="none" stroke="#000000" d="M676.3969,-146.5542C635.5181,-134.4916 578.9482,-117.7988 537.8702,-105.6775"/>
<polygon fill="#000000" stroke="#000000" points="538.6245,-102.2509 528.0427,-102.7775 536.6433,-108.9647 538.6245,-102.2509"/>
</g>
<!-- APIFuzzer&#45;&gt;Carver -->
<g id="edge16" class="edge">
<title>APIFuzzer&#45;&gt;Carver</title>
<path fill="none" stroke="#000000" d="M466.1015,-72.5708C456.4313,-63.5286 444.4592,-52.3338 433.8801,-42.4417"/>
<polygon fill="#000000" stroke="#000000" points="436.1706,-39.7917 426.4758,-35.5182 431.3896,-44.9047 436.1706,-39.7917"/>
</g>
</g>
</svg>
