<?xml version="1.0" encoding="UTF-8" standalone="no"?>
<!DOCTYPE svg PUBLIC "-//W3C//DTD SVG 1.1//EN"
 "http://www.w3.org/Graphics/SVG/1.1/DTD/svg11.dtd">
<!-- Generated by graphviz version 2.40.1 (20161225.0304)
 -->
<!-- Title: %3 Pages: 1 -->
<svg width="1315pt" height="548pt"
 viewBox="0.00 0.00 1314.50 548.00" xmlns="http://www.w3.org/2000/svg" xmlns:xlink="http://www.w3.org/1999/xlink">
<g id="graph0" class="graph" transform="scale(1 1) rotate(0) translate(4 544)">
<title>%3</title>
<polygon fill="#ffffff" stroke="transparent" points="-4,4 -4,-544 1310.5,-544 1310.5,4 -4,4"/>
<!-- Fuzzer -->
<g id="node1" class="node">
<title>Fuzzer</title>
<g id="a_node1"><a xlink:href="Fuzzer.ipynb" xlink:title="Fuzzer">
<polygon fill="#ffffff" stroke="#000000" points="743.5,-468 445.5,-468 445.5,-432 749.5,-432 749.5,-462 743.5,-468"/>
<polyline fill="none" stroke="#000000" points="743.5,-468 743.5,-462 "/>
<polyline fill="none" stroke="#000000" points="749.5,-462 743.5,-462 "/>
<text text-anchor="middle" x="597.5" y="-446.3" font-family="Patua One" font-size="14.00" fill="#b03a2e">Fuzzing: Breaking Things with Random Inputs</text>
</a>
</g>
</g>
<!-- Coverage -->
<g id="node2" class="node">
<title>Coverage</title>
<g id="a_node2"><a xlink:href="Coverage.ipynb" xlink:title="Coverage">
<polygon fill="#ffffff" stroke="#000000" points="568,-324 451,-324 451,-288 574,-288 574,-318 568,-324"/>
<polyline fill="none" stroke="#000000" points="568,-324 568,-318 "/>
<polyline fill="none" stroke="#000000" points="574,-318 568,-318 "/>
<text text-anchor="middle" x="512.5" y="-302.3" font-family="Patua One" font-size="14.00" fill="#b03a2e">Getting Coverage</text>
</a>
</g>
</g>
<!-- Fuzzer&#45;&gt;Coverage -->
<g id="edge1" class="edge">
<title>Fuzzer&#45;&gt;Coverage</title>
<path fill="none" stroke="#000000" d="M586.7347,-431.7623C571.9813,-406.7682 545.374,-361.6924 528.3436,-332.8409"/>
<polygon fill="#000000" stroke="#000000" points="531.2753,-330.9221 523.1779,-324.0896 525.2471,-334.4804 531.2753,-330.9221"/>
</g>
<!-- Grammars -->
<g id="node3" class="node">
<title>Grammars</title>
<g id="a_node3"><a xlink:href="Grammars.ipynb" xlink:title="Grammars">
<polygon fill="#ffffff" stroke="#000000" points="745,-396 586,-396 586,-360 751,-360 751,-390 745,-396"/>
<polyline fill="none" stroke="#000000" points="745,-396 745,-390 "/>
<polyline fill="none" stroke="#000000" points="751,-390 745,-390 "/>
<text text-anchor="middle" x="668.5" y="-374.3" font-family="Patua One" font-size="14.00" fill="#b03a2e">Fuzzing with Grammars</text>
</a>
</g>
</g>
<!-- Fuzzer&#45;&gt;Grammars -->
<g id="edge2" class="edge">
<title>Fuzzer&#45;&gt;Grammars</title>
<path fill="none" stroke="#000000" d="M615.4163,-431.8314C623.8442,-423.2848 634.041,-412.9443 643.236,-403.6198"/>
<polygon fill="#000000" stroke="#000000" points="645.8131,-405.9912 650.3425,-396.4133 640.8289,-401.0761 645.8131,-405.9912"/>
</g>
<!-- MutationFuzzer -->
<g id="node5" class="node">
<title>MutationFuzzer</title>
<g id="a_node5"><a xlink:href="MutationFuzzer.ipynb" xlink:title="MutationFuzzer">
<polygon fill="#ffffff" stroke="#000000" points="163,-252 0,-252 0,-216 169,-216 169,-246 163,-252"/>
<polyline fill="none" stroke="#000000" points="163,-252 163,-246 "/>
<polyline fill="none" stroke="#000000" points="169,-246 163,-246 "/>
<text text-anchor="middle" x="84.5" y="-230.3" font-family="Patua One" font-size="14.00" fill="#b03a2e">Mutation&#45;Based Fuzzing</text>
</a>
</g>
</g>
<!-- Coverage&#45;&gt;MutationFuzzer -->
<g id="edge4" class="edge">
<title>Coverage&#45;&gt;MutationFuzzer</title>
<path fill="none" stroke="#000000" d="M450.9662,-296.6734C385.8637,-286.6723 279.878,-270.0116 179.1678,-252.2716"/>
<polygon fill="#000000" stroke="#000000" points="179.5829,-248.7908 169.1262,-250.496 178.364,-255.6839 179.5829,-248.7908"/>
</g>
<!-- GrammarCoverageFuzzer -->
<g id="node6" class="node">
<title>GrammarCoverageFuzzer</title>
<g id="a_node6"><a xlink:href="GrammarCoverageFuzzer.ipynb" xlink:title="GrammarCoverageFuzzer">
<polygon fill="#ffffff" stroke="#000000" points="316,-252 187,-252 187,-216 322,-216 322,-246 316,-252"/>
<polyline fill="none" stroke="#000000" points="316,-252 316,-246 "/>
<polyline fill="none" stroke="#000000" points="322,-246 316,-246 "/>
<text text-anchor="middle" x="254.5" y="-230.3" font-family="Patua One" font-size="14.00" fill="#b03a2e">Grammar Coverage</text>
</a>
</g>
</g>
<!-- Coverage&#45;&gt;GrammarCoverageFuzzer -->
<g id="edge5" class="edge">
<title>Coverage&#45;&gt;GrammarCoverageFuzzer</title>
<path fill="none" stroke="#000000" d="M450.7026,-288.7542C414.3012,-278.5957 367.9949,-265.673 329.5105,-254.9332"/>
<polygon fill="#000000" stroke="#000000" points="329.9663,-251.4267 319.3935,-252.1098 328.0846,-258.1691 329.9663,-251.4267"/>
</g>
<!-- ProbabilisticGrammarFuzzer -->
<g id="node7" class="node">
<title>ProbabilisticGrammarFuzzer</title>
<g id="a_node7"><a xlink:href="ProbabilisticGrammarFuzzer.ipynb" xlink:title="ProbabilisticGrammarFuzzer">
<polygon fill="#ffffff" stroke="#000000" points="690.5,-180 488.5,-180 488.5,-144 696.5,-144 696.5,-174 690.5,-180"/>
<polyline fill="none" stroke="#000000" points="690.5,-180 690.5,-174 "/>
<polyline fill="none" stroke="#000000" points="696.5,-174 690.5,-174 "/>
<text text-anchor="middle" x="592.5" y="-158.3" font-family="Patua One" font-size="14.00" fill="#b03a2e">Probabilistic Grammar Fuzzing</text>
</a>
</g>
</g>
<!-- Coverage&#45;&gt;ProbabilisticGrammarFuzzer -->
<g id="edge6" class="edge">
<title>Coverage&#45;&gt;ProbabilisticGrammarFuzzer</title>
<path fill="none" stroke="#000000" d="M522.3274,-287.6621C532.1359,-269.4282 547.6945,-240.6895 561.5,-216 566.3818,-207.2695 571.7845,-197.7954 576.6939,-189.2559"/>
<polygon fill="#000000" stroke="#000000" points="579.8165,-190.8472 581.7794,-180.4357 573.7523,-187.3506 579.8165,-190.8472"/>
</g>
<!-- GrammarMiner -->
<g id="node8" class="node">
<title>GrammarMiner</title>
<g id="a_node8"><a xlink:href="GrammarMiner.ipynb" xlink:title="GrammarMiner">
<polygon fill="#ffffff" stroke="#000000" points="732,-252 571,-252 571,-216 738,-216 738,-246 732,-252"/>
<polyline fill="none" stroke="#000000" points="732,-252 732,-246 "/>
<polyline fill="none" stroke="#000000" points="738,-246 732,-246 "/>
<text text-anchor="middle" x="654.5" y="-230.3" font-family="Patua One" font-size="14.00" fill="#b03a2e">Mining Input Grammars</text>
</a>
</g>
</g>
<!-- Coverage&#45;&gt;GrammarMiner -->
<g id="edge7" class="edge">
<title>Coverage&#45;&gt;GrammarMiner</title>
<path fill="none" stroke="#000000" d="M548.3326,-287.8314C566.9157,-278.4089 589.7989,-266.8062 609.5565,-256.7883"/>
<polygon fill="#000000" stroke="#000000" points="611.3427,-259.8069 618.6789,-252.1628 608.177,-253.5635 611.3427,-259.8069"/>
</g>
<!-- GrammarFuzzer -->
<g id="node9" class="node">
<title>GrammarFuzzer</title>
<g id="a_node9"><a xlink:href="GrammarFuzzer.ipynb" xlink:title="GrammarFuzzer">
<polygon fill="#ffffff" stroke="#000000" points="769,-324 592,-324 592,-288 775,-288 775,-318 769,-324"/>
<polyline fill="none" stroke="#000000" points="769,-324 769,-318 "/>
<polyline fill="none" stroke="#000000" points="775,-318 769,-318 "/>
<text text-anchor="middle" x="683.5" y="-302.3" font-family="Patua One" font-size="14.00" fill="#b03a2e">Efficient Grammar Fuzzing</text>
</a>
</g>
</g>
<!-- Grammars&#45;&gt;GrammarFuzzer -->
<g id="edge8" class="edge">
<title>Grammars&#45;&gt;GrammarFuzzer</title>
<path fill="none" stroke="#000000" d="M672.2851,-359.8314C673.8894,-352.131 675.797,-342.9743 677.5799,-334.4166"/>
<polygon fill="#000000" stroke="#000000" points="681.0507,-334.9169 679.6639,-324.4133 674.1979,-333.4892 681.0507,-334.9169"/>
</g>
<!-- Intro_Testing -->
<g id="node4" class="node">
<title>Intro_Testing</title>
<g id="a_node4"><a xlink:href="Intro_Testing.ipynb" xlink:title="Intro_Testing">
<polygon fill="#ffffff" stroke="#000000" points="701,-540 488,-540 488,-504 707,-504 707,-534 701,-540"/>
<polyline fill="none" stroke="#000000" points="701,-540 701,-534 "/>
<polyline fill="none" stroke="#000000" points="707,-534 701,-534 "/>
<text text-anchor="middle" x="597.5" y="-518.3" font-family="Patua One" font-size="14.00" fill="#b03a2e">Introduction to Software Testing</text>
</a>
</g>
</g>
<!-- Intro_Testing&#45;&gt;Fuzzer -->
<g id="edge3" class="edge">
<title>Intro_Testing&#45;&gt;Fuzzer</title>
<path fill="none" stroke="#000000" d="M597.5,-503.8314C597.5,-496.131 597.5,-486.9743 597.5,-478.4166"/>
<polygon fill="#000000" stroke="#000000" points="601.0001,-478.4132 597.5,-468.4133 594.0001,-478.4133 601.0001,-478.4132"/>
</g>
<!-- ConfigurationFuzzer -->
<g id="node14" class="node">
<title>ConfigurationFuzzer</title>
<g id="a_node14"><a xlink:href="ConfigurationFuzzer.ipynb" xlink:title="ConfigurationFuzzer">
<polygon fill="#ffffff" stroke="#000000" points="188,-180 35,-180 35,-144 194,-144 194,-174 188,-180"/>
<polyline fill="none" stroke="#000000" points="188,-180 188,-174 "/>
<polyline fill="none" stroke="#000000" points="194,-174 188,-174 "/>
<text text-anchor="middle" x="114.5" y="-158.3" font-family="Patua One" font-size="14.00" fill="#b03a2e">Testing Configurations</text>
</a>
</g>
</g>
<!-- GrammarCoverageFuzzer&#45;&gt;ConfigurationFuzzer -->
<g id="edge15" class="edge">
<title>GrammarCoverageFuzzer&#45;&gt;ConfigurationFuzzer</title>
<path fill="none" stroke="#000000" d="M219.1721,-215.8314C200.8507,-206.4089 178.2898,-194.8062 158.8105,-184.7883"/>
<polygon fill="#000000" stroke="#000000" points="160.3102,-181.6239 149.8166,-180.1628 157.1088,-187.8489 160.3102,-181.6239"/>
</g>
<!-- Carver -->
<g id="node15" class="node">
<title>Carver</title>
<g id="a_node15"><a xlink:href="Carver.ipynb" xlink:title="Carver">
<polygon fill="#ffffff" stroke="#000000" points="467,-36 342,-36 342,0 473,0 473,-30 467,-36"/>
<polyline fill="none" stroke="#000000" points="467,-36 467,-30 "/>
<polyline fill="none" stroke="#000000" points="473,-30 467,-30 "/>
<text text-anchor="middle" x="407.5" y="-14.3" font-family="Patua One" font-size="14.00" fill="#b03a2e">Carving Unit Tests</text>
</a>
</g>
</g>
<!-- GrammarCoverageFuzzer&#45;&gt;Carver -->
<g id="edge16" class="edge">
<title>GrammarCoverageFuzzer&#45;&gt;Carver</title>
<path fill="none" stroke="#000000" d="M245.9293,-215.7738C238.3548,-196.8637 230.1283,-166.908 241.5,-144 265.2551,-96.1459 316.835,-61.576 356.2372,-40.8869"/>
<polygon fill="#000000" stroke="#000000" points="358.1435,-43.8434 365.4583,-36.1789 354.9604,-37.609 358.1435,-43.8434"/>
</g>
<!-- GUIFuzzer -->
<g id="node16" class="node">
<title>GUIFuzzer</title>
<g id="a_node16"><a xlink:href="GUIFuzzer.ipynb" xlink:title="GUIFuzzer">
<polygon fill="#ffffff" stroke="#000000" points="464.5,-180 250.5,-180 250.5,-144 470.5,-144 470.5,-174 464.5,-180"/>
<polyline fill="none" stroke="#000000" points="464.5,-180 464.5,-174 "/>
<polyline fill="none" stroke="#000000" points="470.5,-174 464.5,-174 "/>
<text text-anchor="middle" x="360.5" y="-158.3" font-family="Patua One" font-size="14.00" fill="#b03a2e">Testing Graphical User Interfaces</text>
</a>
</g>
</g>
<!-- GrammarCoverageFuzzer&#45;&gt;GUIFuzzer -->
<g id="edge17" class="edge">
<title>GrammarCoverageFuzzer&#45;&gt;GUIFuzzer</title>
<path fill="none" stroke="#000000" d="M281.2483,-215.8314C294.5553,-206.7927 310.816,-195.7476 325.1375,-186.0198"/>
<polygon fill="#000000" stroke="#000000" points="327.4547,-188.677 333.7603,-180.1628 323.5215,-182.8864 327.4547,-188.677"/>
</g>
<!-- APIFuzzer -->
<g id="node19" class="node">
<title>APIFuzzer</title>
<g id="a_node19"><a xlink:href="APIFuzzer.ipynb" xlink:title="APIFuzzer">
<polygon fill="#ffffff" stroke="#000000" points="635,-108 544,-108 544,-72 641,-72 641,-102 635,-108"/>
<polyline fill="none" stroke="#000000" points="635,-108 635,-102 "/>
<polyline fill="none" stroke="#000000" points="641,-102 635,-102 "/>
<text text-anchor="middle" x="592.5" y="-86.3" font-family="Patua One" font-size="14.00" fill="#b03a2e">Fuzzing APIs</text>
</a>
</g>
</g>
<!-- ProbabilisticGrammarFuzzer&#45;&gt;APIFuzzer -->
<g id="edge21" class="edge">
<title>ProbabilisticGrammarFuzzer&#45;&gt;APIFuzzer</title>
<path fill="none" stroke="#000000" d="M592.5,-143.8314C592.5,-136.131 592.5,-126.9743 592.5,-118.4166"/>
<polygon fill="#000000" stroke="#000000" points="596.0001,-118.4132 592.5,-108.4133 589.0001,-118.4133 596.0001,-118.4132"/>
</g>
<!-- InformationFlow -->
<g id="node18" class="node">
<title>InformationFlow</title>
<g id="a_node18"><a xlink:href="InformationFlow.ipynb" xlink:title="InformationFlow">
<polygon fill="#ffffff" stroke="#000000" points="1078,-180 901,-180 901,-144 1084,-144 1084,-174 1078,-180"/>
<polyline fill="none" stroke="#000000" points="1078,-180 1078,-174 "/>
<polyline fill="none" stroke="#000000" points="1084,-174 1078,-174 "/>
<text text-anchor="middle" x="992.5" y="-158.3" font-family="Patua One" font-size="14.00" fill="#b03a2e">Tracking Information Flow</text>
</a>
</g>
</g>
<!-- GrammarMiner&#45;&gt;InformationFlow -->
<g id="edge23" class="edge">
<title>GrammarMiner&#45;&gt;InformationFlow</title>
<path fill="none" stroke="#000000" d="M738.0506,-216.2022C786.5263,-205.8761 847.7307,-192.8384 897.964,-182.1378"/>
<polygon fill="#000000" stroke="#000000" points="898.8061,-185.5371 907.8574,-180.0304 897.3476,-178.6907 898.8061,-185.5371"/>
</g>
<!-- GrammarFuzzer&#45;&gt;GrammarCoverageFuzzer -->
<g id="edge9" class="edge">
<title>GrammarFuzzer&#45;&gt;GrammarCoverageFuzzer</title>
<path fill="none" stroke="#000000" d="M591.8645,-289.5292C588.706,-289.006 585.5774,-288.4948 582.5,-288 474.3829,-270.6175 443.9597,-272.708 332.0337,-252.0078"/>
<polygon fill="#000000" stroke="#000000" points="332.5084,-248.536 322.0355,-250.1387 331.222,-255.4168 332.5084,-248.536"/>
</g>
<!-- GrammarFuzzer&#45;&gt;GrammarMiner -->
<g id="edge13" class="edge">
<title>GrammarFuzzer&#45;&gt;GrammarMiner</title>
<path fill="none" stroke="#000000" d="M676.1821,-287.8314C673.0124,-279.9617 669.23,-270.5712 665.7187,-261.8533"/>
<polygon fill="#000000" stroke="#000000" points="668.8992,-260.3815 661.9165,-252.4133 662.4061,-262.9968 668.8992,-260.3815"/>
</g>
<!-- Parser -->
<g id="node10" class="node">
<title>Parser</title>
<g id="a_node10"><a xlink:href="Parser.ipynb" xlink:title="Parser">
<polygon fill="#ffffff" stroke="#000000" points="1139,-252 1038,-252 1038,-216 1145,-216 1145,-246 1139,-252"/>
<polyline fill="none" stroke="#000000" points="1139,-252 1139,-246 "/>
<polyline fill="none" stroke="#000000" points="1145,-246 1139,-246 "/>
<text text-anchor="middle" x="1091.5" y="-230.3" font-family="Patua One" font-size="14.00" fill="#b03a2e">Parsing Inputs</text>
</a>
</g>
</g>
<!-- GrammarFuzzer&#45;&gt;Parser -->
<g id="edge10" class="edge">
<title>GrammarFuzzer&#45;&gt;Parser</title>
<path fill="none" stroke="#000000" d="M775.1576,-294.9424C842.7802,-286.0298 937.127,-272.0209 1027.9297,-252.2211"/>
<polygon fill="#000000" stroke="#000000" points="1028.8294,-255.6068 1037.8399,-250.0336 1027.3205,-248.7714 1028.8294,-255.6068"/>
</g>
<!-- GeneratorGrammarFuzzer -->
<g id="node11" class="node">
<title>GeneratorGrammarFuzzer</title>
<g id="a_node11"><a xlink:href="GeneratorGrammarFuzzer.ipynb" xlink:title="GeneratorGrammarFuzzer">
<polygon fill="#ffffff" stroke="#000000" points="876.5,-180 714.5,-180 714.5,-144 882.5,-144 882.5,-174 876.5,-180"/>
<polyline fill="none" stroke="#000000" points="876.5,-180 876.5,-174 "/>
<polyline fill="none" stroke="#000000" points="882.5,-174 876.5,-174 "/>
<text text-anchor="middle" x="798.5" y="-158.3" font-family="Patua One" font-size="14.00" fill="#b03a2e">Fuzzing with Generators</text>
</a>
</g>
</g>
<!-- GrammarFuzzer&#45;&gt;GeneratorGrammarFuzzer -->
<g id="edge11" class="edge">
<title>GrammarFuzzer&#45;&gt;GeneratorGrammarFuzzer</title>
<path fill="none" stroke="#000000" d="M709.0628,-287.838C721.5996,-278.1284 736.3585,-265.4241 747.5,-252 763.4206,-232.8177 777.07,-207.9781 786.2308,-189.2553"/>
<polygon fill="#000000" stroke="#000000" points="789.4586,-190.6176 790.6003,-180.0845 783.1392,-187.6067 789.4586,-190.6176"/>
</g>
<!-- Reducer -->
<g id="node12" class="node">
<title>Reducer</title>
<g id="a_node12"><a xlink:href="Reducer.ipynb" xlink:title="Reducer">
<polygon fill="#ffffff" stroke="#000000" points="1014,-252 795,-252 795,-216 1020,-216 1020,-246 1014,-252"/>
<polyline fill="none" stroke="#000000" points="1014,-252 1014,-246 "/>
<polyline fill="none" stroke="#000000" points="1020,-246 1014,-246 "/>
<text text-anchor="middle" x="907.5" y="-230.3" font-family="Patua One" font-size="14.00" fill="#b03a2e">Reducing Failure&#45;Inducing Inputs</text>
</a>
</g>
</g>
<!-- GrammarFuzzer&#45;&gt;Reducer -->
<g id="edge12" class="edge">
<title>GrammarFuzzer&#45;&gt;Reducer</title>
<path fill="none" stroke="#000000" d="M739.7355,-287.9243C770.6239,-277.9959 809.1096,-265.6255 841.4256,-255.2382"/>
<polygon fill="#000000" stroke="#000000" points="842.7921,-258.4754 851.2413,-252.0831 840.65,-251.8112 842.7921,-258.4754"/>
</g>
<!-- WebFuzzer -->
<g id="node13" class="node">
<title>WebFuzzer</title>
<g id="a_node13"><a xlink:href="WebFuzzer.ipynb" xlink:title="WebFuzzer">
<polygon fill="#ffffff" stroke="#000000" points="508.5,-252 340.5,-252 340.5,-216 514.5,-216 514.5,-246 508.5,-252"/>
<polyline fill="none" stroke="#000000" points="508.5,-252 508.5,-246 "/>
<polyline fill="none" stroke="#000000" points="514.5,-246 508.5,-246 "/>
<text text-anchor="middle" x="427.5" y="-230.3" font-family="Patua One" font-size="14.00" fill="#b03a2e">Testing Web Applications</text>
</a>
</g>
</g>
<!-- GrammarFuzzer&#45;&gt;WebFuzzer -->
<g id="edge14" class="edge">
<title>GrammarFuzzer&#45;&gt;WebFuzzer</title>
<path fill="none" stroke="#000000" d="M619.2308,-287.9243C583.4733,-277.8675 538.8073,-265.3052 501.5845,-254.8363"/>
<polygon fill="#000000" stroke="#000000" points="502.3698,-251.4214 491.7956,-252.0831 500.4745,-258.1599 502.3698,-251.4214"/>
</g>
<!-- Parser&#45;&gt;ProbabilisticGrammarFuzzer -->
<g id="edge19" class="edge">
<title>Parser&#45;&gt;ProbabilisticGrammarFuzzer</title>
<path fill="none" stroke="#000000" d="M1037.8711,-217.8185C1035.0507,-217.1595 1032.2481,-216.5474 1029.5,-216 890.5966,-188.3334 850.8552,-198.8958 706.6393,-180.1036"/>
<polygon fill="#000000" stroke="#000000" points="706.9042,-176.6082 696.5304,-178.761 705.9825,-183.5472 706.9042,-176.6082"/>
</g>
<!-- LangFuzzer -->
<g id="node17" class="node">
<title>LangFuzzer</title>
<g id="a_node17"><a xlink:href="LangFuzzer.ipynb" xlink:title="LangFuzzer">
<polygon fill="#ffffff" stroke="#000000" points="1300.5,-180 1102.5,-180 1102.5,-144 1306.5,-144 1306.5,-174 1300.5,-180"/>
<polyline fill="none" stroke="#000000" points="1300.5,-180 1300.5,-174 "/>
<polyline fill="none" stroke="#000000" points="1306.5,-174 1300.5,-174 "/>
<text text-anchor="middle" x="1204.5" y="-158.3" font-family="Patua One" font-size="14.00" fill="#b03a2e">Fuzzing with Input Fragments</text>
</a>
</g>
</g>
<!-- Parser&#45;&gt;LangFuzzer -->
<g id="edge18" class="edge">
<title>Parser&#45;&gt;LangFuzzer</title>
<path fill="none" stroke="#000000" d="M1120.0147,-215.8314C1134.3342,-206.7074 1151.8624,-195.539 1167.2338,-185.7449"/>
<polygon fill="#000000" stroke="#000000" points="1169.4417,-188.4882 1175.9945,-180.1628 1165.6801,-182.5847 1169.4417,-188.4882"/>
</g>
<!-- Parser&#45;&gt;InformationFlow -->
<g id="edge20" class="edge">
<title>Parser&#45;&gt;InformationFlow</title>
<path fill="none" stroke="#000000" d="M1066.5181,-215.8314C1054.2072,-206.8779 1039.1893,-195.9558 1025.9063,-186.2955"/>
<polygon fill="#000000" stroke="#000000" points="1027.6199,-183.214 1017.4739,-180.1628 1023.5027,-188.8752 1027.6199,-183.214"/>
</g>
<!-- GeneratorGrammarFuzzer&#45;&gt;APIFuzzer -->
<g id="edge22" class="edge">
<title>GeneratorGrammarFuzzer&#45;&gt;APIFuzzer</title>
<path fill="none" stroke="#000000" d="M746.7834,-143.9243C717.5317,-133.7004 680.8711,-120.887 650.6267,-110.3161"/>
<polygon fill="#000000" stroke="#000000" points="651.645,-106.9645 641.0501,-106.969 649.3353,-113.5725 651.645,-106.9645"/>
</g>
<!-- WebFuzzer&#45;&gt;GUIFuzzer -->
<g id="edge27" class="edge">
<title>WebFuzzer&#45;&gt;GUIFuzzer</title>
<path fill="none" stroke="#000000" d="M410.5931,-215.8314C402.7187,-207.3694 393.208,-197.1489 384.5987,-187.8971"/>
<polygon fill="#000000" stroke="#000000" points="387.0092,-185.3497 377.6346,-180.4133 381.8847,-190.1183 387.0092,-185.3497"/>
</g>
<!-- ConcolicFuzzer -->
<g id="node20" class="node">
<title>ConcolicFuzzer</title>
<g id="a_node20"><a xlink:href="ConcolicFuzzer.ipynb" xlink:title="ConcolicFuzzer">
<polygon fill="#ffffff" stroke="#000000" points="1046.5,-108 932.5,-108 932.5,-72 1052.5,-72 1052.5,-102 1046.5,-108"/>
<polyline fill="none" stroke="#000000" points="1046.5,-108 1046.5,-102 "/>
<polyline fill="none" stroke="#000000" points="1052.5,-102 1046.5,-102 "/>
<text text-anchor="middle" x="992.5" y="-86.3" font-family="Patua One" font-size="14.00" fill="#b03a2e">Concolic Fuzzing</text>
</a>
</g>
</g>
<!-- InformationFlow&#45;&gt;ConcolicFuzzer -->
<g id="edge24" class="edge">
<title>InformationFlow&#45;&gt;ConcolicFuzzer</title>
<path fill="none" stroke="#000000" d="M992.5,-143.8314C992.5,-136.131 992.5,-126.9743 992.5,-118.4166"/>
<polygon fill="#000000" stroke="#000000" points="996.0001,-118.4132 992.5,-108.4133 989.0001,-118.4133 996.0001,-118.4132"/>
</g>
<!-- APIFuzzer&#45;&gt;Carver -->
<g id="edge26" class="edge">
<title>APIFuzzer&#45;&gt;Carver</title>
<path fill="none" stroke="#000000" d="M545.8167,-71.8314C520.7441,-62.0734 489.6633,-49.977 463.3191,-39.7242"/>
<polygon fill="#000000" stroke="#000000" points="464.4362,-36.4033 453.8476,-36.038 461.8973,-42.9266 464.4362,-36.4033"/>
</g>
<!-- SymbolicFuzzer -->
<g id="node21" class="node">
<title>SymbolicFuzzer</title>
<g id="a_node21"><a xlink:href="SymbolicFuzzer.ipynb" xlink:title="SymbolicFuzzer">
<polygon fill="#ffffff" stroke="#000000" points="1049.5,-36 929.5,-36 929.5,0 1055.5,0 1055.5,-30 1049.5,-36"/>
<polyline fill="none" stroke="#000000" points="1049.5,-36 1049.5,-30 "/>
<polyline fill="none" stroke="#000000" points="1055.5,-30 1049.5,-30 "/>
<text text-anchor="middle" x="992.5" y="-14.3" font-family="Patua One" font-size="14.00" fill="#b03a2e">Symbolic Fuzzing</text>
</a>
</g>
</g>
<!-- ConcolicFuzzer&#45;&gt;SymbolicFuzzer -->
<g id="edge25" class="edge">
<title>ConcolicFuzzer&#45;&gt;SymbolicFuzzer</title>
<path fill="none" stroke="#000000" d="M992.5,-71.8314C992.5,-64.131 992.5,-54.9743 992.5,-46.4166"/>
<polygon fill="#000000" stroke="#000000" points="996.0001,-46.4132 992.5,-36.4133 989.0001,-46.4133 996.0001,-46.4132"/>
</g>
</g>
</svg>
