<?xml version="1.0" encoding="UTF-8" standalone="no"?>
<!DOCTYPE svg PUBLIC "-//W3C//DTD SVG 1.1//EN"
 "http://www.w3.org/Graphics/SVG/1.1/DTD/svg11.dtd">
<!-- Generated by graphviz version 2.40.1 (20161225.0304)
 -->
<!-- Title: %3 Pages: 1 -->
<svg width="1280pt" height="548pt"
 viewBox="0.00 0.00 1279.50 548.00" xmlns="http://www.w3.org/2000/svg" xmlns:xlink="http://www.w3.org/1999/xlink">
<g id="graph0" class="graph" transform="scale(1 1) rotate(0) translate(4 544)">
<title>%3</title>
<polygon fill="#ffffff" stroke="transparent" points="-4,4 -4,-544 1275.5,-544 1275.5,4 -4,4"/>
<!-- Fuzzer -->
<g id="node1" class="node">
<title>Fuzzer</title>
<g id="a_node1"><a xlink:href="Fuzzer.ipynb" xlink:title="Fuzzer">
<polygon fill="#ffffff" stroke="#000000" points="594.5,-468 296.5,-468 296.5,-432 600.5,-432 600.5,-462 594.5,-468"/>
<polyline fill="none" stroke="#000000" points="594.5,-468 594.5,-462 "/>
<polyline fill="none" stroke="#000000" points="600.5,-462 594.5,-462 "/>
<text text-anchor="middle" x="448.5" y="-446.3" font-family="Patua One" font-size="14.00" fill="#b03a2e">Fuzzing: Breaking Things with Random Inputs</text>
</a>
</g>
</g>
<!-- Coverage -->
<g id="node2" class="node">
<title>Coverage</title>
<g id="a_node2"><a xlink:href="Coverage.ipynb" xlink:title="Coverage">
<polygon fill="#ffffff" stroke="#000000" points="343,-324 226,-324 226,-288 349,-288 349,-318 343,-324"/>
<polyline fill="none" stroke="#000000" points="343,-324 343,-318 "/>
<polyline fill="none" stroke="#000000" points="349,-318 343,-318 "/>
<text text-anchor="middle" x="287.5" y="-302.3" font-family="Patua One" font-size="14.00" fill="#b03a2e">Getting Coverage</text>
</a>
</g>
</g>
<!-- Fuzzer&#45;&gt;Coverage -->
<g id="edge1" class="edge">
<title>Fuzzer&#45;&gt;Coverage</title>
<path fill="none" stroke="#000000" d="M428.1092,-431.7623C399.5596,-406.2272 347.5749,-359.7316 315.4408,-330.9906"/>
<polygon fill="#000000" stroke="#000000" points="317.5122,-328.1475 307.7252,-324.0896 312.8455,-333.365 317.5122,-328.1475"/>
</g>
<!-- Grammars -->
<g id="node3" class="node">
<title>Grammars</title>
<g id="a_node3"><a xlink:href="Grammars.ipynb" xlink:title="Grammars">
<polygon fill="#ffffff" stroke="#000000" points="634,-396 475,-396 475,-360 640,-360 640,-390 634,-396"/>
<polyline fill="none" stroke="#000000" points="634,-396 634,-390 "/>
<polyline fill="none" stroke="#000000" points="640,-390 634,-390 "/>
<text text-anchor="middle" x="557.5" y="-374.3" font-family="Patua One" font-size="14.00" fill="#b03a2e">Fuzzing with Grammars</text>
</a>
</g>
</g>
<!-- Fuzzer&#45;&gt;Grammars -->
<g id="edge2" class="edge">
<title>Fuzzer&#45;&gt;Grammars</title>
<path fill="none" stroke="#000000" d="M476.0053,-431.8314C489.818,-422.7074 506.7256,-411.539 521.5529,-401.7449"/>
<polygon fill="#000000" stroke="#000000" points="523.5886,-404.5949 530.0035,-396.1628 519.7304,-398.7541 523.5886,-404.5949"/>
</g>
<!-- MutationFuzzer -->
<g id="node5" class="node">
<title>MutationFuzzer</title>
<g id="a_node5"><a xlink:href="MutationFuzzer.ipynb" xlink:title="MutationFuzzer">
<polygon fill="#ffffff" stroke="#000000" points="196,-252 33,-252 33,-216 202,-216 202,-246 196,-252"/>
<polyline fill="none" stroke="#000000" points="196,-252 196,-246 "/>
<polyline fill="none" stroke="#000000" points="202,-246 196,-246 "/>
<text text-anchor="middle" x="117.5" y="-230.3" font-family="Patua One" font-size="14.00" fill="#b03a2e">Mutation&#45;Based Fuzzing</text>
</a>
</g>
</g>
<!-- Coverage&#45;&gt;MutationFuzzer -->
<g id="edge4" class="edge">
<title>Coverage&#45;&gt;MutationFuzzer</title>
<path fill="none" stroke="#000000" d="M244.6018,-287.8314C221.7643,-278.159 193.502,-266.1891 169.4313,-255.9944"/>
<polygon fill="#000000" stroke="#000000" points="170.6629,-252.7151 160.0897,-252.038 167.9329,-259.1608 170.6629,-252.7151"/>
</g>
<!-- GrammarCoverageFuzzer -->
<g id="node6" class="node">
<title>GrammarCoverageFuzzer</title>
<g id="a_node6"><a xlink:href="GrammarCoverageFuzzer.ipynb" xlink:title="GrammarCoverageFuzzer">
<polygon fill="#ffffff" stroke="#000000" points="349,-252 220,-252 220,-216 355,-216 355,-246 349,-252"/>
<polyline fill="none" stroke="#000000" points="349,-252 349,-246 "/>
<polyline fill="none" stroke="#000000" points="355,-246 349,-246 "/>
<text text-anchor="middle" x="287.5" y="-230.3" font-family="Patua One" font-size="14.00" fill="#b03a2e">Grammar Coverage</text>
</a>
</g>
</g>
<!-- Coverage&#45;&gt;GrammarCoverageFuzzer -->
<g id="edge5" class="edge">
<title>Coverage&#45;&gt;GrammarCoverageFuzzer</title>
<path fill="none" stroke="#000000" d="M287.5,-287.8314C287.5,-280.131 287.5,-270.9743 287.5,-262.4166"/>
<polygon fill="#000000" stroke="#000000" points="291.0001,-262.4132 287.5,-252.4133 284.0001,-262.4133 291.0001,-262.4132"/>
</g>
<!-- ProbabilisticGrammarFuzzer -->
<g id="node7" class="node">
<title>ProbabilisticGrammarFuzzer</title>
<g id="a_node7"><a xlink:href="ProbabilisticGrammarFuzzer.ipynb" xlink:title="ProbabilisticGrammarFuzzer">
<polygon fill="#ffffff" stroke="#000000" points="417.5,-180 215.5,-180 215.5,-144 423.5,-144 423.5,-174 417.5,-180"/>
<polyline fill="none" stroke="#000000" points="417.5,-180 417.5,-174 "/>
<polyline fill="none" stroke="#000000" points="423.5,-174 417.5,-174 "/>
<text text-anchor="middle" x="319.5" y="-158.3" font-family="Patua One" font-size="14.00" fill="#b03a2e">Probabilistic Grammar Fuzzing</text>
</a>
</g>
</g>
<!-- Coverage&#45;&gt;ProbabilisticGrammarFuzzer -->
<g id="edge6" class="edge">
<title>Coverage&#45;&gt;ProbabilisticGrammarFuzzer</title>
<path fill="none" stroke="#000000" d="M225.7231,-302.1659C155.8588,-296.39 48.5324,-282.671 23.5,-252 13.3832,-239.6044 13.2517,-228.2871 23.5,-216 35.5124,-201.5979 127.1946,-186.361 205.3819,-175.7581"/>
<polygon fill="#000000" stroke="#000000" points="205.8868,-179.2218 215.3328,-174.4235 204.9562,-172.2839 205.8868,-179.2218"/>
</g>
<!-- GrammarMiner -->
<g id="node8" class="node">
<title>GrammarMiner</title>
<g id="a_node8"><a xlink:href="GrammarMiner.ipynb" xlink:title="GrammarMiner">
<polygon fill="#ffffff" stroke="#000000" points="534,-252 373,-252 373,-216 540,-216 540,-246 534,-252"/>
<polyline fill="none" stroke="#000000" points="534,-252 534,-246 "/>
<polyline fill="none" stroke="#000000" points="540,-246 534,-246 "/>
<text text-anchor="middle" x="456.5" y="-230.3" font-family="Patua One" font-size="14.00" fill="#b03a2e">Mining Input Grammars</text>
</a>
</g>
</g>
<!-- Coverage&#45;&gt;GrammarMiner -->
<g id="edge7" class="edge">
<title>Coverage&#45;&gt;GrammarMiner</title>
<path fill="none" stroke="#000000" d="M330.1458,-287.8314C352.849,-278.159 380.9451,-266.1891 404.8742,-255.9944"/>
<polygon fill="#000000" stroke="#000000" points="406.3328,-259.1775 414.1608,-252.038 403.5891,-252.7376 406.3328,-259.1775"/>
</g>
<!-- GrammarFuzzer -->
<g id="node9" class="node">
<title>GrammarFuzzer</title>
<g id="a_node9"><a xlink:href="GrammarFuzzer.ipynb" xlink:title="GrammarFuzzer">
<polygon fill="#ffffff" stroke="#000000" points="697,-324 520,-324 520,-288 703,-288 703,-318 697,-324"/>
<polyline fill="none" stroke="#000000" points="697,-324 697,-318 "/>
<polyline fill="none" stroke="#000000" points="703,-318 697,-318 "/>
<text text-anchor="middle" x="611.5" y="-302.3" font-family="Patua One" font-size="14.00" fill="#b03a2e">Efficient Grammar Fuzzing</text>
</a>
</g>
</g>
<!-- Grammars&#45;&gt;GrammarFuzzer -->
<g id="edge8" class="edge">
<title>Grammars&#45;&gt;GrammarFuzzer</title>
<path fill="none" stroke="#000000" d="M571.1265,-359.8314C577.346,-351.5386 584.8322,-341.557 591.66,-332.4533"/>
<polygon fill="#000000" stroke="#000000" points="594.49,-334.5133 597.69,-324.4133 588.89,-330.3133 594.49,-334.5133"/>
</g>
<!-- Intro_Testing -->
<g id="node4" class="node">
<title>Intro_Testing</title>
<g id="a_node4"><a xlink:href="Intro_Testing.ipynb" xlink:title="Intro_Testing">
<polygon fill="#ffffff" stroke="#000000" points="552,-540 339,-540 339,-504 558,-504 558,-534 552,-540"/>
<polyline fill="none" stroke="#000000" points="552,-540 552,-534 "/>
<polyline fill="none" stroke="#000000" points="558,-534 552,-534 "/>
<text text-anchor="middle" x="448.5" y="-518.3" font-family="Patua One" font-size="14.00" fill="#b03a2e">Introduction to Software Testing</text>
</a>
</g>
</g>
<!-- Intro_Testing&#45;&gt;Fuzzer -->
<g id="edge3" class="edge">
<title>Intro_Testing&#45;&gt;Fuzzer</title>
<path fill="none" stroke="#000000" d="M448.5,-503.8314C448.5,-496.131 448.5,-486.9743 448.5,-478.4166"/>
<polygon fill="#000000" stroke="#000000" points="452.0001,-478.4132 448.5,-468.4133 445.0001,-478.4133 452.0001,-478.4132"/>
</g>
<!-- ConfigurationFuzzer -->
<g id="node14" class="node">
<title>ConfigurationFuzzer</title>
<g id="a_node14"><a xlink:href="ConfigurationFuzzer.ipynb" xlink:title="ConfigurationFuzzer">
<polygon fill="#ffffff" stroke="#000000" points="153,-180 0,-180 0,-144 159,-144 159,-174 153,-180"/>
<polyline fill="none" stroke="#000000" points="153,-180 153,-174 "/>
<polyline fill="none" stroke="#000000" points="159,-174 153,-174 "/>
<text text-anchor="middle" x="79.5" y="-158.3" font-family="Patua One" font-size="14.00" fill="#b03a2e">Testing Configurations</text>
</a>
</g>
</g>
<!-- GrammarCoverageFuzzer&#45;&gt;ConfigurationFuzzer -->
<g id="edge15" class="edge">
<title>GrammarCoverageFuzzer&#45;&gt;ConfigurationFuzzer</title>
<path fill="none" stroke="#000000" d="M235.2813,-215.9243C206.7229,-206.0387 171.1705,-193.7321 141.2432,-183.3726"/>
<polygon fill="#000000" stroke="#000000" points="142.335,-180.0469 131.7402,-180.0831 140.0451,-186.6618 142.335,-180.0469"/>
</g>
<!-- Carver -->
<g id="node15" class="node">
<title>Carver</title>
<g id="a_node15"><a xlink:href="Carver.ipynb" xlink:title="Carver">
<polygon fill="#ffffff" stroke="#000000" points="313,-36 188,-36 188,0 319,0 319,-30 313,-36"/>
<polyline fill="none" stroke="#000000" points="313,-36 313,-30 "/>
<polyline fill="none" stroke="#000000" points="319,-30 313,-30 "/>
<text text-anchor="middle" x="253.5" y="-14.3" font-family="Patua One" font-size="14.00" fill="#b03a2e">Carving Unit Tests</text>
</a>
</g>
</g>
<!-- GrammarCoverageFuzzer&#45;&gt;Carver -->
<g id="edge16" class="edge">
<title>GrammarCoverageFuzzer&#45;&gt;Carver</title>
<path fill="none" stroke="#000000" d="M244.5146,-215.8854C229.7171,-207.3151 214.7939,-195.4972 206.5,-180 182.7162,-135.5595 212.1599,-77.6465 234.0085,-44.4662"/>
<polygon fill="#000000" stroke="#000000" points="236.9076,-46.4272 239.6404,-36.1909 231.1206,-42.4888 236.9076,-46.4272"/>
</g>
<!-- GUIFuzzer -->
<g id="node16" class="node">
<title>GUIFuzzer</title>
<g id="a_node16"><a xlink:href="GUIFuzzer.ipynb" xlink:title="GUIFuzzer">
<polygon fill="#ffffff" stroke="#000000" points="1079.5,-180 865.5,-180 865.5,-144 1085.5,-144 1085.5,-174 1079.5,-180"/>
<polyline fill="none" stroke="#000000" points="1079.5,-180 1079.5,-174 "/>
<polyline fill="none" stroke="#000000" points="1085.5,-174 1079.5,-174 "/>
<text text-anchor="middle" x="975.5" y="-158.3" font-family="Patua One" font-size="14.00" fill="#b03a2e">Testing Graphical User Interfaces</text>
</a>
</g>
</g>
<!-- GrammarCoverageFuzzer&#45;&gt;GUIFuzzer -->
<g id="edge17" class="edge">
<title>GrammarCoverageFuzzer&#45;&gt;GUIFuzzer</title>
<path fill="none" stroke="#000000" d="M355.3472,-217.3643C358.0943,-216.8705 360.8197,-216.4126 363.5,-216 577.3506,-183.0834 636.3916,-203.7975 855.1227,-180.0964"/>
<polygon fill="#000000" stroke="#000000" points="855.7661,-183.5467 865.3222,-178.9717 854.9989,-176.5889 855.7661,-183.5467"/>
</g>
<!-- APIFuzzer -->
<g id="node19" class="node">
<title>APIFuzzer</title>
<g id="a_node19"><a xlink:href="APIFuzzer.ipynb" xlink:title="APIFuzzer">
<polygon fill="#ffffff" stroke="#000000" points="362,-108 271,-108 271,-72 368,-72 368,-102 362,-108"/>
<polyline fill="none" stroke="#000000" points="362,-108 362,-102 "/>
<polyline fill="none" stroke="#000000" points="368,-102 362,-102 "/>
<text text-anchor="middle" x="319.5" y="-86.3" font-family="Patua One" font-size="14.00" fill="#b03a2e">Fuzzing APIs</text>
</a>
</g>
</g>
<!-- ProbabilisticGrammarFuzzer&#45;&gt;APIFuzzer -->
<g id="edge21" class="edge">
<title>ProbabilisticGrammarFuzzer&#45;&gt;APIFuzzer</title>
<path fill="none" stroke="#000000" d="M319.5,-143.8314C319.5,-136.131 319.5,-126.9743 319.5,-118.4166"/>
<polygon fill="#000000" stroke="#000000" points="323.0001,-118.4132 319.5,-108.4133 316.0001,-118.4133 323.0001,-118.4132"/>
</g>
<!-- InformationFlow -->
<g id="node18" class="node">
<title>InformationFlow</title>
<g id="a_node18"><a xlink:href="InformationFlow.ipynb" xlink:title="InformationFlow">
<polygon fill="#ffffff" stroke="#000000" points="619,-180 442,-180 442,-144 625,-144 625,-174 619,-180"/>
<polyline fill="none" stroke="#000000" points="619,-180 619,-174 "/>
<polyline fill="none" stroke="#000000" points="625,-174 619,-174 "/>
<text text-anchor="middle" x="533.5" y="-158.3" font-family="Patua One" font-size="14.00" fill="#b03a2e">Tracking Information Flow</text>
</a>
</g>
</g>
<!-- GrammarMiner&#45;&gt;InformationFlow -->
<g id="edge23" class="edge">
<title>GrammarMiner&#45;&gt;InformationFlow</title>
<path fill="none" stroke="#000000" d="M475.9304,-215.8314C485.232,-207.1337 496.5204,-196.5783 506.6286,-187.1265"/>
<polygon fill="#000000" stroke="#000000" points="509.1621,-189.5493 514.0759,-180.1628 504.3811,-184.4363 509.1621,-189.5493"/>
</g>
<!-- GrammarFuzzer&#45;&gt;GrammarCoverageFuzzer -->
<g id="edge9" class="edge">
<title>GrammarFuzzer&#45;&gt;GrammarCoverageFuzzer</title>
<path fill="none" stroke="#000000" d="M526.7632,-287.9477C481.3349,-278.175 424.1512,-265.7237 364.9368,-252.31"/>
<polygon fill="#000000" stroke="#000000" points="365.5569,-248.8618 355.0302,-250.0612 364.0073,-255.6882 365.5569,-248.8618"/>
</g>
<!-- GrammarFuzzer&#45;&gt;GrammarMiner -->
<g id="edge13" class="edge">
<title>GrammarFuzzer&#45;&gt;GrammarMiner</title>
<path fill="none" stroke="#000000" d="M572.387,-287.8314C551.7488,-278.2446 526.2516,-266.4008 504.4327,-256.2655"/>
<polygon fill="#000000" stroke="#000000" points="505.8756,-253.0766 495.3318,-252.038 502.9266,-259.4251 505.8756,-253.0766"/>
</g>
<!-- Parser -->
<g id="node10" class="node">
<title>Parser</title>
<g id="a_node10"><a xlink:href="Parser.ipynb" xlink:title="Parser">
<polygon fill="#ffffff" stroke="#000000" points="659,-252 558,-252 558,-216 665,-216 665,-246 659,-252"/>
<polyline fill="none" stroke="#000000" points="659,-252 659,-246 "/>
<polyline fill="none" stroke="#000000" points="665,-246 659,-246 "/>
<text text-anchor="middle" x="611.5" y="-230.3" font-family="Patua One" font-size="14.00" fill="#b03a2e">Parsing Inputs</text>
</a>
</g>
</g>
<!-- GrammarFuzzer&#45;&gt;Parser -->
<g id="edge10" class="edge">
<title>GrammarFuzzer&#45;&gt;Parser</title>
<path fill="none" stroke="#000000" d="M611.5,-287.8314C611.5,-280.131 611.5,-270.9743 611.5,-262.4166"/>
<polygon fill="#000000" stroke="#000000" points="615.0001,-262.4132 611.5,-252.4133 608.0001,-262.4133 615.0001,-262.4132"/>
</g>
<!-- GeneratorGrammarFuzzer -->
<g id="node11" class="node">
<title>GeneratorGrammarFuzzer</title>
<g id="a_node11"><a xlink:href="GeneratorGrammarFuzzer.ipynb" xlink:title="GeneratorGrammarFuzzer">
<polygon fill="#ffffff" stroke="#000000" points="1265.5,-180 1103.5,-180 1103.5,-144 1271.5,-144 1271.5,-174 1265.5,-180"/>
<polyline fill="none" stroke="#000000" points="1265.5,-180 1265.5,-174 "/>
<polyline fill="none" stroke="#000000" points="1271.5,-174 1265.5,-174 "/>
<text text-anchor="middle" x="1187.5" y="-158.3" font-family="Patua One" font-size="14.00" fill="#b03a2e">Fuzzing with Generators</text>
</a>
</g>
</g>
<!-- GrammarFuzzer&#45;&gt;GeneratorGrammarFuzzer -->
<g id="edge11" class="edge">
<title>GrammarFuzzer&#45;&gt;GeneratorGrammarFuzzer</title>
<path fill="none" stroke="#000000" d="M632.9564,-287.9465C645.2191,-277.5446 660.8307,-264.1598 674.5,-252 692.1247,-236.3216 691.9593,-225.6147 713.5,-216 865.8603,-147.9941 923.9224,-202.0441 1093.414,-180.0238"/>
<polygon fill="#000000" stroke="#000000" points="1093.98,-183.4791 1103.4123,-178.654 1093.0297,-176.5439 1093.98,-183.4791"/>
</g>
<!-- Reducer -->
<g id="node12" class="node">
<title>Reducer</title>
<g id="a_node12"><a xlink:href="Reducer.ipynb" xlink:title="Reducer">
<polygon fill="#ffffff" stroke="#000000" points="941,-252 722,-252 722,-216 947,-216 947,-246 941,-252"/>
<polyline fill="none" stroke="#000000" points="941,-252 941,-246 "/>
<polyline fill="none" stroke="#000000" points="947,-246 941,-246 "/>
<text text-anchor="middle" x="834.5" y="-230.3" font-family="Patua One" font-size="14.00" fill="#b03a2e">Reducing Failure&#45;Inducing Inputs</text>
</a>
</g>
</g>
<!-- GrammarFuzzer&#45;&gt;Reducer -->
<g id="edge12" class="edge">
<title>GrammarFuzzer&#45;&gt;Reducer</title>
<path fill="none" stroke="#000000" d="M667.4845,-287.9243C698.235,-277.9959 736.5488,-265.6255 768.7205,-255.2382"/>
<polygon fill="#000000" stroke="#000000" points="770.0516,-258.4864 778.4925,-252.0831 767.9008,-251.825 770.0516,-258.4864"/>
</g>
<!-- WebFuzzer -->
<g id="node13" class="node">
<title>WebFuzzer</title>
<g id="a_node13"><a xlink:href="WebFuzzer.ipynb" xlink:title="WebFuzzer">
<polygon fill="#ffffff" stroke="#000000" points="1133.5,-252 965.5,-252 965.5,-216 1139.5,-216 1139.5,-246 1133.5,-252"/>
<polyline fill="none" stroke="#000000" points="1133.5,-252 1133.5,-246 "/>
<polyline fill="none" stroke="#000000" points="1139.5,-246 1133.5,-246 "/>
<text text-anchor="middle" x="1052.5" y="-230.3" font-family="Patua One" font-size="14.00" fill="#b03a2e">Testing Web Applications</text>
</a>
</g>
</g>
<!-- GrammarFuzzer&#45;&gt;WebFuzzer -->
<g id="edge14" class="edge">
<title>GrammarFuzzer&#45;&gt;WebFuzzer</title>
<path fill="none" stroke="#000000" d="M703.147,-292.4227C770.2939,-282.2955 863.9046,-267.8062 955.4071,-252.1639"/>
<polygon fill="#000000" stroke="#000000" points="956.1355,-255.5902 965.3997,-250.4496 954.9518,-248.691 956.1355,-255.5902"/>
</g>
<!-- Parser&#45;&gt;ProbabilisticGrammarFuzzer -->
<g id="edge19" class="edge">
<title>Parser&#45;&gt;ProbabilisticGrammarFuzzer</title>
<path fill="none" stroke="#000000" d="M557.9304,-218.5103C554.7437,-217.6461 551.5821,-216.8032 548.5,-216 503.0326,-204.1508 452.1905,-192.0475 409.9835,-182.3109"/>
<polygon fill="#000000" stroke="#000000" points="410.5362,-178.8467 400.0061,-180.0161 408.9671,-185.6686 410.5362,-178.8467"/>
</g>
<!-- LangFuzzer -->
<g id="node17" class="node">
<title>LangFuzzer</title>
<g id="a_node17"><a xlink:href="LangFuzzer.ipynb" xlink:title="LangFuzzer">
<polygon fill="#ffffff" stroke="#000000" points="841.5,-180 643.5,-180 643.5,-144 847.5,-144 847.5,-174 841.5,-180"/>
<polyline fill="none" stroke="#000000" points="841.5,-180 841.5,-174 "/>
<polyline fill="none" stroke="#000000" points="847.5,-174 841.5,-174 "/>
<text text-anchor="middle" x="745.5" y="-158.3" font-family="Patua One" font-size="14.00" fill="#b03a2e">Fuzzing with Input Fragments</text>
</a>
</g>
</g>
<!-- Parser&#45;&gt;LangFuzzer -->
<g id="edge18" class="edge">
<title>Parser&#45;&gt;LangFuzzer</title>
<path fill="none" stroke="#000000" d="M645.3139,-215.8314C662.7707,-206.4516 684.2487,-194.9112 702.8352,-184.9244"/>
<polygon fill="#000000" stroke="#000000" points="704.5446,-187.9792 711.697,-180.1628 701.2314,-181.8129 704.5446,-187.9792"/>
</g>
<!-- Parser&#45;&gt;InformationFlow -->
<g id="edge20" class="edge">
<title>Parser&#45;&gt;InformationFlow</title>
<path fill="none" stroke="#000000" d="M591.8173,-215.8314C582.3949,-207.1337 570.9599,-196.5783 560.7204,-187.1265"/>
<polygon fill="#000000" stroke="#000000" points="562.8984,-184.3738 553.1764,-180.1628 558.1505,-189.5175 562.8984,-184.3738"/>
</g>
<!-- GeneratorGrammarFuzzer&#45;&gt;APIFuzzer -->
<g id="edge22" class="edge">
<title>GeneratorGrammarFuzzer&#45;&gt;APIFuzzer</title>
<path fill="none" stroke="#000000" d="M1103.4252,-145.2523C1100.4172,-144.8046 1097.4351,-144.3848 1094.5,-144 828.5581,-109.1301 508.1247,-95.8493 378.3395,-91.658"/>
<polygon fill="#000000" stroke="#000000" points="378.3255,-88.1559 368.2196,-91.3373 378.1037,-95.1524 378.3255,-88.1559"/>
</g>
<!-- WebFuzzer&#45;&gt;GUIFuzzer -->
<g id="edge25" class="edge">
<title>WebFuzzer&#45;&gt;GUIFuzzer</title>
<path fill="none" stroke="#000000" d="M1033.0696,-215.8314C1023.768,-207.1337 1012.4796,-196.5783 1002.3714,-187.1265"/>
<polygon fill="#000000" stroke="#000000" points="1004.6189,-184.4363 994.9241,-180.1628 999.8379,-189.5493 1004.6189,-184.4363"/>
</g>
<!-- APIFuzzer&#45;&gt;Carver -->
<g id="edge24" class="edge">
<title>APIFuzzer&#45;&gt;Carver</title>
<path fill="none" stroke="#000000" d="M302.8454,-71.8314C295.0886,-63.3694 285.7198,-53.1489 277.239,-43.8971"/>
<polygon fill="#000000" stroke="#000000" points="279.7162,-41.4198 270.3788,-36.4133 274.5561,-46.1499 279.7162,-41.4198"/>
</g>
</g>
</svg>
