<?xml version="1.0" encoding="UTF-8" standalone="no"?>
<!DOCTYPE svg PUBLIC "-//W3C//DTD SVG 1.1//EN"
 "http://www.w3.org/Graphics/SVG/1.1/DTD/svg11.dtd">
<!-- Generated by graphviz version 2.40.1 (20161225.0304)
 -->
<!-- Title: %3 Pages: 1 -->
<svg width="969pt" height="548pt"
 viewBox="0.00 0.00 968.50 548.00" xmlns="http://www.w3.org/2000/svg" xmlns:xlink="http://www.w3.org/1999/xlink">
<g id="graph0" class="graph" transform="scale(1 1) rotate(0) translate(4 544)">
<title>%3</title>
<polygon fill="#ffffff" stroke="transparent" points="-4,4 -4,-544 964.5,-544 964.5,4 -4,4"/>
<!-- Fuzzer -->
<g id="node1" class="node">
<title>Fuzzer</title>
<g id="a_node1"><a xlink:href="Fuzzer.ipynb" xlink:title="Fuzzer">
<polygon fill="#ffffff" stroke="#000000" points="530.5,-468 232.5,-468 232.5,-432 536.5,-432 536.5,-462 530.5,-468"/>
<polyline fill="none" stroke="#000000" points="530.5,-468 530.5,-462 "/>
<polyline fill="none" stroke="#000000" points="536.5,-462 530.5,-462 "/>
<text text-anchor="middle" x="384.5" y="-446.3" font-family="Patua One" font-size="14.00" fill="#b03a2e">Fuzzing: Breaking Things with Random Inputs</text>
</a>
</g>
</g>
<!-- Coverage -->
<g id="node2" class="node">
<title>Coverage</title>
<g id="a_node2"><a xlink:href="Coverage.ipynb" xlink:title="Coverage">
<polygon fill="#ffffff" stroke="#000000" points="355,-324 238,-324 238,-288 361,-288 361,-318 355,-324"/>
<polyline fill="none" stroke="#000000" points="355,-324 355,-318 "/>
<polyline fill="none" stroke="#000000" points="361,-318 355,-318 "/>
<text text-anchor="middle" x="299.5" y="-302.3" font-family="Patua One" font-size="14.00" fill="#b03a2e">Getting Coverage</text>
</a>
</g>
</g>
<!-- Fuzzer&#45;&gt;Coverage -->
<g id="edge1" class="edge">
<title>Fuzzer&#45;&gt;Coverage</title>
<path fill="none" stroke="#000000" d="M373.7347,-431.7623C358.9813,-406.7682 332.374,-361.6924 315.3436,-332.8409"/>
<polygon fill="#000000" stroke="#000000" points="318.2753,-330.9221 310.1779,-324.0896 312.2471,-334.4804 318.2753,-330.9221"/>
</g>
<!-- Grammars -->
<g id="node3" class="node">
<title>Grammars</title>
<g id="a_node3"><a xlink:href="Grammars.ipynb" xlink:title="Grammars">
<polygon fill="#ffffff" stroke="#000000" points="533,-396 374,-396 374,-360 539,-360 539,-390 533,-396"/>
<polyline fill="none" stroke="#000000" points="533,-396 533,-390 "/>
<polyline fill="none" stroke="#000000" points="539,-390 533,-390 "/>
<text text-anchor="middle" x="456.5" y="-374.3" font-family="Patua One" font-size="14.00" fill="#b03a2e">Fuzzing with Grammars</text>
</a>
</g>
</g>
<!-- Fuzzer&#45;&gt;Grammars -->
<g id="edge2" class="edge">
<title>Fuzzer&#45;&gt;Grammars</title>
<path fill="none" stroke="#000000" d="M402.6686,-431.8314C411.2152,-423.2848 421.5557,-412.9443 430.8802,-403.6198"/>
<polygon fill="#000000" stroke="#000000" points="433.4905,-405.9592 438.0867,-396.4133 428.5408,-401.0095 433.4905,-405.9592"/>
</g>
<!-- MutationFuzzer -->
<g id="node5" class="node">
<title>MutationFuzzer</title>
<g id="a_node5"><a xlink:href="MutationFuzzer.ipynb" xlink:title="MutationFuzzer">
<polygon fill="#ffffff" stroke="#000000" points="163,-252 0,-252 0,-216 169,-216 169,-246 163,-252"/>
<polyline fill="none" stroke="#000000" points="163,-252 163,-246 "/>
<polyline fill="none" stroke="#000000" points="169,-246 163,-246 "/>
<text text-anchor="middle" x="84.5" y="-230.3" font-family="Patua One" font-size="14.00" fill="#b03a2e">Mutation&#45;Based Fuzzing</text>
</a>
</g>
</g>
<!-- Coverage&#45;&gt;MutationFuzzer -->
<g id="edge4" class="edge">
<title>Coverage&#45;&gt;MutationFuzzer</title>
<path fill="none" stroke="#000000" d="M245.5239,-287.9243C216.0044,-278.0387 179.2556,-265.7321 148.3211,-255.3726"/>
<polygon fill="#000000" stroke="#000000" points="149.0921,-251.9399 138.4983,-252.0831 146.8692,-258.5776 149.0921,-251.9399"/>
</g>
<!-- GrammarCoverageFuzzer -->
<g id="node6" class="node">
<title>GrammarCoverageFuzzer</title>
<g id="a_node6"><a xlink:href="GrammarCoverageFuzzer.ipynb" xlink:title="GrammarCoverageFuzzer">
<polygon fill="#ffffff" stroke="#000000" points="316,-252 187,-252 187,-216 322,-216 322,-246 316,-252"/>
<polyline fill="none" stroke="#000000" points="316,-252 316,-246 "/>
<polyline fill="none" stroke="#000000" points="322,-246 316,-246 "/>
<text text-anchor="middle" x="254.5" y="-230.3" font-family="Patua One" font-size="14.00" fill="#b03a2e">Grammar Coverage</text>
</a>
</g>
</g>
<!-- Coverage&#45;&gt;GrammarCoverageFuzzer -->
<g id="edge5" class="edge">
<title>Coverage&#45;&gt;GrammarCoverageFuzzer</title>
<path fill="none" stroke="#000000" d="M288.1446,-287.8314C283.0674,-279.7079 276.9773,-269.9637 271.3824,-261.0118"/>
<polygon fill="#000000" stroke="#000000" points="274.2763,-259.0383 266.0083,-252.4133 268.3403,-262.7483 274.2763,-259.0383"/>
</g>
<!-- ProbabilisticGrammarFuzzer -->
<g id="node7" class="node">
<title>ProbabilisticGrammarFuzzer</title>
<g id="a_node7"><a xlink:href="ProbabilisticGrammarFuzzer.ipynb" xlink:title="ProbabilisticGrammarFuzzer">
<polygon fill="#ffffff" stroke="#000000" points="466.5,-180 264.5,-180 264.5,-144 472.5,-144 472.5,-174 466.5,-180"/>
<polyline fill="none" stroke="#000000" points="466.5,-180 466.5,-174 "/>
<polyline fill="none" stroke="#000000" points="472.5,-174 466.5,-174 "/>
<text text-anchor="middle" x="368.5" y="-158.3" font-family="Patua One" font-size="14.00" fill="#b03a2e">Probabilistic Grammar Fuzzing</text>
</a>
</g>
</g>
<!-- Coverage&#45;&gt;ProbabilisticGrammarFuzzer -->
<g id="edge6" class="edge">
<title>Coverage&#45;&gt;ProbabilisticGrammarFuzzer</title>
<path fill="none" stroke="#000000" d="M310.6822,-287.8076C316.8449,-277.4749 324.4492,-264.2028 330.5,-252 340.6717,-231.4865 350.6829,-207.5801 357.8743,-189.5639"/>
<polygon fill="#000000" stroke="#000000" points="361.1465,-190.8065 361.5624,-180.2198 354.6354,-188.2364 361.1465,-190.8065"/>
</g>
<!-- GrammarFuzzer -->
<g id="node8" class="node">
<title>GrammarFuzzer</title>
<g id="a_node8"><a xlink:href="GrammarFuzzer.ipynb" xlink:title="GrammarFuzzer">
<polygon fill="#ffffff" stroke="#000000" points="559,-324 382,-324 382,-288 565,-288 565,-318 559,-324"/>
<polyline fill="none" stroke="#000000" points="559,-324 559,-318 "/>
<polyline fill="none" stroke="#000000" points="565,-318 559,-318 "/>
<text text-anchor="middle" x="473.5" y="-302.3" font-family="Patua One" font-size="14.00" fill="#b03a2e">Efficient Grammar Fuzzing</text>
</a>
</g>
</g>
<!-- Grammars&#45;&gt;GrammarFuzzer -->
<g id="edge7" class="edge">
<title>Grammars&#45;&gt;GrammarFuzzer</title>
<path fill="none" stroke="#000000" d="M460.7898,-359.8314C462.608,-352.131 464.7699,-342.9743 466.7905,-334.4166"/>
<polygon fill="#000000" stroke="#000000" points="470.2608,-334.95 469.1524,-324.4133 463.4481,-333.3414 470.2608,-334.95"/>
</g>
<!-- Intro_Testing -->
<g id="node4" class="node">
<title>Intro_Testing</title>
<g id="a_node4"><a xlink:href="Intro_Testing.ipynb" xlink:title="Intro_Testing">
<polygon fill="#ffffff" stroke="#000000" points="488,-540 275,-540 275,-504 494,-504 494,-534 488,-540"/>
<polyline fill="none" stroke="#000000" points="488,-540 488,-534 "/>
<polyline fill="none" stroke="#000000" points="494,-534 488,-534 "/>
<text text-anchor="middle" x="384.5" y="-518.3" font-family="Patua One" font-size="14.00" fill="#b03a2e">Introduction to Software Testing</text>
</a>
</g>
</g>
<!-- Intro_Testing&#45;&gt;Fuzzer -->
<g id="edge3" class="edge">
<title>Intro_Testing&#45;&gt;Fuzzer</title>
<path fill="none" stroke="#000000" d="M384.5,-503.8314C384.5,-496.131 384.5,-486.9743 384.5,-478.4166"/>
<polygon fill="#000000" stroke="#000000" points="388.0001,-478.4132 384.5,-468.4133 381.0001,-478.4133 388.0001,-478.4132"/>
</g>
<!-- ConfigurationFuzzer -->
<g id="node13" class="node">
<title>ConfigurationFuzzer</title>
<g id="a_node13"><a xlink:href="ConfigurationFuzzer.ipynb" xlink:title="ConfigurationFuzzer">
<polygon fill="#ffffff" stroke="#000000" points="202,-180 49,-180 49,-144 208,-144 208,-174 202,-180"/>
<polyline fill="none" stroke="#000000" points="202,-180 202,-174 "/>
<polyline fill="none" stroke="#000000" points="208,-174 202,-174 "/>
<text text-anchor="middle" x="128.5" y="-158.3" font-family="Patua One" font-size="14.00" fill="#b03a2e">Testing Configurations</text>
</a>
</g>
</g>
<!-- GrammarCoverageFuzzer&#45;&gt;ConfigurationFuzzer -->
<g id="edge13" class="edge">
<title>GrammarCoverageFuzzer&#45;&gt;ConfigurationFuzzer</title>
<path fill="none" stroke="#000000" d="M222.7049,-215.8314C206.4395,-206.5368 186.4614,-195.1208 169.0949,-185.1971"/>
<polygon fill="#000000" stroke="#000000" points="170.7039,-182.0854 160.2849,-180.1628 167.2309,-188.1631 170.7039,-182.0854"/>
</g>
<!-- Carver -->
<g id="node14" class="node">
<title>Carver</title>
<g id="a_node14"><a xlink:href="Carver.ipynb" xlink:title="Carver">
<polygon fill="#ffffff" stroke="#000000" points="362,-36 237,-36 237,0 368,0 368,-30 362,-36"/>
<polyline fill="none" stroke="#000000" points="362,-36 362,-30 "/>
<polyline fill="none" stroke="#000000" points="368,-30 362,-30 "/>
<text text-anchor="middle" x="302.5" y="-14.3" font-family="Patua One" font-size="14.00" fill="#b03a2e">Carving Unit Tests</text>
</a>
</g>
</g>
<!-- GrammarCoverageFuzzer&#45;&gt;Carver -->
<g id="edge14" class="edge">
<title>GrammarCoverageFuzzer&#45;&gt;Carver</title>
<path fill="none" stroke="#000000" d="M252.8859,-215.8928C251.6773,-197.5906 250.9239,-168.5792 255.5,-144 262.0642,-108.7422 277.673,-70.4308 289.1087,-45.4247"/>
<polygon fill="#000000" stroke="#000000" points="292.3526,-46.75 293.4113,-36.2081 286.0097,-43.7889 292.3526,-46.75"/>
</g>
<!-- APIFuzzer -->
<g id="node16" class="node">
<title>APIFuzzer</title>
<g id="a_node16"><a xlink:href="APIFuzzer.ipynb" xlink:title="APIFuzzer">
<polygon fill="#ffffff" stroke="#000000" points="411,-108 320,-108 320,-72 417,-72 417,-102 411,-108"/>
<polyline fill="none" stroke="#000000" points="411,-108 411,-102 "/>
<polyline fill="none" stroke="#000000" points="417,-102 411,-102 "/>
<text text-anchor="middle" x="368.5" y="-86.3" font-family="Patua One" font-size="14.00" fill="#b03a2e">Fuzzing APIs</text>
</a>
</g>
</g>
<!-- ProbabilisticGrammarFuzzer&#45;&gt;APIFuzzer -->
<g id="edge17" class="edge">
<title>ProbabilisticGrammarFuzzer&#45;&gt;APIFuzzer</title>
<path fill="none" stroke="#000000" d="M368.5,-143.8314C368.5,-136.131 368.5,-126.9743 368.5,-118.4166"/>
<polygon fill="#000000" stroke="#000000" points="372.0001,-118.4132 368.5,-108.4133 365.0001,-118.4133 372.0001,-118.4132"/>
</g>
<!-- GrammarFuzzer&#45;&gt;GrammarCoverageFuzzer -->
<g id="edge8" class="edge">
<title>GrammarFuzzer&#45;&gt;GrammarCoverageFuzzer</title>
<path fill="none" stroke="#000000" d="M418.5197,-287.9243C388.3208,-277.9959 350.6942,-265.6255 319.0996,-255.2382"/>
<polygon fill="#000000" stroke="#000000" points="320.0958,-251.8815 309.5029,-252.0831 317.9095,-258.5313 320.0958,-251.8815"/>
</g>
<!-- Parser -->
<g id="node9" class="node">
<title>Parser</title>
<g id="a_node9"><a xlink:href="Parser.ipynb" xlink:title="Parser">
<polygon fill="#ffffff" stroke="#000000" points="480,-252 379,-252 379,-216 486,-216 486,-246 480,-252"/>
<polyline fill="none" stroke="#000000" points="480,-252 480,-246 "/>
<polyline fill="none" stroke="#000000" points="486,-246 480,-246 "/>
<text text-anchor="middle" x="432.5" y="-230.3" font-family="Patua One" font-size="14.00" fill="#b03a2e">Parsing Inputs</text>
</a>
</g>
</g>
<!-- GrammarFuzzer&#45;&gt;Parser -->
<g id="edge9" class="edge">
<title>GrammarFuzzer&#45;&gt;Parser</title>
<path fill="none" stroke="#000000" d="M463.154,-287.8314C458.5763,-279.7925 453.0948,-270.1666 448.0412,-261.2918"/>
<polygon fill="#000000" stroke="#000000" points="450.9752,-259.3712 442.9853,-252.4133 444.8923,-262.8351 450.9752,-259.3712"/>
</g>
<!-- GeneratorGrammarFuzzer -->
<g id="node10" class="node">
<title>GeneratorGrammarFuzzer</title>
<g id="a_node10"><a xlink:href="GeneratorGrammarFuzzer.ipynb" xlink:title="GeneratorGrammarFuzzer">
<polygon fill="#ffffff" stroke="#000000" points="874.5,-180 712.5,-180 712.5,-144 880.5,-144 880.5,-174 874.5,-180"/>
<polyline fill="none" stroke="#000000" points="874.5,-180 874.5,-174 "/>
<polyline fill="none" stroke="#000000" points="880.5,-174 874.5,-174 "/>
<text text-anchor="middle" x="796.5" y="-158.3" font-family="Patua One" font-size="14.00" fill="#b03a2e">Fuzzing with Generators</text>
</a>
</g>
</g>
<!-- GrammarFuzzer&#45;&gt;GeneratorGrammarFuzzer -->
<g id="edge10" class="edge">
<title>GrammarFuzzer&#45;&gt;GeneratorGrammarFuzzer</title>
<path fill="none" stroke="#000000" d="M480.8226,-287.6539C490.104,-266.8748 508.1357,-233.6219 534.5,-216 538.149,-213.561 628.8961,-195.1633 702.5761,-180.5104"/>
<polygon fill="#000000" stroke="#000000" points="703.2614,-183.9428 712.3877,-178.5612 701.8973,-177.0769 703.2614,-183.9428"/>
</g>
<!-- Reducer -->
<g id="node11" class="node">
<title>Reducer</title>
<g id="a_node11"><a xlink:href="Reducer.ipynb" xlink:title="Reducer">
<polygon fill="#ffffff" stroke="#000000" points="762,-252 543,-252 543,-216 768,-216 768,-246 762,-252"/>
<polyline fill="none" stroke="#000000" points="762,-252 762,-246 "/>
<polyline fill="none" stroke="#000000" points="768,-246 762,-246 "/>
<text text-anchor="middle" x="655.5" y="-230.3" font-family="Patua One" font-size="14.00" fill="#b03a2e">Reducing Failure&#45;Inducing Inputs</text>
</a>
</g>
</g>
<!-- GrammarFuzzer&#45;&gt;Reducer -->
<g id="edge11" class="edge">
<title>GrammarFuzzer&#45;&gt;Reducer</title>
<path fill="none" stroke="#000000" d="M519.4263,-287.8314C544.0923,-278.0734 574.6691,-265.977 600.586,-255.7242"/>
<polygon fill="#000000" stroke="#000000" points="601.8927,-258.9713 609.904,-252.038 599.3176,-252.4621 601.8927,-258.9713"/>
</g>
<!-- WebFuzzer -->
<g id="node12" class="node">
<title>WebFuzzer</title>
<g id="a_node12"><a xlink:href="WebFuzzer.ipynb" xlink:title="WebFuzzer">
<polygon fill="#ffffff" stroke="#000000" points="954.5,-252 786.5,-252 786.5,-216 960.5,-216 960.5,-246 954.5,-252"/>
<polyline fill="none" stroke="#000000" points="954.5,-252 954.5,-246 "/>
<polyline fill="none" stroke="#000000" points="960.5,-246 954.5,-246 "/>
<text text-anchor="middle" x="873.5" y="-230.3" font-family="Patua One" font-size="14.00" fill="#b03a2e">Testing Web Applications</text>
</a>
</g>
</g>
<!-- GrammarFuzzer&#45;&gt;WebFuzzer -->
<g id="edge12" class="edge">
<title>GrammarFuzzer&#45;&gt;WebFuzzer</title>
<path fill="none" stroke="#000000" d="M565.3321,-289.9229C623.19,-279.7381 699.7299,-266.1637 776.5314,-252.1692"/>
<polygon fill="#000000" stroke="#000000" points="777.1763,-255.6094 786.3858,-250.3715 775.92,-248.723 777.1763,-255.6094"/>
</g>
<!-- Parser&#45;&gt;ProbabilisticGrammarFuzzer -->
<g id="edge16" class="edge">
<title>Parser&#45;&gt;ProbabilisticGrammarFuzzer</title>
<path fill="none" stroke="#000000" d="M416.3501,-215.8314C408.8283,-207.3694 399.7435,-197.1489 391.5196,-187.8971"/>
<polygon fill="#000000" stroke="#000000" points="394.127,-185.5621 384.8673,-180.4133 388.8951,-190.2127 394.127,-185.5621"/>
</g>
<!-- LangFuzzer -->
<g id="node15" class="node">
<title>LangFuzzer</title>
<g id="a_node15"><a xlink:href="LangFuzzer.ipynb" xlink:title="LangFuzzer">
<polygon fill="#ffffff" stroke="#000000" points="688.5,-180 490.5,-180 490.5,-144 694.5,-144 694.5,-174 688.5,-180"/>
<polyline fill="none" stroke="#000000" points="688.5,-180 688.5,-174 "/>
<polyline fill="none" stroke="#000000" points="694.5,-174 688.5,-174 "/>
<text text-anchor="middle" x="592.5" y="-158.3" font-family="Patua One" font-size="14.00" fill="#b03a2e">Fuzzing with Input Fragments</text>
</a>
</g>
</g>
<!-- Parser&#45;&gt;LangFuzzer -->
<g id="edge15" class="edge">
<title>Parser&#45;&gt;LangFuzzer</title>
<path fill="none" stroke="#000000" d="M472.8748,-215.8314C494.1787,-206.2446 520.4983,-194.4008 543.0211,-184.2655"/>
<polygon fill="#000000" stroke="#000000" points="544.7326,-187.3334 552.4156,-180.038 541.8601,-180.95 544.7326,-187.3334"/>
</g>
<!-- GeneratorGrammarFuzzer&#45;&gt;APIFuzzer -->
<g id="edge18" class="edge">
<title>GeneratorGrammarFuzzer&#45;&gt;APIFuzzer</title>
<path fill="none" stroke="#000000" d="M712.3724,-145.5946C709.3793,-145.05 706.4147,-144.5169 703.5,-144 606.8089,-126.8541 494.0013,-109.1417 427.0614,-98.8703"/>
<polygon fill="#000000" stroke="#000000" points="427.538,-95.4025 417.1234,-97.3483 426.4783,-102.3219 427.538,-95.4025"/>
</g>
<!-- APIFuzzer&#45;&gt;Carver -->
<g id="edge19" class="edge">
<title>APIFuzzer&#45;&gt;Carver</title>
<path fill="none" stroke="#000000" d="M351.8454,-71.8314C344.0886,-63.3694 334.7198,-53.1489 326.239,-43.8971"/>
<polygon fill="#000000" stroke="#000000" points="328.7162,-41.4198 319.3788,-36.4133 323.5561,-46.1499 328.7162,-41.4198"/>
</g>
</g>
</svg>
