<?xml version="1.0" encoding="UTF-8" standalone="no"?>
<!DOCTYPE svg PUBLIC "-//W3C//DTD SVG 1.1//EN"
 "http://www.w3.org/Graphics/SVG/1.1/DTD/svg11.dtd">
<!-- Generated by graphviz version 2.40.1 (20161225.0304)
 -->
<!-- Title: %3 Pages: 1 -->
<svg width="1086pt" height="580pt"
 viewBox="0.00 0.00 1086.00 580.00" xmlns="http://www.w3.org/2000/svg" xmlns:xlink="http://www.w3.org/1999/xlink">
<g id="graph0" class="graph" transform="scale(1 1) rotate(0) translate(4 576)">
<title>%3</title>
<polygon fill="#ffffff" stroke="transparent" points="-4,4 -4,-576 1082,-576 1082,4 -4,4"/>
<g id="clust1" class="cluster">
<title>cluster_01_Intro</title>
<polygon fill="#d3d3d3" stroke="#000000" points="210,-512 210,-564 652,-564 652,-512 210,-512"/>
</g>
<g id="clust2" class="cluster">
<title>cluster_02_Lexical_Fuzzing</title>
<polygon fill="#d3d3d3" stroke="#000000" points="8,-296 8,-492 488,-492 488,-296 8,-296"/>
</g>
<g id="clust3" class="cluster">
<title>cluster_03_Syntactical_Fuzzing</title>
<polygon fill="#d3d3d3" stroke="#000000" points="496,-152 496,-420 1070,-420 1070,-152 496,-152"/>
</g>
<g id="clust4" class="cluster">
<title>cluster_05_Domain&#45;Specific_Fuzzing</title>
<polygon fill="#d3d3d3" stroke="#000000" points="487,-8 487,-132 996,-132 996,-8 487,-8"/>
</g>
<!-- 01_Intro -->
<g id="node1" class="node">
<title>01_Intro</title>
<g id="a_node1"><a xlink:href="01_Intro.ipynb" xlink:title="01_Intro">
<text text-anchor="middle" x="550" y="-534.3" font-family="Patua One" font-size="14.00" fill="#000000">Part I: Whetting Your Appetite</text>
</a>
</g>
</g>
<!-- Intro_Testing -->
<g id="node2" class="node">
<title>Intro_Testing</title>
<g id="a_node2"><a xlink:href="Intro_Testing.ipynb" xlink:title="Intro_Testing">
<polygon fill="#ffffff" stroke="#000000" points="431.5,-556 218.5,-556 218.5,-520 437.5,-520 437.5,-550 431.5,-556"/>
<polyline fill="none" stroke="#000000" points="431.5,-556 431.5,-550 "/>
<polyline fill="none" stroke="#000000" points="437.5,-550 431.5,-550 "/>
<text text-anchor="middle" x="328" y="-534.3" font-family="Patua One" font-size="14.00" fill="#b03a2e">Introduction to Software Testing</text>
</a>
</g>
</g>
<!-- Fuzzer -->
<g id="node3" class="node">
<title>Fuzzer</title>
<g id="a_node3"><a xlink:href="Fuzzer.ipynb" xlink:title="Fuzzer">
<polygon fill="#ffffff" stroke="#000000" points="474,-484 176,-484 176,-448 480,-448 480,-478 474,-484"/>
<polyline fill="none" stroke="#000000" points="474,-484 474,-478 "/>
<polyline fill="none" stroke="#000000" points="480,-478 474,-478 "/>
<text text-anchor="middle" x="328" y="-462.3" font-family="Patua One" font-size="14.00" fill="#b03a2e">Fuzzing: Breaking Things with Random Inputs</text>
</a>
</g>
</g>
<!-- Intro_Testing&#45;&gt;Fuzzer -->
<g id="edge1" class="edge">
<title>Intro_Testing&#45;&gt;Fuzzer</title>
<path fill="none" stroke="#000000" d="M328,-519.8314C328,-512.131 328,-502.9743 328,-494.4166"/>
<polygon fill="#000000" stroke="#000000" points="331.5001,-494.4132 328,-484.4133 324.5001,-494.4133 331.5001,-494.4132"/>
</g>
<!-- Coverage -->
<g id="node4" class="node">
<title>Coverage</title>
<g id="a_node4"><a xlink:href="Coverage.ipynb" xlink:title="Coverage">
<polygon fill="#ffffff" stroke="#000000" points="445.5,-412 328.5,-412 328.5,-376 451.5,-376 451.5,-406 445.5,-412"/>
<polyline fill="none" stroke="#000000" points="445.5,-412 445.5,-406 "/>
<polyline fill="none" stroke="#000000" points="451.5,-406 445.5,-406 "/>
<text text-anchor="middle" x="390" y="-390.3" font-family="Patua One" font-size="14.00" fill="#b03a2e">Getting Coverage</text>
</a>
</g>
</g>
<!-- Fuzzer&#45;&gt;Coverage -->
<g id="edge2" class="edge">
<title>Fuzzer&#45;&gt;Coverage</title>
<path fill="none" stroke="#000000" d="M343.6452,-447.8314C350.8591,-439.454 359.557,-429.3531 367.4605,-420.1749"/>
<polygon fill="#000000" stroke="#000000" points="370.2711,-422.2748 374.1441,-412.4133 364.9667,-417.7071 370.2711,-422.2748"/>
</g>
<!-- Grammars -->
<g id="node7" class="node">
<title>Grammars</title>
<g id="a_node7"><a xlink:href="Grammars.ipynb" xlink:title="Grammars">
<polygon fill="#ffffff" stroke="#000000" points="888.5,-412 729.5,-412 729.5,-376 894.5,-376 894.5,-406 888.5,-412"/>
<polyline fill="none" stroke="#000000" points="888.5,-412 888.5,-406 "/>
<polyline fill="none" stroke="#000000" points="894.5,-406 888.5,-406 "/>
<text text-anchor="middle" x="812" y="-390.3" font-family="Patua One" font-size="14.00" fill="#b03a2e">Fuzzing with Grammars</text>
</a>
</g>
</g>
<!-- Fuzzer&#45;&gt;Grammars -->
<g id="edge3" class="edge">
<title>Fuzzer&#45;&gt;Grammars</title>
<path fill="none" stroke="#000000" d="M480.2412,-452.0982C550.2358,-444.5611 634.1604,-433.9054 709,-420 717.7886,-418.3671 726.9415,-416.4204 736.0056,-414.3375"/>
<polygon fill="#000000" stroke="#000000" points="736.8548,-417.7333 745.7849,-412.0321 735.2486,-410.9201 736.8548,-417.7333"/>
</g>
<!-- MutationFuzzer -->
<g id="node5" class="node">
<title>MutationFuzzer</title>
<g id="a_node5"><a xlink:href="MutationFuzzer.ipynb" xlink:title="MutationFuzzer">
<polygon fill="#ffffff" stroke="#000000" points="441.5,-340 278.5,-340 278.5,-304 447.5,-304 447.5,-334 441.5,-340"/>
<polyline fill="none" stroke="#000000" points="441.5,-340 441.5,-334 "/>
<polyline fill="none" stroke="#000000" points="447.5,-334 441.5,-334 "/>
<text text-anchor="middle" x="363" y="-318.3" font-family="Patua One" font-size="14.00" fill="#b03a2e">Mutation&#45;Based Fuzzing</text>
</a>
</g>
</g>
<!-- Coverage&#45;&gt;MutationFuzzer -->
<g id="edge4" class="edge">
<title>Coverage&#45;&gt;MutationFuzzer</title>
<path fill="none" stroke="#000000" d="M383.1868,-375.8314C380.2356,-367.9617 376.7142,-358.5712 373.445,-349.8533"/>
<polygon fill="#000000" stroke="#000000" points="376.6934,-348.5476 369.905,-340.4133 370.1391,-351.0055 376.6934,-348.5476"/>
</g>
<!-- GrammarCoverageFuzzer -->
<g id="node9" class="node">
<title>GrammarCoverageFuzzer</title>
<g id="a_node9"><a xlink:href="GrammarCoverageFuzzer.ipynb" xlink:title="GrammarCoverageFuzzer">
<polygon fill="#ffffff" stroke="#000000" points="1055.5,-268 926.5,-268 926.5,-232 1061.5,-232 1061.5,-262 1055.5,-268"/>
<polyline fill="none" stroke="#000000" points="1055.5,-268 1055.5,-262 "/>
<polyline fill="none" stroke="#000000" points="1061.5,-262 1055.5,-262 "/>
<text text-anchor="middle" x="994" y="-246.3" font-family="Patua One" font-size="14.00" fill="#b03a2e">Grammar Coverage</text>
</a>
</g>
</g>
<!-- Coverage&#45;&gt;GrammarCoverageFuzzer -->
<g id="edge5" class="edge">
<title>Coverage&#45;&gt;GrammarCoverageFuzzer</title>
<path fill="none" stroke="#000000" d="M441.6305,-375.9356C505.7193,-354.1282 618.7128,-317.6883 718,-296 802.1904,-277.6095 827.4418,-283.9121 916.4742,-267.9813"/>
<polygon fill="#000000" stroke="#000000" points="917.2617,-271.3953 926.4664,-266.149 915.9991,-264.5101 917.2617,-271.3953"/>
</g>
<!-- ProbabilisticGrammarFuzzer -->
<g id="node11" class="node">
<title>ProbabilisticGrammarFuzzer</title>
<g id="a_node11"><a xlink:href="ProbabilisticGrammarFuzzer.ipynb" xlink:title="ProbabilisticGrammarFuzzer">
<polygon fill="#ffffff" stroke="#000000" points="711,-196 509,-196 509,-160 717,-160 717,-190 711,-196"/>
<polyline fill="none" stroke="#000000" points="711,-196 711,-190 "/>
<polyline fill="none" stroke="#000000" points="717,-190 711,-190 "/>
<text text-anchor="middle" x="613" y="-174.3" font-family="Patua One" font-size="14.00" fill="#b03a2e">Probabilistic Grammar Fuzzing</text>
</a>
</g>
</g>
<!-- Coverage&#45;&gt;ProbabilisticGrammarFuzzer -->
<g id="edge6" class="edge">
<title>Coverage&#45;&gt;ProbabilisticGrammarFuzzer</title>
<path fill="none" stroke="#000000" d="M419.2214,-375.9107C432.3016,-366.565 446.996,-354.1509 457,-340 486.3738,-298.4499 460.6903,-269.5776 495,-232 507.3686,-218.4533 523.8062,-208.0612 540.4731,-200.1874"/>
<polygon fill="#000000" stroke="#000000" points="542.018,-203.3309 549.7318,-196.0682 539.1725,-196.9354 542.018,-203.3309"/>
</g>
<!-- 02_Lexical_Fuzzing -->
<g id="node6" class="node">
<title>02_Lexical_Fuzzing</title>
<g id="a_node6"><a xlink:href="02_Lexical_Fuzzing.ipynb" xlink:title="02_Lexical_Fuzzing">
<text text-anchor="middle" x="87" y="-462.3" font-family="Patua One" font-size="14.00" fill="#000000">Part II: Lexical Fuzzing</text>
</a>
</g>
</g>
<!-- GrammarFuzzer -->
<g id="node8" class="node">
<title>GrammarFuzzer</title>
<g id="a_node8"><a xlink:href="GrammarFuzzer.ipynb" xlink:title="GrammarFuzzer">
<polygon fill="#ffffff" stroke="#000000" points="903.5,-340 726.5,-340 726.5,-304 909.5,-304 909.5,-334 903.5,-340"/>
<polyline fill="none" stroke="#000000" points="903.5,-340 903.5,-334 "/>
<polyline fill="none" stroke="#000000" points="909.5,-334 903.5,-334 "/>
<text text-anchor="middle" x="818" y="-318.3" font-family="Patua One" font-size="14.00" fill="#b03a2e">Efficient Grammar Fuzzing</text>
</a>
</g>
</g>
<!-- Grammars&#45;&gt;GrammarFuzzer -->
<g id="edge7" class="edge">
<title>Grammars&#45;&gt;GrammarFuzzer</title>
<path fill="none" stroke="#000000" d="M813.5141,-375.8314C814.1558,-368.131 814.9188,-358.9743 815.6319,-350.4166"/>
<polygon fill="#000000" stroke="#000000" points="819.1229,-350.6694 816.4656,-340.4133 812.1471,-350.088 819.1229,-350.6694"/>
</g>
<!-- GrammarFuzzer&#45;&gt;GrammarCoverageFuzzer -->
<g id="edge8" class="edge">
<title>GrammarFuzzer&#45;&gt;GrammarCoverageFuzzer</title>
<path fill="none" stroke="#000000" d="M862.4122,-303.8314C886.1604,-294.1162 915.5746,-282.0831 940.5664,-271.8592"/>
<polygon fill="#000000" stroke="#000000" points="941.9769,-275.0638 949.9071,-268.038 939.3264,-268.585 941.9769,-275.0638"/>
</g>
<!-- Parser -->
<g id="node10" class="node">
<title>Parser</title>
<g id="a_node10"><a xlink:href="Parser.ipynb" xlink:title="Parser">
<polygon fill="#ffffff" stroke="#000000" points="716,-268 504,-268 504,-232 722,-232 722,-262 716,-268"/>
<polyline fill="none" stroke="#000000" points="716,-268 716,-262 "/>
<polyline fill="none" stroke="#000000" points="722,-262 716,-262 "/>
<text text-anchor="middle" x="613" y="-246.3" font-family="Patua One" font-size="14.00" fill="#b03a2e">Parsing and Recombining Inputs</text>
</a>
</g>
</g>
<!-- GrammarFuzzer&#45;&gt;Parser -->
<g id="edge9" class="edge">
<title>GrammarFuzzer&#45;&gt;Parser</title>
<path fill="none" stroke="#000000" d="M766.5345,-303.9243C738.5098,-294.0815 703.6516,-281.8386 674.236,-271.5073"/>
<polygon fill="#000000" stroke="#000000" points="675.0816,-268.0947 664.4867,-268.0831 672.7619,-274.6992 675.0816,-268.0947"/>
</g>
<!-- GeneratorGrammarFuzzer -->
<g id="node12" class="node">
<title>GeneratorGrammarFuzzer</title>
<g id="a_node12"><a xlink:href="GeneratorGrammarFuzzer.ipynb" xlink:title="GeneratorGrammarFuzzer">
<polygon fill="#ffffff" stroke="#000000" points="902,-268 740,-268 740,-232 908,-232 908,-262 902,-268"/>
<polyline fill="none" stroke="#000000" points="902,-268 902,-262 "/>
<polyline fill="none" stroke="#000000" points="908,-262 902,-262 "/>
<text text-anchor="middle" x="824" y="-246.3" font-family="Patua One" font-size="14.00" fill="#b03a2e">Fuzzing with Generators</text>
</a>
</g>
</g>
<!-- GrammarFuzzer&#45;&gt;GeneratorGrammarFuzzer -->
<g id="edge10" class="edge">
<title>GrammarFuzzer&#45;&gt;GeneratorGrammarFuzzer</title>
<path fill="none" stroke="#000000" d="M819.5141,-303.8314C820.1558,-296.131 820.9188,-286.9743 821.6319,-278.4166"/>
<polygon fill="#000000" stroke="#000000" points="825.1229,-278.6694 822.4656,-268.4133 818.1471,-278.088 825.1229,-278.6694"/>
</g>
<!-- ConfigurationFuzzer -->
<g id="node14" class="node">
<title>ConfigurationFuzzer</title>
<g id="a_node14"><a xlink:href="ConfigurationFuzzer.ipynb" xlink:title="ConfigurationFuzzer">
<polygon fill="#ffffff" stroke="#000000" points="981.5,-124 828.5,-124 828.5,-88 987.5,-88 987.5,-118 981.5,-124"/>
<polyline fill="none" stroke="#000000" points="981.5,-124 981.5,-118 "/>
<polyline fill="none" stroke="#000000" points="987.5,-118 981.5,-118 "/>
<text text-anchor="middle" x="908" y="-102.3" font-family="Patua One" font-size="14.00" fill="#b03a2e">Testing Configurations</text>
</a>
</g>
</g>
<!-- GrammarCoverageFuzzer&#45;&gt;ConfigurationFuzzer -->
<g id="edge11" class="edge">
<title>GrammarCoverageFuzzer&#45;&gt;ConfigurationFuzzer</title>
<path fill="none" stroke="#000000" d="M983.108,-231.7623C968.181,-206.7682 941.2607,-161.6924 924.03,-132.8409"/>
<polygon fill="#000000" stroke="#000000" points="926.9359,-130.8805 918.8035,-124.0896 920.9261,-134.4697 926.9359,-130.8805"/>
</g>
<!-- Carver -->
<g id="node16" class="node">
<title>Carver</title>
<g id="a_node16"><a xlink:href="Carver.ipynb" xlink:title="Carver">
<polygon fill="#ffffff" stroke="#000000" points="901.5,-52 776.5,-52 776.5,-16 907.5,-16 907.5,-46 901.5,-52"/>
<polyline fill="none" stroke="#000000" points="901.5,-52 901.5,-46 "/>
<polyline fill="none" stroke="#000000" points="907.5,-46 901.5,-46 "/>
<text text-anchor="middle" x="842" y="-30.3" font-family="Patua One" font-size="14.00" fill="#b03a2e">Carving Unit Tests</text>
</a>
</g>
</g>
<!-- GrammarCoverageFuzzer&#45;&gt;Carver -->
<g id="edge12" class="edge">
<title>GrammarCoverageFuzzer&#45;&gt;Carver</title>
<path fill="none" stroke="#000000" d="M1000.6684,-231.9365C1011.3101,-199.7012 1027.9577,-131.5679 997,-88 987.0474,-73.9934 952.0751,-61.1998 917.8641,-51.5847"/>
<polygon fill="#000000" stroke="#000000" points="918.3488,-48.089 907.78,-48.8321 916.5054,-54.842 918.3488,-48.089"/>
</g>
<!-- Parser&#45;&gt;ProbabilisticGrammarFuzzer -->
<g id="edge13" class="edge">
<title>Parser&#45;&gt;ProbabilisticGrammarFuzzer</title>
<path fill="none" stroke="#000000" d="M613,-231.8314C613,-224.131 613,-214.9743 613,-206.4166"/>
<polygon fill="#000000" stroke="#000000" points="616.5001,-206.4132 613,-196.4133 609.5001,-206.4133 616.5001,-206.4132"/>
</g>
<!-- APIFuzzer -->
<g id="node15" class="node">
<title>APIFuzzer</title>
<g id="a_node15"><a xlink:href="APIFuzzer.ipynb" xlink:title="APIFuzzer">
<polygon fill="#ffffff" stroke="#000000" points="804.5,-124 713.5,-124 713.5,-88 810.5,-88 810.5,-118 804.5,-124"/>
<polyline fill="none" stroke="#000000" points="804.5,-124 804.5,-118 "/>
<polyline fill="none" stroke="#000000" points="810.5,-118 804.5,-118 "/>
<text text-anchor="middle" x="762" y="-102.3" font-family="Patua One" font-size="14.00" fill="#b03a2e">Fuzzing APIs</text>
</a>
</g>
</g>
<!-- ProbabilisticGrammarFuzzer&#45;&gt;APIFuzzer -->
<g id="edge14" class="edge">
<title>ProbabilisticGrammarFuzzer&#45;&gt;APIFuzzer</title>
<path fill="none" stroke="#000000" d="M650.599,-159.8314C670.3497,-150.2874 694.7297,-138.5065 715.6417,-128.4013"/>
<polygon fill="#000000" stroke="#000000" points="717.1903,-131.5403 724.6714,-124.038 714.1447,-125.2376 717.1903,-131.5403"/>
</g>
<!-- GeneratorGrammarFuzzer&#45;&gt;APIFuzzer -->
<g id="edge15" class="edge">
<title>GeneratorGrammarFuzzer&#45;&gt;APIFuzzer</title>
<path fill="none" stroke="#000000" d="M816.1477,-231.7623C805.4795,-206.9846 786.3141,-162.4714 773.8807,-133.5939"/>
<polygon fill="#000000" stroke="#000000" points="776.9579,-131.8903 769.7886,-124.0896 770.5285,-134.6586 776.9579,-131.8903"/>
</g>
<!-- 03_Syntactical_Fuzzing -->
<g id="node13" class="node">
<title>03_Syntactical_Fuzzing</title>
<g id="a_node13"><a xlink:href="03_Syntactical_Fuzzing.ipynb" xlink:title="03_Syntactical_Fuzzing">
<text text-anchor="middle" x="614" y="-390.3" font-family="Patua One" font-size="14.00" fill="#000000">Part III: Syntactical Fuzzing</text>
</a>
</g>
</g>
<!-- APIFuzzer&#45;&gt;Carver -->
<g id="edge16" class="edge">
<title>APIFuzzer&#45;&gt;Carver</title>
<path fill="none" stroke="#000000" d="M782.1874,-87.8314C791.8514,-79.1337 803.5796,-68.5783 814.0816,-59.1265"/>
<polygon fill="#000000" stroke="#000000" points="816.7275,-61.454 821.8191,-52.1628 812.0447,-56.251 816.7275,-61.454"/>
</g>
<!-- 05_Domain&#45;Specific_Fuzzing -->
<g id="node17" class="node">
<title>05_Domain&#45;Specific_Fuzzing</title>
<g id="a_node17"><a xlink:href="05_Domain-Specific_Fuzzing.ipynb" xlink:title="05_Domain&#45;Specific_Fuzzing">
<text text-anchor="middle" x="595" y="-102.3" font-family="Patua One" font-size="14.00" fill="#000000">Part V: Domain&#45;Specific Fuzzing</text>
</a>
</g>
</g>
</g>
</svg>
