<?xml version="1.0" encoding="UTF-8" standalone="no"?>
<!DOCTYPE svg PUBLIC "-//W3C//DTD SVG 1.1//EN"
 "http://www.w3.org/Graphics/SVG/1.1/DTD/svg11.dtd">
<!-- Generated by graphviz version 2.40.1 (20161225.0304)
 -->
<!-- Title: %3 Pages: 1 -->
<svg width="1750pt" height="548pt"
 viewBox="0.00 0.00 1749.50 548.00" xmlns="http://www.w3.org/2000/svg" xmlns:xlink="http://www.w3.org/1999/xlink">
<g id="graph0" class="graph" transform="scale(1 1) rotate(0) translate(4 544)">
<title>%3</title>
<polygon fill="#ffffff" stroke="transparent" points="-4,4 -4,-544 1745.5,-544 1745.5,4 -4,4"/>
<!-- Fuzzer -->
<g id="node1" class="node">
<title>Fuzzer</title>
<g id="a_node1"><a xlink:href="Fuzzer.ipynb" xlink:title="Fuzzer">
<polygon fill="#ffffff" stroke="#000000" points="971.5,-468 673.5,-468 673.5,-432 977.5,-432 977.5,-462 971.5,-468"/>
<polyline fill="none" stroke="#000000" points="971.5,-468 971.5,-462 "/>
<polyline fill="none" stroke="#000000" points="977.5,-462 971.5,-462 "/>
<text text-anchor="middle" x="825.5" y="-446.3" font-family="Patua One" font-size="14.00" fill="#b03a2e">Fuzzing: Breaking Things with Random Inputs</text>
</a>
</g>
</g>
<!-- Coverage -->
<g id="node2" class="node">
<title>Coverage</title>
<g id="a_node2"><a xlink:href="Coverage.ipynb" xlink:title="Coverage">
<polygon fill="#ffffff" stroke="#000000" points="946,-324 829,-324 829,-288 952,-288 952,-318 946,-324"/>
<polyline fill="none" stroke="#000000" points="946,-324 946,-318 "/>
<polyline fill="none" stroke="#000000" points="952,-318 946,-318 "/>
<text text-anchor="middle" x="890.5" y="-302.3" font-family="Patua One" font-size="14.00" fill="#b03a2e">Getting Coverage</text>
</a>
</g>
</g>
<!-- Fuzzer&#45;&gt;Coverage -->
<g id="edge1" class="edge">
<title>Fuzzer&#45;&gt;Coverage</title>
<path fill="none" stroke="#000000" d="M826.6883,-431.8991C828.5113,-413.0912 833.0888,-383.2177 844.5,-360 849.4399,-349.949 856.6747,-340.2248 863.9507,-331.8635"/>
<polygon fill="#000000" stroke="#000000" points="866.7023,-334.0409 870.8657,-324.2983 861.5355,-329.3181 866.7023,-334.0409"/>
</g>
<!-- SearchBasedFuzzer -->
<g id="node3" class="node">
<title>SearchBasedFuzzer</title>
<g id="a_node3"><a xlink:href="SearchBasedFuzzer.ipynb" xlink:title="SearchBasedFuzzer">
<polygon fill="#ffffff" stroke="#000000" points="999.5,-396 853.5,-396 853.5,-360 1005.5,-360 1005.5,-390 999.5,-396"/>
<polyline fill="none" stroke="#000000" points="999.5,-396 999.5,-390 "/>
<polyline fill="none" stroke="#000000" points="1005.5,-390 999.5,-390 "/>
<text text-anchor="middle" x="929.5" y="-374.3" font-family="Patua One" font-size="14.00" fill="#b03a2e">Search&#45;Based Fuzzing</text>
</a>
</g>
</g>
<!-- Fuzzer&#45;&gt;SearchBasedFuzzer -->
<g id="edge2" class="edge">
<title>Fuzzer&#45;&gt;SearchBasedFuzzer</title>
<path fill="none" stroke="#000000" d="M851.7436,-431.8314C864.7995,-422.7927 880.7535,-411.7476 894.8047,-402.0198"/>
<polygon fill="#000000" stroke="#000000" points="897.0351,-404.7326 903.2648,-396.1628 893.0506,-398.9773 897.0351,-404.7326"/>
</g>
<!-- Grammars -->
<g id="node4" class="node">
<title>Grammars</title>
<g id="a_node4"><a xlink:href="Grammars.ipynb" xlink:title="Grammars">
<polygon fill="#ffffff" stroke="#000000" points="726,-396 567,-396 567,-360 732,-360 732,-390 726,-396"/>
<polyline fill="none" stroke="#000000" points="726,-396 726,-390 "/>
<polyline fill="none" stroke="#000000" points="732,-390 726,-390 "/>
<text text-anchor="middle" x="649.5" y="-374.3" font-family="Patua One" font-size="14.00" fill="#b03a2e">Fuzzing with Grammars</text>
</a>
</g>
</g>
<!-- Fuzzer&#45;&gt;Grammars -->
<g id="edge3" class="edge">
<title>Fuzzer&#45;&gt;Grammars</title>
<path fill="none" stroke="#000000" d="M781.0878,-431.8314C757.3396,-422.1162 727.9254,-410.0831 702.9336,-399.8592"/>
<polygon fill="#000000" stroke="#000000" points="704.1736,-396.585 693.5929,-396.038 701.5231,-403.0638 704.1736,-396.585"/>
</g>
<!-- MutationFuzzer -->
<g id="node6" class="node">
<title>MutationFuzzer</title>
<g id="a_node6"><a xlink:href="MutationFuzzer.ipynb" xlink:title="MutationFuzzer">
<polygon fill="#ffffff" stroke="#000000" points="1139,-252 976,-252 976,-216 1145,-216 1145,-246 1139,-252"/>
<polyline fill="none" stroke="#000000" points="1139,-252 1139,-246 "/>
<polyline fill="none" stroke="#000000" points="1145,-246 1139,-246 "/>
<text text-anchor="middle" x="1060.5" y="-230.3" font-family="Patua One" font-size="14.00" fill="#b03a2e">Mutation&#45;Based Fuzzing</text>
</a>
</g>
</g>
<!-- Coverage&#45;&gt;MutationFuzzer -->
<g id="edge5" class="edge">
<title>Coverage&#45;&gt;MutationFuzzer</title>
<path fill="none" stroke="#000000" d="M933.3982,-287.8314C956.2357,-278.159 984.498,-266.1891 1008.5687,-255.9944"/>
<polygon fill="#000000" stroke="#000000" points="1010.0671,-259.1608 1017.9103,-252.038 1007.3371,-252.7151 1010.0671,-259.1608"/>
</g>
<!-- MutationAnalysis -->
<g id="node7" class="node">
<title>MutationAnalysis</title>
<g id="a_node7"><a xlink:href="MutationAnalysis.ipynb" xlink:title="MutationAnalysis">
<polygon fill="#ffffff" stroke="#000000" points="1507.5,-252 1163.5,-252 1163.5,-216 1513.5,-216 1513.5,-246 1507.5,-252"/>
<polyline fill="none" stroke="#000000" points="1507.5,-252 1507.5,-246 "/>
<polyline fill="none" stroke="#000000" points="1513.5,-246 1507.5,-246 "/>
<text text-anchor="middle" x="1338.5" y="-230.3" font-family="Patua One" font-size="14.00" fill="#b03a2e">Evaluating Test Effectiveness with Mutation Analysis</text>
</a>
</g>
</g>
<!-- Coverage&#45;&gt;MutationAnalysis -->
<g id="edge6" class="edge">
<title>Coverage&#45;&gt;MutationAnalysis</title>
<path fill="none" stroke="#000000" d="M952.3221,-296.0643C1020.2048,-285.1546 1130.9164,-267.3616 1216.4337,-253.6178"/>
<polygon fill="#000000" stroke="#000000" points="1217.1509,-257.0475 1226.4688,-252.005 1216.0401,-250.1362 1217.1509,-257.0475"/>
</g>
<!-- GrammarCoverageFuzzer -->
<g id="node8" class="node">
<title>GrammarCoverageFuzzer</title>
<g id="a_node8"><a xlink:href="GrammarCoverageFuzzer.ipynb" xlink:title="GrammarCoverageFuzzer">
<polygon fill="#ffffff" stroke="#000000" points="952,-252 823,-252 823,-216 958,-216 958,-246 952,-252"/>
<polyline fill="none" stroke="#000000" points="952,-252 952,-246 "/>
<polyline fill="none" stroke="#000000" points="958,-246 952,-246 "/>
<text text-anchor="middle" x="890.5" y="-230.3" font-family="Patua One" font-size="14.00" fill="#b03a2e">Grammar Coverage</text>
</a>
</g>
</g>
<!-- Coverage&#45;&gt;GrammarCoverageFuzzer -->
<g id="edge7" class="edge">
<title>Coverage&#45;&gt;GrammarCoverageFuzzer</title>
<path fill="none" stroke="#000000" d="M890.5,-287.8314C890.5,-280.131 890.5,-270.9743 890.5,-262.4166"/>
<polygon fill="#000000" stroke="#000000" points="894.0001,-262.4132 890.5,-252.4133 887.0001,-262.4133 894.0001,-262.4132"/>
</g>
<!-- ProbabilisticGrammarFuzzer -->
<g id="node9" class="node">
<title>ProbabilisticGrammarFuzzer</title>
<g id="a_node9"><a xlink:href="ProbabilisticGrammarFuzzer.ipynb" xlink:title="ProbabilisticGrammarFuzzer">
<polygon fill="#ffffff" stroke="#000000" points="618.5,-180 416.5,-180 416.5,-144 624.5,-144 624.5,-174 618.5,-180"/>
<polyline fill="none" stroke="#000000" points="618.5,-180 618.5,-174 "/>
<polyline fill="none" stroke="#000000" points="624.5,-174 618.5,-174 "/>
<text text-anchor="middle" x="520.5" y="-158.3" font-family="Patua One" font-size="14.00" fill="#b03a2e">Probabilistic Grammar Fuzzing</text>
</a>
</g>
</g>
<!-- Coverage&#45;&gt;ProbabilisticGrammarFuzzer -->
<g id="edge8" class="edge">
<title>Coverage&#45;&gt;ProbabilisticGrammarFuzzer</title>
<path fill="none" stroke="#000000" d="M828.7192,-297.5568C760.9184,-287.6003 656.9821,-270.1025 621.5,-252 600.4876,-241.2797 600.0625,-231.7481 582.5,-216 571.7447,-206.3559 559.8036,-195.8977 549.2952,-186.7763"/>
<polygon fill="#000000" stroke="#000000" points="551.4327,-183.9974 541.5819,-180.0972 546.8505,-189.2892 551.4327,-183.9974"/>
</g>
<!-- GrammarMiner -->
<g id="node10" class="node">
<title>GrammarMiner</title>
<g id="a_node10"><a xlink:href="GrammarMiner.ipynb" xlink:title="GrammarMiner">
<polygon fill="#ffffff" stroke="#000000" points="443,-252 282,-252 282,-216 449,-216 449,-246 443,-252"/>
<polyline fill="none" stroke="#000000" points="443,-252 443,-246 "/>
<polyline fill="none" stroke="#000000" points="449,-246 443,-246 "/>
<text text-anchor="middle" x="365.5" y="-230.3" font-family="Patua One" font-size="14.00" fill="#b03a2e">Mining Input Grammars</text>
</a>
</g>
</g>
<!-- Coverage&#45;&gt;GrammarMiner -->
<g id="edge9" class="edge">
<title>Coverage&#45;&gt;GrammarMiner</title>
<path fill="none" stroke="#000000" d="M828.6439,-299.6464C746.5009,-290.9066 596.6963,-273.9185 459.4705,-252.264"/>
<polygon fill="#000000" stroke="#000000" points="459.6188,-248.7436 449.1931,-250.6295 458.5193,-255.6568 459.6188,-248.7436"/>
</g>
<!-- DynamicInvariants -->
<g id="node11" class="node">
<title>DynamicInvariants</title>
<g id="a_node11"><a xlink:href="DynamicInvariants.ipynb" xlink:title="DynamicInvariants">
<polygon fill="#ffffff" stroke="#000000" points="1735.5,-252 1531.5,-252 1531.5,-216 1741.5,-216 1741.5,-246 1735.5,-252"/>
<polyline fill="none" stroke="#000000" points="1735.5,-252 1735.5,-246 "/>
<polyline fill="none" stroke="#000000" points="1741.5,-246 1735.5,-246 "/>
<text text-anchor="middle" x="1636.5" y="-230.3" font-family="Patua One" font-size="14.00" fill="#b03a2e">Mining Function Specifications</text>
</a>
</g>
</g>
<!-- Coverage&#45;&gt;DynamicInvariants -->
<g id="edge10" class="edge">
<title>Coverage&#45;&gt;DynamicInvariants</title>
<path fill="none" stroke="#000000" d="M952.1037,-302.2022C1063.5466,-295.0114 1306.2385,-277.8843 1521.0484,-252.1305"/>
<polygon fill="#000000" stroke="#000000" points="1521.7476,-255.5716 1531.2558,-250.8977 1520.9082,-248.6221 1521.7476,-255.5716"/>
</g>
<!-- GrammarFuzzer -->
<g id="node14" class="node">
<title>GrammarFuzzer</title>
<g id="a_node14"><a xlink:href="GrammarFuzzer.ipynb" xlink:title="GrammarFuzzer">
<polygon fill="#ffffff" stroke="#000000" points="606,-324 429,-324 429,-288 612,-288 612,-318 606,-324"/>
<polyline fill="none" stroke="#000000" points="606,-324 606,-318 "/>
<polyline fill="none" stroke="#000000" points="612,-318 606,-318 "/>
<text text-anchor="middle" x="520.5" y="-302.3" font-family="Patua One" font-size="14.00" fill="#b03a2e">Efficient Grammar Fuzzing</text>
</a>
</g>
</g>
<!-- Grammars&#45;&gt;GrammarFuzzer -->
<g id="edge13" class="edge">
<title>Grammars&#45;&gt;GrammarFuzzer</title>
<path fill="none" stroke="#000000" d="M616.9479,-359.8314C600.2952,-350.5368 579.8415,-339.1208 562.0615,-329.1971"/>
<polygon fill="#000000" stroke="#000000" points="563.4795,-325.9803 553.0417,-324.1628 560.0679,-332.0927 563.4795,-325.9803"/>
</g>
<!-- Intro_Testing -->
<g id="node5" class="node">
<title>Intro_Testing</title>
<g id="a_node5"><a xlink:href="Intro_Testing.ipynb" xlink:title="Intro_Testing">
<polygon fill="#ffffff" stroke="#000000" points="929,-540 716,-540 716,-504 935,-504 935,-534 929,-540"/>
<polyline fill="none" stroke="#000000" points="929,-540 929,-534 "/>
<polyline fill="none" stroke="#000000" points="935,-534 929,-534 "/>
<text text-anchor="middle" x="825.5" y="-518.3" font-family="Patua One" font-size="14.00" fill="#b03a2e">Introduction to Software Testing</text>
</a>
</g>
</g>
<!-- Intro_Testing&#45;&gt;Fuzzer -->
<g id="edge4" class="edge">
<title>Intro_Testing&#45;&gt;Fuzzer</title>
<path fill="none" stroke="#000000" d="M825.5,-503.8314C825.5,-496.131 825.5,-486.9743 825.5,-478.4166"/>
<polygon fill="#000000" stroke="#000000" points="829.0001,-478.4132 825.5,-468.4133 822.0001,-478.4133 829.0001,-478.4132"/>
</g>
<!-- GreyboxFuzzer -->
<g id="node12" class="node">
<title>GreyboxFuzzer</title>
<g id="a_node12"><a xlink:href="GreyboxFuzzer.ipynb" xlink:title="GreyboxFuzzer">
<polygon fill="#ffffff" stroke="#000000" points="1248.5,-180 1134.5,-180 1134.5,-144 1254.5,-144 1254.5,-174 1248.5,-180"/>
<polyline fill="none" stroke="#000000" points="1248.5,-180 1248.5,-174 "/>
<polyline fill="none" stroke="#000000" points="1254.5,-174 1248.5,-174 "/>
<text text-anchor="middle" x="1194.5" y="-158.3" font-family="Patua One" font-size="14.00" fill="#b03a2e">Greybox Fuzzing</text>
</a>
</g>
</g>
<!-- MutationFuzzer&#45;&gt;GreyboxFuzzer -->
<g id="edge11" class="edge">
<title>MutationFuzzer&#45;&gt;GreyboxFuzzer</title>
<path fill="none" stroke="#000000" d="M1094.3139,-215.8314C1111.7707,-206.4516 1133.2487,-194.9112 1151.8352,-184.9244"/>
<polygon fill="#000000" stroke="#000000" points="1153.5446,-187.9792 1160.697,-180.1628 1150.2314,-181.8129 1153.5446,-187.9792"/>
</g>
<!-- ConfigurationFuzzer -->
<g id="node19" class="node">
<title>ConfigurationFuzzer</title>
<g id="a_node19"><a xlink:href="ConfigurationFuzzer.ipynb" xlink:title="ConfigurationFuzzer">
<polygon fill="#ffffff" stroke="#000000" points="1072,-180 919,-180 919,-144 1078,-144 1078,-174 1072,-180"/>
<polyline fill="none" stroke="#000000" points="1072,-180 1072,-174 "/>
<polyline fill="none" stroke="#000000" points="1078,-174 1072,-174 "/>
<text text-anchor="middle" x="998.5" y="-158.3" font-family="Patua One" font-size="14.00" fill="#b03a2e">Testing Configurations</text>
</a>
</g>
</g>
<!-- GrammarCoverageFuzzer&#45;&gt;ConfigurationFuzzer -->
<g id="edge20" class="edge">
<title>GrammarCoverageFuzzer&#45;&gt;ConfigurationFuzzer</title>
<path fill="none" stroke="#000000" d="M917.753,-215.8314C931.4389,-206.7074 948.1915,-195.539 962.8827,-185.7449"/>
<polygon fill="#000000" stroke="#000000" points="964.8767,-188.6221 971.2558,-180.1628 960.9938,-182.7977 964.8767,-188.6221"/>
</g>
<!-- Carver -->
<g id="node20" class="node">
<title>Carver</title>
<g id="a_node20"><a xlink:href="Carver.ipynb" xlink:title="Carver">
<polygon fill="#ffffff" stroke="#000000" points="873,-36 748,-36 748,0 879,0 879,-30 873,-36"/>
<polyline fill="none" stroke="#000000" points="873,-36 873,-30 "/>
<polyline fill="none" stroke="#000000" points="879,-30 873,-30 "/>
<text text-anchor="middle" x="813.5" y="-14.3" font-family="Patua One" font-size="14.00" fill="#b03a2e">Carving Unit Tests</text>
</a>
</g>
</g>
<!-- GrammarCoverageFuzzer&#45;&gt;Carver -->
<g id="edge21" class="edge">
<title>GrammarCoverageFuzzer&#45;&gt;Carver</title>
<path fill="none" stroke="#000000" d="M958.1677,-217.4174C1013.1987,-203.6094 1082.4096,-185.3698 1086.5,-180 1096.1954,-167.2721 1094.7107,-157.7326 1086.5,-144 1045.1593,-74.8567 954.4491,-43.2876 888.9174,-29.1181"/>
<polygon fill="#000000" stroke="#000000" points="889.5365,-25.6721 879.0344,-27.0708 888.1165,-32.5266 889.5365,-25.6721"/>
</g>
<!-- GUIFuzzer -->
<g id="node21" class="node">
<title>GUIFuzzer</title>
<g id="a_node21"><a xlink:href="GUIFuzzer.ipynb" xlink:title="GUIFuzzer">
<polygon fill="#ffffff" stroke="#000000" points="894.5,-180 680.5,-180 680.5,-144 900.5,-144 900.5,-174 894.5,-180"/>
<polyline fill="none" stroke="#000000" points="894.5,-180 894.5,-174 "/>
<polyline fill="none" stroke="#000000" points="900.5,-174 894.5,-174 "/>
<text text-anchor="middle" x="790.5" y="-158.3" font-family="Patua One" font-size="14.00" fill="#b03a2e">Testing Graphical User Interfaces</text>
</a>
</g>
</g>
<!-- GrammarCoverageFuzzer&#45;&gt;GUIFuzzer -->
<g id="edge22" class="edge">
<title>GrammarCoverageFuzzer&#45;&gt;GUIFuzzer</title>
<path fill="none" stroke="#000000" d="M865.2658,-215.8314C852.712,-206.7927 837.3717,-195.7476 823.8609,-186.0198"/>
<polygon fill="#000000" stroke="#000000" points="825.8866,-183.1655 815.7261,-180.1628 821.7964,-188.8463 825.8866,-183.1655"/>
</g>
<!-- APIFuzzer -->
<g id="node23" class="node">
<title>APIFuzzer</title>
<g id="a_node23"><a xlink:href="APIFuzzer.ipynb" xlink:title="APIFuzzer">
<polygon fill="#ffffff" stroke="#000000" points="563,-108 472,-108 472,-72 569,-72 569,-102 563,-108"/>
<polyline fill="none" stroke="#000000" points="563,-108 563,-102 "/>
<polyline fill="none" stroke="#000000" points="569,-102 563,-102 "/>
<text text-anchor="middle" x="520.5" y="-86.3" font-family="Patua One" font-size="14.00" fill="#b03a2e">Fuzzing APIs</text>
</a>
</g>
</g>
<!-- ProbabilisticGrammarFuzzer&#45;&gt;APIFuzzer -->
<g id="edge26" class="edge">
<title>ProbabilisticGrammarFuzzer&#45;&gt;APIFuzzer</title>
<path fill="none" stroke="#000000" d="M520.5,-143.8314C520.5,-136.131 520.5,-126.9743 520.5,-118.4166"/>
<polygon fill="#000000" stroke="#000000" points="524.0001,-118.4132 520.5,-108.4133 517.0001,-118.4133 524.0001,-118.4132"/>
</g>
<!-- InformationFlow -->
<g id="node22" class="node">
<title>InformationFlow</title>
<g id="a_node22"><a xlink:href="InformationFlow.ipynb" xlink:title="InformationFlow">
<polygon fill="#ffffff" stroke="#000000" points="392,-180 215,-180 215,-144 398,-144 398,-174 392,-180"/>
<polyline fill="none" stroke="#000000" points="392,-180 392,-174 "/>
<polyline fill="none" stroke="#000000" points="398,-174 392,-174 "/>
<text text-anchor="middle" x="306.5" y="-158.3" font-family="Patua One" font-size="14.00" fill="#b03a2e">Tracking Information Flow</text>
</a>
</g>
</g>
<!-- GrammarMiner&#45;&gt;InformationFlow -->
<g id="edge28" class="edge">
<title>GrammarMiner&#45;&gt;InformationFlow</title>
<path fill="none" stroke="#000000" d="M350.6118,-215.8314C343.747,-207.454 335.4699,-197.3531 327.9489,-188.1749"/>
<polygon fill="#000000" stroke="#000000" points="330.6341,-185.9297 321.5886,-180.4133 325.2197,-190.3665 330.6341,-185.9297"/>
</g>
<!-- GreyboxGrammarFuzzer -->
<g id="node13" class="node">
<title>GreyboxGrammarFuzzer</title>
<g id="a_node13"><a xlink:href="GreyboxGrammarFuzzer.ipynb" xlink:title="GreyboxGrammarFuzzer">
<polygon fill="#ffffff" stroke="#000000" points="937.5,-108 723.5,-108 723.5,-72 943.5,-72 943.5,-102 937.5,-108"/>
<polyline fill="none" stroke="#000000" points="937.5,-108 937.5,-102 "/>
<polyline fill="none" stroke="#000000" points="943.5,-102 937.5,-102 "/>
<text text-anchor="middle" x="833.5" y="-86.3" font-family="Patua One" font-size="14.00" fill="#b03a2e">Greybox Fuzzing with Grammars</text>
</a>
</g>
</g>
<!-- GreyboxFuzzer&#45;&gt;GreyboxGrammarFuzzer -->
<g id="edge12" class="edge">
<title>GreyboxFuzzer&#45;&gt;GreyboxGrammarFuzzer</title>
<path fill="none" stroke="#000000" d="M1134.483,-150.0298C1079.959,-139.1552 998.4414,-122.8969 933.9884,-110.042"/>
<polygon fill="#000000" stroke="#000000" points="934.2888,-106.5331 923.7974,-108.0094 932.9196,-113.3979 934.2888,-106.5331"/>
</g>
<!-- GrammarFuzzer&#45;&gt;GrammarCoverageFuzzer -->
<g id="edge14" class="edge">
<title>GrammarFuzzer&#45;&gt;GrammarCoverageFuzzer</title>
<path fill="none" stroke="#000000" d="M612.1108,-290.2664C667.5062,-280.4805 739.764,-267.2377 813.0571,-252.0438"/>
<polygon fill="#000000" stroke="#000000" points="813.8584,-255.452 822.9341,-249.9855 812.4303,-248.5992 813.8584,-255.452"/>
</g>
<!-- GrammarFuzzer&#45;&gt;GrammarMiner -->
<g id="edge18" class="edge">
<title>GrammarFuzzer&#45;&gt;GrammarMiner</title>
<path fill="none" stroke="#000000" d="M481.387,-287.8314C460.7488,-278.2446 435.2516,-266.4008 413.4327,-256.2655"/>
<polygon fill="#000000" stroke="#000000" points="414.8756,-253.0766 404.3318,-252.038 411.9266,-259.4251 414.8756,-253.0766"/>
</g>
<!-- Parser -->
<g id="node15" class="node">
<title>Parser</title>
<g id="a_node15"><a xlink:href="Parser.ipynb" xlink:title="Parser">
<polygon fill="#ffffff" stroke="#000000" points="568,-252 467,-252 467,-216 574,-216 574,-246 568,-252"/>
<polyline fill="none" stroke="#000000" points="568,-252 568,-246 "/>
<polyline fill="none" stroke="#000000" points="574,-246 568,-246 "/>
<text text-anchor="middle" x="520.5" y="-230.3" font-family="Patua One" font-size="14.00" fill="#b03a2e">Parsing Inputs</text>
</a>
</g>
</g>
<!-- GrammarFuzzer&#45;&gt;Parser -->
<g id="edge15" class="edge">
<title>GrammarFuzzer&#45;&gt;Parser</title>
<path fill="none" stroke="#000000" d="M520.5,-287.8314C520.5,-280.131 520.5,-270.9743 520.5,-262.4166"/>
<polygon fill="#000000" stroke="#000000" points="524.0001,-262.4132 520.5,-252.4133 517.0001,-262.4133 524.0001,-262.4132"/>
</g>
<!-- GeneratorGrammarFuzzer -->
<g id="node16" class="node">
<title>GeneratorGrammarFuzzer</title>
<g id="a_node16"><a xlink:href="GeneratorGrammarFuzzer.ipynb" xlink:title="GeneratorGrammarFuzzer">
<polygon fill="#ffffff" stroke="#000000" points="190.5,-180 28.5,-180 28.5,-144 196.5,-144 196.5,-174 190.5,-180"/>
<polyline fill="none" stroke="#000000" points="190.5,-180 190.5,-174 "/>
<polyline fill="none" stroke="#000000" points="196.5,-174 190.5,-174 "/>
<text text-anchor="middle" x="112.5" y="-158.3" font-family="Patua One" font-size="14.00" fill="#b03a2e">Fuzzing with Generators</text>
</a>
</g>
</g>
<!-- GrammarFuzzer&#45;&gt;GeneratorGrammarFuzzer -->
<g id="edge16" class="edge">
<title>GrammarFuzzer&#45;&gt;GeneratorGrammarFuzzer</title>
<path fill="none" stroke="#000000" d="M428.7581,-297.769C380.1865,-290.5761 320.7722,-277.1253 272.5,-252 251.5756,-241.109 253.1979,-228.9784 233.5,-216 214.5954,-203.5442 192.3436,-192.6848 172.112,-184.035"/>
<polygon fill="#000000" stroke="#000000" points="173.2496,-180.7172 162.6731,-180.0941 170.5526,-187.1768 173.2496,-180.7172"/>
</g>
<!-- Reducer -->
<g id="node17" class="node">
<title>Reducer</title>
<g id="a_node17"><a xlink:href="Reducer.ipynb" xlink:title="Reducer">
<polygon fill="#ffffff" stroke="#000000" points="219,-252 0,-252 0,-216 225,-216 225,-246 219,-252"/>
<polyline fill="none" stroke="#000000" points="219,-252 219,-246 "/>
<polyline fill="none" stroke="#000000" points="225,-246 219,-246 "/>
<text text-anchor="middle" x="112.5" y="-230.3" font-family="Patua One" font-size="14.00" fill="#b03a2e">Reducing Failure&#45;Inducing Inputs</text>
</a>
</g>
</g>
<!-- GrammarFuzzer&#45;&gt;Reducer -->
<g id="edge17" class="edge">
<title>GrammarFuzzer&#45;&gt;Reducer</title>
<path fill="none" stroke="#000000" d="M428.9368,-289.8418C368.4999,-279.1765 288.9159,-265.1322 224.6802,-253.7965"/>
<polygon fill="#000000" stroke="#000000" points="224.964,-250.2926 214.5079,-252.0014 223.7474,-257.1861 224.964,-250.2926"/>
</g>
<!-- WebFuzzer -->
<g id="node18" class="node">
<title>WebFuzzer</title>
<g id="a_node18"><a xlink:href="WebFuzzer.ipynb" xlink:title="WebFuzzer">
<polygon fill="#ffffff" stroke="#000000" points="798.5,-252 630.5,-252 630.5,-216 804.5,-216 804.5,-246 798.5,-252"/>
<polyline fill="none" stroke="#000000" points="798.5,-252 798.5,-246 "/>
<polyline fill="none" stroke="#000000" points="804.5,-246 798.5,-246 "/>
<text text-anchor="middle" x="717.5" y="-230.3" font-family="Patua One" font-size="14.00" fill="#b03a2e">Testing Web Applications</text>
</a>
</g>
</g>
<!-- GrammarFuzzer&#45;&gt;WebFuzzer -->
<g id="edge19" class="edge">
<title>GrammarFuzzer&#45;&gt;WebFuzzer</title>
<path fill="none" stroke="#000000" d="M569.9571,-287.9243C596.7711,-278.1243 630.0949,-265.945 658.2847,-255.6422"/>
<polygon fill="#000000" stroke="#000000" points="659.8316,-258.8033 668.0225,-252.0831 657.4287,-252.2286 659.8316,-258.8033"/>
</g>
<!-- Parser&#45;&gt;ProbabilisticGrammarFuzzer -->
<g id="edge23" class="edge">
<title>Parser&#45;&gt;ProbabilisticGrammarFuzzer</title>
<path fill="none" stroke="#000000" d="M520.5,-215.8314C520.5,-208.131 520.5,-198.9743 520.5,-190.4166"/>
<polygon fill="#000000" stroke="#000000" points="524.0001,-190.4132 520.5,-180.4133 517.0001,-190.4133 524.0001,-190.4132"/>
</g>
<!-- Parser&#45;&gt;GreyboxGrammarFuzzer -->
<g id="edge24" class="edge">
<title>Parser&#45;&gt;GreyboxGrammarFuzzer</title>
<path fill="none" stroke="#000000" d="M566.5473,-215.9101C587.7798,-206.6042 612.8028,-194.2232 633.5,-180 652.6735,-166.8239 651.5466,-155.9624 671.5,-144 694.6102,-130.145 721.7306,-119.3214 747.1006,-111.123"/>
<polygon fill="#000000" stroke="#000000" points="748.2292,-114.4373 756.7261,-108.1086 746.1371,-107.7572 748.2292,-114.4373"/>
</g>
<!-- Parser&#45;&gt;InformationFlow -->
<g id="edge25" class="edge">
<title>Parser&#45;&gt;InformationFlow</title>
<path fill="none" stroke="#000000" d="M466.775,-215.9243C437.3927,-206.0387 400.8148,-193.7321 370.0242,-183.3726"/>
<polygon fill="#000000" stroke="#000000" points="370.8412,-179.9548 360.2471,-180.0831 368.6089,-186.5893 370.8412,-179.9548"/>
</g>
<!-- GeneratorGrammarFuzzer&#45;&gt;APIFuzzer -->
<g id="edge27" class="edge">
<title>GeneratorGrammarFuzzer&#45;&gt;APIFuzzer</title>
<path fill="none" stroke="#000000" d="M196.6344,-145.6323C199.6255,-145.077 202.5879,-144.5314 205.5,-144 294.6921,-127.7254 398.3598,-110.2261 461.685,-99.6961"/>
<polygon fill="#000000" stroke="#000000" points="462.5849,-103.0947 471.8765,-98.0037 461.4382,-96.1893 462.5849,-103.0947"/>
</g>
<!-- WebFuzzer&#45;&gt;GUIFuzzer -->
<g id="edge32" class="edge">
<title>WebFuzzer&#45;&gt;GUIFuzzer</title>
<path fill="none" stroke="#000000" d="M735.921,-215.8314C744.6529,-207.219 755.2317,-196.7851 764.7423,-187.4048"/>
<polygon fill="#000000" stroke="#000000" points="767.423,-189.6769 772.0849,-180.1628 762.5075,-184.6931 767.423,-189.6769"/>
</g>
<!-- ConcolicFuzzer -->
<g id="node24" class="node">
<title>ConcolicFuzzer</title>
<g id="a_node24"><a xlink:href="ConcolicFuzzer.ipynb" xlink:title="ConcolicFuzzer">
<polygon fill="#ffffff" stroke="#000000" points="360.5,-108 246.5,-108 246.5,-72 366.5,-72 366.5,-102 360.5,-108"/>
<polyline fill="none" stroke="#000000" points="360.5,-108 360.5,-102 "/>
<polyline fill="none" stroke="#000000" points="366.5,-102 360.5,-102 "/>
<text text-anchor="middle" x="306.5" y="-86.3" font-family="Patua One" font-size="14.00" fill="#b03a2e">Concolic Fuzzing</text>
</a>
</g>
</g>
<!-- InformationFlow&#45;&gt;ConcolicFuzzer -->
<g id="edge29" class="edge">
<title>InformationFlow&#45;&gt;ConcolicFuzzer</title>
<path fill="none" stroke="#000000" d="M306.5,-143.8314C306.5,-136.131 306.5,-126.9743 306.5,-118.4166"/>
<polygon fill="#000000" stroke="#000000" points="310.0001,-118.4132 306.5,-108.4133 303.0001,-118.4133 310.0001,-118.4132"/>
</g>
<!-- APIFuzzer&#45;&gt;Carver -->
<g id="edge31" class="edge">
<title>APIFuzzer&#45;&gt;Carver</title>
<path fill="none" stroke="#000000" d="M569.2119,-78.0298C615.2459,-66.7177 684.9872,-49.5799 738.1846,-36.5075"/>
<polygon fill="#000000" stroke="#000000" points="739.0399,-39.9016 747.9158,-34.1163 737.3694,-33.1038 739.0399,-39.9016"/>
</g>
<!-- SymbolicFuzzer -->
<g id="node25" class="node">
<title>SymbolicFuzzer</title>
<g id="a_node25"><a xlink:href="SymbolicFuzzer.ipynb" xlink:title="SymbolicFuzzer">
<polygon fill="#ffffff" stroke="#000000" points="363.5,-36 243.5,-36 243.5,0 369.5,0 369.5,-30 363.5,-36"/>
<polyline fill="none" stroke="#000000" points="363.5,-36 363.5,-30 "/>
<polyline fill="none" stroke="#000000" points="369.5,-30 363.5,-30 "/>
<text text-anchor="middle" x="306.5" y="-14.3" font-family="Patua One" font-size="14.00" fill="#b03a2e">Symbolic Fuzzing</text>
</a>
</g>
</g>
<!-- ConcolicFuzzer&#45;&gt;SymbolicFuzzer -->
<g id="edge30" class="edge">
<title>ConcolicFuzzer&#45;&gt;SymbolicFuzzer</title>
<path fill="none" stroke="#000000" d="M306.5,-71.8314C306.5,-64.131 306.5,-54.9743 306.5,-46.4166"/>
<polygon fill="#000000" stroke="#000000" points="310.0001,-46.4132 306.5,-36.4133 303.0001,-46.4133 310.0001,-46.4132"/>
</g>
</g>
</svg>
