<?xml version="1.0" encoding="UTF-8" standalone="no"?>
<!DOCTYPE svg PUBLIC "-//W3C//DTD SVG 1.1//EN"
 "http://www.w3.org/Graphics/SVG/1.1/DTD/svg11.dtd">
<!-- Generated by graphviz version 2.40.1 (20161225.0304)
 -->
<!-- Title: %3 Pages: 1 -->
<svg width="1225pt" height="548pt"
 viewBox="0.00 0.00 1224.50 548.00" xmlns="http://www.w3.org/2000/svg" xmlns:xlink="http://www.w3.org/1999/xlink">
<g id="graph0" class="graph" transform="scale(1 1) rotate(0) translate(4 544)">
<title>%3</title>
<polygon fill="#ffffff" stroke="transparent" points="-4,4 -4,-544 1220.5,-544 1220.5,4 -4,4"/>
<!-- Fuzzer -->
<g id="node1" class="node">
<title>Fuzzer</title>
<g id="a_node1"><a xlink:href="Fuzzer.ipynb" xlink:title="Fuzzer">
<polygon fill="#ffffff" stroke="#000000" points="646.5,-468 348.5,-468 348.5,-432 652.5,-432 652.5,-462 646.5,-468"/>
<polyline fill="none" stroke="#000000" points="646.5,-468 646.5,-462 "/>
<polyline fill="none" stroke="#000000" points="652.5,-462 646.5,-462 "/>
<text text-anchor="middle" x="500.5" y="-446.3" font-family="Patua One" font-size="14.00" fill="#b03a2e">Fuzzing: Breaking Things with Random Inputs</text>
</a>
</g>
</g>
<!-- Coverage -->
<g id="node2" class="node">
<title>Coverage</title>
<g id="a_node2"><a xlink:href="Coverage.ipynb" xlink:title="Coverage">
<polygon fill="#ffffff" stroke="#000000" points="406,-324 289,-324 289,-288 412,-288 412,-318 406,-324"/>
<polyline fill="none" stroke="#000000" points="406,-324 406,-318 "/>
<polyline fill="none" stroke="#000000" points="412,-318 406,-318 "/>
<text text-anchor="middle" x="350.5" y="-302.3" font-family="Patua One" font-size="14.00" fill="#b03a2e">Getting Coverage</text>
</a>
</g>
</g>
<!-- Fuzzer&#45;&gt;Coverage -->
<g id="edge1" class="edge">
<title>Fuzzer&#45;&gt;Coverage</title>
<path fill="none" stroke="#000000" d="M481.5024,-431.7623C455.0161,-406.3354 406.8805,-360.1253 376.9134,-331.3569"/>
<polygon fill="#000000" stroke="#000000" points="378.9811,-328.4901 369.3434,-324.0896 374.1334,-333.5398 378.9811,-328.4901"/>
</g>
<!-- Grammars -->
<g id="node3" class="node">
<title>Grammars</title>
<g id="a_node3"><a xlink:href="Grammars.ipynb" xlink:title="Grammars">
<polygon fill="#ffffff" stroke="#000000" points="680,-396 521,-396 521,-360 686,-360 686,-390 680,-396"/>
<polyline fill="none" stroke="#000000" points="680,-396 680,-390 "/>
<polyline fill="none" stroke="#000000" points="686,-390 680,-390 "/>
<text text-anchor="middle" x="603.5" y="-374.3" font-family="Patua One" font-size="14.00" fill="#b03a2e">Fuzzing with Grammars</text>
</a>
</g>
</g>
<!-- Fuzzer&#45;&gt;Grammars -->
<g id="edge2" class="edge">
<title>Fuzzer&#45;&gt;Grammars</title>
<path fill="none" stroke="#000000" d="M526.4912,-431.8314C539.4216,-422.7927 555.2222,-411.7476 569.1383,-402.0198"/>
<polygon fill="#000000" stroke="#000000" points="571.3263,-404.7608 577.5171,-396.1628 567.3157,-399.0235 571.3263,-404.7608"/>
</g>
<!-- MutationFuzzer -->
<g id="node5" class="node">
<title>MutationFuzzer</title>
<g id="a_node5"><a xlink:href="MutationFuzzer.ipynb" xlink:title="MutationFuzzer">
<polygon fill="#ffffff" stroke="#000000" points="163,-252 0,-252 0,-216 169,-216 169,-246 163,-252"/>
<polyline fill="none" stroke="#000000" points="163,-252 163,-246 "/>
<polyline fill="none" stroke="#000000" points="169,-246 163,-246 "/>
<text text-anchor="middle" x="84.5" y="-230.3" font-family="Patua One" font-size="14.00" fill="#b03a2e">Mutation&#45;Based Fuzzing</text>
</a>
</g>
</g>
<!-- Coverage&#45;&gt;MutationFuzzer -->
<g id="edge4" class="edge">
<title>Coverage&#45;&gt;MutationFuzzer</title>
<path fill="none" stroke="#000000" d="M288.8057,-289.3008C250.8075,-279.0156 201.7845,-265.7462 161.2845,-254.7838"/>
<polygon fill="#000000" stroke="#000000" points="162.0184,-251.3565 151.4513,-252.1222 160.1895,-258.1134 162.0184,-251.3565"/>
</g>
<!-- GrammarCoverageFuzzer -->
<g id="node6" class="node">
<title>GrammarCoverageFuzzer</title>
<g id="a_node6"><a xlink:href="GrammarCoverageFuzzer.ipynb" xlink:title="GrammarCoverageFuzzer">
<polygon fill="#ffffff" stroke="#000000" points="316,-252 187,-252 187,-216 322,-216 322,-246 316,-252"/>
<polyline fill="none" stroke="#000000" points="316,-252 316,-246 "/>
<polyline fill="none" stroke="#000000" points="322,-246 316,-246 "/>
<text text-anchor="middle" x="254.5" y="-230.3" font-family="Patua One" font-size="14.00" fill="#b03a2e">Grammar Coverage</text>
</a>
</g>
</g>
<!-- Coverage&#45;&gt;GrammarCoverageFuzzer -->
<g id="edge5" class="edge">
<title>Coverage&#45;&gt;GrammarCoverageFuzzer</title>
<path fill="none" stroke="#000000" d="M326.2751,-287.8314C314.3372,-278.8779 299.7744,-267.9558 286.894,-258.2955"/>
<polygon fill="#000000" stroke="#000000" points="288.8171,-255.3629 278.7171,-252.1628 284.6171,-260.9629 288.8171,-255.3629"/>
</g>
<!-- ProbabilisticGrammarFuzzer -->
<g id="node7" class="node">
<title>ProbabilisticGrammarFuzzer</title>
<g id="a_node7"><a xlink:href="ProbabilisticGrammarFuzzer.ipynb" xlink:title="ProbabilisticGrammarFuzzer">
<polygon fill="#ffffff" stroke="#000000" points="796.5,-180 594.5,-180 594.5,-144 802.5,-144 802.5,-174 796.5,-180"/>
<polyline fill="none" stroke="#000000" points="796.5,-180 796.5,-174 "/>
<polyline fill="none" stroke="#000000" points="802.5,-174 796.5,-174 "/>
<text text-anchor="middle" x="698.5" y="-158.3" font-family="Patua One" font-size="14.00" fill="#b03a2e">Probabilistic Grammar Fuzzing</text>
</a>
</g>
</g>
<!-- Coverage&#45;&gt;ProbabilisticGrammarFuzzer -->
<g id="edge6" class="edge">
<title>Coverage&#45;&gt;ProbabilisticGrammarFuzzer</title>
<path fill="none" stroke="#000000" d="M348.8161,-287.9778C347.9825,-267.5029 350.1039,-234.5354 369.5,-216 370.5088,-215.0359 489.8078,-195.6189 584.4448,-180.3422"/>
<polygon fill="#000000" stroke="#000000" points="585.0786,-183.7853 594.3933,-178.7368 583.9634,-176.8747 585.0786,-183.7853"/>
</g>
<!-- GrammarMiner -->
<g id="node8" class="node">
<title>GrammarMiner</title>
<g id="a_node8"><a xlink:href="GrammarMiner.ipynb" xlink:title="GrammarMiner">
<polygon fill="#ffffff" stroke="#000000" points="540,-252 379,-252 379,-216 546,-216 546,-246 540,-252"/>
<polyline fill="none" stroke="#000000" points="540,-252 540,-246 "/>
<polyline fill="none" stroke="#000000" points="546,-246 540,-246 "/>
<text text-anchor="middle" x="462.5" y="-230.3" font-family="Patua One" font-size="14.00" fill="#b03a2e">Mining Input Grammars</text>
</a>
</g>
</g>
<!-- Coverage&#45;&gt;GrammarMiner -->
<g id="edge7" class="edge">
<title>Coverage&#45;&gt;GrammarMiner</title>
<path fill="none" stroke="#000000" d="M378.7623,-287.8314C392.9552,-278.7074 410.3282,-267.539 425.5636,-257.7449"/>
<polygon fill="#000000" stroke="#000000" points="427.7276,-260.5146 434.2467,-252.1628 423.9422,-254.6263 427.7276,-260.5146"/>
</g>
<!-- GrammarFuzzer -->
<g id="node9" class="node">
<title>GrammarFuzzer</title>
<g id="a_node9"><a xlink:href="GrammarFuzzer.ipynb" xlink:title="GrammarFuzzer">
<polygon fill="#ffffff" stroke="#000000" points="737,-324 560,-324 560,-288 743,-288 743,-318 737,-324"/>
<polyline fill="none" stroke="#000000" points="737,-324 737,-318 "/>
<polyline fill="none" stroke="#000000" points="743,-318 737,-318 "/>
<text text-anchor="middle" x="651.5" y="-302.3" font-family="Patua One" font-size="14.00" fill="#b03a2e">Efficient Grammar Fuzzing</text>
</a>
</g>
</g>
<!-- Grammars&#45;&gt;GrammarFuzzer -->
<g id="edge8" class="edge">
<title>Grammars&#45;&gt;GrammarFuzzer</title>
<path fill="none" stroke="#000000" d="M615.6124,-359.8314C621.0281,-351.7079 627.5242,-341.9637 633.4921,-333.0118"/>
<polygon fill="#000000" stroke="#000000" points="636.5896,-334.6753 639.2245,-324.4133 630.7653,-330.7923 636.5896,-334.6753"/>
</g>
<!-- Intro_Testing -->
<g id="node4" class="node">
<title>Intro_Testing</title>
<g id="a_node4"><a xlink:href="Intro_Testing.ipynb" xlink:title="Intro_Testing">
<polygon fill="#ffffff" stroke="#000000" points="604,-540 391,-540 391,-504 610,-504 610,-534 604,-540"/>
<polyline fill="none" stroke="#000000" points="604,-540 604,-534 "/>
<polyline fill="none" stroke="#000000" points="610,-534 604,-534 "/>
<text text-anchor="middle" x="500.5" y="-518.3" font-family="Patua One" font-size="14.00" fill="#b03a2e">Introduction to Software Testing</text>
</a>
</g>
</g>
<!-- Intro_Testing&#45;&gt;Fuzzer -->
<g id="edge3" class="edge">
<title>Intro_Testing&#45;&gt;Fuzzer</title>
<path fill="none" stroke="#000000" d="M500.5,-503.8314C500.5,-496.131 500.5,-486.9743 500.5,-478.4166"/>
<polygon fill="#000000" stroke="#000000" points="504.0001,-478.4132 500.5,-468.4133 497.0001,-478.4133 504.0001,-478.4132"/>
</g>
<!-- ConfigurationFuzzer -->
<g id="node14" class="node">
<title>ConfigurationFuzzer</title>
<g id="a_node14"><a xlink:href="ConfigurationFuzzer.ipynb" xlink:title="ConfigurationFuzzer">
<polygon fill="#ffffff" stroke="#000000" points="332,-180 179,-180 179,-144 338,-144 338,-174 332,-180"/>
<polyline fill="none" stroke="#000000" points="332,-180 332,-174 "/>
<polyline fill="none" stroke="#000000" points="338,-174 332,-174 "/>
<text text-anchor="middle" x="258.5" y="-158.3" font-family="Patua One" font-size="14.00" fill="#b03a2e">Testing Configurations</text>
</a>
</g>
</g>
<!-- GrammarCoverageFuzzer&#45;&gt;ConfigurationFuzzer -->
<g id="edge15" class="edge">
<title>GrammarCoverageFuzzer&#45;&gt;ConfigurationFuzzer</title>
<path fill="none" stroke="#000000" d="M255.5094,-215.8314C255.9372,-208.131 256.4459,-198.9743 256.9213,-190.4166"/>
<polygon fill="#000000" stroke="#000000" points="260.4169,-190.592 257.477,-180.4133 253.4276,-190.2037 260.4169,-190.592"/>
</g>
<!-- Carver -->
<g id="node15" class="node">
<title>Carver</title>
<g id="a_node15"><a xlink:href="Carver.ipynb" xlink:title="Carver">
<polygon fill="#ffffff" stroke="#000000" points="484,-36 359,-36 359,0 490,0 490,-30 484,-36"/>
<polyline fill="none" stroke="#000000" points="484,-36 484,-30 "/>
<polyline fill="none" stroke="#000000" points="490,-30 484,-30 "/>
<text text-anchor="middle" x="424.5" y="-14.3" font-family="Patua One" font-size="14.00" fill="#b03a2e">Carving Unit Tests</text>
</a>
</g>
</g>
<!-- GrammarCoverageFuzzer&#45;&gt;Carver -->
<g id="edge16" class="edge">
<title>GrammarCoverageFuzzer&#45;&gt;Carver</title>
<path fill="none" stroke="#000000" d="M208.5514,-215.8539C193.3255,-207.3763 178.0872,-195.629 169.5,-180 161.7953,-165.9772 161.0562,-157.5905 169.5,-144 208.4415,-81.3224 288.806,-48.8854 348.9668,-32.7409"/>
<polygon fill="#000000" stroke="#000000" points="350.0107,-36.0862 358.8158,-30.1937 348.2579,-29.3091 350.0107,-36.0862"/>
</g>
<!-- GUIFuzzer -->
<g id="node16" class="node">
<title>GUIFuzzer</title>
<g id="a_node16"><a xlink:href="GUIFuzzer.ipynb" xlink:title="GUIFuzzer">
<polygon fill="#ffffff" stroke="#000000" points="570.5,-180 356.5,-180 356.5,-144 576.5,-144 576.5,-174 570.5,-180"/>
<polyline fill="none" stroke="#000000" points="570.5,-180 570.5,-174 "/>
<polyline fill="none" stroke="#000000" points="576.5,-174 570.5,-174 "/>
<text text-anchor="middle" x="466.5" y="-158.3" font-family="Patua One" font-size="14.00" fill="#b03a2e">Testing Graphical User Interfaces</text>
</a>
</g>
</g>
<!-- GrammarCoverageFuzzer&#45;&gt;GUIFuzzer -->
<g id="edge17" class="edge">
<title>GrammarCoverageFuzzer&#45;&gt;GUIFuzzer</title>
<path fill="none" stroke="#000000" d="M307.7229,-215.9243C336.8306,-206.0387 373.0666,-193.7321 403.5694,-183.3726"/>
<polygon fill="#000000" stroke="#000000" points="404.9119,-186.6131 413.2552,-180.0831 402.6608,-179.9849 404.9119,-186.6131"/>
</g>
<!-- APIFuzzer -->
<g id="node18" class="node">
<title>APIFuzzer</title>
<g id="a_node18"><a xlink:href="APIFuzzer.ipynb" xlink:title="APIFuzzer">
<polygon fill="#ffffff" stroke="#000000" points="741,-108 650,-108 650,-72 747,-72 747,-102 741,-108"/>
<polyline fill="none" stroke="#000000" points="741,-108 741,-102 "/>
<polyline fill="none" stroke="#000000" points="747,-102 741,-102 "/>
<text text-anchor="middle" x="698.5" y="-86.3" font-family="Patua One" font-size="14.00" fill="#b03a2e">Fuzzing APIs</text>
</a>
</g>
</g>
<!-- ProbabilisticGrammarFuzzer&#45;&gt;APIFuzzer -->
<g id="edge20" class="edge">
<title>ProbabilisticGrammarFuzzer&#45;&gt;APIFuzzer</title>
<path fill="none" stroke="#000000" d="M698.5,-143.8314C698.5,-136.131 698.5,-126.9743 698.5,-118.4166"/>
<polygon fill="#000000" stroke="#000000" points="702.0001,-118.4132 698.5,-108.4133 695.0001,-118.4133 702.0001,-118.4132"/>
</g>
<!-- GrammarFuzzer&#45;&gt;GrammarCoverageFuzzer -->
<g id="edge9" class="edge">
<title>GrammarFuzzer&#45;&gt;GrammarCoverageFuzzer</title>
<path fill="none" stroke="#000000" d="M559.9217,-289.3913C491.0176,-276.8949 397.6134,-259.9551 332.3054,-248.1108"/>
<polygon fill="#000000" stroke="#000000" points="332.5372,-244.5958 322.0731,-246.2551 331.288,-251.4835 332.5372,-244.5958"/>
</g>
<!-- GrammarFuzzer&#45;&gt;GrammarMiner -->
<g id="edge13" class="edge">
<title>GrammarFuzzer&#45;&gt;GrammarMiner</title>
<path fill="none" stroke="#000000" d="M603.8073,-287.8314C578.1927,-278.0734 546.4398,-265.977 519.526,-255.7242"/>
<polygon fill="#000000" stroke="#000000" points="520.4406,-252.3273 509.8497,-252.038 517.9486,-258.8687 520.4406,-252.3273"/>
</g>
<!-- Parser -->
<g id="node10" class="node">
<title>Parser</title>
<g id="a_node10"><a xlink:href="Parser.ipynb" xlink:title="Parser">
<polygon fill="#ffffff" stroke="#000000" points="858,-252 757,-252 757,-216 864,-216 864,-246 858,-252"/>
<polyline fill="none" stroke="#000000" points="858,-252 858,-246 "/>
<polyline fill="none" stroke="#000000" points="864,-246 858,-246 "/>
<text text-anchor="middle" x="810.5" y="-230.3" font-family="Patua One" font-size="14.00" fill="#b03a2e">Parsing Inputs</text>
</a>
</g>
</g>
<!-- GrammarFuzzer&#45;&gt;Parser -->
<g id="edge10" class="edge">
<title>GrammarFuzzer&#45;&gt;Parser</title>
<path fill="none" stroke="#000000" d="M691.6224,-287.8314C712.7932,-278.2446 738.9483,-266.4008 761.3303,-256.2655"/>
<polygon fill="#000000" stroke="#000000" points="763.0003,-259.3515 770.6661,-252.038 760.1128,-252.9748 763.0003,-259.3515"/>
</g>
<!-- GeneratorGrammarFuzzer -->
<g id="node11" class="node">
<title>GeneratorGrammarFuzzer</title>
<g id="a_node11"><a xlink:href="GeneratorGrammarFuzzer.ipynb" xlink:title="GeneratorGrammarFuzzer">
<polygon fill="#ffffff" stroke="#000000" points="1210.5,-180 1048.5,-180 1048.5,-144 1216.5,-144 1216.5,-174 1210.5,-180"/>
<polyline fill="none" stroke="#000000" points="1210.5,-180 1210.5,-174 "/>
<polyline fill="none" stroke="#000000" points="1216.5,-174 1210.5,-174 "/>
<text text-anchor="middle" x="1132.5" y="-158.3" font-family="Patua One" font-size="14.00" fill="#b03a2e">Fuzzing with Generators</text>
</a>
</g>
</g>
<!-- GrammarFuzzer&#45;&gt;GeneratorGrammarFuzzer -->
<g id="edge11" class="edge">
<title>GrammarFuzzer&#45;&gt;GeneratorGrammarFuzzer</title>
<path fill="none" stroke="#000000" d="M743.0738,-301.1763C870.8003,-293.5814 1089.8713,-277.0688 1116.5,-252 1132.9552,-236.5087 1136.0543,-210.4025 1135.5646,-190.2847"/>
<polygon fill="#000000" stroke="#000000" points="1139.0494,-189.9088 1135.0095,-180.1144 1132.0598,-190.2903 1139.0494,-189.9088"/>
</g>
<!-- Reducer -->
<g id="node12" class="node">
<title>Reducer</title>
<g id="a_node12"><a xlink:href="Reducer.ipynb" xlink:title="Reducer">
<polygon fill="#ffffff" stroke="#000000" points="1101,-252 882,-252 882,-216 1107,-216 1107,-246 1101,-252"/>
<polyline fill="none" stroke="#000000" points="1101,-252 1101,-246 "/>
<polyline fill="none" stroke="#000000" points="1107,-246 1101,-246 "/>
<text text-anchor="middle" x="994.5" y="-230.3" font-family="Patua One" font-size="14.00" fill="#b03a2e">Reducing Failure&#45;Inducing Inputs</text>
</a>
</g>
</g>
<!-- GrammarFuzzer&#45;&gt;Reducer -->
<g id="edge12" class="edge">
<title>GrammarFuzzer&#45;&gt;Reducer</title>
<path fill="none" stroke="#000000" d="M737.6106,-287.9243C786.6325,-277.634 848.1511,-264.7205 898.6958,-254.1105"/>
<polygon fill="#000000" stroke="#000000" points="899.5838,-257.5005 908.6515,-252.0207 898.1457,-250.6498 899.5838,-257.5005"/>
</g>
<!-- WebFuzzer -->
<g id="node13" class="node">
<title>WebFuzzer</title>
<g id="a_node13"><a xlink:href="WebFuzzer.ipynb" xlink:title="WebFuzzer">
<polygon fill="#ffffff" stroke="#000000" points="732.5,-252 564.5,-252 564.5,-216 738.5,-216 738.5,-246 732.5,-252"/>
<polyline fill="none" stroke="#000000" points="732.5,-252 732.5,-246 "/>
<polyline fill="none" stroke="#000000" points="738.5,-246 732.5,-246 "/>
<text text-anchor="middle" x="651.5" y="-230.3" font-family="Patua One" font-size="14.00" fill="#b03a2e">Testing Web Applications</text>
</a>
</g>
</g>
<!-- GrammarFuzzer&#45;&gt;WebFuzzer -->
<g id="edge14" class="edge">
<title>GrammarFuzzer&#45;&gt;WebFuzzer</title>
<path fill="none" stroke="#000000" d="M651.5,-287.8314C651.5,-280.131 651.5,-270.9743 651.5,-262.4166"/>
<polygon fill="#000000" stroke="#000000" points="655.0001,-262.4132 651.5,-252.4133 648.0001,-262.4133 655.0001,-262.4132"/>
</g>
<!-- Parser&#45;&gt;ProbabilisticGrammarFuzzer -->
<g id="edge19" class="edge">
<title>Parser&#45;&gt;ProbabilisticGrammarFuzzer</title>
<path fill="none" stroke="#000000" d="M782.2377,-215.8314C768.0448,-206.7074 750.6718,-195.539 735.4364,-185.7449"/>
<polygon fill="#000000" stroke="#000000" points="737.0578,-182.6263 726.7533,-180.1628 733.2724,-188.5146 737.0578,-182.6263"/>
</g>
<!-- LangFuzzer -->
<g id="node17" class="node">
<title>LangFuzzer</title>
<g id="a_node17"><a xlink:href="LangFuzzer.ipynb" xlink:title="LangFuzzer">
<polygon fill="#ffffff" stroke="#000000" points="1018.5,-180 820.5,-180 820.5,-144 1024.5,-144 1024.5,-174 1018.5,-180"/>
<polyline fill="none" stroke="#000000" points="1018.5,-180 1018.5,-174 "/>
<polyline fill="none" stroke="#000000" points="1024.5,-174 1018.5,-174 "/>
<text text-anchor="middle" x="922.5" y="-158.3" font-family="Patua One" font-size="14.00" fill="#b03a2e">Fuzzing with Input Fragments</text>
</a>
</g>
</g>
<!-- Parser&#45;&gt;LangFuzzer -->
<g id="edge18" class="edge">
<title>Parser&#45;&gt;LangFuzzer</title>
<path fill="none" stroke="#000000" d="M838.7623,-215.8314C852.9552,-206.7074 870.3282,-195.539 885.5636,-185.7449"/>
<polygon fill="#000000" stroke="#000000" points="887.7276,-188.5146 894.2467,-180.1628 883.9422,-182.6263 887.7276,-188.5146"/>
</g>
<!-- GeneratorGrammarFuzzer&#45;&gt;APIFuzzer -->
<g id="edge21" class="edge">
<title>GeneratorGrammarFuzzer&#45;&gt;APIFuzzer</title>
<path fill="none" stroke="#000000" d="M1048.2662,-146.5663C1043.2718,-145.688 1038.321,-144.8267 1033.5,-144 936.7133,-127.4022 823.9346,-109.5241 757.0265,-99.0704"/>
<polygon fill="#000000" stroke="#000000" points="757.5135,-95.6041 747.0934,-97.5203 756.4342,-102.5204 757.5135,-95.6041"/>
</g>
<!-- WebFuzzer&#45;&gt;GUIFuzzer -->
<g id="edge23" class="edge">
<title>WebFuzzer&#45;&gt;GUIFuzzer</title>
<path fill="none" stroke="#000000" d="M604.8167,-215.8314C579.7441,-206.0734 548.6633,-193.977 522.3191,-183.7242"/>
<polygon fill="#000000" stroke="#000000" points="523.4362,-180.4033 512.8476,-180.038 520.8973,-186.9266 523.4362,-180.4033"/>
</g>
<!-- APIFuzzer&#45;&gt;Carver -->
<g id="edge22" class="edge">
<title>APIFuzzer&#45;&gt;Carver</title>
<path fill="none" stroke="#000000" d="M649.83,-77.2108C608.2514,-66.285 547.7502,-50.3869 499.906,-37.8147"/>
<polygon fill="#000000" stroke="#000000" points="500.7693,-34.4228 490.2081,-35.2664 498.9902,-41.193 500.7693,-34.4228"/>
</g>
</g>
</svg>
