<?xml version="1.0" encoding="UTF-8" standalone="no"?>
<!DOCTYPE svg PUBLIC "-//W3C//DTD SVG 1.1//EN"
 "http://www.w3.org/Graphics/SVG/1.1/DTD/svg11.dtd">
<!-- Generated by graphviz version 2.40.1 (20161225.0304)
 -->
<!-- Title: %3 Pages: 1 -->
<svg width="760pt" height="548pt"
 viewBox="0.00 0.00 760.48 548.00" xmlns="http://www.w3.org/2000/svg" xmlns:xlink="http://www.w3.org/1999/xlink">
<g id="graph0" class="graph" transform="scale(1 1) rotate(0) translate(4 544)">
<title>%3</title>
<polygon fill="#ffffff" stroke="transparent" points="-4,4 -4,-544 756.4844,-544 756.4844,4 -4,4"/>
<!-- Intro_Testing -->
<g id="node1" class="node">
<title>Intro_Testing</title>
<ellipse fill="none" stroke="#000000" cx="356.8939" cy="-522" rx="60.3893" ry="18"/>
<text text-anchor="middle" x="356.8939" y="-518.3" font-family="Times,serif" font-size="14.00" fill="#000000">Intro_Testing</text>
</g>
<!-- Fuzzer -->
<g id="node2" class="node">
<title>Fuzzer</title>
<ellipse fill="none" stroke="#000000" cx="356.8939" cy="-450" rx="35.9954" ry="18"/>
<text text-anchor="middle" x="356.8939" y="-446.3" font-family="Times,serif" font-size="14.00" fill="#000000">Fuzzer</text>
</g>
<!-- Intro_Testing&#45;&gt;Fuzzer -->
<g id="edge1" class="edge">
<title>Intro_Testing&#45;&gt;Fuzzer</title>
<path fill="none" stroke="#000000" d="M356.8939,-503.8314C356.8939,-496.131 356.8939,-486.9743 356.8939,-478.4166"/>
<polygon fill="#000000" stroke="#000000" points="360.394,-478.4132 356.8939,-468.4133 353.394,-478.4133 360.394,-478.4132"/>
</g>
<!-- Coverage -->
<g id="node3" class="node">
<title>Coverage</title>
<ellipse fill="none" stroke="#000000" cx="290.8939" cy="-306" rx="45.4919" ry="18"/>
<text text-anchor="middle" x="290.8939" y="-302.3" font-family="Times,serif" font-size="14.00" fill="#000000">Coverage</text>
</g>
<!-- Fuzzer&#45;&gt;Coverage -->
<g id="edge2" class="edge">
<title>Fuzzer&#45;&gt;Coverage</title>
<path fill="none" stroke="#000000" d="M348.801,-432.3428C337.4203,-407.5122 316.5908,-362.066 303.2614,-332.9836"/>
<polygon fill="#000000" stroke="#000000" points="306.4013,-331.434 299.053,-323.8017 300.0379,-334.3506 306.4013,-331.434"/>
</g>
<!-- Grammars -->
<g id="node4" class="node">
<title>Grammars</title>
<ellipse fill="none" stroke="#000000" cx="409.8939" cy="-378" rx="49.2915" ry="18"/>
<text text-anchor="middle" x="409.8939" y="-374.3" font-family="Times,serif" font-size="14.00" fill="#000000">Grammars</text>
</g>
<!-- Fuzzer&#45;&gt;Grammars -->
<g id="edge3" class="edge">
<title>Fuzzer&#45;&gt;Grammars</title>
<path fill="none" stroke="#000000" d="M369.4541,-432.937C375.8939,-424.1886 383.8691,-413.3545 391.0306,-403.6256"/>
<polygon fill="#000000" stroke="#000000" points="393.9461,-405.5689 397.0556,-395.4407 388.3087,-401.4192 393.9461,-405.5689"/>
</g>
<!-- MutationFuzzer -->
<g id="node5" class="node">
<title>MutationFuzzer</title>
<ellipse fill="none" stroke="#000000" cx="68.8939" cy="-234" rx="68.7879" ry="18"/>
<text text-anchor="middle" x="68.8939" y="-230.3" font-family="Times,serif" font-size="14.00" fill="#000000">MutationFuzzer</text>
</g>
<!-- Coverage&#45;&gt;MutationFuzzer -->
<g id="edge4" class="edge">
<title>Coverage&#45;&gt;MutationFuzzer</title>
<path fill="none" stroke="#000000" d="M255.2257,-294.432C219.2557,-282.766 163.3024,-264.619 122.0921,-251.2535"/>
<polygon fill="#000000" stroke="#000000" points="123.0749,-247.8928 112.4829,-248.137 120.9153,-254.5514 123.0749,-247.8928"/>
</g>
<!-- GrammarCoverageFuzzer -->
<g id="node6" class="node">
<title>GrammarCoverageFuzzer</title>
<ellipse fill="none" stroke="#000000" cx="260.8939" cy="-234" rx="105.0817" ry="18"/>
<text text-anchor="middle" x="260.8939" y="-230.3" font-family="Times,serif" font-size="14.00" fill="#000000">GrammarCoverageFuzzer</text>
</g>
<!-- Coverage&#45;&gt;GrammarCoverageFuzzer -->
<g id="edge5" class="edge">
<title>Coverage&#45;&gt;GrammarCoverageFuzzer</title>
<path fill="none" stroke="#000000" d="M283.4782,-288.2022C280.1142,-280.1287 276.0596,-270.3976 272.3197,-261.422"/>
<polygon fill="#000000" stroke="#000000" points="275.5097,-259.9777 268.4327,-252.0931 269.0481,-262.6701 275.5097,-259.9777"/>
</g>
<!-- ProbabilisticGrammarFuzzer -->
<g id="node7" class="node">
<title>ProbabilisticGrammarFuzzer</title>
<ellipse fill="none" stroke="#000000" cx="404.8939" cy="-162" rx="116.1796" ry="18"/>
<text text-anchor="middle" x="404.8939" y="-158.3" font-family="Times,serif" font-size="14.00" fill="#000000">ProbabilisticGrammarFuzzer</text>
</g>
<!-- Coverage&#45;&gt;ProbabilisticGrammarFuzzer -->
<g id="edge6" class="edge">
<title>Coverage&#45;&gt;ProbabilisticGrammarFuzzer</title>
<path fill="none" stroke="#000000" d="M321.8594,-292.5662C339.6195,-283.4435 361.0648,-269.7963 374.8939,-252 388.8781,-234.004 396.5097,-209.1674 400.5705,-190.1431"/>
<polygon fill="#000000" stroke="#000000" points="404.0209,-190.7341 402.4767,-180.2524 397.1474,-189.4093 404.0209,-190.7341"/>
</g>
<!-- GrammarFuzzer -->
<g id="node8" class="node">
<title>GrammarFuzzer</title>
<ellipse fill="none" stroke="#000000" cx="439.8939" cy="-306" rx="70.3881" ry="18"/>
<text text-anchor="middle" x="439.8939" y="-302.3" font-family="Times,serif" font-size="14.00" fill="#000000">GrammarFuzzer</text>
</g>
<!-- Grammars&#45;&gt;GrammarFuzzer -->
<g id="edge7" class="edge">
<title>Grammars&#45;&gt;GrammarFuzzer</title>
<path fill="none" stroke="#000000" d="M417.3096,-360.2022C420.6736,-352.1287 424.7282,-342.3976 428.4681,-333.422"/>
<polygon fill="#000000" stroke="#000000" points="431.7396,-334.6701 432.3551,-324.0931 425.2781,-331.9777 431.7396,-334.6701"/>
</g>
<!-- ConfigurationFuzzer -->
<g id="node11" class="node">
<title>ConfigurationFuzzer</title>
<ellipse fill="none" stroke="#000000" cx="146.8939" cy="-162" rx="85.5853" ry="18"/>
<text text-anchor="middle" x="146.8939" y="-158.3" font-family="Times,serif" font-size="14.00" fill="#000000">ConfigurationFuzzer</text>
</g>
<!-- GrammarCoverageFuzzer&#45;&gt;ConfigurationFuzzer -->
<g id="edge11" class="edge">
<title>GrammarCoverageFuzzer&#45;&gt;ConfigurationFuzzer</title>
<path fill="none" stroke="#000000" d="M233.2977,-216.5708C218.1746,-207.0194 199.2488,-195.0662 182.9679,-184.7836"/>
<polygon fill="#000000" stroke="#000000" points="184.5599,-181.6494 174.236,-179.2687 180.8219,-187.5679 184.5599,-181.6494"/>
</g>
<!-- Carver -->
<g id="node12" class="node">
<title>Carver</title>
<ellipse fill="none" stroke="#000000" cx="332.8939" cy="-18" rx="35.9954" ry="18"/>
<text text-anchor="middle" x="332.8939" y="-14.3" font-family="Times,serif" font-size="14.00" fill="#000000">Carver</text>
</g>
<!-- GrammarCoverageFuzzer&#45;&gt;Carver -->
<g id="edge12" class="edge">
<title>GrammarCoverageFuzzer&#45;&gt;Carver</title>
<path fill="none" stroke="#000000" d="M263.6881,-215.8114C266.7519,-197.4459 272.2671,-168.3862 279.8939,-144 290.9001,-108.8082 308.0697,-69.9202 319.8669,-44.7862"/>
<polygon fill="#000000" stroke="#000000" points="323.1272,-46.0797 324.2539,-35.5449 316.8035,-43.0777 323.1272,-46.0797"/>
</g>
<!-- APIFuzzer -->
<g id="node13" class="node">
<title>APIFuzzer</title>
<ellipse fill="none" stroke="#000000" cx="404.8939" cy="-90" rx="50.0912" ry="18"/>
<text text-anchor="middle" x="404.8939" y="-86.3" font-family="Times,serif" font-size="14.00" fill="#000000">APIFuzzer</text>
</g>
<!-- ProbabilisticGrammarFuzzer&#45;&gt;APIFuzzer -->
<g id="edge14" class="edge">
<title>ProbabilisticGrammarFuzzer&#45;&gt;APIFuzzer</title>
<path fill="none" stroke="#000000" d="M404.8939,-143.8314C404.8939,-136.131 404.8939,-126.9743 404.8939,-118.4166"/>
<polygon fill="#000000" stroke="#000000" points="408.394,-118.4132 404.8939,-108.4133 401.394,-118.4133 408.394,-118.4132"/>
</g>
<!-- GrammarFuzzer&#45;&gt;GrammarCoverageFuzzer -->
<g id="edge8" class="edge">
<title>GrammarFuzzer&#45;&gt;GrammarCoverageFuzzer</title>
<path fill="none" stroke="#000000" d="M401.9326,-290.7307C375.6551,-280.1609 340.3859,-265.9745 311.6909,-254.4323"/>
<polygon fill="#000000" stroke="#000000" points="312.8178,-251.1131 302.2341,-250.6285 310.2055,-257.6075 312.8178,-251.1131"/>
</g>
<!-- Parser -->
<g id="node9" class="node">
<title>Parser</title>
<ellipse fill="none" stroke="#000000" cx="454.8939" cy="-234" rx="33.2948" ry="18"/>
<text text-anchor="middle" x="454.8939" y="-230.3" font-family="Times,serif" font-size="14.00" fill="#000000">Parser</text>
</g>
<!-- GrammarFuzzer&#45;&gt;Parser -->
<g id="edge9" class="edge">
<title>GrammarFuzzer&#45;&gt;Parser</title>
<path fill="none" stroke="#000000" d="M443.679,-287.8314C445.3259,-279.9266 447.2924,-270.4872 449.1154,-261.7365"/>
<polygon fill="#000000" stroke="#000000" points="452.5487,-262.4171 451.1619,-251.9134 445.6959,-260.9894 452.5487,-262.4171"/>
</g>
<!-- GeneratorGrammarFuzzer -->
<g id="node10" class="node">
<title>GeneratorGrammarFuzzer</title>
<ellipse fill="none" stroke="#000000" cx="645.8939" cy="-162" rx="106.6812" ry="18"/>
<text text-anchor="middle" x="645.8939" y="-158.3" font-family="Times,serif" font-size="14.00" fill="#000000">GeneratorGrammarFuzzer</text>
</g>
<!-- GrammarFuzzer&#45;&gt;GeneratorGrammarFuzzer -->
<g id="edge10" class="edge">
<title>GrammarFuzzer&#45;&gt;GeneratorGrammarFuzzer</title>
<path fill="none" stroke="#000000" d="M464.3337,-288.9158C501.1485,-263.1813 570.9296,-214.4022 612.4373,-185.3871"/>
<polygon fill="#000000" stroke="#000000" points="614.6526,-188.109 620.8434,-179.511 610.6421,-182.3717 614.6526,-188.109"/>
</g>
<!-- Parser&#45;&gt;ProbabilisticGrammarFuzzer -->
<g id="edge13" class="edge">
<title>Parser&#45;&gt;ProbabilisticGrammarFuzzer</title>
<path fill="none" stroke="#000000" d="M443.0446,-216.937C437.1191,-208.4043 429.8158,-197.8875 423.1906,-188.3472"/>
<polygon fill="#000000" stroke="#000000" points="425.9347,-186.1626 417.3559,-179.9453 420.1851,-190.1554 425.9347,-186.1626"/>
</g>
<!-- GeneratorGrammarFuzzer&#45;&gt;APIFuzzer -->
<g id="edge15" class="edge">
<title>GeneratorGrammarFuzzer&#45;&gt;APIFuzzer</title>
<path fill="none" stroke="#000000" d="M593.3032,-146.2883C551.5916,-133.8267 493.7613,-116.5496 453.2071,-104.4338"/>
<polygon fill="#000000" stroke="#000000" points="454.1303,-101.0568 443.5468,-101.5478 452.1264,-107.7639 454.1303,-101.0568"/>
</g>
<!-- APIFuzzer&#45;&gt;Carver -->
<g id="edge16" class="edge">
<title>APIFuzzer&#45;&gt;Carver</title>
<path fill="none" stroke="#000000" d="M387.8309,-72.937C378.4613,-63.5674 366.6993,-51.8054 356.465,-41.5711"/>
<polygon fill="#000000" stroke="#000000" points="358.8848,-39.0411 349.3388,-34.4449 353.935,-43.9909 358.8848,-39.0411"/>
</g>
</g>
</svg>
