<?xml version="1.0" encoding="UTF-8" standalone="no"?>
<!DOCTYPE svg PUBLIC "-//W3C//DTD SVG 1.1//EN"
 "http://www.w3.org/Graphics/SVG/1.1/DTD/svg11.dtd">
<!-- Generated by graphviz version 2.40.1 (20161225.0304)
 -->
<!-- Title: %3 Pages: 1 -->
<svg width="1911pt" height="548pt"
 viewBox="0.00 0.00 1911.00 548.00" xmlns="http://www.w3.org/2000/svg" xmlns:xlink="http://www.w3.org/1999/xlink">
<g id="graph0" class="graph" transform="scale(1 1) rotate(0) translate(4 544)">
<title>%3</title>
<polygon fill="#ffffff" stroke="transparent" points="-4,4 -4,-544 1907,-544 1907,4 -4,4"/>
<!-- Fuzzer -->
<g id="node1" class="node">
<title>Fuzzer</title>
<g id="a_node1"><a xlink:href="Fuzzer.ipynb" xlink:title="Fuzzer">
<polygon fill="#ffffff" stroke="#000000" points="1324,-468 1026,-468 1026,-432 1330,-432 1330,-462 1324,-468"/>
<polyline fill="none" stroke="#000000" points="1324,-468 1324,-462 "/>
<polyline fill="none" stroke="#000000" points="1330,-462 1324,-462 "/>
<text text-anchor="middle" x="1178" y="-446.3" font-family="Patua One" font-size="14.00" fill="#b03a2e">Fuzzing: Breaking Things with Random Inputs</text>
</a>
</g>
</g>
<!-- Coverage -->
<g id="node2" class="node">
<title>Coverage</title>
<g id="a_node2"><a xlink:href="Coverage.ipynb" xlink:title="Coverage">
<polygon fill="#ffffff" stroke="#000000" points="906.5,-324 789.5,-324 789.5,-288 912.5,-288 912.5,-318 906.5,-324"/>
<polyline fill="none" stroke="#000000" points="906.5,-324 906.5,-318 "/>
<polyline fill="none" stroke="#000000" points="912.5,-318 906.5,-318 "/>
<text text-anchor="middle" x="851" y="-302.3" font-family="Patua One" font-size="14.00" fill="#b03a2e">Getting Coverage</text>
</a>
</g>
</g>
<!-- Fuzzer&#45;&gt;Coverage -->
<g id="edge1" class="edge">
<title>Fuzzer&#45;&gt;Coverage</title>
<path fill="none" stroke="#000000" d="M1136.9163,-431.9081C1076.996,-405.5212 965.7485,-356.5315 901.1036,-328.064"/>
<polygon fill="#000000" stroke="#000000" points="902.4781,-324.845 891.9156,-324.0179 899.6569,-331.2513 902.4781,-324.845"/>
</g>
<!-- SearchBasedFuzzer -->
<g id="node3" class="node">
<title>SearchBasedFuzzer</title>
<g id="a_node3"><a xlink:href="SearchBasedFuzzer.ipynb" xlink:title="SearchBasedFuzzer">
<polygon fill="#ffffff" stroke="#000000" points="1425,-396 1279,-396 1279,-360 1431,-360 1431,-390 1425,-396"/>
<polyline fill="none" stroke="#000000" points="1425,-396 1425,-390 "/>
<polyline fill="none" stroke="#000000" points="1431,-390 1425,-390 "/>
<text text-anchor="middle" x="1355" y="-374.3" font-family="Patua One" font-size="14.00" fill="#b03a2e">Search&#45;Based Fuzzing</text>
</a>
</g>
</g>
<!-- Fuzzer&#45;&gt;SearchBasedFuzzer -->
<g id="edge2" class="edge">
<title>Fuzzer&#45;&gt;SearchBasedFuzzer</title>
<path fill="none" stroke="#000000" d="M1222.6646,-431.8314C1246.5477,-422.1162 1276.129,-410.0831 1301.2628,-399.8592"/>
<polygon fill="#000000" stroke="#000000" points="1302.7125,-403.0481 1310.6566,-396.038 1300.0748,-396.564 1302.7125,-403.0481"/>
</g>
<!-- Grammars -->
<g id="node4" class="node">
<title>Grammars</title>
<g id="a_node4"><a xlink:href="Grammars.ipynb" xlink:title="Grammars">
<polygon fill="#ffffff" stroke="#000000" points="1254.5,-396 1095.5,-396 1095.5,-360 1260.5,-360 1260.5,-390 1254.5,-396"/>
<polyline fill="none" stroke="#000000" points="1254.5,-396 1254.5,-390 "/>
<polyline fill="none" stroke="#000000" points="1260.5,-390 1254.5,-390 "/>
<text text-anchor="middle" x="1178" y="-374.3" font-family="Patua One" font-size="14.00" fill="#b03a2e">Fuzzing with Grammars</text>
</a>
</g>
</g>
<!-- Fuzzer&#45;&gt;Grammars -->
<g id="edge3" class="edge">
<title>Fuzzer&#45;&gt;Grammars</title>
<path fill="none" stroke="#000000" d="M1178,-431.8314C1178,-424.131 1178,-414.9743 1178,-406.4166"/>
<polygon fill="#000000" stroke="#000000" points="1181.5001,-406.4132 1178,-396.4133 1174.5001,-406.4133 1181.5001,-406.4132"/>
</g>
<!-- MutationFuzzer -->
<g id="node6" class="node">
<title>MutationFuzzer</title>
<g id="a_node6"><a xlink:href="MutationFuzzer.ipynb" xlink:title="MutationFuzzer">
<polygon fill="#ffffff" stroke="#000000" points="759.5,-252 596.5,-252 596.5,-216 765.5,-216 765.5,-246 759.5,-252"/>
<polyline fill="none" stroke="#000000" points="759.5,-252 759.5,-246 "/>
<polyline fill="none" stroke="#000000" points="765.5,-246 759.5,-246 "/>
<text text-anchor="middle" x="681" y="-230.3" font-family="Patua One" font-size="14.00" fill="#b03a2e">Mutation&#45;Based Fuzzing</text>
</a>
</g>
</g>
<!-- Coverage&#45;&gt;MutationFuzzer -->
<g id="edge5" class="edge">
<title>Coverage&#45;&gt;MutationFuzzer</title>
<path fill="none" stroke="#000000" d="M808.1018,-287.8314C785.2643,-278.159 757.002,-266.1891 732.9313,-255.9944"/>
<polygon fill="#000000" stroke="#000000" points="734.1629,-252.7151 723.5897,-252.038 731.4329,-259.1608 734.1629,-252.7151"/>
</g>
<!-- MutationAnalysis -->
<g id="node7" class="node">
<title>MutationAnalysis</title>
<g id="a_node7"><a xlink:href="MutationAnalysis.ipynb" xlink:title="MutationAnalysis">
<polygon fill="#ffffff" stroke="#000000" points="572,-252 228,-252 228,-216 578,-216 578,-246 572,-252"/>
<polyline fill="none" stroke="#000000" points="572,-252 572,-246 "/>
<polyline fill="none" stroke="#000000" points="578,-246 572,-246 "/>
<text text-anchor="middle" x="403" y="-230.3" font-family="Patua One" font-size="14.00" fill="#b03a2e">Evaluating Test Effectiveness with Mutation Analysis</text>
</a>
</g>
</g>
<!-- Coverage&#45;&gt;MutationAnalysis -->
<g id="edge6" class="edge">
<title>Coverage&#45;&gt;MutationAnalysis</title>
<path fill="none" stroke="#000000" d="M789.1779,-296.0643C721.2952,-285.1546 610.5836,-267.3616 525.0663,-253.6178"/>
<polygon fill="#000000" stroke="#000000" points="525.4599,-250.1362 515.0312,-252.005 524.3491,-257.0475 525.4599,-250.1362"/>
</g>
<!-- GrammarCoverageFuzzer -->
<g id="node8" class="node">
<title>GrammarCoverageFuzzer</title>
<g id="a_node8"><a xlink:href="GrammarCoverageFuzzer.ipynb" xlink:title="GrammarCoverageFuzzer">
<polygon fill="#ffffff" stroke="#000000" points="912.5,-252 783.5,-252 783.5,-216 918.5,-216 918.5,-246 912.5,-252"/>
<polyline fill="none" stroke="#000000" points="912.5,-252 912.5,-246 "/>
<polyline fill="none" stroke="#000000" points="918.5,-246 912.5,-246 "/>
<text text-anchor="middle" x="851" y="-230.3" font-family="Patua One" font-size="14.00" fill="#b03a2e">Grammar Coverage</text>
</a>
</g>
</g>
<!-- Coverage&#45;&gt;GrammarCoverageFuzzer -->
<g id="edge7" class="edge">
<title>Coverage&#45;&gt;GrammarCoverageFuzzer</title>
<path fill="none" stroke="#000000" d="M851,-287.8314C851,-280.131 851,-270.9743 851,-262.4166"/>
<polygon fill="#000000" stroke="#000000" points="854.5001,-262.4132 851,-252.4133 847.5001,-262.4133 854.5001,-262.4132"/>
</g>
<!-- ProbabilisticGrammarFuzzer -->
<g id="node9" class="node">
<title>ProbabilisticGrammarFuzzer</title>
<g id="a_node9"><a xlink:href="ProbabilisticGrammarFuzzer.ipynb" xlink:title="ProbabilisticGrammarFuzzer">
<polygon fill="#ffffff" stroke="#000000" points="1287,-180 1085,-180 1085,-144 1293,-144 1293,-174 1287,-180"/>
<polyline fill="none" stroke="#000000" points="1287,-180 1287,-174 "/>
<polyline fill="none" stroke="#000000" points="1293,-174 1287,-174 "/>
<text text-anchor="middle" x="1189" y="-158.3" font-family="Patua One" font-size="14.00" fill="#b03a2e">Probabilistic Grammar Fuzzing</text>
</a>
</g>
</g>
<!-- Coverage&#45;&gt;ProbabilisticGrammarFuzzer -->
<g id="edge8" class="edge">
<title>Coverage&#45;&gt;ProbabilisticGrammarFuzzer</title>
<path fill="none" stroke="#000000" d="M912.7739,-298.7074C981.1203,-289.7579 1086.0954,-273.1344 1120,-252 1144.4868,-236.7362 1163.5507,-209.4529 1175.3757,-188.9143"/>
<polygon fill="#000000" stroke="#000000" points="1178.5177,-190.4648 1180.2929,-180.0197 1172.3915,-187.0781 1178.5177,-190.4648"/>
</g>
<!-- GrammarMiner -->
<g id="node10" class="node">
<title>GrammarMiner</title>
<g id="a_node10"><a xlink:href="GrammarMiner.ipynb" xlink:title="GrammarMiner">
<polygon fill="#ffffff" stroke="#000000" points="1328.5,-252 1167.5,-252 1167.5,-216 1334.5,-216 1334.5,-246 1328.5,-252"/>
<polyline fill="none" stroke="#000000" points="1328.5,-252 1328.5,-246 "/>
<polyline fill="none" stroke="#000000" points="1334.5,-246 1328.5,-246 "/>
<text text-anchor="middle" x="1251" y="-230.3" font-family="Patua One" font-size="14.00" fill="#b03a2e">Mining Input Grammars</text>
</a>
</g>
</g>
<!-- Coverage&#45;&gt;GrammarMiner -->
<g id="edge9" class="edge">
<title>Coverage&#45;&gt;GrammarMiner</title>
<path fill="none" stroke="#000000" d="M912.6144,-295.0704C973.6562,-284.2218 1069.8018,-267.0788 1153,-252 1154.4628,-251.7349 1155.9377,-251.4673 1157.4225,-251.1977"/>
<polygon fill="#000000" stroke="#000000" points="1158.1252,-254.6274 1167.3372,-249.3939 1156.8722,-247.7404 1158.1252,-254.6274"/>
</g>
<!-- DynamicInvariants -->
<g id="node11" class="node">
<title>DynamicInvariants</title>
<g id="a_node11"><a xlink:href="DynamicInvariants.ipynb" xlink:title="DynamicInvariants">
<polygon fill="#ffffff" stroke="#000000" points="204,-252 0,-252 0,-216 210,-216 210,-246 204,-252"/>
<polyline fill="none" stroke="#000000" points="204,-252 204,-246 "/>
<polyline fill="none" stroke="#000000" points="210,-246 204,-246 "/>
<text text-anchor="middle" x="105" y="-230.3" font-family="Patua One" font-size="14.00" fill="#b03a2e">Mining Function Specifications</text>
</a>
</g>
</g>
<!-- Coverage&#45;&gt;DynamicInvariants -->
<g id="edge10" class="edge">
<title>Coverage&#45;&gt;DynamicInvariants</title>
<path fill="none" stroke="#000000" d="M789.3963,-302.2022C677.9534,-295.0114 435.2615,-277.8843 220.4516,-252.1305"/>
<polygon fill="#000000" stroke="#000000" points="220.5918,-248.6221 210.2442,-250.8977 219.7524,-255.5716 220.5918,-248.6221"/>
</g>
<!-- GrammarFuzzer -->
<g id="node12" class="node">
<title>GrammarFuzzer</title>
<g id="a_node12"><a xlink:href="GrammarFuzzer.ipynb" xlink:title="GrammarFuzzer">
<polygon fill="#ffffff" stroke="#000000" points="1336.5,-324 1159.5,-324 1159.5,-288 1342.5,-288 1342.5,-318 1336.5,-324"/>
<polyline fill="none" stroke="#000000" points="1336.5,-324 1336.5,-318 "/>
<polyline fill="none" stroke="#000000" points="1342.5,-318 1336.5,-318 "/>
<text text-anchor="middle" x="1251" y="-302.3" font-family="Patua One" font-size="14.00" fill="#b03a2e">Efficient Grammar Fuzzing</text>
</a>
</g>
</g>
<!-- Grammars&#45;&gt;GrammarFuzzer -->
<g id="edge11" class="edge">
<title>Grammars&#45;&gt;GrammarFuzzer</title>
<path fill="none" stroke="#000000" d="M1196.421,-359.8314C1205.1529,-351.219 1215.7317,-340.7851 1225.2423,-331.4048"/>
<polygon fill="#000000" stroke="#000000" points="1227.923,-333.6769 1232.5849,-324.1628 1223.0075,-328.6931 1227.923,-333.6769"/>
</g>
<!-- Intro_Testing -->
<g id="node5" class="node">
<title>Intro_Testing</title>
<g id="a_node5"><a xlink:href="Intro_Testing.ipynb" xlink:title="Intro_Testing">
<polygon fill="#ffffff" stroke="#000000" points="1281.5,-540 1068.5,-540 1068.5,-504 1287.5,-504 1287.5,-534 1281.5,-540"/>
<polyline fill="none" stroke="#000000" points="1281.5,-540 1281.5,-534 "/>
<polyline fill="none" stroke="#000000" points="1287.5,-534 1281.5,-534 "/>
<text text-anchor="middle" x="1178" y="-518.3" font-family="Patua One" font-size="14.00" fill="#b03a2e">Introduction to Software Testing</text>
</a>
</g>
</g>
<!-- Intro_Testing&#45;&gt;Fuzzer -->
<g id="edge4" class="edge">
<title>Intro_Testing&#45;&gt;Fuzzer</title>
<path fill="none" stroke="#000000" d="M1178,-503.8314C1178,-496.131 1178,-486.9743 1178,-478.4166"/>
<polygon fill="#000000" stroke="#000000" points="1181.5001,-478.4132 1178,-468.4133 1174.5001,-478.4133 1181.5001,-478.4132"/>
</g>
<!-- ConfigurationFuzzer -->
<g id="node17" class="node">
<title>ConfigurationFuzzer</title>
<g id="a_node17"><a xlink:href="ConfigurationFuzzer.ipynb" xlink:title="ConfigurationFuzzer">
<polygon fill="#ffffff" stroke="#000000" points="784.5,-180 631.5,-180 631.5,-144 790.5,-144 790.5,-174 784.5,-180"/>
<polyline fill="none" stroke="#000000" points="784.5,-180 784.5,-174 "/>
<polyline fill="none" stroke="#000000" points="790.5,-174 784.5,-174 "/>
<text text-anchor="middle" x="711" y="-158.3" font-family="Patua One" font-size="14.00" fill="#b03a2e">Testing Configurations</text>
</a>
</g>
</g>
<!-- GrammarCoverageFuzzer&#45;&gt;ConfigurationFuzzer -->
<g id="edge18" class="edge">
<title>GrammarCoverageFuzzer&#45;&gt;ConfigurationFuzzer</title>
<path fill="none" stroke="#000000" d="M815.6721,-215.8314C797.3507,-206.4089 774.7898,-194.8062 755.3105,-184.7883"/>
<polygon fill="#000000" stroke="#000000" points="756.8102,-181.6239 746.3166,-180.1628 753.6088,-187.8489 756.8102,-181.6239"/>
</g>
<!-- Carver -->
<g id="node18" class="node">
<title>Carver</title>
<g id="a_node18"><a xlink:href="Carver.ipynb" xlink:title="Carver">
<polygon fill="#ffffff" stroke="#000000" points="1063.5,-36 938.5,-36 938.5,0 1069.5,0 1069.5,-30 1063.5,-36"/>
<polyline fill="none" stroke="#000000" points="1063.5,-36 1063.5,-30 "/>
<polyline fill="none" stroke="#000000" points="1069.5,-30 1063.5,-30 "/>
<text text-anchor="middle" x="1004" y="-14.3" font-family="Patua One" font-size="14.00" fill="#b03a2e">Carving Unit Tests</text>
</a>
</g>
</g>
<!-- GrammarCoverageFuzzer&#45;&gt;Carver -->
<g id="edge19" class="edge">
<title>GrammarCoverageFuzzer&#45;&gt;Carver</title>
<path fill="none" stroke="#000000" d="M842.4293,-215.7738C834.8548,-196.8637 826.6283,-166.908 838,-144 861.7551,-96.1459 913.335,-61.576 952.7372,-40.8869"/>
<polygon fill="#000000" stroke="#000000" points="954.6435,-43.8434 961.9583,-36.1789 951.4604,-37.609 954.6435,-43.8434"/>
</g>
<!-- GUIFuzzer -->
<g id="node19" class="node">
<title>GUIFuzzer</title>
<g id="a_node19"><a xlink:href="GUIFuzzer.ipynb" xlink:title="GUIFuzzer">
<polygon fill="#ffffff" stroke="#000000" points="1061,-180 847,-180 847,-144 1067,-144 1067,-174 1061,-180"/>
<polyline fill="none" stroke="#000000" points="1061,-180 1061,-174 "/>
<polyline fill="none" stroke="#000000" points="1067,-174 1061,-174 "/>
<text text-anchor="middle" x="957" y="-158.3" font-family="Patua One" font-size="14.00" fill="#b03a2e">Testing Graphical User Interfaces</text>
</a>
</g>
</g>
<!-- GrammarCoverageFuzzer&#45;&gt;GUIFuzzer -->
<g id="edge20" class="edge">
<title>GrammarCoverageFuzzer&#45;&gt;GUIFuzzer</title>
<path fill="none" stroke="#000000" d="M877.7483,-215.8314C891.0553,-206.7927 907.316,-195.7476 921.6375,-186.0198"/>
<polygon fill="#000000" stroke="#000000" points="923.9547,-188.677 930.2603,-180.1628 920.0215,-182.8864 923.9547,-188.677"/>
</g>
<!-- APIFuzzer -->
<g id="node22" class="node">
<title>APIFuzzer</title>
<g id="a_node22"><a xlink:href="APIFuzzer.ipynb" xlink:title="APIFuzzer">
<polygon fill="#ffffff" stroke="#000000" points="1231.5,-108 1140.5,-108 1140.5,-72 1237.5,-72 1237.5,-102 1231.5,-108"/>
<polyline fill="none" stroke="#000000" points="1231.5,-108 1231.5,-102 "/>
<polyline fill="none" stroke="#000000" points="1237.5,-102 1231.5,-102 "/>
<text text-anchor="middle" x="1189" y="-86.3" font-family="Patua One" font-size="14.00" fill="#b03a2e">Fuzzing APIs</text>
</a>
</g>
</g>
<!-- ProbabilisticGrammarFuzzer&#45;&gt;APIFuzzer -->
<g id="edge24" class="edge">
<title>ProbabilisticGrammarFuzzer&#45;&gt;APIFuzzer</title>
<path fill="none" stroke="#000000" d="M1189,-143.8314C1189,-136.131 1189,-126.9743 1189,-118.4166"/>
<polygon fill="#000000" stroke="#000000" points="1192.5001,-118.4132 1189,-108.4133 1185.5001,-118.4133 1192.5001,-118.4132"/>
</g>
<!-- InformationFlow -->
<g id="node21" class="node">
<title>InformationFlow</title>
<g id="a_node21"><a xlink:href="InformationFlow.ipynb" xlink:title="InformationFlow">
<polygon fill="#ffffff" stroke="#000000" points="1674.5,-180 1497.5,-180 1497.5,-144 1680.5,-144 1680.5,-174 1674.5,-180"/>
<polyline fill="none" stroke="#000000" points="1674.5,-180 1674.5,-174 "/>
<polyline fill="none" stroke="#000000" points="1680.5,-174 1674.5,-174 "/>
<text text-anchor="middle" x="1589" y="-158.3" font-family="Patua One" font-size="14.00" fill="#b03a2e">Tracking Information Flow</text>
</a>
</g>
</g>
<!-- GrammarMiner&#45;&gt;InformationFlow -->
<g id="edge26" class="edge">
<title>GrammarMiner&#45;&gt;InformationFlow</title>
<path fill="none" stroke="#000000" d="M1334.5506,-216.2022C1383.0263,-205.8761 1444.2307,-192.8384 1494.464,-182.1378"/>
<polygon fill="#000000" stroke="#000000" points="1495.3061,-185.5371 1504.3574,-180.0304 1493.8476,-178.6907 1495.3061,-185.5371"/>
</g>
<!-- GrammarFuzzer&#45;&gt;GrammarCoverageFuzzer -->
<g id="edge12" class="edge">
<title>GrammarFuzzer&#45;&gt;GrammarCoverageFuzzer</title>
<path fill="none" stroke="#000000" d="M1159.1737,-292.2505C1096.842,-282.5414 1012.3539,-268.6524 928.5078,-252.0359"/>
<polygon fill="#000000" stroke="#000000" points="929.0445,-248.574 918.5529,-250.0494 927.6746,-255.4387 929.0445,-248.574"/>
</g>
<!-- GrammarFuzzer&#45;&gt;GrammarMiner -->
<g id="edge16" class="edge">
<title>GrammarFuzzer&#45;&gt;GrammarMiner</title>
<path fill="none" stroke="#000000" d="M1251,-287.8314C1251,-280.131 1251,-270.9743 1251,-262.4166"/>
<polygon fill="#000000" stroke="#000000" points="1254.5001,-262.4132 1251,-252.4133 1247.5001,-262.4133 1254.5001,-262.4132"/>
</g>
<!-- Parser -->
<g id="node13" class="node">
<title>Parser</title>
<g id="a_node13"><a xlink:href="Parser.ipynb" xlink:title="Parser">
<polygon fill="#ffffff" stroke="#000000" points="1735.5,-252 1634.5,-252 1634.5,-216 1741.5,-216 1741.5,-246 1735.5,-252"/>
<polyline fill="none" stroke="#000000" points="1735.5,-252 1735.5,-246 "/>
<polyline fill="none" stroke="#000000" points="1741.5,-246 1735.5,-246 "/>
<text text-anchor="middle" x="1688" y="-230.3" font-family="Patua One" font-size="14.00" fill="#b03a2e">Parsing Inputs</text>
</a>
</g>
</g>
<!-- GrammarFuzzer&#45;&gt;Parser -->
<g id="edge13" class="edge">
<title>GrammarFuzzer&#45;&gt;Parser</title>
<path fill="none" stroke="#000000" d="M1342.5657,-296.4322C1416.5009,-287.8708 1523.2813,-273.6224 1624.5653,-252.1715"/>
<polygon fill="#000000" stroke="#000000" points="1625.305,-255.5925 1634.3486,-250.0731 1623.8369,-248.7482 1625.305,-255.5925"/>
</g>
<!-- GeneratorGrammarFuzzer -->
<g id="node14" class="node">
<title>GeneratorGrammarFuzzer</title>
<g id="a_node14"><a xlink:href="GeneratorGrammarFuzzer.ipynb" xlink:title="GeneratorGrammarFuzzer">
<polygon fill="#ffffff" stroke="#000000" points="1473,-180 1311,-180 1311,-144 1479,-144 1479,-174 1473,-180"/>
<polyline fill="none" stroke="#000000" points="1473,-180 1473,-174 "/>
<polyline fill="none" stroke="#000000" points="1479,-174 1473,-174 "/>
<text text-anchor="middle" x="1395" y="-158.3" font-family="Patua One" font-size="14.00" fill="#b03a2e">Fuzzing with Generators</text>
</a>
</g>
</g>
<!-- GrammarFuzzer&#45;&gt;GeneratorGrammarFuzzer -->
<g id="edge14" class="edge">
<title>GrammarFuzzer&#45;&gt;GeneratorGrammarFuzzer</title>
<path fill="none" stroke="#000000" d="M1292.6798,-287.8305C1310.0029,-278.8396 1329.4232,-266.7309 1344,-252 1361.7492,-234.0631 1375.3784,-208.7037 1384.0632,-189.4731"/>
<polygon fill="#000000" stroke="#000000" points="1387.3832,-190.6142 1388.1498,-180.0471 1380.9608,-187.8297 1387.3832,-190.6142"/>
</g>
<!-- Reducer -->
<g id="node15" class="node">
<title>Reducer</title>
<g id="a_node15"><a xlink:href="Reducer.ipynb" xlink:title="Reducer">
<polygon fill="#ffffff" stroke="#000000" points="1610.5,-252 1391.5,-252 1391.5,-216 1616.5,-216 1616.5,-246 1610.5,-252"/>
<polyline fill="none" stroke="#000000" points="1610.5,-252 1610.5,-246 "/>
<polyline fill="none" stroke="#000000" points="1616.5,-246 1610.5,-246 "/>
<text text-anchor="middle" x="1504" y="-230.3" font-family="Patua One" font-size="14.00" fill="#b03a2e">Reducing Failure&#45;Inducing Inputs</text>
</a>
</g>
</g>
<!-- GrammarFuzzer&#45;&gt;Reducer -->
<g id="edge15" class="edge">
<title>GrammarFuzzer&#45;&gt;Reducer</title>
<path fill="none" stroke="#000000" d="M1314.516,-287.9243C1349.8545,-277.8675 1393.9971,-265.3052 1430.7837,-254.8363"/>
<polygon fill="#000000" stroke="#000000" points="1431.7978,-258.1867 1440.4578,-252.0831 1429.8817,-251.454 1431.7978,-258.1867"/>
</g>
<!-- WebFuzzer -->
<g id="node16" class="node">
<title>WebFuzzer</title>
<g id="a_node16"><a xlink:href="WebFuzzer.ipynb" xlink:title="WebFuzzer">
<polygon fill="#ffffff" stroke="#000000" points="1105,-252 937,-252 937,-216 1111,-216 1111,-246 1105,-252"/>
<polyline fill="none" stroke="#000000" points="1105,-252 1105,-246 "/>
<polyline fill="none" stroke="#000000" points="1111,-246 1105,-246 "/>
<text text-anchor="middle" x="1024" y="-230.3" font-family="Patua One" font-size="14.00" fill="#b03a2e">Testing Web Applications</text>
</a>
</g>
</g>
<!-- GrammarFuzzer&#45;&gt;WebFuzzer -->
<g id="edge17" class="edge">
<title>GrammarFuzzer&#45;&gt;WebFuzzer</title>
<path fill="none" stroke="#000000" d="M1194.0113,-287.9243C1162.7093,-277.9959 1123.7082,-265.6255 1090.9594,-255.2382"/>
<polygon fill="#000000" stroke="#000000" points="1091.6023,-251.7704 1081.0121,-252.0831 1089.4859,-258.4428 1091.6023,-251.7704"/>
</g>
<!-- Parser&#45;&gt;ProbabilisticGrammarFuzzer -->
<g id="edge22" class="edge">
<title>Parser&#45;&gt;ProbabilisticGrammarFuzzer</title>
<path fill="none" stroke="#000000" d="M1634.3711,-217.8185C1631.5507,-217.1595 1628.7481,-216.5474 1626,-216 1487.0966,-188.3334 1447.3552,-198.8958 1303.1393,-180.1036"/>
<polygon fill="#000000" stroke="#000000" points="1303.4042,-176.6082 1293.0304,-178.761 1302.4825,-183.5472 1303.4042,-176.6082"/>
</g>
<!-- LangFuzzer -->
<g id="node20" class="node">
<title>LangFuzzer</title>
<g id="a_node20"><a xlink:href="LangFuzzer.ipynb" xlink:title="LangFuzzer">
<polygon fill="#ffffff" stroke="#000000" points="1897,-180 1699,-180 1699,-144 1903,-144 1903,-174 1897,-180"/>
<polyline fill="none" stroke="#000000" points="1897,-180 1897,-174 "/>
<polyline fill="none" stroke="#000000" points="1903,-174 1897,-174 "/>
<text text-anchor="middle" x="1801" y="-158.3" font-family="Patua One" font-size="14.00" fill="#b03a2e">Fuzzing with Input Fragments</text>
</a>
</g>
</g>
<!-- Parser&#45;&gt;LangFuzzer -->
<g id="edge21" class="edge">
<title>Parser&#45;&gt;LangFuzzer</title>
<path fill="none" stroke="#000000" d="M1716.5147,-215.8314C1730.8342,-206.7074 1748.3624,-195.539 1763.7338,-185.7449"/>
<polygon fill="#000000" stroke="#000000" points="1765.9417,-188.4882 1772.4945,-180.1628 1762.1801,-182.5847 1765.9417,-188.4882"/>
</g>
<!-- Parser&#45;&gt;InformationFlow -->
<g id="edge23" class="edge">
<title>Parser&#45;&gt;InformationFlow</title>
<path fill="none" stroke="#000000" d="M1663.0181,-215.8314C1650.7072,-206.8779 1635.6893,-195.9558 1622.4063,-186.2955"/>
<polygon fill="#000000" stroke="#000000" points="1624.1199,-183.214 1613.9739,-180.1628 1620.0027,-188.8752 1624.1199,-183.214"/>
</g>
<!-- GeneratorGrammarFuzzer&#45;&gt;APIFuzzer -->
<g id="edge25" class="edge">
<title>GeneratorGrammarFuzzer&#45;&gt;APIFuzzer</title>
<path fill="none" stroke="#000000" d="M1343.2834,-143.9243C1314.0317,-133.7004 1277.3711,-120.887 1247.1267,-110.3161"/>
<polygon fill="#000000" stroke="#000000" points="1248.145,-106.9645 1237.5501,-106.969 1245.8353,-113.5725 1248.145,-106.9645"/>
</g>
<!-- WebFuzzer&#45;&gt;GUIFuzzer -->
<g id="edge30" class="edge">
<title>WebFuzzer&#45;&gt;GUIFuzzer</title>
<path fill="none" stroke="#000000" d="M1007.0931,-215.8314C999.2187,-207.3694 989.708,-197.1489 981.0987,-187.8971"/>
<polygon fill="#000000" stroke="#000000" points="983.5092,-185.3497 974.1346,-180.4133 978.3847,-190.1183 983.5092,-185.3497"/>
</g>
<!-- ConcolicFuzzer -->
<g id="node23" class="node">
<title>ConcolicFuzzer</title>
<g id="a_node23"><a xlink:href="ConcolicFuzzer.ipynb" xlink:title="ConcolicFuzzer">
<polygon fill="#ffffff" stroke="#000000" points="1643,-108 1529,-108 1529,-72 1649,-72 1649,-102 1643,-108"/>
<polyline fill="none" stroke="#000000" points="1643,-108 1643,-102 "/>
<polyline fill="none" stroke="#000000" points="1649,-102 1643,-102 "/>
<text text-anchor="middle" x="1589" y="-86.3" font-family="Patua One" font-size="14.00" fill="#b03a2e">Concolic Fuzzing</text>
</a>
</g>
</g>
<!-- InformationFlow&#45;&gt;ConcolicFuzzer -->
<g id="edge27" class="edge">
<title>InformationFlow&#45;&gt;ConcolicFuzzer</title>
<path fill="none" stroke="#000000" d="M1589,-143.8314C1589,-136.131 1589,-126.9743 1589,-118.4166"/>
<polygon fill="#000000" stroke="#000000" points="1592.5001,-118.4132 1589,-108.4133 1585.5001,-118.4133 1592.5001,-118.4132"/>
</g>
<!-- APIFuzzer&#45;&gt;Carver -->
<g id="edge29" class="edge">
<title>APIFuzzer&#45;&gt;Carver</title>
<path fill="none" stroke="#000000" d="M1142.3167,-71.8314C1117.2441,-62.0734 1086.1633,-49.977 1059.8191,-39.7242"/>
<polygon fill="#000000" stroke="#000000" points="1060.9362,-36.4033 1050.3476,-36.038 1058.3973,-42.9266 1060.9362,-36.4033"/>
</g>
<!-- SymbolicFuzzer -->
<g id="node24" class="node">
<title>SymbolicFuzzer</title>
<g id="a_node24"><a xlink:href="SymbolicFuzzer.ipynb" xlink:title="SymbolicFuzzer">
<polygon fill="#ffffff" stroke="#000000" points="1646,-36 1526,-36 1526,0 1652,0 1652,-30 1646,-36"/>
<polyline fill="none" stroke="#000000" points="1646,-36 1646,-30 "/>
<polyline fill="none" stroke="#000000" points="1652,-30 1646,-30 "/>
<text text-anchor="middle" x="1589" y="-14.3" font-family="Patua One" font-size="14.00" fill="#b03a2e">Symbolic Fuzzing</text>
</a>
</g>
</g>
<!-- ConcolicFuzzer&#45;&gt;SymbolicFuzzer -->
<g id="edge28" class="edge">
<title>ConcolicFuzzer&#45;&gt;SymbolicFuzzer</title>
<path fill="none" stroke="#000000" d="M1589,-71.8314C1589,-64.131 1589,-54.9743 1589,-46.4166"/>
<polygon fill="#000000" stroke="#000000" points="1592.5001,-46.4132 1589,-36.4133 1585.5001,-46.4133 1592.5001,-46.4132"/>
</g>
</g>
</svg>
