<?xml version="1.0" encoding="UTF-8" standalone="no"?>
<!DOCTYPE svg PUBLIC "-//W3C//DTD SVG 1.1//EN"
 "http://www.w3.org/Graphics/SVG/1.1/DTD/svg11.dtd">
<!-- Generated by graphviz version 2.40.1 (20161225.0304)
 -->
<!-- Title: %3 Pages: 1 -->
<svg width="1274pt" height="548pt"
 viewBox="0.00 0.00 1273.50 548.00" xmlns="http://www.w3.org/2000/svg" xmlns:xlink="http://www.w3.org/1999/xlink">
<g id="graph0" class="graph" transform="scale(1 1) rotate(0) translate(4 544)">
<title>%3</title>
<polygon fill="#ffffff" stroke="transparent" points="-4,4 -4,-544 1269.5,-544 1269.5,4 -4,4"/>
<!-- Fuzzer -->
<g id="node1" class="node">
<title>Fuzzer</title>
<g id="a_node1"><a xlink:href="Fuzzer.ipynb" xlink:title="Fuzzer">
<polygon fill="#ffffff" stroke="#000000" points="589.5,-468 293.5,-468 293.5,-432 595.5,-432 595.5,-462 589.5,-468"/>
<polyline fill="none" stroke="#000000" points="589.5,-468 589.5,-462 "/>
<polyline fill="none" stroke="#000000" points="595.5,-462 589.5,-462 "/>
<text text-anchor="middle" x="444.5" y="-446.3" font-family="Patua One" font-size="14.00" fill="#b03a2e">Fuzzing: Breaking Things with Random Inputs</text>
</a>
</g>
</g>
<!-- Coverage -->
<g id="node2" class="node">
<title>Coverage</title>
<g id="a_node2"><a xlink:href="Coverage.ipynb" xlink:title="Coverage">
<polygon fill="#ffffff" stroke="#000000" points="340.5,-324 220.5,-324 220.5,-288 346.5,-288 346.5,-318 340.5,-324"/>
<polyline fill="none" stroke="#000000" points="340.5,-324 340.5,-318 "/>
<polyline fill="none" stroke="#000000" points="346.5,-318 340.5,-318 "/>
<text text-anchor="middle" x="283.5" y="-302.3" font-family="Patua One" font-size="14.00" fill="#b03a2e">Getting Coverage</text>
</a>
</g>
</g>
<!-- Fuzzer&#45;&gt;Coverage -->
<g id="edge1" class="edge">
<title>Fuzzer&#45;&gt;Coverage</title>
<path fill="none" stroke="#000000" d="M424.1092,-431.7623C395.5596,-406.2272 343.5749,-359.7316 311.4408,-330.9906"/>
<polygon fill="#000000" stroke="#000000" points="313.5122,-328.1475 303.7252,-324.0896 308.8455,-333.365 313.5122,-328.1475"/>
</g>
<!-- Grammars -->
<g id="node3" class="node">
<title>Grammars</title>
<g id="a_node3"><a xlink:href="Grammars.ipynb" xlink:title="Grammars">
<polygon fill="#ffffff" stroke="#000000" points="628.5,-396 470.5,-396 470.5,-360 634.5,-360 634.5,-390 628.5,-396"/>
<polyline fill="none" stroke="#000000" points="628.5,-396 628.5,-390 "/>
<polyline fill="none" stroke="#000000" points="634.5,-390 628.5,-390 "/>
<text text-anchor="middle" x="552.5" y="-374.3" font-family="Patua One" font-size="14.00" fill="#b03a2e">Fuzzing with Grammars</text>
</a>
</g>
</g>
<!-- Fuzzer&#45;&gt;Grammars -->
<g id="edge2" class="edge">
<title>Fuzzer&#45;&gt;Grammars</title>
<path fill="none" stroke="#000000" d="M471.753,-431.8314C485.4389,-422.7074 502.1915,-411.539 516.8827,-401.7449"/>
<polygon fill="#000000" stroke="#000000" points="518.8767,-404.6221 525.2558,-396.1628 514.9938,-398.7977 518.8767,-404.6221"/>
</g>
<!-- MutationFuzzer -->
<g id="node5" class="node">
<title>MutationFuzzer</title>
<g id="a_node5"><a xlink:href="MutationFuzzer.ipynb" xlink:title="MutationFuzzer">
<polygon fill="#ffffff" stroke="#000000" points="189,-252 28,-252 28,-216 195,-216 195,-246 189,-252"/>
<polyline fill="none" stroke="#000000" points="189,-252 189,-246 "/>
<polyline fill="none" stroke="#000000" points="195,-246 189,-246 "/>
<text text-anchor="middle" x="111.5" y="-230.3" font-family="Patua One" font-size="14.00" fill="#b03a2e">Mutation&#45;Based Fuzzing</text>
</a>
</g>
</g>
<!-- Coverage&#45;&gt;MutationFuzzer -->
<g id="edge4" class="edge">
<title>Coverage&#45;&gt;MutationFuzzer</title>
<path fill="none" stroke="#000000" d="M240.0971,-287.8314C216.9909,-278.159 188.3962,-266.1891 164.0423,-255.9944"/>
<polygon fill="#000000" stroke="#000000" points="165.1667,-252.6709 154.5908,-252.038 162.4637,-259.128 165.1667,-252.6709"/>
</g>
<!-- GrammarCoverageFuzzer -->
<g id="node6" class="node">
<title>GrammarCoverageFuzzer</title>
<g id="a_node6"><a xlink:href="GrammarCoverageFuzzer.ipynb" xlink:title="GrammarCoverageFuzzer">
<polygon fill="#ffffff" stroke="#000000" points="347.5,-252 213.5,-252 213.5,-216 353.5,-216 353.5,-246 347.5,-252"/>
<polyline fill="none" stroke="#000000" points="347.5,-252 347.5,-246 "/>
<polyline fill="none" stroke="#000000" points="353.5,-246 347.5,-246 "/>
<text text-anchor="middle" x="283.5" y="-230.3" font-family="Patua One" font-size="14.00" fill="#b03a2e">Grammar Coverage</text>
</a>
</g>
</g>
<!-- Coverage&#45;&gt;GrammarCoverageFuzzer -->
<g id="edge5" class="edge">
<title>Coverage&#45;&gt;GrammarCoverageFuzzer</title>
<path fill="none" stroke="#000000" d="M283.5,-287.8314C283.5,-280.131 283.5,-270.9743 283.5,-262.4166"/>
<polygon fill="#000000" stroke="#000000" points="287.0001,-262.4132 283.5,-252.4133 280.0001,-262.4133 287.0001,-262.4132"/>
</g>
<!-- ProbabilisticGrammarFuzzer -->
<g id="node7" class="node">
<title>ProbabilisticGrammarFuzzer</title>
<g id="a_node7"><a xlink:href="ProbabilisticGrammarFuzzer.ipynb" xlink:title="ProbabilisticGrammarFuzzer">
<polygon fill="#ffffff" stroke="#000000" points="415.5,-180 213.5,-180 213.5,-144 421.5,-144 421.5,-174 415.5,-180"/>
<polyline fill="none" stroke="#000000" points="415.5,-180 415.5,-174 "/>
<polyline fill="none" stroke="#000000" points="421.5,-174 415.5,-174 "/>
<text text-anchor="middle" x="317.5" y="-158.3" font-family="Patua One" font-size="14.00" fill="#b03a2e">Probabilistic Grammar Fuzzing</text>
</a>
</g>
</g>
<!-- Coverage&#45;&gt;ProbabilisticGrammarFuzzer -->
<g id="edge6" class="edge">
<title>Coverage&#45;&gt;ProbabilisticGrammarFuzzer</title>
<path fill="none" stroke="#000000" d="M220.2448,-302.0985C150.0952,-296.2969 43.4863,-282.5914 18.5,-252 8.3786,-239.6082 8.2408,-228.278 18.5,-216 30.7039,-201.3946 124.1831,-186.0939 203.4161,-175.5242"/>
<polygon fill="#000000" stroke="#000000" points="204.0405,-178.9723 213.4968,-174.1944 203.1249,-172.0324 204.0405,-178.9723"/>
</g>
<!-- GrammarMiner -->
<g id="node8" class="node">
<title>GrammarMiner</title>
<g id="a_node8"><a xlink:href="GrammarMiner.ipynb" xlink:title="GrammarMiner">
<polygon fill="#ffffff" stroke="#000000" points="529,-252 372,-252 372,-216 535,-216 535,-246 529,-252"/>
<polyline fill="none" stroke="#000000" points="529,-252 529,-246 "/>
<polyline fill="none" stroke="#000000" points="535,-246 529,-246 "/>
<text text-anchor="middle" x="453.5" y="-230.3" font-family="Patua One" font-size="14.00" fill="#b03a2e">Mining Input Grammars</text>
</a>
</g>
</g>
<!-- Coverage&#45;&gt;GrammarMiner -->
<g id="edge7" class="edge">
<title>Coverage&#45;&gt;GrammarMiner</title>
<path fill="none" stroke="#000000" d="M326.3982,-287.8314C349.2357,-278.159 377.498,-266.1891 401.5687,-255.9944"/>
<polygon fill="#000000" stroke="#000000" points="403.0671,-259.1608 410.9103,-252.038 400.3371,-252.7151 403.0671,-259.1608"/>
</g>
<!-- GrammarFuzzer -->
<g id="node9" class="node">
<title>GrammarFuzzer</title>
<g id="a_node9"><a xlink:href="GrammarFuzzer.ipynb" xlink:title="GrammarFuzzer">
<polygon fill="#ffffff" stroke="#000000" points="691.5,-324 515.5,-324 515.5,-288 697.5,-288 697.5,-318 691.5,-324"/>
<polyline fill="none" stroke="#000000" points="691.5,-324 691.5,-318 "/>
<polyline fill="none" stroke="#000000" points="697.5,-318 691.5,-318 "/>
<text text-anchor="middle" x="606.5" y="-302.3" font-family="Patua One" font-size="14.00" fill="#b03a2e">Efficient Grammar Fuzzing</text>
</a>
</g>
</g>
<!-- Grammars&#45;&gt;GrammarFuzzer -->
<g id="edge8" class="edge">
<title>Grammars&#45;&gt;GrammarFuzzer</title>
<path fill="none" stroke="#000000" d="M566.1265,-359.8314C572.346,-351.5386 579.8322,-341.557 586.66,-332.4533"/>
<polygon fill="#000000" stroke="#000000" points="589.49,-334.5133 592.69,-324.4133 583.89,-330.3133 589.49,-334.5133"/>
</g>
<!-- Intro_Testing -->
<g id="node4" class="node">
<title>Intro_Testing</title>
<g id="a_node4"><a xlink:href="Intro_Testing.ipynb" xlink:title="Intro_Testing">
<polygon fill="#ffffff" stroke="#000000" points="545.5,-540 337.5,-540 337.5,-504 551.5,-504 551.5,-534 545.5,-540"/>
<polyline fill="none" stroke="#000000" points="545.5,-540 545.5,-534 "/>
<polyline fill="none" stroke="#000000" points="551.5,-534 545.5,-534 "/>
<text text-anchor="middle" x="444.5" y="-518.3" font-family="Patua One" font-size="14.00" fill="#b03a2e">Introduction to Software Testing</text>
</a>
</g>
</g>
<!-- Intro_Testing&#45;&gt;Fuzzer -->
<g id="edge3" class="edge">
<title>Intro_Testing&#45;&gt;Fuzzer</title>
<path fill="none" stroke="#000000" d="M444.5,-503.8314C444.5,-496.131 444.5,-486.9743 444.5,-478.4166"/>
<polygon fill="#000000" stroke="#000000" points="448.0001,-478.4132 444.5,-468.4133 441.0001,-478.4133 448.0001,-478.4132"/>
</g>
<!-- ConfigurationFuzzer -->
<g id="node14" class="node">
<title>ConfigurationFuzzer</title>
<g id="a_node14"><a xlink:href="ConfigurationFuzzer.ipynb" xlink:title="ConfigurationFuzzer">
<polygon fill="#ffffff" stroke="#000000" points="151,-180 0,-180 0,-144 157,-144 157,-174 151,-180"/>
<polyline fill="none" stroke="#000000" points="151,-180 151,-174 "/>
<polyline fill="none" stroke="#000000" points="157,-174 151,-174 "/>
<text text-anchor="middle" x="78.5" y="-158.3" font-family="Patua One" font-size="14.00" fill="#b03a2e">Testing Configurations</text>
</a>
</g>
</g>
<!-- GrammarCoverageFuzzer&#45;&gt;ConfigurationFuzzer -->
<g id="edge15" class="edge">
<title>GrammarCoverageFuzzer&#45;&gt;ConfigurationFuzzer</title>
<path fill="none" stroke="#000000" d="M232.0345,-215.9243C204.0098,-206.0815 169.1516,-193.8386 139.736,-183.5073"/>
<polygon fill="#000000" stroke="#000000" points="140.5816,-180.0947 129.9867,-180.0831 138.2619,-186.6992 140.5816,-180.0947"/>
</g>
<!-- Carver -->
<g id="node15" class="node">
<title>Carver</title>
<g id="a_node15"><a xlink:href="Carver.ipynb" xlink:title="Carver">
<polygon fill="#ffffff" stroke="#000000" points="311.5,-36 185.5,-36 185.5,0 317.5,0 317.5,-30 311.5,-36"/>
<polyline fill="none" stroke="#000000" points="311.5,-36 311.5,-30 "/>
<polyline fill="none" stroke="#000000" points="317.5,-30 311.5,-30 "/>
<text text-anchor="middle" x="251.5" y="-14.3" font-family="Patua One" font-size="14.00" fill="#b03a2e">Carving Unit Tests</text>
</a>
</g>
</g>
<!-- GrammarCoverageFuzzer&#45;&gt;Carver -->
<g id="edge16" class="edge">
<title>GrammarCoverageFuzzer&#45;&gt;Carver</title>
<path fill="none" stroke="#000000" d="M241.966,-215.9032C227.3947,-207.2837 212.6417,-195.4273 204.5,-180 181.0743,-135.6121 210.0802,-78.0489 231.8134,-44.8464"/>
<polygon fill="#000000" stroke="#000000" points="234.9881,-46.4005 237.7008,-36.1588 229.1934,-42.4735 234.9881,-46.4005"/>
</g>
<!-- GUIFuzzer -->
<g id="node16" class="node">
<title>GUIFuzzer</title>
<g id="a_node16"><a xlink:href="GUIFuzzer.ipynb" xlink:title="GUIFuzzer">
<polygon fill="#ffffff" stroke="#000000" points="1073,-180 854,-180 854,-144 1079,-144 1079,-174 1073,-180"/>
<polyline fill="none" stroke="#000000" points="1073,-180 1073,-174 "/>
<polyline fill="none" stroke="#000000" points="1079,-174 1073,-174 "/>
<text text-anchor="middle" x="966.5" y="-158.3" font-family="Patua One" font-size="14.00" fill="#b03a2e">Testing Graphical User Interfaces</text>
</a>
</g>
</g>
<!-- GrammarCoverageFuzzer&#45;&gt;GUIFuzzer -->
<g id="edge17" class="edge">
<title>GrammarCoverageFuzzer&#45;&gt;GUIFuzzer</title>
<path fill="none" stroke="#000000" d="M353.6077,-217.4542C356.6053,-216.9278 359.5788,-216.4394 362.5,-216 571.7141,-184.5329 629.2587,-203.11 843.8601,-180.014"/>
<polygon fill="#000000" stroke="#000000" points="844.3074,-183.486 853.8674,-178.9192 843.5461,-176.5275 844.3074,-183.486"/>
</g>
<!-- APIFuzzer -->
<g id="node19" class="node">
<title>APIFuzzer</title>
<g id="a_node19"><a xlink:href="APIFuzzer.ipynb" xlink:title="APIFuzzer">
<polygon fill="#ffffff" stroke="#000000" points="361,-108 268,-108 268,-72 367,-72 367,-102 361,-108"/>
<polyline fill="none" stroke="#000000" points="361,-108 361,-102 "/>
<polyline fill="none" stroke="#000000" points="367,-102 361,-102 "/>
<text text-anchor="middle" x="317.5" y="-86.3" font-family="Patua One" font-size="14.00" fill="#b03a2e">Fuzzing APIs</text>
</a>
</g>
</g>
<!-- ProbabilisticGrammarFuzzer&#45;&gt;APIFuzzer -->
<g id="edge21" class="edge">
<title>ProbabilisticGrammarFuzzer&#45;&gt;APIFuzzer</title>
<path fill="none" stroke="#000000" d="M317.5,-143.8314C317.5,-136.131 317.5,-126.9743 317.5,-118.4166"/>
<polygon fill="#000000" stroke="#000000" points="321.0001,-118.4132 317.5,-108.4133 314.0001,-118.4133 321.0001,-118.4132"/>
</g>
<!-- InformationFlow -->
<g id="node18" class="node">
<title>InformationFlow</title>
<g id="a_node18"><a xlink:href="InformationFlow.ipynb" xlink:title="InformationFlow">
<polygon fill="#ffffff" stroke="#000000" points="611.5,-180 439.5,-180 439.5,-144 617.5,-144 617.5,-174 611.5,-180"/>
<polyline fill="none" stroke="#000000" points="611.5,-180 611.5,-174 "/>
<polyline fill="none" stroke="#000000" points="617.5,-174 611.5,-174 "/>
<text text-anchor="middle" x="528.5" y="-158.3" font-family="Patua One" font-size="14.00" fill="#b03a2e">Tracking Information Flow</text>
</a>
</g>
</g>
<!-- GrammarMiner&#45;&gt;InformationFlow -->
<g id="edge23" class="edge">
<title>GrammarMiner&#45;&gt;InformationFlow</title>
<path fill="none" stroke="#000000" d="M472.4257,-215.8314C481.4857,-207.1337 492.4809,-196.5783 502.3265,-187.1265"/>
<polygon fill="#000000" stroke="#000000" points="504.7904,-189.613 509.5804,-180.1628 499.9426,-184.5633 504.7904,-189.613"/>
</g>
<!-- GrammarFuzzer&#45;&gt;GrammarCoverageFuzzer -->
<g id="edge9" class="edge">
<title>GrammarFuzzer&#45;&gt;GrammarCoverageFuzzer</title>
<path fill="none" stroke="#000000" d="M524.3029,-287.9423C479.4661,-278.0606 422.7219,-265.5037 363.6005,-252.2413"/>
<polygon fill="#000000" stroke="#000000" points="364.2299,-248.7956 353.7061,-250.0202 362.6966,-255.6256 364.2299,-248.7956"/>
</g>
<!-- GrammarFuzzer&#45;&gt;GrammarMiner -->
<g id="edge13" class="edge">
<title>GrammarFuzzer&#45;&gt;GrammarMiner</title>
<path fill="none" stroke="#000000" d="M567.8916,-287.8314C547.6107,-278.2874 522.5762,-266.5065 501.1029,-256.4013"/>
<polygon fill="#000000" stroke="#000000" points="502.3692,-253.1291 491.8307,-252.038 499.3886,-259.4629 502.3692,-253.1291"/>
</g>
<!-- Parser -->
<g id="node10" class="node">
<title>Parser</title>
<g id="a_node10"><a xlink:href="Parser.ipynb" xlink:title="Parser">
<polygon fill="#ffffff" stroke="#000000" points="653.5,-252 553.5,-252 553.5,-216 659.5,-216 659.5,-246 653.5,-252"/>
<polyline fill="none" stroke="#000000" points="653.5,-252 653.5,-246 "/>
<polyline fill="none" stroke="#000000" points="659.5,-246 653.5,-246 "/>
<text text-anchor="middle" x="606.5" y="-230.3" font-family="Patua One" font-size="14.00" fill="#b03a2e">Parsing Inputs</text>
</a>
</g>
</g>
<!-- GrammarFuzzer&#45;&gt;Parser -->
<g id="edge10" class="edge">
<title>GrammarFuzzer&#45;&gt;Parser</title>
<path fill="none" stroke="#000000" d="M606.5,-287.8314C606.5,-280.131 606.5,-270.9743 606.5,-262.4166"/>
<polygon fill="#000000" stroke="#000000" points="610.0001,-262.4132 606.5,-252.4133 603.0001,-262.4133 610.0001,-262.4132"/>
</g>
<!-- GeneratorGrammarFuzzer -->
<g id="node11" class="node">
<title>GeneratorGrammarFuzzer</title>
<g id="a_node11"><a xlink:href="GeneratorGrammarFuzzer.ipynb" xlink:title="GeneratorGrammarFuzzer">
<polygon fill="#ffffff" stroke="#000000" points="1259.5,-180 1097.5,-180 1097.5,-144 1265.5,-144 1265.5,-174 1259.5,-180"/>
<polyline fill="none" stroke="#000000" points="1259.5,-180 1259.5,-174 "/>
<polyline fill="none" stroke="#000000" points="1265.5,-174 1259.5,-174 "/>
<text text-anchor="middle" x="1181.5" y="-158.3" font-family="Patua One" font-size="14.00" fill="#b03a2e">Fuzzing with Generators</text>
</a>
</g>
</g>
<!-- GrammarFuzzer&#45;&gt;GeneratorGrammarFuzzer -->
<g id="edge11" class="edge">
<title>GrammarFuzzer&#45;&gt;GeneratorGrammarFuzzer</title>
<path fill="none" stroke="#000000" d="M627.6418,-287.9692C639.7183,-277.5747 655.0819,-264.1896 668.5,-252 685.7199,-236.3568 685.3164,-225.6172 706.5,-216 781.4849,-181.9573 989.23,-191.3931 1087.4111,-179.951"/>
<polygon fill="#000000" stroke="#000000" points="1087.9452,-183.4111 1097.4124,-178.6549 1087.0455,-176.4692 1087.9452,-183.4111"/>
</g>
<!-- Reducer -->
<g id="node12" class="node">
<title>Reducer</title>
<g id="a_node12"><a xlink:href="Reducer.ipynb" xlink:title="Reducer">
<polygon fill="#ffffff" stroke="#000000" points="931.5,-252 715.5,-252 715.5,-216 937.5,-216 937.5,-246 931.5,-252"/>
<polyline fill="none" stroke="#000000" points="931.5,-252 931.5,-246 "/>
<polyline fill="none" stroke="#000000" points="937.5,-246 931.5,-246 "/>
<text text-anchor="middle" x="826.5" y="-230.3" font-family="Patua One" font-size="14.00" fill="#b03a2e">Reducing Failure&#45;Inducing Inputs</text>
</a>
</g>
</g>
<!-- GrammarFuzzer&#45;&gt;Reducer -->
<g id="edge12" class="edge">
<title>GrammarFuzzer&#45;&gt;Reducer</title>
<path fill="none" stroke="#000000" d="M661.7313,-287.9243C692.0681,-277.9959 729.8665,-265.6255 761.6055,-255.2382"/>
<polygon fill="#000000" stroke="#000000" points="762.8306,-258.52 771.246,-252.0831 760.6533,-251.8672 762.8306,-258.52"/>
</g>
<!-- WebFuzzer -->
<g id="node13" class="node">
<title>WebFuzzer</title>
<g id="a_node13"><a xlink:href="WebFuzzer.ipynb" xlink:title="WebFuzzer">
<polygon fill="#ffffff" stroke="#000000" points="1123.5,-252 955.5,-252 955.5,-216 1129.5,-216 1129.5,-246 1123.5,-252"/>
<polyline fill="none" stroke="#000000" points="1123.5,-252 1123.5,-246 "/>
<polyline fill="none" stroke="#000000" points="1129.5,-246 1123.5,-246 "/>
<text text-anchor="middle" x="1042.5" y="-230.3" font-family="Patua One" font-size="14.00" fill="#b03a2e">Testing Web Applications</text>
</a>
</g>
</g>
<!-- GrammarFuzzer&#45;&gt;WebFuzzer -->
<g id="edge14" class="edge">
<title>GrammarFuzzer&#45;&gt;WebFuzzer</title>
<path fill="none" stroke="#000000" d="M697.5288,-292.2466C763.5884,-282.1011 855.3678,-267.668 945.2941,-252.1864"/>
<polygon fill="#000000" stroke="#000000" points="946.1399,-255.5922 955.3982,-250.441 944.9483,-248.6943 946.1399,-255.5922"/>
</g>
<!-- Parser&#45;&gt;ProbabilisticGrammarFuzzer -->
<g id="edge19" class="edge">
<title>Parser&#45;&gt;ProbabilisticGrammarFuzzer</title>
<path fill="none" stroke="#000000" d="M553.269,-218.6141C549.9674,-217.7147 546.6909,-216.8366 543.5,-216 498.5238,-204.2076 448.2347,-192.0875 406.5339,-182.3253"/>
<polygon fill="#000000" stroke="#000000" points="407.2112,-178.8893 396.6773,-180.0242 405.6198,-185.706 407.2112,-178.8893"/>
</g>
<!-- LangFuzzer -->
<g id="node17" class="node">
<title>LangFuzzer</title>
<g id="a_node17"><a xlink:href="LangFuzzer.ipynb" xlink:title="LangFuzzer">
<polygon fill="#ffffff" stroke="#000000" points="829.5,-180 635.5,-180 635.5,-144 835.5,-144 835.5,-174 829.5,-180"/>
<polyline fill="none" stroke="#000000" points="829.5,-180 829.5,-174 "/>
<polyline fill="none" stroke="#000000" points="835.5,-174 829.5,-174 "/>
<text text-anchor="middle" x="735.5" y="-158.3" font-family="Patua One" font-size="14.00" fill="#b03a2e">Fuzzing with Input Fragments</text>
</a>
</g>
</g>
<!-- Parser&#45;&gt;LangFuzzer -->
<g id="edge18" class="edge">
<title>Parser&#45;&gt;LangFuzzer</title>
<path fill="none" stroke="#000000" d="M639.0521,-215.8314C655.7048,-206.5368 676.1585,-195.1208 693.9385,-185.1971"/>
<polygon fill="#000000" stroke="#000000" points="695.9321,-188.0927 702.9583,-180.1628 692.5205,-181.9803 695.9321,-188.0927"/>
</g>
<!-- Parser&#45;&gt;InformationFlow -->
<g id="edge20" class="edge">
<title>Parser&#45;&gt;InformationFlow</title>
<path fill="none" stroke="#000000" d="M586.8173,-215.8314C577.3949,-207.1337 565.9599,-196.5783 555.7204,-187.1265"/>
<polygon fill="#000000" stroke="#000000" points="557.8984,-184.3738 548.1764,-180.1628 553.1505,-189.5175 557.8984,-184.3738"/>
</g>
<!-- GeneratorGrammarFuzzer&#45;&gt;APIFuzzer -->
<g id="edge22" class="edge">
<title>GeneratorGrammarFuzzer&#45;&gt;APIFuzzer</title>
<path fill="none" stroke="#000000" d="M1097.425,-145.2537C1094.417,-144.8055 1091.435,-144.3854 1088.5,-144 824.9018,-109.3892 507.4913,-96.0064 377.4657,-91.7247"/>
<polygon fill="#000000" stroke="#000000" points="377.427,-88.2217 367.3191,-91.3966 377.2007,-95.218 377.427,-88.2217"/>
</g>
<!-- WebFuzzer&#45;&gt;GUIFuzzer -->
<g id="edge25" class="edge">
<title>WebFuzzer&#45;&gt;GUIFuzzer</title>
<path fill="none" stroke="#000000" d="M1023.322,-215.8314C1014.1412,-207.1337 1002.9994,-196.5783 993.0224,-187.1265"/>
<polygon fill="#000000" stroke="#000000" points="995.3385,-184.4995 985.6719,-180.1628 990.5243,-189.5811 995.3385,-184.4995"/>
</g>
<!-- APIFuzzer&#45;&gt;Carver -->
<g id="edge24" class="edge">
<title>APIFuzzer&#45;&gt;Carver</title>
<path fill="none" stroke="#000000" d="M300.8454,-71.8314C293.0886,-63.3694 283.7198,-53.1489 275.239,-43.8971"/>
<polygon fill="#000000" stroke="#000000" points="277.7162,-41.4198 268.3788,-36.4133 272.5561,-46.1499 277.7162,-41.4198"/>
</g>
</g>
</svg>
