<?xml version="1.0" encoding="UTF-8" standalone="no"?>
<!DOCTYPE svg PUBLIC "-//W3C//DTD SVG 1.1//EN"
 "http://www.w3.org/Graphics/SVG/1.1/DTD/svg11.dtd">
<!-- Generated by graphviz version 2.40.1 (20161225.0304)
 -->
<!-- Title: %3 Pages: 1 -->
<svg width="1155pt" height="548pt"
 viewBox="0.00 0.00 1154.50 548.00" xmlns="http://www.w3.org/2000/svg" xmlns:xlink="http://www.w3.org/1999/xlink">
<g id="graph0" class="graph" transform="scale(1 1) rotate(0) translate(4 544)">
<title>%3</title>
<polygon fill="#ffffff" stroke="transparent" points="-4,4 -4,-544 1150.5,-544 1150.5,4 -4,4"/>
<!-- Fuzzer -->
<g id="node1" class="node">
<title>Fuzzer</title>
<g id="a_node1"><a xlink:href="Fuzzer.ipynb" xlink:title="Fuzzer">
<polygon fill="#ffffff" stroke="#000000" points="543.5,-468 245.5,-468 245.5,-432 549.5,-432 549.5,-462 543.5,-468"/>
<polyline fill="none" stroke="#000000" points="543.5,-468 543.5,-462 "/>
<polyline fill="none" stroke="#000000" points="549.5,-462 543.5,-462 "/>
<text text-anchor="middle" x="397.5" y="-446.3" font-family="Patua One" font-size="14.00" fill="#b03a2e">Fuzzing: Breaking Things with Random Inputs</text>
</a>
</g>
</g>
<!-- Coverage -->
<g id="node2" class="node">
<title>Coverage</title>
<g id="a_node2"><a xlink:href="Coverage.ipynb" xlink:title="Coverage">
<polygon fill="#ffffff" stroke="#000000" points="368,-324 251,-324 251,-288 374,-288 374,-318 368,-324"/>
<polyline fill="none" stroke="#000000" points="368,-324 368,-318 "/>
<polyline fill="none" stroke="#000000" points="374,-318 368,-318 "/>
<text text-anchor="middle" x="312.5" y="-302.3" font-family="Patua One" font-size="14.00" fill="#b03a2e">Getting Coverage</text>
</a>
</g>
</g>
<!-- Fuzzer&#45;&gt;Coverage -->
<g id="edge1" class="edge">
<title>Fuzzer&#45;&gt;Coverage</title>
<path fill="none" stroke="#000000" d="M386.7347,-431.7623C371.9813,-406.7682 345.374,-361.6924 328.3436,-332.8409"/>
<polygon fill="#000000" stroke="#000000" points="331.2753,-330.9221 323.1779,-324.0896 325.2471,-334.4804 331.2753,-330.9221"/>
</g>
<!-- Grammars -->
<g id="node3" class="node">
<title>Grammars</title>
<g id="a_node3"><a xlink:href="Grammars.ipynb" xlink:title="Grammars">
<polygon fill="#ffffff" stroke="#000000" points="555,-396 396,-396 396,-360 561,-360 561,-390 555,-396"/>
<polyline fill="none" stroke="#000000" points="555,-396 555,-390 "/>
<polyline fill="none" stroke="#000000" points="561,-390 555,-390 "/>
<text text-anchor="middle" x="478.5" y="-374.3" font-family="Patua One" font-size="14.00" fill="#b03a2e">Fuzzing with Grammars</text>
</a>
</g>
</g>
<!-- Fuzzer&#45;&gt;Grammars -->
<g id="edge2" class="edge">
<title>Fuzzer&#45;&gt;Grammars</title>
<path fill="none" stroke="#000000" d="M417.9397,-431.8314C427.8205,-423.0485 439.8324,-412.3712 450.545,-402.8489"/>
<polygon fill="#000000" stroke="#000000" points="452.918,-405.4224 458.0668,-396.1628 448.2674,-400.1906 452.918,-405.4224"/>
</g>
<!-- MutationFuzzer -->
<g id="node5" class="node">
<title>MutationFuzzer</title>
<g id="a_node5"><a xlink:href="MutationFuzzer.ipynb" xlink:title="MutationFuzzer">
<polygon fill="#ffffff" stroke="#000000" points="163,-252 0,-252 0,-216 169,-216 169,-246 163,-252"/>
<polyline fill="none" stroke="#000000" points="163,-252 163,-246 "/>
<polyline fill="none" stroke="#000000" points="169,-246 163,-246 "/>
<text text-anchor="middle" x="84.5" y="-230.3" font-family="Patua One" font-size="14.00" fill="#b03a2e">Mutation&#45;Based Fuzzing</text>
</a>
</g>
</g>
<!-- Coverage&#45;&gt;MutationFuzzer -->
<g id="edge4" class="edge">
<title>Coverage&#45;&gt;MutationFuzzer</title>
<path fill="none" stroke="#000000" d="M255.2603,-287.9243C223.6848,-277.9531 184.3096,-265.5188 151.3294,-255.104"/>
<polygon fill="#000000" stroke="#000000" points="152.3531,-251.757 141.7633,-252.0831 150.2451,-258.4321 152.3531,-251.757"/>
</g>
<!-- GrammarCoverageFuzzer -->
<g id="node6" class="node">
<title>GrammarCoverageFuzzer</title>
<g id="a_node6"><a xlink:href="GrammarCoverageFuzzer.ipynb" xlink:title="GrammarCoverageFuzzer">
<polygon fill="#ffffff" stroke="#000000" points="316,-252 187,-252 187,-216 322,-216 322,-246 316,-252"/>
<polyline fill="none" stroke="#000000" points="316,-252 316,-246 "/>
<polyline fill="none" stroke="#000000" points="322,-246 316,-246 "/>
<text text-anchor="middle" x="254.5" y="-230.3" font-family="Patua One" font-size="14.00" fill="#b03a2e">Grammar Coverage</text>
</a>
</g>
</g>
<!-- Coverage&#45;&gt;GrammarCoverageFuzzer -->
<g id="edge5" class="edge">
<title>Coverage&#45;&gt;GrammarCoverageFuzzer</title>
<path fill="none" stroke="#000000" d="M297.8642,-287.8314C291.1839,-279.5386 283.1432,-269.557 275.8096,-260.4533"/>
<polygon fill="#000000" stroke="#000000" points="278.3319,-258.0052 269.3329,-252.4133 272.8806,-262.3965 278.3319,-258.0052"/>
</g>
<!-- ProbabilisticGrammarFuzzer -->
<g id="node7" class="node">
<title>ProbabilisticGrammarFuzzer</title>
<g id="a_node7"><a xlink:href="ProbabilisticGrammarFuzzer.ipynb" xlink:title="ProbabilisticGrammarFuzzer">
<polygon fill="#ffffff" stroke="#000000" points="732.5,-180 530.5,-180 530.5,-144 738.5,-144 738.5,-174 732.5,-180"/>
<polyline fill="none" stroke="#000000" points="732.5,-180 732.5,-174 "/>
<polyline fill="none" stroke="#000000" points="738.5,-174 732.5,-174 "/>
<text text-anchor="middle" x="634.5" y="-158.3" font-family="Patua One" font-size="14.00" fill="#b03a2e">Probabilistic Grammar Fuzzing</text>
</a>
</g>
</g>
<!-- Coverage&#45;&gt;ProbabilisticGrammarFuzzer -->
<g id="edge6" class="edge">
<title>Coverage&#45;&gt;ProbabilisticGrammarFuzzer</title>
<path fill="none" stroke="#000000" d="M319.0073,-287.6594C327.3653,-266.8854 343.9191,-233.6372 369.5,-216 382.4606,-207.064 454.5729,-192.6702 520.302,-180.9897"/>
<polygon fill="#000000" stroke="#000000" points="521.1258,-184.3984 530.3652,-179.2134 519.909,-177.505 521.1258,-184.3984"/>
</g>
<!-- GrammarFuzzer -->
<g id="node8" class="node">
<title>GrammarFuzzer</title>
<g id="a_node8"><a xlink:href="GrammarFuzzer.ipynb" xlink:title="GrammarFuzzer">
<polygon fill="#ffffff" stroke="#000000" points="589,-324 412,-324 412,-288 595,-288 595,-318 589,-324"/>
<polyline fill="none" stroke="#000000" points="589,-324 589,-318 "/>
<polyline fill="none" stroke="#000000" points="595,-318 589,-318 "/>
<text text-anchor="middle" x="503.5" y="-302.3" font-family="Patua One" font-size="14.00" fill="#b03a2e">Efficient Grammar Fuzzing</text>
</a>
</g>
</g>
<!-- Grammars&#45;&gt;GrammarFuzzer -->
<g id="edge7" class="edge">
<title>Grammars&#45;&gt;GrammarFuzzer</title>
<path fill="none" stroke="#000000" d="M484.8086,-359.8314C487.5117,-352.0463 490.7316,-342.7729 493.731,-334.1347"/>
<polygon fill="#000000" stroke="#000000" points="497.1327,-335.0081 497.1065,-324.4133 490.52,-332.7119 497.1327,-335.0081"/>
</g>
<!-- Intro_Testing -->
<g id="node4" class="node">
<title>Intro_Testing</title>
<g id="a_node4"><a xlink:href="Intro_Testing.ipynb" xlink:title="Intro_Testing">
<polygon fill="#ffffff" stroke="#000000" points="501,-540 288,-540 288,-504 507,-504 507,-534 501,-540"/>
<polyline fill="none" stroke="#000000" points="501,-540 501,-534 "/>
<polyline fill="none" stroke="#000000" points="507,-534 501,-534 "/>
<text text-anchor="middle" x="397.5" y="-518.3" font-family="Patua One" font-size="14.00" fill="#b03a2e">Introduction to Software Testing</text>
</a>
</g>
</g>
<!-- Intro_Testing&#45;&gt;Fuzzer -->
<g id="edge3" class="edge">
<title>Intro_Testing&#45;&gt;Fuzzer</title>
<path fill="none" stroke="#000000" d="M397.5,-503.8314C397.5,-496.131 397.5,-486.9743 397.5,-478.4166"/>
<polygon fill="#000000" stroke="#000000" points="401.0001,-478.4132 397.5,-468.4133 394.0001,-478.4133 401.0001,-478.4132"/>
</g>
<!-- ConfigurationFuzzer -->
<g id="node13" class="node">
<title>ConfigurationFuzzer</title>
<g id="a_node13"><a xlink:href="ConfigurationFuzzer.ipynb" xlink:title="ConfigurationFuzzer">
<polygon fill="#ffffff" stroke="#000000" points="230,-180 77,-180 77,-144 236,-144 236,-174 230,-180"/>
<polyline fill="none" stroke="#000000" points="230,-180 230,-174 "/>
<polyline fill="none" stroke="#000000" points="236,-174 230,-174 "/>
<text text-anchor="middle" x="156.5" y="-158.3" font-family="Patua One" font-size="14.00" fill="#b03a2e">Testing Configurations</text>
</a>
</g>
</g>
<!-- GrammarCoverageFuzzer&#45;&gt;ConfigurationFuzzer -->
<g id="edge13" class="edge">
<title>GrammarCoverageFuzzer&#45;&gt;ConfigurationFuzzer</title>
<path fill="none" stroke="#000000" d="M229.7705,-215.8314C217.5838,-206.8779 202.7177,-195.9558 189.5688,-186.2955"/>
<polygon fill="#000000" stroke="#000000" points="191.3527,-183.263 181.2216,-180.1628 187.2082,-188.9042 191.3527,-183.263"/>
</g>
<!-- Carver -->
<g id="node14" class="node">
<title>Carver</title>
<g id="a_node14"><a xlink:href="Carver.ipynb" xlink:title="Carver">
<polygon fill="#ffffff" stroke="#000000" points="509,-36 384,-36 384,0 515,0 515,-30 509,-36"/>
<polyline fill="none" stroke="#000000" points="509,-36 509,-30 "/>
<polyline fill="none" stroke="#000000" points="515,-30 509,-30 "/>
<text text-anchor="middle" x="449.5" y="-14.3" font-family="Patua One" font-size="14.00" fill="#b03a2e">Carving Unit Tests</text>
</a>
</g>
</g>
<!-- GrammarCoverageFuzzer&#45;&gt;Carver -->
<g id="edge14" class="edge">
<title>GrammarCoverageFuzzer&#45;&gt;Carver</title>
<path fill="none" stroke="#000000" d="M257.0119,-215.9939C260.4082,-196.7228 267.9311,-165.9642 283.5,-144 315.364,-99.047 368.0628,-62.9878 405.5314,-41.1491"/>
<polygon fill="#000000" stroke="#000000" points="407.2877,-44.1767 414.2306,-36.1737 403.8124,-38.1003 407.2877,-44.1767"/>
</g>
<!-- GUIFuzzer -->
<g id="node15" class="node">
<title>GUIFuzzer</title>
<g id="a_node15"><a xlink:href="GUIFuzzer.ipynb" xlink:title="GUIFuzzer">
<polygon fill="#ffffff" stroke="#000000" points="506.5,-180 292.5,-180 292.5,-144 512.5,-144 512.5,-174 506.5,-180"/>
<polyline fill="none" stroke="#000000" points="506.5,-180 506.5,-174 "/>
<polyline fill="none" stroke="#000000" points="512.5,-174 506.5,-174 "/>
<text text-anchor="middle" x="402.5" y="-158.3" font-family="Patua One" font-size="14.00" fill="#b03a2e">Testing Graphical User Interfaces</text>
</a>
</g>
</g>
<!-- GrammarCoverageFuzzer&#45;&gt;GUIFuzzer -->
<g id="edge15" class="edge">
<title>GrammarCoverageFuzzer&#45;&gt;GUIFuzzer</title>
<path fill="none" stroke="#000000" d="M291.8466,-215.8314C311.3769,-206.3302 335.4641,-194.6121 356.1731,-184.5374"/>
<polygon fill="#000000" stroke="#000000" points="357.9607,-187.56 365.4219,-180.038 354.8984,-181.2654 357.9607,-187.56"/>
</g>
<!-- APIFuzzer -->
<g id="node17" class="node">
<title>APIFuzzer</title>
<g id="a_node17"><a xlink:href="APIFuzzer.ipynb" xlink:title="APIFuzzer">
<polygon fill="#ffffff" stroke="#000000" points="677,-108 586,-108 586,-72 683,-72 683,-102 677,-108"/>
<polyline fill="none" stroke="#000000" points="677,-108 677,-102 "/>
<polyline fill="none" stroke="#000000" points="683,-102 677,-102 "/>
<text text-anchor="middle" x="634.5" y="-86.3" font-family="Patua One" font-size="14.00" fill="#b03a2e">Fuzzing APIs</text>
</a>
</g>
</g>
<!-- ProbabilisticGrammarFuzzer&#45;&gt;APIFuzzer -->
<g id="edge18" class="edge">
<title>ProbabilisticGrammarFuzzer&#45;&gt;APIFuzzer</title>
<path fill="none" stroke="#000000" d="M634.5,-143.8314C634.5,-136.131 634.5,-126.9743 634.5,-118.4166"/>
<polygon fill="#000000" stroke="#000000" points="638.0001,-118.4132 634.5,-108.4133 631.0001,-118.4133 638.0001,-118.4132"/>
</g>
<!-- GrammarFuzzer&#45;&gt;GrammarCoverageFuzzer -->
<g id="edge8" class="edge">
<title>GrammarFuzzer&#45;&gt;GrammarCoverageFuzzer</title>
<path fill="none" stroke="#000000" d="M440.9882,-287.9243C406.3564,-277.9103 363.1333,-265.412 327.0213,-254.97"/>
<polygon fill="#000000" stroke="#000000" points="327.6162,-251.4987 317.0375,-252.0831 325.6717,-258.2232 327.6162,-251.4987"/>
</g>
<!-- Parser -->
<g id="node9" class="node">
<title>Parser</title>
<g id="a_node9"><a xlink:href="Parser.ipynb" xlink:title="Parser">
<polygon fill="#ffffff" stroke="#000000" points="915,-252 814,-252 814,-216 921,-216 921,-246 915,-252"/>
<polyline fill="none" stroke="#000000" points="915,-252 915,-246 "/>
<polyline fill="none" stroke="#000000" points="921,-246 915,-246 "/>
<text text-anchor="middle" x="867.5" y="-230.3" font-family="Patua One" font-size="14.00" fill="#b03a2e">Parsing Inputs</text>
</a>
</g>
</g>
<!-- GrammarFuzzer&#45;&gt;Parser -->
<g id="edge9" class="edge">
<title>GrammarFuzzer&#45;&gt;Parser</title>
<path fill="none" stroke="#000000" d="M595.2011,-292.1872C652.7471,-282.9126 728.6341,-269.5801 803.7165,-252.3098"/>
<polygon fill="#000000" stroke="#000000" points="804.8756,-255.6338 813.8231,-249.9598 803.2902,-248.8157 804.8756,-255.6338"/>
</g>
<!-- GeneratorGrammarFuzzer -->
<g id="node10" class="node">
<title>GeneratorGrammarFuzzer</title>
<g id="a_node10"><a xlink:href="GeneratorGrammarFuzzer.ipynb" xlink:title="GeneratorGrammarFuzzer">
<polygon fill="#ffffff" stroke="#000000" points="1140.5,-180 978.5,-180 978.5,-144 1146.5,-144 1146.5,-174 1140.5,-180"/>
<polyline fill="none" stroke="#000000" points="1140.5,-180 1140.5,-174 "/>
<polyline fill="none" stroke="#000000" points="1146.5,-174 1140.5,-174 "/>
<text text-anchor="middle" x="1062.5" y="-158.3" font-family="Patua One" font-size="14.00" fill="#b03a2e">Fuzzing with Generators</text>
</a>
</g>
</g>
<!-- GrammarFuzzer&#45;&gt;GeneratorGrammarFuzzer -->
<g id="edge10" class="edge">
<title>GrammarFuzzer&#45;&gt;GeneratorGrammarFuzzer</title>
<path fill="none" stroke="#000000" d="M595.1098,-299.4671C701.799,-290.9781 871.0174,-274.5327 930.5,-252 970.0542,-237.0164 1009.3239,-207.948 1034.6125,-186.8918"/>
<polygon fill="#000000" stroke="#000000" points="1036.9481,-189.5003 1042.3144,-180.365 1032.4226,-184.1599 1036.9481,-189.5003"/>
</g>
<!-- Reducer -->
<g id="node11" class="node">
<title>Reducer</title>
<g id="a_node11"><a xlink:href="Reducer.ipynb" xlink:title="Reducer">
<polygon fill="#ffffff" stroke="#000000" points="790,-252 571,-252 571,-216 796,-216 796,-246 790,-252"/>
<polyline fill="none" stroke="#000000" points="790,-252 790,-246 "/>
<polyline fill="none" stroke="#000000" points="796,-246 790,-246 "/>
<text text-anchor="middle" x="683.5" y="-230.3" font-family="Patua One" font-size="14.00" fill="#b03a2e">Reducing Failure&#45;Inducing Inputs</text>
</a>
</g>
</g>
<!-- GrammarFuzzer&#45;&gt;Reducer -->
<g id="edge11" class="edge">
<title>GrammarFuzzer&#45;&gt;Reducer</title>
<path fill="none" stroke="#000000" d="M548.9216,-287.8314C573.2095,-278.1162 603.2922,-266.0831 628.852,-255.8592"/>
<polygon fill="#000000" stroke="#000000" points="630.4201,-259.0016 638.405,-252.038 627.8204,-252.5023 630.4201,-259.0016"/>
</g>
<!-- WebFuzzer -->
<g id="node12" class="node">
<title>WebFuzzer</title>
<g id="a_node12"><a xlink:href="WebFuzzer.ipynb" xlink:title="WebFuzzer">
<polygon fill="#ffffff" stroke="#000000" points="546.5,-252 378.5,-252 378.5,-216 552.5,-216 552.5,-246 546.5,-252"/>
<polyline fill="none" stroke="#000000" points="546.5,-252 546.5,-246 "/>
<polyline fill="none" stroke="#000000" points="552.5,-246 546.5,-246 "/>
<text text-anchor="middle" x="465.5" y="-230.3" font-family="Patua One" font-size="14.00" fill="#b03a2e">Testing Web Applications</text>
</a>
</g>
</g>
<!-- GrammarFuzzer&#45;&gt;WebFuzzer -->
<g id="edge12" class="edge">
<title>GrammarFuzzer&#45;&gt;WebFuzzer</title>
<path fill="none" stroke="#000000" d="M493.911,-287.8314C489.6683,-279.7925 484.5879,-270.1666 479.904,-261.2918"/>
<polygon fill="#000000" stroke="#000000" points="482.9811,-259.6235 475.2181,-252.4133 476.7904,-262.8908 482.9811,-259.6235"/>
</g>
<!-- Parser&#45;&gt;ProbabilisticGrammarFuzzer -->
<g id="edge17" class="edge">
<title>Parser&#45;&gt;ProbabilisticGrammarFuzzer</title>
<path fill="none" stroke="#000000" d="M813.7525,-217.3913C780.707,-207.1798 738.0599,-194.0014 702.6547,-183.0607"/>
<polygon fill="#000000" stroke="#000000" points="703.4623,-179.647 692.8747,-180.0385 701.3956,-186.335 703.4623,-179.647"/>
</g>
<!-- LangFuzzer -->
<g id="node16" class="node">
<title>LangFuzzer</title>
<g id="a_node16"><a xlink:href="LangFuzzer.ipynb" xlink:title="LangFuzzer">
<polygon fill="#ffffff" stroke="#000000" points="954.5,-180 756.5,-180 756.5,-144 960.5,-144 960.5,-174 954.5,-180"/>
<polyline fill="none" stroke="#000000" points="954.5,-180 954.5,-174 "/>
<polyline fill="none" stroke="#000000" points="960.5,-174 954.5,-174 "/>
<text text-anchor="middle" x="858.5" y="-158.3" font-family="Patua One" font-size="14.00" fill="#b03a2e">Fuzzing with Input Fragments</text>
</a>
</g>
</g>
<!-- Parser&#45;&gt;LangFuzzer -->
<g id="edge16" class="edge">
<title>Parser&#45;&gt;LangFuzzer</title>
<path fill="none" stroke="#000000" d="M865.2289,-215.8314C864.2664,-208.131 863.1218,-198.9743 862.0521,-190.4166"/>
<polygon fill="#000000" stroke="#000000" points="865.5151,-189.9019 860.8017,-180.4133 858.5691,-190.7702 865.5151,-189.9019"/>
</g>
<!-- GeneratorGrammarFuzzer&#45;&gt;APIFuzzer -->
<g id="edge19" class="edge">
<title>GeneratorGrammarFuzzer&#45;&gt;APIFuzzer</title>
<path fill="none" stroke="#000000" d="M978.3724,-145.5946C975.3793,-145.05 972.4147,-144.5169 969.5,-144 872.8089,-126.8541 760.0013,-109.1417 693.0614,-98.8703"/>
<polygon fill="#000000" stroke="#000000" points="693.538,-95.4025 683.1234,-97.3483 692.4783,-102.3219 693.538,-95.4025"/>
</g>
<!-- WebFuzzer&#45;&gt;GUIFuzzer -->
<g id="edge21" class="edge">
<title>WebFuzzer&#45;&gt;GUIFuzzer</title>
<path fill="none" stroke="#000000" d="M449.6024,-215.8314C442.2722,-207.454 433.434,-197.3531 425.4031,-188.1749"/>
<polygon fill="#000000" stroke="#000000" points="427.8307,-185.6343 418.6116,-180.4133 422.5627,-190.2438 427.8307,-185.6343"/>
</g>
<!-- APIFuzzer&#45;&gt;Carver -->
<g id="edge20" class="edge">
<title>APIFuzzer&#45;&gt;Carver</title>
<path fill="none" stroke="#000000" d="M587.8167,-71.8314C562.7441,-62.0734 531.6633,-49.977 505.3191,-39.7242"/>
<polygon fill="#000000" stroke="#000000" points="506.4362,-36.4033 495.8476,-36.038 503.8973,-42.9266 506.4362,-36.4033"/>
</g>
</g>
</svg>
