<?xml version="1.0" encoding="UTF-8" standalone="no"?>
<!DOCTYPE svg PUBLIC "-//W3C//DTD SVG 1.1//EN"
 "http://www.w3.org/Graphics/SVG/1.1/DTD/svg11.dtd">
<!-- Generated by graphviz version 2.40.1 (20161225.0304)
 -->
<!-- Title: %3 Pages: 1 -->
<svg width="1306pt" height="548pt"
 viewBox="0.00 0.00 1306.00 548.00" xmlns="http://www.w3.org/2000/svg" xmlns:xlink="http://www.w3.org/1999/xlink">
<g id="graph0" class="graph" transform="scale(1 1) rotate(0) translate(4 544)">
<title>%3</title>
<polygon fill="#ffffff" stroke="transparent" points="-4,4 -4,-544 1302,-544 1302,4 -4,4"/>
<!-- Fuzzer -->
<g id="node1" class="node">
<title>Fuzzer</title>
<g id="a_node1"><a xlink:href="Fuzzer.ipynb" xlink:title="Fuzzer">
<polygon fill="#ffffff" stroke="#000000" points="714,-468 416,-468 416,-432 720,-432 720,-462 714,-468"/>
<polyline fill="none" stroke="#000000" points="714,-468 714,-462 "/>
<polyline fill="none" stroke="#000000" points="720,-462 714,-462 "/>
<text text-anchor="middle" x="568" y="-446.3" font-family="Patua One" font-size="14.00" fill="#b03a2e">Fuzzing: Breaking Things with Random Inputs</text>
</a>
</g>
</g>
<!-- Coverage -->
<g id="node2" class="node">
<title>Coverage</title>
<g id="a_node2"><a xlink:href="Coverage.ipynb" xlink:title="Coverage">
<polygon fill="#ffffff" stroke="#000000" points="538.5,-324 421.5,-324 421.5,-288 544.5,-288 544.5,-318 538.5,-324"/>
<polyline fill="none" stroke="#000000" points="538.5,-324 538.5,-318 "/>
<polyline fill="none" stroke="#000000" points="544.5,-318 538.5,-318 "/>
<text text-anchor="middle" x="483" y="-302.3" font-family="Patua One" font-size="14.00" fill="#b03a2e">Getting Coverage</text>
</a>
</g>
</g>
<!-- Fuzzer&#45;&gt;Coverage -->
<g id="edge1" class="edge">
<title>Fuzzer&#45;&gt;Coverage</title>
<path fill="none" stroke="#000000" d="M557.2347,-431.7623C542.4813,-406.7682 515.874,-361.6924 498.8436,-332.8409"/>
<polygon fill="#000000" stroke="#000000" points="501.7753,-330.9221 493.6779,-324.0896 495.7471,-334.4804 501.7753,-330.9221"/>
</g>
<!-- Grammars -->
<g id="node3" class="node">
<title>Grammars</title>
<g id="a_node3"><a xlink:href="Grammars.ipynb" xlink:title="Grammars">
<polygon fill="#ffffff" stroke="#000000" points="715.5,-396 556.5,-396 556.5,-360 721.5,-360 721.5,-390 715.5,-396"/>
<polyline fill="none" stroke="#000000" points="715.5,-396 715.5,-390 "/>
<polyline fill="none" stroke="#000000" points="721.5,-390 715.5,-390 "/>
<text text-anchor="middle" x="639" y="-374.3" font-family="Patua One" font-size="14.00" fill="#b03a2e">Fuzzing with Grammars</text>
</a>
</g>
</g>
<!-- Fuzzer&#45;&gt;Grammars -->
<g id="edge2" class="edge">
<title>Fuzzer&#45;&gt;Grammars</title>
<path fill="none" stroke="#000000" d="M585.9163,-431.8314C594.3442,-423.2848 604.541,-412.9443 613.736,-403.6198"/>
<polygon fill="#000000" stroke="#000000" points="616.3131,-405.9912 620.8425,-396.4133 611.3289,-401.0761 616.3131,-405.9912"/>
</g>
<!-- MutationFuzzer -->
<g id="node5" class="node">
<title>MutationFuzzer</title>
<g id="a_node5"><a xlink:href="MutationFuzzer.ipynb" xlink:title="MutationFuzzer">
<polygon fill="#ffffff" stroke="#000000" points="306.5,-252 143.5,-252 143.5,-216 312.5,-216 312.5,-246 306.5,-252"/>
<polyline fill="none" stroke="#000000" points="306.5,-252 306.5,-246 "/>
<polyline fill="none" stroke="#000000" points="312.5,-246 306.5,-246 "/>
<text text-anchor="middle" x="228" y="-230.3" font-family="Patua One" font-size="14.00" fill="#b03a2e">Mutation&#45;Based Fuzzing</text>
</a>
</g>
</g>
<!-- Coverage&#45;&gt;MutationFuzzer -->
<g id="edge4" class="edge">
<title>Coverage&#45;&gt;MutationFuzzer</title>
<path fill="none" stroke="#000000" d="M421.2716,-288.5708C385.2799,-278.4084 339.6591,-265.5273 301.7799,-254.832"/>
<polygon fill="#000000" stroke="#000000" points="302.3977,-251.3696 291.8229,-252.0206 300.4956,-258.1063 302.3977,-251.3696"/>
</g>
<!-- GrammarCoverageFuzzer -->
<g id="node6" class="node">
<title>GrammarCoverageFuzzer</title>
<g id="a_node6"><a xlink:href="GrammarCoverageFuzzer.ipynb" xlink:title="GrammarCoverageFuzzer">
<polygon fill="#ffffff" stroke="#000000" points="846.5,-252 717.5,-252 717.5,-216 852.5,-216 852.5,-246 846.5,-252"/>
<polyline fill="none" stroke="#000000" points="846.5,-252 846.5,-246 "/>
<polyline fill="none" stroke="#000000" points="852.5,-246 846.5,-246 "/>
<text text-anchor="middle" x="785" y="-230.3" font-family="Patua One" font-size="14.00" fill="#b03a2e">Grammar Coverage</text>
</a>
</g>
</g>
<!-- Coverage&#45;&gt;GrammarCoverageFuzzer -->
<g id="edge5" class="edge">
<title>Coverage&#45;&gt;GrammarCoverageFuzzer</title>
<path fill="none" stroke="#000000" d="M544.8167,-290.0204C547.5809,-289.3323 550.3185,-288.6561 553,-288 618.7445,-271.9146 637.5303,-268.3446 707.6335,-252.0794"/>
<polygon fill="#000000" stroke="#000000" points="708.4478,-255.4835 717.3952,-249.8095 706.8623,-248.6654 708.4478,-255.4835"/>
</g>
<!-- ProbabilisticGrammarFuzzer -->
<g id="node7" class="node">
<title>ProbabilisticGrammarFuzzer</title>
<g id="a_node7"><a xlink:href="ProbabilisticGrammarFuzzer.ipynb" xlink:title="ProbabilisticGrammarFuzzer">
<polygon fill="#ffffff" stroke="#000000" points="388,-180 186,-180 186,-144 394,-144 394,-174 388,-180"/>
<polyline fill="none" stroke="#000000" points="388,-180 388,-174 "/>
<polyline fill="none" stroke="#000000" points="394,-174 388,-174 "/>
<text text-anchor="middle" x="290" y="-158.3" font-family="Patua One" font-size="14.00" fill="#b03a2e">Probabilistic Grammar Fuzzing</text>
</a>
</g>
</g>
<!-- Coverage&#45;&gt;ProbabilisticGrammarFuzzer -->
<g id="edge6" class="edge">
<title>Coverage&#45;&gt;ProbabilisticGrammarFuzzer</title>
<path fill="none" stroke="#000000" d="M452.4767,-287.9268C436.0026,-277.847 415.5127,-264.7783 398,-252 369.6776,-231.3344 339.1349,-205.5232 317.7813,-186.8478"/>
<polygon fill="#000000" stroke="#000000" points="319.8911,-184.0423 310.071,-180.0653 315.2677,-189.2982 319.8911,-184.0423"/>
</g>
<!-- GrammarMiner -->
<g id="node8" class="node">
<title>GrammarMiner</title>
<g id="a_node8"><a xlink:href="GrammarMiner.ipynb" xlink:title="GrammarMiner">
<polygon fill="#ffffff" stroke="#000000" points="568.5,-252 407.5,-252 407.5,-216 574.5,-216 574.5,-246 568.5,-252"/>
<polyline fill="none" stroke="#000000" points="568.5,-252 568.5,-246 "/>
<polyline fill="none" stroke="#000000" points="574.5,-246 568.5,-246 "/>
<text text-anchor="middle" x="491" y="-230.3" font-family="Patua One" font-size="14.00" fill="#b03a2e">Mining Input Grammars</text>
</a>
</g>
</g>
<!-- Coverage&#45;&gt;GrammarMiner -->
<g id="edge7" class="edge">
<title>Coverage&#45;&gt;GrammarMiner</title>
<path fill="none" stroke="#000000" d="M485.0187,-287.8314C485.8743,-280.131 486.8917,-270.9743 487.8426,-262.4166"/>
<polygon fill="#000000" stroke="#000000" points="491.3283,-262.7386 488.9541,-252.4133 484.3711,-261.9656 491.3283,-262.7386"/>
</g>
<!-- GrammarFuzzer -->
<g id="node9" class="node">
<title>GrammarFuzzer</title>
<g id="a_node9"><a xlink:href="GrammarFuzzer.ipynb" xlink:title="GrammarFuzzer">
<polygon fill="#ffffff" stroke="#000000" points="739.5,-324 562.5,-324 562.5,-288 745.5,-288 745.5,-318 739.5,-324"/>
<polyline fill="none" stroke="#000000" points="739.5,-324 739.5,-318 "/>
<polyline fill="none" stroke="#000000" points="745.5,-318 739.5,-318 "/>
<text text-anchor="middle" x="654" y="-302.3" font-family="Patua One" font-size="14.00" fill="#b03a2e">Efficient Grammar Fuzzing</text>
</a>
</g>
</g>
<!-- Grammars&#45;&gt;GrammarFuzzer -->
<g id="edge8" class="edge">
<title>Grammars&#45;&gt;GrammarFuzzer</title>
<path fill="none" stroke="#000000" d="M642.7851,-359.8314C644.3894,-352.131 646.297,-342.9743 648.0799,-334.4166"/>
<polygon fill="#000000" stroke="#000000" points="651.5507,-334.9169 650.1639,-324.4133 644.6979,-333.4892 651.5507,-334.9169"/>
</g>
<!-- Intro_Testing -->
<g id="node4" class="node">
<title>Intro_Testing</title>
<g id="a_node4"><a xlink:href="Intro_Testing.ipynb" xlink:title="Intro_Testing">
<polygon fill="#ffffff" stroke="#000000" points="671.5,-540 458.5,-540 458.5,-504 677.5,-504 677.5,-534 671.5,-540"/>
<polyline fill="none" stroke="#000000" points="671.5,-540 671.5,-534 "/>
<polyline fill="none" stroke="#000000" points="677.5,-534 671.5,-534 "/>
<text text-anchor="middle" x="568" y="-518.3" font-family="Patua One" font-size="14.00" fill="#b03a2e">Introduction to Software Testing</text>
</a>
</g>
</g>
<!-- Intro_Testing&#45;&gt;Fuzzer -->
<g id="edge3" class="edge">
<title>Intro_Testing&#45;&gt;Fuzzer</title>
<path fill="none" stroke="#000000" d="M568,-503.8314C568,-496.131 568,-486.9743 568,-478.4166"/>
<polygon fill="#000000" stroke="#000000" points="571.5001,-478.4132 568,-468.4133 564.5001,-478.4133 571.5001,-478.4132"/>
</g>
<!-- ConfigurationFuzzer -->
<g id="node14" class="node">
<title>ConfigurationFuzzer</title>
<g id="a_node14"><a xlink:href="ConfigurationFuzzer.ipynb" xlink:title="ConfigurationFuzzer">
<polygon fill="#ffffff" stroke="#000000" points="989.5,-180 836.5,-180 836.5,-144 995.5,-144 995.5,-174 989.5,-180"/>
<polyline fill="none" stroke="#000000" points="989.5,-180 989.5,-174 "/>
<polyline fill="none" stroke="#000000" points="995.5,-174 989.5,-174 "/>
<text text-anchor="middle" x="916" y="-158.3" font-family="Patua One" font-size="14.00" fill="#b03a2e">Testing Configurations</text>
</a>
</g>
</g>
<!-- GrammarCoverageFuzzer&#45;&gt;ConfigurationFuzzer -->
<g id="edge15" class="edge">
<title>GrammarCoverageFuzzer&#45;&gt;ConfigurationFuzzer</title>
<path fill="none" stroke="#000000" d="M818.0568,-215.8314C834.9677,-206.5368 855.7385,-195.1208 873.7941,-185.1971"/>
<polygon fill="#000000" stroke="#000000" points="875.876,-188.0468 882.9537,-180.1628 872.5043,-181.9122 875.876,-188.0468"/>
</g>
<!-- Carver -->
<g id="node15" class="node">
<title>Carver</title>
<g id="a_node15"><a xlink:href="Carver.ipynb" xlink:title="Carver">
<polygon fill="#ffffff" stroke="#000000" points="716.5,-36 591.5,-36 591.5,0 722.5,0 722.5,-30 716.5,-36"/>
<polyline fill="none" stroke="#000000" points="716.5,-36 716.5,-30 "/>
<polyline fill="none" stroke="#000000" points="722.5,-30 716.5,-30 "/>
<text text-anchor="middle" x="657" y="-14.3" font-family="Patua One" font-size="14.00" fill="#b03a2e">Carving Unit Tests</text>
</a>
</g>
</g>
<!-- GrammarCoverageFuzzer&#45;&gt;Carver -->
<g id="edge16" class="edge">
<title>GrammarCoverageFuzzer&#45;&gt;Carver</title>
<path fill="none" stroke="#000000" d="M852.6002,-217.9247C916.8092,-202.579 1003.7771,-181.5594 1005,-180 1014.8736,-167.4098 1014.1882,-157.0987 1005,-144 973.0472,-98.4481 825.0549,-56.8621 732.6536,-34.7241"/>
<polygon fill="#000000" stroke="#000000" points="733.3207,-31.2853 722.7828,-32.3824 731.7048,-38.0963 733.3207,-31.2853"/>
</g>
<!-- GUIFuzzer -->
<g id="node16" class="node">
<title>GUIFuzzer</title>
<g id="a_node16"><a xlink:href="GUIFuzzer.ipynb" xlink:title="GUIFuzzer">
<polygon fill="#ffffff" stroke="#000000" points="1292,-180 1078,-180 1078,-144 1298,-144 1298,-174 1292,-180"/>
<polyline fill="none" stroke="#000000" points="1292,-180 1292,-174 "/>
<polyline fill="none" stroke="#000000" points="1298,-174 1292,-174 "/>
<text text-anchor="middle" x="1188" y="-158.3" font-family="Patua One" font-size="14.00" fill="#b03a2e">Testing Graphical User Interfaces</text>
</a>
</g>
</g>
<!-- GrammarCoverageFuzzer&#45;&gt;GUIFuzzer -->
<g id="edge17" class="edge">
<title>GrammarCoverageFuzzer&#45;&gt;GUIFuzzer</title>
<path fill="none" stroke="#000000" d="M852.5517,-217.9449C855.7418,-217.2697 858.9035,-216.6177 862,-216 929.8155,-202.472 1006.0446,-189.7113 1067.7288,-179.9947"/>
<polygon fill="#000000" stroke="#000000" points="1068.5547,-183.408 1077.8916,-178.4006 1067.47,-176.4926 1068.5547,-183.408"/>
</g>
<!-- APIFuzzer -->
<g id="node19" class="node">
<title>APIFuzzer</title>
<g id="a_node19"><a xlink:href="APIFuzzer.ipynb" xlink:title="APIFuzzer">
<polygon fill="#ffffff" stroke="#000000" points="332.5,-108 241.5,-108 241.5,-72 338.5,-72 338.5,-102 332.5,-108"/>
<polyline fill="none" stroke="#000000" points="332.5,-108 332.5,-102 "/>
<polyline fill="none" stroke="#000000" points="338.5,-102 332.5,-102 "/>
<text text-anchor="middle" x="290" y="-86.3" font-family="Patua One" font-size="14.00" fill="#b03a2e">Fuzzing APIs</text>
</a>
</g>
</g>
<!-- ProbabilisticGrammarFuzzer&#45;&gt;APIFuzzer -->
<g id="edge21" class="edge">
<title>ProbabilisticGrammarFuzzer&#45;&gt;APIFuzzer</title>
<path fill="none" stroke="#000000" d="M290,-143.8314C290,-136.131 290,-126.9743 290,-118.4166"/>
<polygon fill="#000000" stroke="#000000" points="293.5001,-118.4132 290,-108.4133 286.5001,-118.4133 293.5001,-118.4132"/>
</g>
<!-- InformationFlow -->
<g id="node18" class="node">
<title>InformationFlow</title>
<g id="a_node18"><a xlink:href="InformationFlow.ipynb" xlink:title="InformationFlow">
<polygon fill="#ffffff" stroke="#000000" points="589.5,-180 412.5,-180 412.5,-144 595.5,-144 595.5,-174 589.5,-180"/>
<polyline fill="none" stroke="#000000" points="589.5,-180 589.5,-174 "/>
<polyline fill="none" stroke="#000000" points="595.5,-174 589.5,-174 "/>
<text text-anchor="middle" x="504" y="-158.3" font-family="Patua One" font-size="14.00" fill="#b03a2e">Tracking Information Flow</text>
</a>
</g>
</g>
<!-- GrammarMiner&#45;&gt;InformationFlow -->
<g id="edge23" class="edge">
<title>GrammarMiner&#45;&gt;InformationFlow</title>
<path fill="none" stroke="#000000" d="M494.2804,-215.8314C495.6708,-208.131 497.3241,-198.9743 498.8692,-190.4166"/>
<polygon fill="#000000" stroke="#000000" points="502.3428,-190.8761 500.6754,-180.4133 495.4542,-189.6322 502.3428,-190.8761"/>
</g>
<!-- GrammarFuzzer&#45;&gt;GrammarCoverageFuzzer -->
<g id="edge9" class="edge">
<title>GrammarFuzzer&#45;&gt;GrammarCoverageFuzzer</title>
<path fill="none" stroke="#000000" d="M687.0568,-287.8314C703.9677,-278.5368 724.7385,-267.1208 742.7941,-257.1971"/>
<polygon fill="#000000" stroke="#000000" points="744.876,-260.0468 751.9537,-252.1628 741.5043,-253.9122 744.876,-260.0468"/>
</g>
<!-- GrammarFuzzer&#45;&gt;GrammarMiner -->
<g id="edge13" class="edge">
<title>GrammarFuzzer&#45;&gt;GrammarMiner</title>
<path fill="none" stroke="#000000" d="M612.8682,-287.8314C591.0679,-278.2018 564.1122,-266.295 541.0996,-256.1299"/>
<polygon fill="#000000" stroke="#000000" points="542.3976,-252.877 531.836,-252.038 539.5692,-259.2802 542.3976,-252.877"/>
</g>
<!-- Parser -->
<g id="node10" class="node">
<title>Parser</title>
<g id="a_node10"><a xlink:href="Parser.ipynb" xlink:title="Parser">
<polygon fill="#ffffff" stroke="#000000" points="693.5,-252 592.5,-252 592.5,-216 699.5,-216 699.5,-246 693.5,-252"/>
<polyline fill="none" stroke="#000000" points="693.5,-252 693.5,-246 "/>
<polyline fill="none" stroke="#000000" points="699.5,-246 693.5,-246 "/>
<text text-anchor="middle" x="646" y="-230.3" font-family="Patua One" font-size="14.00" fill="#b03a2e">Parsing Inputs</text>
</a>
</g>
</g>
<!-- GrammarFuzzer&#45;&gt;Parser -->
<g id="edge10" class="edge">
<title>GrammarFuzzer&#45;&gt;Parser</title>
<path fill="none" stroke="#000000" d="M651.9813,-287.8314C651.1257,-280.131 650.1083,-270.9743 649.1574,-262.4166"/>
<polygon fill="#000000" stroke="#000000" points="652.6289,-261.9656 648.0459,-252.4133 645.6717,-262.7386 652.6289,-261.9656"/>
</g>
<!-- GeneratorGrammarFuzzer -->
<g id="node11" class="node">
<title>GeneratorGrammarFuzzer</title>
<g id="a_node11"><a xlink:href="GeneratorGrammarFuzzer.ipynb" xlink:title="GeneratorGrammarFuzzer">
<polygon fill="#ffffff" stroke="#000000" points="162,-180 0,-180 0,-144 168,-144 168,-174 162,-180"/>
<polyline fill="none" stroke="#000000" points="162,-180 162,-174 "/>
<polyline fill="none" stroke="#000000" points="168,-174 162,-174 "/>
<text text-anchor="middle" x="84" y="-158.3" font-family="Patua One" font-size="14.00" fill="#b03a2e">Fuzzing with Generators</text>
</a>
</g>
</g>
<!-- GrammarFuzzer&#45;&gt;GeneratorGrammarFuzzer -->
<g id="edge11" class="edge">
<title>GrammarFuzzer&#45;&gt;GeneratorGrammarFuzzer</title>
<path fill="none" stroke="#000000" d="M562.197,-288.9324C501.6276,-277.2313 428.1015,-262.0627 398,-252 362.1712,-240.0227 356.731,-228.266 321,-216 294.6034,-206.9384 232.2167,-192.8253 178.0766,-181.2996"/>
<polygon fill="#000000" stroke="#000000" points="178.5823,-177.8292 168.0739,-179.1795 177.1308,-184.677 178.5823,-177.8292"/>
</g>
<!-- Reducer -->
<g id="node12" class="node">
<title>Reducer</title>
<g id="a_node12"><a xlink:href="Reducer.ipynb" xlink:title="Reducer">
<polygon fill="#ffffff" stroke="#000000" points="1089.5,-252 870.5,-252 870.5,-216 1095.5,-216 1095.5,-246 1089.5,-252"/>
<polyline fill="none" stroke="#000000" points="1089.5,-252 1089.5,-246 "/>
<polyline fill="none" stroke="#000000" points="1095.5,-246 1089.5,-246 "/>
<text text-anchor="middle" x="983" y="-230.3" font-family="Patua One" font-size="14.00" fill="#b03a2e">Reducing Failure&#45;Inducing Inputs</text>
</a>
</g>
</g>
<!-- GrammarFuzzer&#45;&gt;Reducer -->
<g id="edge12" class="edge">
<title>GrammarFuzzer&#45;&gt;Reducer</title>
<path fill="none" stroke="#000000" d="M736.5959,-287.9243C783.5189,-277.6554 842.3787,-264.7743 890.803,-254.1768"/>
<polygon fill="#000000" stroke="#000000" points="891.635,-257.5777 900.6555,-252.0207 890.1384,-250.7395 891.635,-257.5777"/>
</g>
<!-- WebFuzzer -->
<g id="node13" class="node">
<title>WebFuzzer</title>
<g id="a_node13"><a xlink:href="WebFuzzer.ipynb" xlink:title="WebFuzzer">
<polygon fill="#ffffff" stroke="#000000" points="1282,-252 1114,-252 1114,-216 1288,-216 1288,-246 1282,-252"/>
<polyline fill="none" stroke="#000000" points="1282,-252 1282,-246 "/>
<polyline fill="none" stroke="#000000" points="1288,-246 1282,-246 "/>
<text text-anchor="middle" x="1201" y="-230.3" font-family="Patua One" font-size="14.00" fill="#b03a2e">Testing Web Applications</text>
</a>
</g>
</g>
<!-- GrammarFuzzer&#45;&gt;WebFuzzer -->
<g id="edge14" class="edge">
<title>GrammarFuzzer&#45;&gt;WebFuzzer</title>
<path fill="none" stroke="#000000" d="M745.8024,-296.8076C834.7868,-287.4851 973.7899,-271.8366 1103.7818,-252.1352"/>
<polygon fill="#000000" stroke="#000000" points="1104.5648,-255.5563 1113.922,-250.5872 1103.5084,-248.6365 1104.5648,-255.5563"/>
</g>
<!-- Parser&#45;&gt;ProbabilisticGrammarFuzzer -->
<g id="edge19" class="edge">
<title>Parser&#45;&gt;ProbabilisticGrammarFuzzer</title>
<path fill="none" stroke="#000000" d="M592.4753,-218.3288C589.2773,-217.5103 586.101,-216.727 583,-216 524.4503,-202.2739 458.6487,-189.8774 404.2584,-180.4341"/>
<polygon fill="#000000" stroke="#000000" points="404.6891,-176.9567 394.2396,-178.7055 403.4989,-183.8548 404.6891,-176.9567"/>
</g>
<!-- LangFuzzer -->
<g id="node17" class="node">
<title>LangFuzzer</title>
<g id="a_node17"><a xlink:href="LangFuzzer.ipynb" xlink:title="LangFuzzer">
<polygon fill="#ffffff" stroke="#000000" points="812,-180 614,-180 614,-144 818,-144 818,-174 812,-180"/>
<polyline fill="none" stroke="#000000" points="812,-180 812,-174 "/>
<polyline fill="none" stroke="#000000" points="818,-174 812,-174 "/>
<text text-anchor="middle" x="716" y="-158.3" font-family="Patua One" font-size="14.00" fill="#b03a2e">Fuzzing with Input Fragments</text>
</a>
</g>
</g>
<!-- Parser&#45;&gt;LangFuzzer -->
<g id="edge18" class="edge">
<title>Parser&#45;&gt;LangFuzzer</title>
<path fill="none" stroke="#000000" d="M663.664,-215.8314C671.9732,-207.2848 682.0264,-196.9443 691.0918,-187.6198"/>
<polygon fill="#000000" stroke="#000000" points="693.6369,-190.023 698.0982,-180.4133 688.6179,-185.1435 693.6369,-190.023"/>
</g>
<!-- Parser&#45;&gt;InformationFlow -->
<g id="edge20" class="edge">
<title>Parser&#45;&gt;InformationFlow</title>
<path fill="none" stroke="#000000" d="M610.1674,-215.8314C591.5843,-206.4089 568.7011,-194.8062 548.9435,-184.7883"/>
<polygon fill="#000000" stroke="#000000" points="550.323,-181.5635 539.8211,-180.1628 547.1573,-187.8069 550.323,-181.5635"/>
</g>
<!-- GeneratorGrammarFuzzer&#45;&gt;APIFuzzer -->
<g id="edge22" class="edge">
<title>GeneratorGrammarFuzzer&#45;&gt;APIFuzzer</title>
<path fill="none" stroke="#000000" d="M135.7166,-143.9243C164.9683,-133.7004 201.6289,-120.887 231.8733,-110.3161"/>
<polygon fill="#000000" stroke="#000000" points="233.1647,-113.5725 241.4499,-106.969 230.855,-106.9645 233.1647,-113.5725"/>
</g>
<!-- WebFuzzer&#45;&gt;GUIFuzzer -->
<g id="edge26" class="edge">
<title>WebFuzzer&#45;&gt;GUIFuzzer</title>
<path fill="none" stroke="#000000" d="M1197.7196,-215.8314C1196.3292,-208.131 1194.6759,-198.9743 1193.1308,-190.4166"/>
<polygon fill="#000000" stroke="#000000" points="1196.5458,-189.6322 1191.3246,-180.4133 1189.6572,-190.8761 1196.5458,-189.6322"/>
</g>
<!-- ConcolicFuzzer -->
<g id="node20" class="node">
<title>ConcolicFuzzer</title>
<g id="a_node20"><a xlink:href="ConcolicFuzzer.ipynb" xlink:title="ConcolicFuzzer">
<polygon fill="#ffffff" stroke="#000000" points="558,-108 444,-108 444,-72 564,-72 564,-102 558,-108"/>
<polyline fill="none" stroke="#000000" points="558,-108 558,-102 "/>
<polyline fill="none" stroke="#000000" points="564,-102 558,-102 "/>
<text text-anchor="middle" x="504" y="-86.3" font-family="Patua One" font-size="14.00" fill="#b03a2e">Concolic Fuzzing</text>
</a>
</g>
</g>
<!-- InformationFlow&#45;&gt;ConcolicFuzzer -->
<g id="edge24" class="edge">
<title>InformationFlow&#45;&gt;ConcolicFuzzer</title>
<path fill="none" stroke="#000000" d="M504,-143.8314C504,-136.131 504,-126.9743 504,-118.4166"/>
<polygon fill="#000000" stroke="#000000" points="507.5001,-118.4132 504,-108.4133 500.5001,-118.4133 507.5001,-118.4132"/>
</g>
<!-- APIFuzzer&#45;&gt;Carver -->
<g id="edge25" class="edge">
<title>APIFuzzer&#45;&gt;Carver</title>
<path fill="none" stroke="#000000" d="M338.7348,-80.439C400.7473,-68.273 508.5236,-47.1289 581.2811,-32.8549"/>
<polygon fill="#000000" stroke="#000000" points="582.1676,-36.2478 591.3067,-30.8881 580.8199,-29.3788 582.1676,-36.2478"/>
</g>
</g>
</svg>
