<?xml version="1.0" encoding="UTF-8" standalone="no"?>
<!DOCTYPE svg PUBLIC "-//W3C//DTD SVG 1.1//EN"
 "http://www.w3.org/Graphics/SVG/1.1/DTD/svg11.dtd">
<!-- Generated by graphviz version 2.40.1 (20161225.0304)
 -->
<!-- Title: %3 Pages: 1 -->
<svg width="1404pt" height="548pt"
 viewBox="0.00 0.00 1404.00 548.00" xmlns="http://www.w3.org/2000/svg" xmlns:xlink="http://www.w3.org/1999/xlink">
<g id="graph0" class="graph" transform="scale(1 1) rotate(0) translate(4 544)">
<title>%3</title>
<polygon fill="#ffffff" stroke="transparent" points="-4,4 -4,-544 1400,-544 1400,4 -4,4"/>
<!-- Fuzzer -->
<g id="node1" class="node">
<title>Fuzzer</title>
<g id="a_node1"><a xlink:href="Fuzzer.ipynb" xlink:title="Fuzzer">
<polygon fill="#ffffff" stroke="#000000" points="833,-468 535,-468 535,-432 839,-432 839,-462 833,-468"/>
<polyline fill="none" stroke="#000000" points="833,-468 833,-462 "/>
<polyline fill="none" stroke="#000000" points="839,-462 833,-462 "/>
<text text-anchor="middle" x="687" y="-446.3" font-family="Patua One" font-size="14.00" fill="#b03a2e">Fuzzing: Breaking Things with Random Inputs</text>
</a>
</g>
</g>
<!-- Coverage -->
<g id="node2" class="node">
<title>Coverage</title>
<g id="a_node2"><a xlink:href="Coverage.ipynb" xlink:title="Coverage">
<polygon fill="#ffffff" stroke="#000000" points="537.5,-324 420.5,-324 420.5,-288 543.5,-288 543.5,-318 537.5,-324"/>
<polyline fill="none" stroke="#000000" points="537.5,-324 537.5,-318 "/>
<polyline fill="none" stroke="#000000" points="543.5,-318 537.5,-318 "/>
<text text-anchor="middle" x="482" y="-302.3" font-family="Patua One" font-size="14.00" fill="#b03a2e">Getting Coverage</text>
</a>
</g>
</g>
<!-- Fuzzer&#45;&gt;Coverage -->
<g id="edge1" class="edge">
<title>Fuzzer&#45;&gt;Coverage</title>
<path fill="none" stroke="#000000" d="M653.5126,-431.8596C635.7514,-421.8636 613.7796,-408.8941 595,-396 565.1689,-375.5179 533.0696,-349.5353 510.7345,-330.7583"/>
<polygon fill="#000000" stroke="#000000" points="512.865,-327.9763 502.9698,-324.19 508.3441,-333.3206 512.865,-327.9763"/>
</g>
<!-- SearchBasedFuzzer -->
<g id="node3" class="node">
<title>SearchBasedFuzzer</title>
<g id="a_node3"><a xlink:href="SearchBasedFuzzer.ipynb" xlink:title="SearchBasedFuzzer">
<polygon fill="#ffffff" stroke="#000000" points="934,-396 788,-396 788,-360 940,-360 940,-390 934,-396"/>
<polyline fill="none" stroke="#000000" points="934,-396 934,-390 "/>
<polyline fill="none" stroke="#000000" points="940,-390 934,-390 "/>
<text text-anchor="middle" x="864" y="-374.3" font-family="Patua One" font-size="14.00" fill="#b03a2e">Search&#45;Based Fuzzing</text>
</a>
</g>
</g>
<!-- Fuzzer&#45;&gt;SearchBasedFuzzer -->
<g id="edge2" class="edge">
<title>Fuzzer&#45;&gt;SearchBasedFuzzer</title>
<path fill="none" stroke="#000000" d="M731.6646,-431.8314C755.5477,-422.1162 785.129,-410.0831 810.2628,-399.8592"/>
<polygon fill="#000000" stroke="#000000" points="811.7125,-403.0481 819.6566,-396.038 809.0748,-396.564 811.7125,-403.0481"/>
</g>
<!-- Grammars -->
<g id="node4" class="node">
<title>Grammars</title>
<g id="a_node4"><a xlink:href="Grammars.ipynb" xlink:title="Grammars">
<polygon fill="#ffffff" stroke="#000000" points="763.5,-396 604.5,-396 604.5,-360 769.5,-360 769.5,-390 763.5,-396"/>
<polyline fill="none" stroke="#000000" points="763.5,-396 763.5,-390 "/>
<polyline fill="none" stroke="#000000" points="769.5,-390 763.5,-390 "/>
<text text-anchor="middle" x="687" y="-374.3" font-family="Patua One" font-size="14.00" fill="#b03a2e">Fuzzing with Grammars</text>
</a>
</g>
</g>
<!-- Fuzzer&#45;&gt;Grammars -->
<g id="edge3" class="edge">
<title>Fuzzer&#45;&gt;Grammars</title>
<path fill="none" stroke="#000000" d="M687,-431.8314C687,-424.131 687,-414.9743 687,-406.4166"/>
<polygon fill="#000000" stroke="#000000" points="690.5001,-406.4132 687,-396.4133 683.5001,-406.4133 690.5001,-406.4132"/>
</g>
<!-- MutationFuzzer -->
<g id="node6" class="node">
<title>MutationFuzzer</title>
<g id="a_node6"><a xlink:href="MutationFuzzer.ipynb" xlink:title="MutationFuzzer">
<polygon fill="#ffffff" stroke="#000000" points="391.5,-252 228.5,-252 228.5,-216 397.5,-216 397.5,-246 391.5,-252"/>
<polyline fill="none" stroke="#000000" points="391.5,-252 391.5,-246 "/>
<polyline fill="none" stroke="#000000" points="397.5,-246 391.5,-246 "/>
<text text-anchor="middle" x="313" y="-230.3" font-family="Patua One" font-size="14.00" fill="#b03a2e">Mutation&#45;Based Fuzzing</text>
</a>
</g>
</g>
<!-- Coverage&#45;&gt;MutationFuzzer -->
<g id="edge5" class="edge">
<title>Coverage&#45;&gt;MutationFuzzer</title>
<path fill="none" stroke="#000000" d="M439.3542,-287.8314C416.651,-278.159 388.5549,-266.1891 364.6258,-255.9944"/>
<polygon fill="#000000" stroke="#000000" points="365.9109,-252.7376 355.3392,-252.038 363.1672,-259.1775 365.9109,-252.7376"/>
</g>
<!-- GrammarCoverageFuzzer -->
<g id="node7" class="node">
<title>GrammarCoverageFuzzer</title>
<g id="a_node7"><a xlink:href="GrammarCoverageFuzzer.ipynb" xlink:title="GrammarCoverageFuzzer">
<polygon fill="#ffffff" stroke="#000000" points="932.5,-252 803.5,-252 803.5,-216 938.5,-216 938.5,-246 932.5,-252"/>
<polyline fill="none" stroke="#000000" points="932.5,-252 932.5,-246 "/>
<polyline fill="none" stroke="#000000" points="938.5,-246 932.5,-246 "/>
<text text-anchor="middle" x="871" y="-230.3" font-family="Patua One" font-size="14.00" fill="#b03a2e">Grammar Coverage</text>
</a>
</g>
</g>
<!-- Coverage&#45;&gt;GrammarCoverageFuzzer -->
<g id="edge6" class="edge">
<title>Coverage&#45;&gt;GrammarCoverageFuzzer</title>
<path fill="none" stroke="#000000" d="M543.6382,-294.5914C611.2617,-282.075 719.9293,-261.9617 793.3302,-248.3759"/>
<polygon fill="#000000" stroke="#000000" points="794.2494,-251.7653 803.4453,-246.5037 792.9753,-244.8822 794.2494,-251.7653"/>
</g>
<!-- ProbabilisticGrammarFuzzer -->
<g id="node8" class="node">
<title>ProbabilisticGrammarFuzzer</title>
<g id="a_node8"><a xlink:href="ProbabilisticGrammarFuzzer.ipynb" xlink:title="ProbabilisticGrammarFuzzer">
<polygon fill="#ffffff" stroke="#000000" points="526,-180 324,-180 324,-144 532,-144 532,-174 526,-180"/>
<polyline fill="none" stroke="#000000" points="526,-180 526,-174 "/>
<polyline fill="none" stroke="#000000" points="532,-174 526,-174 "/>
<text text-anchor="middle" x="428" y="-158.3" font-family="Patua One" font-size="14.00" fill="#b03a2e">Probabilistic Grammar Fuzzing</text>
</a>
</g>
</g>
<!-- Coverage&#45;&gt;ProbabilisticGrammarFuzzer -->
<g id="edge7" class="edge">
<title>Coverage&#45;&gt;ProbabilisticGrammarFuzzer</title>
<path fill="none" stroke="#000000" d="M466.5719,-287.6274C458.9711,-277.6683 450.3187,-264.8041 445,-252 436.7904,-232.2364 432.5142,-208.3783 430.3047,-190.1934"/>
<polygon fill="#000000" stroke="#000000" points="433.7808,-189.7827 429.2284,-180.2158 426.8211,-190.5335 433.7808,-189.7827"/>
</g>
<!-- GrammarMiner -->
<g id="node9" class="node">
<title>GrammarMiner</title>
<g id="a_node9"><a xlink:href="GrammarMiner.ipynb" xlink:title="GrammarMiner">
<polygon fill="#ffffff" stroke="#000000" points="615.5,-252 454.5,-252 454.5,-216 621.5,-216 621.5,-246 615.5,-252"/>
<polyline fill="none" stroke="#000000" points="615.5,-252 615.5,-246 "/>
<polyline fill="none" stroke="#000000" points="621.5,-246 615.5,-246 "/>
<text text-anchor="middle" x="538" y="-230.3" font-family="Patua One" font-size="14.00" fill="#b03a2e">Mining Input Grammars</text>
</a>
</g>
</g>
<!-- Coverage&#45;&gt;GrammarMiner -->
<g id="edge8" class="edge">
<title>Coverage&#45;&gt;GrammarMiner</title>
<path fill="none" stroke="#000000" d="M496.1312,-287.8314C502.5811,-279.5386 510.3445,-269.557 517.4252,-260.4533"/>
<polygon fill="#000000" stroke="#000000" points="520.3019,-262.4556 523.6786,-252.4133 514.7764,-258.158 520.3019,-262.4556"/>
</g>
<!-- DynamicInvariants -->
<g id="node10" class="node">
<title>DynamicInvariants</title>
<g id="a_node10"><a xlink:href="DynamicInvariants.ipynb" xlink:title="DynamicInvariants">
<polygon fill="#ffffff" stroke="#000000" points="204,-252 0,-252 0,-216 210,-216 210,-246 204,-252"/>
<polyline fill="none" stroke="#000000" points="204,-252 204,-246 "/>
<polyline fill="none" stroke="#000000" points="210,-246 204,-246 "/>
<text text-anchor="middle" x="105" y="-230.3" font-family="Patua One" font-size="14.00" fill="#b03a2e">Mining Function Specifications</text>
</a>
</g>
</g>
<!-- Coverage&#45;&gt;DynamicInvariants -->
<g id="edge9" class="edge">
<title>Coverage&#45;&gt;DynamicInvariants</title>
<path fill="none" stroke="#000000" d="M420.1683,-294.1913C363.0259,-283.2782 276.9791,-266.8448 209.2246,-253.905"/>
<polygon fill="#000000" stroke="#000000" points="209.8454,-250.4603 199.3664,-252.0222 208.5322,-257.3361 209.8454,-250.4603"/>
</g>
<!-- GrammarFuzzer -->
<g id="node11" class="node">
<title>GrammarFuzzer</title>
<g id="a_node11"><a xlink:href="GrammarFuzzer.ipynb" xlink:title="GrammarFuzzer">
<polygon fill="#ffffff" stroke="#000000" points="860.5,-324 683.5,-324 683.5,-288 866.5,-288 866.5,-318 860.5,-324"/>
<polyline fill="none" stroke="#000000" points="860.5,-324 860.5,-318 "/>
<polyline fill="none" stroke="#000000" points="866.5,-318 860.5,-318 "/>
<text text-anchor="middle" x="775" y="-302.3" font-family="Patua One" font-size="14.00" fill="#b03a2e">Efficient Grammar Fuzzing</text>
</a>
</g>
</g>
<!-- Grammars&#45;&gt;GrammarFuzzer -->
<g id="edge10" class="edge">
<title>Grammars&#45;&gt;GrammarFuzzer</title>
<path fill="none" stroke="#000000" d="M709.2061,-359.8314C720.045,-350.9632 733.2444,-340.1637 744.9678,-330.5718"/>
<polygon fill="#000000" stroke="#000000" points="747.2777,-333.2041 752.801,-324.1628 742.845,-327.7864 747.2777,-333.2041"/>
</g>
<!-- Intro_Testing -->
<g id="node5" class="node">
<title>Intro_Testing</title>
<g id="a_node5"><a xlink:href="Intro_Testing.ipynb" xlink:title="Intro_Testing">
<polygon fill="#ffffff" stroke="#000000" points="790.5,-540 577.5,-540 577.5,-504 796.5,-504 796.5,-534 790.5,-540"/>
<polyline fill="none" stroke="#000000" points="790.5,-540 790.5,-534 "/>
<polyline fill="none" stroke="#000000" points="796.5,-534 790.5,-534 "/>
<text text-anchor="middle" x="687" y="-518.3" font-family="Patua One" font-size="14.00" fill="#b03a2e">Introduction to Software Testing</text>
</a>
</g>
</g>
<!-- Intro_Testing&#45;&gt;Fuzzer -->
<g id="edge4" class="edge">
<title>Intro_Testing&#45;&gt;Fuzzer</title>
<path fill="none" stroke="#000000" d="M687,-503.8314C687,-496.131 687,-486.9743 687,-478.4166"/>
<polygon fill="#000000" stroke="#000000" points="690.5001,-478.4132 687,-468.4133 683.5001,-478.4133 690.5001,-478.4132"/>
</g>
<!-- ConfigurationFuzzer -->
<g id="node16" class="node">
<title>ConfigurationFuzzer</title>
<g id="a_node16"><a xlink:href="ConfigurationFuzzer.ipynb" xlink:title="ConfigurationFuzzer">
<polygon fill="#ffffff" stroke="#000000" points="1111.5,-180 958.5,-180 958.5,-144 1117.5,-144 1117.5,-174 1111.5,-180"/>
<polyline fill="none" stroke="#000000" points="1111.5,-180 1111.5,-174 "/>
<polyline fill="none" stroke="#000000" points="1117.5,-174 1111.5,-174 "/>
<text text-anchor="middle" x="1038" y="-158.3" font-family="Patua One" font-size="14.00" fill="#b03a2e">Testing Configurations</text>
</a>
</g>
</g>
<!-- GrammarCoverageFuzzer&#45;&gt;ConfigurationFuzzer -->
<g id="edge17" class="edge">
<title>GrammarCoverageFuzzer&#45;&gt;ConfigurationFuzzer</title>
<path fill="none" stroke="#000000" d="M913.1412,-215.8314C935.4764,-206.2018 963.0936,-194.295 986.671,-184.1299"/>
<polygon fill="#000000" stroke="#000000" points="988.3647,-187.2112 996.1619,-180.038 985.5933,-180.7831 988.3647,-187.2112"/>
</g>
<!-- Carver -->
<g id="node17" class="node">
<title>Carver</title>
<g id="a_node17"><a xlink:href="Carver.ipynb" xlink:title="Carver">
<polygon fill="#ffffff" stroke="#000000" points="1060.5,-36 935.5,-36 935.5,0 1066.5,0 1066.5,-30 1060.5,-36"/>
<polyline fill="none" stroke="#000000" points="1060.5,-36 1060.5,-30 "/>
<polyline fill="none" stroke="#000000" points="1066.5,-30 1060.5,-30 "/>
<text text-anchor="middle" x="1001" y="-14.3" font-family="Patua One" font-size="14.00" fill="#b03a2e">Carving Unit Tests</text>
</a>
</g>
</g>
<!-- GrammarCoverageFuzzer&#45;&gt;Carver -->
<g id="edge18" class="edge">
<title>GrammarCoverageFuzzer&#45;&gt;Carver</title>
<path fill="none" stroke="#000000" d="M938.5792,-218.0767C941.7619,-217.3663 944.9145,-216.6707 948,-216 1027.2965,-198.762 1075.5864,-242.7832 1127,-180 1166.6104,-131.6302 1092.729,-73.4613 1042.3242,-41.6495"/>
<polygon fill="#000000" stroke="#000000" points="1043.8749,-38.4934 1033.5286,-36.2123 1040.1942,-44.4476 1043.8749,-38.4934"/>
</g>
<!-- GUIFuzzer -->
<g id="node18" class="node">
<title>GUIFuzzer</title>
<g id="a_node18"><a xlink:href="GUIFuzzer.ipynb" xlink:title="GUIFuzzer">
<polygon fill="#ffffff" stroke="#000000" points="1390,-180 1176,-180 1176,-144 1396,-144 1396,-174 1390,-180"/>
<polyline fill="none" stroke="#000000" points="1390,-180 1390,-174 "/>
<polyline fill="none" stroke="#000000" points="1396,-174 1390,-174 "/>
<text text-anchor="middle" x="1286" y="-158.3" font-family="Patua One" font-size="14.00" fill="#b03a2e">Testing Graphical User Interfaces</text>
</a>
</g>
</g>
<!-- GrammarCoverageFuzzer&#45;&gt;GUIFuzzer -->
<g id="edge19" class="edge">
<title>GrammarCoverageFuzzer&#45;&gt;GUIFuzzer</title>
<path fill="none" stroke="#000000" d="M938.5473,-217.9228C941.7386,-217.2536 944.9017,-216.6088 948,-216 988.8201,-207.9786 1086.0929,-192.5787 1165.8578,-180.2707"/>
<polygon fill="#000000" stroke="#000000" points="1166.6403,-183.6915 1175.9905,-178.7092 1165.5741,-176.7731 1166.6403,-183.6915"/>
</g>
<!-- APIFuzzer -->
<g id="node21" class="node">
<title>APIFuzzer</title>
<g id="a_node21"><a xlink:href="APIFuzzer.ipynb" xlink:title="APIFuzzer">
<polygon fill="#ffffff" stroke="#000000" points="898.5,-108 807.5,-108 807.5,-72 904.5,-72 904.5,-102 898.5,-108"/>
<polyline fill="none" stroke="#000000" points="898.5,-108 898.5,-102 "/>
<polyline fill="none" stroke="#000000" points="904.5,-102 898.5,-102 "/>
<text text-anchor="middle" x="856" y="-86.3" font-family="Patua One" font-size="14.00" fill="#b03a2e">Fuzzing APIs</text>
</a>
</g>
</g>
<!-- ProbabilisticGrammarFuzzer&#45;&gt;APIFuzzer -->
<g id="edge23" class="edge">
<title>ProbabilisticGrammarFuzzer&#45;&gt;APIFuzzer</title>
<path fill="none" stroke="#000000" d="M532.1533,-144.4789C615.3522,-130.4828 728.9426,-111.3741 797.1255,-99.9041"/>
<polygon fill="#000000" stroke="#000000" points="797.9759,-103.3103 807.2567,-98.1998 796.8146,-96.4073 797.9759,-103.3103"/>
</g>
<!-- InformationFlow -->
<g id="node20" class="node">
<title>InformationFlow</title>
<g id="a_node20"><a xlink:href="InformationFlow.ipynb" xlink:title="InformationFlow">
<polygon fill="#ffffff" stroke="#000000" points="299.5,-180 122.5,-180 122.5,-144 305.5,-144 305.5,-174 299.5,-180"/>
<polyline fill="none" stroke="#000000" points="299.5,-180 299.5,-174 "/>
<polyline fill="none" stroke="#000000" points="305.5,-174 299.5,-174 "/>
<text text-anchor="middle" x="214" y="-158.3" font-family="Patua One" font-size="14.00" fill="#b03a2e">Tracking Information Flow</text>
</a>
</g>
</g>
<!-- GrammarMiner&#45;&gt;InformationFlow -->
<g id="edge25" class="edge">
<title>GrammarMiner&#45;&gt;InformationFlow</title>
<path fill="none" stroke="#000000" d="M456.6593,-215.9243C410.5459,-205.6769 352.7261,-192.828 305.0946,-182.2432"/>
<polygon fill="#000000" stroke="#000000" points="305.6142,-178.7734 295.0931,-180.0207 304.0957,-185.6067 305.6142,-178.7734"/>
</g>
<!-- GrammarFuzzer&#45;&gt;GrammarCoverageFuzzer -->
<g id="edge11" class="edge">
<title>GrammarFuzzer&#45;&gt;GrammarCoverageFuzzer</title>
<path fill="none" stroke="#000000" d="M799.2249,-287.8314C811.1628,-278.8779 825.7256,-267.9558 838.606,-258.2955"/>
<polygon fill="#000000" stroke="#000000" points="840.8829,-260.9629 846.7829,-252.1628 836.6829,-255.3629 840.8829,-260.9629"/>
</g>
<!-- GrammarFuzzer&#45;&gt;GrammarMiner -->
<g id="edge15" class="edge">
<title>GrammarFuzzer&#45;&gt;GrammarMiner</title>
<path fill="none" stroke="#000000" d="M715.5008,-287.9243C682.6789,-277.9531 641.7494,-265.5188 607.4674,-255.104"/>
<polygon fill="#000000" stroke="#000000" points="608.1093,-251.6411 597.5237,-252.0831 606.0745,-258.3389 608.1093,-251.6411"/>
</g>
<!-- Parser -->
<g id="node12" class="node">
<title>Parser</title>
<g id="a_node12"><a xlink:href="Parser.ipynb" xlink:title="Parser">
<polygon fill="#ffffff" stroke="#000000" points="740.5,-252 639.5,-252 639.5,-216 746.5,-216 746.5,-246 740.5,-252"/>
<polyline fill="none" stroke="#000000" points="740.5,-252 740.5,-246 "/>
<polyline fill="none" stroke="#000000" points="746.5,-246 740.5,-246 "/>
<text text-anchor="middle" x="693" y="-230.3" font-family="Patua One" font-size="14.00" fill="#b03a2e">Parsing Inputs</text>
</a>
</g>
</g>
<!-- GrammarFuzzer&#45;&gt;Parser -->
<g id="edge12" class="edge">
<title>GrammarFuzzer&#45;&gt;Parser</title>
<path fill="none" stroke="#000000" d="M754.3079,-287.8314C744.3052,-279.0485 732.145,-268.3712 721.3001,-258.8489"/>
<polygon fill="#000000" stroke="#000000" points="723.5092,-256.1308 713.6854,-252.1628 718.8906,-261.3909 723.5092,-256.1308"/>
</g>
<!-- GeneratorGrammarFuzzer -->
<g id="node13" class="node">
<title>GeneratorGrammarFuzzer</title>
<g id="a_node13"><a xlink:href="GeneratorGrammarFuzzer.ipynb" xlink:title="GeneratorGrammarFuzzer">
<polygon fill="#ffffff" stroke="#000000" points="934,-180 772,-180 772,-144 940,-144 940,-174 934,-180"/>
<polyline fill="none" stroke="#000000" points="934,-180 934,-174 "/>
<polyline fill="none" stroke="#000000" points="940,-174 934,-174 "/>
<text text-anchor="middle" x="856" y="-158.3" font-family="Patua One" font-size="14.00" fill="#b03a2e">Fuzzing with Generators</text>
</a>
</g>
</g>
<!-- GrammarFuzzer&#45;&gt;GeneratorGrammarFuzzer -->
<g id="edge13" class="edge">
<title>GrammarFuzzer&#45;&gt;GeneratorGrammarFuzzer</title>
<path fill="none" stroke="#000000" d="M775.4804,-287.883C776.7174,-268.7938 780.815,-238.4437 794,-216 800.5609,-204.8319 810.2605,-194.7964 820.0494,-186.4938"/>
<polygon fill="#000000" stroke="#000000" points="822.257,-189.2098 827.8607,-180.2182 817.8729,-183.7528 822.257,-189.2098"/>
</g>
<!-- Reducer -->
<g id="node14" class="node">
<title>Reducer</title>
<g id="a_node14"><a xlink:href="Reducer.ipynb" xlink:title="Reducer">
<polygon fill="#ffffff" stroke="#000000" points="1175.5,-252 956.5,-252 956.5,-216 1181.5,-216 1181.5,-246 1175.5,-252"/>
<polyline fill="none" stroke="#000000" points="1175.5,-252 1175.5,-246 "/>
<polyline fill="none" stroke="#000000" points="1181.5,-246 1175.5,-246 "/>
<text text-anchor="middle" x="1069" y="-230.3" font-family="Patua One" font-size="14.00" fill="#b03a2e">Reducing Failure&#45;Inducing Inputs</text>
</a>
</g>
</g>
<!-- GrammarFuzzer&#45;&gt;Reducer -->
<g id="edge14" class="edge">
<title>GrammarFuzzer&#45;&gt;Reducer</title>
<path fill="none" stroke="#000000" d="M848.8091,-287.9243C890.3901,-277.7412 942.4607,-264.9892 985.5252,-254.4428"/>
<polygon fill="#000000" stroke="#000000" points="986.5351,-257.799 995.4155,-252.0207 984.87,-250.9999 986.5351,-257.799"/>
</g>
<!-- WebFuzzer -->
<g id="node15" class="node">
<title>WebFuzzer</title>
<g id="a_node15"><a xlink:href="WebFuzzer.ipynb" xlink:title="WebFuzzer">
<polygon fill="#ffffff" stroke="#000000" points="1368,-252 1200,-252 1200,-216 1374,-216 1374,-246 1368,-252"/>
<polyline fill="none" stroke="#000000" points="1368,-252 1368,-246 "/>
<polyline fill="none" stroke="#000000" points="1374,-246 1368,-246 "/>
<text text-anchor="middle" x="1287" y="-230.3" font-family="Patua One" font-size="14.00" fill="#b03a2e">Testing Web Applications</text>
</a>
</g>
</g>
<!-- GrammarFuzzer&#45;&gt;WebFuzzer -->
<g id="edge16" class="edge">
<title>GrammarFuzzer&#45;&gt;WebFuzzer</title>
<path fill="none" stroke="#000000" d="M866.5099,-295.6214C948.6313,-285.9618 1072.6806,-270.5186 1190.0357,-252.1089"/>
<polygon fill="#000000" stroke="#000000" points="1190.5842,-255.5658 1199.9161,-250.5493 1189.4927,-248.6514 1190.5842,-255.5658"/>
</g>
<!-- Parser&#45;&gt;ProbabilisticGrammarFuzzer -->
<g id="edge21" class="edge">
<title>Parser&#45;&gt;ProbabilisticGrammarFuzzer</title>
<path fill="none" stroke="#000000" d="M639.4013,-218.6188C636.2219,-217.7273 633.0699,-216.8488 630,-216 589.3708,-204.7661 544.0377,-192.6127 506.628,-182.6856"/>
<polygon fill="#000000" stroke="#000000" points="507.3608,-179.259 496.7978,-180.0798 505.5671,-186.0253 507.3608,-179.259"/>
</g>
<!-- LangFuzzer -->
<g id="node19" class="node">
<title>LangFuzzer</title>
<g id="a_node19"><a xlink:href="LangFuzzer.ipynb" xlink:title="LangFuzzer">
<polygon fill="#ffffff" stroke="#000000" points="748,-180 550,-180 550,-144 754,-144 754,-174 748,-180"/>
<polyline fill="none" stroke="#000000" points="748,-180 748,-174 "/>
<polyline fill="none" stroke="#000000" points="754,-174 748,-174 "/>
<text text-anchor="middle" x="652" y="-158.3" font-family="Patua One" font-size="14.00" fill="#b03a2e">Fuzzing with Input Fragments</text>
</a>
</g>
</g>
<!-- Parser&#45;&gt;LangFuzzer -->
<g id="edge20" class="edge">
<title>Parser&#45;&gt;LangFuzzer</title>
<path fill="none" stroke="#000000" d="M682.654,-215.8314C678.0763,-207.7925 672.5948,-198.1666 667.5412,-189.2918"/>
<polygon fill="#000000" stroke="#000000" points="670.4752,-187.3712 662.4853,-180.4133 664.3923,-190.8351 670.4752,-187.3712"/>
</g>
<!-- Parser&#45;&gt;InformationFlow -->
<g id="edge22" class="edge">
<title>Parser&#45;&gt;InformationFlow</title>
<path fill="none" stroke="#000000" d="M639.1861,-217.9946C636.0903,-217.2706 633.0125,-216.5983 630,-216 495.0273,-189.1949 456.2375,-199.8391 315.9003,-180.0632"/>
<polygon fill="#000000" stroke="#000000" points="316.014,-176.5437 305.6178,-178.5858 315.0184,-183.4725 316.014,-176.5437"/>
</g>
<!-- GeneratorGrammarFuzzer&#45;&gt;APIFuzzer -->
<g id="edge24" class="edge">
<title>GeneratorGrammarFuzzer&#45;&gt;APIFuzzer</title>
<path fill="none" stroke="#000000" d="M856,-143.8314C856,-136.131 856,-126.9743 856,-118.4166"/>
<polygon fill="#000000" stroke="#000000" points="859.5001,-118.4132 856,-108.4133 852.5001,-118.4133 859.5001,-118.4132"/>
</g>
<!-- WebFuzzer&#45;&gt;GUIFuzzer -->
<g id="edge29" class="edge">
<title>WebFuzzer&#45;&gt;GUIFuzzer</title>
<path fill="none" stroke="#000000" d="M1286.7477,-215.8314C1286.6407,-208.131 1286.5135,-198.9743 1286.3947,-190.4166"/>
<polygon fill="#000000" stroke="#000000" points="1289.8944,-190.3637 1286.2557,-180.4133 1282.8951,-190.4609 1289.8944,-190.3637"/>
</g>
<!-- ConcolicFuzzer -->
<g id="node22" class="node">
<title>ConcolicFuzzer</title>
<g id="a_node22"><a xlink:href="ConcolicFuzzer.ipynb" xlink:title="ConcolicFuzzer">
<polygon fill="#ffffff" stroke="#000000" points="268,-108 154,-108 154,-72 274,-72 274,-102 268,-108"/>
<polyline fill="none" stroke="#000000" points="268,-108 268,-102 "/>
<polyline fill="none" stroke="#000000" points="274,-102 268,-102 "/>
<text text-anchor="middle" x="214" y="-86.3" font-family="Patua One" font-size="14.00" fill="#b03a2e">Concolic Fuzzing</text>
</a>
</g>
</g>
<!-- InformationFlow&#45;&gt;ConcolicFuzzer -->
<g id="edge26" class="edge">
<title>InformationFlow&#45;&gt;ConcolicFuzzer</title>
<path fill="none" stroke="#000000" d="M214,-143.8314C214,-136.131 214,-126.9743 214,-118.4166"/>
<polygon fill="#000000" stroke="#000000" points="217.5001,-118.4132 214,-108.4133 210.5001,-118.4133 217.5001,-118.4132"/>
</g>
<!-- APIFuzzer&#45;&gt;Carver -->
<g id="edge28" class="edge">
<title>APIFuzzer&#45;&gt;Carver</title>
<path fill="none" stroke="#000000" d="M892.5896,-71.8314C911.7239,-62.3302 935.3229,-50.6121 955.6122,-40.5374"/>
<polygon fill="#000000" stroke="#000000" points="957.2735,-43.6203 964.6735,-36.038 954.1603,-37.3506 957.2735,-43.6203"/>
</g>
<!-- SymbolicFuzzer -->
<g id="node23" class="node">
<title>SymbolicFuzzer</title>
<g id="a_node23"><a xlink:href="SymbolicFuzzer.ipynb" xlink:title="SymbolicFuzzer">
<polygon fill="#ffffff" stroke="#000000" points="271,-36 151,-36 151,0 277,0 277,-30 271,-36"/>
<polyline fill="none" stroke="#000000" points="271,-36 271,-30 "/>
<polyline fill="none" stroke="#000000" points="277,-30 271,-30 "/>
<text text-anchor="middle" x="214" y="-14.3" font-family="Patua One" font-size="14.00" fill="#b03a2e">Symbolic Fuzzing</text>
</a>
</g>
</g>
<!-- ConcolicFuzzer&#45;&gt;SymbolicFuzzer -->
<g id="edge27" class="edge">
<title>ConcolicFuzzer&#45;&gt;SymbolicFuzzer</title>
<path fill="none" stroke="#000000" d="M214,-71.8314C214,-64.131 214,-54.9743 214,-46.4166"/>
<polygon fill="#000000" stroke="#000000" points="217.5001,-46.4132 214,-36.4133 210.5001,-46.4133 217.5001,-46.4132"/>
</g>
</g>
</svg>
