<?xml version="1.0" encoding="UTF-8" standalone="no"?>
<!DOCTYPE svg PUBLIC "-//W3C//DTD SVG 1.1//EN"
 "http://www.w3.org/Graphics/SVG/1.1/DTD/svg11.dtd">
<!-- Generated by graphviz version 2.40.1 (20161225.0304)
 -->
<!-- Title: %3 Pages: 1 -->
<svg width="886pt" height="548pt"
 viewBox="0.00 0.00 886.00 548.00" xmlns="http://www.w3.org/2000/svg" xmlns:xlink="http://www.w3.org/1999/xlink">
<g id="graph0" class="graph" transform="scale(1 1) rotate(0) translate(4 544)">
<title>%3</title>
<polygon fill="#ffffff" stroke="transparent" points="-4,4 -4,-544 882,-544 882,4 -4,4"/>
<!-- Fuzzer -->
<g id="node1" class="node">
<title>Fuzzer</title>
<g id="a_node1"><a xlink:href="Fuzzer.ipynb" xlink:title="Fuzzer">
<polygon fill="#ffffff" stroke="#000000" points="516.5,-468 218.5,-468 218.5,-432 522.5,-432 522.5,-462 516.5,-468"/>
<polyline fill="none" stroke="#000000" points="516.5,-468 516.5,-462 "/>
<polyline fill="none" stroke="#000000" points="522.5,-462 516.5,-462 "/>
<text text-anchor="middle" x="370.5" y="-446.3" font-family="Patua One" font-size="14.00" fill="#b03a2e">Fuzzing: Breaking Things with Random Inputs</text>
</a>
</g>
</g>
<!-- Coverage -->
<g id="node2" class="node">
<title>Coverage</title>
<g id="a_node2"><a xlink:href="Coverage.ipynb" xlink:title="Coverage">
<polygon fill="#ffffff" stroke="#000000" points="341,-324 224,-324 224,-288 347,-288 347,-318 341,-324"/>
<polyline fill="none" stroke="#000000" points="341,-324 341,-318 "/>
<polyline fill="none" stroke="#000000" points="347,-318 341,-318 "/>
<text text-anchor="middle" x="285.5" y="-302.3" font-family="Patua One" font-size="14.00" fill="#b03a2e">Getting Coverage</text>
</a>
</g>
</g>
<!-- Fuzzer&#45;&gt;Coverage -->
<g id="edge1" class="edge">
<title>Fuzzer&#45;&gt;Coverage</title>
<path fill="none" stroke="#000000" d="M359.7347,-431.7623C344.9813,-406.7682 318.374,-361.6924 301.3436,-332.8409"/>
<polygon fill="#000000" stroke="#000000" points="304.2753,-330.9221 296.1779,-324.0896 298.2471,-334.4804 304.2753,-330.9221"/>
</g>
<!-- Grammars -->
<g id="node3" class="node">
<title>Grammars</title>
<g id="a_node3"><a xlink:href="Grammars.ipynb" xlink:title="Grammars">
<polygon fill="#ffffff" stroke="#000000" points="533,-396 374,-396 374,-360 539,-360 539,-390 533,-396"/>
<polyline fill="none" stroke="#000000" points="533,-396 533,-390 "/>
<polyline fill="none" stroke="#000000" points="539,-390 533,-390 "/>
<text text-anchor="middle" x="456.5" y="-374.3" font-family="Patua One" font-size="14.00" fill="#b03a2e">Fuzzing with Grammars</text>
</a>
</g>
</g>
<!-- Fuzzer&#45;&gt;Grammars -->
<g id="edge2" class="edge">
<title>Fuzzer&#45;&gt;Grammars</title>
<path fill="none" stroke="#000000" d="M392.2014,-431.8314C402.6921,-423.0485 415.4455,-412.3712 426.8194,-402.8489"/>
<polygon fill="#000000" stroke="#000000" points="429.3847,-405.2659 434.8055,-396.1628 424.8911,-399.8986 429.3847,-405.2659"/>
</g>
<!-- MutationFuzzer -->
<g id="node5" class="node">
<title>MutationFuzzer</title>
<g id="a_node5"><a xlink:href="MutationFuzzer.ipynb" xlink:title="MutationFuzzer">
<polygon fill="#ffffff" stroke="#000000" points="163,-252 0,-252 0,-216 169,-216 169,-246 163,-252"/>
<polyline fill="none" stroke="#000000" points="163,-252 163,-246 "/>
<polyline fill="none" stroke="#000000" points="169,-246 163,-246 "/>
<text text-anchor="middle" x="84.5" y="-230.3" font-family="Patua One" font-size="14.00" fill="#b03a2e">Mutation&#45;Based Fuzzing</text>
</a>
</g>
</g>
<!-- Coverage&#45;&gt;MutationFuzzer -->
<g id="edge4" class="edge">
<title>Coverage&#45;&gt;MutationFuzzer</title>
<path fill="none" stroke="#000000" d="M235.0387,-287.9243C207.5608,-278.0815 173.3828,-265.8386 144.5412,-255.5073"/>
<polygon fill="#000000" stroke="#000000" points="145.5767,-252.1605 134.9821,-252.0831 143.216,-258.7505 145.5767,-252.1605"/>
</g>
<!-- GrammarCoverageFuzzer -->
<g id="node6" class="node">
<title>GrammarCoverageFuzzer</title>
<g id="a_node6"><a xlink:href="GrammarCoverageFuzzer.ipynb" xlink:title="GrammarCoverageFuzzer">
<polygon fill="#ffffff" stroke="#000000" points="316,-252 187,-252 187,-216 322,-216 322,-246 316,-252"/>
<polyline fill="none" stroke="#000000" points="316,-252 316,-246 "/>
<polyline fill="none" stroke="#000000" points="322,-246 316,-246 "/>
<text text-anchor="middle" x="254.5" y="-230.3" font-family="Patua One" font-size="14.00" fill="#b03a2e">Grammar Coverage</text>
</a>
</g>
</g>
<!-- Coverage&#45;&gt;GrammarCoverageFuzzer -->
<g id="edge5" class="edge">
<title>Coverage&#45;&gt;GrammarCoverageFuzzer</title>
<path fill="none" stroke="#000000" d="M277.6774,-287.8314C274.2891,-279.9617 270.2459,-270.5712 266.4924,-261.8533"/>
<polygon fill="#000000" stroke="#000000" points="269.5973,-260.214 262.4279,-252.4133 263.1679,-262.9822 269.5973,-260.214"/>
</g>
<!-- ProbabilisticGrammarFuzzer -->
<g id="node7" class="node">
<title>ProbabilisticGrammarFuzzer</title>
<g id="a_node7"><a xlink:href="ProbabilisticGrammarFuzzer.ipynb" xlink:title="ProbabilisticGrammarFuzzer">
<polygon fill="#ffffff" stroke="#000000" points="516.5,-180 314.5,-180 314.5,-144 522.5,-144 522.5,-174 516.5,-180"/>
<polyline fill="none" stroke="#000000" points="516.5,-180 516.5,-174 "/>
<polyline fill="none" stroke="#000000" points="522.5,-174 516.5,-174 "/>
<text text-anchor="middle" x="418.5" y="-158.3" font-family="Patua One" font-size="14.00" fill="#b03a2e">Probabilistic Grammar Fuzzing</text>
</a>
</g>
</g>
<!-- Coverage&#45;&gt;ProbabilisticGrammarFuzzer -->
<g id="edge6" class="edge">
<title>Coverage&#45;&gt;ProbabilisticGrammarFuzzer</title>
<path fill="none" stroke="#000000" d="M302.3445,-287.7623C325.7291,-262.4436 368.1464,-216.5182 394.74,-187.7251"/>
<polygon fill="#000000" stroke="#000000" points="397.5784,-189.8105 401.7922,-180.0896 392.4361,-185.061 397.5784,-189.8105"/>
</g>
<!-- GrammarFuzzer -->
<g id="node8" class="node">
<title>GrammarFuzzer</title>
<g id="a_node8"><a xlink:href="GrammarFuzzer.ipynb" xlink:title="GrammarFuzzer">
<polygon fill="#ffffff" stroke="#000000" points="573,-324 396,-324 396,-288 579,-288 579,-318 573,-324"/>
<polyline fill="none" stroke="#000000" points="573,-324 573,-318 "/>
<polyline fill="none" stroke="#000000" points="579,-318 573,-318 "/>
<text text-anchor="middle" x="487.5" y="-302.3" font-family="Patua One" font-size="14.00" fill="#b03a2e">Efficient Grammar Fuzzing</text>
</a>
</g>
</g>
<!-- Grammars&#45;&gt;GrammarFuzzer -->
<g id="edge7" class="edge">
<title>Grammars&#45;&gt;GrammarFuzzer</title>
<path fill="none" stroke="#000000" d="M464.3226,-359.8314C467.7109,-351.9617 471.7541,-342.5712 475.5076,-333.8533"/>
<polygon fill="#000000" stroke="#000000" points="478.8321,-334.9822 479.5721,-324.4133 472.4027,-332.214 478.8321,-334.9822"/>
</g>
<!-- Intro_Testing -->
<g id="node4" class="node">
<title>Intro_Testing</title>
<g id="a_node4"><a xlink:href="Intro_Testing.ipynb" xlink:title="Intro_Testing">
<polygon fill="#ffffff" stroke="#000000" points="474,-540 261,-540 261,-504 480,-504 480,-534 474,-540"/>
<polyline fill="none" stroke="#000000" points="474,-540 474,-534 "/>
<polyline fill="none" stroke="#000000" points="480,-534 474,-534 "/>
<text text-anchor="middle" x="370.5" y="-518.3" font-family="Patua One" font-size="14.00" fill="#b03a2e">Introduction to Software Testing</text>
</a>
</g>
</g>
<!-- Intro_Testing&#45;&gt;Fuzzer -->
<g id="edge3" class="edge">
<title>Intro_Testing&#45;&gt;Fuzzer</title>
<path fill="none" stroke="#000000" d="M370.5,-503.8314C370.5,-496.131 370.5,-486.9743 370.5,-478.4166"/>
<polygon fill="#000000" stroke="#000000" points="374.0001,-478.4132 370.5,-468.4133 367.0001,-478.4133 374.0001,-478.4132"/>
</g>
<!-- ConfigurationFuzzer -->
<g id="node12" class="node">
<title>ConfigurationFuzzer</title>
<g id="a_node12"><a xlink:href="ConfigurationFuzzer.ipynb" xlink:title="ConfigurationFuzzer">
<polygon fill="#ffffff" stroke="#000000" points="252,-180 99,-180 99,-144 258,-144 258,-174 252,-180"/>
<polyline fill="none" stroke="#000000" points="252,-180 252,-174 "/>
<polyline fill="none" stroke="#000000" points="258,-174 252,-174 "/>
<text text-anchor="middle" x="178.5" y="-158.3" font-family="Patua One" font-size="14.00" fill="#b03a2e">Testing Configurations</text>
</a>
</g>
</g>
<!-- GrammarCoverageFuzzer&#45;&gt;ConfigurationFuzzer -->
<g id="edge12" class="edge">
<title>GrammarCoverageFuzzer&#45;&gt;ConfigurationFuzzer</title>
<path fill="none" stroke="#000000" d="M235.322,-215.8314C226.1412,-207.1337 214.9994,-196.5783 205.0224,-187.1265"/>
<polygon fill="#000000" stroke="#000000" points="207.3385,-184.4995 197.6719,-180.1628 202.5243,-189.5811 207.3385,-184.4995"/>
</g>
<!-- Carver -->
<g id="node13" class="node">
<title>Carver</title>
<g id="a_node13"><a xlink:href="Carver.ipynb" xlink:title="Carver">
<polygon fill="#ffffff" stroke="#000000" points="412,-36 287,-36 287,0 418,0 418,-30 412,-36"/>
<polyline fill="none" stroke="#000000" points="412,-36 412,-30 "/>
<polyline fill="none" stroke="#000000" points="418,-30 412,-30 "/>
<text text-anchor="middle" x="352.5" y="-14.3" font-family="Patua One" font-size="14.00" fill="#b03a2e">Carving Unit Tests</text>
</a>
</g>
</g>
<!-- GrammarCoverageFuzzer&#45;&gt;Carver -->
<g id="edge13" class="edge">
<title>GrammarCoverageFuzzer&#45;&gt;Carver</title>
<path fill="none" stroke="#000000" d="M262.6869,-215.9555C279.8729,-178.0762 319.7962,-90.0818 340.1257,-45.274"/>
<polygon fill="#000000" stroke="#000000" points="343.3231,-46.6977 344.2675,-36.1451 336.9485,-43.8055 343.3231,-46.6977"/>
</g>
<!-- APIFuzzer -->
<g id="node14" class="node">
<title>APIFuzzer</title>
<g id="a_node14"><a xlink:href="APIFuzzer.ipynb" xlink:title="APIFuzzer">
<polygon fill="#ffffff" stroke="#000000" points="461,-108 370,-108 370,-72 467,-72 467,-102 461,-108"/>
<polyline fill="none" stroke="#000000" points="461,-108 461,-102 "/>
<polyline fill="none" stroke="#000000" points="467,-102 461,-102 "/>
<text text-anchor="middle" x="418.5" y="-86.3" font-family="Patua One" font-size="14.00" fill="#b03a2e">Fuzzing APIs</text>
</a>
</g>
</g>
<!-- ProbabilisticGrammarFuzzer&#45;&gt;APIFuzzer -->
<g id="edge15" class="edge">
<title>ProbabilisticGrammarFuzzer&#45;&gt;APIFuzzer</title>
<path fill="none" stroke="#000000" d="M418.5,-143.8314C418.5,-136.131 418.5,-126.9743 418.5,-118.4166"/>
<polygon fill="#000000" stroke="#000000" points="422.0001,-118.4132 418.5,-108.4133 415.0001,-118.4133 422.0001,-118.4132"/>
</g>
<!-- GrammarFuzzer&#45;&gt;GrammarCoverageFuzzer -->
<g id="edge8" class="edge">
<title>GrammarFuzzer&#45;&gt;GrammarCoverageFuzzer</title>
<path fill="none" stroke="#000000" d="M429.005,-287.9243C396.7371,-277.9531 356.4984,-265.5188 322.7949,-255.104"/>
<polygon fill="#000000" stroke="#000000" points="323.6067,-251.6916 313.0191,-252.0831 321.5399,-258.3796 323.6067,-251.6916"/>
</g>
<!-- Parser -->
<g id="node9" class="node">
<title>Parser</title>
<g id="a_node9"><a xlink:href="Parser.ipynb" xlink:title="Parser">
<polygon fill="#ffffff" stroke="#000000" points="590.5,-252 378.5,-252 378.5,-216 596.5,-216 596.5,-246 590.5,-252"/>
<polyline fill="none" stroke="#000000" points="590.5,-252 590.5,-246 "/>
<polyline fill="none" stroke="#000000" points="596.5,-246 590.5,-246 "/>
<text text-anchor="middle" x="487.5" y="-230.3" font-family="Patua One" font-size="14.00" fill="#b03a2e">Parsing and Recombining Inputs</text>
</a>
</g>
</g>
<!-- GrammarFuzzer&#45;&gt;Parser -->
<g id="edge9" class="edge">
<title>GrammarFuzzer&#45;&gt;Parser</title>
<path fill="none" stroke="#000000" d="M487.5,-287.8314C487.5,-280.131 487.5,-270.9743 487.5,-262.4166"/>
<polygon fill="#000000" stroke="#000000" points="491.0001,-262.4132 487.5,-252.4133 484.0001,-262.4133 491.0001,-262.4132"/>
</g>
<!-- GeneratorGrammarFuzzer -->
<g id="node10" class="node">
<title>GeneratorGrammarFuzzer</title>
<g id="a_node10"><a xlink:href="GeneratorGrammarFuzzer.ipynb" xlink:title="GeneratorGrammarFuzzer">
<polygon fill="#ffffff" stroke="#000000" points="702.5,-180 540.5,-180 540.5,-144 708.5,-144 708.5,-174 702.5,-180"/>
<polyline fill="none" stroke="#000000" points="702.5,-180 702.5,-174 "/>
<polyline fill="none" stroke="#000000" points="708.5,-174 702.5,-174 "/>
<text text-anchor="middle" x="624.5" y="-158.3" font-family="Patua One" font-size="14.00" fill="#b03a2e">Fuzzing with Generators</text>
</a>
</g>
</g>
<!-- GrammarFuzzer&#45;&gt;GeneratorGrammarFuzzer -->
<g id="edge10" class="edge">
<title>GrammarFuzzer&#45;&gt;GeneratorGrammarFuzzer</title>
<path fill="none" stroke="#000000" d="M554.483,-287.9674C573.4632,-279.8348 592.48,-268.2718 605.5,-252 619.3901,-234.6408 623.7918,-209.5453 624.9173,-190.2618"/>
<polygon fill="#000000" stroke="#000000" points="628.4164,-190.3417 625.2449,-180.2327 621.4202,-190.1131 628.4164,-190.3417"/>
</g>
<!-- Reducer -->
<g id="node11" class="node">
<title>Reducer</title>
<g id="a_node11"><a xlink:href="Reducer.ipynb" xlink:title="Reducer">
<polygon fill="#ffffff" stroke="#000000" points="872,-252 653,-252 653,-216 878,-216 878,-246 872,-252"/>
<polyline fill="none" stroke="#000000" points="872,-252 872,-246 "/>
<polyline fill="none" stroke="#000000" points="878,-246 872,-246 "/>
<text text-anchor="middle" x="765.5" y="-230.3" font-family="Patua One" font-size="14.00" fill="#b03a2e">Reducing Failure&#45;Inducing Inputs</text>
</a>
</g>
</g>
<!-- GrammarFuzzer&#45;&gt;Reducer -->
<g id="edge11" class="edge">
<title>GrammarFuzzer&#45;&gt;Reducer</title>
<path fill="none" stroke="#000000" d="M557.2923,-287.9243C596.3706,-277.8033 645.2469,-265.1447 685.8219,-254.6361"/>
<polygon fill="#000000" stroke="#000000" points="686.8759,-257.9786 695.679,-252.0831 685.1208,-251.2022 686.8759,-257.9786"/>
</g>
<!-- Parser&#45;&gt;ProbabilisticGrammarFuzzer -->
<g id="edge14" class="edge">
<title>Parser&#45;&gt;ProbabilisticGrammarFuzzer</title>
<path fill="none" stroke="#000000" d="M470.0884,-215.8314C461.979,-207.3694 452.1844,-197.1489 443.318,-187.8971"/>
<polygon fill="#000000" stroke="#000000" points="445.5921,-185.2115 436.146,-180.4133 440.5382,-190.0549 445.5921,-185.2115"/>
</g>
<!-- GeneratorGrammarFuzzer&#45;&gt;APIFuzzer -->
<g id="edge16" class="edge">
<title>GeneratorGrammarFuzzer&#45;&gt;APIFuzzer</title>
<path fill="none" stroke="#000000" d="M572.7834,-143.9243C543.5317,-133.7004 506.8711,-120.887 476.6267,-110.3161"/>
<polygon fill="#000000" stroke="#000000" points="477.645,-106.9645 467.0501,-106.969 475.3353,-113.5725 477.645,-106.9645"/>
</g>
<!-- APIFuzzer&#45;&gt;Carver -->
<g id="edge17" class="edge">
<title>APIFuzzer&#45;&gt;Carver</title>
<path fill="none" stroke="#000000" d="M401.8454,-71.8314C394.0886,-63.3694 384.7198,-53.1489 376.239,-43.8971"/>
<polygon fill="#000000" stroke="#000000" points="378.7162,-41.4198 369.3788,-36.4133 373.5561,-46.1499 378.7162,-41.4198"/>
</g>
</g>
</svg>
