<?xml version="1.0" encoding="UTF-8" standalone="no"?>
<!DOCTYPE svg PUBLIC "-//W3C//DTD SVG 1.1//EN"
 "http://www.w3.org/Graphics/SVG/1.1/DTD/svg11.dtd">
<!-- Generated by graphviz version 2.40.1 (20161225.0304)
 -->
<!-- Title: %3 Pages: 1 -->
<svg width="1688pt" height="548pt"
 viewBox="0.00 0.00 1688.00 548.00" xmlns="http://www.w3.org/2000/svg" xmlns:xlink="http://www.w3.org/1999/xlink">
<g id="graph0" class="graph" transform="scale(1 1) rotate(0) translate(4 544)">
<title>%3</title>
<polygon fill="#ffffff" stroke="transparent" points="-4,4 -4,-544 1684,-544 1684,4 -4,4"/>
<!-- Fuzzer -->
<g id="node1" class="node">
<title>Fuzzer</title>
<g id="a_node1"><a xlink:href="Fuzzer.ipynb" xlink:title="Fuzzer">
<polygon fill="#ffffff" stroke="#000000" points="1214,-468 916,-468 916,-432 1220,-432 1220,-462 1214,-468"/>
<polyline fill="none" stroke="#000000" points="1214,-468 1214,-462 "/>
<polyline fill="none" stroke="#000000" points="1220,-462 1214,-462 "/>
<text text-anchor="middle" x="1068" y="-446.3" font-family="Patua One" font-size="14.00" fill="#b03a2e">Fuzzing: Breaking Things with Random Inputs</text>
</a>
</g>
</g>
<!-- Coverage -->
<g id="node2" class="node">
<title>Coverage</title>
<g id="a_node2"><a xlink:href="Coverage.ipynb" xlink:title="Coverage">
<polygon fill="#ffffff" stroke="#000000" points="1244.5,-324 1143.5,-324 1143.5,-288 1250.5,-288 1250.5,-318 1244.5,-324"/>
<polyline fill="none" stroke="#000000" points="1244.5,-324 1244.5,-318 "/>
<polyline fill="none" stroke="#000000" points="1250.5,-318 1244.5,-318 "/>
<text text-anchor="middle" x="1197" y="-302.3" font-family="Patua One" font-size="14.00" fill="#b03a2e">Code Coverage</text>
</a>
</g>
</g>
<!-- Fuzzer&#45;&gt;Coverage -->
<g id="edge1" class="edge">
<title>Fuzzer&#45;&gt;Coverage</title>
<path fill="none" stroke="#000000" d="M1022.0514,-431.8539C1006.8255,-423.3763 991.5872,-411.629 983,-396 975.2953,-381.9772 973.1673,-372.6221 983,-360 1001.3994,-336.381 1077.0804,-321.4755 1133.2523,-313.4467"/>
<polygon fill="#000000" stroke="#000000" points="1134.0707,-316.8668 1143.4955,-312.027 1133.1097,-309.9331 1134.0707,-316.8668"/>
</g>
<!-- SearchBasedFuzzer -->
<g id="node3" class="node">
<title>SearchBasedFuzzer</title>
<g id="a_node3"><a xlink:href="SearchBasedFuzzer.ipynb" xlink:title="SearchBasedFuzzer">
<polygon fill="#ffffff" stroke="#000000" points="1138,-396 992,-396 992,-360 1144,-360 1144,-390 1138,-396"/>
<polyline fill="none" stroke="#000000" points="1138,-396 1138,-390 "/>
<polyline fill="none" stroke="#000000" points="1144,-390 1138,-390 "/>
<text text-anchor="middle" x="1068" y="-374.3" font-family="Patua One" font-size="14.00" fill="#b03a2e">Search&#45;Based Fuzzing</text>
</a>
</g>
</g>
<!-- Fuzzer&#45;&gt;SearchBasedFuzzer -->
<g id="edge2" class="edge">
<title>Fuzzer&#45;&gt;SearchBasedFuzzer</title>
<path fill="none" stroke="#000000" d="M1068,-431.8314C1068,-424.131 1068,-414.9743 1068,-406.4166"/>
<polygon fill="#000000" stroke="#000000" points="1071.5001,-406.4132 1068,-396.4133 1064.5001,-406.4133 1071.5001,-406.4132"/>
</g>
<!-- Grammars -->
<g id="node4" class="node">
<title>Grammars</title>
<g id="a_node4"><a xlink:href="Grammars.ipynb" xlink:title="Grammars">
<polygon fill="#ffffff" stroke="#000000" points="840.5,-396 681.5,-396 681.5,-360 846.5,-360 846.5,-390 840.5,-396"/>
<polyline fill="none" stroke="#000000" points="840.5,-396 840.5,-390 "/>
<polyline fill="none" stroke="#000000" points="846.5,-390 840.5,-390 "/>
<text text-anchor="middle" x="764" y="-374.3" font-family="Patua One" font-size="14.00" fill="#b03a2e">Fuzzing with Grammars</text>
</a>
</g>
</g>
<!-- Fuzzer&#45;&gt;Grammars -->
<g id="edge3" class="edge">
<title>Fuzzer&#45;&gt;Grammars</title>
<path fill="none" stroke="#000000" d="M991.6804,-431.9243C948.5945,-421.7198 894.6166,-408.9355 850.033,-398.3762"/>
<polygon fill="#000000" stroke="#000000" points="850.6248,-394.9196 840.0873,-396.0207 849.0115,-401.7312 850.6248,-394.9196"/>
</g>
<!-- SymbolicFuzzer -->
<g id="node5" class="node">
<title>SymbolicFuzzer</title>
<g id="a_node5"><a xlink:href="SymbolicFuzzer.ipynb" xlink:title="SymbolicFuzzer">
<polygon fill="#ffffff" stroke="#000000" points="1282,-396 1162,-396 1162,-360 1288,-360 1288,-390 1282,-396"/>
<polyline fill="none" stroke="#000000" points="1282,-396 1282,-390 "/>
<polyline fill="none" stroke="#000000" points="1288,-390 1282,-390 "/>
<text text-anchor="middle" x="1225" y="-374.3" font-family="Patua One" font-size="14.00" fill="#b03a2e">Symbolic Fuzzing</text>
</a>
</g>
</g>
<!-- Fuzzer&#45;&gt;SymbolicFuzzer -->
<g id="edge4" class="edge">
<title>Fuzzer&#45;&gt;SymbolicFuzzer</title>
<path fill="none" stroke="#000000" d="M1107.6177,-431.8314C1128.5222,-422.2446 1154.3483,-410.4008 1176.4488,-400.2655"/>
<polygon fill="#000000" stroke="#000000" points="1178.0364,-403.388 1185.6672,-396.038 1175.1184,-397.0252 1178.0364,-403.388"/>
</g>
<!-- FuzzingInTheLarge -->
<g id="node6" class="node">
<title>FuzzingInTheLarge</title>
<g id="a_node6"><a xlink:href="FuzzingInTheLarge.ipynb" xlink:title="FuzzingInTheLarge">
<polygon fill="#ffffff" stroke="#000000" points="1442,-396 1306,-396 1306,-360 1448,-360 1448,-390 1442,-396"/>
<polyline fill="none" stroke="#000000" points="1442,-396 1442,-390 "/>
<polyline fill="none" stroke="#000000" points="1448,-390 1442,-390 "/>
<text text-anchor="middle" x="1377" y="-374.3" font-family="Patua One" font-size="14.00" fill="#b03a2e">Fuzzing In the Large</text>
</a>
</g>
</g>
<!-- Fuzzer&#45;&gt;FuzzingInTheLarge -->
<g id="edge5" class="edge">
<title>Fuzzer&#45;&gt;FuzzingInTheLarge</title>
<path fill="none" stroke="#000000" d="M1145.5749,-431.9243C1191.3767,-421.252 1249.288,-407.7581 1295.7213,-396.9387"/>
<polygon fill="#000000" stroke="#000000" points="1296.8029,-400.2805 1305.7477,-394.6025 1295.2143,-393.4632 1296.8029,-400.2805"/>
</g>
<!-- MutationFuzzer -->
<g id="node8" class="node">
<title>MutationFuzzer</title>
<g id="a_node8"><a xlink:href="MutationFuzzer.ipynb" xlink:title="MutationFuzzer">
<polygon fill="#ffffff" stroke="#000000" points="1219.5,-252 1056.5,-252 1056.5,-216 1225.5,-216 1225.5,-246 1219.5,-252"/>
<polyline fill="none" stroke="#000000" points="1219.5,-252 1219.5,-246 "/>
<polyline fill="none" stroke="#000000" points="1225.5,-246 1219.5,-246 "/>
<text text-anchor="middle" x="1141" y="-230.3" font-family="Patua One" font-size="14.00" fill="#b03a2e">Mutation&#45;Based Fuzzing</text>
</a>
</g>
</g>
<!-- Coverage&#45;&gt;MutationFuzzer -->
<g id="edge7" class="edge">
<title>Coverage&#45;&gt;MutationFuzzer</title>
<path fill="none" stroke="#000000" d="M1182.8688,-287.8314C1176.4189,-279.5386 1168.6555,-269.557 1161.5748,-260.4533"/>
<polygon fill="#000000" stroke="#000000" points="1164.2236,-258.158 1155.3214,-252.4133 1158.6981,-262.4556 1164.2236,-258.158"/>
</g>
<!-- MutationAnalysis -->
<g id="node9" class="node">
<title>MutationAnalysis</title>
<g id="a_node9"><a xlink:href="MutationAnalysis.ipynb" xlink:title="MutationAnalysis">
<polygon fill="#ffffff" stroke="#000000" points="1445.5,-252 1320.5,-252 1320.5,-216 1451.5,-216 1451.5,-246 1445.5,-252"/>
<polyline fill="none" stroke="#000000" points="1445.5,-252 1445.5,-246 "/>
<polyline fill="none" stroke="#000000" points="1451.5,-246 1445.5,-246 "/>
<text text-anchor="middle" x="1386" y="-230.3" font-family="Patua One" font-size="14.00" fill="#b03a2e">Mutation Analysis</text>
</a>
</g>
</g>
<!-- Coverage&#45;&gt;MutationAnalysis -->
<g id="edge8" class="edge">
<title>Coverage&#45;&gt;MutationAnalysis</title>
<path fill="none" stroke="#000000" d="M1244.6927,-287.8314C1270.3073,-278.0734 1302.0602,-265.977 1328.974,-255.7242"/>
<polygon fill="#000000" stroke="#000000" points="1330.5514,-258.8687 1338.6503,-252.038 1328.0594,-252.3273 1330.5514,-258.8687"/>
</g>
<!-- GrammarCoverageFuzzer -->
<g id="node10" class="node">
<title>GrammarCoverageFuzzer</title>
<g id="a_node10"><a xlink:href="GrammarCoverageFuzzer.ipynb" xlink:title="GrammarCoverageFuzzer">
<polygon fill="#ffffff" stroke="#000000" points="1031.5,-252 902.5,-252 902.5,-216 1037.5,-216 1037.5,-246 1031.5,-252"/>
<polyline fill="none" stroke="#000000" points="1031.5,-252 1031.5,-246 "/>
<polyline fill="none" stroke="#000000" points="1037.5,-246 1031.5,-246 "/>
<text text-anchor="middle" x="970" y="-230.3" font-family="Patua One" font-size="14.00" fill="#b03a2e">Grammar Coverage</text>
</a>
</g>
</g>
<!-- Coverage&#45;&gt;GrammarCoverageFuzzer -->
<g id="edge9" class="edge">
<title>Coverage&#45;&gt;GrammarCoverageFuzzer</title>
<path fill="none" stroke="#000000" d="M1143.4916,-289.0282C1111.6385,-278.925 1070.939,-266.0159 1036.9663,-255.2404"/>
<polygon fill="#000000" stroke="#000000" points="1037.7076,-251.8038 1027.1174,-252.1165 1035.5912,-258.4762 1037.7076,-251.8038"/>
</g>
<!-- ProbabilisticGrammarFuzzer -->
<g id="node11" class="node">
<title>ProbabilisticGrammarFuzzer</title>
<g id="a_node11"><a xlink:href="ProbabilisticGrammarFuzzer.ipynb" xlink:title="ProbabilisticGrammarFuzzer">
<polygon fill="#ffffff" stroke="#000000" points="426,-180 224,-180 224,-144 432,-144 432,-174 426,-180"/>
<polyline fill="none" stroke="#000000" points="426,-180 426,-174 "/>
<polyline fill="none" stroke="#000000" points="432,-174 426,-174 "/>
<text text-anchor="middle" x="328" y="-158.3" font-family="Patua One" font-size="14.00" fill="#b03a2e">Probabilistic Grammar Fuzzing</text>
</a>
</g>
</g>
<!-- Coverage&#45;&gt;ProbabilisticGrammarFuzzer -->
<g id="edge10" class="edge">
<title>Coverage&#45;&gt;ProbabilisticGrammarFuzzer</title>
<path fill="none" stroke="#000000" d="M1143.3568,-300.4575C1081.886,-293.1962 978.5991,-278.1988 893,-252 855.3295,-240.4704 850.0968,-226.0318 812,-216 654.9267,-174.639 607.1807,-200.003 442.0341,-180.0622"/>
<polygon fill="#000000" stroke="#000000" points="442.3791,-176.5782 432.0232,-178.8157 441.5141,-183.5245 442.3791,-176.5782"/>
</g>
<!-- GrammarMiner -->
<g id="node12" class="node">
<title>GrammarMiner</title>
<g id="a_node12"><a xlink:href="GrammarMiner.ipynb" xlink:title="GrammarMiner">
<polygon fill="#ffffff" stroke="#000000" points="863.5,-108 702.5,-108 702.5,-72 869.5,-72 869.5,-102 863.5,-108"/>
<polyline fill="none" stroke="#000000" points="863.5,-108 863.5,-102 "/>
<polyline fill="none" stroke="#000000" points="869.5,-102 863.5,-102 "/>
<text text-anchor="middle" x="786" y="-86.3" font-family="Patua One" font-size="14.00" fill="#b03a2e">Mining Input Grammars</text>
</a>
</g>
</g>
<!-- Coverage&#45;&gt;GrammarMiner -->
<g id="edge11" class="edge">
<title>Coverage&#45;&gt;GrammarMiner</title>
<path fill="none" stroke="#000000" d="M1213.3526,-287.9654C1221.2064,-278.0988 1229.8061,-265.2153 1234,-252 1248.52,-206.2467 1267.0375,-179.7462 1235,-144 1186.0604,-89.395 979.7221,-117.3964 907,-108 898.1058,-106.8508 888.8536,-105.5909 879.6036,-104.2883"/>
<polygon fill="#000000" stroke="#000000" points="879.9778,-100.8063 869.5841,-102.8611 878.9906,-107.7364 879.9778,-100.8063"/>
</g>
<!-- ConcolicFuzzer -->
<g id="node13" class="node">
<title>ConcolicFuzzer</title>
<g id="a_node13"><a xlink:href="ConcolicFuzzer.ipynb" xlink:title="ConcolicFuzzer">
<polygon fill="#ffffff" stroke="#000000" points="1030,-108 916,-108 916,-72 1036,-72 1036,-102 1030,-108"/>
<polyline fill="none" stroke="#000000" points="1030,-108 1030,-102 "/>
<polyline fill="none" stroke="#000000" points="1036,-102 1030,-102 "/>
<text text-anchor="middle" x="976" y="-86.3" font-family="Patua One" font-size="14.00" fill="#b03a2e">Concolic Fuzzing</text>
</a>
</g>
</g>
<!-- Coverage&#45;&gt;ConcolicFuzzer -->
<g id="edge12" class="edge">
<title>Coverage&#45;&gt;ConcolicFuzzer</title>
<path fill="none" stroke="#000000" d="M1232.9291,-287.9923C1246.5172,-279.158 1260.5017,-267.1235 1268,-252 1289.3217,-208.9955 1298.7003,-180.8984 1268,-144 1240.3485,-110.766 1123.5944,-97.9005 1046.3585,-92.9795"/>
<polygon fill="#000000" stroke="#000000" points="1046.3996,-89.4756 1036.206,-92.3635 1045.9756,-96.4628 1046.3996,-89.4756"/>
</g>
<!-- DynamicInvariants -->
<g id="node14" class="node">
<title>DynamicInvariants</title>
<g id="a_node14"><a xlink:href="DynamicInvariants.ipynb" xlink:title="DynamicInvariants">
<polygon fill="#ffffff" stroke="#000000" points="1674,-252 1470,-252 1470,-216 1680,-216 1680,-246 1674,-252"/>
<polyline fill="none" stroke="#000000" points="1674,-252 1674,-246 "/>
<polyline fill="none" stroke="#000000" points="1680,-246 1674,-246 "/>
<text text-anchor="middle" x="1575" y="-230.3" font-family="Patua One" font-size="14.00" fill="#b03a2e">Mining Function Specifications</text>
</a>
</g>
</g>
<!-- Coverage&#45;&gt;DynamicInvariants -->
<g id="edge13" class="edge">
<title>Coverage&#45;&gt;DynamicInvariants</title>
<path fill="none" stroke="#000000" d="M1250.7567,-295.7606C1307.6977,-284.9147 1399.0314,-267.5178 1470.2749,-253.9476"/>
<polygon fill="#000000" stroke="#000000" points="1471.0202,-257.3687 1480.1887,-252.0593 1469.7104,-250.4923 1471.0202,-257.3687"/>
</g>
<!-- GrammarFuzzer -->
<g id="node17" class="node">
<title>GrammarFuzzer</title>
<g id="a_node17"><a xlink:href="GrammarFuzzer.ipynb" xlink:title="GrammarFuzzer">
<polygon fill="#ffffff" stroke="#000000" points="714.5,-324 537.5,-324 537.5,-288 720.5,-288 720.5,-318 714.5,-324"/>
<polyline fill="none" stroke="#000000" points="714.5,-324 714.5,-318 "/>
<polyline fill="none" stroke="#000000" points="720.5,-318 714.5,-318 "/>
<text text-anchor="middle" x="629" y="-302.3" font-family="Patua One" font-size="14.00" fill="#b03a2e">Efficient Grammar Fuzzing</text>
</a>
</g>
</g>
<!-- Grammars&#45;&gt;GrammarFuzzer -->
<g id="edge16" class="edge">
<title>Grammars&#45;&gt;GrammarFuzzer</title>
<path fill="none" stroke="#000000" d="M729.9338,-359.8314C712.3467,-350.4516 690.7084,-338.9112 671.9832,-328.9244"/>
<polygon fill="#000000" stroke="#000000" points="673.5259,-325.7805 663.0553,-324.1628 670.2318,-331.957 673.5259,-325.7805"/>
</g>
<!-- Intro_Testing -->
<g id="node7" class="node">
<title>Intro_Testing</title>
<g id="a_node7"><a xlink:href="Intro_Testing.ipynb" xlink:title="Intro_Testing">
<polygon fill="#ffffff" stroke="#000000" points="1171.5,-540 958.5,-540 958.5,-504 1177.5,-504 1177.5,-534 1171.5,-540"/>
<polyline fill="none" stroke="#000000" points="1171.5,-540 1171.5,-534 "/>
<polyline fill="none" stroke="#000000" points="1177.5,-534 1171.5,-534 "/>
<text text-anchor="middle" x="1068" y="-518.3" font-family="Patua One" font-size="14.00" fill="#b03a2e">Introduction to Software Testing</text>
</a>
</g>
</g>
<!-- Intro_Testing&#45;&gt;Fuzzer -->
<g id="edge6" class="edge">
<title>Intro_Testing&#45;&gt;Fuzzer</title>
<path fill="none" stroke="#000000" d="M1068,-503.8314C1068,-496.131 1068,-486.9743 1068,-478.4166"/>
<polygon fill="#000000" stroke="#000000" points="1071.5001,-478.4132 1068,-468.4133 1064.5001,-478.4133 1071.5001,-478.4132"/>
</g>
<!-- GreyboxFuzzer -->
<g id="node15" class="node">
<title>GreyboxFuzzer</title>
<g id="a_node15"><a xlink:href="GreyboxFuzzer.ipynb" xlink:title="GreyboxFuzzer">
<polygon fill="#ffffff" stroke="#000000" points="1220,-180 1106,-180 1106,-144 1226,-144 1226,-174 1220,-180"/>
<polyline fill="none" stroke="#000000" points="1220,-180 1220,-174 "/>
<polyline fill="none" stroke="#000000" points="1226,-174 1220,-174 "/>
<text text-anchor="middle" x="1166" y="-158.3" font-family="Patua One" font-size="14.00" fill="#b03a2e">Greybox Fuzzing</text>
</a>
</g>
</g>
<!-- MutationFuzzer&#45;&gt;GreyboxFuzzer -->
<g id="edge14" class="edge">
<title>MutationFuzzer&#45;&gt;GreyboxFuzzer</title>
<path fill="none" stroke="#000000" d="M1147.3086,-215.8314C1150.0117,-208.0463 1153.2316,-198.7729 1156.231,-190.1347"/>
<polygon fill="#000000" stroke="#000000" points="1159.6327,-191.0081 1159.6065,-180.4133 1153.02,-188.7119 1159.6327,-191.0081"/>
</g>
<!-- ConfigurationFuzzer -->
<g id="node22" class="node">
<title>ConfigurationFuzzer</title>
<g id="a_node22"><a xlink:href="ConfigurationFuzzer.ipynb" xlink:title="ConfigurationFuzzer">
<polygon fill="#ffffff" stroke="#000000" points="1043.5,-180 890.5,-180 890.5,-144 1049.5,-144 1049.5,-174 1043.5,-180"/>
<polyline fill="none" stroke="#000000" points="1043.5,-180 1043.5,-174 "/>
<polyline fill="none" stroke="#000000" points="1049.5,-174 1043.5,-174 "/>
<text text-anchor="middle" x="970" y="-158.3" font-family="Patua One" font-size="14.00" fill="#b03a2e">Testing Configurations</text>
</a>
</g>
</g>
<!-- GrammarCoverageFuzzer&#45;&gt;ConfigurationFuzzer -->
<g id="edge22" class="edge">
<title>GrammarCoverageFuzzer&#45;&gt;ConfigurationFuzzer</title>
<path fill="none" stroke="#000000" d="M970,-215.8314C970,-208.131 970,-198.9743 970,-190.4166"/>
<polygon fill="#000000" stroke="#000000" points="973.5001,-190.4132 970,-180.4133 966.5001,-190.4133 973.5001,-190.4132"/>
</g>
<!-- Carver -->
<g id="node23" class="node">
<title>Carver</title>
<g id="a_node23"><a xlink:href="Carver.ipynb" xlink:title="Carver">
<polygon fill="#ffffff" stroke="#000000" points="762.5,-36 637.5,-36 637.5,0 768.5,0 768.5,-30 762.5,-36"/>
<polyline fill="none" stroke="#000000" points="762.5,-36 762.5,-30 "/>
<polyline fill="none" stroke="#000000" points="768.5,-30 762.5,-30 "/>
<text text-anchor="middle" x="703" y="-14.3" font-family="Patua One" font-size="14.00" fill="#b03a2e">Carving Unit Tests</text>
</a>
</g>
</g>
<!-- GrammarCoverageFuzzer&#45;&gt;Carver -->
<g id="edge23" class="edge">
<title>GrammarCoverageFuzzer&#45;&gt;Carver</title>
<path fill="none" stroke="#000000" d="M1017.992,-215.9585C1033.5962,-207.5363 1049.1587,-195.7985 1058,-180 1070.7463,-157.2235 1050.7286,-77.6038 1045,-72 1008.2275,-36.0287 867.756,-24.0188 778.6822,-20.0093"/>
<polygon fill="#000000" stroke="#000000" points="778.7616,-16.5096 768.6215,-19.5804 778.4634,-23.5032 778.7616,-16.5096"/>
</g>
<!-- GUIFuzzer -->
<g id="node24" class="node">
<title>GUIFuzzer</title>
<g id="a_node24"><a xlink:href="GUIFuzzer.ipynb" xlink:title="GUIFuzzer">
<polygon fill="#ffffff" stroke="#000000" points="866,-180 652,-180 652,-144 872,-144 872,-174 866,-180"/>
<polyline fill="none" stroke="#000000" points="866,-180 866,-174 "/>
<polyline fill="none" stroke="#000000" points="872,-174 866,-174 "/>
<text text-anchor="middle" x="762" y="-158.3" font-family="Patua One" font-size="14.00" fill="#b03a2e">Testing Graphical User Interfaces</text>
</a>
</g>
</g>
<!-- GrammarCoverageFuzzer&#45;&gt;GUIFuzzer -->
<g id="edge24" class="edge">
<title>GrammarCoverageFuzzer&#45;&gt;GUIFuzzer</title>
<path fill="none" stroke="#000000" d="M917.7813,-215.9243C889.2229,-206.0387 853.6705,-193.7321 823.7432,-183.3726"/>
<polygon fill="#000000" stroke="#000000" points="824.835,-180.0469 814.2402,-180.0831 822.5451,-186.6618 824.835,-180.0469"/>
</g>
<!-- APIFuzzer -->
<g id="node26" class="node">
<title>APIFuzzer</title>
<g id="a_node26"><a xlink:href="APIFuzzer.ipynb" xlink:title="APIFuzzer">
<polygon fill="#ffffff" stroke="#000000" points="370.5,-108 279.5,-108 279.5,-72 376.5,-72 376.5,-102 370.5,-108"/>
<polyline fill="none" stroke="#000000" points="370.5,-108 370.5,-102 "/>
<polyline fill="none" stroke="#000000" points="376.5,-102 370.5,-102 "/>
<text text-anchor="middle" x="328" y="-86.3" font-family="Patua One" font-size="14.00" fill="#b03a2e">Fuzzing APIs</text>
</a>
</g>
</g>
<!-- ProbabilisticGrammarFuzzer&#45;&gt;APIFuzzer -->
<g id="edge28" class="edge">
<title>ProbabilisticGrammarFuzzer&#45;&gt;APIFuzzer</title>
<path fill="none" stroke="#000000" d="M328,-143.8314C328,-136.131 328,-126.9743 328,-118.4166"/>
<polygon fill="#000000" stroke="#000000" points="331.5001,-118.4132 328,-108.4133 324.5001,-118.4133 331.5001,-118.4132"/>
</g>
<!-- GreyboxGrammarFuzzer -->
<g id="node16" class="node">
<title>GreyboxGrammarFuzzer</title>
<g id="a_node16"><a xlink:href="GreyboxGrammarFuzzer.ipynb" xlink:title="GreyboxGrammarFuzzer">
<polygon fill="#ffffff" stroke="#000000" points="623,-108 409,-108 409,-72 629,-72 629,-102 623,-108"/>
<polyline fill="none" stroke="#000000" points="623,-108 623,-102 "/>
<polyline fill="none" stroke="#000000" points="629,-102 623,-102 "/>
<text text-anchor="middle" x="519" y="-86.3" font-family="Patua One" font-size="14.00" fill="#b03a2e">Greybox Fuzzing with Grammars</text>
</a>
</g>
</g>
<!-- GreyboxFuzzer&#45;&gt;GreyboxGrammarFuzzer -->
<g id="edge15" class="edge">
<title>GreyboxFuzzer&#45;&gt;GreyboxGrammarFuzzer</title>
<path fill="none" stroke="#000000" d="M1105.8421,-151.2417C1090.2888,-148.6614 1073.5463,-146.0598 1058,-144 896.4029,-122.5888 855.1836,-124.3868 693,-108 675.8243,-106.2646 657.6972,-104.4124 639.888,-102.5808"/>
<polygon fill="#000000" stroke="#000000" points="639.7546,-99.0486 629.4486,-101.5058 639.0375,-106.0118 639.7546,-99.0486"/>
</g>
<!-- GrammarFuzzer&#45;&gt;GrammarCoverageFuzzer -->
<g id="edge17" class="edge">
<title>GrammarFuzzer&#45;&gt;GrammarCoverageFuzzer</title>
<path fill="none" stroke="#000000" d="M714.6085,-287.9243C769.1916,-276.3994 839.3587,-261.5841 892.3293,-250.3997"/>
<polygon fill="#000000" stroke="#000000" points="893.2868,-253.7748 902.348,-248.2843 891.8406,-246.9258 893.2868,-253.7748"/>
</g>
<!-- Parser -->
<g id="node18" class="node">
<title>Parser</title>
<g id="a_node18"><a xlink:href="Parser.ipynb" xlink:title="Parser">
<polygon fill="#ffffff" stroke="#000000" points="589.5,-252 488.5,-252 488.5,-216 595.5,-216 595.5,-246 589.5,-252"/>
<polyline fill="none" stroke="#000000" points="589.5,-252 589.5,-246 "/>
<polyline fill="none" stroke="#000000" points="595.5,-246 589.5,-246 "/>
<text text-anchor="middle" x="542" y="-230.3" font-family="Patua One" font-size="14.00" fill="#b03a2e">Parsing Inputs</text>
</a>
</g>
</g>
<!-- GrammarFuzzer&#45;&gt;Parser -->
<g id="edge18" class="edge">
<title>GrammarFuzzer&#45;&gt;Parser</title>
<path fill="none" stroke="#000000" d="M607.0462,-287.8314C596.3305,-278.9632 583.2811,-268.1637 571.691,-258.5718"/>
<polygon fill="#000000" stroke="#000000" points="573.8822,-255.8422 563.9467,-252.1628 569.4192,-261.2349 573.8822,-255.8422"/>
</g>
<!-- GeneratorGrammarFuzzer -->
<g id="node19" class="node">
<title>GeneratorGrammarFuzzer</title>
<g id="a_node19"><a xlink:href="GeneratorGrammarFuzzer.ipynb" xlink:title="GeneratorGrammarFuzzer">
<polygon fill="#ffffff" stroke="#000000" points="162,-180 0,-180 0,-144 168,-144 168,-174 162,-180"/>
<polyline fill="none" stroke="#000000" points="162,-180 162,-174 "/>
<polyline fill="none" stroke="#000000" points="168,-174 162,-174 "/>
<text text-anchor="middle" x="84" y="-158.3" font-family="Patua One" font-size="14.00" fill="#b03a2e">Fuzzing with Generators</text>
</a>
</g>
</g>
<!-- GrammarFuzzer&#45;&gt;GeneratorGrammarFuzzer -->
<g id="edge19" class="edge">
<title>GrammarFuzzer&#45;&gt;GeneratorGrammarFuzzer</title>
<path fill="none" stroke="#000000" d="M537.4461,-297.65C439.1956,-287.9411 289.9739,-270.8241 236,-252 191.3273,-236.4198 145.2967,-206.9337 115.7679,-185.9597"/>
<polygon fill="#000000" stroke="#000000" points="117.6823,-183.0252 107.5229,-180.0189 113.5901,-188.7045 117.6823,-183.0252"/>
</g>
<!-- Reducer -->
<g id="node20" class="node">
<title>Reducer</title>
<g id="a_node20"><a xlink:href="Reducer.ipynb" xlink:title="Reducer">
<polygon fill="#ffffff" stroke="#000000" points="464.5,-252 245.5,-252 245.5,-216 470.5,-216 470.5,-246 464.5,-252"/>
<polyline fill="none" stroke="#000000" points="464.5,-252 464.5,-246 "/>
<polyline fill="none" stroke="#000000" points="470.5,-246 464.5,-246 "/>
<text text-anchor="middle" x="358" y="-230.3" font-family="Patua One" font-size="14.00" fill="#b03a2e">Reducing Failure&#45;Inducing Inputs</text>
</a>
</g>
</g>
<!-- GrammarFuzzer&#45;&gt;Reducer -->
<g id="edge20" class="edge">
<title>GrammarFuzzer&#45;&gt;Reducer</title>
<path fill="none" stroke="#000000" d="M560.9651,-287.9243C522.9513,-277.8247 475.4266,-265.1982 435.9228,-254.7027"/>
<polygon fill="#000000" stroke="#000000" points="436.6264,-251.2683 426.0629,-252.0831 434.8289,-258.0336 436.6264,-251.2683"/>
</g>
<!-- WebFuzzer -->
<g id="node21" class="node">
<title>WebFuzzer</title>
<g id="a_node21"><a xlink:href="WebFuzzer.ipynb" xlink:title="WebFuzzer">
<polygon fill="#ffffff" stroke="#000000" points="797,-252 629,-252 629,-216 803,-216 803,-246 797,-252"/>
<polyline fill="none" stroke="#000000" points="797,-252 797,-246 "/>
<polyline fill="none" stroke="#000000" points="803,-246 797,-246 "/>
<text text-anchor="middle" x="716" y="-230.3" font-family="Patua One" font-size="14.00" fill="#b03a2e">Testing Web Applications</text>
</a>
</g>
</g>
<!-- GrammarFuzzer&#45;&gt;WebFuzzer -->
<g id="edge21" class="edge">
<title>GrammarFuzzer&#45;&gt;WebFuzzer</title>
<path fill="none" stroke="#000000" d="M650.9538,-287.8314C661.6695,-278.9632 674.7189,-268.1637 686.309,-258.5718"/>
<polygon fill="#000000" stroke="#000000" points="688.5808,-261.2349 694.0533,-252.1628 684.1178,-255.8422 688.5808,-261.2349"/>
</g>
<!-- Parser&#45;&gt;ProbabilisticGrammarFuzzer -->
<g id="edge25" class="edge">
<title>Parser&#45;&gt;ProbabilisticGrammarFuzzer</title>
<path fill="none" stroke="#000000" d="M488.275,-215.9243C458.8927,-206.0387 422.3148,-193.7321 391.5242,-183.3726"/>
<polygon fill="#000000" stroke="#000000" points="392.3412,-179.9548 381.7471,-180.0831 390.1089,-186.5893 392.3412,-179.9548"/>
</g>
<!-- Parser&#45;&gt;GreyboxGrammarFuzzer -->
<g id="edge26" class="edge">
<title>Parser&#45;&gt;GreyboxGrammarFuzzer</title>
<path fill="none" stroke="#000000" d="M488.1701,-218.0731C485.0783,-217.3291 482.0058,-216.631 479,-216 421.0534,-203.836 253.9365,-224.6064 215,-180 204.4783,-167.9462 204.7232,-156.2632 215,-144 221.1931,-136.6099 316.4783,-120.4656 398.7394,-107.7438"/>
<polygon fill="#000000" stroke="#000000" points="399.349,-111.1913 408.6998,-106.2101 398.2836,-104.2728 399.349,-111.1913"/>
</g>
<!-- InformationFlow -->
<g id="node25" class="node">
<title>InformationFlow</title>
<g id="a_node25"><a xlink:href="InformationFlow.ipynb" xlink:title="InformationFlow">
<polygon fill="#ffffff" stroke="#000000" points="627.5,-180 450.5,-180 450.5,-144 633.5,-144 633.5,-174 627.5,-180"/>
<polyline fill="none" stroke="#000000" points="627.5,-180 627.5,-174 "/>
<polyline fill="none" stroke="#000000" points="633.5,-174 627.5,-174 "/>
<text text-anchor="middle" x="542" y="-158.3" font-family="Patua One" font-size="14.00" fill="#b03a2e">Tracking Information Flow</text>
</a>
</g>
</g>
<!-- Parser&#45;&gt;InformationFlow -->
<g id="edge27" class="edge">
<title>Parser&#45;&gt;InformationFlow</title>
<path fill="none" stroke="#000000" d="M542,-215.8314C542,-208.131 542,-198.9743 542,-190.4166"/>
<polygon fill="#000000" stroke="#000000" points="545.5001,-190.4132 542,-180.4133 538.5001,-190.4133 545.5001,-190.4132"/>
</g>
<!-- GeneratorGrammarFuzzer&#45;&gt;APIFuzzer -->
<g id="edge29" class="edge">
<title>GeneratorGrammarFuzzer&#45;&gt;APIFuzzer</title>
<path fill="none" stroke="#000000" d="M145.2566,-143.9243C183.3551,-132.6821 232.0643,-118.3089 269.6124,-107.2291"/>
<polygon fill="#000000" stroke="#000000" points="270.795,-110.5294 279.3956,-104.3423 268.8139,-103.8156 270.795,-110.5294"/>
</g>
<!-- WebFuzzer&#45;&gt;GUIFuzzer -->
<g id="edge33" class="edge">
<title>WebFuzzer&#45;&gt;GUIFuzzer</title>
<path fill="none" stroke="#000000" d="M727.6077,-215.8314C732.7978,-207.7079 739.0232,-197.9637 744.7425,-189.0118"/>
<polygon fill="#000000" stroke="#000000" points="747.8015,-190.7246 750.236,-180.4133 741.9026,-186.9559 747.8015,-190.7246"/>
</g>
<!-- InformationFlow&#45;&gt;GrammarMiner -->
<g id="edge30" class="edge">
<title>InformationFlow&#45;&gt;GrammarMiner</title>
<path fill="none" stroke="#000000" d="M603.2566,-143.9243C637.1929,-133.9103 679.5481,-121.412 714.9349,-110.97"/>
<polygon fill="#000000" stroke="#000000" points="716.1177,-114.2703 724.7182,-108.0831 714.1365,-107.5565 716.1177,-114.2703"/>
</g>
<!-- InformationFlow&#45;&gt;ConcolicFuzzer -->
<g id="edge31" class="edge">
<title>InformationFlow&#45;&gt;ConcolicFuzzer</title>
<path fill="none" stroke="#000000" d="M633.6417,-145.5674C636.7984,-145.0334 639.925,-144.5095 643,-144 747.2419,-126.7293 773.8041,-125.546 878,-108 887.0196,-106.4812 896.494,-104.8218 905.8506,-103.1449"/>
<polygon fill="#000000" stroke="#000000" points="906.7116,-106.5461 915.9301,-101.3241 905.4671,-99.6576 906.7116,-106.5461"/>
</g>
<!-- APIFuzzer&#45;&gt;Carver -->
<g id="edge32" class="edge">
<title>APIFuzzer&#45;&gt;Carver</title>
<path fill="none" stroke="#000000" d="M376.6943,-77.3458C384.4688,-75.4643 392.4401,-73.6167 400,-72 477.0903,-55.5146 565.9621,-40.0952 627.431,-29.9886"/>
<polygon fill="#000000" stroke="#000000" points="628.1323,-33.4205 637.4354,-28.3509 627.0013,-26.5125 628.1323,-33.4205"/>
</g>
</g>
</svg>
