<?xml version="1.0" encoding="UTF-8" standalone="no"?>
<!DOCTYPE svg PUBLIC "-//W3C//DTD SVG 1.1//EN"
 "http://www.w3.org/Graphics/SVG/1.1/DTD/svg11.dtd">
<!-- Generated by graphviz version 2.40.1 (20161225.0304)
 -->
<!-- Title: %3 Pages: 1 -->
<svg width="158pt" height="220pt"
 viewBox="0.00 0.00 157.50 220.00" xmlns="http://www.w3.org/2000/svg" xmlns:xlink="http://www.w3.org/1999/xlink">
<g id="graph0" class="graph" transform="scale(1 1) rotate(0) translate(4 216)">
<title>%3</title>
<g id="a_graph0"><a xlink:title="D_Class hierarchy">
<polygon fill="#ffffff" stroke="transparent" points="-4,4 -4,-216 153.5,-216 153.5,4 -4,4"/>
</a>
</g>
<!-- D_Class -->
<g id="node1" class="node">
<title>D_Class</title>
<g id="a_node1"><a xlink:href="#" xlink:title="D_Class">
<polygon fill="none" stroke="#000000" points="42,-.5 42,-42.5 108,-42.5 108,-.5 42,-.5"/>
<text text-anchor="start" x="50" y="-28.3" font-family="Patua One, Helvetica, sans-serif" font-weight="bold" font-size="14.00" fill="#b03a2e">D_Class</text>
<polyline fill="none" stroke="#000000" points="42,-19.5 108,-19.5 "/>
<g id="a_node1_0"><a xlink:href="#" xlink:title="D_Class">
<g id="a_node1_1"><a xlink:href="#" xlink:title="foo()">
<text text-anchor="start" x="60" y="-7" font-family="'Fira Mono', 'Source Code Pro', 'Courier', monospace" font-size="10.00" fill="#000000">foo()</text>
</a>
</g>
</a>
</g>
</a>
</g>
</g>
<!-- B_Class -->
<g id="node2" class="node">
<title>B_Class</title>
<g id="a_node2"><a xlink:href="#" xlink:title="A Class with multiple inheritance">
<polygon fill="none" stroke="#000000" points="0,-79.5 0,-132.5 66,-132.5 66,-79.5 0,-79.5"/>
<text text-anchor="start" x="8" y="-118.3" font-family="Patua One, Helvetica, sans-serif" font-weight="bold" font-size="14.00" fill="#b03a2e">B_Class</text>
<polyline fill="none" stroke="#000000" points="0,-109.5 66,-109.5 "/>
<g id="a_node2_2"><a xlink:href="#" xlink:title="B_Class">
<g id="a_node2_3"><a xlink:href="#" xlink:title="A qux walks into a bar">
<text text-anchor="start" x="18" y="-98.5" font-family="'Fira Mono', 'Source Code Pro', 'Courier', monospace" font-weight="bold" font-size="10.00" fill="#000000">bar()</text>
</a>
</g>
<g id="a_node2_4"><a xlink:href="#" xlink:title="A WW2 foo fighter">
<text text-anchor="start" x="18" y="-87.5" font-family="'Fira Mono', 'Source Code Pro', 'Courier', monospace" font-weight="bold" font-size="10.00" fill="#000000">foo()</text>
</a>
</g>
</a>
</g>
</a>
</g>
</g>
<!-- D_Class&#45;&gt;B_Class -->
<g id="edge1" class="edge">
<title>D_Class&#45;&gt;B_Class</title>
<path fill="none" stroke="#000000" d="M64.4016,-42.8229C60.2826,-51.11 55.4493,-60.8342 50.8261,-70.1357"/>
<polygon fill="none" stroke="#000000" points="47.6239,-68.7147 46.3071,-79.2274 53.8923,-71.8304 47.6239,-68.7147"/>
</g>
<!-- C_Class -->
<g id="node4" class="node">
<title>C_Class</title>
<g id="a_node4"><a xlink:href="#" xlink:title="C_Class">
<polygon fill="none" stroke="#000000" points="84.5,-85 84.5,-127 149.5,-127 149.5,-85 84.5,-85"/>
<text text-anchor="start" x="92.5" y="-112.8" font-family="Patua One, Helvetica, sans-serif" font-weight="bold" font-size="14.00" fill="#b03a2e">C_Class</text>
<polyline fill="none" stroke="#000000" points="84.5,-104 149.5,-104 "/>
<g id="a_node4_5"><a xlink:href="#" xlink:title="C_Class">
<g id="a_node4_6"><a xlink:href="#" xlink:title="qux()">
<text text-anchor="start" x="102" y="-91.5" font-family="'Fira Mono', 'Source Code Pro', 'Courier', monospace" font-size="10.00" fill="#000000">qux()</text>
</a>
</g>
</a>
</g>
</a>
</g>
</g>
<!-- D_Class&#45;&gt;C_Class -->
<g id="edge3" class="edge">
<title>D_Class&#45;&gt;C_Class</title>
<path fill="none" stroke="#000000" d="M85.5984,-42.8229C90.5604,-52.8059 96.5589,-64.8744 101.978,-75.7772"/>
<polygon fill="none" stroke="#000000" points="98.9653,-77.5796 106.5505,-84.9766 105.2337,-74.4639 98.9653,-77.5796"/>
</g>
<!-- A_Class -->
<g id="node3" class="node">
<title>A_Class</title>
<g id="a_node3"><a xlink:href="#" xlink:title="A Class which does A thing right">
<polygon fill="none" stroke="#000000" points="0,-169.5 0,-211.5 66,-211.5 66,-169.5 0,-169.5"/>
<text text-anchor="start" x="8" y="-197.3" font-family="Patua One, Helvetica, sans-serif" font-weight="bold" font-size="14.00" fill="#b03a2e">A_Class</text>
<polyline fill="none" stroke="#000000" points="0,-188.5 66,-188.5 "/>
<g id="a_node3_7"><a xlink:href="#" xlink:title="A_Class">
<g id="a_node3_8"><a xlink:href="#" xlink:title="The Adventures of the glorious Foo">
<text text-anchor="start" x="18" y="-177" font-family="'Fira Mono', 'Source Code Pro', 'Courier', monospace" font-weight="bold" font-size="10.00" fill="#000000">foo()</text>
</a>
</g>
</a>
</g>
</a>
</g>
</g>
<!-- B_Class&#45;&gt;A_Class -->
<g id="edge2" class="edge">
<title>B_Class&#45;&gt;A_Class</title>
<path fill="none" stroke="#000000" d="M33,-132.7363C33,-141.1238 33,-150.4584 33,-159.1357"/>
<polygon fill="none" stroke="#000000" points="29.5001,-159.2861 33,-169.2862 36.5001,-159.2862 29.5001,-159.2861"/>
</g>
</g>
</svg>
