<svg xmlns="http://www.w3.org/2000/svg" class="railroad-diagram" height="92" viewBox="0 0 534.5 92" width="534.5">
<g transform="translate(.5 .5)">
<style>/* <![CDATA[ */
    svg.railroad-diagram {
    }
    svg.railroad-diagram path {
        stroke-width:3;
        stroke:black;
        fill:white;
    }
    svg.railroad-diagram text {
        font:14px "Fira Mono", monospace;
        text-anchor:middle;
    }
    svg.railroad-diagram text.label{
        text-anchor:start;
    }
    svg.railroad-diagram text.comment{
        font:italic 12px "Fira Mono", monospace;
    }
    svg.railroad-diagram rect{
        stroke-width:2;
        stroke:black;
        fill:mistyrose;
    }

/* ]]> */
</style><g>
<path d="M20 51v20m10 -20v20m-10 -10h20"/></g><g>
<path d="M40 61h0.0"/><path d="M494.5 61h0.0"/><path d="M40.0 61a10 10 0 0 0 10 -10v-10a10 10 0 0 1 10 -10"/><g>
<path d="M60.0 31h0.0"/><path d="M474.5 31h0.0"/><g class="terminal">
<path d="M60.0 31h0.0"/><path d="M97.0 31h0.0"/><rect height="22" rx="10" ry="10" width="37.0" x="60.0" y="20"/><text x="78.5" y="35">//</text></g><path d="M97.0 31h10"/><path d="M107.0 31h10"/><g class="non-terminal">
<path d="M117.0 31h0.0"/><path d="M298.5 31h0.0"/><rect height="22" width="181.5" x="117.0" y="20"/><text x="207.75" y="35">urlparse@394:netloc</text></g><path d="M298.5 31h10"/><path d="M308.5 31h10"/><g class="non-terminal">
<path d="M318.5 31h0.0"/><path d="M474.5 31h0.0"/><rect height="22" width="156.0" x="318.5" y="20"/><text x="396.5" y="35">urlsplit@481:url</text></g></g><path d="M474.5 31a10 10 0 0 1 10 10v10a10 10 0 0 0 10 10"/><path d="M40.0 61h20"/><g>
<path d="M60.0 61h63.75"/><path d="M410.75 61h63.75"/><g class="terminal">
<path d="M123.75 61h0.0"/><path d="M160.75 61h0.0"/><rect height="22" rx="10" ry="10" width="37.0" x="123.75" y="50"/><text x="142.25" y="65">//</text></g><path d="M160.75 61h10"/><path d="M170.75 61h10"/><g class="non-terminal">
<path d="M180.75 61h0.0"/><path d="M362.25 61h0.0"/><rect height="22" width="181.5" x="180.75" y="50"/><text x="271.5" y="65">urlparse@394:netloc</text></g><path d="M362.25 61h10"/><path d="M372.25 61h10"/><g class="terminal">
<path d="M382.25 61h0.0"/><path d="M410.75 61h0.0"/><rect height="22" rx="10" ry="10" width="28.5" x="382.25" y="50"/><text x="396.5" y="65">/</text></g></g><path d="M474.5 61h20"/></g><path d="M 494.5 61 h 20 m -10 -10 v 20 m 10 -20 v 20"/></g></svg>