<?xml version="1.0" encoding="UTF-8" standalone="no"?>
<!DOCTYPE svg PUBLIC "-//W3C//DTD SVG 1.1//EN"
 "http://www.w3.org/Graphics/SVG/1.1/DTD/svg11.dtd">
<!-- Generated by graphviz version 8.0.4 (20230421.1958)
 -->
<!-- Pages: 1 -->
<svg width="636pt" height="223pt"
 viewBox="0.00 0.00 635.75 223.25" xmlns="http://www.w3.org/2000/svg" xmlns:xlink="http://www.w3.org/1999/xlink">
<g id="graph0" class="graph" transform="scale(1 1) rotate(0) translate(4 219.25)">
<polygon fill="white" stroke="none" points="-4,4 -4,-219.25 631.75,-219.25 631.75,4 -4,4"/>
<!-- 0 -->
<g id="node1" class="node">
<title>0</title>
<text text-anchor="middle" x="265.12" y="-201.95" font-family="Times,serif" font-size="14.00">&lt;start&gt;</text>
</g>
<!-- 1 -->
<g id="node2" class="node">
<title>1</title>
<text text-anchor="middle" x="265.12" y="-151.7" font-family="Times,serif" font-size="14.00">&lt;phone&#45;number&gt;</text>
</g>
<!-- 0&#45;&gt;1 -->
<g id="edge1" class="edge">
<title>0&#45;&gt;1</title>
<path fill="none" stroke="black" d="M265.12,-201.21C265.12,-194.91 265.12,-184.67 265.12,-175.83"/>
<polygon fill="black" stroke="black" points="268.63,-175.84 265.12,-165.84 261.63,-175.84 268.63,-175.84"/>
</g>
<!-- 2 -->
<g id="node3" class="node">
<title>2</title>
<text text-anchor="middle" x="113.12" y="-101.45" font-family="Times,serif" font-size="14.00">( (40)</text>
</g>
<!-- 1&#45;&gt;2 -->
<g id="edge2" class="edge">
<title>1&#45;&gt;2</title>
<path fill="none" stroke="black" d="M245.87,-150.76C218.55,-142.09 168.5,-126.2 138.28,-116.61"/>
<polygon fill="black" stroke="black" points="139.71,-113.07 129.12,-113.38 137.59,-119.75 139.71,-113.07"/>
</g>
<!-- 3 -->
<g id="node4" class="node">
<title>3</title>
<text text-anchor="middle" x="166.12" y="-101.45" font-family="Times,serif" font-size="14.00">&lt;area&gt;</text>
</g>
<!-- 1&#45;&gt;3 -->
<g id="edge3" class="edge">
<title>1&#45;&gt;3</title>
<path fill="none" stroke="black" d="M252.59,-150.76C236.44,-142.9 208.12,-129.09 188.3,-119.43"/>
<polygon fill="black" stroke="black" points="190.08,-115.92 179.56,-114.69 187.02,-122.21 190.08,-115.92"/>
</g>
<!-- 10 -->
<g id="node11" class="node">
<title>10</title>
<text text-anchor="middle" x="232.12" y="-101.45" font-family="Times,serif" font-size="14.00">) (41)</text>
</g>
<!-- 1&#45;&gt;10 -->
<g id="edge10" class="edge">
<title>1&#45;&gt;10</title>
<path fill="none" stroke="black" d="M261.08,-150.96C256.43,-144.16 248.62,-132.74 242.28,-123.48"/>
<polygon fill="black" stroke="black" points="244.74,-121.87 236.2,-115.59 238.96,-125.82 244.74,-121.87"/>
</g>
<!-- 11 -->
<g id="node12" class="node">
<title>11</title>
<text text-anchor="middle" x="299.12" y="-101.45" font-family="Times,serif" font-size="14.00">&lt;exchange&gt;</text>
</g>
<!-- 1&#45;&gt;11 -->
<g id="edge11" class="edge">
<title>1&#45;&gt;11</title>
<path fill="none" stroke="black" d="M269.29,-150.96C274.09,-144.16 282.13,-132.74 288.66,-123.48"/>
<polygon fill="black" stroke="black" points="292.02,-125.78 294.92,-115.59 286.3,-121.75 292.02,-125.78"/>
</g>
<!-- 18 -->
<g id="node19" class="node">
<title>18</title>
<text text-anchor="middle" x="366.12" y="-101.45" font-family="Times,serif" font-size="14.00">&#45; (45)</text>
</g>
<!-- 1&#45;&gt;18 -->
<g id="edge18" class="edge">
<title>1&#45;&gt;18</title>
<path fill="none" stroke="black" d="M277.92,-150.76C294.46,-142.86 323.55,-128.96 343.78,-119.3"/>
<polygon fill="black" stroke="black" points="344.92,-122.16 352.44,-114.69 341.91,-115.84 344.92,-122.16"/>
</g>
<!-- 19 -->
<g id="node20" class="node">
<title>19</title>
<text text-anchor="middle" x="489.12" y="-101.45" font-family="Times,serif" font-size="14.00">&lt;line&gt;</text>
</g>
<!-- 1&#45;&gt;19 -->
<g id="edge19" class="edge">
<title>1&#45;&gt;19</title>
<path fill="none" stroke="black" d="M293.49,-150.76C336.4,-141.52 417.34,-124.09 460.43,-114.81"/>
<polygon fill="black" stroke="black" points="460.99,-118.05 470.02,-112.52 459.51,-111.21 460.99,-118.05"/>
</g>
<!-- 4 -->
<g id="node5" class="node">
<title>4</title>
<text text-anchor="middle" x="34.12" y="-51.2" font-family="Times,serif" font-size="14.00">&lt;lead&#45;digit&gt;</text>
</g>
<!-- 3&#45;&gt;4 -->
<g id="edge4" class="edge">
<title>3&#45;&gt;4</title>
<path fill="none" stroke="black" d="M149.41,-100.51C127.09,-92.36 87.31,-77.82 60.82,-68.13"/>
<polygon fill="black" stroke="black" points="62.3,-64.58 51.71,-64.44 59.9,-71.16 62.3,-64.58"/>
</g>
<!-- 6 -->
<g id="node7" class="node">
<title>6</title>
<text text-anchor="middle" x="107.12" y="-51.2" font-family="Times,serif" font-size="14.00">&lt;digit&gt;</text>
</g>
<!-- 3&#45;&gt;6 -->
<g id="edge6" class="edge">
<title>3&#45;&gt;6</title>
<path fill="none" stroke="black" d="M158.89,-100.71C149.96,-93.4 134.5,-80.77 122.8,-71.2"/>
<polygon fill="black" stroke="black" points="125.38,-67.96 115.42,-64.34 120.94,-73.38 125.38,-67.96"/>
</g>
<!-- 8 -->
<g id="node9" class="node">
<title>8</title>
<text text-anchor="middle" x="166.12" y="-51.2" font-family="Times,serif" font-size="14.00">&lt;digit&gt;</text>
</g>
<!-- 3&#45;&gt;8 -->
<g id="edge8" class="edge">
<title>3&#45;&gt;8</title>
<path fill="none" stroke="black" d="M166.12,-100.71C166.12,-94.41 166.12,-84.17 166.12,-75.33"/>
<polygon fill="black" stroke="black" points="169.63,-75.34 166.12,-65.34 162.63,-75.34 169.63,-75.34"/>
</g>
<!-- 5 -->
<g id="node6" class="node">
<title>5</title>
<text text-anchor="middle" x="34.12" y="-0.95" font-family="Times,serif" font-size="14.00">6 (54)</text>
</g>
<!-- 4&#45;&gt;5 -->
<g id="edge5" class="edge">
<title>4&#45;&gt;5</title>
<path fill="none" stroke="black" d="M34.12,-50.46C34.12,-44.16 34.12,-33.92 34.12,-25.08"/>
<polygon fill="black" stroke="black" points="37.63,-25.09 34.12,-15.09 30.63,-25.09 37.63,-25.09"/>
</g>
<!-- 7 -->
<g id="node8" class="node">
<title>7</title>
<text text-anchor="middle" x="107.12" y="-0.95" font-family="Times,serif" font-size="14.00">4 (52)</text>
</g>
<!-- 6&#45;&gt;7 -->
<g id="edge7" class="edge">
<title>6&#45;&gt;7</title>
<path fill="none" stroke="black" d="M107.12,-50.46C107.12,-44.16 107.12,-33.92 107.12,-25.08"/>
<polygon fill="black" stroke="black" points="110.63,-25.09 107.12,-15.09 103.63,-25.09 110.63,-25.09"/>
</g>
<!-- 9 -->
<g id="node10" class="node">
<title>9</title>
<text text-anchor="middle" x="166.12" y="-0.95" font-family="Times,serif" font-size="14.00">5 (53)</text>
</g>
<!-- 8&#45;&gt;9 -->
<g id="edge9" class="edge">
<title>8&#45;&gt;9</title>
<path fill="none" stroke="black" d="M166.12,-50.46C166.12,-44.16 166.12,-33.92 166.12,-25.08"/>
<polygon fill="black" stroke="black" points="169.63,-25.09 166.12,-15.09 162.63,-25.09 169.63,-25.09"/>
</g>
<!-- 12 -->
<g id="node13" class="node">
<title>12</title>
<text text-anchor="middle" x="239.12" y="-51.2" font-family="Times,serif" font-size="14.00">&lt;lead&#45;digit&gt;</text>
</g>
<!-- 11&#45;&gt;12 -->
<g id="edge12" class="edge">
<title>11&#45;&gt;12</title>
<path fill="none" stroke="black" d="M291.77,-100.71C282.68,-93.4 266.97,-80.77 255.07,-71.2"/>
<polygon fill="black" stroke="black" points="257.53,-67.88 247.54,-64.34 253.14,-73.33 257.53,-67.88"/>
</g>
<!-- 14 -->
<g id="node15" class="node">
<title>14</title>
<text text-anchor="middle" x="312.12" y="-51.2" font-family="Times,serif" font-size="14.00">&lt;digit&gt;</text>
</g>
<!-- 11&#45;&gt;14 -->
<g id="edge14" class="edge">
<title>11&#45;&gt;14</title>
<path fill="none" stroke="black" d="M300.72,-100.71C302.45,-94.27 305.3,-83.69 307.72,-74.72"/>
<polygon fill="black" stroke="black" points="311.3,-75.91 310.52,-65.34 304.54,-74.08 311.3,-75.91"/>
</g>
<!-- 16 -->
<g id="node17" class="node">
<title>16</title>
<text text-anchor="middle" x="371.12" y="-51.2" font-family="Times,serif" font-size="14.00">&lt;digit&gt;</text>
</g>
<!-- 11&#45;&gt;16 -->
<g id="edge16" class="edge">
<title>11&#45;&gt;16</title>
<path fill="none" stroke="black" d="M308.24,-100.51C319.56,-92.93 339.1,-79.83 353.41,-70.25"/>
<polygon fill="black" stroke="black" points="354.95,-72.76 361.31,-64.29 351.05,-66.94 354.95,-72.76"/>
</g>
<!-- 13 -->
<g id="node14" class="node">
<title>13</title>
<text text-anchor="middle" x="239.12" y="-0.95" font-family="Times,serif" font-size="14.00">9 (57)</text>
</g>
<!-- 12&#45;&gt;13 -->
<g id="edge13" class="edge">
<title>12&#45;&gt;13</title>
<path fill="none" stroke="black" d="M239.12,-50.46C239.12,-44.16 239.12,-33.92 239.12,-25.08"/>
<polygon fill="black" stroke="black" points="242.63,-25.09 239.12,-15.09 235.63,-25.09 242.63,-25.09"/>
</g>
<!-- 15 -->
<g id="node16" class="node">
<title>15</title>
<text text-anchor="middle" x="312.12" y="-0.95" font-family="Times,serif" font-size="14.00">9 (57)</text>
</g>
<!-- 14&#45;&gt;15 -->
<g id="edge15" class="edge">
<title>14&#45;&gt;15</title>
<path fill="none" stroke="black" d="M312.12,-50.46C312.12,-44.16 312.12,-33.92 312.12,-25.08"/>
<polygon fill="black" stroke="black" points="315.63,-25.09 312.12,-15.09 308.63,-25.09 315.63,-25.09"/>
</g>
<!-- 17 -->
<g id="node18" class="node">
<title>17</title>
<text text-anchor="middle" x="371.12" y="-0.95" font-family="Times,serif" font-size="14.00">7 (55)</text>
</g>
<!-- 16&#45;&gt;17 -->
<g id="edge17" class="edge">
<title>16&#45;&gt;17</title>
<path fill="none" stroke="black" d="M371.12,-50.46C371.12,-44.16 371.12,-33.92 371.12,-25.08"/>
<polygon fill="black" stroke="black" points="374.63,-25.09 371.12,-15.09 367.63,-25.09 374.63,-25.09"/>
</g>
<!-- 20 -->
<g id="node21" class="node">
<title>20</title>
<text text-anchor="middle" x="430.12" y="-51.2" font-family="Times,serif" font-size="14.00">&lt;digit&gt;</text>
</g>
<!-- 19&#45;&gt;20 -->
<g id="edge20" class="edge">
<title>19&#45;&gt;20</title>
<path fill="none" stroke="black" d="M481.89,-100.71C472.96,-93.4 457.5,-80.77 445.8,-71.2"/>
<polygon fill="black" stroke="black" points="448.38,-67.96 438.42,-64.34 443.94,-73.38 448.38,-67.96"/>
</g>
<!-- 22 -->
<g id="node23" class="node">
<title>22</title>
<text text-anchor="middle" x="489.12" y="-51.2" font-family="Times,serif" font-size="14.00">&lt;digit&gt;</text>
</g>
<!-- 19&#45;&gt;22 -->
<g id="edge22" class="edge">
<title>19&#45;&gt;22</title>
<path fill="none" stroke="black" d="M489.12,-100.71C489.12,-94.41 489.12,-84.17 489.12,-75.33"/>
<polygon fill="black" stroke="black" points="492.63,-75.34 489.12,-65.34 485.63,-75.34 492.63,-75.34"/>
</g>
<!-- 24 -->
<g id="node25" class="node">
<title>24</title>
<text text-anchor="middle" x="548.12" y="-51.2" font-family="Times,serif" font-size="14.00">&lt;digit&gt;</text>
</g>
<!-- 19&#45;&gt;24 -->
<g id="edge24" class="edge">
<title>19&#45;&gt;24</title>
<path fill="none" stroke="black" d="M496.36,-100.71C505.29,-93.4 520.75,-80.77 532.45,-71.2"/>
<polygon fill="black" stroke="black" points="534.31,-73.38 539.83,-64.34 529.87,-67.96 534.31,-73.38"/>
</g>
<!-- 26 -->
<g id="node27" class="node">
<title>26</title>
<text text-anchor="middle" x="607.12" y="-51.2" font-family="Times,serif" font-size="14.00">&lt;digit&gt;</text>
</g>
<!-- 19&#45;&gt;26 -->
<g id="edge26" class="edge">
<title>19&#45;&gt;26</title>
<path fill="none" stroke="black" d="M504.07,-100.51C523.75,-92.47 558.63,-78.2 582.31,-68.52"/>
<polygon fill="black" stroke="black" points="583.37,-71.46 591.3,-64.44 580.72,-64.98 583.37,-71.46"/>
</g>
<!-- 21 -->
<g id="node22" class="node">
<title>21</title>
<text text-anchor="middle" x="430.12" y="-0.95" font-family="Times,serif" font-size="14.00">0 (48)</text>
</g>
<!-- 20&#45;&gt;21 -->
<g id="edge21" class="edge">
<title>20&#45;&gt;21</title>
<path fill="none" stroke="black" d="M430.12,-50.46C430.12,-44.16 430.12,-33.92 430.12,-25.08"/>
<polygon fill="black" stroke="black" points="433.63,-25.09 430.12,-15.09 426.63,-25.09 433.63,-25.09"/>
</g>
<!-- 23 -->
<g id="node24" class="node">
<title>23</title>
<text text-anchor="middle" x="489.12" y="-0.95" font-family="Times,serif" font-size="14.00">0 (48)</text>
</g>
<!-- 22&#45;&gt;23 -->
<g id="edge23" class="edge">
<title>22&#45;&gt;23</title>
<path fill="none" stroke="black" d="M489.12,-50.46C489.12,-44.16 489.12,-33.92 489.12,-25.08"/>
<polygon fill="black" stroke="black" points="492.63,-25.09 489.12,-15.09 485.63,-25.09 492.63,-25.09"/>
</g>
<!-- 25 -->
<g id="node26" class="node">
<title>25</title>
<text text-anchor="middle" x="548.12" y="-0.95" font-family="Times,serif" font-size="14.00">6 (54)</text>
</g>
<!-- 24&#45;&gt;25 -->
<g id="edge25" class="edge">
<title>24&#45;&gt;25</title>
<path fill="none" stroke="black" d="M548.12,-50.46C548.12,-44.16 548.12,-33.92 548.12,-25.08"/>
<polygon fill="black" stroke="black" points="551.63,-25.09 548.12,-15.09 544.63,-25.09 551.63,-25.09"/>
</g>
<!-- 27 -->
<g id="node28" class="node">
<title>27</title>
<text text-anchor="middle" x="607.12" y="-0.95" font-family="Times,serif" font-size="14.00">7 (55)</text>
</g>
<!-- 26&#45;&gt;27 -->
<g id="edge27" class="edge">
<title>26&#45;&gt;27</title>
<path fill="none" stroke="black" d="M607.12,-50.46C607.12,-44.16 607.12,-33.92 607.12,-25.08"/>
<polygon fill="black" stroke="black" points="610.63,-25.09 607.12,-15.09 603.63,-25.09 610.63,-25.09"/>
</g>
</g>
</svg>
