<?xml version="1.0" encoding="UTF-8" standalone="no"?>
<!DOCTYPE svg PUBLIC "-//W3C//DTD SVG 1.1//EN"
 "http://www.w3.org/Graphics/SVG/1.1/DTD/svg11.dtd">
<!-- Generated by graphviz version 8.0.4 (20230421.1958)
 -->
<!-- Pages: 1 -->
<svg width="603pt" height="348pt"
 viewBox="0.00 0.00 603.12 347.50" xmlns="http://www.w3.org/2000/svg" xmlns:xlink="http://www.w3.org/1999/xlink">
<g id="graph0" class="graph" transform="scale(1 1) rotate(0) translate(4 343.5)">
<polygon fill="white" stroke="none" points="-4,4 -4,-343.5 599.12,-343.5 599.12,4 -4,4"/>
<!-- start -->
<g id="node1" class="node">
<title>start</title>
<ellipse fill="none" stroke="black" cx="316.33" cy="-321.5" rx="35.46" ry="18"/>
<text text-anchor="middle" x="316.33" y="-315.32" font-family="Times,serif" font-size="14.00">&lt;start&gt;</text>
</g>
<!-- state -->
<g id="node2" class="node">
<title>state</title>
<ellipse fill="none" stroke="black" cx="316.33" cy="-248.5" rx="36.41" ry="18"/>
<text text-anchor="middle" x="316.33" y="-242.32" font-family="Times,serif" font-size="14.00">&lt;state&gt;</text>
</g>
<!-- start&#45;&gt;state -->
<g id="edge1" class="edge">
<title>start&#45;&gt;state</title>
<path fill="none" stroke="black" d="M316.33,-303.31C316.33,-295.55 316.33,-286.18 316.33,-277.45"/>
<polygon fill="black" stroke="black" points="319.83,-277.53 316.33,-267.53 312.83,-277.53 319.83,-277.53"/>
</g>
<!-- state&#45;1 -->
<g id="node3" class="node">
<title>state&#45;1</title>
<ellipse fill="none" stroke="black" cx="194.33" cy="-91" rx="43.57" ry="18"/>
<text text-anchor="middle" x="194.33" y="-84.83" font-family="Times,serif" font-size="14.00">&lt;state&#45;1&gt;</text>
</g>
<!-- state&#45;&gt;state&#45;1 -->
<g id="edge2" class="edge">
<title>state&#45;&gt;state&#45;1</title>
<path fill="none" stroke="black" d="M280.04,-245.89C204.45,-242.16 35.7,-231.75 18.58,-212.5 -6.67,-184.1 -5.52,-156.38 18.58,-127 33.84,-108.41 94.77,-99.51 140.64,-95.37"/>
<polygon fill="black" stroke="black" points="140.68,-98.8 150.35,-94.47 140.09,-91.82 140.68,-98.8"/>
<text text-anchor="start" x="19.33" y="-163.57" font-family="Times,serif" font-size="14.00">click(&#39;terms and conditions&#39;)</text>
</g>
<!-- state&#45;2 -->
<g id="node4" class="node">
<title>state&#45;2</title>
<ellipse fill="none" stroke="black" cx="399.33" cy="-91" rx="43.57" ry="18"/>
<text text-anchor="middle" x="399.33" y="-84.83" font-family="Times,serif" font-size="14.00">&lt;state&#45;2&gt;</text>
</g>
<!-- state&#45;&gt;state&#45;2 -->
<g id="edge3" class="edge">
<title>state&#45;&gt;state&#45;2</title>
<path fill="none" stroke="black" d="M311.12,-230.23C304.67,-205.17 296.92,-158.32 317.83,-127 325.39,-115.68 337.44,-108.01 349.98,-102.81"/>
<polygon fill="black" stroke="black" points="350.87,-105.85 359.07,-99.15 348.48,-99.27 350.87,-105.85"/>
<text text-anchor="start" x="317.33" y="-199.2" font-family="Times,serif" font-size="14.00">check(&#39;terms&#39;, &lt;boolean&gt;)</text>
<text text-anchor="start" x="317.33" y="-184.95" font-family="Times,serif" font-size="14.00">fill(&#39;zip&#39;, &#39;&lt;number&gt;&#39;)</text>
<text text-anchor="start" x="317.33" y="-170.7" font-family="Times,serif" font-size="14.00">fill(&#39;name&#39;, &#39;&lt;text&gt;&#39;)</text>
<text text-anchor="start" x="317.33" y="-156.45" font-family="Times,serif" font-size="14.00">fill(&#39;email&#39;, &#39;&lt;email&gt;&#39;)</text>
<text text-anchor="start" x="317.33" y="-142.2" font-family="Times,serif" font-size="14.00">fill(&#39;city&#39;, &#39;&lt;text&gt;&#39;)</text>
<text text-anchor="start" x="317.33" y="-127.95" font-family="Times,serif" font-size="14.00">submit(&#39;submit&#39;)</text>
</g>
<!-- end -->
<g id="node5" class="node">
<title>end</title>
<ellipse fill="none" stroke="black" cx="399.33" cy="-18" rx="33.07" ry="18"/>
<text text-anchor="middle" x="399.33" y="-11.82" font-family="Times,serif" font-size="14.00">&lt;end&gt;</text>
</g>
<!-- state&#45;&gt;end -->
<g id="edge4" class="edge">
<title>state&#45;&gt;end</title>
<path fill="none" stroke="black" d="M353.1,-248.26C418.17,-248.72 549.5,-245.43 578.33,-212.5 603.36,-183.91 597.01,-160.09 578.33,-127 548.72,-74.55 482.29,-44.72 439.21,-30.22"/>
<polygon fill="black" stroke="black" points="440.39,-26.6 429.8,-26.86 438.24,-33.26 440.39,-26.6"/>
</g>
<!-- state&#45;1&#45;&gt;state -->
<g id="edge5" class="edge">
<title>state&#45;1&#45;&gt;state</title>
<path fill="none" stroke="black" d="M189.56,-109.28C183.65,-134.77 176.97,-182.64 200.33,-212.5 216.46,-233.12 244.32,-241.96 268.69,-245.61"/>
<polygon fill="black" stroke="black" points="268.24,-249.2 278.59,-246.94 269.09,-242.25 268.24,-249.2"/>
<text text-anchor="start" x="200.33" y="-163.57" font-family="Times,serif" font-size="14.00">click(&#39;order form&#39;)</text>
</g>
<!-- state&#45;1&#45;&gt;end -->
<g id="edge6" class="edge">
<title>state&#45;1&#45;&gt;end</title>
<path fill="none" stroke="black" d="M226.81,-78.75C263.45,-66.06 322.94,-45.46 361.6,-32.07"/>
<polygon fill="black" stroke="black" points="362.62,-35.07 370.92,-28.49 360.33,-28.46 362.62,-35.07"/>
</g>
<!-- state&#45;2&#45;&gt;state -->
<g id="edge7" class="edge">
<title>state&#45;2&#45;&gt;state</title>
<path fill="none" stroke="black" d="M432.22,-103.06C443.14,-108.48 454.09,-116.22 460.33,-127 479.37,-159.88 483.81,-182.62 460.33,-212.5 448.28,-227.83 400.04,-237.27 362.67,-242.43"/>
<polygon fill="black" stroke="black" points="362.43,-239.06 352.97,-243.83 363.34,-246 362.43,-239.06"/>
<text text-anchor="start" x="475.33" y="-163.57" font-family="Times,serif" font-size="14.00">click(&#39;order form&#39;)</text>
</g>
<!-- state&#45;2&#45;&gt;end -->
<g id="edge8" class="edge">
<title>state&#45;2&#45;&gt;end</title>
<path fill="none" stroke="black" d="M399.33,-72.81C399.33,-65.05 399.33,-55.68 399.33,-46.95"/>
<polygon fill="black" stroke="black" points="402.83,-47.03 399.33,-37.03 395.83,-47.03 402.83,-47.03"/>
</g>
</g>
</svg>
