<?xml version="1.0" encoding="UTF-8" standalone="no"?>
<!DOCTYPE svg PUBLIC "-//W3C//DTD SVG 1.1//EN"
 "http://www.w3.org/Graphics/SVG/1.1/DTD/svg11.dtd">
<!-- Generated by graphviz version 2.40.1 (20161225.0304)
 -->
<!-- Title: %3 Pages: 1 -->
<svg width="478pt" height="352pt"
 viewBox="0.00 0.00 477.83 352.00" xmlns="http://www.w3.org/2000/svg" xmlns:xlink="http://www.w3.org/1999/xlink">
<g id="graph0" class="graph" transform="scale(1 1) rotate(0) translate(4 348)">
<title>%3</title>
<polygon fill="#ffffff" stroke="transparent" points="-4,4 -4,-348 473.8335,-348 473.8335,4 -4,4"/>
<!-- start -->
<g id="node1" class="node">
<title>start</title>
<ellipse fill="none" stroke="#000000" cx="274.496" cy="-326" rx="36.2938" ry="18"/>
<text text-anchor="middle" x="274.496" y="-322.3" font-family="Times,serif" font-size="14.00" fill="#000000">&lt;start&gt;</text>
</g>
<!-- state -->
<g id="node2" class="node">
<title>state</title>
<ellipse fill="none" stroke="#000000" cx="274.496" cy="-253" rx="37.8943" ry="18"/>
<text text-anchor="middle" x="274.496" y="-249.3" font-family="Times,serif" font-size="14.00" fill="#000000">&lt;state&gt;</text>
</g>
<!-- start&#45;&gt;state -->
<g id="edge1" class="edge">
<title>start&#45;&gt;state</title>
<path fill="none" stroke="#000000" d="M274.496,-307.9551C274.496,-299.8828 274.496,-290.1764 274.496,-281.1817"/>
<polygon fill="#000000" stroke="#000000" points="277.9961,-281.0903 274.496,-271.0904 270.9961,-281.0904 277.9961,-281.0903"/>
</g>
<!-- state&#45;1 -->
<g id="node3" class="node">
<title>state&#45;1</title>
<ellipse fill="none" stroke="#000000" cx="45.496" cy="-91" rx="45.4919" ry="18"/>
<text text-anchor="middle" x="45.496" y="-87.3" font-family="Times,serif" font-size="14.00" fill="#000000">&lt;state&#45;1&gt;</text>
</g>
<!-- state&#45;&gt;state&#45;1 -->
<g id="edge2" class="edge">
<title>state&#45;&gt;state&#45;1</title>
<path fill="none" stroke="#000000" d="M237.9255,-248.5572C196.1382,-242.8641 131.0065,-231.9192 111.496,-217 79.5243,-192.5521 61.5106,-148.1621 52.6412,-119.1322"/>
<polygon fill="#000000" stroke="#000000" points="55.9106,-117.8371 49.7784,-109.1973 49.1842,-119.7754 55.9106,-117.8371"/>
<text text-anchor="start" x="111.496" y="-168.3" font-family="Times,serif" font-size="14.00" fill="#000000">click(&#39;terms and conditions&#39;)</text>
</g>
<!-- state&#45;2 -->
<g id="node4" class="node">
<title>state&#45;2</title>
<ellipse fill="none" stroke="#000000" cx="274.496" cy="-91" rx="45.4919" ry="18"/>
<text text-anchor="middle" x="274.496" y="-87.3" font-family="Times,serif" font-size="14.00" fill="#000000">&lt;state&#45;2&gt;</text>
</g>
<!-- state&#45;&gt;state&#45;2 -->
<g id="edge3" class="edge">
<title>state&#45;&gt;state&#45;2</title>
<path fill="none" stroke="#000000" d="M274.496,-234.7314C274.496,-206.778 274.496,-153.1418 274.496,-119.882"/>
<polygon fill="#000000" stroke="#000000" points="277.9961,-119.4503 274.496,-109.4503 270.9961,-119.4504 277.9961,-119.4503"/>
<text text-anchor="start" x="274.496" y="-205.8" font-family="Times,serif" font-size="14.00" fill="#000000">fill(&#39;city&#39;, &#39;&lt;text&gt;&#39;)</text>
<text text-anchor="start" x="274.496" y="-190.8" font-family="Times,serif" font-size="14.00" fill="#000000">fill(&#39;email&#39;, &#39;&lt;email&gt;&#39;)</text>
<text text-anchor="start" x="274.496" y="-175.8" font-family="Times,serif" font-size="14.00" fill="#000000">fill(&#39;name&#39;, &#39;&lt;text&gt;&#39;)</text>
<text text-anchor="start" x="274.496" y="-160.8" font-family="Times,serif" font-size="14.00" fill="#000000">fill(&#39;zip&#39;, &#39;&lt;number&gt;&#39;)</text>
<text text-anchor="start" x="274.496" y="-145.8" font-family="Times,serif" font-size="14.00" fill="#000000">check(&#39;terms&#39;, &lt;boolean&gt;)</text>
<text text-anchor="start" x="274.496" y="-130.8" font-family="Times,serif" font-size="14.00" fill="#000000">submit(&#39;submit&#39;)</text>
</g>
<!-- end -->
<g id="node5" class="node">
<title>end</title>
<ellipse fill="none" stroke="#000000" cx="274.496" cy="-18" rx="34.394" ry="18"/>
<text text-anchor="middle" x="274.496" y="-14.3" font-family="Times,serif" font-size="14.00" fill="#000000">&lt;end&gt;</text>
</g>
<!-- state&#45;&gt;end -->
<g id="edge4" class="edge">
<title>state&#45;&gt;end</title>
<path fill="none" stroke="#000000" d="M311.3001,-248.6571C350.4673,-243.2814 408.9113,-232.8499 424.496,-217 469.9863,-170.7354 486.8429,-125.3382 448.496,-73 432.8724,-51.6761 363.6792,-34.7816 317.3963,-25.603"/>
<polygon fill="#000000" stroke="#000000" points="317.804,-22.1171 307.3213,-23.6543 316.4747,-28.9897 317.804,-22.1171"/>
</g>
<!-- state&#45;1&#45;&gt;state&#45;1 -->
<g id="edge5" class="edge">
<title>state&#45;1&#45;&gt;state&#45;1</title>
<path fill="none" stroke="#000000" d="M87.9293,-97.7166C99.8451,-97.4225 108.9919,-95.1836 108.9919,-91 108.9919,-88.1238 104.6686,-86.1667 98.0945,-85.1289"/>
<polygon fill="#000000" stroke="#000000" points="98.185,-81.6244 87.9293,-84.2834 97.6047,-88.6003 98.185,-81.6244"/>
<text text-anchor="start" x="108.9919" y="-87.3" font-family="Times,serif" font-size="14.00" fill="#000000">click(&#39;order form&#39;)</text>
</g>
<!-- state&#45;1&#45;&gt;end -->
<g id="edge6" class="edge">
<title>state&#45;1&#45;&gt;end</title>
<path fill="none" stroke="#000000" d="M81.2772,-79.5938C123.0569,-66.2753 191.9385,-44.3174 235.1798,-30.5331"/>
<polygon fill="#000000" stroke="#000000" points="236.3284,-33.8406 244.793,-27.4686 234.2023,-27.1712 236.3284,-33.8406"/>
</g>
<!-- state&#45;2&#45;&gt;state&#45;2 -->
<g id="edge7" class="edge">
<title>state&#45;2&#45;&gt;state&#45;2</title>
<path fill="none" stroke="#000000" d="M316.9293,-97.7166C328.8451,-97.4225 337.9919,-95.1836 337.9919,-91 337.9919,-88.1238 333.6686,-86.1667 327.0945,-85.1289"/>
<polygon fill="#000000" stroke="#000000" points="327.185,-81.6244 316.9293,-84.2834 326.6047,-88.6003 327.185,-81.6244"/>
<text text-anchor="start" x="337.9919" y="-87.3" font-family="Times,serif" font-size="14.00" fill="#000000">click(&#39;order form&#39;)</text>
</g>
<!-- state&#45;2&#45;&gt;end -->
<g id="edge8" class="edge">
<title>state&#45;2&#45;&gt;end</title>
<path fill="none" stroke="#000000" d="M274.496,-72.9551C274.496,-64.8828 274.496,-55.1764 274.496,-46.1817"/>
<polygon fill="#000000" stroke="#000000" points="277.9961,-46.0903 274.496,-36.0904 270.9961,-46.0904 277.9961,-46.0903"/>
</g>
</g>
</svg>
