<?xml version="1.0" encoding="UTF-8" standalone="no"?>
<!DOCTYPE svg PUBLIC "-//W3C//DTD SVG 1.1//EN"
 "http://www.w3.org/Graphics/SVG/1.1/DTD/svg11.dtd">
<!-- Generated by graphviz version 2.40.1 (20161225.0304)
 -->
<!-- Title: %3 Pages: 1 -->
<svg width="620pt" height="352pt"
 viewBox="0.00 0.00 620.29 352.00" xmlns="http://www.w3.org/2000/svg" xmlns:xlink="http://www.w3.org/1999/xlink">
<g id="graph0" class="graph" transform="scale(1 1) rotate(0) translate(4 348)">
<title>%3</title>
<polygon fill="#ffffff" stroke="transparent" points="-4,4 -4,-348 616.2856,-348 616.2856,4 -4,4"/>
<!-- start -->
<g id="node1" class="node">
<title>start</title>
<ellipse fill="none" stroke="#000000" cx="325.559" cy="-326" rx="36.2938" ry="18"/>
<text text-anchor="middle" x="325.559" y="-322.3" font-family="Times,serif" font-size="14.00" fill="#000000">&lt;start&gt;</text>
</g>
<!-- state -->
<g id="node2" class="node">
<title>state</title>
<ellipse fill="none" stroke="#000000" cx="325.559" cy="-253" rx="37.8943" ry="18"/>
<text text-anchor="middle" x="325.559" y="-249.3" font-family="Times,serif" font-size="14.00" fill="#000000">&lt;state&gt;</text>
</g>
<!-- start&#45;&gt;state -->
<g id="edge1" class="edge">
<title>start&#45;&gt;state</title>
<path fill="none" stroke="#000000" d="M325.559,-307.9551C325.559,-299.8828 325.559,-290.1764 325.559,-281.1817"/>
<polygon fill="#000000" stroke="#000000" points="329.0591,-281.0903 325.559,-271.0904 322.0591,-281.0904 329.0591,-281.0903"/>
</g>
<!-- state&#45;1 -->
<g id="node3" class="node">
<title>state&#45;1</title>
<ellipse fill="none" stroke="#000000" cx="200.559" cy="-91" rx="45.4919" ry="18"/>
<text text-anchor="middle" x="200.559" y="-87.3" font-family="Times,serif" font-size="14.00" fill="#000000">&lt;state&#45;1&gt;</text>
</g>
<!-- state&#45;&gt;state&#45;1 -->
<g id="edge2" class="edge">
<title>state&#45;&gt;state&#45;1</title>
<path fill="none" stroke="#000000" d="M287.9696,-251.326C210.145,-247.4741 37.132,-236.7616 19.559,-217 -7.0216,-187.109 -5.817,-157.9202 19.559,-127 35.276,-107.8491 98.0593,-98.6985 145.3065,-94.4548"/>
<polygon fill="#000000" stroke="#000000" points="145.7619,-97.9289 155.4311,-93.5979 145.1715,-90.9538 145.7619,-97.9289"/>
<text text-anchor="start" x="19.559" y="-168.3" font-family="Times,serif" font-size="14.00" fill="#000000">click(&#39;terms and conditions&#39;)</text>
</g>
<!-- state&#45;2 -->
<g id="node4" class="node">
<title>state&#45;2</title>
<ellipse fill="none" stroke="#000000" cx="409.559" cy="-91" rx="45.4919" ry="18"/>
<text text-anchor="middle" x="409.559" y="-87.3" font-family="Times,serif" font-size="14.00" fill="#000000">&lt;state&#45;2&gt;</text>
</g>
<!-- state&#45;&gt;state&#45;2 -->
<g id="edge3" class="edge">
<title>state&#45;&gt;state&#45;2</title>
<path fill="none" stroke="#000000" d="M320.0242,-234.9601C313.1594,-208.7877 304.8239,-159.834 326.559,-127 334.0896,-115.6239 346.0651,-107.8231 358.6022,-102.4812"/>
<polygon fill="#000000" stroke="#000000" points="360.1077,-105.6543 368.2346,-98.8569 357.6426,-99.1027 360.1077,-105.6543"/>
<text text-anchor="start" x="326.559" y="-205.8" font-family="Times,serif" font-size="14.00" fill="#000000">fill(&#39;name&#39;, &#39;&lt;text&gt;&#39;)</text>
<text text-anchor="start" x="326.559" y="-190.8" font-family="Times,serif" font-size="14.00" fill="#000000">fill(&#39;zip&#39;, &#39;&lt;number&gt;&#39;)</text>
<text text-anchor="start" x="326.559" y="-175.8" font-family="Times,serif" font-size="14.00" fill="#000000">check(&#39;terms&#39;, &lt;boolean&gt;)</text>
<text text-anchor="start" x="326.559" y="-160.8" font-family="Times,serif" font-size="14.00" fill="#000000">fill(&#39;city&#39;, &#39;&lt;text&gt;&#39;)</text>
<text text-anchor="start" x="326.559" y="-145.8" font-family="Times,serif" font-size="14.00" fill="#000000">fill(&#39;email&#39;, &#39;&lt;email&gt;&#39;)</text>
<text text-anchor="start" x="326.559" y="-130.8" font-family="Times,serif" font-size="14.00" fill="#000000">submit(&#39;submit&#39;)</text>
</g>
<!-- end -->
<g id="node5" class="node">
<title>end</title>
<ellipse fill="none" stroke="#000000" cx="409.559" cy="-18" rx="34.394" ry="18"/>
<text text-anchor="middle" x="409.559" y="-14.3" font-family="Times,serif" font-size="14.00" fill="#000000">&lt;end&gt;</text>
</g>
<!-- state&#45;&gt;end -->
<g id="edge4" class="edge">
<title>state&#45;&gt;end</title>
<path fill="none" stroke="#000000" d="M363.147,-250.6776C433.5438,-245.9431 579.5487,-234.1529 594.559,-217 620.9007,-186.8982 614.4058,-161.729 594.559,-127 563.7784,-73.1385 494.8403,-43.2426 450.3606,-28.9147"/>
<polygon fill="#000000" stroke="#000000" points="451.3032,-25.5427 440.7153,-25.9273 449.2321,-32.2293 451.3032,-25.5427"/>
</g>
<!-- state&#45;1&#45;&gt;state -->
<g id="edge5" class="edge">
<title>state&#45;1&#45;&gt;state</title>
<path fill="none" stroke="#000000" d="M195.3433,-109.0438C188.8335,-135.6645 181.2799,-185.6845 205.559,-217 214.9283,-229.0847 250.2054,-238.7545 280.1047,-245.0166"/>
<polygon fill="#000000" stroke="#000000" points="279.4988,-248.4648 289.9931,-247.0082 280.881,-241.6026 279.4988,-248.4648"/>
<text text-anchor="start" x="205.559" y="-168.3" font-family="Times,serif" font-size="14.00" fill="#000000">click(&#39;order form&#39;)</text>
</g>
<!-- state&#45;1&#45;&gt;end -->
<g id="edge6" class="edge">
<title>state&#45;1&#45;&gt;end</title>
<path fill="none" stroke="#000000" d="M235.0711,-78.9455C272.4281,-65.8974 331.8696,-45.1355 370.805,-31.5361"/>
<polygon fill="#000000" stroke="#000000" points="372.4347,-34.6743 380.7213,-28.0725 370.1265,-28.0658 372.4347,-34.6743"/>
</g>
<!-- state&#45;2&#45;&gt;state -->
<g id="edge7" class="edge">
<title>state&#45;2&#45;&gt;state</title>
<path fill="none" stroke="#000000" d="M444.5179,-102.8416C455.4594,-108.3858 466.2993,-116.2134 472.559,-127 492.6361,-161.5964 497.2512,-185.531 472.559,-217 460.2382,-232.7022 410.7697,-242.4461 372.5835,-247.7735"/>
<polygon fill="#000000" stroke="#000000" points="372.1013,-244.3067 362.6512,-249.097 373.0259,-251.2454 372.1013,-244.3067"/>
<text text-anchor="start" x="488.559" y="-168.3" font-family="Times,serif" font-size="14.00" fill="#000000">click(&#39;order form&#39;)</text>
</g>
<!-- state&#45;2&#45;&gt;end -->
<g id="edge8" class="edge">
<title>state&#45;2&#45;&gt;end</title>
<path fill="none" stroke="#000000" d="M409.559,-72.9551C409.559,-64.8828 409.559,-55.1764 409.559,-46.1817"/>
<polygon fill="#000000" stroke="#000000" points="413.0591,-46.0903 409.559,-36.0904 406.0591,-46.0904 413.0591,-46.0903"/>
</g>
</g>
</svg>
