<?xml version="1.0" encoding="UTF-8" standalone="no"?>
<!DOCTYPE svg PUBLIC "-//W3C//DTD SVG 1.1//EN"
 "http://www.w3.org/Graphics/SVG/1.1/DTD/svg11.dtd">
<!-- Generated by graphviz version 3.0.0 (20220226.1711)
 -->
<!-- Pages: 1 -->
<svg width="608pt" height="352pt"
 viewBox="0.00 0.00 608.27 352.00" xmlns="http://www.w3.org/2000/svg" xmlns:xlink="http://www.w3.org/1999/xlink">
<g id="graph0" class="graph" transform="scale(1 1) rotate(0) translate(4 348)">
<polygon fill="white" stroke="transparent" points="-4,4 -4,-348 604.27,-348 604.27,4 -4,4"/>
<!-- start -->
<g id="node1" class="node">
<title>start</title>
<ellipse fill="none" stroke="black" cx="318.56" cy="-326" rx="36.29" ry="18"/>
<text text-anchor="middle" x="318.56" y="-322.3" font-family="Times,serif" font-size="14.00">&lt;start&gt;</text>
</g>
<!-- state -->
<g id="node2" class="node">
<title>state</title>
<ellipse fill="none" stroke="black" cx="318.56" cy="-253" rx="37.89" ry="18"/>
<text text-anchor="middle" x="318.56" y="-249.3" font-family="Times,serif" font-size="14.00">&lt;state&gt;</text>
</g>
<!-- start&#45;&gt;state -->
<g id="edge1" class="edge">
<title>start&#45;&gt;state</title>
<path fill="none" stroke="black" d="M318.56,-307.81C318.56,-299.79 318.56,-290.05 318.56,-281.07"/>
<polygon fill="black" stroke="black" points="322.06,-281.03 318.56,-271.03 315.06,-281.03 322.06,-281.03"/>
</g>
<!-- state&#45;1 -->
<g id="node3" class="node">
<title>state&#45;1</title>
<ellipse fill="none" stroke="black" cx="195.56" cy="-91" rx="44.69" ry="18"/>
<text text-anchor="middle" x="195.56" y="-87.3" font-family="Times,serif" font-size="14.00">&lt;state&#45;1&gt;</text>
</g>
<!-- state&#45;&gt;state&#45;1 -->
<g id="edge2" class="edge">
<title>state&#45;&gt;state&#45;1</title>
<path fill="none" stroke="black" d="M281.26,-250.36C204.94,-246.62 36.69,-236.25 19.56,-217 -7.03,-187.12 -5.81,-157.92 19.56,-127 34.77,-108.47 95.27,-99.57 141.13,-95.42"/>
<polygon fill="black" stroke="black" points="141.59,-98.89 151.26,-94.56 141,-91.92 141.59,-98.89"/>
<text text-anchor="start" x="19.56" y="-168.3" font-family="Times,serif" font-size="14.00">click(&#39;terms and conditions&#39;)</text>
</g>
<!-- state&#45;2 -->
<g id="node4" class="node">
<title>state&#45;2</title>
<ellipse fill="none" stroke="black" cx="401.56" cy="-91" rx="44.69" ry="18"/>
<text text-anchor="middle" x="401.56" y="-87.3" font-family="Times,serif" font-size="14.00">&lt;state&#45;2&gt;</text>
</g>
<!-- state&#45;&gt;state&#45;2 -->
<g id="edge3" class="edge">
<title>state&#45;&gt;state&#45;2</title>
<path fill="none" stroke="black" d="M313.28,-234.94C306.4,-209.18 297.66,-159.87 319.56,-127 327.15,-115.61 339.29,-107.91 351.92,-102.71"/>
<polygon fill="black" stroke="black" points="353.4,-105.9 361.61,-99.2 351.02,-99.32 353.4,-105.9"/>
<text text-anchor="start" x="319.56" y="-205.8" font-family="Times,serif" font-size="14.00">check(&#39;terms&#39;, &lt;boolean&gt;)</text>
<text text-anchor="start" x="319.56" y="-190.8" font-family="Times,serif" font-size="14.00">fill(&#39;email&#39;, &#39;&lt;email&gt;&#39;)</text>
<text text-anchor="start" x="319.56" y="-175.8" font-family="Times,serif" font-size="14.00">fill(&#39;zip&#39;, &#39;&lt;number&gt;&#39;)</text>
<text text-anchor="start" x="319.56" y="-160.8" font-family="Times,serif" font-size="14.00">fill(&#39;name&#39;, &#39;&lt;text&gt;&#39;)</text>
<text text-anchor="start" x="319.56" y="-145.8" font-family="Times,serif" font-size="14.00">fill(&#39;city&#39;, &#39;&lt;text&gt;&#39;)</text>
<text text-anchor="start" x="319.56" y="-130.8" font-family="Times,serif" font-size="14.00">submit(&#39;submit&#39;)</text>
</g>
<!-- end -->
<g id="node5" class="node">
<title>end</title>
<ellipse fill="none" stroke="black" cx="401.56" cy="-18" rx="34.39" ry="18"/>
<text text-anchor="middle" x="401.56" y="-14.3" font-family="Times,serif" font-size="14.00">&lt;end&gt;</text>
</g>
<!-- state&#45;&gt;end -->
<g id="edge4" class="edge">
<title>state&#45;&gt;end</title>
<path fill="none" stroke="black" d="M356.39,-252.81C422.22,-253.31 553.62,-250.04 582.56,-217 608.92,-186.91 602.31,-161.78 582.56,-127 552.47,-74.01 484.94,-44.26 441.41,-29.94"/>
<polygon fill="black" stroke="black" points="442.29,-26.55 431.7,-26.87 440.18,-33.22 442.29,-26.55"/>
</g>
<!-- state&#45;1&#45;&gt;state -->
<g id="edge5" class="edge">
<title>state&#45;1&#45;&gt;state</title>
<path fill="none" stroke="black" d="M190.77,-109.06C184.52,-135.27 177.06,-185.69 201.56,-217 217.93,-237.91 246.28,-246.74 270.98,-250.3"/>
<polygon fill="black" stroke="black" points="270.6,-253.78 280.94,-251.49 271.43,-246.83 270.6,-253.78"/>
<text text-anchor="start" x="201.56" y="-168.3" font-family="Times,serif" font-size="14.00">click(&#39;order form&#39;)</text>
</g>
<!-- state&#45;1&#45;&gt;end -->
<g id="edge6" class="edge">
<title>state&#45;1&#45;&gt;end</title>
<path fill="none" stroke="black" d="M228.66,-78.59C265.51,-65.89 324.98,-45.4 363.67,-32.06"/>
<polygon fill="black" stroke="black" points="365.2,-35.24 373.51,-28.67 362.92,-28.62 365.2,-35.24"/>
</g>
<!-- state&#45;2&#45;&gt;state -->
<g id="edge7" class="edge">
<title>state&#45;2&#45;&gt;state</title>
<path fill="none" stroke="black" d="M434.77,-103.22C445.58,-108.63 456.38,-116.33 462.56,-127 482.61,-161.61 487.28,-185.55 462.56,-217 450.57,-232.25 402.73,-241.68 365.44,-246.85"/>
<polygon fill="black" stroke="black" points="364.7,-243.42 355.24,-248.2 365.61,-250.36 364.7,-243.42"/>
<text text-anchor="start" x="478.56" y="-168.3" font-family="Times,serif" font-size="14.00">click(&#39;order form&#39;)</text>
</g>
<!-- state&#45;2&#45;&gt;end -->
<g id="edge8" class="edge">
<title>state&#45;2&#45;&gt;end</title>
<path fill="none" stroke="black" d="M401.56,-72.81C401.56,-64.79 401.56,-55.05 401.56,-46.07"/>
<polygon fill="black" stroke="black" points="405.06,-46.03 401.56,-36.03 398.06,-46.03 405.06,-46.03"/>
</g>
</g>
</svg>
