<?xml version="1.0" encoding="UTF-8" standalone="no"?>
<!DOCTYPE svg PUBLIC "-//W3C//DTD SVG 1.1//EN"
 "http://www.w3.org/Graphics/SVG/1.1/DTD/svg11.dtd">
<!-- Generated by graphviz version 2.40.1 (20161225.0304)
 -->
<!-- Title: %3 Pages: 1 -->
<svg width="508pt" height="352pt"
 viewBox="0.00 0.00 508.22 352.00" xmlns="http://www.w3.org/2000/svg" xmlns:xlink="http://www.w3.org/1999/xlink">
<g id="graph0" class="graph" transform="scale(1 1) rotate(0) translate(4 348)">
<title>%3</title>
<polygon fill="#ffffff" stroke="transparent" points="-4,4 -4,-348 504.2182,-348 504.2182,4 -4,4"/>
<!-- start -->
<g id="node1" class="node">
<title>start</title>
<ellipse fill="none" stroke="#000000" cx="262.319" cy="-326" rx="36.2938" ry="18"/>
<text text-anchor="middle" x="262.319" y="-322.3" font-family="Times,serif" font-size="14.00" fill="#000000">&lt;start&gt;</text>
</g>
<!-- state -->
<g id="node2" class="node">
<title>state</title>
<ellipse fill="none" stroke="#000000" cx="262.319" cy="-253" rx="37.8943" ry="18"/>
<text text-anchor="middle" x="262.319" y="-249.3" font-family="Times,serif" font-size="14.00" fill="#000000">&lt;state&gt;</text>
</g>
<!-- start&#45;&gt;state -->
<g id="edge1" class="edge">
<title>start&#45;&gt;state</title>
<path fill="none" stroke="#000000" d="M262.319,-307.9551C262.319,-299.8828 262.319,-290.1764 262.319,-281.1817"/>
<polygon fill="#000000" stroke="#000000" points="265.8191,-281.0903 262.319,-271.0904 258.8191,-281.0904 265.8191,-281.0903"/>
</g>
<!-- state&#45;1 -->
<g id="node3" class="node">
<title>state&#45;1</title>
<ellipse fill="none" stroke="#000000" cx="192.319" cy="-91" rx="45.4919" ry="18"/>
<text text-anchor="middle" x="192.319" y="-87.3" font-family="Times,serif" font-size="14.00" fill="#000000">&lt;state&#45;1&gt;</text>
</g>
<!-- state&#45;&gt;state&#45;1 -->
<g id="edge2" class="edge">
<title>state&#45;&gt;state&#45;1</title>
<path fill="none" stroke="#000000" d="M225.0868,-250.135C160.3326,-244.7717 32.5696,-232.3583 19.319,-217 -6.8107,-186.714 -5.9202,-158.032 19.319,-127 34,-108.9495 92.0199,-99.6507 136.8664,-95.0696"/>
<polygon fill="#000000" stroke="#000000" points="137.4626,-98.5284 147.0798,-94.0831 136.7895,-91.5609 137.4626,-98.5284"/>
<text text-anchor="start" x="19.319" y="-168.3" font-family="Times,serif" font-size="14.00" fill="#000000">click(&#39;terms and conditions&#39;)</text>
</g>
<!-- state&#45;2 -->
<g id="node4" class="node">
<title>state&#45;2</title>
<ellipse fill="none" stroke="#000000" cx="301.319" cy="-91" rx="45.4919" ry="18"/>
<text text-anchor="middle" x="301.319" y="-87.3" font-family="Times,serif" font-size="14.00" fill="#000000">&lt;state&#45;2&gt;</text>
</g>
<!-- state&#45;&gt;state&#45;2 -->
<g id="edge3" class="edge">
<title>state&#45;&gt;state&#45;2</title>
<path fill="none" stroke="#000000" d="M285.5188,-238.4518C292.5847,-232.7145 299.4904,-225.4568 303.319,-217 317.4352,-185.8198 313.5512,-145.6929 308.3956,-119.1988"/>
<polygon fill="#000000" stroke="#000000" points="311.7468,-118.1321 306.2359,-109.0833 304.9011,-119.5937 311.7468,-118.1321"/>
<text text-anchor="start" x="312.319" y="-205.8" font-family="Times,serif" font-size="14.00" fill="#000000">fill(&#39;city&#39;, &#39;&lt;text&gt;&#39;)</text>
<text text-anchor="start" x="312.319" y="-190.8" font-family="Times,serif" font-size="14.00" fill="#000000">fill(&#39;name&#39;, &#39;&lt;text&gt;&#39;)</text>
<text text-anchor="start" x="312.319" y="-175.8" font-family="Times,serif" font-size="14.00" fill="#000000">check(&#39;terms&#39;, &lt;boolean&gt;)</text>
<text text-anchor="start" x="312.319" y="-160.8" font-family="Times,serif" font-size="14.00" fill="#000000">fill(&#39;email&#39;, &#39;&lt;email&gt;&#39;)</text>
<text text-anchor="start" x="312.319" y="-145.8" font-family="Times,serif" font-size="14.00" fill="#000000">fill(&#39;zip&#39;, &#39;&lt;number&gt;&#39;)</text>
<text text-anchor="start" x="312.319" y="-130.8" font-family="Times,serif" font-size="14.00" fill="#000000">submit(&#39;submit&#39;)</text>
</g>
<!-- end -->
<g id="node5" class="node">
<title>end</title>
<ellipse fill="none" stroke="#000000" cx="301.319" cy="-18" rx="34.394" ry="18"/>
<text text-anchor="middle" x="301.319" y="-14.3" font-family="Times,serif" font-size="14.00" fill="#000000">&lt;end&gt;</text>
</g>
<!-- state&#45;&gt;end -->
<g id="edge4" class="edge">
<title>state&#45;&gt;end</title>
<path fill="none" stroke="#000000" d="M300.2692,-251.3971C352.0009,-248.3705 440.7123,-239.9046 462.319,-217 506.4142,-170.2561 513.298,-124.8361 475.319,-73 459.6955,-51.6761 390.5022,-34.7816 344.2193,-25.603"/>
<polygon fill="#000000" stroke="#000000" points="344.6271,-22.1171 334.1444,-23.6543 343.2977,-28.9897 344.6271,-22.1171"/>
</g>
<!-- state&#45;1&#45;&gt;state -->
<g id="edge5" class="edge">
<title>state&#45;1&#45;&gt;state</title>
<path fill="none" stroke="#000000" d="M187.8236,-109.2859C182.506,-135.3296 176.7585,-183.6399 197.319,-217 203.0123,-226.2375 211.9819,-233.2913 221.4602,-238.599"/>
<polygon fill="#000000" stroke="#000000" points="220.1026,-241.8331 230.6131,-243.1671 223.2286,-235.5698 220.1026,-241.8331"/>
<text text-anchor="start" x="197.319" y="-168.3" font-family="Times,serif" font-size="14.00" fill="#000000">click(&#39;order form&#39;)</text>
</g>
<!-- state&#45;1&#45;&gt;end -->
<g id="edge6" class="edge">
<title>state&#45;1&#45;&gt;end</title>
<path fill="none" stroke="#000000" d="M215.7022,-75.3397C231.896,-64.4943 253.6018,-49.9574 271.1058,-38.2346"/>
<polygon fill="#000000" stroke="#000000" points="273.4636,-40.8679 279.8248,-32.3952 269.5684,-35.0518 273.4636,-40.8679"/>
</g>
<!-- state&#45;2&#45;&gt;state&#45;2 -->
<g id="edge7" class="edge">
<title>state&#45;2&#45;&gt;state&#45;2</title>
<path fill="none" stroke="#000000" d="M343.7523,-97.7166C355.6682,-97.4225 364.815,-95.1836 364.815,-91 364.815,-88.1238 360.4917,-86.1667 353.9175,-85.1289"/>
<polygon fill="#000000" stroke="#000000" points="354.0081,-81.6244 343.7523,-84.2834 353.4278,-88.6003 354.0081,-81.6244"/>
<text text-anchor="start" x="364.815" y="-87.3" font-family="Times,serif" font-size="14.00" fill="#000000">click(&#39;order form&#39;)</text>
</g>
<!-- state&#45;2&#45;&gt;end -->
<g id="edge8" class="edge">
<title>state&#45;2&#45;&gt;end</title>
<path fill="none" stroke="#000000" d="M301.319,-72.9551C301.319,-64.8828 301.319,-55.1764 301.319,-46.1817"/>
<polygon fill="#000000" stroke="#000000" points="304.8191,-46.0903 301.319,-36.0904 297.8191,-46.0904 304.8191,-46.0903"/>
</g>
</g>
</svg>
