<?xml version="1.0" encoding="UTF-8" standalone="no"?>
<!DOCTYPE svg PUBLIC "-//W3C//DTD SVG 1.1//EN"
 "http://www.w3.org/Graphics/SVG/1.1/DTD/svg11.dtd">
<!-- Generated by graphviz version 2.40.1 (20161225.0304)
 -->
<!-- Title: %3 Pages: 1 -->
<svg width="670pt" height="227pt"
 viewBox="0.00 0.00 670.00 227.00" xmlns="http://www.w3.org/2000/svg" xmlns:xlink="http://www.w3.org/1999/xlink">
<g id="graph0" class="graph" transform="scale(1 1) rotate(0) translate(4 223)">
<title>%3</title>
<polygon fill="#ffffff" stroke="transparent" points="-4,4 -4,-223 666,-223 666,4 -4,4"/>
<!-- 0 -->
<g id="node1" class="node">
<title>0</title>
<text text-anchor="middle" x="281" y="-207.8" font-family="Times,serif" font-size="14.00" fill="#000000">&lt;start&gt;</text>
</g>
<!-- 1 -->
<g id="node2" class="node">
<title>1</title>
<text text-anchor="middle" x="281" y="-156.8" font-family="Times,serif" font-size="14.00" fill="#000000">&lt;phone&#45;number&gt;</text>
</g>
<!-- 0&#45;&gt;1 -->
<g id="edge1" class="edge">
<title>0&#45;&gt;1</title>
<path fill="none" stroke="#000000" d="M281,-203.9748C281,-197.195 281,-186.966 281,-178.1331"/>
<polygon fill="#000000" stroke="#000000" points="284.5001,-178.0561 281,-168.0561 277.5001,-178.0561 284.5001,-178.0561"/>
</g>
<!-- 2 -->
<g id="node3" class="node">
<title>2</title>
<text text-anchor="middle" x="140" y="-105.8" font-family="Times,serif" font-size="14.00" fill="#000000">(</text>
</g>
<!-- 1&#45;&gt;2 -->
<g id="edge2" class="edge">
<title>1&#45;&gt;2</title>
<path fill="none" stroke="#000000" d="M252.583,-152.9911C225.9404,-145.4723 185.3284,-132.7685 152,-117 151.789,-116.9002 151.5772,-116.7974 151.3648,-116.6921"/>
<polygon fill="#000000" stroke="#000000" points="153.027,-113.6069 142.661,-111.4169 149.3988,-119.5933 153.027,-113.6069"/>
</g>
<!-- 3 -->
<g id="node4" class="node">
<title>3</title>
<text text-anchor="middle" x="181" y="-105.8" font-family="Times,serif" font-size="14.00" fill="#000000">&lt;area&gt;</text>
</g>
<!-- 1&#45;&gt;3 -->
<g id="edge3" class="edge">
<title>1&#45;&gt;3</title>
<path fill="none" stroke="#000000" d="M266.2447,-152.9748C250.0706,-144.726 223.8854,-131.3716 204.7993,-121.6376"/>
<polygon fill="#000000" stroke="#000000" points="206.3144,-118.4815 195.8159,-117.0561 203.1341,-124.7173 206.3144,-118.4815"/>
</g>
<!-- 10 -->
<g id="node11" class="node">
<title>10</title>
<text text-anchor="middle" x="254" y="-105.8" font-family="Times,serif" font-size="14.00" fill="#000000">)</text>
</g>
<!-- 1&#45;&gt;10 -->
<g id="edge10" class="edge">
<title>1&#45;&gt;10</title>
<path fill="none" stroke="#000000" d="M277.0161,-152.9748C272.8794,-145.1611 266.3174,-132.7662 261.2566,-123.2069"/>
<polygon fill="#000000" stroke="#000000" points="264.3123,-121.4982 256.5401,-114.298 258.1258,-124.7735 264.3123,-121.4982"/>
</g>
<!-- 11 -->
<g id="node12" class="node">
<title>11</title>
<text text-anchor="middle" x="309" y="-105.8" font-family="Times,serif" font-size="14.00" fill="#000000">&lt;exchange&gt;</text>
</g>
<!-- 1&#45;&gt;11 -->
<g id="edge11" class="edge">
<title>1&#45;&gt;11</title>
<path fill="none" stroke="#000000" d="M285.1315,-152.9748C289.0192,-145.8936 294.9726,-135.05 299.9609,-125.9641"/>
<polygon fill="#000000" stroke="#000000" points="303.1069,-127.5063 304.8516,-117.0561 296.9709,-124.1375 303.1069,-127.5063"/>
</g>
<!-- 18 -->
<g id="node19" class="node">
<title>18</title>
<text text-anchor="middle" x="364" y="-105.8" font-family="Times,serif" font-size="14.00" fill="#000000">&#45;</text>
</g>
<!-- 1&#45;&gt;18 -->
<g id="edge18" class="edge">
<title>1&#45;&gt;18</title>
<path fill="none" stroke="#000000" d="M293.3339,-152.9891C307.5119,-144.3445 331.4713,-129.7036 352,-117 352.1985,-116.8772 352.3987,-116.7532 352.6004,-116.6282"/>
<polygon fill="#000000" stroke="#000000" points="354.6106,-119.4993 361.2399,-111.2347 350.9037,-113.5614 354.6106,-119.4993"/>
</g>
<!-- 19 -->
<g id="node20" class="node">
<title>19</title>
<text text-anchor="middle" x="521" y="-105.8" font-family="Times,serif" font-size="14.00" fill="#000000">&lt;line&gt;</text>
</g>
<!-- 1&#45;&gt;19 -->
<g id="edge19" class="edge">
<title>1&#45;&gt;19</title>
<path fill="none" stroke="#000000" d="M316.4128,-152.9748C364.1144,-142.8382 448.0989,-124.9915 492.1626,-115.628"/>
<polygon fill="#000000" stroke="#000000" points="493.1511,-118.9961 502.2051,-113.4939 491.696,-112.149 493.1511,-118.9961"/>
</g>
<!-- 4 -->
<g id="node5" class="node">
<title>4</title>
<text text-anchor="middle" x="41" y="-54.8" font-family="Times,serif" font-size="14.00" fill="#000000">&lt;two&#45;to&#45;nine&gt;</text>
</g>
<!-- 3&#45;&gt;4 -->
<g id="edge4" class="edge">
<title>3&#45;&gt;4</title>
<path fill="none" stroke="#000000" d="M160.9414,-102.1929C137.5077,-93.6564 98.4931,-79.4439 71.3485,-69.5555"/>
<polygon fill="#000000" stroke="#000000" points="72.5298,-66.2609 61.9358,-66.1266 70.1337,-72.8381 72.5298,-66.2609"/>
</g>
<!-- 6 -->
<g id="node7" class="node">
<title>6</title>
<text text-anchor="middle" x="121" y="-54.8" font-family="Times,serif" font-size="14.00" fill="#000000">&lt;digit&gt;</text>
</g>
<!-- 3&#45;&gt;6 -->
<g id="edge6" class="edge">
<title>3&#45;&gt;6</title>
<path fill="none" stroke="#000000" d="M172.1468,-101.9748C163.1071,-94.291 148.8553,-82.177 137.6893,-72.6859"/>
<polygon fill="#000000" stroke="#000000" points="139.7757,-69.8658 129.8895,-66.0561 135.2422,-75.1994 139.7757,-69.8658"/>
</g>
<!-- 8 -->
<g id="node9" class="node">
<title>8</title>
<text text-anchor="middle" x="181" y="-54.8" font-family="Times,serif" font-size="14.00" fill="#000000">&lt;digit&gt;</text>
</g>
<!-- 3&#45;&gt;8 -->
<g id="edge8" class="edge">
<title>3&#45;&gt;8</title>
<path fill="none" stroke="#000000" d="M181,-101.9748C181,-95.195 181,-84.966 181,-76.1331"/>
<polygon fill="#000000" stroke="#000000" points="184.5001,-76.0561 181,-66.0561 177.5001,-76.0561 184.5001,-76.0561"/>
</g>
<!-- 5 -->
<g id="node6" class="node">
<title>5</title>
<text text-anchor="middle" x="41" y="-3.8" font-family="Times,serif" font-size="14.00" fill="#000000">5</text>
</g>
<!-- 4&#45;&gt;5 -->
<g id="edge5" class="edge">
<title>4&#45;&gt;5</title>
<path fill="none" stroke="#000000" d="M41,-50.9748C41,-44.195 41,-33.966 41,-25.1331"/>
<polygon fill="#000000" stroke="#000000" points="44.5001,-25.0561 41,-15.0561 37.5001,-25.0561 44.5001,-25.0561"/>
</g>
<!-- 7 -->
<g id="node8" class="node">
<title>7</title>
<text text-anchor="middle" x="121" y="-3.8" font-family="Times,serif" font-size="14.00" fill="#000000">5</text>
</g>
<!-- 6&#45;&gt;7 -->
<g id="edge7" class="edge">
<title>6&#45;&gt;7</title>
<path fill="none" stroke="#000000" d="M121,-50.9748C121,-44.195 121,-33.966 121,-25.1331"/>
<polygon fill="#000000" stroke="#000000" points="124.5001,-25.0561 121,-15.0561 117.5001,-25.0561 124.5001,-25.0561"/>
</g>
<!-- 9 -->
<g id="node10" class="node">
<title>9</title>
<text text-anchor="middle" x="181" y="-3.8" font-family="Times,serif" font-size="14.00" fill="#000000">5</text>
</g>
<!-- 8&#45;&gt;9 -->
<g id="edge9" class="edge">
<title>8&#45;&gt;9</title>
<path fill="none" stroke="#000000" d="M181,-50.9748C181,-44.195 181,-33.966 181,-25.1331"/>
<polygon fill="#000000" stroke="#000000" points="184.5001,-25.0561 181,-15.0561 177.5001,-25.0561 184.5001,-25.0561"/>
</g>
<!-- 12 -->
<g id="node13" class="node">
<title>12</title>
<text text-anchor="middle" x="261" y="-54.8" font-family="Times,serif" font-size="14.00" fill="#000000">&lt;two&#45;to&#45;nine&gt;</text>
</g>
<!-- 11&#45;&gt;12 -->
<g id="edge12" class="edge">
<title>11&#45;&gt;12</title>
<path fill="none" stroke="#000000" d="M301.9174,-101.9748C294.8983,-94.517 283.9513,-82.8857 275.1459,-73.53"/>
<polygon fill="#000000" stroke="#000000" points="277.514,-70.9393 268.1116,-66.0561 272.4166,-75.7369 277.514,-70.9393"/>
</g>
<!-- 14 -->
<g id="node15" class="node">
<title>14</title>
<text text-anchor="middle" x="341" y="-54.8" font-family="Times,serif" font-size="14.00" fill="#000000">&lt;digit&gt;</text>
</g>
<!-- 11&#45;&gt;14 -->
<g id="edge14" class="edge">
<title>11&#45;&gt;14</title>
<path fill="none" stroke="#000000" d="M313.7217,-101.9748C318.212,-94.8183 325.1137,-83.8188 330.8512,-74.6747"/>
<polygon fill="#000000" stroke="#000000" points="333.9087,-76.387 336.2589,-66.0561 327.9792,-72.6665 333.9087,-76.387"/>
</g>
<!-- 16 -->
<g id="node17" class="node">
<title>16</title>
<text text-anchor="middle" x="401" y="-54.8" font-family="Times,serif" font-size="14.00" fill="#000000">&lt;digit&gt;</text>
</g>
<!-- 11&#45;&gt;16 -->
<g id="edge16" class="edge">
<title>11&#45;&gt;16</title>
<path fill="none" stroke="#000000" d="M322.5749,-101.9748C337.2512,-93.839 360.8871,-80.7365 378.3794,-71.0397"/>
<polygon fill="#000000" stroke="#000000" points="380.3203,-73.9656 387.3694,-66.0561 376.9264,-67.8434 380.3203,-73.9656"/>
</g>
<!-- 13 -->
<g id="node14" class="node">
<title>13</title>
<text text-anchor="middle" x="261" y="-3.8" font-family="Times,serif" font-size="14.00" fill="#000000">9</text>
</g>
<!-- 12&#45;&gt;13 -->
<g id="edge13" class="edge">
<title>12&#45;&gt;13</title>
<path fill="none" stroke="#000000" d="M261,-50.9748C261,-44.195 261,-33.966 261,-25.1331"/>
<polygon fill="#000000" stroke="#000000" points="264.5001,-25.0561 261,-15.0561 257.5001,-25.0561 264.5001,-25.0561"/>
</g>
<!-- 15 -->
<g id="node16" class="node">
<title>15</title>
<text text-anchor="middle" x="341" y="-3.8" font-family="Times,serif" font-size="14.00" fill="#000000">8</text>
</g>
<!-- 14&#45;&gt;15 -->
<g id="edge15" class="edge">
<title>14&#45;&gt;15</title>
<path fill="none" stroke="#000000" d="M341,-50.9748C341,-44.195 341,-33.966 341,-25.1331"/>
<polygon fill="#000000" stroke="#000000" points="344.5001,-25.0561 341,-15.0561 337.5001,-25.0561 344.5001,-25.0561"/>
</g>
<!-- 17 -->
<g id="node18" class="node">
<title>17</title>
<text text-anchor="middle" x="401" y="-3.8" font-family="Times,serif" font-size="14.00" fill="#000000">7</text>
</g>
<!-- 16&#45;&gt;17 -->
<g id="edge17" class="edge">
<title>16&#45;&gt;17</title>
<path fill="none" stroke="#000000" d="M401,-50.9748C401,-44.195 401,-33.966 401,-25.1331"/>
<polygon fill="#000000" stroke="#000000" points="404.5001,-25.0561 401,-15.0561 397.5001,-25.0561 404.5001,-25.0561"/>
</g>
<!-- 20 -->
<g id="node21" class="node">
<title>20</title>
<text text-anchor="middle" x="461" y="-54.8" font-family="Times,serif" font-size="14.00" fill="#000000">&lt;digit&gt;</text>
</g>
<!-- 19&#45;&gt;20 -->
<g id="edge20" class="edge">
<title>19&#45;&gt;20</title>
<path fill="none" stroke="#000000" d="M512.1468,-101.9748C503.1071,-94.291 488.8553,-82.177 477.6893,-72.6859"/>
<polygon fill="#000000" stroke="#000000" points="479.7757,-69.8658 469.8895,-66.0561 475.2422,-75.1994 479.7757,-69.8658"/>
</g>
<!-- 22 -->
<g id="node23" class="node">
<title>22</title>
<text text-anchor="middle" x="521" y="-54.8" font-family="Times,serif" font-size="14.00" fill="#000000">&lt;digit&gt;</text>
</g>
<!-- 19&#45;&gt;22 -->
<g id="edge22" class="edge">
<title>19&#45;&gt;22</title>
<path fill="none" stroke="#000000" d="M521,-101.9748C521,-95.195 521,-84.966 521,-76.1331"/>
<polygon fill="#000000" stroke="#000000" points="524.5001,-76.0561 521,-66.0561 517.5001,-76.0561 524.5001,-76.0561"/>
</g>
<!-- 24 -->
<g id="node25" class="node">
<title>24</title>
<text text-anchor="middle" x="581" y="-54.8" font-family="Times,serif" font-size="14.00" fill="#000000">&lt;digit&gt;</text>
</g>
<!-- 19&#45;&gt;24 -->
<g id="edge24" class="edge">
<title>19&#45;&gt;24</title>
<path fill="none" stroke="#000000" d="M529.8532,-101.9748C538.8929,-94.291 553.1447,-82.177 564.3107,-72.6859"/>
<polygon fill="#000000" stroke="#000000" points="566.7578,-75.1994 572.1105,-66.0561 562.2243,-69.8658 566.7578,-75.1994"/>
</g>
<!-- 26 -->
<g id="node27" class="node">
<title>26</title>
<text text-anchor="middle" x="641" y="-54.8" font-family="Times,serif" font-size="14.00" fill="#000000">&lt;digit&gt;</text>
</g>
<!-- 19&#45;&gt;26 -->
<g id="edge26" class="edge">
<title>19&#45;&gt;26</title>
<path fill="none" stroke="#000000" d="M538.7064,-101.9748C558.5584,-93.5377 590.9786,-79.7591 613.996,-69.9767"/>
<polygon fill="#000000" stroke="#000000" points="615.3866,-73.1887 623.2209,-66.0561 612.6486,-66.7464 615.3866,-73.1887"/>
</g>
<!-- 21 -->
<g id="node22" class="node">
<title>21</title>
<text text-anchor="middle" x="461" y="-3.8" font-family="Times,serif" font-size="14.00" fill="#000000">6</text>
</g>
<!-- 20&#45;&gt;21 -->
<g id="edge21" class="edge">
<title>20&#45;&gt;21</title>
<path fill="none" stroke="#000000" d="M461,-50.9748C461,-44.195 461,-33.966 461,-25.1331"/>
<polygon fill="#000000" stroke="#000000" points="464.5001,-25.0561 461,-15.0561 457.5001,-25.0561 464.5001,-25.0561"/>
</g>
<!-- 23 -->
<g id="node24" class="node">
<title>23</title>
<text text-anchor="middle" x="521" y="-3.8" font-family="Times,serif" font-size="14.00" fill="#000000">5</text>
</g>
<!-- 22&#45;&gt;23 -->
<g id="edge23" class="edge">
<title>22&#45;&gt;23</title>
<path fill="none" stroke="#000000" d="M521,-50.9748C521,-44.195 521,-33.966 521,-25.1331"/>
<polygon fill="#000000" stroke="#000000" points="524.5001,-25.0561 521,-15.0561 517.5001,-25.0561 524.5001,-25.0561"/>
</g>
<!-- 25 -->
<g id="node26" class="node">
<title>25</title>
<text text-anchor="middle" x="581" y="-3.8" font-family="Times,serif" font-size="14.00" fill="#000000">4</text>
</g>
<!-- 24&#45;&gt;25 -->
<g id="edge25" class="edge">
<title>24&#45;&gt;25</title>
<path fill="none" stroke="#000000" d="M581,-50.9748C581,-44.195 581,-33.966 581,-25.1331"/>
<polygon fill="#000000" stroke="#000000" points="584.5001,-25.0561 581,-15.0561 577.5001,-25.0561 584.5001,-25.0561"/>
</g>
<!-- 27 -->
<g id="node28" class="node">
<title>27</title>
<text text-anchor="middle" x="641" y="-3.8" font-family="Times,serif" font-size="14.00" fill="#000000">3</text>
</g>
<!-- 26&#45;&gt;27 -->
<g id="edge27" class="edge">
<title>26&#45;&gt;27</title>
<path fill="none" stroke="#000000" d="M641,-50.9748C641,-44.195 641,-33.966 641,-25.1331"/>
<polygon fill="#000000" stroke="#000000" points="644.5001,-25.0561 641,-15.0561 637.5001,-25.0561 644.5001,-25.0561"/>
</g>
</g>
</svg>
