<?xml version="1.0" encoding="UTF-8" standalone="no"?>
<!DOCTYPE svg PUBLIC "-//W3C//DTD SVG 1.1//EN"
 "http://www.w3.org/Graphics/SVG/1.1/DTD/svg11.dtd">
<!-- Generated by graphviz version 2.50.0 (20211204.2007)
 -->
<!-- Pages: 1 -->
<svg width="646pt" height="227pt"
 viewBox="0.00 0.00 645.50 227.00" xmlns="http://www.w3.org/2000/svg" xmlns:xlink="http://www.w3.org/1999/xlink">
<g id="graph0" class="graph" transform="scale(1 1) rotate(0) translate(4 223)">
<polygon fill="white" stroke="transparent" points="-4,4 -4,-223 641.5,-223 641.5,4 -4,4"/>
<!-- 0 -->
<g id="node1" class="node">
<title>0</title>
<text text-anchor="middle" x="262.5" y="-207.8" font-family="Times,serif" font-size="14.00">&lt;start&gt;</text>
</g>
<!-- 1 -->
<g id="node2" class="node">
<title>1</title>
<text text-anchor="middle" x="262.5" y="-156.8" font-family="Times,serif" font-size="14.00">&lt;phone&#45;number&gt;</text>
</g>
<!-- 0&#45;&gt;1 -->
<g id="edge1" class="edge">
<title>0&#45;&gt;1</title>
<path fill="none" stroke="black" d="M262.5,-203.69C262.5,-197.18 262.5,-187.1 262.5,-178.43"/>
<polygon fill="black" stroke="black" points="266,-178.26 262.5,-168.26 259,-178.26 266,-178.26"/>
</g>
<!-- 2 -->
<g id="node3" class="node">
<title>2</title>
<text text-anchor="middle" x="127.5" y="-105.8" font-family="Times,serif" font-size="14.00">(</text>
</g>
<!-- 1&#45;&gt;2 -->
<g id="edge2" class="edge">
<title>1&#45;&gt;2</title>
<path fill="none" stroke="black" d="M239.86,-152.9C214.85,-145.33 173.62,-132.02 139.5,-117 139.4,-116.95 139.29,-116.91 139.19,-116.86"/>
<polygon fill="black" stroke="black" points="140.68,-113.69 130.2,-112.13 137.42,-119.88 140.68,-113.69"/>
</g>
<!-- 3 -->
<g id="node4" class="node">
<title>3</title>
<text text-anchor="middle" x="168.5" y="-105.8" font-family="Times,serif" font-size="14.00">&lt;area&gt;</text>
</g>
<!-- 1&#45;&gt;3 -->
<g id="edge3" class="edge">
<title>1&#45;&gt;3</title>
<path fill="none" stroke="black" d="M249.82,-152.89C234.46,-144.88 208.34,-131.27 189.85,-121.63"/>
<polygon fill="black" stroke="black" points="191.46,-118.52 180.98,-117 188.23,-124.73 191.46,-118.52"/>
</g>
<!-- 10 -->
<g id="node11" class="node">
<title>10</title>
<text text-anchor="middle" x="235.5" y="-105.8" font-family="Times,serif" font-size="14.00">)</text>
</g>
<!-- 1&#45;&gt;10 -->
<g id="edge10" class="edge">
<title>1&#45;&gt;10</title>
<path fill="none" stroke="black" d="M258.75,-152.69C254.7,-145.35 248.16,-133.48 243.05,-124.2"/>
<polygon fill="black" stroke="black" points="245.98,-122.27 238.09,-115.2 239.85,-125.65 245.98,-122.27"/>
</g>
<!-- 11 -->
<g id="node12" class="node">
<title>11</title>
<text text-anchor="middle" x="290.5" y="-105.8" font-family="Times,serif" font-size="14.00">&lt;exchange&gt;</text>
</g>
<!-- 1&#45;&gt;11 -->
<g id="edge11" class="edge">
<title>1&#45;&gt;11</title>
<path fill="none" stroke="black" d="M266.39,-152.69C270.32,-145.81 276.52,-134.96 281.65,-125.98"/>
<polygon fill="black" stroke="black" points="284.72,-127.67 286.64,-117.26 278.64,-124.2 284.72,-127.67"/>
</g>
<!-- 18 -->
<g id="node19" class="node">
<title>18</title>
<text text-anchor="middle" x="345.5" y="-105.8" font-family="Times,serif" font-size="14.00">&#45;</text>
</g>
<!-- 1&#45;&gt;18 -->
<g id="edge18" class="edge">
<title>1&#45;&gt;18</title>
<path fill="none" stroke="black" d="M273.69,-152.89C289.51,-143.55 318.25,-126.59 334.15,-117.2"/>
<polygon fill="black" stroke="black" points="335.96,-120.2 342.79,-112.1 332.4,-114.17 335.96,-120.2"/>
</g>
<!-- 19 -->
<g id="node20" class="node">
<title>19</title>
<text text-anchor="middle" x="496.5" y="-105.8" font-family="Times,serif" font-size="14.00">&lt;line&gt;</text>
</g>
<!-- 1&#45;&gt;19 -->
<g id="edge19" class="edge">
<title>1&#45;&gt;19</title>
<path fill="none" stroke="black" d="M293.57,-152.99C339.27,-143.43 423.93,-125.7 468.06,-116.45"/>
<polygon fill="black" stroke="black" points="468.79,-119.88 477.86,-114.4 467.35,-113.03 468.79,-119.88"/>
</g>
<!-- 4 -->
<g id="node5" class="node">
<title>4</title>
<text text-anchor="middle" x="34.5" y="-54.8" font-family="Times,serif" font-size="14.00">&lt;lead&#45;digit&gt;</text>
</g>
<!-- 3&#45;&gt;4 -->
<g id="edge4" class="edge">
<title>3&#45;&gt;4</title>
<path fill="none" stroke="black" d="M150.71,-101.99C127.98,-93.68 88.42,-79.22 61.85,-69.5"/>
<polygon fill="black" stroke="black" points="62.96,-66.18 52.37,-66.03 60.56,-72.76 62.96,-66.18"/>
</g>
<!-- 6 -->
<g id="node7" class="node">
<title>6</title>
<text text-anchor="middle" x="108.5" y="-54.8" font-family="Times,serif" font-size="14.00">&lt;digit&gt;</text>
</g>
<!-- 3&#45;&gt;6 -->
<g id="edge6" class="edge">
<title>3&#45;&gt;6</title>
<path fill="none" stroke="black" d="M160.16,-101.69C151.02,-94.23 136.15,-82.08 124.71,-72.73"/>
<polygon fill="black" stroke="black" points="126.73,-69.87 116.77,-66.26 122.3,-75.29 126.73,-69.87"/>
</g>
<!-- 8 -->
<g id="node9" class="node">
<title>8</title>
<text text-anchor="middle" x="168.5" y="-54.8" font-family="Times,serif" font-size="14.00">&lt;digit&gt;</text>
</g>
<!-- 3&#45;&gt;8 -->
<g id="edge8" class="edge">
<title>3&#45;&gt;8</title>
<path fill="none" stroke="black" d="M168.5,-101.69C168.5,-95.18 168.5,-85.1 168.5,-76.43"/>
<polygon fill="black" stroke="black" points="172,-76.26 168.5,-66.26 165,-76.26 172,-76.26"/>
</g>
<!-- 5 -->
<g id="node6" class="node">
<title>5</title>
<text text-anchor="middle" x="34.5" y="-3.8" font-family="Times,serif" font-size="14.00">5</text>
</g>
<!-- 4&#45;&gt;5 -->
<g id="edge5" class="edge">
<title>4&#45;&gt;5</title>
<path fill="none" stroke="black" d="M34.5,-50.69C34.5,-44.18 34.5,-34.1 34.5,-25.43"/>
<polygon fill="black" stroke="black" points="38,-25.26 34.5,-15.26 31,-25.26 38,-25.26"/>
</g>
<!-- 7 -->
<g id="node8" class="node">
<title>7</title>
<text text-anchor="middle" x="108.5" y="-3.8" font-family="Times,serif" font-size="14.00">5</text>
</g>
<!-- 6&#45;&gt;7 -->
<g id="edge7" class="edge">
<title>6&#45;&gt;7</title>
<path fill="none" stroke="black" d="M108.5,-50.69C108.5,-44.18 108.5,-34.1 108.5,-25.43"/>
<polygon fill="black" stroke="black" points="112,-25.26 108.5,-15.26 105,-25.26 112,-25.26"/>
</g>
<!-- 9 -->
<g id="node10" class="node">
<title>9</title>
<text text-anchor="middle" x="168.5" y="-3.8" font-family="Times,serif" font-size="14.00">5</text>
</g>
<!-- 8&#45;&gt;9 -->
<g id="edge9" class="edge">
<title>8&#45;&gt;9</title>
<path fill="none" stroke="black" d="M168.5,-50.69C168.5,-44.18 168.5,-34.1 168.5,-25.43"/>
<polygon fill="black" stroke="black" points="172,-25.26 168.5,-15.26 165,-25.26 172,-25.26"/>
</g>
<!-- 12 -->
<g id="node13" class="node">
<title>12</title>
<text text-anchor="middle" x="242.5" y="-54.8" font-family="Times,serif" font-size="14.00">&lt;lead&#45;digit&gt;</text>
</g>
<!-- 11&#45;&gt;12 -->
<g id="edge12" class="edge">
<title>11&#45;&gt;12</title>
<path fill="none" stroke="black" d="M283.83,-101.69C276.73,-94.45 265.32,-82.79 256.28,-73.57"/>
<polygon fill="black" stroke="black" points="258.62,-70.95 249.12,-66.26 253.62,-75.85 258.62,-70.95"/>
</g>
<!-- 14 -->
<g id="node15" class="node">
<title>14</title>
<text text-anchor="middle" x="316.5" y="-54.8" font-family="Times,serif" font-size="14.00">&lt;digit&gt;</text>
</g>
<!-- 11&#45;&gt;14 -->
<g id="edge14" class="edge">
<title>11&#45;&gt;14</title>
<path fill="none" stroke="black" d="M294.12,-101.69C297.72,-94.88 303.4,-84.19 308.13,-75.27"/>
<polygon fill="black" stroke="black" points="311.32,-76.73 312.92,-66.26 305.14,-73.45 311.32,-76.73"/>
</g>
<!-- 16 -->
<g id="node17" class="node">
<title>16</title>
<text text-anchor="middle" x="376.5" y="-54.8" font-family="Times,serif" font-size="14.00">&lt;digit&gt;</text>
</g>
<!-- 11&#45;&gt;16 -->
<g id="edge16" class="edge">
<title>11&#45;&gt;16</title>
<path fill="none" stroke="black" d="M302.1,-101.89C315.9,-94.03 339.18,-80.77 356.03,-71.16"/>
<polygon fill="black" stroke="black" points="358.13,-74 365.09,-66 354.66,-67.91 358.13,-74"/>
</g>
<!-- 13 -->
<g id="node14" class="node">
<title>13</title>
<text text-anchor="middle" x="242.5" y="-3.8" font-family="Times,serif" font-size="14.00">9</text>
</g>
<!-- 12&#45;&gt;13 -->
<g id="edge13" class="edge">
<title>12&#45;&gt;13</title>
<path fill="none" stroke="black" d="M242.5,-50.69C242.5,-44.18 242.5,-34.1 242.5,-25.43"/>
<polygon fill="black" stroke="black" points="246,-25.26 242.5,-15.26 239,-25.26 246,-25.26"/>
</g>
<!-- 15 -->
<g id="node16" class="node">
<title>15</title>
<text text-anchor="middle" x="316.5" y="-3.8" font-family="Times,serif" font-size="14.00">8</text>
</g>
<!-- 14&#45;&gt;15 -->
<g id="edge15" class="edge">
<title>14&#45;&gt;15</title>
<path fill="none" stroke="black" d="M316.5,-50.69C316.5,-44.18 316.5,-34.1 316.5,-25.43"/>
<polygon fill="black" stroke="black" points="320,-25.26 316.5,-15.26 313,-25.26 320,-25.26"/>
</g>
<!-- 17 -->
<g id="node18" class="node">
<title>17</title>
<text text-anchor="middle" x="376.5" y="-3.8" font-family="Times,serif" font-size="14.00">7</text>
</g>
<!-- 16&#45;&gt;17 -->
<g id="edge17" class="edge">
<title>16&#45;&gt;17</title>
<path fill="none" stroke="black" d="M376.5,-50.69C376.5,-44.18 376.5,-34.1 376.5,-25.43"/>
<polygon fill="black" stroke="black" points="380,-25.26 376.5,-15.26 373,-25.26 380,-25.26"/>
</g>
<!-- 20 -->
<g id="node21" class="node">
<title>20</title>
<text text-anchor="middle" x="436.5" y="-54.8" font-family="Times,serif" font-size="14.00">&lt;digit&gt;</text>
</g>
<!-- 19&#45;&gt;20 -->
<g id="edge20" class="edge">
<title>19&#45;&gt;20</title>
<path fill="none" stroke="black" d="M488.16,-101.69C479.02,-94.23 464.15,-82.08 452.71,-72.73"/>
<polygon fill="black" stroke="black" points="454.73,-69.87 444.77,-66.26 450.3,-75.29 454.73,-69.87"/>
</g>
<!-- 22 -->
<g id="node23" class="node">
<title>22</title>
<text text-anchor="middle" x="496.5" y="-54.8" font-family="Times,serif" font-size="14.00">&lt;digit&gt;</text>
</g>
<!-- 19&#45;&gt;22 -->
<g id="edge22" class="edge">
<title>19&#45;&gt;22</title>
<path fill="none" stroke="black" d="M496.5,-101.69C496.5,-95.18 496.5,-85.1 496.5,-76.43"/>
<polygon fill="black" stroke="black" points="500,-76.26 496.5,-66.26 493,-76.26 500,-76.26"/>
</g>
<!-- 24 -->
<g id="node25" class="node">
<title>24</title>
<text text-anchor="middle" x="556.5" y="-54.8" font-family="Times,serif" font-size="14.00">&lt;digit&gt;</text>
</g>
<!-- 19&#45;&gt;24 -->
<g id="edge24" class="edge">
<title>19&#45;&gt;24</title>
<path fill="none" stroke="black" d="M504.84,-101.69C513.98,-94.23 528.85,-82.08 540.29,-72.73"/>
<polygon fill="black" stroke="black" points="542.7,-75.29 548.23,-66.26 538.27,-69.87 542.7,-75.29"/>
</g>
<!-- 26 -->
<g id="node27" class="node">
<title>26</title>
<text text-anchor="middle" x="616.5" y="-54.8" font-family="Times,serif" font-size="14.00">&lt;digit&gt;</text>
</g>
<!-- 19&#45;&gt;26 -->
<g id="edge26" class="edge">
<title>19&#45;&gt;26</title>
<path fill="none" stroke="black" d="M512.68,-101.89C532.84,-93.66 567.49,-79.51 591.17,-69.84"/>
<polygon fill="black" stroke="black" points="592.64,-73.02 600.57,-66 589.99,-66.54 592.64,-73.02"/>
</g>
<!-- 21 -->
<g id="node22" class="node">
<title>21</title>
<text text-anchor="middle" x="436.5" y="-3.8" font-family="Times,serif" font-size="14.00">6</text>
</g>
<!-- 20&#45;&gt;21 -->
<g id="edge21" class="edge">
<title>20&#45;&gt;21</title>
<path fill="none" stroke="black" d="M436.5,-50.69C436.5,-44.18 436.5,-34.1 436.5,-25.43"/>
<polygon fill="black" stroke="black" points="440,-25.26 436.5,-15.26 433,-25.26 440,-25.26"/>
</g>
<!-- 23 -->
<g id="node24" class="node">
<title>23</title>
<text text-anchor="middle" x="496.5" y="-3.8" font-family="Times,serif" font-size="14.00">5</text>
</g>
<!-- 22&#45;&gt;23 -->
<g id="edge23" class="edge">
<title>22&#45;&gt;23</title>
<path fill="none" stroke="black" d="M496.5,-50.69C496.5,-44.18 496.5,-34.1 496.5,-25.43"/>
<polygon fill="black" stroke="black" points="500,-25.26 496.5,-15.26 493,-25.26 500,-25.26"/>
</g>
<!-- 25 -->
<g id="node26" class="node">
<title>25</title>
<text text-anchor="middle" x="556.5" y="-3.8" font-family="Times,serif" font-size="14.00">4</text>
</g>
<!-- 24&#45;&gt;25 -->
<g id="edge25" class="edge">
<title>24&#45;&gt;25</title>
<path fill="none" stroke="black" d="M556.5,-50.69C556.5,-44.18 556.5,-34.1 556.5,-25.43"/>
<polygon fill="black" stroke="black" points="560,-25.26 556.5,-15.26 553,-25.26 560,-25.26"/>
</g>
<!-- 27 -->
<g id="node28" class="node">
<title>27</title>
<text text-anchor="middle" x="616.5" y="-3.8" font-family="Times,serif" font-size="14.00">3</text>
</g>
<!-- 26&#45;&gt;27 -->
<g id="edge27" class="edge">
<title>26&#45;&gt;27</title>
<path fill="none" stroke="black" d="M616.5,-50.69C616.5,-44.18 616.5,-34.1 616.5,-25.43"/>
<polygon fill="black" stroke="black" points="620,-25.26 616.5,-15.26 613,-25.26 620,-25.26"/>
</g>
</g>
</svg>
